<svg xmlns="http://www.w3.org/2000/svg" width="1000" height="1000"><path d="M943 791H131V470C131 325 122 121 31 -14L107 -60C197 92 208 317 208 470V713H943ZM584 57C837 57 933 185 933 284C933 383 852 475 617 475C459 475 346 444 217 374L261 310C360 367 469 402 617 402C808 402 853 336 853 284C853 222 770 132 584 132C445 132 399 149 399 185C399 220 460 247 555 247C642 247 714 210 765 145L828 195C753 276 669 319 555 319C408 319 315 260 315 185C315 108 379 57 584 57ZM532 -79H610V562H532ZM169 540 886 539V615H169Z" transform="translate(0, 880) scale(1,-1)" /></svg>