<svg xmlns="http://www.w3.org/2000/svg" width="1000" height="1000"><path d="M165 803 112 754C164 707 224 649 253 608L308 662C277 702 218 759 165 803ZM145 22 213 7 333 491 271 523 252 511H52V436H241ZM343 150 75 6 110 -69 378 86ZM551 466 628 421C718 505 807 609 879 716L811 754L799 740H539V662H743C702 609 631 532 551 466ZM357 587 412 524C499 602 591 698 659 804L588 841C528 743 445 656 357 587ZM483 64V258H407V55C407 -38 446 -58 569 -58H826C916 -58 942 -9 957 135L877 145C868 40 857 15 807 15H579C498 15 483 22 483 64ZM785 196C855 196 895 264 907 474L847 487L829 480H399V406H825C816 305 794 271 762 271C701 271 652 273 599 278V202C654 198 712 196 785 196Z" transform="translate(0, 880) scale(1,-1)" /></svg>