<svg xmlns="http://www.w3.org/2000/svg" width="1000" height="1000"><path d="M204 -49H590C655 -49 708 -9 708 67C708 145 651 235 591 312L523 273C586 193 622 123 622 80C622 50 605 31 574 31H214C182 31 167 42 167 61C167 127 174 280 333 517L260 550C99 304 84 139 84 40C84 -16 115 -49 204 -49ZM810 108 887 90C907 189 919 273 919 351C919 466 855 537 721 537C611 537 524 510 424 468L451 397C549 436 638 457 721 457C805 457 838 424 838 349C838 290 828 202 810 108ZM101 695H839V775H101Z" transform="translate(0, 880) scale(1,-1)" /></svg>