<svg xmlns="http://www.w3.org/2000/svg" width="1000" height="1000"><path d="M414 458V380C819 343 875 468 875 573C875 681 783 754 624 754C482 754 396 719 298 645C328 702 355 766 374 836L290 853C246 703 163 558 68 463L136 414C188 472 219 515 245 556C362 639 505 678 616 678C729 678 786 623 786 573C786 494 722 418 414 458ZM610 -13 655 -81C810 -40 886 39 886 112C886 211 824 260 675 260C536 260 403 208 330 167C412 278 446 334 476 525L391 535C369 382 339 274 230 143C211 122 170 98 129 68L192 16C355 116 541 181 675 181C752 181 792 156 792 112C792 65 720 7 610 -13Z" transform="translate(0, 880) scale(1,-1)" /></svg>