<svg xmlns="http://www.w3.org/2000/svg" width="675" height="1000"><path d="M76 565C76 325 520 362 520 186C520 103 447 66 345 66C227 66 152 119 152 217H54C51 76 175 -14 341 -14C498 -14 618 64 618 196C619 432 171 400 171 567C171 647 238 687 340 687C454 687 517 634 517 541H615C610 682 510 765 341 765C195 765 76 687 76 565ZM250 -170 224 -223C247 -235 277 -242 313 -242C410 -242 453 -194 453 -144C453 -103 418 -56 344 -47L367 6H317L276 -68L286 -109C291 -108 301 -107 308 -107C367 -107 387 -130 387 -143C387 -162 365 -180 307 -180C282 -180 261 -177 250 -170Z" transform="translate(0, 880) scale(1,-1)" /></svg>