<svg xmlns="http://www.w3.org/2000/svg" width="877" height="1000"><path d="M53 381H141C146 437 203 467 262 467C335 467 368 436 376 374V321H288C147 321 41 268 41 146C41 47 131 -6 226 -6C320 -6 387 33 454 137H464V360C464 479 386 541 266 541C164 541 53 486 53 381ZM377 143C346 93 288 63 235 63C183 63 131 97 131 151C131 223 207 252 305 252H377ZM836 152 753 177C746 138 709 71 616 71C510 71 463 166 467 261H835C847 394 778 542 610 542C453 542 376 405 376 266C376 126 452 -7 617 -7C716 -7 804 46 836 152ZM748 329H477C495 400 537 464 611 464C704 464 743 404 748 329Z" transform="translate(0, 880) scale(1,-1)" /></svg>