<svg xmlns="http://www.w3.org/2000/svg" width="1000" height="1000"><path d="M360 371 434 327C528 420 659 606 716 715L636 737C580 613 450 448 360 371ZM401 -69H960V6H401ZM545 4H678C757 55 800 143 800 232C800 321 749 390 663 390C589 390 524 336 524 255C524 166 590 122 661 122C680 122 695 126 710 134C678 72 638 43 545 4ZM663 186C625 186 597 215 597 255C597 294 625 323 663 323C702 323 726 294 726 255C726 215 702 186 663 186ZM785 282V609H705V342ZM518 450H937V525H518ZM420 700H933V778H420Z" transform="translate(0, 880) scale(1,-1)" /></svg>