<svg xmlns="http://www.w3.org/2000/svg" width="1000" height="1000"><path d="M110 -48H184V593H110ZM275 448C360 448 386 553 386 799H88V729H310C312 585 291 521 257 521C232 521 210 523 184 531V453C212 449 241 448 275 448ZM380 437 460 401C519 516 571 660 616 806L541 828C496 678 441 544 380 437ZM902 649 840 678 826 671H515V589H806C733 257 604 30 522 30C491 30 461 74 461 168C461 241 488 301 540 301C626 301 729 87 895 -73L955 -10C793 136 685 380 540 380C449 380 385 315 385 168C385 23 438 -52 519 -52C657 -52 801 173 902 649Z" transform="translate(0, 880) scale(1,-1)" /></svg>