<svg xmlns="http://www.w3.org/2000/svg" width="1000" height="1000"><path d="M633 -69C741 -66 812 8 812 149C812 279 730 339 614 339C544 339 487 324 439 298C475 346 504 397 532 464H740V539H260V464H452C431 406 400 340 352 272C335 247 299 225 260 195L301 131C414 219 501 259 616 259C701 259 732 230 732 145C732 51 690 4 630 3C590 2 557 10 518 31V-52C557 -67 594 -70 633 -69ZM103 -25H176V741H103ZM382 567 443 604C405 676 365 739 318 808L255 771C302 704 344 641 382 567ZM883 246 956 274C940 345 901 473 860 569L791 545C830 449 869 318 883 246ZM560 605 625 572C672 637 711 704 749 783L682 815C649 738 606 668 560 605Z" transform="translate(0, 880) scale(1,-1)" /></svg>