<svg xmlns="http://www.w3.org/2000/svg" width="1000" height="1000"><path d="M353 621 408 680C347 726 279 770 201 813L151 756C228 713 295 667 353 621ZM218 -64C384 -64 464 66 464 188C464 287 393 383 224 426L192 361C331 324 379 255 379 188C379 100 323 12 218 12C175 12 146 28 146 70C146 146 258 217 473 315L422 373C207 278 59 182 59 70C59 -22 123 -64 218 -64ZM228 403 299 371C373 430 449 507 491 565L426 609L409 600H83V528H358C326 485 279 439 228 403Z" transform="translate(0, 880) scale(1,-1)" /></svg>