<svg xmlns="http://www.w3.org/2000/svg" width="1000" height="1000"><path d="M104 51V-37C141 -50 187 -59 241 -59C369 -59 508 21 508 221C508 433 407 495 143 449V376C371 419 427 360 427 220C427 98 350 16 241 16C185 16 139 31 104 51ZM72 531H513V607H146C169 670 190 738 211 811L134 833C117 753 95 677 70 607L57 596ZM224 448 292 424C352 498 426 611 479 723L417 770L397 761H236V688H370C334 611 283 526 224 448ZM183 354V143H265V354ZM76 147 96 72 407 152 387 227Z" transform="translate(0, 880) scale(1,-1)" /></svg>