<svg xmlns="http://www.w3.org/2000/svg" width="1000" height="1000"><path d="M122 464H196V621C289 691 397 733 556 733C716 733 764 694 764 636C764 532 572 525 293 556V476C604 452 845 457 845 636C845 735 783 812 556 812C381 812 265 764 196 691V775H122ZM560 -65H781C876 -65 895 -11 905 88L830 93C824 28 817 9 771 9H576C526 9 516 22 516 72V643H438V75C438 -36 462 -65 560 -65ZM586 145H874V216H763V423H688V216H586ZM236 227C265 279 295 340 327 409L262 432C199 288 125 181 55 121L119 75C140 101 166 132 185 146C199 156 221 157 234 153C248 149 263 127 273 79L412 152L387 203L305 172C300 201 275 217 236 227Z" transform="translate(0, 880) scale(1,-1)" /></svg>