<svg xmlns="http://www.w3.org/2000/svg" width="1000" height="1000"><path d="M266 76 335 64C421 147 487 229 487 336C487 428 423 491 292 491C174 491 99 446 99 351C99 269 147 204 246 204C304 204 343 253 343 308V841H265V359C265 293 252 276 228 276C211 276 174 302 174 346C174 386 204 418 292 418C369 418 408 371 408 332C408 271 379 197 266 76ZM80 -66 559 115 533 190 50 16ZM61 601H543V682H61ZM637 -20 708 -87C830 32 939 172 941 434C942 581 892 660 779 660C724 660 677 642 635 614L648 540C694 569 736 582 779 582C833 582 862 539 862 434C862 256 764 66 637 -20ZM536 424 602 382C671 484 714 636 727 838L651 840C641 660 598 514 536 424Z" transform="translate(0, 880) scale(1,-1)" /></svg>