<svg xmlns="http://www.w3.org/2000/svg" width="1000" height="1000"><path d="M921 -34 924 51C695 3 383 21 245 66C161 94 122 154 117 318L41 303C45 125 101 26 216 -13C359 -61 687 -81 921 -34ZM161 293H917V367H161ZM494 80C537 81 583 92 583 173V840H502V173C502 154 499 147 479 147C434 147 388 155 339 166V91C396 83 451 79 494 80ZM326 587 397 614C377 668 323 753 274 813L208 787C256 723 307 640 326 587ZM170 480H888V554H170ZM673 612 735 590C774 643 822 724 860 795L787 819C761 756 712 666 673 612Z" transform="translate(0, 880) scale(1,-1)" /></svg>