<svg xmlns="http://www.w3.org/2000/svg" width="1000" height="1000"><path d="M287 -72C344 -72 370 -47 370 5V390C432 427 499 486 555 543L488 585L478 577H95V507H420C383 475 345 451 297 424V22C297 5 285 -6 269 -6C239 -6 208 -2 167 9V-63C209 -70 247 -72 287 -72ZM79 100 577 202 561 259 66 169ZM99 316H526V383H99ZM901 -81 950 -23C850 32 701 94 572 137L538 79C664 35 800 -24 901 -81ZM269 611 335 649C311 695 255 762 199 812L137 777C191 728 246 658 269 611ZM644 80 700 39C870 139 925 187 925 256C925 314 854 361 689 380C769 430 836 485 916 578L845 615C770 516 701 451 571 381L581 326C775 304 840 279 840 256C840 225 803 172 644 80ZM462 609H538V841H462ZM654 645 717 611C764 654 825 724 870 783L798 818C763 762 702 691 654 645Z" transform="translate(0, 880) scale(1,-1)" /></svg>