<svg xmlns="http://www.w3.org/2000/svg" width="1000" height="1000"><path d="M136 -44 216 -73C305 65 324 181 330 360H253C245 177 230 91 136 -44ZM618 -75C793 -75 807 80 807 218C807 300 788 361 600 361C520 361 421 353 312 338L315 269C436 285 517 291 599 291C709 291 728 261 728 218C728 129 715 -10 608 -10C556 -10 501 -6 452 6V-64C508 -74 548 -75 618 -75ZM661 118 664 185 372 191 368 123ZM201 405C335 405 436 480 436 630C436 721 391 812 243 812C178 812 116 796 76 777L98 709C135 725 192 738 245 738C326 738 357 692 357 621C357 529 292 478 203 478C175 478 159 491 159 512C159 615 512 745 694 745C784 745 825 714 825 650C825 558 781 510 663 510C624 510 556 520 483 539V459C555 444 612 434 669 434C841 434 912 521 912 650C912 761 848 823 694 823C473 823 78 659 78 505C78 444 138 405 201 405ZM437 349 505 319C587 400 639 479 688 590L605 613C559 502 508 419 437 349Z" transform="translate(0, 880) scale(1,-1)" /></svg>