<svg xmlns="http://www.w3.org/2000/svg" width="1000" height="1000"><path d="M253 665H880V742H253ZM0.0 0.0Q0 0 0.0 0.0Q0 0 0.0 0.0ZM733 679 661 718C532 484 349 322 251 322C208 322 181 341 181 378C181 410 215 443 306 443C499 443 612 358 926 266L947 346C634 434 504 522 306 522C174 522 99 462 99 378C99 282 170 244 251 244C386 244 581 411 733 679ZM35 526 106 477C220 580 309 700 367 820L287 845C234 728 143 616 35 526ZM50 -4 109 -63C218 8 342 104 417 206L333 242C276 155 161 56 50 -4ZM875 -59 945 -7C877 68 756 171 656 249L593 201C691 120 810 17 875 -59Z" transform="translate(0, 880) scale(1,-1)" /></svg>