<svg xmlns="http://www.w3.org/2000/svg" width="1000" height="1000"><path d="M449 401C509 401 546 430 546 486V837H469V491C469 476 455 465 433 465C380 462 329 469 267 484V414C326 403 383 400 449 401ZM62 500 132 466C211 537 270 636 303 722L221 741C196 663 141 568 62 500ZM867 455 945 484C919 554 851 659 757 745L686 718C772 633 844 524 867 455ZM71 -8 112 -77C447 0 533 135 565 412L493 419C459 173 373 62 71 -8ZM71 232H935V301H71ZM865 -79 921 -18C844 38 734 104 608 149L562 91C685 44 790 -20 865 -79Z" transform="translate(0, 880) scale(1,-1)" /></svg>