<svg xmlns="http://www.w3.org/2000/svg" width="1000" height="1000"><path d="M806 394C886 394 917 419 930 526L865 544C858 466 848 458 807 458C596 456 414 627 392 837H314C337 599 544 394 806 394ZM458 -80H537V441H458ZM316 161V90C647 53 905 82 905 221C905 329 778 359 592 359C395 359 257 326 131 269L161 213C285 266 403 292 592 292C735 292 826 270 826 221C826 143 609 114 316 161ZM133 53H209V330H133ZM100 468 149 404C365 436 675 495 847 630L779 666C624 545 310 490 100 468ZM91 635 901 699 893 762 83 701Z" transform="translate(0, 880) scale(1,-1)" /></svg>