<svg xmlns="http://www.w3.org/2000/svg" width="1000" height="1000"><path d="M49 -9 103 -79C325 32 557 224 773 410L707 452L679 430H427C571 504 711 608 883 747L810 793C646 650 443 511 202 392L258 335L313 365H614C446 226 275 103 49 -9ZM648 -64H823C909 -64 937 -10 952 127L879 147C874 46 867 9 832 9H662C628 9 613 26 613 51V296H532V39C532 -38 555 -64 648 -64ZM294 528 356 573C316 631 237 713 171 771L113 729C179 669 255 584 294 528ZM459 488H535V840H459Z" transform="translate(0, 880) scale(1,-1)" /></svg>