<svg xmlns="http://www.w3.org/2000/svg" width="1000" height="1000"><path d="M52 208 107 146C355 252 586 377 783 560L727 606C562 448 299 302 52 208ZM332 3 349 -70C653 -72 858 -20 858 99C858 191 749 225 575 208C683 252 738 313 785 369L736 420L710 400H469V336H663C611 279 541 236 425 200L459 135C646 155 776 154 776 99C776 34 577 -7 332 3ZM372 407 435 453C390 505 337 558 284 599L223 556C276 518 328 463 372 407ZM816 534 890 508C919 547 929 586 929 631C929 710 815 745 617 745C426 745 264 700 157 632V736H79V525H157V583C264 646 453 671 617 671C794 671 847 646 847 624C847 593 842 566 816 534ZM501 687 576 706C559 752 529 805 498 847L426 827C454 787 487 730 501 687Z" transform="translate(0, 880) scale(1,-1)" /></svg>