<svg xmlns="http://www.w3.org/2000/svg" width="1000" height="1000"><path d="M285 619 350 659C325 703 272 767 222 815L161 779C209 731 261 664 285 619ZM462 609H538V846H462ZM642 655 704 619C747 660 804 728 847 784L776 821C744 767 687 699 642 655ZM832 459 900 412C928 441 939 478 939 518C939 626 788 651 614 651C427 651 291 619 149 545V623H77V426H149V507C323 567 454 576 613 576C751 576 856 551 856 510C856 490 847 473 832 459ZM272 482V412H728V482ZM111 324V252H889V324ZM615 -29 653 -94C783 -60 837 2 837 69C837 135 774 185 647 185C542 185 459 157 409 130C465 214 515 318 542 431L461 439C440 328 388 221 316 106C301 88 270 69 219 35L262 -17C397 73 540 113 647 113C723 113 754 90 754 69C754 31 707 -15 615 -29Z" transform="translate(0, 880) scale(1,-1)" /></svg>