<svg xmlns="http://www.w3.org/2000/svg" width="1000" height="1000"><path d="M458 360 541 334C597 414 614 491 614 658V824H535V658C535 497 517 436 458 360ZM98 401H173V738H98ZM283 436H358V721H283ZM742 463 806 416C878 473 905 526 905 582C905 667 840 722 710 722C571 722 447 680 329 601L343 541C461 617 581 644 710 644C796 644 824 620 824 582C824 541 798 503 742 463ZM556 389C381 389 245 359 116 317L145 243C274 290 399 313 556 313C687 313 754 290 754 255C754 145 369 4 253 4C198 4 169 33 169 74C169 111 198 146 283 146C429 146 632 7 893 -94L947 -34C694 62 459 215 283 215C170 215 86 162 86 74C86 -5 146 -73 253 -73C426 -73 846 101 846 255C846 348 741 389 556 389Z" transform="translate(0, 880) scale(1,-1)" /></svg>