<svg xmlns="http://www.w3.org/2000/svg" width="1000" height="1000"><path d="M742 -20 809 -75C898 23 940 133 940 303C940 483 849 528 733 528C630 528 380 412 380 119C380 -16 435 -65 492 -65C586 -65 674 85 674 297C674 482 597 569 415 569C261 569 53 410 53 108C53 -10 106 -65 164 -65C296 -65 362 145 398 833H315C292 229 227 28 164 28C140 28 128 57 128 108C128 333 285 489 415 489C564 489 597 386 597 297C597 144 558 36 492 36C471 36 454 53 454 119C454 291 630 443 733 443C807 443 858 406 858 303C858 183 826 68 742 -20ZM209 574 263 639C202 688 151 725 95 763L42 703C103 661 152 624 209 574Z" transform="translate(0, 880) scale(1,-1)" /></svg>