<svg xmlns="http://www.w3.org/2000/svg" width="1000" height="1000"><path d="M776 394C867 394 901 421 919 517L843 544C835 478 815 459 776 459C602 457 385 644 368 835H285C317 548 587 394 776 394ZM257 -77H340V385H257ZM67 106H938V170H67ZM655 -81C726 -81 745 -51 745 12V385H662V16C662 -1 650 -10 625 -10C586 -10 546 -4 508 9V-68C551 -76 596 -81 655 -81ZM67 270H938V334H67ZM83 468 131 404C381 442 711 524 858 635L777 668C633 562 308 495 83 468ZM84 647 884 695 874 758 73 711Z" transform="translate(0, 880) scale(1,-1)" /></svg>