<svg xmlns="http://www.w3.org/2000/svg" width="1000" height="1000"><path d="M465 -61C530 -60 556 -36 556 35V715H478V35C478 15 470 7 450 7C404 7 356 16 304 28V-50C364 -58 421 -62 465 -61ZM77 352H449V418H77ZM936 181 953 259C734 288 442 290 56 259V187C437 215 727 208 936 181ZM313 375 445 537 397 586 371 576H234V510H342L255 394ZM66 519 136 488C217 579 275 701 311 830L233 840C201 715 139 595 66 519ZM612 352H914V418H774V617H701V418H612ZM223 672H874V740H223Z" transform="translate(0, 880) scale(1,-1)" /></svg>