<svg xmlns="http://www.w3.org/2000/svg" width="1000" height="1000"><path d="M826 547 900 522C929 560 939 597 939 641C939 717 825 752 617 752C426 752 254 708 147 642V743H69V530H147V594C254 655 453 680 617 680C804 680 857 655 857 634C857 604 852 578 826 547ZM498 695 579 713C562 758 532 809 501 850L423 831C451 792 484 737 498 695ZM194 496H416V570H194ZM84 351H371C290 274 163 182 49 115L98 50C231 145 382 266 486 371L436 428L412 418H84ZM260 -93 502 79 472 142 229 -23ZM336 -14V246H267V-14ZM466 -27 516 -83C725 14 892 194 908 474L849 496L830 484H592V417H829C808 221 684 78 466 -27ZM884 -76 950 -26C870 68 730 191 599 287L546 246C675 147 808 16 884 -76ZM487 326 556 308C600 385 636 477 657 596L582 601C563 484 533 401 487 326Z" transform="translate(0, 880) scale(1,-1)" /></svg>