<svg xmlns="http://www.w3.org/2000/svg" width="1000" height="1000"><path d="M622 4 667 -78C838 -22 919 44 919 169C919 290 822 365 620 365C402 365 234 307 60 188L95 114C272 236 458 288 620 288C766 288 833 236 833 169C833 84 766 26 622 4ZM331 -77C383 -77 413 -56 413 12V760H337V35C337 11 328 -2 310 -2C277 -2 243 2 198 16V-65C244 -74 286 -77 331 -77ZM60 473H650V547H60ZM110 745 131 678C273 692 455 723 589 765L539 831C435 794 243 761 110 745ZM895 445 966 501C915 576 842 655 766 727L703 680C785 601 843 526 895 445Z" transform="translate(0, 880) scale(1,-1)" /></svg>