<svg xmlns="http://www.w3.org/2000/svg" width="1000" height="1000"><path d="M35 -21 101 -57C189 104 202 338 202 501V718H933V794H126V501C126 347 118 132 35 -21ZM201 144 240 71C400 156 595 268 731 359L697 422C561 333 369 224 201 144ZM398 -78H470V677H398ZM904 49 944 129C855 181 758 224 653 259L625 202C726 163 820 115 904 49ZM240 453H921V524H240ZM659 -87C708 -87 737 -56 737 -2V677H665V4C665 -10 658 -21 644 -21C611 -21 579 -15 543 0V-72C580 -83 614 -87 659 -87Z" transform="translate(0, 880) scale(1,-1)" /></svg>