<svg xmlns="http://www.w3.org/2000/svg" width="1000" height="1000"><path d="M82 569H165V607C272 671 458 698 617 698C779 698 834 677 834 659C834 636 827 617 809 597L891 570C912 599 921 622 921 660C921 736 805 760 617 760C426 760 272 720 165 652V748H82ZM488 727 569 744C555 778 537 816 511 852L433 835C459 801 477 765 488 727ZM188 526H812V586H188ZM495 552 574 567C557 599 534 638 504 668L428 655C455 625 481 584 495 552ZM97 79H903V139H97ZM441 -72C516 -72 547 -37 547 34L548 473H473L472 44C472 15 462 -5 432 -5C400 -5 360 1 318 14V-60C354 -68 392 -72 441 -72ZM145 200H855V260H145ZM97 319H913V379H97ZM364 390 396 449C346 473 291 492 230 508L207 451C264 437 313 416 364 390Z" transform="translate(0, 880) scale(1,-1)" /></svg>