<svg xmlns="http://www.w3.org/2000/svg" width="1000" height="1000"><path d="M58 500 124 455C211 570 265 689 315 834L241 852C192 707 127 588 58 500ZM804 494 749 559 721 545H257V471H636C558 426 444 379 311 336C281 326 214 311 132 291L153 222C304 260 428 282 574 282C705 282 731 259 731 231C731 157 472 2 267 2C200 2 170 20 170 59C170 91 199 118 291 118C452 118 636 -29 898 -97L935 -22C663 47 477 195 291 195C166 195 91 149 91 58C91 -23 147 -79 265 -79C539 -79 814 115 814 231C814 320 759 366 517 351C606 391 718 443 804 494ZM214 642H885V716H214Z" transform="translate(0, 880) scale(1,-1)" /></svg>