<svg xmlns="http://www.w3.org/2000/svg" width="1000" height="1000"><path d="M847 -82C919 -82 943 -31 957 144L890 156C886 22 873 -4 847 -4C740 -4 722 391 705 836H630C650 302 662 -82 847 -82ZM65 582H937V659H65ZM868 664 922 718C892 753 828 804 777 839L724 790C776 754 838 700 868 664ZM366 -62C476 -62 506 -8 506 58C506 118 487 173 456 238L387 209C417 144 430 97 430 67C430 36 417 19 366 19C315 19 292 34 292 94V548H217V87C217 -30 281 -62 366 -62ZM52 85 125 67C145 161 164 319 171 421L100 425C94 322 74 172 52 85ZM540 64 618 50C629 102 638 175 638 270C638 378 596 416 513 416C445 416 401 399 363 376L377 298C415 322 456 334 510 334C548 334 559 316 559 253C559 185 550 116 540 64Z" transform="translate(0, 880) scale(1,-1)" /></svg>