<svg xmlns="http://www.w3.org/2000/svg" width="1000" height="1000"><path d="M912 -73 954 -12C813 76 695 217 559 217C490 217 425 155 425 82C425 13 468 -53 545 -53C695 -53 888 130 888 258C888 357 781 419 628 419C370 419 62 299 62 70C62 2 101 -65 162 -65C258 -65 316 5 760 768L700 832L677 819H234V745H657C270 72 211 15 170 15C153 15 139 39 139 71C139 256 413 345 632 345C741 345 809 309 809 258C809 174 660 24 549 24C521 24 501 52 501 82C501 110 529 140 562 140C674 140 774 15 912 -73ZM73 532H933V608H73Z" transform="translate(0, 880) scale(1,-1)" /></svg>