<svg xmlns="http://www.w3.org/2000/svg" width="1000" height="1000"><path d="M332 550 413 561C393 643 353 743 314 825L238 814C278 730 316 632 332 550ZM67 659H933V728H67ZM571 532 641 518C707 613 754 726 787 830L702 837C675 737 633 628 571 532ZM35 -47 101 -86C184 25 207 190 207 303V485H923V555H131V303C131 195 113 60 35 -47ZM200 -64H923V5H200ZM317 158 380 181C368 240 340 333 311 403L250 384C279 311 306 218 317 158ZM595 138C560 138 533 155 533 186C533 218 560 237 596 237C625 237 652 216 652 190C652 155 626 138 595 138ZM441 256 501 276C492 318 480 363 463 405L403 390C420 346 431 303 441 256ZM685 199V445H613V278ZM770 198 827 177C854 231 889 319 915 392L846 415C829 348 797 255 770 198ZM501 5H636C693 45 717 100 717 170C717 254 658 297 596 297C520 297 468 254 468 186C468 114 523 74 595 74C617 74 636 83 649 93C628 42 575 21 501 5ZM200 -64H923V5H200ZM595 138C560 138 533 155 533 186C533 218 560 237 596 237C625 237 652 216 652 190C652 155 626 138 595 138Z" transform="translate(0, 880) scale(1,-1)" /></svg>