<svg xmlns="http://www.w3.org/2000/svg" width="1000" height="1000"><path d="M305 405 389 423C367 547 332 680 286 800L207 781C254 660 287 529 305 405ZM67 553H933V633H67ZM534 324 605 304C686 454 742 642 780 814L695 827C664 660 613 478 534 324ZM875 -59 910 17C694 71 507 109 344 134C501 176 674 226 781 260L751 342L719 331C552 361 429 379 288 398L244 324C402 307 490 297 595 279C499 243 372 202 245 164C215 155 188 162 146 165L102 91C366 52 622 2 875 -59Z" transform="translate(0, 880) scale(1,-1)" /></svg>