<svg xmlns="http://www.w3.org/2000/svg" width="1000" height="1000"><path d="M587 460H706C792 488 825 525 825 577C825 638 766 696 574 696C365 696 264 647 264 586C264 524 331 492 431 492C523 492 620 538 620 595V733H542V609C542 578 480 554 431 554C379 554 345 569 345 586C345 607 403 632 574 632C706 632 746 595 746 576C746 544 722 507 587 460ZM113 733H887V805H113ZM456 -29 512 -85C761 -35 892 51 892 155C892 253 799 327 508 327C287 327 152 257 152 179C152 118 208 57 345 57C496 57 620 144 620 278V392H948V460H56V392H542V280C542 193 459 124 345 124C254 124 230 151 230 179C230 219 328 263 508 262C740 262 812 210 812 160C812 86 680 11 456 -29Z" transform="translate(0, 880) scale(1,-1)" /></svg>