<svg xmlns="http://www.w3.org/2000/svg" width="1000" height="1000"><path d="M770 548 836 511C902 563 929 599 929 659C929 718 875 758 749 758C669 758 586 745 538 725V840H461V705L444 693L483 643C565 674 665 692 749 692C820 692 848 677 848 659C848 614 824 582 770 548ZM256 535C405 535 511 541 632 570L600 633C499 608 363 600 256 600C216 600 188 615 188 636C188 663 198 701 234 750L166 775C128 725 106 666 106 628C106 575 146 535 256 535ZM568 222C777 222 867 287 867 361C867 450 774 501 578 501C451 501 371 479 283 442C310 465 325 483 355 519L269 535C230 468 176 412 107 356L175 322C206 350 234 376 259 385C344 416 462 440 578 439C711 438 787 408 787 361C787 314 736 286 568 286C480 286 378 293 306 301V233C378 227 455 222 568 222ZM43 -19 87 -80C478 26 524 149 544 372L465 375C445 178 416 79 43 -19ZM625 -73H803C889 -73 907 -33 914 50L837 58C833 2 828 -12 791 -12H637C605 -12 599 -7 599 21V180H520V7C520 -57 543 -73 625 -73ZM925 87 966 140C894 166 795 193 723 206L694 156C768 142 856 114 925 87Z" transform="translate(0, 880) scale(1,-1)" /></svg>