<svg xmlns="http://www.w3.org/2000/svg" width="1000" height="1000"><path d="M826 514 900 487C929 528 939 569 939 617C939 701 825 739 617 739C426 739 254 691 147 618V729H69V495H147V566C254 633 453 660 617 660C804 660 857 633 857 610C857 577 852 548 826 514ZM499 677 578 697C561 746 531 802 500 847L424 826C452 783 485 723 499 677ZM317 -60H758C884 -60 923 -25 936 126L856 138C849 33 836 14 764 14H308C231 14 192 24 192 51C192 91 251 142 825 493L768 538L750 530H194V455H630C138 154 100 111 100 47C100 -27 160 -60 317 -60ZM669 150 716 212C575 265 387 324 217 357L183 293C349 262 531 202 669 150Z" transform="translate(0, 880) scale(1,-1)" /></svg>