<svg xmlns="http://www.w3.org/2000/svg" width="1000" height="1000"><path d="M37 -46 104 -80C188 78 201 309 201 469V668H948V741H598L548 845L473 827L513 741H126V468C126 319 119 105 37 -46ZM564 143 199 25 220 -45 585 81ZM574 408H952V476H574ZM752 -74C835 -74 875 -34 875 66V628H806V93C806 22 793 -9 752 -9C716 -9 697 19 696 58C695 98 705 121 735 134C753 141 788 140 833 123L838 185C793 200 745 205 710 191C665 173 631 138 631 63C631 -23 681 -74 752 -74ZM298 43 354 25C422 105 503 223 547 304L500 342L484 333H362C397 392 421 456 441 536L367 544C357 456 320 373 271 293L318 254L336 269H442C412 204 356 117 298 43ZM243 501H575V570H243Z" transform="translate(0, 880) scale(1,-1)" /></svg>