<svg xmlns="http://www.w3.org/2000/svg" width="1000" height="1000"><path d="M37 158 81 94C226 196 407 335 530 444L489 496C367 389 188 253 37 158ZM222 -78H296V841H222ZM667 79 710 145C630 207 543 259 447 301L417 250C507 203 590 146 667 79ZM72 556H687V624H72ZM717 250 747 207C887 307 927 353 927 430C927 520 848 558 661 574L655 509C815 494 857 452 857 426C857 390 841 339 717 250ZM670 -36 723 -82C817 -6 900 91 939 157L903 226L884 219C822 243 748 262 654 271L648 203C739 195 802 177 851 160C822 107 757 28 670 -36ZM677 554 721 524C785 597 843 690 895 794L831 828C785 724 733 628 677 554ZM460 -87C508 -87 539 -56 539 -2V841H465V4C465 -10 459 -21 446 -21C417 -21 388 -15 356 0V-72C389 -83 419 -87 460 -87Z" transform="translate(0, 880) scale(1,-1)" /></svg>