<svg xmlns="http://www.w3.org/2000/svg" width="1000" height="1000"><path d="M639 317C749 317 784 292 784 250C784 190 679 116 534 65L554 1C726 52 868 148 868 255C868 331 795 392 639 392C276 392 69 257 69 115C69 33 133 -28 231 -28C410 -28 531 121 551 357L472 362C455 153 373 48 231 48C176 48 148 82 148 115C148 199 302 317 639 317ZM55 506 127 472C175 569 218 702 239 810L163 824C141 713 99 589 55 506ZM155 606H751V680H155ZM879 -82 940 -15C713 77 639 137 639 842H561C563 115 645 27 879 -82ZM868 580 943 607C915 687 887 747 850 811L782 782C820 719 847 654 868 580ZM216 458H512V528H216ZM331 28 397 73C308 183 313 334 394 474L321 489C239 335 217 178 331 28Z" transform="translate(0, 880) scale(1,-1)" /></svg>