<svg xmlns="http://www.w3.org/2000/svg" width="1000" height="1000"><path d="M326 679 397 708C380 745 343 806 308 850L240 825C274 780 310 721 326 679ZM600 710 664 685C702 730 734 777 768 834L692 853C666 801 636 755 600 710ZM925 269V344H75V269ZM504 344H619C705 367 748 419 748 468C748 522 673 572 487 572C309 572 211 533 211 475C211 422 274 382 418 382C506 382 545 417 545 450V655H460V481C460 448 432 437 391 437C360 437 297 453 297 473C297 493 349 509 487 509C590 509 664 488 664 466C664 430 649 396 504 344ZM97 623H903V695H97ZM63 -60H937V12H543V131H890V203H110V131H457V12H63Z" transform="translate(0, 880) scale(1,-1)" /></svg>