<svg xmlns="http://www.w3.org/2000/svg" width="1000" height="1000"><path d="M41 -16 100 -74C219 77 259 210 259 475V710H595V779H73V710H185V475C185 217 153 120 41 -16ZM389 -72C459 -72 497 -31 497 52V629H422V66C422 26 412 5 378 5C356 5 314 11 279 23V-58C309 -68 345 -72 389 -72ZM45 359H613V431H45ZM659 252 701 204C879 304 931 353 931 430C931 520 827 561 589 577L582 506C793 491 849 452 849 426C849 390 824 341 659 252ZM602 -33 660 -83C787 -6 897 91 948 157L904 229L879 222C798 246 704 265 583 274L575 200C693 192 777 176 841 159C803 107 719 32 602 -33ZM614 554 663 524C749 596 825 689 890 794L814 828C758 723 689 627 614 554Z" transform="translate(0, 880) scale(1,-1)" /></svg>