<svg xmlns="http://www.w3.org/2000/svg" width="1000" height="1000"><path d="M586 503 636 443C747 497 842 543 842 653C842 771 747 821 568 821C395 821 286 786 201 736L237 671C320 721 425 742 568 742C704 742 762 708 762 653C762 585 689 544 586 503ZM251 429V788H171V429ZM852 511H374V433H852ZM689 -79C868 -79 905 45 905 172C905 281 811 337 634 337C446 337 277 320 98 295L116 218C292 244 461 260 629 260C779 260 820 222 820 166C820 78 794 -7 682 -7C627 -7 569 -1 507 13V-66C567 -75 622 -79 689 -79ZM53 -24 111 -86C402 16 512 164 573 442L490 452C437 189 325 70 53 -24Z" transform="translate(0, 880) scale(1,-1)" /></svg>