<svg xmlns="http://www.w3.org/2000/svg" width="1000" height="1000"><path d="M207 7 269 -39C325 12 395 93 447 162L378 192C333 129 267 57 207 7ZM551 -78C602 -78 624 -54 624 0V422H551V8C551 -4 543 -12 527 -13C495 -14 461 -8 412 7V-65C461 -73 505 -78 551 -78ZM879 -44 941 0C900 49 819 132 759 191L702 152C762 91 841 6 879 -44ZM421 320V242C757 204 876 272 876 416C876 519 809 590 605 590C464 590 346 553 277 510L309 441C378 483 479 515 605 515C728 515 796 479 796 416C796 331 699 272 421 320ZM598 741 548 845 473 827 513 741H131V471C131 325 123 121 35 -24L101 -61C194 92 207 317 207 471V667H943V741Z" transform="translate(0, 880) scale(1,-1)" /></svg>