<svg xmlns="http://www.w3.org/2000/svg" width="1000" height="1000"><path d="M943 797H131V470C131 325 123 122 35 -23L98 -60C191 92 204 317 204 470V726H943ZM263 536 288 478C373 526 492 565 629 565C789 565 840 529 840 479C840 387 644 379 365 408V333C677 311 917 321 917 479C917 571 857 641 629 641C466 641 341 594 263 536ZM625 360V479H551V360C551 159 477 6 383 6C331 6 295 43 295 91C295 147 344 184 417 184C576 184 678 22 919 -77L957 -3C730 69 611 257 419 257C285 257 222 175 222 91C222 8 272 -66 384 -66C530 -66 625 125 625 360ZM641 -28 692 -69C770 17 847 124 895 223L833 265C791 171 718 56 641 -28Z" transform="translate(0, 880) scale(1,-1)" /></svg>