<svg xmlns="http://www.w3.org/2000/svg" width="1000" height="1000"><path d="M123 418 187 454C175 540 148 660 123 750L62 721C85 634 110 504 123 418ZM282 460 350 486C342 581 320 704 298 808L232 785C253 683 273 554 282 460ZM413 437 475 414C502 508 532 646 551 754L481 783C465 675 438 538 413 437ZM88 374V297H520V374ZM276 329V41H349V329ZM60 24 78 -49 550 61 532 134ZM547 479 618 443C655 547 689 678 716 810L645 831C619 696 584 575 547 479ZM535 -11 585 -64C735 45 876 230 918 622L870 656L854 643H624V566H839C796 272 684 95 535 -11ZM889 -75 943 -14C825 161 728 279 617 373L573 319C683 220 775 104 889 -75Z" transform="translate(0, 880) scale(1,-1)" /></svg>