<svg xmlns="http://www.w3.org/2000/svg" width="1000" height="1000"><path d="M152 345 214 328C266 370 324 443 357 495L307 543L290 536H79V470H263C236 432 200 389 152 345ZM892 -82 928 -14C751 78 663 210 663 837H591C593 184 689 27 892 -82ZM84 575H809V647H84ZM872 560 937 587C918 661 892 729 859 793L801 758C831 703 856 630 872 560ZM234 608 297 583C358 627 434 707 473 759L419 808L402 800H118V732H364C334 695 290 653 234 608ZM357 35H441C494 64 526 107 526 147C526 211 474 249 376 249C251 249 180 222 180 159C180 106 231 75 316 75C376 75 409 102 409 139V450H336V154C336 135 323 127 302 127C278 127 251 142 251 159C251 179 275 195 376 195C434 195 455 172 455 146C455 118 439 82 357 35ZM88 -49 584 21 574 85 78 15ZM92 292H582V353H92ZM863 261 790 276C780 199 705 121 599 63L634 1C761 64 846 169 863 261Z" transform="translate(0, 880) scale(1,-1)" /></svg>