<svg xmlns="http://www.w3.org/2000/svg" width="1000" height="1000"><path d="M98 234H176V551C271 607 364 639 551 639C759 639 807 571 807 486C807 371 720 321 588 321C486 321 390 326 288 336V261C390 251 486 248 588 248C792 248 885 357 885 486C885 598 830 714 551 714C347 714 233 665 176 625V701H98ZM278 452H684V522H278ZM779 -85C878 -85 922 -38 952 125L872 146C858 35 836 -2 779 -2C575 -2 491 472 463 827L382 823C417 437 504 -85 779 -85ZM105 40 147 -35C441 6 740 91 892 187L832 247C713 168 435 80 105 40Z" transform="translate(0, 880) scale(1,-1)" /></svg>