<svg xmlns="http://www.w3.org/2000/svg" width="1000" height="1000"><path d="M150 359 181 286 206 297H874V370H264C351 506 425 662 487 819L409 846C348 685 261 506 192 392C183 378 169 366 150 359ZM71 6 135 -38C207 24 284 120 332 218L257 236C216 149 146 63 71 6ZM492 -71C554 -71 583 -54 583 16V553H135V483H507V18C507 4 499 -2 483 -3C454 -4 414 2 360 19V-58C400 -68 443 -71 492 -71ZM873 -27 940 7C898 71 806 167 728 237L666 208C743 137 833 36 873 -27ZM98 656H902V727H98Z" transform="translate(0, 880) scale(1,-1)" /></svg>