<svg xmlns="http://www.w3.org/2000/svg" width="1000" height="1000"><path d="M875 -82 923 -14C662 78 532 210 532 837H460C463 184 597 27 875 -82ZM94 -31H596V39H94ZM247 32 294 -10C491 54 793 196 793 352C793 429 767 510 487 510C194 510 100 397 102 301C104 193 166 147 252 149C336 151 399 212 399 306C399 362 376 414 331 469L276 429C310 387 330 345 330 309C330 253 292 217 252 217C205 217 178 248 177 299C176 352 247 440 487 440C669 440 716 398 716 350C716 226 423 98 247 32ZM71 609H748V677H71ZM866 580 937 607C908 691 880 752 836 813L775 778C815 723 846 650 866 580Z" transform="translate(0, 880) scale(1,-1)" /></svg>