<svg xmlns="http://www.w3.org/2000/svg" width="1000" height="1000"><path d="M62 602V526H439V602ZM43 199 100 160 115 180 444 279 429 356 160 273 270 534 216 564ZM220 -72C270 -72 305 -51 305 16V814H230V35C230 12 218 -1 202 -1C172 -1 140 5 99 20V-60C141 -69 180 -72 220 -72ZM830 561 908 527C935 585 947 623 947 665C947 767 871 813 707 813C589 813 478 781 398 738L431 663C504 702 606 728 707 728C833 728 864 700 864 660C864 633 855 608 830 561ZM776 -80C873 -80 903 -32 903 69C903 194 798 404 665 623L596 582C727 370 820 169 820 69C820 8 807 -9 745 -9C706 -9 664 0 625 13V-66C672 -76 718 -80 776 -80ZM372 -22 430 -73C575 51 649 146 702 284L634 314C582 190 512 94 372 -22ZM393 385H943V465H393Z" transform="translate(0, 880) scale(1,-1)" /></svg>