<svg xmlns="http://www.w3.org/2000/svg" width="1000" height="1000"><path d="M67 547V466H933V547ZM330 338 406 370C383 453 334 579 289 669L217 642C261 554 308 424 330 338ZM581 363 649 338C689 415 742 539 781 642L705 669C675 571 622 445 581 363ZM137 760V683H863V760ZM460 847V565H540V847ZM157 382V304H843V382ZM456 -79C523 -79 551 -52 551 6V335H472V18C472 1 460 -11 438 -11C399 -11 348 -2 301 10V-67C348 -74 402 -79 456 -79ZM61 15 115 -40C198 -8 290 43 347 94L278 132C228 87 144 42 61 15ZM62 151H942V222H62ZM882 -42 937 9C889 43 785 96 702 130L650 83C734 46 835 -8 882 -42Z" transform="translate(0, 880) scale(1,-1)" /></svg>