<svg xmlns="http://www.w3.org/2000/svg" width="1000" height="1000"><path d="M639 377C749 377 784 347 784 301C784 229 680 134 524 65L554 1C726 72 868 187 868 306C868 394 795 453 639 453C276 453 69 308 69 131C69 40 133 -28 231 -28C410 -28 491 147 491 389H412C415 187 353 48 231 48C176 48 148 85 148 131C148 244 302 377 639 377ZM95 596H751V670H95ZM879 -82 940 -15C713 77 639 127 639 832H561C563 120 645 27 879 -82ZM868 580 943 607C915 687 887 747 850 811L782 782C820 719 847 654 868 580ZM331 34 397 84C308 206 263 360 294 535H213C181 354 217 201 331 34Z" transform="translate(0, 880) scale(1,-1)" /></svg>