<svg xmlns="http://www.w3.org/2000/svg" width="1000" height="1000"><path d="M389 407C450 407 484 485 488 770L436 789L423 778H76V703H410C409 526 392 476 369 476C326 476 281 483 234 494V420C284 411 329 407 389 407ZM67 1 96 -68 457 116 423 185 166 52V575H94V63C94 23 78 8 67 1ZM665 119 712 68C847 160 937 258 935 414C934 522 810 595 654 551C712 625 763 702 812 787L731 824C683 722 624 620 552 522C546 514 526 504 503 494L541 428C702 511 849 506 850 399C851 294 801 210 665 119ZM827 -93 898 -39C809 54 691 146 565 228L514 174C638 96 748 -4 827 -93Z" transform="translate(0, 880) scale(1,-1)" /></svg>