<svg xmlns="http://www.w3.org/2000/svg" width="1000" height="1000"><path d="M943 791H131V470C131 325 123 122 35 -23L103 -60C196 92 209 317 209 470V714H943ZM363 437 428 410C486 449 559 519 603 578L547 624L530 617H178V552H484C452 511 416 474 363 437ZM320 -68C441 -68 531 29 531 224C531 353 491 436 357 456L337 388C424 378 460 316 460 211C460 91 402 7 323 7C297 7 280 26 280 52C280 187 643 406 771 406C850 406 880 356 880 260C880 132 848 8 743 8C708 8 647 22 581 46V-34C646 -55 697 -64 748 -64C901 -64 953 89 953 260C953 389 905 481 777 481C613 481 213 239 213 42C213 -33 264 -68 320 -68ZM797 88 810 146C742 169 672 189 602 201L590 144C661 129 728 112 797 88ZM806 223 820 283C754 303 685 319 618 329L607 272C674 261 739 244 806 223Z" transform="translate(0, 880) scale(1,-1)" /></svg>