<svg xmlns="http://www.w3.org/2000/svg" width="1000" height="1000"><path d="M549 460 619 444C631 465 638 486 638 509C638 563 590 619 483 619C372 619 333 566 333 518C333 469 394 419 524 419C723 419 837 499 837 630C837 731 741 801 532 801C390 801 270 774 182 741L203 672C294 705 416 731 532 731C676 731 754 685 754 630C754 539 680 479 524 479C444 479 410 493 410 518C410 542 432 562 483 562C530 562 559 543 559 509C559 492 556 475 549 460ZM157 786V444H231V786ZM124 344V2H198V344ZM87 10 107 -55 382 34 362 99ZM434 372V4H509V372ZM405 16 425 -53 744 56 724 125ZM901 -20 968 16C920 125 863 235 797 345L735 312C799 201 854 90 901 -20Z" transform="translate(0, 880) scale(1,-1)" /></svg>