<svg xmlns="http://www.w3.org/2000/svg" width="1000" height="1000"><path d="M456 411C523 411 551 438 551 497V833H472V509C472 492 460 480 438 480C399 480 348 489 301 501V423C348 416 402 411 456 411ZM59 514 115 458C198 495 290 551 347 610L276 645C226 594 142 544 59 514ZM62 672H942V744H62ZM882 455 939 506C891 545 787 605 704 644L650 597C734 555 835 494 882 455ZM446 -78C498 -78 552 -49 552 3V194C667 233 786 287 868 342L808 387L791 382H129V313H691C631 281 558 251 473 225V15C473 -2 458 -15 433 -15C380 -15 325 -9 271 7V-64C328 -75 375 -78 446 -78ZM939 105 959 175C738 192 444 193 55 174V108C439 125 734 121 939 105Z" transform="translate(0, 880) scale(1,-1)" /></svg>