<svg xmlns="http://www.w3.org/2000/svg" width="1000" height="1000"><path d="M278 618 338 655C311 697 255 758 202 803L146 769C197 724 252 661 278 618ZM463 585H537V841H463ZM651 652 708 618C755 657 816 720 861 774L795 808C760 758 699 693 651 652ZM811 423 884 396C908 433 919 467 919 512C919 597 805 628 617 628C426 628 269 587 162 517V608H84V413H162V463C269 529 453 556 617 556C786 556 838 529 838 511C838 482 832 455 811 423ZM456 -79C523 -79 551 -51 551 12V386H472V23C472 5 460 -7 438 -7C399 -7 348 3 301 16V-66C348 -74 402 -79 456 -79ZM58 33 115 -24C198 16 290 78 347 143L275 179C225 123 141 67 58 33ZM62 212H942V286H62ZM882 -28 940 24C892 68 788 134 705 178L650 129C734 82 835 15 882 -28ZM268 457V386H732V457Z" transform="translate(0, 880) scale(1,-1)" /></svg>