<svg xmlns="http://www.w3.org/2000/svg" width="1000" height="1000"><path d="M69 601V527H382V601ZM53 196 109 160 121 181 386 280 373 355 158 272 248 534 196 564ZM196 -72C242 -72 275 -51 275 16V814H204V35C204 12 194 -1 180 -1C154 -1 127 5 92 20V-60C128 -69 161 -72 196 -72ZM491 826V-82H570V826ZM917 790 839 803C794 535 723 240 525 240C467 240 442 267 442 301C442 346 501 374 584 374C754 374 838 327 838 213C838 123 807 26 738 -70L810 -103C881 4 919 108 919 213C919 383 790 451 584 451C448 451 365 385 365 301C365 221 414 164 525 164C778 164 865 510 917 790Z" transform="translate(0, 880) scale(1,-1)" /></svg>