<svg xmlns="http://www.w3.org/2000/svg" width="1000" height="1000"><path d="M639 626 688 684C585 738 468 791 330 843L290 787C425 735 542 680 639 626ZM346 314 423 268C561 350 709 467 785 566L729 613L712 606H100V531H636C584 468 477 386 346 314ZM300 337V261H844V337ZM57 -44 126 -79C188 -14 240 78 262 171L187 194C168 105 113 12 57 -44ZM524 -73C565 -73 603 -55 661 -3L607 60C577 23 558 12 534 12C510 12 497 43 464 193L387 174C434 -28 478 -73 524 -73ZM873 -75 951 -43C916 24 850 124 792 196L723 158C785 84 841 -10 873 -75Z" transform="translate(0, 880) scale(1,-1)" /></svg>