<svg xmlns="http://www.w3.org/2000/svg" width="1000" height="1000"><path d="M712 514C689 462 659 417 619 369L665 302C792 329 837 284 837 239C837 164 659 97 466 75L517 12C740 59 919 88 919 239C919 352 816 395 712 380L817 527L770 596L755 588C183 566 53 396 53 312C53 244 107 193 183 193C334 193 554 470 724 765L657 813L631 799H113V719H601C485 505 283 272 183 272C147 272 131 285 131 312C131 351 227 487 712 514ZM518 -89 591 -55C563 14 508 109 456 182L389 149C440 80 488 -16 518 -89Z" transform="translate(0, 880) scale(1,-1)" /></svg>