<svg xmlns="http://www.w3.org/2000/svg" width="1000" height="1000"><path d="M217 -62C380 -62 451 87 451 210C451 365 364 478 247 576L189 531C302 437 369 327 369 210C369 120 322 13 217 13C175 13 147 33 147 81C147 170 240 260 464 388L415 444C191 323 60 199 60 81C60 -19 124 -62 217 -62ZM36 503 83 436C225 497 359 564 468 635L421 702C314 628 181 561 36 503ZM747 656C660 656 582 634 517 594L539 528C600 564 669 580 747 580C814 580 833 532 833 463C833 270 662 25 605 25C581 25 561 57 561 146C561 209 579 269 617 269C681 269 752 76 890 -73L939 -8C794 129 725 347 617 347C551 347 492 275 492 146C492 15 548 -51 605 -51C692 -51 903 227 903 463C903 593 841 656 747 656ZM62 796V718H672V796Z" transform="translate(0, 880) scale(1,-1)" /></svg>