<svg xmlns="http://www.w3.org/2000/svg" width="1000" height="1000"><path d="M456 -79C523 -79 551 -52 551 8V839H472V20C472 3 460 -11 438 -11C399 -11 348 -2 301 12V-67C348 -74 402 -79 456 -79ZM43 56 111 0C198 65 294 167 354 274L271 295C217 200 130 113 43 56ZM68 648H939V728H68ZM777 243C851 243 920 318 920 410C920 511 847 571 621 571C439 571 269 545 101 506L115 420C284 468 458 489 621 489C818 489 835 455 835 410C835 361 810 318 764 318C730 318 698 323 657 335V254C696 245 737 243 777 243ZM757 228 693 183C765 123 839 52 877 3L944 50C905 101 829 170 757 228Z" transform="translate(0, 880) scale(1,-1)" /></svg>