<svg xmlns="http://www.w3.org/2000/svg" width="1000" height="1000"><path d="M285 -80C359 -80 385 11 385 154C385 298 320 562 239 826L171 803C249 548 312 288 312 154C312 41 297 -7 265 -7C238 -7 210 4 184 21V-62C215 -75 245 -80 285 -80ZM46 -24 104 -70C193 95 238 221 271 405L206 423C174 258 132 130 46 -24ZM58 544H416V617H58ZM407 482 472 455C512 557 546 700 564 814L496 824C479 708 446 573 407 482ZM486 618H926L925 688H486ZM579 57 635 31C703 93 792 180 842 238L786 292L771 284H629C669 367 699 454 732 570L669 581C636 462 596 358 536 254L585 204L601 214H727C692 167 638 110 579 57ZM941 -88 961 -23C784 30 609 70 441 100L415 37C595 4 768 -37 941 -88ZM513 477V406H905V477Z" transform="translate(0, 880) scale(1,-1)" /></svg>