<svg xmlns="http://www.w3.org/2000/svg" width="1000" height="1000"><path d="M140 474 175 400 206 412H855V482H255C342 589 411 702 470 822L385 845C337 731 250 585 190 502C179 487 162 479 140 474ZM79 654H922V726H79ZM475 -75C536 -75 571 -52 571 14V594H490V14C490 -5 483 -11 464 -11C424 -11 369 0 320 14V-63C364 -71 423 -75 475 -75ZM636 47H924V115H803V353H728V115H636ZM251 198C280 238 311 287 343 341L277 368C210 249 132 160 58 110L123 64C145 87 172 112 192 123C207 131 230 132 244 130C259 126 275 108 286 68L433 129L406 178L319 153C314 176 289 190 251 198Z" transform="translate(0, 880) scale(1,-1)" /></svg>