<svg xmlns="http://www.w3.org/2000/svg" width="1000" height="1000"><path d="M576 563 644 544C657 560 665 577 665 594C665 634 616 681 503 681C385 681 346 637 346 601C346 564 408 521 546 521C758 521 877 584 877 682C877 760 818 821 603 821C400 821 274 786 181 746L219 692C313 730 447 760 603 760C749 760 791 717 791 682C791 614 712 573 546 573C462 573 426 582 426 601C426 619 449 633 503 633C553 633 584 620 584 594C584 583 581 573 576 563ZM164 799V548H243V799ZM608 -7 642 -69C812 -54 950 13 950 100C950 205 723 235 500 235C278 235 54 201 54 83C54 2 158 -56 281 -56C489 -56 667 99 702 307L624 311C598 134 446 10 281 10C198 10 135 38 135 83C135 132 285 170 500 170C695 170 869 148 869 96C869 46 763 3 608 -7ZM481 19 531 66C362 135 348 270 461 530L384 546C257 263 294 84 481 19ZM106 284H183V346C301 405 467 426 604 426C730 426 823 412 823 388C823 359 740 339 487 348L489 289C765 281 908 309 908 391C908 462 782 489 605 489C439 489 271 456 183 384V472H106Z" transform="translate(0, 880) scale(1,-1)" /></svg>