<svg xmlns="http://www.w3.org/2000/svg" width="1000" height="1000"><path d="M637 252 656 195C817 218 925 269 925 330C925 399 819 452 592 452C515 452 426 446 362 438C408 467 468 529 505 578L416 591C386 540 323 470 256 430L226 423L281 368C359 384 437 395 570 395C748 395 837 374 837 330C837 295 742 267 637 252ZM264 660 287 604C372 621 487 636 606 636C746 636 795 618 795 591C795 550 746 523 406 544V491C817 466 882 523 882 591C882 659 799 692 606 692C472 692 349 675 264 660ZM494 675 544 647C641 689 730 739 776 771L708 807L683 795H318V739H611C581 719 541 698 494 675ZM78 649 133 600C236 648 370 746 428 830L345 844C286 761 174 687 78 649ZM456 -79C523 -79 551 -53 551 4V231H472V15C472 -1 460 -13 438 -13C399 -13 348 -4 301 8V-67C348 -74 402 -79 456 -79ZM63 3 115 -52C198 -25 290 17 347 59L280 99C230 62 146 25 63 3ZM882 -53 935 -2C887 26 783 70 700 98L650 50C734 20 835 -25 882 -53ZM164 333V267H639V333ZM217 178 284 292 223 312 108 127 165 97 182 108H942V178Z" transform="translate(0, 880) scale(1,-1)" /></svg>