<svg xmlns="http://www.w3.org/2000/svg" width="1000" height="1000"><path d="M106 440 171 401C225 484 270 603 289 722L219 746C203 631 155 511 106 440ZM517 408C552 408 590 434 640 502L588 568C562 520 546 506 525 506C504 506 493 547 464 748L391 727C432 467 471 408 517 408ZM819 406 892 443C861 529 804 657 754 750L689 705C742 610 791 490 819 406ZM57 -28 126 -69C188 20 240 145 262 271L187 295C168 174 113 47 57 -28ZM524 -60C565 -60 603 -36 661 35L607 107C577 57 558 41 534 41C510 41 497 85 464 298L385 276C432 1 478 -60 524 -60ZM873 -62 951 -25C916 66 850 201 792 299L723 253C785 153 841 26 873 -62Z" transform="translate(0, 880) scale(1,-1)" /></svg>