<svg xmlns="http://www.w3.org/2000/svg" width="1000" height="1000"><path d="M799 -81C892 -81 922 -42 939 71L863 94C857 18 844 -5 802 -6C582 -6 364 227 346 444H264C289 173 534 -81 799 -81ZM81 -10 122 -78C364 -37 651 46 822 200L750 231C609 110 311 19 81 -10ZM100 228 937 260 932 332 93 300ZM75 545 147 515C218 626 256 735 271 825L191 837C178 748 144 652 75 545ZM716 329 760 387C713 416 622 452 549 476L507 424C580 399 669 358 716 329ZM278 506H832V577H278ZM209 665H901V738H209Z" transform="translate(0, 880) scale(1,-1)" /></svg>