<svg xmlns="http://www.w3.org/2000/svg" width="1000" height="1000"><path d="M300 414 375 455C312 564 238 672 153 781L84 741C166 632 239 521 300 414ZM247 277 311 220C541 387 779 621 880 754L805 799C708 666 463 431 247 277ZM757 411 819 475C730 562 586 681 488 746L427 691C530 621 675 502 757 411ZM638 363C483 363 280 314 98 210L145 138C312 234 501 278 638 278C736 278 775 251 775 197C775 125 698 50 519 -1L564 -80C752 -21 866 83 866 197C866 306 778 363 638 363Z" transform="translate(0, 880) scale(1,-1)" /></svg>