<svg xmlns="http://www.w3.org/2000/svg" width="1000" height="1000"><path d="M129 513 158 440 198 448 803 465 796 535 352 522C496 585 632 661 809 778L740 833C546 693 394 597 270 548C223 529 156 517 129 513ZM347 654 417 698C369 735 288 785 211 829L147 781C229 738 298 694 347 654ZM810 416 884 451C847 511 791 585 723 654L655 621C722 551 772 477 810 416ZM201 -79C335 -79 436 7 436 184C436 291 392 394 252 394C190 394 128 378 88 358L113 292C148 310 203 324 254 324C330 324 357 259 357 174C357 65 292 -10 203 -10C175 -10 156 4 156 24C156 146 440 339 674 339C785 339 827 291 827 212C827 99 791 -9 675 -9C628 -9 569 2 496 22V-56C568 -73 625 -80 681 -80C851 -80 908 60 908 212C908 330 847 415 680 415C406 415 80 196 80 22C80 -46 138 -79 201 -79ZM734 52 750 114C672 135 594 153 515 163L500 102C580 89 656 74 734 52ZM744 174 760 238C686 256 609 270 533 280L519 218C595 207 668 192 744 174Z" transform="translate(0, 880) scale(1,-1)" /></svg>