<svg xmlns="http://www.w3.org/2000/svg" width="1000" height="1000"><path d="M313 663 388 691C371 728 339 789 304 830L231 802C264 760 294 708 313 663ZM88 605H919V676H88ZM616 671 682 646C723 698 758 754 784 808L703 834C684 783 654 723 616 671ZM523 279H627C733 321 771 369 771 425C771 507 677 554 501 554C307 554 209 507 209 441C209 374 277 332 399 332C490 332 550 371 550 418V605H470V434C470 409 442 398 396 398C339 398 292 413 292 437C292 459 348 486 501 486C638 486 690 462 690 425C690 384 660 329 523 279ZM53 207H950V279H53ZM687 52V239H604V54C604 -45 629 -74 699 -74H836C921 -74 939 -37 945 92L870 102C866 6 857 1 832 1H718C696 1 687 11 687 52ZM376 123V239H296V125C296 77 271 23 60 -21L118 -82C344 -25 376 54 376 123Z" transform="translate(0, 880) scale(1,-1)" /></svg>