<svg xmlns="http://www.w3.org/2000/svg" width="1000" height="1000"><path d="M55 488 100 430C495 517 550 670 549 837H467C467 677 434 569 55 488ZM886 420 941 475C827 536 693 597 573 644L531 590C650 541 783 479 886 420ZM377 -37 424 -89C669 37 702 244 702 471H631C631 250 613 82 377 -37ZM891 -94 946 -46C877 40 796 131 726 205L678 158C749 84 828 -8 891 -94ZM397 248H928V318H397ZM235 -77C287 -77 311 -56 311 7V461H237V9C237 -4 232 -12 219 -12C191 -12 158 -5 120 9V-67C158 -72 195 -77 235 -77ZM40 320 77 250C223 284 360 326 471 368L431 433C322 391 188 352 40 320ZM52 77 113 46 129 57 457 134 440 204 188 141 285 288 219 305ZM77 705 93 633C369 639 697 668 920 704L884 769C687 737 355 710 77 705Z" transform="translate(0, 880) scale(1,-1)" /></svg>