<svg xmlns="http://www.w3.org/2000/svg" width="1000" height="1000"><path d="M201 588 271 623C254 674 207 746 165 799L97 767C135 716 178 639 201 588ZM479 614 556 640C542 697 506 770 468 832L395 806C430 746 464 669 479 614ZM707 613 775 591C819 647 867 723 902 787L821 819C795 754 749 673 707 613ZM164 584 113 535C165 500 225 455 254 425L307 477C276 508 217 550 164 584ZM145 -13 213 -24 333 343 271 372 252 362H52V291H236ZM343 93 75 -14 110 -85 378 29ZM553 331 628 291C713 351 798 426 867 502L803 548L791 538H536V464H715C681 427 621 376 553 331ZM357 420 412 363C499 422 591 495 659 577L588 614C528 539 445 473 357 420ZM483 38V167H407V26C407 -60 446 -77 569 -77H832C917 -77 943 -32 957 102L877 112C869 19 859 -7 813 -7H579C498 -7 483 0 483 38ZM785 113C855 113 895 159 907 336L847 350L829 341H399V268H825C816 201 794 185 762 185C701 185 652 187 599 193V120C654 116 712 113 785 113Z" transform="translate(0, 880) scale(1,-1)" /></svg>