<svg xmlns="http://www.w3.org/2000/svg" width="1000" height="1000"><path d="M808 569 887 536C911 593 923 629 923 669C923 768 818 814 587 814C414 814 263 778 166 730V795H82V555H166V658C278 702 433 730 587 730C782 730 836 703 836 664C836 638 829 614 808 569ZM145 72C145 171 260 270 623 437L589 502C206 332 63 206 63 71C63 -35 135 -76 214 -76C328 -76 422 5 422 148C422 269 372 393 238 506L178 459C300 349 342 243 342 148C342 48 281 -3 214 -1C174 0 145 24 145 72ZM60 476 89 407C225 448 367 515 498 590L443 652C340 584 184 515 60 476ZM603 77V446H524V79C524 -28 541 -56 646 -56H809C914 -56 935 -1 947 140L871 150C864 39 856 18 800 18H658C618 18 603 36 603 77ZM636 202 678 141C773 185 870 242 940 295L871 351C809 297 716 237 636 202ZM627 388 665 330C748 371 834 424 895 472L834 525C779 477 697 420 627 388Z" transform="translate(0, 880) scale(1,-1)" /></svg>