<svg xmlns="http://www.w3.org/2000/svg" width="1000" height="1000"><path d="M654 460 728 442C736 464 741 487 741 510C741 571 699 621 602 621C504 621 469 574 469 519C469 462 539 411 651 411C823 411 912 500 912 644C912 758 848 823 694 823C471 823 78 649 78 489C78 428 138 388 201 388C335 388 436 466 436 623C436 718 391 811 243 811C178 811 116 794 76 775L98 707C135 724 192 737 245 737C326 737 357 688 357 613C357 517 292 460 203 460C175 460 159 474 159 497C159 607 512 745 694 745C784 745 825 712 825 644C825 536 769 480 651 480C585 480 543 497 543 518C543 539 561 557 602 557C641 557 664 540 664 510C664 493 660 476 654 460ZM481 12 585 -15C679 10 751 41 751 104C751 167 686 209 554 209C473 209 417 195 381 177C418 202 494 292 561 403L480 432C424 311 297 187 205 126L273 73C338 112 433 139 554 139C632 139 664 123 664 104C664 71 611 41 481 12ZM54 -54H947V20H54ZM97 261H906V334H97Z" transform="translate(0, 880) scale(1,-1)" /></svg>