<svg xmlns="http://www.w3.org/2000/svg" width="1000" height="1000"><path d="M201 526C335 526 436 580 436 686C436 752 391 827 243 827C178 827 116 816 76 803L98 731C135 743 192 753 245 753C326 753 357 730 357 680C357 614 292 599 203 599C175 599 159 606 159 616C159 676 512 757 694 757C784 757 825 735 825 701C825 646 781 611 663 611C624 611 556 618 483 632V554C555 542 612 535 669 535C841 535 912 597 912 701C912 791 848 835 694 835C483 835 78 735 78 615C78 556 138 526 201 526ZM438 491 504 459C586 516 638 574 687 652L606 679C560 600 509 541 438 491ZM57 -68H955V5H57ZM563 -10H653C722 17 775 56 775 99C775 158 707 205 512 205C335 205 223 176 223 117C223 58 297 34 404 34C536 34 594 73 594 166V410H514V175C514 108 475 95 404 95C334 95 304 105 304 115C304 128 373 143 512 143C650 143 688 113 688 96C688 74 649 27 563 -10ZM109 235H913V307H109ZM16 352 68 299C202 359 331 429 434 518L356 554C269 477 146 405 16 352ZM480 440C430 405 359 366 293 340L348 295C465 345 607 419 689 469L624 512L605 506H297V440Z" transform="translate(0, 880) scale(1,-1)" /></svg>