<svg xmlns="http://www.w3.org/2000/svg" width="1000" height="1000"><path d="M94 758V685H467V758ZM276 681 217 637C302 528 329 423 329 293C329 171 301 4 258 4C226 4 197 10 167 24V-50C194 -59 225 -63 261 -63C352 -63 403 64 403 294C403 439 373 559 276 681ZM82 517 138 460C217 526 278 623 316 719L244 740C213 650 158 568 82 517ZM435 394 504 355C549 447 611 631 638 739L566 755C539 633 478 470 435 394ZM469 -56 960 -57V12L469 14ZM592 12H712C782 82 819 187 819 280C819 363 775 428 699 428C634 428 577 377 577 301C577 218 635 176 697 176C712 176 725 179 737 185C709 118 673 70 592 12ZM699 238C667 238 643 264 643 301C643 337 667 364 699 364C732 364 752 337 752 301C752 264 732 238 699 238ZM806 327V811H733V383ZM552 547H940V615H552ZM201 273C222 326 242 386 265 455L191 468C150 326 102 221 56 160L115 117C133 145 157 177 174 193C186 203 205 204 217 200C229 195 243 173 251 122L499 259L476 317L283 221C274 249 248 267 201 273Z" transform="translate(0, 880) scale(1,-1)" /></svg>