<svg xmlns="http://www.w3.org/2000/svg" width="1000" height="1000"><path d="M313 654 388 682C371 722 338 787 303 830L230 802C263 758 294 702 313 654ZM88 589H919V664H88ZM616 661 681 636C723 692 758 752 785 808L704 834C685 780 655 716 616 661ZM221 336 281 308C357 359 432 423 476 472L422 518L404 509H88V438H332C303 403 266 367 221 336ZM145 48C145 230 578 311 760 311C821 311 845 265 845 206C845 106 830 3 789 3C756 3 721 5 685 14V-62C720 -67 753 -70 793 -70C904 -70 920 78 920 213C920 331 869 390 762 390C530 390 60 272 60 48C60 -36 120 -76 210 -76C371 -76 448 36 448 147C448 235 382 320 217 358L189 294C322 262 368 205 368 147C368 68 313 -1 210 -1C169 -1 145 14 145 48ZM423 -17 487 -71C646 45 706 212 741 528L662 537C636 227 572 89 423 -17Z" transform="translate(0, 880) scale(1,-1)" /></svg>