<svg xmlns="http://www.w3.org/2000/svg" width="1000" height="1000"><path d="M97 365 414 466 388 533 70 437ZM188 420V813H111V420ZM149 692V621H423V692ZM434 439 475 373C641 436 904 563 904 691C904 779 836 816 717 816C610 816 527 801 446 773L469 703C548 733 620 745 717 745C786 745 827 724 827 691C827 592 600 495 434 439ZM888 369 944 426C791 531 675 592 534 643L492 589C631 535 737 476 888 369ZM491 22 595 -7C682 17 751 46 751 104C751 165 686 206 556 206C473 206 417 192 383 175C420 198 494 282 561 384L480 414C424 301 297 184 205 128L273 76C338 111 434 136 556 136C632 136 664 122 664 104C664 76 619 49 491 22ZM54 -42H947V32H54ZM97 253H906V326H97Z" transform="translate(0, 880) scale(1,-1)" /></svg>