<svg xmlns="http://www.w3.org/2000/svg" width="1000" height="1000"><path d="M318 698 392 729C376 761 345 810 316 845L246 818C274 784 304 732 318 698ZM539 -10V-77C778 -120 859 -51 859 68C859 166 778 209 632 209C535 209 443 159 364 88V219H287V-67H364V10C446 102 561 131 627 131C731 131 778 106 778 53C778 10 714 -42 539 -10ZM44 136 77 68C498 226 719 400 890 570L828 612C560 368 388 261 44 136ZM611 712H112V645H398V547H142V478H398V378H58V303H944V378H472V478H716V547H472V645H890V712H693C717 743 741 781 763 817L684 843C667 805 636 751 611 712Z" transform="translate(0, 880) scale(1,-1)" /></svg>