<svg xmlns="http://www.w3.org/2000/svg" width="1000" height="1000"><path d="M816 633 894 610C914 653 922 677 922 697C922 766 818 807 587 807C419 807 266 784 165 752V794H83V627H165V687C277 714 433 732 587 732C782 732 837 715 837 690C837 678 832 663 816 633ZM60 128 77 55 518 125 501 198ZM299 -82C350 -82 375 -57 375 3V395H298V5C298 -9 292 -14 275 -14C248 -14 215 -10 172 4L173 -72C218 -79 257 -82 299 -82ZM147 439 103 333C98 322 91 316 80 312L110 244L135 251H466V322H177L224 439H508V510H72V439ZM194 501 265 525C251 554 221 600 189 634L122 609C152 575 181 531 194 501ZM322 528 376 498C414 540 444 581 471 624L395 649C377 608 353 565 322 528ZM683 -88C813 -88 901 -21 901 96C901 194 848 265 741 265C718 265 700 262 681 257C737 309 788 359 837 408L779 458L766 449H557V378H709C668 329 622 279 581 240C569 228 550 218 520 207L549 138C603 174 664 191 728 191C791 191 821 154 821 96C821 15 750 -19 673 -19C643 -19 625 -7 625 15C625 32 635 46 652 46C682 46 697 17 706 -46L770 -30C757 51 717 110 652 110C594 110 557 67 557 15C557 -47 598 -88 683 -88ZM514 526H871V600H514Z" transform="translate(0, 880) scale(1,-1)" /></svg>