<svg xmlns="http://www.w3.org/2000/svg" width="1000" height="1000"><path d="M189 -62C321 -62 383 109 383 256C383 375 325 495 192 550L162 485C267 436 304 341 304 256C304 148 264 16 189 16C160 16 137 38 137 96C137 202 218 296 389 426L345 485C173 362 59 232 59 96C59 -16 112 -62 189 -62ZM197 522 254 498C313 570 377 672 409 745L351 782L337 774H79V699H298C272 638 235 570 197 522ZM578 493V417C882 383 917 494 917 587C917 685 854 748 741 748C656 748 604 718 548 656C565 706 579 758 591 817L515 830C489 698 439 574 381 490L445 445C476 497 496 536 512 572C582 644 670 675 736 675C806 675 839 631 839 587C839 521 807 456 578 493ZM716 209V584H641V217C641 169 614 146 576 146C536 146 515 172 515 199C515 256 574 294 703 294C813 294 842 248 842 207C842 72 583 7 399 -12L418 -88C641 -61 924 26 924 206C924 291 866 369 703 369C549 369 435 312 435 199C435 130 490 80 576 80C644 80 716 111 716 209Z" transform="translate(0, 880) scale(1,-1)" /></svg>