<svg xmlns="http://www.w3.org/2000/svg" width="1000" height="1000"><path d="M128 758V686H872V758ZM462 830V599H538V830ZM811 428 884 402C908 439 919 473 919 517C919 603 805 633 617 633C426 633 269 592 162 523V612H84V419H162V469C269 534 453 560 617 560C786 560 838 534 838 516C838 487 832 460 811 428ZM187 209H257V337C341 386 432 411 567 411C705 411 751 381 751 344C751 275 581 269 333 292V225C610 206 826 211 826 344C826 421 771 477 567 477C413 477 319 448 257 397V453H187ZM539 38V354H461V38ZM886 -83 915 -12C643 50 374 98 118 132L79 66C354 26 622 -21 886 -83ZM480 168 492 100C635 112 795 136 907 158L888 223C780 200 622 178 480 168Z" transform="translate(0, 880) scale(1,-1)" /></svg>