<svg xmlns="http://www.w3.org/2000/svg" width="1000" height="1000"><path d="M180 -62C311 -62 373 109 373 256C373 375 315 495 183 550L154 485C258 436 294 341 294 256C294 148 255 16 180 16C151 16 128 38 128 96C128 202 209 296 379 426L336 485C164 362 50 232 50 96C50 -16 103 -62 180 -62ZM188 522 245 498C304 570 367 672 399 745L342 782L327 774H71V699H289C262 638 226 570 188 522ZM564 475 632 439C715 521 797 624 863 729L792 762L782 749H548V675H733C697 621 635 542 564 475ZM379 582 434 527C514 605 599 703 662 812L591 840C535 741 459 653 379 582ZM522 67V283H447V59C447 -38 484 -58 600 -58H827C909 -58 933 -8 947 140L868 149C860 41 850 15 804 15H613C536 15 522 24 522 67ZM789 211C856 211 894 270 905 497L846 511L828 503H439V429H824C815 313 796 286 767 286C714 286 669 288 622 294V217C670 213 724 211 789 211Z" transform="translate(0, 880) scale(1,-1)" /></svg>