<svg xmlns="http://www.w3.org/2000/svg" width="1000" height="1000"><path d="M264 610 327 659C297 702 236 763 178 809L118 763C174 718 235 654 264 610ZM469 581H545V839H469ZM675 656 735 610C787 650 854 714 904 768L833 813C795 763 728 698 675 656ZM943 602H131V367C131 248 123 82 35 -37L103 -77C196 51 209 239 209 367V526H943ZM873 -86 905 -9C675 36 471 67 268 91L229 14C449 -12 662 -44 873 -86ZM217 254 287 223C340 274 374 360 395 429L323 451C305 384 269 303 217 254ZM723 251 786 225C827 276 876 358 913 424L836 451C810 390 762 303 723 251ZM620 485 541 492C523 378 487 304 411 218L463 166L487 172H577C538 131 485 85 425 45L491 15C566 67 667 144 725 197L665 256L647 245H528C579 314 603 373 620 485Z" transform="translate(0, 880) scale(1,-1)" /></svg>