<svg xmlns="http://www.w3.org/2000/svg" width="1000" height="1000"><path d="M90 413H173V772H90ZM243 496V430C553 393 679 470 679 622C679 738 580 800 432 800C308 800 220 755 173 697V620C235 691 321 731 432 731C542 731 590 692 590 622C590 506 495 467 243 496ZM305 -62C363 -62 396 -23 396 39V614H321V51C321 25 310 10 293 10C255 10 214 17 175 31V-50C209 -58 248 -62 305 -62ZM647 393C500 393 189 247 37 177L61 107C209 176 511 321 649 321C707 321 740 289 740 164C740 40 716 -4 674 -5C632 -6 597 0 556 19V-61C597 -72 636 -75 677 -74C770 -71 812 -3 812 168C812 338 769 393 647 393ZM464 70 530 42C570 95 611 176 637 257L568 266C543 192 505 120 464 70ZM907 48 981 70C966 127 933 217 897 284L828 267C861 198 892 107 907 48Z" transform="translate(0, 880) scale(1,-1)" /></svg>