<svg xmlns="http://www.w3.org/2000/svg" width="1000" height="1000"><path d="M460 408H540V830H460ZM290 592 361 633C318 683 246 745 184 790L118 751C181 705 249 640 290 592ZM65 513H935V589H65ZM614 638 669 590C722 634 798 702 861 766L790 805C740 747 669 680 614 638ZM203 362H797V438H203ZM735 95 756 32C868 52 929 114 929 174C930 250 829 306 611 306C424 306 235 281 99 250L116 177C251 207 444 231 611 231C779 231 844 205 844 173C844 141 798 109 735 95ZM311 162V88H664V162ZM133 12V-64H867V12Z" transform="translate(0, 880) scale(1,-1)" /></svg>