<svg xmlns="http://www.w3.org/2000/svg" width="1000" height="1000"><path d="M46 377 114 342C149 462 179 631 195 766L122 774C107 637 77 481 46 377ZM111 539H453L452 616H111ZM261 -79C303 -79 330 -44 330 16V819H259V29C259 10 251 -5 237 -5C203 -5 166 2 129 17V-63C168 -73 208 -79 261 -79ZM472 284 448 357 46 206 70 134ZM447 479 518 441C566 545 609 676 645 808L574 831C539 696 495 575 447 479ZM434 -7 484 -64C679 45 864 230 920 622L871 656L853 643H540V566H835C780 272 622 97 434 -7ZM892 -75 949 -12C795 163 670 281 527 375L484 319C625 220 745 104 892 -75Z" transform="translate(0, 880) scale(1,-1)" /></svg>