<svg xmlns="http://www.w3.org/2000/svg" width="1000" height="1000"><path d="M836 718H266L300 806L223 817C208 769 181 711 156 668L212 635L231 643H836ZM549 586V836H464V586H91V511H912V586ZM435 -80C508 -80 549 -45 549 22V489H464V39C464 10 457 -9 422 -9C378 -9 340 -1 295 17V-66C339 -76 389 -80 435 -80ZM50 5 116 -42C246 41 341 149 379 251L301 272C255 167 182 82 50 5ZM934 -27 963 50C732 106 504 149 271 180L254 109C486 78 718 29 934 -27ZM82 231H918V306H82ZM140 442V366H860V442Z" transform="translate(0, 880) scale(1,-1)" /></svg>