<svg xmlns="http://www.w3.org/2000/svg" width="1000" height="1000"><path d="M45 -36 107 -87C195 31 222 206 222 325V490H918V564H144V327C144 221 125 73 45 -36ZM242 -63H902V11H242ZM566 6H667C732 47 769 93 769 147C769 223 703 268 564 268C430 268 346 232 346 164C346 109 400 67 512 67C578 67 614 107 614 140V451H538V171C538 144 522 133 492 133C469 133 432 144 432 164C432 188 471 198 564 198C641 198 686 178 686 145C686 104 664 65 566 6ZM36 563 105 525C192 621 247 721 282 835L205 850C170 736 120 651 36 563ZM284 316H868V389H283ZM190 676H902V753H190Z" transform="translate(0, 880) scale(1,-1)" /></svg>