<svg xmlns="http://www.w3.org/2000/svg" width="1000" height="1000"><path d="M310 305 388 331C373 350 345 383 314 404L240 379C268 356 293 328 310 305ZM88 278H919V340H88ZM614 320 686 296C722 325 752 354 775 383L696 406C678 380 650 348 614 320ZM310 740 388 766C373 788 344 824 312 849L238 824C267 797 293 767 310 740ZM118 710H889V772H118ZM614 754 685 730C722 762 753 796 777 827L697 851C679 821 651 785 614 754ZM527 544H650C750 563 771 592 771 618C771 671 677 702 501 702C307 702 209 671 209 628C209 584 277 557 399 557C490 557 550 583 550 613V710H470V624C470 615 442 612 396 612C339 612 292 617 292 623C292 631 348 642 501 642C638 642 690 632 690 618C690 600 664 566 527 544ZM83 480H920V544H83ZM527 100H649C749 120 771 151 771 180C771 235 677 267 501 267C307 267 209 235 209 190C209 144 277 116 399 116C490 116 550 142 550 174V278H470V186C470 175 442 171 396 171C339 171 292 178 292 185C292 195 348 207 501 207C638 207 690 196 690 180C690 160 664 124 527 100ZM53 35H950V100H53ZM77 377 146 353C208 381 260 422 282 461L207 481C188 442 133 402 77 377ZM524 355C565 355 603 363 661 385L607 431C577 415 558 410 534 410C510 410 497 423 464 475L390 463C437 373 478 355 524 355ZM853 354 931 375C896 405 830 450 772 480L703 456C765 423 821 382 853 354ZM57 -75 126 -100C188 -71 240 -32 262 10L187 28C168 -11 113 -52 57 -75ZM524 -98C565 -98 603 -90 661 -67L607 -22C577 -38 558 -42 534 -42C510 -42 497 -30 464 24L390 11C437 -78 478 -98 524 -98ZM873 -99 951 -77C916 -48 850 -3 792 28L723 4C785 -30 841 -70 873 -99Z" transform="translate(0, 880) scale(1,-1)" /></svg>