<svg xmlns="http://www.w3.org/2000/svg" width="1000" height="1000"><path d="M68 749 76 679C211 684 364 699 472 717L457 785C353 767 203 751 68 749ZM63 520V449H468V520ZM226 719V298H306V719ZM436 207 404 260C223 204 76 127 76 37C76 -26 133 -64 212 -64C356 -64 480 28 480 164C480 267 433 334 269 334C200 334 135 318 92 300L110 238C150 254 214 266 272 266C367 266 400 227 400 164C400 74 304 5 215 5C176 5 156 21 156 43C156 87 272 160 436 207ZM653 50H756V126H665C630 126 611 152 611 208V810H533V203C533 102 581 50 653 50ZM792 -77C898 -77 942 121 942 377C942 634 859 726 737 726C631 726 531 698 468 660L497 585C557 622 651 644 737 644C823 644 863 537 863 377C863 165 842 -1 789 -1C747 -1 712 6 685 24V-61C712 -72 744 -77 792 -77ZM762 246 824 289C788 366 746 442 699 517L641 476C687 400 727 323 762 246Z" transform="translate(0, 880) scale(1,-1)" /></svg>