<svg xmlns="http://www.w3.org/2000/svg" width="1000" height="1000"><path d="M130 416 179 391C279 436 363 504 363 583C363 654 319 697 266 697C196 697 140 663 140 598C140 531 199 493 270 507C245 474 205 449 130 416ZM255 554C226 554 201 569 201 598C201 627 227 645 256 645C281 645 304 624 304 602C304 569 281 554 255 554ZM338 618V794H264V672ZM88 808V735H416V808ZM65 426 89 356 425 456 401 525ZM685 405H751C831 464 874 497 874 571C874 654 808 702 684 702C552 702 486 654 486 586C486 521 533 477 615 477C682 477 726 518 726 566V773H651V580C651 553 636 542 613 542C583 542 557 556 557 586C557 611 588 638 684 638C770 638 800 614 800 571C800 516 771 472 685 405ZM418 365H950V434H418ZM447 745H918V816H447ZM102 -15 131 -81C502 -41 675 107 796 313L721 339C604 140 428 13 102 -15ZM34 62 106 30C162 76 199 150 221 208L150 231C131 174 91 106 34 62ZM856 -81 887 -13C609 4 379 130 316 285L241 267C313 83 586 -60 856 -81ZM557 217 606 268C548 303 438 356 353 385L315 332C399 302 498 254 557 217ZM897 30 968 63C940 110 877 182 813 235L747 205C808 152 871 79 897 30Z" transform="translate(0, 880) scale(1,-1)" /></svg>