<svg xmlns="http://www.w3.org/2000/svg" width="1000" height="1000"><path d="M260 318C397 318 518 402 518 500C518 573 487 650 318 731L251 706C407 624 437 551 437 507C437 434 347 384 258 384C186 385 140 412 140 438C140 544 606 576 720 572V404H588V336L936 334V404H804V633L742 653L724 643C562 643 62 612 62 441C62 368 128 318 260 318ZM147 720 179 654C358 684 533 726 705 779L640 840C504 796 310 747 147 720ZM349 310 322 244C433 231 549 216 644 198L678 269C580 284 464 299 349 310ZM467 -77C541 -77 594 -37 594 36C594 97 561 142 498 182L434 143C488 107 514 73 514 36C514 5 486 -12 459 -12C434 -12 379 -6 323 8V-64C371 -74 419 -77 467 -77ZM60 28 121 -16C184 26 248 91 286 145L207 177C177 127 121 68 60 28ZM877 -20 954 17C920 61 851 128 775 181L704 142C778 88 846 24 877 -20Z" transform="translate(0, 880) scale(1,-1)" /></svg>