<svg xmlns="http://www.w3.org/2000/svg" width="1000" height="1000"><path d="M496 496 591 465C651 486 700 512 700 566C700 628 648 661 544 661C484 661 446 654 420 643C447 664 501 731 553 821L473 847C429 746 329 637 258 587L324 540C374 570 450 592 544 592C598 592 619 581 619 566C619 542 592 520 496 496ZM153 432H848V506H153ZM187 702H816V775H187ZM148 -10 232 -35C296 19 362 84 429 171L366 212L354 205H262C293 253 320 312 342 393L264 410C238 311 193 236 138 178L194 127L211 139H302C271 94 218 39 148 -10ZM62 264H485V336H62ZM71 -14 96 -81 477 30 447 95ZM703 4 784 -22C833 4 871 37 871 101C871 176 833 210 757 210C726 210 709 206 688 195C705 222 736 286 768 393L688 410C661 294 609 176 554 112L619 70C651 111 698 139 757 139C787 139 797 122 797 101C797 67 769 35 703 4ZM513 -62H947V12H513ZM533 264H927V336H533Z" transform="translate(0, 880) scale(1,-1)" /></svg>