<svg xmlns="http://www.w3.org/2000/svg" width="1000" height="1000"><path d="M115 760V688H885V760ZM284 490C213 489 179 504 179 527C179 560 303 568 547 568C787 568 839 544 839 527C839 501 833 476 812 447L883 423C907 457 918 488 918 528C918 610 805 638 547 638C256 638 101 617 101 527C101 456 173 426 284 426C428 426 510 491 510 665V837H430V665C430 525 374 491 284 490ZM462 -77C514 -76 546 -51 546 10V396H469V28C469 6 457 -8 435 -9C387 -10 335 -1 276 20V-57C335 -72 387 -78 462 -77ZM53 87H947V160H53ZM116 215H884V286H116ZM117 397 135 331C344 328 654 340 854 376L806 439C641 410 337 397 117 397Z" transform="translate(0, 880) scale(1,-1)" /></svg>