<svg xmlns="http://www.w3.org/2000/svg" width="1000" height="1000"><path d="M147 803 94 754C146 707 205 649 235 608L289 662C258 702 200 759 147 803ZM128 20 196 5 308 491 246 522 227 511H43V436H217ZM314 147 64 6 99 -69 350 83ZM315 522 381 495C425 587 462 716 481 818L412 828C393 724 357 603 315 522ZM403 640H922L921 711H403ZM726 409 778 461C714 512 641 560 556 608L511 559C593 511 665 460 726 409ZM472 60V219H396V49C396 -40 435 -58 558 -58H819C906 -58 932 -12 947 128L867 137C859 39 848 13 800 13H568C487 13 472 20 472 60ZM774 151C845 151 884 200 897 389L837 401L819 395H387V321H815C805 242 783 224 752 224C690 224 642 225 589 229V155C643 152 702 151 774 151Z" transform="translate(0, 880) scale(1,-1)" /></svg>