<svg xmlns="http://www.w3.org/2000/svg" width="1000" height="1000"><path d="M138 -42 218 -33C166 109 156 212 187 297C223 393 227 469 173 550L96 531C144 443 147 377 114 303C79 222 85 109 138 -42ZM245 633 286 697C246 727 171 774 114 805L75 749C132 715 207 664 245 633ZM511 498 580 462C675 539 770 636 846 735L773 767L761 755H487L486 683H702C661 633 591 560 511 498ZM296 598 350 543C442 617 540 709 612 811L541 841C476 747 388 664 296 598ZM401 67V287H324V60C324 -37 366 -58 492 -58H792C898 -58 929 -8 947 141L865 152C854 41 841 16 780 16H499C418 16 401 24 401 67ZM752 211C829 211 871 280 885 503L824 517L805 509H308V435H800C791 317 764 285 728 285C654 285 599 290 538 297V221C601 214 668 211 752 211Z" transform="translate(0, 880) scale(1,-1)" /></svg>