<svg xmlns="http://www.w3.org/2000/svg" width="1000" height="1000"><path d="M534 11H619C705 52 748 91 748 143C748 222 648 255 496 255C374 255 250 227 250 153C250 85 348 52 444 52C488 52 533 78 533 123V400H460V147C460 128 444 119 423 119C378 119 329 130 329 153C329 172 386 190 496 190C606 190 670 166 670 141C670 105 636 68 534 11ZM53 -55H948V21H53ZM144 269H354V336H144ZM58 391H944V465H58ZM639 269H849V336H639ZM539 579V833H461V579ZM72 680H928V752H72ZM870 607H130V535H870Z" transform="translate(0, 880) scale(1,-1)" /></svg>