<svg xmlns="http://www.w3.org/2000/svg" width="1000" height="1000"><path d="M69 162H931V240H69ZM371 221V356H294V221C294 101 271 37 179 -19L239 -77C342 -11 371 81 371 221ZM715 359 638 358V-69H715ZM216 373C344 373 441 454 441 617C441 715 398 810 256 810C194 810 135 792 97 773L118 705C153 723 208 736 258 736C335 736 366 684 366 606C366 507 303 445 218 445C191 445 175 460 175 484C175 600 514 745 687 745C774 745 813 710 813 638C813 535 771 482 658 482C621 482 556 494 486 515V434C555 418 609 406 664 406C828 406 896 501 896 638C896 755 835 823 687 823C474 823 98 640 98 475C98 414 156 373 216 373ZM442 310 507 281C585 368 635 454 682 575L603 596C559 476 510 386 442 310Z" transform="translate(0, 880) scale(1,-1)" /></svg>