<svg xmlns="http://www.w3.org/2000/svg" width="1000" height="1000"><path d="M349 349 322 282C433 268 549 251 644 231L678 303C580 320 464 337 349 349ZM467 -73C541 -73 594 -28 594 54C594 123 561 174 498 219L433 180C487 137 513 98 513 54C513 15 486 -7 458 -7C433 -7 379 0 323 14V-59C371 -69 419 -73 467 -73ZM59 43 121 -3C184 45 248 118 286 180L206 211C176 154 120 87 59 43ZM877 -7 955 30C921 80 852 156 776 215L704 176C778 115 846 43 877 -7ZM642 339H719L721 822H644ZM279 339H356V822H279ZM60 444H942V520H60ZM84 633H918V708H84Z" transform="translate(0, 880) scale(1,-1)" /></svg>