<svg xmlns="http://www.w3.org/2000/svg" width="1000" height="1000"><path d="M800 486 861 443C903 472 931 508 931 562C931 642 843 691 583 691C406 691 262 664 152 613V670H78V460H152V558C266 598 418 622 582 622C799 622 851 591 851 562C851 534 836 508 800 486ZM461 531H540V758H461ZM703 558 298 557V488H703ZM823 795 168 794V725H823ZM205 433V359H795V433ZM128 222H872V301H128ZM326 37 386 95C349 130 273 183 203 222L149 166C218 129 292 73 326 37ZM610 92 660 37C720 70 798 125 856 172L796 227C751 183 672 127 610 92ZM459 0H541V261H459ZM917 36H83V-43H917Z" transform="translate(0, 880) scale(1,-1)" /></svg>