<svg xmlns="http://www.w3.org/2000/svg" width="1000" height="1000"><path d="M32 -16 90 -62C224 99 227 229 227 427V698C288 715 339 722 421 722H678C726 722 753 698 753 658V232C753 213 743 205 730 205C701 205 662 210 614 226V148C657 137 697 131 731 131C798 131 827 151 827 226V662C827 743 783 797 682 797H419C336 797 286 787 224 761V790H153V427C153 246 143 109 32 -16ZM305 506H675V577H305ZM305 317H675V388H305ZM562 -75H789C885 -75 904 -21 915 146L838 151C832 22 825 1 778 1H578C528 1 518 14 518 64V757H439V65C439 -46 463 -75 562 -75Z" transform="translate(0, 880) scale(1,-1)" /></svg>