<svg xmlns="http://www.w3.org/2000/svg" width="1000" height="1000"><path d="M75 343 124 293C222 374 404 483 531 483C571 483 590 466 590 440C590 405 560 378 523 378C491 378 472 397 472 423C472 491 600 531 772 563V376H700V307H938V376H846V636L785 653L769 636C551 595 398 525 398 423C398 364 441 314 523 314C616 314 665 371 664 440C663 518 617 552 531 552C374 552 175 430 75 343ZM81 677H917V749H81ZM498 708 572 740 495 839 420 809ZM556 302C381 302 245 277 116 244L145 182C274 219 399 238 556 238C687 238 752 219 752 188C752 106 363 -4 256 -4C195 -4 170 17 170 43C170 69 190 93 278 93C419 93 632 -11 893 -93L947 -33C694 44 446 159 278 159C149 159 86 115 86 43C86 -16 129 -72 256 -72C429 -72 846 65 846 188C846 256 741 302 556 302ZM87 598V531H350V598ZM211 653V430H284V653Z" transform="translate(0, 880) scale(1,-1)" /></svg>