<svg xmlns="http://www.w3.org/2000/svg" width="1000" height="1000"><path d="M76 132 418 279 395 346 54 209ZM201 -72C248 -72 283 -51 283 17V748H209V37C209 13 199 0 186 0C161 0 135 4 102 18V-60C137 -69 169 -72 201 -72ZM64 448H405V527H64ZM88 773 93 695C194 700 310 718 391 739L378 814C304 793 189 775 88 773ZM351 369 426 329C521 422 655 608 713 717L632 735C575 611 443 446 351 369ZM393 -67H960V4H393ZM539 4H674C754 55 798 142 798 232C798 321 746 391 659 391C584 391 518 336 518 255C518 165 585 121 657 121C676 121 691 125 707 134C674 72 634 43 539 4ZM659 185C620 185 591 215 591 255C591 294 620 323 659 323C698 323 723 294 723 255C723 215 698 185 659 185ZM779 282V609H705V342ZM512 452H937V523H512ZM432 702H933V776H432Z" transform="translate(0, 880) scale(1,-1)" /></svg>