<svg xmlns="http://www.w3.org/2000/svg" width="1000" height="1000"><path d="M197 522 254 498C314 570 378 672 410 745L353 782L338 774H79V699H300C273 638 236 570 197 522ZM137 96C137 345 515 606 690 606C818 606 843 521 843 331C843 125 782 33 709 33C647 33 589 38 525 50V-32C589 -40 647 -43 710 -43C850 -43 922 76 922 331C922 567 890 686 690 686C476 686 59 392 59 96C59 -16 112 -62 190 -62C322 -62 384 109 384 256C384 375 326 495 193 550L163 485C268 436 305 341 305 256C305 148 266 16 190 16C160 16 137 38 137 96ZM428 153 493 107C613 225 747 403 793 490L722 528C675 440 548 264 428 153ZM710 178 767 238C700 307 597 395 523 444L471 392C549 336 649 245 710 178Z" transform="translate(0, 880) scale(1,-1)" /></svg>