<svg xmlns="http://www.w3.org/2000/svg" width="1000" height="1000"><path d="M499 143 562 94C593 113 646 158 646 248C646 344 563 455 461 542L402 497C476 441 565 330 565 253C565 200 533 152 499 143ZM45 218 84 150C122 166 157 186 202 210C220 220 246 221 261 218C278 215 289 205 306 165L463 225L436 267L336 231C331 249 317 263 279 269C327 309 372 355 412 401L355 434C268 338 156 251 45 218ZM78 424 111 362C280 410 486 487 567 568L490 601C431 540 234 465 78 424ZM911 138 962 196C835 251 663 304 454 361L433 301C630 247 791 196 911 138ZM556 376 581 320C695 347 778 367 875 408L827 462C740 424 669 402 556 376ZM235 543H765V610H235ZM319 710 393 738C376 769 348 809 317 841L247 817C275 785 305 742 319 710ZM89 660H911V727H89ZM600 713 666 692C695 729 731 783 754 822L673 845C658 807 628 752 600 713ZM875 -84 910 -20C734 -3 581 10 447 18C576 40 674 58 781 80L751 142L719 135C552 146 429 153 288 161L244 97C362 93 427 89 506 82C433 67 372 56 245 37C215 33 188 35 146 37L102 -28C366 -42 622 -61 875 -84Z" transform="translate(0, 880) scale(1,-1)" /></svg>