<svg xmlns="http://www.w3.org/2000/svg" width="1000" height="1000"><path d="M574 455 651 439C662 460 668 482 668 504C668 561 616 620 503 620C385 620 343 564 343 514C343 460 408 411 546 411C758 411 879 488 879 628C879 735 811 816 596 816C393 816 277 773 184 725L222 665C316 710 440 745 596 745C742 745 791 691 791 628C791 531 712 471 546 471C462 471 426 486 426 514C426 539 449 560 503 560C553 560 584 540 584 504C584 486 581 470 574 455ZM163 797V438H245V797ZM52 -21 101 -81C496 34 556 247 554 437H470C470 254 431 87 52 -21ZM889 -89 945 -32C828 47 685 130 553 196L511 139C639 73 782 -11 889 -89ZM70 229H931V304H70ZM859 290 919 326C889 370 857 411 821 451L765 417C800 376 831 334 859 290Z" transform="translate(0, 880) scale(1,-1)" /></svg>