<svg xmlns="http://www.w3.org/2000/svg" width="1000" height="1000"><path d="M809 548 886 513C910 563 921 608 921 668C921 774 805 814 607 814C426 814 271 758 164 665V797H82V535H164V609C271 697 453 732 607 732C784 732 836 698 836 667C836 627 830 590 809 548ZM73 299H585V373H73ZM213 429H523V502H213ZM213 555H523V628H213ZM82 88 149 61C191 118 251 220 293 316L214 345C182 249 127 146 82 88ZM688 225C804 225 833 183 833 132C833 55 776 12 632 -4L667 -78C838 -45 919 13 919 132C919 221 856 299 688 299C442 299 247 121 247 29C247 -33 292 -78 375 -78C458 -78 555 -15 555 86C555 199 419 259 194 230V160C381 180 480 132 480 86C480 36 423 -10 373 -10C338 -10 321 0 321 28C321 85 503 225 688 225ZM835 311 896 365C845 422 772 483 696 538L643 491C725 431 783 373 835 311Z" transform="translate(0, 880) scale(1,-1)" /></svg>