<svg xmlns="http://www.w3.org/2000/svg" width="1000" height="1000"><path d="M328 454 35 324 64 249 355 388ZM183 -62C221 -62 254 -41 254 27V727H180V47C180 23 172 10 160 10C136 10 112 14 79 28V-50C115 -59 148 -62 183 -62ZM63 731 75 657C156 667 271 695 350 735L324 805C253 767 146 742 63 731ZM464 -68C572 -68 654 17 654 193C654 339 629 421 575 519L513 498C564 398 586 308 586 193C586 55 525 7 463 8C413 9 382 46 382 99C382 183 472 327 789 321V36H701V-37H965V36H860V390L799 413L786 396C515 401 314 290 314 103C314 -1 364 -68 464 -68ZM376 511 400 444C537 482 687 531 819 598L769 657C664 605 501 545 376 511ZM359 693 384 624C523 658 664 710 789 776L740 834C641 785 486 725 359 693Z" transform="translate(0, 880) scale(1,-1)" /></svg>