<svg xmlns="http://www.w3.org/2000/svg" width="1000" height="1000"><path d="M803 564 864 526C906 550 930 580 930 626C930 699 843 738 583 738C406 738 261 715 151 672V717H79V540H151V618C265 652 418 672 582 672C800 672 852 651 852 626C852 603 837 582 803 564ZM461 600H540V792H461ZM703 626H298V560H703ZM823 827 168 826V760H823ZM633 -78C725 -78 766 -60 782 -30C818 36 830 148 824 224C819 288 748 325 590 325C491 325 388 319 275 307L277 235C404 251 503 254 591 254C688 254 743 235 744 211C746 151 737 80 709 24C701 7 679 -4 622 -4C571 -4 524 1 469 16V-67C526 -74 581 -78 633 -78ZM99 -15 165 -71C289 49 311 167 319 321H237C229 175 216 86 99 -15ZM671 50 672 120 343 122 342 51ZM680 142 681 213 360 214 359 144ZM154 334H224V417C317 452 424 473 579 473C736 473 775 458 775 438C775 413 594 400 320 417V351C667 337 853 335 853 439C853 500 804 544 579 544C407 544 293 519 224 479V527H154ZM368 303 427 268C496 323 543 381 566 442L492 446C471 396 430 348 368 303Z" transform="translate(0, 880) scale(1,-1)" /></svg>