<svg xmlns="http://www.w3.org/2000/svg" width="1000" height="1000"><path d="M74 605V524H926V605ZM329 318 415 338C390 466 339 676 292 813L210 790C257 654 306 450 329 318ZM565 343 644 321C687 438 746 629 789 790L702 813C669 662 610 468 565 343ZM163 360V276H837V360ZM57 -34 126 -69C188 -4 240 89 262 181L187 204C168 115 113 22 57 -34ZM524 -63C565 -63 603 -45 661 7L607 71C577 34 558 22 534 22C510 22 497 54 464 204L387 185C434 -18 478 -63 524 -63ZM873 -65 951 -33C916 34 850 135 792 207L723 169C785 94 841 0 873 -65Z" transform="translate(0, 880) scale(1,-1)" /></svg>