<svg xmlns="http://www.w3.org/2000/svg" width="1000" height="1000"><path d="M584 435 668 418C676 438 680 459 680 481C680 544 626 598 513 598C396 598 350 547 350 492C350 433 410 384 538 384C776 384 875 481 875 580C875 683 783 752 624 752C482 752 396 719 300 651C329 705 355 763 374 827L290 843C246 702 164 567 69 478L135 429C187 484 219 525 245 564C362 642 505 677 616 677C729 677 786 627 786 580C786 508 730 458 538 458C472 458 436 471 436 492C436 510 460 527 513 527C563 527 592 509 592 481C592 464 589 449 584 435ZM54 -17 100 -81C495 18 552 197 551 354H468C468 208 433 76 54 -17ZM888 -90 943 -30C827 39 689 110 565 165L522 105C645 49 783 -23 888 -90ZM72 189H930V266H72ZM849 220 910 257C884 307 855 354 824 400L766 365C796 319 824 270 849 220Z" transform="translate(0, 880) scale(1,-1)" /></svg>