<svg xmlns="http://www.w3.org/2000/svg" width="1000" height="1000"><path d="M734 422 820 392C867 452 895 506 895 592C895 664 816 728 695 728C619 728 567 709 521 680V832H444V648L430 635L467 582C545 625 615 652 695 652C763 652 812 634 812 592C812 527 785 475 734 422ZM275 407C417 407 503 417 619 459L579 522C482 485 362 478 259 478C221 478 198 495 198 527C198 564 208 627 256 700L173 716C132 641 116 570 116 514C116 448 170 407 275 407ZM318 -68H909V9H300C221 9 204 21 204 78V200H119V83C119 -43 166 -68 318 -68ZM706 100C836 100 881 189 881 351H121V278H788C791 224 766 170 686 170C617 170 545 176 482 193V113C556 103 638 100 706 100Z" transform="translate(0, 880) scale(1,-1)" /></svg>