<svg xmlns="http://www.w3.org/2000/svg" width="1000" height="1000"><path d="M327 641 398 603C455 667 508 744 552 822L480 851C438 772 384 701 327 641ZM551 -74C728 -74 770 205 770 429C770 623 705 681 566 681C452 681 356 663 296 641L308 570C372 592 466 605 566 605C660 605 689 548 689 429C689 222 645 -3 544 -3C504 -3 467 2 426 18V-62C467 -70 504 -74 551 -74ZM927 251 950 324C837 357 696 376 532 376C258 376 69 278 69 112C69 21 128 -25 195 -25C343 -25 419 220 431 518L352 521C343 260 278 53 196 53C163 53 143 73 143 112C143 244 320 301 532 301C687 301 819 283 927 251Z" transform="translate(0, 880) scale(1,-1)" /></svg>