<svg xmlns="http://www.w3.org/2000/svg" width="1000" height="1000"><path d="M227 -61C397 -61 446 108 446 250C446 484 356 557 80 537V458C320 481 365 439 365 242C365 146 337 19 227 19C190 19 149 41 149 86C149 190 282 309 505 392L480 466C234 376 68 215 68 86C68 -8 143 -61 227 -61ZM387 606 420 676C311 722 222 753 118 783L100 714C200 686 283 653 387 606ZM570 -11 618 -80C829 24 925 131 925 284C925 414 863 486 745 486C683 486 611 475 562 454L579 377C622 394 687 409 745 409C811 409 842 365 842 284C842 148 749 77 570 -11ZM642 472 701 433C773 525 844 631 902 737L825 781L817 771H490V693H782C750 626 699 539 642 472Z" transform="translate(0, 880) scale(1,-1)" /></svg>