<svg xmlns="http://www.w3.org/2000/svg" width="1000" height="1000"><path d="M150 789V354H231V789ZM69 162H931V240H69ZM371 221V356H294V221C294 101 271 37 179 -19L239 -77C342 -11 371 81 371 221ZM715 359 638 358V-69H715ZM680 348C865 348 903 440 903 597C903 751 868 811 702 811C607 811 525 794 466 761V795H387V358H466V707C530 729 616 737 702 737C793 737 820 701 820 597C820 501 780 420 680 420C633 420 585 423 532 435V356C579 351 628 348 680 348ZM439 553H761V626H439Z" transform="translate(0, 880) scale(1,-1)" /></svg>