<svg xmlns="http://www.w3.org/2000/svg" width="1000" height="1000"><path d="M63 97 526 244 507 315 46 179ZM251 -70C304 -70 338 -49 338 19V827H261V39C261 15 249 2 232 2C203 2 171 6 130 20V-58C172 -67 211 -70 251 -70ZM79 396H491V473H79ZM55 612H515V690H55ZM616 161 662 99C857 200 921 241 921 328C921 402 850 460 670 498C788 561 877 631 961 748L896 789L884 775H534V700H824C747 615 665 555 545 506L553 444C781 403 840 359 840 328C840 289 789 247 616 161ZM904 -96 954 -34C866 32 681 138 541 203L508 140C643 76 820 -29 904 -96Z" transform="translate(0, 880) scale(1,-1)" /></svg>