<svg xmlns="http://www.w3.org/2000/svg" width="1000" height="1000"><path d="M622 -3 650 -76C835 -65 917 9 917 123C917 225 806 283 520 283C232 283 85 211 85 109C85 -16 239 -59 377 -59C473 -59 559 -5 560 98L563 528H476L477 112C477 45 436 21 377 21C288 21 168 34 168 109C168 154 289 203 520 203C735 203 829 172 829 123C829 58 789 6 622 -3ZM154 426 186 350 212 360H827L828 435H265C301 488 338 549 368 614L288 634C268 586 223 497 195 456C180 437 167 429 154 426ZM313 659 389 690C372 731 335 794 300 840L228 815C260 770 293 709 313 659ZM78 595H929V671H78ZM626 664 687 634C724 691 763 763 790 821L707 844C689 792 655 716 626 664Z" transform="translate(0, 880) scale(1,-1)" /></svg>