<svg xmlns="http://www.w3.org/2000/svg" width="1000" height="1000"><path d="M312 680 388 708C372 740 341 794 307 831L234 803C265 765 294 719 312 680ZM88 629H919V701H88ZM615 691 683 665C723 711 756 760 781 808L701 834C682 789 653 736 615 691ZM813 385 888 359C910 406 919 434 919 461C919 541 818 583 587 583C418 583 268 556 168 519V569H89V376H168V451C280 483 433 505 587 505C782 505 837 484 837 455C837 438 831 420 813 385ZM133 358V150C133 61 113 7 63 -44L142 -78C192 -22 212 39 212 138V358ZM833 -85C896 -85 925 -57 942 70L879 82C870 5 860 -14 832 -14C683 -14 612 233 596 467H517C535 227 616 -85 833 -85ZM451 5 497 -56C654 -6 783 87 868 202L800 241C733 139 620 55 451 5ZM173 220 894 267 888 340 168 292ZM756 330 810 377C783 402 731 437 687 462L636 418C680 393 731 355 756 330ZM470 41 516 102C454 140 383 175 301 211L261 151C341 115 411 79 470 41Z" transform="translate(0, 880) scale(1,-1)" /></svg>