<svg xmlns="http://www.w3.org/2000/svg" width="1000" height="1000"><path d="M82 627V547H918V627ZM222 408 297 443C281 534 240 662 202 758L129 730C163 637 202 499 222 408ZM473 452 556 477C544 578 511 709 478 820L398 798C429 689 460 552 473 452ZM682 425 757 403C796 502 841 650 872 765L784 793C760 678 719 532 682 425ZM53 -7 101 -71C496 41 555 235 553 423H470C470 246 432 97 53 -7ZM889 -80 945 -19C828 58 686 138 556 202L513 141C640 77 782 -4 889 -80ZM71 229H931V306H71Z" transform="translate(0, 880) scale(1,-1)" /></svg>