<svg xmlns="http://www.w3.org/2000/svg" width="1000" height="1000"><path d="M312 693 388 721C372 752 341 805 307 841L234 813C265 776 294 731 312 693ZM88 644H919V716H88ZM615 704 683 678C723 723 756 772 781 818L701 844C682 801 653 748 615 704ZM98 572V498H308V572ZM162 538V-62H237V538ZM272 419 347 395C387 458 421 546 439 617L362 631C344 559 311 476 272 419ZM364 490H926L925 562H364ZM904 432H372V277C372 188 364 74 276 -17L344 -65C437 33 450 179 450 277V357H904ZM701 6H790C841 30 871 66 871 100C871 168 804 198 700 198C580 198 512 171 512 110C512 58 561 26 643 26C700 26 737 51 737 93V340H658V112C658 97 650 90 630 90C609 90 590 99 590 110C590 124 619 134 700 134C765 134 792 120 792 99C792 75 777 45 701 6ZM430 -67H932V6H430ZM463 220H920V289H463Z" transform="translate(0, 880) scale(1,-1)" /></svg>