<svg xmlns="http://www.w3.org/2000/svg" width="1000" height="1000"><path d="M85 677 120 617C178 665 243 687 294 687C358 687 386 622 386 519C386 350 314 336 179 384V302C329 266 465 272 465 519C465 669 424 769 294 769C207 769 133 731 85 677ZM305 65V534H225V65ZM444 79 419 155 75 44 99 -34ZM143 269V730H65V269ZM451 707 488 645C558 700 636 728 715 728C814 728 850 673 850 570C850 401 742 377 563 425V342C763 306 933 323 933 570C933 718 885 810 715 810C599 810 510 767 451 707ZM415 -21 477 -75C695 74 726 323 726 575H642C642 326 624 118 415 -21ZM882 -75 954 -32C895 62 827 159 765 242L699 199C760 119 828 18 882 -75Z" transform="translate(0, 880) scale(1,-1)" /></svg>