<svg xmlns="http://www.w3.org/2000/svg" width="1000" height="1000"><path d="M584 455 668 441C675 459 679 478 679 499C679 561 626 613 513 613C396 613 350 564 350 509C350 451 410 403 538 403C777 403 875 498 875 596C875 697 783 764 624 764C482 764 396 732 300 666C330 718 355 775 374 837L290 853C246 715 164 583 69 495L135 447C187 501 219 541 245 579C362 656 505 689 616 689C729 689 786 642 786 596C786 525 732 477 538 477C472 477 436 489 436 509C436 527 460 543 513 543C563 543 592 526 592 499C592 483 589 468 584 455ZM456 -80C523 -80 551 -52 551 8V365H472V20C472 3 460 -9 438 -9C399 -9 348 0 301 12V-67C348 -75 402 -80 456 -80ZM57 33 115 -23C198 18 290 82 347 148L274 182C224 124 140 67 57 33ZM62 217H942V290H62ZM882 -26 941 24C893 68 789 135 706 180L650 133C734 86 835 18 882 -26Z" transform="translate(0, 880) scale(1,-1)" /></svg>