<svg xmlns="http://www.w3.org/2000/svg" width="1000" height="1000"><path d="M464 -81C522 -81 548 -55 548 19V648H470V30C470 10 462 -5 447 -5C422 -5 383 -1 345 11V-72C382 -79 430 -82 464 -81ZM152 26 229 21C228 106 233 190 244 274L167 279C156 194 151 111 152 26ZM55 121H947V195H55ZM233 312H771V386H233ZM233 312H771V386H233ZM775 19 852 29C849 113 840 196 825 280L748 272C763 188 772 104 775 19ZM233 465H771V539H233ZM313 677 388 705C371 741 339 801 305 842L232 814C264 773 294 721 313 677ZM88 618H919V692H88ZM616 686 682 660C723 712 757 767 783 819L703 845C684 796 654 736 616 686Z" transform="translate(0, 880) scale(1,-1)" /></svg>