<svg xmlns="http://www.w3.org/2000/svg" width="1000" height="1000"><path d="M182 771V693H818V771ZM258 614V536H742V614ZM195 467V388H805V467ZM457 269C511 269 543 301 543 357V844H465V367C465 353 456 342 439 342C400 342 360 346 316 359V280C362 272 403 269 457 269ZM46 371 113 352C145 436 160 527 170 607L103 619C93 541 71 446 46 371ZM881 350 955 363C933 454 909 553 887 625L818 606C840 537 861 445 881 350ZM449 26 483 -36C753 -34 853 20 853 123C853 199 787 261 567 261C380 261 245 224 110 157L156 96C262 151 400 188 567 188C714 188 770 157 770 123C770 67 693 22 449 26ZM481 -98 554 -65C529 -13 483 46 444 89L376 58C417 19 459 -45 481 -98Z" transform="translate(0, 880) scale(1,-1)" /></svg>