<svg xmlns="http://www.w3.org/2000/svg" width="1000" height="1000"><path d="M306 129H623V201H318C290 201 271 223 271 254V332C271 488 434 605 591 711L518 752C345 640 196 518 196 331V240C196 176 243 129 306 129ZM442 273 506 284C473 349 459 447 467 549H393C381 443 403 337 442 273ZM820 115C888 115 934 167 934 348C934 505 823 526 620 526C543 526 475 510 417 486L436 423C484 442 544 453 622 453C793 453 857 436 857 348C857 222 833 190 810 190C774 190 738 196 703 211V128C738 119 777 115 820 115ZM533 189 586 168C714 256 752 451 698 646L624 642C674 450 631 275 533 189ZM211 697H896V774H211ZM928 -54 952 27C654 4 427 5 283 48C196 74 135 144 109 238L31 216C66 88 144 10 253 -21C403 -64 625 -76 928 -54Z" transform="translate(0, 880) scale(1,-1)" /></svg>