<svg xmlns="http://www.w3.org/2000/svg" width="1000" height="1000"><path d="M924 -51 948 30C651 7 425 8 282 51C195 77 135 147 109 241L31 219C66 91 144 13 252 -18C402 -61 622 -73 924 -51ZM184 140H949V211H184ZM137 442 188 389C270 472 379 609 451 720L380 746C310 638 210 518 137 442ZM112 637 169 601C226 664 288 742 336 816L269 846C224 772 166 694 112 637ZM615 191H692C752 225 805 280 805 325C805 384 745 444 570 444C422 444 325 402 325 347C325 286 400 250 530 250C581 250 614 284 614 319V654H540V346C540 320 522 311 498 311C437 311 402 328 402 345C402 365 446 380 570 380C695 380 721 347 721 323C721 292 688 234 615 191ZM283 510H901V580H283ZM234 702H904V767H234Z" transform="translate(0, 880) scale(1,-1)" /></svg>