<svg xmlns="http://www.w3.org/2000/svg" width="1000" height="1000"><path d="M313 653 388 681C371 721 338 786 303 830L230 802C263 758 294 701 313 653ZM88 588H919V663H88ZM616 660 681 635C723 691 758 751 785 808L704 834C685 780 655 715 616 660ZM321 81C321 239 546 438 693 438C774 438 799 391 799 256C799 106 780 2 699 2C643 2 597 9 560 23V-58C596 -67 636 -70 703 -70C837 -70 875 40 875 256C875 461 818 515 693 515C499 515 248 277 248 82C248 9 285 -37 338 -37C438 -37 482 52 494 166C511 319 472 493 326 493C256 493 204 445 168 350C190 456 222 515 284 613L208 623C144 525 106 406 95 317C85 236 86 83 107 -65H183C163 41 158 152 178 237C192 291 241 414 324 414C396 414 439 297 426 169C418 96 387 41 347 41C331 41 321 52 321 81ZM580 339V258H947V339ZM580 192V111H947V192Z" transform="translate(0, 880) scale(1,-1)" /></svg>