<svg xmlns="http://www.w3.org/2000/svg" width="1000" height="1000"><path d="M312 691 388 719C372 751 341 805 307 841L234 813C265 776 294 730 312 691ZM88 641H919V713H88ZM615 702 683 676C723 722 756 771 781 818L701 844C682 800 653 747 615 702ZM943 581H131V349C131 234 123 79 33 -33L105 -80C197 43 209 226 209 349V506H943ZM815 270 893 233C913 278 922 304 922 327C922 402 818 443 587 443C418 443 265 420 165 389V323C277 349 433 367 587 367C782 367 837 350 837 327C837 313 831 299 815 270ZM348 276 426 297C412 351 383 433 356 492L281 472C307 414 335 331 348 276ZM620 298 690 279C717 328 752 408 777 476L701 496C681 433 647 351 620 298ZM536 -80C767 -80 897 -22 897 103C897 209 800 265 587 265C437 265 318 246 210 217L236 155C334 180 474 195 591 195C728 195 811 167 811 104C811 21 681 -14 523 -14C437 -14 381 1 381 22C381 41 417 53 465 53C544 53 597 36 610 -32L686 -22C666 68 594 115 466 115C366 115 298 69 298 19C298 -37 388 -80 536 -80Z" transform="translate(0, 880) scale(1,-1)" /></svg>