<svg xmlns="http://www.w3.org/2000/svg" width="1000" height="1000"><path d="M346 452 35 322 63 246 373 385ZM186 -71C229 -71 262 -50 262 18V728H188V42C188 18 178 5 166 5C140 5 113 9 78 23V-59C116 -68 150 -71 186 -71ZM63 732 76 657C162 667 285 695 368 735L343 806C267 768 152 743 63 732ZM935 486V559H615V486ZM299 510 360 458C459 570 521 674 593 824L518 847C457 706 387 601 299 510ZM295 235 355 168C502 298 703 559 784 719L723 758L708 752H503V679H674C624 576 444 353 295 235ZM487 393V323H799C793 242 784 214 757 214C699 214 657 222 612 237V163C662 151 710 144 772 144C849 144 865 220 877 386L818 403L804 393ZM541 75V239H466V68C466 -36 505 -58 595 -58H815C908 -58 934 -7 950 146L880 161C875 32 853 16 797 16H603C553 16 541 28 541 75Z" transform="translate(0, 880) scale(1,-1)" /></svg>