<svg xmlns="http://www.w3.org/2000/svg" width="1000" height="1000"><path d="M88 311 132 247C423 373 659 513 860 800L785 833C585 552 382 432 88 311ZM815 402 888 369C907 407 918 448 918 498C918 591 820 612 628 612C438 612 266 564 159 487V581H82V388H159V437C266 509 469 539 628 539C795 539 838 521 838 497C838 469 830 431 815 402ZM168 635H496V700H168ZM168 748H496V813H168ZM565 67H935V139H565ZM565 186H935V261H565ZM161 32C161 135 508 310 697 310C763 310 787 266 787 198C787 34 741 1 699 1C657 1 624 8 580 20V-56C622 -64 661 -67 714 -67C796 -67 868 -28 868 198C868 343 820 389 697 389C479 389 80 186 80 32C80 -41 134 -73 220 -73C392 -73 484 44 484 163C484 267 426 355 323 401L275 349C353 309 404 252 404 163C404 74 346 -4 220 -4C181 -4 161 9 161 32Z" transform="translate(0, 880) scale(1,-1)" /></svg>