<svg xmlns="http://www.w3.org/2000/svg" width="1000" height="1000"><path d="M481 35 535 92C366 183 361 394 445 720H930V797H69V720H364C286 389 294 122 481 35ZM608 3 642 -69C832 -50 950 9 950 137C950 268 786 322 500 322C228 322 54 245 54 114C54 0 148 -57 281 -57C489 -57 667 150 702 416L624 421C598 179 446 21 281 21C189 21 135 51 135 114C135 174 235 250 500 250C758 250 869 191 869 133C869 50 778 17 608 3ZM109 386H180V467C298 549 467 576 604 576C730 576 819 554 819 527C819 488 700 461 479 471V397C765 387 908 418 908 527C908 612 782 647 605 647C439 647 268 601 180 525V634H109Z" transform="translate(0, 880) scale(1,-1)" /></svg>