<svg xmlns="http://www.w3.org/2000/svg" width="1000" height="1000"><path d="M336 753 264 776C213 672 126 577 40 507L107 472C192 546 284 648 336 753ZM303 493C275 493 255 498 255 511C255 527 302 549 404 586L349 627C235 580 182 545 182 506C182 469 230 431 303 431C404 431 454 469 454 553C454 640 394 678 312 678C255 678 212 666 182 647L201 592C235 606 275 614 312 614C357 614 378 590 378 553C378 508 340 493 303 493ZM59 721H486V794H59ZM852 437C915 437 945 456 952 567L883 576C878 502 871 489 850 489C739 489 682 650 669 821L590 812C605 654 664 437 852 437ZM504 535 552 472C692 507 800 552 877 623L808 667C747 593 654 569 504 535ZM508 662 910 678 898 751 497 736ZM825 705 872 755C848 778 800 814 760 839L715 793C755 768 802 730 825 705ZM155 210 334 256 313 316 134 271ZM514 286V220C805 209 887 247 887 316C887 386 808 421 581 421C390 421 213 395 105 366L133 299C235 330 405 353 581 353C725 353 802 342 802 316C802 289 706 278 514 286ZM140 191V125H860V191ZM108 94V25H892V94ZM457 -89C515 -89 549 -58 549 2V470H470V16C470 -3 460 -19 439 -19C392 -19 346 -10 296 7V-75C348 -85 394 -89 457 -89Z" transform="translate(0, 880) scale(1,-1)" /></svg>