<svg xmlns="http://www.w3.org/2000/svg" width="1000" height="1000"><path d="M276 396V327C725 298 831 334 831 430C831 512 762 543 559 543C431 543 341 536 241 524L260 453C354 464 447 470 559 470C707 470 751 457 751 429C751 388 663 380 276 396ZM543 500 790 622 722 668 700 660H195V588H584L455 529ZM59 703H937V775H555L515 847L434 836L469 775H59ZM45 50 84 -20C122 -9 157 9 202 29C219 37 246 38 261 36C278 32 289 18 306 -25L444 50L417 94L336 56C330 71 317 81 301 87C327 111 351 137 374 167L322 209C245 136 145 80 45 50ZM484 -89C602 -89 646 -16 646 74C646 149 572 234 461 310L402 260C484 214 566 136 565 73C564 20 546 -16 480 -16C440 -16 402 -11 364 1V-78C399 -86 439 -89 484 -89ZM911 -36 962 30C835 76 663 122 454 169L433 101C630 56 791 13 911 -36ZM556 193 580 128C694 151 777 167 874 201L827 265C740 234 669 215 556 193ZM588 423 509 451C453 325 321 269 78 226L111 157C369 209 526 284 588 423Z" transform="translate(0, 880) scale(1,-1)" /></svg>