<svg xmlns="http://www.w3.org/2000/svg" width="1000" height="1000"><path d="M171 650 207 575 235 581H816V657H298C362 712 415 764 458 823L380 851C339 789 266 712 216 666C206 658 191 653 171 650ZM896 469 905 548C708 561 446 561 99 547V472C445 484 711 481 896 469ZM572 467V691H493V471C493 451 483 442 465 441C439 441 384 447 322 466V383C375 374 422 370 475 370C549 370 572 404 572 467ZM121 714H874V790H121ZM65 1 479 52 464 124 52 76ZM61 197 103 131 118 136H432V206H160C202 268 238 332 266 403L181 410C158 346 115 261 86 214C81 204 73 199 61 197ZM327 -1V260H250V-7C250 -20 244 -24 233 -25C217 -25 185 -21 147 -8V-84C178 -91 205 -93 238 -93C306 -93 327 -61 327 -1ZM55 283H455V358H55ZM511 200 551 133 567 136H905V213H626C659 273 685 333 707 400L630 422C607 354 566 267 538 218C532 208 523 203 511 200ZM953 18 956 98C841 105 690 105 489 97V22C690 27 845 24 953 18ZM786 4V256H710V0C710 -15 704 -20 693 -21C676 -21 643 -17 604 -4V-85C636 -91 664 -94 699 -94C764 -94 786 -60 786 4ZM501 283H930V359H501Z" transform="translate(0, 880) scale(1,-1)" /></svg>