<svg xmlns="http://www.w3.org/2000/svg" width="1000" height="1000"><path d="M198 460 270 438C336 530 401 641 440 755L392 793L375 786H85V717H340C313 635 262 547 198 460ZM38 643V568H469V643ZM95 482V411H426V482ZM189 -23V232H117V-23ZM349 116C408 116 444 165 453 342L394 354L376 346H81V275H373C364 189 352 179 330 179C294 179 259 182 223 191V123C259 118 302 116 349 116ZM577 23V-56C612 -69 654 -75 697 -75C849 -75 952 -6 952 197C952 379 862 438 712 438C676 438 650 434 629 424C694 480 737 570 737 672H660C660 573 623 480 555 414C540 399 519 387 501 375L529 315C583 346 655 369 712 369C809 369 876 325 876 197C876 63 800 -5 697 -5C647 -5 606 5 577 23ZM503 278V212H776V278ZM497 155V86H784V155ZM574 590V518C787 489 924 510 924 668C924 783 829 817 720 817C608 817 533 783 464 733L500 674C559 719 629 748 720 748C801 748 847 710 847 668C847 578 774 553 574 590ZM53 -9 74 -79 458 12 437 81Z" transform="translate(0, 880) scale(1,-1)" /></svg>