<svg xmlns="http://www.w3.org/2000/svg" width="1000" height="1000"><path d="M207 -27H581V48H219C190 48 171 69 171 101V222C171 432 360 578 541 713L465 746C277 603 94 452 94 221V87C94 22 142 -27 207 -27ZM379 147 444 161C405 243 390 369 399 499H322C308 363 334 228 379 147ZM808 -42C881 -42 934 15 934 242C934 437 808 459 578 459C490 459 411 443 345 416L367 350C422 370 491 382 580 382C779 382 855 365 855 242C855 74 827 39 799 39C757 39 715 46 674 61V-28C714 -37 758 -42 808 -42ZM482 34 534 19C681 131 725 373 663 622L586 617C644 372 595 143 482 34ZM108 697H895V774H108Z" transform="translate(0, 880) scale(1,-1)" /></svg>