<svg xmlns="http://www.w3.org/2000/svg" width="1000" height="1000"><path d="M539 586V843H461V586ZM82 686H918V763H82ZM840 617H160V541H840ZM45 63 84 -7C122 7 157 26 202 50C219 59 246 60 261 57C278 54 289 37 306 -11L448 70L421 113L336 74C330 91 317 105 297 112C328 142 355 175 382 213L329 252C250 166 147 98 45 63ZM482 -83C600 -83 647 -3 646 94C646 178 572 289 461 379L402 327C484 271 566 167 566 93C565 36 546 -11 478 -11C438 -11 400 -6 362 7V-71C397 -80 437 -83 482 -83ZM911 -25 962 40C835 93 663 145 454 200L433 132C630 81 791 31 911 -25ZM556 223 580 159C694 185 777 204 874 243L827 306C740 270 669 248 556 223ZM105 473V397H895V473ZM548 422 469 457C413 354 281 314 78 264L111 196C329 255 486 304 548 422Z" transform="translate(0, 880) scale(1,-1)" /></svg>