<svg xmlns="http://www.w3.org/2000/svg" width="1000" height="1000"><path d="M140 508 175 430 206 439H855V516H260C340 610 408 704 462 810L380 835C333 734 248 606 190 533C179 519 162 512 140 508ZM901 287V360H99V287ZM577 202V605H497V202ZM79 652H922V729H79ZM454 17 492 -42C792 -40 902 9 902 102C902 171 830 227 586 227C376 227 224 193 73 131L116 69C237 121 395 156 586 156C754 156 818 130 818 102C818 53 730 13 454 17ZM493 -99 566 -66C538 -19 487 34 442 73L375 42C421 7 468 -52 493 -99Z" transform="translate(0, 880) scale(1,-1)" /></svg>