<svg xmlns="http://www.w3.org/2000/svg" width="1000" height="1000"><path d="M313 667 388 695C371 732 339 794 304 836L231 808C264 766 294 712 313 667ZM88 606H919V680H88ZM616 675 682 649C723 702 758 760 784 814L704 840C684 788 654 727 616 675ZM197 522V442H776V522ZM344 474 266 483C246 426 219 369 192 321C186 310 177 303 167 298L207 225L230 234H807V312H272C299 364 323 418 344 474ZM519 -82C576 -82 609 -51 609 3V395H531V17C531 2 520 -10 501 -10C456 -10 409 -5 361 9V-70C412 -79 458 -82 519 -82Z" transform="translate(0, 880) scale(1,-1)" /></svg>