<svg xmlns="http://www.w3.org/2000/svg" width="1000" height="1000"><path d="M313 656 388 684C371 722 338 787 303 830L230 802C263 758 294 703 313 656ZM88 591H919V666H88ZM616 663 681 637C723 692 758 752 785 808L704 834C685 780 655 717 616 663ZM210 450 237 383C304 416 353 432 425 432C496 432 524 398 524 351C524 289 466 257 370 250V174C523 190 600 253 600 351C600 449 546 509 431 509C335 509 267 483 210 450ZM333 88H411V338H333ZM100 237 171 204C229 300 274 424 297 547L222 560C198 437 151 315 100 237ZM777 137C827 137 851 121 851 92C851 35 737 7 584 -7L613 -82C795 -57 930 -24 930 92C930 172 883 218 777 216C611 213 317 107 92 5L122 -71C347 33 639 137 777 137ZM833 273 896 326C859 379 805 434 749 484L692 437C752 382 795 330 833 273Z" transform="translate(0, 880) scale(1,-1)" /></svg>