<svg xmlns="http://www.w3.org/2000/svg" width="1000" height="1000"><path d="M640 616 696 683C595 734 482 784 348 834L302 770C432 720 546 668 640 616ZM85 221 133 146C408 258 671 410 820 552L762 604L745 597H118V515H640C547 430 344 315 85 221ZM515 -98 595 -62C570 11 520 93 478 155L404 121C448 66 492 -24 515 -98ZM470 390V312C513 319 559 323 608 323C762 323 823 266 823 211C823 125 741 56 483 62L518 -16C805 -14 912 66 912 211C912 317 841 398 608 398C562 398 513 395 470 390Z" transform="translate(0, 880) scale(1,-1)" /></svg>