<svg xmlns="http://www.w3.org/2000/svg" width="1000" height="1000"><path d="M80 559 150 528C204 614 252 735 275 832L201 844C176 745 130 633 80 559ZM185 663H869V739H185ZM329 454 386 494C363 528 315 577 271 614L217 577C261 539 308 489 329 454ZM468 427H544V635H468ZM627 497 680 460C720 491 772 543 810 586L749 624C719 583 667 530 627 497ZM177 356 203 296C306 342 415 369 578 369C733 369 787 340 787 298C787 226 598 219 303 244V167C642 146 866 147 866 298C866 381 802 445 578 445C389 445 263 410 177 356ZM105 -18 149 -85C500 -3 548 127 547 299H467C467 137 442 57 105 -18ZM842 -91 895 -29C797 28 687 84 591 125L546 64C645 20 754 -37 842 -91ZM220 154V420H142V154Z" transform="translate(0, 880) scale(1,-1)" /></svg>