<svg xmlns="http://www.w3.org/2000/svg" width="1000" height="1000"><path d="M709 595C751 647 789 705 822 770L763 809L743 798H160V721H702C675 669 647 628 610 585C669 540 692 496 692 468C692 437 672 418 622 418C558 418 498 427 434 450L414 370C482 350 548 342 627 342C735 342 776 394 776 463C776 520 755 558 709 595ZM147 -9 178 -74 514 32 494 106 266 32V595H188V45C188 10 165 -3 147 -9ZM851 -66 921 -16C827 80 667 202 498 290L453 232C622 141 760 30 851 -66Z" transform="translate(0, 880) scale(1,-1)" /></svg>