<svg xmlns="http://www.w3.org/2000/svg" width="1000" height="1000"><path d="M69 132 385 279 362 346 46 209ZM181 -72C228 -72 263 -51 263 17V748H189V37C189 13 179 0 167 0C143 0 118 4 87 18V-60C120 -69 151 -72 181 -72ZM57 448H372V527H57ZM80 773 84 695C177 700 284 718 359 739L348 814C279 793 172 775 80 773ZM948 791H402V470C402 325 394 108 338 -27L415 -60C472 92 479 317 479 470V713H948ZM712 57C888 57 951 185 951 284C951 383 895 475 738 475C637 475 567 447 485 377L528 313C587 370 649 402 738 402C845 402 873 336 873 284C873 222 829 132 712 132C627 132 599 149 599 185C599 220 636 247 694 247C743 247 798 217 834 158L888 208C834 283 766 319 694 319C588 319 521 260 521 185C521 108 577 57 712 57ZM666 -79H744V562H666ZM454 540 912 539V615H454Z" transform="translate(0, 880) scale(1,-1)" /></svg>