<svg xmlns="http://www.w3.org/2000/svg" width="1000" height="1000"><path d="M311 705 388 733C373 761 343 810 309 842L236 814C266 780 294 740 311 705ZM88 659H919V733H88ZM614 718 684 692C723 733 755 776 779 818L699 844C680 805 652 758 614 718ZM815 419 885 389C916 427 915 449 915 483C915 581 849 634 609 634C402 634 194 599 62 557L93 482C214 521 426 553 609 553C768 553 837 532 837 483C837 463 835 444 815 419ZM77 -64H935V9H77ZM563 -6H653C722 19 775 55 775 97C775 155 707 200 512 200C336 200 224 173 224 115C224 57 298 35 405 35C537 35 594 72 594 162V396H514V170C514 106 476 95 405 95C335 95 305 104 305 113C305 125 374 139 512 139C650 139 688 111 688 95C688 73 649 29 563 -6ZM109 227H913V299H109ZM16 341 68 288C202 345 331 413 434 497L356 535C269 461 146 392 16 341ZM474 422C426 390 357 353 294 329L348 284C465 332 607 403 689 451L623 494L604 488H297V422Z" transform="translate(0, 880) scale(1,-1)" /></svg>