<svg xmlns="http://www.w3.org/2000/svg" width="1000" height="1000"><path d="M958 420H497C622 497 783 609 930 743L879 815L861 804H378V726H786C697 644 537 523 384 425L365 420L380 342H958ZM365 191 407 115C492 166 591 203 700 203C796 203 846 180 846 141C846 89 780 56 633 43L658 -26C816 -8 934 45 934 141C934 228 854 283 700 283C573 283 466 249 365 191ZM629 91 561 63C589 23 617 -44 631 -99L704 -71C688 -15 659 46 629 91ZM516 665 477 604C592 566 697 518 794 460L837 524C740 581 632 628 516 665ZM149 803 94 751C148 704 208 646 238 605L295 662C263 702 203 759 149 803ZM135 45 203 30 311 491 254 525 229 512H46V434H215ZM317 149 51 24 90 -49 356 84Z" transform="translate(0, 880) scale(1,-1)" /></svg>