<svg xmlns="http://www.w3.org/2000/svg" width="1000" height="1000"><path d="M394 455 37 325 61 252 417 391ZM210 -72C255 -72 290 -51 290 17V737H217V37C217 13 206 0 192 0C162 0 132 4 92 18V-60C132 -69 170 -72 210 -72ZM65 741 80 670C177 680 319 708 414 748L391 816C304 778 167 752 65 741ZM535 66V519H461V66C461 -50 497 -75 612 -75H817C906 -75 932 -17 947 154L869 164C859 28 847 3 793 3H625C549 3 535 14 535 66ZM793 341C859 341 896 434 908 751L848 772L830 760H453V683H827C817 475 799 420 772 420C720 420 677 427 631 440V356C678 347 730 341 793 341Z" transform="translate(0, 880) scale(1,-1)" /></svg>