<svg xmlns="http://www.w3.org/2000/svg" width="1000" height="1000"><path d="M95 692V612H487V692ZM253 822V439H333V822ZM65 470V390H517V470ZM40 50 110 23C138 96 163 199 174 303L101 316C92 216 66 112 40 50ZM366 20C387 20 411 35 441 75L404 142C390 118 379 110 369 110C361 110 358 137 347 310L278 301C290 75 314 20 366 20ZM472 26 548 49C532 124 501 236 474 316L402 287C431 203 457 99 472 26ZM191 -79C235 -79 255 -48 256 7L262 418H187V6C187 -2 182 -7 174 -7C161 -7 146 -6 124 1V-74C146 -78 166 -79 191 -79ZM517 717 555 657C620 706 691 728 750 728C822 728 850 673 850 570C850 401 776 377 639 425V343C792 307 929 323 929 570C929 720 888 810 750 810C653 810 571 772 517 717ZM513 -24 576 -73C745 75 767 315 767 575H687C687 318 676 116 513 -24ZM876 -73 947 -35C904 58 855 154 813 236L746 198C789 119 837 19 876 -73Z" transform="translate(0, 880) scale(1,-1)" /></svg>