<svg xmlns="http://www.w3.org/2000/svg" width="1000" height="1000"><path d="M345 710 277 729C223 479 131 252 40 82L103 37C193 212 290 462 345 710ZM316 18C285 18 263 31 263 61C263 107 314 213 421 328L366 372C249 259 189 133 189 61C189 -15 239 -60 316 -60C421 -60 474 19 474 191C474 363 411 432 325 432C265 432 220 413 188 374L208 301C244 335 286 353 325 353C374 353 397 295 397 191C397 53 356 18 316 18ZM58 695H509V771H58ZM720 -59C801 -59 873 -15 873 384C873 647 824 706 702 706C628 706 527 675 469 643L500 575C551 602 636 626 702 626C768 626 792 570 792 384C792 52 746 19 704 19C663 19 630 25 587 40V-45C628 -56 667 -59 720 -59ZM572 198H938V275H572ZM572 408H938V485H572Z" transform="translate(0, 880) scale(1,-1)" /></svg>