<svg xmlns="http://www.w3.org/2000/svg" width="1000" height="1000"><path d="M77 268H935V341H77ZM563 325H653C722 350 774 386 774 428C774 486 706 530 512 530C336 530 224 504 224 446C224 388 298 366 405 366C537 366 594 403 594 492V724H514V501C514 437 476 426 405 426C335 426 305 435 305 444C305 456 374 469 512 469C649 469 687 442 687 426C687 404 649 360 563 325ZM109 557H913V629H109ZM16 670 68 617C202 673 331 741 434 825L356 862C269 789 146 720 16 670ZM473 750C425 718 356 682 294 658L349 614C466 661 607 731 688 779L623 822L604 816H297V750ZM824 55C814 5 770 -21 701 -21C639 -21 587 -15 535 -4V-83C578 -87 628 -92 711 -92C829 -92 889 -64 909 119L849 132L835 123H712C725 158 735 183 746 223H110V152H349C315 92 257 26 55 -40L109 -96C339 -9 390 69 431 152H647C641 130 632 109 619 83L639 55Z" transform="translate(0, 880) scale(1,-1)" /></svg>