<svg xmlns="http://www.w3.org/2000/svg" width="1000" height="1000"><path d="M305 706 234 721C190 476 114 254 40 88L106 47C179 219 259 463 305 706ZM274 28C252 28 237 41 237 70C237 115 275 218 364 330L310 371C214 261 165 141 165 70C165 -4 209 -49 274 -49C364 -49 408 28 408 197C408 366 355 434 282 434C232 434 195 415 169 377L185 304C215 338 249 355 281 355C317 355 335 299 335 197C335 63 304 28 274 28ZM62 689H433V764H62ZM938 42 974 119C836 210 701 280 562 330L533 261C671 213 810 133 938 42ZM412 51 476 1C554 135 610 309 633 474L562 482C534 312 491 175 412 51ZM636 -57C697 -57 733 -21 733 52V750H660V67C660 34 652 16 627 16C597 16 570 23 537 42V-41C569 -52 604 -57 636 -57ZM439 463H937V536H439ZM471 776 488 704C623 707 784 726 894 758L867 826C755 794 611 777 471 776Z" transform="translate(0, 880) scale(1,-1)" /></svg>