<svg xmlns="http://www.w3.org/2000/svg" width="1000" height="1000"><path d="M122 777V704H878V777ZM68 657V584H932V657ZM461 833V621H539V833ZM154 538V465H846V538ZM122 220H196V299C289 339 397 361 556 361C716 361 764 349 764 320C764 271 572 263 293 280V209C604 195 845 185 845 320C845 393 783 433 556 433C381 433 265 405 196 365V402H122ZM560 -88H807C902 -88 921 -38 931 55L856 62C850 0 843 -19 797 -19H576C526 -19 516 -7 516 42V320H438V44C438 -62 462 -88 560 -88ZM568 32H830V99H728V187H653V99H568ZM236 73C265 104 295 139 327 179L262 203C199 118 125 56 55 21L119 -30C140 -13 166 4 185 12C199 18 221 19 234 16C248 13 263 1 273 -28L412 16L387 60L305 41C300 58 275 67 236 73Z" transform="translate(0, 880) scale(1,-1)" /></svg>