<svg xmlns="http://www.w3.org/2000/svg" width="1000" height="1000"><path d="M371 547 443 500C560 565 678 645 772 728L708 776L692 766H329L328 690H602C553 650 468 594 371 547ZM93 640 144 574C263 636 388 715 481 802L408 842C325 764 212 695 93 640ZM98 563V487H902V563ZM456 -79C523 -79 551 -51 551 10V498H472V21C472 4 460 -11 438 -11C399 -11 348 -1 301 13V-68C348 -74 402 -79 456 -79ZM51 26 113 -32C196 8 288 71 345 136L268 173C218 115 134 62 51 26ZM62 198H942V275H62ZM884 -36 947 18C899 62 795 127 712 172L652 121C736 74 837 7 884 -36ZM133 343H874V418H133Z" transform="translate(0, 880) scale(1,-1)" /></svg>