<svg xmlns="http://www.w3.org/2000/svg" width="1000" height="1000"><path d="M104 652 140 591C246 623 351 658 439 696L400 756C315 718 211 684 104 652ZM200 412H348C430 412 448 452 459 547L391 556C384 498 378 486 342 486H221C188 486 174 498 174 533V806H96V539C96 436 123 412 200 412ZM65 295V218H472V295ZM236 372V-70H314V372ZM643 -80C814 -80 943 -5 943 122C943 229 869 291 719 291C672 291 626 285 587 276C618 318 657 400 682 469L603 486C584 415 542 316 499 259L478 249L514 181C566 203 617 218 704 218C807 218 857 202 857 122C857 21 736 -7 643 -7C573 -7 545 3 545 23C545 41 568 57 599 57C650 57 685 35 694 -37L765 -24C751 66 696 124 600 124C523 124 470 73 470 23C470 -38 523 -80 643 -80ZM504 578 531 510C583 530 655 550 729 550C808 550 838 531 838 486C838 420 794 380 583 409V336C860 302 921 390 921 486C921 579 851 623 729 623C641 623 559 600 504 578ZM634 606 688 566C755 629 811 691 842 737L788 780L765 764H532V692H717C697 666 666 633 634 606ZM403 604 461 553C522 625 586 731 619 830L546 847C514 749 457 661 403 604Z" transform="translate(0, 880) scale(1,-1)" /></svg>