<svg xmlns="http://www.w3.org/2000/svg" width="1000" height="1000"><path d="M801 441 855 388C897 421 932 464 932 527C932 616 843 676 583 676C406 676 263 645 153 584V655H77V409H153V529C267 577 418 605 582 605C798 605 850 562 850 527C850 496 835 467 801 441ZM461 491H540V758H461ZM703 518 298 517V445H703ZM823 797 168 796V724H823ZM403 8 462 -40C556 -5 651 69 651 146C651 198 604 245 495 245C387 245 344 200 344 154C344 101 401 61 528 61C728 61 851 113 851 232C851 333 756 391 544 391C373 391 206 352 118 310L157 251C245 289 399 322 544 322C689 322 765 287 765 232C765 159 682 123 528 123C458 123 423 136 423 154C423 170 450 185 495 185C540 185 571 170 571 146C571 96 503 49 403 8ZM126 22V-50H874V22Z" transform="translate(0, 880) scale(1,-1)" /></svg>