<svg xmlns="http://www.w3.org/2000/svg" width="1000" height="1000"><path d="M804 562 865 515C907 553 923 589 923 636C923 732 861 807 619 807C399 807 209 752 70 666L113 598C239 675 427 732 619 732C780 732 843 702 843 636C843 608 831 586 804 562ZM197 554V475H803V554ZM104 -7 139 -79C488 -51 864 28 864 227C864 319 780 403 551 403C322 403 143 343 143 219C143 141 232 90 347 90C441 90 546 126 546 229V649H466V239C466 186 419 165 347 165C268 165 223 191 223 219C223 278 331 325 551 325C727 325 778 273 778 228C778 79 389 13 104 -7Z" transform="translate(0, 880) scale(1,-1)" /></svg>