<svg xmlns="http://www.w3.org/2000/svg" width="1000" height="1000"><path d="M281 -62C331 -62 360 -25 360 33V516H282V44C282 20 274 6 258 6C230 6 192 12 156 24V-51C189 -58 227 -62 281 -62ZM69 131 565 227 543 292 46 201ZM328 411 329 353C455 375 555 452 555 549C555 660 458 699 372 699C313 699 259 674 229 655C271 709 316 758 376 805L297 845C195 725 133 645 109 572C88 508 85 438 116 357L194 374C161 442 159 494 185 557C202 601 266 632 330 632C399 632 469 597 469 548C469 486 445 434 328 411ZM647 156 690 94C866 195 925 236 925 323C925 397 861 455 699 493C804 556 884 627 961 743L897 784L887 770H573V695H834C764 610 690 550 583 501L591 439C795 398 845 354 845 323C845 284 802 242 647 156ZM905 -101 955 -39C876 27 707 133 580 198L544 137C667 72 829 -33 905 -101Z" transform="translate(0, 880) scale(1,-1)" /></svg>