<svg xmlns="http://www.w3.org/2000/svg" width="1000" height="1000"><path d="M309 640 389 668C370 711 331 781 291 828L212 800C250 753 288 692 309 640ZM614 645 683 620C733 680 774 746 804 807L716 833C694 774 659 704 614 645ZM939 112 959 191C738 215 444 216 55 190V117C439 140 734 134 939 112ZM84 377 109 312 137 322H894L895 401H188C201 452 211 508 217 567H863V644H144C142 562 127 458 110 401C106 389 97 381 84 377ZM473 23C473 5 461 -9 439 -10C386 -12 323 -1 271 14V-65C323 -75 387 -81 445 -81C504 -81 552 -48 552 10V507H473Z" transform="translate(0, 880) scale(1,-1)" /></svg>