<svg xmlns="http://www.w3.org/2000/svg" width="1000" height="1000"><path d="M77 305H935V378H77ZM563 361H653C722 385 774 417 774 457C774 513 706 554 512 554C338 554 226 531 226 474C226 419 300 397 407 397C539 397 594 433 594 517V733H514V525C514 465 478 457 407 457C337 457 307 464 307 472C307 482 376 494 512 494C649 494 687 469 687 455C687 435 649 394 563 361ZM109 574H913V646H109ZM16 683 68 630C202 682 331 745 434 823L356 862C269 794 146 729 16 683ZM464 752C419 724 353 692 294 671L349 628C466 672 607 738 688 782L621 825L602 819H297V752ZM596 279C430 279 285 268 122 250L140 178C296 196 441 204 596 204C711 204 777 192 777 173C777 127 446 0 255 0C180 0 145 14 145 34C145 55 176 69 294 69C449 69 639 -23 927 -95L968 -25C690 44 479 146 294 146C155 146 57 115 57 34C57 -31 121 -74 255 -74C502 -74 870 79 870 173C870 249 771 279 596 279Z" transform="translate(0, 880) scale(1,-1)" /></svg>