<svg xmlns="http://www.w3.org/2000/svg" width="1000" height="1000"><path d="M473 -80C714 -80 904 -5 904 122C904 229 800 291 589 291C519 291 437 282 377 271C419 313 475 400 509 469L427 486C399 415 341 316 279 259L251 249L302 181C374 203 446 218 569 218C734 218 816 202 816 122C816 21 604 -7 473 -7C366 -7 316 3 316 23C316 41 356 57 411 57C492 57 548 35 562 -37L645 -24C625 66 548 124 412 124C304 124 230 73 230 23C230 -38 305 -80 473 -80ZM287 578 308 505C386 528 493 550 603 550C732 550 778 531 778 486C778 420 712 380 397 409V336C778 302 865 390 865 486C865 579 773 623 603 623C479 623 365 600 287 578ZM489 606 545 566C635 626 710 686 752 730L696 780L673 764H326V692H605C577 666 533 633 489 606ZM109 573 172 518C268 586 385 713 439 830L355 847C301 730 197 626 109 573Z" transform="translate(0, 880) scale(1,-1)" /></svg>