<svg xmlns="http://www.w3.org/2000/svg" width="1000" height="1000"><path d="M230 589 297 622C281 668 239 734 201 783L136 754C171 707 209 636 230 589ZM475 613 548 637C536 689 503 757 469 813L400 790C431 735 462 664 475 613ZM676 612 741 593C781 644 823 713 854 772L778 801C754 742 713 667 676 612ZM635 -70C825 -70 926 22 926 187C926 353 789 401 571 401C536 401 502 400 475 396C575 433 681 481 788 534L720 579L691 572H147V493H551C467 452 369 412 279 378C258 370 167 352 105 333L153 261C270 299 400 323 551 323C719 323 839 287 839 184C839 84 773 5 628 5C566 5 508 12 447 27V-55C506 -66 564 -70 635 -70ZM134 111 197 79C254 122 292 173 326 223L252 249C223 202 185 154 134 111ZM420 48H495V282H420ZM700 83 764 123C733 164 688 211 640 254L575 217C627 171 667 125 700 83Z" transform="translate(0, 880) scale(1,-1)" /></svg>