<svg xmlns="http://www.w3.org/2000/svg" width="1000" height="1000"><path d="M445 358 480 295C735 377 896 465 896 596C896 682 848 719 734 719C493 719 76 547 76 405C76 329 140 307 225 307C329 307 440 372 440 493C440 600 377 660 198 648V718H543V788H198V834H126V642L109 630L121 569C161 576 198 582 246 582C312 582 364 554 364 493C364 413 265 376 225 376C183 376 156 383 156 405C156 491 531 651 734 651C792 651 815 636 815 596C815 513 676 431 445 358ZM889 286 934 351C831 427 698 502 561 569L522 513C662 440 792 360 889 286ZM301 308V-9H383V308ZM156 64 229 87C216 139 183 212 153 268L82 249C110 195 141 116 156 64ZM531 65 610 83C600 140 574 216 547 279L471 262C496 200 521 121 531 65ZM704 71 779 45C820 106 865 195 895 266L814 284C788 216 744 132 704 71ZM97 30V-49H903V30Z" transform="translate(0, 880) scale(1,-1)" /></svg>