<svg xmlns="http://www.w3.org/2000/svg" width="1000" height="1000"><path d="M316 706 246 722C199 477 119 255 40 89L105 47C183 219 268 463 316 706ZM285 28C261 28 244 41 244 70C244 115 286 218 380 330L325 372C223 262 172 141 172 70C172 -4 217 -49 285 -49C380 -49 426 28 426 197C426 366 370 434 293 434C241 434 201 415 174 377L191 304C223 338 259 355 293 355C333 355 352 299 352 197C352 63 318 28 285 28ZM61 689H454V764H61ZM655 -71C748 -71 795 15 795 168C795 294 729 434 650 511L598 458C673 379 720 267 720 168C720 60 698 1 647 1C612 1 581 8 549 21V-59C578 -67 607 -71 655 -71ZM431 98 487 50C540 114 587 197 622 283L554 319C525 241 479 161 431 98ZM519 419 581 369C688 499 732 629 770 821L694 837C662 646 619 533 519 419ZM889 50 960 85C940 184 908 290 873 371L806 340C840 257 871 148 889 50ZM459 589H934V666H459Z" transform="translate(0, 880) scale(1,-1)" /></svg>