<svg xmlns="http://www.w3.org/2000/svg" width="1000" height="1000"><path d="M946 235 974 309C743 375 515 426 282 462L266 393C498 359 730 301 946 235ZM61 262 126 213C256 310 351 436 389 555L312 574C266 451 193 352 61 262ZM445 178C518 178 556 213 556 282V761H477V297C477 265 467 248 432 248C388 248 350 255 305 273V193C349 182 399 178 445 178ZM82 541H918V613H82ZM136 788 163 717C390 719 661 734 846 758L799 826C612 802 370 789 136 788ZM50 -20 104 -79C213 -26 337 44 412 119L333 160C276 97 161 24 50 -20ZM880 -81 945 -26C877 30 756 105 656 163L598 111C696 51 815 -24 880 -81Z" transform="translate(0, 880) scale(1,-1)" /></svg>