<svg xmlns="http://www.w3.org/2000/svg" width="1000" height="1000"><path d="M97 250H915V326H97ZM563 309H653C722 335 775 373 775 415C775 474 707 520 512 520C335 520 223 492 223 433C223 375 297 352 404 352C536 352 594 390 594 481V720H514V490C514 424 475 413 404 413C334 413 304 422 304 432C304 444 373 458 512 458C650 458 688 430 688 413C688 391 649 345 563 309ZM109 547H913V622H109ZM16 664 68 611C202 669 331 739 434 825L356 862C269 787 146 716 16 664ZM477 748C428 715 358 677 294 652L348 607C465 656 607 728 689 778L624 821L605 815H297V748ZM70 168V94H930V168ZM461 283V-83H539V283Z" transform="translate(0, 880) scale(1,-1)" /></svg>