<svg xmlns="http://www.w3.org/2000/svg" width="1000" height="1000"><path d="M801 444 856 392C898 425 932 467 932 529C932 616 843 675 583 675C406 675 263 644 153 585V653H77V412H153V530C267 576 418 604 582 604C798 604 850 562 850 529C850 498 835 470 801 444ZM461 493H540V755H461ZM703 520 298 519V449H703ZM823 792 168 791V721H823ZM124 13 158 -54 193 -45 789 -13 775 52 292 28C378 75 464 127 557 188L464 206C376 140 281 80 198 35C174 22 150 17 124 13ZM819 -81 879 -36C835 19 768 85 687 146L635 102C715 39 774 -28 819 -81ZM74 164H934V232H74ZM146 322H863V388H146Z" transform="translate(0, 880) scale(1,-1)" /></svg>