<svg xmlns="http://www.w3.org/2000/svg" width="1000" height="1000"><path d="M151 -69H222V671H324V739H42V671H151ZM270 103 299 21C328 42 354 70 388 106C399 118 421 121 431 117C444 112 452 91 465 21L583 129L563 171L489 123C484 152 474 177 445 187C481 244 515 310 545 375L502 413C438 275 352 150 270 103ZM593 -72C684 -72 723 17 723 145C723 280 660 439 561 547L513 499C612 386 651 258 651 149C651 62 632 -4 584 -4C556 -4 530 -1 502 10V-65C531 -70 561 -72 593 -72ZM299 392 327 314C425 383 510 457 593 552H520C456 490 391 443 299 392ZM900 -14 956 52C864 133 705 235 587 296L554 234C661 178 814 73 900 -14ZM653 332 671 267C757 317 817 352 888 421L844 479C780 415 737 382 653 332ZM296 552H926V624H296ZM465 641 530 671C519 711 489 777 461 825L397 798C420 754 443 702 465 641ZM688 663 747 637C781 691 812 748 833 803L756 830C741 782 711 710 688 663Z" transform="translate(0, 880) scale(1,-1)" /></svg>