<svg xmlns="http://www.w3.org/2000/svg" width="1000" height="1000"><path d="M87 746V674H923V746ZM341 569 422 590C398 658 346 767 300 841L223 819C269 747 318 639 341 569ZM584 590 656 568C698 632 754 734 795 819L715 841C683 760 627 657 584 590ZM913 604H131V322C131 216 123 76 34 -28L104 -75C197 39 209 208 209 322V535H913ZM327 376 391 406C376 437 339 480 305 512L243 484C274 452 309 406 327 376ZM543 392 610 415C600 449 570 493 540 531L475 509C503 472 531 425 543 392ZM716 399 778 383C813 416 850 457 878 496L808 524C787 485 750 436 716 399ZM943 -59 974 15C781 64 591 103 396 130L375 62C568 36 763 -8 943 -59ZM201 -28 271 -74C380 0 459 94 491 185L411 208C373 115 312 40 201 -28ZM523 -97C591 -97 628 -63 628 5V345H551V20C551 -12 542 -29 511 -29C473 -29 440 -21 400 -4V-82C438 -93 483 -97 523 -97ZM227 167H926V239H227ZM272 372 295 302C485 304 711 315 866 334L827 402C670 383 468 373 272 372Z" transform="translate(0, 880) scale(1,-1)" /></svg>