<svg xmlns="http://www.w3.org/2000/svg" width="1000" height="1000"><path d="M268 607 338 655C311 698 255 759 202 805L136 760C187 715 242 651 268 607ZM460 581H540V841H460ZM70 443 125 378C377 459 707 614 862 766L794 815C642 664 325 520 70 443ZM77 -61H935V17H77ZM563 1H653C722 31 775 73 775 121C775 187 707 238 512 238C335 238 223 207 223 142C223 75 297 50 404 50C536 50 594 92 594 195V397H514V205C514 132 475 118 404 118C334 118 304 129 304 139C304 152 373 169 512 169C650 169 688 137 688 118C688 93 649 43 563 1ZM109 273H913V349H109ZM623 482C578 450 520 421 454 389L517 341C617 387 739 458 809 506L744 553L725 546H363V482Z" transform="translate(0, 880) scale(1,-1)" /></svg>