<svg xmlns="http://www.w3.org/2000/svg" width="1000" height="1000"><path d="M130 632 150 564C194 594 230 609 282 609C340 609 361 549 361 479C361 398 323 347 250 335V254C381 268 435 356 435 479C435 610 391 688 284 688C216 688 169 665 130 632ZM213 75H285V473H213ZM53 32 82 -40 427 120 398 192ZM30 336 98 297C145 438 181 619 200 802L129 811C110 630 72 451 30 336ZM595 503 643 445C752 524 858 629 918 728L862 772L847 766H492V690H798C758 632 690 569 595 503ZM664 -73C743 -73 778 -11 778 197C778 315 754 415 710 519L643 490C682 388 700 294 700 197C700 59 684 2 655 2C634 2 590 9 543 29V-56C577 -67 616 -73 664 -73ZM441 121 510 87C549 180 587 326 610 449L538 463C518 348 481 212 441 121ZM891 79 963 103C943 204 901 353 855 473L787 442C831 321 871 177 891 79Z" transform="translate(0, 880) scale(1,-1)" /></svg>