<svg xmlns="http://www.w3.org/2000/svg" width="1000" height="1000"><path d="M217 600 284 633C267 679 222 743 182 790L117 760C154 714 195 645 217 600ZM480 623 554 648C541 699 506 764 470 820L400 796C433 741 466 673 480 623ZM696 623 762 604C804 654 849 721 882 778L805 808C780 750 736 677 696 623ZM465 370 528 334C639 387 767 467 829 526L771 576L754 572H162V498H677C633 462 555 412 465 370ZM232 53V210H153V42C153 -47 201 -65 353 -65H754C886 -65 925 -19 947 120L860 133C848 31 831 6 756 6H353C252 6 232 13 232 53ZM705 137C795 137 841 204 858 380L796 392L776 385H140V312H770C760 234 724 208 677 208C577 208 508 213 430 220V147C512 140 595 137 705 137Z" transform="translate(0, 880) scale(1,-1)" /></svg>