<svg xmlns="http://www.w3.org/2000/svg" width="1000" height="1000"><path d="M946 369 974 443C743 493 515 531 282 559L266 491C498 464 730 420 946 369ZM59 404 128 357C258 431 353 526 391 617L310 641C264 547 191 472 59 404ZM445 334C518 334 556 368 556 436V778H477V451C477 419 467 402 432 402C388 402 350 410 305 427V349C349 338 399 334 445 334ZM82 599H918V671H82ZM136 805 163 735C390 737 661 748 846 768L799 836C612 816 370 806 136 805ZM435 -94C508 -94 549 -60 549 10V382H464V24C464 -8 457 -25 422 -25C378 -25 340 -18 295 0V-80C339 -90 389 -94 435 -94ZM48 -12 121 -57C251 11 346 98 384 180L299 203C253 118 180 50 48 -12ZM936 -47 964 27C733 73 505 108 272 133L256 63C488 39 720 -1 936 -47ZM286 213 351 257C329 287 272 334 219 368L158 325C210 289 265 242 286 213ZM82 164H918V237H82ZM652 256 707 215C749 244 802 289 843 329L775 371C746 336 694 286 652 256Z" transform="translate(0, 880) scale(1,-1)" /></svg>