<svg xmlns="http://www.w3.org/2000/svg" width="1000" height="1000"><path d="M448 595C477 649 503 709 527 776L463 809L450 798H86V721H421C403 669 384 628 360 585C398 540 413 496 413 468C415 437 404 418 376 418C340 418 306 427 270 450L251 370C295 350 338 342 389 342C459 342 492 394 492 463C492 520 478 558 448 595ZM87 -9 122 -74 448 84 421 155 190 46V595H114V45C114 10 99 -3 87 -9ZM615 166 662 104C857 205 921 246 921 333C921 407 850 465 670 503C788 566 877 636 961 753L895 794L883 780H584V705H824C746 620 664 560 545 511L553 449C780 408 838 364 838 333C838 294 788 252 615 166ZM903 -91 954 -29C867 37 681 143 541 208L506 146C641 81 819 -23 903 -91Z" transform="translate(0, 880) scale(1,-1)" /></svg>