<svg xmlns="http://www.w3.org/2000/svg" width="1000" height="1000"><path d="M42 399 112 353C176 434 265 597 304 693L225 717C186 609 102 465 42 399ZM61 -68H450V6H61ZM145 3H269C339 53 375 155 375 235C375 315 331 377 256 377C192 377 135 328 135 256C135 176 193 135 254 135C267 135 279 137 288 142C261 67 226 41 145 3ZM256 196C225 196 204 221 204 256C204 290 225 315 256 315C286 315 304 290 304 256C304 221 286 196 256 196ZM363 281V589H285V335ZM160 461H473V534H160ZM128 681H459V757H128ZM431 370 505 329C585 422 697 608 745 717L666 736C618 612 508 447 431 370ZM501 -69H960V6H501ZM583 3H711C785 54 824 149 824 234C824 318 777 383 697 383C628 383 568 332 568 255C568 171 629 129 695 129C711 129 724 132 736 138C707 69 669 42 583 3ZM697 191C663 191 639 218 639 255C639 292 663 319 697 319C731 319 752 292 752 255C752 218 731 191 697 191ZM811 281V609H732V338ZM573 450H940V525H573ZM509 700H936V778H509ZM32 605 103 570C141 627 195 742 217 809L143 830C120 754 68 652 32 605Z" transform="translate(0, 880) scale(1,-1)" /></svg>