<svg xmlns="http://www.w3.org/2000/svg" width="1000" height="1000"><path d="M137 638 156 570C194 596 226 609 272 609C326 609 344 549 344 479C344 398 313 347 246 335V254C371 265 418 356 418 479C418 610 377 688 273 688C214 688 172 668 137 638ZM209 75H280V473H209ZM60 31 89 -39 412 121 382 191ZM40 336 108 297C152 438 186 619 203 802L132 811C114 630 79 451 40 336ZM629 -72C693 -72 732 -38 732 27V625H660V45C660 13 650 -3 622 -3C600 -3 565 3 536 14V-61C562 -68 596 -72 629 -72ZM434 179H936V252H434ZM475 388H896V461H475ZM559 673 628 696C618 736 598 796 580 838L513 818C530 777 550 713 559 673ZM456 595H920V668H456ZM752 675 816 659C833 706 855 775 868 824L795 842C786 794 768 725 752 675Z" transform="translate(0, 880) scale(1,-1)" /></svg>