<svg xmlns="http://www.w3.org/2000/svg" width="1000" height="1000"><path d="M98 90H175V745H98ZM244 186H321V745H244ZM600 -80C792 -80 939 -5 939 122C939 229 856 291 688 291C634 291 578 284 533 274C567 316 611 400 638 469L559 486C537 415 490 316 441 259L419 249L459 181C517 203 574 218 672 218C792 218 852 202 852 122C852 21 704 -7 600 -7C520 -7 485 3 485 23C485 41 513 57 551 57C611 57 652 35 662 -37L737 -24C721 66 660 124 552 124C466 124 407 73 407 23C407 -38 466 -80 600 -80ZM448 578 473 508C533 529 615 550 699 550C793 550 828 531 828 486C828 420 777 380 535 409V336C843 302 911 390 911 486C911 579 836 623 699 623C601 623 509 600 448 578ZM599 606 653 566C727 628 788 689 823 735L768 780L745 764H479V692H691C669 666 634 633 599 606ZM331 598 393 549C462 621 536 729 573 830L497 847C460 746 394 655 331 598Z" transform="translate(0, 880) scale(1,-1)" /></svg>