<svg xmlns="http://www.w3.org/2000/svg" width="1000" height="1000"><path d="M97 712V631H903V712ZM328 510 409 536C386 616 338 743 295 831L219 804C261 718 307 591 328 510ZM579 534 651 509C690 583 742 704 780 804L700 831C671 736 619 613 579 534ZM199 551V473H801V551ZM157 348 183 286C286 330 406 356 579 356C753 356 807 331 807 292C807 222 598 212 303 236V161C642 141 886 145 886 292C886 372 822 431 579 431C379 431 243 397 157 348ZM85 -18 129 -83C500 -5 548 121 547 290H467C467 132 443 55 85 -18ZM860 -89 917 -28C812 27 695 81 595 121L547 61C651 18 768 -37 860 -89ZM200 149V406H122V149Z" transform="translate(0, 880) scale(1,-1)" /></svg>