<svg xmlns="http://www.w3.org/2000/svg" width="1000" height="1000"><path d="M787 296 852 237C894 282 934 341 934 426C934 536 843 623 583 623C406 623 265 580 155 498V598H75V265H155V437C269 501 418 539 582 539C796 539 848 472 848 426C848 378 830 336 787 296ZM461 377H540V739H461ZM703 406 298 405V323H703ZM823 783 168 782V700H823ZM57 -35 126 -72C188 -3 240 95 262 193L187 216C168 122 113 23 57 -35ZM524 -65C565 -65 603 -46 661 9L607 74C577 35 558 23 534 23C510 23 497 56 464 216L387 197C434 -17 478 -65 524 -65ZM873 -67 951 -34C916 37 850 143 792 219L723 180C785 101 841 2 873 -67Z" transform="translate(0, 880) scale(1,-1)" /></svg>