<svg xmlns="http://www.w3.org/2000/svg" width="1000" height="1000"><path d="M87 708V627H923V708ZM341 494 422 520C398 608 346 746 300 841L223 813C269 721 318 583 341 494ZM584 520 656 493C698 574 754 704 795 813L715 841C683 738 627 605 584 520ZM913 526H131V322C131 216 123 76 34 -28L104 -75C197 39 209 208 209 322V450H913ZM197 -45 261 -79C312 -22 355 58 373 138L304 161C289 84 243 3 197 -45ZM587 -73C621 -73 659 -54 706 -9L655 46C630 14 615 4 595 4C576 4 565 31 538 159L469 141C507 -34 542 -73 587 -73ZM873 -75 944 -45C915 13 861 100 813 163L750 127C800 63 846 -19 873 -75ZM339 196 406 228C391 276 354 344 321 395L256 367C287 318 321 245 339 196ZM553 221 624 244C614 298 585 367 555 426L486 404C514 347 541 274 553 221ZM727 217 792 200C827 253 864 325 891 386L817 413C796 352 760 275 727 217Z" transform="translate(0, 880) scale(1,-1)" /></svg>