<svg xmlns="http://www.w3.org/2000/svg" width="1000" height="1000"><path d="M190 143 251 86C478 217 661 446 830 667L760 700C589 479 420 265 190 143ZM679 49H756C830 49 855 81 865 185L789 193C786 131 780 117 747 117H687C652 117 646 121 646 146V319H567V144C567 70 585 49 679 49ZM129 601 176 546C325 636 412 721 480 822L394 839C346 765 258 672 129 601ZM931 176 969 238C917 275 850 309 783 337L749 283C821 251 878 217 931 176ZM376 428V356C786 309 886 381 886 484C886 567 793 605 667 605C619 605 559 600 514 592C583 648 640 694 704 762L649 798L633 790H385V727H555C499 663 440 613 381 578C331 553 287 536 210 497L255 433C372 505 531 538 667 538C773 538 807 515 807 484C807 423 695 379 376 428ZM928 -54 952 27C654 4 427 5 283 48C196 74 135 144 109 238L31 216C66 88 144 10 253 -21C403 -64 625 -76 928 -54Z" transform="translate(0, 880) scale(1,-1)" /></svg>