<svg xmlns="http://www.w3.org/2000/svg" width="1000" height="1000"><path d="M330 552 396 593C372 643 322 716 274 769L212 730C258 678 307 602 330 552ZM427 296H507V831H427ZM581 609 641 557C709 602 797 678 861 741L789 795C738 735 652 658 581 609ZM188 525V448H905V525ZM928 -54 952 27C654 4 427 5 283 48C196 74 135 144 109 238L31 216C66 88 144 10 253 -21C403 -64 625 -76 928 -54ZM204 223 245 146C407 246 571 303 704 303C771 303 821 276 821 233C821 173 761 142 668 127L709 59C821 84 910 140 910 233C910 332 823 377 704 377C548 377 377 319 204 223Z" transform="translate(0, 880) scale(1,-1)" /></svg>