<svg xmlns="http://www.w3.org/2000/svg" width="1000" height="1000"><path d="M38 -35 107 -77C223 117 237 331 236 501L234 729H759C761 202 763 -70 894 -70C949 -70 966 -25 973 110L918 121C916 44 910 10 894 10C827 10 832 325 835 802H160V501C160 341 147 118 38 -35ZM506 556 575 589C544 625 502 664 460 699L400 668C440 634 479 593 506 556ZM448 381 489 358C563 405 655 476 715 529L676 583L659 574H289V510H588C553 473 495 421 448 381ZM529 399C428 399 345 374 269 345L306 286C361 317 435 330 521 330C608 330 657 283 657 206C657 111 570 65 481 65C417 65 382 85 382 110C382 138 404 160 438 160C493 160 529 128 540 46L595 59C583 156 529 218 439 218C367 218 315 166 315 110C315 45 378 0 484 0C649 0 733 81 733 206C733 314 648 399 529 399Z" transform="translate(0, 880) scale(1,-1)" /></svg>