<svg xmlns="http://www.w3.org/2000/svg" width="1000" height="1000"><path d="M163 416 342 494 305 559 126 482ZM514 513V432C797 414 887 486 887 582C887 672 800 732 581 732C389 732 212 688 104 639L147 568C246 615 411 653 581 653C725 653 802 633 802 582C802 522 706 496 514 513ZM455 -74C515 -74 549 -39 549 22V829H470V36C470 17 458 1 436 1C383 1 331 11 275 33V-53C333 -68 385 -74 455 -74ZM616 66H924V135H793V392H718V135H616ZM238 219C267 265 296 319 327 380L264 405C201 275 127 178 57 123L119 77C140 101 166 129 185 141C199 150 221 151 234 148C248 144 263 125 273 81L412 147L387 197L305 170C300 195 276 210 238 219Z" transform="translate(0, 880) scale(1,-1)" /></svg>