<svg xmlns="http://www.w3.org/2000/svg" width="1000" height="1000"><path d="M185 -62C317 -62 371 111 371 254C371 435 305 573 216 690L156 645C242 532 292 397 292 254C292 147 257 16 185 16C158 16 137 39 137 98C137 208 213 313 380 462L335 520C170 379 60 235 60 98C60 -18 112 -62 185 -62ZM43 630 86 564C195 619 297 680 379 744L336 810C254 743 153 683 43 630ZM758 247C844 247 862 340 868 532L806 551L792 540H478V468H787C787 371 772 316 740 316C687 316 634 327 589 342V268C637 255 698 247 758 247ZM428 -17 454 -84 698 3 679 73 537 22V355H460V43C460 3 443 -10 428 -17ZM880 -78 939 -24C883 43 809 127 729 193L673 144C750 80 825 -9 880 -78ZM343 537 416 498C468 602 505 706 531 810L454 828C431 720 394 628 343 537ZM453 650H909V722H453Z" transform="translate(0, 880) scale(1,-1)" /></svg>