<svg xmlns="http://www.w3.org/2000/svg" width="1000" height="1000"><path d="M897 -82 938 -8C799 84 719 210 719 837H643C644 184 733 27 897 -82ZM644 132 698 65C820 129 889 230 889 328C889 405 854 470 767 470C687 470 619 443 566 400L606 336C654 375 702 393 767 393C797 393 811 368 811 328C811 252 757 186 644 132ZM70 546H829V626H70ZM877 560 947 587C933 656 908 727 880 793L816 758C841 703 863 630 877 560ZM275 607 344 573C415 619 512 704 557 757L496 806L478 799H109V723H417C386 688 337 647 275 607ZM271 524V0H346V524ZM145 118 216 148C204 230 174 344 147 431L78 408C103 324 132 200 145 118ZM469 118 543 141C533 231 510 349 485 448L414 426C437 329 460 206 469 118ZM71 34V-43H719V34Z" transform="translate(0, 880) scale(1,-1)" /></svg>