<svg xmlns="http://www.w3.org/2000/svg" width="1000" height="1000"><path d="M214 552 283 586C266 640 221 717 181 774L114 744C151 689 192 607 214 552ZM479 579 555 605C542 665 507 743 471 810L399 786C432 721 465 639 479 579ZM697 575 764 554C806 614 852 697 885 765L806 795C781 726 737 639 697 575ZM880 148 897 226C715 255 473 256 153 225V154C469 182 711 175 880 148ZM620 14V591H539V27C539 8 527 -7 505 -7C462 -7 401 3 339 18V-66C402 -75 469 -81 525 -79C578 -77 620 -63 620 14ZM67 379H938V454H67Z" transform="translate(0, 880) scale(1,-1)" /></svg>