<svg xmlns="http://www.w3.org/2000/svg" width="1000" height="1000"><path d="M150 573 176 510 203 519H931V593H253C265 629 274 670 280 717H900V792H208C206 719 192 637 175 594C171 584 163 577 150 573ZM535 169C535 151 523 138 502 137C450 135 389 145 338 160V84C389 74 451 68 508 68C566 68 614 100 614 157V667H535ZM896 363V437H207V363ZM928 -54 952 27C654 4 427 5 283 48C196 74 135 144 109 238L31 216C66 88 144 10 253 -21C403 -64 625 -76 928 -54ZM916 221V295H187V221Z" transform="translate(0, 880) scale(1,-1)" /></svg>