<svg xmlns="http://www.w3.org/2000/svg" width="1000" height="1000"><path d="M223 672 290 654C342 708 375 767 399 835L324 839C301 776 268 716 223 672ZM61 614 125 599C146 627 166 672 176 710L105 719C99 685 81 641 61 614ZM84 729H547V805H84ZM478 599 548 612C539 642 525 685 504 721L438 709C458 672 471 628 478 599ZM245 403C389 403 451 466 451 543C451 608 363 665 205 692L180 633C307 614 376 582 376 541C376 484 335 468 245 468C210 468 180 477 180 495C180 520 266 558 463 601L420 653C226 608 105 566 105 494C105 432 165 403 245 403ZM519 478 572 419C764 482 902 589 915 756L860 767L843 760H568V690H823C805 591 708 528 519 478ZM888 411 950 468C881 527 759 604 645 664L595 613C707 552 823 469 888 411ZM435 -89C508 -89 549 -56 549 10V430H464V27C464 -1 457 -20 422 -20C378 -20 340 -12 295 5V-75C339 -85 389 -89 435 -89ZM50 -10 116 -56C246 16 341 109 379 197L301 220C255 129 182 56 50 -10ZM934 -44 963 30C732 78 504 115 271 142L254 72C486 46 718 4 934 -44ZM82 178H918V251H82ZM140 367V295H860V367Z" transform="translate(0, 880) scale(1,-1)" /></svg>