<svg xmlns="http://www.w3.org/2000/svg" width="1000" height="1000"><path d="M76 752 85 670C230 675 395 694 511 717L495 796C386 774 221 755 76 752ZM50 584V505H530V584ZM108 418V338H491V418ZM78 244V164H521V244ZM259 717V-12H338V717ZM233 -8 261 -81 531 29 504 102ZM642 137 685 72C865 178 924 221 924 312C924 389 859 450 694 489C802 555 883 630 961 751L897 794L886 779H567V701H832C761 612 686 549 577 498L585 433C792 390 844 344 844 312C844 271 800 227 642 137ZM905 -91 955 -29C874 30 703 125 573 183L538 115C663 59 827 -32 905 -91Z" transform="translate(0, 880) scale(1,-1)" /></svg>