<svg xmlns="http://www.w3.org/2000/svg" width="1000" height="1000"><path d="M169 232 212 163C244 182 274 207 312 239C327 251 349 252 362 249C376 244 386 227 400 176L526 259L503 303L428 267C423 288 411 304 386 312C419 358 448 407 476 462L419 493C349 373 258 280 169 232ZM546 67C654 67 698 166 697 284C697 396 632 539 535 651L475 599C550 523 618 383 618 283C617 214 601 140 542 140C507 140 472 147 435 161V79C467 70 504 67 546 67ZM909 142 962 204C855 273 709 342 531 415L504 349C671 282 808 216 909 142ZM607 440 637 380C734 414 804 440 887 491L837 549C764 502 703 473 607 440ZM230 776V698H900V776ZM611 731 533 756C486 621 374 567 202 501L240 432C425 509 558 576 611 731ZM928 -54 952 27C654 4 427 5 283 48C196 74 135 144 109 238L31 216C66 88 144 10 253 -21C403 -64 625 -76 928 -54Z" transform="translate(0, 880) scale(1,-1)" /></svg>