<svg xmlns="http://www.w3.org/2000/svg" width="1000" height="1000"><path d="M798 465 860 421C902 451 931 490 931 548C931 632 843 685 583 685C406 685 262 656 152 602V663H78V439H152V545C266 589 418 614 582 614C799 614 851 579 851 548C851 517 835 490 798 465ZM461 515H540V758H461ZM703 542 298 541V470H703ZM823 796 168 795V724H823ZM221 -82C389 -82 474 5 474 105C474 182 405 254 230 286L200 221C344 195 394 154 394 105C394 35 330 -10 221 -10C175 -10 152 2 152 26C152 70 267 120 495 187L442 245C222 178 66 113 66 26C66 -45 126 -82 221 -82ZM232 270 298 235C378 279 455 329 502 369L448 419L430 410H112V340H343C315 316 279 293 232 270ZM662 44 714 -6C835 48 924 105 923 205C922 290 815 321 657 295C712 339 760 384 805 433L729 465C680 403 620 339 546 278C540 274 520 268 496 262L532 199C716 248 836 244 837 196C838 142 784 98 662 44ZM814 -103 870 -46C793 14 690 72 581 126L533 64C644 16 742 -47 814 -103Z" transform="translate(0, 880) scale(1,-1)" /></svg>