<svg xmlns="http://www.w3.org/2000/svg" width="1000" height="1000"><path d="M541 16H644C712 51 762 87 762 146C762 212 677 260 538 260C380 260 292 227 292 160C292 103 351 56 464 56C537 56 579 98 579 137V316H496V156C496 130 475 118 445 118C421 118 376 136 376 160C376 184 415 200 538 200C628 200 676 171 676 144C676 109 655 72 541 16ZM57 -54H939V16H57ZM96 208 161 167C236 264 286 346 354 479L284 504C218 374 165 291 96 208ZM55 553 115 512C201 615 249 713 293 826L220 848C183 738 135 649 55 553ZM251 316H852V378H251ZM370 531 438 553C425 588 400 636 373 675L306 656C332 620 356 575 370 531ZM171 465H906V535H171ZM207 688H913V755H208ZM621 548 684 529C744 620 718 578 766 659L685 679C672 637 649 586 621 548Z" transform="translate(0, 880) scale(1,-1)" /></svg>