<svg xmlns="http://www.w3.org/2000/svg" width="1000" height="1000"><path d="M805 565 867 519C908 557 923 591 923 638C923 733 860 807 619 807C400 807 208 754 70 671L112 602C238 676 427 733 619 733C779 733 843 702 843 638C843 610 832 588 805 565ZM104 -64H911V10H104ZM556 -3H641C704 28 754 78 754 126C754 191 692 248 513 248C349 248 246 209 246 146C246 84 314 57 412 57C533 57 588 100 588 206V497H509V216C509 139 473 121 412 121C352 121 326 133 326 146C326 163 386 183 513 183C636 183 669 145 669 123C669 96 632 40 556 -3ZM151 296H873V368H151ZM85 451 138 397C258 468 374 553 467 658L391 692C312 600 202 513 85 451ZM522 568C471 523 400 471 334 437L388 389C494 448 622 536 696 596L635 640L618 633H340V568Z" transform="translate(0, 880) scale(1,-1)" /></svg>