<svg xmlns="http://www.w3.org/2000/svg" width="1000" height="1000"><path d="M142 620 161 552C197 576 229 588 274 588C327 588 345 531 345 464C345 385 315 336 249 324V244C373 254 419 343 419 464C419 591 378 667 275 667C218 667 176 648 142 620ZM212 72H282V457H212ZM65 31 93 -39 413 115 384 186ZM45 324 113 287C156 423 190 598 207 775L136 784C119 609 83 435 45 324ZM660 -85C715 -84 736 -42 736 19V820H658V19C658 -3 651 -11 638 -11C609 -11 579 -2 548 11V-73C585 -82 624 -86 660 -85ZM441 189H934V265H441ZM544 537 617 568C604 628 570 722 538 791L469 761C499 690 532 596 544 537ZM459 421H916V495H459ZM765 566 832 540C857 599 888 691 913 769L838 797C821 726 791 626 765 566Z" transform="translate(0, 880) scale(1,-1)" /></svg>