<svg xmlns="http://www.w3.org/2000/svg" width="1000" height="1000"><path d="M812 483 890 457C912 503 922 531 922 559C922 637 818 677 587 677C417 677 264 650 165 613V663H83V474H165V550C277 582 433 604 587 604C782 604 837 583 837 554C837 536 830 518 812 483ZM77 -64H935V14H77ZM563 -4H653C722 26 777 74 777 121C777 184 709 242 512 242C331 242 219 203 219 141C219 76 293 47 400 47C532 47 594 93 594 198V438H514V208C514 130 471 117 400 117C330 117 300 127 300 140C300 155 369 172 512 172C652 172 690 139 690 117C690 91 649 38 563 -4ZM109 283H913V360H109ZM276 514 335 466C425 541 512 629 583 750L511 782C447 673 365 581 276 514ZM406 413 451 366C544 412 637 465 699 505L638 545L619 540H337V478H511C481 458 445 435 406 413ZM168 818V738H832V818Z" transform="translate(0, 880) scale(1,-1)" /></svg>