<svg xmlns="http://www.w3.org/2000/svg" width="1000" height="1000"><path d="M943 791H131V470C131 325 122 121 31 -14L108 -60C198 92 209 317 209 470V714H943ZM279 639V-27H356V639ZM602 -80C796 -80 946 -19 946 99C946 192 862 238 691 238C636 238 578 232 532 224C564 259 607 328 634 385L555 399C533 340 487 259 440 212L418 203L451 135C512 153 572 167 675 167C798 167 859 156 859 99C859 15 707 -8 602 -8C519 -8 483 -1 483 13C483 26 512 37 552 37C613 37 655 22 665 -33L741 -22C725 53 662 100 552 100C465 100 405 58 405 13C405 -42 466 -80 602 -80ZM447 477 472 412C533 429 616 445 703 445C799 445 834 431 834 399C834 344 783 316 536 340V270C848 242 918 305 918 399C918 483 841 518 703 518C602 518 510 497 447 477ZM591 498 655 464C730 516 793 566 828 604L773 646L750 633H478V562H673C653 542 623 518 591 498ZM299 470 356 415C434 471 528 576 572 673L497 696C454 600 370 514 299 470Z" transform="translate(0, 880) scale(1,-1)" /></svg>