<svg xmlns="http://www.w3.org/2000/svg" width="1000" height="1000"><path d="M794 546 851 489C898 528 923 570 923 625C923 727 863 807 620 807C394 807 212 741 70 632L120 567C248 664 423 729 620 729C782 729 842 695 842 625C842 592 825 569 794 546ZM461 -79C524 -79 551 -49 551 16V605H472V28C472 9 465 -4 444 -4C408 -4 360 5 316 20V-65C360 -74 410 -79 461 -79ZM81 72 141 15C219 74 306 166 359 262L284 287C237 203 159 122 81 72ZM92 356H918V434H92ZM861 9 923 59C878 123 780 220 702 285L644 239C722 172 818 73 861 9Z" transform="translate(0, 880) scale(1,-1)" /></svg>