<svg xmlns="http://www.w3.org/2000/svg" width="1000" height="1000"><path d="M196 676H937V754H196ZM808 433 856 373C895 395 922 435 922 482C922 572 859 619 664 619C509 619 364 597 222 564L240 485C382 524 527 541 664 541C827 541 841 516 841 482C841 462 829 444 808 433ZM928 -54 952 27C654 4 427 5 283 48C196 74 135 144 109 238L31 216C66 88 144 10 253 -21C403 -64 625 -76 928 -54ZM604 339V839H526V339C526 209 469 163 377 163C324 163 301 180 301 217C301 267 403 318 577 318C748 318 799 284 799 235C799 178 736 112 624 90L675 29C806 62 886 160 886 235C886 334 797 396 577 396C358 396 212 323 212 217C212 149 268 86 380 86C518 86 604 176 604 339Z" transform="translate(0, 880) scale(1,-1)" /></svg>