<svg xmlns="http://www.w3.org/2000/svg" width="1000" height="1000"><path d="M256 505 325 455C398 540 470 637 530 758L457 792C403 684 334 580 256 505ZM237 55V815H161V65C161 33 148 18 138 11L164 -62L516 85L492 154ZM56 344H568V419H56ZM633 253 679 203C873 303 931 353 931 430C931 520 816 562 557 578L549 505C781 490 843 452 843 426C843 390 815 342 633 253ZM569 -32 632 -84C772 -6 893 91 949 157L902 230L875 223C786 247 684 266 551 275L542 199C671 191 762 176 832 159C790 107 699 34 569 -32ZM585 554 636 524C732 595 815 688 885 794L804 828C744 722 669 626 585 554Z" transform="translate(0, 880) scale(1,-1)" /></svg>