<svg xmlns="http://www.w3.org/2000/svg" width="1000" height="1000"><path d="M476 729H126V457C126 315 118 116 35 -25L101 -59C189 91 202 307 202 457V656H933V729H557L513 843L441 826ZM201 129 240 60C400 138 601 246 737 330L703 390C567 308 369 203 201 129ZM401 -78H473V621H401ZM904 40 944 116C855 164 758 203 653 236L625 181C726 146 820 101 904 40ZM240 414H921V481H240ZM662 -95C711 -95 740 -64 740 -10V621H668V-4C668 -18 661 -29 647 -29C614 -29 582 -23 546 -8V-80C583 -91 617 -95 662 -95Z" transform="translate(0, 880) scale(1,-1)" /></svg>