<svg xmlns="http://www.w3.org/2000/svg" width="1000" height="1000"><path d="M370 582 443 533C559 590 675 663 769 736L706 787L690 778H329L328 702H593C545 669 464 621 370 582ZM93 654 144 592C263 651 388 724 481 805L408 847C325 773 212 707 93 654ZM132 333H206V450C299 504 397 535 556 535C716 535 764 510 764 468C764 392 572 385 293 409V333C604 315 845 312 845 468C845 553 783 611 556 611C381 611 275 573 206 517V567H132ZM560 -80H795C890 -80 909 -28 919 68L844 74C838 10 831 -9 785 -9H576C526 -9 516 4 516 53V471H438V56C438 -52 462 -80 560 -80ZM577 83H851V152H745V297H670V152H577ZM236 143C265 184 295 232 327 285L262 309C199 196 125 113 55 66L119 17C140 38 166 62 185 73C199 81 221 82 234 78C248 75 263 58 273 20L412 78L387 125L305 100C300 123 275 136 236 143Z" transform="translate(0, 880) scale(1,-1)" /></svg>