<svg xmlns="http://www.w3.org/2000/svg" width="1000" height="1000"><path d="M735 477C823 477 859 580 875 790L814 809L795 798H218V723H790C780 596 753 546 709 546C610 546 542 557 466 572V498C546 485 627 477 735 477ZM928 -54 952 27C654 4 427 5 283 48C196 74 135 144 109 238L31 216C66 88 144 10 253 -21C403 -64 625 -76 928 -54ZM204 233 245 156C407 256 571 313 704 313C771 313 821 286 821 243C821 183 761 152 668 137L709 69C821 94 910 150 910 243C910 342 813 387 704 387C561 387 416 333 322 280V595H245V295C245 255 223 240 204 233Z" transform="translate(0, 880) scale(1,-1)" /></svg>