<svg xmlns="http://www.w3.org/2000/svg" width="1000" height="1000"><path d="M67 563 138 530C193 614 242 730 266 824L190 838C164 742 118 634 67 563ZM176 665H892V740H176ZM235 604V531H829V604ZM243 359 308 391C292 422 251 467 214 500L151 471C185 439 223 391 243 359ZM483 376 553 400C541 435 508 481 475 520L409 496C439 459 470 411 483 376ZM677 383 740 366C779 401 820 443 850 484L778 513C755 473 714 421 677 383ZM706 -95C874 -95 941 23 941 167C941 311 813 365 598 365C409 365 219 340 100 314L123 246C248 272 436 294 598 294C768 294 859 251 859 167C859 48 814 -30 701 -30C622 -30 556 -24 502 -11V-82C553 -91 606 -95 706 -95ZM196 171V96H803V171ZM365 -9 437 11C423 81 395 187 369 263L298 245C323 170 351 62 365 -9ZM554 8 624 -11C649 57 678 160 700 245L627 263C609 179 579 76 554 8Z" transform="translate(0, 880) scale(1,-1)" /></svg>