<svg xmlns="http://www.w3.org/2000/svg" width="1000" height="1000"><path d="M802 559 862 510C905 548 923 585 923 634C923 731 861 807 619 807C398 807 210 750 70 659L114 591C241 672 426 732 619 732C780 732 843 700 843 634C843 605 830 582 802 559ZM75 -10 116 -77C386 12 618 174 618 449V651H535V449C535 205 321 69 75 -10ZM131 241H206V545H131ZM296 272H371V530H296ZM692 -72H822C902 -72 919 -7 926 130L854 137C850 23 845 2 810 2H700C666 2 661 12 661 60V245H580V61C580 -42 605 -72 692 -72ZM730 297 793 255C851 303 874 355 874 395C874 482 808 527 691 527C551 527 448 489 345 417L356 357C462 425 561 449 691 449C768 449 794 432 794 395C794 369 774 329 730 297Z" transform="translate(0, 880) scale(1,-1)" /></svg>