<svg xmlns="http://www.w3.org/2000/svg" width="1000" height="1000"><path d="M630 307 686 265C763 312 822 365 822 429C822 531 715 554 509 537V466C676 473 735 461 735 429C735 387 696 346 630 307ZM634 518 688 490C755 540 797 580 797 623C797 713 722 752 584 752C470 752 372 729 283 692V624C373 658 472 671 588 671C692 671 710 649 710 624C710 596 689 559 634 518ZM292 501C292 635 342 725 447 806L365 841C264 758 209 635 209 511V292H292ZM70 231V154H930V231ZM460 323V-78H540V323Z" transform="translate(0, 880) scale(1,-1)" /></svg>