<svg xmlns="http://www.w3.org/2000/svg" width="1000" height="1000"><path d="M801 444 855 392C897 425 932 468 932 532C932 620 843 681 583 681C406 681 263 649 153 589V659H77V412H153V533C267 580 418 609 582 609C798 609 850 566 850 532C850 500 835 471 801 444ZM461 495H540V764H461ZM703 522 298 521V449H703ZM823 802 168 801V729H823ZM133 -59H210V242C300 289 388 315 561 315C754 315 801 257 801 168C801 48 729 4 596 4C483 4 394 11 318 22V-52C394 -60 483 -64 597 -64C800 -64 879 14 879 168C879 284 824 385 561 385C372 385 265 344 210 309V371H133ZM274 69 327 20C481 92 649 203 708 258L647 302C591 247 432 138 274 69ZM631 31 691 87C605 145 479 219 391 260L343 210C435 163 555 89 631 31Z" transform="translate(0, 880) scale(1,-1)" /></svg>