<svg xmlns="http://www.w3.org/2000/svg" width="1000" height="1000"><path d="M82 783V703H918V783ZM492 745 432 580 508 555 568 720ZM162 499 192 434C294 494 406 530 565 530C738 530 794 491 794 423C794 308 596 292 311 327V246C636 219 875 230 875 423C875 530 810 609 565 609C377 609 247 561 162 499ZM80 -10 127 -78C498 33 550 229 549 424H469C468 237 438 92 80 -10ZM863 -81 923 -21C817 53 692 129 580 189L530 129C642 68 767 -9 863 -81ZM208 227V577H129V227Z" transform="translate(0, 880) scale(1,-1)" /></svg>