<svg xmlns="http://www.w3.org/2000/svg" width="1000" height="1000"><path d="M805 564 867 518C908 556 923 591 923 638C923 733 860 807 619 807C400 807 208 754 70 669L113 601C238 676 427 733 619 733C779 733 843 702 843 638C843 610 832 588 805 564ZM518 39H611C714 100 754 160 754 242C754 345 666 403 500 403C318 403 227 345 227 262C227 178 291 126 405 126C491 126 548 175 548 234V491H469V254C469 214 443 197 402 197C350 197 307 219 307 259C307 293 358 332 500 332C627 332 674 298 674 242C674 181 645 111 518 39ZM87 -34H913V39H87ZM202 491H794V566H202Z" transform="translate(0, 880) scale(1,-1)" /></svg>