<svg xmlns="http://www.w3.org/2000/svg" width="1000" height="1000"><path d="M257 -62C305 -62 332 -25 332 33V516H258V44C258 20 250 6 235 6C209 6 174 12 140 24V-51C171 -58 206 -62 257 -62ZM67 131 514 227 494 291 46 200ZM300 411 301 353C415 375 505 452 505 549C505 660 418 699 338 699C285 699 237 675 211 655C249 709 289 758 343 805L267 845C176 725 120 645 98 572C79 508 76 438 104 357L179 374C150 442 148 494 171 557C187 601 244 632 302 632C364 632 423 597 423 548C423 486 401 434 300 411Z" transform="translate(0, 880) scale(1,-1)" /></svg>