<svg xmlns="http://www.w3.org/2000/svg" width="1000" height="1000"><path d="M638 683 670 749C553 788 450 820 357 845L317 781C411 757 518 725 638 683ZM582 470C192 470 76 355 76 280C76 211 130 174 215 174C385 174 569 421 733 635L676 680L651 669H135V596H620C505 438 314 241 215 241C172 241 154 253 154 280C154 315 215 399 579 399C709 399 795 357 795 278C795 165 688 132 570 132C510 132 488 157 488 181C488 204 510 222 542 222C574 222 598 205 598 171C598 129 558 51 473 1H76V-71H918V1H559C636 55 668 123 668 170C668 242 616 284 542 284C472 284 420 243 420 181C420 113 462 66 570 66C739 66 877 118 877 278C877 404 771 470 582 470Z" transform="translate(0, 880) scale(1,-1)" /></svg>