<svg xmlns="http://www.w3.org/2000/svg" width="1000" height="1000"><path d="M373 35H475C575 101 673 213 673 342C673 427 616 503 503 503C385 503 338 431 338 357C338 278 408 219 546 219C758 219 882 332 882 538C882 689 770 801 555 801C352 801 193 738 100 678L138 608C232 664 399 716 555 716C701 716 791 644 791 538C791 394 712 292 546 292C462 292 426 316 426 357C426 393 449 427 503 427C553 427 584 396 584 342C584 222 479 109 373 35ZM78 -39H922V36H78Z" transform="translate(0, 880) scale(1,-1)" /></svg>