<svg xmlns="http://www.w3.org/2000/svg" width="1000" height="1000"><path d="M464 -81C522 -81 548 -56 548 16V595H470V26C470 7 462 -8 447 -8C422 -8 383 -4 345 8V-72C382 -79 430 -82 464 -81ZM152 22 229 18C228 100 233 181 244 262L167 267C156 185 151 105 152 22ZM55 114H947V186H55ZM233 299H771V371H233ZM233 299H771V371H233ZM775 16 852 25C849 107 840 187 825 268L748 260C763 179 772 98 775 16ZM233 447H771V519H233ZM315 662 387 690C370 731 333 794 298 840L230 815C262 770 300 703 315 662ZM108 595H899V668H108ZM628 668 691 647C722 695 762 768 788 821L709 844C691 792 657 720 628 668Z" transform="translate(0, 880) scale(1,-1)" /></svg>