<svg xmlns="http://www.w3.org/2000/svg" width="1000" height="1000"><path d="M78 344H567V408H78ZM323 408H405C454 436 501 474 501 526C501 584 435 627 325 627C208 627 138 596 138 535C138 484 180 444 260 444C318 444 357 484 357 517V830H292V535C292 510 269 500 245 500C224 500 205 513 205 535C205 557 236 574 325 574C395 574 433 549 433 524C433 492 409 455 323 408ZM102 675H548V738H102ZM525 -24 574 -78C765 50 900 281 914 650L858 674L840 658H641V588H839C820 303 725 114 525 -24ZM262 -70C406 -70 539 6 539 145C539 255 450 300 197 293V232C407 238 467 208 467 144C467 51 355 -7 262 -7C205 -7 183 7 183 26C183 66 272 124 494 163L463 219C221 178 107 96 107 26C107 -23 151 -70 262 -70ZM96 193 159 168C209 213 269 287 304 353L235 371C202 309 148 240 96 193ZM890 -75 950 -23C880 102 754 264 638 390L589 349C704 219 823 46 890 -75ZM549 449 616 431C657 532 690 654 709 811L636 818C619 663 592 554 549 449Z" transform="translate(0, 880) scale(1,-1)" /></svg>