<svg xmlns="http://www.w3.org/2000/svg" width="1000" height="1000"><path d="M63 -13 107 -84C402 16 654 158 878 373L815 415C612 212 340 79 63 -13ZM243 291 277 228C399 250 530 262 656 260C763 258 810 228 810 167C810 65 769 -10 685 -10C624 -10 571 -4 513 10V-69C567 -77 626 -80 689 -80C832 -80 895 15 895 169C895 280 791 334 664 336C538 338 450 329 352 312C399 385 443 469 487 577L402 597C362 484 317 387 266 310C259 299 252 295 243 291ZM666 499 688 427C834 453 893 524 893 620C893 717 833 807 593 807C396 807 253 719 206 644V773H131V444H206V573C289 665 412 732 593 732C765 732 813 685 813 620C813 572 788 519 666 499Z" transform="translate(0, 880) scale(1,-1)" /></svg>