<svg xmlns="http://www.w3.org/2000/svg" width="1000" height="1000"><path d="M442 16 459 -60C743 -51 918 4 918 140C918 222 858 288 705 276L855 447L782 509C394 511 53 388 53 228C53 145 99 93 193 93C278 93 339 139 406 220C497 323 665 544 773 702L713 750L694 742H339V669H653C586 567 413 343 326 245C300 213 245 167 198 167C161 167 133 188 133 228C133 324 417 436 753 436C711 379 657 322 585 255L634 198C766 219 836 192 836 140C836 66 667 16 442 16ZM77 503 133 447C266 559 350 663 447 813L373 840C291 699 196 594 77 503Z" transform="translate(0, 880) scale(1,-1)" /></svg>