<svg xmlns="http://www.w3.org/2000/svg" width="1000" height="1000"><path d="M261 495 341 453C526 538 716 660 818 764L767 811L750 804H189V727H658C588 660 444 571 261 495ZM691 -80C858 -80 927 77 927 280C927 483 807 560 603 560C420 560 225 501 113 446L143 376C261 430 445 479 603 479C766 479 839 404 839 280C839 114 797 -6 686 -6C609 -6 548 0 498 16V-66C547 -76 601 -80 691 -80ZM246 141 302 87C459 177 631 311 691 377L627 425C569 358 402 225 246 141ZM609 111 664 174C574 239 438 326 344 373L293 318C392 266 527 179 609 111Z" transform="translate(0, 880) scale(1,-1)" /></svg>