<svg xmlns="http://www.w3.org/2000/svg" width="1000" height="1000"><path d="M304 318 377 284C474 450 533 635 568 822L488 830C455 650 399 479 304 318ZM279 521 349 563C308 629 240 712 181 771L115 732C175 671 240 585 279 521ZM65 425H935V500H65ZM614 569 669 519C722 577 798 667 861 753L790 791C740 714 669 625 614 569ZM875 -74 910 0C694 48 507 82 344 105C501 144 674 188 781 220L751 299L719 288C552 317 429 333 288 349L244 277C402 262 487 253 592 237C497 205 372 168 245 133C215 125 188 131 146 134L102 61C366 26 622 -19 875 -74Z" transform="translate(0, 880) scale(1,-1)" /></svg>