<svg xmlns="http://www.w3.org/2000/svg" width="1000" height="1000"><path d="M723 -80C771 -80 802 -62 802 5V622C802 757 755 803 630 803H471C376 803 321 792 273 773V703C328 723 379 733 466 733H624C699 733 726 701 726 618V9C726 -8 719 -15 703 -15C664 -15 625 -8 583 7V-69C626 -77 666 -80 723 -80ZM111 -40 181 -76C289 88 291 289 291 468V802H217V468C217 300 212 115 111 -40ZM607 416 658 467C583 525 498 582 399 638L355 588C452 532 536 474 607 416ZM53 342V269H949V342Z" transform="translate(0, 880) scale(1,-1)" /></svg>