<svg xmlns="http://www.w3.org/2000/svg" width="1000" height="1000"><path d="M608 1 642 -69C812 -48 950 49 950 170C950 322 723 361 500 361C278 361 54 316 54 145C54 29 158 -55 281 -55C489 -55 667 180 702 482L624 488C598 212 446 24 281 24C198 24 135 72 135 145C135 224 285 286 500 286C695 286 869 249 869 166C869 86 763 17 608 1ZM481 49 531 110C362 213 352 434 465 824L384 840C257 415 294 148 481 49ZM105 448H184V540C302 633 467 665 604 665C730 665 823 639 823 604C823 560 740 520 487 533L489 465C765 453 908 485 908 608C908 704 782 741 605 741C439 741 272 692 184 583V730H105Z" transform="translate(0, 880) scale(1,-1)" /></svg>