<svg xmlns="http://www.w3.org/2000/svg" width="1000" height="1000"><path d="M458 -82C515 -82 549 -55 549 22V734H469V22C469 1 461 -6 438 -6C395 -6 327 2 263 21V-66C323 -77 391 -82 458 -82ZM259 405 329 432C313 489 272 579 231 647L158 625C199 554 245 463 259 405ZM939 266 959 345C738 374 444 375 55 344V272C439 300 734 293 939 266ZM119 759 136 682C373 688 664 719 858 758L819 826C655 793 360 768 119 759ZM673 432 735 407C774 466 824 561 863 640L780 667C755 595 711 494 673 432Z" transform="translate(0, 880) scale(1,-1)" /></svg>