<svg xmlns="http://www.w3.org/2000/svg" width="1000" height="1000"><path d="M70 592H934V667H70ZM582 674 633 738C565 772 488 805 399 836L355 773C442 742 518 708 582 674ZM84 296 109 233 137 241H894L895 315H188C200 354 209 398 215 443H863V518H144C142 447 127 362 110 317C106 307 97 300 84 296ZM480 23C480 6 468 -8 446 -9C393 -11 330 0 278 15V-61C330 -72 394 -78 452 -78C511 -78 559 -46 559 11V395H480ZM899 72 918 149C713 170 441 171 81 148V76C436 97 709 92 899 72Z" transform="translate(0, 880) scale(1,-1)" /></svg>