<svg xmlns="http://www.w3.org/2000/svg" width="1000" height="1000"><path d="M261 495 341 453C526 538 716 660 818 764L767 811L750 804H189V727H658C588 660 444 571 261 495ZM691 -80C858 -80 927 77 927 280C927 483 807 560 603 560C420 560 225 501 113 446L143 376C261 430 445 479 603 479C766 479 839 404 839 280C839 114 797 -6 686 -6C609 -6 548 0 498 16V-66C547 -76 601 -80 691 -80ZM193 107 254 54C431 154 624 303 691 376L621 422C556 348 368 200 193 107ZM608 113 660 172C575 235 446 319 357 364L308 312C401 262 530 178 608 113Z" transform="translate(0, 880) scale(1,-1)" /></svg>