<svg xmlns="http://www.w3.org/2000/svg" width="1000" height="1000"><path d="M484 745H94V673H906V745H569L523 845L448 826ZM434 325 491 294C593 324 690 382 690 443C690 477 641 521 527 521C407 521 368 479 368 448C368 417 430 374 570 374C785 374 906 421 906 505C906 574 849 630 631 630C425 630 292 595 198 558L237 504C332 540 473 570 631 570C779 570 819 530 819 505C819 447 739 424 570 424C485 424 449 432 449 448C449 463 472 475 527 475C577 475 609 464 609 443C609 387 542 360 434 325ZM32 -35 90 -88C224 -9 227 57 227 156V243C288 258 339 264 421 264H738C786 264 813 247 813 222V-3C813 -17 803 -24 790 -24C761 -24 722 -18 674 -7V-75C717 -85 757 -88 791 -88C858 -88 887 -74 887 -13V250C887 301 843 332 742 332H419C336 332 286 324 224 307V328H153V156C153 78 143 18 32 -35ZM335 151H705V218H335ZM558 -1V310H482L484 6C484 -5 481 -10 466 -10C433 -10 397 -6 351 2V-66C396 -71 435 -74 472 -74C542 -74 558 -51 558 -1ZM335 41H705V118H335ZM44 327 113 280C198 400 271 548 328 697L260 727C204 577 131 439 44 327Z" transform="translate(0, 880) scale(1,-1)" /></svg>