<svg xmlns="http://www.w3.org/2000/svg" width="529" height="1000"><path d="M53 381H141C146 437 203 467 262 467C335 467 368 436 376 374V321H288C147 321 41 268 41 146C41 47 131 -6 226 -6C290 -6 339 20 377 69V0H464V360C464 479 386 541 266 541C164 541 53 486 53 381ZM377 143C346 93 288 63 235 63C183 63 131 97 131 151C131 223 207 252 305 252H377ZM361 597C394 597 420 623 420 656C420 689 394 715 361 715C328 715 302 689 302 656C302 623 328 597 361 597ZM171 597C204 597 230 623 230 656C230 689 204 715 171 715C138 715 112 689 112 656C112 623 138 597 171 597Z" transform="translate(0, 880) scale(1,-1)" /></svg>