<svg xmlns="http://www.w3.org/2000/svg" width="877" height="1000"><path d="M141 381Q145 421 180.0 444.0Q215 467 262 467Q316 467 343.0 444.0Q370 421 376 374V321H288Q176 321 108.5 277.5Q41 234 41 146Q41 98 67.0 64.0Q93 30 135.0 12.0Q177 -6 226 -6Q297 -6 350.5 27.0Q404 60 454 137H464V360Q464 448 411.0 494.5Q358 541 266 541Q213 541 164.0 522.5Q115 504 84.0 467.5Q53 431 53 381ZM377 143Q354 106 315.0 84.5Q276 63 235 63Q194 63 162.5 87.5Q131 112 131 151Q131 202 178.5 227.0Q226 252 305 252H377ZM753 177Q746 139 712.0 105.0Q678 71 616 71Q565 71 531.0 98.0Q497 125 481.0 168.5Q465 212 467 261H835Q836 271 836 290Q836 356 811.0 413.5Q786 471 735.0 506.5Q684 542 610 542Q535 542 482.0 503.0Q429 464 402.5 401.0Q376 338 376 266Q376 193 402.5 131.0Q429 69 483.5 31.0Q538 -7 617 -7Q694 -7 753.5 34.0Q813 75 836 152ZM477 329Q492 388 525.5 426.0Q559 464 611 464Q677 464 710.5 427.0Q744 390 748 329Z" transform="translate(0, 880) scale(1,-1)" /></svg>