<svg xmlns="http://www.w3.org/2000/svg" width="752" height="1000"><path d="M307 -15C398 -15 470 17 529 66C548 47 587 17 598 1H714C693 24 634 78 590 122C638 183 667 261 675 345H593C586 289 564 233 528 186C461 250 388 318 323 398C416 454 515 514 515 619C515 711 428 769 328 769C216 769 120 702 120 598C120 546 156 480 207 411C125 356 50 293 50 197C50 70 166 -15 307 -15ZM283 454C242 507 215 555 215 594C215 649 265 687 330 687C386 687 431 654 431 607C431 546 357 499 283 454ZM470 126C430 89 380 65 317 65C216 65 151 132 154 209C157 270 200 311 253 350C322 266 401 194 470 126Z" transform="translate(0, 880) scale(1,-1)" /></svg>