<svg xmlns="http://www.w3.org/2000/svg" width="702" height="1000"><path d="M401 607Q401 578 381.5 551.5Q362 525 333.0 503.5Q304 482 252 449Q185 407 144.0 375.0Q103 343 74.0 298.0Q45 253 45 197Q45 135 77.0 86.5Q109 38 163.5 11.5Q218 -15 284 -15Q375 -15 454.0 34.0Q533 83 581.5 165.5Q630 248 636 345H548Q540 271 502.5 206.0Q465 141 409.5 102.0Q354 63 294 63Q248 63 212.5 83.0Q177 103 158.0 136.5Q139 170 139 209Q139 247 161.0 279.0Q183 311 215.0 336.0Q247 361 302 397Q361 436 397.5 464.5Q434 493 459.0 532.0Q484 571 484 619Q484 663 459.0 696.5Q434 730 393.0 747.5Q352 765 304 765Q251 765 206.5 744.5Q162 724 135.5 686.0Q109 648 109 598Q109 542 164.5 448.0Q220 354 287 284L555 1H667L351 335Q295 395 246.0 475.0Q197 555 197 594Q197 635 228.5 661.0Q260 687 306 687Q346 687 373.5 664.5Q401 642 401 607Z" transform="translate(0, 880) scale(1,-1)" /></svg>