<svg xmlns="http://www.w3.org/2000/svg" width="422" height="1000"><path d="M50 287Q84 286 100.5 264.0Q117 242 121.5 208.5Q126 175 127 116Q129 25 141.0 -32.0Q153 -89 201.0 -129.5Q249 -170 349 -169L350 -125Q284 -125 252.0 -89.5Q220 -54 211.0 -5.0Q202 44 199 126Q197 183 193.0 216.5Q189 250 176.0 274.5Q163 299 136 304Q164 311 178.0 337.0Q192 363 196.0 397.0Q200 431 202 489Q204 568 212.5 617.5Q221 667 253.0 701.0Q285 735 350 735L349 779Q250 780 202.5 740.0Q155 700 143.0 644.0Q131 588 129 500Q128 441 123.5 408.0Q119 375 102.0 353.5Q85 332 50 332Z" transform="translate(0, 880) scale(1,-1)" /></svg>