<svg xmlns="http://www.w3.org/2000/svg" width="727" height="1000"><path d="M373 765C168 765 47 588 47 376C47 162 168 -11 373 -11C528 -11 657 88 682 242H590C568 137 479 67 373 67C223 67 139 215 139 377C139 539 223 687 373 687C482 687 575 609 592 493H684C666 658 532 765 373 765ZM285 -170 259 -223C282 -235 312 -242 348 -242C445 -242 488 -194 488 -144C488 -103 453 -56 379 -47L402 6H352L311 -68L321 -109C326 -108 336 -107 343 -107C402 -107 422 -130 422 -143C422 -162 400 -180 342 -180C317 -180 296 -177 285 -170Z" transform="translate(0, 880) scale(1,-1)" /></svg>