<svg xmlns="http://www.w3.org/2000/svg" width="540" height="1000"><path d="M278 464Q330 464 366.0 431.5Q402 399 411 340H501Q485 430 427.5 485.5Q370 541 276 541Q200 541 146.5 500.5Q93 460 67.0 396.5Q41 333 41 263Q41 192 67.5 130.5Q94 69 148.0 31.0Q202 -7 280 -7Q370 -7 428.0 44.5Q486 96 501 184H411Q405 132 369.5 101.0Q334 70 281 70Q229 70 195.0 98.0Q161 126 145.0 170.0Q129 214 129 262Q129 308 144.5 354.5Q160 401 193.5 432.5Q227 464 278 464ZM166 -223Q202 -242 255 -242Q323 -242 359.0 -213.5Q395 -185 395 -144Q395 -110 366.5 -81.5Q338 -53 286 -47L309 6H259L218 -68L228 -109Q238 -107 250 -107Q290 -107 309.5 -118.5Q329 -130 329 -143Q329 -159 309.5 -169.5Q290 -180 249 -180Q208 -180 192 -170Z" transform="translate(0, 880) scale(1,-1)" /></svg>