<svg xmlns="http://www.w3.org/2000/svg" width="988" height="1000"><path d="M494 -149Q616 -149 719.5 -88.5Q823 -28 883.5 75.5Q944 179 944 301Q944 423 883.5 526.5Q823 630 719.5 690.5Q616 751 494 751Q372 751 268.5 690.5Q165 630 104.5 526.5Q44 423 44 301Q44 179 104.5 75.5Q165 -28 268.5 -88.5Q372 -149 494 -149ZM494 -69Q394 -69 309.0 -19.0Q224 31 174.0 116.0Q124 201 124 301Q124 401 174.0 486.0Q224 571 309.0 621.0Q394 671 494 671Q594 671 679.0 621.0Q764 571 814.0 486.0Q864 401 864 301Q864 201 814.0 116.0Q764 31 679.0 -19.0Q594 -69 494 -69ZM496 498Q548 498 584.0 465.5Q620 433 629 374H719Q703 464 645.5 519.5Q588 575 494 575Q418 575 364.5 534.5Q311 494 285.0 430.5Q259 367 259 297Q259 226 285.5 164.5Q312 103 366.0 65.0Q420 27 498 27Q588 27 646.0 78.5Q704 130 719 218H629Q623 166 587.5 135.0Q552 104 499 104Q447 104 413.0 132.0Q379 160 363.0 204.0Q347 248 347 296Q347 342 362.5 388.5Q378 435 411.5 466.5Q445 498 496 498Z" transform="translate(0, 880) scale(1,-1)" /></svg>