<svg xmlns="http://www.w3.org/2000/svg" width="988" height="1000"><path d="M494 -149C743 -149 944 52 944 301C944 550 743 751 494 751C245 751 44 550 44 301C44 52 245 -149 494 -149ZM494 -69C290 -69 124 97 124 301C124 505 290 671 494 671C698 671 864 505 864 301C864 97 698 -69 494 -69ZM496 498C563 498 617 454 629 374H719C699 487 625 575 494 575C333 575 259 429 259 297C259 162 334 27 498 27C621 27 699 103 719 218H629C621 149 570 104 499 104C389 104 347 207 347 296C347 380 387 498 496 498Z" transform="translate(0, 880) scale(1,-1)" /></svg>