<svg xmlns="http://www.w3.org/2000/svg" width="567" height="1000"><path d="M414 0H502V800H414V486Q390 513 354.0 528.0Q318 543 286 543Q207 543 151.5 504.0Q96 465 68.5 401.5Q41 338 41 264Q41 192 67.5 129.0Q94 66 145.0 28.0Q196 -10 265 -10Q311 -10 351.5 10.0Q392 30 414 65ZM414 153Q401 112 361.5 88.0Q322 64 281 64Q233 64 198.5 91.0Q164 118 146.5 162.5Q129 207 129 258Q129 311 146.5 358.5Q164 406 201.0 435.5Q238 465 293 465Q326 465 362.5 445.5Q399 426 414 393ZM225 702V630H567V702Z" transform="translate(0, 880) scale(1,-1)" /></svg>