<svg xmlns="http://www.w3.org/2000/svg" width="675" height="1000"><path d="M313 721H378L385 845H308ZM373 27H309L302 -104H379ZM76 565Q76 505 110.5 464.0Q145 423 194.5 397.5Q244 372 324 342Q391 316 429.5 297.5Q468 279 494.0 251.5Q520 224 520 186Q520 126 472.5 96.0Q425 66 345 66Q255 66 203.5 105.5Q152 145 152 217H54Q53 148 89.5 95.5Q126 43 192.0 14.5Q258 -14 341 -14Q420 -14 483.0 11.0Q546 36 582.0 84.0Q618 132 618 196Q618 256 583.0 297.0Q548 338 498.0 363.0Q448 388 366 418Q299 443 260.5 461.0Q222 479 196.5 505.0Q171 531 171 567Q171 626 216.5 656.5Q262 687 340 687Q425 687 471.0 649.0Q517 611 517 541H615Q611 647 539.0 706.0Q467 765 341 765Q268 765 207.5 740.0Q147 715 111.5 669.5Q76 624 76 565Z" transform="translate(0, 880) scale(1,-1)" /></svg>