<svg xmlns="http://www.w3.org/2000/svg" width="645" height="1000"><path d="M588 211Q588 279 548.0 326.0Q508 373 433 387Q499 409 534.5 457.0Q570 505 570 571Q570 634 535.5 679.0Q501 724 445.0 747.0Q389 770 325 770Q260 770 203.5 747.0Q147 724 112.0 679.0Q77 634 77 571Q77 504 114.0 454.5Q151 405 216 387Q142 373 99.5 326.5Q57 280 57 211Q57 140 94.0 89.0Q131 38 191.5 11.5Q252 -15 323 -15Q394 -15 454.5 11.0Q515 37 551.5 88.0Q588 139 588 211ZM323 422Q254 422 211.5 456.0Q169 490 169 557Q169 619 215.0 654.5Q261 690 325 690Q366 690 401.5 674.5Q437 659 458.5 628.5Q480 598 480 557Q480 492 437.5 457.0Q395 422 323 422ZM323 58Q277 58 237.0 75.5Q197 93 173.0 126.5Q149 160 149 206Q149 274 198.5 303.5Q248 333 321 333Q402 333 449.5 300.5Q497 268 497 206Q497 137 446.5 97.5Q396 58 323 58Z" transform="translate(0, 880) scale(1,-1)" /></svg>