<svg xmlns="http://www.w3.org/2000/svg" width="700" height="1000"><path d="M350 -15Q379 -15 399.5 5.5Q420 26 420 55Q420 84 399.5 104.5Q379 125 350 125Q321 125 300.5 104.5Q280 84 280 55Q280 26 300.5 5.5Q321 -15 350 -15ZM580 -15Q609 -15 629.5 5.5Q650 26 650 55Q650 84 629.5 104.5Q609 125 580 125Q551 125 530.5 104.5Q510 84 510 55Q510 26 530.5 5.5Q551 -15 580 -15ZM120 -15Q149 -15 169.5 5.5Q190 26 190 55Q190 84 169.5 104.5Q149 125 120 125Q91 125 70.5 104.5Q50 84 50 55Q50 26 70.5 5.5Q91 -15 120 -15Z" transform="translate(0, 880) scale(1,-1)" /></svg>