<svg xmlns="http://www.w3.org/2000/svg" width="648" height="1000"><path d="M88 371 172 349Q227 393 269.0 413.0Q311 433 356 433Q405 433 439.5 409.0Q474 385 491.0 345.5Q508 306 508 260Q508 210 486.5 165.5Q465 121 422.5 93.0Q380 65 319 65Q272 65 232.0 84.0Q192 103 168.5 139.0Q145 175 145 224H57Q57 152 92.5 98.0Q128 44 188.0 15.0Q248 -14 321 -14Q407 -14 469.0 26.0Q531 66 563.0 129.0Q595 192 595 262Q595 326 569.0 381.0Q543 436 490.5 469.5Q438 503 363 503Q318 503 276.5 488.5Q235 474 187 441L212 672L579 670V750H126Z" transform="translate(0, 880) scale(1,-1)" /></svg>