<svg xmlns="http://www.w3.org/2000/svg" width="725" height="1000"><path d="M384 362V282H598V189Q576 128 523.5 96.5Q471 65 389 65Q303 65 247.5 109.5Q192 154 166.5 225.0Q141 296 141 377Q141 454 165.5 525.5Q190 597 244.0 643.0Q298 689 379 689Q470 689 524.5 633.0Q579 577 589 492L681 493Q675 571 635.0 633.5Q595 696 528.0 731.5Q461 767 377 767Q272 767 197.5 710.5Q123 654 86.0 564.5Q49 475 49 376Q49 272 87.0 183.5Q125 95 201.5 41.0Q278 -13 389 -13Q502 -13 581.5 43.5Q661 100 681 197V362ZM377 841Q403 841 421.5 859.5Q440 878 440 904Q440 930 421.5 948.5Q403 967 377 967Q351 967 332.5 948.5Q314 930 314 904Q314 878 332.5 859.5Q351 841 377 841Z" transform="translate(0, 880) scale(1,-1)" /></svg>