<svg xmlns="http://www.w3.org/2000/svg" width="600" height="1000"><path d="M264 0H304Q378 0 431.5 27.5Q485 55 513.0 104.0Q541 153 541 214Q541 281 501.5 328.5Q462 376 398 396Q450 418 478.5 462.5Q507 507 507 567Q507 655 455.0 707.0Q403 759 313 759Q226 759 170.5 704.0Q115 649 115 538V0H203V552Q203 621 235.5 652.0Q268 683 315 683Q372 683 395.5 652.0Q419 621 419 561Q419 500 387.0 465.5Q355 431 299 431V351Q361 351 407.0 317.0Q453 283 453 220Q453 159 411.0 119.5Q369 80 304 80H264Z" transform="translate(0, 880) scale(1,-1)" /></svg>