<svg xmlns="http://www.w3.org/2000/svg" width="218" height="1000"><path d="M65 0H153V526H65ZM109 617Q135 617 153.5 635.5Q172 654 172 680Q172 706 153.5 724.5Q135 743 109 743Q83 743 64.5 724.5Q46 706 46 680Q46 654 64.5 635.5Q83 617 109 617ZM197 -158Q189 -163 168.0 -165.5Q147 -168 126 -168Q101 -168 86.0 -158.0Q71 -148 71 -128Q71 -85 144 16L104 36Q50 -18 22.0 -58.5Q-6 -99 -6 -134Q-6 -176 25.0 -204.0Q56 -232 124 -232Q152 -232 179.0 -227.0Q206 -222 223 -213Z" transform="translate(0, 880) scale(1,-1)" /></svg>