<svg xmlns="http://www.w3.org/2000/svg" width="636" height="1000"><path d="M148 -14Q290 -14 386.0 50.0Q482 114 529.0 222.0Q576 330 576 464Q576 543 548.0 610.5Q520 678 462.5 719.0Q405 760 321 760Q242 760 181.5 722.0Q121 684 88.0 620.0Q55 556 55 482Q55 419 81.5 366.5Q108 314 157.5 283.0Q207 252 273 252Q327 252 374.5 276.5Q422 301 449 341Q429 211 357.5 141.0Q286 71 148 65ZM323 680Q402 680 438.0 620.0Q474 560 474 478Q457 415 408.5 374.0Q360 333 294 333Q227 333 185.0 375.0Q143 417 143 483Q143 535 165.0 580.0Q187 625 228.0 652.5Q269 680 323 680Z" transform="translate(0, 880) scale(1,-1)" /></svg>