<svg xmlns="http://www.w3.org/2000/svg" width="571" height="1000"><path d="M286 -12Q355 -12 411.0 23.0Q467 58 499.0 121.0Q531 184 531 264Q531 343 499.0 407.0Q467 471 411.0 507.0Q355 543 286 543Q216 543 160.0 507.0Q104 471 72.0 407.0Q40 343 40 264Q40 183 72.0 120.5Q104 58 160.0 23.0Q216 -12 286 -12ZM286 64Q238 64 202.0 91.5Q166 119 147.0 164.5Q128 210 128 264Q128 318 147.0 364.5Q166 411 202.0 439.0Q238 467 286 467Q333 467 369.0 439.0Q405 411 424.0 364.5Q443 318 443 264Q443 211 424.0 165.0Q405 119 369.0 91.5Q333 64 286 64ZM243 760 375 592H452L329 760ZM329 760H243L120 592H197Z" transform="translate(0, 880) scale(1,-1)" /></svg>