<svg xmlns="http://www.w3.org/2000/svg" width="770" height="1000"><path d="M385 -13C610 -13 721 181 721 374C721 569 610 767 385 767C160 767 49 569 49 375C49 180 160 -13 385 -13ZM141 374C141 519 211 689 385 689C559 689 629 519 629 374C629 231 559 65 385 65C211 65 141 231 141 374ZM480 821C513 821 539 847 539 880C539 913 513 939 480 939C447 939 421 913 421 880C421 847 447 821 480 821ZM290 821C323 821 349 847 349 880C349 913 323 939 290 939C257 939 231 913 231 880C231 847 257 821 290 821Z" transform="translate(0, 880) scale(1,-1)" /></svg>