<svg xmlns="http://www.w3.org/2000/svg" width="397" height="1000"><path d="M39.7924 636.0548H105.86280000000001C109.6168 678.0996 152.4124 700.6236 196.7096 700.6236C251.518 700.6236 276.2944 677.3488 282.3008 630.7991999999999V591.0068H216.2304C110.36760000000001 591.0068 30.7828 551.2144000000001 30.7828 459.6168C30.7828 385.2876 98.3548 345.4952 169.6808 345.4952C217.732 345.4952 254.52120000000002 365.016 283.0516 401.8052V350.0H348.3712V620.288C348.3712 709.6332 289.8088 756.1828 199.71280000000002 756.1828C123.1312 756.1828 39.7924 714.8888 39.7924 636.0548ZM283.0516 457.3644C259.7768 419.82439999999997 216.2304 397.3004 176.43800000000002 397.3004C137.3964 397.3004 98.3548 422.8276 98.3548 463.37080000000003C98.3548 517.4284 155.4156 539.2016 228.994 539.2016H283.0516Z" transform="translate(0, 880) scale(1,-1)" /></svg>