<svg xmlns="http://www.w3.org/2000/svg" width="397" height="1000"><path d="M106 636Q109 666 135.0 683.5Q161 701 197 701Q237 701 257.5 683.5Q278 666 282 631V591H216Q132 591 81.5 558.0Q31 525 31 460Q31 407 72.0 376.0Q113 345 170 345Q239 345 283 402V350H348V620Q348 686 308.5 721.0Q269 756 200 756Q160 756 123.0 742.0Q86 728 63.0 701.0Q40 674 40 636ZM283 457Q266 430 236.5 413.5Q207 397 176 397Q146 397 122.0 415.5Q98 434 98 463Q98 502 134.0 520.5Q170 539 229 539H283Z" transform="translate(0, 880) scale(1,-1)" /></svg>