<svg xmlns="http://www.w3.org/2000/svg" width="428" height="1000"><path d="M215 341Q266 341 308.0 367.0Q350 393 374.0 440.5Q398 488 398 548Q398 608 374.0 655.5Q350 703 308.0 730.0Q266 757 215 757Q162 757 120.0 730.0Q78 703 54.0 655.5Q30 608 30 548Q30 488 54.0 440.5Q78 393 120.0 367.0Q162 341 215 341ZM215 398Q160 398 128.0 442.0Q96 486 96 548Q96 611 128.0 655.5Q160 700 215 700Q268 700 300.0 655.5Q332 611 332 548Q332 486 300.0 442.0Q268 398 215 398Z" transform="translate(0, 880) scale(1,-1)" /></svg>