<svg xmlns="http://www.w3.org/2000/svg" width="571" height="1000"><path d="M286 -12Q355 -12 411.0 23.0Q467 58 499.0 121.0Q531 184 531 264Q531 343 499.0 407.0Q467 471 411.0 507.0Q355 543 286 543Q216 543 160.0 507.0Q104 471 72.0 407.0Q40 343 40 264Q40 183 72.0 120.5Q104 58 160.0 23.0Q216 -12 286 -12ZM286 64Q238 64 202.0 91.5Q166 119 147.0 164.5Q128 210 128 264Q128 318 147.0 364.5Q166 411 202.0 439.0Q238 467 286 467Q333 467 369.0 439.0Q405 411 424.0 364.5Q443 318 443 264Q443 211 424.0 165.0Q405 119 369.0 91.5Q333 64 286 64ZM146 613Q168 639 186.5 651.0Q205 663 222 663Q233 663 242.5 656.5Q252 650 269 635Q291 615 309.0 604.0Q327 593 350 593Q381 593 410.0 618.0Q439 643 462 677L426 717Q404 691 385.5 679.0Q367 667 350 667Q339 667 329.5 673.5Q320 680 303 695Q281 715 263.0 726.0Q245 737 222 737Q191 737 161.0 713.5Q131 690 110 658Z" transform="translate(0, 880) scale(1,-1)" /></svg>