<svg xmlns="http://www.w3.org/2000/svg" width="770" height="1000"><path d="M385 -13C610 -13 721 181 721 374C721 569 610 767 385 767C160 767 49 569 49 375C49 180 160 -13 385 -13ZM141 374C141 519 211 689 385 689C559 689 629 519 629 374C629 231 559 65 385 65C211 65 141 231 141 374ZM209 882 245 837C275 872 298 887 321 887C357 887 388 817 449 817C495 817 537 865 561 901L525 941C495 906 472 891 449 891C413 891 382 961 321 961C275 961 233 918 209 882Z" transform="translate(0, 880) scale(1,-1)" /></svg>