<svg xmlns="http://www.w3.org/2000/svg" width="793" height="1000"><path d="M653 750H564L108 0H198ZM232 440C320 440 390 510 390 598C390 686 320 756 232 756C144 756 74 686 74 598C74 510 144 440 232 440ZM232 512C184 512 146 550 146 598C146 646 184 684 232 684C280 684 318 646 318 598C318 550 280 512 232 512ZM561 -5C649 -5 719 65 719 153C719 241 649 311 561 311C473 311 403 241 403 153C403 65 473 -5 561 -5ZM561 67C513 67 475 105 475 153C475 201 513 239 561 239C609 239 647 201 647 153C647 105 609 67 561 67Z" transform="translate(0, 880) scale(1,-1)" /></svg>