<svg xmlns="http://www.w3.org/2000/svg" width="793" height="1000"><path d="M654 750H563L107 0H199ZM232 440C320 440 390 510 390 598C390 686 320 756 232 756C144 756 74 686 74 598C74 510 144 440 232 440ZM232 518C187 518 152 553 152 598C152 643 187 678 232 678C277 678 312 643 312 598C312 553 277 518 232 518ZM561 -5C649 -5 719 65 719 153C719 241 649 311 561 311C473 311 403 241 403 153C403 65 473 -5 561 -5ZM561 73C516 73 481 108 481 153C481 198 516 233 561 233C606 233 641 198 641 153C641 108 606 73 561 73Z" transform="translate(0, 880) scale(1,-1)" /></svg>