<svg xmlns="http://www.w3.org/2000/svg" width="559" height="1000"><path d="M337 212Q340 259 361.0 296.0Q382 333 423 386Q466 439 487.5 480.0Q509 521 509 572Q509 632 477.5 675.5Q446 719 394.0 742.0Q342 765 283 765Q215 765 159.0 740.0Q103 715 69.5 667.5Q36 620 36 554H130Q132 613 175.5 647.5Q219 682 279 682Q340 682 377.5 651.5Q415 621 415 564Q415 533 397.5 502.5Q380 472 344 425Q297 365 271.5 317.5Q246 270 245 212ZM285 -15Q314 -15 334.5 5.5Q355 26 355 55Q355 84 334.5 104.5Q314 125 285 125Q256 125 235.5 104.5Q215 84 215 55Q215 26 235.5 5.5Q256 -15 285 -15Z" transform="translate(0, 880) scale(1,-1)" /></svg>