<svg xmlns="http://www.w3.org/2000/svg" width="480" height="1000"><path d="M330 506Q359 506 379.5 527.0Q400 548 400 576Q400 605 379.5 625.5Q359 646 330 646Q337 671 367.5 697.0Q398 723 432 741L392 783Q330 740 295.0 689.5Q260 639 260 576Q260 548 280.5 527.0Q301 506 330 506ZM150 506Q179 506 199.5 527.0Q220 548 220 576Q220 605 199.5 625.5Q179 646 150 646Q157 671 187.5 697.0Q218 723 252 741L212 783Q150 740 115.0 689.5Q80 639 80 576Q80 548 100.5 527.0Q121 506 150 506Z" transform="translate(0, 880) scale(1,-1)" /></svg>