<svg xmlns="http://www.w3.org/2000/svg" width="988" height="1000"><path d="M494 -149Q616 -149 719.5 -88.5Q823 -28 883.5 75.5Q944 179 944 301Q944 423 883.5 526.5Q823 630 719.5 690.5Q616 751 494 751Q372 751 268.5 690.5Q165 630 104.5 526.5Q44 423 44 301Q44 179 104.5 75.5Q165 -28 268.5 -88.5Q372 -149 494 -149ZM494 -69Q394 -69 309.0 -19.0Q224 31 174.0 116.0Q124 201 124 301Q124 401 174.0 486.0Q224 571 309.0 621.0Q394 671 494 671Q594 671 679.0 621.0Q764 571 814.0 486.0Q864 401 864 301Q864 201 814.0 116.0Q764 31 679.0 -19.0Q594 -69 494 -69ZM596 233 508 225 634 22H728ZM308 22H392V217H535Q594 217 635.5 241.5Q677 266 698.0 306.5Q719 347 719 393Q719 440 698.0 481.0Q677 522 636.5 547.5Q596 573 539 573H308ZM537 494Q584 494 609.5 464.5Q635 435 635 393Q635 352 609.0 322.5Q583 293 533 293H392V494Z" transform="translate(0, 880) scale(1,-1)" /></svg>