<svg xmlns="http://www.w3.org/2000/svg" width="487" height="1000"><path d="M446 146C446 317 137 287 137 390C137 444 185 468 238 468C295 468 351 439 353 378H443C440 487 336 543 239 543C148 543 47 494 47 388C47 216 355 253 355 146C355 89 302 66 254 66C195 66 131 94 131 160H41C44 44 141 -10 245 -10C336 -10 446 35 446 146ZM156 -170 130 -223C153 -235 183 -242 219 -242C316 -242 359 -194 359 -144C359 -103 324 -56 250 -47L273 6H223L182 -68L192 -109C197 -108 207 -107 214 -107C273 -107 293 -130 293 -143C293 -162 271 -180 213 -180C188 -180 167 -177 156 -170Z" transform="translate(0, 880) scale(1,-1)" /></svg>