<svg xmlns="http://www.w3.org/2000/svg" width="487" height="1000"><path d="M446 365Q446 410 420.0 439.5Q394 469 357.0 486.0Q320 503 262 522Q198 543 167.5 561.0Q137 579 137 609Q137 647 166.0 667.0Q195 687 238 687Q284 687 318.0 663.5Q352 640 353 597H443Q442 649 412.0 686.5Q382 724 335.5 743.0Q289 762 239 762Q191 762 147.0 744.5Q103 727 75.0 692.0Q47 657 47 607Q47 562 72.5 533.0Q98 504 134.5 487.5Q171 471 228 453Q294 431 324.5 413.5Q355 396 355 365Q355 325 325.0 305.0Q295 285 254 285L315 218Q372 233 409.0 270.0Q446 307 446 365ZM446 145Q446 190 420.0 219.5Q394 249 357.0 266.0Q320 283 262 302Q198 323 167.5 341.0Q137 359 137 389Q137 427 166.0 447.0Q195 467 238 467L179 535Q121 521 84.0 483.5Q47 446 47 387Q47 342 72.5 313.0Q98 284 134.5 267.5Q171 251 228 233Q294 211 324.5 193.5Q355 176 355 145Q355 105 325.0 85.0Q295 65 254 65Q204 65 167.5 89.0Q131 113 131 159H41Q43 77 102.0 33.0Q161 -11 245 -11Q294 -11 340.0 5.5Q386 22 416.0 57.5Q446 93 446 145Z" transform="translate(0, 880) scale(1,-1)" /></svg>