<svg xmlns="http://www.w3.org/2000/svg" width="487" height="1000"><path d="M446 365C446 536 137 506 137 609C137 663 185 687 238 687C295 687 351 658 353 597H443C440 706 336 762 239 762C148 762 47 713 47 607C47 435 355 472 355 365C355 308 302 285 254 285L315 218C384 236 446 282 446 365ZM446 145C446 316 137 286 137 389C137 443 185 467 238 467L179 535C108 518 47 470 47 387C47 215 355 252 355 145C355 88 302 65 254 65C195 65 131 93 131 159H41C44 43 141 -11 245 -11C336 -11 446 34 446 145Z" transform="translate(0, 880) scale(1,-1)" /></svg>