<svg xmlns="http://www.w3.org/2000/svg" width="1000" height="1000"><path d="M954 -11Q883 16 816.5 50.0Q750 84 658 136Q537 205 462.5 238.0Q388 271 321 271Q259 271 206.5 252.5Q154 234 122.0 195.5Q90 157 90 101Q90 30 136.0 -10.0Q182 -50 273 -50Q381 -50 515.5 15.0Q650 80 745.5 167.5Q841 255 841 314Q841 385 778.5 412.0Q716 439 598 439Q433 439 239 415V643H160V408L152 388L167 334Q379 364 598 364Q678 364 716.5 351.5Q755 339 755 314Q755 269 669.0 198.0Q583 127 468.0 73.0Q353 19 273 19Q223 19 197.0 42.0Q171 65 171 101Q171 143 210.5 171.0Q250 199 321 199Q373 199 434.0 170.5Q495 142 599 80Q689 26 760.5 -12.0Q832 -50 912 -81ZM709 517Q752 517 778.5 548.5Q805 580 819.0 638.5Q833 697 842 790L780 809L760 798H160V730H754Q746 658 730.0 622.0Q714 586 681 586Q612 586 557.0 592.5Q502 599 434 612V538Q566 517 709 517Z" transform="translate(0, 880) scale(1,-1)" /></svg>