<svg xmlns="http://www.w3.org/2000/svg" width="1000" height="1000"><path d="M915 -2Q861 10 811.5 27.0Q762 44 667 80Q554 124 483.0 145.5Q412 167 348 167Q298 167 255.5 152.0Q213 137 188.5 110.0Q164 83 164 48Q164 13 190.5 -12.5Q217 -38 258.5 -51.5Q300 -65 344 -65Q407 -65 518.5 -27.0Q630 11 714.5 70.5Q799 130 799 193Q799 321 567 321Q454 321 359 295Q376 308 392.0 325.0Q408 342 424 361L355 394Q260 281 85 203L127 149L174 173Q256 215 274 220Q402 255 561 255Q630 255 674.0 239.5Q718 224 718 193Q718 158 644.0 112.0Q570 66 476.0 32.0Q382 -2 335 -2Q297 -2 269.5 10.5Q242 23 242 47Q242 75 268.5 89.0Q295 103 341 103Q398 103 465.5 81.0Q533 59 648 13Q735 -23 781.5 -40.5Q828 -58 878 -71ZM643 363Q715 363 767.5 387.5Q820 412 847.0 455.5Q874 499 874 554Q874 661 799.5 715.5Q725 770 578 770Q487 770 410.5 746.0Q334 722 264 677Q277 693 290.0 715.5Q303 738 316 762L343 812L264 835Q210 695 91 560L168 527Q190 556 206.0 574.5Q222 593 244 608Q306 652 392.5 676.5Q479 701 573 701Q676 701 731.5 664.5Q787 628 787 557Q787 497 748.0 463.5Q709 430 634 430Q541 430 475 445V372Q550 363 643 363ZM274 408Q390 460 509.0 525.5Q628 591 678 627L632 679Q582 643 462.0 577.0Q342 511 233 463ZM665 508Q599 542 519.0 578.0Q439 614 377 636L336 588Q403 560 484.5 521.5Q566 483 620 454Z" transform="translate(0, 880) scale(1,-1)" /></svg>