<svg xmlns="http://www.w3.org/2000/svg" width="1000" height="1000"><path d="M793 -76Q846 1 875.5 69.5Q905 138 905 218Q905 263 879.0 302.0Q853 341 808.0 363.5Q763 386 709 386Q603 386 519 324V494H436V279L420 265L463 212Q528 257 587.0 282.0Q646 307 702 307Q754 307 787.0 281.5Q820 256 820 213Q820 148 789.0 77.5Q758 7 709 -55ZM252 -41Q369 -41 453.0 -29.5Q537 -18 619 15L579 88Q460 40 252 40Q223 40 207.0 53.5Q191 67 191 92Q191 228 246 353L165 373Q108 228 108 80Q108 -41 252 -41ZM276 557Q264 603 235.5 665.5Q207 728 174 785L106 750Q132 702 160.0 636.0Q188 570 206 517ZM554 587Q545 639 522.0 704.5Q499 770 470 835L395 806Q421 744 443.0 676.0Q465 608 475 555ZM772 524Q837 635 892 774L810 812Q792 751 762.0 678.0Q732 605 701 545Z" transform="translate(0, 880) scale(1,-1)" /></svg>