<svg xmlns="http://www.w3.org/2000/svg" width="1000" height="1000"><path d="M320 321C721 306 873 327 873 454C873 526 800 582 549 582C362 582 262 544 179 498L209 445C297 494 390 521 549 521C726 521 798 490 798 454C798 388 658 372 320 387ZM77 89H923V149H77ZM441 -72C516 -72 547 -37 547 34L548 453H473L472 44C472 15 462 -5 432 -5C400 -5 360 1 318 14V-60C354 -68 392 -72 441 -72ZM161 333H232V560H161ZM125 210H875V270H125ZM312 681 382 710C357 752 322 799 286 841L223 814C258 773 288 726 312 681ZM73 627H927V692H73ZM689 666C728 716 760 769 791 819L716 845C694 796 660 740 626 692Z" transform="translate(0, 880) scale(1,-1)" /></svg>