<svg xmlns="http://www.w3.org/2000/svg" width="1000" height="1000"><path d="M333 208H554Q679 208 766.5 253.0Q854 298 854 399Q854 487 772.0 529.0Q690 571 543 571Q419 571 328.0 544.0Q237 517 164 465L205 407Q273 456 352.0 479.5Q431 503 543 503Q623 503 675.5 488.0Q728 473 752.5 449.5Q777 426 777 398Q777 335 711.5 304.5Q646 274 549 274H333ZM109 -78Q255 -38 347.5 20.0Q440 78 490.0 176.5Q540 275 540 430H460Q460 284 412.0 196.5Q364 109 279.5 63.5Q195 18 64 -14ZM151 250H223V547H151ZM917 -19Q768 62 604 142L557 82Q728 -3 872 -88ZM338 649Q320 683 282.0 728.5Q244 774 202 812L137 777Q177 741 214.5 694.0Q252 647 269 611ZM460 559H540V841H460ZM717 611Q751 642 793.0 689.5Q835 737 870 783L795 818Q770 778 729.5 729.5Q689 681 651 645Z" transform="translate(0, 880) scale(1,-1)" /></svg>