<svg xmlns="http://www.w3.org/2000/svg" width="1000" height="1000"><path d="M102 -77Q180 31 208.5 182.5Q237 334 236 495L234 720H759Q760 403 767.0 251.0Q774 99 802.5 14.5Q831 -70 894 -70Q922 -70 937.5 -53.5Q953 -37 961.0 1.0Q969 39 973 108L921 119Q919 61 914.0 35.0Q909 9 897 9Q859 9 846.5 136.5Q834 264 834 535Q834 701 835 793H160V495Q160 336 137.0 201.0Q114 66 41 -35ZM589 52Q663 70 697.5 116.0Q732 162 732 240Q732 320 677.5 364.5Q623 409 516 409Q393 409 322.5 362.5Q252 316 252 224Q252 174 272.0 139.5Q292 105 323.5 88.5Q355 72 391 72Q446 72 487.5 110.5Q529 149 529 239V680H459V246Q459 186 440.5 163.0Q422 140 391 140Q362 140 341.0 162.0Q320 184 320 226Q320 285 369.0 315.5Q418 346 516 346Q597 346 629.5 319.0Q662 292 662 239Q662 186 638.0 154.0Q614 122 563 108ZM275 512H713V581H275Z" transform="translate(0, 880) scale(1,-1)" /></svg>