<svg xmlns="http://www.w3.org/2000/svg" width="1000" height="1000"><path d="M102 -77C218 83 237 327 236 495L234 720H759C761 199 763 -70 894 -70C949 -70 966 -26 973 108L921 119C919 43 913 9 897 9C830 9 832 321 835 793H160V495C160 337 150 116 41 -35ZM589 52C688 76 732 137 732 240C732 343 663 409 516 409C357 409 252 350 252 224C252 118 323 72 391 72C451 72 529 106 529 239V680H459V246C459 159 426 140 391 140C355 140 320 167 320 226C320 304 384 346 516 346C629 346 662 306 662 239C662 169 631 127 563 108ZM275 512H713V581H275Z" transform="translate(0, 880) scale(1,-1)" /></svg>