<svg xmlns="http://www.w3.org/2000/svg" width="1000" height="1000"><path d="M647 -65C814 -65 915 49 915 190C915 336 790 394 588 394C542 394 499 392 464 389C562 425 716 486 817 534L744 579L717 571H256V500H604C524 462 435 425 299 371C279 363 213 345 156 326L200 266C309 303 430 327 569 327C725 327 837 301 837 189C837 98 765 3 641 3C583 3 529 10 473 25V-51C527 -61 582 -65 647 -65ZM103 104 158 55C297 117 406 197 458 281L386 303C340 223 239 156 103 104ZM183 -10 235 -60C430 3 607 108 655 278L586 298C536 154 371 45 183 -10ZM64 497 123 455C208 570 261 689 310 834L243 849C195 704 132 585 64 497ZM211 655H887V724H211Z" transform="translate(0, 880) scale(1,-1)" /></svg>