<svg xmlns="http://www.w3.org/2000/svg" width="1000" height="1000"><path d="M893 -73 947 -9C694 88 498 242 325 242C192 242 86 182 86 93C86 16 155 -50 262 -50C435 -50 846 123 846 278C846 363 741 415 556 415C516 415 473 411 425 401C537 446 682 517 823 594L755 646L670 597H320C405 655 495 725 585 801L504 837C415 747 320 674 231 614C211 600 182 591 154 585L185 519L219 533H556C452 476 321 411 207 370C175 358 153 349 116 342L145 274C274 321 399 344 556 344C687 344 753 319 753 278C753 169 375 19 262 19C207 19 169 52 169 93C169 130 220 169 325 169C469 169 632 29 893 -73Z" transform="translate(0, 880) scale(1,-1)" /></svg>