<svg xmlns="http://www.w3.org/2000/svg" width="1000" height="1000"><path d="M947 -9Q839 33 683 114Q593 160 540.0 184.5Q487 209 431.5 225.5Q376 242 325 242Q259 242 204.0 223.0Q149 204 117.5 170.5Q86 137 86 93Q86 54 108.0 21.5Q130 -11 170.0 -30.5Q210 -50 262 -50Q351 -50 492.5 1.5Q634 53 740.0 129.5Q846 206 846 278Q846 342 770.0 378.5Q694 415 556 415Q492 415 425 401Q594 469 823 594L755 646L670 597H320Q442 680 585 801L504 837Q388 720 231 614Q205 596 154 585L185 519L219 533H556Q357 424 207 370Q185 361 163.0 354.0Q141 347 116 342L145 274Q243 310 341.5 327.0Q440 344 556 344Q653 344 703.0 326.5Q753 309 753 278Q753 228 658.0 167.5Q563 107 442.0 63.0Q321 19 262 19Q221 19 195.0 40.5Q169 62 169 93Q169 112 186.5 129.5Q204 147 239.5 158.0Q275 169 325 169Q382 169 445.0 143.0Q508 117 616 59Q704 13 763.5 -16.0Q823 -45 893 -73Z" transform="translate(0, 880) scale(1,-1)" /></svg>