<svg xmlns="http://www.w3.org/2000/svg" width="580" height="1000"><path d="M65 187Q65 -11 261 -11Q372 -11 427 73V0H515V526H427V172Q377 60 272 60Q216 60 190.0 85.5Q164 111 158.5 141.5Q153 172 153 215V526H65ZM385 597Q410 597 427.0 614.0Q444 631 444 656Q444 681 427.0 698.0Q410 715 385 715Q360 715 343.0 698.0Q326 681 326 656Q326 631 343.0 614.0Q360 597 385 597ZM195 597Q220 597 237.0 614.0Q254 631 254 656Q254 681 237.0 698.0Q220 715 195 715Q170 715 153.0 698.0Q136 681 136 656Q136 631 153.0 614.0Q170 597 195 597Z" transform="translate(0, 880) scale(1,-1)" /></svg>