<svg xmlns="http://www.w3.org/2000/svg" width="529" height="1000"><path d="M141 381Q145 421 180.0 444.0Q215 467 262 467Q316 467 343.0 444.0Q370 421 376 374V321H288Q176 321 108.5 277.5Q41 234 41 146Q41 98 67.0 64.0Q93 30 135.0 12.0Q177 -6 226 -6Q319 -6 377 69V0H464V360Q464 448 411.0 494.5Q358 541 266 541Q213 541 164.0 522.5Q115 504 84.0 467.5Q53 431 53 381ZM377 143Q354 106 315.0 84.5Q276 63 235 63Q194 63 162.5 87.5Q131 112 131 151Q131 202 178.5 227.0Q226 252 305 252H377ZM343 711Q343 682 320.5 662.0Q298 642 266 642Q234 642 212.0 662.0Q190 682 190 711H113Q113 673 133.5 641.5Q154 610 189.0 591.5Q224 573 266 573Q308 573 343.0 591.5Q378 610 398.5 641.5Q419 673 419 711Z" transform="translate(0, 880) scale(1,-1)" /></svg>