<svg xmlns="http://www.w3.org/2000/svg" width="732" height="1000"><path d="M367 -14Q475 -14 543.5 41.0Q612 96 643.0 184.0Q674 272 674 377Q674 481 643.0 570.0Q612 659 543.5 714.0Q475 769 367 769Q258 769 189.0 714.0Q120 659 89.0 570.5Q58 482 58 377Q58 272 89.0 184.0Q120 96 189.0 41.0Q258 -14 367 -14ZM148 377Q148 510 198.0 602.0Q248 694 367 694Q484 694 534.0 601.5Q584 509 584 377Q584 245 534.0 152.5Q484 60 367 60Q248 60 198.0 152.0Q148 244 148 377Z" transform="translate(0, 880) scale(1,-1)" /></svg>