<svg xmlns="http://www.w3.org/2000/svg" width="542" height="1000"><path d="M501 152 418 177C411 138 374 71 281 71C175 71 128 166 132 261H500C512 394 443 542 275 542C118 542 41 405 41 266C41 126 117 -7 282 -7C381 -7 469 46 501 152ZM413 329H142C160 400 202 464 276 464C369 464 408 404 413 329ZM442 -213 416 -158C405 -165 370 -168 345 -168C313 -168 290 -155 290 -128C290 -95 322 -41 363 16L323 36C261 -27 213 -84 213 -134C213 -184 246 -232 343 -232C379 -232 419 -225 442 -213Z" transform="translate(0, 880) scale(1,-1)" /></svg>