<svg xmlns="http://www.w3.org/2000/svg" width="727" height="1000"><path d="M373 765Q274 765 200.0 713.0Q126 661 86.5 572.0Q47 483 47 376Q47 268 86.5 180.0Q126 92 199.5 40.5Q273 -11 373 -11Q450 -11 516.0 20.5Q582 52 626.0 109.0Q670 166 682 242H590Q574 164 513.5 115.5Q453 67 373 67Q301 67 248.0 110.0Q195 153 167.0 223.5Q139 294 139 377Q139 460 167.0 530.5Q195 601 248.0 644.0Q301 687 373 687Q427 687 474.0 662.5Q521 638 552.5 594.0Q584 550 592 493H684Q675 574 631.5 635.5Q588 697 520.0 731.0Q452 765 373 765ZM259 -223Q295 -242 348 -242Q416 -242 452.0 -213.5Q488 -185 488 -144Q488 -110 459.5 -81.5Q431 -53 379 -47L402 6H352L311 -68L321 -109Q331 -107 343 -107Q383 -107 402.5 -118.5Q422 -130 422 -143Q422 -159 402.5 -169.5Q383 -180 342 -180Q301 -180 285 -170Z" transform="translate(0, 880) scale(1,-1)" /></svg>