<svg xmlns="http://www.w3.org/2000/svg" width="944" height="1000"><path d="M286 -12C425 -12 531 100 531 264C531 425 425 543 286 543C145 543 40 425 40 264C40 100 145 -12 286 -12ZM286 64C186 64 128 158 128 264C128 371 186 467 286 467C384 467 443 371 443 264C443 159 384 64 286 64ZM903 152 820 177C813 138 776 71 683 71C577 71 530 166 534 261H902C914 394 845 542 677 542C520 542 443 405 443 266C443 126 519 -7 684 -7C783 -7 871 46 903 152ZM815 329H544C562 400 604 464 678 464C771 464 810 404 815 329Z" transform="translate(0, 880) scale(1,-1)" /></svg>