<svg xmlns="http://www.w3.org/2000/svg" width="529" height="1000"><path d="M141 381Q145 421 180.0 444.0Q215 467 262 467Q316 467 343.0 444.0Q370 421 376 374V321H288Q176 321 108.5 277.5Q41 234 41 146Q41 98 67.0 64.0Q93 30 135.0 12.0Q177 -6 226 -6Q319 -6 377 69V0H464V360Q464 448 411.0 494.5Q358 541 266 541Q213 541 164.0 522.5Q115 504 84.0 467.5Q53 431 53 381ZM377 143Q354 106 315.0 84.5Q276 63 235 63Q194 63 162.5 87.5Q131 112 131 151Q131 202 178.5 227.0Q226 252 305 252H377ZM361 597Q386 597 403.0 614.0Q420 631 420 656Q420 681 403.0 698.0Q386 715 361 715Q336 715 319.0 698.0Q302 681 302 656Q302 631 319.0 614.0Q336 597 361 597ZM171 597Q196 597 213.0 614.0Q230 631 230 656Q230 681 213.0 698.0Q196 715 171 715Q146 715 129.0 698.0Q112 681 112 656Q112 631 129.0 614.0Q146 597 171 597Z" transform="translate(0, 880) scale(1,-1)" /></svg>