<svg xmlns="http://www.w3.org/2000/svg" width="961" height="1000"><path d="M696 129V547H609V502C577 536 524 555 484 555C321 555 244 428 244 297C244 167 322 44 463 44C522 44 580 69 609 114V54H666C828 54 917 145 917 331C917 569 753 750 495 750C245 750 44 549 44 301C44 51 245 -150 495 -150C579 -150 657 -127 724 -87L681 -19C627 -51 563 -70 495 -70C289 -70 124 96 124 301C124 505 289 670 495 670C708 670 837 525 837 331C837 189 777 129 696 129ZM609 416V195C591 141 529 113 479 113C380 113 330 200 330 292C330 385 378 483 491 483C529 483 588 461 609 416Z" transform="translate(0, 880) scale(1,-1)" /></svg>