<svg xmlns="http://www.w3.org/2000/svg" width="944" height="1000"><path d="M286 -12Q355 -12 411.0 23.0Q467 58 499.0 121.0Q531 184 531 264Q531 343 499.0 407.0Q467 471 411.0 507.0Q355 543 286 543Q216 543 160.0 507.0Q104 471 72.0 407.0Q40 343 40 264Q40 183 72.0 120.5Q104 58 160.0 23.0Q216 -12 286 -12ZM286 64Q238 64 202.0 91.5Q166 119 147.0 164.5Q128 210 128 264Q128 318 147.0 364.5Q166 411 202.0 439.0Q238 467 286 467Q333 467 369.0 439.0Q405 411 424.0 364.5Q443 318 443 264Q443 211 424.0 165.0Q405 119 369.0 91.5Q333 64 286 64ZM820 177Q813 139 779.0 105.0Q745 71 683 71Q632 71 598.0 98.0Q564 125 548.0 168.5Q532 212 534 261H902Q903 271 903 290Q903 356 878.0 413.5Q853 471 802.0 506.5Q751 542 677 542Q602 542 549.0 503.0Q496 464 469.5 401.0Q443 338 443 266Q443 193 469.5 131.0Q496 69 550.5 31.0Q605 -7 684 -7Q761 -7 820.5 34.0Q880 75 903 152ZM544 329Q559 388 592.5 426.0Q626 464 678 464Q744 464 777.5 427.0Q811 390 815 329Z" transform="translate(0, 880) scale(1,-1)" /></svg>