<svg xmlns="http://www.w3.org/2000/svg" width="700" height="1000"><path d="M543 251Q543 179 501.0 120.5Q459 62 350 62Q275 62 232.0 92.5Q189 123 173.0 165.0Q157 207 157 249V750H69V220Q69 146 105.5 93.0Q142 40 205.5 12.5Q269 -15 350 -15Q427 -15 491.5 13.0Q556 41 593.5 94.5Q631 148 631 220V750H543ZM350 807Q392 807 421.0 836.0Q450 865 450 907Q450 949 421.0 978.0Q392 1007 350 1007Q308 1007 279.0 978.0Q250 949 250 907Q250 865 279.0 836.0Q308 807 350 807ZM350 857Q329 857 314.5 871.5Q300 886 300 907Q300 928 314.5 942.5Q329 957 350 957Q371 957 385.5 942.5Q400 928 400 907Q400 886 385.5 871.5Q371 857 350 857Z" transform="translate(0, 880) scale(1,-1)" /></svg>