<svg xmlns="http://www.w3.org/2000/svg" width="542" height="1000"><path d="M418 177Q411 139 377.0 105.0Q343 71 281 71Q230 71 196.0 98.0Q162 125 146.0 168.5Q130 212 132 261H500Q501 271 501 290Q501 356 476.0 413.5Q451 471 400.0 506.5Q349 542 275 542Q200 542 147.0 503.0Q94 464 67.5 401.0Q41 338 41 266Q41 193 67.5 131.0Q94 69 148.5 31.0Q203 -7 282 -7Q359 -7 418.5 34.0Q478 75 501 152ZM142 329Q157 388 190.5 426.0Q224 464 276 464Q342 464 375.5 427.0Q409 390 413 329ZM372 597Q397 597 414.0 614.0Q431 631 431 656Q431 681 414.0 698.0Q397 715 372 715Q347 715 330.0 698.0Q313 681 313 656Q313 631 330.0 614.0Q347 597 372 597ZM182 597Q207 597 224.0 614.0Q241 631 241 656Q241 681 224.0 698.0Q207 715 182 715Q157 715 140.0 698.0Q123 681 123 656Q123 631 140.0 614.0Q157 597 182 597Z" transform="translate(0, 880) scale(1,-1)" /></svg>