<svg xmlns="http://www.w3.org/2000/svg" width="645" height="1000"><path d="M588 211C588 299 535 368 433 387C521 416 570 483 570 571C570 703 449 770 325 770C200 770 77 703 77 571C77 483 128 411 216 387C119 368 57 304 57 211C57 63 185 -15 323 -15C462 -15 588 62 588 211ZM323 422C236 422 169 464 169 557C169 643 244 690 325 690C404 690 480 643 480 557C480 469 417 422 323 422ZM323 58C233 58 149 110 149 206C149 305 238 333 321 333C427 333 497 290 497 206C497 110 416 58 323 58Z" transform="translate(0, 880) scale(1,-1)" /></svg>