<svg xmlns="http://www.w3.org/2000/svg" width="623" height="1000"><path d="M486 680V760Q345 764 248.0 700.0Q151 636 102.5 526.0Q54 416 51 281Q49 202 78.5 135.0Q108 68 167.5 27.0Q227 -14 312 -14Q389 -14 448.5 23.5Q508 61 540.0 123.0Q572 185 572 258Q572 321 547.5 374.0Q523 427 474.5 459.5Q426 492 356 492Q249 492 180 406Q199 532 269.5 606.5Q340 681 463 681ZM310 65Q260 65 225.0 91.0Q190 117 172.5 158.5Q155 200 155 246Q155 293 171 309Q199 360 241.5 386.0Q284 412 338 412Q407 412 445.5 368.0Q484 324 484 258Q484 207 463.0 163.0Q442 119 402.5 92.0Q363 65 310 65Z" transform="translate(0, 880) scale(1,-1)" /></svg>