<svg xmlns="http://www.w3.org/2000/svg" width="529" height="1000"><path d="M53 381H141C146 437 203 467 262 467C335 467 368 436 376 374V321H288C147 321 41 268 41 146C41 47 131 -6 226 -6C290 -6 339 20 377 69V0H464V360C464 479 386 541 266 541C164 541 53 486 53 381ZM377 143C346 93 288 63 235 63C183 63 131 97 131 151C131 223 207 252 305 252H377ZM266 583C322 583 366 627 366 683C366 739 322 783 266 783C210 783 166 739 166 683C166 627 210 583 266 583ZM266 633C238 633 216 655 216 683C216 711 238 733 266 733C294 733 316 711 316 683C316 655 294 633 266 633Z" transform="translate(0, 880) scale(1,-1)" /></svg>