<svg xmlns="http://www.w3.org/2000/svg" width="487" height="1000"><path d="M446 146Q446 191 420.0 220.5Q394 250 357.0 267.0Q320 284 262 303Q198 324 167.5 342.0Q137 360 137 390Q137 428 166.0 448.0Q195 468 238 468Q284 468 318.0 444.5Q352 421 353 378H443Q442 430 412.0 467.5Q382 505 335.5 524.0Q289 543 239 543Q191 543 147.0 525.5Q103 508 75.0 473.0Q47 438 47 388Q47 343 72.5 314.0Q98 285 134.5 268.5Q171 252 228 234Q294 212 324.5 194.5Q355 177 355 146Q355 106 325.0 86.0Q295 66 254 66Q204 66 167.5 90.0Q131 114 131 160H41Q43 78 102.0 34.0Q161 -10 245 -10Q294 -10 340.0 6.5Q386 23 416.0 58.5Q446 94 446 146ZM201 576H287L400 734H323ZM287 576 165 734H88L201 576Z" transform="translate(0, 880) scale(1,-1)" /></svg>