<svg xmlns="http://www.w3.org/2000/svg" width="634" height="1000"><path d="M134 552Q134 592 160.5 623.5Q187 655 228.5 672.0Q270 689 314 689Q355 689 392.5 674.0Q430 659 454.0 628.0Q478 597 478 552Q478 489 432.0 452.5Q386 416 321 416Q254 416 240 419V346L321 347Q396 344 443.5 312.5Q491 281 491 211Q491 165 466.5 131.5Q442 98 402.0 81.0Q362 64 316 64Q267 64 224.5 82.0Q182 100 155.5 134.5Q129 169 127 217H38Q40 146 79.5 93.5Q119 41 182.5 13.5Q246 -14 319 -14Q390 -14 449.5 12.5Q509 39 544.0 90.0Q579 141 579 211Q579 282 536.5 330.5Q494 379 425 387Q493 405 527.0 453.0Q561 501 561 571Q561 637 525.5 681.5Q490 726 434.0 747.5Q378 769 317 769Q247 769 184.5 742.0Q122 715 84.0 666.0Q46 617 46 552Z" transform="translate(0, 880) scale(1,-1)" /></svg>