<svg xmlns="http://www.w3.org/2000/svg" width="580" height="1000"><path d="M427 526V445Q405 486 363.5 513.5Q322 541 269 541Q205 541 153.0 505.0Q101 469 71.0 406.5Q41 344 41 268Q41 190 70.0 126.5Q99 63 154.5 26.0Q210 -11 286 -11Q372 -11 427 46V-220H515V526ZM427 139Q407 106 371.5 86.5Q336 67 294 67Q242 67 205.0 95.0Q168 123 148.5 170.0Q129 217 129 274Q129 327 149.0 370.5Q169 414 204.5 438.5Q240 463 283 463Q316 463 348.0 446.5Q380 430 402.0 402.5Q424 375 427 346Z" transform="translate(0, 880) scale(1,-1)" /></svg>