<svg xmlns="http://www.w3.org/2000/svg" width="436" height="1000"><path d="M65 0H153V526H65ZM109 643Q134 643 151.0 660.0Q168 677 168 702Q168 727 151.0 744.0Q134 761 109 761Q84 761 67.0 744.0Q50 727 50 702Q50 677 67.0 660.0Q84 643 109 643ZM142 -231Q256 -229 313.5 -168.0Q371 -107 371 0H283Q283 -80 250.5 -116.0Q218 -152 142 -151ZM283 0H371V526H283ZM327 643Q352 643 369.0 660.0Q386 677 386 702Q386 727 369.0 744.0Q352 761 327 761Q302 761 285.0 744.0Q268 727 268 702Q268 677 285.0 660.0Q302 643 327 643Z" transform="translate(0, 880) scale(1,-1)" /></svg>