<svg xmlns="http://www.w3.org/2000/svg" width="793" height="1000"><path d="M653 750H564L108 0H198ZM232 440Q275 440 311.5 461.0Q348 482 369.0 518.5Q390 555 390 598Q390 641 369.0 677.5Q348 714 311.5 735.0Q275 756 232 756Q189 756 152.5 735.0Q116 714 95.0 677.5Q74 641 74 598Q74 555 95.0 518.5Q116 482 152.5 461.0Q189 440 232 440ZM232 512Q196 512 171.0 537.0Q146 562 146 598Q146 634 171.0 659.0Q196 684 232 684Q268 684 293.0 659.0Q318 634 318 598Q318 562 293.0 537.0Q268 512 232 512ZM561 -5Q604 -5 640.5 16.0Q677 37 698.0 73.5Q719 110 719 153Q719 196 698.0 232.5Q677 269 640.5 290.0Q604 311 561 311Q518 311 481.5 290.0Q445 269 424.0 232.5Q403 196 403 153Q403 110 424.0 73.5Q445 37 481.5 16.0Q518 -5 561 -5ZM561 67Q525 67 500.0 92.0Q475 117 475 153Q475 189 500.0 214.0Q525 239 561 239Q597 239 622.0 214.0Q647 189 647 153Q647 117 622.0 92.0Q597 67 561 67Z" transform="translate(0, 880) scale(1,-1)" /></svg>