<svg xmlns="http://www.w3.org/2000/svg" width="540" height="1000"><path d="M278 464Q330 464 366.0 431.5Q402 399 411 340H501Q485 430 427.5 485.5Q370 541 276 541Q200 541 146.5 500.5Q93 460 67.0 396.5Q41 333 41 263Q41 192 67.5 130.5Q94 69 148.0 31.0Q202 -7 280 -7Q370 -7 428.0 44.5Q486 96 501 184H411Q405 132 369.5 101.0Q334 70 281 70Q229 70 195.0 98.0Q161 126 145.0 170.0Q129 214 129 262Q129 308 144.5 354.5Q160 401 193.5 432.5Q227 464 278 464ZM233 576H319L432 734H355ZM319 576 197 734H120L233 576Z" transform="translate(0, 880) scale(1,-1)" /></svg>