<svg xmlns="http://www.w3.org/2000/svg" width="770" height="1000"><path d="M385 -13Q492 -13 568.0 42.0Q644 97 682.5 185.5Q721 274 721 374Q721 475 682.5 565.0Q644 655 568.0 711.0Q492 767 385 767Q278 767 202.0 711.0Q126 655 87.5 565.5Q49 476 49 375Q49 274 87.5 185.0Q126 96 201.5 41.5Q277 -13 385 -13ZM141 374Q141 452 167.0 524.0Q193 596 248.0 642.5Q303 689 385 689Q467 689 522.0 642.5Q577 596 603.0 524.0Q629 452 629 374Q629 297 603.0 226.5Q577 156 522.0 110.5Q467 65 385 65Q303 65 248.0 110.5Q193 156 167.0 226.5Q141 297 141 374ZM245 837Q267 863 285.5 875.0Q304 887 321 887Q332 887 341.5 880.5Q351 874 368 859Q390 839 408.0 828.0Q426 817 449 817Q480 817 509.0 842.0Q538 867 561 901L525 941Q503 915 484.5 903.0Q466 891 449 891Q438 891 428.5 897.5Q419 904 402 919Q380 939 362.0 950.0Q344 961 321 961Q290 961 260.0 937.5Q230 914 209 882Z" transform="translate(0, 880) scale(1,-1)" /></svg>