<svg xmlns="http://www.w3.org/2000/svg" width="540" height="1000"><path d="M278 464C345 464 399 420 411 340H501C481 453 407 541 276 541C115 541 41 395 41 263C41 128 116 -7 280 -7C403 -7 481 69 501 184H411C403 115 352 70 281 70C171 70 129 173 129 262C129 346 169 464 278 464ZM192 -170 166 -223C189 -235 219 -242 255 -242C352 -242 395 -194 395 -144C395 -103 360 -56 286 -47L309 6H259L218 -68L228 -109C233 -108 243 -107 250 -107C309 -107 329 -130 329 -143C329 -162 307 -180 249 -180C224 -180 203 -177 192 -170Z" transform="translate(0, 880) scale(1,-1)" /></svg>