<svg xmlns="http://www.w3.org/2000/svg" width="569" height="1000"><path d="M504 526H416V445Q395 491 354.0 516.5Q313 542 258 542Q191 542 141.5 503.5Q92 465 66.5 402.0Q41 339 41 268Q41 195 66.5 132.0Q92 69 144.5 30.5Q197 -8 273 -8Q374 -8 416 67V-27Q416 -78 384.5 -118.5Q353 -159 289 -159Q254 -159 224.0 -144.0Q194 -129 176.5 -105.5Q159 -82 157 -56H69Q71 -107 102.5 -147.5Q134 -188 184.0 -210.5Q234 -233 290 -233Q353 -233 402.0 -208.0Q451 -183 477.5 -137.0Q504 -91 504 -31ZM416 166Q407 131 371.0 100.0Q335 69 280 69Q204 69 166.5 129.5Q129 190 129 274Q129 324 145.5 368.0Q162 412 194.5 439.0Q227 466 273 466Q312 466 343.5 447.5Q375 429 393.5 402.5Q412 376 416 352ZM362 711Q362 682 339.5 662.0Q317 642 285 642Q253 642 231.0 662.0Q209 682 209 711H132Q132 673 152.5 641.5Q173 610 208.0 591.5Q243 573 285 573Q327 573 362.0 591.5Q397 610 417.5 641.5Q438 673 438 711Z" transform="translate(0, 880) scale(1,-1)" /></svg>