<svg xmlns="http://www.w3.org/2000/svg" width="571" height="1000"><path d="M286 -12Q355 -12 411.0 23.0Q467 58 499.0 121.0Q531 184 531 264Q531 343 499.0 407.0Q467 471 411.0 507.0Q355 543 286 543Q216 543 160.0 507.0Q104 471 72.0 407.0Q40 343 40 264Q40 183 72.0 120.5Q104 58 160.0 23.0Q216 -12 286 -12ZM286 64Q238 64 202.0 91.5Q166 119 147.0 164.5Q128 210 128 264Q128 318 147.0 364.5Q166 411 202.0 439.0Q238 467 286 467Q333 467 369.0 439.0Q405 411 424.0 364.5Q443 318 443 264Q443 211 424.0 165.0Q405 119 369.0 91.5Q333 64 286 64ZM381 597Q406 597 423.0 614.0Q440 631 440 656Q440 681 423.0 698.0Q406 715 381 715Q356 715 339.0 698.0Q322 681 322 656Q322 631 339.0 614.0Q356 597 381 597ZM191 597Q216 597 233.0 614.0Q250 631 250 656Q250 681 233.0 698.0Q216 715 191 715Q166 715 149.0 698.0Q132 681 132 656Q132 631 149.0 614.0Q166 597 191 597Z" transform="translate(0, 880) scale(1,-1)" /></svg>