<svg xmlns="http://www.w3.org/2000/svg" width="687" height="1000"><path d="M623 211C623 299 568 368 461 387C553 416 604 483 604 571C604 703 477 770 346 770C214 770 86 703 86 571C86 483 138 411 230 387C129 368 64 304 64 211C64 63 199 -15 344 -15C491 -15 623 62 623 211ZM344 424C251 424 177 465 177 557C177 641 259 686 346 686C432 686 514 641 514 557C514 470 445 424 344 424ZM344 62C247 62 156 112 156 206C156 304 253 331 342 331C457 331 533 289 533 206C533 112 444 62 344 62Z" transform="translate(0, 880) scale(1,-1)" /></svg>