<svg xmlns="http://www.w3.org/2000/svg" width="422" height="1000"><path d="M372 331Q338 331 321.5 352.5Q305 374 301.0 407.0Q297 440 296 497Q294 586 282.0 642.5Q270 699 222.0 739.0Q174 779 73 778L72 734Q138 734 170.0 698.5Q202 663 211.0 613.5Q220 564 223 482Q225 425 229.0 391.0Q233 357 246.0 332.5Q259 308 286 303Q259 296 245.5 270.5Q232 245 228.0 211.5Q224 178 221 120Q218 41 209.5 -8.0Q201 -57 169.0 -91.5Q137 -126 72 -126L73 -170Q173 -171 221.0 -131.0Q269 -91 281.0 -35.0Q293 21 294 109Q295 168 299.5 200.0Q304 232 320.5 253.5Q337 275 372 275Z" transform="translate(0, 880) scale(1,-1)" /></svg>