<svg xmlns="http://www.w3.org/2000/svg" width="770" height="1000"><path d="M385 -13Q492 -13 568.0 42.0Q644 97 682.5 185.5Q721 274 721 374Q721 475 682.5 565.0Q644 655 568.0 711.0Q492 767 385 767Q278 767 202.0 711.0Q126 655 87.5 565.5Q49 476 49 375Q49 274 87.5 185.0Q126 96 201.5 41.5Q277 -13 385 -13ZM141 374Q141 452 167.0 524.0Q193 596 248.0 642.5Q303 689 385 689Q467 689 522.0 642.5Q577 596 603.0 524.0Q629 452 629 374Q629 297 603.0 226.5Q577 156 522.0 110.5Q467 65 385 65Q303 65 248.0 110.5Q193 156 167.0 226.5Q141 297 141 374ZM480 821Q505 821 522.0 838.0Q539 855 539 880Q539 905 522.0 922.0Q505 939 480 939Q455 939 438.0 922.0Q421 905 421 880Q421 855 438.0 838.0Q455 821 480 821ZM290 821Q315 821 332.0 838.0Q349 855 349 880Q349 905 332.0 922.0Q315 939 290 939Q265 939 248.0 922.0Q231 905 231 880Q231 855 248.0 838.0Q265 821 290 821Z" transform="translate(0, 880) scale(1,-1)" /></svg>