<svg xmlns="http://www.w3.org/2000/svg" width="600" height="1000"><path d="M153 800H65V-220H153V46Q210 -11 295 -11Q371 -11 426.5 26.0Q482 63 511.0 126.5Q540 190 540 268Q540 346 513.5 408.5Q487 471 437.5 506.5Q388 542 321 542Q272 542 223.5 513.0Q175 484 153 445ZM153 345Q157 374 182.0 402.0Q207 430 241.5 447.0Q276 464 306 464Q375 464 413.5 411.0Q452 358 452 274Q452 218 432.5 171.0Q413 124 376.0 95.5Q339 67 287 67Q245 67 209.5 86.5Q174 106 153 139Z" transform="translate(0, 880) scale(1,-1)" /></svg>