<svg xmlns="http://www.w3.org/2000/svg" width="700" height="1000"><path d="M543 251Q543 179 501.0 120.5Q459 62 350 62Q275 62 232.0 92.5Q189 123 173.0 165.0Q157 207 157 249V750H69V220Q69 146 105.5 93.0Q142 40 205.5 12.5Q269 -15 350 -15Q427 -15 491.5 13.0Q556 41 593.5 94.5Q631 148 631 220V750H543ZM445 821Q470 821 487.0 838.0Q504 855 504 880Q504 905 487.0 922.0Q470 939 445 939Q420 939 403.0 922.0Q386 905 386 880Q386 855 403.0 838.0Q420 821 445 821ZM255 821Q280 821 297.0 838.0Q314 855 314 880Q314 905 297.0 922.0Q280 939 255 939Q230 939 213.0 922.0Q196 905 196 880Q196 855 213.0 838.0Q230 821 255 821Z" transform="translate(0, 880) scale(1,-1)" /></svg>