<svg xmlns="http://www.w3.org/2000/svg" width="542" height="1000"><path d="M418 177Q411 139 377.0 105.0Q343 71 281 71Q230 71 196.0 98.0Q162 125 146.0 168.5Q130 212 132 261H500Q501 271 501 290Q501 356 476.0 413.5Q451 471 400.0 506.5Q349 542 275 542Q200 542 147.0 503.0Q94 464 67.5 401.0Q41 338 41 266Q41 193 67.5 131.0Q94 69 148.5 31.0Q203 -7 282 -7Q359 -7 418.5 34.0Q478 75 501 152ZM142 329Q157 388 190.5 426.0Q224 464 276 464Q342 464 375.5 427.0Q409 390 413 329ZM416 -158Q408 -163 387.0 -165.5Q366 -168 345 -168Q320 -168 305.0 -158.0Q290 -148 290 -128Q290 -85 363 16L323 36Q269 -18 241.0 -58.5Q213 -99 213 -134Q213 -176 244.0 -204.0Q275 -232 343 -232Q371 -232 398.0 -227.0Q425 -222 442 -213Z" transform="translate(0, 880) scale(1,-1)" /></svg>