<svg xmlns="http://www.w3.org/2000/svg" width="587" height="1000"><path d="M65 0H153V526H65ZM153 361Q181 415 221.0 444.0Q261 473 309 473Q386 473 409.5 429.5Q433 386 433 316V0H522V344Q522 439 473.5 491.5Q425 544 325 544Q250 544 199.5 506.0Q149 468 113 388ZM155 613Q177 639 195.5 651.0Q214 663 231 663Q242 663 251.5 656.5Q261 650 278 635Q300 615 318.0 604.0Q336 593 359 593Q390 593 419.0 618.0Q448 643 471 677L435 717Q413 691 394.5 679.0Q376 667 359 667Q348 667 338.5 673.5Q329 680 312 695Q290 715 272.0 726.0Q254 737 231 737Q200 737 170.0 713.5Q140 690 119 658Z" transform="translate(0, 880) scale(1,-1)" /></svg>