<svg xmlns="http://www.w3.org/2000/svg" width="542" height="1000"><path d="M501 152 418 177C411 138 374 71 281 71C175 71 128 166 132 261H500C512 394 443 542 275 542C118 542 41 405 41 266C41 126 117 -7 282 -7C381 -7 469 46 501 152ZM413 329H142C160 400 202 464 276 464C369 464 408 404 413 329ZM372 597C405 597 431 623 431 656C431 689 405 715 372 715C339 715 313 689 313 656C313 623 339 597 372 597ZM182 597C215 597 241 623 241 656C241 689 215 715 182 715C149 715 123 689 123 656C123 623 149 597 182 597Z" transform="translate(0, 880) scale(1,-1)" /></svg>