<svg xmlns="http://www.w3.org/2000/svg" width="571" height="1000"><path d="M286 -12C425 -12 531 100 531 264C531 425 425 543 286 543C145 543 40 425 40 264C40 100 145 -12 286 -12ZM286 64C186 64 128 158 128 264C128 371 186 467 286 467C384 467 443 371 443 264C443 159 384 64 286 64ZM381 597C414 597 440 623 440 656C440 689 414 715 381 715C348 715 322 689 322 656C322 623 348 597 381 597ZM191 597C224 597 250 623 250 656C250 689 224 715 191 715C158 715 132 689 132 656C132 623 158 597 191 597Z" transform="translate(0, 880) scale(1,-1)" /></svg>