<svg xmlns="http://www.w3.org/2000/svg" width="529" height="1000"><path d="M141 381Q145 421 180.0 444.0Q215 467 262 467Q316 467 343.0 444.0Q370 421 376 374V321H288Q176 321 108.5 277.5Q41 234 41 146Q41 98 67.0 64.0Q93 30 135.0 12.0Q177 -6 226 -6Q319 -6 377 69V0H464V360Q464 448 411.0 494.5Q358 541 266 541Q213 541 164.0 522.5Q115 504 84.0 467.5Q53 431 53 381ZM377 143Q354 106 315.0 84.5Q276 63 235 63Q194 63 162.5 87.5Q131 112 131 151Q131 202 178.5 227.0Q226 252 305 252H377ZM126 613Q148 639 166.5 651.0Q185 663 202 663Q213 663 222.5 656.5Q232 650 249 635Q271 615 289.0 604.0Q307 593 330 593Q361 593 390.0 618.0Q419 643 442 677L406 717Q384 691 365.5 679.0Q347 667 330 667Q319 667 309.5 673.5Q300 680 283 695Q261 715 243.0 726.0Q225 737 202 737Q171 737 141.0 713.5Q111 690 90 658Z" transform="translate(0, 880) scale(1,-1)" /></svg>