<svg xmlns="http://www.w3.org/2000/svg" width="559" height="1000"><path d="M222 538Q219 491 198.0 454.0Q177 417 136 364Q93 311 71.5 270.0Q50 229 50 178Q50 118 81.5 74.5Q113 31 165.0 8.0Q217 -15 276 -15Q344 -15 400.0 10.0Q456 35 489.5 82.5Q523 130 523 196H429Q427 137 383.5 102.5Q340 68 280 68Q219 68 181.5 98.5Q144 129 144 186Q144 217 161.5 247.5Q179 278 215 325Q262 385 287.5 432.5Q313 480 314 538ZM274 765Q245 765 224.5 744.5Q204 724 204 695Q204 666 224.5 645.5Q245 625 274 625Q303 625 323.5 645.5Q344 666 344 695Q344 724 323.5 744.5Q303 765 274 765Z" transform="translate(0, 880) scale(1,-1)" /></svg>