<svg xmlns="http://www.w3.org/2000/svg" width="529" height="1000"><path d="M141 381Q145 421 180.0 444.0Q215 467 262 467Q316 467 343.0 444.0Q370 421 376 374V321H288Q176 321 108.5 277.5Q41 234 41 146Q41 98 67.0 64.0Q93 30 135.0 12.0Q177 -6 226 -6Q319 -6 377 69V0H464V360Q464 448 411.0 494.5Q358 541 266 541Q213 541 164.0 522.5Q115 504 84.0 467.5Q53 431 53 381ZM377 143Q354 106 315.0 84.5Q276 63 235 63Q194 63 162.5 87.5Q131 112 131 151Q131 202 178.5 227.0Q226 252 305 252H377ZM266 583Q308 583 337.0 612.0Q366 641 366 683Q366 725 337.0 754.0Q308 783 266 783Q224 783 195.0 754.0Q166 725 166 683Q166 641 195.0 612.0Q224 583 266 583ZM266 633Q245 633 230.5 647.5Q216 662 216 683Q216 704 230.5 718.5Q245 733 266 733Q287 733 301.5 718.5Q316 704 316 683Q316 662 301.5 647.5Q287 633 266 633Z" transform="translate(0, 880) scale(1,-1)" /></svg>