<svg xmlns="http://www.w3.org/2000/svg" width="569" height="1000"><path d="M504 -31V526H416V445C389 505 333 542 258 542C118 542 41 407 41 268C41 128 113 -8 273 -8C336 -8 387 15 416 67V-27C416 -84 383 -159 289 -159C216 -159 160 -107 157 -56H69C74 -161 178 -233 290 -233C418 -233 504 -153 504 -31ZM416 352V166C406 129 362 69 280 69C170 69 129 176 129 274C129 370 177 466 273 466C357 466 409 396 416 352ZM438 711H362C362 672 327 642 285 642C242 642 209 672 209 711H132C132 634 200 573 285 573C371 573 438 634 438 711Z" transform="translate(0, 880) scale(1,-1)" /></svg>