<svg xmlns="http://www.w3.org/2000/svg" width="961" height="1000"><path d="M696 547H609V502Q586 527 551.0 541.0Q516 555 484 555Q406 555 352.0 519.0Q298 483 271.0 424.0Q244 365 244 297Q244 230 270.0 172.5Q296 115 345.5 79.5Q395 44 463 44Q508 44 548.0 62.5Q588 81 609 114V54H666Q789 54 853.0 123.5Q917 193 917 331Q917 450 865.0 545.5Q813 641 717.0 695.5Q621 750 495 750Q372 750 268.5 689.5Q165 629 104.5 526.0Q44 423 44 301Q44 178 104.5 74.5Q165 -29 268.5 -89.5Q372 -150 495 -150Q618 -150 724 -87L681 -19Q595 -70 495 -70Q394 -70 308.5 -20.0Q223 30 173.5 115.0Q124 200 124 301Q124 401 173.5 486.0Q223 571 308.5 620.5Q394 670 495 670Q599 670 676.5 626.0Q754 582 795.5 505.0Q837 428 837 331Q837 229 798.5 179.0Q760 129 696 129ZM609 195Q596 157 558.0 135.0Q520 113 479 113Q432 113 398.0 138.0Q364 163 347.0 204.0Q330 245 330 292Q330 341 347.5 384.5Q365 428 401.0 455.5Q437 483 491 483Q523 483 558.5 465.0Q594 447 609 416Z" transform="translate(0, 880) scale(1,-1)" /></svg>