<svg xmlns="http://www.w3.org/2000/svg" width="1014" height="1000"><path d="M631 0H736L988 750H896L685 110L543 750H471L329 110L118 750H26L278 0H383L507 559ZM602 821Q627 821 644.0 838.0Q661 855 661 880Q661 905 644.0 922.0Q627 939 602 939Q577 939 560.0 922.0Q543 905 543 880Q543 855 560.0 838.0Q577 821 602 821ZM412 821Q437 821 454.0 838.0Q471 855 471 880Q471 905 454.0 922.0Q437 939 412 939Q387 939 370.0 922.0Q353 905 353 880Q353 855 370.0 838.0Q387 821 412 821Z" transform="translate(0, 880) scale(1,-1)" /></svg>