<svg xmlns="http://www.w3.org/2000/svg" width="700" height="1000"><path d="M230 83Q261 36 312.0 11.0Q363 -14 427 -14Q491 -14 542.0 11.0Q593 36 622.0 84.0Q651 132 651 196Q651 239 637.5 270.0Q624 301 604.0 321.0Q584 341 552 365Q516 392 498.5 413.5Q481 435 481 467Q481 510 509.0 545.0Q537 580 607 633Q576 695 507.0 730.0Q438 765 350 765Q269 765 205.5 737.5Q142 710 105.5 657.0Q69 604 69 530V0H157V501Q157 543 173.0 585.0Q189 627 232.0 657.5Q275 688 350 688Q436 688 488 643Q441 609 413.5 564.0Q386 519 386 465Q386 427 398.0 400.0Q410 373 427.5 356.0Q445 339 474 318Q502 297 518.0 281.5Q534 266 545.0 242.5Q556 219 556 186Q556 126 521.5 96.0Q487 66 430 66Q392 66 363.5 84.0Q335 102 320 135Z" transform="translate(0, 880) scale(1,-1)" /></svg>