<svg xmlns="http://www.w3.org/2000/svg" width="1000" height="1000"><path d="M320 390V318C721 303 864 327 864 454C864 526 791 586 566 586C393 586 272 553 179 502L209 441C297 490 407 517 566 517C717 517 784 490 784 454C784 388 658 375 320 390ZM77 84H923V154H77ZM447 -72C522 -72 553 -37 553 34L554 453H479L478 44C478 15 468 -5 438 -5C406 -5 366 1 324 14V-60C360 -68 398 -72 447 -72ZM161 333H232V560H161ZM125 205H875V275H125ZM312 679 382 712C357 754 322 801 286 843L223 812C258 771 288 724 312 679ZM73 623H927V696H73ZM626 694 689 664C728 714 760 767 791 817L716 847C694 798 660 742 626 694Z" transform="translate(0, 880) scale(1,-1)" /></svg>