<svg xmlns="http://www.w3.org/2000/svg" width="1000" height="1000"><path d="M560 -51Q679 35 758.0 113.0Q837 191 885.0 289.5Q933 388 933 510Q933 619 880.0 679.0Q827 739 721 739Q602 739 496.5 681.0Q391 623 327.0 534.0Q263 445 263 358Q263 287 300.5 245.0Q338 203 399 203Q447 203 483.5 226.0Q520 249 540.0 288.0Q560 327 560 373Q560 436 534.5 482.0Q509 528 464.0 552.5Q419 577 362 577Q306 577 254.5 559.5Q203 542 176 521V456Q213 478 263.0 491.5Q313 505 362 505Q393 505 421.0 489.0Q449 473 466.5 443.0Q484 413 484 373Q484 327 457.5 301.5Q431 276 399 276Q370 276 355.5 298.0Q341 320 341 358Q341 426 392.5 499.0Q444 572 532.0 620.0Q620 668 721 668Q787 668 821.0 627.0Q855 586 855 510Q855 359 767.5 242.0Q680 125 514 9ZM96 -82Q142 2 159.0 121.0Q176 240 176 391V715H471V791H98V391Q98 258 85.0 147.5Q72 37 29 -44ZM954 -5Q880 106 804.5 197.0Q729 288 634 387L585 336Q684 224 753.5 136.0Q823 48 893 -64Z" transform="translate(0, 880) scale(1,-1)" /></svg>