<svg xmlns="http://www.w3.org/2000/svg" width="1000" height="1000"><path d="M633 -74Q716 -72 764.0 -16.0Q812 40 812 144Q812 238 758.5 286.0Q705 334 614 334Q560 334 511.5 320.0Q463 306 412 279Q483 354 530 459H740V530H260V459H452Q415 356 352 267Q343 254 328.0 241.5Q313 229 289 212L260 190L301 132Q388 200 460.0 230.0Q532 260 616 260Q680 260 709.5 231.5Q739 203 739 140Q739 72 708.0 32.0Q677 -8 630 -9Q600 -10 573.5 -3.5Q547 3 518 19V-57Q567 -76 633 -74ZM103 -30H176V736H103ZM443 599Q395 690 318 803L255 766Q338 648 382 562ZM956 269Q943 327 916.0 411.5Q889 496 860 564L791 540Q819 470 845.5 383.5Q872 297 883 241ZM625 567Q692 660 749 778L682 810Q637 706 560 600Z" transform="translate(0, 880) scale(1,-1)" /></svg>