<svg xmlns="http://www.w3.org/2000/svg" width="1000" height="1000"><path d="M333 208H554C698 208 854 253 854 399C854 520 732 571 543 571C370 571 256 530 164 465L205 407C293 471 390 503 543 503C712 503 777 450 777 398C777 308 666 274 549 274H333ZM64 -14 109 -78C380 -4 540 111 540 430H460C460 125 297 42 64 -14ZM151 250H223V547H151ZM872 -88 917 -19C818 35 713 89 604 142L557 82C664 29 769 -27 872 -88ZM269 611 338 649C314 695 258 762 202 812L137 777C191 728 246 658 269 611ZM460 559H540V841H460ZM651 645 717 611C764 654 825 724 870 783L795 818C760 762 699 691 651 645Z" transform="translate(0, 880) scale(1,-1)" /></svg>