<svg xmlns="http://www.w3.org/2000/svg" width="1000" height="1000"><path d="M399 64 466 22C566 88 673 213 673 342C673 427 616 503 503 503C385 503 338 431 338 357C338 278 408 219 546 219C758 219 882 332 882 538C882 689 800 801 585 801C382 801 283 748 190 688L228 618C322 674 429 716 585 716C731 716 791 644 791 538C791 394 712 292 546 292C462 292 426 316 426 357C426 393 449 427 503 427C553 427 584 396 584 342C584 222 505 138 399 64ZM161 788V262H247V788Z" transform="translate(0, 880) scale(1,-1)" /></svg>