<svg xmlns="http://www.w3.org/2000/svg" width="1000" height="1000"><path d="M514 9 560 -51C765 98 933 252 933 510C933 651 865 739 721 739C474 739 263 532 263 358C263 262 319 203 399 203C498 203 560 282 560 373C560 501 476 577 362 577C280 577 206 544 176 521V456C224 484 295 505 362 505C423 505 484 456 484 373C484 307 437 276 399 276C359 276 341 309 341 358C341 493 508 668 721 668C809 668 855 611 855 510C855 294 713 148 514 9ZM29 -44 96 -82C163 40 176 219 176 391V715H471V791H98V391C98 261 93 78 29 -44ZM893 -64 954 -5C848 154 746 270 634 387L585 336C695 212 790 101 893 -64Z" transform="translate(0, 880) scale(1,-1)" /></svg>