<svg xmlns="http://www.w3.org/2000/svg" width="1000" height="1000"><path d="M129 692V612H871V692ZM462 822V439H544V822ZM72 470V390H928V470ZM73 50 139 13C193 86 239 189 259 293L188 316C171 216 123 112 73 50ZM580 10C616 10 654 32 705 91L653 154C626 112 609 100 588 100C567 100 556 135 527 307L454 287C495 61 534 10 580 10ZM877 8 951 42C920 117 861 229 810 309L745 269C799 185 849 81 877 8ZM316 -79C368 -79 399 -48 399 7V416H322V16C322 4 314 -7 300 -7C267 -7 233 -4 197 7V-70C235 -77 270 -79 316 -79Z" transform="translate(0, 880) scale(1,-1)" /></svg>