<svg xmlns="http://www.w3.org/2000/svg" width="1000" height="1000"><path d="M255 -73Q307 -73 353.0 -42.0Q399 -11 427.0 43.5Q455 98 455 166Q455 258 429.0 317.0Q403 376 350 385Q429 438 491.0 498.0Q553 558 609 636L539 671Q434 505 291 405Q282 399 264.5 395.5Q247 392 225 390Q181 385 163 382V312Q223 327 281 327Q335 327 356.5 279.5Q378 232 378 166Q378 123 361.0 82.5Q344 42 315.5 17.0Q287 -8 253 -8Q209 -8 188.5 5.0Q168 18 168 45Q168 106 246.5 173.0Q325 240 446.0 293.0Q567 346 687 367Q671 338 619 290Q612 283 599.5 280.0Q587 277 567 275V206Q647 214 698 214Q819 214 819 172Q819 133 783.0 103.5Q747 74 677 44L713 13Q797 36 847.5 79.0Q898 122 898 172Q898 223 853.5 253.0Q809 283 727 283Q709 282 690 281Q769 360 811 415L742 450L722 431Q579 422 432.0 362.5Q285 303 189.5 216.5Q94 130 94 45Q94 -73 255 -73ZM869 -24Q740 41 579 102L548 40Q679 -5 836 -91ZM134 512Q191 584 229.5 657.5Q268 731 303 826L234 848Q206 764 169.0 694.0Q132 624 76 553ZM213 501H881V562H213ZM221 689H896V753H222Z" transform="translate(0, 880) scale(1,-1)" /></svg>