<svg xmlns="http://www.w3.org/2000/svg" width="1000" height="1000"><path d="M198 385Q463 521 883 544L873 617Q671 605 495.0 565.5Q319 526 225 478Q239 519 275.0 566.0Q311 613 375 685L439 759L382 804L348 792H106V716H295Q249 656 202.5 584.5Q156 513 124 444ZM371 -42Q526 65 526 152Q526 217 472.5 254.5Q419 292 334 292Q196 292 87 197L131 139Q170 173 223.0 195.5Q276 218 334 218Q378 218 411.0 198.0Q444 178 444 152Q444 98 327 25ZM932 4Q811 54 749.5 160.5Q688 267 668.0 423.5Q648 580 648 829H567Q567 575 592.5 400.0Q618 225 688.5 106.0Q759 -13 890 -62ZM580 130Q778 249 940 408L885 454Q737 304 526 188Z" transform="translate(0, 880) scale(1,-1)" /></svg>