<svg xmlns="http://www.w3.org/2000/svg" width="1000" height="1000"><path d="M467 339Q549 371 608.0 423.0Q667 475 667 529Q667 555 649.0 579.0Q631 603 594.0 618.0Q557 633 503 633Q422 633 383.0 604.5Q344 576 344 538Q344 513 366.5 492.0Q389 471 434.5 457.5Q480 444 546 444Q704 444 791.0 496.5Q878 549 878 642Q878 718 814.5 759.5Q751 801 599 801Q459 801 361.5 778.5Q264 756 183 717L221 660Q298 694 393.5 714.5Q489 735 599 735Q701 735 746.0 709.5Q791 684 791 642Q791 576 729.5 538.5Q668 501 546 501Q426 501 426 538Q426 556 445.5 567.0Q465 578 503 578Q541 578 562.5 565.5Q584 553 584 529Q584 479 540.0 443.5Q496 408 408 371ZM163 781V468H244V781ZM739 44Q830 44 879.0 96.5Q928 149 928 233Q928 393 595 393Q466 393 334.5 373.5Q203 354 99 325L116 258Q234 285 361.0 304.5Q488 324 595 324Q719 324 784.5 299.5Q850 275 850 233Q850 172 819.5 138.5Q789 105 735 105Q646 105 589 122V55Q617 49 650.0 46.5Q683 44 739 44ZM301 223V157H654V223ZM133 10V-63H867V10Z" transform="translate(0, 880) scale(1,-1)" /></svg>