<svg xmlns="http://www.w3.org/2000/svg" width="1000" height="1000"><path d="M181 286 206 297H874V370H264Q383 557 487 819L409 846Q364 728 304.5 604.0Q245 480 192 392Q177 369 150 359ZM135 -38Q191 10 244.0 78.0Q297 146 332 218L257 236Q226 171 176.5 110.0Q127 49 71 6ZM492 -71Q541 -71 562.0 -52.5Q583 -34 583 16V553H135V483H507V18Q507 6 500.0 1.5Q493 -3 477 -3Q429 -3 360 19V-58Q412 -71 492 -71ZM940 7Q910 53 850.0 117.0Q790 181 728 237L666 208Q725 154 784.0 87.0Q843 20 873 -27ZM98 656H902V727H98Z" transform="translate(0, 880) scale(1,-1)" /></svg>