<svg xmlns="http://www.w3.org/2000/svg" width="1000" height="1000"><path d="M210 587 278 622C261 673 216 745 176 799L110 768C147 716 188 638 210 587ZM474 613 549 639C536 696 501 770 465 832L394 807C427 746 460 669 474 613ZM691 611 759 590C801 646 846 723 879 788L800 819C775 754 731 672 691 611ZM36 -29 97 -77C213 31 232 194 231 308L229 492H744C746 142 772 -72 889 -72C944 -72 961 -23 968 108L913 115C911 35 905 3 889 3C833 3 817 250 820 568H155V308C155 201 145 73 36 -29ZM300 310H695V380H300ZM543 48V530H467L469 56C469 44 464 38 451 38C418 38 382 41 336 51V-25C381 -31 420 -34 457 -34C527 -34 543 -8 543 48ZM300 151H695V221H300Z" transform="translate(0, 880) scale(1,-1)" /></svg>