<svg xmlns="http://www.w3.org/2000/svg" width="1000" height="1000"><path d="M277 294C325 369 360 445 400 528L335 567C248 389 156 248 45 187L104 115C130 134 176 171 212 211C246 223 274 201 296 119L463 220L436 274L336 222C331 261 315 281 277 294ZM454 431 423 359C620 257 789 141 911 27L962 123C833 219 663 325 454 431ZM556 472 581 399C695 448 778 485 875 560L827 631C740 562 669 521 556 472ZM461 809 388 765C490 605 566 430 566 261C566 167 546 -2 471 -2C431 -2 393 6 355 26V-63C390 -75 430 -80 475 -80C593 -80 651 106 651 262C651 442 572 632 461 809Z" transform="translate(0, 880) scale(1,-1)" /></svg>