<svg xmlns="http://www.w3.org/2000/svg" width="1000" height="1000"><path d="M647 -65Q728 -65 789.0 -31.0Q850 3 882.5 61.0Q915 119 915 190Q915 394 588 394Q522 394 464 389Q548 420 647.5 460.5Q747 501 817 534L744 579L717 571H256V500H604Q503 452 299 371Q284 365 240 352L156 326L200 266Q380 327 569 327Q699 327 768.0 297.0Q837 267 837 189Q837 142 813.5 99.5Q790 57 745.0 30.0Q700 3 641 3Q555 3 473 25V-51Q549 -65 647 -65ZM158 55Q264 102 341.5 160.5Q419 219 458 281L386 303Q319 187 103 104ZM235 -60Q397 -8 509.0 75.5Q621 159 655 278L586 298Q550 194 440.5 113.5Q331 33 183 -10ZM123 455Q184 537 227.5 627.5Q271 718 310 834L243 849Q173 638 64 497ZM211 655H887V724H211Z" transform="translate(0, 880) scale(1,-1)" /></svg>