<svg xmlns="http://www.w3.org/2000/svg" width="1000" height="1000"><path d="M341 467Q476 525 602.5 603.5Q729 682 802 753L753 797L737 791H206V716H643Q592 669 491.0 613.5Q390 558 260 507ZM691 -80Q810 -80 868.5 19.0Q927 118 927 280Q927 427 844.5 493.5Q762 560 603 560Q475 560 341.0 526.0Q207 492 113 446L143 376Q238 419 364.0 449.0Q490 479 603 479Q722 479 780.5 427.5Q839 376 839 280Q839 147 802.0 70.5Q765 -6 686 -6Q567 -6 498 16V-66Q567 -80 691 -80ZM254 60Q380 131 508.5 227.0Q637 323 691 382L621 428Q568 368 442.5 273.5Q317 179 193 113ZM660 178Q592 228 506.5 283.0Q421 338 357 370L308 318Q380 279 465.5 222.5Q551 166 608 119Z" transform="translate(0, 880) scale(1,-1)" /></svg>