<svg xmlns="http://www.w3.org/2000/svg" width="1000" height="1000"><path d="M102 -76Q262 -34 356.0 34.5Q450 103 495.0 199.5Q540 296 555 438H474Q458 308 417.5 224.0Q377 140 293.5 84.0Q210 28 65 -5ZM106 426 484 498 474 570 92 497ZM68 250H932V326H68ZM928 -15Q862 33 775.0 83.5Q688 134 603 172L558 110Q642 71 726.5 20.0Q811 -31 875 -80ZM300 492Q346 541 396.0 612.0Q446 683 487 754L420 792L396 776H116V699H368Q313 598 237 515ZM564 455H894V525H753V808H675V525H564Z" transform="translate(0, 880) scale(1,-1)" /></svg>