<svg xmlns="http://www.w3.org/2000/svg" width="1000" height="1000"><path d="M633 -74C741 -71 811 3 811 144C811 274 730 333 614 333C540 333 477 313 412 278C461 330 498 390 530 461H740V529H260V461H452C431 403 400 334 352 266C335 241 299 219 260 189L301 133C414 221 501 261 616 261C701 261 742 225 742 140C742 46 690 -10 630 -11C590 -12 557 -4 518 17V-57C557 -72 594 -75 633 -74ZM104 -30H175V736H104ZM382 562 442 599C404 671 364 734 317 803L255 766C302 699 344 636 382 562ZM884 241 955 269C939 340 900 468 859 564L792 540C831 444 870 313 884 241ZM625 567C672 632 711 699 749 778L683 810C650 733 607 663 561 600Z" transform="translate(0, 880) scale(1,-1)" /></svg>