<svg xmlns="http://www.w3.org/2000/svg" width="1000" height="1000"><path d="M624 -33H937V38H819V753H742V38H624ZM56 147 114 107 130 136 646 265 624 322 167 215C184 253 203 303 220 355L156 371C132 298 99 218 56 147ZM316 -72C368 -72 403 -51 403 17V825H327V37C327 13 313 0 295 0C262 0 227 4 181 18V-60C228 -69 271 -72 316 -72ZM82 432H629V503H82ZM179 552 250 571C238 624 202 704 161 766L89 749C129 688 168 605 179 552ZM440 568 508 549C546 601 593 684 629 752L547 773C523 711 479 622 440 568Z" transform="translate(0, 880) scale(1,-1)" /></svg>