<svg xmlns="http://www.w3.org/2000/svg" width="1000" height="1000"><path d="M654 -60Q734 -60 793.5 -21.5Q853 17 885.0 85.5Q917 154 917 241Q917 473 588 473Q503 473 435 463Q504 517 609.0 606.0Q714 695 802 775L753 823L726 815H246V741H648Q585 673 485.5 585.5Q386 498 305 442Q292 433 220 403Q150 374 136 367L180 306Q269 350 370.0 377.0Q471 404 569 404Q693 404 764.5 364.0Q836 324 836 239Q836 174 813.5 122.5Q791 71 748.0 41.5Q705 12 646 12Q550 12 473 41V-41Q546 -60 654 -60ZM260 31Q308 31 389.5 81.5Q471 132 554.5 204.5Q638 277 690 336L625 382Q580 326 510.5 261.5Q441 197 376.5 152.5Q312 108 279 108Q264 108 251.5 129.0Q239 150 234 182L160 166Q175 96 197.0 63.5Q219 31 260 31ZM634 130Q592 180 521.5 240.5Q451 301 390 341L337 289Q394 252 465.0 188.0Q536 124 577 75ZM82 561H918V636H82Z" transform="translate(0, 880) scale(1,-1)" /></svg>