<svg xmlns="http://www.w3.org/2000/svg" width="1000" height="1000"><path d="M243 -73C348 -73 455 27 455 166C455 282 424 372 350 385C455 456 534 532 609 636L539 671C472 565 391 475 291 405C271 391 225 393 163 382V312C195 320 233 327 281 327C361 327 378 237 378 166C378 79 313 -5 243 -5C193 -5 168 15 168 49C168 176 448 325 687 367C673 342 648 317 619 290C608 279 586 277 567 275V206C717 222 819 217 819 172C819 115 758 79 677 44L713 13C824 44 898 105 898 172C898 245 824 292 690 281C744 335 782 377 811 415L742 450L722 431C433 413 94 224 94 49C94 -23 146 -73 243 -73ZM836 -91 869 -24C778 22 669 68 579 102L548 40C642 8 747 -42 836 -91ZM76 553 138 512C220 615 265 713 307 826L234 848C198 738 152 649 76 553ZM213 499H881V564H213ZM221 685H896V753H222Z" transform="translate(0, 880) scale(1,-1)" /></svg>