<svg xmlns="http://www.w3.org/2000/svg" width="1000" height="1000"><path d="M107 641 172 603C227 667 280 744 323 822L256 851C217 772 164 701 107 641ZM291 -74C428 -74 451 155 451 409C451 603 401 681 294 681C203 681 128 663 82 641L92 570C143 592 214 605 294 605C356 605 373 528 373 409C373 172 347 -3 285 -3C254 -3 226 2 193 18V-62C226 -70 254 -74 291 -74ZM430 411 400 482C214 385 21 275 21 109C21 34 66 5 110 5C225 5 239 221 246 519L168 521C164 250 146 83 114 83C99 83 92 95 92 112C92 211 256 327 430 411Z" transform="translate(0, 880) scale(1,-1)" /></svg>