<svg xmlns="http://www.w3.org/2000/svg" width="1000" height="1000"><path d="M633 -74C741 -71 812 3 812 144C812 274 730 334 614 334C540 334 477 314 412 279C461 331 498 388 530 459H740V530H260V459H452C431 401 400 335 352 267C335 242 299 220 260 190L301 132C414 220 501 260 616 260C701 260 739 225 739 140C739 46 690 -8 630 -9C590 -10 557 -2 518 19V-57C557 -72 594 -75 633 -74ZM103 -30H176V736H103ZM382 562 443 599C405 671 365 734 318 803L255 766C302 699 344 636 382 562ZM883 241 956 269C940 340 901 468 860 564L791 540C830 444 869 313 883 241ZM560 600 625 567C672 632 711 699 749 778L682 810C649 733 606 663 560 600Z" transform="translate(0, 880) scale(1,-1)" /></svg>