<svg xmlns="http://www.w3.org/2000/svg" width="1000" height="1000"><path d="M51 169 70 95 485 184 466 258ZM274 -82C324 -82 349 -57 349 3V525H273V4C273 -9 267 -13 251 -13C226 -13 195 -9 154 4L155 -71C197 -79 235 -82 274 -82ZM147 587 93 437C88 423 81 415 70 410L104 340L128 347H435V420H164L222 587H474V660H64V587ZM176 659 246 685C232 723 204 783 174 829L108 802C136 756 164 699 176 659ZM299 685 353 652C389 706 417 756 442 810L368 836C351 783 328 732 299 685Z" transform="translate(0, 880) scale(1,-1)" /></svg>