<svg xmlns="http://www.w3.org/2000/svg" width="1000" height="1000"><path d="M633 -69Q716 -67 764.0 -11.0Q812 45 812 149Q812 243 758.5 291.0Q705 339 614 339Q560 339 511.5 325.0Q463 311 412 284Q483 359 530 464H740V535H260V464H452Q415 361 352 272Q343 259 328.0 246.5Q313 234 289 217L260 195L301 137Q388 205 460.0 235.0Q532 265 616 265Q680 265 709.5 236.5Q739 208 739 145Q739 77 708.0 37.0Q677 -3 630 -4Q600 -5 573.5 1.5Q547 8 518 24V-52Q567 -71 633 -69ZM103 -25H176V741H103ZM443 604Q395 695 318 808L255 771Q338 653 382 567ZM956 274Q943 332 916.0 416.5Q889 501 860 569L791 545Q819 475 845.5 388.5Q872 302 883 246ZM625 572Q692 665 749 783L682 815Q637 711 560 605Z" transform="translate(0, 880) scale(1,-1)" /></svg>