<svg xmlns="http://www.w3.org/2000/svg" width="1000" height="1000"><path d="M277 294C325 369 360 445 400 528L335 567C248 389 156 248 45 187L104 115C130 134 176 171 212 211C246 223 274 201 296 119L463 220L436 274L336 222C331 261 315 281 277 294ZM453 427 417 364C614 258 783 142 905 32L961 105C832 206 662 316 453 427ZM554 470 581 399C695 448 778 485 875 560L825 629C738 560 667 519 554 470ZM461 809 388 765C490 605 566 430 566 261C566 167 546 -2 471 -2C431 -2 393 6 355 26V-63C390 -75 430 -80 475 -80C603 -80 651 96 651 262C651 442 572 632 461 809Z" transform="translate(0, 880) scale(1,-1)" /></svg>