<svg xmlns="http://www.w3.org/2000/svg" width="1000" height="1000"><path d="M633 -69C741 -66 812 8 812 149C812 279 730 339 614 339C540 339 477 319 412 284C461 336 498 393 530 464H740V535H260V464H452C431 406 400 340 352 272C335 247 299 225 260 195L301 137C414 225 501 265 616 265C701 265 739 230 739 145C739 51 690 -3 630 -4C590 -5 557 3 518 24V-52C557 -67 594 -70 633 -69ZM103 -25H176V741H103ZM382 567 443 604C405 676 365 739 318 808L255 771C302 704 344 641 382 567ZM883 246 956 274C940 345 901 473 860 569L791 545C830 449 869 318 883 246ZM560 605 625 572C672 637 711 704 749 783L682 815C649 738 606 668 560 605Z" transform="translate(0, 880) scale(1,-1)" /></svg>