<svg xmlns="http://www.w3.org/2000/svg" width="1000" height="1000"><path d="M234 -17H590C652 -17 705 27 705 108C705 185 654 287 594 373L523 342C586 253 627 165 627 116C627 84 610 62 579 62H234C195 62 167 89 167 127C167 295 230 530 339 742L263 771C142 550 84 304 84 101C84 16 138 -17 234 -17ZM816 153 891 132C910 202 922 282 922 425C922 553 833 627 719 627C602 627 511 603 424 550L448 473C530 525 627 548 719 548C793 548 845 495 845 411C845 297 834 224 816 153Z" transform="translate(0, 880) scale(1,-1)" /></svg>