<svg xmlns="http://www.w3.org/2000/svg" width="1000" height="1000"><path d="M500 -60Q916 199 916 465Q916 557 877.0 602.0Q838 647 754 647Q657 647 494.0 548.0Q331 449 207.0 314.5Q83 180 83 80Q83 10 122.0 -18.0Q161 -46 232 -46Q284 -46 337.5 -5.0Q391 36 425.5 106.0Q460 176 460 256Q460 491 262 491Q242 491 218 488V645H563V719H218V814H146V479L129 459L141 400Q178 411 205.5 416.5Q233 422 266 422Q319 422 351.5 381.5Q384 341 384 256Q384 191 356.0 138.5Q328 86 291.5 56.0Q255 26 232 26Q199 26 180.0 40.0Q161 54 161 84Q161 165 274.5 281.0Q388 397 533.0 485.0Q678 573 754 573Q798 573 818.0 548.0Q838 523 838 465Q838 390 791.5 307.5Q745 225 658.0 146.0Q571 67 454 2ZM954 -3Q807 185 581 380L526 334Q631 240 725.5 137.0Q820 34 893 -64Z" transform="translate(0, 880) scale(1,-1)" /></svg>