<svg xmlns="http://www.w3.org/2000/svg" width="1000" height="1000"><path d="M201 -68Q269 -68 322.0 -37.0Q375 -6 405.5 56.5Q436 119 436 209Q436 312 395.5 370.5Q355 429 251 429Q208 429 167.0 417.0Q126 405 96 387L112 325Q139 341 177.5 351.0Q216 361 253 361Q313 361 335.0 320.0Q357 279 357 197Q357 141 337.0 96.5Q317 52 282.0 27.5Q247 3 203 3Q182 3 169.0 15.0Q156 27 156 46Q156 106 260.0 185.0Q364 264 498.5 323.0Q633 382 704 382Q770 382 798.5 347.5Q827 313 827 243Q827 140 791.0 72.0Q755 4 673 4Q643 4 595.0 13.5Q547 23 493 40V-36Q594 -64 679 -64Q799 -64 853.5 22.0Q908 108 908 243Q908 341 861.0 397.0Q814 453 711 453Q618 453 464.5 385.5Q311 318 195.5 220.5Q80 123 80 36Q80 -14 115.0 -41.0Q150 -68 201 -68ZM749 135Q617 173 516 187L502 133Q634 110 734 80ZM148 511H219V804H148ZM759 265Q646 294 534 309L521 255Q625 240 744 208ZM353 356Q437 426 486.5 507.5Q536 589 536 675L465 674Q465 593 420.5 525.0Q376 457 297 386ZM313 502H482Q616 502 719.5 539.5Q823 577 823 673Q823 817 537 817Q421 817 339.0 795.0Q257 773 170 727L201 673Q359 754 537 754Q632 754 688.0 730.0Q744 706 744 670Q744 617 662.5 591.5Q581 566 482 566H313Z" transform="translate(0, 880) scale(1,-1)" /></svg>