<svg xmlns="http://www.w3.org/2000/svg" width="1000" height="1000"><path d="M536 365C773 365 875 468 875 573C875 681 783 754 624 754C482 754 396 719 298 645C328 702 355 766 374 836L290 853C246 703 163 558 68 463L136 414C188 472 219 515 245 556C362 639 505 678 616 678C729 678 786 623 786 573C786 494 726 441 536 441C472 441 436 455 436 478C436 498 459 517 513 517C563 517 594 497 594 466C594 371 525 325 419 266L476 213C586 275 683 354 683 466C683 533 626 590 513 590C395 590 348 536 348 478C348 415 408 365 536 365Z" transform="translate(0, 880) scale(1,-1)" /></svg>