<svg xmlns="http://www.w3.org/2000/svg" width="1000" height="1000"><path d="M304 22H486C571 73 611 172 611 262C611 359 561 418 462 418C378 418 306 369 306 281C306 190 383 145 463 145C488 145 509 150 529 163C497 98 417 43 304 22ZM89 -52H911V22H89ZM461 214C416 214 378 242 378 281C378 322 417 346 462 346C500 346 536 320 536 287C536 242 501 214 461 214ZM133 421 200 389C271 467 314 552 344 637L262 654C242 577 203 497 133 421ZM565 322V754H480V387ZM118 719H882V789H118ZM801 389 875 423C847 502 802 577 728 661L665 631C737 544 776 468 801 389Z" transform="translate(0, 880) scale(1,-1)" /></svg>