<svg xmlns="http://www.w3.org/2000/svg" width="1000" height="1000"><path d="M878 -71 915 -2C718 41 514 167 348 167C247 167 164 119 164 48C164 -26 259 -65 344 -65C460 -65 799 56 799 193C799 293 693 321 567 321C484 321 414 310 359 295C384 314 401 334 424 361L355 394C290 317 199 254 85 203L127 149C185 178 249 213 274 220C362 244 459 255 561 255C647 255 718 237 718 193C718 117 427 -2 335 -2C289 -2 242 12 242 47C242 86 282 103 341 103C484 103 689 -20 878 -71ZM643 363C792 363 875 445 874 556C873 697 774 770 578 770C451 770 352 734 264 677C293 713 312 758 343 812L264 835C225 734 165 644 91 560L168 527C189 555 211 585 244 608C328 668 452 702 578 701C711 700 787 651 787 557C787 479 736 430 634 430C581 430 519 435 475 445V372C525 366 575 363 643 363ZM274 408C438 482 617 583 678 627L632 679C572 636 389 532 233 463ZM620 454 665 508C581 552 462 606 377 636L336 588C423 552 547 494 620 454Z" transform="translate(0, 880) scale(1,-1)" /></svg>