<svg xmlns="http://www.w3.org/2000/svg" width="1000" height="1000"><path d="M108 398Q348 452 538.0 543.0Q728 634 814 747L763 796L740 783H266V718H682Q636 667 542.5 617.5Q449 568 324.5 527.0Q200 486 64 462ZM78 -54H920V13H78ZM135 173Q188 230 238.5 296.5Q289 363 328 427L255 438Q173 306 75 215ZM609 13Q663 43 692.5 76.0Q722 109 722 151Q722 203 665.5 236.0Q609 269 512 269Q397 269 336.5 243.0Q276 217 276 165Q276 119 319.5 89.0Q363 59 440 59Q490 59 519.5 84.5Q549 110 549 142V327H474V162Q474 143 459.5 132.5Q445 122 423 122Q402 122 377.5 135.0Q353 148 353 165Q353 186 389.5 196.5Q426 207 512 207Q573 207 608.0 189.5Q643 172 643 149Q643 118 616.0 85.5Q589 53 514 13ZM243 327H807V390H243ZM117 543Q189 593 260.5 673.5Q332 754 369 833L293 850Q257 772 185.5 696.0Q114 620 48 580ZM914 466Q798 511 631.5 559.0Q465 607 305 639L269 581Q434 548 597.0 500.5Q760 453 870 408Z" transform="translate(0, 880) scale(1,-1)" /></svg>