<svg xmlns="http://www.w3.org/2000/svg" width="1000" height="1000"><path d="M203 -41Q304 -41 351.0 46.0Q398 133 398 283Q398 412 364.5 475.0Q331 538 254 542Q312 589 369.0 646.0Q426 703 465 758L404 793L388 788H81V715H337Q308 677 266.5 634.5Q225 592 185 559Q167 545 149 545V482Q174 486 199 486Q252 486 278.0 462.0Q304 438 312.0 396.0Q320 354 320 283Q320 39 203 39Q173 39 156.5 54.0Q140 69 140 95Q140 205 244.0 333.0Q348 461 523.0 569.0Q698 677 901 729L881 805Q672 753 483.5 635.5Q295 518 180.0 371.5Q65 225 65 89Q65 28 103.5 -6.5Q142 -41 203 -41ZM494 3Q522 103 543.5 223.0Q565 343 576 452L508 461Q497 356 476.0 239.0Q455 122 429 28ZM710 -55Q738 -55 763.5 -45.0Q789 -35 819 -12V86Q788 57 764.5 43.5Q741 30 720 30Q709 30 704.5 36.0Q700 42 700 59V573H630V48Q630 -4 653.5 -29.5Q677 -55 710 -55ZM966 25Q908 344 848 567L783 540Q848 296 899 -8Z" transform="translate(0, 880) scale(1,-1)" /></svg>