<svg xmlns="http://www.w3.org/2000/svg" width="1000" height="1000"><path d="M107 -78Q162 24 179.5 159.5Q197 295 197 452V656H942V729H596L541 848L468 828L511 729H121V452Q121 305 104.5 179.0Q88 53 36 -44ZM218 -52H910V18H218ZM590 18Q666 70 666 167Q666 216 634.5 248.5Q603 281 557 281Q496 281 458.0 253.5Q420 226 420 179Q420 131 455.5 105.5Q491 80 547 80Q568 80 594 97Q577 64 542.0 46.5Q507 29 443 18ZM545 136Q520 136 503.0 147.5Q486 159 486 179Q486 200 503.5 213.0Q521 226 546 226Q567 226 583.0 213.5Q599 201 599 184Q599 162 583.5 149.0Q568 136 545 136ZM635 202V477H558V255ZM410 345Q504 343 541 343Q663 343 739.5 355.0Q816 367 854.5 397.0Q893 427 893 480Q893 542 833.0 580.5Q773 619 634 619Q516 619 424.0 590.5Q332 562 246 511L266 454Q343 497 441.0 523.0Q539 549 634 549Q723 549 767.5 530.5Q812 512 812 480Q812 446 751.0 427.0Q690 408 565 408Q499 408 410 414Z" transform="translate(0, 880) scale(1,-1)" /></svg>