<svg xmlns="http://www.w3.org/2000/svg" width="1000" height="1000"><path d="M500 240Q538 240 570.5 258.5Q603 277 621.5 309.5Q640 342 640 380Q640 418 621.5 450.5Q603 483 570.5 501.5Q538 520 500 520Q462 520 429.5 501.5Q397 483 378.5 450.5Q360 418 360 380Q360 342 378.5 309.5Q397 277 429.5 258.5Q462 240 500 240ZM500 310Q471 310 450.5 330.5Q430 351 430 380Q430 409 450.5 429.5Q471 450 500 450Q529 450 549.5 429.5Q570 409 570 380Q570 351 549.5 330.5Q529 310 500 310Z" transform="translate(0, 880) scale(1,-1)" /></svg>