<svg xmlns="http://www.w3.org/2000/svg" width="1000" height="1000"><path d="M788 -62Q840 -62 868.5 -42.0Q897 -22 911.0 22.0Q925 66 932 147L857 166Q854 100 847.0 69.0Q840 38 826.0 26.5Q812 15 784 15H425Q386 15 372.5 28.0Q359 41 359 80V570H281V82Q281 23 294.0 -7.5Q307 -38 337.5 -50.0Q368 -62 425 -62ZM613 127Q685 165 726.0 198.0Q767 231 787.0 270.5Q807 310 807 366Q807 401 785.0 436.0Q763 471 715.5 495.0Q668 519 596 519Q352 519 76 256L120 193Q232 307 358.5 375.0Q485 443 598 443Q667 443 696.0 420.0Q725 397 725 362Q725 319 688.5 276.0Q652 233 574 195ZM113 446Q179 520 231.0 621.5Q283 723 315 833L243 850Q212 743 160.5 647.5Q109 552 48 489ZM207 636H907V713H207Z" transform="translate(0, 880) scale(1,-1)" /></svg>