<svg xmlns="http://www.w3.org/2000/svg" width="1000" height="1000"><path d="M539 -78Q704 23 801.5 203.5Q899 384 911 650L849 674L830 658H612V588H829Q813 373 731.0 226.0Q649 79 486 -24ZM230 -70Q300 -70 366.0 -30.0Q432 10 474.0 84.0Q516 158 516 253Q516 346 464.5 392.0Q413 438 308 438Q253 438 175 424L185 362Q246 372 294 372Q375 372 407.0 341.5Q439 311 439 252Q439 188 406.5 130.5Q374 73 325.0 38.5Q276 4 230 4Q151 4 151 56Q151 91 186.0 132.0Q221 173 288.5 212.0Q356 251 450 278L420 335Q316 307 236.5 260.5Q157 214 113.5 160.5Q70 107 70 57Q70 -1 108.0 -35.5Q146 -70 230 -70ZM164 286Q191 325 223.5 386.0Q256 447 280 506L210 531Q190 471 160.5 410.5Q131 350 103 309ZM950 -23Q894 68 801.0 180.0Q708 292 609 390L556 349Q646 255 736.5 137.5Q827 20 884 -75ZM108 498H446V573H313V848H241V573H108ZM73 654H481V724H73ZM580 431Q652 597 681 811L602 818Q588 704 565.0 617.5Q542 531 507 455Z" transform="translate(0, 880) scale(1,-1)" /></svg>