<svg xmlns="http://www.w3.org/2000/svg" width="1000" height="1000"><path d="M950 7Q893 20 840.0 39.5Q787 59 688 99Q569 148 494.0 172.0Q419 196 352 196Q298 196 253.0 179.0Q208 162 181.5 132.0Q155 102 155 63Q155 24 183.0 -5.0Q211 -34 255.0 -49.0Q299 -64 346 -64Q413 -64 531.0 -21.5Q649 21 739.0 88.0Q829 155 829 226Q829 369 583 369Q463 369 362 340Q394 365 430 414L358 451Q255 324 71 237L116 176L141 190Q251 249 273 256Q406 295 575 295Q650 295 696.5 278.0Q743 261 743 226Q743 186 664.5 134.5Q586 83 485.5 45.0Q385 7 336 7Q295 7 266.5 20.5Q238 34 238 62Q238 93 266.5 108.5Q295 124 343 124Q403 124 476.5 99.0Q550 74 667 23Q743 -10 800.0 -33.0Q857 -56 911 -71ZM223 447H781V512H223ZM105 506Q328 549 508.0 617.0Q688 685 834 800L762 840Q666 762 556.0 710.5Q446 659 331.0 628.0Q216 597 65 568ZM887 558Q743 631 538.5 697.5Q334 764 155 805L108 750Q294 707 494.0 639.5Q694 572 833 498Z" transform="translate(0, 880) scale(1,-1)" /></svg>