<svg xmlns="http://www.w3.org/2000/svg" width="1000" height="1000"><path d="M454 -71Q548 -71 592.5 -10.0Q637 51 637 168Q637 261 577.0 356.5Q517 452 425 511L364 458Q450 397 502.5 319.0Q555 241 555 168Q555 84 528.5 42.5Q502 1 443 1Q378 1 310 21V-59Q370 -71 454 -71ZM106 50Q173 98 233.0 158.0Q293 218 337 283L264 319Q227 262 171.5 204.0Q116 146 52 98ZM290 366Q378 429 434.5 495.5Q491 562 527.5 636.0Q564 710 601 818L520 843Q480 697 415.0 600.0Q350 503 232 416ZM936 85Q911 158 871.0 233.5Q831 309 785 371L713 340Q757 278 795.5 201.0Q834 124 858 50ZM85 591H905V664H85Z" transform="translate(0, 880) scale(1,-1)" /></svg>