<svg xmlns="http://www.w3.org/2000/svg" width="1000" height="1000"><path d="M782 -80Q822 -80 845.0 -62.5Q868 -45 880.0 -5.0Q892 35 898 107L818 119Q816 -5 766 -5H424Q384 -5 384 10Q384 17 405.5 33.5Q427 50 502.5 96.5Q578 143 740 240L690 297L654 283H549L764 427L705 491L679 479Q389 463 231.0 404.5Q73 346 73 256Q73 209 102.5 184.5Q132 160 187 160Q251 160 300.5 194.0Q350 228 414.0 311.5Q478 395 633 616L700 712L641 764L619 752H332V679H583Q456 491 384.5 396.0Q313 301 268.5 263.0Q224 225 187 225Q166 225 155.0 234.0Q144 243 144 256Q144 289 204.0 321.5Q264 354 373.0 376.5Q482 399 621 403L422 265L465 208L567 210Q431 133 368.5 92.5Q306 52 288.5 31.0Q271 10 271 -13Q271 -42 295.5 -61.0Q320 -80 360 -80ZM165 457Q248 536 315.0 625.5Q382 715 445 823L368 850Q320 757 251.5 668.5Q183 580 104 513ZM955 244Q941 284 913.5 331.5Q886 379 855 418L794 382Q824 341 850.5 292.0Q877 243 889 203Z" transform="translate(0, 880) scale(1,-1)" /></svg>