<svg xmlns="http://www.w3.org/2000/svg" width="1000" height="1000"><path d="M606 -71Q690 -71 758.0 -32.5Q826 6 865.0 78.5Q904 151 904 248Q904 350 858.0 420.5Q812 491 740.0 525.0Q668 559 590 559Q497 559 426.5 547.0Q356 535 279.5 505.0Q203 475 89 416L128 342Q228 404 303.5 434.0Q379 464 438.0 472.0Q497 480 577 480Q633 480 690.5 453.5Q748 427 786.5 374.5Q825 322 825 248Q825 172 793.5 116.0Q762 60 710.5 31.0Q659 2 599 2Q528 2 464 17V-58Q529 -71 606 -71ZM197 137Q236 176 265.5 221.5Q295 267 326 327L252 347Q202 241 134 167ZM419 86H496V390H419ZM324 615Q304 657 269.0 705.5Q234 754 191 797L120 773Q162 730 196.0 679.5Q230 629 249 585ZM764 182Q714 268 640 354L575 319Q643 241 700 142ZM458 498H540V840H458ZM738 579Q810 655 882 781L801 805Q779 754 744.5 699.5Q710 645 673 603Z" transform="translate(0, 880) scale(1,-1)" /></svg>