<svg xmlns="http://www.w3.org/2000/svg" width="1000" height="1000"><path d="M606 -71C773 -71 904 48 904 248C904 465 736 560 588 559C408 558 308 529 89 416L128 342C339 473 443 480 577 480C682 480 825 406 825 248C825 89 716 2 599 2C551 2 511 6 464 17V-58C509 -67 548 -71 606 -71ZM197 137C254 194 292 261 326 327L252 347C223 285 185 222 134 167ZM419 86H496V390H419ZM249 585 324 615C299 669 251 738 191 797L120 773C178 713 225 641 249 585ZM700 142 764 182C733 235 688 298 640 354L575 319C627 259 667 199 700 142ZM458 498H540V840H458ZM738 579C789 633 839 706 882 781L801 805C772 737 722 659 673 603Z" transform="translate(0, 880) scale(1,-1)" /></svg>