<svg xmlns="http://www.w3.org/2000/svg" width="1000" height="1000"><path d="M241 626H162V83Q162 25 180.0 -5.0Q198 -35 238.0 -46.5Q278 -58 353 -58H735Q808 -58 849.5 -36.5Q891 -15 913.0 33.5Q935 82 947 171L860 186Q852 113 840.5 78.5Q829 44 806.0 32.0Q783 20 736 20H353Q305 20 282.0 25.0Q259 30 250.0 43.0Q241 56 241 83ZM705 350Q751 350 781.5 392.0Q812 434 830.5 525.5Q849 617 858 768L796 789L776 777H130V700H770Q763 552 739.0 489.5Q715 427 677 427Q609 427 554.5 434.5Q500 442 430 457V373Q565 350 705 350Z" transform="translate(0, 880) scale(1,-1)" /></svg>