<svg xmlns="http://www.w3.org/2000/svg" width="1000" height="1000"><path d="M486 -60C717 -60 897 54 897 231C897 380 800 489 587 489C530 489 475 484 415 466C546 547 663 631 805 747L751 811L728 800H151V723H651C568 646 402 526 286 455C262 440 231 430 197 419L253 350C332 395 455 420 550 420C728 420 811 340 811 232C811 80 631 17 473 17C387 17 328 50 328 102C328 141 367 173 415 173C494 173 547 125 560 5L636 22C616 169 544 239 416 239C316 239 248 172 248 96C248 5 338 -60 486 -60Z" transform="translate(0, 880) scale(1,-1)" /></svg>