<svg xmlns="http://www.w3.org/2000/svg" width="1000" height="1000"><path d="M486 -24 539 -78C748 50 895 281 911 650L849 674L830 658H612V588H829C808 303 704 114 486 -24ZM230 -70C366 -70 516 54 516 253C516 411 405 467 175 424L185 362C392 396 439 343 439 252C439 117 321 4 230 4C172 4 151 24 151 56C151 123 254 221 450 278L420 335C206 277 70 156 70 57C70 -14 112 -70 230 -70ZM103 309 164 286C198 336 246 424 280 506L210 531C183 448 139 361 103 309ZM884 -75 950 -23C873 102 736 264 609 390L556 349C681 219 811 46 884 -75ZM108 498H446V573H313V848H241V573H108ZM73 654H481V724H73ZM507 455 580 431C624 532 660 654 681 811L602 818C583 663 553 554 507 455Z" transform="translate(0, 880) scale(1,-1)" /></svg>