<svg xmlns="http://www.w3.org/2000/svg" width="1000" height="1000"><path d="M924 51Q791 23 615 23Q504 23 405.0 34.5Q306 46 245 66Q202 80 175.0 108.0Q148 136 133.5 186.5Q119 237 117 318L41 303Q44 170 86.5 93.0Q129 16 216 -13Q281 -35 389.0 -48.0Q497 -61 616 -61Q789 -61 921 -34ZM795 96Q836 96 859.5 117.0Q883 138 883 183V474Q883 547 845.5 578.5Q808 610 733 610H465Q397 610 353.0 599.5Q309 589 278 569V604H201V138H278V507Q309 524 351.0 530.5Q393 537 460 537H733Q771 537 789.0 519.5Q807 502 807 467V188Q807 164 784 164Q725 164 660 183V107Q716 96 795 96ZM380 313H706V387H380ZM505 387H580V732H505ZM189 732H885V804H189Z" transform="translate(0, 880) scale(1,-1)" /></svg>