<svg xmlns="http://www.w3.org/2000/svg" width="1000" height="1000"><path d="M911 -71 950 7C743 55 526 196 352 196C243 196 155 142 155 63C155 -20 256 -64 346 -64C469 -64 829 72 829 226C829 338 716 369 583 369C494 369 421 357 362 340C389 361 408 384 430 414L358 451C288 365 191 294 71 237L116 176C177 209 247 248 273 256C365 283 468 295 575 295C668 295 743 275 743 226C743 140 433 7 336 7C287 7 238 22 238 62C238 105 282 124 343 124C494 124 711 -14 911 -71ZM223 447H781V512H223ZM105 506C367 557 623 634 834 800L762 840C558 675 323 617 65 568ZM833 498 887 558C680 663 367 757 155 805L108 750C326 699 633 605 833 498Z" transform="translate(0, 880) scale(1,-1)" /></svg>