<svg xmlns="http://www.w3.org/2000/svg" width="1000" height="1000"><path d="M886 -71 923 7C727 55 523 196 358 196C256 196 173 142 173 63C173 -20 268 -64 353 -64C469 -64 808 72 808 226C808 338 702 369 576 369C493 369 424 357 368 340C393 361 411 384 432 414L364 451C298 365 207 294 94 237L136 176C194 209 259 248 284 256C371 283 468 295 569 295C656 295 727 275 727 226C727 140 435 7 344 7C297 7 251 22 251 62C251 105 292 124 350 124C493 124 697 -14 886 -71ZM237 447H763V512H237ZM126 506C373 557 614 634 813 800L745 840C553 675 331 617 88 568ZM812 498 864 558C668 663 373 757 173 805L129 750C334 699 623 605 812 498Z" transform="translate(0, 880) scale(1,-1)" /></svg>