<svg xmlns="http://www.w3.org/2000/svg" width="1000" height="1000"><path d="M454 -73Q509 -73 532.0 -49.5Q555 -26 555 23V550H474V27Q474 11 465.0 4.5Q456 -2 437 -2Q411 -2 370.5 4.0Q330 10 285 23V-60Q369 -73 454 -73ZM105 72Q168 132 215.5 224.0Q263 316 291 414L207 431Q185 341 144.0 256.5Q103 172 42 115ZM120 446Q186 520 238.0 621.5Q290 723 322 833L243 850Q212 743 160.5 647.5Q109 552 48 489ZM976 90Q948 165 893.5 262.5Q839 360 777 437L699 412Q761 331 814.5 233.5Q868 136 892 64ZM207 633H907V713H207Z" transform="translate(0, 880) scale(1,-1)" /></svg>