<svg xmlns="http://www.w3.org/2000/svg" width="1000" height="1000"><path d="M357 474Q446 468 514 468Q662 468 739.0 490.5Q816 513 840.5 546.5Q865 580 865 624Q865 666 836.0 699.0Q807 732 751.5 750.5Q696 769 621 769Q521 769 446.0 745.5Q371 722 294 674Q342 750 368 831L294 846Q263 753 205.5 667.5Q148 582 78 523L136 483Q199 542 243 600Q324 649 424.5 674.0Q525 699 613 699Q665 699 702.5 688.0Q740 677 759.0 660.0Q778 643 778 624Q778 580 730.0 554.5Q682 529 546 529Q464 529 357 539ZM910 -7Q589 44 364 67Q627 114 781 147L751 221L719 212Q508 237 288 256L244 195Q470 178 583 166Q386 117 245 89Q229 86 214 86Q204 86 180 88Q160 90 146 90L102 27Q484 -9 875 -71ZM425 211Q634 279 843 377L780 422L751 407H557V614H478V407H174V340L614 341Q477 280 339 230Z" transform="translate(0, 880) scale(1,-1)" /></svg>