<svg xmlns="http://www.w3.org/2000/svg" width="1000" height="1000"><path d="M335 64Q409 135 448.0 198.5Q487 262 487 336Q487 407 437.5 449.0Q388 491 292 491Q201 491 150.0 456.0Q99 421 99 351Q99 286 137.0 245.0Q175 204 246 204Q288 204 313.0 234.5Q338 265 338 308V841H268V359Q268 312 258.5 294.0Q249 276 228 276Q217 276 202.0 285.0Q187 294 176.5 310.0Q166 326 166 346Q166 378 196.5 398.0Q227 418 292 418Q329 418 357.5 405.0Q386 392 402.0 372.0Q418 352 418 332Q418 285 383.0 224.5Q348 164 266 76ZM70 -66 549 115 533 190 50 16ZM63 601H543V682H61ZM708 -87Q780 -17 829.5 53.0Q879 123 910.0 218.0Q941 313 941 438Q941 548 901.5 604.0Q862 660 779 660Q704 660 635 614L648 540Q715 582 779 582Q820 582 841.0 546.5Q862 511 862 434Q862 347 832.5 258.0Q803 169 751.5 96.0Q700 23 637 -20ZM602 382Q708 538 727 838L651 840Q644 707 613.5 600.0Q583 493 536 424Z" transform="translate(0, 880) scale(1,-1)" /></svg>