<svg xmlns="http://www.w3.org/2000/svg" width="1000" height="1000"><path d="M486 -60Q601 -60 695.0 -24.0Q789 12 843.0 78.0Q897 144 897 231Q897 348 819.0 418.5Q741 489 587 489Q492 489 415 466Q514 527 606.5 593.5Q699 660 805 747L751 811L728 800H151V723H651Q590 667 483.0 588.5Q376 510 286 455Q270 445 246.0 436.0Q222 427 197 419L253 350Q310 383 393.0 401.5Q476 420 550 420Q679 420 745.0 368.5Q811 317 811 232Q811 160 761.5 111.5Q712 63 634.5 40.0Q557 17 473 17Q408 17 368.0 40.0Q328 63 328 102Q328 131 353.5 152.0Q379 173 415 173Q542 173 560 5L636 22Q621 132 566.5 185.5Q512 239 416 239Q367 239 329.0 219.5Q291 200 269.5 167.0Q248 134 248 96Q248 51 277.0 15.5Q306 -20 359.5 -40.0Q413 -60 486 -60Z" transform="translate(0, 880) scale(1,-1)" /></svg>