<svg xmlns="http://www.w3.org/2000/svg" width="1000" height="1000"><path d="M64 462 108 398C415 467 695 591 814 747L763 796L740 783H266V718H682C589 616 341 511 64 462ZM78 -54H920V13H78ZM75 215 135 173C206 249 276 341 328 427L255 438C204 356 146 281 75 215ZM514 13H609C673 49 722 91 722 151C722 219 644 269 512 269C360 269 276 235 276 165C276 107 333 59 440 59C511 59 549 103 549 142V327H474V162C474 135 451 122 423 122C399 122 353 141 353 165C353 191 393 207 512 207C597 207 643 178 643 149C643 114 623 71 514 13ZM243 327H807V390H243ZM48 580 117 543C208 606 318 724 369 833L293 850C242 741 131 630 48 580ZM870 408 914 466C768 523 528 595 305 639L269 581C494 536 727 467 870 408Z" transform="translate(0, 880) scale(1,-1)" /></svg>