<svg xmlns="http://www.w3.org/2000/svg" width="1000" height="1000"><path d="M766 -1Q897 92 897 205Q897 276 850.0 317.0Q803 358 700 358Q622 358 562.5 334.0Q503 310 470.5 269.0Q438 228 438 180Q438 123 468.0 91.5Q498 60 552 60Q626 60 667.5 109.0Q709 158 709 249Q709 338 641.0 389.5Q573 441 457 441Q353 441 275.5 409.5Q198 378 156.5 325.0Q115 272 115 208Q115 156 145.0 118.0Q175 80 227 80Q308 80 367.5 171.0Q427 262 459.5 401.5Q492 541 495 684L421 688Q418 554 393.0 429.0Q368 304 323.5 225.0Q279 146 220 146Q200 146 189.5 162.0Q179 178 179 208Q179 243 209.0 281.5Q239 320 302.0 346.5Q365 373 457 373Q517 373 559.0 356.0Q601 339 622.5 311.0Q644 283 644 249Q644 190 620.5 160.0Q597 130 552 130Q530 130 517.0 143.0Q504 156 504 180Q504 206 527.0 233.0Q550 260 594.5 277.5Q639 295 700 295Q775 295 798.5 269.5Q822 244 822 205Q822 160 791.0 118.0Q760 76 706 60ZM122 -39H878V29H122ZM130 519H209V803H130ZM306 510Q390 505 486 505Q617 505 692.5 521.5Q768 538 801.5 574.0Q835 610 835 672Q835 750 753.5 783.5Q672 817 539 817Q419 817 334.5 793.5Q250 770 158 721L190 662Q355 749 539 749Q603 749 651.5 737.5Q700 726 726.0 707.5Q752 689 752 669Q752 624 700.0 598.5Q648 573 508 573Q422 573 306 583Z" transform="translate(0, 880) scale(1,-1)" /></svg>