<svg xmlns="http://www.w3.org/2000/svg" width="1000" height="1000"><path d="M203 -41C345 -41 398 96 398 283C398 452 358 537 254 542C323 598 409 679 465 758L404 793L388 788H81V715H337C299 665 239 603 185 559C172 549 162 545 149 545V482C168 485 185 486 199 486C309 486 320 407 320 283C320 143 291 39 203 39C162 39 140 61 140 95C140 317 484 621 901 729L881 805C457 699 65 368 65 89C65 5 124 -41 203 -41ZM429 28 494 3C532 139 562 310 576 452L508 461C494 327 465 158 429 28ZM710 -55C747 -55 779 -43 819 -12V86C778 48 748 30 720 30C707 30 700 35 700 59V573H630V48C630 -26 671 -55 710 -55ZM899 -8 966 25C929 227 891 406 848 567L783 540C828 370 863 205 899 -8Z" transform="translate(0, 880) scale(1,-1)" /></svg>