<svg xmlns="http://www.w3.org/2000/svg" width="1000" height="1000"><path d="M180 -59Q234 -59 276.0 -22.0Q318 15 341.0 77.0Q364 139 364 213Q364 400 237 398Q325 454 386 541L336 581L311 569H94V500H262Q215 409 124 390V326Q165 341 215 341Q258 341 276.5 310.5Q295 280 295 213Q295 158 280.5 111.5Q266 65 240.0 38.0Q214 11 180 11Q159 11 146.5 26.5Q134 42 134 71Q134 141 194.5 202.5Q255 264 340.0 301.5Q425 339 491 339Q548 339 574.0 312.5Q600 286 600 227Q600 147 578.0 105.0Q556 63 525 63Q504 63 492.0 82.5Q480 102 480 134Q480 211 525.0 285.0Q570 359 640.0 412.0Q710 465 782 483V36H700V-34H938V36H856V550L799 562L777 550Q690 534 605.5 468.5Q521 403 468.0 312.5Q415 222 415 136Q415 74 443.0 34.0Q471 -6 525 -6Q593 -6 633.5 56.5Q674 119 674 223Q674 315 634.5 362.5Q595 410 491 410Q408 410 307.0 364.0Q206 318 135.5 240.0Q65 162 65 71Q65 9 95.5 -25.0Q126 -59 180 -59ZM81 649H917V723H81ZM572 717Q529 785 485 837L419 805Q470 749 507 684Z" transform="translate(0, 880) scale(1,-1)" /></svg>