<svg xmlns="http://www.w3.org/2000/svg" width="1000" height="1000"><path d="M670 749Q486 810 357 845L317 781Q469 742 638 683ZM582 470Q401 470 287.5 440.0Q174 410 125.0 366.5Q76 323 76 280Q76 229 113.0 201.5Q150 174 215 174Q292 174 375.5 236.0Q459 298 533.5 385.0Q608 472 719 616L733 635L676 680L651 669H135V596H620Q559 512 482.5 430.0Q406 348 334.0 294.5Q262 241 215 241Q183 241 168.5 250.5Q154 260 154 280Q154 303 188.5 330.5Q223 358 318.0 378.5Q413 399 579 399Q679 399 737.0 367.5Q795 336 795 278Q795 199 732.5 165.5Q670 132 570 132Q528 132 508.0 146.5Q488 161 488 181Q488 198 503.0 210.0Q518 222 542 222Q567 222 582.5 209.0Q598 196 598 171Q598 135 565.0 85.5Q532 36 473 1H76V-71H918V1H559Q613 39 640.5 85.0Q668 131 668 170Q668 223 633.5 253.5Q599 284 542 284Q489 284 454.5 255.5Q420 227 420 181Q420 127 456.0 96.5Q492 66 570 66Q709 66 793.0 115.5Q877 165 877 278Q877 372 801.0 421.0Q725 470 582 470Z" transform="translate(0, 880) scale(1,-1)" /></svg>