<svg xmlns="http://www.w3.org/2000/svg" width="1000" height="1000"><path d="M655 -81Q766 -50 826.0 5.0Q886 60 886 119Q886 197 829.5 233.5Q773 270 652 270Q562 270 474.0 241.0Q386 212 323 173Q372 236 398.5 282.0Q425 328 443.0 389.0Q461 450 476 548L391 558Q373 426 339.5 334.5Q306 243 230 148Q215 130 170 101Q146 85 129 71L192 20Q310 98 433.5 144.5Q557 191 652 191Q719 191 755.5 172.5Q792 154 792 119Q792 94 769.0 68.0Q746 42 704.5 21.0Q663 0 610 -10ZM403 392Q483 384 539 384Q711 384 791.5 443.0Q872 502 872 611Q872 817 552 817Q460 817 373.0 797.5Q286 778 217.5 745.0Q149 712 109 673L152 605Q220 670 322.5 704.0Q425 738 552 738Q673 738 728.0 707.0Q783 676 783 611Q783 534 728.0 499.5Q673 465 549 465Q476 465 403 473Z" transform="translate(0, 880) scale(1,-1)" /></svg>