<svg xmlns="http://www.w3.org/2000/svg" width="1000" height="1000"><path d="M396 501Q387 588 387 678Q387 705 389 753H930V819H69V753H310Q309 629 326 494ZM910 -29Q591 20 364 42Q598 75 781 109L751 180L719 171Q485 198 288 213L244 155Q466 138 583 127L529 116Q360 82 245 63Q234 61 213 61L177 62Q157 64 146 64L102 4Q475 -30 875 -90ZM897 267Q716 318 553.0 342.5Q390 367 257 367Q84 367 84 292Q84 255 120.5 236.0Q157 217 239 217Q382 217 518.0 285.5Q654 354 750 430L660 472L641 459H333V397H585Q566 390 536 373Q446 328 375.5 300.5Q305 273 239 273Q197 273 177.5 277.5Q158 282 158 292Q158 301 182.0 307.5Q206 314 257 314Q375 314 531.5 287.5Q688 261 872 209ZM325 384Q441 429 552.5 537.0Q664 645 745 761L674 793Q606 684 498.0 584.0Q390 484 279 433ZM109 497H180V562Q262 608 375.5 629.0Q489 650 604 650Q697 650 758.0 638.5Q819 627 819 610Q819 594 791.5 583.5Q764 573 708 573Q689 573 678 574V506Q794 505 851.0 532.0Q908 559 908 610Q908 660 825.0 686.5Q742 713 605 713Q481 713 363.5 684.0Q246 655 180 608V696H109Z" transform="translate(0, 880) scale(1,-1)" /></svg>