<svg xmlns="http://www.w3.org/2000/svg" width="1000" height="1000"><path d="M785 2Q638 26 513.5 106.0Q389 186 307.0 327.0Q225 468 207 665L130 655Q149 445 236.5 289.0Q324 133 456.0 41.0Q588 -51 742 -77ZM708 193Q789 237 835.5 276.5Q882 316 904.0 363.0Q926 410 926 475Q926 517 902.0 557.5Q878 598 824.5 624.5Q771 651 687 651Q566 651 453.5 614.0Q341 577 243.0 519.5Q145 462 30 378L76 314Q409 572 690 572Q769 572 805.5 540.5Q842 509 842 467Q842 416 799.0 362.0Q756 308 667 264ZM500 359H579V838H500Z" transform="translate(0, 880) scale(1,-1)" /></svg>