<svg xmlns="http://www.w3.org/2000/svg" width="1000" height="1000"><path d="M680 110Q781 110 834.5 196.0Q888 282 888 490Q888 655 814.5 731.0Q741 807 582 807Q353 807 131 746L146 673Q379 734 582 734Q706 734 758.5 673.0Q811 612 811 494Q811 341 778.0 263.0Q745 185 680 185Q637 185 583.5 190.5Q530 196 486 206V129Q530 120 582.5 115.0Q635 110 680 110ZM123 -30H877V43H123ZM159 112Q311 205 401.0 340.0Q491 475 498 641L416 648Q406 342 93 162ZM618 416Q544 443 422.5 476.0Q301 509 182 535L146 472Q268 443 390.0 408.0Q512 373 581 345Z" transform="translate(0, 880) scale(1,-1)" /></svg>