<svg xmlns="http://www.w3.org/2000/svg" width="1000" height="1000"><path d="M555 91Q680 148 758.5 200.0Q837 252 879.5 317.0Q922 382 922 467Q922 581 867.0 633.0Q812 685 704 685Q616 685 478 650V561Q594 605 679 605Q755 605 794.0 568.5Q833 532 833 468Q833 376 753.5 300.5Q674 225 505 145ZM0.0 0.0Q0 0 0.0 0.0Q0 0 0.0 0.0ZM692 -48Q593 104 433 257L365 213Q433 150 496.0 70.0Q559 -10 610 -93ZM273 417Q258 466 230.5 530.0Q203 594 174 646L101 612Q126 563 153.5 496.5Q181 430 198 378ZM571 439Q525 639 453 823L372 798Q444 614 490 414Z" transform="translate(0, 880) scale(1,-1)" /></svg>