<svg xmlns="http://www.w3.org/2000/svg" width="1000" height="1000"><path d="M584 -78Q626 -78 649.5 -53.5Q673 -29 673 19V415H943V487H673V527Q746 568 817.0 623.5Q888 679 936 737L884 774L869 770H374V696H801Q705 617 598 561V487H306V415H598V33Q598 6 595.0 -3.5Q592 -13 574 -13Q532 -13 480 10V-64Q526 -78 584 -78ZM170 -78H243V611H170ZM345 -18Q417 77 467.5 192.5Q518 308 539 425L473 434Q447 311 403.0 213.0Q359 115 288 30ZM86 393Q166 476 234.5 588.5Q303 701 347 815L276 836Q234 723 168.0 616.5Q102 510 28 437ZM974 89Q735 210 464 286L440 220Q679 156 941 14Z" transform="translate(0, 880) scale(1,-1)" /></svg>