<svg xmlns="http://www.w3.org/2000/svg" width="1000" height="1000"><path d="M344 88Q491 181 615.0 288.5Q739 396 831 496L774 554Q689 453 568.5 348.5Q448 244 302 157ZM192 -78H269V611H192ZM99 393Q186 477 261.0 589.5Q336 702 382 815L302 839Q257 724 186.5 616.5Q116 509 38 437ZM572 -61Q624 -61 647.0 -39.5Q670 -18 670 43V836H591V43Q591 26 587.0 19.5Q583 13 570 13Q522 13 449 35V-49Q517 -61 572 -61ZM965 120Q861 208 715 292L680 236Q810 156 911 61ZM340 533Q498 544 656.0 569.5Q814 595 937 631L903 705Q800 671 645.5 646.0Q491 621 326 608Z" transform="translate(0, 880) scale(1,-1)" /></svg>