<svg xmlns="http://www.w3.org/2000/svg" width="1000" height="1000"><path d="M79 -71H921V1H458Q527 38 562.0 88.0Q597 138 597 178Q597 231 548.5 260.5Q500 290 423 290Q356 290 311.0 260.5Q266 231 266 180Q266 126 312.5 96.0Q359 66 457 66Q637 66 748.0 114.5Q859 163 859 267Q859 352 782.0 393.5Q705 435 559 435Q316 435 110 348L156 290Q252 330 347.5 349.5Q443 369 559 369Q660 369 716.0 343.5Q772 318 772 267Q772 198 692.5 165.0Q613 132 488 132Q419 132 382.0 142.0Q345 152 345 178Q345 202 370.0 214.0Q395 226 429 226Q466 226 491.5 210.5Q517 195 517 169Q517 147 497.0 117.0Q477 87 438.0 56.0Q399 25 347 1H79ZM349 474Q342 506 320.0 552.5Q298 599 272 639L204 617Q229 578 250.0 530.0Q271 482 278 449ZM117 525Q224 662 271 835L193 850Q170 764 135.0 696.5Q100 629 46 563ZM560 487Q557 521 543.0 570.0Q529 619 511 659L441 644Q458 604 471.0 554.0Q484 504 486 470ZM190 685H892V760H190ZM730 445Q781 519 843 637L760 660Q745 617 717.5 561.0Q690 505 666 467Z" transform="translate(0, 880) scale(1,-1)" /></svg>