<svg xmlns="http://www.w3.org/2000/svg" width="1000" height="1000"><path d="M964 10Q870 45 797.0 92.0Q724 139 633 211Q562 266 515.5 297.5Q469 329 414.0 349.5Q359 370 297 370Q191 370 128.5 310.5Q66 251 66 141Q66 45 114.0 -13.5Q162 -72 254 -72Q384 -72 455.5 55.0Q527 182 551.5 377.5Q576 573 576 826H491Q491 467 437.5 238.5Q384 10 254 10Q201 10 175.0 44.5Q149 79 149 141Q149 288 297 288Q341 288 385.0 269.5Q429 251 470.5 222.0Q512 193 576 142Q675 65 752.5 14.0Q830 -37 925 -73ZM0.0 0.0Q0 0 0.0 0.0Q0 0 0.0 0.0ZM74 541H926V626H74Z" transform="translate(0, 880) scale(1,-1)" /></svg>