<svg xmlns="http://www.w3.org/2000/svg" width="1000" height="1000"><path d="M187 40Q245 40 302.5 70.0Q360 100 397.0 148.0Q434 196 434 246Q434 290 421.5 324.0Q409 358 373.5 391.0Q338 424 271 455L225 413Q304 372 330.0 333.5Q356 295 356 246Q356 212 330.5 179.5Q305 147 266.0 127.0Q227 107 190 107Q132 107 132 147Q132 179 207.5 218.5Q283 258 420.5 290.5Q558 323 733 335V125H604V57L943 55V125H814V396L750 421L732 408Q543 393 389.5 354.5Q236 316 147.5 262.0Q59 208 59 147Q59 98 91.0 69.0Q123 40 187 40ZM122 331Q299 419 426 533L359 577Q305 525 227.5 472.5Q150 420 75 382ZM441 -78Q483 -78 515.0 -52.5Q547 -27 547 16V834H468V29Q468 14 457.0 4.5Q446 -5 428 -5Q350 -6 266 20V-62Q308 -71 347.5 -74.5Q387 -78 441 -78ZM843 577Q729 592 577 592Q403 592 157 572V504Q349 518 522 518Q708 518 827 502ZM75 640Q357 648 548.5 664.5Q740 681 938 716L912 787Q708 751 526.5 734.0Q345 717 70 710Z" transform="translate(0, 880) scale(1,-1)" /></svg>