<svg xmlns="http://www.w3.org/2000/svg" width="1000" height="1000"><path d="M843 -61Q886 -61 908.5 -38.0Q931 -15 940.5 37.0Q950 89 954 187L873 201Q871 116 867.5 79.0Q864 42 855.0 29.0Q846 16 827 16H741Q724 16 716.0 20.0Q708 24 708 33Q708 94 774 587L706 613L684 604H98V523H679Q646 244 637.0 154.5Q628 65 628 24Q628 -12 637.5 -30.0Q647 -48 669.5 -54.5Q692 -61 735 -61ZM111 -76Q252 10 324.5 126.5Q397 243 426.0 400.5Q455 558 473 830L390 834Q373 563 346.0 416.5Q319 270 252.5 166.0Q186 62 53 -17Z" transform="translate(0, 880) scale(1,-1)" /></svg>