<svg xmlns="http://www.w3.org/2000/svg" width="1000" height="1000"><path d="M458 -82Q503 -82 526.0 -58.0Q549 -34 549 22V734H469V22Q469 6 462.0 0.0Q455 -6 438 -6Q403 -6 355.5 1.0Q308 8 263 21V-66Q350 -82 458 -82ZM329 432Q317 475 289.5 535.5Q262 596 231 647L158 625Q193 565 221.0 505.0Q249 445 259 405ZM959 345Q798 367 570 367Q335 367 55 344V272Q310 290 512 290Q757 290 939 266ZM136 682Q313 686 512.5 707.5Q712 729 858 758L819 826Q701 802 505.5 784.0Q310 766 119 759ZM735 407Q786 485 863 640L780 667Q760 610 730.0 543.0Q700 476 673 432Z" transform="translate(0, 880) scale(1,-1)" /></svg>