<svg xmlns="http://www.w3.org/2000/svg" width="1000" height="1000"><path d="M457 -73C510 -73 554 -52 554 -3V224C655 270 753 329 823 383L750 425L733 414H214V340H635C584 306 537 285 474 260V26C474 6 462 -2 440 -2C391 -3 334 6 272 24V-58C330 -69 392 -73 457 -73ZM119 -2C201 69 263 160 294 241L215 261C191 187 139 104 59 35ZM321 428 402 444C392 523 372 607 343 684L264 669C293 592 312 507 321 428ZM862 -8 941 17C910 83 837 188 753 265L681 239C765 160 837 55 862 -8ZM73 526H927V599H73ZM633 381C683 474 725 604 748 711L662 717C644 613 604 488 556 391ZM140 704C383 710 674 734 877 765L836 833C661 803 371 781 123 773Z" transform="translate(0, 880) scale(1,-1)" /></svg>