<svg xmlns="http://www.w3.org/2000/svg" width="1000" height="1000"><path d="M187 466 212 476H866V552H290C354 625 428 726 490 823L409 846C355 748 268 623 208 559C198 548 178 538 156 534ZM127 -12C244 96 342 243 380 356L301 366C255 249 183 136 64 36ZM455 -57C528 -57 566 -29 566 38V624H487V57C487 30 477 18 442 18C398 18 360 22 315 36V-46C362 -53 416 -57 455 -57ZM943 9 974 86C743 159 515 216 282 257L263 186C495 147 727 83 943 9ZM92 316H908V389H92ZM98 672H902V746H98Z" transform="translate(0, 880) scale(1,-1)" /></svg>