<svg xmlns="http://www.w3.org/2000/svg" width="1000" height="1000"><path d="M751 253 813 221C867 282 919 349 963 410L899 461L885 450H64V374H836C813 334 783 293 751 253ZM453 -79C523 -78 555 -58 555 16V410H478V29C478 10 466 -4 444 -5C401 -7 342 -1 280 20V-62C328 -75 390 -80 453 -79ZM648 469 686 534C572 588 482 623 347 644L322 578C457 551 546 519 648 469ZM521 586 598 551C687 604 806 692 867 751L819 807L803 802H153V723L712 721C657 673 594 628 521 586Z" transform="translate(0, 880) scale(1,-1)" /></svg>