<svg xmlns="http://www.w3.org/2000/svg" width="1000" height="1000"><path d="M448 -82C596 -82 677 54 677 346V715H603V347C603 107 563 -12 448 -12C394 -12 363 16 363 68C363 115 396 146 475 146C610 146 712 9 929 -80L964 -10C731 80 652 217 475 217C371 217 291 170 291 69C291 -21 353 -82 448 -82ZM135 -36 209 -24C163 166 154 297 185 408C220 532 222 630 172 735L92 711C137 596 142 519 112 424C78 317 82 184 135 -36ZM449 312C725 267 940 301 940 446C940 566 823 607 683 607C536 607 401 571 301 530L311 461C409 501 538 533 678 533C784 533 865 515 865 444C865 360 717 344 449 376ZM318 715H937V783H318Z" transform="translate(0, 880) scale(1,-1)" /></svg>