<svg xmlns="http://www.w3.org/2000/svg" width="1000" height="1000"><path d="M36 -45 107 -78C189 71 197 286 197 438V640H942V711H606C593 747 565 804 541 848L468 828C487 793 507 747 521 711H121V438C121 296 114 97 36 -45ZM209 -33H955V39H209ZM301 146H377V517H301ZM515 39H605C686 82 749 149 749 245C749 299 701 354 613 354C519 354 479 303 479 254C479 200 532 160 647 160C809 160 906 248 906 376C906 476 824 553 657 553C502 553 431 480 377 405V312C431 405 528 484 657 484C755 484 825 443 825 376C825 293 778 214 647 214C580 214 547 231 547 256C547 278 571 297 613 297C652 297 676 272 676 243C676 167 636 105 515 39Z" transform="translate(0, 880) scale(1,-1)" /></svg>