<svg xmlns="http://www.w3.org/2000/svg" width="1000" height="1000"><path d="M473 -80C730 -80 900 25 900 157C900 271 791 352 580 352C510 352 437 343 377 329C423 379 485 480 519 560L427 580C399 498 341 385 279 319L251 307L302 243C374 269 457 283 580 283C745 283 812 239 812 157C812 44 620 -13 473 -13C366 -13 316 0 316 40C316 69 356 94 411 94C492 94 548 59 562 -29L645 -15C625 90 548 158 412 158C304 158 230 98 230 40C230 -30 305 -80 473 -80ZM81 470 144 423C249 539 335 680 376 829L297 846C255 702 174 561 81 470ZM223 602 233 544C341 618 489 677 616 677C725 677 778 639 778 586C778 509 712 457 397 491V416C778 377 865 475 865 586C865 695 775 751 616 751C456 751 318 670 223 602Z" transform="translate(0, 880) scale(1,-1)" /></svg>