<svg xmlns="http://www.w3.org/2000/svg" width="1000" height="1000"><path d="M694 -21 729 -86C830 -39 896 0 896 105C896 213 749 277 567 276C335 275 84 192 84 71C84 -21 163 -70 270 -70C456 -70 574 64 574 205C574 357 440 400 302 420L278 352C394 343 493 307 493 205C493 81 385 0 270 0C199 0 165 29 165 71C165 138 347 201 567 201C705 201 817 160 817 105C817 49 780 14 694 -21ZM135 349 160 277C277 326 404 409 492 500L421 536C344 462 224 383 135 349ZM51 563 121 525C199 621 247 721 278 835L202 850C171 736 126 651 51 563ZM219 478H852V548H219ZM900 234 942 297C879 346 808 390 729 429L691 369C767 331 838 286 900 234ZM200 665H902V740H200Z" transform="translate(0, 880) scale(1,-1)" /></svg>