<svg xmlns="http://www.w3.org/2000/svg" width="1000" height="1000"><path d="M326 494 396 501C388 584 385 671 389 753H930V819H69V753H310C309 668 315 579 326 494ZM875 -90 910 -29C694 4 527 26 364 42C521 64 674 89 781 109L751 180L719 171C552 190 429 202 288 213L244 155C402 143 478 137 583 127C487 108 372 84 245 63C215 58 188 62 146 64L102 4C366 -20 622 -52 875 -90ZM872 209 897 267C645 338 425 367 257 367C121 367 84 333 84 292C84 244 127 217 239 217C459 217 674 370 750 430L660 472L641 459H333V397H585C543 382 372 273 239 273C182 273 158 279 158 292C158 302 182 314 257 314C413 314 624 279 872 209ZM279 433 325 384C496 451 657 634 745 761L674 793C587 654 433 503 279 433ZM109 497H180V562C298 628 467 650 604 650C730 650 819 632 819 610C819 589 779 569 678 574V506C836 504 908 544 908 610C908 678 782 713 605 713C439 713 268 670 180 608V696H109Z" transform="translate(0, 880) scale(1,-1)" /></svg>