<svg xmlns="http://www.w3.org/2000/svg" width="1000" height="1000"><path d="M606 -61Q655 -61 677.5 -39.5Q700 -18 700 43V836H625V43Q625 26 621.0 19.5Q617 13 605 13Q559 13 490 35V-49Q553 -61 606 -61ZM177 -68H251V605H177ZM95 392Q173 474 241.0 583.5Q309 693 352 804L280 827Q240 716 175.0 612.0Q110 508 37 437ZM953 325Q834 343 696 343Q534 343 325 319V247Q493 265 652 265Q815 265 942 246ZM393 384Q472 515 515 731L437 741Q420 646 389.0 559.5Q358 473 320 415ZM455 556H898V628H455Z" transform="translate(0, 880) scale(1,-1)" /></svg>