<svg xmlns="http://www.w3.org/2000/svg" width="1000" height="1000"><path d="M759 -65Q812 -65 839.0 -44.5Q866 -24 878.5 23.0Q891 70 897 163L817 188Q813 111 807.5 76.0Q802 41 788.5 27.0Q775 13 746 13H311Q282 13 268.0 18.5Q254 24 249.0 37.0Q244 50 244 76V816H163V75Q163 18 174.0 -11.5Q185 -41 212.0 -53.0Q239 -65 293 -65ZM410 138Q510 217 611.5 312.0Q713 407 800 506L710 546Q630 450 531.5 353.5Q433 257 345 185ZM392 444Q552 580 701 748L611 787Q470 613 327 486Z" transform="translate(0, 880) scale(1,-1)" /></svg>