<svg xmlns="http://www.w3.org/2000/svg" width="1000" height="1000"><path d="M135 163Q301 278 446.0 416.5Q591 555 736 722L662 765L646 752H347V687H594Q510 583 367.5 449.5Q225 316 71 218ZM65 -54H943V17H65ZM108 424Q346 607 471 821L388 841Q328 738 244.5 650.5Q161 563 64 494ZM595 17Q704 98 791 174L741 230L722 221H517Q587 280 686.5 381.5Q786 483 867 575L802 627Q708 518 593.0 403.5Q478 289 356 194L410 140L435 159H662Q596 93 497 17ZM246 422H905V495H246Z" transform="translate(0, 880) scale(1,-1)" /></svg>