<svg xmlns="http://www.w3.org/2000/svg" width="1000" height="1000"><path d="M664 1C785 123 836 229 836 384C836 506 774 578 650 578C547 578 482 556 405 521L429 453C501 487 572 506 650 506C724 506 756 463 756 384C756 274 707 141 592 36ZM55 -21H945V56H55ZM285 183H511C573 183 622 215 622 272C622 327 588 390 558 431L488 405C521 366 541 324 541 290C541 266 521 258 500 258H290C260 258 248 270 248 289C248 333 284 436 403 635L331 666C205 460 165 355 165 274C165 223 199 183 285 183ZM101 718H899V795H101Z" transform="translate(0, 880) scale(1,-1)" /></svg>