<svg xmlns="http://www.w3.org/2000/svg" width="1000" height="1000"><path d="M96 393Q176 476 244.5 588.5Q313 701 357 815L286 836Q244 723 178.0 616.5Q112 510 38 437ZM180 -78H255V611H180ZM336 -38H955V34H336ZM587 98Q579 171 558.0 284.0Q537 397 513 495L445 480Q468 379 487.5 264.5Q507 150 513 77ZM748 34Q774 124 802.5 249.0Q831 374 853 489L774 502Q760 394 733.0 260.5Q706 127 678 34ZM410 454Q461 529 497.0 628.5Q533 728 552 829L478 840Q461 742 424.5 647.0Q388 552 341 488ZM469 606H923V678H469Z" transform="translate(0, 880) scale(1,-1)" /></svg>