<svg xmlns="http://www.w3.org/2000/svg" width="1000" height="1000"><path d="M256 -65Q341 -65 413.0 -24.5Q485 16 527.5 82.5Q570 149 570 222Q570 336 518.0 411.5Q466 487 344 480Q395 520 461.0 607.5Q527 695 588 806L503 834Q448 721 388.0 631.5Q328 542 273 489Q262 479 219 462L179 445L205 371Q232 384 268.5 392.5Q305 401 344 401Q407 401 446.5 351.5Q486 302 486 222Q486 168 456.5 119.5Q427 71 374.5 41.5Q322 12 256 12Q164 12 164 73Q164 124 252.5 179.5Q341 235 473.0 275.0Q605 315 726 321V29H612V-45H917V29H803V373L752 412L729 397Q595 391 443.5 348.5Q292 306 187.5 234.0Q83 162 83 73Q83 2 125.0 -31.5Q167 -65 256 -65ZM84 593H904V673L84 670Z" transform="translate(0, 880) scale(1,-1)" /></svg>