<svg xmlns="http://www.w3.org/2000/svg" width="1000" height="1000"><path d="M372 -80Q580 -24 716.5 113.5Q853 251 910 458L855 487L840 478H529V405H809Q751 245 626.5 140.0Q502 35 329 -6ZM192 -78H269V611H192ZM955 -29Q854 67 732.0 154.5Q610 242 473 311L436 248Q689 113 894 -87ZM99 393Q185 476 259.0 588.5Q333 701 380 815L302 839Q257 724 186.5 616.5Q116 509 38 437ZM431 327Q566 404 696.0 525.0Q826 646 909 778L839 819Q757 682 641.5 579.5Q526 477 383 397ZM608 604Q565 681 473 803L407 756Q486 664 540 564Z" transform="translate(0, 880) scale(1,-1)" /></svg>