<svg xmlns="http://www.w3.org/2000/svg" width="1000" height="1000"><path d="M457 -73Q500 -73 527.0 -55.5Q554 -38 554 -3V224Q628 258 698.5 300.0Q769 342 823 383L750 425L733 414H214V340H635Q599 316 562.5 298.5Q526 281 474 260V26Q474 10 464.0 4.0Q454 -2 433 -2Q362 -2 272 24V-58Q351 -73 457 -73ZM119 -2Q179 50 224.5 114.0Q270 178 294 241L215 261Q196 203 156.5 144.0Q117 85 59 35ZM402 444Q386 570 343 684L264 669Q306 557 321 428ZM941 17Q916 71 864.0 141.0Q812 211 753 265L681 239Q741 182 791.5 112.0Q842 42 862 -8ZM73 526H927V599H73ZM633 381Q669 448 699.5 537.0Q730 626 748 711L662 717Q648 638 620.0 550.5Q592 463 556 391ZM140 704Q323 709 524.0 725.5Q725 742 877 765L836 833Q710 811 514.0 795.0Q318 779 123 773Z" transform="translate(0, 880) scale(1,-1)" /></svg>