<svg xmlns="http://www.w3.org/2000/svg" width="1000" height="1000"><path d="M618 -64Q726 -64 782.5 -34.0Q839 -4 863.5 76.5Q888 157 888 316Q888 449 841.0 512.5Q794 576 682 576Q604 576 539.0 562.0Q474 548 407 519L431 451Q548 504 682 504Q733 504 760.5 484.5Q788 465 798.0 425.0Q808 385 808 316Q808 192 788.0 125.0Q768 58 725.5 32.0Q683 6 608 6Q533 6 434 30V-46Q516 -64 618 -64ZM513 181Q561 181 592.5 205.0Q624 229 624 270Q624 308 605.0 350.5Q586 393 560 429L490 403Q515 373 529.0 343.0Q543 313 543 288Q543 271 531.5 263.5Q520 256 502 256H242Q200 256 200 287Q200 325 236.5 410.0Q273 495 355 633L283 664Q191 514 154.0 424.5Q117 335 117 272Q117 231 146.5 206.0Q176 181 237 181ZM101 718H899V795H101Z" transform="translate(0, 880) scale(1,-1)" /></svg>