<svg xmlns="http://www.w3.org/2000/svg" width="1000" height="1000"><path d="M669 -60Q742 -60 802.0 -24.0Q862 12 897.0 78.5Q932 145 932 231Q932 305 907.0 363.5Q882 422 836.5 454.5Q791 487 730 487Q686 487 643 471Q808 634 896 748L836 808L822 797H488V720H773Q732 664 663.5 586.0Q595 508 541 455Q525 439 487 419L522 350Q558 382 610.0 399.0Q662 416 710 416Q778 416 815.5 365.5Q853 315 853 232Q853 159 826.5 111.0Q800 63 756.5 40.0Q713 17 661 17Q620 17 597.5 38.0Q575 59 575 98Q575 129 589.0 151.0Q603 173 625 173Q703 173 716 5L772 22Q762 130 724.0 184.5Q686 239 625 239Q574 239 542.5 199.0Q511 159 511 98Q511 29 554.0 -15.5Q597 -60 669 -60ZM201 -62Q271 -62 318.5 -13.0Q366 36 389.0 110.5Q412 185 412 262Q412 360 360.0 440.5Q308 521 201 561L175 498Q259 463 297.0 399.0Q335 335 335 262Q335 204 320.5 148.5Q306 93 275.5 56.5Q245 20 201 20Q173 20 156.5 40.0Q140 60 140 104Q140 161 171.0 212.0Q202 263 262.0 316.0Q322 369 425 441L379 496Q224 392 141.5 297.5Q59 203 59 104Q59 18 97.0 -22.0Q135 -62 201 -62ZM262 509Q309 567 358.0 637.0Q407 707 434 760L382 799L366 791H76V714H321Q278 627 211 533Z" transform="translate(0, 880) scale(1,-1)" /></svg>