<svg xmlns="http://www.w3.org/2000/svg" width="1000" height="1000"><path d="M729 -86Q788 -59 822.5 -35.5Q857 -12 876.5 21.5Q896 55 896 105Q896 157 853.0 196.0Q810 235 736.0 255.5Q662 276 571 276Q453 276 340.0 249.5Q227 223 155.5 176.0Q84 129 84 71Q84 4 135.5 -33.0Q187 -70 270 -70Q360 -70 429.0 -31.5Q498 7 536.0 70.5Q574 134 574 205Q574 308 500.5 355.0Q427 402 302 420L278 352Q493 335 493 205Q493 145 462.0 98.5Q431 52 379.5 26.0Q328 0 270 0Q218 0 191.5 19.0Q165 38 165 71Q165 104 220.0 134.0Q275 164 367.5 182.5Q460 201 567 201Q635 201 692.5 188.5Q750 176 783.5 154.0Q817 132 817 105Q817 64 788.0 35.0Q759 6 694 -21ZM160 277Q249 314 338.0 373.5Q427 433 492 500L421 536Q363 480 282.0 427.0Q201 374 135 349ZM121 525Q178 595 216.0 671.0Q254 747 278 835L202 850Q179 765 143.0 697.0Q107 629 51 563ZM219 478H852V548H219ZM942 297Q848 371 729 429L691 369Q810 310 900 234ZM200 665H902V740H200Z" transform="translate(0, 880) scale(1,-1)" /></svg>