<svg xmlns="http://www.w3.org/2000/svg" width="1000" height="1000"><path d="M95 28Q248 117 419.0 258.5Q590 400 823 630L763 695Q543 471 370.0 328.5Q197 186 51 109ZM480 -72Q567 -72 608.5 14.5Q650 101 650 229Q650 335 600.5 457.5Q551 580 461 708L402 646Q477 544 520.5 432.0Q564 320 564 232Q564 132 546.0 73.0Q528 14 467 14Q411 14 345 34V-57Q410 -72 480 -72ZM125 381Q259 454 374.0 567.0Q489 680 560 802L487 836Q419 727 307.5 620.0Q196 513 78 453ZM945 118Q795 253 616 366L581 299Q752 183 888 46Z" transform="translate(0, 880) scale(1,-1)" /></svg>