<svg xmlns="http://www.w3.org/2000/svg" width="1000" height="1000"><path d="M201 403C335 403 436 478 436 630C436 731 401 811 243 811C178 811 116 795 76 777L93 721C131 737 190 750 245 750C336 750 357 702 357 620C357 527 292 460 203 460C175 460 156 475 156 496C156 602 542 757 694 757C784 757 827 725 827 650C827 555 781 506 663 506C624 506 556 517 483 536V469C555 453 612 442 669 442C841 442 908 521 908 650C908 760 848 823 694 823C501 823 80 642 80 488C80 429 138 403 201 403ZM136 -44 216 -73C305 65 324 181 330 360H253C245 177 230 91 136 -44ZM0.0 459.0Q0 459 0.0 459.0Q0 459 0.0 459.0ZM618 -75C793 -75 807 80 807 218C807 300 788 361 600 361C520 361 421 353 312 338L315 269C436 285 517 291 599 291C709 291 728 261 728 218C728 129 715 -10 608 -10C556 -10 501 -6 452 6V-64C508 -74 548 -75 618 -75ZM661 118 664 185 372 191 368 123ZM447 342 505 317C596 397 648 474 688 590L615 609C575 497 524 413 447 342Z" transform="translate(0, 880) scale(1,-1)" /></svg>