<svg xmlns="http://www.w3.org/2000/svg" width="1000" height="1000"><path d="M450 -73Q505 -73 528.0 -48.0Q551 -23 551 28V530H470V32Q470 15 461.0 8.0Q452 1 434 1Q408 1 367.0 8.0Q326 15 281 28V-59Q362 -73 450 -73ZM103 79Q166 141 213.5 238.0Q261 335 289 438L205 456Q183 361 142.0 272.0Q101 183 40 124ZM976 98Q948 177 893.5 279.0Q839 381 777 462L699 436Q761 352 814.0 249.5Q867 147 892 71ZM721 646Q653 688 542.5 739.0Q432 790 353 813L310 744Q390 724 490.5 675.5Q591 627 667 579Z" transform="translate(0, 880) scale(1,-1)" /></svg>