<svg xmlns="http://www.w3.org/2000/svg" width="1000" height="1000"><path d="M76 -39H926V40H678C735 149 794 291 838 421L768 443C724 302 658 148 592 40H76ZM283 110 349 144C327 218 271 336 218 424L157 399C207 307 262 187 283 110ZM504 137 572 166C558 239 518 360 479 452L416 429C453 335 492 213 504 137ZM328 614 395 652C373 703 320 779 274 837L212 804C257 746 307 665 328 614ZM95 521H906V600H664C706 662 755 743 793 813L716 840C685 767 629 666 583 600H95Z" transform="translate(0, 880) scale(1,-1)" /></svg>