<svg xmlns="http://www.w3.org/2000/svg" width="1000" height="1000"><path d="M174 283H255V695Q423 702 581.5 717.5Q740 733 853 755L795 831Q694 810 522.0 794.5Q350 779 174 773ZM109 -70Q201 -18 283.0 43.0Q365 104 417 167L333 203Q290 146 212.0 86.0Q134 26 50 -13ZM70 230H930V311H70ZM770 238Q844 328 844 432Q844 514 780.0 560.5Q716 607 583 607Q476 607 399.0 584.0Q322 561 255 519V444Q337 487 416.5 506.0Q496 525 583 525Q656 525 709.0 499.5Q762 474 762 432Q762 387 748.5 349.0Q735 311 704 271Z" transform="translate(0, 880) scale(1,-1)" /></svg>