<svg xmlns="http://www.w3.org/2000/svg" width="1000" height="1000"><path d="M806 169Q848 169 872.5 186.5Q897 204 911.5 249.5Q926 295 932 380L860 394Q856 330 850.5 299.0Q845 268 835.5 257.5Q826 247 807 247Q700 247 609.0 330.5Q518 414 460.5 550.0Q403 686 392 837H320Q332 658 399.0 504.5Q466 351 573.0 260.0Q680 169 806 169ZM126 -17H874V64H126ZM145 190Q361 236 544.0 313.5Q727 391 843 528L781 561Q672 435 488.0 365.0Q304 295 102 263ZM91 552 901 649 891 719 81 626Z" transform="translate(0, 880) scale(1,-1)" /></svg>