<svg xmlns="http://www.w3.org/2000/svg" width="1000" height="1000"><path d="M59 311H941V384H540V834H460V384H59ZM188 -86 524 2 510 73 276 12V354H198V33Q198 -6 157 -20ZM324 430Q311 474 288.0 524.5Q265 575 235 621L162 600Q194 551 218.5 499.0Q243 447 254 405ZM930 -28Q857 46 745.0 126.0Q633 206 510 269L463 216Q584 152 686.5 74.5Q789 -3 861 -79ZM95 640Q363 648 545.5 664.5Q728 681 917 716L892 787Q698 751 524.5 734.0Q351 717 90 710ZM732 403Q781 475 860 632L777 659Q757 602 727.0 536.5Q697 471 670 427Z" transform="translate(0, 880) scale(1,-1)" /></svg>