<svg xmlns="http://www.w3.org/2000/svg" width="1000" height="1000"><path d="M785 -61Q841 -61 871.0 -42.5Q901 -24 916.0 27.0Q931 78 937 181L862 204Q859 121 852.5 82.0Q846 43 832.5 30.0Q819 17 791 17H312Q269 17 250.0 26.5Q231 36 231 57Q231 91 362.0 170.0Q493 249 840 408L805 498L784 483H229V405H628Q437 309 331.0 244.5Q225 180 183.0 136.5Q141 93 141 57Q141 -4 179.5 -32.5Q218 -61 307 -61ZM113 446Q179 520 231.0 621.5Q283 723 315 833L243 850Q212 743 160.5 647.5Q109 552 48 489ZM207 626H927V703H207Z" transform="translate(0, 880) scale(1,-1)" /></svg>