<svg xmlns="http://www.w3.org/2000/svg" width="1000" height="1000"><path d="M676 14Q809 52 872.5 88.5Q936 125 936 181Q936 282 812 282Q799 282 776 277L882 418L830 456L811 448Q690 444 585.0 421.0Q480 398 415.5 356.0Q351 314 351 257Q351 216 378.5 192.5Q406 169 443 169Q540 169 600.5 271.0Q661 373 679 527H888V594H491V527H607Q592 397 551.0 315.0Q510 233 443 233Q433 233 426.0 238.5Q419 244 419 255Q419 290 472.5 319.0Q526 348 610.5 365.0Q695 382 783 382Q747 320 703 268Q696 260 667 247L696 194Q722 208 751.0 215.0Q780 222 805 222Q834 222 846.0 213.0Q858 204 858 181Q858 143 798.5 116.0Q739 89 632 68ZM103 10H174V772H103ZM747 -49Q707 21 607 147L541 111Q622 15 678 -81ZM236 130H303V722H236ZM392 460Q436 542 467.5 631.5Q499 721 528 839L458 852Q407 643 328 500ZM460 682H921V754H460Z" transform="translate(0, 880) scale(1,-1)" /></svg>