<svg xmlns="http://www.w3.org/2000/svg" width="1000" height="1000"><path d="M360 -80H782C862 -80 887 -33 898 107L818 119C817 38 801 -5 766 -5H424C393 -5 384 1 384 10C384 22 409 42 730 240L680 297L644 283H539L734 427L685 491L659 479C272 457 73 376 73 256C73 192 115 160 187 160C324 160 374 247 700 712L641 764L619 752H332V679H583C337 316 259 225 187 225C158 225 144 239 144 256C144 322 312 394 601 403L422 265L465 208L557 210C290 53 271 27 271 -13C271 -52 307 -80 360 -80ZM165 457C283 569 369 693 445 823L368 850C306 729 211 604 104 513ZM889 203 955 244C935 300 894 368 855 418L794 382C832 330 872 259 889 203Z" transform="translate(0, 880) scale(1,-1)" /></svg>