<svg xmlns="http://www.w3.org/2000/svg" width="1000" height="1000"><path d="M169 -68H242V605H169ZM33 437 91 392C195 503 287 659 341 804L269 827C217 679 127 532 33 437ZM719 -5 752 -82C872 -26 939 43 939 194C939 342 816 423 671 423C448 423 289 267 289 100C289 3 353 -58 434 -58C608 -58 664 123 664 265C664 376 613 490 490 547L458 483C559 434 584 346 584 265C584 156 547 18 434 18C398 18 366 51 366 100C366 210 472 348 671 348C780 348 869 296 869 194C869 83 820 22 719 -5ZM496 520 551 495C613 569 676 668 715 743L665 779L650 774H359V701H615C583 635 536 567 496 520ZM897 465 962 511C926 586 876 665 822 737L762 700C820 621 861 546 897 465Z" transform="translate(0, 880) scale(1,-1)" /></svg>