<svg xmlns="http://www.w3.org/2000/svg" width="1000" height="1000"><path d="M357 475 367 399C727 437 865 530 865 622C865 727 790 772 646 772C519 772 405 725 311 661C338 712 358 761 376 826L294 843C252 698 171 556 78 464L144 417C195 474 238 534 264 574C388 655 546 692 646 692C745 692 778 671 778 622C778 555 629 505 357 475ZM451 -78C503 -78 557 -44 557 17V464H478V30C478 11 463 -4 438 -4C385 -5 330 4 276 21V-62C333 -74 380 -78 451 -78ZM939 190 959 270C738 302 444 303 55 269V196C439 227 734 220 939 190Z" transform="translate(0, 880) scale(1,-1)" /></svg>