<svg xmlns="http://www.w3.org/2000/svg" width="1000" height="1000"><path d="M76 -39H926V40H678Q720 121 762.5 221.5Q805 322 838 421L768 443Q734 335 687.5 227.5Q641 120 592 40H76ZM349 144Q333 199 295.5 278.0Q258 357 218 424L157 399Q197 325 232.5 245.0Q268 165 283 110ZM572 166Q562 220 535.5 301.0Q509 382 479 452L416 429Q446 354 470.5 272.5Q495 191 504 137ZM395 652Q380 688 346.0 738.5Q312 789 274 837L212 804Q246 760 279.0 706.0Q312 652 328 614ZM95 521H906V600H664Q731 699 793 813L716 840Q693 785 655.5 717.5Q618 650 583 600H95Z" transform="translate(0, 880) scale(1,-1)" /></svg>