<svg xmlns="http://www.w3.org/2000/svg" width="1000" height="1000"><path d="M120 -59Q318 108 440.5 278.5Q563 449 650 633H825V713H247V633H563Q497 491 374.5 329.5Q252 168 62 7ZM140 426Q206 500 258.0 601.5Q310 703 342 813L263 830Q232 723 180.5 627.5Q129 532 68 469ZM830 -46Q872 -46 897.0 -18.0Q922 10 934.5 70.5Q947 131 952 236L871 262Q871 167 865.5 118.0Q860 69 849.0 52.0Q838 35 820 35H680Q658 35 649.5 45.5Q641 56 641 82V277Q641 336 600.5 365.5Q560 395 499 395Q475 395 442 388V315Q462 318 477 318Q520 318 541.0 296.5Q562 275 562 238V80Q562 31 572.5 4.5Q583 -22 609.0 -34.0Q635 -46 685 -46Z" transform="translate(0, 880) scale(1,-1)" /></svg>