<svg xmlns="http://www.w3.org/2000/svg" width="1000" height="1000"><path d="M640 -74Q713 -74 748.0 -24.0Q783 26 780 119V835H704V152Q704 76 690.5 40.0Q677 4 634 4Q599 4 581.0 28.0Q563 52 563 91Q563 125 574.5 145.5Q586 166 612 177Q625 182 645 182Q683 182 729 164L736 239Q687 256 640 256Q606 256 582 246Q538 229 513.5 192.5Q489 156 489 92Q489 12 530.5 -31.0Q572 -74 640 -74ZM140 -48H220V743H140ZM220 249Q275 311 335.0 351.5Q395 392 490.0 416.5Q585 441 727 441H944V515H723Q577 515 480.0 494.5Q383 474 324.5 439.5Q266 405 220 355Z" transform="translate(0, 880) scale(1,-1)" /></svg>