<svg xmlns="http://www.w3.org/2000/svg" width="1000" height="1000"><path d="M273 -82Q407 -82 508.5 1.0Q610 84 666.0 240.0Q722 396 722 608V836H638V616Q638 425 592.5 284.0Q547 143 464.5 67.0Q382 -9 273 -9Q217 -9 181.5 19.0Q146 47 146 94Q146 154 187.5 187.5Q229 221 309 221Q353 221 396.0 205.5Q439 190 478.5 166.0Q518 142 582 98Q678 33 750.0 -8.5Q822 -50 914 -80L954 -13Q863 16 794.0 56.0Q725 96 634 160Q565 208 520.5 234.5Q476 261 422.5 279.0Q369 297 309 297Q201 297 133.5 244.0Q66 191 66 95Q66 16 122.0 -33.0Q178 -82 273 -82ZM163 421 176 433H945V508H254L479 715L411 763L396 750H97V675H329L122 482Z" transform="translate(0, 880) scale(1,-1)" /></svg>