<svg xmlns="http://www.w3.org/2000/svg" width="1000" height="1000"><path d="M427 -82Q660 -82 660 346V715H585V347Q585 162 549.0 75.0Q513 -12 427 -12Q385 -12 362.5 8.5Q340 29 340 68Q340 105 368.0 125.5Q396 146 455 146Q507 146 554.5 123.0Q602 100 681 49Q749 5 801.0 -24.5Q853 -54 917 -80L953 -10Q886 15 834.0 44.0Q782 73 715 116Q660 152 624.0 172.0Q588 192 546.0 204.5Q504 217 455 217Q371 217 319.0 179.5Q267 142 267 69Q267 1 311.0 -40.5Q355 -82 427 -82ZM428 312Q548 293 639 293Q774 293 851.5 331.0Q929 369 929 446Q929 530 856.5 568.5Q784 607 667 607Q562 607 462.0 585.5Q362 564 277 530L287 461Q368 494 464.0 513.5Q560 533 661 533Q752 533 802.0 513.5Q852 494 852 444Q852 401 801.0 381.0Q750 361 648 361Q556 361 428 376ZM294 715H925V783H294ZM108 -28H185V733H108Z" transform="translate(0, 880) scale(1,-1)" /></svg>