<svg xmlns="http://www.w3.org/2000/svg" width="1000" height="1000"><path d="M693 475Q752 525 809.0 597.0Q866 669 913 759L871 807L855 797H385V723H808Q745 609 650 523ZM177 -68H251V605H177ZM421 -14Q417 37 417 101Q417 271 450 434L376 444Q341 275 341 104Q341 50 346 -12ZM95 392Q173 474 241.0 583.5Q309 693 352 804L280 827Q240 716 175.0 612.0Q110 508 37 437ZM626 -58Q657 -58 684.5 -49.0Q712 -40 746 -18V67Q678 17 632 17Q622 17 615.0 35.0Q608 53 608 87Q608 149 616.0 219.5Q624 290 643 417Q645 424 647 442L578 453Q555 320 545.0 239.5Q535 159 535 85Q535 21 558.5 -18.5Q582 -58 626 -58ZM943 -21Q942 89 921.5 216.0Q901 343 870 444L797 422Q827 326 845.0 202.5Q863 79 865 -32Z" transform="translate(0, 880) scale(1,-1)" /></svg>