<svg xmlns="http://www.w3.org/2000/svg" width="1000" height="1000"><path d="M664 1Q756 94 796.0 181.5Q836 269 836 384Q836 477 789.0 527.5Q742 578 650 578Q578 578 524.0 564.0Q470 550 405 521L429 453Q541 506 650 506Q705 506 730.5 475.0Q756 444 756 384Q756 296 715.0 203.5Q674 111 592 36ZM55 -21H945V56H55ZM511 183Q559 183 590.5 207.0Q622 231 622 272Q622 310 603.0 352.5Q584 395 558 431L488 405Q513 375 527.0 345.0Q541 315 541 290Q541 273 529.5 265.5Q518 258 500 258H290Q248 258 248 289Q248 327 284.5 412.0Q321 497 403 635L331 666Q239 516 202.0 426.5Q165 337 165 274Q165 233 194.5 208.0Q224 183 285 183ZM101 718H899V795H101Z" transform="translate(0, 880) scale(1,-1)" /></svg>