<svg xmlns="http://www.w3.org/2000/svg" width="1000" height="1000"><path d="M850 -76Q885 22 905.0 109.5Q925 197 925 298Q925 357 905.0 404.0Q885 451 850.0 478.0Q815 505 773 505Q728 505 701.0 496.0Q674 487 655 468V826H576V404L565 385L603 324Q645 374 684.0 397.0Q723 420 768 420Q803 420 825.5 385.0Q848 350 848 293Q848 211 827.0 120.5Q806 30 773 -49ZM177 -68H251V605H177ZM468 -3Q544 -3 597.0 12.5Q650 28 705 72L679 143Q633 106 581.0 92.0Q529 78 470 78Q432 78 432 150Q432 307 476 499L398 518Q352 299 352 133Q352 -3 468 -3ZM95 392Q173 474 241.0 583.5Q309 693 352 804L281 825Q241 714 176.0 610.0Q111 506 38 435Z" transform="translate(0, 880) scale(1,-1)" /></svg>