<svg xmlns="http://www.w3.org/2000/svg" width="1000" height="1000"><path d="M586 -87Q674 -17 723.5 77.0Q773 171 773 270Q773 384 723.5 446.0Q674 508 581 508Q501 508 457.0 463.0Q413 418 413 350Q413 286 460.5 244.0Q508 202 588 202Q690 202 765.5 247.0Q841 292 880.5 363.5Q920 435 920 513Q920 593 887.0 655.5Q854 718 787.5 753.5Q721 789 624 789Q526 789 449.0 753.0Q372 717 314.0 660.0Q256 603 187 515V429Q274 526 336.0 583.5Q398 641 469.0 675.5Q540 710 624 710Q739 710 789.5 656.5Q840 603 840 511Q840 457 809.5 402.5Q779 348 721.5 312.5Q664 277 588 277Q542 277 517.0 298.0Q492 319 492 350Q492 385 514.0 408.0Q536 431 576 431Q631 431 662.5 391.5Q694 352 694 273Q694 194 650.5 113.5Q607 33 521 -39ZM110 -48H187V743H110Z" transform="translate(0, 880) scale(1,-1)" /></svg>