<svg xmlns="http://www.w3.org/2000/svg" width="1000" height="1000"><path d="M210 40H288V640Q354 676 422.5 693.0Q491 710 574 710Q700 710 700 615Q700 572 681.0 530.0Q662 488 621 441L676 400Q730 461 755.0 509.0Q780 557 780 612Q780 788 571 788Q492 788 424.5 767.0Q357 746 288 705V782H210ZM54 -36H947V40H54ZM630 40Q711 111 759.0 177.5Q807 244 807 316Q807 385 757.0 417.5Q707 450 608 450Q562 450 498 442V375Q566 379 587 379Q659 379 691.5 364.5Q724 350 724 316Q724 251 673.5 184.0Q623 117 533 40Z" transform="translate(0, 880) scale(1,-1)" /></svg>