<svg xmlns="http://www.w3.org/2000/svg" width="1000" height="1000"><path d="M159 -70Q258 -32 350.5 39.0Q443 110 500.0 190.0Q557 270 557 333Q557 389 513.0 423.0Q469 457 386 457Q301 457 258.0 428.0Q215 399 215 354Q215 302 269.5 271.0Q324 240 469 240Q611 240 707.5 268.0Q804 296 851.0 341.0Q898 386 898 436Q898 519 828.5 559.5Q759 600 609 600Q517 600 445.5 594.0Q374 588 295 574L323 510Q394 521 459.5 526.0Q525 531 609 531Q811 531 811 436Q811 403 773.5 375.0Q736 347 659.0 329.5Q582 312 469 312Q395 312 357.0 317.5Q319 323 307.5 331.5Q296 340 296 354Q296 371 317.5 382.5Q339 394 386 394Q472 394 472 334Q472 285 423.0 218.0Q374 151 288.5 90.5Q203 30 99 -2ZM797 -68Q858 -68 888.0 -52.5Q918 -37 930.0 -2.0Q942 33 949 105L876 136Q872 78 866.0 50.5Q860 23 847.5 11.5Q835 0 811 0H673Q642 0 631.5 7.5Q621 15 621 37V210H543V20Q543 -31 573.0 -49.5Q603 -68 680 -68ZM553 562 880 703 807 760 785 752 553 753 513 843 441 829 470 753H155V680H685L505 585Z" transform="translate(0, 880) scale(1,-1)" /></svg>