<svg xmlns="http://www.w3.org/2000/svg" width="1000" height="1000"><path d="M132 247Q292 316 416.0 389.0Q540 462 652.0 562.0Q764 662 860 800L785 833Q688 697 584.5 603.0Q481 509 364.5 443.0Q248 377 88 311ZM220 -73Q303 -73 362.5 -40.5Q422 -8 453.0 46.0Q484 100 484 163Q484 243 442.0 304.5Q400 366 323 401L275 349Q337 317 370.5 272.0Q404 227 404 163Q404 91 357.0 43.5Q310 -4 220 -4Q191 -4 176.0 5.5Q161 15 161 32Q161 57 225.5 111.0Q290 165 394.5 217.0Q499 269 616 293V72Q616 20 625.0 -7.5Q634 -35 656.5 -46.5Q679 -58 721 -58H832Q875 -58 897.5 -34.5Q920 -11 929.5 40.5Q939 92 943 188L866 203Q864 119 860.5 83.0Q857 47 848.0 34.0Q839 21 820 21H734Q710 21 703.0 31.0Q696 41 696 76V348L638 377L615 362Q472 331 348.5 272.0Q225 213 152.5 147.0Q80 81 80 32Q80 -21 116.5 -47.0Q153 -73 220 -73ZM873 356Q918 421 918 498Q918 543 886.5 568.0Q855 593 792.5 602.5Q730 612 628 612Q487 612 363.5 578.5Q240 545 159 487V581H82V388H159V437Q234 488 365.0 513.5Q496 539 628 539Q745 539 791.5 528.0Q838 517 838 497Q838 471 827.0 440.0Q816 409 797 384ZM168 635H496V700H168ZM168 748H496V813H168Z" transform="translate(0, 880) scale(1,-1)" /></svg>