<svg xmlns="http://www.w3.org/2000/svg" width="1000" height="1000"><path d="M259 116Q328 116 388.0 149.0Q448 182 484.5 238.0Q521 294 521 360Q521 452 480.0 530.5Q439 609 320 688L252 653Q360 575 401.5 502.5Q443 430 443 371Q443 320 416.5 278.0Q390 236 348.0 212.0Q306 188 261 188Q206 188 171.5 213.0Q137 238 137 271Q137 311 171.5 345.0Q206 379 253 398Q340 433 461.5 454.0Q583 475 703 477V213H597V143L943 140V213H784V537L725 565L707 548Q566 543 439.5 520.5Q313 498 218 461Q149 435 104.0 387.0Q59 339 59 275Q59 202 110.0 159.0Q161 116 259 116ZM106 -40H894V36H106ZM179 607Q450 671 717 786L651 840Q543 790 406.0 743.0Q269 696 147 668Z" transform="translate(0, 880) scale(1,-1)" /></svg>