<svg xmlns="http://www.w3.org/2000/svg" width="1000" height="1000"><path d="M777 90Q815 90 847.5 114.0Q880 138 900.0 182.0Q920 226 920 285Q920 378 851.5 426.0Q783 474 621 474Q364 474 101 405L115 327Q355 398 621 398Q714 398 760.5 383.5Q807 369 821.0 345.5Q835 322 835 285Q835 226 816.5 194.5Q798 163 764 163Q715 163 657 180V100Q713 90 777 90ZM151 610H748L699 545L753 513L861 648L807 696L786 686H151ZM541 832H459V-70H541ZM340 291Q222 223 93 168L140 108Q254 160 384 235Z" transform="translate(0, 880) scale(1,-1)" /></svg>