<svg xmlns="http://www.w3.org/2000/svg" width="1000" height="1000"><path d="M107 -78Q162 21 179.5 153.0Q197 285 197 438V640H942V711H606Q587 764 541 848L468 828Q494 779 521 711H121V438Q121 295 104.5 172.5Q88 50 36 -45ZM209 -33H955V39H209ZM301 146H377V517H301ZM605 39Q671 74 710.0 125.5Q749 177 749 245Q749 273 733.0 298.0Q717 323 686.0 338.5Q655 354 613 354Q547 354 513.0 324.5Q479 295 479 254Q479 212 521.5 186.0Q564 160 647 160Q727 160 785.5 187.0Q844 214 875.0 263.0Q906 312 906 376Q906 455 842.0 504.0Q778 553 657 553Q552 553 489.5 513.5Q427 474 377 405V312Q421 388 493.5 436.0Q566 484 657 484Q732 484 778.5 455.0Q825 426 825 376Q825 307 782.0 260.5Q739 214 647 214Q598 214 572.5 225.5Q547 237 547 256Q547 273 565.0 285.0Q583 297 613 297Q641 297 658.5 281.5Q676 266 676 243Q676 184 639.5 135.5Q603 87 515 39Z" transform="translate(0, 880) scale(1,-1)" /></svg>