<svg xmlns="http://www.w3.org/2000/svg" width="1000" height="1000"><path d="M880 418Q943 525 943 632Q943 725 881.0 766.0Q819 807 712 807Q623 807 537.5 784.0Q452 761 379 724L393 649Q463 684 545.0 705.5Q627 727 712 727Q789 727 824.5 703.5Q860 680 860 630Q860 595 848.0 549.0Q836 503 811 461ZM192 -78H269V611H192ZM99 393Q186 477 261.0 589.5Q336 702 382 815L302 839Q257 724 186.5 616.5Q116 509 38 437ZM499 -92Q601 -13 640.5 97.0Q680 207 680 383V664H598V387Q598 272 582.5 196.0Q567 120 529.0 61.5Q491 3 420 -52ZM407 329H800V404H407ZM448 506H770V577H448Z" transform="translate(0, 880) scale(1,-1)" /></svg>