<svg xmlns="http://www.w3.org/2000/svg" width="1000" height="1000"><path d="M367 399Q540 417 651.0 451.5Q762 486 813.5 530.0Q865 574 865 622Q865 700 810.5 736.0Q756 772 646 772Q474 772 311 661Q351 737 376 826L294 843Q263 734 205.5 633.5Q148 533 78 464L144 417Q210 490 264 574Q351 631 457.5 661.5Q564 692 646 692Q719 692 748.5 675.5Q778 659 778 622Q778 572 670.5 535.0Q563 498 357 475ZM451 -78Q493 -78 525.0 -52.0Q557 -26 557 17V464H478V30Q478 15 467.0 5.5Q456 -4 438 -4Q360 -5 276 21V-62Q318 -71 357.5 -74.5Q397 -78 451 -78ZM959 270Q794 294 570 294Q342 294 55 269V196Q301 216 517 216Q766 216 939 190Z" transform="translate(0, 880) scale(1,-1)" /></svg>