<svg xmlns="http://www.w3.org/2000/svg" width="1000" height="1000"><path d="M758 -40Q823 -40 859.0 -19.0Q895 2 913.0 56.5Q931 111 938 217L853 234Q849 143 842.0 104.0Q835 65 818.5 51.0Q802 37 764 37H298Q177 37 177 107Q177 139 216.5 192.5Q256 246 393.0 371.5Q530 497 805 723L748 766L730 758H95V681H633Q388 477 270.5 364.0Q153 251 121.5 198.5Q90 146 90 101Q90 34 144.5 -3.0Q199 -40 307 -40ZM716 327Q602 387 470.0 441.0Q338 495 217 528L183 458Q298 428 424.5 375.5Q551 323 669 261Z" transform="translate(0, 880) scale(1,-1)" /></svg>