<svg xmlns="http://www.w3.org/2000/svg" width="1000" height="1000"><path d="M129 352 167 365H924L925 443H206Q243 596 255 717H853V796H181Q180 716 167.5 620.5Q155 525 140 456Q135 435 104 423ZM103 -17Q159 39 216.0 112.5Q273 186 311 254L239 278Q203 212 149.0 145.5Q95 79 41 32ZM471 -73Q516 -73 537.0 -52.0Q558 -31 558 18V641H482V18Q482 6 476.5 1.0Q471 -4 458 -4Q402 -4 325 20V-61Q404 -73 471 -73ZM955 22Q923 75 864.5 148.5Q806 222 752 277L687 247Q740 192 797.0 117.0Q854 42 886 -14Z" transform="translate(0, 880) scale(1,-1)" /></svg>