<svg xmlns="http://www.w3.org/2000/svg" width="1000" height="1000"><path d="M580 185Q741 185 833.5 236.0Q926 287 926 392Q926 473 828.0 510.5Q730 548 533 548Q426 548 257 535L274 465Q419 476 518 476Q676 476 759.5 453.0Q843 430 843 385Q843 322 772.5 289.5Q702 257 580 257Q381 257 179 289V213Q374 185 580 185ZM431 -79Q495 -79 522.0 -60.0Q549 -41 549 16V380H472V29Q472 14 463.0 5.0Q454 -4 438 -5Q359 -9 274 20V-62Q336 -79 431 -79ZM535 510Q656 581 738.5 637.5Q821 694 872 744L813 792L782 779H119V707H702Q636 644 471 537Z" transform="translate(0, 880) scale(1,-1)" /></svg>