<svg xmlns="http://www.w3.org/2000/svg" width="1000" height="1000"><path d="M795 -70Q841 -70 867.0 -51.0Q893 -32 906.0 7.5Q919 47 924 114L849 127Q846 70 840.0 43.0Q834 16 822.0 6.0Q810 -4 786 -4H436Q393 -4 393 22Q393 59 414.0 110.5Q435 162 474 213Q514 266 514 320Q514 359 475.0 382.5Q436 406 371 406Q300 406 265.0 382.0Q230 358 230 323Q230 298 247.5 280.0Q265 262 321.5 250.5Q378 239 486 239Q628 239 719.0 261.0Q810 283 850.5 319.0Q891 355 891 399Q891 532 619 532Q448 532 295 509L323 445Q477 463 619 463Q726 463 768.5 448.0Q811 433 811 399Q811 355 732.0 327.5Q653 300 486 300Q409 300 370.0 302.5Q331 305 318.5 310.0Q306 315 306 323Q306 334 323.5 341.0Q341 348 371 348Q404 348 423.0 341.0Q442 334 442 320Q442 303 434.5 282.5Q427 262 412 244Q368 192 341.0 131.0Q314 70 314 16Q314 -32 337.0 -51.0Q360 -70 419 -70ZM108 105H747V173H108ZM513 494 820 615 752 664 730 656H195V589H614L465 514ZM59 702H937V769H553L513 847L441 835L470 769H59Z" transform="translate(0, 880) scale(1,-1)" /></svg>