<svg xmlns="http://www.w3.org/2000/svg" width="1000" height="1000"><path d="M632 68 676 14C832 59 936 101 936 181C936 246 898 282 812 282C799 282 785 279 776 277L882 418L830 456L811 448C577 441 351 376 351 257C351 200 397 169 443 169C581 169 657 339 679 527H888V594H491V527H607C589 366 537 233 443 233C430 233 418 240 419 257C422 328 608 382 783 382C759 341 735 306 703 268C698 262 683 254 667 247L696 194C733 214 774 222 805 222C844 222 858 212 858 181C858 126 759 93 632 68ZM103 10H174V772H103ZM678 -81 747 -49C713 10 656 85 607 147L541 111C591 52 642 -19 678 -81ZM236 130H303V722H236ZM328 500 392 460C454 575 492 694 528 839L458 852C423 707 377 588 328 500ZM460 682H921V754H460Z" transform="translate(0, 880) scale(1,-1)" /></svg>