<svg xmlns="http://www.w3.org/2000/svg" width="1000" height="1000"><path d="M517 -14Q653 5 735.5 23.0Q818 41 868.5 73.5Q919 106 919 159Q919 215 877.5 242.5Q836 270 767 270Q735 270 699 264L784 365L732 424Q600 424 444.0 402.5Q288 381 174.0 329.5Q60 278 60 196Q60 147 99.5 115.5Q139 84 193 84Q332 84 414.5 198.5Q497 313 550 508H852V578H219V508H468Q449 409 409.5 327.5Q370 246 314.5 198.0Q259 150 193 150Q168 150 152.5 162.0Q137 174 137 196Q137 242 236.5 278.5Q336 315 470.0 335.5Q604 356 692 356L609 249L655 199Q703 207 746 207Q837 207 837 159Q837 119 737.5 84.5Q638 50 486 32ZM586 -57Q565 -19 528.0 29.0Q491 77 451 117L389 87Q425 51 459.0 3.5Q493 -44 518 -89ZM121 525Q178 595 216.0 671.0Q254 747 278 835L202 850Q179 765 143.0 697.0Q107 629 51 563ZM200 675H902V750H200Z" transform="translate(0, 880) scale(1,-1)" /></svg>