<svg xmlns="http://www.w3.org/2000/svg" width="1000" height="1000"><path d="M91 366Q273 459 388.5 561.0Q504 663 593 810L526 841Q454 714 331.0 615.5Q208 517 35 435ZM168 -65Q239 -9 296.0 55.5Q353 120 390 184L312 219Q281 160 225.5 98.0Q170 36 104 -15ZM897 -34Q851 30 789.0 99.0Q727 168 665 227L597 183Q657 129 715.0 61.5Q773 -6 817 -74ZM686 345Q631 372 539.5 405.5Q448 439 365 464L327 395Q408 374 498.0 339.0Q588 304 644 273ZM969 433Q863 519 741.0 591.0Q619 663 494 712L446 657Q699 553 914 365Z" transform="translate(0, 880) scale(1,-1)" /></svg>