<svg xmlns="http://www.w3.org/2000/svg" width="1000" height="1000"><path d="M642 45H719C794 129 847 208 847 329C847 450 776 522 639 522C493 522 426 438 426 348C426 255 478 195 559 195C635 195 679 251 679 320V709H606V345C606 301 587 274 559 274C526 274 503 303 503 348C503 390 529 447 639 447C737 447 768 405 768 329C768 234 733 155 642 45ZM188 -68H267V605H188ZM352 -34H950V45H352ZM99 392C213 503 316 659 376 804L298 827C240 679 141 532 37 437ZM389 629C583 659 770 706 899 758L859 829C751 779 559 732 374 704Z" transform="translate(0, 880) scale(1,-1)" /></svg>