<svg xmlns="http://www.w3.org/2000/svg" width="1000" height="1000"><path d="M861 -78Q903 -78 931.0 -30.0Q959 18 977 139L904 168Q887 8 849 8Q721 8 641.0 223.0Q561 438 533 829L452 822Q469 516 524.5 315.0Q580 114 665.5 18.0Q751 -78 861 -78ZM110 -48H187V713H110ZM187 129Q248 234 320.0 298.0Q392 362 484 400Q583 441 695.5 465.5Q808 490 944 501V575Q639 552 451 469Q371 434 305.5 380.5Q240 327 187 235ZM895 658Q870 691 823.0 736.0Q776 781 729 819L672 775Q718 736 764.0 689.5Q810 643 834 610Z" transform="translate(0, 880) scale(1,-1)" /></svg>