<svg xmlns="http://www.w3.org/2000/svg" width="1000" height="1000"><path d="M680 110C806 110 888 197 888 490C888 709 795 807 582 807C411 807 255 780 131 746L146 673C276 707 422 734 582 734C755 734 811 642 811 494C811 289 766 185 680 185C626 185 548 192 486 206V129C546 117 621 110 680 110ZM123 -30H877V43H123ZM93 162 159 112C354 231 489 413 498 641L416 648C409 433 290 275 93 162ZM581 345 618 416C514 454 331 502 182 535L146 472C297 436 484 384 581 345Z" transform="translate(0, 880) scale(1,-1)" /></svg>