<svg xmlns="http://www.w3.org/2000/svg" width="1000" height="1000"><path d="M850 -85Q895 -85 921.0 -39.0Q947 7 961 125L894 146Q887 63 877.0 33.0Q867 3 847 3Q761 3 711.0 125.5Q661 248 639.5 420.5Q618 593 604 827H529Q539 580 565.5 385.0Q592 190 660.0 52.5Q728 -85 850 -85ZM192 -78H269V611H192ZM414 -55Q552 12 679.5 133.5Q807 255 883 398L816 437Q774 356 702.5 272.0Q631 188 540.5 117.0Q450 46 353 5ZM99 393Q186 477 261.0 589.5Q336 702 382 815L302 839Q257 724 186.5 616.5Q116 509 38 437ZM333 420 917 523 902 593 321 491ZM862 663Q842 693 803.5 733.5Q765 774 727 806L671 765Q706 735 743.5 692.0Q781 649 804 616Z" transform="translate(0, 880) scale(1,-1)" /></svg>