<svg xmlns="http://www.w3.org/2000/svg" width="1000" height="1000"><path d="M450 100Q505 100 528.0 121.5Q551 143 551 187V596H470V197Q470 183 461.0 177.0Q452 171 433 171Q408 171 367.0 177.0Q326 183 281 194V115Q361 100 450 100ZM112 -43H888V32H112ZM113 220Q174 278 223.5 362.5Q273 447 299 528L217 546Q198 473 153.5 395.5Q109 318 52 261ZM964 239Q936 307 881.5 394.5Q827 482 765 551L689 526Q751 453 804.5 365.5Q858 278 882 213ZM721 675Q652 712 541.5 755.5Q431 799 353 818L309 758Q389 741 490.0 699.5Q591 658 666 617Z" transform="translate(0, 880) scale(1,-1)" /></svg>