<svg xmlns="http://www.w3.org/2000/svg" width="1000" height="1000"><path d="M187 466 212 476H866V552H290Q389 665 490 823L409 846Q368 772 310.5 689.5Q253 607 208 559Q200 551 186.0 544.0Q172 537 156 534ZM127 -12Q213 68 282.0 169.0Q351 270 380 356L301 366Q224 171 64 36ZM455 -57Q511 -57 538.5 -34.0Q566 -11 566 38V624H487V57Q487 36 477.5 27.0Q468 18 442 18Q373 18 315 36V-46Q389 -57 455 -57ZM974 86Q622 197 282 257L263 186Q584 132 943 9ZM92 316H908V389H92ZM98 672H902V746H98Z" transform="translate(0, 880) scale(1,-1)" /></svg>