<svg xmlns="http://www.w3.org/2000/svg" width="1000" height="1000"><path d="M169 -68H242V605H169ZM91 392Q168 474 234.0 583.5Q300 693 341 804L269 827Q230 717 167.0 613.0Q104 509 33 437ZM752 -82Q848 -37 893.5 24.5Q939 86 939 194Q939 266 903.0 317.5Q867 369 806.0 396.0Q745 423 671 423Q563 423 475.5 377.5Q388 332 338.5 258.0Q289 184 289 100Q289 29 330.5 -14.5Q372 -58 434 -58Q516 -58 567.5 -9.5Q619 39 641.5 112.5Q664 186 664 265Q664 354 621.0 430.0Q578 506 490 547L458 483Q584 422 584 265Q584 205 569.0 148.5Q554 92 520.5 55.0Q487 18 434 18Q406 18 386.0 41.0Q366 64 366 100Q366 158 402.0 215.5Q438 273 507.5 310.5Q577 348 671 348Q757 348 813.0 308.0Q869 268 869 194Q869 112 832.0 63.5Q795 15 719 -5ZM551 495Q595 548 639.5 615.5Q684 683 715 743L665 779L650 774H359V701H615Q592 654 560.0 606.0Q528 558 496 520ZM962 511Q910 620 822 737L762 700Q839 595 897 465Z" transform="translate(0, 880) scale(1,-1)" /></svg>