<svg xmlns="http://www.w3.org/2000/svg" width="1000" height="1000"><path d="M104 423 129 352 167 365H924L925 443H206C224 518 246 628 255 717H853V796H181C179 680 157 535 140 456C136 439 117 428 104 423ZM41 32 103 -17C172 52 258 158 311 254L239 278C190 189 112 94 41 32ZM471 -73C529 -73 558 -48 558 18V641H482V18C482 2 475 -4 458 -4C415 -4 373 5 325 20V-61C371 -68 417 -73 471 -73ZM886 -14 955 22C913 92 825 203 752 277L687 247C761 171 845 57 886 -14Z" transform="translate(0, 880) scale(1,-1)" /></svg>