<svg xmlns="http://www.w3.org/2000/svg" width="1000" height="1000"><path d="M472 -80Q553 -80 599.5 -26.0Q646 28 646 114Q646 198 594.5 293.0Q543 388 461 473L402 429Q440 394 478.5 338.0Q517 282 542.0 223.0Q567 164 567 119Q567 67 540.5 28.0Q514 -11 469 -11Q420 -11 365 4V-71Q415 -80 472 -80ZM84 -3Q109 9 171 49L202 70Q220 81 245 81Q260 81 269.0 76.0Q278 71 286.5 53.0Q295 35 306 -3L463 91L436 126L336 85Q332 106 319.0 120.0Q306 134 279 140Q345 208 412 301L355 333Q286 239 205.0 168.5Q124 98 45 69ZM111 259Q256 309 383.5 375.5Q511 442 567 511L490 541Q449 488 328.0 426.5Q207 365 78 324ZM962 44Q788 136 454 246L433 184Q590 132 707.5 84.0Q825 36 911 -15ZM581 208Q687 239 748.0 260.0Q809 281 875 315L827 369Q762 335 702.0 311.5Q642 288 556 264ZM235 481H765V550H235ZM393 713Q362 781 317 840L245 817Q267 787 287.0 751.0Q307 715 317 687ZM89 624H911V693H89ZM668 664Q710 730 756 823L673 844Q662 809 641.5 763.5Q621 718 600 683Z" transform="translate(0, 880) scale(1,-1)" /></svg>