<svg xmlns="http://www.w3.org/2000/svg" width="1000" height="1000"><path d="M810 -78Q857 -78 884.5 -59.0Q912 -40 928.0 7.0Q944 54 954 142L882 162Q877 93 869.0 59.0Q861 25 848.0 13.5Q835 2 812 2Q744 2 681.5 56.0Q619 110 555 236Q494 356 468.0 516.5Q442 677 442 837H359Q361 660 390.5 488.0Q420 316 487 188Q561 46 639.5 -16.0Q718 -78 810 -78ZM137 -69Q367 11 565.0 153.0Q763 295 874 467L800 502Q746 415 647.0 320.5Q548 226 404.0 141.0Q260 56 85 3ZM177 231Q502 343 699 508L642 562Q547 483 415.5 417.0Q284 351 125 303ZM62 570 946 645 939 717 56 644Z" transform="translate(0, 880) scale(1,-1)" /></svg>