<svg xmlns="http://www.w3.org/2000/svg" width="1000" height="1000"><path d="M799 -59Q852 -59 879.0 -38.5Q906 -18 918.5 29.0Q931 76 937 169L859 194Q855 116 849.5 80.5Q844 45 830.5 31.0Q817 17 788 17H748Q719 17 705.0 22.5Q691 28 686.0 41.0Q681 54 681 80V816H603V81Q603 24 614.0 -5.5Q625 -35 652.0 -47.0Q679 -59 733 -59ZM233 -66Q322 -66 385.5 -22.5Q449 21 481.0 86.5Q513 152 513 216Q513 272 495.0 316.0Q477 360 426.5 396.0Q376 432 284 454L260 390Q333 370 370.5 344.0Q408 318 420.5 287.5Q433 257 433 216Q433 171 407.0 122.0Q381 73 335.0 40.5Q289 8 233 8Q190 8 164.0 24.0Q138 40 138 76Q138 118 179.5 158.0Q221 198 300.0 240.5Q379 283 514 344L470 400Q278 317 168.5 234.5Q59 152 59 76Q59 3 104.5 -31.5Q150 -66 233 -66ZM240 459Q223 503 196.5 552.5Q170 602 140 644L81 610Q112 565 138.0 516.0Q164 467 179 425ZM353 400Q445 491 533 651L458 683Q426 613 383.5 547.5Q341 482 293 434ZM74 672Q196 682 322.5 704.0Q449 726 541 758L515 833Q437 803 314.5 781.0Q192 759 63 748Z" transform="translate(0, 880) scale(1,-1)" /></svg>