<svg xmlns="http://www.w3.org/2000/svg" width="1000" height="1000"><path d="M843 -61Q886 -61 908.5 -38.0Q931 -15 940.5 37.0Q950 89 954 187L873 201Q871 116 867.5 79.0Q864 42 855.0 29.0Q846 16 827 16H731Q714 16 707.5 20.0Q701 24 701 33Q701 51 718.5 158.0Q736 265 797 607L726 633L704 624H98V543H699Q646 240 632.0 151.0Q618 62 618 24Q618 -12 627.5 -30.0Q637 -48 659.5 -54.5Q682 -61 725 -61ZM111 -76Q252 10 325.0 126.5Q398 243 428.5 398.5Q459 554 483 830L400 834Q377 560 348.5 415.0Q320 270 253.0 166.0Q186 62 53 -17ZM588 281Q514 311 393.5 348.0Q273 385 152 416L116 350Q244 314 364.0 275.5Q484 237 551 206Z" transform="translate(0, 880) scale(1,-1)" /></svg>