<svg xmlns="http://www.w3.org/2000/svg" width="1000" height="1000"><path d="M720 -80Q760 -80 780.0 -61.5Q800 -43 800 5V622Q800 690 783.5 728.5Q767 767 730.5 784.0Q694 801 630 801H471Q403 801 357.0 793.5Q311 786 273 771V703Q316 719 359.5 726.0Q403 733 466 733H624Q680 733 703.0 707.0Q726 681 726 618V9Q726 -4 720.5 -9.5Q715 -15 703 -15Q645 -15 583 7V-69Q642 -80 720 -80ZM181 -76Q231 0 255.0 89.5Q279 179 285.0 264.0Q291 349 291 468V802H219V468Q219 361 213.0 280.0Q207 199 184.0 115.5Q161 32 114 -40ZM658 467Q540 558 399 638L355 588Q496 506 607 416ZM53 342V269H949V342Z" transform="translate(0, 880) scale(1,-1)" /></svg>