<svg xmlns="http://www.w3.org/2000/svg" width="1000" height="1000"><path d="M719 45Q783 117 815.0 181.0Q847 245 847 329Q847 421 794.0 471.5Q741 522 639 522Q569 522 521.0 498.0Q473 474 449.5 434.5Q426 395 426 348Q426 278 462.0 236.5Q498 195 559 195Q614 195 646.5 230.5Q679 266 679 320V709H606V345Q606 312 593.0 293.0Q580 274 559 274Q534 274 518.5 294.0Q503 314 503 348Q503 387 534.0 417.0Q565 447 639 447Q710 447 739.0 418.0Q768 389 768 329Q768 258 739.0 192.5Q710 127 642 45ZM188 -68H267V605H188ZM352 -34H950V45H352ZM99 392Q184 474 257.0 584.0Q330 694 376 804L298 827Q255 716 185.0 612.5Q115 509 37 437ZM389 629Q535 652 669.0 685.5Q803 719 899 758L859 829Q780 792 648.5 759.0Q517 726 374 704Z" transform="translate(0, 880) scale(1,-1)" /></svg>