<svg xmlns="http://www.w3.org/2000/svg" width="1000" height="1000"><path d="M446 -79Q496 -79 518.5 -59.5Q541 -40 541 2V646H462V18Q462 5 453.0 -3.0Q444 -11 428 -11Q371 -11 291 11V-68Q365 -79 446 -79ZM111 11Q176 50 239.0 104.5Q302 159 343 217L271 242Q235 191 177.0 144.0Q119 97 54 62ZM62 276H942V348H62ZM946 58Q911 93 842.5 145.0Q774 197 711 238L653 193Q717 150 783.5 95.5Q850 41 885 2ZM133 449H874V521H133ZM722 569H913V643H782L807 755L742 796L720 784H128V709H710L699 635Z" transform="translate(0, 880) scale(1,-1)" /></svg>