<svg xmlns="http://www.w3.org/2000/svg" width="1000" height="1000"><path d="M407 -62Q540 38 604.5 191.0Q669 344 684.5 484.5Q700 625 703 807H621Q619 627 606.0 496.5Q593 366 531.5 225.5Q470 85 340 -6ZM121 -69Q203 22 248.0 154.5Q293 287 311.5 434.0Q330 581 345 806L261 809Q252 597 234.0 450.5Q216 304 172.0 184.0Q128 64 48 -18ZM477 191Q451 238 397.5 313.0Q344 388 294 451L245 399Q293 338 341.0 262.5Q389 187 418 130ZM957 0Q899 100 817.0 207.5Q735 315 655 398L609 338Q678 260 752.5 152.5Q827 45 884 -58Z" transform="translate(0, 880) scale(1,-1)" /></svg>