<svg xmlns="http://www.w3.org/2000/svg" width="1000" height="1000"><path d="M56 -78Q138 4 206.0 123.5Q274 243 335 414L288 450Q186 148 21 -12ZM251 -74Q300 -74 317.5 -14.0Q335 46 335 178Q335 261 307.0 303.0Q279 345 234 345Q183 345 137.5 330.5Q92 316 42 288L47 221Q144 277 236 274Q258 273 269.5 248.0Q281 223 281 176Q281 -3 250 -3Q220 -3 190 17V-63Q218 -74 251 -74ZM166 283Q206 363 221.5 432.5Q237 502 237 612H186Q186 511 173.0 449.0Q160 387 123 321ZM134 483Q184 464 222 464Q284 464 314.0 511.5Q344 559 344 647Q344 727 316.0 772.0Q288 817 227 817Q183 817 151.5 776.0Q120 735 107 671V790H54V457H107V608Q129 679 157.0 711.5Q185 744 227 744Q262 744 275.5 719.5Q289 695 289 647Q289 531 209 531Q177 531 134 549ZM590 162Q528 230 491.5 341.5Q455 453 455 644Q455 716 461 803L395 807Q389 723 389 651Q389 436 436.0 306.0Q483 176 563 95ZM676 -78Q758 4 826.5 123.5Q895 243 956 414L909 450Q805 146 642 -12ZM872 -74Q921 -74 938.5 -14.0Q956 46 956 178Q956 261 927.5 303.0Q899 345 855 345Q804 345 758.0 330.5Q712 316 662 288L668 221Q716 248 762.0 261.5Q808 275 857 274Q879 273 890.5 248.0Q902 223 902 176Q902 -3 871 -3Q854 -3 840.5 1.5Q827 6 811 17V-63Q839 -74 872 -74ZM776 283Q815 360 831.5 443.5Q848 527 848 642H793Q793 535 779.5 460.0Q766 385 730 321ZM416 177Q416 318 493.5 450.5Q571 583 674.0 667.0Q777 751 838 751Q872 751 886.0 727.5Q900 704 900 657Q900 602 882.0 567.0Q864 532 805 532Q766 532 714 549V483Q776 465 819 465Q896 465 930.5 515.0Q965 565 965 657Q965 735 932.0 779.5Q899 824 838 824Q765 824 648.0 734.0Q531 644 444.0 495.5Q357 347 357 177Q357 76 386.0 13.0Q415 -50 466 -50Q558 -50 603.5 84.0Q649 218 649 526Q649 579 645 713H581Q586 616 586 500Q586 263 555.0 145.5Q524 28 466 28Q437 28 426.5 68.0Q416 108 416 177Z" transform="translate(0, 880) scale(1,-1)" /></svg>