<svg xmlns="http://www.w3.org/2000/svg" width="1000" height="1000"><path d="M112 -87Q172 1 194.5 121.5Q217 242 217 390V622H918V687H144V392Q144 257 122.0 144.5Q100 32 45 -50ZM102 634Q225 726 279 844L207 860Q181 802 141.0 756.0Q101 710 38 665ZM190 743H902V802H190ZM669 332Q724 352 752.5 372.5Q781 393 781 419Q781 453 723.5 474.5Q666 496 568 496Q453 496 392.5 479.0Q332 462 332 429Q332 399 375.5 379.5Q419 360 496 360Q547 360 577.0 376.0Q607 392 607 413V534H528V426Q528 413 514.5 406.5Q501 400 479 400Q459 400 435.5 409.0Q412 418 412 429Q412 442 447.5 448.5Q483 455 568 455Q629 455 664.0 443.5Q699 432 699 417Q699 398 672.0 378.0Q645 358 570 332ZM238 275H900V332H238ZM263 534H877V589H263ZM460 -76Q526 -86 638 -86Q721 -86 779.5 -59.0Q838 -32 868.0 11.0Q898 54 898 101Q898 165 815.5 202.0Q733 239 589 239Q412 239 245 199L288 144Q344 160 422.0 169.0Q500 178 589 178Q694 178 755.5 158.5Q817 139 817 101Q817 67 792.5 37.5Q768 8 726.0 -9.5Q684 -27 634 -27Q542 -27 460 -10ZM350 -27Q389 -27 454.5 -1.0Q520 25 587.0 61.5Q654 98 696 128L638 173Q580 128 489.0 80.5Q398 33 359 33Q347 33 337.0 43.5Q327 54 323 71L263 39Q275 6 295.5 -10.5Q316 -27 350 -27ZM649 45Q616 69 559.0 99.5Q502 130 452 152L406 107Q450 89 507.0 57.0Q564 25 599 0Z" transform="translate(0, 880) scale(1,-1)" /></svg>