<svg xmlns="http://www.w3.org/2000/svg" width="1000" height="1000"><path d="M512 -85Q697 -48 794.5 13.0Q892 74 892 153Q892 232 802.5 278.5Q713 325 508 325Q402 325 320.5 304.5Q239 284 195.5 250.0Q152 216 152 177Q152 145 172.5 117.0Q193 89 236.5 72.0Q280 55 345 55Q421 55 483.5 82.5Q546 110 583.0 160.0Q620 210 620 274V385H948V455H56V385H542V276Q542 233 516.5 198.0Q491 163 446.0 143.0Q401 123 345 123Q233 123 233 177Q233 197 264.5 215.5Q296 234 357.0 245.5Q418 257 502 257Q666 257 737.0 228.5Q808 200 808 157Q808 103 716.5 57.5Q625 12 456 -18ZM183 532H816V600H183ZM90 673H913V744H90ZM459 600H536V839H459Z" transform="translate(0, 880) scale(1,-1)" /></svg>