<svg xmlns="http://www.w3.org/2000/svg" width="1000" height="1000"><path d="M746 -61Q799 -61 826.5 -44.0Q854 -27 867.5 15.0Q881 57 887 139L807 152Q803 91 796.5 62.0Q790 33 775.5 21.0Q761 9 732 9H384Q341 9 323.5 20.0Q306 31 306 58Q306 95 329.0 135.5Q352 176 401 242Q466 331 494 380Q531 446 550.5 509.5Q570 573 570 648Q570 735 541 847L458 829Q483 714 483 637Q483 572 467.0 520.0Q451 468 417 410Q394 370 334 286Q277 206 250.0 157.0Q223 108 223 59Q223 -5 255.5 -33.0Q288 -61 370 -61ZM706 263Q609 323 495.0 377.0Q381 431 278 464L239 399Q421 344 656 202ZM82 489H165V536Q241 591 363.5 618.5Q486 646 615 646Q729 646 780.5 633.5Q832 621 832 600Q832 554 801 513L883 482Q901 511 909.5 537.5Q918 564 918 601Q918 671 843.0 697.0Q768 723 615 723Q476 723 361.5 688.0Q247 653 165 589V707H82Z" transform="translate(0, 880) scale(1,-1)" /></svg>