<svg xmlns="http://www.w3.org/2000/svg" width="1000" height="1000"><path d="M60 676 73 609C360 611 681 636 940 669L897 737C668 703 351 681 60 676ZM45 437 94 379C489 483 574 707 568 837H487C486 709 424 535 45 437ZM900 377 959 427C797 515 645 581 477 639L440 586C591 533 726 466 900 377ZM719 -76C802 -76 875 -41 875 214C875 372 826 420 706 420C637 420 541 391 487 361L516 296C564 323 644 347 706 347C768 347 796 309 796 214C796 10 746 -7 704 -7C662 -7 629 -2 586 9V-66C627 -74 666 -76 719 -76ZM86 55 495 167 464 226 58 119ZM275 -74C344 -74 362 -51 362 -9V431H280V1C280 -9 273 -12 257 -12C231 -12 195 -7 150 3V-64C191 -71 236 -74 275 -74ZM74 277H475V343H74ZM570 149H938V214H570Z" transform="translate(0, 880) scale(1,-1)" /></svg>