<svg xmlns="http://www.w3.org/2000/svg" width="1000" height="1000"><path d="M59 90H124V745H59ZM187 186H251V745H187ZM283 344H667V408H283ZM472 408H536C575 436 614 474 614 526C614 584 560 627 473 627C383 627 323 596 323 535C323 484 360 444 422 444C468 444 504 484 504 517V830H444V535C444 510 430 500 410 500C395 500 382 513 382 535C382 557 404 574 473 574C528 574 555 551 555 526C555 494 540 455 472 408ZM299 675H649V738H299ZM623 -24 669 -78C817 50 925 281 936 650L891 674L877 658H721V588H869C855 303 780 114 623 -24ZM426 -70C540 -70 649 6 649 145C649 255 575 300 377 293V232C541 238 584 208 584 144C584 51 501 -7 426 -7C383 -7 369 7 369 26C369 66 436 124 609 163L585 219C395 178 302 96 302 26C302 -23 340 -70 426 -70ZM296 193 350 168C389 213 436 287 464 353L404 371C379 309 336 240 296 193ZM917 -75 970 -23C916 102 816 264 726 390L680 349C772 219 864 46 917 -75ZM646 449 706 431C738 532 763 654 779 811L715 818C701 663 680 554 646 449Z" transform="translate(0, 880) scale(1,-1)" /></svg>