<svg xmlns="http://www.w3.org/2000/svg" width="1000" height="1000"><path d="M490 -81Q590 -81 671.5 -51.5Q753 -22 800.5 31.5Q848 85 848 156Q848 219 809.5 265.5Q771 312 703.0 336.5Q635 361 550 361Q496 361 440.0 347.0Q384 333 346 314Q405 362 472.5 450.0Q540 538 574 622L496 647Q460 545 390.0 448.0Q320 351 244 294Q195 252 142 231L196 176Q273 230 361.0 258.5Q449 287 541 287Q638 287 702.0 252.0Q766 217 766 156Q766 109 730.5 69.5Q695 30 630.0 6.5Q565 -17 479 -17Q418 -17 389.0 0.5Q360 18 360 48Q360 71 382.0 85.5Q404 100 447 100Q496 100 526.0 72.5Q556 45 567 -23L653 -7Q642 79 587.0 122.0Q532 165 447 165Q368 165 325.0 132.0Q282 99 282 48Q282 -11 336.0 -46.0Q390 -81 490 -81ZM202 461H799V528H202ZM893 517Q912 550 920.0 577.0Q928 604 928 639Q928 759 617 759Q476 759 356.5 727.5Q237 696 156 639V745H78V535H156V590Q232 640 358.5 665.5Q485 691 617 691Q696 691 747.5 683.0Q799 675 822.5 663.0Q846 651 846 638Q846 585 814 545ZM566 718Q540 797 508 852L436 831Q474 768 491 697Z" transform="translate(0, 880) scale(1,-1)" /></svg>