<svg xmlns="http://www.w3.org/2000/svg" width="1000" height="1000"><path d="M64 341 108 268C415 357 695 514 814 716L763 772L740 758H266V684H682C589 545 341 404 64 341ZM789 -79 828 -12C686 38 425 115 224 158L181 90C387 45 650 -26 789 -79ZM669 140 707 206C620 235 487 269 382 291L346 229C449 207 586 170 669 140ZM54 506 117 456C208 538 318 692 369 833L293 850C242 709 137 571 54 506ZM870 281 914 346C768 420 528 513 305 570L269 506C494 447 727 358 870 281Z" transform="translate(0, 880) scale(1,-1)" /></svg>