<svg xmlns="http://www.w3.org/2000/svg" width="1000" height="1000"><path d="M484 746H94V674H906V746H569L523 845L448 827ZM491 297Q573 320 631.5 360.5Q690 401 690 444Q690 462 672.0 480.0Q654 498 617.5 510.0Q581 522 527 522Q471 522 435.5 511.0Q400 500 384.0 483.0Q368 466 368 449Q368 433 390.5 416.0Q413 399 458.5 387.5Q504 376 570 376Q731 376 818.5 410.0Q906 444 906 507Q906 564 844.5 597.5Q783 631 631 631Q381 631 198 559L237 506Q313 535 416.0 553.0Q519 571 631 571Q700 571 742.0 560.5Q784 550 801.5 535.5Q819 521 819 507Q819 464 759.0 445.0Q699 426 570 426Q449 426 449 449Q449 476 527 476Q566 476 587.5 468.0Q609 460 609 444Q609 406 568.0 381.5Q527 357 434 327ZM90 -85Q154 -47 183.5 -11.0Q213 25 220.0 61.5Q227 98 227 158V245Q272 257 315.5 261.5Q359 266 421 266H738Q774 266 793.5 255.0Q813 244 813 225V0Q813 -20 790 -20Q744 -20 674 -4V-71Q729 -85 791 -85Q843 -85 865.0 -69.5Q887 -54 887 -10V253Q887 292 851.5 313.0Q816 334 742 334H419Q359 334 316.0 328.0Q273 322 224 309V330H153V158Q153 113 145.0 82.0Q137 51 111.0 22.5Q85 -6 32 -31ZM335 154H705V221H335ZM558 312H482L484 10Q484 1 480.5 -3.0Q477 -7 466 -7Q417 -7 351 6V-62Q423 -70 472 -70Q523 -70 540.5 -53.5Q558 -37 558 3ZM335 45H705V121H335ZM113 282Q234 453 328 697L260 727Q170 490 44 329Z" transform="translate(0, 880) scale(1,-1)" /></svg>