<svg xmlns="http://www.w3.org/2000/svg" width="1000" height="1000"><path d="M626 117Q675 117 706.5 146.5Q738 176 738 221Q738 306 649 413L586 380Q659 291 659 229Q659 211 648.0 199.0Q637 187 616 187H360Q304 187 304 243Q304 315 328.5 393.5Q353 472 408 580L341 612Q280 500 252.5 408.5Q225 317 225 222Q225 171 260.0 144.0Q295 117 360 117ZM898 221Q911 268 917.5 314.5Q924 361 924 443Q924 521 875.5 561.5Q827 602 741 602Q662 602 599.0 588.0Q536 574 478 544L499 476Q552 504 614.5 518.0Q677 532 741 532Q791 532 819.5 506.0Q848 480 848 432Q848 369 842.0 323.5Q836 278 824 236ZM157 651Q375 670 566.5 699.0Q758 728 893 761L836 829Q728 798 540.0 770.0Q352 742 137 723ZM952 27Q766 12 619 12Q404 12 283 48Q219 67 174.0 117.0Q129 167 109 238L31 216Q57 121 113.5 62.0Q170 3 253 -21Q406 -65 655 -65Q772 -65 928 -54Z" transform="translate(0, 880) scale(1,-1)" /></svg>