<svg xmlns="http://www.w3.org/2000/svg" width="1000" height="1000"><path d="M55 -39 118 -83C171 20 184 117 184 282V722H737V794H114V298C114 142 108 65 55 -39ZM249 172H317V385C403 475 456 491 519 491C564 491 599 456 599 407C599 342 551 269 447 269V192C575 194 670 286 670 410C670 518 588 564 519 564C452 564 394 540 317 457V566H249ZM412 31 379 -8 441 -49C551 71 671 146 757 146C844 146 862 115 862 85C862 44 843 15 747 -19L797 -78C911 -34 935 10 935 85C935 158 891 219 757 219C663 219 551 157 480 85L483 682H412ZM866 312 933 364C899 432 850 501 800 566L738 520C792 451 831 383 866 312Z" transform="translate(0, 880) scale(1,-1)" /></svg>