<svg xmlns="http://www.w3.org/2000/svg" width="1000" height="1000"><path d="M449 401Q495 401 520.5 423.0Q546 445 546 486V837H469V491Q469 480 459.0 472.5Q449 465 433 465Q362 461 267 484V414Q345 399 449 401ZM132 466Q188 516 232.0 584.5Q276 653 303 722L221 741Q201 678 159.5 613.0Q118 548 62 500ZM945 484Q924 541 874.0 612.5Q824 684 757 745L686 718Q749 656 799.0 582.0Q849 508 867 455ZM112 -77Q278 -39 370.0 21.5Q462 82 505.0 173.5Q548 265 565 412L493 419Q475 290 433.5 210.5Q392 131 307.0 79.0Q222 27 71 -8ZM71 232H935V301H71ZM921 -18Q772 90 608 149L562 91Q649 58 726.5 13.5Q804 -31 865 -79Z" transform="translate(0, 880) scale(1,-1)" /></svg>