<svg xmlns="http://www.w3.org/2000/svg" width="1000" height="1000"><path d="M112 -87Q217 54 217 325V525H918V597H144V327Q144 224 122.0 126.5Q100 29 45 -46ZM105 560Q227 682 282 835L207 850Q181 777 141.0 717.0Q101 657 38 598ZM181 678H902V750H181ZM614 165Q751 201 807.0 230.0Q863 259 863 296Q863 331 805.0 354.0Q747 377 627.5 390.0Q508 403 314 409L303 345Q549 339 650.5 324.5Q752 310 752 294Q752 276 708.5 255.5Q665 235 565 209ZM361 -79Q519 -37 672.0 23.0Q825 83 906 131L859 196L844 191Q584 226 296 237L282 169Q581 156 749 133Q678 100 555.5 57.0Q433 14 303 -16ZM425 356Q596 415 761 513L677 549Q567 470 383 394Z" transform="translate(0, 880) scale(1,-1)" /></svg>