<svg xmlns="http://www.w3.org/2000/svg" width="1000" height="1000"><path d="M922 486V559H490V486ZM133 457Q229 538 300.0 621.5Q371 705 447 823L373 850Q313 746 240.5 664.5Q168 583 77 513ZM130 168Q226 231 339.5 329.0Q453 427 551.5 530.5Q650 634 703 712L643 755L624 752H339V679H583Q549 627 465.5 544.5Q382 462 276.5 378.0Q171 294 76 238ZM317 393V323H748Q741 261 728.5 237.5Q716 214 688 214Q629 214 582.5 219.5Q536 225 487 237V163Q593 144 711 144Q764 144 791.0 203.5Q818 263 829 386L769 402L752 393ZM377 239H302V68Q302 16 318.5 -11.0Q335 -38 369.0 -48.0Q403 -58 464 -58H761Q820 -58 853.5 -39.0Q887 -20 905.0 23.0Q923 66 933 146L860 161Q857 97 845.5 66.5Q834 36 812.5 26.0Q791 16 751 16H467Q429 16 410.0 21.0Q391 26 384.0 38.5Q377 51 377 75Z" transform="translate(0, 880) scale(1,-1)" /></svg>