<svg xmlns="http://www.w3.org/2000/svg" width="1000" height="1000"><path d="M103 -60Q209 124 209 501V708H933V787H131V501Q131 346 112.5 213.5Q94 81 35 -21ZM694 -83Q766 -83 820.5 -46.5Q875 -10 904.0 52.0Q933 114 933 189Q933 308 861.0 360.0Q789 412 642 412Q583 412 531 407L593 439Q686 487 743.0 517.5Q800 548 846 579L789 616L765 610H292V539H668Q626 511 580.5 487.0Q535 463 438 414L385 388Q371 381 301 354L258 337L296 277Q372 309 461.0 327.5Q550 346 642 346Q747 346 801.5 312.0Q856 278 856 189Q856 135 838.5 88.5Q821 42 784.5 13.5Q748 -15 694 -15Q649 -15 613.5 -9.0Q578 -3 540 11V-66Q608 -83 694 -83ZM334 80Q366 113 391.0 153.0Q416 193 440 243L374 259Q330 166 277 105ZM512 35H584V296H512ZM806 118Q768 188 704 265L645 235Q707 158 748 84Z" transform="translate(0, 880) scale(1,-1)" /></svg>