<svg xmlns="http://www.w3.org/2000/svg" width="1000" height="1000"><path d="M250 480Q298 531 345.0 603.0Q392 675 419 739L360 783L337 777H83V708H314Q294 655 258.5 605.5Q223 556 171 503ZM403 340Q403 429 340.0 467.5Q277 506 152 518V449Q233 439 273.5 410.5Q314 382 314 340Q314 248 253.0 158.5Q192 69 82 -3L146 -55Q269 31 336.0 134.0Q403 237 403 340ZM487 717H924V791H487ZM503 361H946V435H556Q589 493 617.0 567.0Q645 641 663 718H578Q567 656 540.5 573.0Q514 490 490 456Q479 437 470.5 429.0Q462 421 451 417L481 349ZM720 -70Q757 -70 776.0 -52.5Q795 -35 795 7V614H718V22Q718 11 712.5 7.0Q707 3 692 3Q665 3 629.0 8.5Q593 14 558 24V-57Q635 -70 720 -70Z" transform="translate(0, 880) scale(1,-1)" /></svg>