<svg xmlns="http://www.w3.org/2000/svg" width="1000" height="1000"><path d="M147 745H74V110H147ZM315 745H241V206H315ZM405 454Q458 526 491.5 621.5Q525 717 547 829L477 840Q457 732 422.5 640.0Q388 548 340 488ZM504 382H842V453H504ZM700 203Q777 203 817.0 182.5Q857 162 857 130Q857 87 794.0 54.5Q731 22 617 13L642 -46Q776 -31 854.0 13.5Q932 58 932 130Q932 194 874.0 235.0Q816 276 700 276Q593 276 511.0 250.5Q429 225 348 165L390 97Q458 150 533.5 176.5Q609 203 700 203ZM540 63Q562 34 582.5 -10.5Q603 -55 616 -99L684 -71Q672 -30 650.0 13.0Q628 56 603 91ZM470 661V591H933V661Z" transform="translate(0, 880) scale(1,-1)" /></svg>