<svg xmlns="http://www.w3.org/2000/svg" width="1000" height="1000"><path d="M280 651Q268 683 239.5 727.5Q211 772 178 813L112 785Q138 752 166.0 705.0Q194 658 212 620ZM557 662Q547 700 523.0 751.5Q499 803 471 845L402 825Q427 782 450.5 729.5Q474 677 484 639ZM774 615Q843 707 894 802L818 828Q799 784 769.0 732.0Q739 680 709 640ZM310 356Q444 350 545 350Q670 350 745.0 362.5Q820 375 856.5 406.0Q893 437 893 492Q893 556 824.0 597.5Q755 639 599 639Q446 639 344.5 604.0Q243 569 209 518V613H133V353H209V466Q269 521 360.0 547.0Q451 573 599 573Q713 573 763.5 550.5Q814 528 814 492Q814 451 754.0 432.5Q694 414 563 414Q453 414 310 424ZM88 -33Q155 -11 321.5 70.0Q488 151 589 210L541 261Q430 196 273.5 120.5Q117 45 51 26ZM502 -79Q582 -79 582 -2V513H504L503 4Q503 -6 498.0 -10.0Q493 -14 480 -14Q427 -14 357 5V-64Q427 -79 502 -79ZM62 196H939V259H62ZM955 20Q883 60 778.5 103.0Q674 146 582 173V111Q689 72 765.5 40.5Q842 9 906 -29Z" transform="translate(0, 880) scale(1,-1)" /></svg>