<svg xmlns="http://www.w3.org/2000/svg" width="1000" height="1000"><path d="M812 -66Q852 -65 875.0 -39.5Q898 -14 898 36V808H829V43Q829 29 820.5 19.5Q812 10 798 9Q728 6 653 34V-50Q690 -60 727.0 -63.5Q764 -67 812 -66ZM675 656V167H744V656ZM189 695Q225 713 278.5 723.5Q332 734 382 734Q460 734 498.5 711.5Q537 689 537 643Q537 595 506.0 568.0Q475 541 393 541Q328 541 209 558V487Q293 475 393 475Q497 475 549.5 522.5Q602 570 602 643Q602 718 548.0 758.5Q494 799 389 799Q258 799 176 748ZM590 219Q609 251 609 286Q609 356 556.0 389.5Q503 423 394 423Q308 423 228.0 398.0Q148 373 90 334L102 272Q159 308 237.0 333.5Q315 359 390 359Q542 359 542 286Q542 263 531 247ZM117 41Q117 82 146.5 107.0Q176 132 268 132H624V200H267Q153 200 103.5 157.0Q54 114 54 41Q54 -9 80.0 -42.5Q106 -76 154 -76Q219 -76 257.0 11.0Q295 98 295 296H227Q227 126 207.5 61.5Q188 -3 154 -3Q137 -3 127.0 9.0Q117 21 117 41ZM403 293V-83H467V293ZM273 353Q342 477 392 613L330 635Q308 564 279.5 504.0Q251 444 212 385ZM136 596Q199 683 258 821L192 841Q174 784 146.0 732.0Q118 680 79 625Z" transform="translate(0, 880) scale(1,-1)" /></svg>