<svg xmlns="http://www.w3.org/2000/svg" width="1000" height="1000"><path d="M545 755Q482 784 401.5 812.0Q321 840 252 857L227 795Q292 776 367.0 746.0Q442 716 502 685ZM285 100Q420 193 550.0 302.0Q680 411 742 480L675 534Q615 459 490.0 349.5Q365 240 237 155ZM730 182Q649 256 532.0 341.0Q415 426 320 478L269 418Q373 356 488.0 269.0Q603 182 675 110ZM596 -45Q657 -61 734 -61Q826 -61 864.0 36.5Q902 134 902 337Q902 510 819.5 589.5Q737 669 571 669Q360 669 268 630L287 558Q370 592 573 592Q666 592 720.5 565.5Q775 539 799.0 483.5Q823 428 823 337Q823 188 800.0 98.5Q777 9 734 9Q696 9 665.0 16.5Q634 24 596 38ZM525 -43V31H236Q214 31 200.5 47.5Q187 64 187 91V385Q187 532 219 577L145 595Q109 529 109 385V87Q109 23 139.5 -10.0Q170 -43 225 -43ZM0.0 0.0Q0 0 0.0 0.0Q0 0 0.0 0.0Z" transform="translate(0, 880) scale(1,-1)" /></svg>