<svg xmlns="http://www.w3.org/2000/svg" width="1000" height="1000"><path d="M130 694Q315 698 519.0 717.5Q723 737 887 765L846 833Q709 807 508.5 788.0Q308 769 113 763ZM396 536Q377 570 346.0 615.0Q315 660 285 694L216 668Q245 633 275.5 588.5Q306 544 325 508ZM648 509Q703 566 784 682L706 710Q644 600 583 532ZM436 -75Q478 -75 501.5 -68.5Q525 -62 537.0 -42.5Q549 -23 549 16V314Q618 345 689.0 386.5Q760 428 805 467L756 510L740 503H216V434H646Q562 380 473 345V29Q473 15 464.5 5.5Q456 -4 441 -5Q365 -7 290 20V-59Q375 -75 436 -75ZM959 264Q794 288 570 288Q342 288 55 263V196Q301 216 517 216Q766 216 939 190Z" transform="translate(0, 880) scale(1,-1)" /></svg>