<svg xmlns="http://www.w3.org/2000/svg" width="1000" height="1000"><path d="M836 533C902 581 929 614 929 670C929 726 875 763 749 763C669 763 586 751 538 732V840H461V713L444 702L483 656C565 684 665 701 749 701C820 701 848 687 848 670C848 628 824 599 770 567ZM256 554C405 554 511 561 632 588L600 647C499 623 363 615 256 615C216 615 188 629 188 650C188 675 198 710 234 756L166 780C128 733 106 677 106 642C106 593 146 554 256 554ZM890 295C919 325 929 356 929 391C929 453 815 486 617 486C426 486 264 450 157 397V474H79V301H157V349C264 398 453 418 617 418C794 418 847 403 847 386C847 361 842 340 816 315ZM499 435 578 451C561 486 531 527 500 561L424 545C452 514 485 468 499 435ZM349 350 322 290C433 275 549 258 644 237L678 305C580 322 464 338 349 350ZM467 -82C541 -82 594 -28 594 53C594 120 561 171 498 215L430 186C484 140 510 99 510 53C510 6 483 -22 459 -22C434 -23 379 -17 323 -2V-69C371 -78 419 -82 467 -82ZM113 -5C176 41 240 114 278 175L202 201C172 146 116 79 55 35ZM885 -9 959 22C925 72 856 146 780 206L712 171C786 112 854 40 885 -9Z" transform="translate(0, 880) scale(1,-1)" /></svg>