<svg xmlns="http://www.w3.org/2000/svg" width="1000" height="1000"><path d="M69 627H927V697H69ZM387 703Q374 733 349.0 773.0Q324 813 298 845L230 822Q255 788 279.5 746.5Q304 705 315 677ZM666 662Q743 755 788 827L705 849Q689 813 660.5 766.5Q632 720 603 682ZM516 -83Q631 -83 719.0 -56.5Q807 -30 855.5 19.0Q904 68 904 132Q904 188 870.0 232.5Q836 277 768.0 302.5Q700 328 603 328Q498 328 425 312Q675 429 783 491L731 549L707 540H238V471H604Q535 424 450.0 376.0Q365 328 289 292Q239 266 181 254L232 196Q396 264 579 264Q692 264 754.0 227.5Q816 191 816 132Q816 80 768.5 44.0Q721 8 650.0 -9.0Q579 -26 511 -26Q444 -26 404.5 -11.0Q365 4 365 32Q365 53 390.5 68.0Q416 83 452 83Q577 83 596 -35L675 -21Q660 56 603.5 100.0Q547 144 453 144Q404 144 364.5 128.0Q325 112 302.0 86.0Q279 60 279 32Q279 -20 342.5 -51.5Q406 -83 516 -83Z" transform="translate(0, 880) scale(1,-1)" /></svg>