<svg xmlns="http://www.w3.org/2000/svg" width="1000" height="1000"><path d="M107 703V628H893V703ZM95 12Q248 87 419.5 206.5Q591 326 823 519L763 574Q543 385 369.5 265.0Q196 145 51 80ZM480 -72Q567 -72 608.5 0.5Q650 73 650 181Q650 270 600.5 373.5Q551 477 461 584L402 533Q477 447 520.5 352.0Q564 257 564 183Q564 99 546.0 50.0Q528 1 467 1Q408 1 345 17V-60Q410 -72 480 -72ZM121 294Q294 382 420.5 512.0Q547 642 590 822L507 848Q468 679 351.5 558.0Q235 437 78 361ZM945 87Q799 199 616 297L581 240Q750 143 888 27Z" transform="translate(0, 880) scale(1,-1)" /></svg>