<svg xmlns="http://www.w3.org/2000/svg" width="1000" height="1000"><path d="M120 -83Q191 21 218.5 165.5Q246 310 246 462V717H867V794H169V488Q169 330 147.0 196.5Q125 63 55 -39ZM934 3Q881 34 834.5 74.5Q788 115 727 175Q668 232 630.5 264.0Q593 296 551.0 317.5Q509 339 465 339Q417 339 377.5 317.0Q338 295 314.5 253.5Q291 212 291 155Q291 71 334.5 19.0Q378 -33 449 -33Q528 -33 618.5 36.0Q709 105 771.0 204.0Q833 303 833 384Q833 461 772.0 506.5Q711 552 602 552Q499 552 410.0 537.5Q321 523 226 497L236 422Q414 472 602 472Q674 472 711.0 448.5Q748 425 748 384Q748 314 694.5 235.0Q641 156 569.0 101.5Q497 47 452 47Q415 47 391.5 73.5Q368 100 368 152Q368 199 394.0 231.0Q420 263 465 263Q504 263 546.5 229.5Q589 196 665 120Q731 54 781.0 9.5Q831 -35 888 -71Z" transform="translate(0, 880) scale(1,-1)" /></svg>