<svg xmlns="http://www.w3.org/2000/svg" width="1000" height="1000"><path d="M517 -62Q619 -62 669.0 -17.0Q719 28 719 92Q719 146 700.0 197.0Q681 248 641 314L562 294Q641 163 641 99Q641 57 609.5 34.5Q578 12 517 12Q455 12 425.5 39.0Q396 66 396 140V815H318V130Q318 23 367.0 -19.5Q416 -62 517 -62ZM130 104Q151 195 170.5 332.0Q190 469 197 573L123 582Q116 479 95.5 348.0Q75 217 52 131ZM895 81Q910 139 917.5 203.5Q925 268 925 373Q925 432 899.0 475.0Q873 518 830.5 540.0Q788 562 742 562Q671 562 619.0 548.5Q567 535 517 510L538 439Q582 464 630.0 476.0Q678 488 737 488Q787 488 818.0 451.5Q849 415 849 350Q849 271 842.0 213.5Q835 156 820 100Z" transform="translate(0, 880) scale(1,-1)" /></svg>