<svg xmlns="http://www.w3.org/2000/svg" width="1000" height="1000"><path d="M542 227Q542 275 504.0 304.5Q466 334 378 334Q322 334 282.5 324.0Q243 314 223.0 297.5Q203 281 203 262Q203 225 268.5 203.5Q334 182 466 182Q594 182 699.0 201.5Q804 221 864.5 255.0Q925 289 925 330Q925 384 840.5 418.0Q756 452 592 452Q474 452 362 438Q395 459 435.5 499.0Q476 539 505 578L416 591Q392 550 348.0 504.0Q304 458 256 430L226 423L281 368Q347 381 412.0 388.0Q477 395 570 395Q837 395 837 330Q837 304 776.0 283.5Q715 263 627.5 251.0Q540 239 466 239Q296 239 296 262Q296 284 377 284Q418 284 441.5 265.5Q465 247 465 219ZM287 604Q447 636 606 636Q795 636 795 591Q795 574 780.0 562.0Q765 550 723.0 543.5Q681 537 603 537Q519 537 406 544V491Q507 485 582 485Q703 485 769.0 499.0Q835 513 858.5 536.0Q882 559 882 591Q882 643 815.5 667.5Q749 692 606 692Q445 692 264 660ZM544 647Q613 677 676.0 711.0Q739 745 776 771L708 807L683 795H318V739H611Q573 714 494 675ZM133 600Q214 638 300.0 703.5Q386 769 428 830L345 844Q303 785 228.5 732.0Q154 679 78 649ZM818 -86Q855 -58 874.0 -29.0Q893 0 893 36Q893 83 853.5 105.0Q814 127 725 127Q668 127 612.0 115.5Q556 104 518 87V165H446V64L430 57L467 16Q529 38 598.5 52.5Q668 67 725 67Q812 67 812 36Q812 -20 734 -69ZM259 -80Q370 -80 447.5 -73.5Q525 -67 609 -50L579 6Q464 -19 259 -19Q231 -19 214.5 -13.0Q198 -7 198 3Q198 37 224.0 70.5Q250 104 306 135L235 164Q181 130 149.5 86.0Q118 42 118 -4Q118 -37 152.0 -58.5Q186 -80 259 -80Z" transform="translate(0, 880) scale(1,-1)" /></svg>