<svg xmlns="http://www.w3.org/2000/svg" width="1000" height="1000"><path d="M738 251C835 251 884 330 884 501C884 636 801 723 593 723C443 723 307 690 221 647V713H146V255H221V595C315 631 445 654 593 654C738 654 805 608 805 501C805 376 776 315 741 315C708 315 672 320 627 338V269C667 257 704 251 738 251ZM502 729 545 785C462 810 346 837 252 852L227 801C316 785 424 755 502 729ZM305 526H715V586H305ZM548 348V695H472L474 345C474 329 471 321 456 321C423 321 387 327 341 342V277C386 267 425 261 462 261C532 261 548 288 548 348ZM295 406H725V467H295ZM104 -70C213 -22 337 43 412 112L333 144C276 86 161 18 50 -22ZM70 163H937V231H70ZM880 -68 945 -24C877 27 756 97 656 150L598 108C696 53 815 -16 880 -68Z" transform="translate(0, 880) scale(1,-1)" /></svg>