<svg xmlns="http://www.w3.org/2000/svg" width="1000" height="1000"><path d="M69 627H927V697H69ZM315 677 387 703C370 742 333 802 298 845L230 822C262 778 300 715 315 677ZM603 682 666 662C704 708 756 776 788 827L705 849C683 800 640 731 603 682ZM516 -83C749 -83 904 2 904 132C904 241 804 328 603 328C533 328 480 324 425 312C549 370 682 433 783 491L731 549L707 540H238V471H604C508 406 385 338 289 292C264 279 229 264 181 254L232 196C338 240 456 264 579 264C734 264 816 209 816 132C816 20 636 -26 511 -26C424 -26 365 -7 365 32C365 59 403 83 452 83C529 83 582 50 596 -35L675 -21C656 79 582 144 453 144C352 144 279 87 279 32C279 -36 367 -83 516 -83Z" transform="translate(0, 880) scale(1,-1)" /></svg>