<svg xmlns="http://www.w3.org/2000/svg" width="1000" height="1000"><path d="M0 0ZM792 22Q855 50 894.0 107.0Q933 164 933 244Q933 310 903.0 352.5Q873 395 804.0 417.0Q735 439 619 439Q351 439 74 364L88 280Q347 357 619 357Q718 357 767.5 343.5Q817 330 832.0 307.0Q847 284 847 244Q847 185 818.0 146.0Q789 107 748 93ZM107 579H889V657H107ZM164 -74Q254 1 302.0 76.5Q350 152 368.5 244.0Q387 336 387 475V819H305V475Q305 341 288.5 259.5Q272 178 229.0 115.5Q186 53 99 -16ZM600 -68H683L684 819H601Z" transform="translate(0, 880) scale(1,-1)" /></svg>