<svg xmlns="http://www.w3.org/2000/svg" width="1000" height="1000"><path d="M900 487Q921 517 930.0 548.0Q939 579 939 617Q939 739 617 739Q476 739 352.5 706.5Q229 674 147 618V729H69V495H147V566Q222 613 352.0 636.5Q482 660 617 660Q745 660 801.0 645.5Q857 631 857 610Q857 582 850.5 560.0Q844 538 826 514ZM578 697Q552 771 500 847L424 826Q447 790 468.0 749.5Q489 709 499 677ZM758 -60Q823 -60 858.5 -44.5Q894 -29 911.5 10.0Q929 49 936 126L856 138Q852 83 844.5 57.5Q837 32 819.0 23.0Q801 14 764 14H308Q249 14 220.5 22.5Q192 31 192 51Q192 73 233.0 109.5Q274 146 408.0 233.0Q542 320 825 493L768 538L750 530H194V455H630Q385 305 274.5 230.0Q164 155 132.0 119.0Q100 83 100 47Q100 -9 150.5 -34.5Q201 -60 317 -60ZM716 212Q600 256 468.5 295.0Q337 334 217 357L183 293Q394 254 669 150Z" transform="translate(0, 880) scale(1,-1)" /></svg>