<svg xmlns="http://www.w3.org/2000/svg" width="1000" height="1000"><path d="M301 -72Q415 -48 509.5 18.0Q604 84 659.0 173.5Q714 263 714 354Q714 410 688.5 449.5Q663 489 595 489Q543 489 507.5 455.5Q472 422 472 371Q472 321 508.5 286.0Q545 251 597 251Q740 251 830.5 339.0Q921 427 921 645H363V573H837Q839 497 807.0 437.5Q775 378 720.0 345.5Q665 313 602 313Q574 313 557.5 331.0Q541 349 541 371Q541 397 554.5 411.5Q568 426 593 426Q615 426 627.5 408.5Q640 391 640 361Q640 294 599.5 220.5Q559 147 475.0 85.5Q391 24 266 -6ZM84 90H156V745H84ZM238 186H309V745H238ZM956 -24Q875 48 713 161L667 109Q731 65 796.5 13.0Q862 -39 906 -80ZM557 673Q532 765 492 836L427 811Q471 730 490 644ZM770 641Q800 702 822 752L850 815L771 841Q746 740 708 666Z" transform="translate(0, 880) scale(1,-1)" /></svg>