<svg xmlns="http://www.w3.org/2000/svg" width="1000" height="1000"><path d="M73 609Q280 610 508.5 626.5Q737 643 940 669L897 737Q728 712 505.0 696.0Q282 680 60 676ZM94 379Q277 427 384.0 507.5Q491 588 531.5 674.5Q572 761 568 837H487Q486 715 393.0 609.0Q300 503 45 437ZM959 427Q729 552 477 639L440 586Q544 550 645.5 503.0Q747 456 900 377ZM719 -76Q767 -76 800.5 -55.0Q834 -34 854.5 30.0Q875 94 875 214Q875 293 858.0 337.5Q841 382 804.5 401.0Q768 420 706 420Q656 420 592.5 402.5Q529 385 487 361L516 296Q554 317 607.5 332.0Q661 347 706 347Q753 347 774.5 316.0Q796 285 796 214Q796 119 782.5 70.5Q769 22 749.5 7.5Q730 -7 704 -7Q649 -7 586 9V-66Q637 -76 719 -76ZM86 55 495 167 464 226 58 119ZM275 -74Q324 -74 343.0 -58.0Q362 -42 362 -9V431H280V1Q280 -6 274.5 -9.0Q269 -12 257 -12Q218 -12 150 3V-64Q209 -74 275 -74ZM74 277H475V343H74ZM570 149H938V214H570Z" transform="translate(0, 880) scale(1,-1)" /></svg>