<svg xmlns="http://www.w3.org/2000/svg" width="1000" height="1000"><path d="M113 -10 196 -12C180 117 197 254 235 374L155 382C114 259 96 112 113 -10ZM481 -49C536 -49 583 -39 644 -15V64C582 36 531 20 489 20C466 20 448 40 448 81C448 165 471 252 501 381L425 390C389 255 366 165 366 73C366 2 414 -49 481 -49ZM820 -26 905 -18C902 110 862 268 805 382L727 363C782 250 817 98 820 -26ZM475 472 532 428C663 519 792 641 862 751L809 794L790 788H133V715H741C694 646 596 552 475 472Z" transform="translate(0, 880) scale(1,-1)" /></svg>