<svg xmlns="http://www.w3.org/2000/svg" width="1000" height="1000"><path d="M87 529H165V576C272 653 456 689 615 689C776 689 832 669 832 640C832 606 820 578 801 553L878 522C899 556 913 588 913 641C913 740 802 763 615 763C425 763 272 712 165 629V747H87ZM55 -29 115 -81C383 55 566 249 763 476L683 505C508 287 326 104 55 -29ZM608 -68H748C826 -68 852 -41 863 33L785 55C781 6 775 -6 739 -6H617C580 -6 574 2 574 22V169H502V8C502 -51 510 -68 608 -68ZM928 47 969 104C914 137 842 167 770 193L733 143C811 114 871 83 928 47ZM341 527H497C448 492 345 433 280 397C256 384 189 366 106 331L152 268C278 334 440 366 587 366C702 366 747 343 747 317C747 258 625 232 284 275V208C723 165 828 227 828 317C828 390 728 433 587 433C514 433 459 428 409 416C499 458 588 516 649 558L585 598L568 588H401C449 636 512 730 549 824L466 835C417 683 337 613 258 549L309 497Z" transform="translate(0, 880) scale(1,-1)" /></svg>