<svg xmlns="http://www.w3.org/2000/svg" width="1000" height="1000"><path d="M103 -60Q209 124 209 501V709H933V787H131V501Q131 346 112.5 213.5Q94 81 35 -21ZM678 -74Q806 -74 869.0 23.5Q932 121 932 282Q932 424 844.5 492.0Q757 560 617 560Q486 560 374.5 534.0Q263 508 177 468L195 393Q280 431 389.5 456.0Q499 481 617 481Q724 481 787.5 429.5Q851 378 851 282Q851 151 808.5 76.5Q766 2 678 2Q614 2 559.0 24.5Q504 47 470.5 89.5Q437 132 437 190Q437 282 553 282Q595 282 616.5 264.0Q638 246 638 221Q638 180 594.5 140.5Q551 101 461 57L504 25Q610 74 665.0 119.0Q720 164 720 221Q720 284 672.0 319.0Q624 354 553 354Q499 354 455.5 333.0Q412 312 387.0 275.0Q362 238 362 190Q362 113 407.0 53.0Q452 -7 524.5 -40.5Q597 -74 678 -74Z" transform="translate(0, 880) scale(1,-1)" /></svg>