<svg xmlns="http://www.w3.org/2000/svg" width="1000" height="1000"><path d="M502 685 545 755C462 793 346 834 252 857L227 795C316 769 424 725 502 685ZM237 155 285 100C470 228 662 391 742 480L675 534C598 438 414 273 237 155ZM675 110 730 182C625 278 450 407 320 478L269 418C405 337 577 208 675 110ZM596 38V-45C634 -55 673 -61 734 -61C861 -61 902 78 902 337C902 571 789 669 571 669C417 669 320 652 268 630L287 558C338 579 428 592 573 592C759 592 823 515 823 337C823 144 793 9 734 9C678 9 638 22 596 38ZM225 -43H525V31H236C207 31 187 54 187 91V385C187 446 190 536 219 577L145 595C117 544 109 463 109 385V87C109 -1 154 -43 225 -43ZM0.0 0.0Q0 0 0.0 0.0Q0 0 0.0 0.0Z" transform="translate(0, 880) scale(1,-1)" /></svg>