<svg xmlns="http://www.w3.org/2000/svg" width="1000" height="1000"><path d="M287 -72Q330 -72 350.0 -53.0Q370 -34 370 5V390Q454 440 555 543L488 585L478 577H95V507H420Q374 467 297 424V22Q297 9 289.0 1.5Q281 -6 269 -6Q223 -6 167 9V-63Q221 -72 287 -72ZM79 100 577 202 561 259 66 169ZM99 316H526V383H99ZM950 -23Q876 17 773.5 60.5Q671 104 572 137L538 79Q634 45 730.5 3.0Q827 -39 901 -81ZM335 649Q317 683 279.0 728.5Q241 774 199 812L137 777Q177 741 214.5 694.0Q252 647 269 611ZM700 39Q789 91 836.5 126.0Q884 161 904.5 191.0Q925 221 925 256Q925 301 867.0 333.5Q809 366 689 380Q752 419 805.0 465.0Q858 511 916 578L845 615Q786 537 725.5 484.5Q665 432 571 381L581 326Q840 297 840 256Q840 193 644 80ZM462 609H538V841H462ZM717 611Q751 642 793.0 689.5Q835 737 870 783L798 818Q773 778 732.5 729.5Q692 681 654 645Z" transform="translate(0, 880) scale(1,-1)" /></svg>