<svg xmlns="http://www.w3.org/2000/svg" width="1000" height="1000"><path d="M145 565H855V628H538V693H916V758H538V843H462V758H84V693H462V628H145ZM465 -82Q504 -82 522.5 -62.5Q541 -43 541 0V541H463V4Q463 -15 443 -15Q392 -15 333 6V-71Q399 -82 465 -82ZM123 -53Q187 -18 246.5 30.0Q306 78 342 129L264 147Q231 102 175.5 60.0Q120 18 58 -12ZM136 175H863V240H136ZM932 -13Q899 20 834.0 66.0Q769 112 704 150L641 118Q703 79 767.5 31.5Q832 -16 866 -50ZM156 301H843V366H156ZM86 425H913V492H86Z" transform="translate(0, 880) scale(1,-1)" /></svg>