<svg xmlns="http://www.w3.org/2000/svg" width="1000" height="1000"><path d="M606 -71Q690 -71 758.0 -32.5Q826 6 865.0 78.5Q904 151 904 248Q904 350 858.0 420.5Q812 491 740.0 525.0Q668 559 590 559Q497 559 426.5 547.0Q356 535 279.5 505.0Q203 475 89 416L128 342Q228 404 303.5 434.0Q379 464 438.0 472.0Q497 480 577 480Q633 480 690.5 453.5Q748 427 786.5 374.5Q825 322 825 248Q825 172 793.5 116.0Q762 60 710.5 31.0Q659 2 599 2Q528 2 464 17V-58Q529 -71 606 -71ZM286 46Q331 46 409.5 100.0Q488 154 564.5 230.5Q641 307 675 366L613 422Q591 379 528.0 308.5Q465 238 398.5 185.0Q332 132 294 132Q282 132 271.5 151.5Q261 171 253 209L181 190Q192 136 219.5 91.0Q247 46 286 46ZM625 147Q586 200 519.5 265.0Q453 330 397 373L348 322Q400 283 466.5 214.0Q533 145 572 93ZM324 615Q304 658 269.0 708.0Q234 758 191 800L120 770Q163 726 197.0 677.0Q231 628 249 585ZM458 498H540V840H458ZM738 579Q810 655 882 781L801 805Q779 754 744.5 699.5Q710 645 673 603Z" transform="translate(0, 880) scale(1,-1)" /></svg>