<svg xmlns="http://www.w3.org/2000/svg" width="1000" height="1000"><path d="M752 228H833C863 292 882 428 882 497C882 652 845 728 670 728C539 728 430 708 346 671L376 606C460 639 554 651 669 651C785 651 798 604 798 498C798 431 779 289 752 228ZM55 -22 99 -88C197 -45 318 22 400 84L335 140C272 85 150 18 55 -22ZM47 154H951V233H47ZM149 228H235V836H149ZM881 -82 930 -15C860 33 744 97 638 147L597 85C701 34 813 -33 881 -82ZM550 222 618 191C679 225 729 277 729 337C729 415 648 450 513 450C358 450 293 394 293 339C293 291 353 245 441 245C504 245 568 277 568 350C568 397 557 429 538 459L661 535L623 592L597 582H320V508L494 509L441 478C470 438 488 394 488 350C488 328 467 313 441 313C400 313 376 323 376 339C376 360 416 378 513 378C612 378 643 365 643 337C643 294 605 253 550 222ZM199 727H516V805H199Z" transform="translate(0, 880) scale(1,-1)" /></svg>