<svg xmlns="http://www.w3.org/2000/svg" width="1000" height="1000"><path d="M101 -60Q207 124 207 501V710H943V787H131V501Q131 346 112.5 213.5Q94 81 35 -21ZM269 -37Q310 2 358.5 60.0Q407 118 447 175L378 205Q344 154 298.0 101.5Q252 49 207 10ZM551 -78Q589 -78 606.5 -58.5Q624 -39 624 4V449H551V9Q551 -1 543.5 -7.0Q536 -13 521 -13Q481 -13 412 8V-66Q477 -78 551 -78ZM941 2Q886 72 759 203L702 165Q830 26 879 -42ZM421 259Q518 248 585 248Q739 248 807.5 297.0Q876 346 876 443Q876 530 813.0 577.0Q750 624 605 624Q505 624 419.0 600.5Q333 577 277 540L309 471Q364 507 439.5 528.0Q515 549 605 549Q697 549 746.5 521.0Q796 493 796 443Q796 387 746.5 353.5Q697 320 590 320Q515 320 421 337Z" transform="translate(0, 880) scale(1,-1)" /></svg>