<svg xmlns="http://www.w3.org/2000/svg" width="1000" height="1000"><path d="M89 98Q167 185 249.5 304.5Q332 424 400 540L360 586L345 571H67V502H301Q260 430 184.5 328.5Q109 227 35 149ZM214 -77 404 65 388 130 293 62V386H230V55Q230 15 190 -10ZM338 669Q311 697 261.5 737.5Q212 778 164 812L116 763Q165 727 214.0 685.0Q263 643 287 615ZM768 -74Q854 -74 892.5 30.0Q931 134 931 358Q931 544 882.0 620.0Q833 696 742 696Q679 696 626.0 676.0Q573 656 533 621L543 552Q583 585 634.5 603.5Q686 622 742 622Q802 622 829.5 557.5Q857 493 857 358Q857 236 850.0 159.5Q843 83 822.5 41.5Q802 0 764 0Q686 0 630 37L613 -36Q645 -54 681.0 -64.0Q717 -74 768 -74ZM462 362Q584 538 651 821L578 837Q548 706 504.0 595.0Q460 484 404 408ZM428 -68Q561 31 622.0 164.5Q683 298 708 481L638 487Q622 376 594.5 288.5Q567 201 514.0 123.0Q461 45 376 -17Z" transform="translate(0, 880) scale(1,-1)" /></svg>