<svg xmlns="http://www.w3.org/2000/svg" width="1000" height="1000"><path d="M186 102H259V639H375V711H71V639H186ZM366 222 63 72 89 -1 393 152ZM722 -64Q772 -64 817.0 -32.5Q862 -1 890.5 65.5Q919 132 919 231Q919 367 851.5 427.0Q784 487 683 487Q646 487 620 477Q699 607 744 687H909V765H426L425 687H667Q610 580 527 468Q522 461 513.0 455.0Q504 449 493 443L455 420L485 353Q534 383 579.5 395.5Q625 408 677 408Q748 408 793.5 364.5Q839 321 839 231Q839 159 821.0 109.5Q803 60 775.0 35.5Q747 11 718 11Q650 11 567 35V-47Q636 -64 722 -64Z" transform="translate(0, 880) scale(1,-1)" /></svg>