<svg xmlns="http://www.w3.org/2000/svg" width="1000" height="1000"><path d="M523 18H622C686 64 734 143 734 207C734 293 653 354 521 354C369 354 285 313 285 225C285 151 345 97 449 97C520 97 560 145 560 195V439H481V217C481 183 460 166 432 166C408 166 365 194 365 225C365 257 402 281 521 281C606 281 652 240 652 205C652 160 632 92 523 18ZM78 -54H920V18H78ZM58 500 123 455C208 570 261 689 310 834L237 852C189 707 126 588 58 500ZM263 439H807V511H263ZM211 642H887V714H211Z" transform="translate(0, 880) scale(1,-1)" /></svg>