<svg xmlns="http://www.w3.org/2000/svg" width="1000" height="1000"><path d="M203 173Q276 173 375.5 252.5Q475 332 578.0 464.5Q681 597 764 751L707 809L681 795H153V714H650Q586 603 499.5 495.5Q413 388 332.0 320.0Q251 252 203 252Q168 252 149.5 269.5Q131 287 131 320Q131 342 151.5 369.0Q172 396 207.5 416.0Q243 436 286 439Q387 445 517 445Q722 445 926 428L945 508Q727 521 518 521Q382 521 278 515Q210 511 158.5 483.0Q107 455 80.0 411.5Q53 368 53 320Q53 247 95.5 210.0Q138 173 203 173ZM340 -76Q468 90 531 229L453 259Q422 187 372.5 107.5Q323 28 274 -26ZM933 -32Q900 36 852.5 119.5Q805 203 762 266L695 226Q740 157 786.0 73.0Q832 -11 861 -77Z" transform="translate(0, 880) scale(1,-1)" /></svg>