<svg xmlns="http://www.w3.org/2000/svg" width="1000" height="1000"><path d="M580 24Q623 55 645.0 110.5Q667 166 667 228Q667 294 628.5 331.0Q590 368 536 368Q474 368 436.0 334.5Q398 301 398 245Q398 187 436.5 154.5Q475 122 535 122Q567 122 594 143Q576 100 534.5 68.5Q493 37 433 24ZM251 393Q239 451 211.0 534.5Q183 618 152 688L81 663Q112 588 138.5 503.5Q165 419 175 362ZM449 444Q429 557 383 672L312 649Q354 545 377 414ZM787 356Q834 452 914 672L830 706Q811 631 780.0 540.0Q749 449 721 387ZM108 -52H890V24H108ZM535 192Q506 192 487.0 206.0Q468 220 468 245Q468 271 487.0 286.0Q506 301 536 301Q560 301 578.5 286.0Q597 271 597 250Q597 222 579.5 207.0Q562 192 535 192ZM633 271V828H555V336Z" transform="translate(0, 880) scale(1,-1)" /></svg>