<svg xmlns="http://www.w3.org/2000/svg" width="1000" height="1000"><path d="M106 -77Q218 -33 279.5 37.5Q341 108 365.5 197.0Q390 286 398 412H578V56Q578 10 588.0 -15.0Q598 -40 623.0 -51.0Q648 -62 694 -62H830Q874 -62 897.0 -45.5Q920 -29 931.5 15.0Q943 59 948 147L877 180Q876 103 870.5 68.0Q865 33 854.0 22.0Q843 11 822 11H703Q675 11 665.0 19.0Q655 27 655 54V412H922V490H79V412H319Q313 300 293.5 225.0Q274 150 221.0 90.0Q168 30 68 -9ZM147 682H857V760H147Z" transform="translate(0, 880) scale(1,-1)" /></svg>