<svg xmlns="http://www.w3.org/2000/svg" width="1000" height="1000"><path d="M35 -21 103 -60C196 101 209 338 209 501V709H933V787H131V501C131 347 123 132 35 -21ZM398 -73C519 -73 614 46 614 196C614 306 574 407 445 526L381 489C499 369 534 261 534 196C534 86 469 7 396 8C336 9 304 47 304 93C304 219 521 318 767 331V29H667V-43L953 -45V29H845V389L784 418L770 401C476 382 227 283 227 93C227 -5 290 -73 398 -73ZM276 515 302 443C449 486 599 543 744 618L691 682C576 618 410 555 276 515Z" transform="translate(0, 880) scale(1,-1)" /></svg>