<svg xmlns="http://www.w3.org/2000/svg" width="1000" height="1000"><path d="M767 88Q669 54 569.5 38.5Q470 23 357 23Q269 23 224.5 45.5Q180 68 163.0 119.5Q146 171 143 270L61 256Q63 146 86.0 81.0Q109 16 172.5 -18.0Q236 -52 357 -52Q480 -52 584.0 -38.5Q688 -25 787 7ZM472 103Q556 103 556 198V760H479V213Q479 195 470.0 184.5Q461 174 445 173Q372 170 286 205V125Q330 112 373.0 107.0Q416 102 472 103ZM103 335H887V411H103ZM136 519H864V593H136ZM135 691Q328 697 523.5 714.5Q719 732 854 765L806 832Q694 803 506.0 785.5Q318 768 117 761ZM937 -36Q923 84 874 265L797 240Q837 124 856 -52Z" transform="translate(0, 880) scale(1,-1)" /></svg>