<svg xmlns="http://www.w3.org/2000/svg" width="1000" height="1000"><path d="M196 -62C338 -62 399 115 399 256C399 375 340 494 196 549L171 487C286 438 325 341 325 256C325 151 286 18 196 18C162 18 137 41 137 101C137 214 228 301 411 431L367 485C187 362 59 239 59 101C59 -17 117 -62 196 -62ZM436 143 502 92C546 189 591 339 620 487L549 504C522 369 481 237 436 143ZM205 522 254 498C312 570 383 672 420 745L370 782L355 774H75V699H311C281 638 239 570 205 522ZM683 -78C720 -78 748 -61 748 4V719H675V17C675 0 666 -6 654 -6C627 -6 596 1 558 19V-64C595 -73 637 -78 683 -78ZM892 95 966 125C945 229 903 389 859 508L789 489C830 366 872 203 892 95ZM482 714 508 643C641 670 807 705 919 757L872 821C773 773 609 737 482 714Z" transform="translate(0, 880) scale(1,-1)" /></svg>