<svg xmlns="http://www.w3.org/2000/svg" width="1000" height="1000"><path d="M809 -75Q877 0 908.5 89.0Q940 178 940 303Q940 429 885.0 478.5Q830 528 733 528Q672 528 588.5 483.0Q505 438 442.5 345.5Q380 253 380 119Q380 25 412.0 -20.0Q444 -65 492 -65Q539 -65 581.0 -18.0Q623 29 648.5 111.5Q674 194 674 297Q674 437 612.0 503.0Q550 569 415 569Q334 569 249.5 514.5Q165 460 109.0 355.0Q53 250 53 108Q53 24 85.0 -20.5Q117 -65 164 -65Q232 -65 276.5 17.5Q321 100 350.5 295.0Q380 490 398 833H315Q299 411 258.0 219.5Q217 28 164 28Q128 28 128 108Q128 215 171.5 302.5Q215 390 282.0 439.5Q349 489 415 489Q516 489 556.5 433.5Q597 378 597 297Q597 180 569.0 108.0Q541 36 492 36Q454 36 454 119Q454 200 500.5 275.0Q547 350 613.5 396.5Q680 443 733 443Q858 443 858 303Q858 102 742 -20ZM263 639Q183 703 95 763L42 703Q135 639 209 574Z" transform="translate(0, 880) scale(1,-1)" /></svg>