<svg xmlns="http://www.w3.org/2000/svg" width="1000" height="1000"><path d="M777 -72C879 -72 915 130 915 307C915 448 912 598 755 598C642 598 555 583 471 557L480 477C568 503 651 517 745 517C835 517 839 399 839 307C839 144 810 2 759 2C735 2 708 8 667 20V-62C708 -69 735 -72 777 -72ZM497 -84C660 93 714 357 748 835L672 841C638 364 583 125 431 -37ZM64 600H507V677H64ZM185 56 244 39C302 125 374 259 414 352L363 411L340 404H239C288 505 330 651 358 814L280 822C255 663 205 491 142 369L193 319L215 331H317C302 278 239 145 185 56ZM463 189 51 13 78 -67 480 121Z" transform="translate(0, 880) scale(1,-1)" /></svg>