<svg xmlns="http://www.w3.org/2000/svg" width="1000" height="1000"><path d="M964 -6Q870 22 797.0 59.5Q724 97 631 154Q560 198 513.0 223.0Q466 248 412.0 264.0Q358 280 297 280Q192 280 129.0 229.0Q66 178 66 89Q66 12 114.0 -35.0Q162 -82 254 -82Q387 -82 456.5 30.5Q526 143 549.5 338.5Q573 534 573 836H494Q494 559 472.5 374.0Q451 189 398.0 89.0Q345 -11 254 -11Q201 -11 173.5 16.5Q146 44 146 89Q146 207 297 207Q361 207 423.5 178.0Q486 149 587 86Q684 25 759.0 -14.5Q834 -54 925 -83ZM292 383Q474 350 606 350Q761 350 842.5 394.0Q924 438 924 522Q924 610 831.0 650.0Q738 690 572 690Q425 690 293.5 662.5Q162 635 72 595L93 525Q185 562 312.5 587.0Q440 612 572 612Q693 612 764.5 589.5Q836 567 836 520Q836 474 776.0 448.5Q716 423 596 423Q472 423 292 452Z" transform="translate(0, 880) scale(1,-1)" /></svg>