<svg xmlns="http://www.w3.org/2000/svg" width="1000" height="1000"><path d="M104 -80Q201 102 201 469V668H948V741H598L548 845L473 827L513 741H126V468Q126 316 108.5 185.0Q91 54 37 -46ZM773 327 775 393H356V327ZM503 379Q486 513 451 634L381 619Q414 504 432 364ZM225 478H937V544H225ZM700 354Q735 464 765 633L691 639Q668 487 633 365ZM528 -82H602V351H528ZM236 134Q432 205 657 205Q753 205 792.5 191.5Q832 178 832 157Q832 130 800.0 116.5Q768 103 685 103Q632 103 552 109V44Q605 41 649 41Q790 41 852.5 69.5Q915 98 915 157Q915 273 657 273Q438 273 213 197Z" transform="translate(0, 880) scale(1,-1)" /></svg>