<svg xmlns="http://www.w3.org/2000/svg" width="1000" height="1000"><path d="M619 425C750 425 780 525 780 611C780 687 710 735 578 735C437 735 311 722 177 701L191 632C323 653 449 669 574 669C682 669 710 642 710 606C710 551 691 487 614 487C573 487 529 491 483 500V433C528 427 569 425 619 425ZM104 401 154 350C372 460 517 621 562 839L484 844C439 625 307 505 104 401ZM644 7V-66C683 -73 723 -76 771 -76C877 -76 919 19 919 133C919 256 808 323 624 323C266 323 55 188 55 49C55 -27 106 -70 190 -70C343 -70 435 70 435 217C435 320 379 420 241 466L215 402C330 363 362 296 362 217C362 93 290 -5 190 -5C149 -5 129 15 129 49C129 133 287 250 624 250C756 250 843 217 845 133C846 75 820 -12 767 -12C722 -12 684 -5 644 7ZM428 -23 497 -65C625 45 755 193 800 411L728 426C683 207 566 81 428 -23Z" transform="translate(0, 880) scale(1,-1)" /></svg>