<svg xmlns="http://www.w3.org/2000/svg" width="1000" height="1000"><path d="M806 333Q847 333 871.5 346.5Q896 360 909.5 393.5Q923 427 930 488L866 507Q862 462 856.0 441.5Q850 421 838.0 415.0Q826 409 801 409Q695 409 605.5 468.0Q516 527 460.5 625.5Q405 724 394 837H318Q330 702 397.5 586.0Q465 470 572.5 401.5Q680 333 806 333ZM149 345Q367 381 549.5 439.0Q732 497 847 600L779 639Q670 543 486.0 491.0Q302 439 100 414ZM91 613 901 685 893 754 83 684ZM106 -77Q222 -51 284.5 -12.5Q347 26 371.5 81.0Q396 136 398 222H578V56Q578 10 588.0 -15.0Q598 -40 623.0 -51.0Q648 -62 694 -62H830Q873 -62 896.5 -47.5Q920 -33 931.5 0.5Q943 34 948 97L877 130Q876 78 870.5 53.0Q865 28 854.0 19.5Q843 11 822 11H703Q675 11 665.0 19.0Q655 27 655 54V222H922V296H79V222H319Q318 151 298.5 109.0Q279 67 226.0 39.0Q173 11 68 -9Z" transform="translate(0, 880) scale(1,-1)" /></svg>