<svg xmlns="http://www.w3.org/2000/svg" width="1000" height="1000"><path d="M382 710Q345 772 286 841L223 814Q271 758 312 681ZM73 627H927V692H73ZM689 666Q715 699 741.5 740.0Q768 781 791 819L716 845Q684 774 626 692ZM52 -51H949V18H52ZM552 454H477V167Q477 151 460.5 140.5Q444 130 422 130Q402 130 378.0 142.0Q354 154 354 169Q354 186 391.5 197.5Q429 209 511 209Q571 209 604.5 191.0Q638 173 638 151Q638 120 612.5 88.0Q587 56 513 18H616Q664 44 691.5 80.5Q719 117 719 153Q719 186 694.0 212.5Q669 239 622.0 254.0Q575 269 511 269Q396 269 336.5 244.0Q277 219 277 169Q277 126 320.0 98.5Q363 71 439 71Q490 71 521.0 94.0Q552 117 552 147ZM320 321Q415 317 511 317Q644 317 722.0 329.5Q800 342 836.5 372.0Q873 402 873 454Q873 584 549 584Q420 584 335.5 562.0Q251 540 179 500L209 442Q279 481 357.0 499.5Q435 518 549 518Q675 518 734.5 500.5Q794 483 794 454Q794 417 734.0 400.0Q674 383 540 383Q440 383 320 390ZM159 333H234V560H159Z" transform="translate(0, 880) scale(1,-1)" /></svg>