<svg xmlns="http://www.w3.org/2000/svg" width="1000" height="1000"><path d="M753 -78Q807 -78 838.5 -59.5Q870 -41 887.5 -4.5Q905 32 916 95L841 117Q829 48 805.0 21.5Q781 -5 732 -5H255Q222 -5 222 8Q222 13 231.5 18.0Q241 23 252 27L370 76Q533 142 651.5 195.0Q770 248 872 307L819 363Q723 304 618.0 257.5Q513 211 366 153Q313 132 262.0 111.0Q211 90 179 75Q129 51 129 4Q129 -37 153.5 -57.5Q178 -78 244 -78ZM146 272H793V345H146ZM241 449H765V522H241ZM82 509H165V556Q241 611 363.5 638.5Q486 666 615 666Q729 666 780.5 653.5Q832 641 832 620Q832 598 826.0 579.5Q820 561 806 543L888 512Q904 538 911.0 562.0Q918 586 918 621Q918 691 843.5 716.0Q769 741 615 741Q475 741 361.0 707.0Q247 673 165 609V727H82ZM567 721Q542 795 510 852L432 831Q468 772 487 702Z" transform="translate(0, 880) scale(1,-1)" /></svg>