<svg xmlns="http://www.w3.org/2000/svg" width="1000" height="1000"><path d="M94 -80Q313 -47 426.0 46.5Q539 140 539 304H769V368H231V304H463Q463 161 358.5 85.0Q254 9 46 -19ZM93 151H907V217H93ZM954 -30Q892 7 793.5 50.5Q695 94 598 127L543 81Q638 45 737.5 -1.5Q837 -48 896 -84ZM112 320H185V379Q264 411 380.0 429.0Q496 447 617 447Q725 447 769.5 435.0Q814 423 814 408Q814 390 808.5 377.0Q803 364 789 348L861 323Q877 345 884.0 364.5Q891 384 891 412Q891 463 824.0 488.5Q757 514 617 514Q481 514 376.0 493.0Q271 472 185 433V499H112ZM145 555H855V618H538V688H916V753H538V843H462V753H84V688H462V618H145Z" transform="translate(0, 880) scale(1,-1)" /></svg>