<svg xmlns="http://www.w3.org/2000/svg" width="1000" height="1000"><path d="M328 224Q442 209 543 209Q694 209 779.5 250.0Q865 291 865 380Q865 471 776.0 517.5Q687 564 558 564Q424 564 331.5 533.5Q239 503 171 454L202 379Q269 428 351.0 456.5Q433 485 557 485Q651 485 718.5 458.0Q786 431 786 378Q786 332 717.5 305.0Q649 278 530 278Q434 278 328 295ZM115 -84Q289 -42 381.5 20.0Q474 82 504.5 146.5Q535 211 535 281V372H455V282Q455 226 429.5 174.0Q404 122 318.0 70.5Q232 19 66 -17ZM147 214H222V503H147ZM936 -14Q874 17 767.5 61.0Q661 105 566 138L529 78Q626 41 732.5 -5.0Q839 -51 898 -84ZM163 556Q261 614 337.0 680.0Q413 746 471 826L381 844Q295 716 102 610ZM531 511Q607 579 657.0 634.5Q707 690 740 743L679 777L667 773H348V709H624Q577 638 479 551Z" transform="translate(0, 880) scale(1,-1)" /></svg>