<svg xmlns="http://www.w3.org/2000/svg" width="1000" height="1000"><path d="M90 59Q289 182 485.0 344.5Q681 507 852 685L786 742L773 726H375V650H703Q597 537 410.5 388.0Q224 239 47 132ZM122 407Q228 493 329.0 597.5Q430 702 507 808L436 844Q364 745 265.0 642.5Q166 540 69 465ZM444 -59Q487 -59 526.5 -51.5Q566 -44 615 -27V63Q513 22 453 22Q435 22 423.5 38.0Q412 54 412 83V509H333V57Q333 -6 360.0 -32.5Q387 -59 444 -59ZM931 -16Q917 75 874.0 175.5Q831 276 775 352L698 322Q751 249 790.5 151.5Q830 54 844 -36Z" transform="translate(0, 880) scale(1,-1)" /></svg>