<svg xmlns="http://www.w3.org/2000/svg" width="1000" height="1000"><path d="M231 -20Q392 -20 466.0 200.5Q540 421 552 801L482 815Q472 476 414.5 267.5Q357 59 236 59Q210 59 186.0 81.5Q162 104 147.0 141.0Q132 178 132 220Q132 402 284.0 479.5Q436 557 666 566L612 266L681 253L757 615L703 657L682 639Q512 640 371.0 597.5Q230 555 144.0 460.5Q58 366 58 220Q58 150 84.5 95.5Q111 41 151.5 10.5Q192 -20 231 -20ZM414 203Q353 270 320.5 360.5Q288 451 288 577Q288 685 315 827L249 837Q218 686 218 565Q218 418 259.0 312.5Q300 207 371 140ZM609 -64Q706 -44 780.0 15.0Q854 74 895.0 163.0Q936 252 936 360Q936 419 900.0 458.0Q864 497 806 497Q761 497 708 466V406Q755 425 787 425Q857 425 857 343Q857 256 822.5 184.5Q788 113 721.5 67.0Q655 21 562 7Z" transform="translate(0, 880) scale(1,-1)" /></svg>