<svg xmlns="http://www.w3.org/2000/svg" width="1000" height="1000"><path d="M133 458Q188 525 231.5 627.5Q275 730 295 824L220 840Q201 746 157.0 649.0Q113 552 63 495ZM302 154Q287 214 258.0 295.5Q229 377 198 446L126 409Q154 347 182.5 263.5Q211 180 226 118ZM96 -38H904V44H96ZM555 183Q546 252 522.5 342.5Q499 433 470 516L395 483Q421 402 443.0 312.0Q465 222 475 152ZM735 119Q769 196 806.0 292.5Q843 389 869 471L784 505Q764 422 732.0 325.0Q700 228 667 146ZM200 606H873V684H200Z" transform="translate(0, 880) scale(1,-1)" /></svg>