<svg xmlns="http://www.w3.org/2000/svg" width="1000" height="1000"><path d="M239 -43Q288 -43 336.0 -12.5Q384 18 414.5 73.5Q445 129 445 200Q445 278 405 362Q434 385 461.5 414.0Q489 443 523 483L472 522L451 512H226V446H406Q383 416 331 364Q368 280 368 211Q368 156 347.0 116.0Q326 76 295.5 55.5Q265 35 239 35Q202 35 188.0 49.0Q174 63 174 94Q174 146 255.0 198.0Q336 250 451.0 283.5Q566 317 656 317Q727 317 755.5 301.5Q784 286 784 257Q784 227 752.0 192.0Q720 157 662.5 123.5Q605 90 534 65L554 1Q641 27 713.0 69.0Q785 111 827.0 162.5Q869 214 869 266Q869 322 815.0 357.0Q761 392 656 392Q540 392 407.5 352.0Q275 312 185.0 242.0Q95 172 95 87Q95 21 133.0 -11.0Q171 -43 239 -43ZM137 472Q172 544 202.5 636.0Q233 728 249 810L173 824Q156 741 127.0 654.5Q98 568 65 506ZM155 606H751V680H155ZM940 -15Q811 37 752.0 101.0Q693 165 666.0 329.0Q639 493 639 842H561Q562 483 592.0 306.5Q622 130 684.5 54.5Q747 -21 879 -82ZM943 607Q905 716 850 811L782 782Q836 692 868 580Z" transform="translate(0, 880) scale(1,-1)" /></svg>