<svg xmlns="http://www.w3.org/2000/svg" width="1000" height="1000"><path d="M83 492H917V568H83ZM371 -80Q593 -7 699.0 72.5Q805 152 805 255Q805 343 738.0 389.5Q671 436 554 436Q488 436 418.5 427.5Q349 419 297 405L314 327Q365 342 430.0 352.0Q495 362 554 362Q629 362 672.5 334.5Q716 307 716 255Q716 199 672.0 154.5Q628 110 541.0 72.0Q454 34 315 -6ZM475 389Q563 468 660.0 573.0Q757 678 828 768L741 813L730 803H181V725H687Q643 667 566.0 578.5Q489 490 419 425Z" transform="translate(0, 880) scale(1,-1)" /></svg>