<svg xmlns="http://www.w3.org/2000/svg" width="1000" height="1000"><path d="M468 410Q552 438 612.0 483.0Q672 528 672 575Q672 599 653.5 620.5Q635 642 597.0 655.5Q559 669 504 669Q421 669 381.5 643.0Q342 617 342 582Q342 545 394.5 520.0Q447 495 548 495Q656 495 733.5 516.5Q811 538 851.0 578.0Q891 618 891 671Q891 737 808.0 774.5Q725 812 558 812Q413 812 291.5 787.5Q170 763 86 727L124 662Q203 694 323.0 717.0Q443 740 558 740Q675 740 738.5 721.0Q802 702 802 671Q802 614 738.0 582.5Q674 551 548 551Q484 551 454.0 558.5Q424 566 424 582Q424 597 444.0 605.5Q464 614 504 614Q543 614 565.5 604.0Q588 594 588 575Q588 532 544.5 503.0Q501 474 408 441ZM154 301V235H357V301ZM104 484V-32H177V484ZM67 -24 94 -84 370 50 343 110ZM454 -14Q503 43 541.0 93.0Q579 143 617 206L565 238L553 230H466Q513 314 547 464L480 469Q442 284 371 184L428 164L442 175H516Q468 84 389 4ZM311 313H672V373H311ZM319 -10 346 -69 664 55 633 113ZM732 194Q858 258 941 321L893 366Q812 303 686 246ZM837 -66Q881 -66 904.0 -48.5Q927 -31 937.5 6.0Q948 43 953 113L890 130Q887 72 882.0 47.0Q877 22 865.5 12.5Q854 3 829 3H804Q774 3 763.0 13.5Q752 24 752 52V474H683V61Q683 9 691.5 -17.5Q700 -44 722.0 -55.0Q744 -66 789 -66Z" transform="translate(0, 880) scale(1,-1)" /></svg>