<svg xmlns="http://www.w3.org/2000/svg" width="1000" height="1000"><path d="M900 487Q921 517 930.0 548.0Q939 579 939 617Q939 739 617 739Q476 739 352.5 706.5Q229 674 147 618V729H69V495H147V566Q222 613 352.0 636.5Q482 660 617 660Q745 660 801.0 645.5Q857 631 857 610Q857 582 850.5 560.0Q844 538 826 514ZM578 697Q552 771 500 847L424 826Q447 790 468.0 749.5Q489 709 499 677ZM530 24Q573 55 595.0 110.5Q617 166 617 228Q617 294 578.5 331.0Q540 368 486 368Q424 368 386.0 334.5Q348 301 348 245Q348 187 386.5 154.5Q425 122 485 122Q517 122 544 143Q526 100 484.5 68.5Q443 37 383 24ZM98 -52H900V24H98ZM485 192Q456 192 437.0 206.0Q418 220 418 245Q418 271 437.0 286.0Q456 301 486 301Q510 301 528.5 286.0Q547 271 547 250Q547 222 529.5 207.0Q512 192 485 192ZM583 271V598H505V336ZM203 220Q230 271 251.5 342.5Q273 414 296 514L215 524Q202 449 180.5 373.0Q159 297 132 247ZM876 231Q858 320 840.0 394.0Q822 468 797 530L722 512Q764 400 795 209Z" transform="translate(0, 880) scale(1,-1)" /></svg>