<svg xmlns="http://www.w3.org/2000/svg" width="1000" height="1000"><path d="M535 65Q463 106 431.0 164.0Q399 222 399 300Q399 381 428.0 479.0Q457 577 521 755L555 850L476 858Q401 666 361.5 527.5Q322 389 322 283Q322 186 359.5 117.5Q397 49 481 11ZM189 300 357 415 309 467 135 350ZM470 353Q524 350 569 350Q739 350 808.5 390.0Q878 430 878 502Q878 640 584 640Q447 640 324.5 611.5Q202 583 122 537L151 473Q227 516 342.5 541.5Q458 567 584 567Q690 567 746.5 550.5Q803 534 803 502Q803 461 756.0 441.0Q709 421 605 421Q548 421 470 427ZM88 763V691H912V763ZM642 -88Q792 -74 871.0 -27.5Q950 19 950 107Q950 198 835.5 241.0Q721 284 500 284Q364 284 263.5 260.5Q163 237 108.5 192.5Q54 148 54 86Q54 7 116.0 -35.0Q178 -77 281 -77Q384 -77 474.0 -26.5Q564 24 624.5 113.5Q685 203 702 314L624 319Q611 221 561.5 148.0Q512 75 438.0 36.0Q364 -3 281 -3Q211 -3 173.0 19.5Q135 42 135 86Q135 117 173.0 146.5Q211 176 293.5 195.5Q376 215 500 215Q623 215 706.0 199.0Q789 183 829.0 157.5Q869 132 869 103Q869 47 804.5 18.5Q740 -10 608 -19Z" transform="translate(0, 880) scale(1,-1)" /></svg>