<svg xmlns="http://www.w3.org/2000/svg" width="1000" height="1000"><path d="M88 -82H165V685C235 704 306 712 399 712H746C807 712 838 688 838 637V23C838 4 826 -4 812 -4C779 -4 727 4 673 20V-62C722 -73 767 -79 806 -79C882 -79 915 -59 915 17V641C915 733 865 788 750 788H397C302 788 236 775 165 749V788H88ZM297 92H365L364 284C405 328 470 353 541 353C597 353 635 328 635 297C635 251 607 219 562 186H438V122H717V186H614C651 202 708 229 708 297C708 369 646 419 541 419C452 419 398 374 364 327V396H297ZM283 523H711V592H283Z" transform="translate(0, 880) scale(1,-1)" /></svg>