<svg xmlns="http://www.w3.org/2000/svg" width="1000" height="1000"><path d="M106 367H894V437H106ZM501 437H634C720 460 769 529 769 572C769 629 679 675 495 675C317 675 209 640 209 581C209 526 278 485 426 485C513 485 541 521 541 555V768H459V586C459 553 438 542 400 542C369 542 309 559 309 578C309 603 357 619 495 619C597 619 674 593 674 570C674 540 645 478 501 437ZM107 737H894V805H106ZM61 -12 101 -79C500 10 542 149 542 391H458C458 179 435 65 61 -12ZM73 209H922V276H73ZM880 -83 933 -19C853 27 716 86 600 124L550 67C669 26 801 -37 880 -83Z" transform="translate(0, 880) scale(1,-1)" /></svg>