<svg xmlns="http://www.w3.org/2000/svg" width="1000" height="1000"><path d="M538 337V833H462V337ZM72 577H928V651H72ZM870 362H130V289H870ZM126 -79Q173 -26 209.5 44.0Q246 114 262 186L187 209Q173 140 137.0 71.0Q101 2 57 -44ZM524 -73Q555 -73 586.5 -56.0Q618 -39 661 2L607 66Q585 37 568.5 25.5Q552 14 534 14Q521 14 512.0 29.5Q503 45 492.0 85.5Q481 126 464 209L386 190Q419 40 452.0 -16.5Q485 -73 524 -73ZM951 -42Q924 13 879.0 84.5Q834 156 792 211L723 172Q766 117 806.0 50.5Q846 -16 873 -74Z" transform="translate(0, 880) scale(1,-1)" /></svg>