<svg xmlns="http://www.w3.org/2000/svg" width="1000" height="1000"><path d="M89 98C199 221 317 397 400 540L360 586L345 571H67V502H301C249 410 137 257 35 149ZM214 -77 404 65 388 130 293 62V386H230V55C230 20 206 0 190 -10ZM287 615 338 669C300 709 223 770 164 812L116 763C176 719 253 655 287 615ZM768 -74C884 -74 931 63 931 358C931 622 853 696 742 696C655 696 584 665 533 621L543 552C596 596 667 622 742 622C823 622 857 536 857 358C857 135 843 0 764 0C708 0 666 13 630 37L613 -36C649 -56 693 -74 768 -74ZM462 362C552 492 612 657 651 821L578 837C540 669 481 512 404 408ZM428 -68C619 74 679 266 708 481L638 487C609 288 555 113 376 -17Z" transform="translate(0, 880) scale(1,-1)" /></svg>