<svg xmlns="http://www.w3.org/2000/svg" width="1000" height="1000"><path d="M87 -77Q311 18 422.5 186.0Q534 354 534 627V824H455V627Q455 389 350.0 231.5Q245 74 43 -11ZM843 -61Q886 -61 908.5 -38.0Q931 -15 940.5 37.0Q950 89 954 187L877 201Q875 113 871.5 75.0Q868 37 859.0 24.0Q850 11 831 11H629Q605 11 598.0 21.0Q591 31 591 66V358H515V67Q515 16 524.0 -11.0Q533 -38 555.5 -49.5Q578 -61 620 -61ZM886 392Q904 429 912.5 464.0Q921 499 921 542Q921 616 842.5 649.5Q764 683 617 683Q476 683 361.0 645.5Q246 608 164 539V666H82V414H164V479Q240 539 362.0 568.5Q484 598 617 598Q695 598 744.0 589.0Q793 580 814.5 567.0Q836 554 836 541Q836 510 830.0 482.5Q824 455 809 426Z" transform="translate(0, 880) scale(1,-1)" /></svg>