<svg xmlns="http://www.w3.org/2000/svg" width="1000" height="1000"><path d="M106 592 128 543 171 550 800 575 792 641 302 622C395 676 483 740 568 828L487 847C402 754 263 659 186 620C157 605 133 598 106 592ZM826 525 892 566C850 611 789 666 715 717L655 678C729 626 784 570 826 525ZM219 355 286 387C269 425 224 477 184 517L119 487C156 449 197 392 219 355ZM482 374 554 399C541 441 506 494 470 540L402 516C435 472 468 415 482 374ZM696 379 760 361C802 402 847 454 880 502L805 531C780 484 736 424 696 379ZM456 -79C523 -79 551 -52 551 9V372H472V21C472 4 460 -9 438 -9C399 -9 348 0 301 13V-67C348 -74 402 -79 456 -79ZM57 36 115 -20C198 23 290 89 347 157L274 190C224 130 140 72 57 36ZM62 228H942V302H62ZM882 -23 941 27C893 73 789 142 706 189L650 142C734 93 835 22 882 -23Z" transform="translate(0, 880) scale(1,-1)" /></svg>