<svg xmlns="http://www.w3.org/2000/svg" width="1000" height="1000"><path d="M103 775V694H897V775ZM931 52Q788 19 613 19Q514 19 427.0 30.0Q340 41 280 61Q215 84 185.5 148.0Q156 212 152 343L74 330Q76 185 119.0 100.0Q162 15 250 -15Q313 -37 409.5 -49.5Q506 -62 614 -62Q786 -62 931 -31ZM227 203H298V353Q370 420 461.0 452.5Q552 485 643 485Q723 485 764.0 462.0Q805 439 805 396Q805 342 774.0 319.0Q743 296 681 296Q628 296 553 310V238Q619 230 668 230Q772 230 826.5 268.0Q881 306 881 396Q881 475 817.5 515.5Q754 556 643 556Q435 556 298 415V553H227ZM516 70H592V651H516Z" transform="translate(0, 880) scale(1,-1)" /></svg>