<svg xmlns="http://www.w3.org/2000/svg" width="1000" height="1000"><path d="M435 378Q477 378 500.5 383.0Q524 388 536.5 404.0Q549 420 549 452V646Q618 671 689.0 705.0Q760 739 805 770L756 815L740 811H216V742H629Q555 706 473 681V467Q473 456 464.5 448.0Q456 440 441 439Q365 437 290 460V390Q384 378 435 378ZM932 589Q776 610 562 610Q354 610 82 589V526Q319 542 520 542Q755 542 914 521ZM127 232Q273 286 389 352L341 399Q229 330 84 281ZM767 329Q727 289 692 262V7Q692 -4 686.5 -12.5Q681 -21 671 -22Q622 -24 577 0V-74Q621 -89 667 -89Q760 -89 760 -2V237Q827 293 896 366L840 409L826 404Q689 401 507.5 337.5Q326 274 196.0 187.0Q66 100 66 29Q66 -21 102.5 -48.0Q139 -75 201 -75Q268 -75 318.0 -52.0Q368 -29 395.5 11.5Q423 52 423 104Q423 266 192 316L167 256Q257 231 304.0 198.5Q351 166 351 104Q351 56 306.5 24.0Q262 -8 201 -8Q170 -8 157.5 1.0Q145 10 145 29Q145 74 251.5 142.5Q358 211 506.0 265.5Q654 320 767 329ZM959 192Q871 211 745 211Q615 211 462 191V127Q602 143 718 143Q853 143 948 123Z" transform="translate(0, 880) scale(1,-1)" /></svg>