<svg xmlns="http://www.w3.org/2000/svg" width="1000" height="1000"><path d="M890 462C919 506 929 550 929 601C929 691 815 732 617 732C426 732 264 680 157 602V721H79V471H157V547C264 618 453 647 617 647C794 647 847 618 847 594C847 558 842 527 816 491ZM499 665 578 687C561 739 531 799 500 847L424 825C452 779 485 714 499 665ZM456 -79C523 -79 551 -50 551 14V563H472V26C472 8 460 -5 438 -5C399 -5 348 4 301 18V-66C348 -74 402 -79 456 -79ZM115 7C198 63 290 149 347 239L269 266C219 187 135 111 52 64ZM62 328H942V405H62ZM882 2 946 52C898 112 794 203 711 264L650 218C734 155 835 62 882 2Z" transform="translate(0, 880) scale(1,-1)" /></svg>