<svg xmlns="http://www.w3.org/2000/svg" width="1000" height="1000"><path d="M900 487C929 528 939 569 939 617C939 701 825 739 617 739C426 739 254 691 147 618V729H69V495H147V566C254 633 453 660 617 660C804 660 857 633 857 610C857 577 852 548 826 514ZM499 677 578 697C561 746 531 802 500 847L424 826C452 783 485 723 499 677ZM194 451H806V530H194ZM649 50C745 168 809 268 868 370L788 403C733 298 673 198 582 89ZM55 -56H945V22H55ZM325 52 394 90C338 195 273 306 205 401L133 359C202 267 266 162 325 52Z" transform="translate(0, 880) scale(1,-1)" /></svg>