<svg xmlns="http://www.w3.org/2000/svg" width="1000" height="1000"><path d="M87 -67Q283 22 379.5 127.5Q476 233 510.0 390.0Q544 547 544 824H465Q465 566 436.0 423.5Q407 281 318.0 183.5Q229 86 43 3ZM843 -51Q886 -51 908.5 -28.0Q931 -5 940.5 47.0Q950 99 954 197L877 211Q875 123 871.5 85.0Q868 47 859.0 34.0Q850 21 831 21H657Q633 21 626.0 31.0Q619 41 619 76V368H540V77Q540 26 549.0 -1.0Q558 -28 580.5 -39.5Q603 -51 645 -51ZM80 472Q313 486 537.0 511.5Q761 537 931 573L889 651Q632 589 64 550Z" transform="translate(0, 880) scale(1,-1)" /></svg>