<svg xmlns="http://www.w3.org/2000/svg" width="1000" height="1000"><path d="M107 146Q311 233 477.5 332.0Q644 431 783 560L727 606Q608 492 426.5 387.0Q245 282 52 208ZM349 -70Q586 -72 722.0 -29.5Q858 13 858 99Q858 156 805.5 184.0Q753 212 656 212Q614 212 575 208Q647 237 693.0 275.5Q739 314 785 369L736 420L710 400H469V336H663Q623 292 566.5 259.0Q510 226 425 200L459 135Q577 147 639 147Q776 147 776 99Q776 71 727.5 48.5Q679 26 594.0 14.0Q509 2 404 2Q357 2 332 3ZM435 453Q359 541 284 599L223 556Q296 504 372 407ZM890 508Q911 536 920.0 566.0Q929 596 929 631Q929 745 617 745Q478 745 359.0 715.0Q240 685 157 632V736H79V525H157V583Q232 627 357.5 649.0Q483 671 617 671Q738 671 792.5 657.0Q847 643 847 624Q847 598 840.5 577.0Q834 556 816 534ZM576 706Q563 740 542.5 777.5Q522 815 498 847L426 827Q449 794 470.0 755.5Q491 717 501 687Z" transform="translate(0, 880) scale(1,-1)" /></svg>