<svg xmlns="http://www.w3.org/2000/svg" width="1000" height="1000"><path d="M434 826Q397 762 337.5 686.5Q278 611 216 544Q194 520 146 507L176 439L202 450L751 494L732 565L304 535Q357 588 421.5 664.0Q486 740 532 806ZM851 460Q820 511 759.5 582.5Q699 654 635 713L564 676Q621 621 680.0 548.0Q739 475 774 418ZM196 -14Q190 34 190 82Q190 220 235 358L155 367Q132 300 119.5 226.5Q107 153 107 82Q107 33 113 -12ZM481 -49Q523 -49 561.0 -41.5Q599 -34 644 -16V59Q546 18 489 18Q471 18 459.5 33.0Q448 48 448 77Q448 125 458.0 177.0Q468 229 491 325L501 365L425 375Q393 258 379.5 193.5Q366 129 366 69Q366 17 398.5 -16.0Q431 -49 481 -49ZM905 -19Q903 73 875.5 178.5Q848 284 805 367L727 348Q768 267 793.0 165.5Q818 64 820 -28Z" transform="translate(0, 880) scale(1,-1)" /></svg>