<svg xmlns="http://www.w3.org/2000/svg" width="1000" height="1000"><path d="M61 354H942V431H561V605H868V681H561V840H483V681H216V605H483V431H61ZM415 -57Q489 -68 561 -68Q696 -68 768.0 -24.0Q840 20 840 101Q840 181 763.5 221.5Q687 262 546 262Q430 262 325.0 228.0Q220 194 132 131L186 64Q260 123 353.5 153.5Q447 184 546 184Q651 184 701.0 163.5Q751 143 751 101Q751 61 709.0 35.5Q667 10 569 10Q503 10 415 23ZM141 488Q196 552 244.0 638.5Q292 725 323 812L248 831Q219 743 173.0 663.0Q127 583 73 529Z" transform="translate(0, 880) scale(1,-1)" /></svg>