<svg xmlns="http://www.w3.org/2000/svg" width="1000" height="1000"><path d="M37 -46 104 -80C188 78 201 309 201 469V668H948V741H598L548 845L473 827L513 741H126V468C126 319 119 105 37 -46ZM622 413C812 413 850 344 850 269C850 168 775 125 656 125C563 125 478 129 386 142V76C478 67 563 64 656 64C840 64 925 155 925 269C925 370 886 475 611 475C697 500 783 530 866 564L815 613L784 604H270V537H659C603 513 528 492 452 471C422 463 315 435 238 407L268 346C343 378 454 413 622 413ZM414 149 487 162C478 234 457 306 431 373L362 359C390 293 407 221 414 149ZM267 230H828V292H267ZM540 -6 605 -19C662 109 697 247 724 373L649 380C628 259 593 126 540 -6ZM236 -57H903V9H236Z" transform="translate(0, 880) scale(1,-1)" /></svg>