<svg xmlns="http://www.w3.org/2000/svg" width="1000" height="1000"><path d="M220 458H783V525H220ZM812 564 886 532C910 578 921 618 921 672C921 767 805 803 617 803C426 803 267 753 160 669V787H82V552H160V613C267 692 453 724 617 724C784 724 839 692 839 671C839 634 833 602 812 564ZM230 576H768V644H230ZM614 -75C789 -75 803 99 803 254C803 347 784 415 596 415C516 415 417 406 308 389L311 317C432 334 513 340 595 340C705 340 724 308 724 254C724 156 711 -3 604 -3C552 -3 497 3 448 16V-63C504 -74 544 -75 614 -75ZM132 -39 212 -73C301 81 320 212 326 414H249C241 207 226 111 132 -39ZM646 88 649 155 357 161 353 95ZM657 204 660 270 368 277 364 210Z" transform="translate(0, 880) scale(1,-1)" /></svg>