<svg xmlns="http://www.w3.org/2000/svg" width="1000" height="1000"><path d="M836 533Q887 570 908.0 599.5Q929 629 929 670Q929 714 884.5 738.5Q840 763 749 763Q689 763 631.5 754.5Q574 746 538 732V840H461V713L444 702L483 656Q545 677 615.5 689.0Q686 701 749 701Q799 701 823.5 692.5Q848 684 848 670Q848 639 829.5 615.0Q811 591 770 567ZM256 554Q374 554 459.5 561.5Q545 569 632 588L600 647Q530 630 438.0 622.5Q346 615 256 615Q226 615 207.0 624.5Q188 634 188 650Q188 697 234 756L166 780Q138 746 122.0 707.5Q106 669 106 642Q106 602 142.0 578.0Q178 554 256 554ZM890 295Q929 335 929 391Q929 437 848.0 461.5Q767 486 617 486Q478 486 359.0 462.0Q240 438 157 397V474H79V301H157V349Q233 384 358.0 401.0Q483 418 617 418Q847 418 847 386Q847 365 840.5 349.0Q834 333 816 315ZM578 451Q553 503 500 561L424 545Q446 520 467.5 489.5Q489 459 499 435ZM322 290Q534 261 644 237L678 305Q524 332 349 350ZM467 -82Q523 -82 558.5 -44.5Q594 -7 594 53Q594 102 570.0 141.5Q546 181 498 215L430 186Q471 151 490.5 119.0Q510 87 510 53Q510 20 494.0 -1.0Q478 -22 459 -22Q438 -23 400.0 -17.5Q362 -12 323 -2V-69Q392 -82 467 -82ZM113 -5Q159 28 203.5 77.5Q248 127 278 175L202 201Q179 158 139.0 112.5Q99 67 55 35ZM959 22Q932 61 883.5 112.0Q835 163 780 206L712 171Q767 127 814.0 77.5Q861 28 885 -9Z" transform="translate(0, 880) scale(1,-1)" /></svg>