<svg xmlns="http://www.w3.org/2000/svg" width="1000" height="1000"><path d="M459 -50Q682 -43 800.0 4.5Q918 52 918 150Q918 211 874.0 249.0Q830 287 740 287Q717 287 705 286L855 457L782 519Q590 520 422.0 483.0Q254 446 153.5 381.0Q53 316 53 238Q53 174 88.5 138.5Q124 103 193 103Q254 103 303.5 134.0Q353 165 406 230Q474 307 583.0 450.0Q692 593 773 712L713 755L694 752H339V679H653Q603 603 497.5 466.0Q392 329 326 255Q303 226 266.5 201.5Q230 177 198 177Q169 177 151.0 193.0Q133 209 133 238Q133 286 219.0 334.5Q305 383 448.5 414.5Q592 446 753 446Q695 368 585 265L634 208Q677 215 716 215Q774 215 805.0 198.0Q836 181 836 150Q836 114 784.5 85.5Q733 57 643.5 41.5Q554 26 442 26ZM133 457Q229 538 300.0 621.5Q371 705 447 823L373 850Q313 746 240.5 664.5Q168 583 77 513Z" transform="translate(0, 880) scale(1,-1)" /></svg>