<svg xmlns="http://www.w3.org/2000/svg" width="1000" height="1000"><path d="M596 -71Q680 -71 750.5 -32.5Q821 6 862.5 78.5Q904 151 904 248Q904 358 856.5 425.5Q809 493 734.5 521.0Q660 549 574 549Q440 549 335.0 519.5Q230 490 89 417L128 343Q249 414 353.0 442.0Q457 470 567 470Q629 470 686.0 446.5Q743 423 779.5 373.0Q816 323 816 248Q816 172 784.5 116.0Q753 60 701.0 31.0Q649 2 589 2Q515 2 448.0 21.5Q381 41 338.5 79.5Q296 118 296 174Q296 214 334.5 239.5Q373 265 434 265Q491 265 519.5 246.0Q548 227 548 194Q548 161 505.0 120.0Q462 79 375 38L412 0Q624 87 624 194Q624 265 571.5 304.0Q519 343 434 343Q381 343 330.5 323.0Q280 303 248.0 264.5Q216 226 216 174Q216 105 266.0 49.0Q316 -7 403.0 -39.0Q490 -71 596 -71ZM311 610Q292 651 260.0 701.0Q228 751 191 797L120 773Q156 726 187.0 674.5Q218 623 236 580ZM458 514H540V840H458ZM748 579Q779 612 806.5 654.0Q834 696 872 763L882 781L801 805Q745 674 683 603Z" transform="translate(0, 880) scale(1,-1)" /></svg>