<svg xmlns="http://www.w3.org/2000/svg" width="1000" height="1000"><path d="M488 -75C701 -75 909 2 909 172C909 342 725 404 521 404C459 404 430 398 396 388C487 439 541 556 541 664L459 663C459 559 400 438 308 380C284 366 256 351 234 344L271 289C350 318 438 336 521 336C668 336 820 292 820 172C820 66 643 -6 487 -6C324 -6 217 30 217 97C217 131 258 167 334 167C400 167 442 146 442 106C442 77 417 36 367 -10L455 -25C503 15 535 61 535 107C535 201 436 233 331 233C229 233 125 176 125 98C125 -31 284 -75 488 -75ZM130 489H209V803H130ZM316 567V490C637 460 835 478 835 657C835 779 705 817 542 817C370 817 268 780 158 721L190 662C281 710 402 749 542 749C681 749 752 704 752 654C752 549 629 527 316 567Z" transform="translate(0, 880) scale(1,-1)" /></svg>