<svg xmlns="http://www.w3.org/2000/svg" width="1000" height="1000"><path d="M82 462H165V513C272 595 456 631 615 631C776 631 832 609 832 581C832 545 820 515 801 488L883 455C904 491 918 526 918 582C918 688 802 713 615 713C425 713 272 658 165 570V696H82ZM395 451C467 552 521 678 567 831L485 844C444 677 386 550 265 407L319 356L344 376H608C496 172 395 8 249 8C181 8 142 39 142 86C142 139 196 176 291 176C487 176 612 20 910 -77L957 0C676 72 531 255 293 255C134 255 56 168 56 86C56 4 117 -68 250 -68C465 -68 570 138 722 418L661 460L634 451ZM623 -69C720 16 815 121 874 218L800 259C748 166 658 54 562 -29Z" transform="translate(0, 880) scale(1,-1)" /></svg>