<svg xmlns="http://www.w3.org/2000/svg" width="1000" height="1000"><path d="M103 -60Q209 124 209 501V709H933V787H131V501Q131 346 112.5 213.5Q94 81 35 -21ZM822 -61Q874 -61 900.5 -46.5Q927 -32 939.0 2.5Q951 37 957 106L879 125Q875 72 869.5 48.5Q864 25 851.0 16.0Q838 7 810 7H613Q585 7 571.5 11.5Q558 16 553.0 27.0Q548 38 548 61V652H466V57Q466 9 476.5 -16.0Q487 -41 513.5 -51.0Q540 -61 592 -61ZM257 408 872 429 870 507 255 487ZM241 196 889 218 886 296 238 275Z" transform="translate(0, 880) scale(1,-1)" /></svg>