<svg xmlns="http://www.w3.org/2000/svg" width="1000" height="1000"><path d="M748 -19Q825 -19 865.0 18.5Q905 56 920.5 143.0Q936 230 936 392Q936 515 905.0 590.0Q874 665 808.5 699.0Q743 733 636 733Q409 733 264 702L282 625Q410 653 636 653Q755 653 805.0 591.0Q855 529 855 392Q855 255 847.0 185.0Q839 115 815.5 84.5Q792 54 744 54Q676 54 618 74V-10Q677 -19 748 -19ZM551 -1V78H221Q188 78 173.0 99.0Q158 120 158 165V412Q158 543 192 623L121 651Q96 599 87.0 545.5Q78 492 78 412V157Q78 73 109.5 36.0Q141 -1 209 -1ZM326 129H409V589H326ZM590 129H673V589H590Z" transform="translate(0, 880) scale(1,-1)" /></svg>