<svg xmlns="http://www.w3.org/2000/svg" width="1000" height="1000"><path d="M890 462C919 506 929 550 929 601C929 691 815 732 617 732C426 732 264 680 157 602V721H79V471H157V547C264 618 453 647 617 647C794 647 847 618 847 594C847 558 842 527 816 491ZM499 665 578 687C561 739 531 799 500 847L424 825C452 779 485 714 499 665ZM349 535 322 461C433 440 549 415 644 385L678 469C580 493 464 516 349 535ZM467 -73C541 -73 594 -8 594 110C594 208 561 281 498 346L430 302C484 237 510 178 510 110C510 42 483 4 459 3C434 2 379 11 323 31V-58C371 -69 419 -73 467 -73ZM121 40C184 107 248 212 286 301L202 325C172 244 116 148 55 84ZM877 34 959 65C925 137 856 245 780 331L704 296C778 209 846 105 877 34Z" transform="translate(0, 880) scale(1,-1)" /></svg>