<svg xmlns="http://www.w3.org/2000/svg" width="1000" height="1000"><path d="M847 -82Q884 -82 905.0 -62.0Q926 -42 938.0 6.0Q950 54 957 144L890 156Q888 90 883.0 55.5Q878 21 869.5 8.5Q861 -4 847 -4Q797 -4 769.0 106.0Q741 216 728.5 385.0Q716 554 705 836H630Q642 512 659.5 327.0Q677 142 720.5 30.0Q764 -82 847 -82ZM65 592H937V659H65ZM919 715Q898 740 856.5 774.0Q815 808 774 836L730 796Q769 769 810.5 733.0Q852 697 874 670ZM366 -62Q438 -62 467.5 -29.5Q497 3 497 58Q497 98 483.5 138.0Q470 178 443 229L387 209Q437 116 437 63Q437 34 421.5 20.5Q406 7 366 7Q326 7 309.0 25.5Q292 44 292 94V548H227V87Q227 4 262.0 -29.0Q297 -62 366 -62ZM115 67Q129 134 142.0 237.0Q155 340 161 421L100 425Q95 345 81.5 246.5Q68 148 52 85ZM618 50Q638 145 638 270Q638 341 604.0 378.5Q570 416 513 416Q465 416 430.0 405.5Q395 395 363 376L377 318Q434 354 510 354Q579 354 579 253Q579 163 560 64Z" transform="translate(0, 880) scale(1,-1)" /></svg>