<svg xmlns="http://www.w3.org/2000/svg" width="1000" height="1000"><path d="M144 -44H379C418 -44 451 -3 451 71C451 164 398 279 342 359L277 331C335 248 380 146 380 80C380 49 362 30 351 30H164C146 30 134 45 134 61C134 119 139 305 239 551L171 572C68 312 61 128 61 36C61 -23 88 -44 144 -44ZM482 411 461 479 238 379 260 304ZM75 700H433V777H75ZM595 77V566H525V83C525 -33 557 -58 656 -58H833C911 -58 934 0 947 171L876 186C873 38 852 14 790 14H672C608 14 595 25 595 77ZM806 350C875 350 901 466 909 768L845 789L835 777H507V700H831C826 492 806 427 782 427C748 427 711 435 668 452V368C713 356 748 350 806 350Z" transform="translate(0, 880) scale(1,-1)" /></svg>