<svg xmlns="http://www.w3.org/2000/svg" width="1000" height="1000"><path d="M110 -71Q227 16 281.5 124.5Q336 233 353.0 387.5Q370 542 370 824H292Q292 566 276.0 418.0Q260 270 209.0 165.5Q158 61 53 -15ZM359 -4H430V368H359ZM75 482Q216 496 351.0 521.5Q486 547 588 583L562 661Q409 599 66 560ZM938 -21Q814 83 572 206L530 148Q749 33 881 -79ZM676 105Q771 158 820.5 194.0Q870 230 891.5 264.0Q913 298 913 342Q913 397 851.5 436.0Q790 475 659 504Q724 552 782.0 614.0Q840 676 900 764L817 798Q756 697 700.5 636.0Q645 575 550 512L561 450Q704 421 766.5 393.5Q829 366 829 342Q829 309 781.5 265.0Q734 221 617 157ZM321 9 341 -64 561 16 541 89Z" transform="translate(0, 880) scale(1,-1)" /></svg>