<svg xmlns="http://www.w3.org/2000/svg" width="1000" height="1000"><path d="M83 701V629H609V701ZM66 531V457H627V531ZM297 247H375V815H297ZM698 -51Q681 20 652.0 95.5Q623 171 590 233L520 205Q550 144 577.5 68.0Q605 -8 622 -79ZM753 427Q611 427 451.0 352.5Q291 278 101 122L161 57Q258 151 370.0 217.5Q482 284 583.5 317.0Q685 350 753 350Q797 350 820.5 328.0Q844 306 844 274Q844 215 782.0 168.0Q720 121 607 101L634 45Q776 73 850.5 126.5Q925 180 925 274Q925 341 880.5 384.0Q836 427 753 427Z" transform="translate(0, 880) scale(1,-1)" /></svg>