<svg xmlns="http://www.w3.org/2000/svg" width="1000" height="1000"><path d="M171 393H249L247 614C329 678 459 729 606 729C733 729 770 701 770 652C770 580 592 471 445 403L512 373C672 447 854 548 854 652C854 743 776 804 606 804C434 804 318 748 247 679L246 788H171ZM358 413V343H600C481 246 257 94 51 -9L103 -69C305 33 553 211 769 391L703 433L675 413ZM648 -55H827C913 -55 941 -26 952 116L879 135C874 24 867 11 832 11H662C628 11 613 25 613 48V271H532V38C532 -32 555 -55 648 -55Z" transform="translate(0, 880) scale(1,-1)" /></svg>