<svg xmlns="http://www.w3.org/2000/svg" width="1000" height="1000"><path d="M796 -76C873 -15 926 54 926 194C926 333 815 431 647 431C469 431 305 361 305 158C305 19 398 -57 493 -57C589 -57 668 -4 668 121V829H587V132C587 49 560 18 493 18C443 18 382 62 382 158C382 299 506 356 647 356C775 356 849 291 849 194C849 94 814 41 750 -9ZM110 -48H184V593H110ZM275 448C360 448 386 553 386 799H88V729H310C312 585 291 521 257 521C232 521 210 523 184 531V453C212 449 241 448 275 448ZM419 577H906V650H419Z" transform="translate(0, 880) scale(1,-1)" /></svg>