<svg xmlns="http://www.w3.org/2000/svg" width="1000" height="1000"><path d="M114 -69Q334 38 502.0 167.5Q670 297 804 438L741 473L713 452H414Q650 591 861 781L786 831Q576 626 287 453Q264 439 233 430L272 362L315 383H642Q559 299 408.5 192.0Q258 85 62 -10ZM830 -54Q891 -54 917.5 -8.0Q944 38 952 143L871 164Q870 83 858.0 50.5Q846 18 820 18H650Q625 18 618.0 24.0Q611 30 611 49V293L532 231V48Q532 8 542.5 -13.5Q553 -35 579.0 -44.5Q605 -54 655 -54ZM441 646Q399 690 343.5 736.0Q288 782 232 821L177 772Q304 684 383 595Z" transform="translate(0, 880) scale(1,-1)" /></svg>