<svg xmlns="http://www.w3.org/2000/svg" width="1000" height="1000"><path d="M754 201H828C858 301 877 421 877 497C877 652 845 725 670 725C539 725 430 705 346 668L376 606C460 639 554 651 669 651C785 651 800 604 800 498C800 424 784 303 754 201ZM57 -24 99 -88C197 -45 318 22 400 84L337 138C274 83 152 16 57 -24ZM47 156H951V231H47ZM152 208H232V836H152ZM881 -91 930 -24C860 24 744 88 638 138L597 76C701 25 813 -42 881 -91ZM550 222 609 191C670 225 720 277 720 337C720 415 648 445 513 445C358 445 296 394 296 339C296 291 353 249 441 249C504 249 568 277 568 350C568 397 557 429 538 459L661 535L613 592L590 582H320V513H500L441 478C470 438 488 394 488 350C488 328 467 313 441 313C400 313 376 323 376 339C376 360 416 379 513 379C612 379 643 365 643 337C643 294 605 253 550 222ZM199 729H516V803H199Z" transform="translate(0, 880) scale(1,-1)" /></svg>