<svg xmlns="http://www.w3.org/2000/svg" width="1000" height="1000"><path d="M486 -70Q601 31 657.0 185.5Q713 340 726.5 482.5Q740 625 742 807H666V771Q664 606 650.5 475.5Q637 345 585.0 207.5Q533 70 427 -17ZM266 -62Q303 -62 323.0 -36.5Q343 -11 343 33V516H269V44Q269 26 262.0 16.0Q255 6 243 6Q197 6 144 24V-51Q194 -62 266 -62ZM66 134 532 230 513 291 46 200ZM312 353Q403 370 463.0 424.0Q523 478 523 549Q523 626 472.5 662.5Q422 699 350 699Q312 699 277.0 686.0Q242 673 218 655Q253 703 284.0 738.0Q315 773 354 805L277 845Q195 741 155.5 681.5Q116 622 100 572Q85 526 85 474Q85 416 106 357L182 374Q157 428 157 476Q157 516 173 557Q186 590 226.5 611.0Q267 632 313 632Q364 632 403.5 608.0Q443 584 443 548Q443 497 414.0 462.0Q385 427 311 411ZM957 -12Q907 89 836.0 197.0Q765 305 696 389L652 334Q712 254 776.5 146.0Q841 38 890 -66Z" transform="translate(0, 880) scale(1,-1)" /></svg>