<svg xmlns="http://www.w3.org/2000/svg" width="1000" height="1000"><path d="M117 720V-23H195V720ZM419 553 480 588C458 644 411 726 368 786L310 756C353 695 398 611 419 553ZM572 498H647V841H572ZM730 583 788 553C826 606 877 691 914 763L848 794C819 726 769 639 730 583ZM309 517V449H888V517ZM437 -46H814C886 -46 914 6 932 121L854 135C846 53 828 23 794 23H469C422 23 407 29 407 40C407 59 422 74 859 306L812 374L790 366H367V289L673 291C346 125 308 84 308 39C308 -12 339 -46 437 -46Z" transform="translate(0, 880) scale(1,-1)" /></svg>