<svg xmlns="http://www.w3.org/2000/svg" width="1000" height="1000"><path d="M645 -70C845 -70 955 59 955 254C955 420 842 509 698 509C656 509 639 507 613 500C677 550 778 636 899 745L817 793L795 777H444V701H730C661 629 586 554 515 493C497 478 461 466 433 451L472 382C529 415 599 432 692 432C799 432 867 365 867 254C867 102 777 3 640 3C564 3 511 56 511 117C511 163 540 201 583 201C652 201 699 153 708 -6L776 21C760 202 698 279 584 279C495 279 431 201 431 112C431 1 515 -70 645 -70ZM284 -81H358V825H284V270L169 226V669H94V244C94 209 75 190 61 181L92 122L284 197Z" transform="translate(0, 880) scale(1,-1)" /></svg>