<svg xmlns="http://www.w3.org/2000/svg" width="1000" height="1000"><path d="M776 394Q823 394 850.5 405.0Q878 416 894.0 442.0Q910 468 919 517L843 544Q837 495 821.0 477.0Q805 459 773 459Q688 459 596.0 513.5Q504 568 440.0 655.5Q376 743 368 835H285Q300 700 379.5 599.5Q459 499 567.5 446.5Q676 394 776 394ZM257 -77H340V385H257ZM67 106H938V170H67ZM655 -81Q706 -81 725.5 -59.0Q745 -37 745 12V385H662V16Q662 -10 625 -10Q564 -10 508 9V-68Q578 -81 655 -81ZM67 270H938V334H67ZM131 404Q346 437 551.0 497.5Q756 558 858 635L777 668Q679 596 481.5 544.0Q284 492 83 468ZM84 647 884 695 874 758 73 711Z" transform="translate(0, 880) scale(1,-1)" /></svg>