<svg xmlns="http://www.w3.org/2000/svg" width="1000" height="1000"><path d="M931 87Q788 57 611 57Q513 57 426.0 67.0Q339 77 280 95Q236 109 210.0 137.5Q184 166 171.5 216.0Q159 266 156 346L74 332Q76 201 119.0 123.5Q162 46 250 19Q314 -1 411.0 -12.5Q508 -24 616 -24Q788 -24 931 4ZM400 153Q490 153 539.5 218.5Q589 284 589 397Q589 578 448 695L394 662Q460 600 488.0 527.5Q516 455 516 397Q516 315 486.0 271.5Q456 228 402 228Q358 228 332.0 252.0Q306 276 306 309Q306 373 374.0 419.5Q442 466 542.0 488.5Q642 511 730 507V246H649V179L923 176V246H805V566L755 592L741 578Q632 579 514.0 550.5Q396 522 314.0 461.5Q232 401 232 309Q232 240 277.0 196.5Q322 153 400 153ZM221 612Q509 672 790 782L721 840Q603 793 459.0 748.0Q315 703 188 676Z" transform="translate(0, 880) scale(1,-1)" /></svg>