<svg xmlns="http://www.w3.org/2000/svg" width="1000" height="1000"><path d="M486 38 517 -23C743 8 919 48 919 159C919 256 827 294 707 275L784 372L732 424C515 424 60 375 60 196C60 129 124 84 193 84C396 84 490 284 550 505H852V578H219V505H468C430 311 329 159 193 159C160 159 140 170 140 196C140 295 522 350 681 350L609 249L655 199C782 219 837 202 837 159C837 103 679 61 486 38ZM518 -89 586 -57C558 -6 503 64 451 117L389 87C440 36 488 -35 518 -89ZM51 563 121 525C199 621 247 721 278 835L202 850C171 736 126 651 51 563ZM200 675H902V750H200Z" transform="translate(0, 880) scale(1,-1)" /></svg>