<svg xmlns="http://www.w3.org/2000/svg" width="1000" height="1000"><path d="M486 22Q547 59 579.0 124.5Q611 190 611 262Q611 336 573.0 377.0Q535 418 462 418Q396 418 351.0 381.5Q306 345 306 281Q306 216 352.0 180.5Q398 145 463 145Q501 145 529 163Q504 113 445.5 75.0Q387 37 304 22ZM89 -52H911V22H89ZM461 214Q427 214 402.5 233.0Q378 252 378 281Q378 311 402.5 328.5Q427 346 462 346Q491 346 513.5 328.5Q536 311 536 287Q536 254 514.0 234.0Q492 214 461 214ZM200 389Q292 490 344 637L262 654Q228 525 133 421ZM565 322V754H480V387ZM118 719H882V789H118ZM875 423Q854 483 818.5 541.0Q783 599 728 661L665 631Q717 568 749.0 509.5Q781 451 801 389Z" transform="translate(0, 880) scale(1,-1)" /></svg>