<svg xmlns="http://www.w3.org/2000/svg" width="1000" height="1000"><path d="M169 595Q247 647 318.0 709.5Q389 772 440 836L361 854Q323 802 261.0 746.5Q199 691 120 640ZM500 562Q556 612 606.0 667.5Q656 723 680 761L629 796L617 788H318V726H569Q553 702 518.5 667.0Q484 632 450 606ZM893 395Q932 434 932 498Q932 569 847.0 597.0Q762 625 614 625Q476 625 370.5 601.0Q265 577 157 522V597H82V407H157V487Q281 528 383.5 542.5Q486 557 613 557Q716 557 782.5 537.5Q849 518 849 489Q849 461 825 440ZM935 -28Q857 -6 714 41Q562 91 468.0 115.0Q374 139 285 139Q190 139 138.0 109.5Q86 80 86 31Q86 3 108.0 -21.5Q130 -46 170.0 -61.0Q210 -76 262 -76Q351 -76 492.5 -38.0Q634 0 740.0 56.5Q846 113 846 166Q846 215 774.5 244.0Q703 273 556 273Q513 273 470 265Q614 307 808 384L744 439L670 403H388Q473 447 553 500L494 552Q432 506 332.5 449.0Q233 392 167 366L202 308L279 344H556Q494 320 420.0 298.0Q346 276 244 249L207 239L177 232Q148 224 116 219L145 153Q242 179 340.5 191.5Q439 204 556 204Q654 204 703.5 192.5Q753 181 753 166Q753 129 658.5 88.0Q564 47 443.0 18.5Q322 -10 262 -10Q220 -10 194.5 1.0Q169 12 169 31Q169 52 193.5 62.0Q218 72 285 72Q360 72 442.5 50.5Q525 29 664 -17Q797 -62 893 -90Z" transform="translate(0, 880) scale(1,-1)" /></svg>