<svg xmlns="http://www.w3.org/2000/svg" width="1000" height="1000"><path d="M253 665H880V742H253ZM0.0 0.0Q0 0 0.0 0.0Q0 0 0.0 0.0ZM661 718Q599 605 522.0 514.5Q445 424 372.5 373.0Q300 322 251 322Q218 322 199.5 336.5Q181 351 181 378Q181 405 212.0 424.0Q243 443 306 443Q388 443 456.5 424.5Q525 406 644 362Q740 327 795.0 307.5Q850 288 926 266L947 346Q871 367 809.5 388.0Q748 409 663 439Q538 484 464.5 503.0Q391 522 306 522Q209 522 154.0 482.0Q99 442 99 378Q99 310 142.0 277.0Q185 244 251 244Q318 244 402.0 297.0Q486 350 572.5 449.0Q659 548 733 679ZM106 477Q190 553 256.5 640.5Q323 728 367 820L287 845Q248 759 182.5 677.0Q117 595 35 526ZM109 -63Q202 -2 283.5 66.5Q365 135 417 206L333 242Q291 177 212.5 109.0Q134 41 50 -4ZM945 -7Q897 46 818.0 115.0Q739 184 656 249L593 201Q796 33 875 -59Z" transform="translate(0, 880) scale(1,-1)" /></svg>