<svg xmlns="http://www.w3.org/2000/svg" width="1000" height="1000"><path d="M917 -70 952 0C618 78 500 239 272 239C160 239 86 182 86 93C86 0 153 -46 251 -46C548 -46 662 250 669 578H594C589 287 491 19 251 19C187 19 160 54 160 93C160 132 187 168 272 168C482 168 607 6 917 -70ZM309 349C359 402 415 476 451 537L402 582L380 572H136V501H349C328 462 291 417 251 375ZM100 322H920V392H100ZM81 652H917V723H81ZM507 684 572 717C543 762 514 802 485 837L419 805C451 770 482 728 507 684Z" transform="translate(0, 880) scale(1,-1)" /></svg>