<svg xmlns="http://www.w3.org/2000/svg" width="1000" height="1000"><path d="M836 508C902 560 929 595 929 656C929 716 875 757 749 757C669 757 586 744 538 723V840H461V702L444 691L483 641C565 671 665 689 749 689C820 689 848 674 848 656C848 610 824 579 770 544ZM276 534C425 534 511 538 632 567L600 631C499 605 383 600 276 600C236 600 208 612 208 634C208 661 218 699 254 749L186 775C148 724 126 664 126 626C126 572 166 534 276 534ZM100 -86C193 18 206 173 206 279V427H943V500H131V279C131 179 123 51 35 -49ZM943 89 959 160C781 182 544 183 231 159V94C540 115 778 110 943 89ZM267 361V290H907V361ZM567 12C567 -2 558 -12 540 -13C502 -15 451 -9 405 5V-65C450 -73 502 -78 545 -78C599 -78 638 -52 638 -7V337H567Z" transform="translate(0, 880) scale(1,-1)" /></svg>