<svg xmlns="http://www.w3.org/2000/svg" width="1000" height="1000"><path d="M171 393H249L247 614Q312 665 406.5 697.0Q501 729 606 729Q697 729 733.5 710.0Q770 691 770 652Q770 602 671.5 532.0Q573 462 445 403L512 373Q661 442 757.5 512.0Q854 582 854 652Q854 723 792.0 763.5Q730 804 606 804Q485 804 395.0 770.0Q305 736 247 679L246 788H171ZM358 413V343H600Q502 263 349.0 163.0Q196 63 51 -9L103 -69Q248 4 423.0 126.0Q598 248 769 391L703 433L675 413ZM827 -55Q872 -55 896.5 -41.5Q921 -28 933.5 8.0Q946 44 952 116L879 135Q876 78 872.0 52.5Q868 27 859.5 19.0Q851 11 832 11H662Q613 11 613 48V271H532V38Q532 2 542.0 -18.0Q552 -38 576.5 -46.5Q601 -55 648 -55Z" transform="translate(0, 880) scale(1,-1)" /></svg>