<svg xmlns="http://www.w3.org/2000/svg" width="1000" height="1000"><path d="M84 90H154V745H84ZM240 186H308V745H240ZM599 -80Q695 -80 770.5 -49.5Q846 -19 888.5 34.5Q931 88 931 155Q931 247 870.5 299.5Q810 352 691 352Q650 352 602.5 345.5Q555 339 521 329Q548 366 579.0 432.5Q610 499 630 560L560 580Q542 511 511.0 438.0Q480 365 446 319L424 307L464 243Q549 283 691 283Q776 283 816.5 248.0Q857 213 857 155Q857 100 817.0 62.0Q777 24 717.0 5.5Q657 -13 599 -13Q536 -13 507.0 -1.0Q478 11 478 40Q478 62 497.0 78.0Q516 94 547 94Q647 94 661 -29L730 -15Q718 66 671.5 112.0Q625 158 547 158Q508 158 475.5 141.0Q443 124 424.0 96.5Q405 69 405 40Q405 -14 455.0 -47.0Q505 -80 599 -80ZM388 487Q487 653 524 829L457 846Q438 759 404.5 675.5Q371 592 330 525ZM412 544Q478 603 556.0 640.0Q634 677 704 677Q764 677 794.5 652.5Q825 628 825 586Q825 535 791.0 507.5Q757 480 666 480Q619 480 537 491V416Q605 407 656 407Q790 407 845.5 456.5Q901 506 901 586Q901 666 848.5 708.5Q796 751 704 751Q621 751 546.5 708.5Q472 666 404 602Z" transform="translate(0, 880) scale(1,-1)" /></svg>