<svg xmlns="http://www.w3.org/2000/svg" width="1000" height="1000"><path d="M103 775V694H897V775ZM931 52Q788 19 613 19Q514 19 427.0 30.0Q340 41 280 61Q215 84 185.5 148.0Q156 212 152 343L74 330Q76 185 119.0 100.0Q162 15 250 -15Q313 -37 409.5 -49.5Q506 -62 614 -62Q786 -62 931 -31ZM639 207Q689 234 720.0 273.5Q751 313 751 356Q751 406 693.0 438.0Q635 470 538 470Q423 470 362.5 445.0Q302 420 302 370Q302 325 345.5 295.5Q389 266 466 266Q516 266 546.5 290.5Q577 315 577 347V546H498V366Q498 347 484.5 337.5Q471 328 449 328Q429 328 405.5 340.5Q382 353 382 370Q382 389 417.5 399.5Q453 410 538 410Q598 410 633.5 393.0Q669 376 669 354Q669 318 640.0 282.5Q611 247 540 207ZM228 134H860V207H228ZM249 546H837V615H249Z" transform="translate(0, 880) scale(1,-1)" /></svg>