<svg xmlns="http://www.w3.org/2000/svg" width="1000" height="1000"><path d="M512 -77Q634 -39 719.5 18.5Q805 76 848.5 145.5Q892 215 892 289Q892 557 508 557Q401 557 320.0 527.0Q239 497 195.5 446.5Q152 396 152 336Q152 293 172.5 255.0Q193 217 236.5 193.5Q280 170 345 170Q401 170 465.5 204.5Q530 239 575.0 308.0Q620 377 620 473V694H948V769H56V694H542V490Q542 430 516.0 373.0Q490 316 445.0 280.5Q400 245 345 245Q282 245 256.0 271.0Q230 297 230 336Q230 376 262.0 409.5Q294 443 356.0 462.5Q418 482 504 482Q667 482 739.5 429.0Q812 376 812 295Q812 238 769.0 180.5Q726 123 645.5 74.0Q565 25 456 -5Z" transform="translate(0, 880) scale(1,-1)" /></svg>