<svg xmlns="http://www.w3.org/2000/svg" width="1000" height="1000"><path d="M517 -62C663 -62 719 15 719 92C719 167 691 232 641 314L562 294C614 208 641 144 641 99C641 44 600 12 517 12C440 12 396 36 396 140V815H318V130C318 -20 391 -62 517 -62ZM52 131 130 104C159 228 188 437 197 573L123 582C114 446 83 247 52 131ZM820 100 895 81C913 150 925 222 925 373C925 496 832 562 742 562C640 562 575 539 517 510L538 439C595 471 656 488 737 488C802 488 849 439 849 350C849 239 838 169 820 100Z" transform="translate(0, 880) scale(1,-1)" /></svg>