<svg xmlns="http://www.w3.org/2000/svg" width="1000" height="1000"><path d="M662 -74Q771 -74 829.0 -15.5Q887 43 906.5 138.5Q926 234 926 372Q926 505 849.0 579.0Q772 653 629 653Q536 653 450.5 615.5Q365 578 302.5 530.0Q240 482 177 423V342Q408 573 629 573Q738 573 790.0 517.0Q842 461 842 372Q842 263 829.5 185.0Q817 107 777.5 56.5Q738 6 662 6Q593 6 528.0 25.5Q463 45 419.5 92.5Q376 140 376 217Q376 269 407.5 300.0Q439 331 508 331Q556 331 580.5 312.5Q605 294 605 265Q605 227 548.0 171.0Q491 115 394 65L443 27Q554 81 620.5 143.5Q687 206 687 265Q687 340 639.0 374.0Q591 408 508 408Q414 408 356.0 356.5Q298 305 298 217Q298 117 352.5 51.5Q407 -14 490.5 -44.0Q574 -74 662 -74ZM96 -79H177V623H96ZM485 720Q429 753 352.0 785.5Q275 818 202 840L167 784Q234 761 306.0 726.0Q378 691 432 656Z" transform="translate(0, 880) scale(1,-1)" /></svg>