<svg xmlns="http://www.w3.org/2000/svg" width="1000" height="1000"><path d="M261 -69H334V802H261V268L158 226V652H84V244Q84 221 75.0 206.0Q66 191 54 183L82 126L261 198ZM621 -67Q668 -67 687.5 -45.5Q707 -24 707 25V816H630V35Q630 21 622.5 11.5Q615 2 601 2Q554 2 484 27V-54Q552 -67 621 -67ZM415 121Q457 168 498.5 236.0Q540 304 567 376L503 399Q479 335 440.5 276.0Q402 217 361 176ZM380 479H935V552H380ZM962 162Q939 211 895.0 277.0Q851 343 808 396L753 353Q797 296 840.0 229.0Q883 162 905 114Z" transform="translate(0, 880) scale(1,-1)" /></svg>