<svg xmlns="http://www.w3.org/2000/svg" width="1000" height="1000"><path d="M88 -82H165V685Q264 712 399 712H746Q838 712 838 637V23Q838 10 830.5 3.0Q823 -4 812 -4Q754 -4 673 20V-62Q749 -79 806 -79Q865 -79 890.0 -58.5Q915 -38 915 17V641Q915 712 874.5 750.0Q834 788 750 788H397Q328 788 274.0 778.5Q220 769 165 749V788H88ZM297 92H365L364 284Q395 317 441.5 335.0Q488 353 541 353Q582 353 608.5 337.0Q635 321 635 297Q635 264 617.0 238.5Q599 213 562 186H438V122H717V186H614Q655 204 681.5 228.0Q708 252 708 297Q708 352 663.5 385.5Q619 419 541 419Q431 419 364 327V396H297ZM283 523H711V592H283Z" transform="translate(0, 880) scale(1,-1)" /></svg>