<svg xmlns="http://www.w3.org/2000/svg" width="1000" height="1000"><path d="M379 -44Q410 -44 430.5 -13.0Q451 18 451 71Q451 137 419.5 215.0Q388 293 342 359L277 331Q322 267 351.0 197.5Q380 128 380 80Q380 59 370.5 44.5Q361 30 351 30H164Q151 30 142.5 39.5Q134 49 134 61Q134 143 154.5 267.5Q175 392 239 551L171 572Q103 402 82.0 271.0Q61 140 61 36Q61 -7 81.0 -25.5Q101 -44 144 -44ZM482 411 461 479 238 379 260 304ZM75 700H433V777H75ZM595 566H525V83Q525 25 537.0 -5.0Q549 -35 576.5 -46.5Q604 -58 656 -58H833Q872 -58 894.5 -36.5Q917 -15 928.5 33.5Q940 82 947 171L876 186Q874 112 866.0 75.5Q858 39 840.5 26.5Q823 14 790 14H672Q639 14 623.0 19.0Q607 24 601.0 37.0Q595 50 595 77ZM806 350Q841 350 862.0 391.5Q883 433 894.0 523.5Q905 614 909 768L845 789L835 777H507V700H831Q824 427 782 427Q731 427 668 452V368Q704 358 734.5 354.0Q765 350 806 350Z" transform="translate(0, 880) scale(1,-1)" /></svg>