<svg xmlns="http://www.w3.org/2000/svg" width="1000" height="1000"><path d="M396 613Q377 659 346.0 719.0Q315 779 285 824L206 796Q235 747 265.5 688.0Q296 629 315 582ZM658 573Q712 646 794 797L706 827Q643 683 583 596ZM595 -64Q702 -64 768.0 -11.0Q834 42 834 143Q834 240 751.0 281.0Q668 322 530 322Q472 322 437 315Q541 372 653 455H919V536H81L80 455H528Q433 371 320 309Q309 303 286.5 296.5Q264 290 231 282L201 275L228 208Q375 252 519 252Q618 252 685.0 224.0Q752 196 752 143Q752 77 704.0 43.5Q656 10 585 10Q510 10 411 27V-51Q488 -64 595 -64ZM0.0 -19.0Q0 -19 0.0 -19.0Q0 -19 0.0 -19.0Z" transform="translate(0, 880) scale(1,-1)" /></svg>