<svg xmlns="http://www.w3.org/2000/svg" width="1000" height="1000"><path d="M350 632Q331 670 295.5 720.0Q260 770 222 812L159 775Q195 734 230.0 682.0Q265 630 283 591ZM462 583H538V846H462ZM706 591Q761 651 849 780L776 818Q752 773 714.0 719.0Q676 665 642 628ZM900 359Q939 404 939 477Q939 559 851.0 591.5Q763 624 614 624Q474 624 365.0 596.5Q256 569 149 507V593H77V374H149V465Q272 512 378.0 529.0Q484 546 613 546Q719 546 787.5 526.0Q856 506 856 473Q856 456 849.5 439.5Q843 423 832 411ZM588 14Q654 51 692.0 79.5Q730 108 750.5 142.0Q771 176 771 220Q771 294 700.5 337.5Q630 381 501 381Q407 381 341.5 362.0Q276 343 242.5 310.5Q209 278 209 239Q209 180 259.0 143.5Q309 107 399 107Q466 107 508.0 137.5Q550 168 550 214V494H470V239Q470 177 396 177Q352 177 322.0 194.0Q292 211 292 239Q292 269 343.5 290.5Q395 312 501 312Q601 312 645.5 289.0Q690 266 690 220Q690 167 647.0 119.0Q604 71 503 14ZM53 -40H950V32H53Z" transform="translate(0, 880) scale(1,-1)" /></svg>