<svg xmlns="http://www.w3.org/2000/svg" width="1000" height="1000"><path d="M71 174 89 103 483 235 469 297ZM287 -82C334 -82 354 -57 354 4V495H286V5C286 -8 281 -12 266 -12C243 -12 214 -8 176 5L177 -71C216 -79 251 -82 287 -82ZM92 400 112 336 141 347H445V414H177C211 468 236 513 263 579H484V648H63V579H188C163 509 141 458 122 429C113 415 103 407 92 400ZM191 671 260 688C245 725 213 785 179 829L114 811C147 766 178 711 191 671ZM302 648H379C412 699 449 762 480 819L399 836C378 778 336 703 302 648ZM780 -72C880 -72 915 130 915 307C915 448 912 594 759 594C649 594 564 579 482 553L491 477C577 503 658 517 749 517C837 517 841 399 841 307C841 144 813 -2 763 -2C734 -2 703 4 673 16V-62C706 -70 734 -72 780 -72ZM443 -37 505 -82C664 95 717 359 750 837L678 841C645 364 591 125 443 -37Z" transform="translate(0, 880) scale(1,-1)" /></svg>