<svg xmlns="http://www.w3.org/2000/svg" width="1000" height="1000"><path d="M467 380Q511 471 534.5 582.0Q558 693 569 847H488Q477 693 457.0 592.5Q437 492 397 410ZM82 462H165V513Q241 571 364.0 601.0Q487 631 615 631Q729 631 780.5 617.5Q832 604 832 581Q832 532 801 488L883 455Q901 485 909.5 514.0Q918 543 918 582Q918 657 842.5 685.0Q767 713 615 713Q476 713 362.0 675.5Q248 638 165 570V696H82ZM371 -80Q593 -7 699.0 72.5Q805 152 805 255Q805 343 738.0 389.5Q671 436 554 436Q488 436 418.5 427.5Q349 419 297 405L314 327Q365 342 430.0 352.0Q495 362 554 362Q629 362 672.5 334.5Q716 307 716 255Q716 199 672.0 154.5Q628 110 541.0 72.0Q454 34 315 -6Z" transform="translate(0, 880) scale(1,-1)" /></svg>