<svg xmlns="http://www.w3.org/2000/svg" width="1000" height="1000"><path d="M557 386C757 424 865 496 865 587C865 691 765 741 621 741C490 741 398 706 302 636C332 691 358 752 376 819L294 836C252 692 171 551 78 460L144 413C195 469 225 510 251 549C365 630 513 667 613 667C712 667 778 635 778 587C778 520 693 466 557 451ZM142 33C233 140 289 235 341 366L271 392C224 275 169 178 84 73ZM447 -61C507 -61 557 -21 557 58V563H478V71C478 29 463 10 434 10C405 10 367 16 327 29V-49C366 -57 405 -61 447 -61ZM873 42 934 89C879 182 813 278 755 360L694 321C757 233 816 141 873 42Z" transform="translate(0, 880) scale(1,-1)" /></svg>