<svg xmlns="http://www.w3.org/2000/svg" width="1000" height="1000"><path d="M73 595Q283 597 511.5 614.5Q740 632 940 660L897 728Q727 701 503.5 684.0Q280 667 60 663ZM94 348Q277 399 384.0 485.0Q491 571 531.5 663.0Q572 755 568 837H487Q486 706 393.0 593.0Q300 480 45 410ZM959 399Q731 531 477 625L440 569Q545 529 648.0 478.0Q751 427 900 345ZM818 -62Q870 -62 898.5 -45.0Q927 -28 941.0 9.0Q955 46 962 115L887 131Q884 80 877.0 55.5Q870 31 856.0 21.5Q842 12 814 12H595Q556 12 542.5 23.0Q529 34 529 67V491H451V60Q451 10 464.0 -15.5Q477 -41 507.5 -51.5Q538 -62 595 -62ZM150 111H226V220Q371 313 597 313Q681 313 726.5 295.0Q772 277 772 251Q772 213 725.0 196.5Q678 180 585 180Q505 180 327 196V127Q447 114 552 114Q701 114 780.0 147.0Q859 180 859 251Q859 316 788.0 351.5Q717 387 597 387Q384 387 226 279V357H150Z" transform="translate(0, 880) scale(1,-1)" /></svg>