<svg xmlns="http://www.w3.org/2000/svg" width="1000" height="1000"><path d="M667 -78Q799 -35 859.0 21.5Q919 78 919 169Q919 262 843.5 313.5Q768 365 620 365Q459 365 326.0 322.0Q193 279 60 188L81 114Q213 202 351.5 245.0Q490 288 620 288Q725 288 779.0 255.0Q833 222 833 169Q833 104 780.5 62.0Q728 20 622 4ZM331 -77Q372 -77 392.5 -57.0Q413 -37 413 12V760H337V35Q337 -2 310 -2Q256 -2 198 16V-65Q259 -77 331 -77ZM60 473H650V547H60ZM131 678Q245 689 369.0 712.0Q493 735 589 765L539 831Q467 805 345.0 782.0Q223 759 110 745ZM966 501Q896 604 766 727L703 680Q811 576 895 445Z" transform="translate(0, 880) scale(1,-1)" /></svg>