<svg xmlns="http://www.w3.org/2000/svg" width="1000" height="1000"><path d="M107 -72Q175 39 200.5 174.0Q226 309 226 469V531H914V605H226V684Q401 694 574.0 715.0Q747 736 875 764L831 832Q710 805 520.5 782.0Q331 759 149 750V481Q149 333 126.0 206.0Q103 79 34 -30ZM297 431V359H748Q741 291 728.5 263.5Q716 236 688 236Q628 236 581.5 242.0Q535 248 487 261V184Q595 163 711 163Q764 163 791.0 227.0Q818 291 829 423L769 442L752 431ZM384 265H309V79Q309 23 326.0 -6.5Q343 -36 378.0 -47.0Q413 -58 474 -58H761Q820 -58 853.5 -37.5Q887 -17 905.0 30.0Q923 77 933 163L860 178Q854 105 842.5 70.5Q831 36 811.0 25.5Q791 15 751 15H474Q436 15 417.0 20.5Q398 26 391.0 39.5Q384 53 384 79Z" transform="translate(0, 880) scale(1,-1)" /></svg>