<svg xmlns="http://www.w3.org/2000/svg" width="1000" height="1000"><path d="M445 366Q556 366 556 446V778H477V458Q477 438 467.0 429.5Q457 421 432 421Q362 421 305 440V379Q369 366 445 366ZM112 601H888V670H112ZM151 734Q339 736 535.5 749.0Q732 762 875 782L825 846Q680 825 496.5 813.5Q313 802 122 801ZM82 465H918V534H82ZM433 -79Q496 -79 522.5 -66.0Q549 -53 549 -12V202Q612 222 684.0 255.5Q756 289 805 319L756 358L740 351H216V286H620Q550 252 473 230V6Q473 -4 464.5 -11.0Q456 -18 441 -19Q364 -21 290 -1V-68Q376 -79 433 -79ZM959 174Q798 193 570 193Q340 193 55 174V106Q296 121 530 121Q774 121 939 103Z" transform="translate(0, 880) scale(1,-1)" /></svg>