<svg xmlns="http://www.w3.org/2000/svg" width="1000" height="1000"><path d="M112 -81Q248 -23 372.0 87.5Q496 198 600.5 330.0Q705 462 830 643L760 673Q632 489 535.5 368.0Q439 247 320.0 144.5Q201 42 63 -14ZM754 -64Q810 -64 834.0 -35.5Q858 -7 866 65L790 94Q788 54 784.0 36.0Q780 18 771.5 11.0Q763 4 745 4H675Q648 4 640.5 9.5Q633 15 633 34V240H554V33Q554 -6 562.5 -26.5Q571 -47 595.0 -55.5Q619 -64 667 -64ZM141 508Q254 584 329.0 660.5Q404 737 459 828L371 839Q329 766 259.0 693.0Q189 620 95 562ZM969 146Q897 204 775 261L739 207Q843 156 929 83ZM352 290Q495 272 591 272Q752 272 817.0 314.0Q882 356 882 431Q882 496 819.5 531.5Q757 567 655 567Q617 567 571.5 563.0Q526 559 490 552Q555 607 606.0 655.0Q657 703 709 760L655 796L638 786H371V724H568Q468 604 358 537Q316 512 280 496Q258 484 233.0 471.0Q208 458 179 442L223 376Q312 437 427.0 468.0Q542 499 655 499Q734 499 768.5 480.5Q803 462 803 431Q803 389 753.0 364.0Q703 339 598 339Q495 339 352 363Z" transform="translate(0, 880) scale(1,-1)" /></svg>