<svg xmlns="http://www.w3.org/2000/svg" width="1000" height="1000"><path d="M203 193Q276 193 375.0 271.0Q474 349 577.0 477.5Q680 606 764 751L707 809L681 795H153V714H651Q586 610 499.0 507.5Q412 405 331.5 338.5Q251 272 203 272Q168 272 149.5 289.5Q131 307 131 340Q131 362 151.5 389.5Q172 417 207.5 437.5Q243 458 286 461Q387 467 517 467Q722 467 926 450L945 527Q727 540 518 540Q382 540 278 534Q210 530 158.5 502.0Q107 474 80.0 431.0Q53 388 53 340Q53 267 95.5 230.0Q138 193 203 193ZM356 228V151H851V228ZM251 11V-69H930V11ZM570 361V-21H649V361Z" transform="translate(0, 880) scale(1,-1)" /></svg>