<svg xmlns="http://www.w3.org/2000/svg" width="1000" height="1000"><path d="M255 -27H933V42H738Q777 122 820.0 230.0Q863 338 900 444L820 467Q792 367 747.5 246.5Q703 126 662 42H255ZM478 155Q469 216 447.5 299.5Q426 383 401 455L334 435Q359 360 380.5 275.5Q402 191 408 133ZM665 198Q660 254 646.5 332.5Q633 411 616 485L547 473Q587 285 594 183ZM286 455Q339 534 376.5 619.5Q414 705 459 834L382 852Q305 629 217 500ZM350 614H916V687H350ZM103 -32H180V731H103Z" transform="translate(0, 880) scale(1,-1)" /></svg>