<svg xmlns="http://www.w3.org/2000/svg" width="1000" height="1000"><path d="M222 513V443H778V513ZM91 334V262H909V334ZM615 -29 653 -94C783 -60 837 2 837 69C837 135 774 185 647 185C542 185 459 157 409 130C472 254 536 436 575 601L494 609C459 446 395 266 316 112C305 91 270 69 219 35L262 -17C397 73 540 113 647 113C723 113 754 90 754 69C754 31 707 -15 615 -29ZM62 500 123 455C203 567 268 686 319 834L241 852C193 707 130 588 62 500ZM211 642H877V714H211Z" transform="translate(0, 880) scale(1,-1)" /></svg>