<svg xmlns="http://www.w3.org/2000/svg" width="1000" height="1000"><path d="M629 -74Q896 -74 896 358Q896 533 818.0 614.5Q740 696 601 696Q490 696 388.5 675.5Q287 655 218 621L236 552Q305 585 403.5 603.5Q502 622 601 622Q705 622 761.5 550.5Q818 479 818 358Q818 196 769.5 98.0Q721 0 622 0Q485 0 389 37L359 -36Q414 -54 476.5 -64.0Q539 -74 629 -74ZM107 356Q272 529 366 815L290 837Q250 707 187.0 595.5Q124 484 44 408ZM265 488V422H677V488ZM249 349V283H693V349ZM432 157H511V559H432ZM740 91Q730 125 707.0 173.0Q684 221 658 263L602 242Q625 203 646.5 154.5Q668 106 679 68ZM664 192 225 164 230 96 672 130Z" transform="translate(0, 880) scale(1,-1)" /></svg>