<svg xmlns="http://www.w3.org/2000/svg" width="1000" height="1000"><path d="M193 484Q234 536 273.5 610.5Q313 685 337 752L287 798L267 792H50V720H248Q231 666 200.5 614.5Q170 563 125 507ZM323 338Q323 431 269.5 471.0Q216 511 109 524V451Q177 441 212.5 411.0Q248 381 248 338Q248 243 195.5 150.0Q143 57 49 -18L103 -72Q208 17 265.5 124.0Q323 231 323 338ZM817 484Q858 537 898.0 611.5Q938 686 960 752L911 798L891 792H684V720H871Q839 619 748 507ZM947 338Q947 431 893.5 471.0Q840 511 732 524V451Q801 441 836.0 411.0Q871 381 871 338Q871 242 819.0 149.5Q767 57 673 -18L727 -72Q832 17 889.5 124.5Q947 232 947 338ZM461 -62Q528 -62 574.0 -13.0Q620 36 642.0 110.5Q664 185 664 262Q664 360 613.5 440.5Q563 521 461 561L436 498Q516 463 552.5 399.0Q589 335 589 262Q589 204 575.0 148.5Q561 93 532.0 56.5Q503 20 461 20Q434 20 418.0 40.0Q402 60 402 104Q402 161 431.5 212.0Q461 263 519.0 316.0Q577 369 676 441L631 496Q483 392 403.5 297.5Q324 203 324 104Q324 18 361.0 -22.0Q398 -62 461 -62ZM509 509Q554 564 601.0 635.0Q648 706 675 760L625 795L609 787H351V714H567Q524 626 461 533Z" transform="translate(0, 880) scale(1,-1)" /></svg>