<svg xmlns="http://www.w3.org/2000/svg" width="1000" height="1000"><path d="M854 566Q851 485 834.5 441.0Q818 397 788 397Q740 397 695 413V347Q738 335 799 335Q849 335 875.5 361.5Q902 388 915.0 447.0Q928 506 939 623L879 639L865 626H715Q743 700 754.0 735.0Q765 770 770 815H110V746H343Q323 663 295.5 610.0Q268 557 212.5 510.0Q157 463 55 411L109 354Q215 412 276.0 469.5Q337 527 367.5 590.0Q398 653 421 746H682Q663 674 630 619L660 566ZM436 -75Q478 -75 501.5 -69.0Q525 -63 537.0 -44.0Q549 -25 549 13V300Q688 385 765 448L706 489L690 482H266V413H613Q550 369 473 331V25Q473 12 464.5 3.0Q456 -6 441 -7Q367 -11 290 17V-59Q375 -75 436 -75ZM959 242Q790 265 570 265Q348 265 55 241V176Q306 195 518 195Q758 195 939 171Z" transform="translate(0, 880) scale(1,-1)" /></svg>