<svg xmlns="http://www.w3.org/2000/svg" width="1000" height="1000"><path d="M169 162H241V801H169ZM40 493H373V562H40ZM378 257 65 140 91 73 402 196ZM392 607Q457 669 526.0 699.0Q595 729 694 729Q795 729 836.0 701.0Q877 673 877 622Q877 563 823.0 538.5Q769 514 667 514Q599 514 486 526V455Q591 444 672 444Q811 444 884.5 484.0Q958 524 958 622Q958 706 897.0 756.5Q836 807 694 807Q582 807 495.5 768.5Q409 730 347 669ZM328 -52H960V20H328ZM680 20Q723 51 743.0 107.5Q763 164 763 228Q763 288 732.0 325.5Q701 363 657 363Q600 363 560.5 331.0Q521 299 521 245Q521 188 557.0 156.5Q593 125 647 125Q671 125 694 143Q676 100 634.0 66.5Q592 33 533 20ZM645 191Q620 191 603.0 205.5Q586 220 586 245Q586 270 603.5 285.5Q621 301 646 301Q667 301 683.0 286.0Q699 271 699 250Q699 222 683.5 206.5Q668 191 645 191ZM732 271V633H657V336Z" transform="translate(0, 880) scale(1,-1)" /></svg>