<svg xmlns="http://www.w3.org/2000/svg" width="1000" height="1000"><path d="M584 -2C693 -2 764 96 764 428C764 676 684 787 510 787C364 787 229 756 123 717L136 643C247 682 373 713 510 713C646 713 683 599 683 432C683 200 648 74 584 74C539 74 482 82 428 100V19C480 6 534 -2 584 -2ZM71 32 133 -23C317 134 434 341 441 598L366 604C360 361 258 183 71 32ZM334 276 364 351C303 394 195 448 108 486L77 420C166 378 277 320 334 276ZM878 216 953 244C930 339 893 434 858 517L788 482C826 405 857 308 878 216Z" transform="translate(0, 880) scale(1,-1)" /></svg>