<svg xmlns="http://www.w3.org/2000/svg" width="1000" height="1000"><path d="M112 315H185V374Q264 407 380.0 425.0Q496 443 617 443Q726 443 770.0 431.0Q814 419 814 403Q814 386 808.5 373.0Q803 360 789 343L861 318Q877 341 884.0 360.5Q891 380 891 408Q891 460 824.0 485.5Q757 511 617 511Q482 511 377.0 489.5Q272 468 185 429V496H112ZM145 552H855V616H538V686H916V753H538V843H462V753H84V686H462V616H145ZM106 19V-52H894V19ZM622 -19Q775 17 852.5 63.0Q930 109 930 178Q930 253 823.0 289.0Q716 325 500 325Q297 325 185.5 287.5Q74 250 74 182Q74 124 132.5 90.0Q191 56 291 56Q401 56 490.0 104.5Q579 153 634.0 233.0Q689 313 702 405L624 409Q616 328 571.5 263.0Q527 198 454.5 161.0Q382 124 291 124Q155 124 155 182Q155 202 188.0 219.5Q221 237 298.5 249.0Q376 261 500 261Q682 261 765.5 238.0Q849 215 849 178Q849 133 785.5 101.0Q722 69 588 37ZM525 164Q403 241 392 397L318 401Q323 303 360.5 231.0Q398 159 471 121Z" transform="translate(0, 880) scale(1,-1)" /></svg>