<svg xmlns="http://www.w3.org/2000/svg" width="1000" height="1000"><path d="M572 14 617 -62C806 -13 919 53 919 164C919 275 832 344 630 344C423 344 206 266 76 181L119 113C281 215 481 268 630 268C776 268 833 225 833 164C833 90 734 31 572 14ZM359 -77C412 -77 442 -58 442 3V838H366V29C366 8 356 -4 336 -4C300 -4 263 0 213 12V-66C264 -74 310 -77 359 -77ZM41 552 108 524C154 602 191 703 212 802L142 816C121 719 87 619 41 552ZM125 420H654V492H125ZM142 624H675V696H142ZM853 403 932 432C914 520 882 619 847 693L775 668C810 590 839 486 853 403Z" transform="translate(0, 880) scale(1,-1)" /></svg>