<svg xmlns="http://www.w3.org/2000/svg" width="1000" height="1000"><path d="M104 -80Q201 102 201 469V668H948V741H598L548 845L473 827L513 741H126V468Q126 316 108.5 185.0Q91 54 37 -46ZM960 -19Q897 2 839.0 29.5Q781 57 702 99Q603 152 541.5 177.5Q480 203 423 203Q335 203 281.5 166.5Q228 130 228 71Q228 17 265.0 -18.0Q302 -53 377 -53Q452 -53 572.5 -6.0Q693 41 784.0 106.5Q875 172 875 224Q875 278 824.5 315.0Q774 352 678 352Q570 352 460.0 337.5Q350 323 257 299L273 234Q486 284 676 284Q746 284 771.0 268.5Q796 253 796 224Q796 191 718.0 141.0Q640 91 539.0 52.5Q438 14 381 14Q343 14 327.0 28.0Q311 42 311 68Q311 98 334.5 115.5Q358 133 423 133Q468 133 517.0 111.5Q566 90 647 43Q733 -5 789.0 -33.0Q845 -61 914 -85ZM503 379Q486 513 451 634L381 619Q414 504 432 364ZM225 478H937V544H225ZM686 312Q728 429 765 633L691 639Q664 454 619 322Z" transform="translate(0, 880) scale(1,-1)" /></svg>