<svg xmlns="http://www.w3.org/2000/svg" width="1000" height="1000"><path d="M421 552Q387 608 339.5 673.5Q292 739 245 794L177 755Q263 655 348 519ZM587 515Q655 564 692.0 597.0Q729 630 744.5 657.0Q760 684 760 714Q760 765 723.0 795.0Q686 825 618 825Q454 825 277 681L323 641Q393 695 471.0 722.5Q549 750 618 750Q643 750 656.5 739.5Q670 729 670 714Q670 651 530 555ZM416 25Q497 74 581.5 129.0Q666 184 715 222L655 278L635 271H406Q479 357 525 448L442 455Q390 347 296 250L343 195L372 207H575Q537 173 478.5 131.5Q420 90 354 52ZM905 -15Q533 59 141 104L102 37Q553 -21 875 -86ZM82 419H914V491H82Z" transform="translate(0, 880) scale(1,-1)" /></svg>