<svg xmlns="http://www.w3.org/2000/svg" width="1000" height="1000"><path d="M370 -61H746C850 -61 875 -19 887 139L807 152C799 38 790 9 732 9H384C328 9 306 21 306 58C306 146 416 243 494 380C565 505 597 630 541 847L458 829C504 616 483 524 417 410C341 278 223 168 223 59C223 -24 258 -61 370 -61ZM656 202 706 263C585 337 423 418 278 464L239 399C382 356 537 274 656 202ZM82 489H165V536C272 613 456 646 615 646C776 646 832 626 832 600C832 566 820 538 801 513L883 482C904 516 918 548 918 601C918 700 802 723 615 723C425 723 272 672 165 589V707H82Z" transform="translate(0, 880) scale(1,-1)" /></svg>