<svg xmlns="http://www.w3.org/2000/svg" width="1000" height="1000"><path d="M81 -81Q244 -36 360.0 19.5Q476 75 566.5 154.0Q657 233 735 350L662 386L640 370H413Q574 525 615 839L534 843Q518 731 489.5 647.5Q461 564 410.5 492.5Q360 421 278 350L321 285L341 295H597Q520 198 385.0 123.0Q250 48 44 -3ZM131 432Q188 502 234.5 602.0Q281 702 313 810L236 826Q208 720 162.5 626.5Q117 533 60 471ZM933 -10Q883 31 808.5 79.0Q734 127 659 167L618 101Q693 60 764.5 11.5Q836 -37 884 -80ZM217 589H863V665H217Z" transform="translate(0, 880) scale(1,-1)" /></svg>