<svg xmlns="http://www.w3.org/2000/svg" width="1000" height="1000"><path d="M639 -74C842 -74 896 113 896 358C896 602 776 696 601 696C449 696 307 665 218 621L236 552C329 596 470 622 601 622C742 622 818 516 818 358C818 155 770 0 632 0C490 0 346 101 346 247C346 311 380 361 478 361C546 361 575 321 575 285C575 217 509 154 374 85L423 47C564 116 657 184 657 285C657 391 580 438 478 438C354 438 268 365 268 247C268 54 457 -74 639 -74ZM107 356C231 486 312 651 366 815L290 837C238 669 153 512 44 408Z" transform="translate(0, 880) scale(1,-1)" /></svg>