<svg xmlns="http://www.w3.org/2000/svg" width="1000" height="1000"><path d="M82 462H165V513Q241 571 364.0 601.0Q487 631 615 631Q729 631 780.5 617.5Q832 604 832 581Q832 532 801 488L883 455Q901 485 909.5 514.0Q918 543 918 582Q918 657 842.5 685.0Q767 713 615 713Q476 713 362.0 675.5Q248 638 165 570V696H82ZM395 451Q495 591 567 831L485 844Q453 714 403.0 612.5Q353 511 265 407L319 356L344 376H608Q541 254 489.5 178.0Q438 102 378.0 55.0Q318 8 249 8Q199 8 170.5 29.0Q142 50 142 86Q142 127 181.5 151.5Q221 176 291 176Q342 176 390.5 162.5Q439 149 482.5 127.5Q526 106 595 68Q679 20 750.5 -14.0Q822 -48 910 -77L957 0Q874 21 804.0 53.0Q734 85 644 135Q570 176 520.0 199.5Q470 223 412.5 239.0Q355 255 293 255Q217 255 163.5 230.5Q110 206 83.0 167.5Q56 129 56 86Q56 20 105.5 -24.0Q155 -68 250 -68Q349 -68 424.0 -12.0Q499 44 558.0 133.5Q617 223 708 393L722 418L661 460L634 451ZM623 -69Q698 -3 764.5 72.0Q831 147 874 218L800 259Q760 187 696.0 109.5Q632 32 562 -29Z" transform="translate(0, 880) scale(1,-1)" /></svg>