<svg xmlns="http://www.w3.org/2000/svg" width="1000" height="1000"><path d="M748 -19C900 -19 936 80 936 392C936 638 847 733 636 733C462 733 348 720 264 702L282 625C360 642 469 653 636 653C798 653 855 571 855 392C855 135 839 54 744 54C703 54 656 61 618 74V-10C657 -16 700 -19 748 -19ZM209 -1H551V78H221C176 78 158 105 158 165V412C158 485 166 562 192 623L121 651C86 578 78 512 78 412V157C78 43 119 -1 209 -1ZM326 129H409V589H326ZM590 129H673V589H590Z" transform="translate(0, 880) scale(1,-1)" /></svg>