<svg xmlns="http://www.w3.org/2000/svg" width="1000" height="1000"><path d="M84 473 109 413 137 425H894L895 502H185C200 566 212 638 219 712H863V787H144C142 690 127 568 110 501C106 487 97 478 84 473ZM632 2 660 -68C833 -45 917 16 917 147C917 265 822 341 546 341C248 341 75 268 75 123C75 -3 197 -63 325 -63C431 -63 539 -18 539 145V637H461V154C461 32 394 9 325 9C246 9 153 35 153 127C153 214 295 268 546 268C761 268 834 223 834 147C834 58 767 15 632 2Z" transform="translate(0, 880) scale(1,-1)" /></svg>