<svg xmlns="http://www.w3.org/2000/svg" width="1000" height="1000"><path d="M88 -10Q186 39 327.0 126.5Q468 214 589 302L541 356Q415 264 283.0 184.5Q151 105 51 58ZM214 275 260 283H514V349H344L513 462V553Q355 413 194 333ZM498 -75Q546 -75 569.0 -57.5Q592 -40 592 8V613H513V14Q513 3 508.0 -2.0Q503 -7 490 -7Q465 -7 434.5 0.0Q404 7 359 20V-59Q429 -75 498 -75ZM955 48Q880 102 780.0 156.5Q680 211 591 244V171Q789 79 906 -8ZM75 493H926L925 562H75ZM934 309Q905 332 853.0 362.5Q801 393 753 415L712 364Q760 342 811.0 310.0Q862 278 891 253ZM130 737V665H834V737ZM388 839V540H462V839Z" transform="translate(0, 880) scale(1,-1)" /></svg>