<svg xmlns="http://www.w3.org/2000/svg" width="1000" height="1000"><path d="M557 386Q706 414 785.5 466.0Q865 518 865 587Q865 663 799.0 702.0Q733 741 621 741Q525 741 450.5 715.5Q376 690 302 636Q351 726 376 819L294 836Q263 728 205.5 628.0Q148 528 78 460L144 413Q205 480 251 549Q332 606 431.5 636.5Q531 667 613 667Q687 667 732.5 645.0Q778 623 778 587Q778 536 718.0 499.0Q658 462 557 451ZM142 33Q210 113 256.0 190.0Q302 267 341 366L271 392Q235 302 190.5 226.0Q146 150 84 73ZM447 -61Q494 -61 525.5 -30.0Q557 1 557 58V563H478V71Q478 10 434 10Q385 10 327 29V-49Q386 -61 447 -61ZM934 89Q869 198 755 360L694 321Q788 190 873 42Z" transform="translate(0, 880) scale(1,-1)" /></svg>