<svg xmlns="http://www.w3.org/2000/svg" width="1000" height="1000"><path d="M135 -78Q237 -15 294.0 48.5Q351 112 375.5 191.0Q400 270 400 382V559H913V632H93V559H322V382Q322 273 300.5 205.5Q279 138 228.0 87.0Q177 36 78 -23ZM615 -72Q677 -72 705.0 -46.5Q733 -21 733 31L734 493H656L655 49Q655 23 643.5 11.0Q632 -1 603 -1Q581 -1 546.5 3.0Q512 7 481 13V-61Q532 -72 615 -72ZM959 344Q782 364 566 364Q348 364 55 343V273Q299 290 513 290Q752 290 939 268ZM395 667Q381 703 350.5 751.5Q320 800 287 841L218 813Q251 770 280.0 719.5Q309 669 321 634ZM683 615Q742 718 789 818L704 843Q688 796 662.5 738.0Q637 680 611 634Z" transform="translate(0, 880) scale(1,-1)" /></svg>