<svg xmlns="http://www.w3.org/2000/svg" width="1000" height="1000"><path d="M205 379Q284 379 394.0 425.0Q504 471 610.0 557.0Q716 643 784 755L727 800L701 789H153V720H667Q607 639 519.0 577.5Q431 516 345.0 483.5Q259 451 205 451Q143 451 143 498Q143 515 162.5 530.0Q182 545 217.0 554.0Q252 563 296 563Q433 563 553.5 547.0Q674 531 926 484L947 554Q674 604 553.0 620.5Q432 637 296 637Q227 637 174.5 618.0Q122 599 93.5 567.0Q65 535 65 498Q65 440 103.5 409.5Q142 379 205 379ZM145 67H221V340H145ZM512 -82H595V450H512ZM343 93Q481 78 584 78Q925 78 925 241Q925 308 837.0 341.5Q749 375 617 375Q495 375 388.0 345.0Q281 315 160 251L193 192Q309 253 408.5 279.0Q508 305 617 305Q719 305 780.5 289.0Q842 273 842 241Q842 199 786.5 172.0Q731 145 601 145Q494 145 343 165Z" transform="translate(0, 880) scale(1,-1)" /></svg>