<svg xmlns="http://www.w3.org/2000/svg" width="1000" height="1000"><path d="M60 663 73 595C360 598 681 624 940 660L897 728C668 692 351 668 60 663ZM45 410 94 348C489 459 574 698 568 837H487C486 700 424 514 45 410ZM900 345 959 399C797 493 645 563 477 625L440 569C591 512 726 441 900 345ZM595 -62H818C922 -62 949 -16 962 115L887 131C881 32 868 12 814 12H595C543 12 529 23 529 67V491H451V60C451 -38 485 -62 595 -62ZM150 111H226V220C338 292 473 313 597 313C716 313 772 283 772 251C772 167 596 171 327 196V127C652 93 859 120 859 251C859 340 754 387 597 387C465 387 340 357 226 279V357H150Z" transform="translate(0, 880) scale(1,-1)" /></svg>