<svg xmlns="http://www.w3.org/2000/svg" width="1000" height="1000"><path d="M60 615 88 545C229 595 425 688 556 777L493 837C384 757 197 662 60 615ZM661 500C784 500 845 452 845 396C845 319 787 250 610 185L637 119C836 193 926 254 926 396C926 502 840 576 661 576C318 576 66 371 66 197C66 93 124 39 222 39C325 39 439 122 439 295C439 439 375 557 241 652L196 607C325 508 360 386 360 295C360 174 293 115 222 116C164 117 140 150 140 197C140 328 367 500 661 500ZM644 -59 723 -29C694 76 645 190 596 276L524 246C570 161 617 45 644 -59Z" transform="translate(0, 880) scale(1,-1)" /></svg>