<svg xmlns="http://www.w3.org/2000/svg" width="1000" height="1000"><path d="M446 203Q379 270 344.0 360.5Q309 451 309 577Q309 689 338 827L266 837Q232 686 232 565Q232 418 276.5 312.5Q321 207 399 140ZM623 566Q722 566 791.5 537.0Q861 508 861 443Q861 356 815.5 280.0Q770 204 694.5 138.0Q619 72 507 -3L556 -70Q678 20 757.0 91.5Q836 163 888.0 251.5Q940 340 940 443Q940 538 858.0 588.5Q776 639 623 639Q485 639 356.0 596.0Q227 553 142.5 458.5Q58 364 58 220Q58 150 87.0 95.5Q116 41 160.5 10.5Q205 -20 247 -20Q569 -20 596 801L520 815Q509 476 446.0 267.5Q383 59 251 59Q223 59 196.0 81.5Q169 104 151.5 141.0Q134 178 134 220Q134 343 217.5 420.5Q301 498 414.5 532.0Q528 566 623 566ZM965 -4Q898 86 803.5 182.5Q709 279 606 362L558 307Q661 220 750.5 124.0Q840 28 905 -66Z" transform="translate(0, 880) scale(1,-1)" /></svg>