<svg xmlns="http://www.w3.org/2000/svg" width="1000" height="1000"><path d="M106 741 127 678C355 684 682 709 891 743L843 807C664 777 345 750 106 741ZM582 845H496C465 672 385 491 239 491C167 491 136 505 136 529C136 552 180 571 281 571C477 571 612 482 910 430L947 497C666 536 521 634 283 634C117 634 63 577 63 529C63 473 107 428 240 428C455 428 540 664 582 845ZM564 463 613 422C710 473 805 539 864 598L802 644C750 585 660 515 564 463ZM357 238V168C820 147 865 205 865 293C865 362 785 406 621 406C481 406 390 383 294 340C319 365 334 387 348 415L274 426C232 339 179 293 93 242L141 194C192 228 215 245 241 269C355 317 502 338 621 338C740 338 788 319 788 293C788 237 725 215 357 238ZM474 273V2C474 -16 464 -23 445 -23C402 -24 353 -16 300 1V-73C350 -83 403 -87 459 -87C510 -87 549 -68 549 -26V273ZM64 -14 125 -56C207 -1 263 70 294 133L220 161C196 104 144 39 64 -14ZM864 -65 936 -29C900 23 825 105 748 164L683 127C760 65 834 -16 864 -65Z" transform="translate(0, 880) scale(1,-1)" /></svg>