<svg xmlns="http://www.w3.org/2000/svg" width="1000" height="1000"><path d="M103 -69Q243 10 398.0 134.0Q553 258 739 428L673 474L645 448H333Q439 554 559 824L477 844Q429 720 346.5 597.0Q264 474 179 409L229 346L275 382H580Q472 286 331.5 181.0Q191 76 51 -3ZM827 -54Q872 -54 896.5 -39.0Q921 -24 933.5 15.5Q946 55 952 133L879 154Q876 91 872.0 63.5Q868 36 859.5 27.0Q851 18 832 18H632Q583 18 583 59V303H502V48Q502 9 512.0 -13.0Q522 -35 546.5 -44.5Q571 -54 618 -54ZM70 608H934V681H70ZM932 280Q913 393 863 520L795 496Q842 377 860 256Z" transform="translate(0, 880) scale(1,-1)" /></svg>