<svg xmlns="http://www.w3.org/2000/svg" width="1000" height="1000"><path d="M800 418Q845 473 866.5 525.0Q888 577 888 632Q888 726 811.5 765.5Q735 805 589 805Q464 805 339.0 781.5Q214 758 114 722L138 647Q233 682 351.0 703.5Q469 725 589 725Q702 725 752.0 702.5Q802 680 802 630Q802 547 725 458ZM179 328H754V404H179ZM239 505H710V577H239ZM135 -77Q310 13 401.5 126.5Q493 240 523.0 371.0Q553 502 553 685H473Q471 502 445.0 385.5Q419 269 335.0 170.5Q251 72 81 -13ZM931 -27Q757 147 591 259L541 201Q687 103 874 -85Z" transform="translate(0, 880) scale(1,-1)" /></svg>