<svg xmlns="http://www.w3.org/2000/svg" width="1000" height="1000"><path d="M46 -19 94 -80C377 -37 539 79 539 304H769V368H231V304H463C463 107 313 17 46 -19ZM93 151H907V217H93ZM896 -84 954 -30C872 19 728 83 598 127L543 81C671 33 818 -36 896 -84ZM112 320H185V379C292 422 458 447 617 447C779 447 814 423 814 408C814 384 807 369 789 348L861 323C882 351 891 373 891 412C891 480 805 514 617 514C426 514 292 481 185 433V499H112ZM145 555H855V618H538V688H916V753H538V843H462V753H84V688H462V618H145Z" transform="translate(0, 880) scale(1,-1)" /></svg>