<svg xmlns="http://www.w3.org/2000/svg" width="1000" height="1000"><path d="M458 134Q509 134 543.0 160.0Q577 186 596.0 252.5Q615 319 615 435Q615 588 552.0 671.5Q489 755 375 755Q297 755 240.5 735.0Q184 715 151 683V615Q189 643 246.5 662.0Q304 681 375 681Q420 681 458.5 653.5Q497 626 520.0 570.5Q543 515 543 435Q543 311 520.0 261.0Q497 211 458 211Q436 211 420.5 244.5Q405 278 405 325Q405 431 439.5 515.5Q474 600 535.5 648.0Q597 696 674 696Q750 696 780.5 631.0Q811 566 811 436Q811 214 782.5 109.5Q754 5 691 5Q601 5 518 34V-52Q601 -70 697 -70Q767 -70 808.5 -22.5Q850 25 869.5 135.0Q889 245 889 436Q889 550 869.5 624.0Q850 698 803.0 737.0Q756 776 674 776Q583 776 505.0 725.0Q427 674 379.5 572.5Q332 471 332 325Q332 268 350.0 224.5Q368 181 397.0 157.5Q426 134 458 134ZM133 774V-52H211V774ZM50 420V340H950V420Z" transform="translate(0, 880) scale(1,-1)" /></svg>