<svg xmlns="http://www.w3.org/2000/svg" width="1000" height="1000"><path d="M280 560Q268 606 239.5 668.5Q211 731 178 788L109 754Q135 706 163.0 640.0Q191 574 209 521ZM554 587Q545 639 522.0 704.5Q499 770 470 835L396 809Q422 747 444.0 679.0Q466 611 476 558ZM772 525Q832 627 892 779L812 812Q794 751 764.0 678.0Q734 605 703 545ZM642 -82Q791 -62 868.5 0.5Q946 63 946 180Q946 302 833.5 357.0Q721 412 500 412Q364 412 264.5 381.5Q165 351 111.5 292.5Q58 234 58 152Q58 45 118.0 -10.5Q178 -66 281 -66Q384 -66 475.0 2.0Q566 70 627.5 189.5Q689 309 706 457L624 463Q611 332 561.0 229.0Q511 126 437.0 68.5Q363 11 281 11Q214 11 176.5 50.5Q139 90 139 152Q139 194 176.5 237.0Q214 280 295.0 309.0Q376 338 500 338Q622 338 705.0 315.0Q788 292 828.0 255.5Q868 219 868 180Q868 102 801.5 53.5Q735 5 608 -8ZM530 112Q461 158 425.5 248.0Q390 338 390 464Q390 483 392 527L314 533Q312 487 312 466Q312 313 355.5 206.0Q399 99 481 52Z" transform="translate(0, 880) scale(1,-1)" /></svg>