<svg xmlns="http://www.w3.org/2000/svg" width="1000" height="1000"><path d="M777 -72Q847 -72 881.0 41.0Q915 154 915 307Q915 400 906.5 458.5Q898 517 863.0 557.5Q828 598 755 598Q673 598 605.0 587.5Q537 577 471 557L480 477Q615 517 745 517Q787 517 807.5 486.0Q828 455 833.5 411.5Q839 368 839 307Q839 179 817.5 90.5Q796 2 759 2Q729 2 667 20V-62Q726 -72 777 -72ZM497 -84Q577 3 626.0 124.5Q675 246 702.5 414.0Q730 582 748 835L672 841Q654 593 627.0 431.0Q600 269 553.5 156.5Q507 44 431 -37ZM64 600H507V677H64ZM244 39Q287 102 335.0 191.5Q383 281 414 352L363 411L340 404H239Q276 479 306.5 585.0Q337 691 358 814L280 822Q261 700 224.5 579.0Q188 458 142 369L193 319L215 331H317Q306 291 265.5 206.5Q225 122 185 56ZM463 189 51 13 78 -67 480 121Z" transform="translate(0, 880) scale(1,-1)" /></svg>