<svg xmlns="http://www.w3.org/2000/svg" width="1000" height="1000"><path d="M454 63 492 -16Q717 -15 814.5 41.5Q912 98 912 211Q912 299 839.5 350.5Q767 402 596 402Q443 402 321.5 368.0Q200 334 83 263L139 194Q231 254 346.5 287.0Q462 320 596 320Q714 320 771.0 288.5Q828 257 828 211Q828 143 749.0 103.0Q670 63 488 63ZM568 -61Q531 38 444 157L373 120Q407 80 439.5 19.0Q472 -42 491 -99ZM559 509Q640 555 729.5 622.5Q819 690 893 762L843 811L816 802H139V721H738Q693 679 628.0 633.0Q563 587 498 550ZM700 480Q619 536 541.5 573.5Q464 611 358 646L322 575Q423 542 498.0 505.0Q573 468 652 413Z" transform="translate(0, 880) scale(1,-1)" /></svg>