<svg xmlns="http://www.w3.org/2000/svg" width="1000" height="1000"><path d="M326 684 397 711C380 748 343 807 308 850L240 827C274 783 310 724 326 684ZM661 689C704 733 739 779 770 833L691 854C667 803 636 762 599 720ZM925 325V393H75V325ZM504 393H619C705 413 748 462 748 501C748 550 673 595 487 595C309 595 211 560 211 508C211 460 274 424 418 424C506 424 545 455 545 485V675H460V513C460 483 432 473 391 473C360 473 297 488 297 506C297 524 349 538 487 538C590 538 664 519 664 499C664 471 649 439 504 393ZM97 638H903V702H97ZM642 -100C832 -82 950 -25 950 100C950 227 786 280 500 280C228 280 54 205 54 78C54 -33 148 -89 281 -89C489 -89 667 76 702 306L624 311C598 105 446 -13 281 -13C189 -13 135 17 135 78C135 136 235 209 500 209C758 209 869 156 869 100C869 20 778 -17 608 -29ZM481 2 535 56C431 110 379 212 392 365L318 370C304 186 360 55 481 2Z" transform="translate(0, 880) scale(1,-1)" /></svg>