<svg xmlns="http://www.w3.org/2000/svg" width="1000" height="1000"><path d="M501 59Q642 59 735.0 91.0Q828 123 871.0 172.0Q914 221 914 273Q914 353 827.0 404.0Q740 455 500 455Q372 455 272.0 433.0Q172 411 67 360L102 300Q274 387 500 387Q684 387 756.0 353.5Q828 320 828 273Q828 240 791.5 205.0Q755 170 681.0 146.0Q607 122 501 122Q374 122 320.0 136.0Q266 150 266 177Q266 194 292.5 210.0Q319 226 369.5 235.5Q420 245 487 245Q567 245 628.5 222.5Q690 200 731 148L791 187Q728 246 654.5 274.0Q581 302 487 302Q393 302 324.0 285.0Q255 268 218.5 239.5Q182 211 182 177Q182 120 255.0 89.5Q328 59 501 59ZM455 -79H534V413H455ZM212 521 788 520V589H212ZM59 660H937V732H553L513 835L441 818L470 732H59Z" transform="translate(0, 880) scale(1,-1)" /></svg>