<svg xmlns="http://www.w3.org/2000/svg" width="1000" height="1000"><path d="M103 -60Q209 124 209 501V708H933V787H131V501Q131 346 112.5 213.5Q94 81 35 -21ZM295 13H366V602H295ZM457 -84Q568 -36 645.0 38.0Q722 112 773.5 221.5Q825 331 858 488H927V564H551V488H789Q758 340 707.5 242.5Q657 145 585.5 84.5Q514 24 411 -17ZM948 -29Q859 90 770.5 172.5Q682 255 573 325L531 271Q637 199 718.0 119.0Q799 39 888 -85ZM564 688Q513 495 412 330L474 287Q522 369 562.0 468.5Q602 568 631 672Z" transform="translate(0, 880) scale(1,-1)" /></svg>