<svg xmlns="http://www.w3.org/2000/svg" width="1000" height="1000"><path d="M314 430Q453 413 561 413Q689 413 758.5 436.5Q828 460 851.5 497.0Q875 534 875 583Q875 665 808.5 714.5Q742 764 624 764Q518 764 449.0 742.5Q380 721 306 665Q347 741 374 836L290 853Q256 737 215.5 660.5Q175 584 108 513L176 464Q215 510 257 576Q340 635 432.5 661.5Q525 688 616 688Q670 688 708.5 672.5Q747 657 766.5 633.0Q786 609 786 583Q786 536 742.0 510.5Q698 485 583 485Q478 485 314 508ZM144 98 178 120H899V197H273Q368 268 444.5 356.0Q521 444 572 566L489 576Q447 462 340.5 354.0Q234 246 97 169ZM491 338V-83H571V338Z" transform="translate(0, 880) scale(1,-1)" /></svg>