<svg xmlns="http://www.w3.org/2000/svg" width="1000" height="1000"><path d="M715 -76C795 -76 865 -25 865 352C865 574 818 649 698 649C626 649 553 623 498 578L531 512C580 549 633 567 698 567C762 567 785 492 785 352C785 41 741 5 700 5C660 5 628 11 586 27V-62C626 -72 664 -76 715 -76ZM84 136 468 303 439 367 58 209ZM257 -72C324 -72 341 -41 341 15V810H262V22C262 9 255 4 240 4C215 4 180 9 137 22V-60C176 -67 220 -72 257 -72ZM73 511H450V586H73ZM945 258 953 340C847 361 707 362 520 339V264C704 284 844 277 945 258Z" transform="translate(0, 880) scale(1,-1)" /></svg>