<svg xmlns="http://www.w3.org/2000/svg" width="1000" height="1000"><path d="M131 498Q238 571 308.5 650.0Q379 729 439 828L354 839Q253 667 69 548ZM491 515Q551 564 620.0 632.0Q689 700 739 760L678 798L658 786H346V716H605Q520 624 426 556ZM735 -58Q808 -58 849.5 -36.5Q891 -15 913.0 33.5Q935 82 947 171L870 196Q862 120 848.0 82.5Q834 45 808.5 31.5Q783 18 736 18H361Q309 18 284.0 23.5Q259 29 249.5 42.5Q240 56 240 83V240H803V558H300V480H721V316H240V366H161V83Q161 25 179.0 -5.0Q197 -35 239.5 -46.5Q282 -58 361 -58Z" transform="translate(0, 880) scale(1,-1)" /></svg>