<svg xmlns="http://www.w3.org/2000/svg" width="1000" height="1000"><path d="M547 211C547 281 498 312 371 312C254 312 194 275 194 237C194 187 277 154 460 154C721 154 920 222 920 308C920 380 814 435 585 435C509 435 419 429 355 421C400 451 462 516 499 567L409 580C378 527 316 454 248 412L218 405L274 348C352 364 430 376 563 376C743 376 832 354 832 308C832 251 601 213 460 213C332 213 288 224 288 237C288 252 311 260 370 260C426 260 457 250 457 212C457 143 321 28 101 -20L154 -79C356 -23 554 118 547 211ZM257 652 280 594C365 611 481 627 600 627C740 627 790 608 790 580C790 537 740 509 398 531V476C812 450 878 509 878 580C878 651 793 686 600 686C466 686 341 668 257 652ZM487 668 538 639C635 682 725 735 770 768L701 805L676 793H311V735H605C576 714 536 692 487 668ZM70 641 124 590C228 640 362 742 422 829L337 844C279 757 166 680 70 641ZM680 -68H807C920 -68 933 -7 945 88L876 110C868 14 859 -6 811 -6H669C628 -6 617 -1 617 20V122H543V-4C543 -53 580 -68 680 -68Z" transform="translate(0, 880) scale(1,-1)" /></svg>