<svg xmlns="http://www.w3.org/2000/svg" width="1000" height="1000"><path d="M104 -80Q201 102 201 469V668H948V741H598L548 845L473 827L513 741H126V468Q126 316 108.5 185.0Q91 54 37 -46ZM564 143 199 25 220 -45 585 81ZM574 408H952V476H574ZM752 -74Q815 -74 845.0 -41.0Q875 -8 875 66V628H806V93Q806 38 794.0 14.5Q782 -9 752 -9Q724 -9 710.0 10.5Q696 30 696 63Q696 92 705.0 108.5Q714 125 735 134Q744 138 762 138Q795 138 833 123L838 185Q796 199 758 199Q729 199 710 191Q673 176 652.0 146.0Q631 116 631 63Q631 -1 664.5 -37.5Q698 -74 752 -74ZM354 25Q404 84 459.0 163.5Q514 243 547 304L500 342L484 333H362Q411 415 441 536L367 544Q354 428 271 293L318 254L336 269H442Q420 221 381.0 160.0Q342 99 298 43ZM243 501H575V570H243Z" transform="translate(0, 880) scale(1,-1)" /></svg>