<svg xmlns="http://www.w3.org/2000/svg" width="1000" height="1000"><path d="M555 850 476 858C319 454 225 129 481 11L535 65C295 203 419 469 555 850ZM189 300 357 415 309 467 135 350ZM470 353C792 334 878 404 878 502C878 587 794 640 584 640C397 640 225 597 122 537L151 473C250 529 413 567 584 567C726 567 803 544 803 502C803 433 709 408 470 427ZM88 763V691H912V763ZM642 -88C832 -70 950 -15 950 107C950 232 786 284 500 284C228 284 54 211 54 86C54 -23 148 -77 281 -77C489 -77 667 89 702 314L624 319C598 118 446 -3 281 -3C189 -3 135 27 135 86C135 143 235 215 500 215C758 215 869 159 869 103C869 26 778 -7 608 -19Z" transform="translate(0, 880) scale(1,-1)" /></svg>