<svg xmlns="http://www.w3.org/2000/svg" width="1000" height="1000"><path d="M307 703 383 726C366 761 333 814 302 850L230 829C258 794 293 738 307 703ZM700 693C729 734 765 795 788 838L705 857C690 815 660 755 632 711ZM475 -11C741 -16 870 24 870 141C870 208 759 256 580 256C419 256 290 235 108 165L139 103C286 162 443 189 580 189C714 189 784 163 784 133C784 86 658 46 420 43ZM472 -94 542 -62C504 4 443 70 390 119L328 87C375 45 439 -32 472 -94ZM76 289H924V356H76ZM501 356H634C720 374 769 440 769 480C769 532 679 577 495 577C317 577 209 544 209 488C209 437 278 399 426 399C513 399 541 434 541 465V665H459V493C459 463 438 451 400 451C369 451 309 467 309 486C309 508 357 524 495 524C597 524 674 499 674 478C674 450 645 393 501 356ZM87 633H914V698H86Z" transform="translate(0, 880) scale(1,-1)" /></svg>