<svg xmlns="http://www.w3.org/2000/svg" width="1000" height="1000"><path d="M397 708Q384 737 358.5 777.5Q333 818 308 850L240 825Q267 790 290.5 749.5Q314 709 326 679ZM664 685Q716 746 768 834L692 853Q655 778 600 710ZM925 269V344H75V269ZM619 344Q681 361 714.5 395.0Q748 429 748 468Q748 512 683.0 542.0Q618 572 487 572Q356 572 283.5 545.5Q211 519 211 475Q211 433 263.0 407.5Q315 382 418 382Q480 382 512.5 402.5Q545 423 545 450V655H460V481Q460 437 391 437Q364 437 330.5 448.0Q297 459 297 473Q297 489 343.0 499.0Q389 509 487 509Q562 509 613.0 496.0Q664 483 664 466Q664 445 653.0 427.5Q642 410 607.5 389.5Q573 369 504 344ZM97 623H903V695H97ZM63 -60H937V12H543V131H890V203H110V131H457V12H63Z" transform="translate(0, 880) scale(1,-1)" /></svg>