<svg xmlns="http://www.w3.org/2000/svg" width="1000" height="1000"><path d="M196 -62Q263 -62 309.0 -14.0Q355 34 377.0 107.0Q399 180 399 256Q399 352 348.5 431.0Q298 510 196 549L171 487Q251 453 288.0 390.0Q325 327 325 256Q325 200 311.0 145.0Q297 90 267.5 54.0Q238 18 196 18Q169 18 153.0 38.0Q137 58 137 101Q137 156 166.5 206.5Q196 257 254.5 309.0Q313 361 411 431L367 485Q219 384 139.0 291.0Q59 198 59 101Q59 17 96.0 -22.5Q133 -62 196 -62ZM502 92Q535 165 566.5 270.5Q598 376 620 487L549 504Q529 402 499.5 307.5Q470 213 436 143ZM254 498Q300 555 347.0 624.0Q394 693 420 745L370 782L355 774H75V699H311Q267 610 205 522ZM683 -78Q714 -78 731.0 -60.0Q748 -42 748 4V719H675V17Q675 -6 654 -6Q611 -6 558 19V-64Q616 -78 683 -78ZM966 125Q949 210 919.5 317.0Q890 424 859 508L789 489Q819 398 848.0 287.5Q877 177 892 95ZM508 643Q643 670 744.0 696.0Q845 722 919 757L872 821Q752 763 482 714Z" transform="translate(0, 880) scale(1,-1)" /></svg>