<svg xmlns="http://www.w3.org/2000/svg" width="1000" height="1000"><path d="M82 569H165V607Q241 652 364.5 675.0Q488 698 617 698Q728 698 781.0 686.5Q834 675 834 659Q834 625 809 597L891 570Q907 592 914.0 612.0Q921 632 921 660Q921 714 844.0 737.0Q767 760 617 760Q476 760 361.5 732.0Q247 704 165 652V748H82ZM569 744Q542 808 511 852L433 835Q471 785 488 727ZM188 526H812V586H188ZM574 567Q539 633 504 668L428 655Q448 633 466.0 605.0Q484 577 495 552ZM97 79H903V139H97ZM441 -72Q496 -72 521.5 -46.0Q547 -20 547 34L548 473H473L472 44Q472 -5 432 -5Q379 -5 318 14V-60Q372 -72 441 -72ZM145 200H855V260H145ZM97 319H913V379H97ZM396 449Q325 483 230 508L207 451Q279 433 364 390Z" transform="translate(0, 880) scale(1,-1)" /></svg>