<svg xmlns="http://www.w3.org/2000/svg" width="1000" height="1000"><path d="M768 577C858 577 859 492 859 413C859 288 830 176 779 176C750 176 724 179 687 188V115C724 109 751 107 797 107C899 107 935 278 935 413C935 529 928 648 771 648C487 648 230 518 230 284C230 211 267 170 337 170C451 170 493 339 493 463C493 605 440 719 318 719C254 719 200 679 163 590L190 773H110C83 469 83 306 93 129H168C160 288 144 337 174 464C189 529 247 643 318 643C380 643 418 575 418 463C418 348 372 250 337 250C314 250 304 261 304 284C304 492 548 577 768 577ZM441 133 507 98C670 234 724 436 758 803L682 807C648 441 593 258 441 133ZM71 43V-34H929V43Z" transform="translate(0, 880) scale(1,-1)" /></svg>