<svg xmlns="http://www.w3.org/2000/svg" width="1000" height="1000"><path d="M261 -69H334V802H261V268L158 226V652H84V244Q84 221 75.0 206.0Q66 191 54 183L82 126L261 198ZM621 -67Q668 -67 687.5 -45.5Q707 -24 707 25V816H630V35Q630 21 622.5 11.5Q615 2 601 2Q554 2 484 27V-54Q552 -67 621 -67ZM415 121Q457 170 498.5 241.5Q540 313 567 389L503 413Q479 346 440.5 284.0Q402 222 361 179ZM380 507H935V583H380ZM962 164Q939 215 895.5 284.0Q852 353 808 410L753 365Q797 304 840.0 234.0Q883 164 905 114Z" transform="translate(0, 880) scale(1,-1)" /></svg>