<svg xmlns="http://www.w3.org/2000/svg" width="1000" height="1000"><path d="M501 680H67V611H501ZM322 463V817H246V463ZM465 493H103V425H465ZM763 -78Q817 -78 848.5 -59.5Q880 -41 897.5 -4.5Q915 32 926 95L851 117Q839 48 815.0 21.5Q791 -5 742 -5H215Q197 -5 189.5 -1.0Q182 3 182 14Q182 25 198.0 45.0Q214 65 275.0 123.5Q336 182 472 307L419 363Q262 220 197.0 157.0Q132 94 110.5 63.0Q89 32 89 4Q89 -37 113.5 -57.5Q138 -78 204 -78ZM96 272H413V345H96ZM655 282Q756 326 810.5 357.5Q865 389 888.0 417.0Q911 445 911 479Q911 537 820.5 569.0Q730 601 530 612L522 543Q683 534 752.5 515.0Q822 496 822 476Q822 449 778.5 415.0Q735 381 610 328ZM606 33Q709 82 796.5 139.5Q884 197 929 242L882 309L854 302Q696 339 524 349L515 277Q687 269 806 244Q773 209 705.0 167.0Q637 125 544 84ZM610 560Q749 647 863 794L785 828Q688 682 562 591Z" transform="translate(0, 880) scale(1,-1)" /></svg>