<svg xmlns="http://www.w3.org/2000/svg" width="1000" height="1000"><path d="M75 697 100 616C245 638 415 685 533 746L494 821C390 767 222 719 75 697ZM157 129C157 224 235 394 509 394H919V476H506C202 476 77 296 77 129C77 -3 131 -63 214 -63C312 -63 413 35 413 410C413 538 389 622 346 708L269 693C314 605 334 523 334 410C334 127 256 18 214 20C178 22 157 54 157 129ZM621 802V-83H705V802ZM870 71 935 116C907 173 859 255 813 316L750 275C793 216 842 128 870 71Z" transform="translate(0, 880) scale(1,-1)" /></svg>