<svg xmlns="http://www.w3.org/2000/svg" width="1000" height="1000"><path d="M118 -83Q156 -8 170.0 72.5Q184 153 184 282V722H737V794H114V298Q114 171 103.5 103.0Q93 35 55 -39ZM249 172H317V385Q377 448 422.0 469.5Q467 491 519 491Q553 491 576.0 467.0Q599 443 599 407Q599 373 582.0 341.0Q565 309 530.5 289.0Q496 269 447 269V192Q510 193 561.0 221.5Q612 250 641.0 299.5Q670 349 670 410Q670 461 647.5 495.5Q625 530 590.5 547.0Q556 564 519 564Q466 564 419.0 540.5Q372 517 317 457V566H249ZM412 31 379 -8 441 -49Q524 41 608.5 93.5Q693 146 757 146Q862 146 862 85Q862 52 838.5 28.5Q815 5 747 -19L797 -78Q853 -56 883.0 -33.0Q913 -10 924.0 17.5Q935 45 935 85Q935 145 893.0 182.0Q851 219 757 219Q689 219 612.5 180.5Q536 142 480 85L483 682H412ZM933 364Q891 447 800 566L738 520Q807 432 866 312Z" transform="translate(0, 880) scale(1,-1)" /></svg>