<svg xmlns="http://www.w3.org/2000/svg" width="1000" height="1000"><path d="M100 -60C193 101 206 338 206 501V715H933V790H131V501C131 347 123 132 35 -21ZM575 422H651V679H575ZM405 463 474 487C452 530 400 598 351 649L287 626C335 575 385 507 405 463ZM809 465C848 509 896 576 934 632L862 653C836 601 789 528 750 485ZM737 -81C806 -81 860 -56 876 -15C911 77 923 222 917 327C912 416 839 456 695 456C598 456 497 447 386 430L388 369C513 389 610 394 696 394C780 394 839 374 842 324C847 239 830 91 808 23C800 -2 772 -19 727 -19C676 -19 630 -14 576 -2V-71C632 -77 686 -81 737 -81ZM269 -69C391 98 413 231 421 446H347C339 228 318 124 202 -30ZM775 113 776 168 453 170 452 116ZM783 241 784 298 470 300 469 243Z" transform="translate(0, 880) scale(1,-1)" /></svg>