<svg xmlns="http://www.w3.org/2000/svg" width="1000" height="1000"><path d="M174 333H255V708Q638 723 853 762L795 831Q695 812 524.0 798.5Q353 785 174 779ZM882 -10Q742 24 535.5 64.5Q329 105 161 130L110 61Q300 32 507.0 -7.5Q714 -47 836 -79ZM737 172Q588 207 351 243L307 178Q401 164 510.0 143.0Q619 122 692 104ZM70 283H930V359H70ZM770 293Q844 374 844 469Q844 543 780.0 585.5Q716 628 583 628Q477 628 400.0 607.0Q323 586 255 548V480Q338 518 417.5 535.5Q497 553 583 553Q656 553 709.0 530.0Q762 507 762 469Q762 428 748.5 393.5Q735 359 704 323Z" transform="translate(0, 880) scale(1,-1)" /></svg>