<svg xmlns="http://www.w3.org/2000/svg" width="1000" height="1000"><path d="M806 -71Q914 -71 914 38V637Q914 712 877.5 753.5Q841 795 774 795H365Q198 795 126 723L147 653Q214 723 378 723H754Q796 723 817.0 699.5Q838 676 838 631V38Q838 18 828.0 7.5Q818 -3 800 -3Q771 -3 743.0 3.5Q715 10 678 24V-53Q735 -71 806 -71ZM610 -54V16H211Q186 16 172.5 33.0Q159 50 159 81V795H86V65Q86 1 110.0 -26.5Q134 -54 182 -54ZM338 271Q423 271 489.0 313.5Q555 356 613.0 438.0Q671 520 746 660L676 677L667 669H494V603H637Q564 472 490.5 406.0Q417 340 338 340Q302 340 283.0 354.0Q264 368 264 391Q264 417 284.0 434.5Q304 452 345 452Q393 452 439.5 432.0Q486 412 565 368Q627 333 677.5 307.5Q728 282 787 261L808 331Q752 351 706.0 374.0Q660 397 600 431Q519 477 465.0 498.0Q411 519 345 519Q276 519 233.0 484.5Q190 450 190 390Q190 332 228.0 301.5Q266 271 338 271ZM429 585Q407 613 379.0 641.0Q351 669 326 688L270 651Q314 616 371 546ZM258 47Q311 124 350 224L286 247Q271 204 247.0 158.0Q223 112 199 79ZM513 50Q536 50 556.5 59.5Q577 69 605 96L569 153Q552 137 541.0 130.0Q530 123 520 123Q508 123 497.5 147.5Q487 172 475 240L413 226Q445 50 513 50ZM800 78Q768 144 693 247L635 215Q663 179 690.5 133.5Q718 88 736 50Z" transform="translate(0, 880) scale(1,-1)" /></svg>