<svg xmlns="http://www.w3.org/2000/svg" width="1000" height="1000"><path d="M135 469Q180 542 219.0 638.5Q258 735 278 820L205 834Q183 746 146.0 657.0Q109 568 67 506ZM179 631H926L925 703H179ZM644 395Q533 496 403 584L351 532Q480 441 585 340ZM396 172Q373 216 330.5 273.0Q288 330 243 378L182 340Q225 293 266.5 233.5Q308 174 330 130ZM680 120Q718 159 764.5 219.0Q811 279 849 337L775 376Q746 324 701.5 263.0Q657 202 616 158ZM924 -18Q556 53 120 120L91 48Q570 -25 888 -91Z" transform="translate(0, 880) scale(1,-1)" /></svg>