<svg xmlns="http://www.w3.org/2000/svg" width="1000" height="1000"><path d="M423 637C221 534 57 350 57 168C57 37 140 -56 237 -56C425 -56 509 138 479 697H405C436 236 363 21 237 21C178 21 133 92 133 168C133 333 286 480 464 573ZM372 87 409 153C293 244 205 410 244 796L168 800C125 386 224 194 372 87ZM625 446H549V83C549 -33 588 -58 701 -58H798C913 -58 946 0 966 171L892 186C880 44 869 20 799 20H701C641 20 625 31 625 83ZM831 700C831 478 814 426 788 426C750 426 720 432 678 447V367C724 359 768 354 810 354C884 354 903 416 911 778H552V700Z" transform="translate(0, 880) scale(1,-1)" /></svg>