<svg xmlns="http://www.w3.org/2000/svg" width="1000" height="1000"><path d="M84 -81Q207 -54 271.5 -17.0Q336 20 365.0 81.0Q394 142 402 250H578V39Q578 -2 588.0 -24.0Q598 -46 622.5 -55.0Q647 -64 694 -64H837Q877 -64 899.0 -47.0Q921 -30 931.5 8.0Q942 46 947 118L878 138Q876 78 872.5 51.0Q869 24 860.0 14.5Q851 5 831 5H701Q670 5 661.5 11.0Q653 17 653 39V250H923V325H76V250H325Q319 157 297.0 110.0Q275 63 221.0 36.5Q167 10 54 -13ZM227 436H771V510H227ZM890 487Q911 517 920.0 548.0Q929 579 929 617Q929 679 849.0 709.0Q769 739 617 739Q477 739 358.5 706.5Q240 674 157 618V729H79V495H157V566Q233 613 358.0 636.5Q483 660 617 660Q738 660 792.5 645.0Q847 630 847 610Q847 582 840.5 560.0Q834 538 816 514ZM578 697Q552 771 500 847L424 826Q447 790 468.0 749.5Q489 709 499 677Z" transform="translate(0, 880) scale(1,-1)" /></svg>