<svg xmlns="http://www.w3.org/2000/svg" width="1000" height="1000"><path d="M680 -2Q782 -2 835.0 95.0Q888 192 888 428Q888 614 814.5 700.5Q741 787 582 787Q354 787 131 717L146 643Q379 713 582 713Q705 713 758.0 639.5Q811 566 811 432Q811 257 777.5 165.5Q744 74 680 74Q636 74 583.0 80.5Q530 87 486 100V19Q531 9 583.5 3.5Q636 -2 680 -2ZM139 -23Q305 98 398.0 254.0Q491 410 498 598L418 604Q413 426 327.5 287.0Q242 148 75 32ZM618 341Q544 371 423.5 408.0Q303 445 182 476L146 410Q274 374 394.0 335.5Q514 297 581 266Z" transform="translate(0, 880) scale(1,-1)" /></svg>