<svg xmlns="http://www.w3.org/2000/svg" width="1000" height="1000"><path d="M82 501H165V548Q241 602 364.0 629.5Q487 657 615 657Q729 657 780.5 644.5Q832 632 832 611Q832 566 801 525L883 495Q901 523 909.5 549.5Q918 576 918 612Q918 681 843.0 707.0Q768 733 615 733Q476 733 362.0 698.5Q248 664 165 601V717H82ZM782 -61Q834 -61 860.5 -46.5Q887 -32 899.0 2.5Q911 37 917 106L839 125Q835 72 829.5 48.5Q824 25 811.0 16.0Q798 7 770 7H563Q535 7 521.5 11.5Q508 16 503.0 27.0Q498 38 498 61V832H416V57Q416 9 426.5 -16.0Q437 -41 463.5 -51.0Q490 -61 542 -61ZM121 363 841 389 838 467 118 442ZM101 181 861 208 858 286 98 260Z" transform="translate(0, 880) scale(1,-1)" /></svg>