<svg xmlns="http://www.w3.org/2000/svg" width="1000" height="1000"><path d="M103 774V696H897V774ZM931 52Q788 19 613 19Q514 19 427.0 30.0Q340 41 280 61Q215 84 185.5 148.0Q156 212 152 343L74 330Q76 185 119.0 100.0Q162 15 250 -15Q313 -37 409.5 -49.5Q506 -62 614 -62Q786 -62 931 -31ZM240 143H317V524Q635 540 810 580L762 651Q679 631 536.5 617.5Q394 604 240 597ZM711 32Q803 136 803 273Q803 352 751.5 399.5Q700 447 591 447Q502 447 438.0 425.0Q374 403 317 364V294Q386 334 452.5 352.0Q519 370 591 370Q649 370 686.5 342.0Q724 314 724 273Q724 158 636 63Z" transform="translate(0, 880) scale(1,-1)" /></svg>