<svg xmlns="http://www.w3.org/2000/svg" width="1000" height="1000"><path d="M130 685Q315 689 518.5 710.0Q722 731 887 760L846 833Q708 805 508.0 785.0Q308 765 113 758ZM396 489Q377 530 345.5 582.0Q314 634 285 673L216 643Q245 601 275.5 549.5Q306 498 325 456ZM648 468Q703 536 784 669L706 702Q643 572 583 495ZM700 463H619V13Q619 0 610.0 -8.0Q601 -16 585 -16Q519 -16 419 5V-69Q509 -80 588 -80Q642 -80 671.0 -64.0Q700 -48 700 1ZM87 337H918V408H87ZM520 127Q412 210 290 278L241 222Q370 153 468 71Z" transform="translate(0, 880) scale(1,-1)" /></svg>