<svg xmlns="http://www.w3.org/2000/svg" width="1000" height="1000"><path d="M486 32 517 -14C743 17 919 48 919 159C919 256 819 283 699 264L784 365L732 424C515 424 60 375 60 196C60 129 124 84 193 84C396 84 490 287 550 508H852V578H219V508H468C430 314 329 150 193 150C160 150 137 166 137 196C137 295 533 356 692 356L609 249L655 199C782 219 837 202 837 159C837 103 679 55 486 32ZM518 -89 586 -57C558 -6 503 64 451 117L389 87C440 36 488 -35 518 -89ZM51 563 121 525C199 621 247 721 278 835L202 850C171 736 126 651 51 563ZM200 675H902V750H200Z" transform="translate(0, 880) scale(1,-1)" /></svg>