<svg xmlns="http://www.w3.org/2000/svg" width="1000" height="1000"><path d="M653 -46Q733 -46 793.0 -4.5Q853 37 885.0 105.5Q917 174 917 252Q917 383 827.0 444.0Q737 505 577 505Q477 505 388 481Q441 526 499.5 610.5Q558 695 608 799L519 831Q480 727 421.5 637.0Q363 547 279 467Q269 458 246.0 447.5Q223 437 180 420L156 410L200 349Q291 388 381.5 410.5Q472 433 569 433Q696 433 766.0 391.5Q836 350 836 250Q836 191 813.5 140.0Q791 89 747.5 57.5Q704 26 645 26Q547 26 473 51V-29Q539 -46 653 -46ZM260 60Q308 60 389.0 104.5Q470 149 551.0 211.5Q632 274 680 324L613 372Q572 325 505.0 269.0Q438 213 375.0 174.0Q312 135 279 135Q250 135 239 197L160 183Q175 120 197.5 90.0Q220 60 260 60ZM624 145Q584 189 516.0 244.5Q448 300 390 337L337 290Q391 256 459.5 198.0Q528 140 567 96ZM104 608H896V683H104Z" transform="translate(0, 880) scale(1,-1)" /></svg>