<svg xmlns="http://www.w3.org/2000/svg" width="1000" height="1000"><path d="M88 545Q199 584 330.5 648.5Q462 713 556 777L493 837Q412 778 288.0 714.5Q164 651 60 615ZM662 530Q753 530 799.0 496.0Q845 462 845 411Q845 336 787.5 277.5Q730 219 580 185L607 119Q727 149 796.0 187.5Q865 226 895.5 279.5Q926 333 926 411Q926 500 860.5 553.0Q795 606 662 606Q494 606 357.5 549.0Q221 492 143.5 403.5Q66 315 66 227Q66 151 111.0 111.0Q156 71 232 71Q285 71 335.0 99.5Q385 128 417.0 185.5Q449 243 449 325Q449 430 402.0 504.0Q355 578 251 652L206 607Q297 537 333.5 468.5Q370 400 370 325Q370 268 351.0 228.0Q332 188 300.5 168.0Q269 148 234 148Q189 148 164.5 169.5Q140 191 140 227Q140 293 211.0 364.5Q282 436 402.0 483.0Q522 530 662 530ZM557 -81H634V377H557Z" transform="translate(0, 880) scale(1,-1)" /></svg>