<svg xmlns="http://www.w3.org/2000/svg" width="1000" height="1000"><path d="M280 90C383 90 473 185 473 310V629H389V317C389 224 343 160 280 160C207 160 151 199 151 243C151 322 387 353 581 353C767 353 848 317 848 257C848 218 824 191 783 174L834 131C895 155 934 195 934 258C934 343 823 422 581 422C338 422 67 364 67 241C67 170 155 90 280 90ZM123 -52H877V20H123ZM498 119H716V187H498ZM173 450 348 571 297 621 118 498ZM445 576V505C798 485 887 559 887 662C887 751 800 807 581 807C389 807 212 761 104 699L134 637C236 697 406 736 581 736C730 736 809 709 809 662C809 590 711 556 445 576Z" transform="translate(0, 880) scale(1,-1)" /></svg>