<svg xmlns="http://www.w3.org/2000/svg" width="1000" height="1000"><path d="M820 392Q858 441 876.5 486.0Q895 531 895 592Q895 628 870.0 659.5Q845 691 799.5 709.5Q754 728 695 728Q641 728 599.5 715.5Q558 703 521 680V832H444V648L430 635L467 582Q530 617 584.0 634.5Q638 652 695 652Q749 652 780.5 637.0Q812 622 812 592Q812 545 792.5 504.0Q773 463 734 422ZM275 417Q386 417 460.5 427.5Q535 438 619 469L579 532Q464 488 259 488Q230 488 214.0 500.5Q198 513 198 537Q198 572 211.0 616.5Q224 661 256 710L173 726Q144 672 130.0 620.5Q116 569 116 524Q116 474 157.0 445.5Q198 417 275 417ZM682 -35Q600 70 440 206L387 158Q459 94 522.5 29.5Q586 -35 623 -85ZM244 259H903V332H244ZM279 403Q234 331 180.5 268.5Q127 206 76 163L137 115Q249 213 351 371Z" transform="translate(0, 880) scale(1,-1)" /></svg>