<svg xmlns="http://www.w3.org/2000/svg" width="1000" height="1000"><path d="M59 90H124V745H59ZM187 186H251V745H187ZM283 344H667V408H283ZM536 408Q614 464 614 526Q614 570 575.5 598.5Q537 627 473 627Q404 627 363.5 603.5Q323 580 323 535Q323 496 350.0 470.0Q377 444 422 444Q455 444 479.5 467.5Q504 491 504 517V830H444V535Q444 500 410 500Q398 500 390.0 509.5Q382 519 382 535Q382 574 473 574Q512 574 533.5 560.0Q555 546 555 526Q555 498 537.0 469.0Q519 440 472 408ZM299 675H649V738H299ZM669 -78Q787 24 857.5 204.5Q928 385 936 650L891 674L877 658H721V588H869Q858 374 799.0 226.5Q740 79 623 -24ZM426 -70Q484 -70 535.5 -44.5Q587 -19 618.0 29.5Q649 78 649 145Q649 223 595.0 258.5Q541 294 415 294L377 293V232Q391 233 416 233Q511 233 547.5 212.0Q584 191 584 144Q584 100 561.0 65.5Q538 31 501.0 12.0Q464 -7 426 -7Q369 -7 369 26Q369 60 429.0 98.0Q489 136 609 163L585 219Q494 199 430.0 167.5Q366 136 334.0 99.0Q302 62 302 26Q302 -14 333.5 -42.0Q365 -70 426 -70ZM350 168Q380 203 412.0 254.0Q444 305 464 353L404 371Q386 325 356.5 277.0Q327 229 296 193ZM970 -23Q932 66 865.0 177.5Q798 289 726 390L680 349Q745 257 809.5 140.0Q874 23 917 -75ZM706 431Q757 590 779 811L715 818Q705 703 688.5 616.0Q672 529 646 449Z" transform="translate(0, 880) scale(1,-1)" /></svg>