<svg xmlns="http://www.w3.org/2000/svg" width="1000" height="1000"><path d="M248 -62C294 -62 316 -25 316 33V516H249V44C249 20 242 6 227 6C202 6 169 12 136 24V-51C166 -58 199 -62 248 -62ZM66 141 495 247 475 311 46 210ZM289 411 290 353C390 375 476 452 476 549C476 660 393 699 316 699C265 699 229 686 204 666C241 720 269 758 321 805L248 845C161 725 114 645 93 572C75 508 82 438 109 357L180 374C153 442 141 494 163 557C178 601 226 632 281 632C341 632 397 597 397 548C397 486 376 434 289 411ZM817 548C780 41 803 -61 901 -61C952 -61 974 12 977 117L925 131C923 50 918 16 901 16C878 16 848 103 896 607L840 633L827 622H506V548ZM423 -17 474 -76C668 101 707 383 707 834H635C635 390 606 145 423 -17ZM734 209 764 278C702 321 592 375 503 413L473 353C563 311 676 253 734 209Z" transform="translate(0, 880) scale(1,-1)" /></svg>