<svg xmlns="http://www.w3.org/2000/svg" width="1000" height="1000"><path d="M49 0 103 -69C335 40 557 231 773 428L707 474L679 448H417C476 526 558 661 619 821L537 841C476 672 382 508 262 378L328 337L373 382H614C446 235 285 110 49 0ZM62 494 127 459C197 546 252 694 282 801L206 817C181 712 131 579 62 494ZM648 -54H827C923 -54 941 -22 952 123L877 144C876 33 869 18 834 18H662C628 18 613 34 613 59V300H532V48C532 -28 555 -54 648 -54ZM200 611H924V680H200Z" transform="translate(0, 880) scale(1,-1)" /></svg>