<svg xmlns="http://www.w3.org/2000/svg" width="1000" height="1000"><path d="M84 8Q117 27 183 76L202 91Q219 104 245 104Q260 104 269.0 98.0Q278 92 286.5 71.5Q295 51 306 8L463 114L436 154L336 108Q332 132 319.0 147.5Q306 163 279 170Q344 246 412 353L355 390Q286 283 205.0 202.5Q124 122 45 89ZM475 -80Q532 -80 571.0 -49.0Q610 -18 629.0 33.5Q648 85 646 146Q646 235 595.5 344.5Q545 454 461 549L402 499Q467 431 517.0 328.0Q567 225 567 145Q566 81 544.0 36.5Q522 -8 471 -8Q415 -8 355 14V-68Q402 -80 475 -80ZM962 59Q790 162 454 289L433 223Q590 164 707.5 109.0Q825 54 911 -4ZM581 248Q683 281 746.0 306.0Q809 331 875 369L827 431Q762 392 702.0 365.5Q642 339 556 311ZM644 531Q913 555 913 668Q913 742 835.0 772.0Q757 802 618 802Q489 802 376.0 767.0Q263 732 170 671V784H92V553H170V623Q282 680 385.0 704.0Q488 728 617 728Q723 728 777.0 712.5Q831 697 831 668Q831 609 613 599ZM462 663Q433 587 379.0 536.5Q325 486 256.5 452.5Q188 419 78 380L111 313Q232 360 310.0 400.5Q388 441 448.5 499.0Q509 557 539 639Z" transform="translate(0, 880) scale(1,-1)" /></svg>