<svg xmlns="http://www.w3.org/2000/svg" width="1000" height="1000"><path d="M629 -74Q896 -74 896 358Q896 533 818.0 614.5Q740 696 601 696Q490 696 388.5 675.5Q287 655 218 621L236 552Q305 585 403.5 603.5Q502 622 601 622Q705 622 761.5 550.5Q818 479 818 358Q818 196 769.5 98.0Q721 0 622 0Q485 0 389 37L359 -36Q414 -54 476.5 -64.0Q539 -74 629 -74ZM107 356Q272 529 366 815L290 837Q250 707 187.0 595.5Q124 484 44 408ZM387 536Q356 469 312.5 393.0Q269 317 228 258Q212 234 174 222L197 155L217 166L639 209L624 274L298 245Q334 292 381.5 367.5Q429 443 468 513ZM723 174Q699 226 652.0 296.5Q605 367 557 424L497 388Q541 333 586.5 261.5Q632 190 659 133Z" transform="translate(0, 880) scale(1,-1)" /></svg>