<svg xmlns="http://www.w3.org/2000/svg" width="1000" height="1000"><path d="M50 -18 104 -70C213 -18 337 52 412 126L333 161C276 98 161 25 50 -18ZM70 181H937V255H70ZM880 -68 945 -20C877 35 756 110 656 167L598 122C696 63 815 -12 880 -68ZM385 835 313 844C269 611 342 464 481 378L527 432C403 520 341 626 385 835ZM689 830 618 842C588 550 475 365 288 365C227 365 166 405 166 469C166 607 320 678 528 678C672 678 831 634 831 501C831 371 735 286 559 266L600 206C781 235 903 331 903 498C903 678 737 755 528 755C271 755 92 661 92 469C92 353 198 288 288 288C524 288 650 512 689 830Z" transform="translate(0, 880) scale(1,-1)" /></svg>