<svg xmlns="http://www.w3.org/2000/svg" width="1000" height="1000"><path d="M401 557Q373 704 317 830L240 817Q298 686 320 544ZM67 658H933V727H67ZM673 842Q633 675 568 544L641 529Q708 657 757 834ZM922 365V437H303V365ZM834 505V574H166V505ZM277 305V236H728Q721 191 708.5 174.0Q696 157 668 157Q565 157 467 176V105Q579 90 691 90Q744 90 771.0 142.0Q798 194 809 299L749 315L732 305ZM335 173H262V33Q262 -9 278.5 -31.0Q295 -53 329.0 -61.5Q363 -70 424 -70H761Q820 -70 853.5 -54.5Q887 -39 905.0 -3.5Q923 32 933 97L860 109Q857 61 845.0 37.5Q833 14 812.0 6.5Q791 -1 751 -1H425Q387 -1 368.0 3.0Q349 7 342.0 17.0Q335 27 335 47ZM308 531Q264 388 189.0 284.0Q114 180 29 117L88 57Q173 134 253.5 252.0Q334 370 381 514Z" transform="translate(0, 880) scale(1,-1)" /></svg>