<svg xmlns="http://www.w3.org/2000/svg" width="1000" height="1000"><path d="M806 394Q848 394 872.0 405.0Q896 416 909.5 444.0Q923 472 930 526L865 544Q861 504 855.5 486.0Q850 468 838.5 463.0Q827 458 803 458Q700 458 610.0 509.0Q520 560 461.5 647.0Q403 734 392 837H314Q325 718 393.0 616.5Q461 515 569.5 454.5Q678 394 806 394ZM458 -80H537V441H458ZM316 90Q444 75 555 75Q719 75 812.0 111.0Q905 147 905 221Q905 297 824.5 328.0Q744 359 592 359Q450 359 340.0 336.5Q230 314 131 269L161 213Q258 254 356.5 273.0Q455 292 592 292Q703 292 764.5 274.5Q826 257 826 221Q826 182 758.5 160.0Q691 138 575 138Q463 138 316 161ZM133 53H209V330H133ZM149 404Q364 436 548.0 488.0Q732 540 847 630L779 666Q675 585 487.0 537.0Q299 489 100 468ZM91 635 901 699 893 762 83 701Z" transform="translate(0, 880) scale(1,-1)" /></svg>