<svg xmlns="http://www.w3.org/2000/svg" width="1000" height="1000"><path d="M106 518 484 574 474 638 92 581ZM237 587 300 569C365 624 436 700 487 771L420 800L396 788H116V720H363C330 672 296 637 237 587ZM564 540H894V604H753V818H677V604H564ZM305 252 386 263C366 342 333 425 290 500L214 489C258 413 289 330 305 252ZM67 354H933V422H67ZM534 194 605 183C686 282 742 406 780 520L695 526C664 416 613 296 534 194ZM875 -84 910 -19C694 19 517 45 354 63C511 93 674 126 781 149L751 213L719 206C552 227 429 241 288 253L244 190C402 178 480 172 585 158C489 132 382 111 255 84C225 78 188 85 146 87L102 24C366 -5 622 -40 875 -84Z" transform="translate(0, 880) scale(1,-1)" /></svg>