<svg xmlns="http://www.w3.org/2000/svg" width="1000" height="1000"><path d="M114 -8C389 132 651 342 787 477L725 520L703 499H434C588 585 723 675 853 777L786 831C662 725 497 608 290 495C276 488 257 479 236 475L272 410L315 428H629C550 352 319 175 62 54ZM529 -65C584 -65 633 -57 692 -26V54C630 24 585 9 543 9C520 9 509 13 509 42V259H430V25C430 -39 462 -65 529 -65ZM904 -4 958 58C859 131 757 205 646 275L598 223C706 150 807 74 904 -4ZM383 614 441 669C384 720 306 777 232 822L177 769C255 722 329 668 383 614Z" transform="translate(0, 880) scale(1,-1)" /></svg>