<svg xmlns="http://www.w3.org/2000/svg" width="1000" height="1000"><path d="M788 397C751 397 723 403 695 413V347C720 340 750 335 799 335C899 335 919 407 939 623L879 639L865 626H715C742 697 763 747 770 815H110V746H343C306 593 263 517 55 411L109 354C329 473 380 580 421 746H682C669 698 650 653 630 619L660 566H854C850 460 829 397 788 397ZM446 -75C514 -74 549 -61 549 13V300C623 345 702 396 765 448L706 489L690 482H266V413H613C569 382 520 354 473 331V25C473 8 462 -6 441 -7C401 -9 346 -3 290 17V-59C341 -69 396 -76 446 -75ZM939 171 959 242C738 272 444 273 55 241V176C439 206 734 199 939 171Z" transform="translate(0, 880) scale(1,-1)" /></svg>