<svg xmlns="http://www.w3.org/2000/svg" width="1000" height="1000"><path d="M82 573H165V618C272 696 456 729 615 729C776 729 832 708 832 682C832 652 825 629 806 605L888 576C909 608 918 634 918 683C918 783 802 804 615 804C425 804 272 755 165 672V790H82ZM93 381H913V451H93ZM345 454 421 480C404 527 365 599 323 653L253 629C293 575 331 501 345 454ZM652 435C691 492 731 568 759 629L674 654C654 593 618 511 580 454ZM818 -76C865 -14 893 43 893 132C893 207 816 274 695 274C614 274 564 254 518 224V352H446V190L430 177L467 122C545 167 615 195 695 195C763 195 812 176 812 132C812 65 785 10 734 -45ZM275 -60C417 -60 503 -50 619 -6L579 59C482 21 362 14 259 14C221 14 198 31 198 64C198 103 208 169 256 245L175 261C134 183 118 109 118 51C118 -18 170 -60 275 -60Z" transform="translate(0, 880) scale(1,-1)" /></svg>