<svg xmlns="http://www.w3.org/2000/svg" width="1000" height="1000"><path d="M900 487Q921 517 930.0 548.0Q939 579 939 617Q939 739 617 739Q476 739 352.5 706.5Q229 674 147 618V729H69V495H147V566Q222 613 352.0 636.5Q482 660 617 660Q745 660 801.0 645.5Q857 631 857 610Q857 582 850.5 560.0Q844 538 826 514ZM578 697Q552 771 500 847L424 826Q447 790 468.0 749.5Q489 709 499 677ZM194 454H806V530H194ZM661 50Q724 132 772.0 207.5Q820 283 868 370L792 403Q749 316 703.0 240.5Q657 165 597 89ZM55 -56H945V22H55ZM375 90Q283 276 200 401L131 360Q223 227 311 52ZM458 488V-14H542V488Z" transform="translate(0, 880) scale(1,-1)" /></svg>