<svg xmlns="http://www.w3.org/2000/svg" width="1000" height="1000"><path d="M56 165H944V233H56ZM650 211Q703 237 737.0 268.0Q771 299 771 330Q771 380 710.0 415.0Q649 450 517 450Q429 450 365.0 436.5Q301 423 267.5 400.0Q234 377 234 350Q234 306 279.0 284.0Q324 262 402 262Q498 262 546.0 297.5Q594 333 594 411V682H517V420Q517 365 487.5 343.5Q458 322 402 322Q313 322 313 350Q313 366 364.0 377.0Q415 388 517 388Q609 388 649.0 369.5Q689 351 689 328Q689 306 656.0 274.0Q623 242 565 211ZM85 481H915V546H85ZM98 565Q320 692 444 826L364 853Q302 782 218.5 719.0Q135 656 43 611ZM537 733Q426 651 301 598L357 555Q438 597 531.0 656.0Q624 715 688 763L632 799L613 792H313V733ZM109 -80Q321 25 417 125L333 152Q291 103 212.5 51.5Q134 0 50 -35ZM945 -37Q896 3 816.0 56.5Q736 110 656 157L593 120Q800 -9 875 -77Z" transform="translate(0, 880) scale(1,-1)" /></svg>