<svg xmlns="http://www.w3.org/2000/svg" width="1000" height="1000"><path d="M436 837Q395 775 332.0 700.0Q269 625 207 561Q184 538 133 524L165 450L192 461L761 512L741 586L294 550Q351 605 418.5 679.0Q486 753 533 816ZM869 477Q837 527 773.5 596.5Q710 666 642 726L572 686Q633 631 695.5 559.0Q758 487 794 431ZM101 -79Q294 -30 389.0 40.5Q484 111 513.0 205.0Q542 299 542 454H458Q458 315 434.5 236.5Q411 158 326.5 99.0Q242 40 61 -3ZM73 248H922V324H73ZM933 -11Q873 29 780.0 74.5Q687 120 600 152L550 87Q634 55 724.5 7.0Q815 -41 880 -83Z" transform="translate(0, 880) scale(1,-1)" /></svg>