<svg xmlns="http://www.w3.org/2000/svg" width="1000" height="1000"><path d="M373 649Q353 689 319.0 741.5Q285 794 253 834L176 810Q208 767 240.5 714.5Q273 662 294 622ZM670 613Q729 678 819 811L733 837Q661 708 597 634ZM60 620V540H935V620ZM635 -79Q685 -79 719.0 -56.0Q753 -33 773.0 34.5Q793 102 793 229Q793 348 739.0 400.5Q685 453 606 453Q546 453 499.5 445.5Q453 438 412 423L435 355Q507 381 606 381Q654 381 681.5 341.0Q709 301 709 230Q709 102 686.5 46.0Q664 -10 625 -10Q594 -10 557.0 -3.5Q520 3 487 15V-64Q567 -79 635 -79ZM204 168 586 213 574 285 284 254Q329 336 362.0 412.0Q395 488 415 568L326 574Q307 489 278.0 409.0Q249 329 216 274Q205 254 197.5 246.5Q190 239 181 235Z" transform="translate(0, 880) scale(1,-1)" /></svg>