<svg xmlns="http://www.w3.org/2000/svg" width="1000" height="1000"><path d="M689 -48Q811 -48 873.5 76.0Q936 200 936 414Q936 615 846.5 707.5Q757 800 578 800Q461 800 380.0 787.5Q299 775 254 755L274 683Q362 723 580 723Q727 723 792.5 647.5Q858 572 858 414Q858 302 837.5 215.0Q817 128 779.0 79.5Q741 31 689 31Q636 31 561.5 97.0Q487 163 432.0 252.0Q377 341 377 402Q377 449 408.5 473.5Q440 498 501 498Q558 498 589.5 474.0Q621 450 621 412Q621 365 566.0 308.5Q511 252 394 195L430 154Q704 268 704 412Q704 494 647.0 535.5Q590 577 501 577Q449 577 403.0 557.0Q357 537 328.5 497.5Q300 458 300 402Q300 324 360.5 216.0Q421 108 511.5 30.0Q602 -48 689 -48ZM411 -26V46H219Q159 46 159 128V470Q159 532 169.5 596.5Q180 661 201 694L122 713Q83 636 83 470V123Q83 49 116.0 11.5Q149 -26 207 -26Z" transform="translate(0, 880) scale(1,-1)" /></svg>