<svg xmlns="http://www.w3.org/2000/svg" width="1000" height="1000"><path d="M318 702 392 734C376 768 345 819 316 855L246 827C274 792 304 737 318 702ZM675 692C703 732 739 790 760 829L684 853C667 813 636 757 611 717ZM568 332C777 332 867 392 867 472C867 568 774 607 578 607C451 607 369 590 281 548C309 575 368 632 415 685L329 703C280 635 176 520 107 459L180 433C201 454 223 473 256 491C340 534 452 549 578 548C711 547 787 524 787 472C787 426 736 394 568 394C480 394 378 403 306 409V342C378 336 455 332 568 332ZM425 272C475 317 523 374 563 440L484 459C445 374 385 313 311 261C281 253 254 248 212 239L233 182C331 202 428 217 574 217C705 217 731 198 731 175C731 114 472 -15 267 -15C200 -15 170 1 170 33C170 59 199 81 291 81C452 81 636 -40 898 -97L935 -35C663 22 477 145 291 145C166 145 91 106 91 32C91 -36 147 -82 265 -82C539 -82 814 79 814 175C814 262 708 295 425 272ZM98 724V654H902V724ZM113 141C152 197 187 283 206 353L125 361C110 295 79 214 42 159ZM885 133 966 149C952 210 923 298 887 366L812 353C846 283 874 194 885 133Z" transform="translate(0, 880) scale(1,-1)" /></svg>