<svg xmlns="http://www.w3.org/2000/svg" width="1000" height="1000"><path d="M107 720V-23H182V720ZM264 700V630H701V700ZM241 529V458H715V529ZM443 247H516V815H443ZM771 -54Q757 16 734.0 91.0Q711 166 685 230L620 205Q644 144 666.0 68.0Q688 -8 701 -79ZM795 423Q683 423 541.5 346.5Q400 270 249 128L296 67Q378 152 474.0 216.5Q570 281 656.0 315.5Q742 350 795 350Q832 350 851.0 328.0Q870 306 870 274Q870 214 823.5 167.5Q777 121 689 101L711 45Q823 73 882.0 126.5Q941 180 941 274Q941 341 904.5 382.0Q868 423 795 423Z" transform="translate(0, 880) scale(1,-1)" /></svg>