<svg xmlns="http://www.w3.org/2000/svg" width="1000" height="1000"><path d="M125 341Q143 376 159.0 431.0Q175 486 185 541L117 548Q109 499 94.0 446.5Q79 394 61 360ZM84 622H577V691H84ZM567 355Q545 466 509 551L443 539Q461 493 475.0 439.0Q489 385 497 340ZM306 96Q342 151 376.5 213.5Q411 276 434 327L383 384L360 377H289Q324 454 354.5 570.0Q385 686 408 814L330 822Q309 695 275.5 568.0Q242 441 203 363L243 295L265 306H347Q310 206 247 113ZM926 469Q856 572 726 695L673 650Q781 546 865 415ZM722 333Q634 333 523.5 288.5Q413 244 306.5 170.5Q200 97 121 12L184 -44Q258 40 359.5 109.5Q461 179 559.0 218.5Q657 258 722 258Q790 258 817.5 233.0Q845 208 845 159Q836 100 781.0 60.0Q726 20 622 4L667 -78Q799 -35 860.5 20.0Q922 75 922 159Q922 244 874.5 288.5Q827 333 722 333Z" transform="translate(0, 880) scale(1,-1)" /></svg>