<svg xmlns="http://www.w3.org/2000/svg" width="1000" height="1000"><path d="M103 -79Q253 -4 412.0 116.0Q571 236 773 410L707 452L679 430H427Q528 482 634.5 557.5Q741 633 883 747L810 793Q543 561 202 392L258 335L313 365H614Q476 251 342.0 160.5Q208 70 49 -9ZM823 -64Q866 -64 891.5 -45.0Q917 -26 930.5 15.0Q944 56 952 127L879 147Q876 92 872.0 63.5Q868 35 858.5 22.0Q849 9 832 9H662Q637 9 625.0 20.0Q613 31 613 51V296H532V39Q532 -1 542.0 -23.0Q552 -45 576.5 -54.5Q601 -64 648 -64ZM356 573Q327 615 275.0 670.0Q223 725 171 771L113 729Q162 684 213.0 627.0Q264 570 294 528ZM459 488H535V840H459Z" transform="translate(0, 880) scale(1,-1)" /></svg>