<svg xmlns="http://www.w3.org/2000/svg" width="1000" height="1000"><path d="M671 -80Q720 -80 743.5 -60.5Q767 -41 767 9L768 513Q857 615 930 750L871 793L860 782Q678 782 550.0 745.0Q422 708 326 637Q213 554 140.0 434.5Q67 315 67 185Q67 121 88.5 65.5Q110 10 145.0 -23.0Q180 -56 219 -56Q294 -56 343.5 -1.5Q393 53 418.0 174.5Q443 296 443 496Q443 606 438 697H368Q375 569 375 497Q375 260 333.5 140.5Q292 21 219 21Q182 21 161.0 75.0Q140 129 140 194Q140 309 200.5 401.5Q261 494 363 573Q451 642 555.5 677.5Q660 713 815 713Q794 669 761.0 621.0Q728 573 691 531V21Q691 8 683.5 -1.0Q676 -10 664 -11Q609 -15 547 13V-57Q608 -80 671 -80ZM384 177Q310 242 269.0 343.5Q228 445 228 625Q228 712 236 796L165 800Q156 701 156 621Q156 419 206.5 301.0Q257 183 349 114ZM967 406Q884 422 768 422Q640 422 489 402V330Q612 345 732 345Q858 345 956 327Z" transform="translate(0, 880) scale(1,-1)" /></svg>