<svg xmlns="http://www.w3.org/2000/svg" width="1000" height="1000"><path d="M192 461H808V528H192ZM893 511C917 553 928 585 928 633C928 718 812 753 617 753C426 753 263 708 156 633V739H78V529H156V584C263 654 453 685 617 685C784 685 846 656 846 632C846 599 838 569 814 539ZM491 697 566 718C552 760 534 807 508 852L436 831C462 788 480 743 491 697ZM103 -69C315 29 539 168 759 324L693 366L665 350H387C445 410 519 511 589 633L507 648C446 523 327 380 229 309L283 259L319 288H590C471 204 276 92 56 -3ZM638 -57H827C913 -57 941 -18 952 105L876 121C871 26 864 14 829 14H652C618 14 603 27 603 46V225H522V34C522 -27 545 -57 638 -57Z" transform="translate(0, 880) scale(1,-1)" /></svg>