<svg xmlns="http://www.w3.org/2000/svg" width="1000" height="1000"><path d="M565 363Q646 363 710.0 388.0Q774 413 809.5 456.5Q845 500 845 555Q845 661 776.0 715.5Q707 770 570 770Q411 770 280 677Q297 701 313.0 731.5Q329 762 353 812L274 835Q223 696 113 560L190 527Q209 554 224.5 573.5Q240 593 260 608Q317 652 398.0 676.5Q479 701 565 701Q661 701 712.5 664.5Q764 628 764 557Q764 499 708.5 464.5Q653 430 565 430Q472 430 362 451V378Q449 363 565 363ZM0.0 0.0Q0 0 0.0 0.0Q0 0 0.0 0.0ZM87 -77Q300 6 413.0 162.5Q526 319 564 567L492 575Q453 353 347.0 206.5Q241 60 50 -13ZM793 -61Q835 -61 857.5 -41.5Q880 -22 890.0 15.0Q900 52 904 114L827 124Q825 71 821.5 48.5Q818 26 809.0 18.5Q800 11 781 11H621Q597 11 590.0 21.0Q583 31 583 66V308H510V67Q510 16 519.0 -11.0Q528 -38 550.5 -49.5Q573 -61 615 -61ZM133 187Q158 226 182.5 284.5Q207 343 226 402L145 418Q134 369 110.5 311.5Q87 254 62 215ZM946 202Q929 267 910.5 322.0Q892 377 867 422L792 400Q834 319 865 179Z" transform="translate(0, 880) scale(1,-1)" /></svg>