<svg xmlns="http://www.w3.org/2000/svg" width="1000" height="1000"><path d="M90 413H173V772H90ZM243 430Q321 421 383 421Q679 421 679 622Q679 707 612.0 753.5Q545 800 432 800Q343 800 277.0 771.5Q211 743 173 697V620Q270 731 432 731Q590 731 590 622Q590 552 541.0 519.5Q492 487 382 487Q323 487 243 496ZM305 -62Q348 -62 372.0 -35.0Q396 -8 396 39V614H321V51Q321 32 313.5 21.0Q306 10 293 10Q234 10 175 31V-50Q226 -62 305 -62ZM647 393Q552 393 395.5 331.5Q239 270 37 177L61 107L87 119Q268 204 416.0 262.5Q564 321 649 321Q696 321 718.0 287.0Q740 253 740 164Q740 74 723.5 35.0Q707 -4 674 -5Q642 -6 614.0 -0.5Q586 5 556 19V-61Q611 -76 677 -74Q748 -72 780.0 -15.5Q812 41 812 168Q812 254 796.0 302.5Q780 351 744.5 372.0Q709 393 647 393ZM530 42Q560 82 589.0 139.5Q618 197 637 257L568 266Q549 210 522.0 158.5Q495 107 464 70ZM981 70Q969 116 946.0 176.0Q923 236 897 284L828 267Q852 218 873.5 156.5Q895 95 907 48Z" transform="translate(0, 880) scale(1,-1)" /></svg>