<svg xmlns="http://www.w3.org/2000/svg" width="1000" height="1000"><path d="M104 -77Q318 7 439.5 171.0Q561 335 604.5 511.0Q648 687 644 831H561Q560 685 520.5 527.0Q481 369 366.5 220.0Q252 71 46 -8ZM959 -15Q838 99 721.0 189.0Q604 279 477 355L440 285Q544 221 647.0 137.5Q750 54 900 -80ZM62 351H938V433H62ZM251 497Q239 553 211.0 633.5Q183 714 152 782L81 758Q112 685 138.5 603.5Q165 522 175 467ZM449 546Q429 655 383 766L312 744Q354 643 377 517ZM787 461Q834 556 914 766L830 799Q811 726 780.0 638.5Q749 551 721 491Z" transform="translate(0, 880) scale(1,-1)" /></svg>