<svg xmlns="http://www.w3.org/2000/svg" width="1000" height="1000"><path d="M348 519 421 552C376 626 308 720 245 794L177 755C243 679 304 590 348 519ZM530 555 587 515C720 610 760 655 760 714C760 780 710 825 618 825C501 825 385 769 277 681L323 641C420 715 529 750 618 750C653 750 670 733 670 714C670 679 638 629 530 555ZM354 52 416 25C512 83 645 168 715 222L655 278L635 271H406C451 324 489 377 525 448L442 455C406 380 360 316 296 250L343 195L372 207H575C524 161 441 103 354 52ZM875 -86 905 -15C645 37 387 76 141 104L102 37C366 3 622 -35 875 -86ZM82 419H914V491H82Z" transform="translate(0, 880) scale(1,-1)" /></svg>