<svg xmlns="http://www.w3.org/2000/svg" width="1000" height="1000"><path d="M128 543 171 550 800 575 792 641 302 622Q455 711 568 828L487 847Q428 782 339.5 717.5Q251 653 186 620Q151 602 106 592ZM892 566Q816 647 715 717L655 678Q737 620 826 525ZM286 387Q263 438 184 517L119 487Q145 460 173.0 422.5Q201 385 219 355ZM554 399Q537 455 470 540L402 516Q427 482 449.5 443.0Q472 404 482 374ZM760 361Q830 429 880 502L805 531Q787 497 757.0 455.5Q727 414 696 379ZM456 -79Q506 -79 528.5 -58.0Q551 -37 551 9V372H472V21Q472 8 463.0 -0.5Q454 -9 438 -9Q381 -9 301 13V-67Q382 -79 456 -79ZM115 -20Q180 14 243.0 61.0Q306 108 347 157L274 190Q237 146 178.5 104.5Q120 63 57 36ZM62 228H942V302H62ZM941 27Q907 60 839.5 105.5Q772 151 706 189L650 142Q714 105 780.5 57.5Q847 10 882 -23Z" transform="translate(0, 880) scale(1,-1)" /></svg>