<svg xmlns="http://www.w3.org/2000/svg" width="1000" height="1000"><path d="M553 -85C735 -61 878 -33 878 108C878 201 757 251 636 238C563 230 487 206 405 175C431 202 442 235 442 274C442 353 408 416 329 416C260 416 208 366 208 292C208 211 260 171 321 171C344 171 354 179 368 191C339 146 316 129 62 7L134 -63C264 28 436 125 578 151C717 176 794 159 794 101C794 17 644 -5 524 -14ZM330 240C301 240 277 260 277 293C277 329 301 349 328 349C352 349 372 331 373 305C374 259 357 240 330 240ZM434 319V453H669V524H434V594H365V524H75V453H365V374ZM162 618 239 643C229 687 196 756 162 808L88 786C121 734 153 662 162 618ZM369 639 449 656C445 701 425 774 400 828L324 813C348 758 366 683 369 639ZM845 310 929 337C911 421 875 526 839 593L767 562C804 492 832 395 845 310ZM616 609C650 658 694 734 729 801L640 824C620 767 579 682 546 631Z" transform="translate(0, 880) scale(1,-1)" /></svg>