<svg xmlns="http://www.w3.org/2000/svg" width="1000" height="1000"><path d="M798 -80Q838 -80 859.0 -61.0Q880 -42 880 5V612Q880 681 862.5 719.5Q845 758 804.0 775.0Q763 792 689 792H431Q352 792 299.5 784.5Q247 777 204 762V692Q253 708 303.0 715.0Q353 722 425 722H684Q751 722 778.0 696.0Q805 670 805 608V9Q805 -4 799.0 -9.5Q793 -15 780 -15Q715 -15 646 7V-69Q712 -80 798 -80ZM106 -76Q159 0 184.0 89.5Q209 179 215.5 265.0Q222 351 222 468V792H148V468Q148 361 141.5 280.0Q135 199 111.0 115.5Q87 32 38 -40ZM420 77Q479 63 527 63Q609 63 659.5 97.5Q710 132 710 189Q710 255 662.0 288.0Q614 321 529 321Q463 321 399.5 294.0Q336 267 292 217L346 170Q418 258 529 258Q586 258 610.0 242.0Q634 226 634 189Q634 160 607.0 143.5Q580 127 531 127Q494 127 441 138ZM313 375H703V437H313ZM467 437H539V662H467ZM288 519H728V581H288Z" transform="translate(0, 880) scale(1,-1)" /></svg>