<svg xmlns="http://www.w3.org/2000/svg" width="1000" height="1000"><path d="M181 507 259 484C330 554 407 664 447 752L382 798L355 792H73V720H340C309 644 253 576 181 507ZM429 338C429 470 319 508 149 524V451C285 437 343 394 343 338C343 210 234 91 72 -8L133 -72C325 47 429 196 429 338ZM428 48 452 -34 479 -17 864 54 858 126 546 75C608 236 689 502 747 767L662 787C610 520 530 240 483 126C465 83 445 61 428 48ZM872 -69 947 -38C918 70 874 201 821 322L750 293C802 170 842 37 872 -69Z" transform="translate(0, 880) scale(1,-1)" /></svg>