<svg xmlns="http://www.w3.org/2000/svg" width="1000" height="1000"><path d="M573 -85Q683 -71 749.5 -53.0Q816 -35 857.0 3.0Q898 41 898 108Q898 169 846.5 204.5Q795 240 703 240Q559 240 390.5 181.5Q222 123 42 21L95 -49Q237 42 410.5 102.0Q584 162 708 162Q760 162 787.0 146.5Q814 131 814 101Q814 45 737.5 20.0Q661 -5 544 -14ZM929 357Q915 421 890.5 492.5Q866 564 839 613L767 582Q794 531 814.5 463.5Q835 396 845 330ZM428 129V824H347V129ZM115 460H639V533H115ZM115 295H639V368H115ZM75 640H679V714H75Z" transform="translate(0, 880) scale(1,-1)" /></svg>