<svg xmlns="http://www.w3.org/2000/svg" width="1000" height="1000"><path d="M759 241Q839 266 877.5 313.0Q916 360 916 433Q916 543 830.0 603.5Q744 664 562 664Q434 664 338.5 639.0Q243 614 188 579V511Q253 554 347.0 578.5Q441 603 562 603Q700 603 767.5 555.0Q835 507 835 433Q835 383 808.0 351.0Q781 319 726 302ZM112 251H188V624H112ZM343 257H420L419 835H343ZM226 333H780V394H226ZM235 456H771V517H235ZM581 257H657L656 835H581ZM114 693Q323 696 539.0 707.5Q755 719 909 740L865 803Q733 783 518.0 770.5Q303 758 94 756ZM101 -83Q296 -52 390.5 -10.0Q485 32 514.5 89.0Q544 146 544 243H456Q456 156 433.5 112.0Q411 68 328.0 37.0Q245 6 61 -21ZM73 114H922V178H73ZM933 -28Q873 -2 780.0 27.5Q687 57 600 77L550 26Q634 5 725.0 -25.5Q816 -56 880 -83Z" transform="translate(0, 880) scale(1,-1)" /></svg>