<svg xmlns="http://www.w3.org/2000/svg" width="1000" height="1000"><path d="M459 -50C743 -41 918 14 918 150C918 232 858 298 705 286L855 457L782 519C394 521 53 398 53 238C53 155 99 103 193 103C278 103 339 149 406 230C497 333 665 554 773 712L713 755L694 752H339V679H653C586 577 413 353 326 255C300 223 245 177 198 177C161 177 133 198 133 238C133 334 417 446 753 446C711 389 657 332 585 265L634 208C766 229 836 202 836 150C836 76 667 26 442 26ZM133 457C266 569 350 673 447 823L373 850C291 709 196 604 77 513Z" transform="translate(0, 880) scale(1,-1)" /></svg>