<svg xmlns="http://www.w3.org/2000/svg" width="1000" height="1000"><path d="M103 -69Q381 74 769 428L703 474L675 448H363Q426 511 492.0 610.0Q558 709 609 824L527 844Q482 726 390.5 601.5Q299 477 209 409L259 346L305 382H610Q506 290 353.0 181.5Q200 73 51 -3ZM827 -54Q872 -54 896.5 -39.0Q921 -24 933.5 15.5Q946 55 952 133L879 154Q876 91 872.0 63.5Q868 36 859.5 27.0Q851 18 832 18H662Q613 18 613 59V303H532V48Q532 9 542.0 -13.0Q552 -35 576.5 -44.5Q601 -54 648 -54ZM70 605H934V684H70Z" transform="translate(0, 880) scale(1,-1)" /></svg>