<svg xmlns="http://www.w3.org/2000/svg" width="1000" height="1000"><path d="M408 441 468 410C571 444 672 508 672 575C672 620 620 669 504 669C383 669 342 622 342 582C342 536 406 495 548 495C768 495 891 565 891 671C891 755 788 812 558 812C348 812 182 768 86 727L124 662C222 702 396 740 558 740C717 740 802 712 802 671C802 597 720 551 548 551C462 551 424 561 424 582C424 601 448 614 504 614C556 614 588 600 588 575C588 513 518 480 408 441ZM154 301V235H357V301ZM104 484V-32H177V484ZM67 -24 94 -84 370 50 343 110ZM389 4 454 -14C509 50 561 114 617 206L565 238L553 230H466C499 289 526 371 547 464L480 469C459 367 425 260 371 184L428 164L442 175H516C490 126 447 63 389 4ZM311 313H672V373H311ZM319 -10 346 -69 664 55 633 113ZM686 246 732 194C808 233 881 276 941 321L893 366C835 321 763 281 686 246ZM789 -66H837C925 -66 943 -17 953 113L890 130C884 23 878 3 829 3H804C763 3 752 15 752 52V474H683V61C683 -39 701 -66 789 -66Z" transform="translate(0, 880) scale(1,-1)" /></svg>