<svg xmlns="http://www.w3.org/2000/svg" width="1000" height="1000"><path d="M504 -81Q600 -81 678.0 -49.0Q756 -17 800.5 39.5Q845 96 845 167Q845 262 759.5 314.0Q674 366 538 366Q431 366 339 328Q392 403 429.5 524.5Q467 646 502 830L420 840Q396 704 375.5 614.5Q355 525 323.5 445.0Q292 365 245 295Q238 284 193 247Q179 237 151 213L217 163Q290 227 364.0 259.0Q438 291 538 291Q634 291 693.0 259.5Q752 228 752 167Q752 117 723.0 75.5Q694 34 636.5 9.0Q579 -16 495 -16Q445 -16 418.5 4.5Q392 25 392 57Q392 79 409.0 95.0Q426 111 454 111Q501 111 536.0 80.5Q571 50 583 -13L659 9Q629 91 579.5 133.5Q530 176 453 176Q410 176 377.0 159.5Q344 143 326.5 115.0Q309 87 309 55Q309 -5 361.0 -43.0Q413 -81 504 -81ZM62 461H929V535H62ZM126 641H750V715H126ZM929 603Q915 657 890.5 717.0Q866 777 839 819L767 793Q794 750 814.5 693.0Q835 636 845 580Z" transform="translate(0, 880) scale(1,-1)" /></svg>