<svg xmlns="http://www.w3.org/2000/svg" width="1000" height="1000"><path d="M513 741H131V470Q131 324 112.5 199.0Q94 74 35 -23L101 -60Q207 113 207 470V668H943V741H598L548 845L473 827ZM401 330Q500 322 566 322Q730 322 803.5 360.0Q877 398 877 470Q877 535 812.0 570.0Q747 605 594 605Q489 605 399.0 587.5Q309 570 250 543L284 479Q341 506 420.0 521.5Q499 537 594 537Q692 537 745.0 519.5Q798 502 798 470Q798 432 748.5 409.0Q699 386 594 386Q517 386 401 401ZM240 -46H909V21H240ZM667 21Q757 74 757 154Q757 213 705.5 244.0Q654 275 569 275Q488 275 434.5 247.5Q381 220 381 170Q381 116 418.0 88.5Q455 61 522 61Q564 61 588.5 83.5Q613 106 613 143V481H540V167Q540 142 532.5 132.0Q525 122 507 122Q482 122 464.5 134.5Q447 147 447 170Q447 189 480.0 202.0Q513 215 569 215Q620 215 654.0 196.0Q688 177 688 151Q688 118 668.0 88.5Q648 59 596 21Z" transform="translate(0, 880) scale(1,-1)" /></svg>