<svg xmlns="http://www.w3.org/2000/svg" width="1000" height="1000"><path d="M484 746H94V674H906V746H569L523 845L448 827ZM434 327 491 297C593 326 690 384 690 444C690 478 641 522 527 522C407 522 368 480 368 449C368 419 430 376 570 376C785 376 906 423 906 507C906 575 849 631 631 631C425 631 292 596 198 559L237 506C332 542 473 571 631 571C779 571 819 531 819 507C819 448 739 426 570 426C485 426 449 434 449 449C449 465 472 476 527 476C577 476 609 466 609 444C609 389 542 362 434 327ZM32 -31 90 -85C224 -6 227 60 227 158V245C288 261 339 266 421 266H738C786 266 813 250 813 225V0C813 -14 803 -20 790 -20C761 -20 722 -15 674 -4V-71C717 -82 757 -85 791 -85C858 -85 887 -70 887 -10V253C887 303 843 334 742 334H419C336 334 286 326 224 309V330H153V158C153 81 143 21 32 -31ZM335 154H705V221H335ZM558 3V312H482L484 10C484 -2 481 -7 466 -7C433 -7 397 -3 351 6V-62C396 -67 435 -70 472 -70C542 -70 558 -48 558 3ZM335 45H705V121H335ZM44 329 113 282C198 402 271 549 328 697L260 727C204 579 131 440 44 329Z" transform="translate(0, 880) scale(1,-1)" /></svg>