<svg xmlns="http://www.w3.org/2000/svg" width="1000" height="1000"><path d="M103 -69Q261 5 418.5 126.5Q576 248 773 428L707 474L679 448H417Q468 515 522.5 612.5Q577 710 619 821L537 841Q490 711 420.0 592.5Q350 474 262 378L328 337L373 382H614Q470 256 341.0 166.0Q212 76 49 0ZM127 459Q175 519 215.5 613.0Q256 707 282 801L206 817Q185 729 147.5 641.0Q110 553 62 494ZM827 -54Q876 -54 900.5 -40.0Q925 -26 935.5 10.5Q946 47 952 123L877 144Q876 87 873.0 61.0Q870 35 861.5 26.5Q853 18 834 18H662Q613 18 613 59V300H532V48Q532 9 542.0 -13.0Q552 -35 576.5 -44.5Q601 -54 648 -54ZM200 611H924V680H200Z" transform="translate(0, 880) scale(1,-1)" /></svg>