<svg xmlns="http://www.w3.org/2000/svg" width="1000" height="1000"><path d="M205 379C356 379 641 517 784 755L727 800L701 789H153V720H667C539 546 305 451 205 451C162 451 143 468 143 498C143 531 205 563 296 563C489 563 612 543 926 484L947 554C634 611 494 637 296 637C154 637 65 571 65 498C65 418 124 379 205 379ZM145 67H221V340H145ZM512 -82H595V450H512ZM343 165V93C759 47 925 109 925 241C925 335 780 375 617 375C448 375 314 332 160 251L193 192C351 275 474 305 617 305C746 305 842 285 842 241C842 174 742 111 343 165Z" transform="translate(0, 880) scale(1,-1)" /></svg>