<svg xmlns="http://www.w3.org/2000/svg" width="1000" height="1000"><path d="M458 134C553 134 615 194 615 435C615 640 527 755 375 755C264 755 191 722 151 683V615C196 648 273 681 375 681C463 681 543 601 543 435C543 258 505 211 458 211C428 211 405 263 405 325C405 540 518 696 674 696C781 696 811 598 811 436C811 143 776 5 691 5C634 5 575 14 518 34V-52C578 -65 632 -70 697 -70C833 -70 889 53 889 436C889 653 842 776 674 776C498 776 332 629 332 325C332 206 396 134 458 134ZM133 774V-52H211V774ZM50 420V340H950V420Z" transform="translate(0, 880) scale(1,-1)" /></svg>