<svg xmlns="http://www.w3.org/2000/svg" width="1000" height="1000"><path d="M409 573 373 637C196 534 54 350 54 168C54 37 127 -56 211 -56C375 -56 448 138 423 697H352C378 236 322 21 211 21C158 21 127 92 127 168C127 333 253 480 409 573ZM329 87 362 153C260 244 187 410 220 796L148 800C109 386 199 194 329 87ZM419 -21 485 -60C568 101 581 338 581 501V713H943V787H506V501C506 347 497 132 419 -21ZM560 481 564 418C613 481 690 529 776 529C843 529 871 493 871 453C871 394 840 348 788 306H641V235H938V306H839C878 332 938 380 938 453C938 538 891 607 776 607C673 607 603 546 560 481Z" transform="translate(0, 880) scale(1,-1)" /></svg>