<svg xmlns="http://www.w3.org/2000/svg" width="1000" height="1000"><path d="M104 -80Q201 102 201 469V668H948V741H598L548 845L473 827L513 741H126V468Q126 316 108.5 185.0Q91 54 37 -46ZM622 413Q752 413 801.0 374.0Q850 335 850 269Q850 196 799.5 160.5Q749 125 656 125Q506 125 386 142V76Q509 64 656 64Q745 64 805.5 91.0Q866 118 895.5 164.0Q925 210 925 269Q925 328 901.5 373.0Q878 418 809.0 446.5Q740 475 611 475Q741 513 866 564L815 613L784 604H270V537H659Q621 521 573.5 506.0Q526 491 452 471Q310 433 238 407L268 346Q425 413 622 413ZM487 162Q475 260 431 373L362 359Q403 262 414 149ZM267 230H828V292H267ZM605 -19Q644 69 672.0 165.5Q700 262 724 373L649 380Q614 178 540 -6ZM236 -57H903V9H236Z" transform="translate(0, 880) scale(1,-1)" /></svg>