<svg xmlns="http://www.w3.org/2000/svg" width="1000" height="1000"><path d="M103 -60Q209 124 209 501V709H933V787H131V501Q131 346 112.5 213.5Q94 81 35 -21ZM707 -70Q790 -70 835.5 -13.0Q881 44 881 139Q881 200 826.5 300.5Q772 401 677 534L612 492Q700 372 748.0 284.5Q796 197 796 139Q796 68 766.0 36.5Q736 5 669 5Q601 5 519 40V-47Q560 -60 604.5 -65.0Q649 -70 707 -70ZM252 -72Q396 40 476.5 135.5Q557 231 610 353L538 386Q484 270 405.5 176.5Q327 83 194 -16ZM274 484H936V562H274Z" transform="translate(0, 880) scale(1,-1)" /></svg>