<svg xmlns="http://www.w3.org/2000/svg" width="1000" height="1000"><path d="M311 637C158 534 34 350 34 168C34 37 97 -56 170 -56C313 -56 376 138 355 697H293C316 236 267 21 170 21C125 21 97 92 97 168C97 333 207 480 342 573ZM273 87 302 153C213 244 149 410 179 796L115 800C82 386 160 194 273 87ZM652 -78C814 50 927 281 940 650L882 674L867 658H709V588H866C850 303 770 114 601 -24ZM909 -77 970 -37C910 88 805 264 706 390L645 349C749 219 853 44 909 -77ZM649 537 714 522C736 604 754 698 765 811L697 818C686 704 671 615 649 537ZM383 693V626H633V693ZM387 477V408H631V477ZM357 165 375 93 670 230 653 290ZM493 -68C530 -68 560 -41 560 18V837H491V20C491 8 486 2 473 2C454 2 427 7 397 20V-56C431 -64 459 -68 493 -68Z" transform="translate(0, 880) scale(1,-1)" /></svg>