<svg xmlns="http://www.w3.org/2000/svg" width="1000" height="1000"><path d="M112 -87Q217 67 217 364V609H918V677H144V366Q144 97 45 -50ZM102 621Q225 719 279 843L207 860Q181 799 141.0 750.5Q101 702 38 654ZM190 737H902V799H190ZM669 303Q724 324 752.5 345.5Q781 367 781 395Q781 431 723.5 453.5Q666 476 568 476Q453 476 392.5 458.0Q332 440 332 405Q332 374 375.5 353.0Q419 332 496 332Q546 332 576.5 349.0Q607 366 607 388V516H528V402Q528 388 514.5 381.5Q501 375 479 375Q459 375 435.5 384.0Q412 393 412 405Q412 419 447.5 426.0Q483 433 568 433Q629 433 664.0 421.0Q699 409 699 393Q699 372 672.0 351.5Q645 331 570 303ZM238 243H900V303H238ZM263 516H877V574H263ZM569 216Q480 216 402.5 206.0Q325 196 245 179L288 128Q412 159 569 159Q690 159 753.5 137.5Q817 116 817 78Q817 40 772.5 14.5Q728 -11 660.5 -23.5Q593 -36 526 -36Q452 -36 414.5 -28.0Q377 -20 377 -5Q377 10 403.0 21.5Q429 33 467 33Q592 33 610 -55L689 -44Q674 14 618.0 46.5Q562 79 468 79Q419 79 382.5 67.0Q346 55 326.5 35.5Q307 16 307 -5Q307 -45 359.5 -67.5Q412 -90 526 -90Q638 -90 722.5 -68.5Q807 -47 852.5 -8.5Q898 30 898 78Q898 140 813.5 178.0Q729 216 569 216Z" transform="translate(0, 880) scale(1,-1)" /></svg>