<svg xmlns="http://www.w3.org/2000/svg" width="1000" height="1000"><path d="M141 162H209V801H141ZM40 493H301V562H40ZM305 257 60 140 80 73 324 196ZM834 414 768 443 506 320Q426 299 344 263L374 205Q436 237 517.0 255.5Q598 274 673 274Q718 274 759.5 259.0Q801 244 827.0 213.5Q853 183 853 138Q853 64 806.5 25.5Q760 -13 689 -13Q601 -13 541.5 11.5Q482 36 482 89Q482 112 505.5 126.5Q529 141 573 141Q652 141 652 103Q652 83 622.0 54.5Q592 26 529 0L557 -24Q722 35 722 103Q722 149 680.0 175.0Q638 201 573 201Q533 201 495.5 187.5Q458 174 434.0 148.5Q410 123 410 89Q410 44 447.5 6.0Q485 -32 550.5 -53.5Q616 -75 696 -75Q762 -75 816.0 -49.0Q870 -23 901.0 25.5Q932 74 932 138Q932 246 855.5 291.0Q779 336 659 335ZM305 391H941V458H305ZM723 458Q768 471 795.5 503.5Q823 536 823 565Q823 589 800.0 610.0Q777 631 731.0 644.0Q685 657 620 657Q522 657 465.0 633.0Q408 609 408 572Q408 536 447.5 515.0Q487 494 567 494Q612 494 635.0 513.0Q658 532 658 556V841H588V583Q588 564 578.5 555.5Q569 547 549 547Q526 547 503.5 554.0Q481 561 481 572Q481 584 513.5 592.5Q546 601 620 601Q678 601 716.0 590.5Q754 580 754 565Q754 540 725.0 510.0Q696 480 624 458ZM313 691H934V756H312Z" transform="translate(0, 880) scale(1,-1)" /></svg>