<svg xmlns="http://www.w3.org/2000/svg" width="1000" height="1000"><path d="M259 405 329 432C313 489 272 579 231 647L158 625C199 554 245 463 259 405ZM136 682C373 688 664 719 858 758L819 826C655 793 360 768 119 759ZM697 423C743 478 801 567 847 642L760 667C731 599 679 504 635 446ZM642 -69C832 -48 950 18 950 159C950 304 786 363 500 363C228 363 54 280 54 135C54 7 148 -55 281 -55C489 -55 667 128 702 390L624 397C598 161 446 25 281 25C189 25 130 65 130 135C130 201 235 287 500 287C758 287 869 219 869 155C869 64 778 26 608 11ZM0.0 0.0Q0 0 0.0 0.0Q0 0 0.0 0.0ZM602 733 531 761C313 414 273 191 424 26L493 67C338 246 440 461 602 733Z" transform="translate(0, 880) scale(1,-1)" /></svg>