<svg xmlns="http://www.w3.org/2000/svg" width="1000" height="1000"><path d="M104 -60Q210 124 210 501V708H943V787H131V501Q131 346 112.5 213.5Q94 81 35 -21ZM297 576V502H755Q750 407 736.5 364.5Q723 322 695 322Q635 322 588.0 328.5Q541 335 494 349V270Q602 249 724 249Q760 249 783.5 282.5Q807 316 821.0 385.5Q835 455 842 569L776 590L759 576ZM384 363H307V120Q307 52 324.0 15.5Q341 -21 376.5 -35.0Q412 -49 474 -49H761Q821 -49 854.0 -24.0Q887 1 905.0 60.0Q923 119 933 230L860 249Q854 148 842.5 101.0Q831 54 811.0 39.5Q791 25 751 25H474Q436 25 417.0 32.0Q398 39 391.0 56.5Q384 74 384 108Z" transform="translate(0, 880) scale(1,-1)" /></svg>