<svg xmlns="http://www.w3.org/2000/svg" width="1000" height="1000"><path d="M867 399Q896 430 911.5 462.5Q927 495 927 540Q927 666 613 666Q472 666 351.0 639.5Q230 613 164 559V639H86V410H164V518Q313 592 612 592Q735 592 792.0 577.5Q849 563 849 540Q849 512 837.5 491.0Q826 470 802 449ZM315 374H684Q676 303 660.5 274.5Q645 246 611 246Q537 246 479.5 252.0Q422 258 364 272V192Q496 171 639 171Q683 171 709.0 201.0Q735 231 749.0 288.5Q763 346 772 440L710 459L690 448H374Q420 494 471.0 578.0Q522 662 554 745H891V815H111V745H463Q436 670 387.5 589.5Q339 509 297 466Q286 454 276.5 447.5Q267 441 254 436L289 362ZM260 276H181V83Q181 25 199.0 -5.0Q217 -35 257.0 -46.5Q297 -58 371 -58H705Q778 -58 819.5 -36.5Q861 -15 883.0 33.5Q905 82 917 171L840 196Q832 120 818.0 82.5Q804 45 778.5 31.5Q753 18 706 18H371Q324 18 301.0 23.5Q278 29 269.0 42.5Q260 56 260 83Z" transform="translate(0, 880) scale(1,-1)" /></svg>