<svg xmlns="http://www.w3.org/2000/svg" width="1000" height="1000"><path d="M284 -60C402 -60 514 52 514 176C514 285 473 363 402 383C456 405 517 438 573 483H469C408 441 332 413 247 390L260 324C356 344 434 312 434 173C434 105 382 15 279 15C221 15 196 37 196 76C196 172 443 264 655 264C736 264 807 239 807 188C807 122 759 61 616 38L667 -25C842 20 889 87 889 191C889 293 777 337 662 337C436 337 122 239 122 76C122 -8 186 -60 284 -60ZM648 -89 716 -58C689 5 648 77 611 125L549 93C585 50 623 -27 648 -89ZM125 455C210 570 263 689 312 834L237 852C189 707 126 588 58 500ZM288 483H733V554H288ZM211 642H887V714H211Z" transform="translate(0, 880) scale(1,-1)" /></svg>