<svg xmlns="http://www.w3.org/2000/svg" width="1000" height="1000"><path d="M100 -74Q161 3 195.0 78.0Q229 153 244.0 247.0Q259 341 259 475V710H595V779H73V710H185V475Q185 344 172.5 262.0Q160 180 129.5 117.5Q99 55 41 -16ZM389 -72Q442 -72 469.5 -41.0Q497 -10 497 52V629H422V66Q422 35 412.5 20.0Q403 5 378 5Q360 5 332.0 10.0Q304 15 279 23V-58Q321 -72 389 -72ZM45 359H613V431H45ZM701 204Q793 256 841.5 291.5Q890 327 910.5 359.0Q931 391 931 430Q931 497 850.5 531.0Q770 565 589 577L582 506Q725 496 787.0 473.0Q849 450 849 426Q849 393 810.0 353.0Q771 313 659 252ZM660 -83Q751 -28 829.5 38.5Q908 105 948 157L904 229L879 222Q744 262 583 274L575 200Q725 190 841 159Q810 116 747.5 64.5Q685 13 602 -33ZM663 524Q787 628 890 794L814 828Q726 663 614 554Z" transform="translate(0, 880) scale(1,-1)" /></svg>