<svg xmlns="http://www.w3.org/2000/svg" width="1000" height="1000"><path d="M836 554Q887 589 908.0 616.5Q929 644 929 682Q929 723 884.5 745.5Q840 768 749 768Q689 768 631.5 760.5Q574 753 538 740V840H461V722L444 712L483 669Q545 689 615.5 700.0Q686 711 749 711Q799 711 823.5 703.0Q848 695 848 682Q848 653 829.5 631.0Q811 609 770 586ZM256 574Q375 574 460.5 580.5Q546 587 632 606L600 660Q530 645 438.5 638.0Q347 631 256 631Q226 631 207.0 640.0Q188 649 188 663Q188 707 234 762L166 784Q138 752 122.0 716.5Q106 681 106 656Q106 619 142.0 596.5Q178 574 256 574ZM519 -80Q660 -80 748.0 -54.0Q836 -28 874.5 12.5Q913 53 913 98Q913 175 840.0 217.0Q767 259 619 259Q445 259 295 238L323 177Q492 195 619 195Q727 195 775.0 170.5Q823 146 823 98Q823 68 794.5 41.5Q766 15 698.0 -2.5Q630 -20 519 -20Q422 -20 363.0 -10.0Q304 0 280.0 14.5Q256 29 256 43Q256 68 396 68Q467 68 492.0 61.5Q517 55 517 44Q517 31 468.5 13.0Q420 -5 335 -23L375 -45Q476 -25 536.5 -1.5Q597 22 597 44Q597 81 548.0 103.0Q499 125 396 125Q291 125 235.5 101.5Q180 78 180 43Q180 19 217.0 -10.0Q254 -39 330.5 -59.5Q407 -80 519 -80ZM503 217 820 338 772 394 750 386H195V320H644L465 237ZM59 444H937V508H553L513 580L441 568L470 508H59Z" transform="translate(0, 880) scale(1,-1)" /></svg>