<svg xmlns="http://www.w3.org/2000/svg" width="1000" height="1000"><path d="M280 681Q268 708 239.5 745.5Q211 783 178 818L112 794Q138 767 165.5 727.5Q193 688 212 655ZM557 690Q547 722 523.0 766.0Q499 810 471 845L402 828Q428 791 451.0 747.0Q474 703 484 671ZM774 651Q843 727 894 809L818 830Q800 794 769.5 750.5Q739 707 709 672ZM447 526Q392 519 327.0 502.0Q262 485 203 462L223 395Q288 427 377.5 446.0Q467 465 547 465Q614 465 664.5 456.0Q715 447 742.0 432.5Q769 418 769 402Q769 373 715.5 355.5Q662 338 551 338Q457 338 316 353V286Q429 275 529 275Q699 275 776.0 309.0Q853 343 853 402Q853 464 778.0 497.5Q703 531 547 531L664 578H898V646H102V578H538ZM90 98Q266 124 367.0 164.5Q468 205 511.0 265.5Q554 326 554 417H472Q472 352 438.5 305.0Q405 258 316.0 222.5Q227 187 65 167ZM917 140Q859 168 759.5 204.5Q660 241 572 267L532 207Q621 179 719.5 141.5Q818 104 871 77ZM124 -84Q171 -54 207.5 -12.5Q244 29 260 71L187 91Q173 51 136.5 10.5Q100 -30 57 -56ZM524 -81Q555 -81 586.5 -71.5Q618 -62 661 -38L607 13Q585 -4 568.5 -10.5Q552 -17 534 -17Q516 -17 502.5 3.0Q489 23 464 85L390 73Q423 -16 454.5 -48.5Q486 -81 524 -81ZM951 -57Q916 -16 814 71L792 91L725 63Q768 31 808.0 -8.0Q848 -47 875 -81Z" transform="translate(0, 880) scale(1,-1)" /></svg>