<svg xmlns="http://www.w3.org/2000/svg" width="1000" height="1000"><path d="M426 -45H809C883 -45 912 6 931 135L847 159C839 86 821 39 785 39H459C411 39 392 46 392 57C392 69 400 80 416 91L848 347L798 425L776 408H355V331L671 332L369 152C317 120 294 82 294 41C294 -21 326 -45 426 -45ZM274 520H926V593H751C784 648 820 718 851 782L770 810C746 745 703 655 667 593H274ZM470 593 546 618C528 675 483 750 442 808L370 777C409 722 452 649 470 593ZM103 -40H183V741H103Z" transform="translate(0, 880) scale(1,-1)" /></svg>