<svg xmlns="http://www.w3.org/2000/svg" width="1000" height="1000"><path d="M82 462H165V513C272 595 456 631 615 631C776 631 832 609 832 581C832 545 820 515 801 488L883 455C904 491 918 526 918 582C918 688 802 713 615 713C425 713 272 658 165 570V696H82ZM0.0 0.0Q0 0 0.0 0.0Q0 0 0.0 0.0ZM490 -81C690 -81 848 27 848 199C848 353 719 433 550 433C474 433 403 414 356 385C432 501 524 658 584 822L496 844C447 667 344 497 244 362C212 330 174 302 142 287L196 222C298 306 417 354 541 354C664 354 766 300 766 199C766 88 655 -5 479 -5C394 -5 360 27 360 72C360 105 386 133 447 133C506 133 552 102 567 -13L653 7C638 147 556 206 447 206C337 206 282 148 282 72C282 -18 353 -81 490 -81Z" transform="translate(0, 880) scale(1,-1)" /></svg>