<svg xmlns="http://www.w3.org/2000/svg" width="1000" height="1000"><path d="M492 -26 538 -27Q737 -27 824.5 21.0Q912 69 912 163Q912 333 596 333Q435 333 317.5 302.5Q200 272 83 205L139 145Q229 201 340.5 228.5Q452 256 596 256Q714 256 771.0 229.5Q828 203 828 163Q828 107 759.5 74.0Q691 41 535 41Q512 41 454 43ZM548 -66Q511 22 424 126L353 93Q387 58 419.5 4.5Q452 -49 471 -99ZM129 455Q190 537 233.5 627.5Q277 718 316 834L237 852Q167 641 58 500ZM211 642H887V714H211ZM670 346Q758 437 830 554L755 591Q695 476 613 382ZM411 381Q388 426 353.0 480.5Q318 535 282 582L218 549Q253 503 286.0 449.0Q319 395 342 348ZM473 298H552V670H473Z" transform="translate(0, 880) scale(1,-1)" /></svg>