<svg xmlns="http://www.w3.org/2000/svg" width="1000" height="1000"><path d="M51 58 88 -10C216 54 425 183 589 302L541 356C366 229 178 118 51 58ZM194 333 214 275 260 283H514V349H344L513 462V553C396 449 291 381 194 333ZM498 -75C558 -75 592 -59 592 8V613H513V14C513 -1 507 -7 490 -7C453 -7 409 5 359 20V-59C403 -69 451 -75 498 -75ZM906 -8 955 48C860 116 714 198 591 244V171C696 122 810 63 906 -8ZM75 493H926L925 562H75ZM891 253 934 309C895 340 816 386 753 415L712 364C776 334 853 286 891 253ZM130 737V665H834V737ZM388 839V540H462V839Z" transform="translate(0, 880) scale(1,-1)" /></svg>