<svg xmlns="http://www.w3.org/2000/svg" width="1000" height="1000"><path d="M0.0 0.0Q0 0 0.0 0.0Q0 0 0.0 0.0ZM187 334V270H658C650 202 638 182 602 182C527 182 480 189 422 201V133C484 122 547 116 631 116C699 116 728 182 741 328L685 345L669 334ZM273 71V200H202V58C202 -37 249 -58 364 -58H751C859 -58 893 -11 913 131L840 145C833 33 804 15 741 15H363C289 15 273 29 273 71ZM66 588 137 559C171 610 203 691 226 755L145 772C130 714 98 636 66 588ZM865 563 946 587C930 640 905 721 867 783L792 761C828 697 852 615 865 563ZM551 591V834H476V609C476 580 449 568 421 568C397 568 356 582 356 608C356 636 396 661 510 661C595 661 631 629 631 599C631 560 611 509 522 460L597 438C664 476 718 546 718 601C718 675 642 729 510 729C363 729 273 684 273 608C273 545 334 505 438 505C509 505 551 548 551 591ZM771 259 824 202C866 238 902 284 902 352C902 446 823 492 623 492C446 492 201 453 63 395L83 327C225 384 458 416 622 416C778 416 820 389 820 352C820 318 805 287 771 259Z" transform="translate(0, 880) scale(1,-1)" /></svg>