<svg xmlns="http://www.w3.org/2000/svg" width="1000" height="1000"><path d="M99 -57Q200 128 200 501V718H933V792H126V501Q126 347 108.0 214.0Q90 81 35 -21ZM398 433Q444 467 493.5 516.0Q543 565 583 613L524 645L510 638H254V576H462Q414 514 354 458ZM526 221Q526 325 475.5 387.5Q425 450 326 470L315 408Q387 392 420.0 347.5Q453 303 453 221Q453 130 426.0 77.0Q399 24 343 24Q320 24 306.5 37.5Q293 51 293 78Q293 163 370.5 230.0Q448 297 591.0 335.0Q734 373 924 373V441Q725 441 565.0 396.5Q405 352 313.5 268.5Q222 185 222 73Q222 16 255.5 -15.0Q289 -46 343 -46Q434 -46 480.0 27.0Q526 100 526 221ZM568 -62Q652 22 693.0 150.5Q734 279 744.0 400.0Q754 521 755 667H685V618Q685 491 674.0 382.5Q663 274 624.0 166.5Q585 59 509 -15ZM957 -10Q909 76 847.5 167.0Q786 258 729 324L689 273Q739 211 795.0 120.5Q851 30 898 -59ZM922 482Q912 525 893.5 571.5Q875 618 853 657L791 639Q812 601 829.0 552.5Q846 504 854 462Z" transform="translate(0, 880) scale(1,-1)" /></svg>