<svg xmlns="http://www.w3.org/2000/svg" width="1000" height="1000"><path d="M169 162H241V801H169ZM40 493H373V562H40ZM378 257 65 140 91 73 402 196ZM347 669 392 607C472 683 555 729 694 729C837 729 877 684 877 622C877 506 708 501 486 526V455C753 428 958 438 958 622C958 723 896 807 694 807C532 807 420 741 347 669ZM328 -52H960V20H328ZM533 20H680C741 64 763 151 763 228C763 310 714 363 657 363C585 363 521 320 521 245C521 166 579 125 647 125C665 125 680 132 694 143C671 87 614 38 533 20ZM645 191C613 191 586 211 586 245C586 280 614 301 646 301C673 301 699 278 699 250C699 211 674 191 645 191ZM732 271V633H657V336Z" transform="translate(0, 880) scale(1,-1)" /></svg>