<svg xmlns="http://www.w3.org/2000/svg" width="1000" height="1000"><path d="M886 492Q904 529 912.5 564.0Q921 599 921 642Q921 716 842.5 749.5Q764 783 617 783Q476 783 361.0 745.5Q246 708 164 639V766H82V514H164V579Q240 639 362.0 668.5Q484 698 617 698Q695 698 744.0 689.0Q793 680 814.5 667.0Q836 654 836 641Q836 610 830.0 582.5Q824 555 809 526ZM138 -78Q231 -24 278.5 38.5Q326 101 341.0 170.0Q356 239 356 335V467H624V69Q624 19 633.0 -8.0Q642 -35 662.5 -46.5Q683 -58 719 -58H816Q860 -58 881.5 -41.5Q903 -25 912.5 18.5Q922 62 925 151L850 166Q848 96 844.0 64.5Q840 33 833.0 24.5Q826 16 812 16H738Q721 16 714.0 27.0Q707 38 707 67V546H276V341Q276 254 263.5 197.0Q251 140 209.0 86.5Q167 33 80 -19Z" transform="translate(0, 880) scale(1,-1)" /></svg>