<svg xmlns="http://www.w3.org/2000/svg" width="1000" height="1000"><path d="M0.0 0.0Q0 0 0.0 0.0Q0 0 0.0 0.0ZM187 334V270H658Q652 219 640.5 200.5Q629 182 602 182Q549 182 509.5 186.5Q470 191 422 201V133Q518 116 631 116Q681 116 706.0 166.0Q731 216 741 328L685 345L669 334ZM273 200H202V58Q202 11 218.5 -14.0Q235 -39 269.0 -48.5Q303 -58 364 -58H751Q805 -58 836.5 -40.5Q868 -23 885.5 17.0Q903 57 913 131L840 145Q837 90 825.5 62.0Q814 34 794.5 24.5Q775 15 741 15H363Q326 15 307.0 20.0Q288 25 280.5 37.0Q273 49 273 71ZM137 559Q177 619 226 755L145 772Q133 727 111.0 675.0Q89 623 66 588ZM946 587Q928 645 910.0 693.5Q892 742 867 783L792 761Q834 686 865 563ZM551 834H476V609Q476 589 460.0 578.5Q444 568 421 568Q400 568 378.0 579.0Q356 590 356 608Q356 631 393.0 646.0Q430 661 510 661Q569 661 600.0 642.5Q631 624 631 599Q631 520 522 460L597 438Q648 467 683.0 513.5Q718 560 718 601Q718 658 662.5 693.5Q607 729 510 729Q399 729 336.0 697.0Q273 665 273 608Q273 560 317.0 532.5Q361 505 438 505Q489 505 520.0 531.0Q551 557 551 591ZM824 202Q860 233 881.0 269.0Q902 305 902 352Q902 424 836.5 458.0Q771 492 623 492Q487 492 325.5 465.0Q164 438 63 395L83 327Q185 368 338.5 392.0Q492 416 622 416Q732 416 776.0 399.5Q820 383 820 352Q820 299 771 259Z" transform="translate(0, 880) scale(1,-1)" /></svg>