<svg xmlns="http://www.w3.org/2000/svg" width="1000" height="1000"><path d="M100 -60Q206 124 206 501V715H933V790H131V501Q131 346 112.5 213.5Q94 81 35 -21ZM220 -47H947V22H575Q613 60 636.0 100.5Q659 141 659 178Q659 227 629.5 256.0Q600 285 551 285Q510 285 478.5 257.5Q447 230 447 188Q447 145 478.5 118.0Q510 91 561 91Q620 91 677.5 115.0Q735 139 772.0 183.0Q809 227 809 283Q809 353 756.5 397.5Q704 442 606 442Q576 442 557.0 439.0Q538 436 520 430Q605 483 710 559H910V629H260V559H613Q500 465 366 379Q350 368 329 357Q300 340 293 335L339 275Q412 331 476.0 353.5Q540 376 604 376Q673 376 703.5 347.5Q734 319 734 283Q734 242 704.5 211.5Q675 181 633.5 165.5Q592 150 561 150Q509 150 509 188Q509 205 520.5 216.5Q532 228 551 228Q572 228 582.5 214.0Q593 200 593 178Q593 79 498 22H220ZM958 301Q940 398 883 489L823 467Q850 426 865.5 382.0Q881 338 890 285Z" transform="translate(0, 880) scale(1,-1)" /></svg>