<svg xmlns="http://www.w3.org/2000/svg" width="1000" height="1000"><path d="M468 506Q549 526 606.0 559.5Q663 593 663 628Q663 645 645.5 662.0Q628 679 592.0 690.0Q556 701 503 701Q423 701 385.5 680.0Q348 659 348 633Q348 617 370.0 601.0Q392 585 436.5 574.0Q481 563 546 563Q650 563 724.5 580.0Q799 597 838.0 627.0Q877 657 877 696Q877 746 798.0 773.5Q719 801 555 801Q414 801 296.5 780.5Q179 760 100 729L138 678Q212 706 327.5 725.0Q443 744 555 744Q629 744 682.5 736.5Q736 729 763.5 718.0Q791 707 791 696Q791 655 730.0 633.0Q669 611 546 611Q483 611 454.5 616.5Q426 622 426 633Q426 644 445.0 651.0Q464 658 503 658Q541 658 562.5 650.5Q584 643 584 628Q584 597 543.5 577.0Q503 557 412 533ZM55 258 518 322 504 370 42 313ZM256 195Q293 195 312.5 209.0Q332 223 332 254V590H263V269Q263 259 257.0 252.5Q251 246 242 246Q210 246 167 257V203Q210 195 256 195ZM66 398H508V447H66ZM90 490H484V539H90ZM758 409Q805 433 840.0 456.5Q875 480 905 508L867 547L854 542H541V487H795Q759 456 694 426V296Q694 262 680.0 247.5Q666 233 639 233Q612 233 593.0 245.0Q574 257 574 278Q574 308 617.5 326.0Q661 344 748 344Q811 344 839.5 331.0Q868 318 868 292Q868 237 786 215L823 171Q882 188 908.5 216.5Q935 245 935 292Q935 399 748 399Q639 399 575.0 367.0Q511 335 511 276Q511 228 549.0 205.0Q587 182 639 182Q687 182 722.0 207.0Q757 232 758 292ZM99 -69Q290 -42 386.0 -4.0Q482 34 513.0 84.5Q544 135 544 214H463Q463 136 439.0 97.5Q415 59 331.5 33.0Q248 7 58 -19ZM936 -35Q756 31 596 68L554 25Q736 -23 883 -80ZM75 103H925V161H75Z" transform="translate(0, 880) scale(1,-1)" /></svg>