<svg xmlns="http://www.w3.org/2000/svg" width="1000" height="1000"><path d="M377 -72Q425 -72 456.0 -12.0Q487 48 501.0 139.0Q515 230 515 327Q515 425 506.5 485.5Q498 546 463.0 587.0Q428 628 355 628Q199 628 51 587L60 507Q211 547 345 547Q387 547 407.5 515.5Q428 484 433.5 438.5Q439 393 439 327Q439 244 429.5 169.0Q420 94 401.5 48.0Q383 2 359 2Q329 2 267 20V-62Q326 -72 377 -72ZM97 -84Q177 3 226.0 124.5Q275 246 302.5 414.0Q330 582 348 835L272 841Q254 593 227.0 431.0Q200 269 153.5 156.5Q107 44 31 -37ZM604 243H678V640H604ZM670 23Q767 40 826.0 74.5Q885 109 918.0 189.0Q951 269 951 414Q951 550 907.5 609.5Q864 669 783 669Q741 669 702.0 640.0Q663 611 639 557L657 514Q680 552 717.0 570.5Q754 589 789 589Q834 589 855.0 543.5Q876 498 876 394Q876 279 847.5 216.5Q819 154 770.5 128.5Q722 103 644 91Z" transform="translate(0, 880) scale(1,-1)" /></svg>