<svg xmlns="http://www.w3.org/2000/svg" width="1000" height="1000"><path d="M826 514 900 487C929 528 939 569 939 617C939 701 825 739 617 739C426 739 254 691 147 618V729H69V495H147V566C254 633 453 660 617 660C804 660 857 633 857 610C857 577 852 548 826 514ZM499 677 578 697C561 746 531 802 500 847L424 826C452 783 485 723 499 677ZM383 24H530C591 68 617 151 617 228C617 320 553 368 486 368C404 368 348 320 348 245C348 166 407 122 485 122C509 122 530 132 544 143C521 87 464 42 383 24ZM98 -52H900V24H98ZM485 192C447 192 418 211 418 245C418 280 447 301 486 301C518 301 547 278 547 250C547 211 519 192 485 192ZM583 271V598H505V336ZM132 247 203 220C244 296 273 416 296 514L215 524C200 435 171 319 132 247ZM795 209 876 231C860 312 835 436 797 530L722 512C758 415 782 288 795 209Z" transform="translate(0, 880) scale(1,-1)" /></svg>