<svg xmlns="http://www.w3.org/2000/svg" width="1000" height="1000"><path d="M120 640 169 595C271 663 370 749 440 836L361 854C313 788 230 710 120 640ZM450 606 500 562C573 628 648 710 680 761L629 796L617 788H318V726H569C548 694 496 641 450 606ZM825 440 893 395C921 423 932 457 932 498C932 601 788 625 614 625C427 625 299 594 157 522V597H82V407H157V487C331 544 454 557 613 557C751 557 849 528 849 489C849 469 840 453 825 440ZM893 -90 935 -28C682 43 478 139 285 139C155 139 86 94 86 31C86 -25 155 -76 262 -76C435 -76 846 53 846 166C846 227 761 273 556 273C526 273 502 271 470 265C582 298 699 341 808 384L744 439L670 403H388C442 431 497 463 553 500L494 552C414 492 257 401 167 366L202 308L279 344H556C452 304 321 270 207 239C175 232 153 225 116 219L145 153C274 188 399 204 556 204C697 204 753 184 753 166C753 86 375 -10 262 -10C207 -10 169 5 169 31C169 57 190 72 285 72C449 72 632 -15 893 -90Z" transform="translate(0, 880) scale(1,-1)" /></svg>