<svg xmlns="http://www.w3.org/2000/svg" width="1000" height="1000"><path d="M73 595Q283 597 511.5 614.5Q740 632 940 660L897 728Q727 701 503.5 684.0Q280 667 60 663ZM94 348Q277 399 384.0 485.0Q491 571 531.5 663.0Q572 755 568 837H487Q486 706 393.0 593.0Q300 480 45 410ZM959 399Q731 531 477 625L440 569Q545 529 648.0 478.0Q751 427 900 345ZM455 -79Q500 -79 524.5 -54.0Q549 -29 549 16V344H761V416H239V344H470V26Q470 11 461.0 1.5Q452 -8 436 -8Q396 -8 358.5 -2.0Q321 4 275 20V-58Q316 -70 357.5 -74.5Q399 -79 455 -79ZM55 159H944V231H55Z" transform="translate(0, 880) scale(1,-1)" /></svg>