<svg xmlns="http://www.w3.org/2000/svg" width="1000" height="1000"><path d="M87 -77Q324 16 469.0 177.0Q614 338 614 567V824H535V567Q535 431 469.0 318.5Q403 206 292.5 124.0Q182 42 43 -11ZM88 340H163V728H88ZM273 380H348V708H273ZM843 -61Q886 -61 908.5 -38.0Q931 -15 940.5 37.0Q950 89 954 187L877 201Q875 113 871.5 75.0Q868 37 859.0 24.0Q850 11 831 11H704Q680 11 673.0 21.0Q666 31 666 66V308H590V67Q590 16 599.0 -11.0Q608 -38 630.5 -49.5Q653 -61 695 -61ZM826 358Q877 401 901.0 448.0Q925 495 925 536Q925 585 899.0 623.0Q873 661 826.0 682.5Q779 704 720 704Q638 704 574.0 688.5Q510 673 454.5 644.0Q399 615 329 565L343 513Q441 579 522.0 605.0Q603 631 720 631Q781 631 812.5 603.0Q844 575 844 536Q844 510 823.0 475.5Q802 441 762 412Z" transform="translate(0, 880) scale(1,-1)" /></svg>