<svg xmlns="http://www.w3.org/2000/svg" width="1000" height="1000"><path d="M129 711C397 713 662 725 891 764L843 832C648 797 370 785 113 783ZM203 456 276 479C261 527 229 603 192 660L117 642C154 582 190 505 203 456ZM776 458C809 508 852 588 886 654L801 677C780 616 742 531 709 479ZM328 382 354 399H698V471H426C500 544 533 622 542 768H461C452 634 415 542 276 435ZM101 -83C500 5 544 111 544 350H456C456 141 435 63 61 -13ZM73 201H922V275H73ZM880 -83 933 -20C853 26 716 84 600 122L550 65C669 25 801 -38 880 -83Z" transform="translate(0, 880) scale(1,-1)" /></svg>