<svg xmlns="http://www.w3.org/2000/svg" width="1000" height="1000"><path d="M124 -35Q213 44 328.5 109.0Q444 174 552.5 211.0Q661 248 730 248Q787 248 815.0 232.0Q843 216 843 181Q843 135 802.5 106.5Q762 78 684 63L713 1Q815 19 868.5 62.0Q922 105 922 181Q922 245 871.5 283.0Q821 321 730 321Q625 321 518.5 278.0Q412 235 296 158Q367 216 439.0 284.0Q511 352 569 415L504 464L486 445H298Q413 637 457 833L374 845Q316 565 172 407L224 356L249 378H435Q363 294 258.0 193.5Q153 93 62 22ZM789 -62Q769 -25 726.5 38.0Q684 101 649 139L583 112Q652 36 716 -93ZM62 578H868V653H62Z" transform="translate(0, 880) scale(1,-1)" /></svg>