<svg xmlns="http://www.w3.org/2000/svg" width="1000" height="1000"><path d="M928 -55 952 22C654 0 427 1 292 43C196 67 135 134 109 224L31 203C66 81 144 6 253 -23C403 -65 625 -76 928 -55ZM523 69C575 69 607 95 607 158V848H530V172C530 150 518 136 496 135C448 133 397 142 338 165V90C397 74 448 68 523 69ZM155 242H937V310H155ZM188 377H914V445H188ZM223 460 398 569 347 614 168 503ZM495 567V500C848 482 937 549 937 642C937 722 850 771 631 771C439 771 262 729 154 678L184 616C286 666 456 701 631 701C780 701 856 681 856 642C856 577 761 549 495 567Z" transform="translate(0, 880) scale(1,-1)" /></svg>