<svg xmlns="http://www.w3.org/2000/svg" width="1000" height="1000"><path d="M806 -71Q914 -71 914 38V637Q914 712 877.5 753.5Q841 795 774 795H365Q198 795 126 723L147 653Q214 723 378 723H754Q794 723 816.0 689.0Q838 655 838 609V38Q838 18 828.0 7.5Q818 -3 800 -3Q771 -3 743.0 3.5Q715 10 678 24V-53Q735 -71 806 -71ZM610 -54V16H211Q186 16 172.5 33.0Q159 50 159 81V795H86V65Q86 1 110.0 -26.5Q134 -54 182 -54ZM224 128Q242 141 261.5 158.0Q281 175 303 195Q314 205 331 205Q339 205 342 204Q351 202 358.0 184.5Q365 167 374 124L488 208L466 247L404 215Q401 234 391.5 244.5Q382 255 361 262Q417 335 455 411L403 442Q296 246 186 194ZM488 44Q548 44 585.0 98.5Q622 153 622 241Q622 321 585.5 409.0Q549 497 489 581L436 534Q479 480 514.5 393.5Q550 307 550 242Q550 189 534.0 149.5Q518 110 486 110Q451 110 411 125V53Q447 44 488 44ZM234 362Q334 408 427.5 476.5Q521 545 563 613L508 643Q466 583 383.0 526.0Q300 469 208 430ZM823 171Q708 255 480 356L461 295Q568 248 647.0 204.0Q726 160 784 114ZM574 320Q648 348 692.5 368.5Q737 389 785 422L748 480Q701 447 657.5 424.5Q614 402 553 379ZM238 655V586H762V655Z" transform="translate(0, 880) scale(1,-1)" /></svg>