<svg xmlns="http://www.w3.org/2000/svg" width="1000" height="1000"><path d="M952 22Q761 8 621 8Q403 8 292 43Q222 61 175.5 108.0Q129 155 109 224L31 203Q57 113 113.5 56.0Q170 -1 253 -23Q405 -65 654 -65Q785 -65 928 -55ZM523 69Q607 69 607 158V848H530V172Q530 155 521.0 145.5Q512 136 496 135Q423 132 338 165V90Q383 78 425.0 73.0Q467 68 523 69ZM155 242H937V310H155ZM188 377H914V445H188ZM223 460 398 569 347 614 168 503ZM495 500Q554 497 602 497Q788 497 862.5 535.0Q937 573 937 642Q937 771 631 771Q494 771 367.0 745.0Q240 719 154 678L184 616Q262 654 382.0 677.5Q502 701 631 701Q856 701 856 642Q856 602 804.0 582.0Q752 562 634 562Q561 562 495 567Z" transform="translate(0, 880) scale(1,-1)" /></svg>