<svg xmlns="http://www.w3.org/2000/svg" width="1000" height="1000"><path d="M97 -57Q198 128 198 501V721H933V792H126V501Q126 347 108.0 214.0Q90 81 35 -21ZM693 -76Q807 -69 863.0 -25.5Q919 18 919 93Q919 157 837.5 194.5Q756 232 583 232Q465 232 381.5 212.0Q298 192 256.0 157.5Q214 123 214 81Q214 8 287.5 -27.5Q361 -63 462 -63Q527 -63 571.0 -29.0Q615 5 616 67L619 443H547V78Q547 43 524.0 26.5Q501 10 462 10Q393 10 342.5 26.5Q292 43 292 81Q292 100 325.5 119.0Q359 138 425.0 150.5Q491 163 583 163Q715 163 778.5 144.5Q842 126 842 93Q842 45 804.0 15.0Q766 -15 669 -21ZM317 292 339 301H843V368H369Q404 418 446 498H370Q344 428 312 376Q300 356 283 350ZM478 577Q468 603 446.5 639.0Q425 675 403 705L343 680Q363 652 382.5 616.0Q402 580 415 548ZM239 498H929V563H239ZM716 527Q764 599 804 686L734 707Q723 673 703.0 630.0Q683 587 665 554Z" transform="translate(0, 880) scale(1,-1)" /></svg>