<svg xmlns="http://www.w3.org/2000/svg" width="1000" height="1000"><path d="M588 41Q657 101 694.0 140.5Q731 180 751.0 227.0Q771 274 771 337Q771 440 701.5 495.0Q632 550 501 550Q359 550 284.0 499.0Q209 448 209 363Q209 279 259.0 231.0Q309 183 399 183Q443 183 477.5 202.5Q512 222 531.0 255.0Q550 288 550 328V709H470V353Q470 262 396 262Q351 262 321.5 289.0Q292 316 292 363Q292 391 313.5 416.5Q335 442 382.0 458.5Q429 475 501 475Q600 475 645.0 439.5Q690 404 690 337Q690 262 648.0 196.0Q606 130 503 41ZM53 -34H950V41H53ZM123 633Q340 655 532.0 689.0Q724 723 858 762L799 829Q690 792 501.5 758.5Q313 725 101 704Z" transform="translate(0, 880) scale(1,-1)" /></svg>