<svg xmlns="http://www.w3.org/2000/svg" width="1000" height="1000"><path d="M100 616Q214 633 331.0 667.5Q448 702 533 746L494 821Q417 781 302.0 747.5Q187 714 75 697ZM157 129Q157 185 190.5 246.0Q224 307 303.0 350.5Q382 394 509 394H919V476H506Q362 476 265.5 426.0Q169 376 123.0 297.0Q77 218 77 129Q77 33 113.5 -15.0Q150 -63 214 -63Q300 -63 356.5 44.5Q413 152 413 410Q413 502 396.5 571.0Q380 640 346 708L269 693Q303 626 318.5 560.0Q334 494 334 410Q334 280 314.0 192.0Q294 104 266.5 62.0Q239 20 215 20Q157 20 157 129ZM621 802V-83H705V802ZM935 116Q912 162 879.0 217.5Q846 273 813 316L750 275Q780 234 813.0 176.5Q846 119 870 71Z" transform="translate(0, 880) scale(1,-1)" /></svg>