<svg xmlns="http://www.w3.org/2000/svg" width="1000" height="1000"><path d="M256 -82Q390 -82 455.5 19.5Q521 121 540.5 309.5Q560 498 560 836H481Q481 525 463.0 345.0Q445 165 396.5 76.5Q348 -12 256 -12Q202 -12 174.0 8.5Q146 29 146 65Q146 108 176.5 128.5Q207 149 285 149Q350 149 417.0 125.5Q484 102 591 52Q683 8 760.0 -23.5Q837 -55 925 -78L964 -9Q872 14 798.0 44.5Q724 75 634 118Q559 154 509.5 174.5Q460 195 403.5 208.0Q347 221 285 221Q182 221 124.0 180.0Q66 139 66 65Q66 -2 114.5 -42.0Q163 -82 256 -82ZM143 293H216V567H143ZM320 312Q485 285 605 285Q747 285 821.5 322.0Q896 359 896 431Q896 505 811.0 539.0Q726 573 582 573Q349 573 216 509L215 444Q273 471 365.0 485.5Q457 500 576 500Q689 500 752.5 484.0Q816 468 816 429Q816 392 765.5 372.0Q715 352 612 352Q493 352 320 378ZM94 655H906V727H94Z" transform="translate(0, 880) scale(1,-1)" /></svg>