<svg xmlns="http://www.w3.org/2000/svg" width="1000" height="1000"><path d="M647 -46Q728 -46 789.5 10.0Q851 66 884.0 162.5Q917 259 917 377Q917 562 831.0 642.0Q745 722 584 722Q453 722 352.0 694.5Q251 667 166 612L194 537Q262 584 362.5 609.5Q463 635 572 635Q699 635 767.5 576.0Q836 517 836 375Q836 291 812.5 212.5Q789 134 744.5 84.0Q700 34 641 34Q555 34 473 75V-20Q551 -46 647 -46ZM163 154Q269 238 347.0 342.0Q425 446 463 557L386 578Q352 472 280.0 381.0Q208 290 105 219ZM240 -50Q402 43 514.0 191.0Q626 339 660 550L586 571Q550 385 440.5 240.0Q331 95 183 17ZM146 435Q207 517 250.5 608.0Q294 699 333 816L257 835Q187 623 78 480Z" transform="translate(0, 880) scale(1,-1)" /></svg>