<svg xmlns="http://www.w3.org/2000/svg" width="1000" height="1000"><path d="M488 -75Q599 -75 695.0 -48.0Q791 -21 850.0 35.0Q909 91 909 172Q909 291 799.5 347.5Q690 404 521 404Q478 404 451.5 400.0Q425 396 396 388Q462 425 501.5 502.5Q541 580 541 664L459 663Q459 583 417.5 503.0Q376 423 308 380Q261 353 234 344L271 289Q399 336 521 336Q645 336 732.5 295.5Q820 255 820 172Q820 121 770.5 80.5Q721 40 643.5 17.0Q566 -6 487 -6Q362 -6 289.5 21.0Q217 48 217 97Q217 125 248.5 146.0Q280 167 334 167Q384 167 413.0 151.5Q442 136 442 106Q442 84 423.0 54.0Q404 24 367 -10L455 -25Q535 42 535 107Q535 173 477.0 203.0Q419 233 331 233Q280 233 232.0 215.5Q184 198 154.5 167.0Q125 136 125 98Q125 7 223.5 -34.0Q322 -75 488 -75ZM130 489H209V803H130ZM316 490Q450 478 527 478Q681 478 758.0 518.5Q835 559 835 657Q835 817 542 817Q421 817 335.0 793.5Q249 770 158 721L190 662Q265 701 354.0 725.0Q443 749 542 749Q609 749 656.5 736.0Q704 723 728.0 701.5Q752 680 752 654Q752 599 704.5 573.5Q657 548 552 548Q468 548 316 567Z" transform="translate(0, 880) scale(1,-1)" /></svg>