<svg xmlns="http://www.w3.org/2000/svg" width="1000" height="1000"><path d="M136 734V-53H213V734ZM324 247Q514 340 645.5 414.5Q777 489 902 582L839 636L767 585H474Q578 673 700 800L624 837Q530 718 393 603Q370 584 328 573L359 506L388 519H670Q596 470 493.0 414.5Q390 359 294 318ZM670 400Q580 400 501.5 384.0Q423 368 347 338L368 272Q437 303 510.5 317.0Q584 331 670 331Q739 331 773.5 314.0Q808 297 808 266Q808 216 741.0 157.0Q674 98 588.0 55.0Q502 12 459 12Q432 12 414.5 33.5Q397 55 397 85Q397 115 424.0 137.5Q451 160 500 160Q541 160 584.5 135.5Q628 111 705 55Q759 14 806.5 -17.5Q854 -49 907 -77L958 -15Q909 9 867.0 35.5Q825 62 755 109Q664 172 609.0 201.0Q554 230 500 230Q451 230 410.0 212.0Q369 194 345.0 160.5Q321 127 321 85Q321 47 338.5 15.0Q356 -17 387.5 -36.0Q419 -55 459 -55Q524 -55 628.5 -4.5Q733 46 811.5 120.5Q890 195 890 266Q890 328 830.5 364.0Q771 400 670 400Z" transform="translate(0, 880) scale(1,-1)" /></svg>