<svg xmlns="http://www.w3.org/2000/svg" width="1000" height="1000"><path d="M82 489H165V540Q241 597 364.5 626.5Q488 656 617 656Q728 656 781.0 641.0Q834 626 834 606Q834 583 828.0 564.0Q822 545 809 525L891 492Q907 521 914.0 546.0Q921 571 921 608Q921 677 843.5 706.0Q766 735 617 735Q476 735 361.5 698.5Q247 662 165 595V719H82ZM569 714Q543 795 511 852L433 830Q471 766 488 693ZM642 289H913V363H702L747 493L685 533L660 520H218V443H651L619 355ZM910 -16Q584 44 364 70Q638 128 781 161L751 248L719 237Q505 266 288 288L244 217Q429 201 583 183Q450 143 245 96Q230 92 212 92Q194 92 171 95Q164 95 146 97L102 24Q471 -17 875 -90Z" transform="translate(0, 880) scale(1,-1)" /></svg>