<svg xmlns="http://www.w3.org/2000/svg" width="1000" height="1000"><path d="M112 -81C403 43 628 313 828 615L758 646C559 350 357 105 63 -14ZM696 -64H844C920 -64 945 -20 956 115L880 134C876 19 870 4 835 4H704C668 4 662 8 662 34V219H583V33C583 -42 601 -64 696 -64ZM141 496C297 605 387 706 458 828L370 839C320 750 230 638 95 552ZM351 270C777 213 880 296 880 416C880 510 784 557 654 557C603 557 537 551 489 542C568 611 634 673 708 757L654 794L637 784H370V720H567C499 635 428 571 357 526C305 494 259 474 179 428L223 360C345 447 511 487 654 487C765 487 801 455 801 416C801 338 683 288 351 346Z" transform="translate(0, 880) scale(1,-1)" /></svg>