<svg xmlns="http://www.w3.org/2000/svg" width="1000" height="1000"><path d="M201 -62Q271 -62 318.5 -13.0Q366 36 389.0 110.5Q412 185 412 262Q412 360 360.0 440.5Q308 521 201 561L175 498Q259 463 297.0 399.0Q335 335 335 262Q335 204 320.5 148.5Q306 93 275.5 56.5Q245 20 201 20Q173 20 156.5 40.0Q140 60 140 104Q140 161 171.0 212.0Q202 263 262.0 316.0Q322 369 425 441L379 496Q224 392 141.5 297.5Q59 203 59 104Q59 18 97.0 -22.0Q135 -62 201 -62ZM262 509Q309 567 358.0 637.0Q407 707 434 760L382 799L366 791H76V714H321Q278 627 211 533ZM559 -46Q624 -60 703 -60Q774 -60 825.5 -24.0Q877 12 904.5 80.0Q932 148 932 241Q932 320 907.5 380.5Q883 441 837.0 474.0Q791 507 730 507Q686 507 643 491Q678 526 715 560Q777 618 820.0 662.0Q863 706 896 748L836 808L822 797H488V720H773Q741 677 694.0 628.0Q647 579 570 503L541 475Q525 459 487 439L522 370Q558 402 610.0 419.0Q662 436 710 436Q778 436 815.5 384.0Q853 332 853 242Q853 126 809.5 71.5Q766 17 690 17Q617 17 559 40ZM500 116H769V182H500ZM500 257H769V325H500Z" transform="translate(0, 880) scale(1,-1)" /></svg>