<svg xmlns="http://www.w3.org/2000/svg" width="1000" height="1000"><path d="M762 -67Q829 -67 867.0 -15.5Q905 36 921.0 142.5Q937 249 937 426Q937 551 915.5 621.5Q894 692 848.0 722.0Q802 752 724 752Q563 752 420 698L438 629Q498 651 576.0 665.5Q654 680 724 680Q791 680 826.0 623.0Q861 566 861 425Q861 224 836.5 115.5Q812 7 750 7Q685 7 619 30V-52Q655 -60 687.0 -63.5Q719 -67 762 -67ZM141 73 442 211 424 279 231 195V801H159V205Q159 164 115 140ZM366 -79Q524 24 595.0 186.0Q666 348 683 579L609 584Q593 370 526.0 221.5Q459 73 311 -20ZM40 453 433 538 421 605 28 522Z" transform="translate(0, 880) scale(1,-1)" /></svg>