<svg xmlns="http://www.w3.org/2000/svg" width="1000" height="1000"><path d="M111 277H889V351H540V511H869V585H131V511H460V351H111ZM109 -63Q196 -9 276.5 58.5Q357 126 411 195L330 236Q284 174 205.0 106.0Q126 38 47 -6ZM943 -9Q888 48 808.5 116.5Q729 185 656 237L596 190Q670 134 747.5 65.0Q825 -4 875 -59ZM391 653Q351 697 296.0 746.5Q241 796 186 836L119 792Q175 750 227.0 701.0Q279 652 317 605ZM660 605Q783 699 877 801L793 841Q758 793 708.0 741.5Q658 690 602 643Z" transform="translate(0, 880) scale(1,-1)" /></svg>