<svg xmlns="http://www.w3.org/2000/svg" width="1000" height="1000"><path d="M219 -62Q299 -62 354.0 -13.5Q409 35 436.0 109.0Q463 183 463 260Q463 358 404.5 437.5Q346 517 224 556L193 494Q290 459 336.0 395.5Q382 332 382 260Q382 204 363.0 147.5Q344 91 307.0 54.0Q270 17 219 17Q184 17 164.0 38.0Q144 59 144 103Q144 158 181.0 209.0Q218 260 289.5 312.5Q361 365 482 437L429 492Q250 389 154.5 295.0Q59 201 59 103Q59 17 101.5 -22.5Q144 -62 219 -62ZM293 505Q349 560 408.0 630.0Q467 700 503 755L443 792L425 784H88V708H376Q346 662 308.0 614.0Q270 566 234 529ZM799 -69Q852 -69 879.0 -48.5Q906 -28 918.5 19.0Q931 66 937 159L859 184Q855 106 849.5 70.5Q844 35 830.5 21.0Q817 7 788 7H708Q679 7 665.0 12.5Q651 18 646.0 31.0Q641 44 641 70V806H563V71Q563 14 574.0 -15.5Q585 -45 612.0 -57.0Q639 -69 693 -69Z" transform="translate(0, 880) scale(1,-1)" /></svg>