<svg xmlns="http://www.w3.org/2000/svg" width="1000" height="1000"><path d="M563 824Q441 824 338.5 802.5Q236 781 110 738L156 675Q267 714 360.5 734.5Q454 755 563 755Q769 755 769 654Q769 585 684.5 556.5Q600 528 468 528Q408 528 376.5 539.5Q345 551 345 569Q345 588 368.0 600.0Q391 612 425 612Q462 612 484.5 598.5Q507 585 507 561Q507 541 480.0 510.0Q453 479 403.0 446.5Q353 414 287 391H76V326H438V391H398Q492 430 539.5 475.0Q587 520 587 561Q587 610 543.0 639.0Q499 668 425 668Q358 668 312.0 641.5Q266 615 266 569Q266 522 317.0 496.0Q368 470 468 470Q648 470 752.0 512.0Q856 554 856 654Q856 738 781.0 781.0Q706 824 563 824ZM73 -30 465 70 442 136 49 42ZM313 73V348H240V74ZM676 -80Q810 -80 882.5 -28.0Q955 24 955 116Q955 195 896.5 239.0Q838 283 734 283Q704 283 678 277Q748 311 885 387L821 433L801 424H496V357H728Q660 312 560 266Q523 250 486 238L521 185Q560 200 616.5 209.5Q673 219 734 219Q804 219 840.0 192.0Q876 165 876 116Q876 51 821.0 16.5Q766 -18 672 -18Q620 -18 588.0 -3.5Q556 11 556 37Q556 57 573.5 67.5Q591 78 621 78Q672 78 699.5 54.5Q727 31 733 -33L794 -18Q784 59 741.5 96.0Q699 133 622 133Q583 133 552.0 120.0Q521 107 504.0 85.0Q487 63 487 37Q487 -13 536.5 -46.5Q586 -80 676 -80Z" transform="translate(0, 880) scale(1,-1)" /></svg>