<svg xmlns="http://www.w3.org/2000/svg" width="1000" height="1000"><path d="M392 734Q379 761 358.0 795.0Q337 829 316 855L246 827Q266 802 286.5 766.0Q307 730 318 702ZM675 692Q724 762 760 829L684 853Q659 793 611 717ZM568 332Q718 332 792.5 370.5Q867 409 867 472Q867 543 797.0 575.0Q727 607 578 607Q483 607 415.5 593.5Q348 580 281 548Q367 631 415 685L329 703Q292 651 225.0 577.5Q158 504 107 459L180 433Q216 469 256 491Q366 548 566 548Q787 548 787 472Q787 435 737.0 414.5Q687 394 568 394Q511 394 438.0 399.0Q365 404 306 409V342Q426 332 568 332ZM425 272Q505 344 563 440L484 459Q456 398 413.0 350.0Q370 302 311 261Q287 254 243 246L212 239L233 182Q317 199 395.0 208.0Q473 217 574 217Q665 217 698.0 206.0Q731 195 731 175Q731 144 656.0 98.5Q581 53 472.5 19.0Q364 -15 267 -15Q217 -15 193.5 -3.0Q170 9 170 33Q170 55 198.5 68.0Q227 81 291 81Q350 81 413.0 62.5Q476 44 584 3Q678 -33 748.5 -56.5Q819 -80 898 -97L935 -35Q855 -18 782.5 5.0Q710 28 617 63Q502 105 431.5 125.0Q361 145 291 145Q196 145 143.5 116.0Q91 87 91 32Q91 -21 135.0 -51.5Q179 -82 265 -82Q395 -82 522.5 -39.0Q650 4 732.0 65.5Q814 127 814 175Q814 228 758.0 253.5Q702 279 578 279Q506 279 425 272ZM98 724V654H902V724ZM113 141Q141 181 166.0 239.0Q191 297 206 353L125 361Q113 309 91.0 254.0Q69 199 42 159ZM966 149Q955 199 933.5 258.5Q912 318 887 366L812 353Q837 302 856.5 241.5Q876 181 885 133Z" transform="translate(0, 880) scale(1,-1)" /></svg>