<svg xmlns="http://www.w3.org/2000/svg" width="1000" height="1000"><path d="M87 529H165V576Q242 631 365.0 660.0Q488 689 615 689Q832 689 832 640Q832 594 801 553L878 522Q896 551 904.5 577.5Q913 604 913 641Q913 711 840.0 737.0Q767 763 615 763Q476 763 361.5 728.0Q247 693 165 629V747H87ZM115 -81Q242 -17 351.0 67.5Q460 152 553.5 247.5Q647 343 763 476L683 505Q537 323 390.5 193.5Q244 64 55 -29ZM748 -68Q806 -68 830.5 -45.5Q855 -23 863 33L785 55Q782 17 773.5 5.5Q765 -6 739 -6H617Q590 -6 582.0 0.0Q574 6 574 22V169H502V8Q502 -25 508.5 -40.0Q515 -55 537.0 -61.5Q559 -68 608 -68ZM969 104Q897 147 770 193L733 143Q838 104 928 47ZM341 527H497Q436 483 280 397Q273 393 221 374Q160 354 106 331L152 268Q244 316 358.5 341.0Q473 366 587 366Q668 366 707.5 352.0Q747 338 747 317Q747 254 561 254Q448 254 284 275V208Q421 194 530 194Q695 194 761.5 226.5Q828 259 828 317Q828 371 761.5 402.0Q695 433 587 433Q480 433 409 416Q514 465 649 558L585 598L568 588H401Q439 626 480.5 691.0Q522 756 549 824L466 835Q443 764 410.5 712.0Q378 660 343.0 624.5Q308 589 258 549L309 497Z" transform="translate(0, 880) scale(1,-1)" /></svg>