<svg xmlns="http://www.w3.org/2000/svg" width="1000" height="1000"><path d="M84 280Q219 428 333 640L281 670Q173 467 32 325ZM113 527Q231 644 329 804L275 839Q187 690 60 574ZM177 488V-67H241V488ZM837 452Q872 496 894.5 538.0Q917 580 917 623Q917 674 879.0 706.0Q841 738 784 738Q701 738 656 729V839H587V695L572 687L613 642Q652 659 689.0 666.0Q726 673 770 673Q804 673 824.5 660.0Q845 647 845 622Q845 586 829.0 549.5Q813 513 783 481ZM463 478Q505 478 548.5 481.5Q592 485 631 489Q663 493 695 496L678 563Q556 543 465 543Q445 543 436.5 549.0Q428 555 428 570Q428 603 439.0 632.5Q450 662 477 705L411 723Q350 637 350 550Q350 516 380.5 497.0Q411 478 463 478ZM387 -28Q472 28 520.5 81.0Q569 134 569 189Q569 242 541.5 273.0Q514 304 473 304Q419 304 384.0 277.5Q349 251 349 204Q349 160 378.0 133.5Q407 107 451 107Q468 107 477 109Q420 48 338 9ZM462 159Q440 159 424.5 171.0Q409 183 409 204Q409 224 425.0 236.5Q441 249 463 249Q482 249 496.0 236.5Q510 224 510 208Q510 184 496.5 171.5Q483 159 462 159ZM543 225V402H474V279ZM307 422V357H614V422ZM284 -2 308 -61 623 42 598 101ZM819 415Q725 415 646 363L656 294Q721 343 819 343Q853 343 867.0 327.0Q881 311 881 280Q881 232 849.5 174.0Q818 116 776.5 74.5Q735 33 714 33Q706 33 699.5 54.0Q693 75 693 103Q693 131 703.0 152.5Q713 174 729 174Q750 174 770.0 151.0Q790 128 826 75Q855 31 877.5 0.0Q900 -31 928 -60L974 5Q945 28 919.0 58.5Q893 89 860 133Q816 192 787.5 220.0Q759 248 729 248Q685 248 655.0 207.5Q625 167 625 103Q625 46 650.0 5.0Q675 -36 714 -36Q748 -36 805.0 13.5Q862 63 905.0 136.5Q948 210 948 280Q948 340 910.5 377.5Q873 415 819 415Z" transform="translate(0, 880) scale(1,-1)" /></svg>