<svg xmlns="http://www.w3.org/2000/svg" width="1000" height="1000"><path d="M655 -81C810 -38 886 44 886 119C886 222 814 270 652 270C520 270 393 216 323 173C412 288 446 350 476 548L391 558C369 399 339 284 230 148C211 126 170 102 129 71L192 20C347 123 524 191 652 191C742 191 792 165 792 119C792 70 720 10 610 -10ZM403 392C740 355 872 448 872 611C872 747 767 817 552 817C362 817 187 749 109 673L152 605C243 691 382 738 552 738C715 738 783 696 783 611C783 482 674 446 403 473Z" transform="translate(0, 880) scale(1,-1)" /></svg>