<svg xmlns="http://www.w3.org/2000/svg" width="1000" height="1000"><path d="M433 24H580C641 68 667 151 667 228C667 320 603 368 536 368C454 368 398 320 398 245C398 166 457 122 535 122C559 122 580 132 594 143C571 87 514 42 433 24ZM108 -52H890V24H108ZM175 362 251 393C235 471 193 595 152 688L81 663C120 567 161 441 175 362ZM535 192C497 192 468 211 468 245C468 280 497 301 536 301C568 301 597 278 597 250C597 211 569 192 535 192ZM377 414 449 444C437 513 414 595 383 672L312 649C344 570 365 483 377 414ZM633 271V828H555V336ZM787 356C826 436 875 565 914 672L830 706C805 608 759 471 721 387Z" transform="translate(0, 880) scale(1,-1)" /></svg>