<svg xmlns="http://www.w3.org/2000/svg" width="1000" height="1000"><path d="M82 489H165V540C272 621 458 656 617 656C779 656 834 628 834 606C834 576 827 552 809 525L891 492C912 529 921 557 921 608C921 704 805 735 617 735C426 735 272 683 165 595V719H82ZM488 693 569 714C555 758 537 806 511 852L433 830C459 786 477 740 488 693ZM632 289H913V363H702L747 493L685 533L660 520H218V443H651L625 370L609 355ZM875 -90 910 -16C694 24 527 51 364 70C521 103 674 136 781 161L751 248L719 237C552 260 429 274 288 288L244 217C402 203 478 195 583 183C487 154 372 125 245 96C216 89 188 94 146 97L102 24C366 -5 622 -44 875 -90Z" transform="translate(0, 880) scale(1,-1)" /></svg>