<svg xmlns="http://www.w3.org/2000/svg" width="1000" height="1000"><path d="M136 3Q220 104 299.5 238.0Q379 372 465 540L398 573Q319 411 242.0 278.5Q165 146 81 47ZM85 -26 481 107 453 176 58 50ZM146 403Q233 544 344 792L275 824Q168 564 52 389L91 327L103 334H352V403ZM493 622Q539 663 588.0 681.0Q637 699 715 699Q768 699 797.5 665.0Q827 631 839.5 562.5Q852 494 852 382Q852 268 842.0 193.0Q832 118 797.5 71.0Q763 24 696 24Q621 24 540 52V-29Q621 -51 696 -51Q792 -51 844.0 2.5Q896 56 915.0 149.5Q934 243 934 382Q934 522 913.0 608.0Q892 694 844.0 735.5Q796 777 715 777Q557 777 458 678Z" transform="translate(0, 880) scale(1,-1)" /></svg>