<svg xmlns="http://www.w3.org/2000/svg" width="1000" height="1000"><path d="M647 121C814 121 917 274 917 465C917 675 786 746 584 746C405 746 276 714 166 657L194 592C286 642 429 671 572 671C731 671 839 626 839 463C839 332 765 190 641 190C583 190 529 201 473 223V142C527 127 582 121 647 121ZM105 338 159 281C298 371 407 485 459 606L386 627C340 512 241 412 105 338ZM183 174 236 116C431 206 608 358 656 600L586 622C536 413 371 254 183 174ZM78 548 142 508C227 600 280 697 329 815L257 835C209 717 146 620 78 548ZM101 43V-35H899V43Z" transform="translate(0, 880) scale(1,-1)" /></svg>