<svg xmlns="http://www.w3.org/2000/svg" width="1000" height="1000"><path d="M103 -60Q209 124 209 501V708H933V787H131V501Q131 346 112.5 213.5Q94 81 35 -21ZM504 391Q487 537 454 665L381 651Q410 541 430 377ZM237 494H918V566H237ZM679 329Q736 490 764 666L689 673Q664 501 610 340ZM263 -27Q385 50 529.0 158.5Q673 267 745 334L713 385L691 377H385V309H619Q548 251 435.5 174.0Q323 97 214 36ZM599 -65Q632 -65 661.5 -57.5Q691 -50 725 -32V45Q653 3 609 3Q595 3 589.0 9.0Q583 15 583 35V197H512V17Q512 -27 532.5 -46.0Q553 -65 599 -65ZM946 34Q806 147 690 213L647 155Q788 67 899 -31Z" transform="translate(0, 880) scale(1,-1)" /></svg>