<svg xmlns="http://www.w3.org/2000/svg" width="1000" height="1000"><path d="M106 367H894V437H106ZM634 437Q675 448 705.5 471.5Q736 495 752.5 522.5Q769 550 769 572Q769 617 698.0 646.0Q627 675 495 675Q361 675 285.0 650.0Q209 625 209 581Q209 538 264.0 511.5Q319 485 426 485Q486 485 513.5 505.5Q541 526 541 555V768H459V586Q459 562 444.5 552.0Q430 542 400 542Q374 542 341.5 553.5Q309 565 309 578Q309 619 495 619Q544 619 585.0 611.5Q626 604 650.0 593.0Q674 582 674 570Q674 539 635.5 501.5Q597 464 501 437ZM107 737H894V805H106ZM101 -79Q294 -36 389.0 26.0Q484 88 513.0 171.0Q542 254 542 391H458Q458 268 434.5 198.5Q411 129 326.5 77.0Q242 25 61 -12ZM73 209H922V276H73ZM933 -19Q873 16 780.0 56.0Q687 96 600 124L550 67Q635 38 725.5 -4.0Q816 -46 880 -83Z" transform="translate(0, 880) scale(1,-1)" /></svg>