<svg xmlns="http://www.w3.org/2000/svg" width="1000" height="1000"><path d="M446 378C514 379 549 389 549 452V646C636 678 742 727 805 770L756 815L740 811H216V742H629C577 717 528 698 473 681V467C473 453 462 440 441 439C401 438 346 443 290 460V390C341 383 396 377 446 378ZM914 521 932 589C725 616 447 617 82 589V526C444 551 721 546 914 521ZM84 281 127 232C211 263 310 307 389 352L341 399C271 356 181 314 84 281ZM767 329C743 305 718 282 692 262V7C692 -6 686 -21 671 -22C646 -23 611 -18 577 0V-74C609 -85 644 -90 675 -89C724 -88 760 -66 760 -2V237C804 274 858 326 896 366L840 409L826 404C546 397 66 177 66 29C66 -40 121 -75 201 -75C337 -75 423 0 423 104C423 225 325 287 192 316L167 256C268 228 351 195 351 104C351 38 280 -8 201 -8C158 -8 145 4 145 29C145 122 532 311 767 329ZM948 123 959 192C838 217 676 218 462 191V127C673 151 835 146 948 123Z" transform="translate(0, 880) scale(1,-1)" /></svg>