<svg xmlns="http://www.w3.org/2000/svg" width="1000" height="1000"><path d="M622 18Q670 53 702.0 106.0Q734 159 734 207Q734 272 676.5 313.0Q619 354 521 354Q285 354 285 225Q285 168 329.0 132.5Q373 97 449 97Q500 97 530.0 126.0Q560 155 560 195V439H481V217Q481 192 467.5 179.0Q454 166 432 166Q412 166 388.5 184.5Q365 203 365 225Q365 281 521 281Q561 281 591.0 269.5Q621 258 636.5 240.5Q652 223 652 205Q652 106 523 18ZM78 -54H920V18H78ZM123 455Q184 537 227.5 627.5Q271 718 310 834L237 852Q167 641 58 500ZM263 439H807V511H263ZM211 642H887V714H211Z" transform="translate(0, 880) scale(1,-1)" /></svg>