<svg xmlns="http://www.w3.org/2000/svg" width="1000" height="1000"><path d="M565 363C731 363 846 445 845 556C844 697 753 770 570 770C453 770 360 734 280 677C305 713 327 758 353 812L274 835C237 734 181 644 113 560L190 527C209 555 230 585 260 608C338 668 454 702 570 701C694 700 764 651 764 557C764 479 680 430 565 430C492 430 425 439 362 451V378C420 368 476 363 565 363ZM0.0 0.0Q0 0 0.0 0.0Q0 0 0.0 0.0ZM87 -77C376 36 514 243 564 567L492 575C442 290 313 88 50 -13ZM615 -61H793C879 -61 897 2 904 114L827 124C823 24 818 11 781 11H621C589 11 583 20 583 66V308H510V67C510 -33 533 -61 615 -61ZM133 187C168 243 203 331 226 402L145 418C130 352 95 267 62 215ZM865 179 946 202C930 262 905 353 867 422L792 400C828 330 852 237 865 179Z" transform="translate(0, 880) scale(1,-1)" /></svg>