<svg xmlns="http://www.w3.org/2000/svg" width="1000" height="1000"><path d="M126 558Q223 675 275 845L198 857Q176 777 139.0 708.5Q102 640 56 588ZM183 679H874V751H183ZM456 -79Q506 -79 528.5 -57.5Q551 -36 551 10V532H472V21Q472 8 463.0 -0.5Q454 -9 438 -9Q381 -9 301 13V-67Q382 -79 456 -79ZM115 3Q181 45 243.5 103.5Q306 162 347 224L269 250Q232 194 174.0 143.0Q116 92 52 57ZM62 301H942V378H62ZM946 46Q911 87 843.5 145.0Q776 203 711 248L650 204Q714 159 780.5 99.5Q847 40 882 -2ZM173 497H834V568H173Z" transform="translate(0, 880) scale(1,-1)" /></svg>