<svg xmlns="http://www.w3.org/2000/svg" width="1000" height="1000"><path d="M254 542 324 579C299 633 251 705 191 764L125 727C183 667 230 598 254 542ZM459 481H539V830H459ZM155 306 207 246C397 331 724 580 887 755L821 795C672 627 356 403 155 306ZM328 392 339 323C449 341 556 352 664 352C785 352 825 306 825 227C825 139 816 3 710 3C662 3 611 10 557 23V-54C609 -64 658 -67 716 -67C881 -67 905 98 905 234C905 349 839 421 668 421C550 421 439 411 328 392ZM80 6 130 -56C395 61 742 253 884 508L812 546C669 291 328 112 80 6Z" transform="translate(0, 880) scale(1,-1)" /></svg>