<svg xmlns="http://www.w3.org/2000/svg" width="1000" height="1000"><path d="M212 620 280 651C263 696 218 763 178 813L112 785C149 738 190 666 212 620ZM484 639 557 662C544 713 507 790 471 845L402 825C435 769 470 691 484 639ZM774 615C820 676 862 742 894 802L818 828C793 770 749 694 709 640ZM310 356C715 340 893 348 893 492C893 567 823 639 599 639C382 639 251 581 209 518V613H133V353H209V466C287 538 398 573 599 573C761 573 814 536 814 492C814 415 662 400 310 424ZM88 -33C177 -4 455 131 589 210L541 261C396 176 140 52 51 26ZM502 -79C545 -79 582 -63 582 -2V513H504L503 4C503 -9 497 -14 480 -14C448 -14 405 -8 357 5V-64C399 -73 455 -79 502 -79ZM62 196H939V259H62ZM906 -29 955 20C860 73 705 137 582 173V111C687 73 810 28 906 -29Z" transform="translate(0, 880) scale(1,-1)" /></svg>