<svg xmlns="http://www.w3.org/2000/svg" width="1000" height="1000"><path d="M423 637Q321 585 237.5 509.0Q154 433 105.5 344.5Q57 256 57 168Q57 104 81.5 53.0Q106 2 147.5 -27.0Q189 -56 237 -56Q321 -56 375.5 -2.0Q430 52 457.5 173.5Q485 295 485 494Q485 586 479 697H405Q412 598 412 500Q412 263 365.5 142.0Q319 21 237 21Q208 21 184.5 41.5Q161 62 147.0 96.0Q133 130 133 168Q133 285 226.0 391.0Q319 497 464 573ZM409 153Q328 217 281.5 327.5Q235 438 235 623Q235 702 244 796L168 800Q158 706 158 618Q158 413 214.0 287.0Q270 161 372 87ZM625 446H549V83Q549 25 563.5 -5.0Q578 -35 610.0 -46.5Q642 -58 701 -58H798Q856 -58 888.5 -36.5Q921 -15 938.5 33.5Q956 82 966 171L892 186Q886 111 877.5 77.5Q869 44 852.0 32.0Q835 20 799 20H701Q655 20 640.0 32.0Q625 44 625 83ZM831 700Q831 544 820.0 485.0Q809 426 788 426Q760 426 735.0 431.0Q710 436 678 447V367Q753 354 810 354Q849 354 868.5 385.5Q888 417 897.5 505.0Q907 593 911 778H552V700Z" transform="translate(0, 880) scale(1,-1)" /></svg>