<svg xmlns="http://www.w3.org/2000/svg" width="1000" height="1000"><path d="M81 47 136 3C260 151 371 355 465 540L398 573C311 394 204 192 81 47ZM85 -26 481 107 453 176 58 50ZM146 403C206 500 277 642 344 792L275 824C214 676 136 516 52 389L91 327L103 334H352V403ZM458 678 493 622C552 675 607 699 715 699C822 699 852 596 852 382C852 192 839 24 696 24C646 24 595 33 540 52V-29C588 -42 642 -51 696 -51C896 -51 934 130 934 382C934 655 878 777 715 777C605 777 521 741 458 678Z" transform="translate(0, 880) scale(1,-1)" /></svg>