<svg xmlns="http://www.w3.org/2000/svg" width="1000" height="1000"><path d="M212 655 280 681C263 720 218 776 178 818L112 794C149 755 190 694 212 655ZM484 671 557 690C544 734 507 799 471 845L402 828C435 780 470 715 484 671ZM774 651C820 702 862 758 894 809L818 830C793 781 749 718 709 672ZM447 526C375 517 282 493 203 462L223 395C312 439 443 465 547 465C686 465 769 434 769 402C769 351 644 318 316 353V286C719 249 853 310 853 402C853 482 761 531 547 531L664 578H898V646H102V578H538ZM90 98C444 150 554 241 554 417H472C472 298 402 209 65 167ZM871 77 917 140C837 179 683 234 572 267L532 207C646 171 798 114 871 77ZM124 -84C186 -44 238 14 260 71L187 91C168 36 113 -22 57 -56ZM524 -81C565 -81 603 -70 661 -38L607 13C577 -10 558 -17 534 -17C510 -17 497 3 464 85L390 73C437 -53 478 -81 524 -81ZM875 -81 951 -57C916 -16 842 47 792 91L725 63C787 17 843 -41 875 -81Z" transform="translate(0, 880) scale(1,-1)" /></svg>