<svg xmlns="http://www.w3.org/2000/svg" width="1000" height="1000"><path d="M323 669Q311 702 286.5 741.0Q262 780 232 814L167 784Q197 749 220.5 710.5Q244 672 256 639ZM458 583H540V840H458ZM719 638Q768 689 830 790L759 821Q741 782 714.5 740.5Q688 699 660 667ZM900 369Q939 414 939 485Q939 567 851.5 599.0Q764 631 614 631Q475 631 365.5 603.5Q256 576 149 515V600H77V384H149V473Q272 520 377.5 536.5Q483 553 613 553Q681 553 736.5 543.0Q792 533 824.0 515.5Q856 498 856 476Q856 446 832 420ZM273 425V353H604Q501 264 355.0 167.0Q209 70 49 -4L103 -69Q384 63 763 396L697 442L669 425ZM827 -55Q876 -55 900.5 -42.0Q925 -29 935.5 5.0Q946 39 952 111L877 130Q876 76 873.0 52.0Q870 28 861.5 20.0Q853 12 834 12H648Q599 12 599 51V276H522V40Q522 3 532.0 -17.0Q542 -37 566.5 -46.0Q591 -55 638 -55Z" transform="translate(0, 880) scale(1,-1)" /></svg>