<svg xmlns="http://www.w3.org/2000/svg" width="1000" height="1000"><path d="M436 837Q396 789 332.5 731.0Q269 673 207 623Q184 605 133 595L165 537L192 546L761 585L741 643L294 615Q352 658 419.0 715.0Q486 772 533 821ZM869 558Q837 597 773.5 651.0Q710 705 642 751L572 720Q633 677 695.5 622.0Q758 567 794 523ZM456 -79Q506 -79 528.5 -58.5Q551 -38 551 6V579H472V17Q472 3 463.0 -4.5Q454 -12 438 -12Q375 -12 301 10V-68Q387 -79 456 -79ZM134 -19Q194 15 252.0 63.5Q310 112 347 164L273 190Q240 144 187.0 102.5Q134 61 74 30ZM70 235H930V307H70ZM924 20Q893 55 832.0 102.0Q771 149 709 188L650 147Q710 107 771.0 58.5Q832 10 863 -24ZM123 391H877V463H123Z" transform="translate(0, 880) scale(1,-1)" /></svg>