<svg xmlns="http://www.w3.org/2000/svg" width="1000" height="1000"><path d="M284 -60Q342 -60 395.5 -27.0Q449 6 481.5 60.5Q514 115 514 176Q514 258 484.5 313.0Q455 368 402 383Q496 421 573 483H469Q390 429 247 390L260 324Q281 329 309 329Q367 329 400.5 292.0Q434 255 434 173Q434 137 416.0 100.5Q398 64 363.0 39.5Q328 15 279 15Q196 15 196 76Q196 122 265.5 166.0Q335 210 442.5 237.0Q550 264 655 264Q720 264 763.5 244.0Q807 224 807 188Q807 134 762.0 94.0Q717 54 616 38L667 -25Q753 -3 801.5 27.0Q850 57 869.5 96.5Q889 136 889 191Q889 263 823.0 300.0Q757 337 662 337Q544 337 417.5 304.5Q291 272 206.5 212.5Q122 153 122 76Q122 13 166.0 -23.5Q210 -60 284 -60ZM716 -58Q696 -10 667.5 39.5Q639 89 611 125L549 93Q574 63 600.5 13.0Q627 -37 648 -89ZM125 455Q186 537 229.5 627.5Q273 718 312 834L237 852Q167 641 58 500ZM288 483H733V554H288ZM211 642H887V714H211Z" transform="translate(0, 880) scale(1,-1)" /></svg>