<svg xmlns="http://www.w3.org/2000/svg" width="1000" height="1000"><path d="M107 -55 534 143 495 203 70 16ZM197 11 484 315 416 357 401 345H269C321 454 353 579 375 753L300 760C274 582 241 422 157 307L208 261L232 278H350L138 29ZM72 399H142V474C198 531 270 556 337 556C406 556 433 536 433 510C433 481 429 458 419 433L494 410C506 440 510 463 510 511C510 599 434 631 337 631C246 631 190 598 142 527V617H72ZM115 732H527V803H115ZM633 253 677 203C865 303 922 353 922 430C922 520 810 562 559 578L551 505C776 490 835 452 835 426C835 390 809 342 633 253ZM571 -32 633 -84C768 -6 885 91 939 157L893 230L867 223C781 247 682 266 553 275L544 199C669 191 758 176 826 159C785 107 697 33 571 -32ZM586 554 636 524C729 595 809 688 877 794L798 828C739 722 667 626 586 554Z" transform="translate(0, 880) scale(1,-1)" /></svg>