<svg xmlns="http://www.w3.org/2000/svg" width="1000" height="1000"><path d="M642 -82Q791 -66 870.5 -16.0Q950 34 950 127Q950 224 835.0 270.0Q720 316 500 316Q364 316 263.5 291.0Q163 266 108.5 218.5Q54 171 54 105Q54 20 116.0 -24.5Q178 -69 281 -69Q384 -69 474.0 -15.0Q564 39 624.5 134.5Q685 230 702 348L624 353Q611 249 561.5 171.0Q512 93 438.0 51.5Q364 10 281 10Q211 10 173.0 34.0Q135 58 135 105Q135 138 173.0 169.5Q211 201 293.5 221.5Q376 242 500 242Q623 242 706.0 226.0Q789 210 829.0 184.0Q869 158 869 127Q869 66 804.5 34.5Q740 3 608 -8ZM535 82Q464 120 427.0 189.0Q390 258 390 357Q390 372 392 404L318 409Q316 371 316 353Q316 231 358.0 146.5Q400 62 481 25ZM80 394H927V464H80ZM163 533H841V602H539V674H937V743H539V841H460V743H70V674H460V602H163Z" transform="translate(0, 880) scale(1,-1)" /></svg>