<svg xmlns="http://www.w3.org/2000/svg" width="1000" height="1000"><path d="M0.0 0.0Q0 0 0.0 0.0Q0 0 0.0 0.0ZM62 435H145V690H62ZM262 -76Q261 -48 261 10Q261 216 293.5 426.5Q326 637 392 826L316 836Q251 648 218.0 433.0Q185 218 185 11Q185 -48 186 -76ZM897 458Q939 518 939 600Q939 658 908.0 689.5Q877 721 811.5 733.0Q746 745 634 745Q478 745 346.5 713.0Q215 681 79 610L109 545Q233 608 363.0 636.5Q493 665 634 665Q725 665 773.5 657.0Q822 649 839.5 634.0Q857 619 857 595Q857 571 848.5 545.0Q840 519 829 507ZM657 -78Q737 -78 781.5 -44.5Q826 -11 843.5 55.5Q861 122 861 232Q861 371 817.5 439.5Q774 508 677 508Q612 508 561.0 484.0Q510 460 466 418V488H397V-67H466V360Q514 396 563.0 415.0Q612 434 677 434Q738 434 763.0 386.5Q788 339 788 232Q788 149 778.0 98.5Q768 48 739.5 21.0Q711 -6 657 -6Q589 -6 522 20V-58Q594 -78 657 -78ZM438 194H729V265H438Z" transform="translate(0, 880) scale(1,-1)" /></svg>