<svg xmlns="http://www.w3.org/2000/svg" width="1000" height="1000"><path d="M106 518 484 574 474 638 92 581ZM300 569Q349 611 399.0 664.5Q449 718 487 771L420 800L396 788H116V720H363Q339 685 310.5 655.0Q282 625 237 587ZM564 540H894V604H753V818H677V604H564ZM386 263Q354 388 290 500L214 489Q280 376 305 252ZM67 354H933V422H67ZM605 183Q711 312 780 520L695 526Q640 331 534 194ZM910 -19Q595 36 354 63Q596 109 781 149L751 213L719 206Q465 238 288 253L244 190Q349 182 431.0 175.0Q513 168 585 158Q536 145 467.0 129.5Q398 114 328 99L255 84Q246 82 227 82Q214 82 186 84Q176 85 166.0 86.0Q156 87 146 87L102 24Q515 -21 875 -84Z" transform="translate(0, 880) scale(1,-1)" /></svg>