<svg xmlns="http://www.w3.org/2000/svg" width="1000" height="1000"><path d="M551 -10Q634 48 686.0 116.0Q738 184 738 269Q738 328 706.0 363.0Q674 398 621 398Q593 398 567.0 383.5Q541 369 525.0 342.0Q509 315 509 281Q509 228 540.5 198.0Q572 168 630 168Q698 168 763.5 196.0Q829 224 871.0 276.0Q913 328 913 397Q913 448 886.5 491.0Q860 534 808.5 560.0Q757 586 685 586Q650 586 623 576Q677 609 720.0 640.5Q763 672 804 713H913V785H408V713H707Q605 609 521 554Q497 540 473 526L387 475L435 408Q495 460 555.0 486.0Q615 512 682 512Q737 512 772.0 494.0Q807 476 822.5 449.5Q838 423 838 397Q838 347 802.5 309.5Q767 272 718.5 252.0Q670 232 635 232Q602 232 585.0 246.5Q568 261 568 285Q568 306 582.0 319.0Q596 332 621 332Q647 332 659.0 314.5Q671 297 671 269Q671 196 609.5 124.0Q548 52 469 7ZM222 484Q264 536 306.0 610.5Q348 685 372 752L320 798L299 792H73V720H279Q261 666 229.0 614.0Q197 562 151 507ZM361 -55 881 -9 861 57 351 17ZM965 -59Q949 -15 913.5 46.5Q878 108 839 160L778 134Q816 84 851.0 20.5Q886 -43 900 -88ZM358 338Q358 402 331.5 440.0Q305 478 256.5 496.5Q208 515 134 524V451Q206 441 242.5 411.0Q279 381 279 338Q279 243 224.5 150.0Q170 57 72 -18L129 -72Q238 17 298.0 124.0Q358 231 358 338Z" transform="translate(0, 880) scale(1,-1)" /></svg>