<svg xmlns="http://www.w3.org/2000/svg" width="1000" height="1000"><path d="M312 681 382 710C357 752 322 799 286 841L223 814C258 773 288 726 312 681ZM73 627H927V692H73ZM626 692 689 666C728 716 760 769 791 819L716 845C694 796 660 740 626 692ZM52 -51H949V18H52ZM552 147V454H477V167C477 145 450 130 422 130C398 130 354 148 354 169C354 189 392 209 511 209C596 209 638 178 638 151C638 117 622 74 513 18H616C680 53 719 105 719 153C719 218 643 269 511 269C359 269 277 236 277 169C277 114 335 71 439 71C510 71 552 109 552 147ZM320 390V321C721 306 873 327 873 454C873 526 800 584 549 584C362 584 262 546 179 500L209 442C297 491 390 518 549 518C726 518 794 490 794 454C794 388 661 371 320 390ZM159 333H234V560H159Z" transform="translate(0, 880) scale(1,-1)" /></svg>