<svg xmlns="http://www.w3.org/2000/svg" width="1000" height="1000"><path d="M128 -52H870V24H128ZM489 132H744V204H489ZM505 521Q597 561 693.0 621.5Q789 682 858 742L802 792L788 781H173V707H691Q552 611 430 569Q430 362 387.5 271.0Q345 180 261 180Q214 180 188.5 204.0Q163 228 163 264Q163 307 212.5 342.5Q262 378 361.5 399.5Q461 421 606 421Q857 421 857 303Q857 264 841.0 235.0Q825 206 796 192L844 135Q887 156 912.0 201.0Q937 246 937 304Q937 496 607 496Q429 496 312.0 466.5Q195 437 140.0 385.0Q85 333 85 264Q85 184 132.5 142.5Q180 101 261 101Q384 101 444.5 204.5Q505 308 505 521Z" transform="translate(0, 880) scale(1,-1)" /></svg>