<svg xmlns="http://www.w3.org/2000/svg" width="1000" height="1000"><path d="M103 -60Q209 124 209 501V709H933V787H131V501Q131 346 112.5 213.5Q94 81 35 -21ZM681 -85Q765 -59 812.0 -12.0Q859 35 859 85Q859 152 813.5 187.5Q768 223 679 223Q556 223 446 154Q523 251 567.0 364.5Q611 478 627 647L546 654Q533 485 490.0 365.5Q447 246 363 138Q351 123 312 93L288 74L337 17Q422 81 513.5 115.5Q605 150 679 150Q728 150 753.0 132.5Q778 115 778 85Q778 53 743.0 26.0Q708 -1 647 -14ZM261 390H924V467L261 465Z" transform="translate(0, 880) scale(1,-1)" /></svg>