<svg xmlns="http://www.w3.org/2000/svg" width="1000" height="1000"><path d="M103 -60C196 101 209 338 209 501V708H933V787H131V501C131 347 123 132 35 -21ZM430 377 504 391C493 484 476 579 454 665L381 651C404 565 419 469 430 377ZM237 494H918V566H237ZM679 329C716 434 746 554 764 666L689 673C673 564 646 448 610 340ZM263 -27C429 78 652 247 745 334L713 385L691 377H385V309H619C532 237 368 122 214 36ZM599 -65C641 -65 678 -57 725 -32V45C677 17 641 3 609 3C592 3 583 7 583 35V197H512V17C512 -41 537 -65 599 -65ZM899 -31 946 34C869 96 774 165 690 213L647 155C730 103 824 35 899 -31Z" transform="translate(0, 880) scale(1,-1)" /></svg>