<svg xmlns="http://www.w3.org/2000/svg" width="1000" height="1000"><path d="M436 526 511 482C638 559 778 670 849 761L792 807L775 801H191V728H703C654 669 556 594 436 526ZM264 209C300 267 334 335 362 400L305 429C233 292 160 185 47 126L97 63C129 80 176 115 212 146C246 155 274 132 296 69L460 146L436 192L336 151C330 180 305 199 264 209ZM453 314 425 252C622 175 791 86 913 -1L961 79C832 152 662 233 453 314ZM556 347 581 287C694 325 778 352 875 412L827 473C740 418 668 385 556 347ZM459 602 390 565C492 443 564 312 564 183C564 111 546 -10 471 -10C431 -10 393 -4 355 13V-66C390 -76 430 -80 475 -80C593 -80 644 65 644 184C644 321 570 467 459 602Z" transform="translate(0, 880) scale(1,-1)" /></svg>