<svg xmlns="http://www.w3.org/2000/svg" width="1000" height="1000"><path d="M354 311 416 282C512 345 645 438 715 497L657 561L635 552H412C460 611 491 666 525 744L442 751C406 670 360 599 296 528L343 468L368 477H574C523 428 441 367 354 311ZM886 246V319H114V246ZM82 708H914V780H82ZM57 -45 126 -79C188 -16 240 73 262 163L187 185C168 99 113 8 57 -45ZM524 -73C565 -73 603 -55 661 -5L607 55C577 19 558 9 534 9C510 9 497 39 464 185L387 167C434 -29 478 -73 524 -73ZM873 -74 951 -44C916 20 850 118 792 187L723 151C785 79 841 -12 873 -74Z" transform="translate(0, 880) scale(1,-1)" /></svg>