<svg xmlns="http://www.w3.org/2000/svg" width="1000" height="1000"><path d="M259 484Q312 536 364.5 611.0Q417 686 447 752L382 798L355 792H73V720H340Q318 666 278.5 614.0Q239 562 181 507ZM429 338Q429 402 395.5 440.0Q362 478 301.5 496.5Q241 515 149 524V451Q248 441 295.5 411.5Q343 382 343 338Q343 246 271.0 158.0Q199 70 72 -8L133 -72Q276 17 352.5 124.0Q429 231 429 338ZM452 -34 479 -17 864 54 858 126 546 75Q595 203 650.0 390.0Q705 577 747 767L662 787Q625 596 572.5 406.5Q520 217 483 126Q461 73 428 48ZM947 -38Q897 149 821 322L750 293Q809 153 872 -69Z" transform="translate(0, 880) scale(1,-1)" /></svg>