<svg xmlns="http://www.w3.org/2000/svg" width="1000" height="1000"><path d="M413 561Q385 676 314 825L238 814Q310 663 332 550ZM67 659H933V728H67ZM641 518Q728 643 787 830L702 837Q655 661 571 532ZM101 -86Q158 -10 182.5 96.0Q207 202 207 303V485H923V555H131V303Q131 85 35 -47ZM200 -64H923V5H200ZM380 181Q371 227 351.5 289.5Q332 352 311 403L250 384Q271 330 290.0 267.0Q309 204 317 158ZM595 138Q568 138 550.5 150.5Q533 163 533 186Q533 210 550.5 223.5Q568 237 596 237Q618 237 635.0 223.0Q652 209 652 190Q652 165 636.0 151.5Q620 138 595 138ZM501 276Q485 351 463 405L403 390Q424 335 441 256ZM685 199V445H613V278ZM827 177Q867 256 915 392L846 415Q833 364 811.5 302.0Q790 240 770 198ZM636 5Q717 62 717 170Q717 230 681.5 263.5Q646 297 596 297Q539 297 503.5 267.0Q468 237 468 186Q468 133 503.5 103.5Q539 74 595 74Q624 74 649 93Q634 57 598.0 37.5Q562 18 501 5ZM200 -64H923V5H200ZM595 138Q568 138 550.5 150.5Q533 163 533 186Q533 210 550.5 223.5Q568 237 596 237Q618 237 635.0 223.0Q652 209 652 190Q652 165 636.0 151.5Q620 138 595 138Z" transform="translate(0, 880) scale(1,-1)" /></svg>