<svg xmlns="http://www.w3.org/2000/svg" width="1000" height="1000"><path d="M943 -12Q847 11 774.5 43.5Q702 76 619 124Q553 160 511.5 179.5Q470 199 419.5 212.0Q369 225 309 225Q202 225 134.0 181.5Q66 138 66 62Q66 -1 122.0 -38.5Q178 -76 273 -76Q456 -76 539.5 53.0Q623 182 644 385L564 391Q548 215 484.5 102.0Q421 -11 273 -11Q216 -11 181.0 7.5Q146 26 146 61Q146 108 187.0 132.5Q228 157 309 157Q370 157 425.0 135.0Q480 113 568 64Q662 13 737.0 -21.0Q812 -55 911 -79ZM0.0 0.0Q0 0 0.0 0.0Q0 0 0.0 0.0ZM81 272H157V503H81ZM382 276Q553 255 667 255Q797 255 866.5 286.5Q936 318 936 392Q936 435 889.5 467.5Q843 500 763.5 517.0Q684 534 590 534Q468 534 337.0 511.0Q206 488 111 436L135 369Q228 418 351.0 442.5Q474 467 584 467Q654 467 716.0 457.0Q778 447 815.5 429.0Q853 411 853 390Q853 350 808.5 332.5Q764 315 677 315Q578 315 387 337ZM168 606H829V673H168ZM168 743H832V810H168Z" transform="translate(0, 880) scale(1,-1)" /></svg>