<svg xmlns="http://www.w3.org/2000/svg" width="1000" height="1000"><path d="M108 361Q348 418 535.5 513.5Q723 609 817 729L763 782L740 770H296V706H682Q603 622 435.5 546.0Q268 470 64 429ZM150 509Q222 565 293.5 656.0Q365 747 402 835L323 850Q286 762 218.0 679.0Q150 596 84 552ZM129 121H935V194H129ZM478 -72Q545 -72 577.5 8.5Q610 89 610 264Q610 392 552.0 486.0Q494 580 401 643L339 593Q528 468 528 264Q528 116 512.0 57.5Q496 -1 467 -1Q443 -1 411.0 4.5Q379 10 349 20V-59Q402 -72 478 -72ZM159 280H905V353H159Z" transform="translate(0, 880) scale(1,-1)" /></svg>