<svg xmlns="http://www.w3.org/2000/svg" width="1000" height="1000"><path d="M499 228 928 399 878 468 855 461H672Q729 506 789.5 564.0Q850 622 897 680L819 710L800 699Q583 660 432.0 622.0Q281 584 182.5 530.5Q84 477 84 407Q84 366 122.0 337.5Q160 309 237 309Q308 309 372.5 334.0Q437 359 476.5 401.0Q516 443 516 491Q516 553 475.5 616.5Q435 680 345 739L285 704Q363 647 397.0 593.0Q431 539 431 498Q431 462 403.5 433.0Q376 404 331.5 388.5Q287 373 240 373Q200 373 182.5 380.5Q165 388 165 407Q165 449 253.0 490.5Q341 532 476.0 566.0Q611 600 752 620Q682 540 571 454L608 395L632 402H797L449 260ZM515 -80Q661 -80 752.5 -50.5Q844 -21 884.0 24.0Q924 69 924 118Q924 194 849.0 235.5Q774 277 620 277Q529 277 452.0 270.0Q375 263 283 250L312 185L339 188Q428 199 488.5 204.5Q549 210 620 210Q729 210 780.0 182.5Q831 155 831 110Q831 79 801.5 51.0Q772 23 701.5 5.0Q631 -13 515 -13Q428 -13 367.5 -2.5Q307 8 277.5 23.5Q248 39 248 52Q248 80 388 80Q503 80 503 54Q503 21 341 -15L366 -43Q472 -20 534.0 5.0Q596 30 596 54Q596 92 545.5 113.5Q495 135 388 135Q278 135 221.0 112.0Q164 89 164 52Q164 24 196.5 -6.5Q229 -37 308.0 -58.5Q387 -80 515 -80ZM101 654Q388 701 662 784L596 840Q482 805 339.5 770.5Q197 736 71 715Z" transform="translate(0, 880) scale(1,-1)" /></svg>