<svg xmlns="http://www.w3.org/2000/svg" width="1000" height="1000"><path d="M900 522Q921 550 930.0 578.5Q939 607 939 641Q939 752 617 752Q477 752 353.0 722.5Q229 693 147 642V743H69V530H147V594Q222 637 352.0 658.5Q482 680 617 680Q745 680 801.0 666.5Q857 653 857 634Q857 609 850.5 589.0Q844 569 826 547ZM579 713Q553 781 501 850L423 831Q446 799 467.0 761.5Q488 724 498 695ZM194 491H806V564H194ZM56 -56H946V19H489Q533 51 558.0 86.0Q583 121 583 155Q583 201 549.0 229.5Q515 258 451 258Q404 258 367.5 230.0Q331 202 331 164Q331 125 367.0 98.5Q403 72 463 72Q532 72 599.5 94.5Q667 117 710.0 157.5Q753 198 753 249Q753 287 728.0 319.5Q703 352 650.5 372.0Q598 392 518 392Q483 392 460.5 388.0Q438 384 404 373Q517 437 633 508L537 528Q465 476 394.5 431.0Q324 386 230 335Q205 322 176 311L142 296L197 232Q285 282 361.5 302.0Q438 322 515 322Q600 322 639.0 299.0Q678 276 678 243Q678 207 640.5 182.0Q603 157 552.5 145.5Q502 134 463 134Q402 134 402 167Q402 182 415.0 191.0Q428 200 451 200Q478 200 491.0 188.0Q504 176 504 155Q503 109 473.5 76.5Q444 44 387 19H56ZM950 242Q928 345 867 439L798 416Q827 375 843.5 328.5Q860 282 870 226Z" transform="translate(0, 880) scale(1,-1)" /></svg>