<svg xmlns="http://www.w3.org/2000/svg" width="1000" height="1000"><path d="M82 513H165V556Q241 604 364.0 629.0Q487 654 615 654Q729 654 780.5 643.0Q832 632 832 613Q832 573 801 535L883 508Q901 533 909.5 557.0Q918 581 918 614Q918 676 842.5 699.5Q767 723 615 723Q476 723 362.0 691.5Q248 660 165 604V709H82ZM140 422H860V492H140ZM120 278H880V349H120ZM446 138Q502 138 528.5 164.0Q555 190 555 244L556 823H477L476 254Q476 205 437 205Q384 205 323 224V150Q377 138 446 138ZM106 -67Q279 23 394 130L313 166Q197 51 50 -12ZM945 -14Q855 66 656 192L596 146Q802 7 878 -64Z" transform="translate(0, 880) scale(1,-1)" /></svg>