<svg xmlns="http://www.w3.org/2000/svg" width="1000" height="1000"><path d="M192 461H808V528H192ZM893 511Q912 544 920.0 571.0Q928 598 928 633Q928 753 617 753Q476 753 356.5 721.5Q237 690 156 633V739H78V529H156V584Q232 634 358.5 659.5Q485 685 617 685Q696 685 747.5 677.0Q799 669 822.5 657.0Q846 645 846 632Q846 579 814 539ZM566 718Q540 797 508 852L436 831Q474 768 491 697ZM103 -69Q395 66 759 324L693 366L665 350H387Q432 396 485.0 470.0Q538 544 589 633L507 648Q462 555 382.5 459.0Q303 363 229 309L283 259L319 288H590Q494 220 353.0 142.5Q212 65 56 -3ZM827 -57Q871 -57 896.0 -42.0Q921 -27 933.5 7.5Q946 42 952 105L876 121Q873 72 869.0 50.0Q865 28 856.5 21.0Q848 14 829 14H652Q627 14 615.0 22.5Q603 31 603 46V225H522V34Q522 -14 546.5 -35.5Q571 -57 638 -57Z" transform="translate(0, 880) scale(1,-1)" /></svg>