<svg xmlns="http://www.w3.org/2000/svg" width="1000" height="1000"><path d="M281 -72Q435 -72 533.5 14.5Q632 101 698.0 249.0Q764 397 867 699L884 749L819 776L806 769H498V685H775Q693 445 631.5 309.0Q570 173 485.5 91.0Q401 9 281 9Q242 9 211.0 35.0Q180 61 163.0 104.5Q146 148 146 198Q146 291 190.5 339.5Q235 388 317 388Q359 388 400.0 364.5Q441 341 478.5 305.0Q516 269 576 204Q637 137 683.0 92.0Q729 47 788.0 3.0Q847 -41 914 -70L954 8Q888 35 831.0 76.5Q774 118 730.5 161.5Q687 205 628 270Q564 341 521.0 381.0Q478 421 427.0 447.5Q376 474 317 474Q205 474 135.5 405.5Q66 337 66 198Q66 121 92.0 59.5Q118 -2 166.5 -37.0Q215 -72 281 -72ZM431 575Q405 637 367.0 703.0Q329 769 290 821L213 786Q247 743 283.5 675.0Q320 607 347 540Z" transform="translate(0, 880) scale(1,-1)" /></svg>