<svg xmlns="http://www.w3.org/2000/svg" width="1000" height="1000"><path d="M147 745H74V110H147ZM315 745H241V206H315ZM547 829 477 840C452 703 407 572 340 488L405 454C482 559 522 701 547 829ZM504 382H842V453H504ZM700 203C807 203 857 171 857 130C857 74 774 26 617 13L642 -46C813 -27 932 31 932 130C932 209 863 276 700 276C560 276 457 246 348 165L390 97C478 166 576 203 700 203ZM603 91 540 63C571 23 600 -44 616 -99L684 -71C667 -15 635 46 603 91ZM470 661V591H933V661Z" transform="translate(0, 880) scale(1,-1)" /></svg>