<svg xmlns="http://www.w3.org/2000/svg" width="1000" height="1000"><path d="M222 569H415L299 438L363 418L536 602L488 654L470 642H268C303 694 337 754 368 814L292 841C247 750 195 662 136 590L205 545ZM707 -64C863 -64 915 56 915 265C915 425 837 514 667 514C477 514 276 479 105 431L124 352C291 400 492 435 663 435C798 435 832 365 832 255C832 133 802 10 701 10C655 10 607 20 556 39V-46C606 -59 651 -64 707 -64ZM61 -7 119 -76C439 101 735 404 846 784L762 804C652 424 366 155 61 -7Z" transform="translate(0, 880) scale(1,-1)" /></svg>