<svg xmlns="http://www.w3.org/2000/svg" width="1000" height="1000"><path d="M0.0 0.0Q0 0 0.0 0.0Q0 0 0.0 0.0ZM57 -64H955V7H57ZM569 -25Q620 -11 669.5 14.0Q719 39 750.5 68.0Q782 97 782 122Q782 175 717.5 208.5Q653 242 512 242Q418 242 349.5 229.0Q281 216 245.0 193.5Q209 171 209 142Q209 96 257.0 74.5Q305 53 390 53Q493 53 542.5 87.0Q592 121 592 202V475H516V210Q516 156 482.5 134.0Q449 112 390 112Q340 112 315.0 120.0Q290 128 290 142Q290 158 347.0 169.0Q404 180 512 180Q609 180 652.0 161.0Q695 142 695 119Q695 104 668.5 81.0Q642 58 598.0 34.5Q554 11 503 -4ZM109 299H913V367H109ZM535 530Q433 459 290 405L351 353Q438 395 536.5 452.5Q635 510 700 556L638 601L619 595H367V530ZM335 663Q317 695 279.0 737.0Q241 779 199 814L137 782Q177 748 214.5 704.5Q252 661 269 628ZM462 616H538V841H462ZM128 454Q332 504 471.0 555.5Q610 607 702.0 662.0Q794 717 870 787L798 820Q732 757 646.5 709.0Q561 661 427.5 616.5Q294 572 86 523Z" transform="translate(0, 880) scale(1,-1)" /></svg>