<svg xmlns="http://www.w3.org/2000/svg" width="1000" height="1000"><path d="M97 789V713H903V789ZM215 144 250 83C427 148 625 252 709 315L667 369L641 358H419C478 408 544 502 589 606H506C462 502 406 421 317 341L345 284L370 297H549C477 246 365 194 215 144ZM801 71 848 123C800 157 709 204 635 235L596 186C673 153 754 107 801 71ZM160 430H903V495H160ZM219 624 247 560C437 569 652 589 803 617L775 682C649 656 434 633 219 624ZM931 -38V40C705 -11 416 1 270 49C183 79 141 160 136 336L61 323C64 132 119 19 239 -22C390 -74 699 -88 931 -38Z" transform="translate(0, 880) scale(1,-1)" /></svg>