<svg xmlns="http://www.w3.org/2000/svg" width="1000" height="1000"><path d="M890 462Q911 494 920.0 527.5Q929 561 929 601Q929 667 849.0 699.5Q769 732 617 732Q478 732 359.0 697.0Q240 662 157 602V721H79V471H157V547Q233 597 358.0 622.0Q483 647 617 647Q738 647 792.5 631.0Q847 615 847 594Q847 564 840.5 540.0Q834 516 816 491ZM578 687Q552 766 500 847L424 825Q447 787 468.0 743.0Q489 699 499 665ZM322 461Q525 423 644 385L678 469Q532 505 349 535ZM467 -73Q524 -73 559.0 -24.5Q594 24 594 110Q594 182 570.0 239.0Q546 296 498 346L430 302Q471 253 490.5 206.5Q510 160 510 110Q510 62 494.5 33.0Q479 4 459 3Q438 2 400.0 9.5Q362 17 323 31V-58Q388 -73 467 -73ZM121 40Q167 89 212.0 160.5Q257 232 286 301L202 325Q179 262 139.5 196.5Q100 131 55 84ZM959 65Q932 122 883.0 195.5Q834 269 780 331L704 296Q759 231 806.5 159.5Q854 88 877 34Z" transform="translate(0, 880) scale(1,-1)" /></svg>