<svg xmlns="http://www.w3.org/2000/svg" width="1000" height="1000"><path d="M104 -80Q201 102 201 469V668H948V741H598L548 845L473 827L513 741H126V468Q126 316 108.5 185.0Q91 54 37 -46ZM822 286Q899 366 899 447Q899 517 832.0 547.0Q765 577 637 577Q529 577 421.0 559.5Q313 542 223 515L244 451Q327 477 430.0 493.0Q533 509 637 509Q735 509 778.5 493.5Q822 478 822 445Q822 383 754 316ZM280 214H782V282H280ZM333 347H743V411H333ZM241 -80Q401 -14 479.0 72.5Q557 159 583.5 287.5Q610 416 610 643H532Q530 413 509.0 299.5Q488 186 418.5 115.0Q349 44 194 -19ZM937 -37Q793 86 640 173L595 119Q721 50 886 -91Z" transform="translate(0, 880) scale(1,-1)" /></svg>