<svg xmlns="http://www.w3.org/2000/svg" width="1000" height="1000"><path d="M431 323Q535 345 642 345Q723 345 761.0 326.0Q799 307 799 268Q799 227 751.0 168.0Q703 109 634.5 66.5Q566 24 508 24Q485 24 470.0 41.5Q455 59 455 82Q455 104 475.5 122.0Q496 140 522 140Q561 140 600.0 124.5Q639 109 674.5 86.0Q710 63 768 21Q801 -3 838.0 -28.5Q875 -54 908 -73L954 -12Q900 19 814 80Q749 126 706.0 153.0Q663 180 615.0 198.5Q567 217 519 217Q481 217 447.0 198.5Q413 180 392.0 149.0Q371 118 371 82Q371 47 387.0 16.0Q403 -15 433.0 -34.0Q463 -53 504 -53Q583 -53 671.0 0.0Q759 53 818.5 129.0Q878 205 878 268Q878 342 815.5 380.5Q753 419 637 419Q541 419 431 395ZM73 502H933V578H73ZM113 -44Q253 79 447.0 311.0Q641 543 780 758L710 812L687 799H224V725H667Q591 603 479.0 464.0Q367 325 250.5 204.0Q134 83 46 13Z" transform="translate(0, 880) scale(1,-1)" /></svg>