<svg xmlns="http://www.w3.org/2000/svg" width="1000" height="1000"><path d="M129 711Q600 715 891 764L843 832Q591 787 113 783ZM276 479Q263 519 240.5 569.5Q218 620 192 660L117 642Q145 597 169.0 544.5Q193 492 203 456ZM776 458Q817 520 886 654L801 677Q784 629 758.5 573.0Q733 517 709 479ZM328 382 354 399H698V471H426Q482 527 508.5 593.5Q535 660 542 768H461Q456 697 439.0 642.5Q422 588 383.0 537.5Q344 487 276 435ZM101 -83Q297 -40 391.0 14.0Q485 68 514.5 143.0Q544 218 544 350H456Q456 231 433.5 171.0Q411 111 328.0 67.5Q245 24 61 -13ZM73 201H922V275H73ZM933 -20Q873 14 780.5 53.5Q688 93 600 122L550 65Q634 37 724.5 -4.5Q815 -46 880 -83Z" transform="translate(0, 880) scale(1,-1)" /></svg>