<svg xmlns="http://www.w3.org/2000/svg" width="1000" height="1000"><path d="M103 -60Q209 124 209 501V709H933V787H131V501Q131 346 112.5 213.5Q94 81 35 -21ZM398 -73Q458 -73 507.5 -37.0Q557 -1 585.5 60.5Q614 122 614 196Q614 283 576.0 361.5Q538 440 445 526L381 489Q462 407 498.0 330.0Q534 253 534 196Q534 143 515.0 100.0Q496 57 464.5 32.5Q433 8 397 8Q353 8 328.5 32.5Q304 57 304 93Q304 154 367.5 206.5Q431 259 537.5 292.0Q644 325 767 331V29H667V-43L953 -45V29H845V389L784 418L770 401Q617 391 494.5 353.5Q372 316 299.5 250.0Q227 184 227 93Q227 18 272.5 -27.5Q318 -73 398 -73ZM302 443Q541 513 744 618L691 682Q609 636 496.0 591.5Q383 547 276 515Z" transform="translate(0, 880) scale(1,-1)" /></svg>