<svg xmlns="http://www.w3.org/2000/svg" width="1000" height="1000"><path d="M56 -78C163 29 253 182 335 414L288 450C214 231 123 87 21 -12ZM251 -74C319 -74 335 12 335 178C335 291 292 344 239 345C164 346 104 323 42 288L47 221C108 256 169 276 236 274C265 273 281 238 281 176C281 73 274 -3 250 -3C228 -3 211 3 190 17V-63C210 -71 229 -74 251 -74ZM166 283C218 387 237 462 237 612H186C186 480 173 411 123 321ZM134 483C282 426 344 500 344 647C344 749 311 817 227 817C165 817 123 751 107 671V790H54V457H107V608C136 701 170 744 227 744C276 744 289 706 289 647C289 577 268 494 134 549ZM563 95 590 162C506 254 433 412 461 803L395 807C364 388 456 204 563 95ZM676 -78C784 29 874 182 956 414L909 450C834 231 744 87 642 -12ZM872 -74C940 -74 956 12 956 178C956 291 912 344 860 345C785 346 724 323 662 288L668 221C729 256 789 276 857 274C886 273 902 238 902 176C902 73 895 -3 871 -3C848 -3 832 3 811 17V-63C831 -71 849 -74 872 -74ZM776 283C829 387 848 492 848 642H793C793 510 781 411 730 321ZM838 751C886 751 900 716 900 657C900 587 889 494 714 549V483C903 426 965 510 965 657C965 759 921 824 838 824C703 824 357 546 357 177C357 45 397 -50 466 -50C600 -50 665 147 645 713H581C603 246 557 28 466 28C423 28 416 100 416 177C416 482 723 751 838 751Z" transform="translate(0, 880) scale(1,-1)" /></svg>