<svg xmlns="http://www.w3.org/2000/svg" width="1000" height="1000"><path d="M124 476H203V628C302 707 415 753 586 753C758 753 811 717 811 651C811 538 602 535 307 570V489C637 463 890 472 890 651C890 748 826 831 586 831C399 831 276 777 203 697V798H124ZM108 -60H892V15H108ZM540 -5V662H460V-5ZM259 291H741V366H259ZM259 122H741V197H259ZM42 120 113 92C152 175 187 298 206 398L125 409C110 315 79 198 42 120ZM885 83 966 105C952 193 923 319 887 418L812 398C846 298 874 169 885 83Z" transform="translate(0, 880) scale(1,-1)" /></svg>