<svg xmlns="http://www.w3.org/2000/svg" width="1000" height="1000"><path d="M136 690Q303 692 486.0 710.5Q669 729 827 758L788 827Q650 799 471.5 781.0Q293 763 120 760ZM78 178Q99 193 124.5 217.0Q150 241 176 268Q190 282 212 282Q225 282 232.5 275.0Q240 268 247.0 246.5Q254 225 263 178L394 293L371 337L288 287Q281 338 235 354Q282 429 341 553L284 583Q221 458 165.0 379.5Q109 301 45 266ZM841 -65Q878 -65 897.0 -47.5Q916 -30 924.5 9.5Q933 49 937 127L866 144Q863 82 859.0 54.5Q855 27 846.0 16.5Q837 6 817 6H551Q523 6 514.0 16.5Q505 27 505 59V748H430V53Q430 4 437.0 -20.5Q444 -45 463.0 -55.0Q482 -65 520 -65ZM600 106Q755 255 870 416L803 455Q748 374 680.0 293.0Q612 212 551 151ZM587 364Q699 479 801 620L733 658Q641 517 538 404Z" transform="translate(0, 880) scale(1,-1)" /></svg>