<svg xmlns="http://www.w3.org/2000/svg" width="1000" height="1000"><path d="M87 -67Q283 22 379.5 127.5Q476 233 510.0 390.0Q544 547 544 824H465Q465 566 436.0 422.5Q407 279 318.0 180.5Q229 82 43 -1ZM803 -51Q863 -51 885.5 -10.5Q908 30 914 117L837 131Q835 84 831.0 62.0Q827 40 818.5 30.5Q810 21 791 21H637Q613 21 606.0 31.0Q599 41 599 76V368H520V77Q520 26 529.0 -1.0Q538 -28 560.5 -39.5Q583 -51 625 -51ZM80 472Q313 486 537.0 511.5Q761 537 931 573L889 651Q632 589 64 550ZM966 302Q911 335 843.5 366.0Q776 397 723 413L694 345Q748 328 809.5 297.0Q871 266 925 229Z" transform="translate(0, 880) scale(1,-1)" /></svg>