<svg xmlns="http://www.w3.org/2000/svg" width="1000" height="1000"><path d="M715 -76Q761 -76 793.5 -45.0Q826 -14 845.5 80.0Q865 174 865 352Q865 464 848.5 528.0Q832 592 795.5 620.5Q759 649 698 649Q644 649 591.5 630.5Q539 612 498 578L531 512Q604 567 698 567Q745 567 765.0 514.0Q785 461 785 352Q785 206 773.0 130.0Q761 54 743.0 29.5Q725 5 700 5Q670 5 643.5 10.0Q617 15 586 27V-62Q642 -76 715 -76ZM84 136 468 303 439 367 58 209ZM257 -72Q305 -72 323.0 -51.0Q341 -30 341 15V810H262V22Q262 4 240 4Q197 4 137 22V-60Q204 -72 257 -72ZM73 511H450V586H73ZM953 340Q876 356 767 356Q653 356 520 339V264Q636 276 729 276Q848 276 945 258Z" transform="translate(0, 880) scale(1,-1)" /></svg>