<svg xmlns="http://www.w3.org/2000/svg" width="1000" height="1000"><path d="M63 -14 112 -81C403 43 629 351 830 643L760 673C560 387 357 105 63 -14ZM667 -64H754C830 -64 855 -30 866 65L790 94C786 19 780 4 745 4H675C639 4 633 8 633 34V240H554V33C554 -42 572 -64 667 -64ZM95 562 141 508C297 613 388 711 459 828L371 839C321 753 230 645 95 562ZM929 83 969 146C915 189 845 228 775 261L739 207C815 170 874 130 929 83ZM352 363V290C779 235 882 315 882 431C882 521 786 567 655 567C604 567 538 561 490 552C569 619 635 679 709 760L655 796L638 786H371V724H568C500 642 429 580 358 537C305 506 259 487 179 442L223 376C346 460 512 499 655 499C767 499 803 468 803 431C803 355 684 307 352 363Z" transform="translate(0, 880) scale(1,-1)" /></svg>