<svg xmlns="http://www.w3.org/2000/svg" width="1000" height="1000"><path d="M796 -76Q861 -25 893.5 35.5Q926 96 926 194Q926 263 891.0 317.0Q856 371 793.0 401.0Q730 431 647 431Q498 431 401.5 365.5Q305 300 305 158Q305 91 331.5 42.5Q358 -6 401.0 -31.5Q444 -57 493 -57Q570 -57 619.0 -12.5Q668 32 668 121V829H587V132Q587 70 565.5 44.0Q544 18 493 18Q466 18 440.5 33.5Q415 49 398.5 81.0Q382 113 382 158Q382 258 457.0 307.0Q532 356 647 356Q742 356 795.5 312.0Q849 268 849 194Q849 122 825.0 76.5Q801 31 750 -9ZM110 -48H184V593H110ZM275 448Q317 448 341.5 484.0Q366 520 376.0 596.0Q386 672 386 799H88V729H310Q311 624 297.0 572.5Q283 521 257 521Q217 521 184 531V453Q219 448 275 448ZM419 577H906V650H419Z" transform="translate(0, 880) scale(1,-1)" /></svg>