<svg xmlns="http://www.w3.org/2000/svg" width="1000" height="1000"><path d="M501 680H67V611H501ZM322 463V817H246V463ZM465 493H103V425H465ZM204 -78H763C872 -78 905 -23 926 95L851 117C835 23 806 -5 742 -5H215C191 -5 182 -1 182 14C182 33 193 51 472 307L419 363C125 95 89 57 89 4C89 -45 110 -78 204 -78ZM96 272H413V345H96ZM610 328 655 282C852 368 911 412 911 479C911 557 796 597 530 612L522 543C759 530 822 498 822 476C822 445 792 405 610 328ZM544 84 606 33C749 101 872 185 929 242L882 309L854 302C764 323 660 341 524 349L515 277C647 271 735 259 806 244C764 199 672 140 544 84ZM562 591 610 560C708 621 792 702 863 794L785 828C724 736 648 653 562 591Z" transform="translate(0, 880) scale(1,-1)" /></svg>