<svg xmlns="http://www.w3.org/2000/svg" width="1000" height="1000"><path d="M596 -71C763 -71 904 48 904 248C904 486 725 551 567 549C387 548 268 509 89 417L128 343C299 444 433 470 567 470C682 470 816 406 816 248C816 90 706 2 589 2C449 2 296 57 296 174C296 227 352 265 434 265C513 265 548 236 548 194C548 153 497 96 375 38L412 0C539 52 624 116 624 194C624 291 544 343 434 343C331 343 216 283 216 174C216 34 382 -71 596 -71ZM236 580 311 610C286 664 241 735 191 797L120 773C168 710 212 636 236 580ZM458 514H540V840H458ZM748 579C799 633 839 706 882 781L801 805C772 737 732 659 683 603Z" transform="translate(0, 880) scale(1,-1)" /></svg>