<svg xmlns="http://www.w3.org/2000/svg" width="1000" height="1000"><path d="M501 59C801 59 914 177 914 273C914 359 855 455 500 455C329 455 207 428 67 360L102 300C211 355 341 387 500 387C773 387 828 323 828 273C828 213 728 122 501 122C325 122 266 142 266 177C266 211 347 245 487 245C587 245 674 221 731 148L791 187C708 265 613 302 487 302C294 302 182 245 182 177C182 106 259 59 501 59ZM455 -79H534V413H455ZM212 521 788 520V589H212ZM59 660H937V732H553L513 835L441 818L470 732H59Z" transform="translate(0, 880) scale(1,-1)" /></svg>