<svg xmlns="http://www.w3.org/2000/svg" width="1000" height="1000"><path d="M622 -74Q766 -74 833.5 43.5Q901 161 901 358Q901 533 820.5 614.5Q740 696 601 696Q490 696 388.5 675.5Q287 655 218 621L236 552Q305 585 403.5 603.5Q502 622 601 622Q705 622 761.5 550.5Q818 479 818 358Q818 196 769.5 98.0Q721 0 622 0Q551 0 487.5 31.5Q424 63 385.0 119.5Q346 176 346 247Q346 299 377.5 330.0Q409 361 478 361Q525 361 550.0 338.0Q575 315 575 285Q575 235 525.5 186.0Q476 137 374 85L423 47Q539 104 598.0 159.0Q657 214 657 285Q657 361 608.0 399.5Q559 438 478 438Q384 438 326.0 386.5Q268 335 268 247Q268 154 317.5 80.5Q367 7 448.5 -33.5Q530 -74 622 -74ZM107 356Q272 529 366 815L290 837Q250 707 187.0 595.5Q124 484 44 408Z" transform="translate(0, 880) scale(1,-1)" /></svg>