<svg xmlns="http://www.w3.org/2000/svg" width="1000" height="1000"><path d="M35 -21 101 -60C194 101 207 338 207 501V710H943V787H131V501C131 347 123 132 35 -21ZM401 427V352C754 321 877 383 877 501C877 585 809 642 594 642C446 642 322 611 250 577L284 511C356 546 462 572 594 572C724 572 798 545 798 501C798 432 695 386 401 427ZM240 -45H909V26H240ZM596 26H667C718 57 757 101 757 166C757 253 677 295 569 295C466 295 381 257 381 183C381 106 435 68 522 68C579 68 613 103 613 154V512H540V179C540 144 530 132 507 132C477 132 447 148 447 183C447 210 493 231 569 231C638 231 688 199 688 163C688 119 667 80 596 26Z" transform="translate(0, 880) scale(1,-1)" /></svg>