<svg xmlns="http://www.w3.org/2000/svg" width="1000" height="1000"><path d="M248 -62Q282 -62 299.0 -37.0Q316 -12 316 33V516H249V44Q249 6 227 6Q186 6 136 24V-51Q183 -62 248 -62ZM66 141 495 247 475 311 46 210ZM290 353Q341 364 383.5 392.0Q426 420 451.0 461.0Q476 502 476 549Q476 626 429.0 662.5Q382 699 316 699Q245 699 204 666Q236 712 260.5 742.0Q285 772 321 805L248 845Q181 753 144.5 689.5Q108 626 93 572Q83 538 83 497Q83 435 109 357L180 374Q166 410 159.0 438.0Q152 466 152 492Q152 525 163 557Q174 590 207.0 611.0Q240 632 281 632Q327 632 362.0 608.0Q397 584 397 548Q397 496 373.5 461.5Q350 427 289 411ZM817 548Q800 315 800 195Q800 93 810.5 38.0Q821 -17 843.0 -39.0Q865 -61 901 -61Q938 -61 956.5 -13.5Q975 34 977 117L925 131Q923 68 918.0 42.0Q913 16 901 16Q888 16 879.0 54.5Q870 93 870 187Q870 337 896 607L840 633L827 622H506V548ZM474 -76Q568 10 619.0 134.5Q670 259 688.5 425.0Q707 591 707 834H635Q635 592 619.5 438.5Q604 285 558.0 173.5Q512 62 423 -17ZM764 278Q720 308 648.0 345.0Q576 382 503 413L473 353Q551 317 622.5 278.0Q694 239 734 209Z" transform="translate(0, 880) scale(1,-1)" /></svg>