<svg xmlns="http://www.w3.org/2000/svg" width="1000" height="1000"><path d="M311 637Q233 585 170.0 509.5Q107 434 70.5 345.0Q34 256 34 168Q34 104 52.5 53.0Q71 2 102.5 -27.0Q134 -56 170 -56Q234 -56 275.5 -1.0Q317 54 338.0 177.0Q359 300 359 504Q359 604 355 697H293Q299 583 299 490Q299 255 265.5 138.0Q232 21 170 21Q137 21 117.0 64.5Q97 108 97 168Q97 286 165.5 392.0Q234 498 342 573ZM302 153Q241 216 206.5 325.0Q172 434 172 617Q172 704 179 796L115 800Q107 696 107 621Q107 415 151.0 288.0Q195 161 273 87ZM652 -78Q780 23 855.5 203.5Q931 384 940 650L882 674L867 658H709V588H866Q854 373 790.5 226.0Q727 79 601 -24ZM970 -37Q923 62 850.0 180.5Q777 299 706 390L645 349Q720 256 792.5 137.5Q865 19 909 -77ZM714 522Q750 656 765 811L697 818Q681 650 649 537ZM383 693V626H633V693ZM387 477V408H631V477ZM357 165 375 93 670 230 653 290ZM493 -68Q522 -68 541.0 -46.0Q560 -24 560 18V837H491V20Q491 2 473 2Q439 2 397 20V-56Q448 -68 493 -68Z" transform="translate(0, 880) scale(1,-1)" /></svg>