<svg xmlns="http://www.w3.org/2000/svg" width="1000" height="1000"><path d="M84 553 122 483C249 557 385 597 567 597C782 597 831 497 831 393C831 251 741 180 606 180C500 180 403 183 298 197V122C403 108 500 106 606 106C815 106 911 233 911 393C911 532 855 676 567 676C367 676 205 626 84 553ZM299 652 376 683C358 727 325 793 293 840L220 813C248 768 285 697 299 652ZM704 647C734 696 772 769 795 821L709 844C694 793 663 720 634 668ZM331 217 408 235C397 335 374 436 344 529L272 510C303 416 323 317 331 217ZM164 331H825V412H164ZM542 -12C605 161 647 353 677 529L597 539C573 369 533 183 473 5ZM134 -57H862V22H134Z" transform="translate(0, 880) scale(1,-1)" /></svg>