<svg xmlns="http://www.w3.org/2000/svg" width="1000" height="1000"><path d="M69 -79Q270 -54 453.5 3.5Q637 61 760.5 161.0Q884 261 884 402Q884 465 851.0 521.0Q818 577 743.0 612.5Q668 648 551 648Q431 648 333.5 617.0Q236 586 179.5 527.5Q123 469 123 390Q123 345 150.5 304.5Q178 264 227.0 239.5Q276 215 337 215Q421 215 482.0 257.0Q543 299 543 393V840H469V393Q469 336 433.0 311.0Q397 286 337 286Q274 286 238.5 316.5Q203 347 203 390Q203 472 292.5 520.0Q382 568 551 568Q685 568 741.5 521.0Q798 474 798 403Q798 282 674.5 195.5Q551 109 376.5 60.0Q202 11 33 -7Z" transform="translate(0, 880) scale(1,-1)" /></svg>