<svg xmlns="http://www.w3.org/2000/svg" width="1000" height="1000"><path d="M45 -46 112 -87C200 31 217 196 217 325V525H918V597H144V327C144 211 125 63 45 -46ZM38 598 105 560C192 647 247 738 282 835L207 850C172 753 122 677 38 598ZM181 678H902V750H181ZM565 209 614 165C795 212 863 246 863 296C863 367 692 397 314 409L303 345C665 336 752 312 752 294C752 271 703 245 565 209ZM303 -16 361 -79C581 -21 804 70 906 131L859 196L844 191C680 213 504 229 296 237L282 169C485 160 638 148 749 133C672 97 495 29 303 -16ZM383 394 425 356C561 403 670 459 761 513L677 549C601 494 500 442 383 394Z" transform="translate(0, 880) scale(1,-1)" /></svg>