<svg xmlns="http://www.w3.org/2000/svg" width="1000" height="1000"><path d="M435 -83Q497 -83 523.0 -68.0Q549 -53 549 -4V253Q612 277 673.5 312.5Q735 348 785 386L736 428L720 421H236V358H626Q538 303 473 281V11Q473 -1 464.5 -8.5Q456 -16 441 -17Q364 -19 290 5V-69Q372 -83 435 -83ZM959 210Q794 231 570 231Q341 231 55 209V146Q313 164 518 164Q753 164 939 141ZM895 380Q934 413 934 471Q934 536 845.5 566.0Q757 596 614 596Q475 596 368.5 574.5Q262 553 154 504V561H82V392H154V462Q275 498 376.5 509.5Q478 521 613 521Q718 521 784.5 505.5Q851 490 851 464Q851 441 827 420ZM0.0 0.0Q0 0 0.0 0.0Q0 0 0.0 0.0ZM121 742V672H879V742ZM462 845V552H538V845Z" transform="translate(0, 880) scale(1,-1)" /></svg>