<svg xmlns="http://www.w3.org/2000/svg" width="1000" height="1000"><path d="M738 251Q811 251 847.5 312.5Q884 374 884 501Q884 607 813.5 665.0Q743 723 593 723Q485 723 387.0 702.0Q289 681 221 647V713H146V255H221V595Q294 623 389.5 638.5Q485 654 593 654Q702 654 753.5 617.5Q805 581 805 501Q805 411 787.0 363.0Q769 315 741 315Q685 315 627 338V269Q687 251 738 251ZM545 785Q482 804 401.5 822.5Q321 841 252 852L227 801Q290 790 364.5 770.0Q439 750 502 729ZM305 526H715V586H305ZM548 695H472L474 345Q474 332 470.5 326.5Q467 321 456 321Q405 321 341 342V277Q413 261 462 261Q512 261 530.0 281.0Q548 301 548 348ZM295 406H725V467H295ZM104 -70Q315 23 412 112L333 144Q290 100 211.5 54.0Q133 8 50 -22ZM70 163H937V231H70ZM945 -24Q897 12 818.0 59.0Q739 106 656 150L598 108Q806 -9 880 -68Z" transform="translate(0, 880) scale(1,-1)" /></svg>