<svg xmlns="http://www.w3.org/2000/svg" width="1000" height="1000"><path d="M347 637Q265 585 198.5 509.5Q132 434 93.0 345.0Q54 256 54 168Q54 104 73.5 53.0Q93 2 126.5 -27.0Q160 -56 198 -56Q266 -56 309.5 -1.5Q353 53 375.0 175.0Q397 297 397 499Q397 601 393 697H328Q334 585 334 492Q334 257 298.5 139.0Q263 21 198 21Q163 21 142.0 64.5Q121 108 121 168Q121 286 193.5 392.5Q266 499 380 573ZM337 153Q272 216 235.5 325.5Q199 435 199 619Q199 692 207 796L140 800Q132 713 132 620Q132 413 178.0 287.0Q224 161 307 87ZM752 -69Q844 -69 894.5 22.0Q945 113 945 268Q945 417 887.0 479.5Q829 542 712 542Q666 542 632 535Q648 549 663 562Q741 629 789.5 673.0Q838 717 877 759L827 806L808 798H437V724H741Q656 625 516 510L486 491L415 447L446 386Q571 473 699 473Q785 473 829.0 426.5Q873 380 873 266Q873 160 840.0 81.5Q807 3 747 3Q715 3 688.0 9.5Q661 16 634 32V-48Q688 -69 752 -69ZM487 51Q521 51 578.0 101.5Q635 152 692.0 223.0Q749 294 781 350L729 404Q701 351 655.5 287.0Q610 223 566.5 179.0Q523 135 499 135Q481 135 473 206L414 190Q424 120 441.5 85.5Q459 51 487 51ZM746 148Q716 197 667.5 260.0Q619 323 579 364L538 311Q573 276 620.5 211.0Q668 146 702 91Z" transform="translate(0, 880) scale(1,-1)" /></svg>