<svg xmlns="http://www.w3.org/2000/svg" width="1000" height="1000"><path d="M513 741H131V470C131 325 123 122 35 -23L101 -60C194 92 207 317 207 470V668H943V741H598L548 845L473 827ZM401 401V330C754 300 877 359 877 470C877 550 809 605 594 605C446 605 322 576 250 543L284 479C356 513 462 537 594 537C724 537 798 513 798 470C798 406 695 362 401 401ZM240 -46H909V21H240ZM596 21H667C718 51 757 92 757 154C757 236 677 275 569 275C466 275 381 240 381 170C381 97 435 61 522 61C579 61 613 94 613 143V481H540V167C540 133 530 122 507 122C477 122 447 137 447 170C447 195 493 215 569 215C638 215 688 185 688 151C688 109 667 73 596 21Z" transform="translate(0, 880) scale(1,-1)" /></svg>