<svg xmlns="http://www.w3.org/2000/svg" width="1000" height="1000"><path d="M201 -62C349 -62 412 119 412 262C412 383 351 505 201 561L175 498C295 448 335 349 335 262C335 155 295 20 201 20C166 20 140 43 140 104C140 220 235 308 425 441L379 496C192 370 59 245 59 104C59 -17 119 -62 201 -62ZM211 533 262 509C322 582 396 687 434 760L382 799L366 791H76V714H321C290 651 246 582 211 533ZM559 40V-46C601 -55 652 -60 703 -60C845 -60 932 54 932 241C932 400 854 507 730 507C697 507 670 501 643 491C725 572 828 660 896 748L836 808L822 797H488V720H773C718 646 613 546 541 475C526 460 508 450 487 439L522 370C573 415 650 436 710 436C802 436 853 360 853 242C853 80 786 17 690 17C638 17 597 25 559 40ZM500 116H769V182H500ZM500 257H769V325H500Z" transform="translate(0, 880) scale(1,-1)" /></svg>