<svg xmlns="http://www.w3.org/2000/svg" width="1000" height="1000"><path d="M652 570 690 625C576 664 486 689 351 705L326 649C461 629 550 607 652 570ZM519 664 602 640C691 676 810 736 871 776L823 817L807 813H153V745H692C640 716 592 692 519 664ZM220 458 286 490C269 525 224 574 184 610L120 581C157 545 198 493 220 458ZM482 476 554 501C541 540 506 589 470 632L402 608C435 567 468 514 482 476ZM696 482 759 465C801 503 846 550 879 594L805 624C780 580 736 524 696 482ZM812 288 883 264C907 298 918 330 918 371C918 454 805 483 617 483C426 483 268 444 161 379V461H85V279H161V326C268 388 453 412 617 412C787 412 839 388 839 370C839 343 833 317 812 288ZM403 -26 459 -52C548 -19 637 49 637 115C637 158 594 206 491 206C384 206 348 161 348 123C348 83 406 40 530 40C720 40 829 97 829 202C829 285 775 349 582 349C405 349 286 316 199 276L236 226C322 262 447 288 582 288C712 288 748 242 748 202C748 129 679 92 530 92C455 92 422 102 422 123C422 142 443 157 491 157C536 157 564 143 564 115C564 54 498 12 403 -26ZM184 328V57H261V328ZM107 -2V-71H893V-2Z" transform="translate(0, 880) scale(1,-1)" /></svg>