<svg xmlns="http://www.w3.org/2000/svg" width="1000" height="1000"><path d="M538 -67C686 -67 768 33 768 193C768 326 701 423 553 423C510 423 471 415 436 389C468 436 523 503 558 547L491 600C415 463 323 344 227 254L300 213C392 338 439 348 553 348C642 348 682 291 682 193C682 89 630 11 538 11C474 11 422 20 364 51V-39C421 -61 472 -67 538 -67ZM44 442 108 384C205 463 320 592 404 798L324 820C266 667 164 528 44 442ZM900 393 961 456C857 534 735 687 673 822L604 794C675 646 795 483 900 393Z" transform="translate(0, 880) scale(1,-1)" /></svg>