<svg xmlns="http://www.w3.org/2000/svg" width="1000" height="1000"><path d="M768 577Q810 577 830.0 554.0Q850 531 854.5 498.5Q859 466 859 413Q859 314 837.5 245.0Q816 176 779 176Q736 176 687 188V115Q736 107 797 107Q845 107 876.0 153.0Q907 199 921.0 269.0Q935 339 935 413Q935 487 925.5 535.0Q916 583 880.0 615.5Q844 648 771 648Q626 648 502.5 605.0Q379 562 304.5 479.5Q230 397 230 284Q230 229 257.5 199.5Q285 170 337 170Q390 170 425.5 215.0Q461 260 477.0 327.5Q493 395 493 463Q493 576 449.0 647.5Q405 719 318 719Q217 719 163 590L190 773H110Q87 517 87 332Q87 230 93 129H168L162 230Q157 290 157 326Q157 391 174 464Q182 500 203.5 542.0Q225 584 255.0 613.5Q285 643 318 643Q365 643 391.5 595.0Q418 547 418 463Q418 408 405.5 359.0Q393 310 374.0 280.0Q355 250 337 250Q304 250 304 284Q304 382 371.5 448.0Q439 514 545.0 545.5Q651 577 768 577ZM507 98Q587 165 636.0 258.0Q685 351 712.5 480.0Q740 609 758 803L682 807Q664 617 637.0 492.5Q610 368 563.5 281.5Q517 195 441 133ZM71 43V-34H929V43Z" transform="translate(0, 880) scale(1,-1)" /></svg>