<svg xmlns="http://www.w3.org/2000/svg" width="1000" height="1000"><path d="M196 -12Q190 38 190 88Q190 231 235 374L155 382Q132 313 119.5 237.0Q107 161 107 87Q107 37 113 -10ZM481 -49Q522 -49 560.0 -41.0Q598 -33 644 -15V64Q547 20 489 20Q471 20 459.5 35.5Q448 51 448 81Q448 131 458.0 185.5Q468 240 491 338L501 381L425 390Q393 270 379.5 203.0Q366 136 366 73Q366 20 398.5 -14.5Q431 -49 481 -49ZM905 -18Q903 78 875.5 187.0Q848 296 805 382L727 363Q768 279 793.0 173.5Q818 68 820 -26ZM532 428Q633 498 722.0 584.5Q811 671 862 751L809 794L790 788H133V715H741Q704 661 633.5 595.5Q563 530 475 472Z" transform="translate(0, 880) scale(1,-1)" /></svg>