<svg xmlns="http://www.w3.org/2000/svg" width="1000" height="1000"><path d="M103 -60C196 101 209 338 209 501V708H933V787H131V501C131 347 123 132 35 -21ZM694 -83C842 -83 933 40 933 189C933 352 832 412 642 412C601 412 562 410 531 407C619 453 757 520 846 579L789 616L765 610H292V539H668C592 489 505 448 385 388C367 378 309 357 258 337L296 277C394 319 517 346 642 346C769 346 856 315 856 189C856 87 807 -15 694 -15C633 -15 590 -7 540 11V-66C588 -78 636 -83 694 -83ZM334 80C380 128 412 185 440 243L374 259C349 206 318 152 277 105ZM512 35H584V296H512ZM748 84 806 118C781 164 743 218 704 265L645 235C687 183 721 133 748 84Z" transform="translate(0, 880) scale(1,-1)" /></svg>