<svg xmlns="http://www.w3.org/2000/svg" width="1000" height="1000"><path d="M639 331H714L716 810H641ZM284 331H359V810H284ZM60 476H942V541H60ZM84 647H918V711H84ZM373 7H475C575 39 668 93 668 157C668 198 616 247 503 247C385 247 343 200 343 164C343 125 408 80 546 80C758 80 877 152 877 253C877 326 770 381 555 381C352 381 193 341 100 311L138 250C232 277 399 311 555 311C701 311 791 294 791 253C791 182 712 135 546 135C462 135 426 144 426 164C426 182 449 195 503 195C553 195 584 183 584 157C584 98 479 43 373 7ZM78 -41H922V29H78Z" transform="translate(0, 880) scale(1,-1)" /></svg>