<svg xmlns="http://www.w3.org/2000/svg" width="1000" height="1000"><path d="M202 461H799V528H202ZM893 517Q912 550 920.0 577.0Q928 604 928 639Q928 759 617 759Q476 759 356.5 727.5Q237 696 156 639V745H78V535H156V590Q232 640 358.5 665.5Q485 691 617 691Q696 691 747.5 683.0Q799 675 822.5 663.0Q846 651 846 638Q846 585 814 545ZM566 718Q540 797 508 852L436 831Q474 768 491 697ZM561 327Q665 327 714.0 310.0Q763 293 763 253Q763 197 705.0 164.5Q647 132 533 132Q421 132 421 165Q421 180 439.0 189.5Q457 199 490 199Q524 199 544.0 188.0Q564 177 564 157Q564 114 505.5 73.0Q447 32 360 1H462Q650 63 650 157Q650 198 610.0 225.0Q570 252 490 252Q413 252 374.5 226.5Q336 201 336 165Q336 129 388.0 104.5Q440 80 533 80Q633 80 705.0 101.5Q777 123 815.5 162.0Q854 201 854 253Q854 329 785.0 365.0Q716 401 570 401Q471 401 396 374Q451 419 493.0 477.0Q535 535 574 622L496 647Q459 549 395.5 471.0Q332 393 254 334Q235 320 176 290L226 231Q300 282 382.0 304.5Q464 327 561 327ZM93 -56H937V13H93Z" transform="translate(0, 880) scale(1,-1)" /></svg>