<svg xmlns="http://www.w3.org/2000/svg" width="1000" height="1000"><path d="M639 317Q718 317 751.0 300.0Q784 283 784 250Q784 206 714.0 155.0Q644 104 534 65L554 1Q690 41 779.0 109.5Q868 178 868 255Q868 315 809.5 353.5Q751 392 639 392Q464 392 335.0 353.5Q206 315 137.5 251.0Q69 187 69 115Q69 53 113.5 12.5Q158 -28 231 -28Q320 -28 388.5 19.0Q457 66 499.0 153.0Q541 240 551 357L472 362Q459 206 398.5 127.0Q338 48 231 48Q192 48 170.0 68.0Q148 88 148 115Q148 160 203.5 207.0Q259 254 370.0 285.5Q481 317 639 317ZM127 472Q162 544 192.5 636.0Q223 728 239 810L163 824Q146 741 117.0 654.5Q88 568 55 506ZM155 606H751V680H155ZM940 -15Q811 37 752.0 101.0Q693 165 666.0 329.0Q639 493 639 842H561Q562 483 592.0 306.5Q622 130 684.5 54.5Q747 -21 879 -82ZM943 607Q905 716 850 811L782 782Q836 692 868 580ZM216 458H512V528H216ZM397 73Q332 154 332 261Q332 368 394 474L321 489Q252 359 252 250Q252 133 331 28Z" transform="translate(0, 880) scale(1,-1)" /></svg>