<svg xmlns="http://www.w3.org/2000/svg" width="1000" height="1000"><path d="M501 692H71V615H501ZM326 463V842H251V463ZM474 497H94V423H474ZM480 336H93V259H480ZM326 59V306H251V59ZM510 160 66 40 83 -41 527 89ZM499 509H952V585H499ZM720 -74Q860 -74 860 119V835H784V152Q784 76 770.5 40.0Q757 4 714 4Q679 4 661.0 28.0Q643 52 643 91Q643 125 654.5 145.5Q666 166 692 177Q705 182 725 182Q763 182 809 164L816 239Q767 256 720 256Q686 256 662 246Q618 229 593.5 192.5Q569 156 569 92Q569 12 610.5 -31.0Q652 -74 720 -74Z" transform="translate(0, 880) scale(1,-1)" /></svg>