<svg xmlns="http://www.w3.org/2000/svg" width="1000" height="1000"><path d="M383 726Q369 754 346.5 789.0Q324 824 302 850L230 829Q252 802 274.5 765.5Q297 729 307 703ZM700 693Q743 754 788 838L705 857Q694 826 673.5 785.0Q653 744 632 711ZM475 -11H517Q699 -11 784.5 24.0Q870 59 870 141Q870 174 834.5 200.5Q799 227 733.5 241.5Q668 256 580 256Q455 256 348.0 236.0Q241 216 108 165L139 103Q246 146 360.0 167.5Q474 189 580 189Q676 189 730.0 173.0Q784 157 784 133Q784 109 742.0 89.0Q700 69 617.5 56.5Q535 44 420 43ZM542 -62Q492 25 390 119L328 87Q365 54 406.5 2.5Q448 -49 472 -94ZM76 289H924V356H76ZM634 356Q675 364 705.5 385.5Q736 407 752.5 433.0Q769 459 769 480Q769 507 738.0 529.0Q707 551 645.5 564.0Q584 577 495 577Q361 577 285.0 553.5Q209 530 209 488Q209 448 264.0 423.5Q319 399 426 399Q486 399 513.5 418.5Q541 438 541 465V665H459V493Q459 451 400 451Q374 451 341.5 462.0Q309 473 309 486Q309 524 495 524Q544 524 585.0 517.0Q626 510 650.0 499.5Q674 489 674 478Q674 449 635.5 415.0Q597 381 501 356ZM87 633H914V698H86Z" transform="translate(0, 880) scale(1,-1)" /></svg>