<svg xmlns="http://www.w3.org/2000/svg" width="1000" height="1000"><path d="M377 617 411 686C315 732 237 766 148 793L126 725C211 700 283 670 377 617ZM144 86C144 241 476 493 952 509V592C437 569 63 295 63 86C63 -8 134 -61 215 -61C374 -61 425 115 425 250C425 505 313 570 75 567V496C273 498 345 454 345 242C345 146 318 19 215 19C176 19 144 41 144 86ZM684 -74C783 -74 824 -2 824 119V825H748V152C748 66 741 5 680 4C632 3 608 39 607 86C606 134 620 162 656 177C678 186 720 185 773 164L780 239C726 257 668 263 626 246C572 225 533 182 533 92C533 -17 596 -74 684 -74Z" transform="translate(0, 880) scale(1,-1)" /></svg>