<svg xmlns="http://www.w3.org/2000/svg" width="1000" height="1000"><path d="M365 301Q446 293 531 293Q698 293 777.5 337.0Q857 381 857 472Q857 551 783.0 592.5Q709 634 558 634Q484 634 416.0 618.0Q348 602 297.5 577.5Q247 553 222 527V461Q273 505 363.5 531.5Q454 558 558 558Q671 558 724.5 534.5Q778 511 778 472Q778 413 728.5 388.5Q679 364 575 364Q498 364 365 377ZM149 280H222V607H149ZM958 185Q793 206 570 206Q341 206 55 184V116Q299 133 516 133Q760 133 938 111ZM383 673Q338 768 285 835L216 807Q272 729 309 640ZM675 637Q738 710 794 812L714 841Q676 749 612 665ZM462 -71Q510 -70 530.5 -46.5Q551 -23 551 27V466H474V27Q474 11 468.0 5.0Q462 -1 446 -1Q382 -1 295 20V-60Q392 -73 462 -71Z" transform="translate(0, 880) scale(1,-1)" /></svg>