<svg xmlns="http://www.w3.org/2000/svg" width="1000" height="1000"><path d="M102 -77Q181 55 209.0 200.0Q237 345 236 501L234 729H759Q760 409 767.0 255.0Q774 101 802.5 15.5Q831 -70 894 -70Q922 -70 937.5 -53.0Q953 -36 961.0 2.0Q969 40 973 110L918 121Q916 62 911.0 36.0Q906 10 894 10Q869 10 856.0 67.0Q843 124 838.5 228.0Q834 332 834 500Q834 692 835 802H160V501Q160 340 137.0 203.5Q114 67 41 -35ZM491 387Q546 426 606.5 476.5Q667 527 709 570L672 627L656 618H298V549H587Q542 496 452 412ZM530 428Q461 428 400.5 413.5Q340 399 279 372L315 310Q390 357 522 357Q586 357 620.0 325.0Q654 293 654 232Q654 184 630.0 149.0Q606 114 566.5 96.5Q527 79 483 79Q438 79 413.0 92.5Q388 106 388 128Q388 151 403.0 166.0Q418 181 442 181Q483 181 508.0 152.0Q533 123 541 60L594 73Q585 152 546.0 197.0Q507 242 443 242Q410 242 382.0 226.0Q354 210 338.5 183.5Q323 157 323 128Q323 75 367.0 42.5Q411 10 486 10Q603 10 665.0 69.5Q727 129 727 232Q727 291 702.0 335.0Q677 379 632.0 403.5Q587 428 530 428Z" transform="translate(0, 880) scale(1,-1)" /></svg>