<svg xmlns="http://www.w3.org/2000/svg" width="1000" height="1000"><path d="M193 499H273V830H193ZM233 685H816V752H233ZM325 287Q442 279 518 279Q640 279 714.5 297.0Q789 315 823.0 353.0Q857 391 857 452Q857 526 782.5 567.5Q708 609 558 609Q432 609 320.5 571.0Q209 533 139 473L186 423Q250 476 349.0 507.0Q448 538 558 538Q670 538 724.0 514.0Q778 490 778 452Q778 392 728.0 369.0Q678 346 567 346Q491 346 325 358ZM958 181Q797 200 570 200Q334 200 55 180V113Q305 129 518 129Q764 129 938 109ZM462 -71Q510 -70 530.5 -47.0Q551 -24 551 24V460H474V24Q474 9 468.0 3.0Q462 -3 446 -3Q385 -3 295 17V-60Q392 -73 462 -71Z" transform="translate(0, 880) scale(1,-1)" /></svg>