<svg xmlns="http://www.w3.org/2000/svg" width="1000" height="1000"><path d="M508 -71C566 -71 593 -47 593 1V390H935V458H593V573H519V458H170V390H463C374 332 252 287 149 248L170 202L209 209H520L519 13C519 0 512 -7 494 -7C453 -7 406 3 344 22V-52C402 -67 451 -71 508 -71ZM77 -26C182 14 443 140 579 223L528 273C380 185 142 67 38 30ZM136 289C189 359 237 455 260 532L189 544C164 464 118 375 70 315ZM319 260 519 341 520 260ZM916 -23 968 25C866 78 711 143 582 180V119C693 80 814 34 916 -23ZM87 530 550 616 539 685 77 597ZM281 615H348V782H281ZM903 172 947 231C905 257 821 294 754 315L712 261C780 236 862 199 903 172ZM104 747H544V813H104ZM622 547H924V615H794V827H721V615H622Z" transform="translate(0, 880) scale(1,-1)" /></svg>