<svg xmlns="http://www.w3.org/2000/svg" width="1000" height="1000"><path d="M142 449Q194 518 235.5 623.5Q277 729 296 826L218 840Q201 744 159.0 643.5Q117 543 69 485ZM210 630H848V709H210ZM309 493V416H558Q467 343 336.0 249.5Q205 156 67 67L117 -6Q278 108 443.5 235.5Q609 363 696 442L655 503L627 493ZM511 -65Q554 -65 592.0 -56.5Q630 -48 674 -28V57Q626 33 590.5 21.5Q555 10 525 10Q506 10 498.5 17.0Q491 24 491 45V280H412V26Q412 -22 436.0 -43.5Q460 -65 511 -65ZM955 60Q769 201 626 281L579 220Q659 172 744.0 111.5Q829 51 902 -9Z" transform="translate(0, 880) scale(1,-1)" /></svg>