<svg xmlns="http://www.w3.org/2000/svg" width="1000" height="1000"><path d="M107 -72Q179 45 202.5 187.0Q226 329 226 492H954V565H226V687Q401 697 574.0 718.0Q747 739 875 767L831 832Q710 805 520.5 782.0Q331 759 149 750V481Q149 333 126.0 206.0Q103 79 34 -30ZM332 -41H409V188Q458 244 521.0 272.5Q584 301 669 301Q745 301 777.0 276.5Q809 252 809 206Q809 157 782.5 117.5Q756 78 702 39H509V-31H902V39H781Q828 60 856.0 98.5Q884 137 884 206Q884 282 828.0 326.5Q772 371 669 371Q568 371 511.0 342.5Q454 314 409 251V356H332Z" transform="translate(0, 880) scale(1,-1)" /></svg>