<svg xmlns="http://www.w3.org/2000/svg" width="1000" height="1000"><path d="M609 -64Q758 -33 847.0 63.5Q936 160 936 306Q936 416 883.0 489.0Q830 562 739.0 597.5Q648 633 532 633Q397 633 291.0 580.5Q185 528 125.5 434.0Q66 340 66 220Q66 150 97.5 95.0Q129 40 177.5 10.0Q226 -20 275 -20Q406 -20 500.0 92.5Q594 205 646.0 390.5Q698 576 712 801L636 815Q627 606 584.0 434.5Q541 263 464.5 161.0Q388 59 283 59Q251 59 217.5 81.5Q184 104 162.5 141.5Q141 179 141 220Q141 314 192.5 391.5Q244 469 333.5 514.0Q423 559 532 559Q616 559 689.5 534.0Q763 509 810.0 452.5Q857 396 857 309Q857 232 822.5 168.5Q788 105 721.5 63.0Q655 21 562 7ZM531 227Q448 294 406.0 372.5Q364 451 364 563Q364 671 407 827L328 837Q288 686 288 567Q288 297 482 164Z" transform="translate(0, 880) scale(1,-1)" /></svg>