<svg xmlns="http://www.w3.org/2000/svg" width="1000" height="1000"><path d="M678 -80C735 -79 767 -58 767 9L768 513C830 584 883 663 930 750L871 793L860 782C606 782 447 726 326 637C185 534 67 367 67 185C67 54 141 -56 219 -56C388 -56 465 138 438 697H368C396 236 332 21 219 21C166 21 140 118 140 194C140 359 243 480 363 573C470 656 595 713 815 713C787 655 741 587 691 531V21C691 3 680 -10 664 -11C633 -13 592 -7 547 13V-57C589 -73 635 -81 678 -80ZM349 114 384 177C280 268 201 410 236 796L165 800C126 386 217 213 349 114ZM956 327 967 406C850 428 694 429 489 402V330C692 354 848 347 956 327Z" transform="translate(0, 880) scale(1,-1)" /></svg>