<svg xmlns="http://www.w3.org/2000/svg" width="1000" height="1000"><path d="M538 -67Q648 -67 708.0 2.5Q768 72 768 193Q768 298 714.0 360.5Q660 423 553 423Q482 423 436 389Q453 413 482.0 450.5Q511 488 537 521Q548 534 558 547L491 600Q377 395 227 254L300 213Q346 275 381.0 303.5Q416 332 452.5 340.0Q489 348 553 348Q618 348 650.0 308.0Q682 268 682 193Q682 113 643.5 62.0Q605 11 538 11Q487 11 446.5 20.0Q406 29 364 51V-39Q405 -55 445.5 -61.0Q486 -67 538 -67ZM108 384Q298 539 404 798L324 820Q280 705 207.0 605.5Q134 506 44 442ZM961 456Q882 515 800.5 618.5Q719 722 673 822L604 794Q657 683 739.0 571.5Q821 460 900 393Z" transform="translate(0, 880) scale(1,-1)" /></svg>