<svg xmlns="http://www.w3.org/2000/svg" width="1000" height="1000"><path d="M445 366C518 366 556 393 556 450V775H477V462C477 436 467 423 432 423C388 423 350 428 305 443V379C349 370 399 366 445 366ZM112 597H888V671H112ZM151 727C392 730 678 748 875 778L825 846C627 816 370 800 122 799ZM82 457H918V532H82ZM642 -89C832 -69 950 5 950 142C950 282 786 349 500 349C228 349 54 259 54 118C54 -5 148 -76 281 -76C489 -76 667 111 702 366L624 371C598 144 446 7 281 7C189 7 135 51 135 118C135 182 235 275 500 275C758 275 869 204 869 142C869 54 778 3 608 -11ZM481 24 535 84C431 144 379 213 392 382L318 387C304 184 360 83 481 24Z" transform="translate(0, 880) scale(1,-1)" /></svg>