<svg xmlns="http://www.w3.org/2000/svg" width="1000" height="1000"><path d="M225 318Q283 315 330.5 337.0Q378 359 405.5 398.5Q433 438 433 485Q433 557 387.0 591.0Q341 625 253 626V552Q365 554 365 485Q365 397 225 382ZM301 571Q384 652 447 734L402 798L380 785H84V713H361Q313 647 262 595ZM42 179 55 106 412 216 400 279ZM787 -74Q869 -74 905.0 30.0Q941 134 941 358Q941 544 894.5 620.0Q848 696 762 696Q703 696 653.0 676.0Q603 656 565 621L574 552Q612 585 660.5 603.5Q709 622 762 622Q818 622 842.0 558.5Q866 495 866 358Q866 184 846.0 92.0Q826 0 783 0Q708 0 656 37L640 -36Q670 -54 704.0 -64.0Q738 -74 787 -74ZM504 362Q617 533 682 821L607 837Q579 705 537.5 594.0Q496 483 443 408ZM465 -68Q591 31 649.0 164.5Q707 298 730 481L658 487Q642 376 616.0 288.5Q590 201 540.5 123.0Q491 45 410 -17ZM197 -82Q233 -82 249.5 -63.5Q266 -45 266 -5V487H199V2Q199 -14 176 -14Q137 -14 86 2L87 -72Q143 -82 197 -82Z" transform="translate(0, 880) scale(1,-1)" /></svg>