<svg xmlns="http://www.w3.org/2000/svg" width="1000" height="1000"><path d="M70 37 119 -28C408 107 784 362 923 550L851 592C699 394 365 167 70 37ZM777 32C851 32 920 111 920 244C920 371 847 449 621 449C439 449 269 422 101 374L115 290C284 343 458 367 621 367C818 367 835 313 835 244C835 159 810 111 764 111C730 111 698 117 657 130V44C696 35 737 32 777 32ZM459 -70H541V579H821V657H151V579H459ZM326 661 397 692C380 734 343 801 308 850L240 823C274 774 310 706 326 661ZM599 690 660 661C698 711 734 768 765 829L687 851C663 793 632 737 599 690Z" transform="translate(0, 880) scale(1,-1)" /></svg>