<svg xmlns="http://www.w3.org/2000/svg" width="1000" height="1000"><path d="M622 4 667 -78C838 -22 919 34 919 189C919 332 758 413 550 413C260 413 55 246 55 83C55 -14 135 -68 242 -68C474 -68 527 143 527 266C527 377 466 490 292 547L259 483C402 434 446 347 446 266C446 136 380 10 242 10C196 10 137 36 137 83C137 189 287 338 550 338C706 338 833 296 833 189C833 74 766 26 622 4ZM305 520 372 495C460 569 551 668 607 743L542 779L520 774H77V698H476C429 632 362 567 305 520ZM895 455 966 511C915 586 842 665 766 737L703 690C785 611 843 536 895 455Z" transform="translate(0, 880) scale(1,-1)" /></svg>