<svg xmlns="http://www.w3.org/2000/svg" width="1000" height="1000"><path d="M682 167 727 233C569 340 390 430 235 495L193 433C352 366 527 270 682 167ZM647 -46C814 -46 917 143 917 377C917 636 786 722 584 722C405 722 276 683 166 612L194 537C286 600 429 635 572 635C728 635 836 576 836 375C836 213 765 34 641 34C583 34 529 47 473 75V-20C527 -38 582 -46 647 -46ZM163 154C302 265 411 407 463 557L386 578C340 435 241 312 105 219ZM240 -50C435 62 612 250 660 550L586 571C536 313 371 116 183 17ZM146 435C231 550 284 670 333 816L257 835C209 689 146 569 78 480Z" transform="translate(0, 880) scale(1,-1)" /></svg>