<svg xmlns="http://www.w3.org/2000/svg" width="1000" height="1000"><path d="M445 366Q556 366 556 450V775H477V462Q477 442 467.0 432.5Q457 423 432 423Q365 423 305 443V379Q369 366 445 366ZM112 597H888V671H112ZM151 727Q339 729 535.5 742.5Q732 756 875 778L825 846Q679 824 495.5 812.0Q312 800 122 799ZM82 457H918V532H82ZM642 -89Q789 -74 869.5 -16.0Q950 42 950 142Q950 245 834.0 297.0Q718 349 500 349Q365 349 264.0 320.5Q163 292 108.5 240.0Q54 188 54 118Q54 27 116.5 -24.5Q179 -76 281 -76Q384 -76 474.0 -19.0Q564 38 624.5 139.0Q685 240 702 366L624 371Q611 261 561.5 178.0Q512 95 438.0 51.0Q364 7 281 7Q213 7 174.0 37.0Q135 67 135 118Q135 153 173.5 189.5Q212 226 294.0 250.5Q376 275 500 275Q622 275 705.5 255.5Q789 236 829.0 205.5Q869 175 869 142Q869 76 802.5 38.0Q736 0 608 -11ZM535 84Q460 128 425.0 183.0Q390 238 390 334Q390 348 392 382L318 387Q316 347 316 329Q316 208 356.5 136.5Q397 65 481 24Z" transform="translate(0, 880) scale(1,-1)" /></svg>