<svg xmlns="http://www.w3.org/2000/svg" width="1000" height="1000"><path d="M34 -30 107 -72C205 89 226 283 226 469V531H914V605H226V684C450 697 698 725 875 764L831 832C671 796 393 762 149 750V481C149 326 137 132 34 -30ZM297 431V359H748C739 271 726 236 688 236C607 236 549 244 487 261V184C554 171 621 163 711 163C784 163 815 255 829 423L769 442L752 431ZM384 79V265H309V79C309 -34 359 -58 474 -58H761C879 -58 913 -2 933 163L860 178C848 31 824 15 751 15H474C400 15 384 28 384 79Z" transform="translate(0, 880) scale(1,-1)" /></svg>