<svg xmlns="http://www.w3.org/2000/svg" width="1000" height="1000"><path d="M274 520H926V593H751Q795 666 851 782L770 810Q752 762 723.0 701.0Q694 640 667 593H274ZM546 618Q533 658 504.5 709.0Q476 760 442 808L370 777Q402 732 429.5 682.0Q457 632 470 593ZM105 -40H181V741H105ZM809 -45Q862 -45 887.5 -3.0Q913 39 928 138L848 155Q842 87 828.0 57.0Q814 27 788 27H458Q422 27 407.0 31.5Q392 36 392 46Q392 57 416.5 77.0Q441 97 536.5 156.0Q632 215 853 347L806 420L784 410H354V333L681 334Q510 237 428.0 183.5Q346 130 320.0 101.0Q294 72 294 45Q294 2 324.5 -21.5Q355 -45 425 -45Z" transform="translate(0, 880) scale(1,-1)" /></svg>