<svg xmlns="http://www.w3.org/2000/svg" width="1000" height="1000"><path d="M82 573H165V618Q241 673 363.5 701.0Q486 729 615 729Q729 729 780.5 716.0Q832 703 832 682Q832 659 826.0 641.0Q820 623 806 605L888 576Q904 601 911.0 624.0Q918 647 918 683Q918 753 843.5 778.5Q769 804 615 804Q475 804 361.0 770.0Q247 736 165 672V790H82ZM93 381H913V451H93ZM421 480Q408 517 380.5 565.5Q353 614 323 653L253 629Q282 589 308.0 539.5Q334 490 345 454ZM652 435Q707 515 759 629L674 654Q658 605 632.5 550.0Q607 495 580 454ZM818 -76Q856 -26 874.5 21.5Q893 69 893 132Q893 170 868.5 202.5Q844 235 799.0 254.5Q754 274 695 274Q638 274 597.0 261.5Q556 249 518 224V352H446V190L430 177L467 122Q530 158 584.0 176.5Q638 195 695 195Q749 195 780.5 179.5Q812 164 812 132Q812 83 792.5 40.0Q773 -3 734 -45ZM275 -60Q386 -60 460.5 -49.0Q535 -38 619 -6L579 59Q513 33 432.0 23.5Q351 14 259 14Q230 14 214.0 27.0Q198 40 198 64Q198 101 211.0 147.5Q224 194 256 245L175 261Q146 205 132.0 151.0Q118 97 118 51Q118 -2 158.0 -31.0Q198 -60 275 -60Z" transform="translate(0, 880) scale(1,-1)" /></svg>