<svg xmlns="http://www.w3.org/2000/svg" width="1000" height="1000"><path d="M116 396Q291 428 491.0 495.0Q691 562 826 642L759 677Q632 606 444.0 550.0Q256 494 88 468ZM80 650 881 712 871 774 71 715ZM787 416Q827 416 850.5 427.0Q874 438 888.0 466.5Q902 495 909 549L845 569Q841 529 835.0 511.5Q829 494 817.0 488.5Q805 483 780 483Q676 483 588.5 532.5Q501 582 446.5 664.5Q392 747 381 842H301Q313 728 380.0 630.0Q447 532 554.0 474.0Q661 416 787 416ZM435 -79Q477 -79 500.5 -73.5Q524 -68 536.5 -51.5Q549 -35 549 -2V250Q618 276 689.0 311.5Q760 347 805 379L756 415L740 411H216V346H639Q565 306 473 276V14Q473 2 464.5 -6.0Q456 -14 441 -15Q365 -17 290 6V-66Q377 -79 435 -79ZM959 207Q793 228 566 228Q345 228 55 207V140Q302 157 521 157Q763 157 939 135Z" transform="translate(0, 880) scale(1,-1)" /></svg>