<svg xmlns="http://www.w3.org/2000/svg" width="1000" height="1000"><path d="M82 521H165V567C272 641 456 673 615 673C776 673 832 653 832 628C832 596 820 569 801 545L883 515C904 547 918 579 918 629C918 724 802 746 615 746C425 746 272 697 165 618V731H82ZM106 396 156 337C429 500 494 614 567 832L482 844C434 656 367 546 106 396ZM219 -65C372 -65 465 41 465 193C465 312 435 412 292 486L238 440C362 364 389 280 389 196C389 88 323 5 219 5C172 5 140 23 140 78C140 236 538 400 808 407C808 318 794 273 768 273C736 273 704 279 669 291V220C711 212 756 208 795 208C855 208 881 251 889 489C554 483 56 285 56 72C56 -22 127 -65 219 -65ZM681 -55H833C900 -55 933 -14 937 105L862 120C862 36 853 15 829 15H678C636 15 618 26 618 73V312H543V81C543 -25 593 -55 681 -55Z" transform="translate(0, 880) scale(1,-1)" /></svg>