<svg xmlns="http://www.w3.org/2000/svg" width="1000" height="1000"><path d="M426 379Q398 552 395 729H930V804H69V729H314Q318 556 351 368ZM636 347Q660 417 677.5 510.5Q695 604 702 699H624Q619 605 603.5 518.0Q588 431 565 369ZM849 357Q908 420 908 512Q908 579 837.0 612.5Q766 646 614 646Q488 646 369.0 611.5Q250 577 185 520V631H105V370H185V460Q267 518 382.0 544.5Q497 571 614 571Q717 571 770.5 554.0Q824 537 824 512Q824 481 812.0 453.5Q800 426 781 404ZM133 240H867V315H133ZM77 42V-36H923V42ZM462 266V23H538V266Z" transform="translate(0, 880) scale(1,-1)" /></svg>