<svg xmlns="http://www.w3.org/2000/svg" width="1000" height="1000"><path d="M331 649Q313 683 275.0 728.5Q237 774 195 812L130 777Q170 741 207.5 694.0Q245 647 262 611ZM460 569H540V841H460ZM724 611Q758 642 800.0 689.5Q842 737 877 783L802 818Q777 778 736.5 729.5Q696 681 658 645ZM412 -65Q483 -80 587 -80Q767 -80 842.0 -10.0Q917 60 917 181Q917 275 829.0 327.0Q741 379 563 379Q498 379 444 369Q533 405 617.0 443.5Q701 482 813 535L751 593L727 584H153V514H614Q523 468 417.5 421.5Q312 375 214 340Q187 330 80 295L129 231Q222 267 333.0 288.5Q444 310 547 310Q834 310 834 181Q834 86 772.0 39.0Q710 -8 581 -8Q531 -8 486.0 -1.0Q441 6 412 18ZM657 105Q614 136 546.0 173.5Q478 211 406 244L358 191Q427 160 495.0 120.5Q563 81 605 49Z" transform="translate(0, 880) scale(1,-1)" /></svg>