<svg xmlns="http://www.w3.org/2000/svg" width="1000" height="1000"><path d="M0.0 0.0Q0 0 0.0 0.0Q0 0 0.0 0.0ZM57 -64H955V7H57ZM503 -4 569 -25C669 2 782 69 782 122C782 185 714 242 512 242C321 242 209 200 209 142C209 78 283 53 390 53C522 53 592 91 592 202V475H516V210C516 133 461 112 390 112C320 112 290 125 290 142C290 161 359 180 512 180C657 180 695 143 695 119C695 89 609 28 503 -4ZM109 299H913V367H109ZM535 530C463 480 385 441 290 405L351 353C471 411 616 497 700 556L638 601L619 595H367V530ZM269 628 335 663C311 706 255 768 199 814L137 782C191 736 246 671 269 628ZM462 616H538V841H462ZM128 454C549 557 728 657 870 787L798 820C671 698 503 622 86 523Z" transform="translate(0, 880) scale(1,-1)" /></svg>