<svg xmlns="http://www.w3.org/2000/svg" width="1000" height="1000"><path d="M222 513V443H778V513ZM91 334V262H909V334ZM653 -94Q746 -70 791.5 -27.0Q837 16 837 69Q837 121 788.0 153.0Q739 185 647 185Q575 185 513.5 169.0Q452 153 409 130Q456 223 501.0 350.0Q546 477 575 601L494 609Q468 486 421.5 356.5Q375 227 316 112Q309 98 289.5 83.5Q270 69 219 35L262 -17Q359 48 460.5 80.5Q562 113 647 113Q700 113 727.0 100.0Q754 87 754 69Q754 38 717.0 9.5Q680 -19 615 -29ZM123 455Q185 542 233.5 634.5Q282 727 319 834L241 852Q171 641 62 500ZM211 642H877V714H211Z" transform="translate(0, 880) scale(1,-1)" /></svg>