<svg xmlns="http://www.w3.org/2000/svg" width="1000" height="1000"><path d="M820 418Q866 472 888.0 524.5Q910 577 910 632Q910 726 831.5 765.5Q753 805 603 805Q474 805 346.0 781.5Q218 758 115 722L140 647Q238 682 359.0 703.5Q480 725 603 725Q719 725 771.0 702.5Q823 680 823 630Q823 547 744 458ZM182 328H773V404H182ZM243 505H727V577H243ZM187 -77Q357 13 441.5 126.0Q526 239 551.0 367.5Q576 496 576 685H494Q492 494 471.0 381.0Q450 268 372.5 170.0Q295 72 131 -13Z" transform="translate(0, 880) scale(1,-1)" /></svg>