<svg xmlns="http://www.w3.org/2000/svg" width="1000" height="1000"><path d="M725 -61Q798 -61 832.5 -44.5Q867 -28 881.5 10.5Q896 49 907 133L823 152Q819 90 811.0 61.5Q803 33 782.5 21.0Q762 9 719 9H332Q253 9 224.0 25.0Q195 41 195 78Q195 152 298.5 235.5Q402 319 559 400Q689 468 771.0 533.0Q853 598 853 657Q853 729 778.0 764.5Q703 800 569 800Q432 800 311.0 770.0Q190 740 102 687L142 621Q336 724 569 724Q659 724 710.5 704.5Q762 685 762 657Q762 616 691.0 567.5Q620 519 491 452Q330 367 217.5 267.5Q105 168 105 79Q105 22 124.5 -8.0Q144 -38 189.0 -49.5Q234 -61 316 -61ZM746 305Q640 373 518.5 436.5Q397 500 286 541L243 478Q356 436 476.0 373.0Q596 310 696 242Z" transform="translate(0, 880) scale(1,-1)" /></svg>