<svg xmlns="http://www.w3.org/2000/svg" width="1000" height="1000"><path d="M119 -28Q265 40 426.5 141.0Q588 242 722.0 351.0Q856 460 923 550L851 592Q777 496 650.0 392.0Q523 288 370.5 195.0Q218 102 70 37ZM777 32Q815 32 847.5 58.0Q880 84 900.0 132.0Q920 180 920 244Q920 345 851.5 397.0Q783 449 621 449Q364 449 101 374L115 290Q361 367 621 367Q714 367 760.5 351.5Q807 336 821.0 310.5Q835 285 835 244Q835 180 816.5 145.5Q798 111 764 111Q717 111 657 130V44Q709 32 777 32ZM459 -70H541V579H821V657H151V579H459ZM397 692Q384 724 359.0 769.0Q334 814 308 850L240 823Q265 786 289.5 740.5Q314 695 326 661ZM660 661Q719 739 765 829L687 851Q651 764 599 690Z" transform="translate(0, 880) scale(1,-1)" /></svg>