<svg xmlns="http://www.w3.org/2000/svg" width="1000" height="1000"><path d="M96 326Q553 551 892 750L840 809L802 789H102V711H688Q599 661 416.5 572.0Q234 483 49 398ZM457 242Q563 242 563 336V587H488V356Q488 335 478.5 324.0Q469 313 445 313Q382 313 324 336V255Q379 242 457 242ZM948 405Q795 486 625 548L590 482Q775 410 902 323ZM106 -67Q318 53 414 169L333 209Q288 153 210.0 93.5Q132 34 50 -7ZM945 -9Q898 37 819.0 97.5Q740 158 656 216L596 165Q797 19 878 -64Z" transform="translate(0, 880) scale(1,-1)" /></svg>