<svg xmlns="http://www.w3.org/2000/svg" width="1000" height="1000"><path d="M646 327 678 406C599 426 503 443 445 453C501 531 559 648 595 839L516 845C482 669 428 557 329 440L367 375L387 385C466 374 566 354 646 327ZM60 471 131 432C212 532 264 659 303 790L226 806C190 670 138 556 60 471ZM217 589H863V665H217ZM467 -73C541 -73 594 -11 594 98C594 188 561 254 498 313L430 273C484 215 510 160 510 98C510 36 483 6 459 5C434 4 379 12 323 33V-58C371 -69 419 -73 467 -73ZM58 76 126 34C189 98 253 197 291 282L205 305C175 228 119 137 58 76ZM872 29 956 58C922 126 853 229 777 310L699 277C773 195 841 96 872 29Z" transform="translate(0, 880) scale(1,-1)" /></svg>