<svg xmlns="http://www.w3.org/2000/svg" width="1000" height="1000"><path d="M758 -48Q822 -48 858.5 -29.0Q895 -10 913.0 35.5Q931 81 938 164L858 177Q854 113 847.0 83.5Q840 54 822.5 42.5Q805 31 768 31H303Q189 31 189 74Q189 95 232.5 136.0Q276 177 413.5 276.0Q551 375 836 568L778 624L760 618H95V544H663Q412 373 289.0 279.5Q166 186 128.0 142.5Q90 99 90 67Q90 8 143.0 -20.0Q196 -48 307 -48ZM716 256Q603 305 470.5 349.5Q338 394 217 421L183 353Q299 329 426.0 285.0Q553 241 669 191ZM673 735Q618 756 520.5 786.5Q423 817 348 836L320 770Q387 754 484.0 720.5Q581 687 643 661Z" transform="translate(0, 880) scale(1,-1)" /></svg>