<svg xmlns="http://www.w3.org/2000/svg" width="1000" height="1000"><path d="M46 -8 104 -77C569 105 650 602 644 831H561C560 606 495 163 46 -8ZM900 -80 959 -15C797 138 645 254 477 355L440 285C591 192 726 76 900 -80ZM62 351H938V433H62ZM175 467 251 497C235 572 193 692 152 782L81 758C120 665 161 543 175 467ZM377 517 449 546C437 613 414 692 383 766L312 744C344 668 365 584 377 517ZM721 491 787 461C826 539 875 663 914 766L830 799C805 704 759 572 721 491Z" transform="translate(0, 880) scale(1,-1)" /></svg>