<svg xmlns="http://www.w3.org/2000/svg" width="1000" height="1000"><path d="M100 -60Q206 124 206 501V715H933V790H131V501Q131 346 112.5 213.5Q94 81 35 -21ZM575 422H651V679H575ZM474 487Q458 519 423.0 564.5Q388 610 351 649L287 626Q324 587 357.0 541.5Q390 496 405 463ZM809 465Q859 521 934 632L862 653Q842 612 810.0 564.0Q778 516 750 485ZM737 -81Q789 -81 826.5 -63.5Q864 -46 876 -15Q897 40 907.5 118.0Q918 196 918 273Q918 310 917 327Q913 393 858.5 424.5Q804 456 695 456Q556 456 386 430L388 369Q544 394 696 394Q762 394 801.0 377.0Q840 360 842 324Q843 314 843 291Q843 227 832.5 147.5Q822 68 808 23Q802 4 781.0 -7.5Q760 -19 727 -19Q653 -19 576 -2V-71Q669 -81 737 -81ZM269 -69Q328 12 359.5 88.5Q391 165 404.0 246.5Q417 328 421 446H347Q343 329 331.0 254.0Q319 179 289.5 112.5Q260 46 202 -30ZM775 113 776 168 453 170 452 116ZM783 241 784 298 470 300 469 243Z" transform="translate(0, 880) scale(1,-1)" /></svg>