<svg xmlns="http://www.w3.org/2000/svg" width="1000" height="1000"><path d="M104 -70Q316 31 412 126L333 161Q290 114 211.5 64.0Q133 14 50 -18ZM70 181H937V255H70ZM945 -20Q897 18 818.0 68.5Q739 119 656 167L598 122Q802 -1 880 -68ZM313 844Q300 778 300 716Q300 490 481 378L527 432Q449 487 410.0 552.5Q371 618 371 712Q371 772 385 835ZM618 842Q595 618 510.5 491.5Q426 365 288 365Q240 365 203.0 394.0Q166 423 166 469Q166 536 212.5 583.0Q259 630 340.5 654.0Q422 678 528 678Q653 678 742.0 635.5Q831 593 831 501Q831 403 760.5 342.0Q690 281 559 266L600 206Q741 229 822.0 303.0Q903 377 903 498Q903 627 799.0 691.0Q695 755 528 755Q397 755 299.0 723.0Q201 691 146.5 627.0Q92 563 92 469Q92 414 121.0 373.0Q150 332 195.5 310.0Q241 288 288 288Q458 288 558.0 433.5Q658 579 689 830Z" transform="translate(0, 880) scale(1,-1)" /></svg>