<svg xmlns="http://www.w3.org/2000/svg" width="1000" height="1000"><path d="M900 487Q921 517 930.0 548.0Q939 579 939 617Q939 739 617 739Q476 739 352.5 706.5Q229 674 147 618V729H69V495H147V566Q222 613 352.0 636.5Q482 660 617 660Q745 660 801.0 645.5Q857 631 857 610Q857 582 850.5 560.0Q844 538 826 514ZM578 697Q552 771 500 847L424 826Q447 790 468.0 749.5Q489 709 499 677ZM194 451H806V530H194ZM649 50Q716 132 767.5 208.5Q819 285 868 370L788 403Q742 315 694.0 240.0Q646 165 582 89ZM55 -56H945V22H55ZM394 90Q296 274 205 401L133 359Q229 231 325 52Z" transform="translate(0, 880) scale(1,-1)" /></svg>