<svg xmlns="http://www.w3.org/2000/svg" width="1000" height="1000"><path d="M94 90H176V745H94ZM283 186H364V745H283ZM598 104Q729 160 792.0 193.0Q855 226 883.5 258.0Q912 290 912 333Q912 391 838.5 433.0Q765 475 603 503Q722 554 806.5 611.0Q891 668 961 753L893 794L878 780H441V705H803Q729 639 647.0 593.0Q565 547 455 511L465 449Q660 421 743.0 390.5Q826 360 826 333Q826 303 764.0 266.0Q702 229 541 166ZM951 -29Q872 20 725.0 89.5Q578 159 449 208L422 142Q545 94 685.5 26.0Q826 -42 901 -91Z" transform="translate(0, 880) scale(1,-1)" /></svg>