<svg xmlns="http://www.w3.org/2000/svg" width="1000" height="1000"><path d="M397 410 467 380C528 505 555 650 569 847H488C474 654 453 524 397 410ZM82 462H165V513C272 595 456 631 615 631C776 631 832 609 832 581C832 545 820 515 801 488L883 455C904 491 918 526 918 582C918 688 802 713 615 713C425 713 272 658 165 570V696H82ZM371 -80C658 15 805 114 805 255C805 375 707 436 554 436C467 436 366 424 297 405L314 327C378 346 472 362 554 362C652 362 716 326 716 255C716 140 580 70 315 -6Z" transform="translate(0, 880) scale(1,-1)" /></svg>