<svg xmlns="http://www.w3.org/2000/svg" width="1000" height="1000"><path d="M141 508Q254 584 329.0 660.5Q404 737 459 828L371 839Q329 766 259.0 693.0Q189 620 95 562ZM352 290Q495 272 591 272Q752 272 817.0 314.0Q882 356 882 431Q882 496 819.5 531.5Q757 567 655 567Q617 567 571.5 563.0Q526 559 490 552Q555 607 606.0 655.0Q657 703 709 760L655 796L638 786H371V724H568Q468 604 358 537Q316 512 280 496Q258 484 233.0 471.0Q208 458 179 442L223 376Q312 437 427.0 468.0Q542 499 655 499Q734 499 768.5 480.5Q803 462 803 431Q803 389 753.0 364.0Q703 339 598 339Q495 339 352 363ZM957 -7Q874 14 806.5 45.5Q739 77 644 129Q569 171 519.5 194.5Q470 218 412.5 234.0Q355 250 293 250Q217 250 163.5 227.0Q110 204 83.0 166.5Q56 129 56 86Q56 19 101.0 -24.5Q146 -68 240 -68Q344 -68 431.5 16.0Q519 100 587.0 224.5Q655 349 754 564L792 646L719 674Q619 452 547.5 316.0Q476 180 397.5 91.5Q319 3 239 3Q190 3 163.0 26.0Q136 49 136 86Q136 126 178.0 151.0Q220 176 291 176Q342 176 390.5 162.5Q439 149 482.5 127.5Q526 106 595 68Q679 20 750.5 -14.0Q822 -48 910 -77ZM624 -69Q699 -3 765.5 72.0Q832 147 875 218L806 259Q766 187 702.0 109.5Q638 32 568 -29Z" transform="translate(0, 880) scale(1,-1)" /></svg>