<svg xmlns="http://www.w3.org/2000/svg" width="1000" height="1000"><path d="M280 74C383 74 473 169 473 288V831H389V295C389 206 343 149 280 149C207 149 151 182 151 224C151 295 387 325 581 325C767 325 848 291 848 237C848 200 824 175 783 158L834 102C895 128 934 171 934 238C934 323 823 399 581 399C338 399 67 343 67 222C67 155 155 74 280 74ZM123 -61H877V16H123ZM498 102H716V175H498ZM173 412 348 524 297 577 118 464ZM445 536V463C798 445 887 516 887 611C887 693 800 749 581 749C389 749 212 707 104 650L134 585C236 640 406 675 581 675C730 675 809 654 809 611C809 545 711 517 445 536Z" transform="translate(0, 880) scale(1,-1)" /></svg>