<svg xmlns="http://www.w3.org/2000/svg" width="1000" height="1000"><path d="M806 -71C875 -71 914 -39 914 38V637C914 736 863 795 774 795H365C237 795 166 763 126 723L147 651C190 696 268 722 378 722H754C810 722 835 690 835 631V47C835 17 823 3 800 3C759 3 725 14 678 34V-50C716 -63 758 -71 806 -71ZM182 -54H610V19H211C177 19 162 40 162 81V795H86V65C86 -23 121 -54 182 -54ZM459 47C512 47 549 75 549 125V644H476V144C476 120 468 109 450 109C414 109 386 116 355 128V59C389 52 425 47 459 47ZM177 142 235 106C330 204 400 333 428 454L361 461C327 337 274 236 177 142ZM788 140 810 207C652 273 498 322 338 357L324 295C483 262 641 202 788 140ZM213 438H787V502H213ZM232 644 253 580C420 585 619 605 756 632L720 693C583 666 405 647 232 644Z" transform="translate(0, 880) scale(1,-1)" /></svg>