<svg xmlns="http://www.w3.org/2000/svg" width="1000" height="1000"><path d="M324 579Q304 622 269.0 672.0Q234 722 191 764L125 727Q168 683 202.0 634.0Q236 585 254 542ZM459 481H539V830H459ZM207 246Q299 287 428.0 374.5Q557 462 681.5 565.0Q806 668 887 755L821 795Q749 714 630.5 618.5Q512 523 384.0 439.0Q256 355 155 306ZM339 323Q516 352 664 352Q751 352 788.0 320.5Q825 289 825 227Q825 134 802.5 68.5Q780 3 710 3Q640 3 557 23V-54Q625 -67 716 -67Q827 -67 866.0 18.5Q905 104 905 234Q905 421 668 421Q497 421 328 392ZM130 -56Q376 53 582.0 194.0Q788 335 884 508L812 546Q716 375 516.5 241.0Q317 107 80 6Z" transform="translate(0, 880) scale(1,-1)" /></svg>