<svg xmlns="http://www.w3.org/2000/svg" width="1000" height="1000"><path d="M366 404Q453 395 524 395Q695 395 776.0 447.5Q857 500 857 606Q857 706 779.5 757.5Q702 809 547 809Q439 809 352.5 780.5Q266 752 223 715V629Q276 676 361.0 703.5Q446 731 547 731Q668 731 723.0 700.5Q778 670 778 606Q778 531 722.0 497.5Q666 464 547 464Q471 464 366 476ZM486 282Q534 353 534 465V635H454V466Q454 419 446.5 383.5Q439 348 420 318ZM147 397H223V785H147ZM910 10Q593 83 344 117Q601 181 781 233L751 308L719 297Q545 326 288 359L244 291Q461 270 595 250Q470 207 245 145Q230 141 212 141Q196 141 173 144Q160 145 146 146L102 78Q503 23 875 -59Z" transform="translate(0, 880) scale(1,-1)" /></svg>