<svg xmlns="http://www.w3.org/2000/svg" width="1000" height="1000"><path d="M653 -56Q733 -56 795.5 -12.0Q858 32 892.5 103.0Q927 174 927 252Q927 532 577 532Q476 532 388 510Q442 553 500.5 629.5Q559 706 608 801L519 831Q480 735 422.0 654.0Q364 573 279 497Q268 487 243.0 477.0Q218 467 156 444L200 382Q291 419 381.5 439.5Q472 460 569 460Q701 460 773.5 414.5Q846 369 846 250Q846 192 821.0 138.0Q796 84 750.0 50.0Q704 16 645 16Q547 16 473 41V-39Q539 -56 653 -56ZM104 619H896V697H104ZM265 294H725V355H265ZM543 428H468L470 123Q470 113 465.5 107.5Q461 102 454 102Q404 102 346 119V57Q404 47 463 47Q506 47 524.5 62.0Q543 77 543 108ZM245 171H745V232H245Z" transform="translate(0, 880) scale(1,-1)" /></svg>