<svg xmlns="http://www.w3.org/2000/svg" width="1000" height="1000"><path d="M138 -80H215V686H309V759H41V686H138ZM401 497 477 462C631 545 782 663 866 766L819 812L803 806H345V729H729C671 661 552 573 401 497ZM739 -79C884 -79 939 57 939 273C939 478 839 550 670 550C524 550 370 506 281 464L305 394C397 436 543 472 670 472C800 472 858 402 858 273C858 112 825 -7 735 -7C673 -7 625 -1 584 14V-66C623 -75 668 -79 739 -79ZM319 98 376 47C527 150 693 304 750 380L686 424C630 347 469 194 319 98ZM673 114 725 171C651 232 538 311 462 355L414 305C495 257 606 176 673 114Z" transform="translate(0, 880) scale(1,-1)" /></svg>