<svg xmlns="http://www.w3.org/2000/svg" width="1000" height="1000"><path d="M35 -21 101 -60C194 101 207 338 207 501V710H943V787H131V501C131 347 123 132 35 -21ZM207 10 269 -37C325 17 395 102 447 175L378 205C333 138 267 62 207 10ZM551 -78C602 -78 624 -53 624 4V449H551V9C551 -3 543 -12 527 -13C495 -14 461 -7 412 8V-66C461 -75 505 -78 551 -78ZM879 -42 941 2C900 54 819 141 759 203L702 165C762 100 841 11 879 -42ZM421 337V259C757 219 876 291 876 443C876 551 809 624 605 624C464 624 346 585 277 540L309 471C378 516 479 549 605 549C728 549 796 509 796 443C796 353 699 287 421 337Z" transform="translate(0, 880) scale(1,-1)" /></svg>