<svg xmlns="http://www.w3.org/2000/svg" width="1000" height="1000"><path d="M60 615 88 545C229 595 425 688 556 777L493 837C384 757 197 662 60 615ZM662 530C791 530 845 473 845 411C845 324 797 235 580 185L607 119C846 178 926 259 926 411C926 523 847 606 662 606C311 606 66 401 66 227C66 123 134 71 232 71C333 71 449 152 449 325C449 469 385 557 251 652L206 607C335 508 370 416 370 325C370 204 301 147 232 148C172 149 140 180 140 227C140 358 368 530 662 530ZM557 -81H634V377H557Z" transform="translate(0, 880) scale(1,-1)" /></svg>