<svg xmlns="http://www.w3.org/2000/svg" width="1000" height="1000"><path d="M645 -70Q743 -70 813.0 -30.0Q883 10 919.0 83.0Q955 156 955 254Q955 335 921.5 392.5Q888 450 829.5 479.5Q771 509 698 509Q667 509 650.0 507.0Q633 505 613 500Q719 583 899 745L817 793L795 777H444V701H730Q604 569 515 493Q501 482 466 467Q440 455 433 451L472 382Q558 432 692 432Q773 432 820.0 384.5Q867 337 867 254Q867 179 839.0 122.0Q811 65 759.5 34.0Q708 3 640 3Q584 3 547.5 36.5Q511 70 511 117Q511 152 531.0 176.5Q551 201 583 201Q638 201 670.0 154.0Q702 107 708 -6L776 21Q764 155 717.0 217.0Q670 279 584 279Q541 279 506.0 256.0Q471 233 451.0 194.5Q431 156 431 112Q431 29 489.0 -20.5Q547 -70 645 -70ZM284 -81H358V825H284V270L169 226V669H94V244Q94 202 61 181L92 122L284 197Z" transform="translate(0, 880) scale(1,-1)" /></svg>