<svg xmlns="http://www.w3.org/2000/svg" width="1000" height="1000"><path d="M534 -14 563 -85C745 -61 891 -34 891 101C891 186 835 241 686 240C581 239 491 210 405 175C431 202 442 235 442 274C442 353 408 416 329 416C260 416 208 366 208 292C208 211 260 171 321 171C344 171 354 179 368 191C355 171 341 157 312 136C295 124 203 75 62 7L134 -63C278 37 520 162 686 162C772 162 804 135 804 101C804 17 654 -5 534 -14ZM330 240C301 240 277 260 277 293C277 329 301 349 328 349C352 349 372 331 373 305C374 259 357 240 330 240ZM162 618 239 643C229 687 196 756 162 808L88 786C121 734 153 662 162 618ZM369 639 449 656C445 701 425 774 400 828L324 813C348 758 366 683 369 639ZM845 310 929 337C911 421 875 526 839 593L767 562C804 492 832 395 845 310ZM546 631 616 609C650 658 694 734 729 801L640 824C620 767 579 682 546 631ZM434 319V594H365V374ZM75 453H669V524H75Z" transform="translate(0, 880) scale(1,-1)" /></svg>