<svg xmlns="http://www.w3.org/2000/svg" width="1000" height="1000"><path d="M579 27Q643 66 685.5 136.0Q728 206 728 295Q728 377 684.5 417.0Q641 457 561 457Q483 457 438.0 417.5Q393 378 393 309Q393 235 439.0 197.0Q485 159 561 159Q603 159 627 179Q605 131 550.5 86.5Q496 42 439 27ZM237 -52H963V27H237ZM561 235Q520 235 498.0 255.0Q476 275 476 309Q476 338 499.0 360.0Q522 382 561 382Q598 382 620.5 361.5Q643 341 643 313Q643 276 620.5 255.5Q598 235 561 235ZM267 576H942V655H267ZM685 343V821H605V425ZM103 -30H180V731H103Z" transform="translate(0, 880) scale(1,-1)" /></svg>