<svg xmlns="http://www.w3.org/2000/svg" width="1000" height="1000"><path d="M131 435H210V607C309 683 432 732 596 732C763 732 810 689 810 625C810 509 605 502 310 537V455C640 428 893 441 893 625C893 722 831 810 596 810C413 810 283 743 210 669V773H131ZM642 -69C832 -47 950 22 950 170C950 321 786 380 500 380C228 380 54 296 54 144C54 11 148 -55 281 -55C489 -55 677 148 712 422L637 429C611 182 446 22 281 22C189 22 130 71 130 144C130 213 235 307 500 307C758 307 872 236 872 170C872 74 778 23 608 7ZM536 604 470 631C296 412 289 168 418 21L483 64C355 217 407 432 536 604Z" transform="translate(0, 880) scale(1,-1)" /></svg>