<svg xmlns="http://www.w3.org/2000/svg" width="1000" height="1000"><path d="M247 474H751V546H247ZM890 483Q911 513 920.0 544.5Q929 576 929 614Q929 677 849.0 707.5Q769 738 617 738Q478 738 359.0 705.0Q240 672 157 615V727H79V490H157V562Q232 611 357.0 634.0Q482 657 617 657Q739 657 793.0 642.5Q847 628 847 607Q847 579 840.5 556.5Q834 534 816 510ZM578 695Q552 770 500 847L424 826Q480 737 499 675ZM371 -90Q593 -21 699.0 53.5Q805 128 805 225Q805 308 738.0 353.0Q671 398 554 398Q488 398 418.5 389.5Q349 381 297 367L314 292Q367 306 431.5 315.5Q496 325 554 325Q629 325 672.5 299.5Q716 274 716 225Q716 172 672.0 130.0Q628 88 541.5 52.5Q455 17 315 -20Z" transform="translate(0, 880) scale(1,-1)" /></svg>