<svg xmlns="http://www.w3.org/2000/svg" width="1000" height="1000"><path d="M617 -72C806 -24 919 40 919 148C919 257 832 324 630 324C460 324 281 258 174 187C195 228 220 277 242 332L187 354C154 276 101 187 41 116L98 67L119 99C281 198 481 250 630 250C776 250 833 208 833 148C833 76 734 19 572 2ZM360 -77C412 -77 442 -58 442 3V838H366V23C366 2 357 -10 339 -10C306 -10 272 -6 227 6V-66C273 -74 315 -77 360 -77ZM108 524C154 602 191 703 212 802L142 816C121 719 87 619 41 552ZM125 423H654V492H125ZM142 627H675V696H142ZM853 403 932 432C914 520 882 619 847 693L775 668C810 590 839 486 853 403Z" transform="translate(0, 880) scale(1,-1)" /></svg>