<svg xmlns="http://www.w3.org/2000/svg" width="1000" height="1000"><path d="M762 -67C895 -67 936 82 937 420C938 674 877 752 724 752C600 752 502 729 420 698L438 629C516 658 628 680 724 680C807 680 862 623 861 420C860 179 837 7 750 7C708 7 662 15 619 30V-52C667 -63 705 -67 762 -67ZM115 140 141 73 442 211 424 279 231 195V801H159V205C159 170 133 150 115 140ZM311 -20 366 -79C589 67 662 296 683 579L609 584C589 322 521 112 311 -20ZM40 453 433 538 421 605 28 522Z" transform="translate(0, 880) scale(1,-1)" /></svg>