<svg xmlns="http://www.w3.org/2000/svg" width="1000" height="1000"><path d="M81 94Q195 174 318.0 269.5Q441 365 530 444L489 496Q394 413 270.5 320.0Q147 227 37 158ZM223 -78H296V841H223ZM710 145Q589 239 447 301L417 250Q551 180 667 79ZM464 -78H537V841H464ZM72 556H687V624H72ZM747 207Q820 259 857.5 293.5Q895 328 911.0 359.5Q927 391 927 430Q927 475 899.5 504.0Q872 533 814.0 549.5Q756 566 661 574L655 509Q763 499 810.0 475.0Q857 451 857 426Q857 392 829.0 351.0Q801 310 717 250ZM723 -82Q791 -27 849.5 39.0Q908 105 939 157L903 226L884 219Q781 259 654 271L648 203Q754 194 851 160Q827 116 779.0 62.5Q731 9 670 -36ZM721 524Q812 628 895 794L831 828Q756 658 677 554Z" transform="translate(0, 880) scale(1,-1)" /></svg>