<svg xmlns="http://www.w3.org/2000/svg" width="1000" height="1000"><path d="M238 22H315V552H238ZM54 -46H947V22H54ZM639 22Q709 69 749.0 115.5Q789 162 789 215Q789 278 743.5 306.0Q698 334 605 334Q568 334 508 329V254Q536 256 582 256Q649 256 678.5 246.0Q708 236 708 215Q708 168 665.0 122.0Q622 76 540 22ZM668 279Q719 325 742.5 358.5Q766 392 766 431Q766 499 718.0 530.5Q670 562 575 562Q435 562 305 502V434Q417 481 578 481Q641 481 663.5 468.0Q686 455 686 432Q686 400 670.0 370.0Q654 340 617 308ZM886 500Q904 537 912.5 572.0Q921 607 921 650Q921 724 842.5 757.5Q764 791 617 791Q476 791 361.0 753.5Q246 716 164 647V774H82V522H164V587Q240 647 362.0 676.5Q484 706 617 706Q695 706 744.0 697.0Q793 688 814.5 675.0Q836 662 836 649Q836 618 830.0 590.5Q824 563 809 534Z" transform="translate(0, 880) scale(1,-1)" /></svg>