<svg xmlns="http://www.w3.org/2000/svg" width="1000" height="1000"><path d="M806 333C886 333 917 367 930 488L866 507C859 422 848 409 807 409C586 405 415 610 394 837H318C342 565 547 333 806 333ZM149 345C368 381 674 445 847 600L779 639C616 496 305 439 100 414ZM91 613 901 685 893 754 83 684ZM106 -77C342 -24 394 61 398 222H578V56C578 -33 602 -62 694 -62H830C914 -62 939 -25 948 97L877 130C874 26 861 11 822 11H703C667 11 655 16 655 54V222H922V296H79V222H319C318 89 278 32 68 -9Z" transform="translate(0, 880) scale(1,-1)" /></svg>