<svg xmlns="http://www.w3.org/2000/svg" width="1000" height="1000"><path d="M952 27Q766 12 619 12Q406 12 292 48Q222 67 175.5 116.5Q129 166 109 238L31 216Q57 121 113.5 62.0Q170 3 253 -21Q406 -65 655 -65Q772 -65 928 -54ZM523 76Q607 76 607 175V757H530V190Q530 171 521.0 160.5Q512 150 496 149Q423 146 338 182V99Q382 86 424.0 80.5Q466 75 523 76ZM155 317H937V395H155ZM188 507H914V584H188ZM187 686Q378 691 573.0 709.5Q768 728 904 763L856 832Q658 778 169 758Z" transform="translate(0, 880) scale(1,-1)" /></svg>