<svg xmlns="http://www.w3.org/2000/svg" width="1000" height="1000"><path d="M511 482Q610 542 703.5 618.5Q797 695 849 761L792 807L775 801H191V728H703Q666 683 595.5 630.0Q525 577 436 526ZM264 209Q315 292 362 400L305 429Q245 314 185.5 240.5Q126 167 47 126L97 63Q120 75 152.0 98.5Q184 122 212 146Q222 148 226 148Q268 148 296 69L460 146L436 192L336 151Q327 194 264 209ZM425 252Q571 195 695.5 130.0Q820 65 913 -1L961 79Q747 200 453 314ZM581 287Q691 324 750.5 348.0Q810 372 875 412L827 473Q762 432 701.5 404.0Q641 376 556 347ZM390 565Q564 357 564 183Q564 111 542.5 50.5Q521 -10 471 -10Q406 -10 355 13V-66Q404 -80 475 -80Q531 -80 569.0 -40.5Q607 -1 625.5 59.5Q644 120 644 184Q644 283 595.0 389.5Q546 496 459 602Z" transform="translate(0, 880) scale(1,-1)" /></svg>