<svg xmlns="http://www.w3.org/2000/svg" width="1000" height="1000"><path d="M124 455Q186 537 230.5 627.5Q275 718 315 834L241 852Q171 644 58 500ZM749 559 721 545H257V471H636Q518 403 311 336Q293 330 194 306L132 291L153 222Q275 253 372.5 267.5Q470 282 574 282Q665 282 698.0 268.5Q731 255 731 231Q731 194 656.0 138.5Q581 83 472.5 42.5Q364 2 267 2Q217 2 193.5 16.0Q170 30 170 59Q170 86 198.5 102.0Q227 118 291 118Q350 118 415.0 95.0Q480 72 582 24Q685 -23 752.0 -50.0Q819 -77 898 -97L935 -22Q855 -2 783.0 26.0Q711 54 617 96Q504 147 432.5 171.0Q361 195 291 195Q196 195 143.5 160.0Q91 125 91 58Q91 -5 135.0 -42.0Q179 -79 265 -79Q395 -79 522.5 -27.0Q650 25 732.0 99.0Q814 173 814 231Q814 273 795.5 299.5Q777 326 730.0 340.0Q683 354 599 354Q562 354 517 351Q706 436 804 494ZM214 642H885V716H214Z" transform="translate(0, 880) scale(1,-1)" /></svg>