<svg xmlns="http://www.w3.org/2000/svg" width="1000" height="1000"><path d="M136 734V-53H213V734ZM294 318 324 247C536 351 719 445 902 582L839 636L767 585H474C546 646 624 721 700 800L624 837C549 742 468 666 393 603C375 588 351 579 328 573L359 506L388 519H670C574 455 425 374 294 318ZM670 400C543 400 440 374 347 338L368 272C461 313 556 331 670 331C765 331 808 306 808 266C808 159 542 12 459 12C423 12 397 45 397 85C397 121 431 160 500 160C605 160 718 22 907 -77L958 -15C770 75 632 230 500 230C401 230 321 172 321 85C321 9 376 -55 459 -55C585 -55 890 114 890 266C890 349 805 400 670 400Z" transform="translate(0, 880) scale(1,-1)" /></svg>