<svg xmlns="http://www.w3.org/2000/svg" width="1000" height="1000"><path d="M112 -81Q314 5 486.0 181.5Q658 358 828 615L758 646Q647 480 544.5 357.5Q442 235 322.5 139.0Q203 43 63 -14ZM844 -64Q882 -64 904.5 -47.5Q927 -31 938.5 7.5Q950 46 956 115L880 134Q878 74 874.0 48.0Q870 22 862.0 13.0Q854 4 835 4H704Q677 4 669.5 9.5Q662 15 662 34V219H583V33Q583 -6 591.5 -26.5Q600 -47 624.0 -55.5Q648 -64 696 -64ZM141 496Q254 575 328.5 654.0Q403 733 458 828L370 839Q328 763 258.5 687.5Q189 612 95 552ZM351 270Q481 252 589 252Q750 252 815.0 295.5Q880 339 880 416Q880 484 817.5 520.5Q755 557 654 557Q616 557 570.5 553.0Q525 549 489 542Q554 599 605.0 648.5Q656 698 708 757L654 794L637 784H370V720H567Q468 596 357 526Q337 514 316.5 503.0Q296 492 275 480Q216 449 179 428L223 360Q311 423 426.0 455.0Q541 487 654 487Q732 487 766.5 467.5Q801 448 801 416Q801 373 751.5 347.0Q702 321 596 321Q490 321 351 346Z" transform="translate(0, 880) scale(1,-1)" /></svg>