<svg xmlns="http://www.w3.org/2000/svg" width="1000" height="1000"><path d="M37 -46 104 -80C188 78 201 309 201 469V668H948V741H598L548 845L473 827L513 741H126V468C126 319 119 105 37 -46ZM754 316 822 286C874 340 899 392 899 447C899 545 797 577 637 577C482 577 330 547 223 515L244 451C347 483 491 509 637 509C770 509 822 488 822 445C822 405 801 362 754 316ZM280 214H782V282H280ZM333 347H743V411H333ZM194 -19 241 -80C563 53 610 222 610 643H532C529 222 501 105 194 -19ZM886 -91 937 -37C848 39 742 115 640 173L595 119C690 67 796 -14 886 -91Z" transform="translate(0, 880) scale(1,-1)" /></svg>