<svg xmlns="http://www.w3.org/2000/svg" width="1000" height="1000"><path d="M45 -50 112 -87C200 42 217 222 217 364V609H918V677H144V366C144 234 125 69 45 -50ZM38 654 102 621C189 690 244 762 279 843L207 860C172 779 122 718 38 654ZM190 737H902V799H190ZM570 303H669C733 328 781 354 781 395C781 442 700 476 568 476C416 476 332 452 332 405C332 365 389 332 496 332C567 332 607 361 607 388V516H528V402C528 383 507 375 479 375C455 375 412 388 412 405C412 422 449 433 568 433C653 433 699 413 699 393C699 369 679 343 570 303ZM238 243H900V303H238ZM263 516H877V574H263ZM569 216C439 216 337 199 245 179L288 128C360 146 446 159 569 159C734 159 817 127 817 78C817 -3 650 -36 526 -36C425 -36 377 -24 377 -5C377 15 415 33 467 33C544 33 597 9 610 -55L689 -44C670 31 597 79 468 79C366 79 307 37 307 -5C307 -55 367 -90 526 -90C754 -90 898 -19 898 78C898 158 790 216 569 216Z" transform="translate(0, 880) scale(1,-1)" /></svg>