<svg xmlns="http://www.w3.org/2000/svg" width="1000" height="1000"><path d="M256 639 323 669C307 712 273 768 232 814L167 784C207 737 240 683 256 639ZM458 583H540V840H458ZM660 667 719 638C757 678 796 735 830 790L759 821C735 769 697 710 660 667ZM832 420 900 369C928 401 939 441 939 485C939 604 788 631 614 631C427 631 291 596 149 515V600H77V384H149V473C323 539 454 553 613 553C751 553 856 521 856 476C856 454 847 436 832 420ZM273 425V353H604C488 253 283 104 49 -4L103 -69C333 39 574 230 763 396L697 442L669 425ZM638 -55H827C923 -55 941 -25 952 111L877 130C876 26 869 12 834 12H648C614 12 599 27 599 51V276H522V40C522 -31 545 -55 638 -55Z" transform="translate(0, 880) scale(1,-1)" /></svg>