<svg xmlns="http://www.w3.org/2000/svg" width="1000" height="1000"><path d="M416 282Q496 335 581.0 395.5Q666 456 715 497L657 561L635 552H412Q447 595 473.0 639.5Q499 684 525 744L442 751Q388 631 296 528L343 468L368 477H574Q497 403 354 311ZM886 246V319H114V246ZM82 708H914V780H82ZM126 -79Q173 -31 209.5 33.0Q246 97 262 163L187 185Q173 122 136.5 59.0Q100 -4 57 -45ZM524 -73Q555 -73 586.5 -57.5Q618 -42 661 -5L607 55Q585 29 569.0 19.0Q553 9 534 9Q521 9 512.0 23.0Q503 37 492.0 74.0Q481 111 464 185L387 167Q420 30 453.0 -21.5Q486 -73 524 -73ZM951 -44Q924 6 879.0 71.5Q834 137 792 187L723 151Q766 101 806.0 40.0Q846 -21 873 -74Z" transform="translate(0, 880) scale(1,-1)" /></svg>