<svg xmlns="http://www.w3.org/2000/svg" width="1000" height="1000"><path d="M373 637Q283 585 210.5 509.5Q138 434 96.0 345.0Q54 256 54 168Q54 104 75.5 53.0Q97 2 133.0 -27.0Q169 -56 211 -56Q284 -56 332.0 -1.5Q380 53 404.0 175.5Q428 298 428 500Q428 577 423 697H352Q358 585 358 491Q358 256 320.0 138.5Q282 21 211 21Q173 21 150.0 64.5Q127 108 127 168Q127 286 205.5 392.5Q284 499 409 573ZM362 153Q291 216 251.5 326.0Q212 436 212 622Q212 694 220 796L148 800Q139 701 139 618Q139 413 189.0 287.0Q239 161 329 87ZM485 -60Q581 126 581 501V713H943V787H506V501Q506 349 488.5 215.0Q471 81 419 -21ZM564 418Q603 468 658.5 498.5Q714 529 776 529Q823 529 847.0 507.5Q871 486 871 453Q871 410 850.0 374.5Q829 339 788 306H641V235H938V306H839Q938 372 938 453Q938 521 898.0 564.0Q858 607 776 607Q705 607 651.0 571.5Q597 536 560 481Z" transform="translate(0, 880) scale(1,-1)" /></svg>