<svg xmlns="http://www.w3.org/2000/svg" width="1000" height="1000"><path d="M157 309H239L237 581Q302 648 386.5 683.5Q471 719 584 719Q682 719 726.0 688.0Q770 657 770 602Q770 544 733.5 497.5Q697 451 627 404H380V331H882V404H728Q778 425 816.0 473.5Q854 522 854 602Q854 692 785.0 745.0Q716 798 584 798Q453 798 373.0 762.5Q293 727 237 655L236 786H157ZM109 -63Q202 -2 283.5 66.5Q365 135 417 206L333 242Q291 177 212.5 109.0Q134 41 50 -4ZM945 -7Q897 46 818.0 115.0Q739 184 656 249L593 201Q796 33 875 -59Z" transform="translate(0, 880) scale(1,-1)" /></svg>