<svg xmlns="http://www.w3.org/2000/svg" width="1000" height="1000"><path d="M320 544 401 557C384 647 355 745 317 830L240 817C279 729 306 635 320 544ZM67 658H933V727H67ZM757 834 673 842C650 745 616 640 568 544L641 529C691 624 729 732 757 834ZM922 365V437H303V365ZM834 505V574H166V505ZM277 305V236H728C719 176 706 157 668 157C587 157 529 164 467 176V105C534 96 601 90 691 90C764 90 795 166 809 299L749 315L732 305ZM335 47V173H262V33C262 -52 309 -70 424 -70H761C879 -70 913 -28 933 97L860 109C853 12 824 -1 751 -1H425C351 -1 335 9 335 47ZM381 514 308 531C244 325 129 191 29 117L88 57C184 144 313 304 381 514Z" transform="translate(0, 880) scale(1,-1)" /></svg>