<svg xmlns="http://www.w3.org/2000/svg" width="1000" height="1000"><path d="M326 680 397 708C380 745 343 806 308 850L240 826C274 781 310 721 326 680ZM599 717 661 685C704 730 739 777 770 833L691 854C667 802 636 760 599 717ZM925 313V382H75V313ZM504 382H619C705 403 748 453 748 493C748 543 673 589 487 589C309 589 211 553 211 500C211 451 274 414 418 414C506 414 545 446 545 476V671H460V505C460 474 432 464 391 464C360 464 297 479 297 498C297 516 349 531 487 531C590 531 664 511 664 491C664 462 649 429 504 382ZM97 633H903V698H97ZM608 -32 642 -100C832 -83 950 -28 950 92C950 214 786 265 500 265C228 265 54 193 54 71C54 -36 148 -89 281 -89C489 -89 667 69 702 290L624 295C598 97 446 -16 281 -16C189 -16 135 12 135 71C135 127 235 197 500 197C758 197 869 146 869 92C869 15 778 -20 608 -32ZM481 -2 535 50C431 102 379 200 392 347L318 351C304 175 360 49 481 -2Z" transform="translate(0, 880) scale(1,-1)" /></svg>