<svg xmlns="http://www.w3.org/2000/svg" width="1000" height="1000"><path d="M106 252H894V327H106ZM228 437H772V513H228ZM890 461Q911 493 920.0 526.5Q929 560 929 600Q929 666 849.0 698.5Q769 731 617 731Q477 731 358.0 696.5Q239 662 157 601V720H79V469H157V545Q233 596 359.0 622.5Q485 649 617 649Q737 649 792.0 632.0Q847 615 847 593Q847 563 840.5 539.0Q834 515 816 489ZM576 686Q550 766 498 847L426 824Q450 785 470.5 742.0Q491 699 501 664ZM106 -67Q199 -15 280.5 44.5Q362 104 414 165L333 202Q290 146 211.5 87.0Q133 28 50 -10ZM945 -12Q856 73 656 209L596 161Q800 15 878 -64Z" transform="translate(0, 880) scale(1,-1)" /></svg>