<svg xmlns="http://www.w3.org/2000/svg" width="1000" height="1000"><path d="M954 -12Q899 23 827 81Q768 127 728.5 154.0Q689 181 646.0 199.0Q603 217 559 217Q525 217 494.0 198.5Q463 180 444.0 149.0Q425 118 425 82Q425 27 457.5 -13.0Q490 -53 545 -53Q617 -53 698.0 -2.5Q779 48 833.5 121.5Q888 195 888 258Q888 307 855.0 343.5Q822 380 763.0 399.5Q704 419 628 419Q493 419 362.0 378.0Q231 337 146.5 257.5Q62 178 62 70Q62 16 90.0 -24.5Q118 -65 162 -65Q214 -65 266.0 -13.5Q318 38 424.5 206.5Q531 375 760 768L700 832L677 819H234V745H657Q472 423 373.5 265.5Q275 108 234.5 61.5Q194 15 170 15Q157 15 148.0 31.0Q139 47 139 71Q139 158 213.5 220.0Q288 282 402.0 313.5Q516 345 632 345Q713 345 761.0 321.0Q809 297 809 258Q809 217 766.5 161.0Q724 105 663.0 64.5Q602 24 549 24Q529 24 515.0 41.5Q501 59 501 82Q501 104 519.5 122.0Q538 140 562 140Q612 140 661.0 111.0Q710 82 785 21Q815 -3 848.5 -28.5Q882 -54 912 -73ZM73 532H933V608H73Z" transform="translate(0, 880) scale(1,-1)" /></svg>