<svg xmlns="http://www.w3.org/2000/svg" width="1000" height="1000"><path d="M88 545Q199 584 330.5 648.5Q462 713 556 777L493 837Q412 778 288.0 714.5Q164 651 60 615ZM661 500Q749 500 797.0 470.5Q845 441 845 396Q845 335 791.0 283.5Q737 232 610 185L637 119Q744 159 805.0 195.0Q866 231 896.0 278.5Q926 326 926 396Q926 478 858.5 527.0Q791 576 661 576Q497 576 360.5 519.0Q224 462 145.0 373.5Q66 285 66 197Q66 120 107.0 79.5Q148 39 222 39Q276 39 326.0 68.0Q376 97 407.5 155.0Q439 213 439 295Q439 512 241 652L196 607Q285 539 322.5 457.0Q360 375 360 295Q360 237 341.0 197.0Q322 157 291.0 136.5Q260 116 224 116Q181 116 160.5 137.5Q140 159 140 197Q140 263 210.5 334.5Q281 406 401.0 453.0Q521 500 661 500ZM723 -29Q702 48 668.0 129.0Q634 210 596 276L524 246Q559 181 591.5 99.0Q624 17 644 -59Z" transform="translate(0, 880) scale(1,-1)" /></svg>