<svg xmlns="http://www.w3.org/2000/svg" width="1000" height="1000"><path d="M925 -83 964 -6C653 86 533 280 297 280C158 280 66 209 66 89C66 -9 127 -82 254 -82C532 -82 573 300 573 836H494C494 314 442 -11 254 -11C181 -11 146 32 146 89C146 160 188 207 297 207C476 207 635 9 925 -83ZM143 360H219V683H143ZM320 452V383C690 309 896 362 896 522C896 645 761 690 582 690C411 690 296 658 219 615L218 545C294 587 414 612 576 612C714 612 816 586 816 520C816 433 666 391 320 452Z" transform="translate(0, 880) scale(1,-1)" /></svg>