<svg xmlns="http://www.w3.org/2000/svg" width="1000" height="1000"><path d="M925 361V428H75V361ZM619 428Q680 443 714.0 475.0Q748 507 748 540Q748 582 683.0 610.0Q618 638 487 638Q356 638 283.5 613.5Q211 589 211 548Q211 508 262.5 484.0Q314 460 418 460Q480 460 512.5 479.0Q545 498 545 524V841H460V553Q460 512 391 512Q364 512 330.5 522.5Q297 533 297 546Q297 561 343.5 570.5Q390 580 487 580Q562 580 613.0 567.0Q664 554 664 538Q664 512 633.0 486.0Q602 460 504 428ZM97 683H903V749H97ZM437 -95Q658 -58 753.5 -2.5Q849 53 849 113Q849 174 778.0 210.0Q707 246 570 246Q384 246 272.0 209.5Q160 173 160 104Q160 58 204.0 30.0Q248 2 324 2Q390 2 436.5 29.0Q483 56 506.0 96.0Q529 136 529 173Q529 213 505.5 251.0Q482 289 437.5 315.5Q393 342 331 349L295 299Q377 281 413.5 249.5Q450 218 450 173Q450 126 419.0 96.5Q388 67 324 67Q285 67 262.0 77.5Q239 88 239 104Q239 128 284.0 146.0Q329 164 404.0 173.5Q479 183 566 183Q661 183 713.0 165.0Q765 147 765 113Q765 75 683.0 36.5Q601 -2 402 -29ZM113 177Q200 226 264.0 265.0Q328 304 382 343L338 397Q247 325 80 234ZM966 236Q902 279 766 336L727 287Q839 239 919 183Z" transform="translate(0, 880) scale(1,-1)" /></svg>