<svg xmlns="http://www.w3.org/2000/svg" width="1000" height="1000"><path d="M563 -85Q674 -70 741.0 -53.0Q808 -36 849.5 0.5Q891 37 891 101Q891 240 690 240Q617 240 549.5 223.0Q482 206 405 175Q442 213 442 274Q442 337 413.5 376.5Q385 416 329 416Q277 416 242.5 381.5Q208 347 208 292Q208 234 240.0 202.5Q272 171 321 171Q337 171 346.0 175.5Q355 180 368 191Q358 176 346.0 164.0Q334 152 312 136Q298 126 229.0 90.0Q160 54 62 7L134 -63Q260 25 416.0 93.5Q572 162 686 162Q747 162 775.5 145.5Q804 129 804 101Q804 45 727.5 20.0Q651 -5 534 -14ZM330 240Q308 240 292.5 254.5Q277 269 277 293Q277 319 292.0 334.0Q307 349 328 349Q347 349 360.0 335.5Q373 322 373 301Q373 240 330 240ZM239 643Q232 675 210.0 721.5Q188 768 162 808L88 786Q113 747 134.0 699.0Q155 651 162 618ZM449 656Q446 690 432.0 739.0Q418 788 400 828L324 813Q341 773 354.0 723.0Q367 673 369 639ZM929 337Q915 401 890.5 472.5Q866 544 839 593L767 562Q794 511 814.5 443.5Q835 376 845 310ZM616 609Q667 683 729 801L640 824Q625 781 597.5 725.0Q570 669 546 631ZM434 319V594H365V374ZM75 453H669V524H75Z" transform="translate(0, 880) scale(1,-1)" /></svg>