<svg xmlns="http://www.w3.org/2000/svg" width="1000" height="1000"><path d="M55 32 123 -15C198 85 265 194 330 313L272 354C202 228 125 115 55 32ZM265 553 316 618C262 669 201 715 132 755L88 692C156 650 214 604 265 553ZM289 -41H949V36H289ZM680 22H745C795 63 839 131 839 186C839 259 785 333 639 333C515 333 434 281 434 213C434 138 496 94 605 94C652 94 683 136 683 179V614H612V212C612 180 598 169 578 169C527 169 498 190 498 211C498 236 536 257 639 257C743 257 770 213 770 184C770 146 742 75 680 22ZM326 434 393 395 418 411H908V490H458C500 554 557 645 584 700L518 726C473 635 404 527 326 434ZM348 692H895V767H348Z" transform="translate(0, 880) scale(1,-1)" /></svg>