<svg xmlns="http://www.w3.org/2000/svg" width="1000" height="1000"><path d="M43 -11 87 -77C376 46 534 253 534 627V824H455V627C455 302 306 100 43 -11ZM620 -61H843C929 -61 947 2 954 187L877 201C873 35 868 11 831 11H629C597 11 591 20 591 66V358H515V67C515 -33 538 -61 620 -61ZM0.0 0.0Q0 0 0.0 0.0Q0 0 0.0 0.0ZM809 426 886 392C910 441 921 484 921 542C921 644 805 683 617 683C426 683 271 629 164 539V666H82V414H164V479C271 564 453 598 617 598C784 598 836 564 836 541C836 502 830 467 809 426Z" transform="translate(0, 880) scale(1,-1)" /></svg>