<svg xmlns="http://www.w3.org/2000/svg" width="1000" height="1000"><path d="M900 487Q921 517 930.0 548.0Q939 579 939 617Q939 739 617 739Q476 739 352.5 706.5Q229 674 147 618V729H69V495H147V566Q222 613 352.0 636.5Q482 660 617 660Q745 660 801.0 645.5Q857 631 857 610Q857 582 850.5 560.0Q844 538 826 514ZM578 697Q552 771 500 847L424 826Q447 790 468.0 749.5Q489 709 499 677ZM77 53Q209 130 336.5 238.0Q464 346 559 454H806V526H194V454H463Q382 364 275.5 283.0Q169 202 25 118ZM542 -65Q599 -75 650 -75Q766 -75 818.0 -20.0Q870 35 870 127Q870 214 813.5 257.0Q757 300 649 300Q574 300 506.0 270.5Q438 241 385 184V297H307V-61H385V116Q454 179 516.0 203.0Q578 227 649 227Q718 227 754.0 199.0Q790 171 790 127Q790 64 759.5 31.0Q729 -2 656 -2Q612 -2 542 12Z" transform="translate(0, 880) scale(1,-1)" /></svg>