<svg xmlns="http://www.w3.org/2000/svg" width="1000" height="1000"><path d="M446 -83C514 -82 549 -70 549 -4V253C636 287 722 338 785 386L736 428L720 421H236V358H626C576 327 528 300 473 281V11C473 -4 462 -16 441 -17C401 -18 346 -13 290 5V-69C341 -78 396 -84 446 -83ZM939 141 959 210C738 237 444 238 55 209V146C439 173 734 167 939 141ZM895 380C923 404 934 437 934 471C934 564 788 596 614 596C427 596 296 568 154 504V561H82V392H154V462C328 514 454 521 613 521C751 521 851 499 851 464C851 447 842 433 827 420ZM0.0 0.0Q0 0 0.0 0.0Q0 0 0.0 0.0ZM121 742V672H879V742ZM462 845V552H538V845Z" transform="translate(0, 880) scale(1,-1)" /></svg>