<svg xmlns="http://www.w3.org/2000/svg" width="1000" height="1000"><path d="M490 -81C690 -81 848 11 848 156C848 286 719 361 550 361C474 361 393 338 346 314C417 372 525 502 574 622L496 647C447 509 344 369 244 294C212 267 174 244 142 231L196 176C298 247 417 287 541 287C664 287 766 241 766 156C766 62 655 -17 479 -17C394 -17 360 11 360 48C360 76 386 100 447 100C506 100 552 74 567 -23L653 -7C638 111 556 165 447 165C337 165 282 112 282 48C282 -28 353 -81 490 -81ZM202 461H799V528H202ZM814 545 893 517C917 559 928 591 928 639C928 724 812 759 617 759C426 759 263 714 156 639V745H78V535H156V590C263 660 453 691 617 691C784 691 846 662 846 638C846 605 838 575 814 545ZM491 697 566 718C552 760 534 807 508 852L436 831C462 788 480 743 491 697Z" transform="translate(0, 880) scale(1,-1)" /></svg>