<svg xmlns="http://www.w3.org/2000/svg" width="1000" height="1000"><path d="M113 -4 196 -6C180 142 197 300 235 438L155 448C114 306 96 137 113 -4ZM481 -49C536 -49 583 -38 644 -10V81C582 49 531 31 489 31C466 31 448 54 448 101C448 197 471 298 501 446L425 457C389 301 366 197 366 92C366 10 414 -49 481 -49ZM820 -23 905 -13C902 134 862 316 805 448L727 426C782 296 817 120 820 -23ZM488 447 557 387C716 513 872 683 957 836L893 896L870 887H72V803H814C756 707 634 560 488 447Z" transform="translate(0, 880) scale(1,-1)" /></svg>