<svg xmlns="http://www.w3.org/2000/svg" width="1000" height="1000"><path d="M453 -4Q606 -2 706.5 14.5Q807 31 863.0 73.0Q919 115 919 190Q919 258 876.0 297.0Q833 336 757 336Q730 336 706 332L890 498L837 567L487 473Q597 519 698.5 591.5Q800 664 892 786L801 822Q725 697 587.0 596.5Q449 496 289 437Q247 421 208.5 410.0Q170 399 115 386L79 377L99 305L762 465Q697 390 604 324L657 248Q700 258 734 258Q781 258 805.0 239.5Q829 221 829 187Q829 149 780.5 120.5Q732 92 640.5 76.5Q549 61 424 61ZM504 -57Q491 3 468.0 72.5Q445 142 417 198L346 166Q372 114 393.0 46.0Q414 -22 426 -82ZM322 600Q303 645 268.0 696.5Q233 748 189 794L121 768Q163 723 197.0 668.5Q231 614 250 567ZM438 558H520V840H438Z" transform="translate(0, 880) scale(1,-1)" /></svg>