<svg xmlns="http://www.w3.org/2000/svg" width="1000" height="1000"><path d="M629 -74C832 -74 896 113 896 358C896 602 776 696 601 696C449 696 307 665 218 621L236 552C329 596 470 622 601 622C742 622 818 516 818 358C818 155 760 0 622 0C525 0 451 13 389 37L359 -36C421 -56 498 -74 629 -74ZM44 408 107 356C231 486 312 651 366 815L290 837C238 669 153 512 44 408ZM265 488V422H677V488ZM249 349V283H693V349ZM432 157H511V559H432ZM679 68 740 91C727 136 693 207 658 263L602 242C634 189 665 117 679 68ZM664 192 225 164 230 96 672 130Z" transform="translate(0, 880) scale(1,-1)" /></svg>