<svg xmlns="http://www.w3.org/2000/svg" width="1000" height="1000"><path d="M84 90H154V745H84ZM240 186H308V745H240ZM599 -80C793 -80 931 19 931 155C931 273 855 352 691 352C637 352 567 343 521 329C557 379 604 480 630 560L560 580C538 498 495 385 446 319L424 307L464 243C519 269 597 283 691 283C810 283 857 227 857 155C857 38 706 -13 599 -13C517 -13 478 0 478 40C478 69 505 94 547 94C609 94 651 59 661 -29L730 -15C715 90 653 158 547 158C466 158 405 98 405 40C405 -30 470 -80 599 -80ZM330 525 388 487C449 590 498 707 524 829L457 846C431 728 384 613 330 525ZM404 602 412 544C495 618 607 677 704 677C787 677 825 639 825 586C825 509 778 457 537 491V416C829 377 901 475 901 586C901 695 825 751 704 751C581 751 476 670 404 602Z" transform="translate(0, 880) scale(1,-1)" /></svg>