<svg xmlns="http://www.w3.org/2000/svg" width="1000" height="1000"><path d="M455 264Q540 307 589.0 367.5Q638 428 638 498Q638 548 602.0 581.0Q566 614 490 614Q420 614 386.0 581.0Q352 548 352 503Q352 454 394.0 418.5Q436 383 531 383Q637 383 715.5 410.5Q794 438 836.5 490.0Q879 542 879 614Q879 671 846.5 717.5Q814 764 742.5 792.5Q671 821 559 821Q407 821 316.0 777.0Q225 733 164 661L202 608Q255 668 342.5 706.0Q430 744 559 744Q678 744 736.0 708.5Q794 673 794 614Q794 537 724.5 493.5Q655 450 531 450Q480 450 452.0 465.0Q424 480 424 503Q424 522 443.5 537.0Q463 552 490 552Q565 552 565 498Q565 437 509.0 374.5Q453 312 363 264ZM133 212H867V285H133ZM142 440H223V784H142ZM77 41V-36H923V41ZM462 244V19H538V244Z" transform="translate(0, 880) scale(1,-1)" /></svg>