<svg xmlns="http://www.w3.org/2000/svg" width="1000" height="1000"><path d="M619 425Q708 425 744.0 479.0Q780 533 780 611Q780 669 728.0 702.0Q676 735 578 735Q394 735 177 701L191 632Q303 650 395.0 659.5Q487 669 574 669Q650 669 680.0 652.5Q710 636 710 606Q710 556 688.0 521.5Q666 487 614 487Q549 487 483 500V433Q543 425 619 425ZM154 350Q321 434 425.0 556.5Q529 679 562 839L484 844Q452 688 359.5 586.0Q267 484 104 401ZM644 -66Q700 -76 771 -76Q846 -76 882.5 -17.5Q919 41 919 133Q919 224 841.0 273.5Q763 323 624 323Q452 323 322.5 284.5Q193 246 124.0 183.0Q55 120 55 49Q55 -8 91.0 -39.0Q127 -70 190 -70Q264 -70 319.5 -30.0Q375 10 405.0 76.0Q435 142 435 217Q435 300 387.0 366.5Q339 433 241 466L215 402Q296 374 329.0 328.0Q362 282 362 217Q362 156 340.0 105.0Q318 54 278.5 24.5Q239 -5 190 -5Q160 -5 144.5 9.0Q129 23 129 49Q129 94 185.5 140.5Q242 187 354.0 218.5Q466 250 624 250Q845 250 845 130Q845 80 824.0 34.0Q803 -12 767 -12Q707 -12 644 7ZM497 -65Q610 32 689.5 147.0Q769 262 800 411L728 426Q697 274 621.5 170.0Q546 66 428 -23Z" transform="translate(0, 880) scale(1,-1)" /></svg>