<svg xmlns="http://www.w3.org/2000/svg" width="1000" height="1000"><path d="M836 508Q888 549 908.5 580.5Q929 612 929 656Q929 703 884.5 730.0Q840 757 749 757Q689 757 631.5 748.0Q574 739 538 723V840H461V702L444 691L483 641Q544 663 615.0 676.0Q686 689 749 689Q799 689 823.5 680.0Q848 671 848 656Q848 622 829.5 596.5Q811 571 770 544ZM276 534Q397 534 471.5 540.0Q546 546 632 567L600 631Q480 600 276 600Q245 600 226.5 609.0Q208 618 208 634Q208 685 254 749L186 775Q158 738 142.0 696.5Q126 655 126 626Q126 534 276 534ZM100 -86Q206 33 206 279V427H943V500H131V279Q131 181 112.5 99.5Q94 18 35 -49ZM959 160Q821 177 646 177Q467 177 231 159V94Q427 107 598 107Q805 107 943 89ZM267 361V290H907V361ZM567 12Q567 1 560.0 -5.5Q553 -12 540 -13Q511 -15 475.0 -10.0Q439 -5 405 5V-65Q478 -78 545 -78Q586 -78 612.0 -59.0Q638 -40 638 -7V337H567Z" transform="translate(0, 880) scale(1,-1)" /></svg>