<svg xmlns="http://www.w3.org/2000/svg" width="1000" height="1000"><path d="M357 134Q418 134 452.0 200.5Q486 267 486 435Q486 536 462.0 608.0Q438 680 395.0 717.5Q352 755 295 755Q236 755 193.5 735.0Q151 715 126 683V615Q155 643 198.5 662.0Q242 681 295 681Q347 681 381.0 617.5Q415 554 415 435Q415 313 398.5 262.0Q382 211 357 211Q343 211 332.5 245.0Q322 279 322 325Q322 432 346.0 516.5Q370 601 414.5 648.5Q459 696 517 696Q574 696 595.0 632.0Q616 568 616 436Q616 284 608.5 190.5Q601 97 583.0 51.0Q565 5 533 5Q464 5 402 34V-52Q466 -70 537 -70Q595 -70 629.0 -22.5Q663 25 678.5 134.5Q694 244 694 436Q694 604 651.5 690.0Q609 776 517 776Q448 776 388.0 725.0Q328 674 291.0 572.0Q254 470 254 325Q254 269 269.5 225.0Q285 181 309.0 157.5Q333 134 357 134ZM108 774V-52H181V774ZM757 -33Q833 24 876.0 95.0Q919 166 919 258Q919 360 847.0 422.5Q775 485 630 485Q459 485 316.5 447.0Q174 409 41 335L71 263Q193 334 336.0 371.5Q479 409 630 409Q699 409 746.0 387.0Q793 365 815.5 330.5Q838 296 838 258Q838 195 801.5 137.0Q765 79 712 44ZM944 565Q894 644 791 749L736 702Q819 619 884 512Z" transform="translate(0, 880) scale(1,-1)" /></svg>