<svg xmlns="http://www.w3.org/2000/svg" width="1000" height="1000"><path d="M890 462Q911 494 920.0 527.5Q929 561 929 601Q929 667 849.0 699.5Q769 732 617 732Q478 732 359.0 697.0Q240 662 157 602V721H79V471H157V547Q233 597 358.0 622.0Q483 647 617 647Q738 647 792.5 631.0Q847 615 847 594Q847 564 840.5 540.0Q834 516 816 491ZM578 687Q552 766 500 847L424 825Q447 787 468.0 743.0Q489 699 499 665ZM456 -79Q506 -79 528.5 -56.5Q551 -34 551 14V563H472V26Q472 12 463.0 3.5Q454 -5 438 -5Q378 -5 301 18V-66Q377 -79 456 -79ZM115 7Q181 51 243.5 112.5Q306 174 347 239L269 266Q232 208 173.5 154.0Q115 100 52 64ZM62 328H942V405H62ZM946 52Q911 95 843.5 155.5Q776 216 711 264L650 218Q714 170 780.5 108.0Q847 46 882 2Z" transform="translate(0, 880) scale(1,-1)" /></svg>