<svg xmlns="http://www.w3.org/2000/svg" width="1000" height="1000"><path d="M806 -71C875 -71 914 -39 914 38V637C914 736 863 795 774 795H365C237 795 166 763 126 723L147 651C190 696 268 722 378 722H754C810 722 835 690 835 631V47C835 17 823 3 800 3C759 3 725 14 678 34V-50C716 -63 758 -71 806 -71ZM182 -54H610V19H211C177 19 162 40 162 81V795H86V65C86 -23 121 -54 182 -54ZM459 47C512 47 549 75 549 132V694H476V151C476 124 468 111 450 111C417 111 389 116 355 131V59C389 52 425 47 459 47ZM233 113C328 224 398 370 426 507L361 514C327 374 274 259 177 155ZM791 151 810 223C652 297 498 352 338 392L327 327C486 289 644 222 791 151ZM213 495H787V563H213Z" transform="translate(0, 880) scale(1,-1)" /></svg>