<svg xmlns="http://www.w3.org/2000/svg" width="1000" height="1000"><path d="M57 30 122 -15C197 85 264 194 329 313L274 352C204 226 127 113 57 30ZM267 556 316 618C262 669 201 715 132 755L90 695C158 653 216 607 267 556ZM625 -80C808 -80 930 8 930 144C930 258 851 351 687 351C631 351 593 348 549 334C646 393 756 472 835 534L794 593L776 584H419V513H691C615 443 515 362 440 312C422 300 393 283 356 273L396 213C478 257 571 283 667 283C798 283 851 226 851 144C851 27 721 -17 622 -17C553 -17 508 0 508 40C508 69 538 94 576 94C636 94 677 59 689 -29L750 -15C735 90 677 158 577 158C498 158 440 98 440 40C440 -30 509 -80 625 -80ZM316 712H913V783H316Z" transform="translate(0, 880) scale(1,-1)" /></svg>