<svg xmlns="http://www.w3.org/2000/svg" width="1000" height="1000"><path d="M806 -71Q914 -71 914 38V637Q914 712 877.5 753.5Q841 795 774 795H365Q198 795 126 723L147 651Q180 685 238.5 703.5Q297 722 378 722H754Q835 722 835 631V47Q835 3 800 3Q771 3 743.5 10.5Q716 18 678 34V-50Q739 -71 806 -71ZM610 -54V19H211Q162 19 162 81V795H86V65Q86 1 110.0 -26.5Q134 -54 182 -54ZM459 47Q500 47 524.5 67.5Q549 88 549 125V644H476V144Q476 109 450 109Q404 109 355 128V59Q413 47 459 47ZM235 106Q306 179 356.5 270.5Q407 362 428 454L361 461Q335 365 291.5 287.5Q248 210 177 142ZM810 207Q575 305 338 357L324 295Q434 272 547.0 233.0Q660 194 788 140ZM213 438H787V502H213ZM253 580Q380 584 517.0 598.0Q654 612 756 632L720 693Q615 672 487.0 659.0Q359 646 232 644Z" transform="translate(0, 880) scale(1,-1)" /></svg>