<svg xmlns="http://www.w3.org/2000/svg" width="1000" height="1000"><path d="M35 -21 103 -60C196 101 209 338 209 501V709H933V787H131V501C131 347 123 132 35 -21ZM678 -74C856 -74 932 80 932 282C932 483 790 560 617 560C427 560 276 514 177 468L195 393C297 439 448 481 617 481C757 481 851 412 851 282C851 115 799 2 678 2C553 2 437 70 437 190C437 242 466 282 553 282C612 282 638 252 638 221C638 165 579 114 461 57L504 25C628 82 720 138 720 221C720 308 643 354 553 354C444 354 362 287 362 190C362 31 518 -74 678 -74Z" transform="translate(0, 880) scale(1,-1)" /></svg>