<svg xmlns="http://www.w3.org/2000/svg" width="1000" height="1000"><path d="M103 -60Q209 124 209 501V709H933V787H131V501Q131 346 112.5 213.5Q94 81 35 -21ZM291 407Q371 424 469.5 434.0Q568 444 647 444Q713 444 749.0 426.0Q785 408 799.0 375.0Q813 342 813 289Q813 172 789.5 87.5Q766 3 694 3Q625 3 537 28V-50Q616 -66 701 -66Q815 -66 855.0 36.0Q895 138 895 298Q895 405 832.5 462.0Q770 519 651 519Q565 519 463.5 509.0Q362 499 280 482ZM286 -55Q395 34 460.0 136.5Q525 239 559.0 364.0Q593 489 612 664L533 670Q515 498 482.0 381.0Q449 264 388.5 171.5Q328 79 226 -5Z" transform="translate(0, 880) scale(1,-1)" /></svg>