<svg xmlns="http://www.w3.org/2000/svg" width="1000" height="1000"><path d="M350 659Q331 692 295.5 735.5Q260 779 222 815L161 779Q197 743 232.0 698.0Q267 653 285 619ZM462 609H538V846H462ZM704 619Q765 677 847 784L776 821Q753 782 715.5 736.0Q678 690 642 655ZM900 412Q939 452 939 518Q939 593 851.0 622.0Q763 651 614 651Q475 651 365.5 626.0Q256 601 149 545V623H77V426H149V507Q270 549 374.0 562.5Q478 576 613 576Q719 576 787.5 558.0Q856 540 856 510Q856 481 832 459ZM272 482V412H728V482ZM111 324V252H889V324ZM653 -94Q746 -70 791.5 -27.0Q837 16 837 69Q837 121 788.0 153.0Q739 185 647 185Q575 185 513.5 169.0Q452 153 409 130Q504 273 542 431L461 439Q446 360 410.0 279.0Q374 198 316 106Q307 96 287.0 81.5Q267 67 241 50L219 35L262 -17Q359 48 460.5 80.5Q562 113 647 113Q700 113 727.0 100.0Q754 87 754 69Q754 38 717.0 9.5Q680 -19 615 -29Z" transform="translate(0, 880) scale(1,-1)" /></svg>