<svg xmlns="http://www.w3.org/2000/svg" width="1000" height="1000"><path d="M916 -28Q838 -9 767.5 17.0Q697 43 606 81Q491 128 422.5 150.0Q354 172 286 172Q193 172 141.5 140.0Q90 108 90 46Q90 -12 133.5 -46.0Q177 -80 261 -80Q389 -80 514.0 -36.5Q639 7 718.5 70.5Q798 134 798 187Q798 225 783.5 252.0Q769 279 727.0 296.5Q685 314 607 316Q704 338 776.0 359.5Q848 381 913 409L873 465L781 428H75V358H592Q476 323 304 294Q202 277 130 261L151 197Q270 225 365.5 238.5Q461 252 563 252Q653 252 685.0 236.0Q717 220 717 187Q717 153 644.0 107.0Q571 61 464.5 27.5Q358 -6 263 -6Q214 -6 191.0 7.0Q168 20 168 47Q168 71 195.5 86.0Q223 101 286 101Q344 101 407.0 80.0Q470 59 573 14Q664 -25 733.0 -51.5Q802 -78 880 -97ZM619 428Q680 443 714.0 475.0Q748 507 748 540Q748 582 683.0 610.0Q618 638 487 638Q356 638 283.5 613.5Q211 589 211 548Q211 508 262.5 484.0Q314 460 418 460Q480 460 512.5 479.0Q545 498 545 524V841H460V553Q460 512 391 512Q364 512 330.5 522.5Q297 533 297 546Q297 561 343.5 570.5Q390 580 487 580Q562 580 613.0 567.0Q664 554 664 538Q664 512 633.0 486.0Q602 460 504 428ZM97 679H903V749H97Z" transform="translate(0, 880) scale(1,-1)" /></svg>