<svg xmlns="http://www.w3.org/2000/svg" width="1000" height="1000"><path d="M49 398 96 326C333 443 610 585 892 750L840 809L802 789H102V711H688C568 644 294 510 49 398ZM457 242C527 242 563 272 563 336V587H488V356C488 329 478 313 445 313C403 313 367 319 324 336V255C366 245 413 242 457 242ZM902 323 948 405C841 462 730 510 625 548L590 482C695 441 801 392 902 323ZM50 -7 106 -67C215 -5 339 79 414 169L333 209C273 134 158 47 50 -7ZM878 -64 945 -9C877 57 756 147 656 216L596 165C694 94 813 3 878 -64Z" transform="translate(0, 880) scale(1,-1)" /></svg>