<svg xmlns="http://www.w3.org/2000/svg" width="1000" height="1000"><path d="M544 610 592 566C687 611 781 677 871 763L803 800L785 793H143V722H715C665 679 617 648 544 610ZM709 -59 793 -76C850 -9 905 64 905 159C905 233 820 293 709 293C628 293 565 271 519 243V380H436V207L420 197L463 155C541 197 622 230 702 230C770 230 820 202 820 155C820 83 770 2 709 -59ZM252 -53C394 -53 503 -46 619 -9L579 55C482 23 355 17 252 17C214 17 191 32 191 58C191 114 201 185 246 267L165 282C124 200 108 122 108 49C108 -9 147 -53 252 -53ZM206 372 280 405C263 454 218 525 178 577L106 548C143 498 184 422 206 372ZM475 401 554 425C541 480 506 552 470 612L395 590C428 531 461 456 475 401ZM701 393 772 377C814 432 859 504 892 566L810 595C785 532 741 452 701 393Z" transform="translate(0, 880) scale(1,-1)" /></svg>