<svg xmlns="http://www.w3.org/2000/svg" width="1000" height="1000"><path d="M82 513H165V556C272 624 456 654 615 654C776 654 832 636 832 613C832 583 820 558 801 535L883 508C904 538 918 567 918 614C918 702 802 723 615 723C425 723 272 677 165 604V709H82ZM140 422H860V492H140ZM120 278H880V349H120ZM446 138C521 138 555 173 555 244L556 823H477L476 254C476 220 463 205 437 205C405 205 365 211 323 224V150C359 142 397 138 446 138ZM50 -12 106 -67C215 -10 313 55 394 130L313 166C250 104 161 36 50 -12ZM878 -64 945 -14C877 47 756 129 656 192L596 146C694 80 813 -3 878 -64Z" transform="translate(0, 880) scale(1,-1)" /></svg>