<svg xmlns="http://www.w3.org/2000/svg" width="1000" height="1000"><path d="M706 460Q769 481 797.0 509.0Q825 537 825 577Q825 629 766.0 662.5Q707 696 574 696Q473 696 403.0 681.5Q333 667 298.5 642.0Q264 617 264 586Q264 541 309.0 516.5Q354 492 431 492Q477 492 521.0 506.0Q565 520 592.5 543.5Q620 567 620 595V733H542V609Q542 587 506.0 570.5Q470 554 431 554Q393 554 369.0 563.5Q345 573 345 586Q345 604 401.0 618.0Q457 632 574 632Q635 632 673.5 622.5Q712 613 729.0 600.0Q746 587 746 576Q746 548 713.0 520.0Q680 492 587 460ZM113 733H887V805H113ZM512 -85Q697 -48 794.5 14.0Q892 76 892 155Q892 327 508 327Q401 327 320.0 306.5Q239 286 195.5 252.0Q152 218 152 179Q152 147 172.5 119.0Q193 91 236.5 74.0Q280 57 345 57Q421 57 483.5 84.5Q546 112 583.0 162.5Q620 213 620 278V392H948V460H56V392H542V280Q542 237 516.5 201.0Q491 165 446.0 144.5Q401 124 345 124Q230 124 230 179Q230 200 262.5 219.0Q295 238 356.5 250.0Q418 262 502 262Q666 262 739.0 232.5Q812 203 812 160Q812 123 769.5 87.0Q727 51 646.5 21.0Q566 -9 456 -29Z" transform="translate(0, 880) scale(1,-1)" /></svg>