<svg xmlns="http://www.w3.org/2000/svg" width="1000" height="1000"><path d="M130 685C383 691 674 722 887 760L846 833C661 796 371 767 113 758ZM325 456 396 489C372 540 326 619 285 673L216 643C254 589 299 513 325 456ZM648 468C692 522 744 603 784 669L706 702C671 630 625 549 583 495ZM700 1V463H619V13C619 -3 607 -16 585 -16C542 -16 481 -8 419 5V-69C482 -77 549 -81 605 -80C658 -78 700 -64 700 1ZM87 337H918V408H87ZM468 71 520 127C462 172 377 230 290 278L241 222C333 173 412 118 468 71Z" transform="translate(0, 880) scale(1,-1)" /></svg>