<svg xmlns="http://www.w3.org/2000/svg" width="1000" height="1000"><path d="M501 78Q642 78 735.0 114.0Q828 150 871.0 205.5Q914 261 914 319Q914 376 882.0 420.0Q850 464 758.5 492.5Q667 521 500 521Q373 521 270.0 494.5Q167 468 61 410L102 353Q274 451 500 451Q684 451 756.0 412.0Q828 373 828 319Q828 282 791.5 242.5Q755 203 681.0 175.5Q607 148 501 148Q374 148 320.0 164.0Q266 180 266 211Q266 230 292.5 248.0Q319 266 369.5 277.0Q420 288 487 288Q567 288 628.5 262.5Q690 237 731 178L791 222Q728 289 654.5 321.0Q581 353 487 353Q393 353 324.0 334.0Q255 315 218.5 282.5Q182 250 182 211Q182 146 255.0 112.0Q328 78 501 78ZM455 -79H534V478H455ZM214 549H289V824H214ZM51 645H951V714H51ZM460 564H535V820H460ZM727 526Q752 586 774.5 667.5Q797 749 810 825L728 836Q720 761 703.0 683.0Q686 605 665 552Z" transform="translate(0, 880) scale(1,-1)" /></svg>