<svg xmlns="http://www.w3.org/2000/svg" width="1000" height="1000"><path d="M40 -12 89 -80C411 50 564 193 713 375L640 409L626 402H424C473 476 543 630 572 834L487 844C465 657 399 489 296 368L357 315L380 332H570C480 223 305 92 40 -12ZM72 266 147 241C186 314 217 418 236 508L156 516C140 430 111 330 72 266ZM903 -90 955 -27C860 46 738 122 634 172L590 112C695 59 807 -12 903 -90ZM93 636H919V709H94ZM853 234 936 254C920 327 895 439 857 524L780 507C816 420 840 306 853 234Z" transform="translate(0, 880) scale(1,-1)" /></svg>