<svg xmlns="http://www.w3.org/2000/svg" width="1000" height="1000"><path d="M402 64Q460 113 496.0 150.5Q532 188 553.5 231.5Q575 275 575 326Q575 397 519.0 438.0Q463 479 354 479Q251 479 194.0 444.5Q137 410 137 341Q137 276 178.0 236.5Q219 197 300 197Q348 197 376.5 226.0Q405 255 405 298V841H329V349Q329 302 317.5 284.0Q306 266 282 266Q269 266 252.0 275.0Q235 284 222.5 300.0Q210 316 210 336Q210 369 245.0 389.5Q280 410 354 410Q396 410 429.0 397.5Q462 385 480.5 365.5Q499 346 499 326Q499 278 458.0 217.0Q417 156 324 76ZM73 -63 657 118 638 188 50 14ZM614 -41H914V35H801V499H727V35H614ZM64 603H888V680H63Z" transform="translate(0, 880) scale(1,-1)" /></svg>