<svg xmlns="http://www.w3.org/2000/svg" width="1000" height="1000"><path d="M131 435H210V607Q373 732 596 732Q714 732 762.0 704.5Q810 677 810 625Q810 569 748.0 543.5Q686 518 568 518Q464 518 310 537V455Q436 444 533 444Q707 444 800.0 485.0Q893 526 893 625Q893 810 596 810Q468 810 369.5 770.5Q271 731 210 669V773H131ZM642 -69Q791 -52 870.5 5.5Q950 63 950 170Q950 280 836.0 330.0Q722 380 500 380Q364 380 263.5 352.5Q163 325 108.5 272.0Q54 219 54 144Q54 47 116.0 -4.0Q178 -55 281 -55Q384 -55 476.5 7.0Q569 69 632.0 178.0Q695 287 712 422L637 429Q624 309 571.5 216.5Q519 124 441.5 73.0Q364 22 281 22Q212 22 171.0 55.5Q130 89 130 144Q130 182 169.5 219.5Q209 257 292.5 282.0Q376 307 500 307Q622 307 706.0 287.5Q790 268 831.0 236.5Q872 205 872 170Q872 32 608 7ZM470 631Q400 543 364.5 450.0Q329 357 329 268Q329 197 351.5 134.0Q374 71 418 21L483 64Q409 153 409 272Q409 353 442.5 438.5Q476 524 536 604Z" transform="translate(0, 880) scale(1,-1)" /></svg>