<svg xmlns="http://www.w3.org/2000/svg" width="1000" height="1000"><path d="M193 135 240 76C471 201 544 410 548 678H471C461 420 409 247 193 135ZM741 81 798 134C731 215 605 335 502 416L466 357C558 279 682 156 741 81ZM806 -71C875 -71 914 -39 914 38V637C914 736 863 795 774 795H365C237 795 166 763 126 723L147 651C190 696 268 722 378 722H754C810 722 835 690 835 631V47C835 17 823 3 800 3C759 3 725 14 678 34V-50C716 -63 758 -71 806 -71ZM182 -54H610V19H211C177 19 162 40 162 81V795H86V65C86 -23 121 -54 182 -54Z" transform="translate(0, 880) scale(1,-1)" /></svg>