<svg xmlns="http://www.w3.org/2000/svg" width="1000" height="1000"><path d="M609 312V526H897V599H103V526H530V387ZM58 -46H950V27H58ZM500 27Q569 63 612.5 124.5Q656 186 656 268Q656 344 610.5 381.5Q565 419 481 419Q402 419 355.0 380.5Q308 342 308 281Q308 216 358.0 178.0Q408 140 481 140Q520 140 552 161Q529 117 471.5 79.0Q414 41 353 27ZM481 217Q438 217 414.5 234.0Q391 251 391 281Q391 308 415.5 327.0Q440 346 481 346Q520 346 544.0 328.0Q568 310 568 284Q568 251 544.0 234.0Q520 217 481 217ZM396 631Q377 673 345.5 728.0Q314 783 285 824L206 799Q235 755 265.5 700.5Q296 646 315 603ZM658 594Q714 664 794 800L706 827Q642 693 583 616Z" transform="translate(0, 880) scale(1,-1)" /></svg>