<svg xmlns="http://www.w3.org/2000/svg" width="1000" height="1000"><path d="M57 206H955V272H57ZM503 258 569 241C669 263 777 314 777 357C777 407 714 460 512 460C321 460 214 422 214 375C214 324 283 301 390 301C522 301 592 334 592 424V644H516V430C516 368 461 352 390 352C320 352 290 362 290 375C290 390 359 407 512 407C657 407 695 376 695 357C695 333 609 284 503 258ZM109 493H913V556H109ZM269 677 335 714C311 749 255 799 199 836L137 800C191 763 246 711 269 677ZM462 676H538V858H462ZM128 546C549 629 728 700 870 804L798 840C671 743 503 682 86 602ZM608 219 533 239C452 205 363 172 289 146C265 137 229 128 181 122L232 70C338 97 480 116 603 116C768 116 826 91 826 42C826 -28 646 -47 521 -47C434 -47 381 -33 381 -17C381 -4 413 8 462 8C529 8 582 -9 596 -62L675 -53C656 10 582 57 463 57C365 57 305 23 305 -17C305 -63 377 -93 526 -93C759 -93 914 -39 914 42C914 111 844 170 603 170C533 170 475 164 415 155C482 178 545 197 608 219Z" transform="translate(0, 880) scale(1,-1)" /></svg>