<svg xmlns="http://www.w3.org/2000/svg" width="1000" height="1000"><path d="M593 -62Q698 -46 764.5 -26.0Q831 -6 870.5 32.0Q910 70 910 132Q910 176 880.0 211.0Q850 246 788.0 266.5Q726 287 636 287Q476 287 334 228Q426 309 426 435V587H351V439Q351 360 318.0 292.0Q285 224 233 191Q201 170 166 151Q136 133 105.0 113.5Q74 94 48 74L90 14Q219 112 357.5 162.0Q496 212 628 212Q738 212 784.5 190.0Q831 168 831 132Q831 79 761.0 50.0Q691 21 564 7ZM97 394H171V771H97ZM279 382Q350 372 414 372Q553 372 615.5 427.5Q678 483 678 596Q678 695 614.0 747.5Q550 800 429 800Q341 800 274.5 770.5Q208 741 171 692V611Q268 728 429 728Q518 728 558.0 694.5Q598 661 598 596Q598 512 553.5 475.0Q509 438 407 438Q361 438 279 448ZM934 435Q920 501 897.5 571.0Q875 641 849 696L775 668Q800 611 821.0 539.5Q842 468 853 403Z" transform="translate(0, 880) scale(1,-1)" /></svg>