<svg xmlns="http://www.w3.org/2000/svg" width="1000" height="1000"><path d="M116 396C333 436 636 530 826 642L759 677C579 576 291 499 88 468ZM80 650 881 712 871 774 71 715ZM787 416C864 416 895 441 909 549L845 569C838 495 827 483 788 483C569 479 402 650 381 842H301C325 613 529 416 787 416ZM446 -79C514 -78 549 -67 549 -2V250C636 283 742 334 805 379L756 415L740 411H216V346H639C587 318 528 294 473 276V14C473 -1 462 -14 441 -15C401 -16 346 -11 290 6V-66C341 -74 396 -80 446 -79ZM939 135 959 207C738 235 444 236 55 207V140C439 166 734 161 939 135Z" transform="translate(0, 880) scale(1,-1)" /></svg>