<svg xmlns="http://www.w3.org/2000/svg" width="1000" height="1000"><path d="M508 -71Q593 -71 593 1V390H935V458H593V573H519V458H170V390H463Q404 352 333.5 321.5Q263 291 149 248L170 202L209 209H520L519 13Q519 -7 494 -7Q439 -7 344 22V-52Q417 -71 508 -71ZM77 -26Q161 6 321.5 85.0Q482 164 579 223L528 273Q417 207 266.5 132.5Q116 58 38 30ZM136 289Q175 341 208.5 407.0Q242 473 260 532L189 544Q170 484 138.0 422.0Q106 360 70 315ZM319 260 519 341 520 260ZM968 25Q887 67 781.0 110.0Q675 153 582 180V119Q797 43 916 -23ZM87 530 550 616 539 685 77 597ZM281 615H348V782H281ZM947 231Q915 251 859.5 275.0Q804 299 754 315L712 261Q765 241 819.0 216.5Q873 192 903 172ZM104 747H544V813H104ZM622 547H924V615H794V827H721V615H622Z" transform="translate(0, 880) scale(1,-1)" /></svg>