<svg xmlns="http://www.w3.org/2000/svg" width="1000" height="1000"><path d="M222 569H415L299 438L363 418L536 602L488 654L470 642H268Q316 713 368 814L292 841Q216 688 136 590L205 545ZM707 -64Q820 -64 867.5 18.5Q915 101 915 265Q915 514 667 514Q531 514 386.0 491.5Q241 469 105 431L124 352Q255 390 397.0 412.5Q539 435 663 435Q759 435 795.5 390.0Q832 345 832 255Q832 150 801.5 80.0Q771 10 701 10Q634 10 556 39V-46Q625 -64 707 -64ZM119 -76Q284 15 429.0 144.5Q574 274 683.0 437.0Q792 600 846 784L762 804Q684 535 496.5 330.0Q309 125 61 -7Z" transform="translate(0, 880) scale(1,-1)" /></svg>