<svg xmlns="http://www.w3.org/2000/svg" width="1000" height="1000"><path d="M689 -64C878 -64 905 80 905 240C905 375 817 450 630 450C442 450 277 426 98 388L116 312C292 350 461 373 629 373C779 373 817 324 817 231C817 128 804 9 682 9C627 9 569 18 507 34V-49C567 -60 622 -64 689 -64ZM53 -7 106 -76C524 101 712 354 799 834L717 844C630 364 460 155 53 -7ZM374 648 438 697C394 743 330 790 264 833L207 790C278 742 329 698 374 648ZM319 410 380 389C453 453 528 535 574 600L520 630L502 626H116V555H451C412 501 367 452 319 410Z" transform="translate(0, 880) scale(1,-1)" /></svg>