<svg xmlns="http://www.w3.org/2000/svg" width="1000" height="1000"><path d="M347 637C185 534 54 350 54 168C54 37 121 -56 198 -56C349 -56 416 138 393 697H328C352 236 300 21 198 21C150 21 121 92 121 168C121 333 237 480 380 573ZM307 87 337 153C243 244 176 410 207 796L140 800C105 386 187 194 307 87ZM752 -69C877 -69 945 65 945 268C945 474 861 542 712 542C681 542 656 540 632 535C699 593 808 684 877 759L827 806L808 798H437V724H741C683 657 608 586 516 510C499 499 455 473 415 447L446 386C522 439 605 473 699 473C807 473 873 425 873 266C873 137 833 3 747 3C707 3 672 10 634 32V-48C670 -62 708 -69 752 -69ZM487 51C559 51 720 244 781 350L729 404C675 301 549 135 499 135C486 135 478 163 473 206L414 190C427 101 448 51 487 51ZM702 91 746 148C705 216 630 311 579 364L538 311C589 260 662 156 702 91Z" transform="translate(0, 880) scale(1,-1)" /></svg>