<svg xmlns="http://www.w3.org/2000/svg" width="1000" height="1000"><path d="M465 -61Q514 -60 535.0 -39.0Q556 -18 556 35V715H478V35Q478 20 471.5 13.5Q465 7 450 7Q395 7 304 28V-50Q398 -63 465 -61ZM77 352H449V418H77ZM953 259Q783 282 560 282Q347 282 56 259V187Q308 205 509 205Q749 205 936 181ZM313 375 445 537 397 586 371 576H234V510H342L255 394ZM136 488Q195 554 239.0 642.0Q283 730 311 830L233 840Q209 746 165.0 661.0Q121 576 66 519ZM612 352H914V418H774V617H701V418H612ZM223 672H874V740H223Z" transform="translate(0, 880) scale(1,-1)" /></svg>