<svg xmlns="http://www.w3.org/2000/svg" width="1000" height="1000"><path d="M130 694C383 700 674 729 887 765L846 833C661 798 371 771 113 763ZM325 508 396 536C372 580 326 647 285 694L216 668C254 622 299 556 325 508ZM648 509C692 555 744 625 784 682L706 710C671 648 625 579 583 532ZM446 -75C514 -74 549 -61 549 16V314C636 353 742 413 805 467L756 510L740 503H216V434H646C594 401 528 367 473 345V29C473 11 462 -4 441 -5C401 -6 346 0 290 20V-59C341 -69 396 -76 446 -75ZM939 190 959 264C738 296 444 297 55 263V196C439 227 734 220 939 190Z" transform="translate(0, 880) scale(1,-1)" /></svg>