<svg xmlns="http://www.w3.org/2000/svg" width="1000" height="1000"><path d="M689 -64Q778 -64 825.5 -23.5Q873 17 889.0 82.0Q905 147 905 240Q905 343 836.5 396.5Q768 450 630 450Q496 450 369.0 434.5Q242 419 98 388L116 312Q399 373 629 373Q702 373 743.0 357.0Q784 341 800.5 310.5Q817 280 817 231Q817 131 790.5 70.0Q764 9 682 9Q604 9 507 34V-49Q589 -64 689 -64ZM106 -76Q317 13 453.5 133.0Q590 253 672.5 422.0Q755 591 799 834L717 844Q673 601 595.5 444.0Q518 287 389.5 181.5Q261 76 53 -7ZM438 697Q381 757 264 833L207 790Q307 722 374 648ZM380 389Q434 437 486.5 494.0Q539 551 574 600L520 630L502 626H116V555H451Q393 475 319 410Z" transform="translate(0, 880) scale(1,-1)" /></svg>