<svg xmlns="http://www.w3.org/2000/svg" width="1000" height="1000"><path d="M576 -80H870C950 -80 966 -23 971 107L895 122C894 11 884 -5 851 -5H630C601 -5 592 1 592 10C592 21 599 29 608 38L881 300L826 354L789 335H680C721 406 730 455 730 667V815H655V667C655 490 644 419 595 331C591 324 583 320 571 317L602 264L629 270H748L541 69C499 29 491 12 491 -18C491 -57 526 -80 576 -80ZM257 -62C305 -62 332 -25 332 33V516H258V44C258 20 250 6 235 6C209 6 174 12 140 24V-51C171 -58 206 -62 257 -62ZM67 131 514 227 494 291 46 200ZM300 411 301 353C415 375 505 452 505 549C505 660 418 699 338 699C285 699 237 675 211 655C249 709 289 758 343 805L267 845C176 725 120 645 98 572C79 508 76 438 104 357L179 374C150 442 148 494 171 557C187 601 244 632 302 632C364 632 423 597 423 548C423 486 401 434 300 411ZM550 494H954V563H550ZM875 593 935 630C916 680 877 741 840 785L784 753C821 707 859 643 875 593Z" transform="translate(0, 880) scale(1,-1)" /></svg>