<svg xmlns="http://www.w3.org/2000/svg" width="1000" height="1000"><path d="M376 704Q361 738 338.5 778.0Q316 818 293 848L220 824Q242 791 265.5 748.0Q289 705 299 676ZM704 672Q726 704 751.5 749.0Q777 794 795 831L709 852Q697 817 676.0 771.0Q655 725 634 691ZM660 499Q565 534 490.0 554.0Q415 574 321 586L296 530Q394 515 468.0 495.0Q542 475 622 445ZM592 498Q801 592 881 646L825 699L805 690H133V621H702Q609 567 509 523ZM231 251H769V314H231ZM93 124H907V190H93ZM954 -40Q893 -5 794.5 37.0Q696 79 598 111L543 66Q638 32 737.5 -12.5Q837 -57 896 -91ZM93 294H165V351Q249 381 371.0 398.0Q493 415 619 415Q733 415 779.5 403.5Q826 392 826 378Q826 361 820.0 349.0Q814 337 800 322L875 297Q893 318 900.0 336.0Q907 354 907 382Q907 431 836.5 455.5Q766 480 619 480Q476 480 366.5 459.5Q257 439 165 402V465H93ZM538 378H462V265Q462 136 356.0 66.5Q250 -3 46 -29L94 -88Q538 -24 538 263Z" transform="translate(0, 880) scale(1,-1)" /></svg>