<svg xmlns="http://www.w3.org/2000/svg" width="1000" height="1000"><path d="M339 -74Q377 -74 396.5 -51.0Q416 -28 416 15V601H612V671H416V840H344V671H76V601H324Q254 502 122 395L149 334L180 343H345L344 28Q344 0 326 0Q283 0 227 24V-56Q280 -74 339 -74ZM237 412 344 518 345 412ZM87 0 184 95Q326 235 421.0 320.0Q516 405 616.0 465.0Q716 525 801 525Q838 525 854.0 478.5Q870 432 870 345Q870 220 858.0 115.0Q846 10 826 10Q780 10 734 30V-55Q769 -64 829 -64Q896 -64 918.0 49.0Q940 162 940 355Q940 604 803 604Q703 604 598.5 546.5Q494 489 400.5 406.0Q307 323 174 189Q106 121 41 59ZM539 -76Q616 12 664.0 131.0Q712 250 740.0 417.5Q768 585 786 834L708 839Q692 596 664.5 437.5Q637 279 591.0 172.0Q545 65 472 -17Z" transform="translate(0, 880) scale(1,-1)" /></svg>