<svg xmlns="http://www.w3.org/2000/svg" width="1000" height="1000"><path d="M504 287C832 249 934 370 934 560C934 712 841 801 679 801C502 801 411 697 371 605L436 570C479 656 552 722 679 722C805 722 853 662 853 560C853 407 781 331 510 361ZM51 234 363 333 355 405 32 311ZM172 -77C222 -77 251 -50 251 14V840H179V18C179 1 173 -9 157 -9C134 -9 94 -4 51 9V-68C90 -76 133 -77 172 -77ZM341 -72C569 -8 686 129 686 365V560H609V367C609 210 573 76 309 -5ZM46 565H357V638H46ZM905 -81 957 -20C896 32 797 104 706 165L658 108C747 48 846 -28 905 -81Z" transform="translate(0, 880) scale(1,-1)" /></svg>