<svg xmlns="http://www.w3.org/2000/svg" width="1000" height="1000"><path d="M466 -60C697 -60 877 43 877 203C877 329 780 444 567 444C510 444 421 440 361 422C426 512 494 644 555 811L470 832C415 664 353 531 268 416C249 391 214 379 180 368L223 295C302 342 435 370 530 370C708 370 791 297 791 204C791 66 611 15 453 15C367 15 308 39 308 83C308 119 347 147 395 147C474 147 527 107 540 -1L616 14C596 147 524 211 396 211C296 211 228 150 228 81C228 -1 318 -60 466 -60ZM111 583H889V660H111Z" transform="translate(0, 880) scale(1,-1)" /></svg>