<svg xmlns="http://www.w3.org/2000/svg" width="1000" height="1000"><path d="M141 508C297 613 388 711 459 828L371 839C321 753 230 645 95 562ZM352 290C779 235 882 315 882 431C882 521 786 567 655 567C604 567 538 561 490 552C569 619 635 679 709 760L655 796L638 786H371V724H568C500 642 429 580 358 537C305 506 259 487 179 442L223 376C346 460 512 499 655 499C767 499 803 468 803 431C803 355 684 307 352 363ZM910 -77 957 -7C676 65 531 250 293 250C134 250 56 168 56 86C56 4 107 -68 240 -68C482 -68 627 291 792 646L719 674C560 322 410 3 239 3C171 3 136 39 136 86C136 139 196 176 291 176C487 176 612 20 910 -77ZM624 -69C721 16 816 121 875 218L806 259C754 166 664 54 568 -29Z" transform="translate(0, 880) scale(1,-1)" /></svg>