<svg xmlns="http://www.w3.org/2000/svg" width="1000" height="1000"><path d="M585 -64C721 -64 824 -2 824 125C824 251 686 289 520 289C484 289 457 288 427 283C505 322 578 367 643 411H899V485H101L100 411H518C467 369 401 323 310 277C291 268 270 259 221 246L248 185C345 211 417 225 509 225C632 225 742 194 742 125C742 40 662 4 575 4C529 4 471 8 401 19V-52C460 -61 519 -64 585 -64ZM348 506 421 541C376 618 308 716 245 793L177 752C243 673 304 580 348 506ZM530 544 587 502C720 601 760 648 760 709C760 778 710 825 618 825C501 825 385 767 277 675L323 633C420 710 529 748 618 748C653 748 670 730 670 709C670 673 638 621 530 544Z" transform="translate(0, 880) scale(1,-1)" /></svg>