<svg xmlns="http://www.w3.org/2000/svg" width="1000" height="1000"><path d="M118 -78Q210 -6 258.0 84.5Q306 175 321.0 269.0Q336 363 336 475V707H644V69Q644 19 653.0 -8.0Q662 -35 682.5 -46.5Q703 -58 739 -58H836Q880 -58 901.5 -41.5Q923 -25 932.5 18.5Q942 62 945 151L870 166Q868 96 864.0 64.5Q860 33 853.0 24.5Q846 16 832 16H758Q741 16 734.0 27.0Q727 38 727 67V786H256V481Q256 378 243.5 296.0Q231 214 188.0 132.0Q145 50 60 -19ZM595 375Q543 418 483.0 461.0Q423 504 343 554L295 496Q372 444 432.0 398.0Q492 352 545 308Z" transform="translate(0, 880) scale(1,-1)" /></svg>