<svg xmlns="http://www.w3.org/2000/svg" width="1000" height="1000"><path d="M280 642Q268 675 239.0 722.0Q210 769 178 811L112 782Q138 747 166.0 698.0Q194 649 212 609ZM557 653Q547 693 523.0 746.5Q499 800 471 845L402 824Q427 779 450.5 724.0Q474 669 484 629ZM774 604Q844 701 894 800L818 827Q799 782 769.0 727.5Q739 673 709 630ZM579 -73Q652 -73 710.0 -52.0Q768 -31 801.5 7.5Q835 46 835 97Q835 172 764.0 204.0Q693 236 560 236Q531 236 482.5 233.5Q434 231 410 228Q561 286 641 328H926V405H72L71 328H508Q408 266 285 218Q269 213 249.5 206.5Q230 200 200 194L229 128Q304 148 394.0 158.5Q484 169 560 169Q657 169 702.0 153.5Q747 138 747 97Q747 48 696.0 23.0Q645 -2 569 -2Q490 -2 382 11V-63Q462 -73 579 -73ZM144 502H854V578H144Z" transform="translate(0, 880) scale(1,-1)" /></svg>