<svg xmlns="http://www.w3.org/2000/svg" width="1000" height="1000"><path d="M630 44Q735 119 735 250Q735 301 701.5 332.5Q668 364 607 364Q549 364 517.5 335.0Q486 306 486 263Q486 217 525.0 190.0Q564 163 639 163Q756 163 820.5 204.5Q885 246 885 343Q885 431 824.0 476.0Q763 521 641 521Q501 521 387.0 469.0Q273 417 137 303L147 336Q155 363 172 414L123 439Q97 363 80.0 319.0Q63 275 33 223L88 184L95 199Q265 335 390.5 390.5Q516 446 641 446Q721 446 765.5 423.0Q810 400 810 343Q810 283 765.0 253.0Q720 223 639 223Q598 223 574.5 234.5Q551 246 551 263Q551 281 566.0 292.0Q581 303 607 303Q635 303 651.0 288.5Q667 274 667 248Q667 135 567 66ZM228 -72Q272 -72 288.0 -54.0Q304 -36 304 9V838H232V14Q232 -5 213 -5Q174 -5 123 15L122 -60Q169 -72 228 -72ZM952 -20Q737 64 410 128L383 61Q660 8 911 -89ZM60 598Q333 598 538.5 614.5Q744 631 942 668L922 739Q722 701 526.5 685.0Q331 669 60 669Z" transform="translate(0, 880) scale(1,-1)" /></svg>