<svg xmlns="http://www.w3.org/2000/svg" width="1000" height="1000"><path d="M468 -80Q507 -80 526.0 -61.5Q545 -43 545 5V622Q545 720 511.0 760.0Q477 800 403 800H377Q322 800 285.0 792.5Q248 785 217 770V704Q251 720 286.5 727.0Q322 734 372 734H397Q439 734 456.0 707.5Q473 681 473 618V9Q473 -15 452 -15Q404 -15 351 7V-69Q402 -80 468 -80ZM132 -76Q179 0 201.5 89.5Q224 179 229.5 264.5Q235 350 235 468V802H166V468Q166 362 160.0 280.5Q154 199 132.0 115.5Q110 32 66 -40ZM441 478Q361 549 259 614L219 572Q316 508 396 433ZM60 363V292H625V363ZM713 205Q798 257 842.5 292.0Q887 327 905.5 359.0Q924 391 924 430Q924 497 850.5 530.5Q777 564 611 576L604 507Q734 497 790.5 473.5Q847 450 847 426Q847 393 812.0 352.0Q777 311 676 251ZM679 -83Q761 -27 832.0 39.0Q903 105 939 157L898 228L876 221Q752 261 604 273L597 201Q736 191 841 160Q812 116 755.5 64.0Q699 12 624 -34ZM679 524Q791 627 886 794L815 828Q731 659 632 554Z" transform="translate(0, 880) scale(1,-1)" /></svg>