<svg xmlns="http://www.w3.org/2000/svg" width="1000" height="1000"><path d="M900 487C929 528 939 569 939 617C939 701 825 739 617 739C426 739 254 691 147 618V729H69V495H147V566C254 633 453 660 617 660C804 660 857 633 857 610C857 577 852 548 826 514ZM499 677 578 697C561 746 531 802 500 847L424 826C452 783 485 723 499 677ZM77 53C262 161 441 320 559 454H806V526H194V454H463C353 332 212 227 25 118ZM542 -65C791 -109 870 -8 870 127C870 245 790 300 649 300C550 300 456 261 385 184V297H307V-61H385V116C483 206 563 227 649 227C745 227 790 182 790 127C790 24 738 -29 542 12Z" transform="translate(0, 880) scale(1,-1)" /></svg>