<svg xmlns="http://www.w3.org/2000/svg" width="1000" height="1000"><path d="M74 499H153V548Q229 604 358.5 634.0Q488 664 617 664Q697 664 748.0 654.5Q799 645 821.5 632.0Q844 619 844 607Q844 586 838.5 569.5Q833 553 819 534L897 502Q914 530 920.5 551.5Q927 573 927 608Q927 676 849.0 706.5Q771 737 617 737Q474 737 354.0 702.0Q234 667 153 602V723H74ZM566 718Q541 795 508 852L430 832Q468 769 485 696ZM436 -75Q477 -75 501.0 -68.0Q525 -61 537.0 -40.0Q549 -19 549 23V337Q613 369 675.0 411.5Q737 454 785 499L736 543L720 537H236V465H634Q556 408 473 370V35Q473 20 464.5 10.5Q456 1 441 0Q365 -4 290 27V-57Q369 -75 436 -75ZM959 284Q797 309 570 309Q337 309 55 283V213Q299 233 514 233Q758 233 939 206Z" transform="translate(0, 880) scale(1,-1)" /></svg>