<svg xmlns="http://www.w3.org/2000/svg" width="1000" height="1000"><path d="M57 206H955V272H57ZM569 241Q649 259 713.0 292.5Q777 326 777 357Q777 400 714.0 430.0Q651 460 512 460Q419 460 351.5 448.5Q284 437 249.0 418.0Q214 399 214 375Q214 338 260.5 319.5Q307 301 390 301Q492 301 542.0 329.5Q592 358 592 424V644H516V430Q516 387 482.5 369.5Q449 352 390 352Q340 352 315.0 358.5Q290 365 290 375Q290 388 347.5 397.5Q405 407 512 407Q609 407 652.0 391.5Q695 376 695 357Q695 345 668.5 326.5Q642 308 598.0 289.0Q554 270 503 258ZM109 493H913V556H109ZM335 714Q317 740 279.0 774.0Q241 808 199 836L137 800Q177 773 214.5 738.0Q252 703 269 677ZM462 676H538V858H462ZM128 546Q336 587 474.0 626.0Q612 665 704.0 707.5Q796 750 870 804L798 840Q732 790 646.5 751.5Q561 713 427.5 677.5Q294 642 86 602ZM533 239Q427 194 289 146Q247 130 181 122L232 70Q313 91 413.0 103.5Q513 116 603 116Q724 116 775.0 98.0Q826 80 826 42Q826 -5 732.0 -26.0Q638 -47 521 -47Q458 -47 419.5 -38.0Q381 -29 381 -17Q381 -7 403.5 0.5Q426 8 462 8Q578 8 596 -62L675 -53Q660 -4 604.5 26.5Q549 57 463 57Q392 57 348.5 35.5Q305 14 305 -17Q305 -52 361.0 -72.5Q417 -93 526 -93Q641 -93 729.0 -76.0Q817 -59 865.5 -28.5Q914 2 914 42Q914 100 842.5 135.0Q771 170 603 170Q515 170 415 155L508 186Q592 213 608 219Z" transform="translate(0, 880) scale(1,-1)" /></svg>