<svg xmlns="http://www.w3.org/2000/svg" width="1000" height="1000"><path d="M617 -72Q766 -34 842.5 18.0Q919 70 919 148Q919 232 848.0 278.0Q777 324 630 324Q509 324 385.0 284.0Q261 244 174 187Q220 276 242 332L187 354Q162 294 123.5 231.0Q85 168 41 116L98 67L119 99Q237 171 375.5 210.5Q514 250 630 250Q735 250 784.0 223.0Q833 196 833 148Q833 94 763.0 54.5Q693 15 572 2ZM360 -77Q401 -77 421.5 -59.0Q442 -41 442 3V838H366V23Q366 -10 339 -10Q287 -10 227 6V-66Q290 -77 360 -77ZM108 524Q142 582 169.0 654.5Q196 727 212 802L142 816Q125 738 99.5 669.0Q74 600 41 552ZM125 423H654V492H125ZM142 627H675V696H142ZM932 432Q918 498 895.5 568.0Q873 638 847 693L775 668Q800 611 821.0 539.5Q842 468 853 403Z" transform="translate(0, 880) scale(1,-1)" /></svg>