<svg xmlns="http://www.w3.org/2000/svg" width="1000" height="1000"><path d="M512 140Q685 60 882 -68L933 -3Q755 109 557 200ZM410 -68Q660 -6 763.0 58.5Q866 123 866 198Q866 276 766.5 314.5Q667 353 479 353Q358 353 266.0 327.5Q174 302 125.0 259.0Q76 216 76 164Q76 106 114.5 74.5Q153 43 218 43Q294 43 424.5 127.0Q555 211 685.0 336.5Q815 462 889 576L829 621L802 609Q579 635 327 635Q266 635 225.0 616.5Q184 598 164.0 568.5Q144 539 144 505Q144 451 183.5 423.0Q223 395 290 395Q370 395 464.0 439.5Q558 484 650.0 567.5Q742 651 815 765L755 808L728 798H177V723H688Q628 642 556.0 585.0Q484 528 414.0 499.5Q344 471 290 471Q258 471 243.5 479.5Q229 488 229 505Q229 528 252.5 546.0Q276 564 327 564Q566 564 758 538Q701 455 592.0 356.5Q483 258 376.0 190.0Q269 122 218 122Q157 122 157 164Q157 188 199.0 214.5Q241 241 315.0 258.5Q389 276 479 276Q578 276 645.0 265.0Q712 254 744.0 236.5Q776 219 776 198Q776 143 676.0 97.5Q576 52 366 8Z" transform="translate(0, 880) scale(1,-1)" /></svg>