<svg xmlns="http://www.w3.org/2000/svg" width="1000" height="1000"><path d="M365 340Q450 332 538 332Q703 332 780.0 372.0Q857 412 857 499Q857 572 782.5 612.0Q708 652 558 652Q484 652 416.5 637.5Q349 623 298.0 601.0Q247 579 222 556V495Q274 534 364.5 558.0Q455 582 558 582Q670 582 724.0 559.0Q778 536 778 499Q778 442 729.5 419.5Q681 397 578 397Q517 397 365 408ZM149 320H222V626H149ZM457 222H535V492H457ZM383 680Q337 773 285 835L216 809Q275 728 309 648ZM675 646Q744 727 794 814L714 841Q679 761 612 672ZM182 -61 771 -14 758 47 290 13Q393 95 481 191H918V260H89V191H385Q345 144 298.5 100.0Q252 56 223 33Q200 15 188.0 8.5Q176 2 162 -2ZM880 -44Q849 1 789.5 60.0Q730 119 667 167L602 133Q659 89 721.5 25.0Q784 -39 812 -83Z" transform="translate(0, 880) scale(1,-1)" /></svg>