<svg xmlns="http://www.w3.org/2000/svg" width="1000" height="1000"><path d="M104 -80Q201 102 201 469V668H928V741H598L548 845L473 827L513 741H126V468Q126 316 108.5 185.0Q91 54 37 -46ZM693 -89Q786 -62 831.5 -15.0Q877 32 877 90Q877 147 828.0 181.0Q779 215 687 215Q614 215 551.5 197.5Q489 180 446 154Q545 292 579 436L503 444Q487 361 449.5 277.5Q412 194 358 122Q352 114 339.0 104.5Q326 95 310 85L259 50L302 -4Q399 67 500.5 103.0Q602 139 687 139Q740 139 767.0 124.5Q794 110 794 90Q794 57 757.0 25.0Q720 -7 655 -18ZM392 296Q514 283 587 283Q738 283 806.0 326.0Q874 369 874 456Q874 538 807.0 579.5Q740 621 609 621Q493 621 387.5 585.5Q282 550 229 501L266 435Q326 487 414.5 516.5Q503 546 609 546Q708 546 751.0 526.0Q794 506 794 456Q794 402 752.0 378.0Q710 354 614 354Q533 354 392 371Z" transform="translate(0, 880) scale(1,-1)" /></svg>