<svg xmlns="http://www.w3.org/2000/svg" width="1000" height="1000"><path d="M642 -69Q791 -53 870.5 -1.5Q950 50 950 147Q950 247 835.5 293.5Q721 340 500 340Q364 340 263.5 314.5Q163 289 108.5 240.5Q54 192 54 124Q54 36 116.0 -10.0Q178 -56 281 -56Q384 -56 474.0 0.0Q564 56 624.5 154.5Q685 253 702 375L624 381Q611 273 561.5 191.0Q512 109 438.0 64.5Q364 20 281 20Q211 20 170.5 47.5Q130 75 130 124Q130 158 169.5 191.0Q209 224 292.5 246.0Q376 268 500 268Q622 268 705.5 250.0Q789 232 829.0 203.5Q869 175 869 143Q869 81 805.0 49.5Q741 18 608 7ZM493 60Q398 164 398 301Q398 401 442.5 519.5Q487 638 575 812L502 840Q411 658 365.5 522.5Q320 387 320 282Q320 204 345.5 139.5Q371 75 424 21ZM324 563Q301 611 258.0 667.5Q215 724 169 771L106 732Q150 686 192.5 627.5Q235 569 257 521ZM65 417H935V491H65ZM639 519Q688 565 748.5 628.0Q809 691 861 753L788 793Q746 737 690.0 675.5Q634 614 585 571Z" transform="translate(0, 880) scale(1,-1)" /></svg>