<svg xmlns="http://www.w3.org/2000/svg" width="1000" height="1000"><path d="M647 -70C814 -70 917 95 917 267C917 474 790 542 588 542C542 542 499 540 464 535C562 593 717 684 817 759L754 806L727 798H186V724H634C549 657 435 586 299 510C279 499 213 473 156 446L200 386C309 439 430 473 569 473C725 473 836 425 836 265C836 137 763 2 639 2C581 2 529 9 473 31V-49C527 -63 582 -70 647 -70ZM260 51C363 51 591 244 680 350L613 404C533 300 348 135 279 135C259 135 246 163 239 206L160 189C179 101 203 51 260 51ZM567 91 624 147C569 216 464 311 390 364L337 311C410 259 516 155 567 91Z" transform="translate(0, 880) scale(1,-1)" /></svg>