<svg xmlns="http://www.w3.org/2000/svg" width="1000" height="1000"><path d="M504 -81C699 -81 845 23 845 167C845 298 713 366 538 366C471 366 402 354 339 328C415 435 460 607 502 830L420 840C379 606 344 442 245 295C232 276 190 247 151 213L217 163C307 242 397 291 538 291C660 291 752 252 752 167C752 71 669 -16 495 -16C425 -16 392 16 392 57C392 85 416 111 454 111C513 111 566 76 583 -13L659 9C621 114 560 176 453 176C364 176 309 119 309 55C309 -22 379 -81 504 -81ZM62 461H929V535H62ZM126 641H870V715H126Z" transform="translate(0, 880) scale(1,-1)" /></svg>