<svg xmlns="http://www.w3.org/2000/svg" width="1000" height="1000"><path d="M609 312V526H897V599H103V526H530V387ZM58 -46H950V27H58ZM353 27H500C584 71 656 152 656 268C656 371 590 419 481 419C374 419 308 361 308 281C308 192 387 140 481 140C509 140 532 148 552 161C521 102 434 45 353 27ZM481 217C423 217 391 242 391 281C391 315 424 346 481 346C535 346 568 317 568 284C568 238 531 217 481 217ZM315 603 396 631C372 684 326 767 285 824L206 799C244 741 289 661 315 603ZM583 616 658 594C702 649 754 732 794 800L706 827C671 754 625 671 583 616Z" transform="translate(0, 880) scale(1,-1)" /></svg>