<svg xmlns="http://www.w3.org/2000/svg" width="1000" height="1000"><path d="M202 461H799V528H202ZM893 517C917 559 928 591 928 639C928 724 812 759 617 759C426 759 263 714 156 639V745H78V535H156V590C263 660 453 691 617 691C784 691 846 662 846 638C846 605 838 575 814 545ZM491 697 566 718C552 760 534 807 508 852L436 831C462 788 480 743 491 697ZM561 327C697 327 763 307 763 253C763 180 689 132 533 132C457 132 421 144 421 165C421 184 444 199 490 199C534 199 564 185 564 157C564 96 466 38 360 1H462C562 34 650 84 650 157C650 207 603 252 490 252C380 252 336 208 336 165C336 119 403 80 533 80C735 80 854 148 854 253C854 355 765 401 570 401C504 401 443 391 396 374C467 432 521 502 574 622L496 647C443 509 350 406 254 334C239 323 221 313 176 290L226 231C328 302 437 327 561 327ZM93 -56H937V13H93Z" transform="translate(0, 880) scale(1,-1)" /></svg>