<svg xmlns="http://www.w3.org/2000/svg" width="1000" height="1000"><path d="M411 686Q332 724 271.5 749.0Q211 774 148 793L126 725Q191 706 249.5 681.0Q308 656 377 617ZM144 86Q144 166 250.5 263.5Q357 361 542.5 431.0Q728 501 952 509V592Q706 581 502.0 501.0Q298 421 180.5 306.5Q63 192 63 86Q63 18 107.0 -21.5Q151 -61 215 -61Q289 -61 336.5 -14.0Q384 33 404.5 104.0Q425 175 425 250Q425 376 387.5 445.0Q350 514 275.0 541.5Q200 569 75 567V496Q179 497 236.0 477.0Q293 457 319.0 402.5Q345 348 345 242Q345 153 315.0 86.0Q285 19 215 19Q184 19 164.0 36.5Q144 54 144 86ZM684 -74Q824 -74 824 119V825H748V152Q748 76 734.5 40.0Q721 4 678 4Q643 4 625.0 28.0Q607 52 607 91Q607 125 618.5 145.5Q630 166 656 177Q669 182 689 182Q727 182 773 164L780 239Q731 256 684 256Q650 256 626 246Q582 229 557.5 192.5Q533 156 533 92Q533 12 574.5 -31.0Q616 -74 684 -74Z" transform="translate(0, 880) scale(1,-1)" /></svg>