<svg xmlns="http://www.w3.org/2000/svg" width="1000" height="1000"><path d="M633 -1V-76C814 -71 910 -3 910 135C910 243 836 307 658 306C414 305 94 172 94 51C94 -31 170 -70 288 -70C448 -70 611 44 611 185C611 317 584 410 466 500L417 447C512 374 525 268 525 185C525 61 370 0 288 0C209 0 174 19 174 51C174 123 427 231 658 231C788 231 823 190 823 135C823 79 783 -6 633 -1ZM172 369 200 291C438 382 624 535 772 759L709 813L697 797H212V723H642C564 593 354 433 172 369ZM83 541H917V614H83Z" transform="translate(0, 880) scale(1,-1)" /></svg>