<svg xmlns="http://www.w3.org/2000/svg" width="1000" height="1000"><path d="M925 361V428H75V361ZM504 428H619C705 449 748 500 748 540C748 592 673 638 487 638C309 638 211 602 211 548C211 497 274 460 418 460C506 460 545 493 545 524V841H460V553C460 522 432 512 391 512C360 512 297 527 297 546C297 564 349 580 487 580C590 580 664 559 664 538C664 510 649 476 504 428ZM97 683H903V749H97ZM437 -95C758 -41 849 44 849 113C849 192 758 246 570 246C329 246 160 198 160 104C160 43 221 2 324 2C465 2 529 104 529 173C529 252 459 334 331 349L295 299C408 274 450 230 450 173C450 116 415 67 324 67C271 67 239 83 239 104C239 153 395 183 566 183C692 183 765 159 765 113C765 72 696 11 402 -29ZM113 177C202 227 302 284 382 343L338 397C268 342 164 280 80 234ZM919 183 966 236C915 270 842 304 766 336L727 287C809 252 872 216 919 183Z" transform="translate(0, 880) scale(1,-1)" /></svg>