<svg xmlns="http://www.w3.org/2000/svg" width="1000" height="1000"><path d="M100 -60C193 101 206 338 206 501V715H933V790H131V501C131 347 123 132 35 -21ZM220 -47H947V22H575C621 68 659 125 659 178C659 243 616 285 551 285C499 285 447 246 447 188C447 131 493 91 561 91C675 91 809 165 809 283C809 371 743 442 606 442C564 442 543 438 520 430C587 472 649 515 710 559H910V629H260V559H613C554 510 478 451 366 379C342 363 315 350 293 335L339 275C442 353 524 376 604 376C707 376 734 321 734 283C734 194 617 150 561 150C524 150 509 165 509 188C509 209 524 228 551 228C581 228 593 205 593 178C593 108 558 58 498 22H220ZM890 285 958 301C946 365 921 428 883 489L823 467C860 411 879 353 890 285Z" transform="translate(0, 880) scale(1,-1)" /></svg>