<svg xmlns="http://www.w3.org/2000/svg" width="1000" height="1000"><path d="M585 -64Q692 -64 758.0 -15.5Q824 33 824 125Q824 213 741.0 251.0Q658 289 520 289Q463 289 427 283Q530 334 643 411H899V485H101L100 411H518Q427 336 310 277Q275 260 221 246L248 185Q326 206 385.0 215.5Q444 225 509 225Q608 225 675.0 199.5Q742 174 742 125Q742 65 694.0 34.5Q646 4 575 4Q496 4 401 19V-52Q480 -64 585 -64ZM421 541Q387 599 339.5 667.5Q292 736 245 793L177 752Q263 649 348 506ZM587 502Q655 553 692.0 587.0Q729 621 744.5 649.5Q760 678 760 709Q760 762 723.0 793.5Q686 825 618 825Q453 825 277 675L323 633Q394 689 471.5 718.5Q549 748 618 748Q643 748 656.5 737.0Q670 726 670 709Q670 644 530 544Z" transform="translate(0, 880) scale(1,-1)" /></svg>