<svg xmlns="http://www.w3.org/2000/svg" width="1000" height="1000"><path d="M667 -78Q759 -48 812.5 -16.0Q866 16 892.5 64.5Q919 113 919 189Q919 259 871.0 309.5Q823 360 739.0 386.5Q655 413 550 413Q410 413 296.5 365.5Q183 318 119.0 241.5Q55 165 55 83Q55 12 107.0 -28.0Q159 -68 242 -68Q349 -68 413.0 -14.0Q477 40 502.0 116.0Q527 192 527 266Q527 357 471.0 432.0Q415 507 292 547L259 483Q359 449 402.5 391.5Q446 334 446 266Q446 198 423.0 140.0Q400 82 354.0 46.0Q308 10 242 10Q204 10 170.5 30.0Q137 50 137 83Q137 139 187.5 198.5Q238 258 332.0 298.0Q426 338 550 338Q676 338 754.5 301.5Q833 265 833 189Q833 105 783.0 63.0Q733 21 622 4ZM372 495Q436 548 499.5 616.0Q563 684 607 743L542 779L520 774H77V698H476Q412 608 305 520ZM966 511Q896 614 766 737L703 690Q811 586 895 455Z" transform="translate(0, 880) scale(1,-1)" /></svg>