<svg xmlns="http://www.w3.org/2000/svg" width="1000" height="1000"><path d="M627 -75C801 -75 870 50 870 273C870 440 758 554 578 554C410 554 300 500 225 449V368C321 446 425 474 578 474C724 474 792 380 792 273C792 102 741 -3 627 -3C540 -3 399 67 399 195C399 252 426 285 512 285C572 285 595 260 595 228C595 185 531 111 411 49L455 16C579 77 670 155 670 228C670 322 601 357 512 357C403 357 327 300 327 195C327 25 504 -75 627 -75ZM148 -79H225V817H148ZM182 653H804V730H182Z" transform="translate(0, 880) scale(1,-1)" /></svg>