<svg xmlns="http://www.w3.org/2000/svg" width="1000" height="1000"><path d="M504 287Q561 280 616 280Q787 280 860.5 353.0Q934 426 934 560Q934 674 867.0 737.5Q800 801 679 801Q558 801 482.5 744.0Q407 687 371 605L436 570Q512 722 679 722Q771 722 812.0 681.0Q853 640 853 560Q853 491 831.5 446.5Q810 402 757.5 378.5Q705 355 615 355Q569 355 510 361ZM51 234 363 333 355 405 32 311ZM172 -77Q251 -77 251 14V840H179V18Q179 -9 157 -9Q111 -9 51 9V-68Q95 -77 172 -77ZM341 -72Q514 -23 600.0 83.5Q686 190 686 365V560H609V367Q609 277 587.5 211.0Q566 145 500.0 89.0Q434 33 309 -5ZM46 565H357V638H46ZM957 -20Q865 58 706 165L658 108Q724 63 792.0 11.0Q860 -41 905 -81Z" transform="translate(0, 880) scale(1,-1)" /></svg>