<svg xmlns="http://www.w3.org/2000/svg" width="1000" height="1000"><path d="M957 -5Q899 17 852.0 52.5Q805 88 739 148Q688 195 654.5 221.5Q621 248 581.5 266.0Q542 284 498 284Q433 284 390.5 238.0Q348 192 348 116Q348 69 367.0 31.5Q386 -6 418.0 -27.5Q450 -49 485 -49Q569 -49 642.0 16.0Q715 81 758.0 173.0Q801 265 801 337Q801 418 751.0 464.0Q701 510 591 510Q430 510 279 425V352Q365 393 446.0 414.5Q527 436 591 436Q652 436 683.0 409.5Q714 383 714 337Q714 284 682.5 210.5Q651 137 598.5 84.0Q546 31 486 31Q459 31 441.5 55.5Q424 80 424 116Q424 151 445.0 177.0Q466 203 498 203Q534 203 566.5 187.0Q599 171 627.0 146.5Q655 122 698 78Q758 17 804.5 -21.0Q851 -59 911 -84ZM62 415H145V670H62ZM279 -76Q277 -18 277 12Q277 211 306.0 422.0Q335 633 389 826L313 836Q259 643 230.0 428.0Q201 213 201 12Q201 -18 203 -76ZM897 438Q939 498 939 580Q939 638 908.0 669.5Q877 701 811.5 713.0Q746 725 634 725Q478 725 346.5 693.0Q215 661 79 590L109 525Q233 588 363.0 616.5Q493 645 634 645Q725 645 773.5 637.0Q822 629 839.5 614.0Q857 599 857 575Q857 551 848.5 525.0Q840 499 829 487Z" transform="translate(0, 880) scale(1,-1)" /></svg>