<svg xmlns="http://www.w3.org/2000/svg" width="1000" height="1000"><path d="M836 554C902 599 929 630 929 682C929 734 875 768 749 768C669 768 586 757 538 740V840H461V722L444 712L483 669C565 695 665 711 749 711C820 711 848 698 848 682C848 643 824 616 770 586ZM256 574C405 574 511 580 632 606L600 660C499 638 363 631 256 631C216 631 188 644 188 663C188 686 198 719 234 762L166 784C128 740 106 688 106 656C106 610 146 574 256 574ZM519 -80C818 -80 913 16 913 98C913 197 822 259 619 259C491 259 395 252 295 238L323 177C417 187 507 195 619 195C767 195 823 160 823 98C823 44 756 -20 519 -20C309 -20 256 19 256 43C256 57 286 68 396 68C499 68 517 57 517 44C517 26 446 1 335 -23L375 -45C506 -19 597 14 597 44C597 90 540 125 396 125C248 125 180 86 180 43C180 0 278 -80 519 -80ZM503 217 820 338 772 394 750 386H195V320H644L465 237ZM59 444H937V508H553L513 580L441 568L470 508H59Z" transform="translate(0, 880) scale(1,-1)" /></svg>