<svg xmlns="http://www.w3.org/2000/svg" width="1000" height="1000"><path d="M533 821 436 837C378 768 281 682 207 623C190 610 158 600 133 595L165 537L192 546L761 585L741 643L294 615C363 666 466 751 533 821ZM794 523 869 558C826 610 731 690 642 751L572 720C654 663 746 581 794 523ZM456 -79C523 -79 551 -53 551 6V579H472V17C472 -1 460 -12 438 -12C399 -12 348 -4 301 10V-68C348 -74 402 -79 456 -79ZM134 -19C210 24 295 92 347 164L273 190C227 126 150 69 74 30ZM70 235H930V307H70ZM863 -24 924 20C880 70 785 140 709 188L650 147C727 96 820 23 863 -24ZM123 391H877V463H123Z" transform="translate(0, 880) scale(1,-1)" /></svg>