<svg xmlns="http://www.w3.org/2000/svg" width="1000" height="1000"><path d="M568 379Q718 379 792.5 421.5Q867 464 867 535Q867 614 797.0 649.5Q727 685 578 685Q484 685 416.0 670.0Q348 655 281 620Q359 701 415 771L329 791Q291 733 224.5 651.5Q158 570 107 521L180 492Q221 535 256 556Q370 620 568 620Q787 620 787 535Q787 493 737.0 470.5Q687 448 568 448Q481 448 306 465V391Q429 379 568 379ZM425 312Q506 394 563 499L484 521Q456 453 413.0 400.5Q370 348 311 301Q288 294 232 281L212 276L233 212Q317 232 395.0 242.0Q473 252 574 252Q665 252 698.0 239.5Q731 227 731 205Q731 171 656.0 120.0Q581 69 472.5 31.5Q364 -6 267 -6Q217 -6 193.5 7.0Q170 20 170 47Q170 71 198.5 86.0Q227 101 291 101Q350 101 413.5 80.0Q477 59 583 14Q673 -24 745.5 -51.0Q818 -78 898 -97L935 -28Q854 -9 783.0 16.5Q712 42 616 81Q504 127 432.0 149.5Q360 172 291 172Q196 172 143.5 139.5Q91 107 91 46Q91 -12 135.0 -46.0Q179 -80 265 -80Q395 -80 522.5 -32.5Q650 15 732.0 83.0Q814 151 814 205Q814 264 759.0 292.0Q704 320 581 320Q519 320 425 312ZM118 814V737H882V814ZM113 167Q141 212 166.0 276.5Q191 341 206 403L125 411Q113 353 91.0 292.0Q69 231 42 188ZM966 176Q955 231 934.0 297.0Q913 363 887 418L812 403Q837 347 856.5 279.0Q876 211 885 159Z" transform="translate(0, 880) scale(1,-1)" /></svg>