<svg xmlns="http://www.w3.org/2000/svg" width="1000" height="1000"><path d="M611 727Q516 776 347 828L309 766Q442 726 569 657ZM168 605V532H503V605ZM607 86Q762 106 841.0 171.5Q920 237 920 343Q920 423 867.0 473.5Q814 524 715 524Q584 524 450.5 460.0Q317 396 201 295V699H121V235L88 200L144 145Q315 304 458.5 375.5Q602 447 715 447Q772 447 805.0 418.5Q838 390 838 343Q838 300 809.0 258.0Q780 216 721.0 186.0Q662 156 576 147ZM683 -49Q662 28 628.0 109.0Q594 190 556 256L484 226Q519 161 551.5 79.0Q584 -3 604 -79Z" transform="translate(0, 880) scale(1,-1)" /></svg>