<svg xmlns="http://www.w3.org/2000/svg" width="1000" height="1000"><path d="M82 462H165V513Q241 571 364.0 601.0Q487 631 615 631Q729 631 780.5 617.5Q832 604 832 581Q832 532 801 488L883 455Q901 485 909.5 514.0Q918 543 918 582Q918 657 842.5 685.0Q767 713 615 713Q476 713 362.0 675.5Q248 638 165 570V696H82ZM0.0 0.0Q0 0 0.0 0.0Q0 0 0.0 0.0ZM490 -81Q590 -81 672.0 -46.5Q754 -12 801.0 51.5Q848 115 848 199Q848 274 809.5 326.5Q771 379 703.5 406.0Q636 433 550 433Q494 433 443.0 420.0Q392 407 356 385Q510 620 584 822L496 844Q433 618 244 362Q193 311 142 287L196 222Q274 286 361.5 320.0Q449 354 541 354Q638 354 702.0 313.0Q766 272 766 199Q766 143 730.5 96.5Q695 50 630.0 22.5Q565 -5 479 -5Q418 -5 389.0 15.5Q360 36 360 72Q360 99 382.0 116.0Q404 133 447 133Q495 133 525.5 100.5Q556 68 567 -13L653 7Q642 108 587.5 157.0Q533 206 447 206Q367 206 324.5 169.0Q282 132 282 72Q282 2 336.0 -39.5Q390 -81 490 -81Z" transform="translate(0, 880) scale(1,-1)" /></svg>