<svg xmlns="http://www.w3.org/2000/svg" width="1000" height="1000"><path d="M639 331H714L716 810H641ZM284 331H359V810H284ZM60 476H942V541H60ZM84 647H918V711H84ZM475 7Q558 34 613.0 73.0Q668 112 668 157Q668 179 649.5 199.5Q631 220 593.5 233.5Q556 247 503 247Q448 247 412.0 234.5Q376 222 359.5 203.0Q343 184 343 164Q343 143 366.0 124.0Q389 105 435.0 92.5Q481 80 546 80Q650 80 724.5 102.0Q799 124 838.0 163.0Q877 202 877 253Q877 290 840.5 319.0Q804 348 731.5 364.5Q659 381 555 381Q317 381 100 311L138 250Q222 274 335.5 292.5Q449 311 555 311Q791 311 791 253Q791 198 729.0 166.5Q667 135 546 135Q483 135 454.5 142.0Q426 149 426 164Q426 178 445.0 186.5Q464 195 503 195Q542 195 563.0 185.5Q584 176 584 157Q584 116 523.5 77.0Q463 38 373 7ZM78 -41H922V29H78Z" transform="translate(0, 880) scale(1,-1)" /></svg>