<svg xmlns="http://www.w3.org/2000/svg" width="1000" height="1000"><path d="M219 -65C372 -65 465 79 465 286C465 449 425 600 272 701L218 638C352 536 389 406 389 292C389 145 323 25 219 25C172 25 140 48 140 130C140 346 558 584 828 595C828 472 814 391 778 391C746 391 714 398 679 416V329C721 320 766 313 805 313C875 313 901 366 909 692C574 683 56 413 56 123C56 -6 127 -65 219 -65ZM691 -40H843C910 -40 943 4 947 167L872 187C872 73 863 45 839 45H688C646 45 628 60 628 125V450H553V135C553 -10 603 -40 691 -40ZM491 769 435 838C337 771 197 697 56 648L106 579C242 632 386 705 491 769Z" transform="translate(0, 880) scale(1,-1)" /></svg>