<svg xmlns="http://www.w3.org/2000/svg" width="1000" height="1000"><path d="M678 406Q593 427 445 453Q550 599 595 839L516 845Q491 715 447.5 622.0Q404 529 329 440L367 375L387 385Q535 364 646 327ZM131 432Q188 502 229.5 592.0Q271 682 303 790L226 806Q169 589 60 471ZM217 589H863V665H217ZM467 -73Q524 -73 559.0 -27.5Q594 18 594 98Q594 164 570.0 216.0Q546 268 498 313L430 273Q471 229 490.5 186.5Q510 144 510 98Q510 55 494.5 30.5Q479 6 459 5Q438 4 400.0 11.0Q362 18 323 33V-58Q388 -73 467 -73ZM126 34Q172 81 217.0 149.0Q262 217 291 282L205 305Q182 245 142.5 183.0Q103 121 58 76ZM956 58Q929 113 880.0 182.5Q831 252 777 310L699 277Q754 216 801.0 148.0Q848 80 872 29Z" transform="translate(0, 880) scale(1,-1)" /></svg>