<svg xmlns="http://www.w3.org/2000/svg" width="1000" height="1000"><path d="M327 185Q465 167 561 167Q725 167 795.0 209.5Q865 252 865 319Q865 376 792.0 411.5Q719 447 568 447Q535 447 517 446L766 545L722 600L688 588H237V523H570L527 506Q478 487 428.5 468.5Q379 450 345 440Q292 423 261.5 412.5Q231 402 169 374L200 311Q332 385 527 385Q661 385 723.0 369.0Q785 353 785 319Q785 277 735.5 253.0Q686 229 580 229Q477 229 327 252ZM102 -76Q262 -34 356.5 10.0Q451 54 494.5 109.0Q538 164 538 239V303H460V241Q460 155 366.5 93.0Q273 31 53 -16ZM151 166H228V438H151ZM914 -21Q866 7 783.5 44.0Q701 81 627 109L574 58Q646 29 728.5 -10.5Q811 -50 859 -78ZM84 555H162V636Q356 701 617 701Q738 701 779.5 689.5Q821 678 821 660Q821 636 816.0 618.5Q811 601 797 584L872 558Q889 579 896.0 602.5Q903 626 903 661Q903 700 873.0 723.0Q843 746 781.0 755.5Q719 765 617 765Q470 765 367.5 746.5Q265 728 162 682V752H84ZM567 726Q540 803 511 852L439 832Q475 777 493 707Z" transform="translate(0, 880) scale(1,-1)" /></svg>