<svg xmlns="http://www.w3.org/2000/svg" width="1000" height="1000"><path d="M261 -68Q339 -68 404.0 -27.0Q469 14 506.5 84.0Q544 154 544 238Q544 352 501.5 451.5Q459 551 340 651L272 606Q380 508 421.5 417.0Q463 326 463 251Q463 186 435.5 133.0Q408 80 361.5 49.0Q315 18 261 18Q224 18 196.0 33.5Q168 49 152.5 74.0Q137 99 137 126Q137 211 234.5 270.5Q332 330 471.5 360.0Q611 390 733 391V49H597V-30L953 -33V49H817V460L755 495L737 476Q462 459 260.5 381.5Q59 304 59 131Q59 40 110.5 -14.0Q162 -68 261 -68ZM179 550Q450 629 717 774L651 840Q542 779 405.0 719.5Q268 660 147 625ZM392 244Q333 292 264.5 340.0Q196 388 105 445L55 388Q143 330 211.5 278.5Q280 227 340 178Z" transform="translate(0, 880) scale(1,-1)" /></svg>