<svg xmlns="http://www.w3.org/2000/svg" width="1000" height="1000"><path d="M870 -80Q909 -80 930.0 -61.0Q951 -42 959.5 -2.5Q968 37 971 107L895 122Q894 66 890.0 39.5Q886 13 877.5 4.0Q869 -5 851 -5H630Q592 -5 592 10Q592 18 596.0 24.0Q600 30 608 38L881 300L826 354L789 335H680Q702 372 712.0 407.5Q722 443 726.0 500.5Q730 558 730 667V815H655V667Q655 532 643.0 464.0Q631 396 595 331Q590 322 571 317L602 264L629 270H748L541 69Q510 40 500.5 22.5Q491 5 491 -18Q491 -47 514.5 -63.5Q538 -80 576 -80ZM257 -62Q293 -62 312.5 -36.5Q332 -11 332 33V516H258V44Q258 6 235 6Q191 6 140 24V-51Q189 -62 257 -62ZM67 131 514 227 494 291 46 200ZM301 353Q389 370 447.0 424.0Q505 478 505 549Q505 626 456.0 662.5Q407 699 338 699Q302 699 268.0 686.0Q234 673 211 655Q275 746 343 805L267 845Q191 745 152.0 684.0Q113 623 98 572Q83 520 83 474Q83 420 104 357L179 374Q155 430 155 476Q155 512 171 557Q183 590 220.5 611.0Q258 632 302 632Q350 632 386.5 608.0Q423 584 423 548Q423 496 396.5 461.5Q370 427 300 411ZM550 494H954V563H550ZM935 630Q921 666 895.0 708.5Q869 751 840 785L784 753Q813 717 838.0 673.0Q863 629 875 593Z" transform="translate(0, 880) scale(1,-1)" /></svg>