<svg xmlns="http://www.w3.org/2000/svg" width="1000" height="1000"><path d="M101 -60Q207 124 207 501V710H943V787H131V501Q131 346 112.5 213.5Q94 81 35 -21ZM401 352Q499 344 564 344Q730 344 803.5 384.0Q877 424 877 501Q877 569 812.0 605.5Q747 642 594 642Q490 642 399.5 623.5Q309 605 250 577L284 511Q341 539 420.5 555.5Q500 572 594 572Q691 572 744.5 553.0Q798 534 798 501Q798 460 749.0 436.0Q700 412 594 412Q506 412 401 427ZM240 -45H909V26H240ZM667 26Q757 81 757 166Q757 229 705.5 262.0Q654 295 569 295Q488 295 434.5 265.5Q381 236 381 183Q381 126 418.0 97.0Q455 68 522 68Q564 68 588.5 91.5Q613 115 613 154V512H540V179Q540 153 532.5 142.5Q525 132 507 132Q482 132 464.5 145.0Q447 158 447 183Q447 204 480.0 217.5Q513 231 569 231Q620 231 654.0 211.0Q688 191 688 163Q688 128 667.5 96.5Q647 65 596 26Z" transform="translate(0, 880) scale(1,-1)" /></svg>