<svg xmlns="http://www.w3.org/2000/svg" width="1000" height="1000"><path d="M127 678Q307 683 523.5 701.0Q740 719 891 743L843 807Q712 785 501.5 766.5Q291 748 106 741ZM496 845Q469 696 404.5 593.5Q340 491 239 491Q136 491 136 529Q136 547 172.5 559.0Q209 571 281 571Q355 571 420.5 556.5Q486 542 589 510Q691 480 757.0 462.5Q823 445 910 430L947 497Q864 508 794.5 525.5Q725 543 635 570Q519 603 445.5 618.5Q372 634 283 634Q205 634 155.5 618.5Q106 603 84.5 579.0Q63 555 63 529Q63 483 104.5 455.5Q146 428 240 428Q384 428 462.5 548.0Q541 668 582 845ZM613 422Q686 461 753.0 507.5Q820 554 864 598L802 644Q762 599 698.5 550.0Q635 501 564 463ZM357 168Q442 164 527 164Q672 164 745.5 179.5Q819 195 842.0 222.0Q865 249 865 293Q865 346 803.0 376.0Q741 406 621 406Q520 406 445.0 390.0Q370 374 294 340Q327 373 348 415L274 426Q244 364 202.5 323.5Q161 283 93 242L141 194Q180 220 201.0 235.5Q222 251 241 269Q322 303 424.0 320.5Q526 338 621 338Q706 338 747.0 326.0Q788 314 788 293Q788 271 772.0 257.0Q756 243 712.5 236.0Q669 229 589 229Q503 229 357 238ZM474 273V2Q474 -12 465.5 -17.5Q457 -23 438 -23Q375 -23 300 1V-73Q370 -87 459 -87Q499 -87 524.0 -71.5Q549 -56 549 -26V273ZM125 -56Q183 -17 226.0 32.5Q269 82 294 133L220 161Q201 116 161.0 70.0Q121 24 64 -14ZM936 -29Q907 13 855.0 67.5Q803 122 748 164L683 127Q739 82 790.0 27.5Q841 -27 864 -65Z" transform="translate(0, 880) scale(1,-1)" /></svg>