<svg xmlns="http://www.w3.org/2000/svg" width="1000" height="1000"><path d="M240 66Q403 154 473.0 311.5Q543 469 546 688H473Q468 548 442.5 444.5Q417 341 357.0 260.0Q297 179 193 125ZM798 124Q748 185 663.5 265.0Q579 345 502 406L466 347Q537 287 617.5 206.5Q698 126 741 71ZM217 451H783V522H217ZM806 -71Q914 -71 914 38V637Q914 712 877.5 753.5Q841 795 774 795H365Q198 795 126 723L147 651Q180 685 238.5 703.5Q297 722 378 722H754Q835 722 835 631V47Q835 3 800 3Q771 3 743.5 10.5Q716 18 678 34V-50Q739 -71 806 -71ZM610 -54V19H211Q162 19 162 81V795H86V65Q86 1 110.0 -26.5Q134 -54 182 -54Z" transform="translate(0, 880) scale(1,-1)" /></svg>