<svg xmlns="http://www.w3.org/2000/svg" width="1000" height="1000"><path d="M110 -48H184V593H110ZM275 448C360 448 386 553 386 799H88V729H310C312 585 291 521 257 521C232 521 210 523 184 531V453C212 449 241 448 275 448ZM294 -7 320 -79C577 -35 916 99 916 402C916 518 857 644 664 644C478 644 352 553 352 390C352 299 405 215 517 215C586 215 679 256 679 393V840H604V393C604 311 570 286 517 286C452 286 428 337 428 390C428 497 496 572 664 572C798 572 838 483 838 403C838 141 503 24 294 -7Z" transform="translate(0, 880) scale(1,-1)" /></svg>