<svg xmlns="http://www.w3.org/2000/svg" width="1000" height="1000"><path d="M81 -11 124 -77C578 8 671 202 671 606H593C593 225 498 57 81 -11ZM71 221H935V286H71ZM243 361H495V421H243ZM884 -80 932 -12C869 47 761 116 658 165L618 101C720 51 823 -18 884 -80ZM243 481H495V541H243ZM82 521H165V567C272 641 458 673 617 673C779 673 834 648 834 628C834 600 827 578 809 554L891 524C912 557 921 583 921 629C921 717 805 745 617 745C426 745 272 698 165 618V731H82ZM488 707 569 726C555 766 537 810 511 852L433 832C459 792 477 750 488 707Z" transform="translate(0, 880) scale(1,-1)" /></svg>