<svg xmlns="http://www.w3.org/2000/svg" width="1000" height="1000"><path d="M107 -55 534 143 495 203 70 16ZM197 11 484 315 416 357 401 345H269Q308 426 333.0 524.0Q358 622 375 753L300 760Q277 604 246.0 495.0Q215 386 157 307L208 261L232 278H350L138 29ZM72 399H142V474Q182 515 233.0 535.5Q284 556 337 556Q386 556 409.5 543.5Q433 531 433 510Q433 468 419 433L494 410Q503 433 506.5 454.0Q510 475 510 511Q510 573 463.0 602.0Q416 631 337 631Q270 631 224.5 606.0Q179 581 142 527V617H72ZM115 732H527V803H115ZM677 203Q774 255 826.0 290.5Q878 326 900.0 358.5Q922 391 922 430Q922 497 835.5 531.5Q749 566 559 578L551 505Q703 495 769.0 472.5Q835 450 835 426Q835 393 794.0 353.5Q753 314 633 253ZM633 -84Q730 -28 813.0 38.5Q896 105 939 157L893 230L867 223Q723 263 553 275L544 199Q708 189 826 159Q792 116 726.0 65.0Q660 14 571 -32ZM636 524Q769 625 877 794L798 828Q704 659 586 554Z" transform="translate(0, 880) scale(1,-1)" /></svg>