<svg xmlns="http://www.w3.org/2000/svg" width="1000" height="1000"><path d="M821 -62Q876 -62 903.5 -42.5Q931 -23 943.5 25.5Q956 74 962 171L887 198Q883 111 877.5 74.5Q872 38 859.5 27.0Q847 16 818 16H649Q615 16 603.0 29.5Q591 43 591 82V822H509V86Q509 5 539.5 -28.5Q570 -62 643 -62ZM207 -80H286V633H207ZM96 379Q182 463 262.5 583.0Q343 703 389 816L313 840Q267 726 195.0 620.0Q123 514 42 442ZM407 203Q541 277 690.5 396.0Q840 515 937 644L869 691Q785 571 641.5 453.0Q498 335 372 267Z" transform="translate(0, 880) scale(1,-1)" /></svg>