<svg xmlns="http://www.w3.org/2000/svg" width="1000" height="1000"><path d="M495 19Q709 44 815.5 107.5Q922 171 922 290Q922 505 620 505Q537 505 476.5 494.5Q416 484 352 457L727 730L657 791L630 784H128V710H571Q517 660 404.0 570.0Q291 480 216 426L175 400Q116 364 68 331L114 265Q210 342 341.0 385.0Q472 428 620 428Q691 428 740.5 408.5Q790 389 814.5 357.5Q839 326 839 290Q839 242 795.0 200.0Q751 158 664.5 128.5Q578 99 456 88ZM564 -51Q542 20 507.5 94.0Q473 168 437 219L363 191Q397 144 429.0 69.5Q461 -5 483 -79Z" transform="translate(0, 880) scale(1,-1)" /></svg>