<svg xmlns="http://www.w3.org/2000/svg" width="1000" height="1000"><path d="M667 -78Q757 -49 811.0 -14.0Q865 21 892.0 72.0Q919 123 919 199Q919 276 866.5 331.5Q814 387 733.5 415.0Q653 443 570 443Q426 443 313.0 396.5Q200 350 138.0 276.5Q76 203 76 126Q76 74 100.5 31.5Q125 -11 172.5 -36.0Q220 -61 284 -61Q350 -61 408.5 -29.0Q467 3 505.5 61.0Q544 119 551 194Q553 218 553 233Q553 315 522.5 398.0Q492 481 426.0 550.0Q360 619 261 655L195 608Q289 572 351.0 510.0Q413 448 442.0 376.0Q471 304 471 236Q471 167 443.5 118.5Q416 70 372.5 45.5Q329 21 284 21Q229 21 192.0 51.0Q155 81 155 126Q155 182 210.5 238.5Q266 295 360.5 331.5Q455 368 566 368Q626 368 687.5 351.0Q749 334 791.0 296.0Q833 258 833 199Q833 113 782.0 67.0Q731 21 622 4ZM123 554Q244 589 378.5 648.0Q513 707 616 773L557 831Q463 771 323.0 709.5Q183 648 80 620ZM966 511Q896 614 766 737L703 690Q811 586 895 455Z" transform="translate(0, 880) scale(1,-1)" /></svg>