<svg xmlns="http://www.w3.org/2000/svg" width="1000" height="1000"><path d="M508 -71C566 -71 593 -48 593 -2V373H935V438H593V539H519V438H170V373H463C374 317 252 274 149 236L170 192L209 199H520L519 10C519 -3 512 -9 494 -9C453 -9 406 0 344 19V-53C402 -67 451 -71 508 -71ZM77 -28C182 11 443 132 579 212L528 260C380 175 142 62 38 26ZM136 289C189 359 237 455 260 532L189 544C164 464 118 375 70 315ZM319 248 519 326 520 248ZM916 -25 968 21C866 72 711 135 582 171V112C693 74 814 30 916 -25ZM87 540 550 626 539 695 77 607ZM281 615H348V782H281ZM903 163 947 220C905 245 821 280 754 301L712 249C780 225 862 189 903 163ZM104 747H544V813H104ZM622 557H924V625H794V827H721V625H622Z" transform="translate(0, 880) scale(1,-1)" /></svg>