<svg xmlns="http://www.w3.org/2000/svg" width="1000" height="1000"><path d="M0.0 0.0Q0 0 0.0 0.0Q0 0 0.0 0.0ZM724 397Q687 358 630 313V20Q630 8 623.5 -0.5Q617 -9 606 -10Q547 -12 492 13V-64Q550 -80 602 -80Q645 -80 672.5 -59.0Q700 -38 700 10V284Q788 354 845 425L804 475L787 469Q764 470 718 470Q513 470 364.5 418.0Q216 366 139.0 276.5Q62 187 62 77Q62 21 90.0 -21.5Q118 -64 162 -64Q214 -64 265.0 -12.0Q316 40 416.5 209.0Q517 378 730 768L670 832L647 819H204V745H627Q456 427 364.0 270.0Q272 113 233.0 66.0Q194 19 170 19Q157 19 148.0 36.0Q139 53 139 78Q139 163 211.5 237.0Q284 311 406.5 355.0Q529 399 670 399Q688 399 724 397ZM951 233Q845 255 695 255Q539 255 354 232V165Q512 183 661 183Q823 183 938 160ZM73 555H933V628H73Z" transform="translate(0, 880) scale(1,-1)" /></svg>