<svg xmlns="http://www.w3.org/2000/svg" width="1000" height="1000"><path d="M212 609 280 642C263 689 218 759 178 811L112 782C149 733 190 658 212 609ZM484 629 557 653C544 707 507 787 471 845L402 824C435 765 470 684 484 629ZM774 604C820 668 862 737 894 800L818 827C793 766 749 687 709 630ZM579 -73C725 -73 835 -7 835 97C835 202 727 236 560 236C522 236 443 232 410 228C493 260 572 292 641 328H926V405H72L71 328H508C453 294 382 256 285 218C264 211 246 204 200 194L229 128C333 155 462 169 560 169C683 169 747 154 747 97C747 27 662 -2 569 -2C519 -2 457 2 382 11V-63C446 -71 509 -73 579 -73ZM144 502H854V578H144Z" transform="translate(0, 880) scale(1,-1)" /></svg>