<svg xmlns="http://www.w3.org/2000/svg" width="1000" height="1000"><path d="M642 -69Q727 -59 797.5 -25.0Q868 9 909.0 60.0Q950 111 950 170Q950 274 822.5 317.5Q695 361 500 361Q306 361 180.0 312.0Q54 263 54 145Q54 88 85.0 42.5Q116 -3 168.0 -29.0Q220 -55 281 -55Q383 -55 473.0 16.0Q563 87 624.0 209.5Q685 332 702 482L624 488Q611 353 561.0 247.5Q511 142 437.0 83.0Q363 24 281 24Q218 24 176.5 57.5Q135 91 135 145Q135 184 181.5 216.5Q228 249 311.5 267.5Q395 286 500 286Q658 286 763.5 255.5Q869 225 869 166Q869 126 836.0 91.5Q803 57 743.5 33.0Q684 9 608 1ZM531 110Q459 154 424.5 227.5Q390 301 390 409Q390 567 465 824L384 840Q309 590 309 412Q309 277 352.5 185.5Q396 94 481 49ZM105 448H184V540Q267 605 378.5 635.0Q490 665 604 665Q698 665 760.5 647.5Q823 630 823 604Q823 572 764.0 551.5Q705 531 578 531Q520 531 487 533L489 465Q524 463 588 463Q751 463 829.5 496.5Q908 530 908 608Q908 677 827.0 709.0Q746 741 605 741Q474 741 360.5 701.0Q247 661 184 583V730H105Z" transform="translate(0, 880) scale(1,-1)" /></svg>