<svg xmlns="http://www.w3.org/2000/svg" width="1000" height="1000"><path d="M124 -77Q348 -35 466.0 47.0Q584 129 627.5 260.0Q671 391 671 606H593Q593 406 550.5 285.5Q508 165 398.0 94.0Q288 23 81 -11ZM71 221H935V286H71ZM243 361H495V421H243ZM932 -12Q885 32 810.5 80.0Q736 128 658 165L618 101Q696 63 767.5 14.5Q839 -34 884 -80ZM243 481H495V541H243ZM82 521H165V567Q241 620 364.5 646.5Q488 673 617 673Q728 673 781.0 659.5Q834 646 834 628Q834 607 828.0 589.5Q822 572 809 554L891 524Q907 550 914.0 573.0Q921 596 921 629Q921 692 844.0 718.5Q767 745 617 745Q476 745 361.5 712.0Q247 679 165 618V731H82ZM569 726Q543 800 511 852L433 832Q471 774 488 707Z" transform="translate(0, 880) scale(1,-1)" /></svg>