<svg xmlns="http://www.w3.org/2000/svg" width="1000" height="1000"><path d="M125 507 193 484C248 554 306 664 337 752L287 798L267 792H50V720H248C224 644 180 576 125 507ZM323 338C323 470 239 508 109 524V451C202 437 248 394 248 338C248 210 174 81 49 -18L103 -72C244 47 323 196 323 338ZM748 507 817 484C871 554 930 664 960 752L911 798L891 792H684V720H871C847 644 804 576 748 507ZM947 338C947 470 862 508 732 524V451C826 437 871 394 871 338C871 210 798 81 673 -18L727 -72C867 47 947 196 947 338ZM461 -62C603 -62 664 119 664 262C664 383 605 505 461 561L436 498C551 448 589 349 589 262C589 155 551 20 461 20C427 20 402 43 402 104C402 220 493 308 676 441L631 496C452 370 324 245 324 104C324 -17 382 -62 461 -62ZM461 533 509 509C568 582 638 687 675 760L625 795L609 787H351V714H567C536 651 494 582 461 533Z" transform="translate(0, 880) scale(1,-1)" /></svg>