<svg xmlns="http://www.w3.org/2000/svg" width="1000" height="1000"><path d="M283 591 350 632C325 683 272 757 222 812L159 775C207 720 259 642 283 591ZM462 583H538V846H462ZM642 628 706 591C749 638 806 717 849 780L776 818C744 757 687 677 642 628ZM832 411 900 359C928 391 939 432 939 477C939 596 788 624 614 624C427 624 291 589 149 507V593H77V374H149V465C323 531 454 546 613 546C751 546 856 518 856 473C856 450 847 427 832 411ZM503 14H588C706 80 771 129 771 220C771 316 677 381 501 381C307 381 209 316 209 239C209 162 277 107 399 107C490 107 550 154 550 214V494H470V239C470 195 442 177 396 177C339 177 292 201 292 239C292 275 348 312 501 312C638 312 690 280 690 220C690 150 640 91 503 14ZM53 -40H950V32H53Z" transform="translate(0, 880) scale(1,-1)" /></svg>