<svg xmlns="http://www.w3.org/2000/svg" width="1000" height="1000"><path d="M89 -80Q243 -18 355.0 51.5Q467 121 548.5 197.5Q630 274 713 375L640 409L626 402H424Q468 468 510.0 581.5Q552 695 572 834L487 844Q470 703 421.5 580.5Q373 458 296 368L357 315L380 332H570Q496 243 361.5 152.0Q227 61 40 -12ZM147 241Q175 293 198.0 364.0Q221 435 236 508L156 516Q143 445 121.5 378.0Q100 311 72 266ZM955 -27Q883 28 797.5 81.5Q712 135 634 172L590 112Q760 26 903 -90ZM93 636H919V709H94ZM936 254Q918 335 900.0 401.5Q882 468 857 524L780 507Q822 405 853 234Z" transform="translate(0, 880) scale(1,-1)" /></svg>