<svg xmlns="http://www.w3.org/2000/svg" width="1000" height="1000"><path d="M949 0Q855 19 774.0 46.5Q693 74 588 117Q479 161 411.5 181.5Q344 202 279 202Q215 202 166.5 184.0Q118 166 92.0 134.5Q66 103 66 64Q66 3 114.5 -30.0Q163 -63 253 -63Q339 -63 485.5 -15.0Q632 33 743.0 100.5Q854 168 854 224Q854 286 790.0 317.5Q726 349 584 349Q525 349 480.5 346.5Q436 344 381 337Q526 382 701 474L639 522L623 511H396Q436 554 475.5 614.5Q515 675 545 745H891V815H111V745H462Q436 682 399.0 624.0Q362 566 327 526Q316 514 306.5 507.5Q297 501 284 496L323 434L354 450H521Q443 407 265 344Q195 320 143 306L164 245Q381 283 584 283Q678 283 723.5 266.0Q769 249 769 224Q769 185 672.0 134.0Q575 83 449.5 45.5Q324 8 253 8Q145 8 145 64Q145 131 279 131Q332 131 387.0 112.5Q442 94 541 52Q643 7 729.5 -24.5Q816 -56 920 -77ZM867 430Q896 456 911.5 486.0Q927 516 927 555Q927 612 851.0 641.5Q775 671 613 671Q470 671 347.5 644.5Q225 618 159 565V659H86V450H159V531Q308 605 612 605Q734 605 791.5 590.5Q849 576 849 555Q849 517 810 481Z" transform="translate(0, 880) scale(1,-1)" /></svg>