<svg xmlns="http://www.w3.org/2000/svg" width="1000" height="1000"><path d="M244 -78H753C862 -78 895 -23 916 95L841 117C825 23 796 -5 732 -5H255C231 -5 222 0 222 8C222 15 237 21 252 27C435 104 680 196 872 307L819 363C599 228 327 146 179 75C142 57 129 30 129 4C129 -45 150 -78 244 -78ZM136 272H793V345H136ZM261 449H745V522H261ZM82 509H165V556C272 633 456 666 615 666C776 666 832 646 832 620C832 591 825 568 806 543L888 512C909 546 918 573 918 621C918 720 802 741 615 741C425 741 272 692 165 609V727H82ZM487 702 567 721C553 763 535 808 510 852L432 831C457 790 475 746 487 702Z" transform="translate(0, 880) scale(1,-1)" /></svg>