<svg xmlns="http://www.w3.org/2000/svg" width="1000" height="1000"><path d="M572 741Q537 805 500 847L426 825Q470 776 495 719ZM80 745V671H920V745ZM402 524Q369 602 330 658L261 630Q306 567 330 495ZM659 666Q591 548 508.5 468.5Q426 389 345.0 350.5Q264 312 194 312Q169 312 155.5 319.5Q142 327 142 341Q142 374 203.5 401.5Q265 429 372.5 445.5Q480 462 613 462Q706 462 756.0 437.5Q806 413 824.0 367.0Q842 321 842 246Q842 179 829.0 123.0Q816 67 792.5 34.5Q769 2 738 2Q653 2 585 31V-58Q656 -74 748 -74Q822 -74 871.5 -0.5Q921 73 921 246Q921 348 895.5 409.5Q870 471 803.5 502.5Q737 534 613 534Q363 534 215.0 485.5Q67 437 67 341Q67 287 100.5 259.5Q134 232 194 232Q331 232 472.5 331.5Q614 431 737 636ZM320 38Q345 86 366.5 145.5Q388 205 401 263L324 276Q314 224 293.5 168.5Q273 113 248 67ZM721 56Q708 105 684.0 172.5Q660 240 634 297L559 274Q584 220 607.0 153.5Q630 87 642 36Z" transform="translate(0, 880) scale(1,-1)" /></svg>