<svg xmlns="http://www.w3.org/2000/svg" width="1000" height="1000"><path d="M97 789V713H903V789ZM250 83Q378 130 510.5 198.0Q643 266 709 315L667 369L641 358H419Q464 396 510.0 462.5Q556 529 589 606H506Q472 527 427.5 463.5Q383 400 317 341L345 284L370 297H549Q438 218 215 144ZM848 123Q813 148 752.5 179.5Q692 211 635 235L596 186Q653 162 709.0 130.0Q765 98 801 71ZM160 430H903V495H160ZM247 560Q397 567 545.5 582.0Q694 597 803 617L775 682Q679 662 529.0 646.5Q379 631 219 624ZM931 40Q786 7 608 7Q508 7 419.0 18.0Q330 29 270 49Q204 72 172.0 139.0Q140 206 136 336L61 323Q63 178 106.5 93.0Q150 8 239 -22Q303 -44 401.0 -56.5Q499 -69 609 -69Q785 -69 931 -38Z" transform="translate(0, 880) scale(1,-1)" /></svg>