<svg xmlns="http://www.w3.org/2000/svg" width="1000" height="1000"><path d="M135 -78C336 47 400 162 400 382V559H913V632H93V559H322V382C322 167 268 90 78 -23ZM615 -72C698 -72 733 -38 733 31L734 493H656L655 49C655 16 643 -1 603 -1C575 -1 524 4 481 13V-61C518 -69 562 -72 615 -72ZM939 268 959 344C728 370 444 371 55 343V273C439 299 724 293 939 268ZM321 634 395 667C376 716 330 788 287 841L218 813C260 758 305 683 321 634ZM683 615C718 676 759 754 789 818L704 843C683 780 645 695 611 634Z" transform="translate(0, 880) scale(1,-1)" /></svg>