<svg xmlns="http://www.w3.org/2000/svg" width="1000" height="1000"><path d="M568 379C777 379 867 445 867 535C867 641 774 685 578 685C451 685 369 666 281 620C309 649 368 712 415 771L329 791C280 716 176 588 107 521L180 492C201 514 223 536 256 556C340 603 452 621 578 620C711 619 787 593 787 535C787 483 736 448 568 448C480 448 378 458 306 465V391C378 384 455 379 568 379ZM425 312C475 363 523 426 563 499L484 521C445 426 385 359 311 301C281 292 254 286 212 276L233 212C331 235 428 252 574 252C705 252 731 231 731 205C731 137 472 -6 267 -6C200 -6 170 11 170 47C170 76 199 101 291 101C452 101 636 -34 898 -97L935 -28C663 35 477 172 291 172C166 172 91 129 91 46C91 -29 147 -80 265 -80C539 -80 814 98 814 205C814 302 708 338 425 312ZM118 814V737H882V814ZM42 188 113 167C152 230 187 325 206 403L125 411C110 338 79 248 42 188ZM885 159 966 176C952 244 923 341 887 418L812 403C846 325 874 226 885 159Z" transform="translate(0, 880) scale(1,-1)" /></svg>