<svg xmlns="http://www.w3.org/2000/svg" width="1000" height="1000"><path d="M169 162H241V801H169ZM40 493H373V562H40ZM378 257 65 140 91 73 402 196ZM391 558Q444 600 516.0 622.5Q588 645 688 645Q758 645 797.5 621.5Q837 598 853.0 553.0Q869 508 869 436Q869 330 822.5 273.5Q776 217 693 217Q569 217 462 248V171Q568 146 693 146Q816 146 881.5 225.0Q947 304 947 436Q947 573 887.0 646.0Q827 719 688 719Q579 719 495.0 693.0Q411 667 360 625ZM676 -91V840H599V-91ZM487 395H787V466H487Z" transform="translate(0, 880) scale(1,-1)" /></svg>