<svg xmlns="http://www.w3.org/2000/svg" width="1000" height="1000"><path d="M110 -48H184V593H110ZM275 448Q317 448 341.5 484.0Q366 520 376.0 596.0Q386 672 386 799H88V729H310Q311 624 297.0 572.5Q283 521 257 521Q217 521 184 531V453Q219 448 275 448ZM320 -79Q467 -54 601.5 3.5Q736 61 826.0 161.0Q916 261 916 402Q916 503 856.5 573.5Q797 644 664 644Q571 644 500.5 614.5Q430 585 391.0 527.5Q352 470 352 390Q352 316 394.5 265.5Q437 215 517 215Q556 215 593.0 232.0Q630 249 654.5 289.0Q679 329 679 393V840H604V393Q604 335 582.0 310.5Q560 286 517 286Q472 286 450.0 316.0Q428 346 428 390Q428 475 485.5 523.5Q543 572 664 572Q756 572 797.0 522.5Q838 473 838 403Q838 282 751.5 195.5Q665 109 541.0 60.0Q417 11 294 -7Z" transform="translate(0, 880) scale(1,-1)" /></svg>