<svg xmlns="http://www.w3.org/2000/svg" width="1000" height="1000"><path d="M454 27H590C666 75 735 169 735 295C735 407 673 457 573 457C471 457 409 400 409 309C409 206 479 159 573 159C598 159 620 165 637 179C609 115 528 47 454 27ZM135 -36 209 -24C163 166 152 297 183 408C218 532 219 630 169 735L91 711C136 596 141 519 111 424C77 317 82 184 135 -36ZM258 -52H963V27H258ZM573 235C518 235 490 265 490 309C490 346 520 382 573 382C622 382 652 349 652 313C652 263 619 235 573 235ZM287 576H943V655H287ZM693 343V821H615V425Z" transform="translate(0, 880) scale(1,-1)" /></svg>