<svg xmlns="http://www.w3.org/2000/svg" width="1000" height="1000"><path d="M37 -46 104 -80C188 78 201 309 201 469V668H928V741H598L548 845L473 827L513 741H126V468C126 319 119 105 37 -46ZM655 -18 693 -89C823 -52 877 17 877 90C877 163 814 215 687 215C582 215 496 184 446 154C501 231 552 323 579 436L503 444C482 333 430 218 358 122C343 103 310 87 259 50L302 -4C437 95 580 139 687 139C763 139 794 114 794 90C794 49 747 -2 655 -18ZM392 371V296C744 256 874 311 874 456C874 565 784 621 609 621C446 621 295 561 229 501L266 435C344 502 463 546 609 546C739 546 794 524 794 456C794 352 687 336 392 371Z" transform="translate(0, 880) scale(1,-1)" /></svg>