<svg xmlns="http://www.w3.org/2000/svg" width="1000" height="1000"><path d="M43 -11 87 -77C376 36 614 243 614 567V824H535V567C535 282 306 90 43 -11ZM88 340H163V728H88ZM273 380H348V708H273ZM695 -61H843C929 -61 947 2 954 187L877 201C873 35 868 11 831 11H704C672 11 666 20 666 66V308H590V67C590 -33 613 -61 695 -61ZM762 412 826 358C898 419 925 486 925 536C925 635 840 704 720 704C551 704 457 656 329 565L343 513C471 600 561 631 720 631C806 631 844 584 844 536C844 504 818 453 762 412Z" transform="translate(0, 880) scale(1,-1)" /></svg>