<svg xmlns="http://www.w3.org/2000/svg" width="1000" height="1000"><path d="M664 755 640 742H253V665H609Q559 559 493.5 481.5Q428 404 363.5 363.0Q299 322 251 322Q218 322 199.5 336.5Q181 351 181 378Q181 405 212.0 424.0Q243 443 306 443Q385 443 451.5 426.0Q518 409 633 368Q790 310 916 276L937 356Q861 376 801.5 394.5Q742 413 650 445Q533 486 461.0 504.0Q389 522 306 522Q209 522 154.0 482.0Q99 442 99 378Q99 310 142.0 277.0Q185 244 251 244Q321 244 404.5 295.5Q488 347 572.0 451.5Q656 556 725 709ZM106 477Q190 553 256.5 640.5Q323 728 367 820L287 845Q248 759 182.5 677.0Q117 595 35 526ZM109 -63Q202 -2 283.5 66.5Q365 135 417 206L333 242Q291 177 212.5 109.0Q134 41 50 -4ZM945 -7Q897 46 818.0 115.0Q739 184 656 249L593 201Q796 33 875 -59ZM933 577Q895 686 840 781L768 752Q822 662 854 550Z" transform="translate(0, 880) scale(1,-1)" /></svg>