<svg xmlns="http://www.w3.org/2000/svg" width="1000" height="1000"><path d="M220 458H783V525H220ZM886 532Q904 567 912.5 599.5Q921 632 921 672Q921 741 842.5 772.0Q764 803 617 803Q476 803 359.0 768.0Q242 733 160 669V787H82V552H160V613Q236 669 359.5 696.5Q483 724 617 724Q695 724 744.5 715.5Q794 707 816.5 695.0Q839 683 839 671Q839 642 833.0 616.5Q827 591 812 564ZM230 576H768V644H230ZM614 -75Q696 -75 737.5 -28.5Q779 18 791.0 87.5Q803 157 803 254Q803 308 789.0 341.5Q775 375 730.0 395.0Q685 415 596 415Q475 415 308 389L311 317Q475 340 595 340Q648 340 676.0 330.0Q704 320 714.0 302.0Q724 284 724 254Q724 151 699.5 74.0Q675 -3 604 -3Q520 -3 448 16V-63Q487 -71 521.0 -73.0Q555 -75 614 -75ZM212 -73Q275 36 298.0 143.0Q321 250 326 414H249Q245 301 235.5 231.0Q226 161 202.5 98.0Q179 35 132 -39ZM646 88 649 155 357 161 353 95ZM657 204 660 270 368 277 364 210Z" transform="translate(0, 880) scale(1,-1)" /></svg>