<svg xmlns="http://www.w3.org/2000/svg" width="1000" height="1000"><path d="M56 165H944V233H56ZM565 211H650C716 243 771 287 771 330C771 388 708 450 517 450C336 450 234 404 234 350C234 290 301 262 402 262C527 262 594 304 594 411V682H517V420C517 341 469 322 402 322C335 322 313 334 313 350C313 370 372 388 517 388C654 388 689 352 689 328C689 300 646 254 565 211ZM85 481H915V546H85ZM43 611 98 565C224 637 347 721 444 826L364 853C282 759 166 671 43 611ZM537 733C469 683 390 636 301 598L357 555C471 614 608 703 688 763L632 799L613 792H313V733ZM50 -35 109 -80C218 -26 342 47 417 125L333 152C276 86 161 11 50 -35ZM875 -77 945 -37C877 19 756 98 656 157L593 120C691 59 810 -18 875 -77Z" transform="translate(0, 880) scale(1,-1)" /></svg>