<svg xmlns="http://www.w3.org/2000/svg" width="1000" height="1000"><path d="M327 185C754 128 865 218 865 319C865 394 767 456 517 446L766 545L722 600L688 588H237V523H570C490 492 409 459 345 440C323 433 267 418 169 374L200 311C291 362 398 385 527 385C705 385 785 365 785 319C785 242 667 199 327 252ZM102 -76C415 7 538 90 538 239V303H460V241C460 131 356 49 53 -16ZM151 166H228V438H151ZM859 -78 914 -21C848 17 722 73 627 109L574 58C671 19 796 -41 859 -78ZM84 555H162V636C299 682 449 701 617 701C797 701 821 678 821 660C821 629 816 608 797 584L872 558C896 587 903 616 903 661C903 740 815 765 617 765C421 765 299 743 162 682V752H84ZM493 707 567 726C553 766 536 810 511 852L439 832C464 794 482 750 493 707Z" transform="translate(0, 880) scale(1,-1)" /></svg>