<svg xmlns="http://www.w3.org/2000/svg" width="1000" height="1000"><path d="M106 -74Q172 3 209.0 78.0Q246 153 262.0 246.5Q278 340 278 475V702H647V779H76V702H200V475Q200 344 186.0 262.0Q172 180 138.5 117.5Q105 55 41 -16ZM0.0 0.0Q0 0 0.0 0.0Q0 0 0.0 0.0ZM422 -72Q538 -72 538 52V629H460V66Q460 35 448.5 20.0Q437 5 410 5Q390 5 359.0 10.0Q328 15 301 23V-58Q347 -72 422 -72ZM664 -4Q754 28 808.0 62.5Q862 97 889.0 146.0Q916 195 916 267Q916 476 620 476Q472 476 325.5 448.5Q179 421 60 378L89 307Q190 346 342.5 373.5Q495 401 620 401Q724 401 779.0 364.5Q834 328 834 267Q834 190 782.0 141.0Q730 92 623 70ZM966 501Q896 604 766 727L708 682Q816 578 900 447Z" transform="translate(0, 880) scale(1,-1)" /></svg>