<svg xmlns="http://www.w3.org/2000/svg" width="1000" height="1000"><path d="M128 332 155 342H928V414H256C446 485 682 601 886 735L826 815L800 804H131V730H731C594 634 338 509 87 411ZM490 -99 571 -71C547 -15 501 46 457 91L385 63C427 23 469 -44 490 -99ZM508 -38C748 -18 908 29 908 128C908 211 830 276 598 276C411 276 234 229 90 150L130 82C255 153 435 203 598 203C758 203 820 168 820 128C820 74 693 38 472 24ZM714 466 761 529C626 586 477 633 316 670L275 610C434 572 581 524 714 466Z" transform="translate(0, 880) scale(1,-1)" /></svg>