<svg xmlns="http://www.w3.org/2000/svg" width="1000" height="1000"><path d="M445 366C518 366 556 392 556 446V778H477V458C477 433 467 421 432 421C388 421 350 425 305 440V379C349 370 399 366 445 366ZM112 601H888V670H112ZM151 734C392 737 678 754 875 782L825 846C627 817 370 802 122 801ZM82 465H918V534H82ZM446 -79C514 -78 549 -68 549 -12V202C636 230 742 280 805 319L756 358L740 351H216V286H620C568 261 528 246 473 230V6C473 -7 462 -18 441 -19C401 -20 346 -16 290 -1V-68C341 -75 396 -80 446 -79ZM939 103 959 174C738 199 444 199 55 174V106C439 129 734 125 939 103Z" transform="translate(0, 880) scale(1,-1)" /></svg>