<svg xmlns="http://www.w3.org/2000/svg" width="1000" height="1000"><path d="M647 121Q728 121 789.5 166.5Q851 212 884.0 290.5Q917 369 917 465Q917 615 831.0 680.5Q745 746 584 746Q454 746 352.5 723.5Q251 701 166 657L194 592Q263 629 363.5 650.0Q464 671 572 671Q702 671 770.5 624.5Q839 578 839 463Q839 396 814.5 333.0Q790 270 745.0 230.0Q700 190 641 190Q557 190 473 223V142Q549 121 647 121ZM159 281Q265 350 343.0 433.5Q421 517 459 606L386 627Q352 541 280.0 467.5Q208 394 105 338ZM236 116Q397 190 509.5 310.0Q622 430 656 600L586 622Q550 471 440.5 354.0Q331 237 183 174ZM142 508Q203 573 246.5 646.5Q290 720 329 815L257 835Q187 664 78 548ZM101 43V-35H899V43Z" transform="translate(0, 880) scale(1,-1)" /></svg>