<svg xmlns="http://www.w3.org/2000/svg" width="1000" height="1000"><path d="M94 90H176V745H94ZM283 186H364V745H283ZM598 104Q729 160 792.0 193.0Q855 226 883.5 258.0Q912 290 912 333Q912 390 838.5 432.5Q765 475 603 503Q722 554 806.5 611.0Q891 668 961 753L893 794L878 780H441V705H803Q729 640 647.0 593.5Q565 547 455 511L465 449Q660 421 743.0 390.5Q826 360 826 333Q826 304 763.5 266.5Q701 229 541 166ZM951 -29Q872 20 725.0 89.5Q578 159 449 208L422 142Q547 93 686.5 25.5Q826 -42 901 -91Z" transform="translate(0, 880) scale(1,-1)" /></svg>