<svg xmlns="http://www.w3.org/2000/svg" width="1000" height="1000"><path d="M900 522Q921 550 930.0 578.5Q939 607 939 641Q939 752 617 752Q477 752 353.0 722.5Q229 693 147 642V743H69V530H147V594Q222 637 352.0 658.5Q482 680 617 680Q745 680 801.0 666.5Q857 653 857 634Q857 609 850.5 589.0Q844 569 826 547ZM579 713Q553 781 501 850L423 831Q446 799 467.0 761.5Q488 724 498 695ZM194 496H416V570H194ZM84 351H371Q311 294 223.5 230.0Q136 166 49 115L98 50Q204 126 308.0 211.0Q412 296 486 371L436 428L412 418H84ZM260 -93 502 79 472 142 229 -23ZM336 -14V246H267V-14ZM516 -83Q685 -5 791.0 135.0Q897 275 908 474L849 496L830 484H592V417H829Q813 272 722.5 162.5Q632 53 466 -27ZM950 -26Q891 43 795.0 128.0Q699 213 599 287L546 246Q639 175 731.5 86.0Q824 -3 884 -76ZM556 308Q629 435 657 596L582 601Q568 515 545.0 449.0Q522 383 487 326Z" transform="translate(0, 880) scale(1,-1)" /></svg>