<svg xmlns="http://www.w3.org/2000/svg" width="1000" height="1000"><path d="M847 -82C919 -82 943 -31 957 144L890 156C886 22 873 -4 847 -4C740 -4 722 391 705 836H630C650 302 672 -82 847 -82ZM65 592H937V659H65ZM874 670 919 715C889 750 825 801 774 836L730 796C782 760 844 706 874 670ZM366 -62C469 -62 497 -8 497 58C497 115 476 167 443 229L387 209C422 144 437 97 437 63C437 27 422 7 366 7C315 7 292 25 292 94V548H227V87C227 -30 281 -62 366 -62ZM52 85 115 67C135 161 154 319 161 421L100 425C94 322 74 172 52 85ZM560 64 618 50C629 102 638 175 638 270C638 368 586 416 513 416C445 416 401 399 363 376L377 318C415 342 456 354 510 354C558 354 579 316 579 253C579 185 570 116 560 64Z" transform="translate(0, 880) scale(1,-1)" /></svg>