<svg xmlns="http://www.w3.org/2000/svg" width="1000" height="1000"><path d="M53 -15 110 -71C346 106 370 313 370 824H292C292 358 268 141 53 -15ZM359 -4H430V368H359ZM66 560 75 482C247 499 444 532 588 583L562 661C438 611 240 580 66 560ZM881 -79 938 -21C839 62 700 141 572 206L530 148C656 82 780 7 881 -79ZM617 157 676 105C856 206 913 255 913 342C913 416 832 466 659 504C745 567 819 646 900 764L817 798C741 672 683 600 550 512L561 450C765 409 829 371 829 342C829 303 785 248 617 157ZM321 9 341 -64 561 16 541 89Z" transform="translate(0, 880) scale(1,-1)" /></svg>