<svg xmlns="http://www.w3.org/2000/svg" width="1000" height="1000"><path d="M820 392C867 452 895 506 895 592C895 664 816 728 695 728C619 728 567 709 521 680V832H444V648L430 635L467 582C545 625 615 652 695 652C763 652 812 634 812 592C812 527 785 475 734 422ZM275 417C417 417 503 427 619 469L579 532C482 495 362 488 259 488C221 488 198 505 198 537C198 574 208 637 256 710L173 726C132 651 116 580 116 524C116 458 170 417 275 417ZM623 -85 682 -35C625 38 533 127 440 206L387 158C478 77 571 -16 623 -85ZM244 259H903V332H244ZM351 371 279 403C219 308 145 220 76 163L137 115C216 184 289 275 351 371Z" transform="translate(0, 880) scale(1,-1)" /></svg>