<svg xmlns="http://www.w3.org/2000/svg" width="1000" height="1000"><path d="M227 595Q383 501 541.5 374.5Q700 248 800 126L868 182Q762 309 596.0 438.0Q430 567 272 656ZM931 65Q788 35 608 35Q507 35 417.0 45.0Q327 55 267 73Q223 87 197.0 115.0Q171 143 158.5 192.0Q146 241 143 320L61 306Q63 177 105.5 101.5Q148 26 237 -2Q301 -22 400.0 -33.0Q499 -44 610 -44Q788 -44 931 -16ZM299 126Q420 193 517.5 277.5Q615 362 702.0 486.0Q789 610 862 783L782 805Q682 573 549.5 430.0Q417 287 249 205Z" transform="translate(0, 880) scale(1,-1)" /></svg>