<svg xmlns="http://www.w3.org/2000/svg" width="1000" height="1000"><path d="M592 566Q736 634 871 763L803 800L785 793H143V722H715Q678 690 638.5 664.5Q599 639 544 610ZM793 -76Q846 -13 875.5 41.0Q905 95 905 159Q905 196 879.0 226.5Q853 257 808.0 275.0Q763 293 709 293Q601 293 519 243V380H436V207L420 197L463 155Q529 190 587.5 210.0Q646 230 702 230Q754 230 787.0 210.0Q820 190 820 155Q820 104 789.0 47.0Q758 -10 709 -59ZM252 -53Q369 -53 453.5 -44.0Q538 -35 619 -9L579 55Q464 17 252 17Q223 17 207.0 28.0Q191 39 191 58Q191 167 246 267L165 282Q108 168 108 49Q108 2 142.5 -25.5Q177 -53 252 -53ZM280 405Q268 440 239.0 487.5Q210 535 178 577L106 548Q132 513 160.0 463.0Q188 413 206 372ZM554 425Q545 464 522.0 514.0Q499 564 470 612L395 590Q421 544 443.0 492.5Q465 441 475 401ZM772 377Q836 461 892 566L810 595Q792 549 762.0 493.5Q732 438 701 393Z" transform="translate(0, 880) scale(1,-1)" /></svg>