<svg xmlns="http://www.w3.org/2000/svg" width="1000" height="1000"><path d="M650 -68Q782 -46 844.5 18.0Q907 82 907 204Q907 321 822.5 382.5Q738 444 546 444Q325 444 205.0 376.5Q85 309 85 174Q85 98 119.5 44.5Q154 -9 208.5 -35.5Q263 -62 325 -62Q417 -62 477.0 -1.0Q537 60 537 201V829H458V212Q458 107 421.5 65.0Q385 23 325 23Q287 23 250.0 38.5Q213 54 188.0 89.0Q163 124 163 178Q163 233 208.5 275.5Q254 318 340.5 341.0Q427 364 546 364Q693 364 758.5 322.0Q824 280 824 203Q824 119 774.0 72.5Q724 26 622 13ZM82 586H919V664H82Z" transform="translate(0, 880) scale(1,-1)" /></svg>