<svg xmlns="http://www.w3.org/2000/svg" width="1000" height="1000"><path d="M351 473Q312 654 251 824L178 805Q239 642 279 454ZM51 592H951V663H51ZM460 503H535V822H460ZM620 364Q692 457 744.5 579.5Q797 702 815 826L733 836Q720 713 673.0 593.5Q626 474 558 388ZM95 -24Q253 66 426.5 180.0Q600 294 699 370L656 426L627 417H206V343H550Q449 275 316.5 196.0Q184 117 43 45ZM504 -65Q548 -65 587.5 -57.0Q627 -49 672 -29V55Q579 9 518 9Q499 9 490.5 16.0Q482 23 482 44V221H401V25Q401 -22 426.0 -43.5Q451 -65 504 -65ZM964 38Q778 159 623 233L574 176Q762 79 910 -27Z" transform="translate(0, 880) scale(1,-1)" /></svg>