<svg xmlns="http://www.w3.org/2000/svg" width="1000" height="1000"><path d="M413 561Q385 676 314 825L238 814Q310 663 332 550ZM67 659H933V728H67ZM641 518Q728 643 787 830L702 837Q655 661 571 532ZM877 316Q904 343 913.5 368.0Q923 393 923 426Q923 502 855.0 544.5Q787 587 618 587Q461 587 318.0 556.5Q175 526 70 474L108 403Q206 451 344.5 483.0Q483 515 618 515Q737 515 790.5 493.5Q844 472 844 426Q844 407 836.5 390.0Q829 373 812 356ZM937 -21Q869 -2 807.0 20.5Q745 43 655 78Q536 126 462.0 148.5Q388 171 319 171Q254 171 203.0 154.5Q152 138 124.0 109.5Q96 81 96 45Q96 13 116.5 -14.0Q137 -41 176.5 -57.5Q216 -74 270 -74Q357 -74 489.0 -30.5Q621 13 718.5 77.0Q816 141 816 199Q816 255 745.5 285.5Q675 316 556 316Q491 316 425 305Q520 335 591.0 360.0Q662 385 743 419L675 459L650 447H240V380H506Q382 327 217 281Q195 274 172.5 268.5Q150 263 126 259L155 192Q255 221 348.0 234.0Q441 247 556 247Q634 247 678.5 234.5Q723 222 723 199Q723 159 637.0 111.5Q551 64 439.5 30.0Q328 -4 270 -4Q226 -4 202.5 9.5Q179 23 179 45Q179 71 212.0 87.0Q245 103 319 103Q374 103 432.5 84.5Q491 66 600 22Q682 -12 749.5 -37.0Q817 -62 893 -83Z" transform="translate(0, 880) scale(1,-1)" /></svg>