<svg xmlns="http://www.w3.org/2000/svg" width="1000" height="1000"><path d="M117 720V-23H195V720ZM480 588Q464 629 432.5 684.5Q401 740 368 786L310 756Q342 710 372.5 653.5Q403 597 419 553ZM572 498H647V841H572ZM788 553Q817 593 851.5 651.0Q886 709 914 763L848 794Q827 745 794.0 686.0Q761 627 730 583ZM309 517V449H888V517ZM814 -46Q866 -46 892.0 -7.5Q918 31 932 121L854 135Q848 74 834.0 48.5Q820 23 794 23H469Q435 23 421.0 27.0Q407 31 407 40Q407 51 431.0 69.0Q455 87 550.0 139.5Q645 192 859 306L812 374L790 366H367V289L673 291Q514 210 435.5 163.5Q357 117 332.5 90.5Q308 64 308 39Q308 -2 337.5 -24.0Q367 -46 437 -46Z" transform="translate(0, 880) scale(1,-1)" /></svg>