<svg xmlns="http://www.w3.org/2000/svg" width="1000" height="1000"><path d="M584 -2Q672 -2 718.0 95.0Q764 192 764 428Q764 614 702.5 700.5Q641 787 510 787Q407 787 308.0 768.0Q209 749 123 717L136 643Q335 713 510 713Q606 713 644.5 640.5Q683 568 683 432Q683 258 657.5 166.0Q632 74 584 74Q506 74 428 100V19Q512 -2 584 -2ZM133 -23Q276 99 356.0 255.0Q436 411 441 598L366 604Q362 426 288.5 287.0Q215 148 71 32ZM364 351Q321 381 250.5 418.0Q180 455 108 486L77 420Q153 384 224.0 345.0Q295 306 334 276ZM953 244Q926 356 858 517L788 482Q842 372 878 216Z" transform="translate(0, 880) scale(1,-1)" /></svg>