<svg xmlns="http://www.w3.org/2000/svg" width="1000" height="1000"><path d="M84 -81C324 -28 387 41 402 250H578V39C578 -41 601 -64 694 -64H837C917 -64 938 -19 947 118L878 138C875 23 869 5 831 5H701C660 5 653 10 653 39V250H923V320H76V250H325C313 72 272 31 54 -13ZM227 437H771V506H227ZM890 487C919 528 929 569 929 617C929 701 815 739 617 739C426 739 264 691 157 618V729H79V495H157V566C264 633 453 660 617 660C794 660 847 633 847 610C847 577 842 548 816 514ZM501 677 576 697C559 746 529 802 498 847L426 826C454 783 487 723 501 677Z" transform="translate(0, 880) scale(1,-1)" /></svg>