<svg xmlns="http://www.w3.org/2000/svg" width="1000" height="1000"><path d="M124 476H203V628Q281 690 372.0 721.5Q463 753 586 753Q710 753 760.5 728.0Q811 703 811 651Q811 598 751.0 574.0Q691 550 578 550Q477 550 307 570V489Q437 478 538 478Q708 478 799.0 517.0Q890 556 890 651Q890 733 821.5 782.0Q753 831 586 831Q451 831 356.0 795.5Q261 760 203 697V798H124ZM108 -60H892V15H108ZM540 -5V662H460V-5ZM259 291H741V366H259ZM259 122H741V197H259ZM113 92Q141 152 166.0 235.5Q191 319 206 398L125 409Q113 335 91.0 255.5Q69 176 42 120ZM966 105Q955 177 933.5 262.5Q912 348 887 418L812 398Q836 326 856.0 238.5Q876 151 885 83Z" transform="translate(0, 880) scale(1,-1)" /></svg>