<svg xmlns="http://www.w3.org/2000/svg" width="1000" height="1000"><path d="M111 313Q260 371 349.5 423.0Q439 475 495 553Q529 600 551.0 674.5Q573 749 580 833L494 845Q493 688 418 580Q377 520 293.0 473.5Q209 427 78 380ZM279 170Q344 246 412 353L355 390Q286 283 205.0 202.5Q124 122 45 89L84 8Q117 27 183 76L202 91Q219 104 245 104Q260 104 269.0 98.0Q278 92 286.5 71.5Q295 51 306 8L463 114L436 154L336 108Q332 132 319.0 147.5Q306 163 279 170ZM433 223Q590 164 707.5 109.0Q825 54 911 -4L962 59Q790 162 454 289ZM581 248Q683 281 746.0 306.0Q809 331 875 369L827 431Q762 392 702.0 365.5Q642 339 556 311ZM644 481Q809 495 871.0 530.0Q933 565 933 614Q933 690 841.0 713.5Q749 737 613 737Q493 737 370.5 703.0Q248 669 160 611V724H82V500H160V563Q269 618 378.0 642.0Q487 666 612 666Q709 666 780.0 653.5Q851 641 851 614Q851 586 795.5 570.0Q740 554 613 549ZM402 499Q467 431 517.0 328.0Q567 225 567 145Q566 81 544.0 36.5Q522 -8 471 -8Q415 -8 355 14V-68Q402 -80 475 -80Q532 -80 571.0 -49.0Q610 -18 629.0 33.5Q648 85 646 146Q646 235 595.5 344.5Q545 454 461 549Z" transform="translate(0, 880) scale(1,-1)" /></svg>