<svg xmlns="http://www.w3.org/2000/svg" width="1000" height="1000"><path d="M0.0 0.0Q0 0 0.0 0.0Q0 0 0.0 0.0ZM62 435H145V690H62ZM186 -76H262C252 211 292 539 392 826L316 836C216 549 176 211 186 -76ZM829 507 897 458C925 498 939 542 939 600C939 717 848 745 634 745C427 745 261 705 79 610L109 545C281 633 455 665 634 665C822 665 857 640 857 595C857 562 844 523 829 507ZM657 -78C820 -78 861 24 861 232C861 413 809 508 677 508C584 508 519 469 466 418V488H397V-67H466V360C524 404 585 434 677 434C760 434 788 372 788 232C788 80 769 -6 657 -6C614 -6 571 1 522 20V-58C565 -70 610 -78 657 -78ZM438 194H729V265H438Z" transform="translate(0, 880) scale(1,-1)" /></svg>