<svg xmlns="http://www.w3.org/2000/svg" width="1000" height="1000"><path d="M454 43 492 -26C802 -34 912 36 912 163C912 257 840 333 596 333C376 333 234 292 83 205L139 145C257 218 401 256 596 256C764 256 828 212 828 163C828 87 740 29 454 43ZM471 -99 548 -66C520 0 469 72 424 126L353 93C399 45 446 -34 471 -99ZM58 500 129 455C214 570 267 689 316 834L237 852C189 707 126 588 58 500ZM211 642H887V714H211ZM613 382 670 346C722 400 775 465 830 554L755 591C714 513 665 442 613 382ZM342 348 411 381C381 439 331 518 282 582L218 549C267 485 313 408 342 348ZM473 298H552V670H473Z" transform="translate(0, 880) scale(1,-1)" /></svg>