<svg xmlns="http://www.w3.org/2000/svg" width="1000" height="1000"><path d="M279 -27H933V42H745C798 155 858 315 901 444L824 467C789 337 726 156 672 42H279ZM135 -36 209 -24C163 166 152 297 183 408C218 532 221 630 171 735L91 711C136 596 141 519 111 424C77 317 82 184 135 -36ZM427 133 494 155C483 237 452 360 420 455L356 435C386 340 418 213 427 133ZM606 183 675 198C668 276 648 392 627 485L561 473C580 380 601 261 606 183ZM309 455C384 570 427 689 476 834L402 852C354 707 301 588 243 500ZM371 614H917V687H371Z" transform="translate(0, 880) scale(1,-1)" /></svg>