<svg xmlns="http://www.w3.org/2000/svg" width="1000" height="1000"><path d="M964 -6Q870 22 797.0 59.5Q724 97 631 154Q560 198 513.0 223.0Q466 248 412.0 264.0Q358 280 297 280Q192 280 129.0 229.0Q66 178 66 89Q66 12 114.0 -35.0Q162 -82 254 -82Q387 -82 456.5 30.5Q526 143 549.5 338.5Q573 534 573 836H494Q494 559 472.5 374.0Q451 189 398.0 89.0Q345 -11 254 -11Q201 -11 173.5 16.5Q146 44 146 89Q146 207 297 207Q361 207 423.5 178.0Q486 149 587 86Q684 25 759.0 -14.5Q834 -54 925 -83ZM143 360H219V683H143ZM320 383Q485 350 606 350Q748 350 822.0 394.0Q896 438 896 522Q896 609 811.0 649.5Q726 690 582 690Q353 690 219 615L218 545Q339 612 576 612Q686 612 751.0 589.5Q816 567 816 520Q816 474 761.5 448.5Q707 423 598 423Q484 423 320 452Z" transform="translate(0, 880) scale(1,-1)" /></svg>