<svg xmlns="http://www.w3.org/2000/svg" width="1000" height="1000"><path d="M82 521H165V567Q241 620 364.0 646.5Q487 673 615 673Q729 673 780.5 660.5Q832 648 832 628Q832 584 801 545L883 515Q900 542 909.0 568.0Q918 594 918 629Q918 696 843.0 721.0Q768 746 615 746Q476 746 362.0 712.5Q248 679 165 618V731H82ZM156 337Q290 417 366.0 487.5Q442 558 484.5 635.0Q527 712 567 832L482 844Q456 743 418.0 672.5Q380 602 307.0 536.0Q234 470 106 396ZM219 -65Q294 -65 350.0 -32.5Q406 0 435.5 58.5Q465 117 465 193Q465 293 428.5 363.5Q392 434 292 486L238 440Q324 387 356.5 327.5Q389 268 389 196Q389 142 368.0 98.5Q347 55 308.5 30.0Q270 5 219 5Q181 5 160.5 22.0Q140 39 140 78Q140 153 248.0 228.5Q356 304 514.5 353.5Q673 403 808 407Q808 273 768 273Q722 273 669 291V220Q732 208 795 208Q827 208 845.5 229.5Q864 251 874.5 311.0Q885 371 889 489Q720 486 523.0 425.0Q326 364 191.0 268.5Q56 173 56 72Q56 4 101.0 -30.5Q146 -65 219 -65ZM833 -55Q885 -55 909.5 -18.5Q934 18 937 105L862 120Q862 59 855.0 37.0Q848 15 829 15H678Q645 15 631.5 27.0Q618 39 618 73V312H543V81Q543 5 577.0 -25.0Q611 -55 681 -55Z" transform="translate(0, 880) scale(1,-1)" /></svg>