<svg xmlns="http://www.w3.org/2000/svg" width="1000" height="1000"><path d="M629 -74C832 -74 896 113 896 358C896 602 776 696 601 696C449 696 307 665 218 621L236 552C329 596 470 622 601 622C742 622 818 516 818 358C818 155 760 0 622 0C525 0 451 13 389 37L359 -36C421 -56 498 -74 629 -74ZM44 408 107 356C231 486 312 651 366 815L290 837C238 669 153 512 44 408ZM468 513 387 536C346 446 283 336 228 258C216 240 193 228 174 222L197 155L217 166L639 209L624 274L298 245C348 310 418 422 468 513ZM659 133 723 174C691 242 622 347 557 424L497 388C557 314 624 207 659 133Z" transform="translate(0, 880) scale(1,-1)" /></svg>