<svg xmlns="http://www.w3.org/2000/svg" width="1000" height="1000"><path d="M122 483Q220 540 327.0 568.5Q434 597 567 597Q715 597 773.0 540.5Q831 484 831 393Q831 289 770.5 234.5Q710 180 606 180Q518 180 445.0 184.5Q372 189 298 202V122Q370 112 442.0 109.0Q514 106 606 106Q707 106 775.5 143.5Q844 181 877.5 246.0Q911 311 911 393Q911 518 837.0 597.0Q763 676 567 676Q423 676 301.5 643.5Q180 611 84 553ZM376 683Q361 719 338.5 763.0Q316 807 293 840L220 813Q243 776 266.0 730.0Q289 684 299 652ZM704 647Q726 683 752.0 732.5Q778 782 795 821L709 844Q698 806 677.0 756.5Q656 707 634 668ZM408 235Q392 380 344 529L272 510Q319 368 331 217ZM164 331H825V412H164ZM542 -12Q622 209 677 529L597 539Q557 253 473 5ZM134 -57H862V22H134Z" transform="translate(0, 880) scale(1,-1)" /></svg>