<svg xmlns="http://www.w3.org/2000/svg" width="1000" height="1000"><path d="M83 72Q296 204 517.0 392.5Q738 581 865 736L792 782Q666 622 465.0 454.0Q264 286 42 151ZM339 -53H414V124Q488 196 552.5 228.0Q617 260 684 260Q755 260 790.5 228.0Q826 196 826 145Q826 80 797.5 46.5Q769 13 699 13Q650 13 575 31V-49Q647 -63 696 -63Q810 -63 858.5 -6.0Q907 51 907 145Q907 234 849.0 286.0Q791 338 684 338Q612 338 542.5 303.0Q473 268 414 209V319H339ZM420 501Q347 615 208 775L139 725Q266 592 346 460Z" transform="translate(0, 880) scale(1,-1)" /></svg>