<svg xmlns="http://www.w3.org/2000/svg" width="1000" height="1000"><path d="M793 -76Q846 23 875.5 112.0Q905 201 905 303Q905 362 879.5 410.0Q854 458 809.0 485.0Q764 512 709 512Q646 512 599.0 496.5Q552 481 513 454V829H430V410L414 391L457 329Q518 380 576.5 403.0Q635 426 702 426Q754 426 787.0 390.5Q820 355 820 297Q820 214 789.0 123.0Q758 32 709 -49ZM255 -2Q368 -2 447.0 14.0Q526 30 609 75L569 146Q452 81 242 81Q213 81 197.0 100.0Q181 119 181 153Q181 308 246 506L165 526Q132 414 115.0 319.0Q98 224 98 136Q98 69 137.5 33.5Q177 -2 255 -2Z" transform="translate(0, 880) scale(1,-1)" /></svg>