<svg xmlns="http://www.w3.org/2000/svg" width="1000" height="1000"><path d="M436 -75Q477 -75 501.0 -68.5Q525 -62 537.0 -42.0Q549 -22 549 17V315Q611 343 672.5 384.0Q734 425 785 469L736 512L720 505H236V436H626Q581 404 545.5 383.0Q510 362 473 347V29Q473 15 464.5 6.0Q456 -3 441 -4Q367 -8 290 21V-58Q372 -75 436 -75ZM959 265Q794 289 570 289Q342 289 55 264V197Q301 217 517 217Q766 217 939 191ZM321 693Q309 721 282.5 758.5Q256 796 226 830L165 802Q190 773 216.5 733.0Q243 693 258 662ZM900 462Q939 502 939 568Q939 643 851.0 672.0Q763 701 614 701Q475 701 365.5 676.0Q256 651 149 595V673H77V476H149V557Q270 599 374.0 612.5Q478 626 613 626Q719 626 787.5 608.0Q856 590 856 560Q856 531 832 509ZM570 694Q560 726 537.5 769.0Q515 812 489 849L425 824Q448 789 469.5 744.5Q491 700 502 667ZM741 649Q802 721 853 808L779 834Q762 798 734.0 754.0Q706 710 678 674Z" transform="translate(0, 880) scale(1,-1)" /></svg>