<svg xmlns="http://www.w3.org/2000/svg" width="1000" height="1000"><path d="M299 676 376 704C358 745 325 806 293 848L220 824C248 783 285 717 299 676ZM634 691 704 672C734 716 772 784 795 831L709 852C694 806 663 738 634 691ZM622 445 660 499C546 541 456 569 321 586L296 530C431 509 520 484 622 445ZM509 523 592 498C681 538 816 602 881 646L825 699L805 690H133V621H702C647 589 582 555 509 523ZM231 251H769V314H231ZM93 124H907V190H93ZM896 -91 954 -40C872 7 728 68 598 111L543 66C671 20 818 -46 896 -91ZM93 294H165V351C278 391 452 415 619 415C790 415 826 392 826 378C826 355 818 341 800 322L875 297C898 324 907 344 907 382C907 447 816 480 619 480C418 480 278 448 165 402V465H93ZM538 263V378H462V265C462 87 306 4 46 -29L94 -88C370 -48 538 59 538 263Z" transform="translate(0, 880) scale(1,-1)" /></svg>