<svg xmlns="http://www.w3.org/2000/svg" width="1000" height="1000"><path d="M755 228H829C859 292 878 428 878 497C878 652 835 720 710 720C579 720 420 686 346 643L376 583C455 628 594 648 709 648C795 648 801 604 801 498C801 431 782 289 755 228ZM55 -22 99 -78C197 -35 318 32 400 94L335 140C272 85 150 18 55 -22ZM47 159H951V228H47ZM154 228H229V836H154ZM881 -72 930 -15C860 33 744 97 638 147L597 95C701 44 813 -23 881 -72ZM560 212 608 201C661 229 729 287 729 337C729 412 648 440 513 440C358 440 293 394 293 339C293 291 363 250 441 250C494 250 558 277 558 350C558 397 547 439 528 469L661 545L633 592L607 582H320V525L550 526L461 473C486 431 498 394 498 350C498 318 467 303 441 303C400 303 356 316 356 339C356 366 406 388 513 388C622 388 663 369 663 337C663 294 615 243 560 212ZM229 732H516V800H229Z" transform="translate(0, 880) scale(1,-1)" /></svg>