<svg xmlns="http://www.w3.org/2000/svg" width="1000" height="1000"><path d="M32 325 84 280C177 382 263 510 333 640L281 670C211 539 126 420 32 325ZM60 574 113 527C193 606 268 704 329 804L275 839C216 739 141 648 60 574ZM177 488V-67H241V488ZM783 481 837 452C873 497 917 559 917 623C917 691 860 738 784 738C724 738 686 735 656 729V839H587V695L572 687L613 642C666 665 713 673 770 673C813 673 845 657 845 622C845 573 822 523 783 481ZM463 478C554 478 624 490 695 496L678 563C611 552 544 543 465 543C439 543 428 550 428 570C428 614 441 648 477 705L411 723C369 664 350 606 350 550C350 504 395 478 463 478ZM338 9 387 -28C485 37 569 109 569 189C569 261 526 304 473 304C404 304 349 269 349 204C349 136 407 96 477 109C446 76 403 40 338 9ZM462 159C434 159 409 174 409 204C409 232 435 249 463 249C488 249 510 230 510 208C510 174 488 159 462 159ZM543 225V402H474V279ZM307 422V357H614V422ZM284 -2 308 -61 623 42 598 101ZM819 415C753 415 693 394 646 363L656 294C704 330 760 343 819 343C867 343 881 319 881 280C881 177 756 33 714 33C703 33 693 66 693 103C693 138 706 174 729 174C783 174 831 40 928 -60L974 5C871 88 805 248 729 248C671 248 625 189 625 103C625 30 660 -36 714 -36C779 -36 948 130 948 280C948 363 888 415 819 415Z" transform="translate(0, 880) scale(1,-1)" /></svg>