<svg xmlns="http://www.w3.org/2000/svg" width="1000" height="1000"><path d="M787 7 767 88C634 42 506 23 357 23C181 23 148 83 143 270L61 256C64 55 108 -52 357 -52C511 -52 649 -38 787 7ZM472 103C524 103 556 131 556 198V760H479V213C479 189 467 174 445 173C397 171 345 181 286 205V125C345 108 397 102 472 103ZM103 335H887V411H103ZM136 519H864V593H136ZM117 761 135 691C344 697 654 716 854 765L806 832C641 789 337 769 117 761ZM856 -52 937 -36C925 68 899 173 874 265L797 240C826 155 845 48 856 -52Z" transform="translate(0, 880) scale(1,-1)" /></svg>