<svg xmlns="http://www.w3.org/2000/svg" width="1000" height="1000"><path d="M726 302 759 241C867 274 916 337 916 433C916 574 813 664 562 664C374 664 249 617 188 579V511C270 565 394 603 562 603C758 603 835 523 835 433C835 366 799 324 726 302ZM112 251H188V624H112ZM343 257H420L419 835H343ZM226 333H780V394H226ZM235 456H771V517H235ZM581 257H657L656 835H581ZM114 693C363 696 688 710 909 740L865 803C679 775 353 759 94 756ZM101 -83C500 -19 544 69 544 243H456C456 90 435 33 61 -21ZM73 114H922V178H73ZM880 -83 933 -28C853 7 716 50 600 77L550 26C669 -4 801 -50 880 -83Z" transform="translate(0, 880) scale(1,-1)" /></svg>