<svg xmlns="http://www.w3.org/2000/svg" width="1000" height="1000"><path d="M110 738 156 675C277 717 402 755 563 755C694 755 769 724 769 654C769 554 620 528 468 528C384 528 345 546 345 569C345 595 381 612 425 612C473 612 507 593 507 561C507 524 427 441 287 391H76V326H438V391H398C528 445 587 509 587 561C587 626 524 668 425 668C340 668 266 632 266 569C266 508 332 470 468 470C685 470 856 512 856 654C856 766 753 824 563 824C386 824 254 787 110 738ZM73 -30 465 70 442 136 49 42ZM313 73V348H240V74ZM676 -80C856 -80 955 -6 955 116C955 221 873 283 734 283C712 283 695 281 678 277C735 305 798 339 885 387L821 433L801 424H496V357H728C672 320 623 295 560 266C544 259 511 246 486 238L521 185C572 205 650 219 734 219C830 219 876 179 876 116C876 28 795 -18 672 -18C604 -18 556 2 556 37C556 64 582 78 621 78C683 78 725 58 733 -33L794 -18C780 85 724 133 622 133C542 133 487 88 487 37C487 -26 550 -80 676 -80Z" transform="translate(0, 880) scale(1,-1)" /></svg>