<svg xmlns="http://www.w3.org/2000/svg" width="1000" height="1000"><path d="M256 -82C534 -82 560 242 560 836H481C481 254 444 -12 256 -12C183 -12 146 18 146 65C146 119 176 149 285 149C464 149 635 -1 925 -78L964 -9C653 70 521 221 285 221C147 221 66 163 66 65C66 -22 129 -82 256 -82ZM143 293H216V567H143ZM320 378V312C690 250 896 295 896 431C896 535 761 573 582 573C411 573 293 546 216 509L215 444C291 479 414 500 576 500C714 500 816 484 816 429C816 355 666 326 320 378ZM94 655H906V727H94Z" transform="translate(0, 880) scale(1,-1)" /></svg>