<svg xmlns="http://www.w3.org/2000/svg" width="1000" height="1000"><path d="M112 315H185V374C292 418 458 443 617 443C779 443 814 419 814 403C814 379 807 365 789 343L861 318C882 347 891 369 891 408C891 476 805 511 617 511C426 511 292 477 185 429V496H112ZM145 552H855V616H538V686H916V753H538V843H462V753H84V686H462V616H145ZM106 19V-52H894V19ZM622 -19C812 26 930 81 930 178C930 279 786 325 500 325C228 325 74 272 74 182C74 104 158 56 291 56C519 56 677 224 702 405L624 409C608 247 476 124 291 124C199 124 155 143 155 182C155 217 235 261 500 261C758 261 849 223 849 178C849 116 758 77 588 37ZM471 121 525 164C441 217 399 297 392 397L318 401C324 276 370 173 471 121Z" transform="translate(0, 880) scale(1,-1)" /></svg>