<svg xmlns="http://www.w3.org/2000/svg" width="1000" height="1000"><path d="M329 432Q317 475 289.5 535.5Q262 596 231 647L158 625Q193 565 221.0 505.0Q249 445 259 405ZM136 682Q313 686 512.5 707.5Q712 729 858 758L819 826Q701 802 505.5 784.0Q310 766 119 759ZM697 423Q756 493 847 642L760 667Q737 614 702.0 551.0Q667 488 635 446ZM642 -69Q791 -53 870.5 2.0Q950 57 950 159Q950 265 835.5 314.0Q721 363 500 363Q364 363 263.5 336.0Q163 309 108.5 258.0Q54 207 54 135Q54 42 115.5 -6.5Q177 -55 281 -55Q384 -55 474.0 1.5Q564 58 624.5 159.5Q685 261 702 390L624 397Q611 283 561.5 198.5Q512 114 438.0 69.5Q364 25 281 25Q211 25 170.5 54.0Q130 83 130 135Q130 171 169.5 206.0Q209 241 292.5 264.0Q376 287 500 287Q622 287 705.5 268.0Q789 249 829.0 219.0Q869 189 869 155Q869 89 805.0 56.0Q741 23 608 11ZM0.0 0.0Q0 0 0.0 0.0Q0 0 0.0 0.0ZM531 761Q432 603 383.0 479.5Q334 356 334 257Q334 123 424 26L493 67Q416 155 416 268Q416 361 463.0 470.0Q510 579 602 733Z" transform="translate(0, 880) scale(1,-1)" /></svg>