<svg xmlns="http://www.w3.org/2000/svg" width="1000" height="1000"><path d="M627 -75Q754 -75 812.0 13.0Q870 101 870 273Q870 356 834.5 420.0Q799 484 733.0 519.0Q667 554 578 554Q464 554 378.5 524.5Q293 495 225 449V368Q296 426 378.5 450.0Q461 474 578 474Q648 474 696.5 447.0Q745 420 768.5 374.0Q792 328 792 273Q792 141 751.0 69.0Q710 -3 627 -3Q580 -3 526.5 21.0Q473 45 436.0 90.0Q399 135 399 195Q399 240 424.5 262.5Q450 285 512 285Q555 285 575.0 269.5Q595 254 595 228Q595 194 546.0 143.5Q497 93 411 49L455 16Q553 64 611.5 119.5Q670 175 670 228Q670 295 627.0 326.0Q584 357 512 357Q428 357 377.5 314.5Q327 272 327 195Q327 115 374.5 53.5Q422 -8 492.0 -41.5Q562 -75 627 -75ZM148 -79H225V817H148ZM182 653H804V730H182Z" transform="translate(0, 880) scale(1,-1)" /></svg>