<svg xmlns="http://www.w3.org/2000/svg" width="1000" height="1000"><path d="M195 102H264V639H395V711H71V639H195ZM380 232 63 72 88 -1 407 162ZM423 -77Q501 55 526.5 195.5Q552 336 550 501L548 719H775Q775 387 781.0 236.5Q787 86 812.0 8.0Q837 -70 895 -70Q922 -70 937.5 -53.0Q953 -36 961.0 2.0Q969 40 973 110L919 121Q917 62 912.0 36.0Q907 10 895 10Q845 10 845 470Q845 587 850 792H475V501Q475 388 468.5 303.5Q462 219 435.5 130.0Q409 41 355 -35ZM768 378Q725 407 657.0 442.0Q589 477 523 504L491 443Q665 362 736 308Z" transform="translate(0, 880) scale(1,-1)" /></svg>