<svg xmlns="http://www.w3.org/2000/svg" width="1000" height="1000"><path d="M820 392Q858 441 876.5 486.0Q895 531 895 592Q895 628 870.0 659.5Q845 691 799.5 709.5Q754 728 695 728Q641 728 599.5 715.5Q558 703 521 680V832H444V648L430 635L467 582Q530 617 584.0 634.5Q638 652 695 652Q749 652 780.5 637.0Q812 622 812 592Q812 545 792.5 504.0Q773 463 734 422ZM275 407Q386 407 460.5 417.5Q535 428 619 459L579 522Q464 478 259 478Q230 478 214.0 490.5Q198 503 198 527Q198 562 211.0 606.5Q224 651 256 700L173 716Q144 662 130.0 610.5Q116 559 116 514Q116 464 157.0 435.5Q198 407 275 407ZM909 -68V9H300Q259 9 239.0 14.5Q219 20 211.5 34.5Q204 49 204 78V200H119V83Q119 19 137.0 -12.5Q155 -44 196.5 -56.0Q238 -68 318 -68ZM706 100Q800 100 840.5 162.5Q881 225 881 351H121V278H788Q791 232 766.5 201.0Q742 170 686 170Q567 170 482 193V113Q578 100 706 100Z" transform="translate(0, 880) scale(1,-1)" /></svg>