<svg xmlns="http://www.w3.org/2000/svg" width="1000" height="1000"><path d="M219 -65Q294 -65 350.0 -20.5Q406 24 435.5 103.5Q465 183 465 286Q465 422 422.0 526.0Q379 630 272 701L218 638Q389 508 389 292Q389 218 368.0 157.0Q347 96 308.5 60.5Q270 25 219 25Q181 25 160.5 48.5Q140 72 140 130Q140 233 253.0 339.5Q366 446 529.5 517.5Q693 589 828 595Q828 391 778 391Q728 391 679 416V329Q754 313 805 313Q842 313 862.5 341.0Q883 369 894.0 449.5Q905 530 909 692Q739 687 537.0 604.0Q335 521 195.5 390.5Q56 260 56 123Q56 30 101.0 -17.5Q146 -65 219 -65ZM843 -40Q878 -40 900.0 -21.5Q922 -3 933.5 42.0Q945 87 947 167L872 187Q872 104 865.0 74.5Q858 45 839 45H688Q655 45 641.5 61.5Q628 78 628 125V450H553V135Q553 65 568.5 26.5Q584 -12 613.5 -26.0Q643 -40 691 -40ZM435 838Q358 785 257.5 734.0Q157 683 56 648L106 579Q205 617 307.0 668.0Q409 719 491 769Z" transform="translate(0, 880) scale(1,-1)" /></svg>