<svg xmlns="http://www.w3.org/2000/svg" width="1000" height="1000"><path d="M412 533 468 506C568 531 663 579 663 628C663 660 616 701 503 701C385 701 348 662 348 633C348 604 408 563 546 563C758 563 877 618 877 696C877 760 781 801 555 801C352 801 193 765 100 729L138 678C232 713 399 744 555 744C712 744 791 717 791 696C791 642 712 611 546 611C462 611 426 618 426 633C426 647 449 658 503 658C553 658 584 648 584 628C584 583 518 561 412 533ZM55 258 518 322 504 370 42 313ZM256 195C304 195 332 211 332 254V590H263V269C263 255 254 246 242 246C221 246 198 249 167 257V203C199 197 227 195 256 195ZM66 398H508V447H66ZM90 490H484V539H90ZM758 292V409C816 439 863 468 905 508L867 547L854 542H541V487H795C766 462 735 445 694 426V296C694 249 673 233 639 233C605 233 574 248 574 278C574 317 628 344 748 344C835 344 868 325 868 292C868 252 835 228 786 215L823 171C902 194 935 229 935 292C935 357 884 399 748 399C605 399 511 356 511 276C511 206 579 182 639 182C691 182 757 203 758 292ZM58 -19 99 -69C494 -14 544 72 544 214H463C463 73 437 32 58 -19ZM883 -80 936 -35C825 6 701 44 596 68L554 25C664 -4 785 -42 883 -80ZM75 103H925V161H75Z" transform="translate(0, 880) scale(1,-1)" /></svg>