<svg xmlns="http://www.w3.org/2000/svg" width="1000" height="1000"><path d="M397 708Q384 737 358.5 777.5Q333 818 308 850L240 826Q266 792 290.0 751.0Q314 710 326 680ZM661 685Q725 752 770 833L691 854Q661 789 599 717ZM925 313V382H75V313ZM619 382Q680 397 714.0 429.0Q748 461 748 493Q748 534 683.0 561.5Q618 589 487 589Q356 589 283.5 565.0Q211 541 211 500Q211 461 263.0 437.5Q315 414 418 414Q480 414 512.5 432.5Q545 451 545 476V671H460V505Q460 464 391 464Q364 464 330.5 474.5Q297 485 297 498Q297 513 343.0 522.0Q389 531 487 531Q562 531 613.0 519.0Q664 507 664 491Q664 464 633.0 439.0Q602 414 504 382ZM97 633H903V698H97ZM642 -100Q791 -87 870.5 -41.0Q950 5 950 92Q950 181 835.5 223.0Q721 265 500 265Q364 265 263.5 242.0Q163 219 108.5 175.0Q54 131 54 71Q54 -7 116.0 -48.0Q178 -89 281 -89Q384 -89 474.0 -40.5Q564 8 624.5 94.5Q685 181 702 290L624 295Q611 199 561.5 128.5Q512 58 438.5 21.0Q365 -16 281 -16Q211 -16 173.0 6.0Q135 28 135 71Q135 101 173.0 130.0Q211 159 293.0 178.0Q375 197 500 197Q623 197 706.0 182.5Q789 168 829.0 144.0Q869 120 869 92Q869 36 804.5 6.5Q740 -23 608 -32ZM535 50Q464 86 427.0 149.5Q390 213 390 304Q390 317 392 347L318 351Q316 315 316 300Q316 187 358.0 109.5Q400 32 481 -2Z" transform="translate(0, 880) scale(1,-1)" /></svg>