<svg xmlns="http://www.w3.org/2000/svg" width="1000" height="1000"><path d="M74 499H153V548Q229 604 358.5 634.0Q488 664 617 664Q697 664 748.0 654.5Q799 645 821.5 632.0Q844 619 844 607Q844 586 838.5 569.5Q833 553 819 534L897 502Q914 530 920.5 551.5Q927 573 927 608Q927 676 849.0 706.5Q771 737 617 737Q474 737 354.0 702.0Q234 667 153 602V723H74ZM566 718Q541 795 508 852L430 832Q468 769 485 696ZM435 349Q418 483 383 604L310 589Q343 474 361 334ZM165 418H836V488H165ZM637 327Q669 431 700 600L623 609Q599 452 566 339ZM143 160H857V234H143ZM77 33V-43H923V33ZM462 316V16H538V316Z" transform="translate(0, 880) scale(1,-1)" /></svg>