<svg xmlns="http://www.w3.org/2000/svg" width="1000" height="1000"><path d="M777 86Q814 86 847.0 108.5Q880 131 900.0 172.0Q920 213 920 266Q920 350 851.0 395.5Q782 441 621 441Q367 441 101 373L115 298Q363 367 621 367Q714 367 760.5 353.5Q807 340 821.0 318.5Q835 297 835 266Q835 216 816.5 186.5Q798 157 764 157Q715 157 657 174V97Q711 86 777 86ZM151 508H821V578H151ZM111 668H861V738H111ZM492 293Q402 218 290.5 149.5Q179 81 70 30L119 -35Q221 15 330.0 84.0Q439 153 529 227ZM674 -51Q627 34 583.0 175.0Q539 316 508.5 489.5Q478 663 471 837H392Q401 661 432.5 479.0Q464 297 508.5 146.5Q553 -4 599 -93ZM0.0 0.0Q0 0 0.0 0.0Q0 0 0.0 0.0Z" transform="translate(0, 880) scale(1,-1)" /></svg>