<svg xmlns="http://www.w3.org/2000/svg" width="1000" height="1000"><path d="M931 70Q788 37 613 37Q514 37 427.0 48.0Q340 59 280 79Q236 94 210.0 125.5Q184 157 171.5 212.0Q159 267 156 356L74 340Q76 195 119.0 110.0Q162 25 250 -5Q313 -27 409.5 -39.5Q506 -52 614 -52Q786 -52 931 -21ZM891 240V319H719Q696 319 686.0 334.5Q676 350 676 387V709H597V374Q597 323 606.0 294.5Q615 266 639.0 253.0Q663 240 707 240ZM239 208Q337 252 382.5 322.5Q428 393 428 503V708H350V504Q350 416 313.0 360.0Q276 304 190 269ZM71 666H929V745H71Z" transform="translate(0, 880) scale(1,-1)" /></svg>