<svg xmlns="http://www.w3.org/2000/svg" width="1000" height="1000"><path d="M122 -77Q286 -44 375.5 9.5Q465 63 506.5 152.0Q548 241 565 392L493 399Q475 263 434.5 184.5Q394 106 312.0 60.5Q230 15 81 -11ZM118 315 440 356 431 413 100 370ZM71 172H935V235H71ZM911 -26Q849 13 770.5 51.0Q692 89 606 116L558 65Q723 10 855 -80ZM312 356Q355 406 375.5 443.5Q396 481 409 542H346Q333 485 311.0 446.0Q289 407 250 370ZM201 507H506V573H201ZM886 538Q921 595 921 661Q921 718 844.0 741.5Q767 765 617 765Q476 765 358.5 735.5Q241 706 160 652V752H82V555H160V606Q236 653 360.5 677.0Q485 701 617 701Q731 701 785.0 688.5Q839 676 839 660Q839 605 812 564ZM606 339H864V405H722V612H650V405H606ZM566 726Q540 800 508 852L436 832Q474 774 491 707Z" transform="translate(0, 880) scale(1,-1)" /></svg>