<svg xmlns="http://www.w3.org/2000/svg" width="1000" height="1000"><path d="M826 547 900 522C929 560 939 597 939 641C939 717 825 752 617 752C426 752 254 708 147 642V743H69V530H147V594C254 655 453 680 617 680C804 680 857 655 857 634C857 604 852 578 826 547ZM498 695 579 713C562 758 532 809 501 850L423 831C451 792 484 737 498 695ZM194 491H806V564H194ZM56 -56H946V19H489C545 60 583 108 583 155C583 213 539 258 451 258C389 258 331 216 331 164C331 113 381 72 463 72C599 72 753 143 753 249C753 321 685 392 518 392C467 392 443 385 404 373C471 411 561 464 633 508L537 528C450 465 364 408 230 335C202 320 170 309 142 296L197 232C321 302 420 322 515 322C638 322 678 282 678 243C678 164 529 134 463 134C416 134 402 148 402 167C402 186 419 200 451 200C489 200 504 181 504 155C503 92 460 51 387 19H56ZM870 226 950 242C936 309 909 375 867 439L798 416C838 358 858 296 870 226Z" transform="translate(0, 880) scale(1,-1)" /></svg>