<svg xmlns="http://www.w3.org/2000/svg" width="1000" height="1000"><path d="M781 414 693 443 345 320Q239 299 89 249L128 191Q249 237 354.0 255.5Q459 274 567 274Q628 274 686.5 259.0Q745 244 782.5 213.0Q820 182 820 138Q820 89 787.5 55.0Q755 21 702.5 4.0Q650 -13 589 -13Q468 -13 382.0 11.5Q296 36 296 89Q296 112 335.0 128.0Q374 144 434 144Q490 144 519.0 132.0Q548 120 548 103Q548 84 503.5 55.0Q459 26 375 0L412 -24Q624 33 624 103Q624 149 571.5 175.0Q519 201 434 201Q381 201 330.5 187.5Q280 174 248.0 148.5Q216 123 216 89Q216 44 266.5 6.5Q317 -31 404.0 -53.0Q491 -75 596 -75Q684 -75 753.0 -49.0Q822 -23 860.5 25.5Q899 74 899 138Q899 337 547 335ZM76 391H924V458H76ZM634 458Q675 466 705.0 485.0Q735 504 750.5 526.5Q766 549 766 567Q766 591 735.5 611.5Q705 632 644.0 644.5Q583 657 495 657Q408 657 344.5 646.0Q281 635 247.0 615.5Q213 596 213 572Q213 536 266.5 514.0Q320 492 426 492Q486 492 513.5 510.5Q541 529 541 554V841H459V583Q459 564 444.0 555.5Q429 547 400 547Q369 547 337.0 554.0Q305 561 305 572Q305 584 351.0 592.5Q397 601 495 601Q573 601 625.5 590.5Q678 580 678 565Q678 541 637.5 510.5Q597 480 501 458ZM87 691H914V756H86Z" transform="translate(0, 880) scale(1,-1)" /></svg>