<svg xmlns="http://www.w3.org/2000/svg" width="1000" height="1000"><path d="M836 511Q887 551 908.0 583.0Q929 615 929 659Q929 705 884.5 731.5Q840 758 749 758Q689 758 631.5 749.0Q574 740 538 725V840H461V705L444 693L483 643Q544 666 615.0 679.0Q686 692 749 692Q799 692 823.5 683.0Q848 674 848 659Q848 626 829.5 600.0Q811 574 770 548ZM256 535Q377 535 461.5 542.0Q546 549 632 570L600 633Q530 616 438.5 608.0Q347 600 256 600Q226 600 207.0 610.0Q188 620 188 636Q188 687 234 750L166 775Q138 739 122.0 698.0Q106 657 106 628Q106 585 142.0 560.0Q178 535 256 535ZM568 222Q668 222 735.5 241.0Q803 260 835.0 291.0Q867 322 867 361Q867 429 795.0 465.0Q723 501 578 501Q488 501 421.5 486.5Q355 472 283 442Q302 458 318.5 476.5Q335 495 355 519L269 535Q217 445 107 356L175 322Q207 351 224.5 365.0Q242 379 259 385Q325 409 407.5 424.0Q490 439 571 439Q673 439 730.0 418.0Q787 397 787 361Q787 324 737.5 305.0Q688 286 568 286Q441 286 306 301V233Q438 222 568 222ZM87 -80Q276 -29 371.0 32.0Q466 93 499.5 169.5Q533 246 544 372L465 375Q453 261 425.0 197.0Q397 133 310.5 80.5Q224 28 43 -19ZM803 -73Q845 -73 868.0 -60.0Q891 -47 900.5 -21.0Q910 5 914 50L837 58Q835 28 831.5 14.0Q828 0 819.0 -6.0Q810 -12 791 -12H637Q613 -12 606.0 -6.0Q599 0 599 21V180H520V7Q520 -26 529.0 -42.5Q538 -59 560.5 -66.0Q583 -73 625 -73ZM966 140Q912 160 844.5 178.0Q777 196 723 206L694 156Q800 136 925 87Z" transform="translate(0, 880) scale(1,-1)" /></svg>