<svg xmlns="http://www.w3.org/2000/svg" width="1000" height="1000"><path d="M468 -80C516 -80 545 -62 545 5V622C545 757 498 800 403 800H377C300 800 256 789 217 770V704C261 724 303 734 372 734H397C453 734 473 701 473 618V9C473 -8 466 -15 452 -15C418 -15 387 -8 351 7V-69C388 -77 419 -80 468 -80ZM66 -40 132 -76C233 88 235 289 235 468V802H166V468C166 300 161 115 66 -40ZM396 433 441 478C388 525 328 570 259 614L219 572C286 528 345 481 396 433ZM60 363V292H625V363ZM676 251 713 205C877 305 924 353 924 430C924 520 830 560 611 576L604 507C796 492 847 452 847 426C847 390 825 340 676 251ZM624 -34 679 -83C793 -6 893 91 939 157L898 228L876 221C802 245 716 264 604 273L597 201C705 193 783 177 841 160C806 107 730 31 624 -34ZM632 554 679 524C757 596 826 689 886 794L815 828C763 723 701 627 632 554Z" transform="translate(0, 880) scale(1,-1)" /></svg>