<svg xmlns="http://www.w3.org/2000/svg" width="1000" height="1000"><path d="M67 506 135 469C197 569 252 709 278 820L205 834C177 720 125 591 67 506ZM179 631H926L925 703H179ZM585 340 644 395C574 459 495 522 403 584L351 532C441 469 519 404 585 340ZM330 130 396 172C365 231 302 315 243 378L182 340C239 277 301 189 330 130ZM616 158 680 120C732 174 800 263 849 337L775 376C736 305 669 215 616 158ZM888 -91 924 -18C697 26 434 72 120 120L91 48C399 1 666 -45 888 -91Z" transform="translate(0, 880) scale(1,-1)" /></svg>