<svg xmlns="http://www.w3.org/2000/svg" width="1000" height="1000"><path d="M262 611 331 649C307 695 251 762 195 812L130 777C184 728 239 658 262 611ZM460 569H540V841H460ZM658 645 724 611C771 654 832 724 877 783L802 818C767 762 706 691 658 645ZM412 18V-65C459 -75 516 -80 587 -80C844 -80 917 35 917 181C917 303 806 379 563 379C514 379 482 376 444 369C578 423 706 484 813 535L751 593L727 584H153V514H614C497 454 348 388 214 340C184 329 144 316 80 295L129 231C249 277 405 310 547 310C735 310 834 269 834 181C834 56 755 -8 581 -8C514 -8 451 2 412 18ZM605 49 657 105C599 147 500 201 406 244L358 191C450 149 549 92 605 49Z" transform="translate(0, 880) scale(1,-1)" /></svg>