<svg xmlns="http://www.w3.org/2000/svg" width="1000" height="1000"><path d="M685 -64Q753 -64 806.5 -28.5Q860 7 890.0 75.5Q920 144 920 239Q920 502 620 502Q568 502 527 491Q714 610 814 728L746 764L730 751H359L358 682H671Q626 635 556.5 580.0Q487 525 410 479Q397 471 251 427L111 383L150 317Q266 366 391.5 397.5Q517 429 609 429Q711 429 776.5 383.0Q842 337 842 239Q842 119 795.0 63.5Q748 8 675 8Q600 8 501 32V-47Q585 -64 685 -64ZM280 41Q328 41 409.0 90.0Q490 139 571.5 208.0Q653 277 700 332L633 385Q592 333 525.0 271.0Q458 209 395.0 166.0Q332 123 299 123Q277 123 259 192L180 176Q195 107 217.5 74.0Q240 41 280 41ZM644 135Q604 184 536.0 244.5Q468 305 410 346L357 294Q410 258 478.5 193.5Q547 129 587 80ZM169 525Q382 663 506 804L438 842Q321 704 123 589Z" transform="translate(0, 880) scale(1,-1)" /></svg>