<svg xmlns="http://www.w3.org/2000/svg" width="1000" height="1000"><path d="M269 -39Q309 -2 357.5 53.0Q406 108 447 162L378 192Q344 144 298.0 94.0Q252 44 207 7ZM551 -78Q589 -78 606.5 -59.5Q624 -41 624 0V422H551V8Q551 -13 520 -13Q478 -13 412 7V-65Q492 -78 551 -78ZM941 0Q884 68 759 191L702 152Q752 101 802.0 46.0Q852 -9 879 -44ZM421 242Q510 232 585 232Q739 232 807.5 278.5Q876 325 876 416Q876 499 813.0 544.5Q750 590 605 590Q505 590 419.0 567.5Q333 545 277 510L309 441Q364 475 439.5 495.0Q515 515 605 515Q697 515 746.5 489.0Q796 463 796 416Q796 364 747.5 333.5Q699 303 595 303Q519 303 421 320ZM598 741 548 845 473 827 513 741H131V471Q131 324 112.5 198.5Q94 73 35 -24L101 -61Q207 113 207 471V667H943V741Z" transform="translate(0, 880) scale(1,-1)" /></svg>