<svg xmlns="http://www.w3.org/2000/svg" width="1000" height="1000"><path d="M633 -70C773 -39 858 12 858 76C858 152 806 197 649 197C516 197 383 143 291 99C462 216 537 320 549 492L469 500C453 310 369 214 163 57L219 9C391 89 533 128 649 128C741 128 771 109 771 76C771 41 702 7 600 -8ZM106 298H184V619H106ZM314 306C742 270 896 324 896 482C896 587 814 657 548 657C360 657 229 604 142 550L172 481C253 536 396 585 548 585C752 585 813 546 813 482C813 372 638 346 314 381ZM333 674 398 710C379 747 339 803 304 843L243 812C276 771 315 711 333 674ZM634 639C680 698 727 762 761 817L685 847C662 797 619 726 582 678Z" transform="translate(0, 880) scale(1,-1)" /></svg>