<svg xmlns="http://www.w3.org/2000/svg" width="1000" height="1000"><path d="M455 -75Q502 -75 524.5 -53.0Q547 -31 547 22V838H470V22Q470 7 464.0 1.5Q458 -4 444 -4Q388 -4 300 23V-62Q372 -75 455 -75ZM616 110H924V183H793V507H718V183H616ZM105 599Q148 597 235 597Q625 597 889 689L859 762Q727 710 581.5 689.5Q436 669 260 669Q181 669 100 672ZM232 290Q274 370 327 492L260 512Q214 398 160.5 312.0Q107 226 53 176L119 131Q161 189 185 208Q198 218 218 218Q226 218 234 216Q259 207 273 136L412 215L387 264L305 231Q298 274 232 290Z" transform="translate(0, 880) scale(1,-1)" /></svg>