<svg xmlns="http://www.w3.org/2000/svg" width="1000" height="1000"><path d="M310 457Q466 450 545 450Q671 450 745.5 465.0Q820 480 856.5 518.5Q893 557 893 626Q893 704 824.0 755.5Q755 807 599 807Q495 807 414.5 786.5Q334 766 282.5 732.5Q231 699 209 658V775H129V453H209V599Q269 668 360.0 700.0Q451 732 599 732Q814 732 814 626Q814 573 749.5 548.0Q685 523 546 523Q448 523 310 535ZM88 -20Q155 7 322.0 107.0Q489 207 589 280L541 336Q430 255 273.0 162.0Q116 69 51 45ZM502 -71Q582 -71 582 15V651H504L503 22Q503 11 498.0 6.5Q493 2 480 2Q424 2 357 23V-55Q424 -71 502 -71ZM62 263H939V334H62ZM955 38Q883 87 778.5 140.0Q674 193 582 227V158Q688 111 765.0 71.5Q842 32 906 -15Z" transform="translate(0, 880) scale(1,-1)" /></svg>