<svg xmlns="http://www.w3.org/2000/svg" width="1000" height="1000"><path d="M569 459Q605 459 630.5 477.0Q656 495 656 524Q656 549 625.5 593.0Q595 637 560 667L500 628Q532 601 549.5 578.5Q567 556 567 546Q567 535 557.5 531.5Q548 528 527 528H313Q287 528 270.0 536.0Q253 544 253 556Q253 611 281.5 661.5Q310 712 379 788L315 821Q242 746 207.0 679.0Q172 612 172 545Q172 498 207.5 478.5Q243 459 313 459ZM803 535Q815 559 822.0 593.0Q829 627 829 666Q829 736 781.5 771.5Q734 807 658 807Q588 807 531.0 790.0Q474 773 422 736L451 670Q497 702 550.5 718.0Q604 734 658 734Q701 734 727.5 715.0Q754 696 754 660Q754 631 748.0 599.5Q742 568 732 543ZM351 -57Q391 -57 419.0 -27.0Q447 3 447 56Q447 92 428.0 128.0Q409 164 373 192L302 171Q336 144 353.0 113.5Q370 83 370 58Q370 37 359.0 25.5Q348 14 327 14H192Q168 14 153.5 28.0Q139 42 139 67Q139 131 171.0 222.5Q203 314 270 411L202 444Q133 345 97.0 238.0Q61 131 61 51Q61 -6 94.5 -31.5Q128 -57 192 -57ZM473 222 448 283 256 209 279 148ZM752 -57Q777 -57 795.0 -34.0Q813 -11 813 27Q813 60 792.5 112.0Q772 164 746 209L681 173Q704 135 715.5 100.0Q727 65 727 45Q727 15 697 15H596Q572 15 557.0 26.0Q542 37 542 55Q542 225 638 417L571 442Q463 238 463 39Q463 -12 497.0 -34.5Q531 -57 596 -57ZM920 42Q941 113 941 226Q941 303 902.0 344.5Q863 386 802 386Q748 386 705.5 368.5Q663 351 624 313L659 252Q691 281 727.5 296.0Q764 311 802 311Q831 311 849.5 286.0Q868 261 868 217Q868 139 853 55Z" transform="translate(0, 880) scale(1,-1)" /></svg>