<svg xmlns="http://www.w3.org/2000/svg" width="1000" height="1000"><path d="M511 9V88H251Q158 88 158 185V422Q158 553 192 633L121 661Q96 609 87.0 555.5Q78 502 78 422V177Q78 91 117.5 50.0Q157 9 239 9ZM798 619Q828 586 841.5 533.0Q855 480 855 402Q855 266 847.0 196.5Q839 127 815.5 97.0Q792 67 744 67Q676 67 618 87V0Q677 -9 748 -9Q825 -9 865.0 28.5Q905 66 920.5 153.0Q936 240 936 402Q936 492 919.0 557.0Q902 622 866 665ZM290 681V601H710V681ZM290 400V321H710V400Z" transform="translate(0, 880) scale(1,-1)" /></svg>