<svg xmlns="http://www.w3.org/2000/svg" width="1000" height="1000"><path d="M261 -68Q330 -68 390.5 -27.0Q451 14 487.5 84.5Q524 155 524 238Q524 352 481.5 451.5Q439 551 320 651L252 606Q360 508 401.5 417.0Q443 326 443 251Q443 187 416.5 133.5Q390 80 347.5 49.0Q305 18 260 18Q224 18 196.0 33.5Q168 49 152.5 74.0Q137 99 137 126Q137 176 171.0 218.0Q205 260 253 285Q339 330 465.5 361.0Q592 392 703 392L733 391V49H597V-30L953 -33V49H817V460L755 495L737 476Q602 477 460.0 446.0Q318 415 218 366Q148 331 103.5 271.5Q59 212 59 131Q59 40 110.5 -14.0Q162 -68 261 -68ZM179 550Q450 629 717 774L651 840Q542 779 405.0 719.5Q268 660 147 625Z" transform="translate(0, 880) scale(1,-1)" /></svg>