<svg xmlns="http://www.w3.org/2000/svg" width="1000" height="1000"><path d="M167 -77Q202 -77 219.0 -57.0Q236 -37 236 9V834H170V12Q170 -10 153 -10Q113 -10 63 12V-66Q115 -77 167 -77ZM65 575H305V639H65ZM317 393 289 454 44 261 76 196ZM476 -67Q548 -67 584.0 5.5Q620 78 620 203Q620 309 593.0 366.0Q566 423 502 423Q472 423 452 389Q460 417 471.0 448.5Q482 480 492 510L505 547L447 578Q423 481 395.5 404.0Q368 327 334 254L392 213Q412 275 427.5 303.0Q443 331 459.0 339.5Q475 348 502 348Q525 348 537.5 311.5Q550 275 550 203Q550 152 540.0 108.0Q530 64 513.0 37.5Q496 11 476 11Q450 11 430.0 16.0Q410 21 387 33V-54Q426 -67 476 -67ZM367 486Q418 616 451 798L390 818Q361 641 303 510ZM667 507Q638 570 611.0 654.5Q584 739 567 820L510 796Q527 715 552.5 629.5Q578 544 606 475ZM634 677Q692 685 743 685Q800 685 825.0 617.0Q850 549 850 395Q850 217 832.5 107.5Q815 -2 777 -2Q718 -2 681 20V-62Q719 -74 779 -74Q829 -74 860.0 -31.5Q891 11 906.5 113.5Q922 216 922 395Q922 535 903.0 614.5Q884 694 845.0 727.5Q806 761 743 761Q687 761 625 751ZM711 452V381H957V452ZM687 273V199H964V273Z" transform="translate(0, 880) scale(1,-1)" /></svg>