<svg xmlns="http://www.w3.org/2000/svg" width="1000" height="1000"><path d="M89 676V603H920V676ZM254 484V411H748V484ZM431 473Q409 546 368.5 644.5Q328 743 286 823L213 795Q254 718 293.5 616.5Q333 515 353 438ZM633 439Q668 510 711.0 613.0Q754 716 786 809L708 836Q683 750 642.0 646.0Q601 542 563 464ZM577 -80Q701 -80 758.0 -6.5Q815 67 815 194Q815 265 766.0 301.5Q717 338 608 338Q477 338 311 315L316 253Q500 271 608 271Q665 271 699.0 252.0Q733 233 733 194Q733 97 690.0 40.0Q647 -17 563 -17Q450 -17 370 3V-68Q459 -80 577 -80ZM660 96 662 163 363 166 360 100ZM326 438Q306 294 257.0 182.5Q208 71 134 -17L207 -56Q367 141 410 434Z" transform="translate(0, 880) scale(1,-1)" /></svg>