<svg xmlns="http://www.w3.org/2000/svg" width="1000" height="1000"><path d="M542 556Q622 603 703.5 662.0Q785 721 826 766L763 813L746 806H189V740H679Q618 676 473 598ZM621 552Q528 624 411 688L369 640Q480 577 573 502ZM94 536V464H906V536ZM400 379Q379 433 339.5 505.5Q300 578 259 639L194 605Q234 546 272.5 471.5Q311 397 331 340ZM654 340Q689 392 731.0 468.0Q773 544 807 614L735 648Q711 585 670.5 508.5Q630 432 591 373ZM170 357V286H831V357ZM455 -75Q502 -75 524.5 -56.0Q547 -37 547 9V422H470V9Q470 -4 464.0 -9.0Q458 -14 444 -14Q387 -14 300 9V-64Q369 -75 455 -75ZM616 10H924V75H793V262H718V75H616ZM245 143Q281 185 327 252L268 283Q222 211 168.0 157.0Q114 103 61 71L119 25Q162 62 185 73Q200 80 221 80Q231 80 234 79Q245 77 255.5 64.0Q266 51 273 28L412 78L387 127L305 107Q298 133 245 143Z" transform="translate(0, 880) scale(1,-1)" /></svg>