<svg xmlns="http://www.w3.org/2000/svg" width="1000" height="1000"><path d="M320 -56Q397 -75 504 -75Q689 -75 791.0 -11.5Q893 52 893 197Q893 328 800.0 383.0Q707 438 526 438Q472 438 438.0 433.5Q404 429 376 420Q457 461 499.0 527.0Q541 593 541 672H459Q459 596 414.0 527.0Q369 458 285 412Q243 387 208 373L247 315Q310 339 386.5 354.0Q463 369 526 369Q814 369 814 197Q814 100 728.0 47.5Q642 -5 503 -5Q390 -5 320 23ZM401 308V132H473V308ZM197 157V86H656V157ZM133 507H209V804H133ZM316 518Q437 507 525 507Q679 507 757.0 544.0Q835 581 835 668Q835 748 753.5 782.5Q672 817 539 817Q419 817 334.5 795.0Q250 773 158 726L190 666Q356 748 539 748Q604 748 652.0 737.0Q700 726 726.0 707.5Q752 689 752 668Q752 620 702.5 597.0Q653 574 546 574Q451 574 316 590Z" transform="translate(0, 880) scale(1,-1)" /></svg>