<svg xmlns="http://www.w3.org/2000/svg" width="1000" height="1000"><path d="M888 -82 927 -14C733 78 637 210 637 837H564C566 184 670 27 888 -82ZM691 330C759 330 780 291 780 250C780 182 692 105 569 52L605 1C761 62 856 166 856 250C856 316 817 393 691 393C450 393 101 213 101 78C101 1 170 -49 257 -49C402 -49 496 30 496 189C496 300 448 384 294 384C226 384 160 367 117 347L135 284C176 301 239 315 297 315C383 315 418 263 418 181C418 83 350 18 260 18C212 18 182 49 182 83C182 165 472 330 691 330ZM154 605H797V677H154ZM871 580 937 607C916 683 890 750 854 813L796 778C828 723 854 650 871 580ZM335 493V435H517V493ZM292 552V357H362V552ZM57 459 126 427C173 536 214 690 235 812L163 824C142 699 102 555 57 459Z" transform="translate(0, 880) scale(1,-1)" /></svg>