<svg xmlns="http://www.w3.org/2000/svg" width="1000" height="1000"><path d="M93 11H168C160 189 144 244 174 387C189 459 240 621 328 621C404 621 451 464 436 303C427 208 395 136 353 136C304 136 325 265 364 357C407 458 518 509 679 509H962V585H679C474 585 351 532 279 347C229 219 245 46 339 46C464 46 494 153 509 300C529 488 485 706 331 706C256 706 200 645 163 528L190 733H110C83 392 83 210 93 11ZM700 -74C799 -74 840 -2 840 119V835H764V152C764 66 757 5 696 4C648 3 624 39 623 86C622 134 636 162 672 177C694 186 736 185 789 164L796 239C742 257 684 263 642 246C588 225 549 182 549 92C549 -17 612 -74 700 -74Z" transform="translate(0, 880) scale(1,-1)" /></svg>