<svg xmlns="http://www.w3.org/2000/svg" width="1000" height="1000"><path d="M222 -27Q171 107 171 198Q171 252 190 303Q217 374 217 428Q217 495 176 556L96 537Q138 462 138 403Q138 358 115 309Q92 257 92 191Q92 96 140 -36ZM291 703Q261 725 210.0 756.0Q159 787 115 811L75 755Q119 729 169.5 695.5Q220 662 249 639ZM454 626H375V83Q375 25 390.5 -5.0Q406 -35 440.5 -46.5Q475 -58 539 -58H782Q839 -58 871.5 -36.5Q904 -15 921.0 34.0Q938 83 947 171L867 186Q862 113 854.0 79.0Q846 45 830.0 32.5Q814 20 783 20H539Q504 20 486.0 25.0Q468 30 461.0 43.0Q454 56 454 83ZM771 350Q810 350 836.0 392.0Q862 434 878.0 525.5Q894 617 902 768L840 789L824 777H341V700H819Q813 552 794.5 489.5Q776 427 747 427Q708 427 672.5 434.5Q637 442 589 457V373Q683 350 771 350Z" transform="translate(0, 880) scale(1,-1)" /></svg>