<svg xmlns="http://www.w3.org/2000/svg" width="1000" height="1000"><path d="M140 -36 222 -27C168 115 158 218 190 303C227 399 230 475 176 556L96 537C146 449 149 383 115 309C79 228 85 115 140 -36ZM249 639 291 703C251 733 173 780 115 811L75 755C133 721 210 670 249 639ZM615 513V432C857 414 935 486 935 582C935 672 860 732 672 732C508 732 358 688 265 639L308 568C391 615 530 653 672 653C789 653 852 633 852 582C852 522 774 496 615 513ZM296 350V273H910V350ZM286 186V104H920V186ZM558 -74C615 -74 649 -39 649 22V829H571V36C571 17 561 1 542 1C496 1 449 10 400 30V-56C451 -69 497 -74 558 -74Z" transform="translate(0, 880) scale(1,-1)" /></svg>