<svg xmlns="http://www.w3.org/2000/svg" width="1000" height="1000"><path d="M633 -70Q740 -46 799.0 -8.5Q858 29 858 76Q858 136 810.0 166.5Q762 197 649 197Q496 197 291 99Q379 159 433.0 216.0Q487 273 515.0 339.5Q543 406 549 492L469 500Q461 406 428.5 336.5Q396 267 334.5 204.0Q273 141 163 57L219 9Q475 128 649 128Q715 128 743.0 115.0Q771 102 771 76Q771 50 723.5 26.5Q676 3 600 -8ZM106 298H184V619H106ZM314 306Q446 295 536 295Q666 295 745.0 315.0Q824 335 860.0 376.0Q896 417 896 482Q896 567 816.5 612.0Q737 657 548 657Q314 657 142 550L172 481Q237 525 338.5 555.0Q440 585 548 585Q694 585 753.5 559.0Q813 533 813 482Q813 423 745.5 394.5Q678 366 545 366Q446 366 314 381ZM398 710Q384 737 357.5 775.0Q331 813 304 843L243 812Q268 781 293.5 741.5Q319 702 333 674ZM634 639Q716 744 761 817L685 847Q668 809 639.0 761.5Q610 714 582 678Z" transform="translate(0, 880) scale(1,-1)" /></svg>