<svg xmlns="http://www.w3.org/2000/svg" width="1000" height="1000"><path d="M268 -62C318 -62 347 -25 347 33V516H271V44C271 20 261 6 245 6C217 6 181 12 145 24V-51C177 -58 214 -62 268 -62ZM68 131 538 227 517 291 46 200ZM313 411 314 353C434 375 529 452 529 549C529 660 437 699 353 699C297 699 247 675 220 655C259 709 302 758 358 805L278 845C183 725 124 645 101 572C81 508 78 438 107 357L186 374C155 442 153 494 177 557C194 601 254 632 315 632C380 632 442 597 442 548C442 486 419 434 313 411ZM690 119 732 68C855 160 937 258 935 414C934 522 823 595 680 551C733 625 780 702 824 787L750 823C706 721 653 620 587 522C582 514 564 504 543 494L577 428C723 511 856 506 857 399C858 294 813 210 690 119ZM837 -93 902 -39C822 54 714 146 600 228L553 174C665 96 765 -4 837 -93Z" transform="translate(0, 880) scale(1,-1)" /></svg>