<svg xmlns="http://www.w3.org/2000/svg" width="1000" height="1000"><path d="M75 116 562 263 544 333 59 196ZM275 -72Q316 -72 338.0 -51.5Q360 -31 360 17V825H285V37Q285 19 277.0 9.5Q269 0 256 0Q208 0 155 18V-60Q211 -72 275 -72ZM66 424H551V500H66ZM92 621H525V698H92ZM687 98Q786 155 833.5 188.0Q881 221 902.5 253.0Q924 285 924 329Q924 387 869.0 429.5Q814 472 695 500Q779 550 842.0 609.0Q905 668 961 753L898 794L887 780H569V704H834Q780 638 720.0 591.5Q660 545 580 508L588 446Q729 417 787.5 386.5Q846 356 846 329Q846 298 802.5 261.0Q759 224 644 160ZM955 -36Q895 13 784.0 83.0Q673 153 576 203L542 140Q636 91 742.5 21.0Q849 -49 906 -99Z" transform="translate(0, 880) scale(1,-1)" /></svg>