<svg xmlns="http://www.w3.org/2000/svg" width="1000" height="1000"><path d="M201 -77C249 -77 273 -54 273 9V834H203V12C203 -2 198 -10 185 -10C159 -10 127 -3 91 12V-66C126 -73 162 -77 201 -77ZM55 573H393V641H55ZM402 339 377 406 34 263 62 192ZM455 486 530 452C673 537 815 654 895 759L846 805L830 798H390V721H761C706 652 595 564 455 486ZM769 -77C898 -77 945 40 945 267C945 471 858 540 709 540C586 540 458 506 383 470L402 403C480 436 604 464 709 464C821 464 868 400 868 267C868 110 842 -7 765 -7C712 -7 670 -1 635 14V-66C669 -74 708 -77 769 -77ZM396 87 450 36C585 140 734 296 785 371L725 414C675 337 531 183 396 87ZM712 108 763 163C696 222 595 298 526 339L479 291C553 244 651 166 712 108Z" transform="translate(0, 880) scale(1,-1)" /></svg>