<svg xmlns="http://www.w3.org/2000/svg" width="1000" height="1000"><path d="M735 -69C877 33 925 134 925 282C925 442 859 532 752 532C694 532 656 498 630 447V475H563V186H636C627 278 626 338 641 375C660 425 693 461 752 461C818 461 849 404 849 282C849 157 819 86 697 -11ZM114 -57 187 -44C142 157 134 297 164 414C199 546 202 650 152 761L71 735C115 613 120 532 90 432C57 317 62 176 114 -57ZM342 18 420 28C371 222 354 434 496 552L438 589C265 451 293 222 342 18ZM687 600 939 732 907 804 883 794H303V719H781L650 641Z" transform="translate(0, 880) scale(1,-1)" /></svg>