<svg xmlns="http://www.w3.org/2000/svg" width="1000" height="1000"><path d="M140 -36 223 -27C168 115 158 218 191 303C227 399 231 475 176 556L96 537C146 449 149 383 115 309C79 228 85 115 140 -36ZM249 639 292 703C251 733 173 780 115 811L75 755C134 721 211 670 249 639ZM266 1 292 -79C556 -46 911 56 911 286C911 374 851 475 658 475C460 475 356 401 356 287C356 209 419 139 500 139C611 139 688 235 688 369V839H610V369C610 277 569 210 500 210C463 210 433 242 433 287C433 343 480 404 658 404C800 404 829 338 829 287C829 98 480 24 266 1ZM263 457 335 419C399 525 445 663 475 799L399 812C371 676 323 542 263 457ZM386 584H915V657H386Z" transform="translate(0, 880) scale(1,-1)" /></svg>