<svg xmlns="http://www.w3.org/2000/svg" width="1000" height="1000"><path d="M115 314Q240 378 322.5 432.0Q405 486 471.0 562.0Q537 638 566 741H495Q458 646 403.0 585.0Q348 524 275.0 482.5Q202 441 78 390ZM84 18Q117 37 183 86L202 101Q219 114 245 114Q260 114 269.0 108.0Q278 102 286.5 81.5Q295 61 306 18L463 124L436 164L336 118Q332 142 319.0 157.5Q306 173 279 180Q344 256 412 363L355 400Q286 293 205.0 212.5Q124 132 45 99ZM472 -72Q550 -72 593.0 -10.5Q636 51 636 147Q636 212 609.5 286.0Q583 360 537.0 426.5Q491 493 437 537L377 489Q457 422 507.5 327.5Q558 233 558 143Q558 83 533.5 40.5Q509 -2 463 -2Q412 -2 355 19V-59Q409 -72 472 -72ZM945 54Q856 111 716.5 177.5Q577 244 454 292L433 226Q545 183 678.0 114.5Q811 46 896 -15ZM80 532H920V606H80ZM581 258Q688 304 747.0 333.5Q806 363 871 408L811 465Q746 417 693.0 387.0Q640 357 556 321ZM166 700Q338 699 521.0 714.5Q704 730 857 758L818 827Q708 805 516.0 789.0Q324 773 150 770Z" transform="translate(0, 880) scale(1,-1)" /></svg>