<svg xmlns="http://www.w3.org/2000/svg" width="1000" height="1000"><path d="M540 594Q619 632 707.0 685.0Q795 738 839 776L774 823L756 817H187V748H679Q649 723 599.0 696.5Q549 670 472 635ZM690 380Q765 380 814.0 401.0Q863 422 885.0 455.0Q907 488 907 526Q907 593 826.0 622.0Q745 651 585 651Q370 651 118 615L139 550Q409 584 585 584Q709 584 770.0 570.5Q831 557 831 526Q831 489 795.5 466.0Q760 443 685 443Q572 443 496 459V390Q533 385 575.5 382.5Q618 380 690 380ZM445 -57Q556 -57 556 36V530H477V53Q477 31 467.0 20.5Q457 10 432 10Q371 10 305 32V-43Q361 -57 445 -57ZM121 -15Q218 44 286.5 118.0Q355 192 384 267L312 294Q276 216 216.5 153.5Q157 91 61 37ZM974 81Q618 164 282 206L266 140Q578 101 946 9ZM82 264H918V337H82ZM157 434 186 371 408 451 379 514Z" transform="translate(0, 880) scale(1,-1)" /></svg>