<svg xmlns="http://www.w3.org/2000/svg" width="1000" height="1000"><path d="M915 96Q834 239 742 360L682 324Q775 199 851 57ZM139 642Q234 687 331.5 713.5Q429 740 516 740Q615 740 668.0 707.5Q721 675 721 615Q721 530 651.5 481.0Q582 432 439 432Q387 432 362.0 443.0Q337 454 337 473Q337 495 353.5 510.0Q370 525 402 525Q435 525 453.5 508.0Q472 491 472 461Q472 428 453.0 399.5Q434 371 389 329Q293 239 243.5 184.5Q194 130 177.0 101.0Q160 72 160 51Q160 -45 279 -45H575Q612 -45 635.0 -22.0Q658 1 672.0 50.5Q686 100 696 185L621 201Q614 106 600.0 67.0Q586 28 559 28H313Q277 28 261.5 33.5Q246 39 246 51Q246 64 259.0 84.5Q272 105 317.5 153.5Q363 202 455 288Q501 330 524.5 372.0Q548 414 548 461Q548 512 510.0 546.5Q472 581 402 581Q332 581 297.0 549.5Q262 518 262 473Q262 422 307.5 392.0Q353 362 439 362Q554 362 637.0 393.0Q720 424 763.5 481.0Q807 538 807 615Q807 704 733.5 757.5Q660 811 516 811Q418 811 312.0 783.0Q206 755 108 709Z" transform="translate(0, 880) scale(1,-1)" /></svg>