<svg xmlns="http://www.w3.org/2000/svg" width="1000" height="1000"><path d="M456 344Q506 344 528.5 365.0Q551 386 551 432V833H472V444Q472 431 463.0 422.5Q454 414 438 414Q381 414 301 436V356Q382 344 456 344ZM115 403Q180 436 243.0 483.0Q306 530 347 579L274 612Q237 568 178.5 527.0Q120 486 57 459ZM62 649H942V723H62ZM941 450Q906 483 838.5 528.5Q771 574 706 610L650 563Q715 526 781.5 479.5Q848 433 882 399ZM454 41 492 -28Q711 -27 806.5 20.5Q902 68 902 162Q902 324 586 324Q434 324 312.5 294.5Q191 265 73 205L125 141Q219 192 335.5 220.5Q452 249 586 249Q704 249 761.0 224.0Q818 199 818 162Q818 107 740.5 74.0Q663 41 488 41ZM567 -64Q529 19 443 119L374 85Q408 51 440.5 0.0Q473 -51 492 -99Z" transform="translate(0, 880) scale(1,-1)" /></svg>