<svg xmlns="http://www.w3.org/2000/svg" width="1000" height="1000"><path d="M84 763V682H483V763ZM258 720V269L335 314V720ZM439 -70Q664 62 788.5 198.0Q913 334 913 499Q913 610 865.0 673.0Q817 736 712 736Q626 736 530.5 650.5Q435 565 352.0 449.5Q269 334 159 162Q102 72 70 25L136 -39L148 -18Q260 172 347.0 306.5Q434 441 533.5 547.0Q633 653 712 653Q833 653 833 499Q833 404 776.5 318.5Q720 233 624.0 156.0Q528 79 386 -7ZM956 -5Q831 153 735.5 248.5Q640 344 531 419L477 367Q585 287 676.5 190.5Q768 94 889 -66Z" transform="translate(0, 880) scale(1,-1)" /></svg>