<svg xmlns="http://www.w3.org/2000/svg" width="1000" height="1000"><path d="M109 -36 183 -27C139 115 132 218 157 303C186 399 189 475 145 556L75 537C115 449 116 383 90 309C60 228 66 115 109 -36ZM191 644 234 703C201 733 140 780 94 811L53 760C99 726 160 675 191 644ZM693 -74C789 -71 846 4 846 147C846 279 780 340 677 340C617 340 567 322 520 288C560 341 590 395 616 467H780V539H391V467H540C523 408 499 345 458 276C446 251 415 228 384 198L430 141C515 224 587 265 679 265C741 265 771 229 771 143C771 48 732 -7 690 -8C659 -9 632 -1 601 20V-57C632 -72 662 -75 693 -74ZM266 -29H336V748H266ZM485 571 545 609C514 682 482 746 444 816L381 779C419 711 452 647 485 571ZM890 246 962 274C949 346 917 476 883 574L816 549C848 452 879 319 890 246ZM629 610 692 577C731 643 763 711 794 791L727 823C702 745 665 674 629 610Z" transform="translate(0, 880) scale(1,-1)" /></svg>