<svg xmlns="http://www.w3.org/2000/svg" width="1000" height="1000"><path d="M212 -27Q165 104 165 198Q165 254 182 303Q207 373 207 427Q207 494 168 556L95 537Q133 465 133 404Q133 357 112 309Q91 258 91 191Q91 93 135 -36ZM276 703Q248 725 200.5 756.0Q153 787 112 811L75 755Q117 728 163.5 695.0Q210 662 237 639ZM575 37Q817 110 817 261Q817 340 772.5 384.5Q728 429 637 429Q601 429 564.0 413.5Q527 398 493 372Q525 423 568.5 544.0Q612 665 646 826L569 841Q542 674 484.5 521.0Q427 368 362 256L427 206Q516 353 637 353Q689 353 713.5 326.0Q738 299 738 261Q738 153 482 37ZM260 -36H947V37H260ZM290 547H914V620H290Z" transform="translate(0, 880) scale(1,-1)" /></svg>