<svg xmlns="http://www.w3.org/2000/svg" width="1000" height="1000"><path d="M218 -27Q169 101 169 191Q169 248 187 294Q213 364 213 414Q213 479 172 540L96 522Q135 453 135 392Q135 347 114 300Q91 249 91 185Q91 90 138 -36ZM285 683Q255 705 205.5 735.0Q156 765 114 788L75 737Q118 711 167.0 678.5Q216 646 244 624ZM292 35Q412 102 545.0 207.5Q678 313 860 486L809 539Q639 372 503.5 265.5Q368 159 254 100ZM593 -72Q667 -72 696.0 -4.0Q725 64 725 191Q725 375 583 601L523 557Q583 468 618.0 370.0Q653 272 653 194Q653 107 639.5 55.0Q626 3 581 3Q538 3 487 21V-58Q540 -72 593 -72ZM316 296Q446 384 547.5 522.5Q649 661 699 821L628 842Q578 681 488.5 558.5Q399 436 279 358ZM961 104Q846 221 704 322L667 272Q799 172 906 51ZM301 657V584H938V657Z" transform="translate(0, 880) scale(1,-1)" /></svg>