<svg xmlns="http://www.w3.org/2000/svg" width="1000" height="1000"><path d="M115 780V707H885V780ZM74 444V369H926V444ZM294 493Q282 528 253.5 576.0Q225 624 192 666L125 635Q151 598 179.0 548.5Q207 499 225 459ZM554 500Q537 575 470 688L399 663Q425 617 447.0 565.5Q469 514 479 474ZM753 462Q818 547 874 654L795 685Q777 639 747.0 583.5Q717 528 686 483ZM575 -80Q700 -80 758.0 -9.0Q816 62 816 183Q816 251 766.5 286.5Q717 322 607 322Q467 322 309 299L314 238Q487 255 607 255Q665 255 699.0 237.5Q733 220 733 183Q733 91 689.5 36.5Q646 -18 561 -18Q450 -18 366 2V-69Q457 -80 575 -80ZM660 88 662 154 360 158 357 92ZM317 421Q297 277 251.5 172.0Q206 67 134 -20L207 -59Q281 33 330.0 150.0Q379 267 401 419Z" transform="translate(0, 880) scale(1,-1)" /></svg>