<svg xmlns="http://www.w3.org/2000/svg" width="1000" height="1000"><path d="M214 328Q251 358 290.5 405.0Q330 452 357 495L307 543L290 536H79V470H263Q216 403 152 345ZM928 -14Q830 37 775.0 116.0Q720 195 691.5 363.5Q663 532 663 837H591Q592 518 624.0 337.5Q656 157 719.0 67.0Q782 -23 892 -82ZM84 575H809V647H84ZM937 587Q909 696 859 793L801 758Q845 677 872 560ZM297 583Q340 614 391.0 665.5Q442 717 473 759L419 808L402 800H118V732H364Q319 676 234 608ZM441 35Q481 57 503.5 87.0Q526 117 526 147Q526 195 487.5 222.0Q449 249 376 249Q180 249 180 159Q180 119 216.0 97.0Q252 75 316 75Q360 75 384.5 92.5Q409 110 409 139V450H336V154Q336 127 302 127Q283 127 267.0 137.0Q251 147 251 159Q251 176 278.5 185.5Q306 195 376 195Q417 195 436.0 181.0Q455 167 455 146Q455 121 434.0 94.0Q413 67 357 35ZM88 -49 584 21 574 85 78 15ZM92 292H582V353H92ZM790 276Q783 219 731.5 163.5Q680 108 599 63L634 1Q727 47 788.5 118.5Q850 190 863 261Z" transform="translate(0, 880) scale(1,-1)" /></svg>