<svg xmlns="http://www.w3.org/2000/svg" width="1000" height="1000"><path d="M74 449Q485 549 696 615L667 674Q527 633 357.0 589.5Q187 546 39 515ZM297 416H369V821H297ZM948 508Q774 553 583 582L560 524Q749 490 908 443ZM631 416H703V821H631ZM73 669H927V738H73ZM817 -68Q852 -68 874.0 -53.5Q896 -39 909.5 -7.0Q923 25 932 82L857 90Q853 51 846.0 31.0Q839 11 827.5 4.0Q816 -3 798 -3H243Q214 -3 203.0 0.0Q192 3 192 10Q192 19 227.5 32.0Q263 45 403.0 83.5Q543 122 862 205L815 273L794 269H154V203L632 204Q380 143 264.0 107.0Q148 71 117.0 50.0Q86 29 86 2Q86 -33 113.0 -50.5Q140 -68 211 -68ZM696 321Q551 366 341 414L305 357Q500 314 652 263Z" transform="translate(0, 880) scale(1,-1)" /></svg>