<svg xmlns="http://www.w3.org/2000/svg" width="1000" height="1000"><path d="M647 -54Q728 -54 789.5 -10.5Q851 33 884.0 108.0Q917 183 917 274Q917 418 833.0 479.5Q749 541 588 541Q513 541 464 534L497 553Q607 617 683.0 663.0Q759 709 817 752L754 798L727 790H186V718H634Q517 629 299 510Q289 505 273.5 498.0Q258 491 238 483Q206 470 156 448L200 389Q378 474 569 474Q696 474 766.0 428.0Q836 382 836 272Q836 208 812.5 148.5Q789 89 744.5 52.0Q700 15 641 15Q556 15 473 46V-34Q550 -54 647 -54ZM163 101Q268 165 346.0 246.0Q424 327 463 413L386 429Q320 270 103 154ZM240 -58Q402 14 514.0 129.0Q626 244 660 408L586 423Q550 279 440.5 168.0Q331 57 183 -3Z" transform="translate(0, 880) scale(1,-1)" /></svg>