<svg xmlns="http://www.w3.org/2000/svg" width="1000" height="1000"><path d="M69 601V527H394V601ZM53 197 108 160 121 181 398 280 385 355 160 272 253 534 201 564ZM202 -72Q240 -72 261.0 -52.0Q282 -32 282 16V814H210V35Q210 18 203.5 8.5Q197 -1 186 -1Q145 -1 95 20V-60Q144 -72 202 -72ZM463 440Q538 589 602 807L530 831Q473 629 392 479ZM429 -64Q613 30 739.0 191.0Q865 352 908 622L858 657L838 644H492V565H820Q741 178 378 -5ZM937 -11Q807 124 699.0 215.5Q591 307 476 376L433 319Q549 245 654.0 152.5Q759 60 880 -75Z" transform="translate(0, 880) scale(1,-1)" /></svg>