<svg xmlns="http://www.w3.org/2000/svg" width="1000" height="1000"><path d="M643 797H131V470Q131 324 112.5 199.0Q94 74 35 -23L99 -60Q205 113 205 470V724H643ZM220 509V428H609V509ZM390 282Q380 357 359.5 464.0Q339 571 319 652L247 633Q266 555 286.0 445.5Q306 336 316 257ZM500 257Q537 392 581 633L508 652Q493 559 471.5 452.0Q450 345 431 275ZM606 -59Q735 61 833.5 205.0Q932 349 932 499Q932 702 785 702Q733 702 689.5 688.5Q646 675 599 650L616 578Q656 602 696.0 613.0Q736 624 785 624Q821 624 842.0 589.5Q863 555 863 499Q863 367 774.0 237.0Q685 107 569 10ZM959 -3Q874 141 805.0 230.5Q736 320 658 389L618 334Q695 262 759.5 173.0Q824 84 910 -65ZM270 290V217H536V290ZM226 52 254 -19 574 121 546 192Z" transform="translate(0, 880) scale(1,-1)" /></svg>