<svg xmlns="http://www.w3.org/2000/svg" width="1000" height="1000"><path d="M456 411Q506 411 528.5 431.5Q551 452 551 497V833H472V509Q472 496 463.0 488.0Q454 480 438 480Q383 480 301 501V423Q382 411 456 411ZM115 458Q181 487 243.5 527.5Q306 568 347 610L276 645Q239 607 180.5 572.0Q122 537 59 514ZM62 672H942V744H62ZM939 506Q904 535 836.0 574.5Q768 614 704 644L650 597Q714 565 780.5 524.5Q847 484 882 455ZM446 -78Q488 -78 520.0 -56.0Q552 -34 552 3V194Q640 224 723.5 263.0Q807 302 868 342L808 387L791 382H129V313H691Q592 261 473 225V15Q473 2 462.0 -6.5Q451 -15 433 -15Q345 -15 271 7V-64Q312 -72 351.5 -75.0Q391 -78 446 -78ZM959 175Q800 188 570 188Q328 188 55 174V108Q292 119 517 119Q762 119 939 105Z" transform="translate(0, 880) scale(1,-1)" /></svg>