<svg xmlns="http://www.w3.org/2000/svg" width="1000" height="1000"><path d="M848 -81Q894 -81 920.5 -35.0Q947 11 961 129L893 150Q886 68 876.0 37.5Q866 7 845 7Q758 7 707.0 129.5Q656 252 634.0 424.0Q612 596 597 831H521Q531 582 558.0 387.5Q585 193 654.5 56.0Q724 -81 848 -81ZM217 -77Q255 -77 273.5 -57.0Q292 -37 292 9V834H219V12Q219 -10 200 -10Q156 -10 99 12V-66Q159 -77 217 -77ZM425 -51Q563 15 686.5 142.5Q810 270 881 422L819 459Q780 372 712.0 284.0Q644 196 554.5 122.0Q465 48 367 7ZM56 572H434V642H56ZM66 182Q153 245 291.5 311.0Q430 377 597.0 434.5Q764 492 931 527L923 597Q746 561 573.5 504.0Q401 447 260.5 381.5Q120 316 34 255ZM861 667Q841 696 802.0 736.0Q763 776 723 810L666 772Q704 739 742.5 696.5Q781 654 801 623Z" transform="translate(0, 880) scale(1,-1)" /></svg>