<svg xmlns="http://www.w3.org/2000/svg" width="1000" height="1000"><path d="M207 -67C254 -67 278 -44 278 19V834H209V22C209 8 204 0 191 0C166 0 134 7 99 22V-56C133 -63 169 -67 207 -67ZM65 573H395V641H65ZM406 391 378 456 44 263 75 194ZM451 754V-25H523V682C666 693 804 717 912 761L873 831C777 791 600 765 451 754ZM755 -63 822 -99C889 29 924 177 924 327C924 465 866 528 741 528C640 528 577 479 523 419V349C599 423 668 450 741 450C804 450 850 424 850 327C850 182 817 61 755 -63Z" transform="translate(0, 880) scale(1,-1)" /></svg>