<svg xmlns="http://www.w3.org/2000/svg" width="1000" height="1000"><path d="M357 368 403 325C503 361 585 423 585 475C585 526 518 552 419 552C334 552 259 523 259 476C259 427 311 396 447 396C664 396 856 431 856 538C856 633 753 670 563 670C531 670 491 667 441 657C583 692 707 727 846 771L799 812L765 806H124V744H590C512 719 379 680 264 649C208 633 156 621 110 608L146 558C287 596 398 612 549 612C690 612 775 583 775 538C775 463 630 446 478 446C394 446 335 454 335 475C335 492 379 502 419 502C467 502 507 490 507 471C507 442 467 401 357 368ZM779 -85C878 -85 922 -66 952 10L867 19C853 -15 836 -28 779 -28C542 -28 447 151 414 294L334 292C374 136 468 -85 779 -85ZM89 -12 133 -65C411 -33 694 36 838 111L777 152C664 89 401 20 89 -12ZM88 118 901 159 890 211 77 171ZM756 197 802 244C750 262 669 285 592 301L552 257C629 241 707 216 756 197ZM89 373V310H911V373Z" transform="translate(0, 880) scale(1,-1)" /></svg>