<svg xmlns="http://www.w3.org/2000/svg" width="1000" height="1000"><path d="M354 321Q434 314 506 314Q661 314 742.5 346.5Q824 379 849.5 426.5Q875 474 875 537Q875 597 845.0 642.5Q815 688 758.5 713.0Q702 738 624 738Q521 738 447.5 708.5Q374 679 294 612Q348 724 374 834L290 853Q257 727 197.5 610.0Q138 493 67 412L137 361Q201 441 245 519Q331 587 430.0 623.5Q529 660 616 660Q669 660 708.0 641.5Q747 623 766.5 594.5Q786 566 786 537Q786 469 734.0 429.0Q682 389 535 389Q457 389 354 402ZM101 -71Q286 -11 386.5 80.5Q487 172 521.0 275.5Q555 379 554 500H471Q470 379 442.0 290.0Q414 201 322.5 123.0Q231 45 52 -11ZM945 -22Q780 102 552 230L509 173Q612 114 712.0 48.0Q812 -18 889 -80Z" transform="translate(0, 880) scale(1,-1)" /></svg>