<svg xmlns="http://www.w3.org/2000/svg" width="1000" height="1000"><path d="M174 -77Q209 -77 226.0 -57.0Q243 -37 243 9V834H176V12Q176 -10 159 -10Q119 -10 71 12V-66Q121 -77 174 -77ZM64 574H322V640H64ZM333 392 305 455 44 262 74 195ZM885 -61Q922 -61 935.0 -26.0Q948 9 953 77L891 91Q889 48 885.0 32.0Q881 16 867 16H622Q612 16 608.0 20.0Q604 24 604 33Q604 91 639 584L574 610L563 601H335V526H563Q546 253 541.5 161.0Q537 69 537 24Q537 -13 543.0 -30.5Q549 -48 566.0 -54.5Q583 -61 619 -61ZM321 -76Q395 10 432.5 127.0Q470 244 483.5 403.5Q497 563 500 830L429 831Q425 566 412.5 418.0Q400 270 366.0 166.5Q332 63 262 -17ZM855 87Q906 87 922.5 182.0Q939 277 939 439Q939 544 914.0 597.5Q889 651 836 651Q742 651 657 615L664 541Q743 575 835 575Q857 575 868.5 536.0Q880 497 880 429Q880 336 871.0 247.0Q862 158 853 158Q814 158 783 171V91Q799 88 817.5 87.5Q836 87 855 87ZM672 80Q721 153 751.5 252.0Q782 351 800.0 490.0Q818 629 829 836L764 844Q756 645 739.0 513.0Q722 381 693.5 292.0Q665 203 619 135Z" transform="translate(0, 880) scale(1,-1)" /></svg>