<svg xmlns="http://www.w3.org/2000/svg" width="1000" height="1000"><path d="M186 -77Q221 -77 237.5 -57.0Q254 -37 254 9V834H188V12Q188 -10 171 -10Q131 -10 83 12V-66Q133 -77 186 -77ZM64 574H348V640H64ZM359 392 332 455 44 262 74 195ZM517 515Q508 570 487.0 643.5Q466 717 442 786L379 756Q399 698 419.0 618.5Q439 539 451 478ZM712 543Q700 658 651 838L583 815Q602 741 618.0 660.0Q634 579 641 517ZM862 476Q904 593 951 786L877 816Q864 743 842.0 656.5Q820 570 798 499ZM378 -84Q534 -51 643.5 5.5Q753 62 827.0 148.0Q901 234 947 359L883 402L862 393H519V325H851Q806 225 738.0 160.0Q670 95 573.0 54.5Q476 14 334 -14ZM776 148Q667 200 539 246L500 196Q619 151 724 97ZM388 156Q459 219 514.5 297.5Q570 376 608 459L543 483Q510 403 456.0 330.5Q402 258 332 200Z" transform="translate(0, 880) scale(1,-1)" /></svg>