<svg xmlns="http://www.w3.org/2000/svg" width="1000" height="1000"><path d="M407 390 467 358C567 397 667 472 667 549C667 599 616 652 503 652C385 652 344 602 344 557C344 511 408 464 546 464C758 464 878 532 878 654C878 749 814 821 599 821C396 821 276 782 183 737L221 680C315 722 443 754 599 754C745 754 791 705 791 654C791 569 712 521 546 521C462 521 426 533 426 557C426 579 449 598 503 598C553 598 584 581 584 549C584 477 513 434 407 390ZM163 801V487H244V801ZM368 137C425 225 576 323 753 323C827 323 853 293 853 176C853 80 834 -4 734 -4C693 -4 653 -1 607 9V-67C648 -70 689 -72 734 -72C890 -72 929 33 929 176C929 326 890 389 753 389C552 389 375 285 305 169C243 66 253 -48 355 -48C484 -48 531 29 546 121C565 248 530 392 355 392C269 392 205 352 162 274L193 411H114C83 183 83 62 94 -71H168C155 18 150 109 174 180C191 223 251 320 352 320C444 320 489 229 473 124C463 65 422 21 372 21C324 21 327 73 368 137ZM517 139H804V210H517Z" transform="translate(0, 880) scale(1,-1)" /></svg>