<svg xmlns="http://www.w3.org/2000/svg" width="1000" height="1000"><path d="M196 -77Q232 -77 249.0 -57.0Q266 -37 266 9V834H198V12Q198 -10 181 -10Q141 -10 90 12V-66Q143 -77 196 -77ZM65 574H360V640H65ZM382 391 354 456 44 263 75 194ZM632 37Q849 111 849 261Q849 340 809.5 384.5Q770 429 687 429Q656 429 623.0 413.5Q590 398 560 372Q587 422 623.5 544.0Q660 666 686 826L614 839Q592 670 543.5 516.0Q495 362 438 254L502 206Q580 353 687 353Q731 353 752.0 326.0Q773 299 773 261Q773 150 550 37ZM360 -36H947V37H360ZM393 547H918V620H393Z" transform="translate(0, 880) scale(1,-1)" /></svg>