<svg xmlns="http://www.w3.org/2000/svg" width="1000" height="1000"><path d="M236 -77Q275 -77 293.0 -57.0Q311 -37 311 9V834H238V12Q238 -10 219 -10Q177 -10 121 12V-66Q179 -77 236 -77ZM66 572H459V642H66ZM471 390 441 457 44 264 76 193ZM493 606Q580 623 673 623Q747 623 782.5 559.0Q818 495 818 360Q818 197 795.0 98.0Q772 -1 723 -1Q648 -1 603 20V-62Q655 -75 726 -75Q785 -75 821.5 -31.0Q858 13 876.0 108.5Q894 204 894 360Q894 487 868.5 562.0Q843 637 795.0 669.0Q747 701 673 701Q572 701 483 682ZM571 454V379H957V454ZM547 275V197H964V275Z" transform="translate(0, 880) scale(1,-1)" /></svg>