<svg xmlns="http://www.w3.org/2000/svg" width="1000" height="1000"><path d="M519 423H633C705 451 748 493 748 532C748 596 664 633 517 633C347 633 252 606 252 543C252 492 321 461 437 461C515 461 553 487 553 524V821H474V539C474 520 448 513 418 513C385 513 337 527 337 543C337 564 379 579 517 579C611 579 663 556 663 531C663 503 641 469 519 423ZM78 358H930V423H78ZM95 674H912V736H95ZM562 -30 609 -87C803 -64 936 3 936 108C936 228 756 276 532 276C258 276 66 190 66 63C66 -24 139 -64 275 -64C537 -64 732 94 773 355L699 361C666 125 482 0 283 0C188 0 141 24 141 63C141 148 310 208 532 208C687 208 857 186 857 102C857 37 751 -18 562 -30ZM482 9 543 63C391 94 316 163 324 364L246 367C238 127 326 46 482 9ZM462 152H537V331H462Z" transform="translate(0, 880) scale(1,-1)" /></svg>