<svg xmlns="http://www.w3.org/2000/svg" width="1000" height="1000"><path d="M167 580 237 607C222 662 189 741 161 801L95 777C125 719 154 636 167 580ZM351 603 417 580C442 631 477 714 501 784L429 808C411 741 376 657 351 603ZM87 566V495H493V566ZM56 345V275H521V345ZM231 525V-5H306V525ZM197 6 228 -60 517 50 487 116ZM627 166 672 104C860 205 922 246 922 333C922 407 854 465 681 503C794 566 880 636 961 753L897 794L885 780H548V705H828C753 620 674 560 559 511L567 449C786 408 842 364 842 333C842 294 794 252 627 166ZM905 -91 955 -29C870 37 691 143 555 208L521 146C652 81 823 -23 905 -91Z" transform="translate(0, 880) scale(1,-1)" /></svg>