<svg xmlns="http://www.w3.org/2000/svg" width="1000" height="1000"><path d="M354 75 416 51C512 103 645 181 715 229L657 287L635 279H414C461 329 490 371 525 436L442 443C406 375 360 316 296 256L343 203L367 212H572C521 170 441 122 354 75ZM877 -56 903 10C643 57 385 92 139 119L104 56C368 26 624 -11 877 -56ZM82 405H914V470H82ZM171 526H242V664C330 718 435 748 582 748C731 748 779 714 779 669C779 589 597 583 333 608V542C628 523 856 529 856 669C856 751 798 811 582 811C418 811 307 776 242 720V786H171ZM345 454 407 421C491 499 545 583 571 672L498 677C474 598 423 524 345 454Z" transform="translate(0, 880) scale(1,-1)" /></svg>