<svg xmlns="http://www.w3.org/2000/svg" width="1000" height="1000"><path d="M88 117 472 264 450 329 68 192ZM243 -72C288 -72 317 -51 317 17V825H249V37C249 13 240 0 227 0C200 0 172 4 136 18V-60C173 -69 207 -72 243 -72ZM76 420H463V495H76ZM156 548 217 576C204 636 171 729 140 798L82 771C112 700 144 607 156 548ZM339 574 397 551C422 610 451 701 476 779L412 804C395 733 366 634 339 574ZM642 334 697 380C654 440 604 499 549 558L498 514C552 456 600 395 642 334ZM699 527 754 573C711 633 661 692 606 751L555 707C609 649 658 588 699 527ZM476 265V191H934V265ZM769 834V-70H849V834Z" transform="translate(0, 880) scale(1,-1)" /></svg>