<svg xmlns="http://www.w3.org/2000/svg" width="1000" height="1000"><path d="M156 58Q151 156 151 234Q151 337 160 400Q169 473 192.0 543.0Q215 613 249 613Q272 613 287.0 545.5Q302 478 302 383Q302 363 300 323Q297 256 286.5 214.0Q276 172 260 172Q246 172 246 213Q246 244 253.0 288.0Q260 332 271 372Q290 443 331 478L318 555Q283 524 254.0 476.0Q225 428 209 363Q192 295 192 226Q192 165 208.0 127.5Q224 90 254 90Q309 90 330.5 147.5Q352 205 360 320Q363 358 363 396Q363 520 335.0 604.5Q307 689 250 689Q186 689 153 528L169 714H100Q86 435 86 254Q86 156 89 58ZM597 -81Q637 -81 655.0 -59.0Q673 -37 673 16V595H603V26Q603 12 597.5 2.0Q592 -8 583 -8Q537 -8 493 8V-72Q544 -83 597 -81ZM381 22 449 18Q448 136 460 262L391 267Q381 163 381 52ZM320 114H947V186H320ZM444 299H823V371H444ZM444 299H823V371H444ZM887 25Q884 149 868 268L800 260Q816 130 819 16ZM444 447H823V519H444ZM560 690Q551 722 533.5 764.0Q516 806 498 840L436 815Q453 780 470.5 735.5Q488 691 495 662ZM357 595H913V668H357ZM774 647Q806 716 842 821L772 844Q753 765 715 668Z" transform="translate(0, 880) scale(1,-1)" /></svg>