<svg xmlns="http://www.w3.org/2000/svg" width="1000" height="1000"><path d="M73 474 133 424C308 538 480 700 546 784L477 826C412 742 240 580 73 474ZM451 484 509 548C422 625 285 728 191 782L136 728C233 667 370 564 451 484ZM302 -66C360 -66 392 -34 392 23V497H315V35C315 17 305 3 287 3C242 3 198 11 152 29V-50C200 -61 244 -66 302 -66ZM65 171 81 95 536 195 520 271ZM525 476 597 442C637 546 674 677 704 809L632 828C603 693 565 572 525 476ZM482 -10 532 -64C726 45 880 230 927 622L878 656L861 643H606V566H845C799 272 673 96 482 -10ZM898 -75 953 -13C824 162 718 280 597 374L553 319C673 220 774 104 898 -75ZM62 398V324H516V398Z" transform="translate(0, 880) scale(1,-1)" /></svg>