<svg xmlns="http://www.w3.org/2000/svg" width="1000" height="1000"><path d="M174 -77C218 -77 241 -54 241 9V834H176V12C176 -2 171 -10 158 -10C134 -10 104 -3 70 12V-66C103 -73 137 -77 174 -77ZM64 574H329V640H64ZM344 392 316 455 44 262 74 195ZM742 684 774 748C683 787 603 819 531 844L493 782C566 758 649 726 742 684ZM699 470C397 470 305 355 305 280C305 214 347 179 420 179C557 179 709 421 836 635L778 679L758 668H358V596H734C644 438 492 246 420 246C389 246 375 257 375 280C375 311 419 399 697 399C798 399 858 357 858 278C858 179 782 128 695 128C649 128 633 148 633 169C633 189 649 204 674 204C697 204 715 190 715 160C715 121 686 51 620 1H297V-71H940V1H687C746 55 777 113 777 159C777 224 731 262 674 262C615 262 571 225 571 169C571 108 614 66 695 66C821 66 935 128 935 278C935 404 846 470 699 470Z" transform="translate(0, 880) scale(1,-1)" /></svg>