<svg xmlns="http://www.w3.org/2000/svg" width="1000" height="1000"><path d="M88 117 472 264 450 329 68 192ZM243 -72Q279 -72 298.0 -52.0Q317 -32 317 17V825H249V37Q249 19 243.0 9.5Q237 0 227 0Q182 0 136 18V-60Q185 -72 243 -72ZM76 420H463V495H76ZM217 576Q207 620 185.5 682.5Q164 745 140 798L82 771Q105 715 126.0 653.0Q147 591 156 548ZM397 551Q421 608 476 779L412 804Q398 745 378.0 680.5Q358 616 339 574ZM697 380Q637 463 549 558L498 514Q575 431 642 334ZM754 573Q694 656 606 751L555 707Q638 618 699 527ZM476 265V191H934V265ZM769 834V-70H849V834Z" transform="translate(0, 880) scale(1,-1)" /></svg>