<svg xmlns="http://www.w3.org/2000/svg" width="1000" height="1000"><path d="M124 444 198 385C389 483 629 530 883 544L873 617C589 600 342 537 225 478C253 561 360 664 439 759L382 804L348 792H106V716H295C244 650 171 545 124 444ZM327 25 371 -42C446 10 526 79 526 152C526 241 445 292 334 292C222 292 141 244 87 197L131 139C178 180 252 218 334 218C394 218 444 186 444 152C444 104 377 56 327 25ZM890 -62 932 4C681 108 648 384 648 829H567C567 368 617 40 890 -62ZM526 188 580 130C713 210 838 308 940 408L885 454C786 354 662 263 526 188Z" transform="translate(0, 880) scale(1,-1)" /></svg>