<svg xmlns="http://www.w3.org/2000/svg" width="1000" height="1000"><path d="M456 403Q506 403 528.5 423.5Q551 444 551 489V823H472V501Q472 488 463.0 480.0Q454 472 438 472Q383 472 301 493V415Q382 403 456 403ZM115 450Q180 478 243.0 518.5Q306 559 347 601L276 636Q239 599 180.5 563.5Q122 528 59 505ZM62 663H942V735H62ZM939 498Q904 526 836.5 565.5Q769 605 704 635L650 588Q715 555 781.5 515.0Q848 475 882 447ZM468 -28Q549 1 607.5 49.0Q666 97 666 147Q666 171 648.0 193.5Q630 216 593.5 230.0Q557 244 503 244Q422 244 383.5 217.5Q345 191 345 155Q345 133 367.5 113.0Q390 93 435.5 80.0Q481 67 546 67Q705 67 791.5 112.0Q878 157 878 242Q878 314 815.0 355.5Q752 397 601 397Q461 397 362.0 375.0Q263 353 182 316L220 261Q297 294 394.0 313.5Q491 333 601 333Q702 333 746.5 306.5Q791 280 791 242Q791 122 546 122Q484 122 455.0 130.0Q426 138 426 155Q426 171 445.5 181.5Q465 192 503 192Q541 192 562.5 180.5Q584 169 584 147Q584 102 541.0 69.5Q498 37 409 3ZM163 376V88H244V376ZM74 25V-48H926V25Z" transform="translate(0, 880) scale(1,-1)" /></svg>