<svg xmlns="http://www.w3.org/2000/svg" width="1000" height="1000"><path d="M174 -77C219 -77 243 -54 243 9V834H176V12C176 -2 171 -10 159 -10C134 -10 104 -3 71 12V-66C103 -73 138 -77 174 -77ZM64 574H322V640H64ZM333 392 305 455 44 262 74 195ZM619 -61H885C939 -61 948 2 953 77L891 91C889 40 887 16 867 16H622C609 16 604 21 604 33C604 53 604 91 639 584L574 610L563 601H335V526H563C538 125 537 73 537 24C537 -47 549 -61 619 -61ZM262 -17 321 -76C473 101 494 350 500 830L429 831C422 351 404 145 262 -17ZM855 87C931 87 939 268 939 439C939 576 908 651 836 651C774 651 716 640 657 615L664 541C722 566 779 575 835 575C865 575 880 518 880 429C880 304 865 158 853 158C830 158 807 161 783 171V91C807 86 829 87 855 87ZM619 135 672 80C770 227 807 438 829 836L764 844C748 448 709 269 619 135Z" transform="translate(0, 880) scale(1,-1)" /></svg>