<svg xmlns="http://www.w3.org/2000/svg" width="1000" height="1000"><path d="M393 88 431 142C291 214 245 393 293 840L220 849C167 357 245 163 393 88ZM363 294H434V564H363ZM78 646H735V721H78ZM747 460C823 460 849 423 849 347C849 193 718 16 663 16C642 16 623 39 623 84C623 120 642 158 680 158C742 158 783 43 899 -84L947 -18C823 95 779 236 680 236C610 236 552 178 552 86C552 -3 601 -61 665 -61C747 -61 917 148 917 347C917 486 857 535 747 535C496 535 66 331 66 116C66 1 154 -49 233 -49C440 -49 586 211 618 590L545 598C519 266 393 23 239 23C191 23 140 52 140 116C140 277 536 460 747 460Z" transform="translate(0, 880) scale(1,-1)" /></svg>