<svg xmlns="http://www.w3.org/2000/svg" width="1000" height="1000"><path d="M89 58H156C150 179 147 304 160 400C168 465 197 613 249 613C286 613 308 469 300 323C296 237 282 172 260 172C234 172 249 288 271 372C283 416 301 452 331 478L318 555C276 518 232 456 209 363C176 227 189 90 254 90C333 90 351 187 360 320C372 492 345 689 250 689C206 689 175 634 153 528L169 714H100C84 404 84 239 89 58ZM597 -81C650 -81 673 -56 673 16V595H603V26C603 7 596 -8 583 -8C560 -8 526 -4 493 8V-72C526 -79 568 -82 597 -81ZM381 22 449 18C448 100 452 181 460 262L391 267C383 185 380 105 381 22ZM320 114H947V186H320ZM444 299H823V371H444ZM444 299H823V371H444ZM819 16 887 25C885 107 879 187 868 268L800 260C810 179 817 98 819 16ZM444 447H823V519H444ZM495 662 560 690C548 731 522 794 498 840L436 815C458 770 485 703 495 662ZM357 595H913V668H357ZM715 668 774 647C796 695 824 768 842 821L772 844C760 792 736 720 715 668Z" transform="translate(0, 880) scale(1,-1)" /></svg>