<svg xmlns="http://www.w3.org/2000/svg" width="1000" height="1000"><path d="M265 -62C510 -62 615 231 646 568L567 574C543 268 456 13 265 13C202 13 143 70 143 145C143 340 480 403 750 412V39H646V-38H934V39H830V464L776 500L755 484C409 486 66 375 66 145C66 19 175 -62 265 -62ZM434 77 486 130C369 222 301 347 342 569L263 577C224 336 303 164 434 77ZM371 589 442 624C405 701 358 768 294 838L222 804C286 734 336 666 371 589ZM557 620 617 586C684 660 728 717 774 812L689 844C652 755 617 692 557 620Z" transform="translate(0, 880) scale(1,-1)" /></svg>