<svg xmlns="http://www.w3.org/2000/svg" width="1000" height="1000"><path d="M79 -79Q278 -60 459.5 -16.5Q641 27 762.5 103.0Q884 179 884 286Q884 365 812.5 420.0Q741 475 571 475Q374 475 273.5 425.0Q173 375 173 287Q173 246 197.5 211.0Q222 176 262.0 155.0Q302 134 347 134Q404 134 461.0 165.5Q518 197 554.5 251.0Q591 305 591 369V839H512V369Q512 324 490.0 286.5Q468 249 430.0 227.0Q392 205 347 205Q309 205 282.5 228.0Q256 251 256 287Q256 404 571 404Q798 404 798 287Q798 200 677.5 140.0Q557 80 387.0 47.5Q217 15 43 1ZM123 418Q240 564 309 798L232 813Q203 708 156.5 614.0Q110 520 52 458ZM203 584H894V657H203Z" transform="translate(0, 880) scale(1,-1)" /></svg>