<svg xmlns="http://www.w3.org/2000/svg" width="1000" height="1000"><path d="M806 368Q848 368 872.5 381.0Q897 394 910.5 428.0Q924 462 931 527L864 540Q860 497 854.5 476.5Q849 456 838.0 449.0Q827 442 805 442Q699 442 608.0 496.5Q517 551 460.0 641.5Q403 732 393 837H319Q331 711 398.0 603.0Q465 495 572.5 431.5Q680 368 806 368ZM144 374Q360 406 543.5 460.5Q727 515 842 611L783 654Q674 566 488.0 516.5Q302 467 104 446ZM91 627 901 695 892 763 82 698ZM456 -79Q506 -79 528.5 -58.0Q551 -37 551 9V406H472V21Q472 8 463.0 -0.5Q454 -9 438 -9Q381 -9 301 13V-67Q382 -79 456 -79ZM115 -19Q181 15 243.5 62.0Q306 109 347 159L274 192Q237 147 178.5 105.5Q120 64 57 37ZM62 230H942V304H62ZM941 28Q906 61 838.5 107.5Q771 154 706 190L650 143Q713 107 780.0 59.0Q847 11 882 -23Z" transform="translate(0, 880) scale(1,-1)" /></svg>