<svg xmlns="http://www.w3.org/2000/svg" width="1000" height="1000"><path d="M456 438Q506 438 528.5 458.5Q551 479 551 524V813H472V535Q472 522 463.0 514.0Q454 506 438 506Q381 506 301 528V450Q382 438 456 438ZM115 452Q180 479 243.0 518.0Q306 557 347 598L277 634Q240 598 181.5 564.0Q123 530 60 508ZM62 658H942V730H62ZM938 500Q903 527 835.5 565.0Q768 603 703 633L650 585Q715 554 781.5 515.5Q848 477 882 449ZM74 7Q461 122 696 211L667 272Q534 223 362.5 169.0Q191 115 39 75ZM297 -78H369V429H297ZM950 66Q784 119 585 157L560 99Q752 56 908 -1ZM631 -78H703V429H631ZM73 275H927V346H73Z" transform="translate(0, 880) scale(1,-1)" /></svg>