<svg xmlns="http://www.w3.org/2000/svg" width="1000" height="1000"><path d="M39 515 74 449C275 498 526 562 696 615L667 674C496 624 249 559 39 515ZM297 416H369V821H297ZM908 443 948 508C836 537 715 562 583 582L560 524C686 501 802 474 908 443ZM631 416H703V821H631ZM73 669H927V738H73ZM211 -68H817C887 -68 914 -29 932 82L857 90C849 10 832 -3 798 -3H243C204 -3 192 1 192 10C192 25 213 36 862 205L815 273L794 269H154V203L632 204C111 77 86 48 86 2C86 -40 110 -68 211 -68ZM652 263 696 321C594 353 478 383 341 414L305 357C440 327 556 295 652 263Z" transform="translate(0, 880) scale(1,-1)" /></svg>