<svg xmlns="http://www.w3.org/2000/svg" width="1000" height="1000"><path d="M69 601V527H410V601ZM53 202 108 160 121 181 415 280 401 355 162 272 260 534 208 564ZM210 -72Q291 -72 291 16V814H218V35Q218 18 211.0 8.5Q204 -1 193 -1Q151 -1 101 20V-60Q150 -72 210 -72ZM404 -25 433 -8 871 30 866 103 519 74Q606 188 694.0 340.5Q782 493 895 720L820 763Q706 515 624.5 361.5Q543 208 479 131Q456 102 428.5 81.0Q401 60 383 54ZM607 481Q552 594 453 745L389 695Q485 559 538 440ZM950 -42Q893 121 809 273L745 243Q784 172 815.0 97.5Q846 23 881 -73Z" transform="translate(0, 880) scale(1,-1)" /></svg>