<svg xmlns="http://www.w3.org/2000/svg" width="1000" height="1000"><path d="M58 -8 123 -51C203 -5 291 67 342 141L264 160C219 95 138 32 58 -8ZM126 190H873V259H126ZM866 -48 932 -9C885 41 784 113 704 163L641 130C722 77 820 0 866 -48ZM136 323H863V392H136ZM206 454H793V523H206ZM88 526 147 477C223 520 306 584 353 652L283 681C241 620 163 564 88 526ZM849 479 909 526C865 571 770 638 693 683L636 641C712 594 806 523 849 479ZM541 5V843H463V9C463 -3 457 -11 443 -11C409 -11 372 -4 333 12V-71C369 -77 412 -82 465 -82C517 -82 541 -57 541 5ZM84 691H916V760H84Z" transform="translate(0, 880) scale(1,-1)" /></svg>