<svg xmlns="http://www.w3.org/2000/svg" width="1000" height="1000"><path d="M536 743H76V670H536ZM346 567V836H266V567ZM498 599H114V527H498ZM114 -77Q191 -23 257.5 38.5Q324 100 364.5 155.5Q405 211 405 245Q405 284 380.5 310.0Q356 336 305 336Q252 336 228.5 312.0Q205 288 205 253Q205 219 239.0 195.5Q273 172 332 172Q428 172 482.5 214.5Q537 257 537 340Q537 413 500.0 453.5Q463 494 372 494Q299 494 226.5 474.0Q154 454 100 422L136 375Q181 397 249.0 412.0Q317 427 372 427Q423 427 442.5 403.5Q462 380 462 340Q462 280 430.5 253.0Q399 226 328 226Q266 226 266 253Q266 266 275.0 274.5Q284 283 304 283Q324 283 335.5 273.5Q347 264 347 247Q347 204 260.0 126.5Q173 49 58 -20ZM92 476V185H162V476ZM599 442Q654 586 705 809L633 831Q592 632 528 479ZM566 -64Q705 30 799.0 190.5Q893 351 925 622L877 656L860 643H609V566H844Q783 168 516 -10ZM951 -13Q854 121 771.0 213.0Q688 305 601 374L557 319Q645 245 725.0 152.0Q805 59 896 -75ZM321 144V-24H388V144ZM275 -30 314 -86 545 54 506 110Z" transform="translate(0, 880) scale(1,-1)" /></svg>