<svg xmlns="http://www.w3.org/2000/svg" width="1000" height="1000"><path d="M228 -27Q176 104 176 198Q176 256 195 303Q223 373 223 428Q223 494 180 556L97 537Q140 463 140 403Q140 358 117 309Q93 258 93 191Q93 93 143 -36ZM300 703Q270 725 217.0 756.0Q164 787 117 811L75 755Q121 729 173.5 695.5Q226 662 256 639ZM946 -7Q883 13 830.5 44.5Q778 76 713 125Q658 165 622.0 188.0Q586 211 543.0 226.5Q500 242 452 242Q379 242 333.0 200.0Q287 158 287 91Q287 25 328.5 -14.0Q370 -53 435 -53Q527 -53 622.0 5.0Q717 63 779.0 144.5Q841 226 841 287Q841 370 787.0 408.0Q733 446 617 446Q560 446 501.0 434.5Q442 423 389 402L414 327Q455 347 510.0 359.5Q565 372 617 372Q757 372 757 287Q757 241 705.5 177.0Q654 113 578.5 67.0Q503 21 435 21Q399 21 381.0 39.5Q363 58 363 91Q363 122 389.5 145.5Q416 169 452 169Q506 169 553.5 142.5Q601 116 671 60Q737 7 791.0 -27.5Q845 -62 912 -84ZM544 393H630V840H544ZM326 540Q409 593 506.5 619.5Q604 646 697 646Q776 646 815.0 629.0Q854 612 854 590Q854 549 828 513L906 482Q921 508 927.0 532.0Q933 556 933 591Q933 662 873.5 692.5Q814 723 697 723Q588 723 481.0 693.5Q374 664 283 609Z" transform="translate(0, 880) scale(1,-1)" /></svg>