<svg xmlns="http://www.w3.org/2000/svg" width="1000" height="1000"><path d="M279 625 338 663C311 703 255 761 202 804L147 770C198 727 253 667 279 625ZM463 596H537V841H463ZM651 660 707 625C754 663 815 724 860 775L795 810C760 761 699 699 651 660ZM811 414 884 387C908 425 919 459 919 504C919 591 805 622 617 622C426 622 269 580 162 509V601H84V404H162V455C269 522 453 548 617 548C786 548 838 522 838 503C838 473 832 446 811 414ZM462 -77C514 -76 546 -51 546 11V443H469V23C469 0 457 -14 435 -15C387 -16 335 -7 276 15V-57C335 -73 387 -78 462 -77ZM53 115H947V182H53ZM116 258H884V322H116ZM213 444 226 385C389 384 630 397 786 436L748 492C621 460 384 445 213 444Z" transform="translate(0, 880) scale(1,-1)" /></svg>