<svg xmlns="http://www.w3.org/2000/svg" width="1000" height="1000"><path d="M710 -77Q822 -77 869.0 78.5Q916 234 916 522L915 599Q914 681 867.0 723.5Q820 766 740.5 780.5Q661 795 537 795Q376 795 235 767L237 697Q364 723 539 723Q694 723 763.5 692.0Q833 661 835 592L836 523Q836 286 800.5 143.0Q765 0 695 0Q627 0 552 20V-67Q647 -77 710 -77ZM126 -58Q192 158 220.0 348.0Q248 538 250 788H172Q169 539 140.0 353.5Q111 168 37 -30ZM412 123Q467 375 472 642L399 647Q394 381 339 130ZM787 306Q582 340 320 340H263L258 269Q278 270 320 270Q432 270 552.5 259.5Q673 249 778 232ZM612 113Q667 365 672 632L599 637Q594 371 539 120ZM811 519Q606 553 344 553H287L282 482Q302 483 344 483Q456 483 576.5 472.5Q697 462 802 445Z" transform="translate(0, 880) scale(1,-1)" /></svg>