<svg xmlns="http://www.w3.org/2000/svg" width="1000" height="1000"><path d="M223 -27Q172 105 172 197Q172 252 191 303Q218 374 218 427Q218 494 176 556L96 537Q138 462 138 404Q138 360 115 309Q92 257 92 191Q92 93 140 -36ZM292 703Q262 725 211.0 756.0Q160 787 115 811L75 755Q118 730 169.0 696.0Q220 662 249 639ZM292 -79Q444 -60 583.5 -16.5Q723 27 817.0 103.0Q911 179 911 286Q911 334 886.5 377.0Q862 420 805.5 447.5Q749 475 658 475Q512 475 434.0 424.5Q356 374 356 287Q356 248 375.0 214.0Q394 180 427.5 159.5Q461 139 500 139Q555 139 597.5 168.5Q640 198 664.0 250.5Q688 303 688 369V839H610V369Q610 299 580.5 254.5Q551 210 500 210Q472 210 452.5 232.0Q433 254 433 287Q433 337 484.5 370.5Q536 404 658 404Q754 404 791.5 369.5Q829 335 829 287Q829 200 739.5 140.0Q650 80 523.0 47.5Q396 15 266 1ZM335 419Q424 566 475 799L399 812Q377 706 342.0 612.5Q307 519 263 457ZM386 584H915V657H386Z" transform="translate(0, 880) scale(1,-1)" /></svg>