<svg xmlns="http://www.w3.org/2000/svg" width="1000" height="1000"><path d="M848 -81C906 -81 942 -34 961 129L893 150C884 39 872 7 845 7C657 7 619 476 597 831H521C537 445 580 -81 848 -81ZM217 -77C267 -77 292 -54 292 9V834H219V12C219 -2 214 -10 200 -10C172 -10 138 -3 99 12V-66C137 -73 176 -77 217 -77ZM425 -51C608 36 786 218 881 422L819 459C744 291 572 93 367 7ZM56 572H434V642H56ZM66 182C238 307 588 454 931 527L923 597C558 523 203 376 34 255ZM801 623 861 667C833 708 772 768 723 810L666 772C715 729 774 665 801 623Z" transform="translate(0, 880) scale(1,-1)" /></svg>