<svg xmlns="http://www.w3.org/2000/svg" width="1000" height="1000"><path d="M122 -39H878V32H122ZM125 458 299 547 274 605 100 527ZM380 575V510C724 465 906 497 906 626C906 720 781 755 592 755C414 755 211 726 91 686L103 621C222 660 423 681 592 681C740 681 826 667 826 626C826 566 716 542 380 575ZM594 363C762 363 831 326 831 277C831 205 757 152 600 152C520 152 486 164 486 187C486 208 508 226 559 226C606 226 636 210 636 179C636 110 567 55 467 12L525 -18C620 20 714 104 714 179C714 227 667 279 559 279C446 279 408 230 408 187C408 142 469 97 600 97C801 97 916 169 916 277C916 369 828 431 594 431C326 431 103 334 103 208C103 144 145 80 228 80C281 80 331 129 357 218C405 381 452 609 465 814L391 818C376 612 345 390 285 215C269 168 244 146 220 146C191 146 174 167 174 208C174 272 344 363 594 363Z" transform="translate(0, 880) scale(1,-1)" /></svg>