<svg xmlns="http://www.w3.org/2000/svg" width="1000" height="1000"><path d="M929 362 947 429C790 442 649 578 534 578C440 578 397 535 397 477C397 411 444 373 521 373C673 373 839 613 897 737L839 763L825 760H556V690H787C758 616 613 436 521 436C482 436 466 450 466 477C466 503 482 516 534 516C641 516 743 390 929 362ZM86 10H163V772H86ZM347 14 405 -25C460 24 518 100 555 175L490 196C456 128 404 61 347 14ZM244 130H316V722H244ZM631 -78C673 -78 705 -61 705 0V408H632V2C632 -9 628 -13 616 -13C590 -13 557 -7 521 8V-67C559 -75 597 -78 631 -78ZM407 233H933V299H407ZM895 -15 952 22C926 71 871 143 817 196L764 164C815 110 871 35 895 -15ZM345 598 404 550C521 644 583 706 644 825L566 841C517 735 444 665 345 598Z" transform="translate(0, 880) scale(1,-1)" /></svg>