<svg xmlns="http://www.w3.org/2000/svg" width="1000" height="1000"><path d="M619 444Q638 477 638 509Q638 537 621.0 562.5Q604 588 569.0 603.5Q534 619 483 619Q406 619 369.5 589.0Q333 559 333 518Q333 492 354.5 469.5Q376 447 419.0 433.0Q462 419 524 419Q672 419 754.5 475.0Q837 531 837 630Q837 709 760.5 755.0Q684 801 532 801Q342 801 182 741L203 672Q276 698 362.5 714.5Q449 731 532 731Q602 731 652.0 717.5Q702 704 728.0 681.0Q754 658 754 630Q754 560 696.0 519.5Q638 479 524 479Q410 479 410 518Q410 537 428.5 549.5Q447 562 483 562Q519 562 539.0 548.0Q559 534 559 509Q559 481 549 460ZM157 786V444H231V786ZM124 344V2H198V344ZM87 10 107 -55 382 34 362 99ZM434 372V4H509V372ZM405 16 425 -53 744 56 724 125ZM968 16Q895 181 797 345L735 312Q828 150 901 -20Z" transform="translate(0, 880) scale(1,-1)" /></svg>