<svg xmlns="http://www.w3.org/2000/svg" width="1000" height="1000"><path d="M183 -27Q143 103 143 197Q143 253 157 303Q178 371 178 427Q178 494 145 556L75 537Q108 464 108 404Q108 361 90 309Q71 255 71 191Q71 98 109 -36ZM234 703Q209 725 169.0 756.5Q129 788 94 811L53 760Q88 734 128.0 700.5Q168 667 191 644ZM693 -74Q766 -72 806.0 -15.5Q846 41 846 147Q846 243 801.5 291.5Q757 340 677 340Q592 340 520 288Q580 368 616 467H780V539H391V467H540Q510 364 458 276Q448 255 408 221L384 198L430 141Q496 205 554.0 235.0Q612 265 679 265Q726 265 748.5 236.0Q771 207 771 143Q771 75 747.0 34.0Q723 -7 690 -8Q645 -9 601 20V-57Q640 -76 693 -74ZM266 -29H336V748H266ZM545 609Q504 705 444 816L381 779Q442 669 485 571ZM962 274Q951 333 929.0 419.0Q907 505 883 574L816 549Q839 479 860.0 391.5Q881 304 890 246ZM692 577Q747 671 794 791L727 823Q698 733 629 610Z" transform="translate(0, 880) scale(1,-1)" /></svg>