<svg xmlns="http://www.w3.org/2000/svg" width="1000" height="1000"><path d="M236 -77C287 -77 311 -54 311 9V834H238V12C238 -2 233 -10 219 -10C192 -10 159 -3 121 12V-66C158 -73 196 -77 236 -77ZM66 572H459V642H66ZM471 390 441 457 44 264 76 193ZM483 682 493 606C549 617 614 623 673 623C772 623 818 540 818 360C818 158 792 -1 723 -1C674 -1 635 5 603 20V-62C635 -70 671 -75 726 -75C842 -75 894 49 894 360C894 619 814 701 673 701C606 701 539 694 483 682ZM571 454V379H957V454ZM547 275V197H964V275Z" transform="translate(0, 880) scale(1,-1)" /></svg>