<svg xmlns="http://www.w3.org/2000/svg" width="1000" height="1000"><path d="M147 376 171 386H924V454H296L315 464Q468 545 575.0 609.5Q682 674 830 788L750 831L716 816H204V748H669Q553 663 426.5 593.0Q300 523 120 439ZM88 -49Q168 -16 333.0 66.0Q498 148 589 205L541 257Q439 194 281.5 116.0Q124 38 51 11ZM512 -86Q544 -86 568.0 -69.5Q592 -53 592 -17V517H513V416Q357 304 168 237L200 184L246 198H514L513 -1Q513 -11 506.5 -17.0Q500 -23 488 -23Q436 -23 364 -7V-76Q434 -86 512 -86ZM339 250 513 343 514 250ZM955 9Q879 52 779.0 96.5Q679 141 591 168V104Q685 68 763.0 33.0Q841 -2 906 -42ZM937 221Q908 240 856.0 264.5Q804 289 756 307L720 255Q769 236 820.0 210.5Q871 185 899 165ZM77 592H924V660H77Z" transform="translate(0, 880) scale(1,-1)" /></svg>