<svg xmlns="http://www.w3.org/2000/svg" width="1000" height="1000"><path d="M530 315Q634 345 726.0 398.5Q818 452 874.0 513.5Q930 575 930 628Q930 692 881.5 726.5Q833 761 715 761Q523 761 377.0 732.5Q231 704 148.5 647.5Q66 591 66 508Q66 458 91.5 421.0Q117 384 158.5 364.5Q200 345 246 345Q401 345 485.0 478.5Q569 612 593 820L514 825Q496 639 432.0 528.5Q368 418 246 418Q200 418 172.0 441.5Q144 465 144 508Q144 570 220.0 611.5Q296 653 425.0 673.0Q554 693 715 693Q794 693 824.5 676.5Q855 660 855 628Q855 589 802.0 538.5Q749 488 666.0 443.0Q583 398 499 374ZM456 -80Q545 -80 545 5V381H468L471 16Q471 -14 438 -14Q375 -14 295 4V-70Q383 -80 456 -80ZM50 81H953V149H50ZM117 214H896V280H117ZM446 497Q378 540 341.5 596.5Q305 653 305 731Q305 769 316 821L238 827Q229 781 229 739Q229 640 273.0 564.0Q317 488 393 447ZM959 384Q806 507 638 584L594 535Q765 446 909 319Z" transform="translate(0, 880) scale(1,-1)" /></svg>