<svg xmlns="http://www.w3.org/2000/svg" width="1000" height="1000"><path d="M590 -44Q639 -44 672.0 -14.0Q705 16 705 67Q705 116 674.0 179.0Q643 242 594 305L523 278Q570 218 598.5 163.0Q627 108 627 76Q627 53 614.5 40.0Q602 27 579 27H214Q193 27 180.0 36.0Q167 45 167 57Q167 134 200.0 252.5Q233 371 336 524L260 550Q182 437 143.0 338.0Q104 239 94.0 169.0Q84 99 84 33Q84 -9 115.5 -26.5Q147 -44 214 -44ZM890 90Q905 145 912.0 200.0Q919 255 919 351Q919 435 863.0 484.0Q807 533 719 533Q632 533 561.0 516.0Q490 499 424 464L448 396Q507 429 577.0 445.5Q647 462 719 462Q775 462 810.0 428.5Q845 395 845 339Q845 265 838.5 211.5Q832 158 818 108ZM91 703H829V775H91Z" transform="translate(0, 880) scale(1,-1)" /></svg>