<svg xmlns="http://www.w3.org/2000/svg" width="1000" height="1000"><path d="M633 -78C703 -78 767 -36 783 33C819 188 831 431 825 607C820 755 737 808 590 808C491 808 388 794 275 765L277 686C404 719 503 728 591 728C677 728 737 686 740 601C745 460 733 193 705 63C697 24 668 -1 622 -1C571 -1 524 4 469 21V-65C526 -74 581 -78 633 -78ZM156 -58C280 222 302 446 310 806H226C218 440 205 257 66 -31ZM671 252 672 327 343 331 342 256ZM680 468 681 544 360 548 359 471Z" transform="translate(0, 880) scale(1,-1)" /></svg>