<svg xmlns="http://www.w3.org/2000/svg" width="1000" height="1000"><path d="M375 683Q357 714 321.5 754.0Q286 794 249 828L190 792Q226 758 260.0 717.0Q294 676 312 644ZM668 644Q700 673 739.5 715.0Q779 757 810 797L742 833Q718 798 680.5 755.0Q643 712 608 680ZM120 659V582H880V659ZM314 616V278H386V616ZM284 375Q272 410 243.5 456.5Q215 503 182 546L115 516Q141 480 169.0 430.5Q197 381 215 341ZM594 372Q576 448 510 558L439 534Q465 488 487.0 436.5Q509 385 519 346ZM763 344Q794 383 826.0 434.5Q858 486 884 535L805 565Q787 520 757.0 465.5Q727 411 696 365ZM92 312V237H908V312ZM591 200Q374 200 149 50L202 -5Q299 61 398.0 96.0Q497 131 591 131Q670 131 710.5 115.0Q751 99 751 72Q751 0 598 -15L639 -80Q730 -64 785.0 -25.5Q840 13 840 72Q840 136 774.0 168.0Q708 200 591 200Z" transform="translate(0, 880) scale(1,-1)" /></svg>