<svg xmlns="http://www.w3.org/2000/svg" width="1000" height="1000"><path d="M590 -17Q639 -17 672.0 16.5Q705 50 705 108Q705 162 674.0 232.5Q643 303 594 373L523 342Q571 275 599.0 214.0Q627 153 627 116Q627 91 614.5 76.5Q602 62 579 62H234Q205 62 186.0 80.5Q167 99 167 127Q167 255 212.5 420.0Q258 585 339 742L263 771Q175 610 129.5 434.5Q84 259 84 101Q84 39 122.0 11.0Q160 -17 234 -17ZM891 132Q906 189 914.0 256.5Q922 324 922 425Q922 487 895.5 533.0Q869 579 822.5 603.0Q776 627 719 627Q631 627 560.0 608.5Q489 590 424 550L448 473Q508 511 577.5 529.5Q647 548 719 548Q775 548 810.0 510.5Q845 473 845 411Q845 330 838.0 270.0Q831 210 816 153Z" transform="translate(0, 880) scale(1,-1)" /></svg>