<svg xmlns="http://www.w3.org/2000/svg" width="1000" height="1000"><path d="M133 424Q255 504 373.0 609.0Q491 714 546 784L477 826Q423 756 306.5 652.0Q190 548 73 474ZM509 548Q441 608 350.0 675.5Q259 743 191 782L136 728Q213 680 303.0 611.0Q393 542 451 484ZM302 -66Q345 -66 368.5 -43.0Q392 -20 392 23V497H315V35Q315 21 307.5 12.0Q300 3 287 3Q218 3 152 29V-50Q222 -66 302 -66ZM65 171 81 95 536 195 520 271ZM597 442Q655 592 704 809L632 828Q590 631 525 476ZM532 -64Q692 26 793.0 186.0Q894 346 927 622L878 656L861 643H606V566H845Q811 351 720.5 211.5Q630 72 482 -10ZM953 -13Q854 121 770.0 213.0Q686 305 597 374L553 319Q643 245 724.0 152.5Q805 60 898 -75ZM62 398V324H516V398Z" transform="translate(0, 880) scale(1,-1)" /></svg>