<svg xmlns="http://www.w3.org/2000/svg" width="1000" height="1000"><path d="M806 368C886 368 918 398 931 527L864 540C857 455 846 442 807 442C586 441 414 626 393 837H319C343 584 547 368 806 368ZM104 446 144 374C363 407 669 467 842 611L783 654C620 522 309 468 104 446ZM91 627 901 695 892 763 82 698ZM456 -79C523 -79 551 -52 551 9V406H472V21C472 4 460 -9 438 -9C399 -9 348 0 301 13V-67C348 -74 402 -79 456 -79ZM57 37 115 -19C198 24 290 90 347 159L274 192C224 132 140 73 57 37ZM62 230H942V304H62ZM882 -23 941 28C893 74 789 144 706 190L650 143C734 95 835 23 882 -23Z" transform="translate(0, 880) scale(1,-1)" /></svg>