<svg xmlns="http://www.w3.org/2000/svg" width="1000" height="1000"><path d="M250 -62C298 -62 324 -25 324 33V516H251V44C251 20 243 6 229 6C203 6 169 12 136 24V-51C166 -58 200 -62 250 -62ZM66 131 499 227 480 291 46 200ZM292 411 293 353C403 375 491 452 491 549C491 660 406 699 328 699C277 699 231 675 206 655C243 709 281 758 334 805L259 845C170 725 116 645 95 572C77 508 74 438 101 357L175 374C147 442 145 494 167 557C183 601 238 632 294 632C354 632 410 597 410 548C410 486 389 434 292 411ZM850 -85C909 -85 936 -38 952 125L891 146C883 29 873 -3 849 -3C710 -3 675 447 661 827L589 826C604 440 645 -85 850 -85ZM444 14 490 -48C632 38 803 222 881 416L814 441C752 267 596 99 444 14ZM501 447 910 525 899 594 491 517ZM818 618 871 663C847 704 798 764 758 806L707 767C748 724 795 661 818 618Z" transform="translate(0, 880) scale(1,-1)" /></svg>