<svg xmlns="http://www.w3.org/2000/svg" width="1000" height="1000"><path d="M276 311Q377 353 435.5 412.5Q494 472 518.5 547.5Q543 623 545 723H474Q469 626 447.0 559.0Q425 492 372.5 440.5Q320 389 225 352ZM769 351Q721 393 645.5 447.5Q570 502 503 540L463 499Q522 463 593.0 409.0Q664 355 709 314ZM245 562H757V623H245ZM778 208Q826 208 850.5 226.0Q875 244 875 284V701Q875 753 842.0 782.0Q809 811 749 811H379Q227 811 163 761L182 698Q242 747 391 747H729Q802 747 802 684V303Q802 272 770 272Q725 272 662 292V221Q711 208 778 208ZM600 220V283H241Q197 283 197 327V811H127V303Q127 259 148.5 239.5Q170 220 213 220ZM114 -79Q163 -33 200.0 28.5Q237 90 254 154L178 177Q163 116 126.0 55.5Q89 -5 44 -45ZM524 -73Q556 -73 588.0 -58.5Q620 -44 664 -8L609 54Q586 29 569.5 19.0Q553 9 534 9Q521 9 511.5 22.0Q502 35 490.5 70.0Q479 105 462 175L384 157Q417 26 451.0 -23.5Q485 -73 524 -73ZM962 -44Q935 3 888.5 66.0Q842 129 798 178L729 142Q773 93 814.5 34.0Q856 -25 883 -75Z" transform="translate(0, 880) scale(1,-1)" /></svg>