<svg xmlns="http://www.w3.org/2000/svg" width="1000" height="1000"><path d="M647 -54C814 -54 917 92 917 274C917 475 790 541 588 541C542 541 499 539 464 534C562 591 717 679 817 752L754 798L727 790H186V718H634C549 653 435 584 299 510C279 499 213 474 156 448L200 389C309 441 430 474 569 474C725 474 836 427 836 272C836 147 765 15 641 15C583 15 529 25 473 46V-34C527 -48 582 -54 647 -54ZM103 154 163 101C302 186 411 297 463 413L386 429C340 319 239 227 103 154ZM183 -3 240 -58C435 29 612 174 660 408L586 423C536 224 371 73 183 -3Z" transform="translate(0, 880) scale(1,-1)" /></svg>