<svg xmlns="http://www.w3.org/2000/svg" width="1000" height="1000"><path d="M67 547V466H933V547ZM409 372Q392 435 359.0 519.5Q326 604 292 671L217 642Q249 578 281.0 491.5Q313 405 330 338ZM649 338Q678 394 714.5 478.0Q751 562 781 642L702 671Q681 601 646.0 515.5Q611 430 578 365ZM137 760V683H863V760ZM460 847V565H540V847ZM157 382V304H843V382ZM456 -79Q506 -79 528.5 -58.5Q551 -38 551 6V335H472V18Q472 5 463.0 -3.0Q454 -11 438 -11Q383 -11 301 10V-67Q382 -79 456 -79ZM115 -40Q179 -15 242.0 21.0Q305 57 347 94L278 132Q241 98 182.0 66.5Q123 35 61 15ZM62 151H942V222H62ZM937 9Q901 34 833.0 69.0Q765 104 702 130L650 83Q714 55 780.5 19.0Q847 -17 882 -42Z" transform="translate(0, 880) scale(1,-1)" /></svg>