<svg xmlns="http://www.w3.org/2000/svg" width="1000" height="1000"><path d="M84 346Q565 483 917 619L876 678Q510 539 51 414ZM113 391H193V764H113ZM951 416Q796 446 708.0 486.5Q620 527 571.0 607.0Q522 687 513 831H427Q431 683 487.0 586.5Q543 490 649.5 434.0Q756 378 921 350ZM339 584Q589 653 803 734L749 791Q514 702 290 647ZM456 -79Q506 -79 528.5 -58.0Q551 -37 551 10V424H472V21Q472 8 463.0 -0.5Q454 -9 438 -9Q378 -9 301 14V-67Q382 -79 456 -79ZM115 -18Q181 17 243.5 65.0Q306 113 347 163L274 196Q237 151 178.5 108.5Q120 66 57 38ZM62 236H942V310H62ZM941 29Q906 63 838.5 110.0Q771 157 706 194L650 147Q713 110 780.0 61.5Q847 13 882 -21Z" transform="translate(0, 880) scale(1,-1)" /></svg>