<svg xmlns="http://www.w3.org/2000/svg" width="1000" height="1000"><path d="M712 514Q681 443 619 369L665 302Q701 310 734 310Q786 310 811.5 289.5Q837 269 837 239Q837 203 785.5 169.5Q734 136 649.0 111.0Q564 86 466 75L517 12L552 19Q684 47 755.5 69.0Q827 91 873.0 131.5Q919 172 919 239Q919 309 871.5 346.0Q824 383 752 383Q732 383 712 380L817 527L770 596L755 588Q489 578 332.5 538.5Q176 499 114.5 447.0Q53 395 53 340Q53 267 95.5 230.0Q138 193 203 193Q389 193 714 755L657 813L631 799H113V719H601Q541 609 466.5 505.5Q392 402 321.5 337.0Q251 272 203 272Q168 272 149.5 289.5Q131 307 131 340Q131 368 180.5 403.0Q230 438 360.0 470.0Q490 502 712 514ZM591 -55Q570 -4 533.0 61.0Q496 126 456 182L389 149Q425 101 459.0 36.5Q493 -28 518 -89Z" transform="translate(0, 880) scale(1,-1)" /></svg>