<svg xmlns="http://www.w3.org/2000/svg" width="1000" height="1000"><path d="M224 -77Q262 -77 279.5 -57.0Q297 -37 297 9V834H226V12Q226 -10 207 -10Q165 -10 111 12V-66Q168 -77 224 -77ZM66 573H431V641H66ZM443 390 414 457 44 264 76 193ZM657 -78Q690 -78 716.0 -52.0Q742 -26 742 17V482Q794 533 842.5 599.5Q891 666 929 738L871 788L857 777H500V702H822Q793 649 755.0 599.0Q717 549 675 512V30Q675 15 667.0 5.0Q659 -5 647 -5Q593 -6 535 21V-62Q565 -71 592.5 -74.5Q620 -78 657 -78ZM959 396Q868 420 744 420Q616 420 459 395V322Q603 343 715 343Q848 343 948 316Z" transform="translate(0, 880) scale(1,-1)" /></svg>