<svg xmlns="http://www.w3.org/2000/svg" width="1000" height="1000"><path d="M285 -80Q338 -80 361.5 -19.5Q385 41 385 154Q385 256 345.0 433.5Q305 611 239 826L171 803Q234 597 273.0 423.0Q312 249 312 154Q312 70 300.5 31.5Q289 -7 265 -7Q227 -7 184 21V-62Q227 -80 285 -80ZM104 -70Q171 54 208.5 161.0Q246 268 271 405L206 423Q181 295 145.0 191.5Q109 88 46 -24ZM58 544H416V617H58ZM472 455Q501 528 525.5 625.5Q550 723 564 814L496 824Q483 734 459.0 641.0Q435 548 407 482ZM486 618H926L925 688H486ZM635 31Q690 81 748.5 139.0Q807 197 842 238L786 292L771 284H629Q658 344 682.0 411.5Q706 479 732 570L669 581Q643 488 611.5 409.0Q580 330 536 254L585 204L601 214H727Q673 141 579 57ZM961 -23Q712 52 441 100L415 37Q685 -12 941 -88ZM513 477V406H905V477Z" transform="translate(0, 880) scale(1,-1)" /></svg>