<svg xmlns="http://www.w3.org/2000/svg" width="1000" height="1000"><path d="M718 73C856 168 947 269 945 430C944 542 818 617 658 572C718 648 770 728 820 816L738 854C689 749 629 643 555 542C549 534 529 523 505 513L544 445C708 531 858 525 859 415C860 307 809 220 670 126ZM92 58H163C153 179 148 304 168 400C182 465 231 613 314 613C386 613 430 469 416 323C407 237 377 172 337 172C291 172 311 288 348 372C367 416 401 452 448 478L428 555C358 518 304 455 268 363C221 247 236 90 324 90C442 90 470 187 484 320C503 492 462 689 316 689C246 689 194 634 158 528L184 714H108C83 404 83 239 92 58ZM836 -93 907 -36C817 60 696 155 568 239L516 183C643 102 755 -1 836 -93Z" transform="translate(0, 880) scale(1,-1)" /></svg>