<svg xmlns="http://www.w3.org/2000/svg" width="1000" height="1000"><path d="M928 -14Q828 37 771.5 116.0Q715 195 686.0 363.5Q657 532 657 837H585Q586 518 618.5 338.0Q651 158 715.0 67.5Q779 -23 891 -82ZM627 1Q731 52 798.5 133.0Q866 214 882 292L811 306Q795 241 739.0 172.0Q683 103 600 59ZM84 605H806V677H84ZM937 607Q909 715 858 813L800 778Q845 697 872 580ZM307 134Q373 134 429.0 151.5Q485 169 518.5 200.0Q552 231 552 270Q552 304 531.0 332.5Q510 361 469.5 378.5Q429 396 371 396Q348 396 327.5 393.5Q307 391 285 387L305 395Q371 420 417.0 439.0Q463 458 518 486L474 526L458 522H113V462H361Q327 440 288.5 423.5Q250 407 182 381Q165 375 126 364L145 310Q189 324 243.5 332.5Q298 341 347 341Q409 341 444.0 323.0Q479 305 479 270Q479 222 432.0 205.5Q385 189 300 189Q262 189 240.5 195.5Q219 202 219 213Q219 223 231.5 229.5Q244 236 262 236Q301 236 320.0 221.0Q339 206 339 169Q339 124 326.0 94.0Q313 64 278 30L331 20Q371 61 388.0 95.0Q405 129 405 176Q405 226 365.0 254.0Q325 282 264 282Q219 282 188.5 260.0Q158 238 158 211Q158 178 199.0 156.0Q240 134 307 134ZM94 8 114 -53 531 61 511 118Z" transform="translate(0, 880) scale(1,-1)" /></svg>