<svg xmlns="http://www.w3.org/2000/svg" width="1000" height="1000"><path d="M69 722H930V797H69ZM809 401 886 367C910 416 921 458 921 515C921 616 805 654 617 654C426 654 271 601 164 513V637H82V389H164V453C271 537 453 570 617 570C784 570 836 537 836 514C836 476 830 441 809 401ZM354 387 434 421C410 515 357 654 312 755L235 727C283 628 332 484 354 387ZM541 413 614 387C654 476 707 619 745 739L664 767C636 654 582 508 541 413ZM456 -79C523 -79 551 -51 551 11V449H472V22C472 5 460 -8 438 -8C399 -8 348 1 301 15V-66C348 -74 402 -79 456 -79ZM56 43 115 -13C198 33 290 104 347 178L273 209C223 144 139 82 56 43ZM62 253H942V327H62ZM882 -17 942 33C894 83 790 157 707 207L650 161C734 109 835 32 882 -17Z" transform="translate(0, 880) scale(1,-1)" /></svg>