<svg xmlns="http://www.w3.org/2000/svg" width="1000" height="1000"><path d="M122 -39H878V32H122ZM125 458 299 547 274 605 100 527ZM380 510Q522 491 632 491Q769 491 837.5 524.0Q906 557 906 626Q906 755 592 755Q460 755 321.0 735.5Q182 716 91 686L103 621Q189 649 324.5 665.0Q460 681 592 681Q708 681 767.0 668.5Q826 656 826 626Q826 593 780.0 576.5Q734 560 629 560Q535 560 380 575ZM594 363Q714 363 772.5 339.5Q831 316 831 277Q831 221 772.5 186.5Q714 152 600 152Q486 152 486 187Q486 204 504.5 215.0Q523 226 559 226Q595 226 615.5 214.0Q636 202 636 179Q636 85 467 12L525 -18Q600 12 657.0 68.5Q714 125 714 179Q714 204 697.0 227.0Q680 250 645.0 264.5Q610 279 559 279Q481 279 444.5 251.5Q408 224 408 187Q408 164 429.5 143.0Q451 122 494.5 109.5Q538 97 600 97Q699 97 770.0 119.5Q841 142 878.5 182.5Q916 223 916 277Q916 431 594 431Q462 431 349.0 401.5Q236 372 169.5 321.0Q103 270 103 208Q103 156 136.0 118.0Q169 80 228 80Q269 80 303.5 116.0Q338 152 357 218Q396 350 426.0 509.0Q456 668 465 814L391 818Q364 445 285 215Q273 181 256.0 163.5Q239 146 220 146Q198 146 186.0 162.0Q174 178 174 208Q174 241 228.5 277.5Q283 314 379.5 338.5Q476 363 594 363Z" transform="translate(0, 880) scale(1,-1)" /></svg>