<svg xmlns="http://www.w3.org/2000/svg" width="1000" height="1000"><path d="M795 -70Q841 -70 867.0 -51.0Q893 -32 906.0 7.5Q919 47 924 114L849 127Q846 70 840.0 43.0Q834 16 822.0 6.0Q810 -4 786 -4H436Q393 -4 393 22Q393 112 473 252Q483 268 494.0 287.0Q505 306 512.0 324.0Q519 342 519 359Q519 394 478.0 416.5Q437 439 371 439Q300 439 265.0 417.0Q230 395 230 362Q230 339 247.5 322.0Q265 305 321.5 294.5Q378 284 486 284Q628 284 719.0 304.5Q810 325 850.5 358.0Q891 391 891 432Q891 555 619 555Q445 555 295 534L323 475Q483 492 619 492Q726 492 768.5 477.5Q811 463 811 432Q811 391 732.5 366.0Q654 341 486 341Q409 341 370.0 343.5Q331 346 318.5 350.5Q306 355 306 362Q306 373 323.5 379.0Q341 385 371 385Q405 385 426.0 378.5Q447 372 447 359Q447 336 416 286Q314 122 314 16Q314 -32 337.0 -51.0Q360 -70 419 -70ZM118 57H717V119H118ZM140 169H688V231H140ZM513 520 820 632 752 678 730 670H195V608H614L465 539ZM59 713H937V775H553L513 847L441 836L470 775H59Z" transform="translate(0, 880) scale(1,-1)" /></svg>