<svg xmlns="http://www.w3.org/2000/svg" width="1000" height="1000"><path d="M126 546 191 495C285 583 373 691 445 801L380 839C309 728 222 627 126 546ZM513 457 588 424C677 508 769 619 820 721L765 764L749 757H325V679H696C661 610 596 534 513 457ZM111 3 163 -66C434 14 846 161 846 334C846 439 741 485 556 485C381 485 250 450 121 402L155 328C284 382 399 406 556 406C687 406 762 382 762 334C762 207 381 74 111 3ZM843 -75 903 -7C654 123 459 203 231 268L192 206C417 137 598 59 843 -75Z" transform="translate(0, 880) scale(1,-1)" /></svg>