<svg xmlns="http://www.w3.org/2000/svg" width="1000" height="1000"><path d="M228 -27Q176 104 176 198Q176 256 195 303Q223 373 223 428Q223 494 180 556L97 537Q140 463 140 403Q140 358 117 309Q93 258 93 191Q93 93 143 -36ZM300 703Q270 725 217.0 756.0Q164 787 117 811L75 755Q121 729 173.5 695.5Q226 662 256 639ZM610 -77Q754 -21 831.5 77.5Q909 176 909 289Q909 557 607 557Q523 557 458.5 527.0Q394 497 359.5 446.5Q325 396 325 336Q325 293 342.5 255.0Q360 217 395.0 193.5Q430 170 481 170Q531 170 582.0 204.0Q633 238 666.5 307.0Q700 376 700 473V694H948V769H307V694H624V490Q624 430 605.5 373.0Q587 316 554.5 280.5Q522 245 481 245Q439 245 420.0 271.5Q401 298 401 336Q401 376 425.0 409.5Q449 443 495.0 462.5Q541 482 604 482Q725 482 778.5 429.0Q832 376 832 295Q832 238 800.0 180.5Q768 123 706.5 74.0Q645 25 561 -5Z" transform="translate(0, 880) scale(1,-1)" /></svg>