<svg xmlns="http://www.w3.org/2000/svg" width="1000" height="1000"><path d="M470 734H165V661H704L495 534L533 506L850 675L802 744L780 734H553L513 843L441 826ZM692 183V102C713 95 733 90 770 90C848 90 901 153 901 348C901 478 812 557 619 557C491 557 395 547 295 528L323 456C417 471 507 482 619 482C757 482 817 426 817 339C817 214 801 164 770 164C732 164 713 171 692 183ZM143 348V136H219V348ZM123 160 133 83 655 138 645 210ZM288 336V268H712V336ZM464 423V-37H537V423ZM125 11V-69H875V11Z" transform="translate(0, 880) scale(1,-1)" /></svg>