<svg xmlns="http://www.w3.org/2000/svg" width="1000" height="1000"><path d="M168 -62Q226 -62 265.0 -15.0Q304 32 322.5 104.5Q341 177 341 254Q341 382 303.5 488.0Q266 594 199 690L138 645Q198 559 230.5 459.5Q263 360 263 254Q263 164 237.5 90.0Q212 16 168 16Q149 16 137.5 36.0Q126 56 126 98Q126 179 179.0 263.5Q232 348 350 462L305 520Q52 284 52 98Q52 15 83.0 -23.5Q114 -62 168 -62ZM79 569Q246 660 347 745L305 810Q197 716 36 635ZM572 626Q557 662 529.5 711.0Q502 760 474 801L412 772Q440 732 466.0 682.0Q492 632 506 593ZM798 593Q822 626 852.0 677.5Q882 729 907 778L838 807Q821 765 792.5 714.5Q764 664 736 622ZM421 572V502H900V572ZM409 -72Q529 -9 592.0 81.5Q655 172 676.5 276.5Q698 381 697 514H626Q626 381 609.0 290.0Q592 199 534.5 119.5Q477 40 362 -19ZM949 -28Q853 92 714 238L666 189Q799 52 893 -77ZM382 281H931V351H382Z" transform="translate(0, 880) scale(1,-1)" /></svg>