<svg xmlns="http://www.w3.org/2000/svg" width="1000" height="1000"><path d="M242 688V614H845V688ZM210 823V412H290V823ZM556 505Q434 505 329.0 482.5Q224 460 116 418L145 351Q245 394 343.0 414.5Q441 435 556 435Q652 435 704.0 412.0Q756 389 756 350Q756 286 663.0 210.0Q570 134 449.5 80.0Q329 26 265 26Q223 26 195.5 52.0Q168 78 168 122Q168 162 207.5 190.0Q247 218 319 218Q361 218 407.5 201.5Q454 185 499.5 159.0Q545 133 622 86Q698 38 760.5 2.0Q823 -34 893 -66L947 -5Q887 22 839.0 49.0Q791 76 689 136Q600 190 544.5 220.0Q489 250 431.0 270.0Q373 290 319 290Q254 290 200.5 269.5Q147 249 116.0 211.0Q85 173 85 122Q85 74 107.5 36.0Q130 -2 171.0 -23.5Q212 -45 265 -45Q353 -45 494.5 17.5Q636 80 741.0 172.0Q846 264 846 350Q846 425 770.5 465.0Q695 505 556 505Z" transform="translate(0, 880) scale(1,-1)" /></svg>