<svg xmlns="http://www.w3.org/2000/svg" width="1000" height="1000"><path d="M493 407Q418 454 381.5 511.0Q345 568 345 646Q345 723 382 830L302 837Q265 738 265 650Q265 547 313.0 468.5Q361 390 447 342ZM747 523Q747 493 730.0 464.5Q713 436 668.5 396.5Q624 357 540 297Q425 215 368.0 166.5Q311 118 292.5 88.5Q274 59 274 28Q274 -13 302.5 -38.5Q331 -64 394 -64H774Q829 -64 853.0 -24.5Q877 15 886 105L810 124Q808 76 804.0 52.5Q800 29 791.5 19.0Q783 9 765 9H406Q384 9 374.0 16.0Q364 23 364 37Q364 49 379.0 67.0Q394 85 442.5 125.0Q491 165 588 236Q685 307 735.0 352.0Q785 397 807.0 436.5Q829 476 829 523Q829 603 747.5 640.0Q666 677 490 677Q371 677 272.0 645.5Q173 614 114.5 552.0Q56 490 56 402Q56 343 83.0 300.5Q110 258 156.5 236.5Q203 215 260 215Q383 215 472.0 299.5Q561 384 611.0 519.5Q661 655 674 810L595 820Q586 678 545.0 557.5Q504 437 431.5 363.5Q359 290 260 290Q211 290 173.5 320.5Q136 351 136 402Q136 467 184.0 512.0Q232 557 312.0 579.0Q392 601 490 601Q620 601 683.5 582.0Q747 563 747 523ZM969 186Q897 244 775 301L739 247Q843 196 929 123Z" transform="translate(0, 880) scale(1,-1)" /></svg>