<svg xmlns="http://www.w3.org/2000/svg" width="1000" height="1000"><path d="M818 577 890 556C919 586 929 617 929 653C929 729 815 758 617 758C426 758 262 722 155 668V736H79V562H155V615C262 665 453 685 617 685C796 685 849 665 849 647C849 623 844 602 818 577ZM496 711 572 726C558 763 533 804 508 837L435 822C458 790 484 745 496 711ZM508 228H612C677 257 716 299 716 338C716 403 640 441 506 441C352 441 266 414 266 350C266 298 328 267 434 267C505 267 542 293 542 331V633H465V346C465 327 443 319 416 319C387 319 346 334 346 350C346 371 381 387 506 387C591 387 636 364 636 338C636 309 616 275 508 228ZM131 163H858V228H131ZM147 483H843V546H147ZM57 -47 126 -79C188 -29 240 43 262 115L187 138C168 68 113 -4 57 -47ZM524 -75C565 -75 603 -61 661 -20L607 38C577 9 558 0 534 0C510 0 497 24 464 134L388 118C435 -40 478 -75 524 -75ZM873 -76 951 -47C916 5 850 83 792 138L723 105C785 47 841 -26 873 -76Z" transform="translate(0, 880) scale(1,-1)" /></svg>