<svg xmlns="http://www.w3.org/2000/svg" width="1000" height="1000"><path d="M140 -36 222 -27C168 115 157 218 190 303C227 399 230 475 176 556L96 537C146 449 149 383 115 309C79 228 85 115 140 -36ZM249 639 291 703C250 733 173 780 115 811L75 755C133 721 210 670 249 639ZM454 83V626H375V83C375 -33 418 -58 539 -58H782C895 -58 929 0 947 171L867 186C857 44 843 20 783 20H539C471 20 454 31 454 83ZM771 350C848 350 887 466 902 768L840 789L824 777H341V700H819C811 492 783 427 747 427C690 427 643 440 589 457V373C646 359 703 350 771 350Z" transform="translate(0, 880) scale(1,-1)" /></svg>