<svg xmlns="http://www.w3.org/2000/svg" width="1000" height="1000"><path d="M51 69 88 0C177 44 455 242 589 360L541 419C396 293 140 108 51 69ZM67 506 135 469C197 566 252 699 279 807L206 824C177 713 124 589 67 506ZM194 395 214 328 260 337H514V413H324L513 544V648C396 529 291 450 194 395ZM498 -75C558 -75 592 -56 592 21V840H513V22C513 4 507 -2 490 -2C453 -2 409 11 359 29V-56C403 -68 451 -75 498 -75ZM906 5 955 62C860 140 714 235 591 288V212C696 156 810 88 906 5ZM179 614H926L925 691H179ZM889 303 937 367C898 403 819 456 756 489L710 431C774 396 851 341 889 303Z" transform="translate(0, 880) scale(1,-1)" /></svg>