<svg xmlns="http://www.w3.org/2000/svg" width="1000" height="1000"><path d="M429 377Q458 377 476.5 414.5Q495 452 505.5 535.0Q516 618 521 760L459 779L448 768H99V693H439Q435 551 424.0 498.5Q413 446 392 446Q353 446 321.5 452.5Q290 459 252 472V398Q338 377 429 377ZM125 -54 489 58 477 131 205 50V565H134V75Q134 29 97 13ZM703 -82Q945 73 945 304Q945 408 898.5 461.0Q852 514 761 514Q726 514 692.5 503.5Q659 493 637 474Q689 611 790 783L720 818Q639 676 597.0 575.0Q555 474 552 423Q549 386 549 350Q549 294 558 229L638 221Q626 283 626 327Q626 375 641 400Q653 422 682.0 432.5Q711 443 766 443Q817 443 841.5 409.5Q866 376 866 304Q866 195 819.5 121.0Q773 47 663 -24Z" transform="translate(0, 880) scale(1,-1)" /></svg>