<svg xmlns="http://www.w3.org/2000/svg" width="1000" height="1000"><path d="M881 -82 925 -14C706 78 597 210 597 837H523C525 184 640 27 881 -82ZM659 387C739 387 763 341 763 293C763 216 659 120 525 58L561 1C737 72 841 195 841 293C841 370 802 460 659 460C272 460 71 322 71 137C71 33 135 -12 209 -12C318 -12 388 89 388 287V539H312V292C312 143 278 63 209 63C172 63 144 91 144 137C144 263 291 387 659 387ZM84 605H778V677H84ZM869 580 937 607C913 686 886 751 847 813L788 778C823 723 851 650 869 580Z" transform="translate(0, 880) scale(1,-1)" /></svg>