<svg xmlns="http://www.w3.org/2000/svg" width="1000" height="1000"><path d="M115 708V636H885V708ZM260 106Q254 175 254 237Q254 403 296.5 536.0Q339 669 428 809L358 838Q269 697 226.0 553.5Q183 410 183 237Q183 175 189 106ZM545 154V527H473V154ZM336 310H682V373H336ZM87 28V-46H913V28ZM234 399Q303 443 380.0 466.5Q457 490 568 490Q690 490 737.0 449.5Q784 409 784 341Q784 262 735.0 221.5Q686 181 600 181Q469 181 343 194V127Q469 114 600 114Q684 114 741.5 145.0Q799 176 828.0 227.5Q857 279 857 341Q857 557 568 557Q439 557 357.5 531.5Q276 506 211 457Z" transform="translate(0, 880) scale(1,-1)" /></svg>