<svg xmlns="http://www.w3.org/2000/svg" width="1000" height="1000"><path d="M130 213Q163 297 180 363L123 379Q96 265 43 148L95 107L108 127L456 270L441 334ZM233 -72Q271 -72 290.5 -52.0Q310 -32 310 17V835H239V37Q239 19 233.0 9.5Q227 0 216 0Q172 0 124 18V-60Q173 -72 233 -72ZM67 443H445V514H67ZM90 630Q179 634 277.0 649.0Q375 664 445 688L425 757Q362 734 266.0 720.0Q170 706 74 701ZM807 548Q790 336 790 197Q790 95 801.0 39.0Q812 -17 835.0 -39.0Q858 -61 896 -61Q935 -61 955.0 -13.5Q975 34 977 117L922 131Q920 69 914.5 42.5Q909 16 897 16Q883 16 873.5 54.5Q864 93 864 188Q864 342 891 607L832 633L818 622H438V548ZM444 -76Q544 10 598.0 134.5Q652 259 671.5 424.5Q691 590 691 834H615Q615 592 598.5 438.5Q582 285 533.5 173.5Q485 62 390 -17ZM751 278Q705 308 629.0 345.0Q553 382 475 413L443 353Q640 266 719 209Z" transform="translate(0, 880) scale(1,-1)" /></svg>