<svg xmlns="http://www.w3.org/2000/svg" width="1000" height="1000"><path d="M927 -14Q820 37 759.5 116.0Q699 195 668.0 363.5Q637 532 637 837H564Q565 518 599.5 337.5Q634 157 701.5 67.0Q769 -23 888 -82ZM691 330Q738 330 759.0 307.5Q780 285 780 250Q780 200 721.5 146.5Q663 93 569 52L605 1Q681 31 738.0 73.0Q795 115 825.5 161.5Q856 208 856 250Q856 308 816.5 350.5Q777 393 691 393Q574 393 434.0 342.5Q294 292 197.5 217.5Q101 143 101 78Q101 21 145.5 -14.0Q190 -49 257 -49Q369 -49 432.5 11.5Q496 72 496 189Q496 384 294 384Q246 384 199.0 373.5Q152 363 117 347L135 284Q167 297 211.0 306.0Q255 315 297 315Q418 315 418 181Q418 133 397.5 96.0Q377 59 341.0 38.5Q305 18 260 18Q225 18 203.5 37.0Q182 56 182 83Q182 124 265.0 183.5Q348 243 467.5 286.5Q587 330 691 330ZM154 605H797V677H154ZM937 607Q906 720 854 813L796 778Q843 697 871 580ZM335 493V435H517V493ZM292 552V357H362V552ZM126 427Q160 506 189.0 611.0Q218 716 235 812L163 824Q147 728 118.5 628.5Q90 529 57 459Z" transform="translate(0, 880) scale(1,-1)" /></svg>