<svg xmlns="http://www.w3.org/2000/svg" width="1000" height="1000"><path d="M67 543 135 512C191 597 241 715 266 811L194 824C167 726 119 616 67 543ZM179 646H926L925 719H179ZM298 330 362 308C424 360 499 441 537 504L485 549L468 543H211V477H431C401 432 356 382 298 330ZM689 -72C868 -72 905 65 905 208C905 325 811 383 634 383C446 383 277 365 98 335L116 264C292 293 461 312 629 312C779 312 820 266 820 201C820 102 794 -3 682 -3C627 -3 569 3 507 15V-60C567 -69 622 -72 689 -72ZM83 3 129 -73C533 48 696 223 782 553L699 560C620 236 485 114 83 3Z" transform="translate(0, 880) scale(1,-1)" /></svg>