<svg xmlns="http://www.w3.org/2000/svg" width="1000" height="1000"><path d="M250 -62Q285 -62 304.5 -36.5Q324 -11 324 33V516H251V44Q251 26 245.0 16.0Q239 6 229 6Q186 6 136 24V-51Q183 -62 250 -62ZM66 131 499 227 480 291 46 200ZM293 353Q378 370 434.5 424.0Q491 478 491 549Q491 626 443.0 662.5Q395 699 328 699Q293 699 260.5 686.0Q228 673 206 655Q237 700 267.0 736.0Q297 772 334 805L259 845Q185 746 147.5 684.5Q110 623 95 572Q81 524 81 474Q81 417 101 357L175 374Q152 431 152 476Q152 515 167 557Q179 590 215.5 611.0Q252 632 294 632Q340 632 375.0 608.0Q410 584 410 548Q410 496 385.0 461.5Q360 427 292 411ZM850 -85Q880 -85 899.5 -66.0Q919 -47 931.5 -2.0Q944 43 952 125L891 146Q885 59 876.0 28.0Q867 -3 849 -3Q756 -3 715.0 230.0Q674 463 661 827L589 826Q604 435 659.0 175.0Q714 -85 850 -85ZM490 -48Q563 -4 638.5 68.5Q714 141 778.5 232.0Q843 323 881 416L814 441Q769 314 665.5 197.0Q562 80 444 14ZM501 447 910 525 899 594 491 517ZM871 663Q854 692 822.0 732.5Q790 773 758 806L707 767Q738 735 769.5 692.5Q801 650 818 618Z" transform="translate(0, 880) scale(1,-1)" /></svg>