<svg xmlns="http://www.w3.org/2000/svg" width="1000" height="1000"><path d="M395 -48Q603 2 705.5 66.5Q808 131 808 200Q808 237 793.5 262.0Q779 287 730.5 303.5Q682 320 585 320Q496 320 377 306L393 234Q515 248 592 248Q655 248 684.5 239.5Q714 231 721.0 219.5Q728 208 728 192Q728 158 649.5 111.0Q571 64 348 -11ZM98 -70H902V2H98ZM503 286 770 467 722 537 700 527H215V453H624L434 298ZM71 618H930V690H71ZM570 703Q563 731 543.5 772.0Q524 813 502 847L432 825Q452 789 470.0 748.0Q488 707 495 678Z" transform="translate(0, 880) scale(1,-1)" /></svg>