<svg xmlns="http://www.w3.org/2000/svg" width="1000" height="1000"><path d="M475 35Q559 90 616.0 171.0Q673 252 673 342Q673 386 653.5 422.5Q634 459 595.5 481.0Q557 503 503 503Q420 503 379.0 460.5Q338 418 338 357Q338 295 392.0 257.0Q446 219 546 219Q705 219 793.5 306.0Q882 393 882 548Q882 624 842.5 683.5Q803 743 729.0 777.0Q655 811 555 811Q395 811 304.0 729.5Q213 648 160 538L198 498Q254 600 337.5 663.0Q421 726 555 726Q622 726 676.0 703.5Q730 681 760.5 640.5Q791 600 791 548Q791 434 728.5 363.0Q666 292 546 292Q426 292 426 357Q426 387 445.5 407.0Q465 427 503 427Q541 427 562.5 404.5Q584 382 584 342Q584 259 523.5 178.5Q463 98 373 35ZM93 -39H937V36H93ZM142 285H223V773H142Z" transform="translate(0, 880) scale(1,-1)" /></svg>