<svg xmlns="http://www.w3.org/2000/svg" width="1000" height="1000"><path d="M777 137Q815 137 847.5 158.0Q880 179 900.0 218.5Q920 258 920 311Q920 397 852.0 440.5Q784 484 621 484Q364 484 101 423L115 348Q357 411 621 411Q714 411 760.5 398.5Q807 386 821.0 365.0Q835 344 835 311Q835 259 817.0 232.0Q799 205 764 205Q725 205 657 220V147Q713 137 777 137ZM151 620H748L699 562L753 534L861 654L807 701L786 693H151ZM540 817H460V74H540ZM340 318Q211 253 93 210L140 150Q256 198 384 263ZM136 30V-48H864V30Z" transform="translate(0, 880) scale(1,-1)" /></svg>