<svg xmlns="http://www.w3.org/2000/svg" width="1000" height="1000"><path d="M60 601V527H387V601ZM43 197 98 160 112 181 391 280 378 355 150 272 244 534 193 564ZM194 -72Q273 -72 273 16V814H202V35Q202 18 195.0 8.5Q188 -1 177 -1Q136 -1 86 20V-60Q135 -72 194 -72ZM585 417Q642 411 686 411Q824 411 870.5 460.0Q917 509 917 587Q917 661 872.0 704.5Q827 748 745 748Q684 748 641.0 726.0Q598 704 555 656Q582 734 597 817L523 830Q504 732 469.0 643.0Q434 554 391 490L454 445Q492 508 520 572Q569 623 628.0 649.0Q687 675 740 675Q788 675 814.5 649.0Q841 623 841 587Q841 539 811.5 510.5Q782 482 698 482Q656 482 585 493ZM720 584H646V217Q646 182 629.0 164.0Q612 146 583 146Q552 146 535.0 161.5Q518 177 518 199Q518 243 567.0 270.5Q616 298 707 298Q784 298 816.5 271.0Q849 244 849 207Q849 144 780.5 95.5Q712 47 611.0 18.0Q510 -11 409 -22L428 -88Q550 -73 662.5 -37.0Q775 -1 849.5 60.5Q924 122 924 206Q924 277 871.5 323.0Q819 369 707 369Q589 369 516.5 325.0Q444 281 444 199Q444 147 482.0 113.5Q520 80 583 80Q640 80 680.0 110.5Q720 141 720 209Z" transform="translate(0, 880) scale(1,-1)" /></svg>