<svg xmlns="http://www.w3.org/2000/svg" width="1000" height="1000"><path d="M114 -8Q304 89 487.0 225.0Q670 361 787 477L725 520L703 499H434Q658 624 853 777L786 831Q575 650 290 495Q259 479 236 475L272 410L315 428H629Q584 385 497.0 319.0Q410 253 295.5 181.5Q181 110 62 54ZM529 -65Q573 -65 611.5 -56.5Q650 -48 692 -26V54Q644 31 609.0 20.0Q574 9 543 9Q524 9 516.5 15.5Q509 22 509 42V259H430V25Q430 -22 454.0 -43.5Q478 -65 529 -65ZM958 58Q768 198 646 275L598 223Q747 122 904 -4ZM441 669Q351 750 232 822L177 769Q305 692 383 614Z" transform="translate(0, 880) scale(1,-1)" /></svg>