<svg xmlns="http://www.w3.org/2000/svg" width="1000" height="1000"><path d="M493 -74Q535 -74 558.5 -51.0Q582 -28 582 15V600H906V672H582V840H503V672H94V600H470Q369 505 164 395L184 332L230 341H504L503 28Q503 15 496.5 7.5Q490 0 477 0Q422 0 347 24V-56Q416 -74 493 -74ZM95 -5Q163 26 304.5 108.5Q446 191 593.5 288.0Q741 385 833 460L762 511Q661 429 517.0 333.0Q373 237 240.0 161.0Q107 85 41 59ZM321 412 503 535 504 412ZM945 53Q870 111 769.5 170.0Q669 229 581 265V194Q674 147 752.0 100.0Q830 53 896 0Z" transform="translate(0, 880) scale(1,-1)" /></svg>