<svg xmlns="http://www.w3.org/2000/svg" width="1000" height="1000"><path d="M456 431Q506 431 528.5 451.5Q551 472 551 516V813H472V527Q472 515 463.0 507.0Q454 499 438 499Q383 499 301 520V443Q382 431 456 431ZM115 421Q180 451 243.0 493.0Q306 535 347 578L277 620Q240 580 181.0 543.0Q122 506 60 483ZM62 662H942V734H62ZM938 475Q903 504 835.5 545.0Q768 586 703 619L650 565Q713 533 780.0 490.5Q847 448 882 418ZM322 332Q528 302 644 274L678 351Q528 379 349 402ZM467 -73Q524 -73 559.0 -36.0Q594 1 594 68Q594 124 570.5 167.0Q547 210 498 249L432 208Q473 172 492.5 138.5Q512 105 512 68Q512 36 495.5 16.5Q479 -3 459 -3Q438 -4 400.0 2.5Q362 9 323 20V-60Q385 -73 467 -73ZM121 9Q166 46 211.5 101.5Q257 157 286 210L205 238Q182 190 142.0 139.5Q102 89 58 53ZM956 38Q929 82 880.5 139.0Q832 196 777 243L704 206Q758 157 806.0 101.0Q854 45 877 4Z" transform="translate(0, 880) scale(1,-1)" /></svg>