<svg xmlns="http://www.w3.org/2000/svg" width="1000" height="1000"><path d="M299 -80C374 -80 400 12 400 154C400 298 323 562 241 826L173 803C252 548 327 288 327 154C327 41 312 -7 278 -7C251 -7 223 4 196 21V-62C228 -75 259 -80 299 -80ZM46 -24 104 -70C195 95 241 221 275 405L210 423C177 258 134 130 46 -24ZM58 544H422V617H58ZM651 -62H821C901 -62 921 -8 932 147L860 166C856 38 847 15 805 15H661C620 15 609 28 609 80V570H539V82C539 -34 565 -62 651 -62ZM720 203 761 139C843 207 879 264 879 366C879 429 841 518 734 519C618 520 511 449 424 354L450 291C536 394 642 443 734 443C793 443 809 402 809 362C809 311 784 253 720 203ZM399 488 460 447C514 549 555 693 579 834L514 849C490 708 448 573 399 488ZM502 637H917V712H502Z" transform="translate(0, 880) scale(1,-1)" /></svg>