<svg xmlns="http://www.w3.org/2000/svg" width="1000" height="1000"><path d="M168 11 162 124Q157 192 157 232Q157 305 174 387Q191 468 230.5 544.5Q270 621 328 621Q360 621 385.5 585.5Q411 550 425.0 491.0Q439 432 439 363Q439 333 436 303Q429 230 406.5 183.0Q384 136 353 136Q339 136 331.5 150.5Q324 165 324 190Q324 224 335.0 270.0Q346 316 364 357Q396 432 476.5 470.5Q557 509 679 509H962V585H679Q572 585 497.0 563.5Q422 542 368.0 490.0Q314 438 279 347Q251 274 251 199Q251 132 273.5 89.0Q296 46 339 46Q399 46 433.5 77.5Q468 109 484.5 163.0Q501 217 509 300Q514 347 514 385Q514 520 468.5 613.0Q423 706 331 706Q219 706 163 528L190 733H110Q87 446 87 239Q87 124 93 11ZM700 -74Q840 -74 840 119V835H764V152Q764 76 750.5 40.0Q737 4 694 4Q659 4 641.0 28.0Q623 52 623 91Q623 125 634.5 145.5Q646 166 672 177Q685 182 705 182Q743 182 789 164L796 239Q747 256 700 256Q666 256 642 246Q598 229 573.5 192.5Q549 156 549 92Q549 12 590.5 -31.0Q632 -74 700 -74Z" transform="translate(0, 880) scale(1,-1)" /></svg>