<svg xmlns="http://www.w3.org/2000/svg" width="1000" height="1000"><path d="M253 382V318C389 311 488 391 488 485C488 584 416 625 285 626V552C388 554 420 520 420 485C420 426 358 392 253 382ZM295 595 340 571C395 618 454 673 508 734L456 798L431 785H90V713H409C371 668 335 631 295 595ZM42 179 57 106 468 216 454 279ZM466 -24 519 -78C728 50 895 281 911 650L849 674L830 658H612V592H829C808 307 684 114 466 -24ZM884 -75 950 -23C873 102 736 264 609 390L556 349C681 219 811 46 884 -75ZM507 455 580 431C624 532 660 654 681 811L602 818C583 663 553 554 507 455ZM213 -82C260 -82 282 -59 282 -5V487H212V2C212 -10 207 -14 192 -14C169 -14 140 -10 102 2L103 -72C142 -79 177 -82 213 -82Z" transform="translate(0, 880) scale(1,-1)" /></svg>