<svg xmlns="http://www.w3.org/2000/svg" width="1000" height="1000"><path d="M609 -91Q758 -65 847.0 18.0Q936 101 936 224Q936 315 883.0 376.5Q830 438 739.0 467.5Q648 497 532 497Q397 497 291.0 453.0Q185 409 125.5 330.5Q66 252 66 152Q66 93 97.5 47.0Q129 1 177.5 -24.5Q226 -50 275 -50Q404 -50 507.5 29.0Q611 108 677.0 250.0Q743 392 763 578L689 586Q673 425 614.0 296.0Q555 167 468.0 94.0Q381 21 283 21Q250 21 217.0 39.0Q184 57 162.5 87.0Q141 117 141 152Q141 230 192.0 292.0Q243 354 332.5 388.5Q422 423 532 423Q669 423 763.0 377.5Q857 332 857 226Q857 162 822.0 110.0Q787 58 721.5 23.5Q656 -11 568 -22ZM531 138Q425 179 374.5 275.0Q324 371 324 551Q324 678 347 840L268 849Q245 677 245 557Q245 350 304.5 240.0Q364 130 482 85ZM452 307H527V572H452ZM75 642H925V718H75Z" transform="translate(0, 880) scale(1,-1)" /></svg>