<svg xmlns="http://www.w3.org/2000/svg" width="1000" height="1000"><path d="M230 437 284 417C343 467 418 534 461 578L406 623L393 615H286C311 668 333 733 355 808L284 824C261 739 232 664 192 587L241 550L254 556H354C324 521 280 478 230 437ZM536 442 518 511 76 440 93 366ZM82 676H544V747H82ZM948 669H536V600H948ZM780 447V811H704V447ZM914 479H570V410H914ZM579 -80C751 -80 812 44 812 213C812 310 757 367 611 367C513 367 416 358 315 342L320 278C422 290 524 297 611 298C683 298 734 274 734 213C734 79 682 -14 566 -15C496 -15 434 -9 376 6V-67C433 -76 492 -80 579 -80ZM659 111 663 179 369 183 365 115ZM403 436 323 437C293 237 230 101 135 -12L205 -52C302 70 370 222 403 436Z" transform="translate(0, 880) scale(1,-1)" /></svg>