<svg xmlns="http://www.w3.org/2000/svg" width="1000" height="1000"><path d="M174 -77Q208 -77 224.5 -57.0Q241 -37 241 9V834H176V12Q176 -10 158 -10Q120 -10 70 12V-66Q122 -77 174 -77ZM64 574H329V640H64ZM344 392 316 455 44 262 74 195ZM774 748Q631 809 531 844L493 782Q611 743 742 684ZM699 470Q559 470 470.5 440.0Q382 410 343.5 366.5Q305 323 305 280Q305 231 335.0 205.0Q365 179 420 179Q484 179 554.0 244.0Q624 309 689.5 404.0Q755 499 836 635L778 679L758 668H358V596H734Q687 514 627.0 433.0Q567 352 510.5 299.0Q454 246 420 246Q375 246 375 280Q375 302 401.0 329.0Q427 356 499.0 377.5Q571 399 697 399Q774 399 816.0 368.0Q858 337 858 278Q858 207 811.0 167.5Q764 128 695 128Q663 128 648.0 139.5Q633 151 633 169Q633 184 644.5 194.0Q656 204 674 204Q692 204 703.5 193.0Q715 182 715 160Q715 127 690.5 81.5Q666 36 620 1H297V-71H940V1H687Q730 41 753.5 82.5Q777 124 777 159Q777 206 747.5 234.0Q718 262 674 262Q629 262 600.0 236.5Q571 211 571 169Q571 122 603.5 94.0Q636 66 695 66Q798 66 866.5 119.0Q935 172 935 278Q935 371 873.0 420.5Q811 470 699 470Z" transform="translate(0, 880) scale(1,-1)" /></svg>