<svg xmlns="http://www.w3.org/2000/svg" width="1000" height="1000"><path d="M456 345Q506 345 528.5 366.5Q551 388 551 434V833H472V445Q472 432 463.0 424.0Q454 416 438 416Q381 416 301 438V358Q377 345 456 345ZM115 404Q181 438 243.5 484.5Q306 531 347 580L274 613Q237 569 179.0 528.5Q121 488 57 460ZM62 650H942V724H62ZM941 451Q907 484 839.5 529.0Q772 574 706 611L650 564Q714 527 780.5 480.5Q847 434 882 401ZM577 -80Q714 -80 777.0 -10.5Q840 59 840 179Q840 247 786.5 282.0Q733 317 612 317Q461 317 287 295L292 234Q482 251 612 251Q679 251 717.5 233.5Q756 216 756 179Q756 88 707.5 35.0Q659 -18 561 -18Q437 -18 348 2V-69Q449 -80 577 -80ZM670 86 673 151 343 155 339 90ZM280 335Q256 224 210.0 138.5Q164 53 97 -20L168 -60Q308 97 362 325Z" transform="translate(0, 880) scale(1,-1)" /></svg>