<svg xmlns="http://www.w3.org/2000/svg" width="1000" height="1000"><path d="M103 771 115 696C322 702 564 723 731 754L701 821C553 795 309 777 103 771ZM231 467 298 499C275 549 228 619 185 672L122 643C165 591 210 517 231 467ZM480 495 543 467C581 513 631 587 668 649L597 679C569 619 519 544 480 495ZM287 408 350 380C398 465 440 580 461 751L382 755C366 588 329 484 287 408ZM170 55C170 215 601 431 765 431C804 431 825 400 825 352C825 212 668 84 547 11L584 -51C705 30 901 195 901 352C901 459 851 506 765 506C570 506 81 260 81 49C81 -25 152 -68 236 -68C397 -68 537 43 537 217C537 342 482 430 301 430C224 430 149 411 101 388L121 319C166 339 238 355 304 355C418 355 453 302 453 217C453 102 347 5 239 5C196 5 170 27 170 55ZM883 -55 936 -1C824 136 743 213 640 280L596 231C699 160 772 86 883 -55Z" transform="translate(0, 880) scale(1,-1)" /></svg>