<svg xmlns="http://www.w3.org/2000/svg" width="1000" height="1000"><path d="M862 -85C913 -85 944 -38 961 125L901 146C893 35 883 3 859 3C694 3 661 472 642 827H575C589 441 627 -85 862 -85ZM436 5 491 -55C651 32 808 214 891 418L832 457C767 289 616 91 436 5ZM499 430 922 523 908 593 488 501ZM821 619 873 663C849 704 795 764 752 806L702 768C745 725 797 661 821 619ZM104 -54 475 144 439 202 70 15ZM183 11 432 315 372 357 359 345H245C293 454 319 579 338 753L270 760C246 582 218 421 145 307L191 261L213 278H313L129 29ZM72 399H135V477C184 533 245 556 304 556C363 556 386 536 386 510C386 481 383 458 373 433L440 410C451 440 456 463 456 511C456 599 388 631 304 631C224 631 177 599 135 530V617H72ZM111 734H469V802H111Z" transform="translate(0, 880) scale(1,-1)" /></svg>