<svg xmlns="http://www.w3.org/2000/svg" width="1000" height="1000"><path d="M456 -79C523 -79 551 -52 551 8V839H472V20C472 3 460 -11 438 -11C399 -11 348 -2 301 12V-67C348 -74 402 -79 456 -79ZM49 61 115 8C198 64 290 151 347 244L266 267C216 186 132 111 49 61ZM882 3 949 50C901 112 797 203 714 265L650 222C734 157 835 63 882 3ZM68 642H939V718H68ZM93 468 116 402C260 467 442 496 591 496C734 496 817 471 817 422C817 344 685 335 496 354V279C738 257 900 278 900 422C900 527 780 572 591 572C424 572 242 543 93 468Z" transform="translate(0, 880) scale(1,-1)" /></svg>