<svg xmlns="http://www.w3.org/2000/svg" width="1000" height="1000"><path d="M702 499H913V573H762L807 755L742 796L720 784H128V703H705L679 565ZM111 12Q176 54 239.0 115.0Q302 176 343 240L271 268Q235 211 177.0 159.0Q119 107 54 69ZM446 -79Q496 -79 518.5 -59.5Q541 -40 541 2V636H462V19Q462 6 453.0 -2.0Q444 -10 428 -10Q371 -10 291 12V-68Q365 -79 446 -79ZM62 330H942V409H62ZM946 56Q912 98 845.5 156.0Q779 214 711 263L653 214Q719 165 785.0 105.0Q851 45 885 2Z" transform="translate(0, 880) scale(1,-1)" /></svg>