<svg xmlns="http://www.w3.org/2000/svg" width="1000" height="1000"><path d="M456 345C523 345 551 373 551 434V833H472V445C472 428 460 416 438 416C399 416 348 425 301 438V358C348 350 402 345 456 345ZM57 460 115 404C198 447 290 512 347 580L274 613C224 553 140 496 57 460ZM62 650H942V724H62ZM882 401 941 451C893 497 789 565 706 611L650 564C734 516 835 446 882 401ZM577 -80C770 -80 840 30 840 179C840 267 778 317 612 317C506 317 398 309 287 295L292 234C404 244 517 251 612 251C697 251 756 231 756 179C756 63 696 -18 561 -18C484 -18 415 -13 348 2V-69C412 -76 480 -80 577 -80ZM670 86 673 151 343 155 339 90ZM362 325 280 335C246 181 182 72 97 -20L168 -60C256 39 323 161 362 325Z" transform="translate(0, 880) scale(1,-1)" /></svg>