<svg xmlns="http://www.w3.org/2000/svg" width="1000" height="1000"><path d="M324 473Q306 540 273.0 632.5Q240 725 206 803L133 779Q167 706 199.0 611.0Q231 516 247 442ZM349 331Q515 483 670 791L586 815Q459 523 287 363ZM53 640V563H785V640ZM169 51Q169 111 280.5 182.5Q392 254 537.0 304.5Q682 355 760 355Q788 355 804.5 338.5Q821 322 821 294Q821 212 733.5 138.0Q646 64 522 4L560 -62Q638 -22 716.5 36.0Q795 94 848.5 162.0Q902 230 902 294Q902 364 864.5 398.5Q827 433 760 433Q665 433 499.5 373.5Q334 314 208.0 224.0Q82 134 82 44Q82 -7 125.0 -37.5Q168 -68 235 -68Q308 -68 376.5 -30.5Q445 7 487.0 70.5Q529 134 529 205Q529 299 478.0 345.0Q427 391 298 391Q243 391 190.5 380.5Q138 370 101 353L121 283Q156 297 205.5 306.5Q255 316 302 316Q383 316 416.0 290.0Q449 264 449 205Q449 159 416.5 112.5Q384 66 334.5 36.0Q285 6 238 6Q206 6 187.5 18.5Q169 31 169 51ZM931 -9Q842 80 771.0 135.5Q700 191 617 235L572 183Q654 138 721.0 83.0Q788 28 876 -64Z" transform="translate(0, 880) scale(1,-1)" /></svg>