<svg xmlns="http://www.w3.org/2000/svg" width="1000" height="1000"><path d="M643 797H131V470C131 325 123 122 35 -23L99 -60C192 92 205 317 205 470V724H643ZM220 509V428H609V509ZM316 257 390 282C377 382 346 544 319 652L247 633C273 527 303 360 316 257ZM431 275 500 257C525 349 558 508 581 633L508 652C489 534 457 372 431 275ZM569 10 606 -59C729 55 932 273 932 499C932 639 879 702 785 702C711 702 655 680 599 650L616 578C669 610 719 624 785 624C834 624 863 572 863 499C863 303 692 113 569 10ZM910 -65 959 -3C846 188 763 297 658 389L618 334C722 236 797 131 910 -65ZM270 290V217H536V290ZM226 52 254 -19 574 121 546 192Z" transform="translate(0, 880) scale(1,-1)" /></svg>