<svg xmlns="http://www.w3.org/2000/svg" width="1000" height="1000"><path d="M123 -15Q225 122 330 313L272 354Q167 164 55 32ZM316 618Q233 697 132 755L88 692Q187 631 265 553ZM289 -41H949V36H289ZM745 22Q784 54 811.5 100.0Q839 146 839 186Q839 248 790.0 290.5Q741 333 639 333Q578 333 531.5 317.5Q485 302 459.5 274.5Q434 247 434 213Q434 157 478.5 125.5Q523 94 605 94Q639 94 661.0 119.5Q683 145 683 179V614H612V212Q612 169 578 169Q542 169 520.0 181.5Q498 194 498 211Q498 231 532.0 244.0Q566 257 639 257Q709 257 739.5 234.5Q770 212 770 184Q770 152 746.5 105.5Q723 59 680 22ZM393 395 418 411H908V490H458Q549 629 584 700L518 726Q483 655 433.0 578.5Q383 502 326 434ZM348 692H895V767H348Z" transform="translate(0, 880) scale(1,-1)" /></svg>