<svg xmlns="http://www.w3.org/2000/svg" width="1000" height="1000"><path d="M585 490Q704 490 772.0 510.0Q840 530 866.5 566.0Q893 602 893 653Q893 724 827.0 768.0Q761 812 589 812Q349 812 208 669V773H128V515H208V597Q352 736 589 736Q714 736 761.5 714.5Q809 693 809 653Q809 606 759.0 581.5Q709 557 585 561ZM78 -54H920V17H78ZM181 188Q278 282 354.0 384.5Q430 487 495 607L424 634Q357 511 282.5 412.5Q208 314 114 233ZM652 17Q705 50 734.5 85.0Q764 120 764 165Q764 201 738.0 229.5Q712 258 664.0 274.0Q616 290 551 290Q436 290 375.5 262.5Q315 235 315 180Q315 131 358.5 99.0Q402 67 479 67Q529 67 559.5 94.0Q590 121 590 155V352H511V176Q511 156 497.5 145.0Q484 134 462 134Q442 134 418.5 148.0Q395 162 395 180Q395 202 430.5 213.0Q466 224 551 224Q611 224 646.5 205.5Q682 187 682 163Q682 129 655.0 94.5Q628 60 553 17ZM313 352H807V420H313Z" transform="translate(0, 880) scale(1,-1)" /></svg>