<svg xmlns="http://www.w3.org/2000/svg" width="1000" height="1000"><path d="M519 501H633C705 524 748 559 748 592C748 648 664 685 517 685C347 685 252 658 252 602C252 557 321 530 437 530C515 530 552 553 552 585V841H475V601C475 586 448 580 418 580C385 580 337 590 337 602C337 617 379 628 517 628C611 628 663 611 663 591C663 568 641 539 519 501ZM95 706H912V772H95ZM813 367 882 346C904 366 917 389 917 426C917 498 805 523 617 523C426 523 267 499 160 451V509H86V359H160V400C267 445 453 457 617 457C788 457 840 440 840 425C840 401 831 383 813 367ZM217 396V325H802V396ZM19 187 66 136C192 195 310 266 407 339L359 381C265 309 147 243 19 187ZM360 151 428 176C399 211 354 255 314 291L249 261C292 226 331 184 360 151ZM611 167 681 149C743 186 760 214 760 243C760 274 716 295 636 295C533 295 431 268 337 227L377 198C462 222 558 235 636 235C666 235 676 230 676 222C676 213 671 201 611 167ZM456 -86C523 -86 551 -61 551 -4V169H472V7C472 -9 460 -21 438 -21C399 -21 348 -12 301 0V-74C348 -81 402 -86 456 -86ZM65 -13 115 -68C198 -46 290 -12 347 23L282 65C232 35 148 5 65 -13ZM62 65H942V133H62ZM882 -69 933 -18C885 6 781 41 698 64L650 16C734 -9 835 -46 882 -69Z" transform="translate(0, 880) scale(1,-1)" /></svg>