<svg xmlns="http://www.w3.org/2000/svg" width="1000" height="1000"><path d="M134 581H206V689Q285 728 376.0 748.0Q467 768 589 768Q814 768 814 705Q814 646 579 646Q483 646 310 658V594Q452 587 537 587Q709 587 801.0 613.5Q893 640 893 705Q893 764 825.5 796.0Q758 828 589 828Q328 828 206 743V806H134ZM417 502Q533 599 572 707L497 712Q460 615 350 532ZM856 254Q932 296 932 352Q932 404 851.0 432.0Q770 460 583 460Q319 460 153 395V441H77V268H153V346Q241 371 351.5 385.5Q462 400 582 400Q850 400 850 352Q850 317 801 291ZM461 326H540V514H461ZM703 350 298 349V290H703ZM823 546 168 545V487H823ZM158 -73 193 -67 789 -44 775 12 305 -5Q463 60 557 107L453 119Q351 62 198 0Q171 -11 124 -15ZM879 -52Q802 18 687 79L635 41Q721 -8 819 -90ZM74 87H934V145H74ZM146 196H863V253H146Z" transform="translate(0, 880) scale(1,-1)" /></svg>