<svg xmlns="http://www.w3.org/2000/svg" width="1000" height="1000"><path d="M143 659V310Q143 186 127.0 102.0Q111 18 73 -53L152 -73Q190 -2 206.0 82.0Q222 166 222 290V659ZM843 -85Q875 -85 896.0 -66.0Q917 -47 930.0 -2.0Q943 43 952 125L889 146Q884 87 878.5 55.5Q873 24 864.5 11.0Q856 -2 842 -2Q742 -2 696.5 232.5Q651 467 636 827L562 826Q573 582 598.5 385.5Q624 189 683.0 52.0Q742 -85 843 -85ZM507 -20Q623 43 718.0 155.0Q813 267 878 414L810 442Q758 308 671.0 206.5Q584 105 461 44ZM188 444 909 524 898 596 178 516ZM866 665Q846 696 811.5 735.5Q777 775 743 808L692 768Q725 736 759.0 693.5Q793 651 812 619ZM293 346V272H533V346Z" transform="translate(0, 880) scale(1,-1)" /></svg>