<svg xmlns="http://www.w3.org/2000/svg" width="1000" height="1000"><path d="M308 498Q372 551 434.0 620.5Q496 690 531 745L471 782L452 774H78V699H396Q365 650 326.0 603.0Q287 556 247 522ZM719 68Q827 144 881.5 224.0Q936 304 935 414Q935 456 909.5 490.5Q884 525 840.5 544.5Q797 564 743 564Q698 564 655 551Q737 659 808 788L728 823Q654 660 556 522Q548 512 509 494L546 428Q597 456 648.0 470.5Q699 485 741 485Q791 485 821.0 463.0Q851 441 852 399Q852 318 811.0 252.0Q770 186 674 119ZM900 -40Q780 92 580 227L529 174Q614 119 691.0 49.0Q768 -21 830 -93ZM112 -39Q179 -62 260 -62Q336 -62 391.0 -14.0Q446 34 474.5 108.0Q503 182 503 256Q503 354 440.0 432.0Q377 510 240 549L207 487Q316 453 365.5 390.5Q415 328 415 256Q415 202 395.5 146.5Q376 91 340.5 55.0Q305 19 260 19Q172 19 114 50ZM116 423V175H192V423ZM53 179 83 111 396 229 367 297Z" transform="translate(0, 880) scale(1,-1)" /></svg>