<svg xmlns="http://www.w3.org/2000/svg" width="1000" height="1000"><path d="M69 601V527H410V601ZM53 202 108 160 121 181 415 280 401 355 162 272 260 534 208 564ZM210 -72C257 -72 291 -51 291 16V814H218V35C218 12 208 -1 193 -1C166 -1 137 5 101 20V-60C138 -69 174 -72 210 -72ZM383 54 404 -25 433 -8 871 30 866 103 519 74C638 230 750 428 895 720L820 763C679 457 569 240 479 131C445 88 403 61 383 54ZM538 440 607 481C570 557 510 658 453 745L389 695C449 610 502 521 538 440ZM881 -73 950 -42C917 52 868 166 809 273L745 243C804 136 847 20 881 -73Z" transform="translate(0, 880) scale(1,-1)" /></svg>