<svg xmlns="http://www.w3.org/2000/svg" width="1000" height="1000"><path d="M417 413 408 396Q308 399 226.0 364.0Q144 329 96.5 261.5Q49 194 49 103Q49 23 80.0 -22.5Q111 -68 170 -68Q242 -68 283.5 -2.0Q325 64 325 193Q325 298 311.0 370.0Q297 442 265 519L206 498Q235 423 248.5 351.0Q262 279 262 193Q262 97 235.5 52.5Q209 8 170 8Q144 8 129.0 33.0Q114 58 114 99Q114 149 141.5 201.0Q169 253 235.0 288.5Q301 324 410 321Q387 84 387 24Q387 -13 394.0 -30.5Q401 -48 419.0 -54.5Q437 -61 474 -61H880Q910 -61 927.5 -38.5Q945 -16 953.5 31.5Q962 79 964 161L895 173Q894 107 890.0 73.0Q886 39 879.0 27.5Q872 16 860 16H481Q461 16 461 33Q461 74 492 390ZM109 444Q318 516 450 598L409 657Q345 618 255.0 577.5Q165 537 88 511ZM95 624Q275 679 424 776L386 834Q322 795 235.5 755.5Q149 716 74 693ZM761 130Q866 130 907.0 219.5Q948 309 948 470Q948 576 933.0 640.0Q918 704 881.5 735.5Q845 767 779 767Q723 767 674.0 750.0Q625 733 589 699V752H523V137H589V649Q625 673 676.0 684.0Q727 695 779 695Q818 695 839.5 674.5Q861 654 870.0 605.5Q879 557 879 470Q879 346 854.0 274.5Q829 203 761 203Q698 203 639 223V140Q704 130 761 130ZM563 432H828V502H563Z" transform="translate(0, 880) scale(1,-1)" /></svg>