<svg xmlns="http://www.w3.org/2000/svg" width="1000" height="1000"><path d="M456 431C523 431 551 457 551 516V813H472V527C472 511 460 499 438 499C399 499 348 508 301 520V443C348 436 402 431 456 431ZM60 483 115 421C198 459 290 518 347 578L277 620C227 567 143 514 60 483ZM62 662H942V734H62ZM882 418 938 475C890 515 786 577 703 619L650 565C734 522 835 458 882 418ZM349 402 322 332C433 316 549 297 644 274L678 351C580 369 464 387 349 402ZM467 -73C541 -73 594 -23 594 68C594 144 561 199 498 249L432 208C486 161 512 117 512 68C512 22 485 -3 459 -3C434 -4 379 4 323 20V-60C371 -70 419 -73 467 -73ZM58 53 121 9C184 61 248 142 286 210L205 238C175 176 119 102 58 53ZM877 4 956 38C922 94 853 177 777 243L704 206C778 139 846 59 877 4Z" transform="translate(0, 880) scale(1,-1)" /></svg>