<svg xmlns="http://www.w3.org/2000/svg" width="1000" height="1000"><path d="M251 -68Q321 -68 378.5 -38.5Q436 -9 470.0 49.5Q504 108 504 193Q504 298 478.0 370.0Q452 442 391 519L320 498Q375 423 399.0 351.0Q423 279 423 193Q423 97 374.5 52.5Q326 8 252 8Q195 8 161.0 33.0Q127 58 127 99Q127 148 184.5 200.0Q242 252 375.0 288.0Q508 324 719 321V36H604V-37H943V36H795V390L734 413L716 396Q520 398 369.0 363.5Q218 329 133.5 262.0Q49 195 49 103Q49 23 100.5 -22.5Q152 -68 251 -68ZM179 444Q517 514 737 598L671 657Q568 619 421.0 578.0Q274 537 147 511ZM157 624Q451 678 698 776L633 834Q528 795 387.0 755.5Q246 716 125 693Z" transform="translate(0, 880) scale(1,-1)" /></svg>