<svg xmlns="http://www.w3.org/2000/svg" width="1000" height="1000"><path d="M88 0Q156 34 323.0 153.5Q490 273 589 360L541 419Q430 322 273.0 210.0Q116 98 51 69ZM135 469Q181 540 219.5 632.0Q258 724 279 807L206 824Q184 740 146.5 653.5Q109 567 67 506ZM214 328 260 337H514V413H324L513 544V648Q353 485 194 395ZM498 -75Q546 -75 569.0 -54.5Q592 -34 592 21V840H513V22Q513 9 508.0 3.5Q503 -2 490 -2Q445 -2 359 29V-56Q429 -75 498 -75ZM955 62Q880 124 779.5 187.0Q679 250 591 288V212Q788 107 906 5ZM179 614H926L925 691H179ZM937 367Q908 394 856.0 429.0Q804 464 756 489L710 431Q758 405 809.5 368.0Q861 331 889 303Z" transform="translate(0, 880) scale(1,-1)" /></svg>