<svg xmlns="http://www.w3.org/2000/svg" width="1000" height="1000"><path d="M438 -57Q491 -57 518.5 -28.0Q546 1 546 58V490H918V567H546V832H467V567H82V490H467V73Q467 46 458.0 33.0Q449 20 426 20Q395 20 368.0 26.0Q341 32 311 47V-40Q368 -57 438 -57ZM124 2Q221 107 289.5 238.0Q358 369 387 500L314 510Q278 371 218.5 261.5Q159 152 63 57ZM974 120Q623 265 282 342L266 269Q574 203 946 39ZM873 680Q841 707 789.0 742.5Q737 778 691 803L647 746Q692 720 743.5 682.5Q795 645 826 616Z" transform="translate(0, 880) scale(1,-1)" /></svg>