<svg xmlns="http://www.w3.org/2000/svg" width="1000" height="1000"><path d="M923 795H131V470C131 325 123 122 35 -23L100 -60C193 92 206 317 206 470V720H923ZM572 430 639 397C723 443 818 515 878 578L821 624L803 618H175V549H746C699 505 650 472 572 430ZM228 371 260 307C370 355 487 382 643 382C828 382 867 290 867 194C867 62 794 -3 677 -3C586 -3 502 0 412 17V-57C502 -69 586 -72 677 -72C858 -72 943 44 943 194C943 322 891 453 643 453C471 453 331 420 228 371ZM428 41 501 57C488 148 472 231 445 318L376 300C403 214 419 132 428 41ZM297 147H834V220H297ZM588 -29 659 -36C690 82 713 204 732 318L656 329C641 214 620 92 588 -29Z" transform="translate(0, 880) scale(1,-1)" /></svg>