<svg xmlns="http://www.w3.org/2000/svg" width="1000" height="1000"><path d="M82 49 130 3C226 85 309 253 309 356C309 447 268 503 216 503C148 503 94 458 94 374C94 289 151 237 220 254C205 197 155 111 82 49ZM205 317C177 317 153 337 153 374C153 411 178 434 206 434C230 434 252 409 252 380C252 337 230 317 205 317ZM286 402V745H213V470ZM60 772V691H350V772ZM35 35 61 -40 358 92 333 166ZM341 469 407 438C438 537 467 662 491 786L423 803C401 675 372 559 341 469ZM320 3 370 -46C496 57 620 233 655 604L600 635L590 623H403V552H578C541 273 445 105 320 3ZM616 -53 675 1C575 167 495 278 401 368L351 321C443 227 520 117 616 -53ZM700 47 749 1C843 83 915 243 915 345C915 437 871 493 819 493C750 493 694 448 694 364C694 277 752 223 823 244C808 187 769 109 700 47ZM808 307C780 307 755 327 755 364C755 401 779 423 809 423C833 423 856 399 856 369C856 327 834 307 808 307ZM888 392V735H818V460ZM663 762V677H941V762ZM684 62V-24H951V62Z" transform="translate(0, 880) scale(1,-1)" /></svg>