<svg xmlns="http://www.w3.org/2000/svg" width="1000" height="1000"><path d="M235 528H765V592H235ZM393 732Q362 790 317 841L245 821Q267 794 287.0 763.5Q307 733 317 709ZM89 651H911V715H89ZM668 690Q708 742 756 826L673 844Q661 814 640.5 775.0Q620 736 600 706ZM900 245Q939 285 939 355Q939 432 851.0 462.5Q763 493 614 493Q475 493 366.0 467.0Q257 441 149 383V464H77V259H149V344Q273 387 378.5 403.0Q484 419 613 419Q719 419 787.5 400.5Q856 382 856 351Q856 335 849.5 319.5Q843 304 832 294ZM184 -91Q364 -60 475.5 -19.5Q587 21 666.0 93.5Q745 166 803 290L751 316L731 309H342V253H707Q659 165 585.5 112.0Q512 59 409.5 28.5Q307 -2 146 -27ZM620 110Q493 158 362 195L330 146Q464 105 572 61ZM207 117Q285 172 347.5 239.0Q410 306 453 376L380 398Q342 330 281.0 267.0Q220 204 143 154Z" transform="translate(0, 880) scale(1,-1)" /></svg>