<svg xmlns="http://www.w3.org/2000/svg" width="1000" height="1000"><path d="M592 -68Q725 -57 811.0 11.0Q897 79 897 204Q897 272 853.5 323.5Q810 375 735.0 403.0Q660 431 567 431Q360 431 222.5 362.5Q85 294 85 134Q85 80 110.5 35.0Q136 -10 181.5 -36.0Q227 -62 285 -62Q362 -62 413.5 -14.5Q465 33 465 121V829H386V132Q386 79 358.5 51.0Q331 23 285 23Q233 23 198.0 56.0Q163 89 163 138Q163 214 221.5 263.0Q280 312 371.5 334.0Q463 356 566 356Q634 356 690.0 338.0Q746 320 779.0 285.5Q812 251 812 204Q812 112 745.0 65.5Q678 19 572 9ZM82 577H679V652H82ZM939 491Q924 544 898.5 620.5Q873 697 851 748L775 724Q800 671 824.0 595.5Q848 520 857 467Z" transform="translate(0, 880) scale(1,-1)" /></svg>