<svg xmlns="http://www.w3.org/2000/svg" width="1000" height="1000"><path d="M297 404C418 404 523 477 523 562C523 622 495 687 347 755L283 734C419 665 445 604 445 567C445 507 371 466 296 466C234 467 195 489 195 509C195 591 600 622 688 617V484H576V418L881 416V484H769V676L707 693L692 684C581 684 119 662 119 512C119 449 180 404 297 404ZM195 746 226 684C381 708 533 744 683 788L622 846C504 810 337 769 195 746ZM200 -62C335 -62 390 29 390 105C390 201 322 255 231 307L171 264C259 214 311 162 311 105C311 58 275 8 200 8C163 8 150 19 150 42C150 81 218 136 400 215L354 264C165 190 72 114 72 42C72 -20 116 -62 200 -62ZM55 263 98 213C209 254 315 300 399 348L355 399C272 348 167 303 55 263ZM536 -68C628 -68 703 10 703 102C703 169 680 240 572 314L514 291C612 216 631 149 631 108C631 41 586 -4 535 -4C495 -3 467 21 467 44C467 123 729 174 803 166V14H727V-52L953 -54V14H877V225L816 244L805 235C748 235 395 206 395 47C395 -21 447 -68 536 -68ZM452 302 483 241C595 269 705 307 813 356L761 412C676 372 554 327 452 302Z" transform="translate(0, 880) scale(1,-1)" /></svg>