<svg xmlns="http://www.w3.org/2000/svg" width="1000" height="1000"><path d="M207 -67Q243 -67 260.5 -47.0Q278 -27 278 19V834H209V22Q209 0 191 0Q150 0 99 22V-56Q152 -67 207 -67ZM65 573H395V641H65ZM406 391 378 456 44 263 75 194ZM451 -25H523V682Q764 701 912 761L873 831Q806 803 690.0 783.0Q574 763 451 754ZM822 -99Q872 -3 898.0 105.5Q924 214 924 327Q924 430 879.5 479.0Q835 528 741 528Q671 528 620.5 499.5Q570 471 523 419V349Q578 403 631.0 426.5Q684 450 741 450Q793 450 821.5 422.5Q850 395 850 327Q850 221 826.5 127.0Q803 33 755 -63Z" transform="translate(0, 880) scale(1,-1)" /></svg>