<svg xmlns="http://www.w3.org/2000/svg" width="1000" height="1000"><path d="M80 479V397H920V479ZM699 769 683 760H172V679H616Q386 420 290.5 308.0Q195 196 167.0 151.0Q139 106 139 74Q139 19 168.5 -8.0Q198 -35 265 -35H585Q624 -35 648.0 -11.5Q672 12 687.5 63.0Q703 114 713 201L634 217Q627 119 612.5 79.5Q598 40 569 40H296Q256 40 240.5 47.0Q225 54 225 74Q225 89 253.0 128.5Q281 168 392.5 301.0Q504 434 749 717ZM943 100Q863 238 761 370L695 330Q794 199 872 57Z" transform="translate(0, 880) scale(1,-1)" /></svg>