<svg xmlns="http://www.w3.org/2000/svg" width="1000" height="1000"><path d="M633 -78Q687 -78 729.0 -48.0Q771 -18 783 33Q804 126 815.0 256.0Q826 386 826 517Q826 578 825 607Q821 715 762.5 761.5Q704 808 590 808Q443 808 275 765L277 686Q439 728 591 728Q658 728 698.0 695.5Q738 663 740 601Q741 580 741 531Q741 411 731.5 276.0Q722 141 705 63Q699 33 677.5 16.0Q656 -1 622 -1Q540 -1 469 21V-65Q551 -78 633 -78ZM156 -58Q216 78 248.0 206.0Q280 334 293.0 471.0Q306 608 310 806H226Q221 597 210.0 472.5Q199 348 166.5 228.5Q134 109 66 -31ZM671 252 672 327 343 331 342 256ZM680 468 681 544 360 548 359 471Z" transform="translate(0, 880) scale(1,-1)" /></svg>