<svg xmlns="http://www.w3.org/2000/svg" width="1000" height="1000"><path d="M253 318Q319 315 373.0 337.0Q427 359 457.5 398.5Q488 438 488 485Q488 558 437.0 591.5Q386 625 285 626V552Q356 553 388.0 534.0Q420 515 420 485Q420 442 376.5 416.0Q333 390 253 382ZM340 571Q437 654 508 734L456 798L431 785H90V713H409Q355 649 295 595ZM42 179 57 106 468 216 454 279ZM519 -78Q688 26 794.0 207.0Q900 388 911 650L849 674L830 658H612V592H829Q814 382 723.5 231.5Q633 81 466 -24ZM950 -23Q894 68 801.0 180.0Q708 292 609 390L556 349Q646 255 736.5 137.5Q827 20 884 -75ZM580 431Q652 597 681 811L602 818Q588 704 565.0 617.5Q542 531 507 455ZM213 -82Q249 -82 265.5 -63.5Q282 -45 282 -5V487H212V2Q212 -7 207.5 -10.5Q203 -14 192 -14Q153 -14 102 2L103 -72Q159 -82 213 -82Z" transform="translate(0, 880) scale(1,-1)" /></svg>