<svg xmlns="http://www.w3.org/2000/svg" width="1000" height="1000"><path d="M138 -80H215V686H309V759H41V686H138ZM477 462Q593 524 698.0 606.5Q803 689 866 766L819 812L803 806H345V729H729Q684 676 597.5 614.0Q511 552 401 497ZM739 -79Q844 -79 891.5 12.0Q939 103 939 273Q939 421 871.0 485.5Q803 550 670 550Q568 550 461.5 524.5Q355 499 281 464L305 394Q378 427 478.5 449.5Q579 472 670 472Q858 472 858 273Q858 144 828.5 68.5Q799 -7 735 -7Q641 -7 584 14V-66Q640 -79 739 -79ZM376 47Q484 121 594.5 220.5Q705 320 750 380L686 424Q640 361 532.5 263.5Q425 166 319 98ZM725 171Q670 217 594.5 269.5Q519 322 462 355L414 305Q476 268 550.0 214.0Q624 160 673 114Z" transform="translate(0, 880) scale(1,-1)" /></svg>