<svg xmlns="http://www.w3.org/2000/svg" width="1000" height="1000"><path d="M76 -71H918V1H448Q517 38 552.0 88.0Q587 138 587 178Q587 231 538.5 260.5Q490 290 413 290Q346 290 301.0 260.5Q256 231 256 180Q256 126 302.5 96.0Q349 66 447 66Q632 66 745.5 112.0Q859 158 859 269Q859 362 783.0 408.5Q707 455 563 455Q513 455 482.5 450.0Q452 445 391 429Q642 523 846 621L799 682L765 672H124V601H646Q532 545 445.0 504.5Q358 464 264 428Q169 392 110 368L156 310Q229 338 281.5 354.0Q334 370 401.0 379.5Q468 389 559 389Q660 389 716.0 360.5Q772 332 772 274Q772 132 478 132Q409 132 372.0 142.0Q335 152 335 178Q335 202 360.0 214.0Q385 226 419 226Q456 226 481.5 210.5Q507 195 507 169Q507 147 487.0 117.0Q467 87 428.0 56.0Q389 25 337 1H76ZM670 749Q486 810 357 845L317 781Q469 742 638 683Z" transform="translate(0, 880) scale(1,-1)" /></svg>