<svg xmlns="http://www.w3.org/2000/svg" width="1000" height="1000"><path d="M187 454Q178 516 160.5 597.5Q143 679 123 750L62 721Q78 659 95.5 573.0Q113 487 123 418ZM350 486Q339 613 298 808L232 785Q248 708 261.5 619.0Q275 530 282 460ZM475 414Q495 482 515.5 576.0Q536 670 551 754L481 783Q469 702 450.5 607.5Q432 513 413 437ZM88 374V297H520V374ZM276 329V41H349V329ZM60 24 78 -49 550 61 532 134ZM618 443Q672 595 716 810L645 831Q607 636 547 479ZM585 -64Q714 30 801.5 190.5Q889 351 918 622L870 656L854 643H624V566H839Q808 354 730.5 213.5Q653 73 535 -11ZM943 -14Q853 120 776.0 212.0Q699 304 617 373L573 319Q655 245 729.0 152.5Q803 60 889 -75Z" transform="translate(0, 880) scale(1,-1)" /></svg>