<svg xmlns="http://www.w3.org/2000/svg" width="1000" height="1000"><path d="M175 400 206 412H855V482H255Q376 632 470 822L385 845Q351 764 294.5 666.5Q238 569 190 502Q175 482 140 474ZM79 654H922V726H79ZM475 -75Q523 -75 547.0 -54.5Q571 -34 571 14V594H490V14Q490 0 484.0 -5.5Q478 -11 464 -11Q408 -11 320 14V-63Q386 -75 475 -75ZM636 47H924V115H803V353H728V115H636ZM251 198Q291 253 343 341L277 368Q228 280 171.5 214.0Q115 148 58 110L123 64Q165 108 192 123Q207 131 230 131Q240 131 244 130Q271 123 286 68L433 129L406 178L319 153Q312 185 251 198Z" transform="translate(0, 880) scale(1,-1)" /></svg>