<svg xmlns="http://www.w3.org/2000/svg" width="1000" height="1000"><path d="M785 -61Q840 -61 870.5 -41.0Q901 -21 916.0 30.0Q931 81 937 179L862 198Q859 117 852.5 79.5Q846 42 832.5 29.5Q819 17 791 17H312Q269 17 250.0 26.5Q231 36 231 56Q231 74 274.5 101.0Q318 128 446.0 181.0Q574 234 820 324L785 398L764 388H169V311H578Q324 229 232.5 168.5Q141 108 141 60Q141 4 185.0 -28.5Q229 -61 317 -61ZM113 446Q179 520 231.0 621.5Q283 723 315 833L243 850Q212 743 160.5 647.5Q109 552 48 489ZM244 494H848V569H244ZM237 669H927V743H237Z" transform="translate(0, 880) scale(1,-1)" /></svg>