<svg xmlns="http://www.w3.org/2000/svg" width="1000" height="1000"><path d="M171 401Q212 464 243.5 549.0Q275 634 289 722L219 746Q207 663 175.5 579.0Q144 495 106 440ZM517 408Q544 408 573.5 430.0Q603 452 640 502L588 568Q569 533 555.0 519.5Q541 506 525 506Q514 506 506.0 525.0Q498 544 488.5 594.5Q479 645 464 748L391 727Q411 602 431.0 532.0Q451 462 471.5 435.0Q492 408 517 408ZM892 443Q868 509 829.5 595.0Q791 681 754 750L689 705Q726 638 761.0 556.5Q796 475 819 406ZM126 -69Q173 -1 209.5 88.5Q246 178 262 271L187 295Q173 207 137.0 118.5Q101 30 57 -28ZM524 -60Q555 -60 586.5 -38.5Q618 -17 661 35L607 107Q585 70 568.5 55.5Q552 41 534 41Q521 41 512.0 61.5Q503 82 492.0 135.5Q481 189 464 298L385 276Q418 85 451.5 12.5Q485 -60 524 -60ZM951 -25Q925 44 880.0 135.0Q835 226 792 299L723 253Q766 183 806.0 97.5Q846 12 873 -62Z" transform="translate(0, 880) scale(1,-1)" /></svg>