<svg xmlns="http://www.w3.org/2000/svg" width="1000" height="1000"><path d="M223 -27Q172 105 172 197Q172 252 191 303Q218 374 218 427Q218 494 176 556L96 537Q138 462 138 404Q138 360 115 309Q92 257 92 191Q92 93 140 -36ZM292 703Q262 725 211.0 756.0Q160 787 115 811L75 755Q118 730 169.0 696.0Q220 662 249 639ZM308 -79Q467 -54 604.5 3.0Q742 60 831.5 160.0Q921 260 921 402Q921 465 893.5 521.0Q866 577 804.5 612.5Q743 648 646 648Q547 648 468.5 617.0Q390 586 344.5 527.5Q299 469 299 390Q299 344 321.5 304.0Q344 264 384.5 239.5Q425 215 476 215Q547 215 597.5 257.0Q648 299 648 393V840H574V393Q574 286 476 286Q428 286 402.0 316.5Q376 347 376 390Q376 472 445.5 520.0Q515 568 646 568Q752 568 796.5 521.0Q841 474 841 403Q841 281 753.5 195.5Q666 110 538.0 62.5Q410 15 275 -3Z" transform="translate(0, 880) scale(1,-1)" /></svg>