<svg xmlns="http://www.w3.org/2000/svg" width="1000" height="1000"><path d="M69 601V527H394V601ZM53 197 108 160 121 181 398 280 385 355 160 272 253 534 201 564ZM202 -72C249 -72 282 -51 282 16V814H210V35C210 12 200 -1 186 -1C159 -1 131 5 95 20V-60C132 -69 166 -72 202 -72ZM392 479 463 440C515 544 563 675 602 807L530 831C492 696 444 575 392 479ZM378 -5 429 -64C642 45 846 230 908 622L858 657L838 644H492V565H820C760 271 582 98 378 -5ZM880 -75 937 -11C769 164 633 282 476 376L433 319C588 220 719 104 880 -75Z" transform="translate(0, 880) scale(1,-1)" /></svg>