<svg xmlns="http://www.w3.org/2000/svg" width="1000" height="1000"><path d="M585 561V490C833 490 893 558 893 653C893 734 839 812 589 812C392 812 279 741 208 669V773H128V515H208V597C295 681 418 736 589 736C768 736 809 701 809 653C809 596 761 556 585 561ZM78 -54H920V17H78ZM114 233 181 188C312 316 410 450 495 607L424 634C341 481 246 346 114 233ZM553 17H652C716 56 764 101 764 165C764 237 683 290 551 290C399 290 315 254 315 180C315 118 372 67 479 67C550 67 590 113 590 155V352H511V176C511 148 490 134 462 134C438 134 395 154 395 180C395 207 432 224 551 224C636 224 682 193 682 163C682 125 662 79 553 17ZM313 352H807V420H313Z" transform="translate(0, 880) scale(1,-1)" /></svg>