<svg xmlns="http://www.w3.org/2000/svg" width="1000" height="1000"><path d="M204 -27Q160 102 160 197Q160 256 176 303Q200 375 200 427Q200 495 163 556L94 537Q130 466 130 404Q130 358 110 309Q90 258 90 193Q90 98 132 -36ZM265 703Q238 725 193.5 756.0Q149 787 110 811L75 755Q114 729 158.5 695.5Q203 662 228 639ZM825 -1Q946 94 946 207Q946 279 902.5 320.0Q859 361 765 361Q695 361 640.5 337.0Q586 313 556.5 272.0Q527 231 527 182Q527 125 554.5 93.0Q582 61 631 61Q698 61 737.0 110.5Q776 160 776 251Q776 341 713.0 393.0Q650 445 545 445Q450 445 379.5 413.5Q309 382 271.0 328.0Q233 274 233 210Q233 158 260.5 119.5Q288 81 336 81Q410 81 465.0 173.0Q520 265 549.5 406.0Q579 547 582 690L511 694Q508 558 486.5 432.5Q465 307 425.5 227.5Q386 148 332 148Q315 148 305.0 164.0Q295 180 295 210Q295 246 321.5 285.0Q348 324 404.5 350.5Q461 377 545 377Q625 377 669.0 340.5Q713 304 713 251Q713 131 631 131Q612 131 601.0 144.5Q590 158 590 182Q590 208 610.5 235.0Q631 262 670.5 280.0Q710 298 765 298Q833 298 853.5 272.5Q874 247 874 207Q874 161 846.5 119.0Q819 77 771 61ZM241 -39H927V30H241ZM409 515Q485 510 572 510Q691 510 760.0 526.5Q829 543 859.5 579.5Q890 616 890 678Q890 757 815.5 790.5Q741 824 620 824Q511 824 433.5 800.5Q356 777 274 728L303 668Q453 756 620 756Q678 756 721.5 744.5Q765 733 788.5 714.0Q812 695 812 675Q812 629 765.0 603.5Q718 578 591 578Q513 578 409 588Z" transform="translate(0, 880) scale(1,-1)" /></svg>