<svg xmlns="http://www.w3.org/2000/svg" width="1000" height="1000"><path d="M648 497Q666 524 666 552Q666 577 648.0 600.0Q630 623 593.5 637.5Q557 652 503 652Q422 652 383.5 624.5Q345 597 345 560Q345 537 367.5 516.0Q390 495 435.0 482.0Q480 469 546 469Q704 469 791.0 519.5Q878 570 878 658Q878 731 815.5 770.5Q753 810 601 810Q461 810 362.0 787.5Q263 765 182 727L220 670Q296 703 393.0 723.0Q490 743 601 743Q703 743 747.0 719.5Q791 696 791 658Q791 595 729.5 560.0Q668 525 546 525Q426 525 426 560Q426 576 445.5 587.0Q465 598 503 598Q541 598 562.5 586.0Q584 574 584 552Q584 530 575 512ZM163 788V490H244V788ZM542 26Q645 46 698.0 77.5Q751 109 751 156Q751 208 696.5 237.5Q642 267 533 267Q489 267 448.0 257.0Q407 247 377 230Q412 259 463.5 325.5Q515 392 561 481L478 501Q440 406 364.0 316.5Q288 227 203 156L273 124Q384 204 533 204Q602 204 633.0 190.0Q664 176 664 156Q664 123 591.0 89.5Q518 56 403 26ZM74 -45H927V26H74ZM117 316H886V385H117Z" transform="translate(0, 880) scale(1,-1)" /></svg>