<svg xmlns="http://www.w3.org/2000/svg" width="1000" height="1000"><path d="M143 -36 228 -27C172 115 161 218 195 303C233 399 237 475 180 556L97 537C149 449 152 383 117 309C79 228 85 115 143 -36ZM256 639 300 703C258 733 177 780 117 811L75 755C136 721 216 670 256 639ZM912 -84 946 -7C736 59 636 242 452 242C355 242 287 181 287 91C287 2 350 -53 435 -53C630 -53 841 165 841 287C841 398 771 446 617 446C539 446 458 429 389 402L414 327C468 354 547 372 617 372C710 372 757 345 757 287C757 194 579 21 435 21C385 21 363 49 363 91C363 132 403 169 452 169C607 169 699 -15 912 -84ZM544 393H630V840H544ZM283 609 326 540C442 614 579 646 697 646C811 646 854 616 854 590C854 561 846 538 828 513L906 482C925 516 933 543 933 591C933 690 845 723 697 723C551 723 404 682 283 609Z" transform="translate(0, 880) scale(1,-1)" /></svg>