<svg xmlns="http://www.w3.org/2000/svg" width="1000" height="1000"><path d="M247 442 324 473C300 565 250 702 206 803L133 779C179 680 226 538 247 442ZM287 363 349 331C466 438 572 596 670 791L586 815C500 617 401 469 287 363ZM53 640V563H785V640ZM169 51C169 181 607 355 760 355C798 355 821 331 821 294C821 172 651 67 522 4L560 -62C698 9 902 157 902 294C902 391 846 433 760 433C581 433 82 238 82 44C82 -26 148 -68 235 -68C383 -68 529 58 529 205C529 323 478 391 298 391C222 391 148 374 101 353L121 283C165 301 237 316 302 316C413 316 449 281 449 205C449 111 334 6 238 6C194 6 169 25 169 51ZM876 -64 931 -9C812 110 727 176 617 235L572 183C682 122 760 58 876 -64Z" transform="translate(0, 880) scale(1,-1)" /></svg>