<svg xmlns="http://www.w3.org/2000/svg" width="1000" height="1000"><path d="M379 594Q284 704 174 795L123 748Q230 655 321 545ZM381 447Q524 521 670.0 621.5Q816 722 878 784L810 832Q750 770 606.0 670.5Q462 571 323 502ZM814 566Q742 625 651.5 688.5Q561 752 494 788L439 735Q518 689 609.0 624.5Q700 560 757 505ZM98 489V414H902V489ZM578 -80Q701 -80 757.5 -4.0Q814 72 814 202Q814 274 765.5 312.0Q717 350 609 350Q468 350 313 327L318 264Q494 283 609 283Q666 283 699.0 263.5Q732 244 732 202Q732 102 690.0 43.0Q648 -16 564 -16Q452 -16 373 4V-68Q460 -80 578 -80ZM659 103 663 169 366 174 363 107ZM321 438Q301 290 254.5 181.5Q208 73 133 -15L207 -54Q283 40 332.5 159.5Q382 279 405 435Z" transform="translate(0, 880) scale(1,-1)" /></svg>