<svg xmlns="http://www.w3.org/2000/svg" width="1000" height="1000"><path d="M282 -80Q335 -80 358.5 -19.5Q382 41 382 154Q382 256 342.5 434.0Q303 612 238 826L170 803Q231 599 269.5 424.5Q308 250 308 154Q308 70 297.0 31.5Q286 -7 263 -7Q226 -7 183 21V-62Q226 -80 282 -80ZM105 -70Q171 55 207.5 161.5Q244 268 268 405L203 423Q179 294 143.5 191.0Q108 88 46 -24ZM58 544H412V617H58ZM462 443Q492 519 518.0 620.0Q544 721 558 814L490 824Q476 730 451.5 634.5Q427 539 397 472ZM479 612H926L925 683H479ZM836 -69Q879 -69 900.0 -27.5Q921 14 932 110L861 123Q857 55 844.5 26.5Q832 -2 808 -2H587Q562 -2 551.5 3.0Q541 8 541 19Q541 31 559.5 51.0Q578 71 648.0 129.5Q718 188 882 321L837 381L821 374H508V301L735 302Q616 208 557.5 155.0Q499 102 480.0 73.0Q461 44 461 18Q461 -69 559 -69ZM550 532V461H825V532Z" transform="translate(0, 880) scale(1,-1)" /></svg>