<svg xmlns="http://www.w3.org/2000/svg" width="1000" height="1000"><path d="M701 -91Q818 -65 887.5 18.0Q957 101 957 224Q957 315 915.5 376.5Q874 438 803.0 467.5Q732 497 642 497Q536 497 451.0 453.0Q366 409 317.5 330.0Q269 251 269 152Q269 94 295.5 47.5Q322 1 362.0 -24.5Q402 -50 441 -50Q544 -50 627.0 29.5Q710 109 762.5 252.0Q815 395 831 581L760 589Q747 428 702.0 298.5Q657 169 590.0 95.0Q523 21 447 21Q422 21 398.0 39.0Q374 57 359.0 87.0Q344 117 344 152Q344 230 382.0 292.0Q420 354 488.0 388.5Q556 423 642 423Q746 423 813.0 378.0Q880 333 880 226Q880 126 826.0 60.0Q772 -6 664 -22ZM228 -27Q176 104 176 198Q176 256 195 303Q223 373 223 428Q223 494 180 556L97 537Q140 463 140 403Q140 358 117 309Q93 258 93 191Q93 93 143 -36ZM300 703Q270 725 217.0 756.0Q164 787 117 811L75 758Q121 732 173.5 698.5Q226 665 256 642ZM641 138Q563 177 527.5 265.0Q492 353 492 518Q492 648 513 840L435 849Q416 672 416 538Q416 338 461.0 233.0Q506 128 602 85ZM578 307H649V575H578ZM304 644H948V717H304Z" transform="translate(0, 880) scale(1,-1)" /></svg>