<svg xmlns="http://www.w3.org/2000/svg" width="1000" height="1000"><path d="M419 -75H795C888 -75 914 -20 924 114L849 127C843 17 832 -1 786 -1H441C411 -1 398 6 398 22C398 70 416 142 479 252C498 284 519 322 519 359C519 415 459 444 371 444C270 444 230 408 230 362C230 316 255 278 486 278C785 278 891 346 891 432C891 511 822 556 619 556C491 556 395 549 295 535L323 470C417 480 507 487 619 487C767 487 811 469 811 432C811 382 723 347 486 347C331 347 311 353 311 363C311 374 336 381 371 381C407 381 437 375 437 361C437 346 425 312 409 286C343 180 314 90 314 16C314 -52 339 -75 419 -75ZM118 52H717V122H118ZM140 164H688V234H140ZM557 510 820 632 752 678 730 670H195V603H609L465 539ZM59 708H937V775H553L516 847L436 836L470 775H59Z" transform="translate(0, 880) scale(1,-1)" /></svg>