<svg xmlns="http://www.w3.org/2000/svg" width="1000" height="1000"><path d="M925 -14Q804 37 735.5 116.0Q667 195 632.0 363.5Q597 532 597 837H523Q524 518 562.0 338.0Q600 158 675.0 67.5Q750 -23 881 -82ZM659 387Q714 387 738.5 360.5Q763 334 763 293Q763 236 695.5 170.5Q628 105 525 58L561 1Q647 35 710.5 85.0Q774 135 807.5 189.0Q841 243 841 293Q841 362 799.0 411.0Q757 460 659 460Q471 460 338.5 418.5Q206 377 138.5 304.0Q71 231 71 137Q71 63 110.0 25.5Q149 -12 209 -12Q293 -12 340.5 64.5Q388 141 388 287V539H312V292Q312 179 286.0 121.0Q260 63 209 63Q181 63 162.5 83.0Q144 103 144 137Q144 204 198.0 260.5Q252 317 368.0 352.0Q484 387 659 387ZM84 605H778V677H84ZM937 607Q901 726 847 813L788 778Q838 699 869 580Z" transform="translate(0, 880) scale(1,-1)" /></svg>