<svg xmlns="http://www.w3.org/2000/svg" width="1000" height="1000"><path d="M456 403C523 403 551 430 551 489V823H472V501C472 484 460 472 438 472C399 472 348 481 301 493V415C348 408 402 403 456 403ZM59 505 115 450C198 486 290 543 347 601L276 636C226 586 142 536 59 505ZM62 663H942V735H62ZM882 447 939 498C891 537 787 596 704 635L650 588C734 546 835 486 882 447ZM409 3 468 -28C568 8 666 77 666 147C666 193 616 244 503 244C385 244 345 196 345 155C345 113 408 67 546 67C758 67 878 129 878 242C878 329 816 397 601 397C398 397 275 359 182 316L220 261C314 301 445 333 601 333C747 333 791 286 791 242C791 164 712 122 546 122C462 122 426 133 426 155C426 175 449 192 503 192C553 192 584 177 584 147C584 82 515 44 409 3ZM163 376V88H244V376ZM74 25V-48H926V25Z" transform="translate(0, 880) scale(1,-1)" /></svg>