<svg xmlns="http://www.w3.org/2000/svg" width="1000" height="1000"><path d="M87 -77Q324 16 469.0 177.0Q614 338 614 567V824H535V567Q535 431 469.0 318.5Q403 206 292.5 124.0Q182 42 43 -11ZM843 -61Q886 -61 908.5 -38.0Q931 -15 940.5 37.0Q950 89 954 187L877 201Q875 113 871.5 75.0Q868 37 859.0 24.0Q850 11 831 11H704Q680 11 673.0 21.0Q666 31 666 66V308H590V67Q590 16 599.0 -11.0Q608 -38 630.5 -49.5Q653 -61 695 -61ZM826 288Q877 331 901.0 378.0Q925 425 925 466Q925 515 899.0 553.0Q873 591 826.0 612.5Q779 634 720 634Q610 634 519.0 613.5Q428 593 356.5 562.5Q285 532 173 475L105 440L147 366L193 392Q305 455 373.0 488.0Q441 521 526.0 541.0Q611 561 720 561Q781 561 812.5 533.0Q844 505 844 466Q844 440 823.0 405.5Q802 371 762 342ZM268 448Q318 500 364.0 563.0Q410 626 437 682L387 726L370 719H90V648H331Q291 567 202 470Z" transform="translate(0, 880) scale(1,-1)" /></svg>