<svg xmlns="http://www.w3.org/2000/svg" width="1000" height="1000"><path d="M134 581H206V689C305 738 418 768 589 768C761 768 814 740 814 705C814 640 605 637 310 658V594C640 577 893 583 893 705C893 776 829 828 589 828C402 828 279 794 206 743V806H134ZM350 532 417 502C495 567 546 635 572 707L497 712C473 649 424 588 350 532ZM801 291 856 254C898 277 932 308 932 352C932 418 843 460 583 460C406 460 263 438 153 395V441H77V268H153V346C267 379 418 400 582 400C798 400 850 376 850 352C850 330 835 309 801 291ZM461 326H540V514H461ZM703 350 298 349V290H703ZM823 546 168 545V487H823ZM124 -15 158 -73 193 -67 789 -44 775 12 305 -5C387 29 468 63 557 107L453 119C369 72 277 32 198 0C174 -10 150 -13 124 -15ZM819 -90 879 -52C835 -12 768 36 687 79L635 41C715 -4 774 -52 819 -90ZM74 87H934V145H74ZM146 196H863V253H146Z" transform="translate(0, 880) scale(1,-1)" /></svg>