<svg xmlns="http://www.w3.org/2000/svg" width="1000" height="1000"><path d="M928 -14Q830 37 775.0 116.0Q720 195 691.5 363.5Q663 532 663 837H591Q592 518 624.0 337.5Q656 157 719.0 67.0Q782 -23 892 -82ZM84 565H809V637H84ZM937 587Q909 696 859 793L801 758Q845 677 872 560ZM297 583Q355 634 397.5 675.5Q440 717 473 759L419 808L402 800H118V732H364Q319 676 234 608ZM92 182H592V248H92ZM790 276Q783 219 731.5 163.5Q680 108 599 63L634 1Q727 47 788.5 118.5Q850 190 863 261ZM371 293Q417 321 473.5 367.5Q530 414 562 449L504 500L486 493H145V426H442Q394 375 328 331ZM417 280Q373 332 310 387L269 349Q322 303 372 240ZM130 -55Q248 42 303 130L231 151Q208 109 163.5 61.0Q119 13 70 -23ZM621 -27Q591 15 545.5 63.5Q500 112 452 156L389 127Q437 84 481.0 36.0Q525 -12 553 -56Z" transform="translate(0, 880) scale(1,-1)" /></svg>