<svg xmlns="http://www.w3.org/2000/svg" width="1000" height="1000"><path d="M456 -79Q506 -79 528.5 -58.0Q551 -37 551 8V839H472V20Q472 7 463.0 -2.0Q454 -11 438 -11Q378 -11 301 12V-67Q382 -79 456 -79ZM111 0Q179 51 245.0 124.0Q311 197 354 274L271 295Q232 226 171.0 163.0Q110 100 43 56ZM68 648H939V728H68ZM777 243Q814 243 847.0 265.5Q880 288 900.0 326.5Q920 365 920 410Q920 490 852.0 530.5Q784 571 621 571Q381 571 101 506L115 420Q358 489 621 489Q714 489 760.5 479.0Q807 469 821.0 453.0Q835 437 835 410Q835 371 816.0 344.5Q797 318 764 318Q715 318 657 335V254Q705 243 777 243ZM693 183Q749 137 799.0 88.0Q849 39 877 3L944 50Q916 86 865.5 133.5Q815 181 757 228Z" transform="translate(0, 880) scale(1,-1)" /></svg>