<svg xmlns="http://www.w3.org/2000/svg" width="1000" height="1000"><path d="M261 308Q329 308 390.0 333.5Q451 359 487.5 402.0Q524 445 524 494Q524 559 481.5 616.0Q439 673 320 729L252 704Q360 647 401.5 595.5Q443 544 443 501Q443 465 416.5 436.0Q390 407 347.5 391.0Q305 375 259 375Q205 376 171.0 392.5Q137 409 137 430Q137 453 172.5 477.0Q208 501 253 513Q337 536 461.0 552.5Q585 569 694 569L733 568V395H597V327L953 325V395H817V629L755 649L737 639Q603 639 460.5 620.5Q318 602 218 573Q148 552 103.5 517.0Q59 482 59 434Q59 377 111.0 342.5Q163 308 261 308ZM179 652Q445 696 717 779L651 840Q542 805 404.5 771.5Q267 738 147 718ZM572 -80Q699 -80 757.5 -13.0Q816 54 816 168Q816 233 766.0 267.0Q716 301 605 301Q468 301 306 279L311 219Q476 235 605 235Q664 235 699.0 218.5Q734 202 734 168Q734 82 689.5 31.5Q645 -19 558 -19Q441 -19 360 0V-69Q453 -80 572 -80ZM660 78 662 142 356 146 353 81ZM295 305Q271 204 231.5 125.0Q192 46 135 -23L207 -63Q332 93 379 300Z" transform="translate(0, 880) scale(1,-1)" /></svg>