<svg xmlns="http://www.w3.org/2000/svg" width="1000" height="1000"><path d="M380 -45 401 -35 847 25 819 87 476 47Q525 114 560.5 171.0Q596 228 633 305H907V376H673V557H946V628H673V840H598V628L333 623V557H598V376H369V305H543Q508 226 474.0 165.0Q440 104 420 81Q398 55 384.0 44.5Q370 34 354 30ZM237 -37Q185 94 185 195Q185 256 204 303Q232 373 232 428Q232 494 189 556L107 537Q150 463 150 403Q150 358 127 309Q103 258 103 187Q103 83 153 -46ZM941 -45Q919 12 869.0 92.0Q819 172 764 240L704 211Q759 140 805.5 61.5Q852 -17 875 -79ZM300 703Q270 725 217.0 756.0Q164 787 117 811L75 758Q121 732 173.5 698.5Q226 665 256 642Z" transform="translate(0, 880) scale(1,-1)" /></svg>