<svg xmlns="http://www.w3.org/2000/svg" width="1000" height="1000"><path d="M247 522 308 498C394 570 485 672 531 745L471 782L452 774H78V699H396C357 638 303 570 247 522ZM674 119 719 68C849 160 937 258 935 414C934 522 805 595 655 551C711 625 761 703 808 788L728 823C682 721 626 620 556 522C550 514 531 504 509 494L546 428C700 511 851 506 852 399C852 294 805 210 674 119ZM830 -93 900 -40C815 53 701 145 580 227L529 174C649 96 754 -4 830 -93ZM114 50 112 -39C156 -54 207 -62 260 -62C421 -62 503 115 503 256C503 375 434 494 240 549L207 487C363 438 415 341 415 256C415 151 354 19 260 19C199 19 153 29 114 50ZM116 423V175H192V423ZM53 179 83 111 396 229 367 297Z" transform="translate(0, 880) scale(1,-1)" /></svg>