<svg xmlns="http://www.w3.org/2000/svg" width="1000" height="1000"><path d="M39 498 74 428C275 480 526 548 696 604L667 666C496 613 249 544 39 498ZM297 393H369V821H297ZM908 422 948 491C836 521 715 548 583 569L560 507C686 483 802 455 908 422ZM631 393H703V821H631ZM73 661H927V733H73ZM211 -68H817C887 -68 914 -28 932 86L857 94C849 12 832 -1 798 -1H243C204 -1 192 3 192 12C192 27 213 38 862 211L815 281L794 277H154V209L632 210C111 80 86 51 86 4C86 -39 110 -68 211 -68ZM652 281 696 344C594 376 478 406 341 437L305 375C440 345 556 313 652 281Z" transform="translate(0, 880) scale(1,-1)" /></svg>