<svg xmlns="http://www.w3.org/2000/svg" width="1000" height="1000"><path d="M799 -81Q846 -81 873.0 -66.5Q900 -52 915.0 -20.0Q930 12 939 71L863 94Q858 37 845.5 16.0Q833 -5 802 -6Q695 -6 592.5 60.5Q490 127 422.5 232.0Q355 337 346 444H264Q276 310 354.0 188.5Q432 67 551.0 -7.0Q670 -81 799 -81ZM122 -78Q331 -43 517.5 25.5Q704 94 822 200L750 231Q682 173 570.0 123.5Q458 74 329.0 39.5Q200 5 81 -10ZM100 228 937 260 932 332 93 300ZM147 515Q198 594 228.5 673.5Q259 753 271 825L191 837Q170 692 75 545ZM760 387Q727 407 668.0 431.5Q609 456 549 476L507 424Q561 406 620.5 378.5Q680 351 716 329ZM278 506H832V577H278ZM209 665H901V738H209Z" transform="translate(0, 880) scale(1,-1)" /></svg>