<svg xmlns="http://www.w3.org/2000/svg" width="1000" height="1000"><path d="M79 638V564H921V638ZM460 823V442H540V823ZM556 462Q434 462 329.0 441.0Q224 420 116 382L145 315Q245 355 343.0 374.5Q441 394 556 394Q652 394 703.5 373.0Q755 352 755 315Q755 256 661.5 186.5Q568 117 447.0 67.0Q326 17 264 17Q222 17 195.0 42.5Q168 68 168 109Q168 147 208.0 174.0Q248 201 321 201Q380 201 443.5 171.5Q507 142 614 77Q699 26 760.5 -8.0Q822 -42 893 -73L947 -12Q882 15 821.5 48.0Q761 81 680 128Q595 178 540.5 206.5Q486 235 429.5 253.5Q373 272 321 272Q255 272 201.5 252.0Q148 232 116.5 195.0Q85 158 85 109Q85 63 107.5 26.5Q130 -10 170.5 -31.0Q211 -52 264 -52Q352 -52 493.5 6.0Q635 64 740.5 149.5Q846 235 846 315Q846 385 770.5 423.5Q695 462 556 462Z" transform="translate(0, 880) scale(1,-1)" /></svg>