<svg xmlns="http://www.w3.org/2000/svg" width="1000" height="1000"><path d="M575 482 653 471C662 489 667 507 667 526C667 580 616 636 503 636C385 636 344 583 344 536C344 486 408 437 546 437C758 437 879 510 879 641C879 742 813 818 598 818C395 818 277 777 184 731L222 673C316 716 442 750 598 750C744 750 791 698 791 641C791 550 712 496 546 496C462 496 426 510 426 536C426 559 449 579 503 579C553 579 584 561 584 526C584 510 581 496 575 482ZM163 799V463H244V799ZM456 -79C523 -79 551 -50 551 12V413H472V24C472 6 460 -6 438 -6C399 -6 348 3 301 16V-66C348 -74 402 -79 456 -79ZM54 51 115 -6C198 44 290 120 347 199L271 229C221 159 137 92 54 51ZM62 279H942V355H62ZM882 -10 944 40C896 93 792 174 709 227L650 181C734 125 835 43 882 -10Z" transform="translate(0, 880) scale(1,-1)" /></svg>