<svg xmlns="http://www.w3.org/2000/svg" width="1000" height="1000"><path d="M78 344H567V408H78ZM405 408Q501 463 501 526Q501 570 453.5 598.5Q406 627 325 627Q236 627 187.0 603.5Q138 580 138 535Q138 495 170.0 469.5Q202 444 260 444Q288 444 310.0 455.0Q332 466 344.5 483.0Q357 500 357 517V830H292V535Q292 517 278.5 508.5Q265 500 245 500Q228 500 216.5 509.5Q205 519 205 535Q205 574 325 574Q375 574 404.0 559.0Q433 544 433 524Q433 498 408.0 469.5Q383 441 323 408ZM102 675H548V738H102ZM574 -78Q725 23 814.5 204.0Q904 385 914 650L858 674L840 658H641V588H839Q825 373 749.5 226.0Q674 79 525 -24ZM262 -70Q336 -70 399.0 -44.5Q462 -19 500.5 29.5Q539 78 539 145Q539 198 510.0 230.5Q481 263 417.0 278.5Q353 294 245 294L197 293V232Q215 233 247 233Q370 233 418.5 211.5Q467 190 467 144Q467 100 436.0 65.5Q405 31 357.5 12.0Q310 -7 262 -7Q221 -7 202.0 2.0Q183 11 183 26Q183 47 216.0 71.5Q249 96 319.0 120.5Q389 145 494 163L463 219Q347 199 266.5 167.5Q186 136 146.5 99.0Q107 62 107 26Q107 -15 145.5 -42.5Q184 -70 262 -70ZM159 168Q198 203 238.0 254.0Q278 305 304 353L235 371Q210 325 172.5 276.5Q135 228 96 193ZM950 -23Q899 68 814.0 179.5Q729 291 638 390L589 349Q672 255 754.5 137.5Q837 20 890 -75ZM616 431Q683 596 709 811L636 818Q623 704 602.5 616.5Q582 529 549 449Z" transform="translate(0, 880) scale(1,-1)" /></svg>