<svg xmlns="http://www.w3.org/2000/svg" width="1000" height="1000"><path d="M478 726H84V651H916V726H563L509 845L434 827ZM317 359Q378 400 436.5 449.0Q495 498 531 538L478 573L459 564H92V498H392Q333 426 259 377ZM166 64Q166 139 271.5 214.0Q377 289 518.0 338.0Q659 387 746 387Q785 387 807.0 367.5Q829 348 829 315Q829 230 734.0 150.5Q639 71 510 8L547 -52Q682 21 793.0 120.0Q904 219 904 315Q904 456 746 456Q644 456 481.0 397.5Q318 339 196.5 248.5Q75 158 75 64Q75 1 121.0 -30.5Q167 -62 245 -62Q330 -62 387.0 -25.5Q444 11 471.5 66.0Q499 121 499 179Q499 251 436.5 309.5Q374 368 245 397L213 340Q316 315 364.5 271.5Q413 228 413 179Q413 137 394.5 98.0Q376 59 338.0 34.0Q300 9 245 9Q210 9 188.0 23.0Q166 37 166 64ZM935 -3Q842 89 765.5 147.0Q689 205 602 250L561 202Q647 154 719.5 96.0Q792 38 884 -56Z" transform="translate(0, 880) scale(1,-1)" /></svg>