<svg xmlns="http://www.w3.org/2000/svg" width="1000" height="1000"><path d="M124 444 198 385C389 473 629 510 883 524L873 597C589 580 342 527 225 478C253 561 360 664 439 759L382 804L348 792H106V716H295C244 650 171 545 124 444ZM341 25 387 -42C467 10 551 79 551 152C551 241 466 292 348 292C230 292 144 244 87 197L134 139C183 180 261 218 348 218C412 218 465 186 465 152C465 104 394 56 341 25ZM890 -62 932 4C681 108 648 384 648 829H567C567 368 617 40 890 -62Z" transform="translate(0, 880) scale(1,-1)" /></svg>