<svg xmlns="http://www.w3.org/2000/svg" width="1000" height="1000"><path d="M299 -80Q353 -80 376.5 -19.5Q400 41 400 154Q400 252 358.0 417.5Q316 583 241 826L173 803Q245 571 286.0 408.0Q327 245 327 154Q327 69 315.5 31.0Q304 -7 278 -7Q240 -7 196 21V-62Q240 -80 299 -80ZM104 -70Q173 54 211.5 161.0Q250 268 275 405L210 423Q184 294 147.0 191.0Q110 88 46 -24ZM58 544H422V617H58ZM821 -62Q861 -62 883.0 -42.0Q905 -22 915.5 21.5Q926 65 932 147L860 166Q858 100 853.0 69.0Q848 38 837.5 26.5Q827 15 805 15H661Q630 15 619.5 28.0Q609 41 609 80V570H539V82Q539 23 549.0 -7.5Q559 -38 582.5 -50.0Q606 -62 651 -62ZM761 139Q825 192 852.0 242.0Q879 292 879 366Q879 401 864.0 436.0Q849 471 815.5 495.0Q782 519 732 519Q650 519 571.5 474.5Q493 430 424 354L450 291Q512 366 587.0 404.5Q662 443 734 443Q775 443 792.0 420.0Q809 397 809 362Q809 321 787.5 280.0Q766 239 720 203ZM460 447Q499 521 529.5 622.5Q560 724 579 834L514 849Q496 742 465.5 646.5Q435 551 399 488ZM502 637H917V712H502Z" transform="translate(0, 880) scale(1,-1)" /></svg>