<svg xmlns="http://www.w3.org/2000/svg" width="1000" height="1000"><path d="M140 -36 223 -27C168 115 158 218 191 303C227 399 231 475 176 556L96 537C146 449 149 383 115 309C79 228 85 115 140 -36ZM249 639 292 703C251 733 173 780 115 811L75 755C134 721 211 670 249 639ZM275 -3 308 -79C592 -35 921 99 921 402C921 518 851 648 646 648C450 648 299 553 299 390C299 299 371 215 476 215C556 215 648 256 648 393V840H574V393C574 311 531 286 476 286C409 286 376 337 376 390C376 497 467 568 646 568C801 568 841 483 841 403C841 141 509 28 275 -3Z" transform="translate(0, 880) scale(1,-1)" /></svg>