<svg xmlns="http://www.w3.org/2000/svg" width="1000" height="1000"><path d="M764 -61Q818 -61 846.5 -48.0Q875 -35 889.5 1.5Q904 38 910 113L841 139Q838 82 831.0 55.0Q824 28 810.5 19.5Q797 11 770 11H309Q268 11 252.5 15.0Q237 19 237 31Q237 48 357.5 95.0Q478 142 808 246L774 304L757 301H172V232H551Q323 167 234.0 116.5Q145 66 145 25Q145 -20 185.5 -40.5Q226 -61 315 -61ZM204 502H284V801H204ZM59 383H943V454H59ZM484 410Q651 446 735.0 477.5Q819 509 819 554Q819 620 633 620Q703 629 752.5 658.0Q802 687 802 723Q802 752 785.5 769.0Q769 786 722.5 795.0Q676 804 589 804Q501 804 410.5 780.5Q320 757 234 712V644Q328 687 409.5 710.0Q491 733 552 735Q573 736 609 736Q664 736 691.0 730.0Q718 724 718 711Q718 692 674.0 673.0Q630 654 544 632V571Q636 571 685.5 566.0Q735 561 735 547Q735 529 660.0 499.0Q585 469 464 437Z" transform="translate(0, 880) scale(1,-1)" /></svg>