<svg xmlns="http://www.w3.org/2000/svg" width="1000" height="1000"><path d="M782 -61Q834 -61 860.5 -43.5Q887 -26 899.0 14.5Q911 55 917 137L839 159Q835 97 829.5 69.0Q824 41 811.0 30.5Q798 20 770 20H563Q535 20 521.5 25.5Q508 31 503.0 44.0Q498 57 498 83V732H416V79Q416 22 426.5 -7.5Q437 -37 463.5 -49.0Q490 -61 542 -61ZM91 435 871 470 868 551 88 516ZM126 651Q307 662 492.5 687.5Q678 713 814 749L776 823Q660 789 480.0 764.0Q300 739 110 726ZM71 226 891 262 888 343 68 307Z" transform="translate(0, 880) scale(1,-1)" /></svg>