<svg xmlns="http://www.w3.org/2000/svg" width="1000" height="1000"><path d="M69 722H930V797H69ZM886 367Q904 405 912.5 439.0Q921 473 921 515Q921 654 617 654Q477 654 361.0 617.0Q245 580 164 513V637H82V389H164V453Q240 512 361.5 541.0Q483 570 617 570Q694 570 743.5 561.5Q793 553 814.5 540.0Q836 527 836 514Q836 452 809 401ZM434 421Q417 489 382.5 582.5Q348 676 312 755L235 727Q271 653 304.0 557.0Q337 461 354 387ZM614 387Q645 456 681.0 553.0Q717 650 745 739L664 767Q643 686 608.5 588.0Q574 490 541 413ZM456 -79Q506 -79 528.5 -57.5Q551 -36 551 11V449H472V22Q472 9 463.0 0.5Q454 -8 438 -8Q378 -8 301 15V-66Q377 -79 456 -79ZM115 -13Q181 23 243.5 74.0Q306 125 347 178L273 209Q236 161 178.0 117.0Q120 73 56 43ZM62 253H942V327H62ZM942 33Q908 69 840.5 118.0Q773 167 707 207L650 161Q714 122 780.5 70.5Q847 19 882 -17Z" transform="translate(0, 880) scale(1,-1)" /></svg>