<svg xmlns="http://www.w3.org/2000/svg" width="1000" height="1000"><path d="M59 713V644H357V713ZM43 439 97 412 109 426 361 488 349 558 159 505 236 656 180 675ZM189 273C234 273 266 292 266 354V833H196V371C196 350 187 338 174 338C149 338 122 343 89 358V284C123 275 155 273 189 273ZM467 316C576 316 617 414 617 495C617 597 567 658 499 716L437 672C502 617 542 559 542 495C542 443 514 388 467 388C441 388 426 401 426 424C426 469 487 528 623 612L581 662C438 583 357 501 357 424C357 358 399 316 467 316ZM355 671 396 620C478 662 556 708 618 758L577 810C516 758 438 712 355 671ZM851 272C918 272 929 307 933 453L871 466C869 365 865 348 852 348C791 348 749 580 741 837H673C681 530 737 272 851 272ZM624 361 643 286C718 323 858 408 917 582L857 610C802 462 694 386 624 361ZM632 589 906 672 886 743 613 664ZM56 -12 100 -70C495 9 548 144 548 304H466C466 151 435 61 56 -12ZM885 -80 939 -26C826 30 695 85 579 125L537 73C654 29 784 -26 885 -80ZM73 153H927V225H73Z" transform="translate(0, 880) scale(1,-1)" /></svg>