<svg xmlns="http://www.w3.org/2000/svg" width="1000" height="1000"><path d="M373 26H475C575 79 673 167 673 273C673 342 616 404 503 404C385 404 338 345 338 285C338 220 408 172 546 172C758 172 877 273 877 441C877 564 760 656 555 656C312 656 218 515 170 433L208 400C270 492 359 586 555 586C691 586 794 528 794 441C794 323 712 232 546 232C462 232 426 251 426 285C426 314 449 342 503 342C553 342 584 317 584 273C584 174 479 86 373 26ZM93 -45H937V26H93ZM152 226H233V625H152ZM502 671 545 740C462 777 346 817 252 840L227 779C316 754 424 710 502 671Z" transform="translate(0, 880) scale(1,-1)" /></svg>