<svg xmlns="http://www.w3.org/2000/svg" width="1000" height="1000"><path d="M851 57 915 96C865 184 808 273 742 360L682 324C747 236 803 146 851 57ZM108 709 139 642C256 697 393 740 516 740C649 740 721 694 721 615C721 508 638 432 439 432C368 432 337 448 337 473C337 499 356 525 402 525C445 525 472 502 472 461C472 415 444 381 389 329C190 141 160 89 160 51C160 -8 193 -45 279 -45H575C648 -45 677 20 696 185L621 201C612 73 595 28 559 28H313C265 28 246 35 246 51C246 72 259 104 455 288C512 341 548 395 548 461C548 525 500 581 402 581C302 581 262 527 262 473C262 407 322 362 439 362C673 362 807 461 807 615C807 728 716 811 516 811C377 811 228 765 108 709Z" transform="translate(0, 880) scale(1,-1)" /></svg>