<svg xmlns="http://www.w3.org/2000/svg" width="1000" height="1000"><path d="M923 795H131V470Q131 324 112.5 199.0Q94 74 35 -23L100 -60Q163 42 184.5 180.0Q206 318 206 470V720H923ZM639 397Q702 431 767.5 481.0Q833 531 878 578L821 624L803 618H175V549H746Q711 516 671.0 489.0Q631 462 572 430ZM260 307Q346 344 438.0 363.0Q530 382 643 382Q770 382 818.5 330.5Q867 279 867 194Q867 97 817.0 47.0Q767 -3 677 -3Q599 -3 536.5 1.0Q474 5 412 17V-57Q525 -72 677 -72Q765 -72 824.5 -37.5Q884 -3 913.5 57.0Q943 117 943 194Q943 308 877.5 380.5Q812 453 643 453Q519 453 414.0 431.5Q309 410 228 371ZM501 57Q480 206 445 318L376 300Q415 177 428 41ZM297 147H834V220H297ZM659 -36Q697 110 732 318L656 329Q630 130 588 -29Z" transform="translate(0, 880) scale(1,-1)" /></svg>