<svg xmlns="http://www.w3.org/2000/svg" width="1000" height="1000"><path d="M182 549H253V668C349 719 460 751 625 751C790 751 842 720 842 681C842 609 640 605 354 627V563C674 545 920 551 920 681C920 757 858 812 625 812C444 812 324 776 253 723V788H182ZM329 450 387 410C503 494 577 585 609 683L535 688C505 604 437 523 329 450ZM564 158H670C737 184 777 224 777 261C777 322 699 358 562 358C404 358 315 332 315 272C315 223 380 193 488 193C561 193 597 218 597 253V536H520V267C520 250 498 243 470 243C439 243 397 257 397 272C397 291 434 305 562 305C649 305 696 284 696 260C696 234 675 201 564 158ZM171 94H929V158H171ZM187 395H912V456H187ZM928 -56 952 21C654 -1 427 0 283 41C196 65 135 131 109 219L31 199C66 79 144 5 253 -24C403 -65 625 -76 928 -56Z" transform="translate(0, 880) scale(1,-1)" /></svg>