<svg xmlns="http://www.w3.org/2000/svg" width="1000" height="1000"><path d="M456 344C523 344 551 371 551 432V833H472V444C472 427 460 414 438 414C399 414 348 423 301 436V356C348 349 402 344 456 344ZM57 459 115 403C198 445 290 511 347 579L274 612C224 552 140 494 57 459ZM62 649H942V723H62ZM882 399 941 450C893 495 789 564 706 610L650 563C734 515 835 445 882 399ZM454 41 492 -28C792 -26 902 40 902 162C902 252 830 324 586 324C376 324 224 282 73 205L125 141C244 205 399 249 586 249C754 249 818 206 818 162C818 92 730 36 454 41ZM492 -99 567 -64C539 -2 488 67 443 119L374 85C420 39 467 -37 492 -99Z" transform="translate(0, 880) scale(1,-1)" /></svg>