<svg xmlns="http://www.w3.org/2000/svg" width="1000" height="1000"><path d="M431 142Q351 184 313.0 278.5Q275 373 275 547Q275 669 293 840L220 849Q203 687 203 574Q203 363 251.5 249.0Q300 135 393 88ZM363 294H434V564H363ZM78 646H735V721H78ZM747 460Q803 460 826.0 433.0Q849 406 849 347Q849 275 815.0 198.0Q781 121 736.0 68.5Q691 16 663 16Q646 16 634.5 34.0Q623 52 623 84Q623 114 638.0 136.0Q653 158 680 158Q706 158 728.0 135.0Q750 112 791 54Q851 -32 899 -84L947 -18Q895 30 832 115Q799 158 778.5 182.0Q758 206 733.5 221.0Q709 236 680 236Q626 236 589.0 194.5Q552 153 552 86Q552 20 584.0 -20.5Q616 -61 665 -61Q707 -61 767.5 1.5Q828 64 872.5 159.0Q917 254 917 347Q917 448 875.0 491.5Q833 535 747 535Q620 535 457.5 473.5Q295 412 180.5 314.5Q66 217 66 116Q66 62 90.5 24.5Q115 -13 153.0 -31.0Q191 -49 233 -49Q335 -49 416.5 31.0Q498 111 550.0 256.0Q602 401 618 590L545 598Q532 434 488.5 302.5Q445 171 380.0 97.0Q315 23 239 23Q199 23 169.5 47.0Q140 71 140 116Q140 192 245.0 272.5Q350 353 495.5 406.5Q641 460 747 460Z" transform="translate(0, 880) scale(1,-1)" /></svg>