<svg xmlns="http://www.w3.org/2000/svg" width="1000" height="1000"><path d="M777 137C851 137 920 202 920 311C920 420 847 484 621 484C439 484 269 462 101 423L115 348C284 392 458 411 621 411C818 411 835 367 835 311C835 241 810 205 764 205C730 205 698 211 657 220V147C696 140 737 137 777 137ZM151 620H748L699 562L753 534L861 654L807 701L786 693H151ZM540 817H460V74H540ZM384 263 340 318C257 276 173 239 93 210L140 150C217 182 301 221 384 263ZM136 30V-48H864V30Z" transform="translate(0, 880) scale(1,-1)" /></svg>