<svg xmlns="http://www.w3.org/2000/svg" width="1000" height="1000"><path d="M235 528H765V592H235ZM317 709 393 732C376 764 348 806 317 841L245 821C273 787 303 742 317 709ZM89 651H911V715H89ZM668 690C697 728 733 786 756 826L673 844C658 805 628 747 600 706ZM900 245C928 274 939 314 939 355C939 466 788 493 614 493C427 493 291 459 149 383V464H77V259H149V344C323 405 454 419 613 419C751 419 856 393 856 351C856 330 847 308 832 294ZM184 -91C518 -33 685 37 803 290L751 316L731 309H342V253H707C609 73 441 19 146 -27ZM572 61 620 110C538 141 454 169 362 195L330 146C419 119 499 91 572 61ZM207 117C315 193 399 288 453 376L380 398C329 307 245 221 143 154Z" transform="translate(0, 880) scale(1,-1)" /></svg>