<svg xmlns="http://www.w3.org/2000/svg" width="1000" height="1000"><path d="M416 51Q492 92 578.5 143.5Q665 195 715 229L657 287L635 279H414Q449 316 473.5 351.0Q498 386 525 436L442 443Q389 343 296 256L343 203L367 212H572Q504 156 354 75ZM903 10Q549 74 139 119L104 56Q501 11 877 -56ZM82 405H914V470H82ZM171 526H242V664Q310 706 392.5 727.0Q475 748 582 748Q779 748 779 669Q779 630 723.5 612.5Q668 595 563 595Q474 595 333 608V542Q450 534 537 534Q691 534 773.5 564.5Q856 595 856 669Q856 737 795.0 774.0Q734 811 582 811Q463 811 377.5 787.0Q292 763 242 720V786H171ZM407 421Q531 537 571 672L498 677Q462 559 345 454Z" transform="translate(0, 880) scale(1,-1)" /></svg>