<svg xmlns="http://www.w3.org/2000/svg" width="1000" height="1000"><path d="M943 791H131V470Q131 324 112.5 199.0Q94 74 35 -23L103 -60Q209 113 209 470V714H943ZM428 410Q472 439 521.0 486.5Q570 534 603 578L547 624L530 617H178V552H484Q432 485 363 437ZM320 -68Q382 -68 429.5 -35.0Q477 -2 504.0 63.5Q531 129 531 224Q531 327 492.0 384.5Q453 442 357 456L337 388Q401 381 430.5 336.5Q460 292 460 211Q460 152 442.5 105.5Q425 59 393.5 33.0Q362 7 323 7Q304 7 292.0 19.5Q280 32 280 52Q280 115 373.0 198.5Q466 282 586.5 344.0Q707 406 771 406Q829 406 854.5 370.0Q880 334 880 260Q880 151 848.0 79.5Q816 8 743 8Q717 8 673.5 18.0Q630 28 581 46V-34Q674 -64 748 -64Q855 -64 904.0 27.0Q953 118 953 260Q953 363 911.0 422.0Q869 481 777 481Q694 481 556.5 410.0Q419 339 316.0 236.5Q213 134 213 42Q213 -11 244.0 -39.5Q275 -68 320 -68ZM810 146Q694 185 602 201L590 144Q707 119 797 88ZM820 283Q717 314 618 329L607 272Q697 257 806 223Z" transform="translate(0, 880) scale(1,-1)" /></svg>