<svg xmlns="http://www.w3.org/2000/svg" width="1000" height="1000"><path d="M475 26Q560 71 616.5 135.0Q673 199 673 273Q673 308 653.5 338.0Q634 368 595.5 386.0Q557 404 503 404Q420 404 379.0 369.5Q338 335 338 285Q338 234 392.0 203.0Q446 172 546 172Q704 172 790.5 243.0Q877 314 877 441Q877 503 839.0 552.0Q801 601 728.0 628.5Q655 656 555 656Q443 656 366.0 620.5Q289 585 246.5 537.5Q204 490 170 433L208 400Q265 485 343.5 535.5Q422 586 555 586Q623 586 677.5 568.0Q732 550 763.0 517.0Q794 484 794 441Q794 381 766.0 333.5Q738 286 682.5 259.0Q627 232 546 232Q426 232 426 285Q426 309 445.5 325.5Q465 342 503 342Q541 342 562.5 324.0Q584 306 584 273Q584 205 524.0 141.5Q464 78 373 26ZM93 -45H937V26H93ZM152 226H233V625H152ZM545 740Q482 768 402.0 795.5Q322 823 252 840L227 779Q291 761 366.0 731.5Q441 702 502 671Z" transform="translate(0, 880) scale(1,-1)" /></svg>