<svg xmlns="http://www.w3.org/2000/svg" width="1000" height="1000"><path d="M743 -7H825V491L767 522L748 510Q541 510 385.5 462.5Q230 415 146.0 330.5Q62 246 62 139Q62 52 119.0 4.0Q176 -44 269 -44Q377 -44 468.5 40.5Q560 125 621.0 286.5Q682 448 698 670L619 677Q606 478 554.0 332.0Q502 186 426.5 109.5Q351 33 269 33Q211 33 178.5 62.5Q146 92 146 139Q146 225 223.5 292.0Q301 359 437.0 396.0Q573 433 743 432ZM498 145Q406 190 348.5 331.0Q291 472 291 709V750L209 751V714Q209 534 243.0 402.0Q277 270 331.5 191.5Q386 113 452 82ZM405 315H485V628H405ZM97 795V718H652V795ZM637 31V-46H935V31Z" transform="translate(0, 880) scale(1,-1)" /></svg>