<svg xmlns="http://www.w3.org/2000/svg" width="1000" height="1000"><path d="M609 -87Q759 -53 847.5 42.0Q936 137 936 278Q936 434 824.0 509.5Q712 585 532 585Q396 585 290.0 536.5Q184 488 125.0 399.0Q66 310 66 195Q66 127 97.5 74.0Q129 21 177.5 -8.5Q226 -38 275 -38Q406 -38 511.5 58.5Q617 155 685.0 339.5Q753 524 773 782L699 793Q683 563 622.5 392.0Q562 221 472.5 129.5Q383 38 283 38Q251 38 217.5 60.0Q184 82 162.5 118.5Q141 155 141 195Q141 285 192.0 357.0Q243 429 332.5 469.0Q422 509 532 509Q669 509 763.0 456.5Q857 404 857 281Q857 207 822.5 145.0Q788 83 721.5 42.5Q655 2 562 -10ZM531 179Q459 212 414.0 273.5Q369 335 346.0 447.0Q323 559 323 739L324 800L246 806L245 749Q245 546 272.5 418.5Q300 291 351.5 222.0Q403 153 482 118ZM462 375H537V734H462Z" transform="translate(0, 880) scale(1,-1)" /></svg>