<svg xmlns="http://www.w3.org/2000/svg" width="1000" height="1000"><path d="M604 200Q703 200 769.5 240.5Q836 281 868.5 351.0Q901 421 901 510Q901 644 829.5 725.5Q758 807 567 807Q428 807 336.0 772.5Q244 738 192 688V798H114V245H192V615Q268 675 351.0 702.0Q434 729 567 729Q710 729 766.5 669.0Q823 609 823 510Q823 397 764.0 335.5Q705 274 604 274Q442 274 309 291L299 218Q430 200 604 200ZM114 -59H886V17H114ZM422 17Q461 49 485.0 87.5Q509 126 522.0 189.0Q535 252 535 350V662H459V350Q459 259 448.5 199.0Q438 139 414.5 97.0Q391 55 350 17ZM294 451H700V526H294Z" transform="translate(0, 880) scale(1,-1)" /></svg>