<svg xmlns="http://www.w3.org/2000/svg" width="1000" height="1000"><path d="M133 508H206V654Q285 706 376.0 732.5Q467 759 589 759Q711 759 762.5 735.0Q814 711 814 667Q814 622 751.0 601.5Q688 581 568 581Q472 581 310 596V525Q461 516 542 516Q714 516 803.5 550.0Q893 584 893 667Q893 742 825.0 784.0Q757 826 589 826Q455 826 359.5 796.0Q264 766 206 713V796H133ZM643 256Q697 278 727.5 309.5Q758 341 758 373Q758 423 697.5 451.5Q637 480 527 480Q262 480 262 385Q262 344 311.0 321.0Q360 298 447 298Q504 298 533.5 316.0Q563 334 563 364V680H484V380Q484 366 468.0 358.5Q452 351 428 351Q402 351 374.5 361.5Q347 372 347 385Q347 404 388.0 414.0Q429 424 527 424Q594 424 633.5 408.5Q673 393 673 372Q673 345 642.5 317.5Q612 290 529 256ZM78 190H930V256H78ZM630 -83Q729 -83 774.5 -52.0Q820 -21 820 33Q820 79 770.0 128.5Q720 178 615 239L554 194Q652 142 695.0 103.0Q738 64 738 33Q738 4 702.0 -8.5Q666 -21 585 -21Q499 -21 404 0V-68Q499 -83 630 -83ZM195 -72Q326 -1 399.5 60.0Q473 121 522 199L447 225Q398 153 326.0 95.0Q254 37 133 -24Z" transform="translate(0, 880) scale(1,-1)" /></svg>