<svg xmlns="http://www.w3.org/2000/svg" width="1000" height="1000"><path d="M97 -78 474 32 465 102 193 26Q206 200 257.0 375.0Q308 550 395 713H546V792H84V713H316Q231 559 182.0 391.5Q133 224 122 57Q120 26 108.0 11.5Q96 -3 71 -9ZM831 -78Q873 -78 900.0 -25.0Q927 28 937 149L864 168Q858 103 852.0 69.5Q846 36 838.5 22.0Q831 8 819 8Q738 8 696.0 74.0Q654 140 635.5 253.0Q617 366 596 595L593 629L512 622Q530 358 564.0 208.5Q598 59 661.0 -9.5Q724 -78 831 -78ZM364 250Q462 334 597.0 384.0Q732 434 925 444L914 515Q532 495 331 319ZM895 658Q870 691 823.0 736.0Q776 781 729 819L675 773Q721 734 767.0 687.5Q813 641 837 608Z" transform="translate(0, 880) scale(1,-1)" /></svg>