<svg xmlns="http://www.w3.org/2000/svg" width="1000" height="1000"><path d="M143 659V310Q143 186 127.0 102.0Q111 18 73 -53L152 -73Q190 -2 206.0 82.0Q222 166 222 290V659ZM812 -85Q853 -85 879.0 -66.0Q905 -47 922.5 -2.0Q940 43 952 125L878 146Q872 87 864.5 56.5Q857 26 844.5 13.0Q832 0 811 0Q682 0 618.0 240.0Q554 480 531 827L451 825Q479 441 558.0 178.0Q637 -85 812 -85ZM334 -27Q497 36 638.0 151.5Q779 267 863 408L794 444Q725 318 591.0 210.0Q457 102 283 42ZM181 421 905 522 894 595 171 495ZM836 667Q806 700 760.5 739.5Q715 779 671 810L624 768Q667 737 711.0 695.5Q755 654 784 619Z" transform="translate(0, 880) scale(1,-1)" /></svg>