<svg xmlns="http://www.w3.org/2000/svg" width="1000" height="1000"><path d="M465 -82Q504 -82 522.5 -62.5Q541 -43 541 2V561H463V6Q463 -13 443 -13Q396 -13 333 8V-70Q395 -82 465 -82ZM123 -44Q186 -3 245.5 55.5Q305 114 342 176L264 197Q231 143 175.5 92.0Q120 41 58 5ZM136 251H863V322H136ZM932 3Q899 43 834.0 99.0Q769 155 704 202L641 162Q703 116 767.5 58.0Q832 0 866 -41ZM156 401H843V472H156ZM321 685Q309 714 282.5 754.0Q256 794 226 829L165 800Q190 768 216.5 726.0Q243 684 258 652ZM86 561H913V632H86ZM570 686Q560 719 537.5 764.5Q515 810 489 849L425 823Q448 786 469.5 739.0Q491 692 502 657ZM741 639Q802 714 853 806L779 833Q762 795 734.0 748.5Q706 702 678 665Z" transform="translate(0, 880) scale(1,-1)" /></svg>