<svg xmlns="http://www.w3.org/2000/svg" width="1000" height="1000"><path d="M187 329 216 341H874V414H269Q405 600 500 817L420 843Q383 745 321.0 637.0Q259 529 205 450Q182 416 150 406ZM135 -38Q190 15 243.0 89.5Q296 164 332 241L257 261Q226 191 176.5 124.0Q127 57 71 10ZM508 -75Q546 -75 565.0 -53.5Q584 -32 584 17V560H508V25Q508 14 501.5 6.5Q495 -1 484 -1Q432 -2 369 19V-62Q430 -75 508 -75ZM940 11Q908 64 848.5 135.0Q789 206 728 263L665 229Q725 169 784.5 96.5Q844 24 873 -26ZM77 633H917V705H77Z" transform="translate(0, 880) scale(1,-1)" /></svg>