<svg xmlns="http://www.w3.org/2000/svg" width="1000" height="1000"><path d="M273 -82C541 -82 602 290 602 721H518C518 334 491 -7 273 -7C200 -7 146 32 146 91C146 165 200 201 309 201C488 201 634 10 924 -80L964 -11C653 80 545 272 309 272C170 272 66 214 66 91C66 -7 146 -82 273 -82ZM135 330H210V618H135ZM310 344C691 288 886 334 886 476C886 585 751 625 582 625C404 625 269 597 161 550L173 488C280 534 407 555 576 555C704 555 806 533 806 474C806 397 667 354 310 415ZM72 721H928V789H72Z" transform="translate(0, 880) scale(1,-1)" /></svg>