<svg xmlns="http://www.w3.org/2000/svg" width="1000" height="1000"><path d="M284 456Q355 604 393 814L324 822Q285 609 223 491ZM120 351Q135 394 149.0 458.5Q163 523 171 584L105 592Q100 538 88.0 476.0Q76 414 61 373ZM84 662H547V731H84ZM548 368Q527 513 504 596L443 582Q468 486 483 350ZM245 -62Q313 -62 359.5 -21.5Q406 19 428.5 84.0Q451 149 451 221Q451 277 422.0 335.0Q393 393 337.0 441.0Q281 489 205 514L180 455Q241 433 285.5 393.0Q330 353 353.0 306.0Q376 259 376 217Q376 166 361.5 120.0Q347 74 317.5 45.0Q288 16 245 16Q217 16 198.5 38.0Q180 60 180 100Q180 152 210.5 198.0Q241 244 300.0 291.5Q359 339 463 408L420 454Q265 355 185.0 272.0Q105 189 105 98Q105 20 143.5 -21.0Q182 -62 245 -62ZM543 -78Q708 24 806.5 205.0Q905 386 915 650L860 674L843 658H648V592H840Q826 380 741.5 232.0Q657 84 494 -20ZM950 -23Q899 69 816.0 181.0Q733 293 645 390L595 349Q676 255 756.5 137.5Q837 20 888 -75ZM619 431Q684 595 710 811L639 818Q626 704 605.5 617.5Q585 531 554 455Z" transform="translate(0, 880) scale(1,-1)" /></svg>