<svg xmlns="http://www.w3.org/2000/svg" width="1000" height="1000"><path d="M354 406Q457 399 513 399Q666 399 745.5 426.5Q825 454 850.0 494.5Q875 535 875 589Q875 667 808.5 714.0Q742 761 624 761Q521 761 448.5 737.5Q376 714 300 660Q348 747 374 837L290 853Q257 747 198.5 650.5Q140 554 68 486L135 437Q203 508 245 572Q329 628 428.0 657.0Q527 686 616 686Q670 686 708.5 672.0Q747 658 766.5 635.5Q786 613 786 589Q786 536 734.5 504.0Q683 472 539 472Q469 472 354 483ZM458 -75Q505 -75 527.5 -54.5Q550 -34 550 14V583H473V14Q473 1 467.0 -4.5Q461 -10 447 -10Q391 -10 303 15V-63Q369 -75 458 -75ZM616 51H924V120H793V364H718V120H616ZM240 204Q279 263 327 352L264 378Q218 289 164.5 221.5Q111 154 57 115L119 69Q161 115 185 130Q199 138 219 138Q226 138 234 136Q259 129 273 73L412 135L387 184L305 159Q298 191 240 204Z" transform="translate(0, 880) scale(1,-1)" /></svg>