<svg xmlns="http://www.w3.org/2000/svg" width="1000" height="1000"><path d="M890 556Q911 578 920.0 601.5Q929 625 929 653Q929 708 850.0 733.0Q771 758 617 758Q477 758 357.5 734.0Q238 710 155 668V736H79V562H155V615Q230 650 356.5 667.5Q483 685 617 685Q740 685 794.5 674.0Q849 663 849 647Q849 627 842.5 610.5Q836 594 818 577ZM572 726Q552 779 508 837L435 822Q453 797 470.0 766.0Q487 735 496 711ZM612 228Q661 250 688.5 279.5Q716 309 716 338Q716 387 661.0 414.0Q606 441 506 441Q388 441 327.0 419.0Q266 397 266 350Q266 311 310.5 289.0Q355 267 434 267Q486 267 514.0 284.5Q542 302 542 331V633H465V346Q465 332 451.5 325.5Q438 319 416 319Q393 319 369.5 328.5Q346 338 346 350Q346 387 506 387Q567 387 601.5 373.0Q636 359 636 338Q636 313 609.0 286.5Q582 260 508 228ZM131 163H858V228H131ZM147 483H843V546H147ZM126 -79Q173 -41 209.5 10.5Q246 62 262 115L187 138Q173 87 137.0 37.0Q101 -13 57 -47ZM524 -75Q555 -75 586.5 -62.5Q618 -50 661 -20L607 38Q585 17 568.5 8.5Q552 0 534 0Q522 0 512.5 10.5Q503 21 492.0 49.5Q481 78 464 134L388 118Q421 7 453.5 -34.0Q486 -75 524 -75ZM951 -47Q924 -7 879.5 45.5Q835 98 792 138L723 105Q766 65 806.0 15.5Q846 -34 873 -76Z" transform="translate(0, 880) scale(1,-1)" /></svg>