<svg xmlns="http://www.w3.org/2000/svg" width="1000" height="1000"><path d="M133 481H206V635Q285 689 376.0 717.0Q467 745 589 745Q711 745 762.5 719.5Q814 694 814 647Q814 598 750.5 576.0Q687 554 568 554Q465 554 310 570V499Q448 489 541 489Q712 489 802.5 524.5Q893 560 893 647Q893 724 825.0 768.0Q757 812 589 812Q454 812 358.5 781.0Q263 750 206 694V781H133ZM487 3Q704 19 813.0 58.5Q922 98 922 172Q922 287 620 287Q547 287 490.0 281.5Q433 276 371 263L667 376L617 429L590 425H88V358H479Q435 336 373.5 308.5Q312 281 250 255L216 241Q189 230 161 219L68 183L114 121Q212 166 347.0 193.5Q482 221 620 221Q727 221 783.0 205.0Q839 189 839 166Q839 143 794.5 121.5Q750 100 663.5 84.0Q577 68 456 63ZM431 -81H508V157H431ZM462 379Q511 475 561 629L496 646Q457 516 398 407Z" transform="translate(0, 880) scale(1,-1)" /></svg>