<svg xmlns="http://www.w3.org/2000/svg" width="1000" height="1000"><path d="M644 544Q665 570 665 594Q665 615 647.5 635.0Q630 655 593.0 668.0Q556 681 503 681Q422 681 384.0 657.0Q346 633 346 601Q346 581 368.0 563.0Q390 545 435.5 533.0Q481 521 546 521Q703 521 790.0 564.5Q877 608 877 682Q877 747 815.5 784.0Q754 821 603 821Q463 821 362.0 801.0Q261 781 181 746L219 692Q295 723 393.5 741.5Q492 760 603 760Q703 760 747.0 736.5Q791 713 791 682Q791 630 729.5 601.5Q668 573 546 573Q483 573 454.5 580.0Q426 587 426 601Q426 615 445.0 624.0Q464 633 503 633Q541 633 562.5 623.0Q584 613 584 594Q584 579 576 563ZM164 799V548H243V799ZM642 -69Q727 -61 797.5 -37.5Q868 -14 909.0 22.0Q950 58 950 100Q950 172 821.5 203.5Q693 235 500 235Q308 235 181.0 199.5Q54 164 54 83Q54 43 85.0 11.5Q116 -20 168.0 -38.0Q220 -56 281 -56Q383 -56 473.5 -9.0Q564 38 624.5 121.0Q685 204 702 307L624 311Q611 224 561.0 155.5Q511 87 437.0 48.5Q363 10 281 10Q217 10 176.0 30.0Q135 50 135 83Q135 107 181.5 127.0Q228 147 311.5 158.5Q395 170 500 170Q659 170 764.0 151.5Q869 133 869 96Q869 71 836.0 49.5Q803 28 743.5 13.0Q684 -2 608 -7ZM531 66Q458 96 423.0 143.5Q388 191 388 262Q388 363 461 530L384 546Q309 380 309 261Q309 170 352.5 109.0Q396 48 481 19ZM106 284H183V346Q266 387 378.0 406.5Q490 426 604 426Q701 426 762.0 416.0Q823 406 823 388Q823 346 598 346L487 348L489 289Q519 288 574 288Q742 288 825.0 312.5Q908 337 908 391Q908 442 827.0 465.5Q746 489 605 489Q474 489 360.0 462.5Q246 436 183 384V472H106Z" transform="translate(0, 880) scale(1,-1)" /></svg>