<svg xmlns="http://www.w3.org/2000/svg" width="1000" height="1000"><path d="M365 392Q456 381 541 381Q704 381 780.5 435.0Q857 489 857 606Q857 702 779.0 751.0Q701 800 547 800Q478 800 412.5 781.5Q347 763 297.5 733.5Q248 704 223 672V601Q274 656 362.0 688.5Q450 721 547 721Q662 721 720.0 690.0Q778 659 778 606Q778 519 719.0 482.5Q660 446 539 446Q476 446 365 458ZM958 239Q797 261 570 261Q335 261 55 238V166Q310 184 511 184Q756 184 938 160ZM147 354H223V771H147ZM457 -80H535V587H457Z" transform="translate(0, 880) scale(1,-1)" /></svg>