<svg xmlns="http://www.w3.org/2000/svg" width="1000" height="1000"><path d="M338 655Q318 687 280.0 728.0Q242 769 202 803L146 769Q184 735 221.0 692.5Q258 650 278 618ZM463 585H537V841H463ZM708 618Q743 647 784.5 690.0Q826 733 861 774L795 808Q769 771 728.5 727.0Q688 683 651 652ZM884 396Q902 424 910.5 451.5Q919 479 919 512Q919 573 842.0 600.5Q765 628 617 628Q476 628 359.5 599.0Q243 570 162 517V608H84V413H162V463Q238 510 361.0 533.0Q484 556 617 556Q696 556 745.5 549.0Q795 542 816.5 531.5Q838 521 838 511Q838 464 811 423ZM456 -79Q506 -79 528.5 -57.0Q551 -35 551 12V386H472V23Q472 9 463.0 1.0Q454 -7 438 -7Q384 -7 301 16V-66Q377 -79 456 -79ZM115 -24Q181 8 243.5 52.0Q306 96 347 143L275 179Q238 137 179.5 98.0Q121 59 58 33ZM62 212H942V286H62ZM940 24Q905 56 837.5 99.5Q770 143 705 178L650 129Q715 93 781.5 48.0Q848 3 882 -28ZM268 457V386H732V457Z" transform="translate(0, 880) scale(1,-1)" /></svg>