<svg xmlns="http://www.w3.org/2000/svg" width="1000" height="1000"><path d="M389 407Q421 407 442.0 439.5Q463 472 474.5 551.5Q486 631 488 770L436 789L423 778H76V703H410Q409 578 398.5 527.0Q388 476 369 476Q311 476 234 494V420Q306 407 389 407ZM96 -68 457 116 423 185 166 52V575H94V63Q94 18 67 1ZM712 68Q822 143 878.5 222.0Q935 301 935 409Q935 453 911.0 488.5Q887 524 843.5 544.0Q800 564 744 564Q700 564 654 551Q737 657 812 787L731 824Q655 662 552 522Q545 512 503 494L541 428Q595 456 646.0 470.5Q697 485 739 485Q791 485 820.5 462.5Q850 440 850 396Q850 316 807.0 250.5Q764 185 665 119ZM898 -39Q770 94 565 228L514 174Q602 119 682.5 49.0Q763 -21 827 -93Z" transform="translate(0, 880) scale(1,-1)" /></svg>