<svg xmlns="http://www.w3.org/2000/svg" width="1000" height="1000"><path d="M284 417Q398 514 461 578L406 623L393 615H286Q319 684 355 808L284 824Q250 699 192 587L241 550L254 556H354Q304 498 230 437ZM536 442 518 511 76 440 93 366ZM82 676H544V747H82ZM948 669H536V600H948ZM780 447V811H704V447ZM914 479H570V410H914ZM579 -80Q701 -80 756.5 -1.5Q812 77 812 213Q812 289 764.5 328.0Q717 367 611 367Q473 367 315 342L320 278Q477 296 611 298Q668 298 701.0 277.5Q734 257 734 213Q734 108 692.0 47.0Q650 -14 566 -15Q457 -15 376 6V-67Q458 -80 579 -80ZM659 111 663 179 369 183 365 115ZM323 437Q301 291 255.0 183.5Q209 76 135 -12L205 -52Q280 43 329.5 161.5Q379 280 403 436Z" transform="translate(0, 880) scale(1,-1)" /></svg>