<svg xmlns="http://www.w3.org/2000/svg" width="1000" height="1000"><path d="M656 195Q778 212 851.5 248.5Q925 285 925 330Q925 384 840.5 418.0Q756 452 592 452Q474 452 362 438Q395 459 435.5 499.0Q476 539 505 578L416 591Q392 550 348.0 504.0Q304 458 256 430L226 423L281 368Q347 381 412.0 388.0Q477 395 570 395Q837 395 837 330Q837 305 780.0 284.5Q723 264 637 252ZM287 604Q447 636 606 636Q795 636 795 591Q795 574 780.0 562.0Q765 550 723.0 543.5Q681 537 603 537Q519 537 406 544V491Q507 485 582 485Q703 485 769.0 499.0Q835 513 858.5 536.0Q882 559 882 591Q882 643 815.5 667.5Q749 692 606 692Q445 692 264 660ZM544 647Q613 677 676.0 711.0Q739 745 776 771L708 807L683 795H318V739H611Q573 714 494 675ZM133 600Q214 638 300.0 703.5Q386 769 428 830L345 844Q303 785 228.5 732.0Q154 679 78 649ZM456 -79Q506 -79 528.5 -59.0Q551 -39 551 4V231H472V15Q472 3 463.0 -5.0Q454 -13 438 -13Q383 -13 301 8V-67Q382 -79 456 -79ZM115 -52Q180 -31 243.0 -1.0Q306 29 347 59L280 99Q243 71 184.0 45.5Q125 20 63 3ZM935 -2Q899 19 831.0 48.0Q763 77 700 98L650 50Q713 28 780.0 -2.0Q847 -32 882 -53ZM164 333V267H639V333ZM217 178 284 292 223 312 108 127 165 97 182 108H942V178Z" transform="translate(0, 880) scale(1,-1)" /></svg>