<svg xmlns="http://www.w3.org/2000/svg" width="1000" height="1000"><path d="M576 -68Q891 144 913 650L853 674L835 658H627V592H834Q819 377 746.0 233.0Q673 89 525 -14ZM0.0 0.0Q0 0 0.0 0.0Q0 0 0.0 0.0ZM268 -70Q326 -70 385.5 -38.0Q445 -6 485.0 61.5Q525 129 525 230Q525 364 467.0 435.5Q409 507 297 507Q248 507 195 494V423Q248 432 287 432Q353 432 386.0 407.0Q419 382 429.0 339.5Q439 297 439 229Q439 165 415.5 114.5Q392 64 352.5 35.5Q313 7 268 7Q207 7 179.0 30.5Q151 54 151 101Q151 170 225.5 231.0Q300 292 450 351L430 415Q257 351 163.5 275.5Q70 200 70 103Q70 24 120.0 -23.0Q170 -70 268 -70ZM196 568Q183 616 160.0 671.5Q137 727 108 774L50 747Q78 697 101.0 639.5Q124 582 135 534ZM950 -23Q896 68 807.0 180.0Q718 292 624 390L573 349Q659 255 745.5 137.5Q832 20 887 -75ZM263 488H337V840H263ZM449 526Q496 612 545 757L475 784Q461 726 438.0 664.5Q415 603 390 554ZM596 431Q666 599 693 811L617 818Q604 704 582.0 617.5Q560 531 526 455Z" transform="translate(0, 880) scale(1,-1)" /></svg>