<svg xmlns="http://www.w3.org/2000/svg" width="1000" height="1000"><path d="M373 35H475C575 101 673 213 673 342C673 427 616 503 503 503C385 503 338 431 338 357C338 278 408 219 546 219C758 219 882 342 882 548C882 699 760 811 555 811C312 811 208 638 160 538L198 498C260 611 359 726 555 726C691 726 791 654 791 548C791 404 712 292 546 292C462 292 426 316 426 357C426 393 449 427 503 427C553 427 584 396 584 342C584 222 479 109 373 35ZM93 -39H937V36H93ZM142 285H223V773H142Z" transform="translate(0, 880) scale(1,-1)" /></svg>