<svg xmlns="http://www.w3.org/2000/svg" width="1000" height="1000"><path d="M78 390 115 314C314 416 504 522 566 741H495C418 543 293 479 78 390ZM45 99 84 18C122 39 157 67 202 101C219 114 246 116 261 112C278 107 289 87 306 18L463 124L436 164L336 118C331 147 317 170 279 180C327 236 372 300 412 363L355 400C268 266 156 145 45 99ZM472 -72C579 -72 636 24 636 147C636 280 547 449 437 537L377 489C482 401 558 265 558 143C558 69 528 -2 463 -2C425 -2 390 6 355 19V-59C388 -67 429 -72 472 -72ZM896 -15 945 54C821 133 609 232 454 292L433 226C576 171 779 69 896 -15ZM80 532H920V606H80ZM556 321 581 258C695 307 775 341 871 408L811 465C725 402 669 370 556 321ZM150 770 166 700C394 699 651 720 857 758L818 827C637 793 384 770 150 770Z" transform="translate(0, 880) scale(1,-1)" /></svg>