<svg xmlns="http://www.w3.org/2000/svg" width="1000" height="1000"><path d="M69 601V527H382V601ZM53 196 109 160 121 181 386 280 373 355 158 272 248 534 196 564ZM196 -72Q275 -72 275 16V814H204V35Q204 18 197.5 8.5Q191 -1 180 -1Q141 -1 92 20V-60Q140 -72 196 -72ZM491 826V-82H570V826ZM839 803Q812 640 776.5 519.5Q741 399 679.5 319.5Q618 240 525 240Q484 240 463.0 257.0Q442 274 442 301Q442 334 481.5 354.0Q521 374 584 374Q713 374 775.5 335.5Q838 297 838 213Q838 69 738 -70L810 -103Q919 61 919 213Q919 451 584 451Q518 451 468.0 431.5Q418 412 391.5 377.5Q365 343 365 301Q365 238 405.0 201.0Q445 164 525 164Q643 164 720.5 255.5Q798 347 841.0 480.5Q884 614 917 790Z" transform="translate(0, 880) scale(1,-1)" /></svg>