<svg xmlns="http://www.w3.org/2000/svg" width="1000" height="1000"><path d="M237 607Q217 682 161 801L95 777Q117 735 137.0 679.5Q157 624 167 580ZM417 580Q437 620 460.5 677.0Q484 734 501 784L429 808Q406 721 351 603ZM87 566V495H493V566ZM56 345V275H521V345ZM231 525V-5H306V525ZM197 6 228 -60 517 50 487 116ZM672 104Q776 160 826.0 193.0Q876 226 899.0 258.0Q922 290 922 333Q922 450 681 503Q769 552 835.5 610.5Q902 669 961 753L897 794L885 780H548V705H828Q770 640 706.5 593.5Q643 547 559 511L567 449Q717 421 779.5 390.5Q842 360 842 333Q842 303 795.0 265.5Q748 228 627 166ZM955 -29Q891 20 774.0 89.5Q657 159 555 208L521 146Q622 96 733.5 27.5Q845 -41 905 -91Z" transform="translate(0, 880) scale(1,-1)" /></svg>