<svg xmlns="http://www.w3.org/2000/svg" width="1000" height="1000"><path d="M868 -85Q906 -85 927.5 -39.0Q949 7 961 125L905 146Q899 63 890.5 33.0Q882 3 865 3Q793 3 751.5 125.5Q710 248 691.5 420.0Q673 592 661 827H598Q606 579 628.5 384.0Q651 189 708.5 52.0Q766 -85 868 -85ZM519 -55Q633 11 735.0 138.5Q837 266 895 418L840 457Q809 371 753.0 282.5Q697 194 623.0 120.0Q549 46 468 5ZM527 430 924 523 911 593 516 501ZM878 663Q863 691 831.0 730.5Q799 770 765 806L718 768Q749 734 781.0 691.5Q813 649 829 619ZM107 -54 504 144 465 202 70 15ZM191 11 458 315 398 357 384 345H250Q288 427 313.0 525.0Q338 623 354 753L289 760Q268 610 236.5 498.0Q205 386 151 307L200 261L223 278H335L133 29ZM72 399H139V477Q177 517 224.0 536.5Q271 556 321 556Q366 556 387.5 543.5Q409 531 409 510Q409 464 394 433L466 410Q475 434 479.0 455.0Q483 476 483 511Q483 573 438.5 602.0Q394 631 321 631Q258 631 216.0 607.0Q174 583 139 530V617H72ZM114 734H497V802H114Z" transform="translate(0, 880) scale(1,-1)" /></svg>