<svg xmlns="http://www.w3.org/2000/svg" width="1000" height="1000"><path d="M467 358Q549 390 608.0 442.5Q667 495 667 549Q667 575 649.0 598.5Q631 622 594.0 637.0Q557 652 503 652Q421 652 382.5 624.0Q344 596 344 557Q344 533 366.5 511.5Q389 490 434.5 477.0Q480 464 546 464Q705 464 791.5 513.5Q878 563 878 654Q878 732 814.0 776.5Q750 821 599 821Q459 821 361.5 798.5Q264 776 183 737L221 680Q297 714 392.5 734.0Q488 754 599 754Q700 754 745.5 725.5Q791 697 791 654Q791 589 730.0 555.0Q669 521 546 521Q484 521 455.0 530.0Q426 539 426 557Q426 575 445.5 586.5Q465 598 503 598Q541 598 562.5 585.5Q584 573 584 549Q584 499 540.0 463.0Q496 427 407 390ZM163 801V487H244V801ZM368 137Q398 183 456.0 226.0Q514 269 591.5 296.0Q669 323 753 323Q791 323 812.5 310.5Q834 298 843.5 266.5Q853 235 853 176Q853 92 828.0 44.0Q803 -4 734 -4Q667 -4 607 9V-67Q675 -72 734 -72Q843 -72 886.0 -7.5Q929 57 929 176Q929 254 913.0 299.5Q897 345 859.0 367.0Q821 389 753 389Q656 389 566.5 359.0Q477 329 409.0 278.5Q341 228 305 169Q266 103 266 46Q266 4 289.0 -22.0Q312 -48 355 -48Q445 -48 489.0 -2.5Q533 43 546 121Q551 154 551 181Q551 273 504.5 332.5Q458 392 355 392Q227 392 162 274L193 411H114Q87 208 87 79Q87 17 94 -71H168Q157 10 157 60Q157 129 174 180Q185 207 208.5 239.5Q232 272 269.0 296.0Q306 320 352 320Q410 320 443.0 276.5Q476 233 476 165Q476 145 473 124Q465 79 437.0 50.0Q409 21 372 21Q337 21 337 55Q337 87 368 137ZM517 139H804V210H517Z" transform="translate(0, 880) scale(1,-1)" /></svg>