<svg xmlns="http://www.w3.org/2000/svg" width="1000" height="1000"><path d="M182 549H253V668Q330 709 418.5 730.0Q507 751 625 751Q842 751 842 681Q842 615 608 615Q517 615 354 627V563Q492 556 575 556Q743 556 831.5 584.0Q920 612 920 681Q920 744 854.5 778.0Q789 812 625 812Q495 812 402.0 788.5Q309 765 253 723V788H182ZM387 410Q561 536 609 683L535 688Q489 558 329 450ZM670 158Q720 177 748.5 205.0Q777 233 777 261Q777 307 720.5 332.5Q664 358 562 358Q315 358 315 272Q315 235 361.0 214.0Q407 193 488 193Q541 193 569.0 209.5Q597 226 597 253V536H520V267Q520 255 506.0 249.0Q492 243 470 243Q446 243 421.5 252.0Q397 261 397 272Q397 305 562 305Q625 305 660.5 292.0Q696 279 696 260Q696 237 668.0 212.0Q640 187 564 158ZM171 94H929V158H171ZM187 395H912V456H187ZM952 21Q759 7 619 7Q403 7 283 41Q219 59 174.0 105.5Q129 152 109 219L31 199Q57 110 114.0 54.0Q171 -2 253 -24Q406 -66 659 -66Q765 -66 928 -56Z" transform="translate(0, 880) scale(1,-1)" /></svg>