<svg xmlns="http://www.w3.org/2000/svg" width="1000" height="1000"><path d="M478 726H84V651H916V726H563L509 845L434 827ZM259 377 317 359C400 414 484 485 531 538L478 573L459 564H92V498H392C359 458 313 413 259 377ZM166 64C166 226 580 387 746 387C798 387 829 358 829 315C829 189 646 74 510 8L547 -52C683 21 904 171 904 315C904 413 846 456 746 456C552 456 75 266 75 64C75 -23 146 -62 245 -62C425 -62 499 72 499 179C499 268 427 356 245 397L213 340C359 304 413 239 413 179C413 101 362 9 245 9C201 9 166 26 166 64ZM884 -56 935 -3C810 120 717 190 602 250L561 202C675 138 760 71 884 -56Z" transform="translate(0, 880) scale(1,-1)" /></svg>