<svg xmlns="http://www.w3.org/2000/svg" width="1000" height="1000"><path d="M115 696Q275 701 442.0 716.0Q609 731 731 754L701 821Q594 802 430.0 789.0Q266 776 103 771ZM298 499Q281 535 249.5 583.0Q218 631 185 672L122 643Q154 605 184.5 555.0Q215 505 231 467ZM543 467Q571 500 605.0 550.5Q639 601 668 649L597 679Q577 636 544.0 585.0Q511 534 480 495ZM350 380Q434 528 461 751L382 755Q371 638 346.5 554.5Q322 471 287 408ZM170 55Q170 130 280.5 218.0Q391 306 536.5 368.5Q682 431 765 431Q794 431 809.5 410.0Q825 389 825 352Q825 257 742.0 168.0Q659 79 547 11L584 -51Q704 30 802.5 138.5Q901 247 901 352Q901 506 765 506Q665 506 498.5 433.0Q332 360 206.5 253.5Q81 147 81 49Q81 -5 125.5 -36.5Q170 -68 236 -68Q317 -68 386.0 -32.5Q455 3 496.0 68.0Q537 133 537 217Q537 319 483.0 374.5Q429 430 301 430Q246 430 192.5 418.0Q139 406 101 388L121 319Q156 335 206.0 345.0Q256 355 304 355Q385 355 419.0 320.0Q453 285 453 217Q453 161 422.5 112.0Q392 63 342.0 34.0Q292 5 239 5Q208 5 189.0 19.0Q170 33 170 55ZM936 -1Q852 102 784.5 166.0Q717 230 640 280L596 231Q672 178 735.5 115.0Q799 52 883 -55Z" transform="translate(0, 880) scale(1,-1)" /></svg>