<svg xmlns="http://www.w3.org/2000/svg" width="1000" height="1000"><path d="M354 402V321C829 281 875 421 875 537C875 656 783 738 624 738C482 738 396 698 294 612C325 676 354 751 374 834L290 853C246 684 162 519 67 412L137 361C189 426 219 473 245 519C362 612 505 660 616 660C729 660 786 593 786 537C786 445 732 356 354 402ZM52 -11 101 -71C496 56 556 292 554 500H471C470 295 431 108 52 -11ZM889 -80 945 -22C828 66 684 156 552 230L509 173C638 99 782 6 889 -80Z" transform="translate(0, 880) scale(1,-1)" /></svg>