<svg xmlns="http://www.w3.org/2000/svg" width="1000" height="1000"><path d="M127 719 141 642C382 649 667 673 863 708L827 776C657 747 368 726 127 719ZM306 415 371 457C343 505 284 574 228 626L166 588C220 536 278 465 306 415ZM619 453 681 415C730 460 794 533 841 594L769 632C733 574 669 501 619 453ZM445 -57C518 -57 556 -25 556 40V835H477V57C477 28 467 12 432 12C388 12 350 19 305 35V-42C349 -53 399 -57 445 -57ZM61 49 122 -4C252 90 347 213 385 330L312 354C266 234 193 136 61 49ZM946 23 974 97C743 161 515 211 282 246L266 178C498 144 730 87 946 23ZM82 326H918V400H82Z" transform="translate(0, 880) scale(1,-1)" /></svg>