<svg xmlns="http://www.w3.org/2000/svg" width="1000" height="1000"><path d="M265 -62Q436 -62 528.0 112.5Q620 287 646 568L567 574Q547 323 473.5 168.0Q400 13 265 13Q234 13 205.5 30.5Q177 48 160.0 78.5Q143 109 143 145Q143 236 233.5 294.0Q324 352 460.5 379.5Q597 407 750 412V39H646V-38H934V39H830V464L776 500L755 484Q575 485 417.5 447.0Q260 409 163.0 332.0Q66 255 66 145Q66 85 96.0 37.5Q126 -10 172.5 -36.0Q219 -62 265 -62ZM486 130Q410 189 370.0 265.5Q330 342 330 448Q330 503 342 569L263 577Q253 517 253 458Q253 328 301.5 230.5Q350 133 434 77ZM442 624Q389 734 294 838L222 804Q324 692 371 589ZM617 586Q671 646 706.0 695.5Q741 745 774 812L689 844Q660 775 630.5 723.5Q601 672 557 620Z" transform="translate(0, 880) scale(1,-1)" /></svg>