<svg xmlns="http://www.w3.org/2000/svg" width="1000" height="1000"><path d="M473 598 542 556C640 613 768 702 826 766L763 813L746 806H189V740H679C638 697 564 647 473 598ZM573 502 621 552C560 599 491 644 411 688L369 640C447 596 515 549 573 502ZM94 536V464H906V536ZM331 340 400 379C372 452 313 559 259 639L194 605C248 526 305 415 331 340ZM591 373 654 340C700 409 762 520 807 614L735 648C701 559 639 446 591 373ZM170 357V286H831V357ZM455 -75C516 -75 547 -54 547 9V422H470V9C470 -8 463 -14 444 -14C404 -14 349 -4 300 9V-64C344 -71 403 -75 455 -75ZM616 10H924V75H793V262H718V75H616ZM245 143C271 173 299 211 327 252L268 283C205 185 131 112 61 71L119 25C140 43 166 64 185 73C199 80 221 81 234 79C248 76 263 61 273 28L412 78L387 127L305 107C300 125 278 137 245 143Z" transform="translate(0, 880) scale(1,-1)" /></svg>