<svg xmlns="http://www.w3.org/2000/svg" width="1000" height="1000"><path d="M947 429Q893 434 840.5 454.5Q788 475 718 512Q650 546 610.5 562.0Q571 578 534 578Q466 578 431.5 550.5Q397 523 397 477Q397 428 430.0 400.5Q463 373 521 373Q591 373 666.0 434.0Q741 495 802.0 580.0Q863 665 897 737L839 763L825 760H556V690H787Q772 650 724.0 588.5Q676 527 620.0 481.5Q564 436 521 436Q492 436 479.0 446.0Q466 456 466 477Q466 497 481.0 506.5Q496 516 534 516Q567 516 600.0 502.0Q633 488 691 456Q755 419 809.0 395.5Q863 372 929 362ZM86 10H163V772H86ZM405 -25Q447 12 487.5 65.5Q528 119 555 175L490 196Q464 145 426.5 97.0Q389 49 347 14ZM244 130H316V722H244ZM631 -78Q666 -78 685.5 -60.5Q705 -43 705 0V408H632V2Q632 -6 628.5 -9.5Q625 -13 616 -13Q571 -13 521 8V-67Q573 -78 631 -78ZM407 233H933V299H407ZM952 22Q932 59 894.5 108.0Q857 157 817 196L764 164Q803 123 840.0 72.5Q877 22 895 -15ZM404 550Q497 625 548.5 682.5Q600 740 644 825L566 841Q531 765 477.5 708.5Q424 652 345 598Z" transform="translate(0, 880) scale(1,-1)" /></svg>