<svg xmlns="http://www.w3.org/2000/svg" width="1000" height="1000"><path d="M547 457Q634 508 720.5 579.5Q807 651 868 722L808 772L791 761H129V687H720Q673 638 606.0 589.0Q539 540 470 501V20Q470 6 464.0 0.5Q458 -5 444 -5Q387 -5 300 21V-62Q373 -75 455 -75Q502 -75 524.5 -53.0Q547 -31 547 20ZM616 98H924V170H793V478H718V170H616ZM234 285Q279 375 327 492L261 515Q215 397 161.5 308.0Q108 219 54 167L119 118Q160 178 185 198Q199 209 218 209Q228 209 234 206Q259 197 273 124L412 205L387 258L305 224Q298 269 234 285Z" transform="translate(0, 880) scale(1,-1)" /></svg>