<svg xmlns="http://www.w3.org/2000/svg" width="1000" height="1000"><path d="M298 -80C376 -80 402 13 402 154C402 298 331 562 246 826L177 803C260 548 328 288 328 154C328 41 312 -7 276 -7C248 -7 219 4 191 21V-62C224 -75 256 -80 298 -80ZM46 -24 104 -71C200 94 249 220 284 404L219 423C185 258 139 130 46 -24ZM58 544H436V617H58ZM446 490 510 464C549 564 580 703 597 815L530 824C514 710 484 579 446 490ZM522 622H916L915 692H522ZM411 100 472 53C631 201 729 453 760 658L685 667C659 463 573 245 411 100ZM713 -82C755 -82 787 -74 831 -49V27C786 -1 755 -15 724 -15C706 -15 699 -10 699 16V350H630V-1C630 -59 658 -82 713 -82ZM903 47 965 93C912 181 845 281 788 353L729 316C786 242 851 141 903 47Z" transform="translate(0, 880) scale(1,-1)" /></svg>