<svg xmlns="http://www.w3.org/2000/svg" width="1000" height="1000"><path d="M213 311C373 311 442 416 442 499C442 604 357 684 243 752L185 726C295 660 360 581 360 499C360 437 315 383 213 383C170 383 145 396 145 419C145 467 235 519 455 602L406 653C189 574 59 499 59 419C59 348 124 311 213 311ZM36 720 74 657C213 688 344 722 450 758L412 822C307 783 177 749 36 720ZM516 720V652H941V720ZM498 560V490H960V560ZM687 837V312H769V837ZM456 -79C523 -79 551 -51 551 9V391H472V21C472 4 460 -9 438 -9C399 -9 348 0 301 13V-66C348 -74 402 -79 456 -79ZM58 33 115 -23C198 18 290 81 347 146L275 180C225 123 141 67 58 33ZM62 214H942V287H62ZM882 -26 940 24C892 68 788 134 705 178L650 131C734 85 835 17 882 -26Z" transform="translate(0, 880) scale(1,-1)" /></svg>