<svg xmlns="http://www.w3.org/2000/svg" width="1000" height="1000"><path d="M130 3Q177 43 218.0 106.5Q259 170 284.0 237.5Q309 305 309 356Q309 423 282.5 463.0Q256 503 216 503Q163 503 128.5 469.0Q94 435 94 374Q94 319 122.5 285.0Q151 251 194 251Q207 251 220 254Q208 208 171.0 150.5Q134 93 82 49ZM205 317Q183 317 168.0 332.0Q153 347 153 374Q153 401 168.5 417.5Q184 434 206 434Q224 434 238.0 418.0Q252 402 252 380Q252 349 238.5 333.0Q225 317 205 317ZM286 402V745H213V470ZM60 772V691H350V772ZM35 35 61 -40 358 92 333 166ZM407 438Q451 577 491 786L423 803Q390 612 341 469ZM370 -46Q480 44 555.5 196.5Q631 349 655 604L600 635L590 623H403V552H578Q528 172 320 3ZM675 1Q598 129 534.0 215.5Q470 302 401 368L351 321Q419 251 481.0 163.5Q543 76 616 -53ZM749 1Q795 41 833.0 102.5Q871 164 893.0 229.0Q915 294 915 345Q915 412 887.0 452.5Q859 493 819 493Q765 493 729.5 459.0Q694 425 694 364Q694 309 722.0 274.0Q750 239 793 239Q806 239 823 244Q810 196 779.0 143.0Q748 90 700 47ZM808 307Q786 307 770.5 322.0Q755 337 755 364Q755 391 770.5 407.0Q786 423 809 423Q827 423 841.5 407.0Q856 391 856 369Q856 339 842.5 323.0Q829 307 808 307ZM888 392V735H818V460ZM663 762V677H941V762ZM684 62V-24H951V62Z" transform="translate(0, 880) scale(1,-1)" /></svg>