<svg xmlns="http://www.w3.org/2000/svg" width="1000" height="1000"><path d="M122 180Q371 273 534.0 403.5Q697 534 768 709L694 726Q636 569 479.5 445.5Q323 322 75 234ZM758 -28Q518 56 281 108L246 49Q499 -11 731 -91ZM706 137Q546 191 372 236L337 182Q445 153 524.5 128.5Q604 104 679 75ZM217 586Q280 629 340.5 686.0Q401 743 446 801L374 833Q336 780 275.0 723.5Q214 667 154 629ZM842 199Q872 199 889.5 209.5Q907 220 918.5 246.5Q930 273 940 325L874 339Q869 295 857.0 277.0Q845 259 821 259H687Q637 259 637 297V422H568V282Q568 199 692 199ZM155 379Q219 412 302 465Q314 473 323.5 479.0Q333 485 338 487Q408 520 499.0 534.0Q590 548 675 548Q826 548 826 499Q826 443 727 443Q681 443 640.5 451.5Q600 460 574 476L540 429Q585 407 635.0 394.5Q685 382 732 382Q810 382 858.0 413.5Q906 445 906 499Q906 555 843.0 583.0Q780 611 675 611Q621 611 558.0 602.0Q495 593 445 579Q528 650 590 726L545 760L513 750H321V694H476Q334 547 111 430Z" transform="translate(0, 880) scale(1,-1)" /></svg>