<svg xmlns="http://www.w3.org/2000/svg" width="1000" height="1000"><path d="M633 501Q687 518 717.5 542.5Q748 567 748 592Q748 635 687.0 660.0Q626 685 517 685Q388 685 320.0 664.0Q252 643 252 602Q252 568 301.0 549.0Q350 530 437 530Q494 530 523.0 545.0Q552 560 552 585V841H475V601Q475 590 459.0 585.0Q443 580 418 580Q391 580 364.0 586.5Q337 593 337 602Q337 628 517 628Q585 628 624.0 617.5Q663 607 663 591Q663 570 632.5 548.5Q602 527 519 501ZM95 706H912V772H95ZM882 346Q899 362 908.0 380.5Q917 399 917 426Q917 478 841.0 500.5Q765 523 617 523Q473 523 356.5 505.0Q240 487 160 451V509H86V359H160V400Q296 457 617 457Q734 457 787.0 447.5Q840 438 840 425Q840 391 813 367ZM217 396V325H802V396ZM66 136Q255 224 407 339L359 381Q221 275 19 187ZM428 176Q388 225 314 291L249 261Q299 220 360 151ZM681 149Q725 175 742.5 197.5Q760 220 760 243Q760 267 727.5 281.0Q695 295 636 295Q493 295 337 227L377 198Q440 216 508.5 225.5Q577 235 636 235Q676 235 676 222Q676 213 663.5 201.5Q651 190 611 167ZM456 -86Q506 -86 528.5 -66.5Q551 -47 551 -4V169H472V7Q472 -5 463.0 -13.0Q454 -21 438 -21Q383 -21 301 0V-74Q382 -86 456 -86ZM115 -68Q180 -51 243.0 -26.5Q306 -2 347 23L282 65Q245 43 186.0 22.0Q127 1 65 -13ZM62 65H942V133H62ZM933 -18Q898 -1 831.0 22.5Q764 46 698 64L650 16Q713 -3 780.0 -27.5Q847 -52 882 -69Z" transform="translate(0, 880) scale(1,-1)" /></svg>