<svg xmlns="http://www.w3.org/2000/svg" width="1000" height="1000"><path d="M868 -85C916 -85 945 -38 961 125L905 146C897 35 888 3 865 3C710 3 679 472 661 827H598C611 441 647 -85 868 -85ZM468 5 519 -55C670 32 817 214 895 418L840 457C779 289 637 91 468 5ZM527 430 924 523 911 593 516 501ZM829 619 878 663C856 704 805 764 765 806L718 768C758 725 807 661 829 619ZM107 -54 504 144 465 202 70 15ZM191 11 458 315 398 357 384 345H250C301 454 333 579 354 753L289 760C264 582 228 421 151 307L200 261L223 278H335L133 29ZM72 399H139V477C192 533 258 556 321 556C384 556 409 536 409 510C409 481 406 458 394 433L466 410C478 440 483 463 483 511C483 599 411 631 321 631C235 631 184 599 139 530V617H72ZM114 734H497V802H114Z" transform="translate(0, 880) scale(1,-1)" /></svg>