<svg xmlns="http://www.w3.org/2000/svg" width="1000" height="1000"><path d="M408 371 467 339C567 378 667 453 667 529C667 579 616 633 503 633C385 633 344 582 344 538C344 491 408 444 546 444C758 444 878 519 878 642C878 736 814 801 599 801C396 801 276 762 183 717L221 660C315 702 443 735 599 735C745 735 791 692 791 642C791 556 712 501 546 501C462 501 426 514 426 538C426 560 449 578 503 578C553 578 584 561 584 529C584 458 514 415 408 371ZM163 781V468H244V781ZM739 44C864 44 928 126 928 233C928 342 810 393 595 393C409 393 222 359 99 325L116 258C242 287 436 324 595 324C765 324 850 287 850 233C850 152 807 105 735 105C677 105 629 110 589 122V55C626 47 663 44 739 44ZM301 223V157H654V223ZM133 10V-63H867V10Z" transform="translate(0, 880) scale(1,-1)" /></svg>