<svg xmlns="http://www.w3.org/2000/svg" width="1000" height="1000"><path d="M123 -51Q186 -15 245.5 36.5Q305 88 342 141L264 160Q231 112 175.5 67.5Q120 23 58 -8ZM126 190H873V259H126ZM932 -9Q899 26 834.5 74.0Q770 122 704 163L641 130Q702 90 767.0 39.0Q832 -12 866 -48ZM136 323H863V392H136ZM206 454H793V523H206ZM147 477Q208 512 264.0 558.0Q320 604 353 652L283 681Q253 638 200.5 597.5Q148 557 88 526ZM909 526Q877 559 815.0 603.5Q753 648 693 683L636 641Q694 605 755.5 558.5Q817 512 849 479ZM541 843H463V9Q463 -11 443 -11Q389 -11 333 12V-71Q399 -82 465 -82Q504 -82 522.5 -61.5Q541 -41 541 5ZM84 691H916V760H84Z" transform="translate(0, 880) scale(1,-1)" /></svg>