<svg xmlns="http://www.w3.org/2000/svg" width="1000" height="1000"><path d="M530 315C740 376 930 519 930 628C930 707 881 761 715 761C339 761 66 678 66 508C66 404 156 345 246 345C468 345 565 572 593 820L514 825C492 599 419 418 246 418C186 418 144 450 144 508C144 638 406 693 715 693C826 693 855 668 855 628C855 547 669 422 499 374ZM456 -80C518 -80 545 -48 545 5V381H468L471 16C471 -3 460 -14 438 -14C398 -14 348 -8 295 4V-70C348 -76 398 -80 456 -80ZM50 81H953V149H50ZM117 214H896V280H117ZM393 447 446 497C340 565 279 657 316 821L238 827C203 649 275 511 393 447ZM909 319 959 384C858 465 751 532 638 584L594 535C705 477 810 406 909 319Z" transform="translate(0, 880) scale(1,-1)" /></svg>