<svg xmlns="http://www.w3.org/2000/svg" width="1000" height="1000"><path d="M403 325Q480 353 532.5 395.0Q585 437 585 475Q585 512 540.0 532.0Q495 552 419 552Q353 552 306.0 531.0Q259 510 259 476Q259 396 447 396Q628 396 742.0 429.5Q856 463 856 538Q856 608 783.0 639.0Q710 670 563 670Q506 670 441 657Q644 707 846 771L799 812L765 806H124V744H590Q450 699 264 649Q239 642 177 626L110 608L146 558Q253 587 345.0 599.5Q437 612 549 612Q654 612 714.5 592.0Q775 572 775 538Q775 446 478 446Q335 446 335 475Q335 487 361.0 494.5Q387 502 419 502Q456 502 481.5 493.5Q507 485 507 471Q507 447 470.5 419.0Q434 391 357 368ZM779 -85Q855 -85 892.5 -65.5Q930 -46 952 10L867 19Q856 -8 838.0 -18.0Q820 -28 779 -28Q619 -28 532.0 67.0Q445 162 414 294L334 292Q374 134 473.0 24.5Q572 -85 779 -85ZM133 -65Q344 -41 537.5 7.0Q731 55 838 111L777 152Q689 103 502.0 57.0Q315 11 89 -12ZM88 118 901 159 890 211 77 171ZM802 244Q705 277 592 301L552 257Q658 235 756 197ZM89 373V310H911V373Z" transform="translate(0, 880) scale(1,-1)" /></svg>