<svg xmlns="http://www.w3.org/2000/svg" width="1000" height="1000"><path d="M576 207Q677 245 715.5 290.5Q754 336 754 392Q754 433 726.5 466.5Q699 500 640.0 520.0Q581 540 492 540Q322 540 220.5 503.5Q119 467 119 388Q119 354 143.0 326.0Q167 298 210.0 281.5Q253 265 308 265Q382 265 437.5 295.5Q493 326 493 391V836H416V406Q416 374 385.0 355.0Q354 336 308 336Q256 336 227.5 351.5Q199 367 199 388Q199 423 273.5 442.5Q348 462 492 462Q584 462 627.5 441.0Q671 420 671 393Q671 360 641.5 331.0Q612 302 529 270Q346 200 255.0 157.5Q164 115 134.5 87.5Q105 60 105 30Q105 -14 130.0 -34.5Q155 -55 222 -55H763Q797 -55 818.0 -38.0Q839 -21 851.5 17.5Q864 56 873 125L798 136Q792 68 779.0 44.0Q766 20 740 20H253Q226 20 215.0 24.0Q204 28 204 37Q204 48 225.0 61.5Q246 75 325.0 108.5Q404 142 576 207ZM964 335Q899 459 820 573L756 535Q835 418 896 295ZM105 718V641H875V718Z" transform="translate(0, 880) scale(1,-1)" /></svg>