<svg xmlns="http://www.w3.org/2000/svg" width="1000" height="1000"><path d="M268 -62Q305 -62 326.0 -36.5Q347 -11 347 33V516H271V44Q271 26 264.0 16.0Q257 6 245 6Q199 6 145 24V-51Q195 -62 268 -62ZM68 131 538 227 517 291 46 200ZM314 353Q406 370 467.5 424.0Q529 478 529 549Q529 626 477.0 662.5Q425 699 353 699Q315 699 279.5 686.0Q244 673 220 655Q283 742 358 805L278 845Q198 744 157.5 683.5Q117 623 101 572Q86 526 86 474Q86 416 107 357L186 374Q161 428 161 476Q161 516 177 557Q190 590 229.5 611.0Q269 632 315 632Q365 632 403.5 608.0Q442 584 442 548Q442 496 414.5 461.5Q387 427 313 411ZM732 68Q833 144 884.5 224.0Q936 304 935 414Q935 457 912.5 491.0Q890 525 851.0 544.5Q812 564 762 564Q722 564 680 551Q759 661 824 787L750 823Q679 659 587 522Q581 512 543 494L577 428Q626 456 672.5 470.5Q719 485 757 485Q803 485 829.5 463.0Q856 441 857 399Q858 319 819.5 252.5Q781 186 690 119ZM902 -39Q790 92 600 228L553 174Q633 118 706.0 48.5Q779 -21 837 -93Z" transform="translate(0, 880) scale(1,-1)" /></svg>