<svg xmlns="http://www.w3.org/2000/svg" width="1000" height="1000"><path d="M298 -80Q354 -80 378.0 -19.5Q402 41 402 154Q402 341 246 826L177 803Q244 596 286.0 422.5Q328 249 328 154Q328 70 315.5 31.5Q303 -7 276 -7Q237 -7 191 21V-62Q237 -80 298 -80ZM104 -71Q177 54 217.5 160.5Q258 267 284 404L219 423Q193 295 153.5 191.5Q114 88 46 -24ZM58 544H436V617H58ZM510 464Q538 535 560.5 629.5Q583 724 597 815L530 824Q517 733 495.0 643.5Q473 554 446 490ZM522 622H916L915 692H522ZM472 53Q585 158 660.0 324.5Q735 491 760 658L685 667Q664 503 595.5 353.0Q527 203 411 100ZM713 -82Q745 -82 772.0 -74.5Q799 -67 831 -49V27Q796 5 771.0 -5.0Q746 -15 724 -15Q710 -15 704.5 -9.0Q699 -3 699 16V350H630V-1Q630 -44 650.5 -63.0Q671 -82 713 -82ZM965 93Q873 245 788 353L729 316Q771 261 817.5 189.5Q864 118 903 47Z" transform="translate(0, 880) scale(1,-1)" /></svg>