<svg xmlns="http://www.w3.org/2000/svg" width="1000" height="1000"><path d="M122 -81Q144 -15 155.5 78.5Q167 172 167 263V419H472V493H325V615H500V692H325V842H252V692H73V615H252V493H94V278Q94 183 82.5 94.0Q71 5 49 -58ZM336 43Q372 43 407.0 59.5Q442 76 465.0 109.5Q488 143 488 192Q488 270 442.5 312.0Q397 354 323 354Q272 354 219.0 341.0Q166 328 128 308L146 235Q176 256 225.5 269.5Q275 283 323 283Q368 283 392.0 255.0Q416 227 416 192Q416 151 392.5 129.0Q369 107 336 107Q312 107 299.5 123.5Q287 140 287 163Q287 224 388 296L319 315Q268 272 242.5 233.0Q217 194 217 163Q217 111 250.0 77.0Q283 43 336 43ZM950 -23Q895 69 803.5 182.0Q712 295 614 394L562 353Q651 259 739.5 140.0Q828 21 885 -75ZM565 -68Q889 145 912 657L850 681L832 665H617V598H831Q815 381 740.0 236.0Q665 91 512 -13ZM586 436Q658 607 685 819L607 826Q594 711 571.0 624.0Q548 537 513 460Z" transform="translate(0, 880) scale(1,-1)" /></svg>