<svg xmlns="http://www.w3.org/2000/svg" width="1000" height="1000"><path d="M515 731H131V470Q131 324 112.5 199.0Q94 74 35 -23L103 -60Q209 113 209 470V656H943V731H600L546 845L471 827ZM391 175Q381 235 357.0 315.0Q333 395 304 471L235 439Q258 378 281.5 292.0Q305 206 321 136ZM627 207Q612 339 555 529L481 503Q503 422 522.0 333.5Q541 245 550 178ZM804 132Q832 200 862.5 294.0Q893 388 915 472L834 504Q818 426 790.5 331.5Q763 237 734 158ZM213 36V-40H932V36Z" transform="translate(0, 880) scale(1,-1)" /></svg>