<svg xmlns="http://www.w3.org/2000/svg" width="1000" height="1000"><path d="M74 691V617H467V691ZM192 603Q260 519 289.5 431.5Q319 344 319 238Q319 7 258 7Q211 7 167 29V-51Q203 -63 261 -63Q327 -63 360.0 16.0Q393 95 393 239Q393 353 362.5 447.5Q332 542 261 633ZM144 470Q216 532 275.0 621.0Q334 710 375 814L306 836Q270 732 214.0 651.0Q158 570 86 518ZM90 410V336H437V410ZM64 188 80 110 486 207 470 282ZM503 335Q561 401 633.5 517.5Q706 634 744 719L668 735Q633 646 563.0 539.5Q493 433 433 374ZM469 -56 960 -57V12L469 14ZM712 12Q762 48 790.5 111.5Q819 175 819 240Q819 304 786.5 346.0Q754 388 699 388Q667 388 639.0 372.0Q611 356 594.0 327.0Q577 298 577 261Q577 202 612.0 169.0Q647 136 697 136Q719 136 737 145Q717 97 686.0 69.0Q655 41 592 12ZM699 198Q675 198 659.0 215.5Q643 233 643 261Q643 287 659.0 305.5Q675 324 699 324Q723 324 737.5 306.0Q752 288 752 261Q751 232 737.0 215.0Q723 198 699 198ZM805 287V611H735V343ZM572 457H940V525H572ZM487 704H936V775H487Z" transform="translate(0, 880) scale(1,-1)" /></svg>