<svg xmlns="http://www.w3.org/2000/svg" width="1000" height="1000"><path d="M143 659V310C143 144 123 41 73 -53L152 -73C202 21 222 124 222 290V659ZM843 -85C906 -85 935 -38 952 125L889 146C880 30 870 -2 842 -2C693 -2 652 449 636 827L562 826C580 440 626 -85 843 -85ZM461 44 507 -20C664 65 793 221 878 414L810 442C743 269 630 128 461 44ZM188 444 909 524 898 596 178 516ZM812 619 866 665C839 707 787 766 743 808L692 768C736 725 787 662 812 619ZM293 346V272H533V346Z" transform="translate(0, 880) scale(1,-1)" /></svg>