<svg xmlns="http://www.w3.org/2000/svg" width="1000" height="1000"><path d="M923 -14Q779 37 697.5 116.0Q616 195 574.0 363.5Q532 532 532 837H460Q461 518 505.5 338.0Q550 158 637.0 67.5Q724 -23 875 -82ZM94 -31H596V39H94ZM294 -10Q408 27 522.0 83.0Q636 139 714.5 209.5Q793 280 793 352Q793 399 772.5 432.5Q752 466 685.0 488.0Q618 510 487 510Q351 510 264.5 480.0Q178 450 140.0 403.0Q102 356 102 304Q102 226 141.0 187.5Q180 149 247 149Q313 149 356.0 192.0Q399 235 399 306Q399 386 331 469L276 429Q330 362 330 309Q330 268 306.5 242.5Q283 217 252 217Q217 217 197.0 239.0Q177 261 177 300Q177 331 207.0 363.0Q237 395 307.0 417.5Q377 440 487 440Q716 440 716 350Q716 268 573.5 184.5Q431 101 247 32ZM71 609H748V677H71ZM937 607Q914 673 891.0 721.0Q868 769 836 813L775 778Q832 700 866 580Z" transform="translate(0, 880) scale(1,-1)" /></svg>