<svg xmlns="http://www.w3.org/2000/svg" width="1000" height="1000"><path d="M60 601V527H387V601ZM43 197 98 160 112 181 391 280 378 355 150 272 244 534 193 564ZM194 -72C240 -72 273 -51 273 16V814H202V35C202 12 192 -1 177 -1C151 -1 122 5 86 20V-60C123 -69 158 -72 194 -72ZM585 493V417C883 383 917 494 917 587C917 685 855 748 745 748C661 748 610 718 555 656C572 706 586 758 597 817L523 830C497 698 448 574 391 490L454 445C485 497 504 536 520 572C589 644 675 675 740 675C808 675 841 631 841 587C841 521 809 456 585 493ZM720 209V584H646V217C646 169 620 146 583 146C540 146 518 172 518 199C518 256 581 298 707 298C820 298 849 248 849 207C849 72 590 -3 409 -22L428 -88C646 -61 924 26 924 206C924 291 867 369 707 369C556 369 444 312 444 199C444 130 498 80 583 80C649 80 720 111 720 209Z" transform="translate(0, 880) scale(1,-1)" /></svg>