<svg xmlns="http://www.w3.org/2000/svg" width="1000" height="1000"><path d="M312 644 375 683C350 725 298 784 249 828L190 792C237 748 288 687 312 644ZM608 680 668 644C712 683 769 745 810 797L742 833C709 784 652 721 608 680ZM120 659V582H880V659ZM314 616V278H386V616ZM215 341 284 375C267 425 222 494 182 546L115 516C152 465 193 390 215 341ZM519 346 594 372C581 427 546 498 510 558L439 534C472 475 505 400 519 346ZM696 365 763 344C805 398 851 472 884 535L805 565C780 503 736 424 696 365ZM92 312V237H908V312ZM591 200C445 200 299 150 149 50L202 -5C329 81 464 131 591 131C701 131 751 106 751 72C751 21 691 -6 598 -15L639 -80C751 -60 840 -11 840 72C840 159 743 200 591 200Z" transform="translate(0, 880) scale(1,-1)" /></svg>