<svg xmlns="http://www.w3.org/2000/svg" width="1000" height="1000"><path d="M357 186Q433 182 509 182Q657 182 729.5 199.5Q802 217 822.0 243.5Q842 270 842 310Q842 362 785.0 393.0Q728 424 616 424Q516 424 445.5 408.5Q375 393 299 358Q349 416 373 474L303 492Q272 424 219.0 363.0Q166 302 97 253L151 216Q180 237 200.5 254.5Q221 272 238 288Q318 324 418.5 342.0Q519 360 608 360Q689 360 730.0 347.0Q771 334 771 310Q771 288 755.0 273.5Q739 259 691.5 250.0Q644 241 555 241Q485 241 357 249ZM152 -23Q206 23 245.0 67.0Q284 111 321 167L251 187Q220 137 183.0 95.0Q146 53 94 7ZM453 -70Q498 -70 523.0 -51.5Q548 -33 548 3V311H484V21Q484 11 472.0 2.0Q460 -7 440 -7Q389 -7 327 10V-60Q383 -70 453 -70ZM924 17Q888 59 851.5 94.0Q815 129 760 179L696 151Q747 106 783.5 69.0Q820 32 860 -16ZM944 465V532H58V466ZM690 594Q596 629 521.0 649.5Q446 670 351 682L326 626Q425 611 499.0 591.0Q573 571 652 540ZM602 614Q672 645 749.5 688.0Q827 731 871 763L823 807L807 802H153V738H706Q625 685 519 640Z" transform="translate(0, 880) scale(1,-1)" /></svg>