<svg xmlns="http://www.w3.org/2000/svg" width="1000" height="1000"><path d="M419 -70H795C888 -70 914 -14 924 114L849 127C843 17 832 -4 786 -4H436C406 -4 393 6 393 22C393 70 410 142 473 252C492 284 519 322 519 359C519 406 459 439 371 439C270 439 230 402 230 362C230 323 255 284 486 284C785 284 891 356 891 432C891 504 822 555 619 555C491 555 395 548 295 534L323 475C417 485 507 492 619 492C767 492 811 472 811 432C811 382 723 341 486 341C326 341 306 349 306 362C306 376 331 385 371 385C414 385 447 377 447 359C447 340 432 312 416 286C350 180 314 90 314 16C314 -47 339 -70 419 -70ZM118 57H717V119H118ZM140 169H688V231H140ZM513 520 820 632 752 678 730 670H195V608H614L465 539ZM59 713H937V775H553L513 847L441 836L470 775H59Z" transform="translate(0, 880) scale(1,-1)" /></svg>