<svg xmlns="http://www.w3.org/2000/svg" width="1000" height="1000"><path d="M688 684Q525 770 330 843L290 787Q484 712 639 626ZM423 268Q530 332 630.0 413.0Q730 494 785 566L729 613L712 606H100V531H636Q596 483 519.5 425.0Q443 367 346 314ZM300 337V261H844V337ZM126 -79Q173 -29 209.5 36.5Q246 102 262 171L187 194Q173 129 137.0 64.5Q101 0 57 -44ZM524 -73Q555 -73 586.5 -57.0Q618 -41 661 -3L607 60Q585 33 568.5 22.5Q552 12 534 12Q521 12 512.0 26.5Q503 41 492.0 78.5Q481 116 464 193L387 174Q420 33 452.5 -20.0Q485 -73 524 -73ZM951 -43Q924 8 879.5 75.5Q835 143 792 196L723 158Q766 106 806.0 43.0Q846 -20 873 -75Z" transform="translate(0, 880) scale(1,-1)" /></svg>