<svg xmlns="http://www.w3.org/2000/svg" width="1000" height="1000"><path d="M279 625 338 663C311 703 255 761 202 804L147 770C198 727 253 667 279 625ZM463 611H537V841H463ZM651 660 707 625C754 663 815 724 860 775L795 810C760 761 699 699 651 660ZM811 425 884 398C908 437 919 471 919 518C919 607 805 638 617 638C426 638 269 595 162 523V617H84V415H162V467C269 536 453 563 617 563C786 563 838 536 838 516C838 486 832 458 811 425ZM462 -77C514 -76 546 -50 546 13V455H469V25C469 2 457 -13 435 -14C387 -15 335 -5 276 17V-57C335 -73 387 -78 462 -77ZM53 119H947V188H53ZM116 266H884V331H116ZM213 456 226 396C389 395 630 408 786 448L748 505C621 472 384 457 213 456Z" transform="translate(0, 880) scale(1,-1)" /></svg>