<svg xmlns="http://www.w3.org/2000/svg" width="1000" height="1000"><path d="M339 -74C389 -74 416 -43 416 15V601H612V671H416V840H344V671H76V601H324C268 522 186 447 122 395L149 334L180 343H345L344 28C344 11 338 0 326 0C301 0 267 7 227 24V-56C265 -69 301 -74 339 -74ZM237 412 344 518 345 412ZM41 59 87 0C318 223 590 525 801 525C852 525 870 455 870 345C870 193 854 10 826 10C797 10 766 16 734 30V-55C765 -63 794 -64 829 -64C928 -64 940 147 940 355C940 515 897 604 803 604C539 604 277 282 41 59ZM472 -17 539 -76C694 101 752 354 786 834L708 839C676 359 616 145 472 -17Z" transform="translate(0, 880) scale(1,-1)" /></svg>