<svg xmlns="http://www.w3.org/2000/svg" width="1000" height="1000"><path d="M196 -77C242 -77 266 -54 266 9V834H198V12C198 -2 193 -10 181 -10C156 -10 125 -3 90 12V-66C124 -73 159 -77 196 -77ZM65 574H360V640H65ZM382 391 354 456 44 263 75 194ZM550 37H632C764 82 849 152 849 261C849 362 801 429 687 429C643 429 597 404 560 372C589 424 648 587 686 826L614 839C583 598 506 383 438 254L502 206C548 293 608 353 687 353C751 353 773 305 773 261C773 174 670 98 550 37ZM360 -36H947V37H360ZM393 547H918V620H393Z" transform="translate(0, 880) scale(1,-1)" /></svg>