<svg xmlns="http://www.w3.org/2000/svg" width="1000" height="1000"><path d="M457 -88H532V402H657V476H68V402H457ZM109 -24 401 92 387 153 84 47ZM169 60H244V339H169ZM614 -29H929V46H809V453H734V46H614ZM870 494Q896 512 908.5 537.5Q921 563 921 601Q921 645 889.0 670.0Q857 695 791.0 705.0Q725 715 617 715Q368 715 160 642V702H82V535H160V583Q246 611 370.0 625.5Q494 640 617 640Q743 640 791.0 628.0Q839 616 839 599Q839 564 808 529ZM569 726Q543 800 511 852L434 832Q472 774 489 707Z" transform="translate(0, 880) scale(1,-1)" /></svg>