<svg xmlns="http://www.w3.org/2000/svg" width="1000" height="1000"><path d="M135 512Q176 574 211.5 655.5Q247 737 266 811L194 824Q173 749 139.0 673.0Q105 597 67 543ZM179 646H926L925 719H179ZM362 308Q410 349 459.5 403.5Q509 458 537 504L485 549L468 543H211V477H431Q385 408 298 330ZM689 -72Q812 -72 858.5 5.0Q905 82 905 208Q905 295 836.5 339.0Q768 383 634 383Q499 383 369.5 371.0Q240 359 98 335L116 264Q407 312 629 312Q735 312 777.5 283.0Q820 254 820 201Q820 113 789.5 55.0Q759 -3 682 -3Q600 -3 507 15V-60Q587 -72 689 -72ZM129 -73Q331 -13 458.5 69.5Q586 152 662.0 267.5Q738 383 782 553L699 560Q659 394 592.0 293.5Q525 193 407.0 126.5Q289 60 83 3Z" transform="translate(0, 880) scale(1,-1)" /></svg>