<svg xmlns="http://www.w3.org/2000/svg" width="1000" height="1000"><path d="M282 -80C356 -80 382 11 382 154C382 298 318 562 238 826L170 803C247 548 308 288 308 154C308 41 294 -7 263 -7C236 -7 209 4 183 21V-62C214 -75 244 -80 282 -80ZM46 -24 105 -70C192 95 236 221 268 405L203 423C172 258 131 130 46 -24ZM58 544H412V617H58ZM397 472 462 443C504 548 540 696 558 814L490 824C472 704 438 565 397 472ZM479 612H926L925 683H479ZM559 -69H836C894 -69 918 -15 932 110L861 123C855 31 839 -2 808 -2H587C553 -2 541 5 541 19C541 40 554 56 882 321L837 381L821 374H508V301L735 302C492 110 461 65 461 18C461 -34 487 -69 559 -69ZM550 532V461H825V532Z" transform="translate(0, 880) scale(1,-1)" /></svg>