<svg xmlns="http://www.w3.org/2000/svg" width="1000" height="1000"><path d="M79 776V699H564V776ZM78 165 574 261 557 330 63 244ZM289 -66Q334 -66 357.5 -46.0Q381 -26 381 22V658H304V42Q304 24 293.5 14.5Q283 5 265 5Q203 5 136 23V-54Q207 -66 289 -66ZM108 357Q358 478 550 633L505 690Q323 542 64 426ZM737 -91Q843 -17 899.0 83.5Q955 184 955 304Q955 408 913.0 461.0Q871 514 787 514Q754 514 724.0 503.5Q694 493 673 474Q727 622 817 783L749 818Q674 675 634.5 574.5Q595 474 592 423Q590 375 590 353Q590 288 598 229L673 221Q662 285 662 326Q662 370 676 400Q687 422 713.0 432.5Q739 443 789 443Q835 443 855.5 410.0Q876 377 876 304Q876 194 832.5 115.5Q789 37 689 -33Z" transform="translate(0, 880) scale(1,-1)" /></svg>