<svg xmlns="http://www.w3.org/2000/svg" width="1000" height="1000"><path d="M964 -20Q923 4 890.5 32.5Q858 61 813 106Q761 158 728.0 182.0Q695 206 657 206Q596 206 557.0 169.5Q518 133 518 71Q518 9 557.0 -28.0Q596 -65 656 -65Q712 -65 772.0 -6.0Q832 53 874.0 128.0Q916 203 916 237Q916 360 760 360Q669 360 499.5 299.5Q330 239 198.0 158.0Q66 77 66 20Q66 -28 102.5 -53.5Q139 -79 201 -79Q268 -79 323.5 -57.0Q379 -35 411.0 3.5Q443 42 443 91Q443 160 372.5 209.0Q302 258 180 282L166 223Q230 206 272.5 191.0Q315 176 343.0 151.0Q371 126 371 91Q371 61 345.5 36.5Q320 12 280.5 -1.5Q241 -15 201 -15Q169 -15 154.5 -6.5Q140 2 140 20Q140 58 257.5 123.5Q375 189 524.5 240.5Q674 292 758 292Q798 292 820.5 278.0Q843 264 843 237Q843 210 811.5 152.0Q780 94 736.5 48.0Q693 2 656 2Q626 2 606.0 20.0Q586 38 586 71Q586 99 603.0 117.5Q620 136 657 136Q681 136 702.5 118.5Q724 101 763 59Q806 13 841.5 -19.5Q877 -52 926 -81ZM267 217Q321 251 376.0 295.5Q431 340 469 377L421 410L405 406H78V344H345Q306 305 224 253ZM95 444Q286 461 497.0 512.5Q708 564 850 638L778 671Q644 605 445.5 564.5Q247 524 65 514ZM56 649 907 713 897 773 47 712ZM807 404Q850 404 875.5 415.0Q901 426 915.5 454.5Q930 483 937 536L869 556Q865 515 859.0 496.5Q853 478 840.5 472.5Q828 467 801 467Q690 467 595.5 520.0Q501 573 442.0 660.0Q383 747 372 846H296Q308 727 378.5 625.5Q449 524 561.5 464.0Q674 404 807 404Z" transform="translate(0, 880) scale(1,-1)" /></svg>