<svg xmlns="http://www.w3.org/2000/svg" width="1000" height="1000"><path d="M395 -70C541 -70 699 15 699 230C699 445 542 544 245 494V433C554 474 622 367 622 229C622 98 520 0 395 0C249 0 157 79 157 164C157 234 222 299 311 299C384 299 443 274 443 220C443 175 416 147 379 147C349 147 326 175 326 211C326 357 599 360 793 360V55H721V-11H939V55H867V422L809 440L794 427C564 426 255 402 255 205C255 138 305 88 379 88C449 88 516 130 516 217C516 308 427 363 311 363C168 363 78 272 78 166C78 42 175 -70 395 -70ZM63 586H943V657H63ZM383 478C512 553 670 666 784 779L739 827L716 817H230V750H658C592 686 439 574 314 493Z" transform="translate(0, 880) scale(1,-1)" /></svg>