<svg xmlns="http://www.w3.org/2000/svg" width="1000" height="1000"><path d="M167 -77C212 -77 236 -54 236 9V834H170V12C170 -2 164 -10 153 -10C128 -10 97 -3 63 12V-66C96 -73 130 -77 167 -77ZM65 575H305V639H65ZM317 393 289 454 44 261 76 196ZM476 -67C575 -67 620 43 620 203C620 336 591 423 502 423C484 423 467 415 452 389C466 436 490 503 505 547L447 578C413 441 376 344 334 254L392 213C432 338 453 348 502 348C532 348 550 301 550 203C550 99 516 11 476 11C443 11 418 16 387 33V-54C417 -64 442 -67 476 -67ZM303 510 367 486C397 562 427 664 451 798L390 818C371 701 340 593 303 510ZM606 475 667 507C629 590 590 711 567 820L510 796C533 686 570 565 606 475ZM625 751 634 677C670 682 708 685 743 685C819 685 850 601 850 395C850 175 830 -2 777 -2C737 -2 706 5 681 20V-62C706 -70 736 -74 779 -74C874 -74 922 32 922 395C922 678 864 761 743 761C703 761 662 757 625 751ZM711 452V381H957V452ZM687 273V199H964V273Z" transform="translate(0, 880) scale(1,-1)" /></svg>