<svg xmlns="http://www.w3.org/2000/svg" width="1000" height="1000"><path d="M729 -69Q836 6 880.5 87.5Q925 169 925 282Q925 401 877.0 466.5Q829 532 746 532Q665 532 620 447V475H551V186H626Q620 248 620 291Q620 348 632 375Q665 461 746 461Q797 461 821.5 417.0Q846 373 846 282Q846 217 832.5 170.0Q819 123 785.5 80.0Q752 37 689 -11ZM404 28Q367 171 367 273Q367 459 482 552L422 589Q285 484 285 278Q285 172 323 18ZM679 600 939 732 906 804 881 794H283V719H776L641 641ZM97 -42H174V751H97Z" transform="translate(0, 880) scale(1,-1)" /></svg>