<svg xmlns="http://www.w3.org/2000/svg" width="1000" height="1000"><path d="M429 377C487 377 511 480 521 760L459 779L448 768H99V693H439C434 496 419 446 392 446C336 446 296 457 252 472V398C305 385 357 377 429 377ZM97 13 125 -54 489 58 477 131 205 50V565H134V75C134 35 113 20 97 13ZM663 -24 703 -82C856 16 945 144 945 304C945 442 883 514 761 514C714 514 667 499 637 474C666 550 711 648 790 783L720 818C608 621 556 488 552 423C547 357 548 298 558 229L638 221C622 305 620 364 641 400C656 428 691 443 766 443C834 443 866 401 866 304C866 157 808 70 663 -24Z" transform="translate(0, 880) scale(1,-1)" /></svg>