<svg xmlns="http://www.w3.org/2000/svg" width="1000" height="1000"><path d="M143 -36 228 -27C172 115 161 218 195 303C233 399 237 475 180 556L97 537C149 449 152 383 117 309C79 228 85 115 143 -36ZM256 639 300 703C258 733 177 780 117 811L75 755C136 721 216 670 256 639ZM561 -5 610 -77C806 0 909 142 909 289C909 441 836 557 607 557C433 557 325 455 325 336C325 254 374 170 481 170C575 170 700 266 700 473V694H948V769H307V694H624V490C624 371 566 245 481 245C421 245 401 291 401 336C401 416 474 483 607 482C779 481 832 390 832 295C832 182 734 57 561 -5Z" transform="translate(0, 880) scale(1,-1)" /></svg>