<svg xmlns="http://www.w3.org/2000/svg" width="1000" height="1000"><path d="M779 -85Q830 -85 862.0 -66.0Q894 -47 915.5 -2.0Q937 43 952 125L867 146Q860 88 850.5 58.0Q841 28 824.5 15.5Q808 3 779 3Q619 3 533.5 246.5Q448 490 417 827L330 823Q369 442 470.0 178.5Q571 -85 779 -85ZM144 -35Q357 26 550.0 144.5Q743 263 849 402L777 447Q719 368 616.0 289.0Q513 210 376.5 144.0Q240 78 89 40ZM88 416 901 519 890 597 77 494ZM808 673Q768 707 711.5 746.0Q655 785 598 816L546 763Q601 732 655.5 691.5Q710 651 750 614Z" transform="translate(0, 880) scale(1,-1)" /></svg>