<svg xmlns="http://www.w3.org/2000/svg" width="1000" height="1000"><path d="M547 20V457C662 525 786 627 868 722L808 772L791 761H129V687H720C654 618 555 549 470 501V20C470 1 463 -5 444 -5C404 -5 349 7 300 21V-62C344 -70 403 -75 455 -75C516 -75 547 -50 547 20ZM616 98H924V170H793V478H718V170H616ZM234 285C264 345 295 414 327 492L261 515C198 355 124 235 54 167L119 118C140 149 166 183 185 198C199 209 221 211 234 206C248 201 263 177 273 124L412 205L387 258L305 224C300 256 274 275 234 285Z" transform="translate(0, 880) scale(1,-1)" /></svg>