<svg xmlns="http://www.w3.org/2000/svg" width="1000" height="1000"><path d="M89 676V603H920V676ZM254 484V411H748V484ZM353 438 431 473C402 571 341 717 286 823L213 795C269 690 327 539 353 438ZM563 464 633 439C679 532 742 683 786 809L708 836C674 717 612 563 563 464ZM577 -80C751 -80 815 36 815 194C815 285 758 338 608 338C511 338 413 329 311 315L316 253C419 263 521 271 608 271C680 271 733 249 733 194C733 70 679 -17 563 -17C492 -17 429 -12 370 3V-68C428 -76 488 -80 577 -80ZM660 96 662 163 363 166 360 100ZM410 434 326 438C298 237 227 94 134 -17L207 -56C303 62 379 223 410 434Z" transform="translate(0, 880) scale(1,-1)" /></svg>