<svg xmlns="http://www.w3.org/2000/svg" width="1000" height="1000"><path d="M664 -22 701 -91C853 -57 957 57 957 224C957 413 816 497 642 497C428 497 269 354 269 152C269 29 366 -50 441 -50C651 -50 799 209 831 581L760 589C733 263 602 21 447 21C397 21 344 80 344 152C344 311 468 423 642 423C763 423 880 381 880 226C880 98 813 0 664 -22ZM143 -36 228 -27C172 115 161 218 195 303C233 399 237 475 180 556L97 537C149 449 152 383 117 309C79 228 85 115 143 -36ZM256 642 300 703C258 733 177 780 117 811L75 758C136 724 216 673 256 642ZM602 85 641 138C499 209 463 385 513 840L435 849C382 349 439 159 602 85ZM578 307H649V575H578ZM304 644H948V717H304Z" transform="translate(0, 880) scale(1,-1)" /></svg>