<svg xmlns="http://www.w3.org/2000/svg" width="1000" height="1000"><path d="M217 -62Q294 -62 347.0 -21.5Q400 19 425.5 81.5Q451 144 451 210Q451 318 397.0 407.0Q343 496 247 576L189 531Q275 460 322.0 378.0Q369 296 369 210Q369 163 352.0 117.5Q335 72 301.0 42.5Q267 13 217 13Q185 13 166.0 29.5Q147 46 147 81Q147 147 221.5 219.5Q296 292 464 388L415 444Q60 252 60 81Q60 9 102.0 -26.5Q144 -62 217 -62ZM83 436Q316 536 468 635L421 702Q267 595 36 503ZM747 656Q618 656 517 594L539 528Q627 580 747 580Q794 580 813.5 549.5Q833 519 833 463Q833 373 790.0 271.0Q747 169 691.0 97.0Q635 25 605 25Q585 25 573.0 54.0Q561 83 561 146Q561 197 575.5 233.0Q590 269 617 269Q641 269 667.5 236.5Q694 204 739 133Q779 69 814.0 20.5Q849 -28 890 -73L939 -8Q899 30 866.0 74.0Q833 118 790 182Q751 240 726.5 272.5Q702 305 674.5 326.0Q647 347 617 347Q583 347 554.5 323.0Q526 299 509.0 253.5Q492 208 492 146Q492 83 508.0 38.5Q524 -6 550.0 -28.5Q576 -51 605 -51Q649 -51 721.5 31.0Q794 113 848.5 233.0Q903 353 903 463Q903 558 861.5 607.0Q820 656 747 656ZM62 796V718H672V796Z" transform="translate(0, 880) scale(1,-1)" /></svg>