<svg xmlns="http://www.w3.org/2000/svg" width="1000" height="1000"><path d="M201 -77Q238 -77 255.5 -57.0Q273 -37 273 9V834H203V12Q203 -10 185 -10Q144 -10 91 12V-66Q146 -77 201 -77ZM55 573H393V641H55ZM402 339 377 406 34 263 62 192ZM530 452Q639 517 737.5 599.0Q836 681 895 759L846 805L830 798H390V721H761Q719 668 638.5 605.5Q558 543 455 486ZM769 -77Q863 -77 904.0 7.5Q945 92 945 267Q945 414 885.5 477.0Q826 540 709 540Q622 540 533.0 519.5Q444 499 383 470L402 403Q463 429 548.0 446.5Q633 464 709 464Q792 464 830.0 416.0Q868 368 868 267Q868 -7 765 -7Q684 -7 635 14V-66Q682 -77 769 -77ZM450 36Q546 110 645.0 210.5Q744 311 785 371L725 414Q684 351 587.5 253.0Q491 155 396 87ZM763 163Q711 208 644.0 258.5Q577 309 526 339L479 291Q533 257 599.0 205.0Q665 153 712 108Z" transform="translate(0, 880) scale(1,-1)" /></svg>