<svg xmlns="http://www.w3.org/2000/svg" width="1000" height="1000"><path d="M943 797H131V470Q131 324 112.5 199.0Q94 74 35 -23L98 -60Q204 113 204 470V726H943ZM288 478Q357 517 444.5 541.0Q532 565 629 565Q742 565 791.0 542.5Q840 520 840 479Q840 393 607 393Q517 393 365 408V333Q500 324 575 324Q740 324 828.5 359.0Q917 394 917 479Q917 556 853.0 598.5Q789 641 629 641Q513 641 419.5 612.0Q326 583 263 536ZM625 479H551V360Q551 261 528.5 180.0Q506 99 467.5 52.5Q429 6 383 6Q344 6 319.5 30.5Q295 55 295 91Q295 133 328.5 158.5Q362 184 417 184Q476 184 528.5 157.5Q581 131 663 72Q733 22 790.5 -13.0Q848 -48 919 -77L957 -3Q890 18 835.0 50.0Q780 82 703 135Q642 177 602.0 201.0Q562 225 515.5 241.0Q469 257 419 257Q355 257 310.5 233.5Q266 210 244.0 172.5Q222 135 222 91Q222 24 263.0 -21.0Q304 -66 384 -66Q455 -66 510.0 -9.0Q565 48 595.0 145.0Q625 242 625 360ZM692 -69Q753 -2 806.5 74.5Q860 151 895 223L833 265Q801 192 749.0 112.5Q697 33 641 -28Z" transform="translate(0, 880) scale(1,-1)" /></svg>