<svg xmlns="http://www.w3.org/2000/svg" width="1000" height="1000"><path d="M718 73Q830 150 887.5 232.0Q945 314 945 425Q945 471 920.5 507.5Q896 544 851.5 564.5Q807 585 750 585Q704 585 658 572Q741 678 820 816L738 854Q658 683 555 542Q546 530 505 513L544 445Q599 474 650.5 489.0Q702 504 745 504Q798 504 828.5 480.5Q859 457 859 412Q859 330 815.5 262.0Q772 194 670 126ZM163 58Q154 168 154 238Q154 333 168 400Q184 473 221.5 543.0Q259 613 314 613Q345 613 369.0 580.5Q393 548 406.0 494.0Q419 440 419 377Q419 350 416 323Q409 257 387.5 214.5Q366 172 337 172Q310 172 310 221Q310 251 320.5 293.0Q331 335 348 372Q377 439 448 478L428 555Q321 498 268 363Q242 297 242 228Q242 168 263.0 129.0Q284 90 324 90Q380 90 413.0 118.5Q446 147 461.0 196.0Q476 245 484 320Q488 355 488 398Q488 522 445.5 605.5Q403 689 316 689Q213 689 158 528L184 714H108Q87 459 87 263Q87 171 92 58ZM907 -36Q779 101 568 239L516 183Q606 125 688.5 53.0Q771 -19 836 -93Z" transform="translate(0, 880) scale(1,-1)" /></svg>