<svg xmlns="http://www.w3.org/2000/svg" width="1000" height="1000"><path d="M273 -82Q458 -82 530.0 134.5Q602 351 602 721H518Q518 495 500.5 340.0Q483 185 429.5 89.0Q376 -7 273 -7Q218 -7 182.0 20.0Q146 47 146 91Q146 201 309 201Q353 201 397.0 186.0Q441 171 482.0 148.5Q523 126 590 85Q681 28 757.0 -11.5Q833 -51 924 -80L964 -11Q870 17 797.5 54.5Q725 92 634 149Q565 192 520.0 216.0Q475 240 422.0 256.0Q369 272 309 272Q200 272 133.0 226.0Q66 180 66 91Q66 42 91.5 2.5Q117 -37 164.0 -59.5Q211 -82 273 -82ZM135 330H210V618H135ZM310 344Q471 321 583 321Q886 321 886 476Q886 553 802.5 589.0Q719 625 582 625Q333 625 161 550L173 488Q253 522 351.0 538.5Q449 555 576 555Q680 555 743.0 535.5Q806 516 806 474Q806 433 754.0 409.5Q702 386 595 386Q481 386 310 415ZM72 721H928V789H72Z" transform="translate(0, 880) scale(1,-1)" /></svg>