<svg xmlns="http://www.w3.org/2000/svg" width="1000" height="1000"><path d="M714 -82Q955 67 955 304Q955 408 915.0 461.0Q875 514 796 514Q765 514 735.5 503.0Q706 492 688 474Q749 619 851 783L769 818Q690 676 649.0 575.0Q608 474 605 423Q603 373 603 351Q603 289 610 229L688 221Q679 283 679 327Q679 376 691 400Q700 422 724.0 432.5Q748 443 793 443Q835 443 854.5 409.5Q874 376 874 304Q874 228 856.5 172.5Q839 117 795.5 70.0Q752 23 674 -24ZM98 -71 536 122 495 181 56 -11ZM224 7Q281 70 342.0 156.5Q403 243 453 324L388 371L372 352H270Q309 428 332.0 513.0Q355 598 372 714H297Q281 592 252.0 493.5Q223 395 172 316L224 268L246 289H346Q264 139 171 31ZM52 485H578V556H52ZM111 700H520V771H111Z" transform="translate(0, 880) scale(1,-1)" /></svg>