<svg xmlns="http://www.w3.org/2000/svg" width="1000" height="1000"><path d="M399 -58Q649 103 781.5 258.0Q914 413 914 569Q914 780 683 780Q595 780 528.5 753.5Q462 727 379 669L429 609Q490 652 552.0 675.0Q614 698 683 698Q747 698 786.5 665.0Q826 632 826 569Q826 442 700.0 294.0Q574 146 337 -1ZM97 -60 384 97 354 159 66 14ZM236 40 331 465 269 499 249 484H60V408H237L165 49ZM951 -4Q858 96 727.0 218.5Q596 341 474 443L411 394Q523 300 653.0 172.5Q783 45 877 -61ZM324 653Q294 683 239.0 725.5Q184 768 130 805L80 746Q135 708 189.5 663.0Q244 618 272 588Z" transform="translate(0, 880) scale(1,-1)" /></svg>