<svg xmlns="http://www.w3.org/2000/svg" width="1000" height="1000"><path d="M395 -70Q473 -70 542.0 -38.5Q611 -7 655.0 60.5Q699 128 699 230Q699 364 619.0 435.5Q539 507 385 507Q319 507 245 494V433Q313 442 366 442Q510 442 566.0 385.5Q622 329 622 229Q622 165 591.5 112.5Q561 60 509.0 30.0Q457 0 395 0Q325 0 270.5 23.0Q216 46 186.5 83.5Q157 121 157 164Q157 199 177.0 230.0Q197 261 232.5 280.0Q268 299 311 299Q369 299 406.0 279.0Q443 259 443 220Q443 187 425.0 167.0Q407 147 379 147Q357 147 341.5 165.5Q326 184 326 211Q326 278 396.5 311.0Q467 344 563.0 352.0Q659 360 793 360V55H721V-11H939V55H867V422L809 440L794 427Q564 426 409.5 381.0Q255 336 255 205Q255 154 289.5 121.0Q324 88 379 88Q436 88 476.0 121.5Q516 155 516 217Q516 284 458.0 323.5Q400 363 311 363Q242 363 189.0 336.5Q136 310 107.0 264.5Q78 219 78 166Q78 101 112.5 47.5Q147 -6 218.5 -38.0Q290 -70 395 -70ZM63 586H943V657H63ZM383 478Q486 538 594.5 618.0Q703 698 784 779L739 827L716 817H230V750H658Q610 704 511.0 630.0Q412 556 314 493Z" transform="translate(0, 880) scale(1,-1)" /></svg>