<svg xmlns="http://www.w3.org/2000/svg" width="1000" height="1000"><path d="M130 213C149 262 166 310 180 363L123 379C105 304 79 228 43 148L95 107L108 127L456 270L441 334ZM233 -72C280 -72 310 -51 310 17V835H239V37C239 13 230 0 216 0C189 0 161 4 124 18V-60C161 -69 196 -72 233 -72ZM67 443H445V514H67ZM90 630C194 635 344 653 445 688L425 757C334 724 184 707 74 701ZM896 -61C951 -61 974 12 977 117L922 131C920 50 914 16 897 16C872 16 840 103 891 607L832 633L818 622H438V548H807C768 41 793 -61 896 -61ZM444 -76C650 101 691 383 691 834H615C615 390 584 145 390 -17ZM719 209 751 278C686 321 569 375 475 413L443 353C538 311 658 253 719 209Z" transform="translate(0, 880) scale(1,-1)" /></svg>