<svg xmlns="http://www.w3.org/2000/svg" width="1000" height="1000"><path d="M492 390 417 413 408 396C208 401 49 290 49 103C49 -1 89 -68 170 -68C263 -68 325 17 325 193C325 339 306 421 265 519L206 498C245 398 262 308 262 193C262 55 216 7 169 8C134 9 114 46 114 99C114 183 175 327 410 321C390 115 387 62 387 24C387 -47 402 -61 474 -61H880C940 -61 960 2 964 161L895 173C893 36 881 16 860 16H481C468 16 461 21 461 33C461 50 463 94 492 390ZM88 511 109 444C219 482 342 531 450 598L409 657C323 605 190 545 88 511ZM74 693 95 624C207 658 323 710 424 776L386 834C305 785 178 725 74 693ZM761 130C911 130 948 277 948 470C948 672 912 767 779 767C706 767 638 745 589 699V752H523V137H589V649C641 684 718 695 779 695C855 695 879 641 879 470C879 328 860 203 761 203C722 203 683 208 639 223V140C678 134 718 130 761 130ZM563 432H828V502H563Z" transform="translate(0, 880) scale(1,-1)" /></svg>