<svg xmlns="http://www.w3.org/2000/svg" width="1000" height="1000"><path d="M43 -11 87 -77C376 36 614 243 614 567V824H535V567C535 282 306 90 43 -11ZM695 -61H843C929 -61 947 2 954 187L877 201C873 35 868 11 831 11H704C672 11 666 20 666 66V308H590V67C590 -33 613 -61 695 -61ZM762 342 826 288C898 349 925 416 925 466C925 565 840 634 720 634C454 634 307 541 105 440L147 366C349 480 470 561 720 561C806 561 844 514 844 466C844 434 818 383 762 342ZM202 470 268 448C330 513 399 603 437 682L387 726L370 719H90V648H331C303 591 260 533 202 470Z" transform="translate(0, 880) scale(1,-1)" /></svg>