<svg xmlns="http://www.w3.org/2000/svg" width="1000" height="1000"><path d="M565 -55Q716 -47 816.0 -2.5Q916 42 916 130Q916 189 880.0 226.0Q844 263 776 263Q768 263 748 261L880 437L822 499Q675 500 541.5 470.0Q408 440 324.5 382.5Q241 325 241 248Q241 186 273.0 153.5Q305 121 364 121Q413 121 460.5 151.0Q508 181 543 240L562 269Q767 582 842 732L778 765L764 752H494V688H732Q681 582 474 265Q459 240 425.5 217.5Q392 195 367 195Q316 195 316 248Q316 294 385.5 335.5Q455 377 564.0 401.5Q673 426 786 426Q765 388 730.0 338.5Q695 289 652 240L685 183Q725 191 751 191Q793 191 815.0 175.0Q837 159 837 130Q837 102 796.0 78.0Q755 54 691.0 40.0Q627 26 561 26Q540 26 530 27ZM228 -27Q176 104 176 198Q176 256 195 303Q223 373 223 428Q223 494 180 556L97 537Q140 463 140 403Q140 358 117 309Q93 258 93 191Q93 93 143 -36ZM300 703Q270 725 217.0 756.0Q164 787 117 811L75 758Q121 732 173.5 698.5Q226 665 256 642ZM350 477Q442 569 491.5 640.5Q541 712 586 821L508 841Q471 742 420.0 670.0Q369 598 292 534Z" transform="translate(0, 880) scale(1,-1)" /></svg>