<svg xmlns="http://www.w3.org/2000/svg" width="1000" height="1000"><path d="M191 495Q330 625 445 801L380 839Q271 668 126 546ZM588 424Q659 491 721.0 569.5Q783 648 820 721L765 764L749 757H325V679H696Q646 580 513 457ZM163 -66Q438 15 642.0 117.0Q846 219 846 334Q846 485 556 485Q434 485 331.5 463.5Q229 442 121 402L155 328Q253 369 346.5 387.5Q440 406 556 406Q655 406 708.5 388.0Q762 370 762 334Q762 248 563.5 159.0Q365 70 111 3ZM903 -7Q716 91 559.0 155.0Q402 219 231 268L192 206Q361 154 510.0 89.5Q659 25 843 -75Z" transform="translate(0, 880) scale(1,-1)" /></svg>