<svg xmlns="http://www.w3.org/2000/svg" width="1000" height="1000"><path d="M633 423Q687 444 717.5 473.5Q748 503 748 532Q748 580 687.5 606.5Q627 633 517 633Q252 633 252 543Q252 505 301.0 483.0Q350 461 437 461Q494 461 523.5 478.0Q553 495 553 524V821H474V539Q474 526 458.5 519.5Q443 513 418 513Q392 513 364.5 522.5Q337 532 337 543Q337 579 517 579Q584 579 623.5 565.0Q663 551 663 531Q663 506 633.0 480.5Q603 455 519 423ZM78 358H930V423H78ZM95 674H912V736H95ZM609 -87Q759 -69 847.5 -19.0Q936 31 936 108Q936 193 824.5 234.5Q713 276 532 276Q396 276 290.0 249.0Q184 222 125.0 174.0Q66 126 66 63Q66 -64 275 -64Q405 -64 511.0 -13.5Q617 37 685.0 131.5Q753 226 773 355L699 361Q683 247 622.5 165.5Q562 84 473.0 42.0Q384 0 283 0Q213 0 177.0 16.5Q141 33 141 63Q141 105 192.0 138.0Q243 171 332.5 189.5Q422 208 532 208Q669 208 763.0 184.0Q857 160 857 102Q857 69 822.5 41.0Q788 13 721.0 -5.5Q654 -24 562 -30ZM543 63Q463 79 414.5 111.5Q366 144 343.0 204.5Q320 265 324 364L246 367Q242 250 268.0 178.0Q294 106 346.5 67.5Q399 29 482 9ZM462 152H537V331H462Z" transform="translate(0, 880) scale(1,-1)" /></svg>