<svg xmlns="http://www.w3.org/2000/svg" width="1000" height="1000"><path d="M98 234H176V551Q253 597 336.0 618.0Q419 639 551 639Q696 639 751.5 598.5Q807 558 807 486Q807 403 749.0 362.0Q691 321 588 321Q441 321 288 336V261Q421 248 588 248Q686 248 753.0 280.0Q820 312 852.5 365.5Q885 419 885 486Q885 587 813.0 650.5Q741 714 551 714Q413 714 321.0 688.0Q229 662 176 625V701H98ZM278 452H684V522H278ZM779 -85Q830 -85 862.0 -66.0Q894 -47 915.5 -2.0Q937 43 952 125L872 146Q865 89 854.0 57.5Q843 26 825.5 12.0Q808 -2 779 -2Q641 -2 565.0 245.5Q489 493 463 827L382 823Q464 -85 779 -85ZM147 -35Q372 -4 576.0 56.0Q780 116 892 187L832 247Q738 185 540.5 127.0Q343 69 105 40Z" transform="translate(0, 880) scale(1,-1)" /></svg>