<svg xmlns="http://www.w3.org/2000/svg" width="1000" height="1000"><path d="M891 -82 928 -14C747 78 657 210 657 837H585C587 184 685 27 891 -82ZM600 59 627 1C772 72 862 194 882 292L811 306C791 224 716 121 600 59ZM84 605H806V677H84ZM872 580 937 607C918 681 891 749 858 813L800 778C830 723 856 650 872 580ZM307 134C439 134 552 190 552 270C552 335 491 396 371 396C335 396 318 392 285 387C366 418 429 441 518 486L474 526L458 522H113V462H361C310 429 254 408 182 381C166 375 148 370 126 364L145 310C203 329 281 341 347 341C428 341 479 318 479 270C479 201 398 189 300 189C249 189 219 199 219 213C219 227 239 236 262 236C312 236 339 220 339 169C339 110 325 76 278 30L331 20C381 72 405 111 405 176C405 244 343 282 264 282C201 282 158 245 158 211C158 169 215 134 307 134ZM94 8 114 -53 531 61 511 118Z" transform="translate(0, 880) scale(1,-1)" /></svg>