<svg xmlns="http://www.w3.org/2000/svg" width="1000" height="1000"><path d="M223 491 284 456C336 564 369 680 393 814L324 822C301 697 268 577 223 491ZM61 373 120 351C141 410 161 506 171 584L105 592C99 521 81 429 61 373ZM84 662H547V731H84ZM483 350 548 368C539 431 525 521 504 596L443 582C463 505 476 413 483 350ZM245 -62C389 -62 451 84 451 221C451 330 363 462 205 514L180 455C307 409 376 298 376 217C376 121 335 16 245 16C210 16 180 44 180 100C180 207 276 284 463 408L420 454C236 337 105 229 105 98C105 -9 165 -62 245 -62ZM494 -20 543 -78C750 50 901 281 915 650L860 674L843 658H648V592H840C821 307 709 118 494 -20ZM888 -75 950 -23C881 102 759 264 645 390L595 349C707 219 823 46 888 -75ZM554 455 619 431C659 532 691 654 710 811L639 818C622 663 595 554 554 455Z" transform="translate(0, 880) scale(1,-1)" /></svg>