<svg xmlns="http://www.w3.org/2000/svg" width="1000" height="1000"><path d="M923 -14Q779 37 697.5 116.0Q616 195 574.0 363.5Q532 532 532 837H455Q456 518 500.5 338.0Q545 158 632.0 67.5Q719 -23 870 -82ZM488 1Q590 35 664.5 84.5Q739 134 778.0 188.5Q817 243 817 293Q817 363 769.0 411.5Q721 460 605 460Q470 460 362.5 385.0Q255 310 179 214V488H101V164Q101 146 93.5 135.0Q86 124 66 107L127 37Q247 203 364.5 295.0Q482 387 605 387Q676 387 706.0 360.5Q736 334 736 293Q736 258 697.5 213.5Q659 169 593.5 126.5Q528 84 451 53ZM84 605H748V677H84ZM937 607Q914 673 891.0 721.0Q868 769 836 813L775 778Q832 700 866 580Z" transform="translate(0, 880) scale(1,-1)" /></svg>