<svg xmlns="http://www.w3.org/2000/svg" width="1000" height="1000"><path d="M653 471Q667 499 667 526Q667 554 649.0 579.5Q631 605 594.0 620.5Q557 636 503 636Q422 636 383.0 606.5Q344 577 344 536Q344 510 366.5 487.5Q389 465 434.5 451.0Q480 437 546 437Q705 437 792.0 490.0Q879 543 879 641Q879 724 814.5 771.0Q750 818 598 818Q459 818 362.5 795.0Q266 772 184 731L222 673Q390 750 598 750Q700 750 745.5 719.5Q791 689 791 641Q791 571 729.5 533.5Q668 496 546 496Q426 496 426 536Q426 555 445.5 567.0Q465 579 503 579Q541 579 562.5 565.5Q584 552 584 526Q584 503 575 482ZM163 799V463H244V799ZM456 -79Q506 -79 528.5 -57.0Q551 -35 551 12V413H472V24Q472 10 463.0 2.0Q454 -6 438 -6Q381 -6 301 16V-66Q377 -79 456 -79ZM115 -6Q181 34 243.5 88.0Q306 142 347 199L271 229Q234 177 175.5 129.5Q117 82 54 51ZM62 279H942V355H62ZM944 40Q909 79 841.0 132.5Q773 186 709 227L650 181Q714 138 780.5 83.5Q847 29 882 -10Z" transform="translate(0, 880) scale(1,-1)" /></svg>