<svg xmlns="http://www.w3.org/2000/svg" width="1000" height="1000"><path d="M226 -69Q301 -69 355.0 -32.5Q409 4 437.0 69.5Q465 135 465 221Q465 337 403.5 432.5Q342 528 206 567L188 496Q300 456 344.5 383.5Q389 311 389 226Q389 165 369.5 115.0Q350 65 313.0 35.5Q276 6 226 6Q187 6 160.0 29.5Q133 53 133 100Q133 185 247.5 275.0Q362 365 527.0 426.0Q692 487 827 491Q827 316 775 316Q728 316 679 337V257Q747 244 805 244Q841 244 861.0 270.5Q881 297 891.5 367.0Q902 437 906 573Q718 573 518.5 504.5Q319 436 187.5 325.0Q56 214 56 94Q56 18 105.0 -25.5Q154 -69 226 -69ZM843 -48Q894 -48 919.0 -5.0Q944 38 947 138L872 156Q872 90 864.5 60.0Q857 30 839 30H688Q655 30 641.5 43.5Q628 57 628 96V373H553V96Q553 38 568.5 6.5Q584 -25 613.5 -36.5Q643 -48 691 -48ZM281 499Q345 541 412.0 600.0Q479 659 518 707H935V779H71V707H415Q377 658 327.0 610.5Q277 563 228 531Z" transform="translate(0, 880) scale(1,-1)" /></svg>