<svg xmlns="http://www.w3.org/2000/svg" width="1000" height="1000"><path d="M167 580 237 607C222 662 189 741 161 801L95 777C125 719 154 636 167 580ZM351 603 417 580C442 631 477 714 501 784L429 808C411 741 376 657 351 603ZM87 566V495H493V566ZM56 345V275H521V345ZM231 525V-5H306V525ZM197 6 228 -60 517 50 487 116ZM686 119 729 68C853 160 936 258 935 414C934 522 821 595 677 551C730 625 778 702 823 787L747 823C703 721 649 620 582 522C578 514 560 504 538 494L573 428C720 511 852 506 853 399C853 294 811 210 686 119ZM835 -93 901 -39C820 54 711 146 596 227L547 174C661 96 762 -4 835 -93Z" transform="translate(0, 880) scale(1,-1)" /></svg>