<svg xmlns="http://www.w3.org/2000/svg" width="1000" height="1000"><path d="M460 -70Q608 28 708.5 116.0Q809 204 871.0 309.0Q933 414 933 536Q933 653 874.5 711.0Q816 769 682 769Q533 769 400.0 638.0Q267 507 142 313V648H73V229L53 193L126 144Q255 374 399.0 536.0Q543 698 682 698Q777 698 818.0 659.0Q859 620 859 536Q859 434 801.0 344.0Q743 254 650.5 176.5Q558 99 411 -2ZM284 -81H358V825H284ZM963 2Q820 173 715.5 270.5Q611 368 493 435L458 376Q574 305 673.0 208.0Q772 111 913 -65Z" transform="translate(0, 880) scale(1,-1)" /></svg>