<svg xmlns="http://www.w3.org/2000/svg" width="1000" height="1000"><path d="M459 282H541V841H459ZM74 233H926V302H74ZM192 525H808V592H192ZM915 -4Q851 108 775 205L716 167Q790 69 852 -45ZM409 274Q279 171 234.5 118.5Q190 66 190 33Q190 -65 309 -65H575Q627 -65 654.0 -18.5Q681 28 696 129L621 141Q614 66 600.0 37.5Q586 9 559 9H343Q307 9 291.5 14.5Q276 20 276 33Q276 46 288.5 65.0Q301 84 344.5 124.0Q388 164 475 233ZM92 673H908V739H92ZM192 393H808V459H192Z" transform="translate(0, 880) scale(1,-1)" /></svg>