<svg xmlns="http://www.w3.org/2000/svg" width="1000" height="1000"><path d="M782 413Q832 413 859.0 423.5Q886 434 898.0 454.5Q910 475 917 512L839 522Q835 505 829.5 496.5Q824 488 810.5 484.5Q797 481 770 481H563Q535 481 521.5 485.5Q508 490 503.0 501.0Q498 512 498 534V762H416V529Q416 481 426.5 457.0Q437 433 463.5 423.0Q490 413 542 413ZM91 595 871 641 868 708 88 663ZM126 715Q310 721 494.5 732.0Q679 743 814 759L776 823Q658 808 476.0 797.0Q294 786 110 781ZM71 487 891 533 888 600 68 554ZM367 -65Q411 -65 434.5 -52.0Q458 -39 468.5 -12.0Q479 15 484 64L417 76Q413 34 402.0 19.5Q391 5 357 5H323Q289 5 279.0 15.5Q269 26 269 59V361H201V54Q201 5 209.5 -20.0Q218 -45 240.0 -55.0Q262 -65 306 -65ZM53 189 435 206 433 275 51 258ZM70 310Q157 315 248.5 328.5Q340 342 407 360L388 426Q331 409 242.0 395.5Q153 382 62 376ZM43 71 444 90 443 159 42 140ZM833 -61Q878 -61 902.0 -48.0Q926 -35 936.5 -8.0Q947 19 953 68L884 80Q881 50 876.0 35.5Q871 21 859.0 14.5Q847 8 823 8H768Q733 8 722.5 19.0Q712 30 712 63V350H643V58Q643 9 651.5 -16.0Q660 -41 682.5 -51.0Q705 -61 750 -61ZM473 186 904 204 902 273 471 255ZM493 298Q593 304 695.0 317.5Q797 331 872 350L851 415Q787 398 686.5 384.5Q586 371 484 365ZM462 76 914 95 913 165 461 146Z" transform="translate(0, 880) scale(1,-1)" /></svg>