<svg xmlns="http://www.w3.org/2000/svg" width="1000" height="1000"><path d="M194 -62C338 -62 399 111 399 254C399 435 324 573 224 690L165 645C262 532 319 397 319 254C319 147 279 16 194 16C162 16 137 39 137 98C137 208 221 313 410 462L363 520C176 379 56 235 56 98C56 -18 114 -62 194 -62ZM36 635 80 569C203 623 318 682 411 745L366 810C274 745 160 686 36 635ZM421 723 464 663C525 704 603 728 695 728C803 728 847 663 847 560C847 391 711 378 504 426V340C735 304 925 313 925 560C925 700 867 811 695 811C579 811 484 772 421 723ZM346 -21 399 -71C619 77 652 330 651 575H579C578 334 555 119 346 -21ZM879 -75 939 -28C861 73 765 179 678 269L625 222C711 135 806 26 879 -75Z" transform="translate(0, 880) scale(1,-1)" /></svg>