<svg xmlns="http://www.w3.org/2000/svg" width="1000" height="1000"><path d="M59 713V644H357V713ZM43 439 97 412 109 426 361 488 349 558 159 505 236 656 180 675ZM189 273Q226 273 246.0 291.5Q266 310 266 354V833H196V371Q196 356 190.0 347.0Q184 338 174 338Q133 338 89 358V284Q131 273 189 273ZM467 316Q518 316 552.0 342.5Q586 369 601.5 410.0Q617 451 617 495Q617 566 587.0 616.5Q557 667 499 716L437 672Q542 583 542 495Q542 453 521.5 420.5Q501 388 467 388Q447 388 436.5 397.5Q426 407 426 424Q426 458 473.5 503.5Q521 549 623 612L581 662Q472 602 414.5 541.5Q357 481 357 424Q357 374 386.5 345.0Q416 316 467 316ZM396 620Q535 691 618 758L577 810Q495 740 355 671ZM851 272Q885 272 901.5 287.0Q918 302 924.5 339.0Q931 376 933 453L871 466Q870 415 868.0 390.0Q866 365 862.5 356.5Q859 348 852 348Q823 348 799.0 415.0Q775 482 760.0 594.0Q745 706 741 837H673Q677 678 698.0 550.0Q719 422 757.5 347.0Q796 272 851 272ZM643 286Q725 326 801.5 396.5Q878 467 917 582L857 610Q820 509 754.0 446.5Q688 384 624 361ZM632 589 906 672 886 743 613 664ZM100 -70Q288 -32 386.0 23.5Q484 79 516.0 145.5Q548 212 548 304H466Q466 216 440.5 163.0Q415 110 327.0 66.5Q239 23 56 -12ZM939 -26Q761 62 579 125L537 73Q745 -5 885 -80ZM73 153H927V225H73Z" transform="translate(0, 880) scale(1,-1)" /></svg>