<svg xmlns="http://www.w3.org/2000/svg" width="1000" height="1000"><path d="M213 311Q288 311 340.0 339.5Q392 368 417.0 411.0Q442 454 442 499Q442 573 389.5 634.5Q337 696 243 752L185 726Q269 676 314.5 618.0Q360 560 360 499Q360 449 323.0 416.0Q286 383 213 383Q181 383 163.0 392.5Q145 402 145 419Q145 455 217.0 497.0Q289 539 455 602L406 653Q235 591 147.0 534.0Q59 477 59 419Q59 367 101.5 339.0Q144 311 213 311ZM74 657Q303 708 450 758L412 822Q263 767 36 720ZM516 720V652H941V720ZM498 560V490H960V560ZM687 837V312H769V837ZM456 -79Q506 -79 528.5 -57.5Q551 -36 551 9V391H472V21Q472 8 463.0 -0.5Q454 -9 438 -9Q381 -9 301 13V-66Q377 -79 456 -79ZM115 -23Q180 9 243.0 54.0Q306 99 347 146L275 180Q238 138 179.5 98.5Q121 59 58 33ZM62 214H942V287H62ZM940 24Q905 56 837.5 99.5Q770 143 705 178L650 131Q713 96 780.0 51.0Q847 6 882 -26Z" transform="translate(0, 880) scale(1,-1)" /></svg>