<svg xmlns="http://www.w3.org/2000/svg" width="1000" height="1000"><path d="M338 663Q318 693 280.5 731.5Q243 770 202 804L147 770Q186 737 222.5 696.5Q259 656 279 625ZM463 611H537V841H463ZM707 625Q742 653 783.5 694.0Q825 735 860 775L795 810Q770 775 729.5 733.0Q689 691 651 660ZM884 398Q902 428 910.5 455.5Q919 483 919 518Q919 582 842.0 610.0Q765 638 617 638Q476 638 360.0 608.0Q244 578 162 523V617H84V415H162V467Q238 516 360.5 539.5Q483 563 617 563Q732 563 785.0 548.5Q838 534 838 516Q838 467 811 425ZM462 -77Q546 -75 546 13V455H469V25Q469 8 460.0 -2.5Q451 -13 435 -14Q363 -15 276 17V-57Q320 -69 362.5 -73.5Q405 -78 462 -77ZM53 119H947V188H53ZM116 266H884V331H116ZM226 396Q367 395 522.5 407.5Q678 420 786 448L748 505Q659 482 507.5 469.5Q356 457 213 456Z" transform="translate(0, 880) scale(1,-1)" /></svg>