<svg xmlns="http://www.w3.org/2000/svg" width="1000" height="1000"><path d="M222 -27Q171 107 171 198Q171 252 190 303Q217 376 217 428Q217 497 176 556L96 537Q138 462 138 404Q138 360 115 309Q92 257 92 191Q92 96 140 -36ZM291 703Q261 725 210.0 756.0Q159 787 115 811L75 755Q119 729 169.5 695.5Q220 662 249 639ZM615 432Q653 429 685 429Q817 429 876.0 470.5Q935 512 935 582Q935 653 871.5 692.5Q808 732 672 732Q556 732 448.5 705.5Q341 679 265 639L308 568Q373 605 471.5 629.0Q570 653 672 653Q762 653 807.0 636.0Q852 619 852 582Q852 546 814.0 527.0Q776 508 701 508Q668 508 615 513ZM296 350V273H910V350ZM286 186V104H920V186ZM558 -74Q601 -74 625.0 -49.0Q649 -24 649 22V829H571V36Q571 21 563.5 11.0Q556 1 542 1Q471 1 400 30V-56Q471 -74 558 -74Z" transform="translate(0, 880) scale(1,-1)" /></svg>