<svg xmlns="http://www.w3.org/2000/svg" width="1000" height="1000"><path d="M235 526H765V596H235ZM317 709 393 732C376 764 348 806 317 841L245 821C273 787 303 742 317 709ZM89 648H911V718H89ZM600 706 668 690C697 728 733 786 756 826L673 844C658 805 628 747 600 706ZM832 294 900 245C928 274 939 314 939 355C939 466 788 493 614 493C427 493 294 464 152 398V464H77V259H152V344C326 405 454 419 613 419C751 419 856 393 856 351C856 330 847 308 832 294ZM146 -27 184 -91C518 -33 685 37 803 290L741 316L721 309H342V242H687C589 62 441 19 146 -27ZM570 56 620 116C538 147 454 175 362 201L328 141C417 114 497 86 570 56ZM143 154 207 111C315 187 399 282 453 370L380 398C329 307 245 221 143 154Z" transform="translate(0, 880) scale(1,-1)" /></svg>