<svg xmlns="http://www.w3.org/2000/svg" width="1000" height="1000"><path d="M500 27Q569 63 612.5 124.5Q656 186 656 268Q656 344 610.5 381.5Q565 419 481 419Q399 419 352.0 381.5Q305 344 305 281Q305 215 355.5 177.5Q406 140 481 140Q520 140 552 161Q529 117 471.5 79.0Q414 41 353 27ZM58 -46H950V27H58ZM481 217Q438 217 414.5 234.0Q391 251 391 281Q391 308 415.5 327.0Q440 346 481 346Q520 346 544.0 328.0Q568 310 568 284Q568 251 544.0 234.0Q520 217 481 217ZM351 455Q312 647 251 823L178 804Q239 632 279 435ZM51 583H951V655H51ZM460 487H535V821H460ZM637 321Q699 416 748.0 554.5Q797 693 815 826L733 836Q720 704 677.0 569.0Q634 434 575 346Z" transform="translate(0, 880) scale(1,-1)" /></svg>