<svg xmlns="http://www.w3.org/2000/svg" width="1000" height="1000"><path d="M107 650Q309 655 522.5 672.0Q736 689 890 715L857 786Q724 763 513.5 747.0Q303 731 91 725ZM461 837V240H539V837ZM138 596V526H393V596ZM233 559V386H298V559ZM133 398 143 329 412 369 402 438ZM684 630V365H757V630ZM602 405V333H862V405ZM84 276V199H916V276ZM168 -79Q343 42 425 149L348 178Q312 124 246.5 65.5Q181 7 110 -35ZM895 -39Q854 10 787.5 69.5Q721 129 650 185L588 146Q757 10 827 -79Z" transform="translate(0, 880) scale(1,-1)" /></svg>