<svg xmlns="http://www.w3.org/2000/svg" width="1000" height="1000"><path d="M943 791H131V470C131 325 123 122 35 -23L103 -60C196 92 209 317 209 470V714H943ZM755 -47C869 -47 897 51 897 311C897 509 854 619 658 619C575 619 486 610 436 594L453 524C499 536 580 543 658 543C793 543 821 457 821 311C821 99 796 27 749 27C723 27 693 32 668 41V-39C695 -46 731 -47 755 -47ZM410 -38H619V37H425C390 37 371 59 371 102V352C371 412 378 476 396 527L323 546C301 487 293 433 293 352V96C293 0 334 -38 410 -38ZM453 168H738V238H453ZM453 344H738V412H453Z" transform="translate(0, 880) scale(1,-1)" /></svg>