<svg xmlns="http://www.w3.org/2000/svg" width="1000" height="1000"><path d="M125 -50H202V508Q248 522 292.5 527.0Q337 532 403 532H732Q769 532 789.5 515.0Q810 498 810 468V42Q810 15 786 15Q732 15 666 36V-42Q736 -59 787 -59Q841 -59 864.0 -39.0Q887 -19 887 36V472Q887 535 850.0 571.0Q813 607 737 607H401Q337 607 292.5 599.0Q248 591 199 571V600H125ZM456 12Q500 12 523.0 31.0Q546 50 546 100V207H698V278H546V356H698V427H546V559H467V427H314V356H467V278H314V207H467L469 112Q469 98 465.5 92.5Q462 87 450 87Q395 87 331 107V27Q402 12 456 12ZM521 562 615 619Q760 704 837 760L774 806L747 798H176V726H660Q592 672 472 601Z" transform="translate(0, 880) scale(1,-1)" /></svg>