<svg xmlns="http://www.w3.org/2000/svg" width="1000" height="1000"><path d="M870 434 799 470C774 412 744 363 698 304C689 293 670 291 655 289V217C779 234 833 219 833 182C833 133 792 85 726 59L765 7C847 39 908 91 908 182C908 248 861 306 770 295C815 351 846 395 870 434ZM870 -88 904 -19C833 28 748 76 678 111L644 48C718 15 800 -37 870 -88ZM75 553 136 512C218 615 263 713 305 826L233 848C197 738 151 649 75 553ZM213 519H881V584H213ZM221 687H896V755H222ZM337 287 316 354C190 275 94 159 94 50C94 -25 134 -72 211 -72C293 -72 378 47 378 176C378 296 354 389 295 403C455 477 524 542 609 636L539 671C462 575 371 496 229 424C213 409 197 411 148 400V327C173 335 203 343 241 343C294 343 307 249 307 176C307 85 264 -3 209 -3C182 -3 164 19 164 50C164 130 232 219 337 287ZM459 -61C515 -61 553 -30 553 29V338H483L484 51C484 22 476 7 455 7C439 7 411 12 390 23V-50C408 -57 435 -61 459 -61ZM388 68H632V136H388ZM408 188H612V257H408ZM417 367 482 372 477 454 411 450ZM389 307H634V377H389ZM547 361 611 359 614 454 551 457Z" transform="translate(0, 880) scale(1,-1)" /></svg>