<svg xmlns="http://www.w3.org/2000/svg" width="1000" height="1000"><path d="M531 -55Q580 -55 624.0 -45.5Q668 -36 720 -14V79Q665 52 624.0 39.0Q583 26 548 26Q526 26 518.0 33.5Q510 41 510 58V592H431V43Q431 -9 455.0 -32.0Q479 -55 531 -55ZM133 -27Q181 95 219.0 242.0Q257 389 275 522L198 533Q179 404 143.5 260.5Q108 117 63 3ZM956 12Q855 328 752 549L681 522Q739 397 786.5 268.0Q834 139 882 -20ZM158 635Q361 649 547.0 676.0Q733 703 871 740L833 813Q711 778 527.5 752.0Q344 726 138 711Z" transform="translate(0, 880) scale(1,-1)" /></svg>