<svg xmlns="http://www.w3.org/2000/svg" width="1000" height="1000"><path d="M114 342Q139 428 160.5 543.5Q182 659 195 766L122 774Q111 672 90.0 563.5Q69 455 46 377ZM111 539H453L452 616H111ZM261 -79Q293 -79 311.5 -54.0Q330 -29 330 16V819H259V29Q259 14 253.0 4.5Q247 -5 237 -5Q183 -5 129 17V-63Q191 -79 261 -79ZM472 284 448 357 46 206 70 134ZM518 441Q584 584 645 808L574 831Q521 627 447 479ZM484 -64Q652 30 766.5 190.5Q881 351 920 622L871 656L853 643H540V566H835Q762 174 434 -7ZM949 -12Q830 123 731.0 214.5Q632 306 527 375L484 319Q590 245 686.0 152.0Q782 59 892 -75Z" transform="translate(0, 880) scale(1,-1)" /></svg>