<svg xmlns="http://www.w3.org/2000/svg" width="1000" height="1000"><path d="M653 177Q689 177 709.0 192.0Q729 207 729 243L731 810H654L652 265Q652 255 646.0 250.5Q640 246 626 246Q564 246 497 262V188Q577 177 653 177ZM269 174H346V810H269ZM60 384H942V455H60ZM84 604H918V674H84ZM126 -79Q173 -31 209.5 33.0Q246 97 262 164L187 187Q173 124 137.0 61.0Q101 -2 57 -44ZM524 -73Q556 -73 587.0 -57.5Q618 -42 661 -5L607 58Q585 32 568.5 21.5Q552 11 534 11Q521 11 512.0 25.0Q503 39 492.0 75.5Q481 112 464 186L387 168Q420 30 452.5 -21.5Q485 -73 524 -73ZM951 -43Q924 6 879.5 71.5Q835 137 792 189L723 152Q766 101 806.0 39.5Q846 -22 873 -75Z" transform="translate(0, 880) scale(1,-1)" /></svg>