<svg xmlns="http://www.w3.org/2000/svg" width="1000" height="1000"><path d="M125 -50H202V508C265 527 318 532 403 532H732C782 532 810 508 810 468V42C810 23 800 15 786 15C756 15 716 20 666 36V-42C711 -53 752 -59 787 -59C857 -59 887 -39 887 36V472C887 553 841 607 737 607H401C315 607 263 597 199 571V600H125ZM456 12C508 12 546 28 546 100V207H698V278H546V356H698V427H546V559H467V427H314V356H467V278H314V207H467L469 112C469 94 466 87 450 87C416 87 379 92 331 107V27C378 17 418 12 456 12ZM472 601 521 562C614 620 741 690 837 760L774 806L747 798H176V726H660C606 683 533 637 472 601Z" transform="translate(0, 880) scale(1,-1)" /></svg>