<svg xmlns="http://www.w3.org/2000/svg" width="1000" height="1000"><path d="M511 317C750 317 869 434 869 653L814 689L790 675H147V603H786C786 455 672 386 511 386C429 386 361 392 296 409V335C355 322 417 317 511 317ZM135 27C205 103 255 174 296 263L227 289C189 210 140 137 75 63ZM442 -61C502 -61 552 -21 552 58V523H473V71C473 29 458 10 429 10C400 10 362 15 322 28V-49C361 -57 400 -61 442 -61ZM862 36 925 79C877 153 820 230 770 295L707 258C761 188 812 115 862 36ZM336 664 408 693C388 738 361 792 329 836L262 811C290 768 318 713 336 664ZM671 661C711 711 744 764 769 815L691 841C675 796 642 734 608 686Z" transform="translate(0, 880) scale(1,-1)" /></svg>