<svg xmlns="http://www.w3.org/2000/svg" width="1000" height="1000"><path d="M407 76Q479 134 558.0 204.0Q637 274 685 325L627 395L605 381H435Q495 467 523.5 561.5Q552 656 571 827L489 832Q475 672 439.5 568.5Q404 465 326 359L373 302L402 313H557Q517 265 460.0 210.5Q403 156 339 106ZM910 19Q509 111 146 160L102 87Q519 27 875 -56ZM155 371Q233 461 284 666L211 688Q193 608 160.0 532.5Q127 457 83 407ZM761 374Q795 426 836.5 503.5Q878 581 913 657L833 688Q810 622 771.5 541.0Q733 460 698 403Z" transform="translate(0, 880) scale(1,-1)" /></svg>