<svg xmlns="http://www.w3.org/2000/svg" width="1000" height="1000"><path d="M886 622Q904 648 912.5 672.5Q921 697 921 726Q921 773 840.5 798.0Q760 823 617 823Q476 823 358.5 797.0Q241 771 160 723V811H82V637H160V682Q233 722 351.0 737.0Q469 752 617 752Q733 752 786.0 741.0Q839 730 839 715Q839 695 833.5 681.0Q828 667 812 646ZM164 -62Q222 -62 262.5 -24.5Q303 13 323.5 71.5Q344 130 344 190Q344 263 298.5 324.5Q253 386 164 417L143 368Q212 342 243.5 292.5Q275 243 275 187Q275 144 262.5 103.0Q250 62 225.0 35.0Q200 8 164 8Q142 8 128.0 25.0Q114 42 114 73Q114 117 139.0 155.5Q164 194 213.5 233.5Q263 273 349 329L312 367Q180 285 112.5 216.0Q45 147 45 71Q45 7 78.0 -27.5Q111 -62 164 -62ZM390 -52H939V10H390ZM218 377Q256 419 295.5 473.0Q335 527 360 570L315 601L302 595H69V524H258Q216 453 166 395ZM421 236Q484 301 539.0 381.0Q594 461 648 560L586 575Q532 477 478.5 402.5Q425 328 364 274ZM757 10Q807 40 832.0 75.0Q857 110 857 157Q857 219 808.0 251.5Q759 284 678 284Q601 284 550.0 255.0Q499 226 499 173Q499 118 535.0 87.5Q571 57 633 57Q673 57 697.5 82.0Q722 107 722 145V466H655V167Q655 120 620 120Q597 120 579.5 134.5Q562 149 562 173Q562 194 593.5 207.5Q625 221 678 221Q727 221 759.5 201.5Q792 182 792 155Q792 117 770.5 83.5Q749 50 690 10ZM415 460Q452 498 479.0 535.5Q506 573 552 644L494 673Q425 554 362 494ZM497 340H939V402H497ZM464 539H926V602H464Z" transform="translate(0, 880) scale(1,-1)" /></svg>