<svg xmlns="http://www.w3.org/2000/svg" width="1000" height="1000"><path d="M130 58 179 12C279 93 363 255 363 355C363 444 319 499 266 499C196 499 140 455 140 373C140 289 199 238 270 256C255 200 205 118 130 58ZM255 317C226 317 201 337 201 373C201 409 227 431 256 431C281 431 304 407 304 378C304 337 281 317 255 317ZM338 400V735H264V467ZM88 761V681H416V761ZM65 42 89 -32 425 96 401 170ZM685 41H751C831 143 874 206 874 337C874 473 808 550 684 550C552 550 486 473 486 363C486 253 533 183 615 183C682 183 726 249 726 328V699H651V353C651 289 636 262 613 262C583 262 557 298 557 363C557 415 588 475 684 475C770 475 800 423 800 337C800 236 771 159 685 41ZM418 -34H950V41H418ZM447 699H918V775H447Z" transform="translate(0, 880) scale(1,-1)" /></svg>