<svg xmlns="http://www.w3.org/2000/svg" width="1000" height="1000"><path d="M445 -57Q500 -57 529.5 -29.5Q559 -2 559 52V850H474V67Q474 40 465.5 28.0Q457 16 432 16Q367 16 305 42V-41Q369 -57 445 -57ZM126 -1Q223 99 291.5 223.0Q360 347 389 472L314 482Q278 350 218.5 245.5Q159 141 63 51ZM974 113Q626 250 282 324L266 253Q581 188 946 34ZM356 589Q340 633 302.5 695.0Q265 757 224 811L154 781Q194 726 230.5 663.5Q267 601 282 558ZM82 460H918V536H82ZM721 561Q783 648 857 789L780 817Q758 762 723.0 696.5Q688 631 657 587Z" transform="translate(0, 880) scale(1,-1)" /></svg>