<svg xmlns="http://www.w3.org/2000/svg" width="1000" height="1000"><path d="M137 306H211V458C310 529 423 570 594 570C756 570 809 530 809 474C809 371 600 370 305 401V325C635 301 888 309 888 474C888 568 824 646 594 646C407 646 284 596 211 524V837H137ZM642 -17 670 -79C845 -69 917 -6 917 102C917 206 816 260 520 260C212 260 85 180 85 91C85 -5 175 -63 323 -63C439 -63 544 -8 544 107V480H467V114C467 38 402 9 323 9C224 9 163 42 163 91C163 130 259 189 520 189C745 189 837 157 837 102C837 41 799 -10 642 -17ZM181 777V708H811V777Z" transform="translate(0, 880) scale(1,-1)" /></svg>