<svg xmlns="http://www.w3.org/2000/svg" width="1000" height="1000"><path d="M503 -14 568 -2Q706 24 775.0 43.5Q844 63 885.5 101.0Q927 139 927 207Q927 270 871.5 305.5Q816 341 733 341Q710 341 686 338L838 464L765 521L724 520Q576 517 490.0 511.0Q404 505 326.0 484.0Q248 463 189 421Q125 375 92.5 324.0Q60 273 60 227Q60 182 90 150Q118 121 163 121Q220 121 286.0 166.5Q352 212 397 283Q449 364 491.0 492.5Q533 621 558 756H480Q459 640 415.0 515.0Q371 390 321 314Q291 268 249.5 231.0Q208 194 177 194Q162 194 150 206Q140 216 140 234Q140 260 163.0 293.5Q186 327 229 359Q305 416 417.5 433.5Q530 451 703 451Q678 416 651.5 387.5Q625 359 588 330L636 261Q686 270 722 270Q783 270 813.5 249.0Q844 228 844 195Q844 141 737.0 105.5Q630 70 449 51ZM555 -47Q534 1 504.0 51.5Q474 102 444 139L379 107Q427 51 483 -79ZM131 578H352V642H131ZM129 714Q600 718 891 767L843 832Q591 787 113 783ZM653 578H875V642H653Z" transform="translate(0, 880) scale(1,-1)" /></svg>