<svg xmlns="http://www.w3.org/2000/svg" width="1000" height="1000"><path d="M62 406H929V480H62ZM342 271 427 245C551 406 623 568 691 829L609 840C547 588 474 428 342 271ZM207 517 276 552C260 609 217 690 179 751L112 720C147 661 186 574 207 517ZM399 545 474 572C461 636 428 719 394 788L323 764C354 695 386 608 399 545ZM706 540 773 518C813 581 857 669 888 742L810 773C786 700 744 608 706 540ZM530 306C419 306 311 287 221 254L248 182C330 210 442 230 530 230C653 230 732 199 732 129C732 46 652 12 565 12C519 12 461 17 391 28V-52C450 -61 509 -64 575 -64C711 -64 814 -1 814 129C814 258 696 306 530 306Z" transform="translate(0, 880) scale(1,-1)" /></svg>