<svg xmlns="http://www.w3.org/2000/svg" width="1000" height="1000"><path d="M313 659 388 688C371 726 339 788 304 830L231 801C264 758 294 705 313 659ZM88 600H919V673H88ZM616 668 682 642C723 695 758 752 784 807L703 834C684 782 654 721 616 668ZM523 267H627C733 310 771 359 771 416C771 500 677 548 501 548C307 548 209 500 209 433C209 364 277 321 399 321C490 321 550 361 550 409V600H470V425C470 400 442 389 396 389C339 389 292 404 292 429C292 451 348 479 501 479C638 479 690 454 690 416C690 374 660 318 523 267ZM53 194H950V267H53ZM57 -48 126 -82C188 -26 240 53 262 132L187 155C168 78 113 -1 57 -48ZM524 -76C565 -76 603 -61 661 -16L607 43C577 12 558 2 534 2C510 2 497 29 464 153L388 135C435 -38 478 -76 524 -76ZM873 -78 951 -48C916 9 850 95 792 156L723 121C785 57 841 -23 873 -78Z" transform="translate(0, 880) scale(1,-1)" /></svg>