<svg xmlns="http://www.w3.org/2000/svg" width="1000" height="1000"><path d="M284 643Q272 675 243.5 718.0Q215 761 182 800L117 770Q143 737 171.0 691.5Q199 646 217 609ZM554 658Q537 726 470 830L400 805Q426 763 448.0 715.5Q470 668 480 632ZM772 634Q832 707 882 795L800 823Q782 783 754.5 736.0Q727 689 700 653ZM884 402Q902 431 910.5 458.5Q919 486 919 519Q919 581 842.0 608.5Q765 636 617 636Q476 636 360.0 607.0Q244 578 162 524V615H84V419H162V469Q238 516 360.5 539.0Q483 562 617 562Q731 562 784.5 548.5Q838 535 838 518Q838 494 832.0 473.0Q826 452 811 429ZM417 10Q482 47 554.5 98.5Q627 150 673 191L614 247L594 238H456Q505 292 528.5 346.5Q552 401 568 495L487 498Q475 409 441.5 345.5Q408 282 337 215L386 166L413 173H521Q452 97 350 36ZM893 -12Q529 43 162 78L118 9Q523 -29 858 -82ZM206 189Q261 247 298 376L222 397Q209 345 185.5 297.0Q162 249 131 218ZM766 188Q796 243 841 358L763 385Q752 345 733.0 296.5Q714 248 696 213Z" transform="translate(0, 880) scale(1,-1)" /></svg>