<svg xmlns="http://www.w3.org/2000/svg" width="1000" height="1000"><path d="M670 -76Q801 -68 859.0 -19.5Q917 29 917 129Q917 190 878.5 229.0Q840 268 753.0 288.0Q666 308 520 308Q368 308 271.0 282.0Q174 256 129.5 213.0Q85 170 85 117Q85 64 119.0 24.5Q153 -15 213.5 -36.5Q274 -58 353 -58Q413 -58 463.5 -36.5Q514 -15 544.0 29.0Q574 73 574 135V577H497V144Q497 79 457.0 48.0Q417 17 353 17Q270 17 216.5 44.5Q163 72 163 117Q163 142 200.5 170.0Q238 198 318.5 217.0Q399 236 520 236Q685 236 761.0 209.5Q837 183 837 129Q837 86 820.5 58.5Q804 31 761.5 14.5Q719 -2 642 -6ZM121 495Q210 626 278 834L202 852Q138 651 53 540ZM239 383 265 394H827L828 467H312Q327 491 371 571Q401 627 418 655H329Q317 619 294.0 569.5Q271 520 252 489Q236 463 211 457ZM188 655H929V729H188Z" transform="translate(0, 880) scale(1,-1)" /></svg>