<svg xmlns="http://www.w3.org/2000/svg" width="1000" height="1000"><path d="M280 74Q331 74 375.5 102.5Q420 131 446.5 180.5Q473 230 473 288V831H389V295Q389 229 358.5 189.0Q328 149 280 149Q225 149 188.0 170.5Q151 192 151 224Q151 257 215.0 280.0Q279 303 378.0 314.0Q477 325 581 325Q717 325 782.5 302.0Q848 279 848 237Q848 185 783 158L834 117Q934 155 934 238Q934 282 895.0 318.5Q856 355 776.5 377.0Q697 399 581 399Q453 399 335.0 379.0Q217 359 142.0 319.0Q67 279 67 222Q67 188 95.0 153.5Q123 119 171.5 96.5Q220 74 280 74ZM123 -61H877V16H123ZM498 102H716V175H498ZM173 412 348 524 297 577 118 464ZM445 463Q501 460 548 460Q736 460 811.5 500.0Q887 540 887 611Q887 676 813.0 712.5Q739 749 581 749Q441 749 314.5 721.5Q188 694 104 650L134 585Q211 626 330.5 650.5Q450 675 581 675Q809 675 809 611Q809 571 756.5 550.5Q704 530 589 530Q528 530 445 536Z" transform="translate(0, 880) scale(1,-1)" /></svg>