<svg xmlns="http://www.w3.org/2000/svg" width="1000" height="1000"><path d="M58 421H944V495H58ZM652 500 690 563C576 612 486 643 351 664L326 599C461 574 550 546 652 500ZM519 615 602 585C691 631 810 705 871 756L823 807L807 802H153V727H706C651 686 592 651 519 615ZM63 223 119 166C242 243 356 338 449 433L392 480C301 384 188 296 63 223ZM581 355C418 355 290 328 169 290L196 227C317 269 435 291 581 291C704 291 764 266 764 228C764 127 404 -3 298 -3C247 -3 222 24 222 60C222 94 248 127 327 127C462 127 650 -3 894 -99L947 -39C710 49 491 194 327 194C219 194 140 143 140 60C140 -12 197 -78 298 -78C460 -78 854 85 854 228C854 307 754 355 581 355Z" transform="translate(0, 880) scale(1,-1)" /></svg>