<svg xmlns="http://www.w3.org/2000/svg" width="1000" height="1000"><path d="M877 -87 923 -19C715 73 641 210 641 837H566C569 184 648 22 877 -87ZM737 277C775 277 786 253 786 228C786 152 666 54 527 -8L563 -64C747 7 864 130 864 228C864 284 824 350 737 350C587 350 281 150 102 5L152 -58C315 84 613 277 737 277ZM127 605H770V679H127ZM866 580 935 607C910 687 883 751 843 813L783 778C819 723 848 650 866 580ZM52 473 126 450C161 547 189 685 203 794L127 802C114 690 87 561 52 473ZM171 516V442H498V516ZM122 359V285H507V359ZM284 479V112H362V479Z" transform="translate(0, 880) scale(1,-1)" /></svg>