<svg xmlns="http://www.w3.org/2000/svg" width="1000" height="1000"><path d="M886 622C910 656 921 686 921 726C921 790 805 823 617 823C426 823 267 786 160 723V811H82V637H160V682C267 741 453 752 617 752C784 752 839 733 839 715C839 688 833 674 812 646ZM164 -62C286 -62 344 76 344 190C344 281 289 374 164 417L143 368C242 330 275 254 275 187C275 107 240 8 164 8C137 8 114 29 114 73C114 162 190 226 349 329L312 367C156 270 45 180 45 71C45 -18 96 -62 164 -62ZM390 -52H939V10H390ZM218 377C268 433 327 513 360 570L315 601L302 595H69V524H258C232 480 197 431 166 395ZM421 236C510 328 581 437 648 560L586 575C519 453 449 350 364 274ZM690 10H757C821 48 857 93 857 157C857 243 781 284 678 284C580 284 499 247 499 173C499 99 551 57 633 57C688 57 722 95 722 145V466H655V167C655 133 641 120 620 120C591 120 562 140 562 173C562 200 606 221 678 221C744 221 792 190 792 155C792 110 775 67 690 10ZM415 460C472 518 511 581 552 644L494 673C456 607 414 543 362 494ZM497 340H939V402H497ZM464 539H926V602H464Z" transform="translate(0, 880) scale(1,-1)" /></svg>