<svg xmlns="http://www.w3.org/2000/svg" width="1000" height="1000"><path d="M467 771V706H857V771ZM426 830V634H503V830ZM810 423 885 394C909 436 920 474 920 525C920 618 805 653 617 653C426 653 270 606 163 527V634H83V413H163V470C270 544 453 574 617 574C785 574 837 544 837 524C837 490 831 459 810 423ZM306 79 383 38C706 104 812 132 812 189C812 237 711 276 438 300C583 338 687 379 783 448L716 492L699 483H220V412H576C475 368 370 337 186 313L201 257C582 233 683 207 683 189C683 163 598 135 306 79ZM788 -101 866 -40C720 3 413 73 180 116L131 54C356 12 649 -57 788 -101Z" transform="translate(0, 880) scale(1,-1)" /></svg>