<svg xmlns="http://www.w3.org/2000/svg" width="1000" height="1000"><path d="M654 455 728 437C736 459 741 482 741 505C741 566 699 616 602 616C504 616 469 569 469 514C469 457 539 406 651 406C823 406 912 495 912 639C912 758 848 823 694 823C471 823 78 649 78 489C78 428 138 388 201 388C335 388 436 466 436 623C436 718 391 811 243 811C178 811 116 794 76 775L98 707C135 724 192 737 245 737C326 737 357 688 357 613C357 517 292 460 203 460C175 460 159 474 159 497C159 607 512 745 694 745C784 745 825 712 825 639C825 531 769 475 651 475C585 475 543 492 543 513C543 534 561 552 602 552C641 552 664 535 664 505C664 488 660 471 654 455ZM456 -83C523 -83 551 -55 551 7V412H472V19C472 2 460 -11 438 -11C399 -11 348 -2 301 11V-70C348 -78 402 -83 456 -83ZM55 43 115 -13C198 35 290 109 347 185L272 216C222 149 138 83 55 43ZM62 263H942V338H62ZM882 -17 943 33C895 84 791 162 708 214L650 168C734 114 835 34 882 -17Z" transform="translate(0, 880) scale(1,-1)" /></svg>