<svg xmlns="http://www.w3.org/2000/svg" width="1000" height="1000"><path d="M475 25Q553 69 598.0 142.0Q643 215 643 294Q643 374 601.5 425.0Q560 476 486 476Q420 476 376.0 432.5Q332 389 332 320Q332 246 375.0 206.0Q418 166 483 166Q504 166 517.0 171.0Q530 176 545 188Q522 133 445.5 90.0Q369 47 273 25ZM55 -48H949V25H55ZM121 408Q185 483 235.5 592.0Q286 701 315 807L239 824Q210 713 162.0 615.5Q114 518 54 453Q68 445 89.0 431.5Q110 418 121 408ZM486 234Q451 234 428.5 258.0Q406 282 406 320Q406 358 428.5 382.0Q451 406 486 406Q521 406 543.5 382.0Q566 358 566 320Q566 282 543.5 258.0Q521 234 486 234ZM207 573H901V646H207ZM619 352V840H541V421Z" transform="translate(0, 880) scale(1,-1)" /></svg>