<svg xmlns="http://www.w3.org/2000/svg" width="1000" height="1000"><path d="M201 403Q306 403 371.0 461.5Q436 520 436 630Q436 716 394.5 763.5Q353 811 243 811Q197 811 153.0 801.5Q109 792 76 777L93 721Q123 734 164.0 742.0Q205 750 245 750Q310 750 333.5 718.0Q357 686 357 620Q357 574 337.0 537.5Q317 501 282.0 480.5Q247 460 203 460Q182 460 169.0 470.0Q156 480 156 496Q156 546 256.0 607.5Q356 669 487.0 713.0Q618 757 694 757Q762 757 794.5 731.5Q827 706 827 650Q827 577 788.5 541.5Q750 506 663 506Q633 506 585.0 514.0Q537 522 483 536V469Q545 455 587.5 448.5Q630 442 669 442Q794 442 851.0 495.5Q908 549 908 650Q908 735 857.0 779.0Q806 823 694 823Q596 823 447.5 770.0Q299 717 189.5 638.5Q80 560 80 488Q80 446 115.0 424.5Q150 403 201 403ZM216 -73Q279 25 302.0 120.0Q325 215 330 360H253Q249 260 239.5 198.0Q230 136 206.0 79.5Q182 23 136 -44ZM0.0 459.0Q0 459 0.0 459.0Q0 459 0.0 459.0ZM618 -75Q700 -75 741.5 -33.5Q783 8 795.0 70.0Q807 132 807 218Q807 266 793.0 296.0Q779 326 734.0 343.5Q689 361 600 361Q479 361 312 338L315 269Q481 291 599 291Q675 291 701.5 272.5Q728 254 728 218Q728 -10 608 -10Q517 -10 452 6V-64Q491 -71 525.5 -73.0Q560 -75 618 -75ZM661 118 664 185 372 191 368 123ZM505 317Q573 377 615.5 440.0Q658 503 688 590L615 609Q585 524 544.5 459.0Q504 394 447 342Z" transform="translate(0, 880) scale(1,-1)" /></svg>