<svg xmlns="http://www.w3.org/2000/svg" width="1000" height="1000"><path d="M136 682Q313 686 512.5 707.5Q712 729 858 758L819 826Q701 802 505.5 784.0Q310 766 119 759ZM532 26Q578 66 601.0 126.0Q624 186 624 256Q624 301 604.5 333.5Q585 366 553.5 383.0Q522 400 486 400Q421 400 381.0 365.0Q341 330 341 273Q341 214 381.5 180.5Q422 147 485 147Q518 147 547 168Q528 116 484.0 78.0Q440 40 378 26ZM79 -52H921V26H79ZM485 219Q454 219 434.5 233.0Q415 247 415 273Q415 300 435.0 315.5Q455 331 486 331Q512 331 531.0 315.5Q550 300 550 278Q550 249 532.0 234.0Q514 219 485 219ZM587 300V736H506V367ZM169 257Q197 309 218.5 380.0Q240 451 267 560L181 570Q169 494 146.0 415.5Q123 337 94 285ZM916 269Q897 363 878.0 437.5Q859 512 833 576L754 558Q796 447 831 246Z" transform="translate(0, 880) scale(1,-1)" /></svg>