<svg xmlns="http://www.w3.org/2000/svg" width="1000" height="1000"><path d="M186 -63C318 -63 377 112 377 252C377 369 320 487 186 542L163 480C269 432 302 336 302 252C302 148 269 16 186 16C154 16 133 39 133 98C133 210 216 296 394 425L344 478C178 356 56 235 56 98C56 -18 113 -63 186 -63ZM396 143 465 92C511 189 558 339 588 487L513 504C485 369 443 237 396 143ZM198 515 249 491C303 562 368 663 403 735L351 772L338 764H80V690H297C268 630 230 562 198 515ZM656 -78C699 -78 730 -61 730 4V729H648V17C648 0 636 -6 623 -6C592 -6 557 1 512 19V-64C556 -73 603 -78 656 -78ZM888 95 966 125C945 229 901 389 855 508L781 489C824 366 867 203 888 95ZM449 728 475 653C614 676 786 706 902 752L853 821C751 779 580 748 449 728Z" transform="translate(0, 880) scale(1,-1)" /></svg>