<svg xmlns="http://www.w3.org/2000/svg" width="1000" height="1000"><path d="M127 400H201V596C300 683 413 733 584 733C756 733 809 682 809 606C809 474 600 466 305 504V422C635 393 888 403 888 606C888 721 824 812 584 812C397 812 274 751 201 662V772H127ZM642 0 670 -76C845 -64 917 12 917 147C917 275 816 342 520 342C202 342 85 243 85 134C85 16 175 -56 323 -56C439 -56 544 12 544 153V614H467V163C467 64 402 25 323 25C224 25 163 69 163 134C163 183 259 263 520 263C745 263 837 223 837 147C837 70 799 10 642 0Z" transform="translate(0, 880) scale(1,-1)" /></svg>