<svg xmlns="http://www.w3.org/2000/svg" width="1000" height="1000"><path d="M565 337C731 337 846 434 845 560C844 696 753 770 570 770C453 770 360 734 280 658C305 698 327 749 353 809L274 835C237 722 181 621 113 527L190 490C209 521 230 555 260 579C338 662 464 694 570 693C694 692 764 645 764 561C764 468 680 410 565 410C492 410 425 419 362 431V352C420 342 476 337 565 337ZM0.0 0.0Q0 0 0.0 0.0Q0 0 0.0 0.0ZM50 -13 87 -77C376 36 514 203 564 567L488 575C438 240 313 88 50 -13ZM615 -61H793C879 -61 897 2 904 114L827 124C823 24 818 11 781 11H621C589 11 583 20 583 66V268H510V67C510 -33 533 -61 615 -61Z" transform="translate(0, 880) scale(1,-1)" /></svg>