<svg xmlns="http://www.w3.org/2000/svg" width="1000" height="1000"><path d="M119 759 136 682C373 688 664 719 858 758L819 826C655 793 360 768 119 759ZM378 26H532C596 81 624 167 624 256C624 350 556 400 486 400C400 400 341 350 341 273C341 192 403 147 485 147C510 147 532 157 547 168C523 101 463 45 378 26ZM79 -52H921V26H79ZM485 219C445 219 415 238 415 273C415 309 445 331 486 331C520 331 550 307 550 278C550 238 521 219 485 219ZM587 300V736H506V367ZM94 285 169 257C212 336 242 459 267 560L181 570C166 478 135 359 94 285ZM831 246 916 269C899 352 873 479 833 576L754 558C792 458 817 327 831 246Z" transform="translate(0, 880) scale(1,-1)" /></svg>