<svg xmlns="http://www.w3.org/2000/svg" width="1000" height="1000"><path d="M68 734V659H932V734ZM151 327 808 351 797 416 141 397ZM824 307 894 338C853 391 768 460 688 511L626 481C694 435 785 360 824 307ZM345 594C414 636 510 725 568 809L485 841C413 741 293 635 166 567L231 517L248 526H597V594ZM114 -62H192V173C287 217 380 243 567 243C775 243 823 192 823 124C823 32 736 -11 604 -11C502 -11 406 -7 304 1V-68C406 -76 502 -79 604 -79C808 -79 901 22 901 124C901 214 846 312 567 312C363 312 249 273 192 241V296H114ZM270 41 320 -11C482 54 658 150 720 198L661 246C603 197 437 102 270 41ZM629 0 681 58C598 109 476 176 393 213L345 161C435 120 553 52 629 0ZM726 602 653 645C528 558 350 456 188 390L247 342C412 411 594 511 726 602Z" transform="translate(0, 880) scale(1,-1)" /></svg>