<svg xmlns="http://www.w3.org/2000/svg" width="1000" height="1000"><path d="M652 494 690 557C576 607 486 640 351 661L326 594C461 569 550 540 652 494ZM519 611 602 581C691 627 810 703 871 755L823 807L806 799H153V726H706C651 683 592 647 519 611ZM72 387H934V460H72ZM875 -80 905 -12C645 42 387 84 141 113L102 49C366 14 622 -27 875 -80ZM540 513 460 534C427 447 373 363 288 272L342 214L367 229H577C526 180 438 118 350 65L416 38C513 96 645 186 715 242L657 305L635 296L411 297C464 363 507 432 540 513Z" transform="translate(0, 880) scale(1,-1)" /></svg>