<svg xmlns="http://www.w3.org/2000/svg" width="1000" height="1000"><path d="M208 -77C259 -77 283 -54 283 9V834H210V12C210 -2 205 -10 193 -10C167 -10 137 -3 101 12V-66C136 -73 170 -77 208 -77ZM35 560 77 494C206 553 327 625 424 698L375 753C280 681 164 615 35 560ZM44 198 100 160 114 180 424 279 410 356 157 273 260 534 208 564ZM327 -17 385 -74C650 142 702 541 698 837H622C621 546 581 186 327 -17ZM901 -75 961 -18C876 126 757 283 639 421L590 361C697 232 817 71 901 -75ZM348 476H938V553H348Z" transform="translate(0, 880) scale(1,-1)" /></svg>