<svg xmlns="http://www.w3.org/2000/svg" width="1000" height="1000"><path d="M206 568 276 603C257 658 221 726 181 784L113 753C150 696 184 623 206 568ZM478 585 555 612C542 674 507 753 471 820L398 795C431 729 464 646 478 585ZM697 582 764 560C806 620 852 704 885 774L806 805C781 736 737 647 697 582ZM182 446H871L870 519H182ZM76 303V229H924V303ZM853 -41 915 3C865 72 808 142 742 211L684 169C749 100 805 29 853 -41ZM532 459 459 486C189 117 160 56 160 6C160 -50 193 -85 279 -85H563C636 -85 665 -30 684 113L609 120C600 14 583 -12 547 -12H313C265 -12 246 -7 246 7C246 33 265 83 532 459ZM265 546 188 564C162 497 115 419 75 370L147 338C189 394 238 478 265 546Z" transform="translate(0, 880) scale(1,-1)" /></svg>