<svg xmlns="http://www.w3.org/2000/svg" width="1000" height="1000"><path d="M659 -95C722 -95 761 -62 761 -2L762 301H690V16C690 -13 680 -29 653 -29C631 -29 596 -24 568 -12V-83C593 -91 627 -95 659 -95ZM484 36H946V105H484ZM523 153H907V222H523ZM577 330 647 339C642 363 634 396 627 420L559 411C565 388 574 352 577 330ZM504 270H930V339H504ZM816 327 882 322C889 348 897 387 902 415L833 422C829 395 822 356 816 327ZM222 -95C282 -95 321 -63 321 -4V300H250V15C250 -14 241 -29 216 -29C196 -29 163 -24 137 -13V-84C160 -91 192 -95 222 -95ZM60 25 471 55 461 125 50 95ZM84 152H448V222H84ZM142 329 211 338C207 361 202 394 197 418L130 411C134 387 140 352 142 329ZM68 269H468V338H68ZM353 326 419 321C423 347 428 386 431 414L364 420C362 393 357 354 353 326ZM439 383C509 383 549 418 549 482L550 743H476L475 496C475 465 465 448 431 448C405 448 364 454 329 466V395C360 387 400 383 439 383ZM152 499H848V568H152ZM208 605H792V675H208ZM308 768 382 779C373 800 358 830 344 852L272 842C285 821 302 788 308 768ZM181 711H825V781H181ZM635 768 704 761C716 784 732 820 742 845L667 854C661 829 647 794 635 768Z" transform="translate(0, 880) scale(1,-1)" /></svg>