<svg xmlns="http://www.w3.org/2000/svg" width="1000" height="1000"><path d="M588 484Q644 614 690 813L623 840Q584 657 521 526ZM137 365Q257 435 356.5 525.0Q456 615 523 710L471 750L455 742H194V668H392Q353 614 272.5 551.0Q192 488 88 432ZM216 69Q297 69 353.0 97.0Q409 125 436.0 168.5Q463 212 463 257Q463 332 416.0 386.0Q369 440 279 492L216 449Q379 355 379 257Q379 227 361.0 200.5Q343 174 306.5 157.0Q270 140 216 140Q148 140 148 181Q148 219 221.5 267.5Q295 316 458 380L409 431Q238 369 150.0 305.5Q62 242 62 181Q62 128 102.5 98.5Q143 69 216 69ZM121 510Q217 641 293 822L222 848Q152 673 48 550ZM761 733Q671 733 594 684L608 616Q673 658 761 658Q806 658 823.5 631.5Q841 605 841 555Q841 475 801.0 384.0Q761 293 709.0 229.0Q657 165 627 165Q608 165 596.0 189.0Q584 213 584 260Q584 299 599.5 326.5Q615 354 642 354Q667 354 693.0 326.5Q719 299 762 237Q798 185 829.0 145.0Q860 105 897 68L945 132Q910 165 880.0 201.5Q850 238 813 289Q776 340 752.5 368.0Q729 396 701.5 414.5Q674 433 642 433Q606 433 576.0 412.0Q546 391 528.0 352.0Q510 313 510 260Q510 208 526.0 169.0Q542 130 569.0 110.0Q596 90 627 90Q673 90 741.5 163.5Q810 237 860.5 345.5Q911 454 911 555Q911 641 870.5 687.0Q830 733 761 733ZM116 28V-52H884V28Z" transform="translate(0, 880) scale(1,-1)" /></svg>