<svg xmlns="http://www.w3.org/2000/svg" width="1000" height="1000"><path d="M110 159H186V544Q261 598 342.5 622.5Q424 647 557 647Q813 647 813 445Q813 342 754.5 288.5Q696 235 594 235Q429 235 296 252V177Q424 162 594 162Q693 162 759.5 199.0Q826 236 858.5 300.0Q891 364 891 445Q891 569 819.0 647.0Q747 725 557 725Q419 725 328.5 693.0Q238 661 186 614V708H110ZM529 840H451V82Q451 23 464.0 -7.5Q477 -38 507.5 -50.0Q538 -62 595 -62H818Q870 -62 898.5 -42.0Q927 -22 941.0 22.0Q955 66 962 147L887 166Q884 100 877.0 69.0Q870 38 856.0 26.5Q842 15 814 15H595Q556 15 542.5 28.0Q529 41 529 80ZM287 403H693V476H287Z" transform="translate(0, 880) scale(1,-1)" /></svg>