<svg xmlns="http://www.w3.org/2000/svg" width="1000" height="1000"><path d="M548 272Q664 351 743 445L670 479L656 472H411Q464 532 506.0 625.0Q548 718 569 834L488 844Q448 589 282 438L337 385L360 407H604Q574 373 536.0 342.5Q498 312 439 272ZM103 -79Q178 -40 253.5 18.0Q329 76 381 134L304 162Q265 114 192.5 59.5Q120 5 45 -33ZM127 196H873V272H127ZM119 459Q163 521 196.5 607.0Q230 693 251 782L174 792Q161 719 126.0 631.5Q91 544 54 495ZM948 -40Q883 19 678 162L613 124Q686 74 762.0 14.5Q838 -45 879 -84ZM171 592H899V667H171Z" transform="translate(0, 880) scale(1,-1)" /></svg>