<svg xmlns="http://www.w3.org/2000/svg" width="1000" height="1000"><path d="M653 177C698 177 729 193 729 243L731 810H654L652 265C652 252 645 246 626 246C592 246 543 251 497 262V188C548 181 601 177 653 177ZM269 174H346V810H269ZM60 384H942V455H60ZM84 604H918V674H84ZM57 -44 126 -79C188 -16 240 74 262 164L187 187C168 100 113 10 57 -44ZM524 -73C565 -73 603 -56 661 -5L607 58C577 22 558 11 534 11C510 11 497 41 464 186L387 168C434 -29 478 -73 524 -73ZM873 -75 951 -43C916 22 850 119 792 189L723 152C785 79 841 -12 873 -75Z" transform="translate(0, 880) scale(1,-1)" /></svg>