<svg xmlns="http://www.w3.org/2000/svg" width="1000" height="1000"><path d="M201 340C421 312 535 356 535 499C535 593 473 653 346 653C249 653 172 599 142 556V495C185 548 260 576 346 576C436 576 462 545 462 499C462 385 377 387 201 409ZM73 321H142V626H73ZM184 648 244 680C229 729 208 789 184 835L125 809C147 761 169 702 184 648ZM424 646C454 702 478 758 498 814L433 841C419 786 395 725 370 672ZM298 -54H403C467 -54 507 -6 510 131L439 140C439 32 422 13 392 13H292C263 13 240 28 240 42C240 95 271 240 362 477L298 502C208 263 169 103 169 19C169 -35 213 -54 298 -54ZM51 209 64 141 499 207 490 269ZM565 -66C778 154 761 576 764 807H690C689 576 712 192 505 -18ZM913 -63 978 -17C909 119 810 275 729 384L684 334C754 229 845 76 913 -63ZM580 531V460H915V531ZM904 588 956 636C933 683 882 751 840 801L790 755C832 705 880 633 904 588Z" transform="translate(0, 880) scale(1,-1)" /></svg>