<svg xmlns="http://www.w3.org/2000/svg" width="1000" height="1000"><path d="M180 -77C231 -77 254 -54 254 9V834H183V12C183 -2 178 -10 167 -10C142 -10 113 -3 79 12V-66C113 -73 145 -77 180 -77ZM32 561 67 493C181 552 288 624 374 697L328 752C246 681 144 615 32 561ZM34 196 88 160 101 181 371 280 359 355 138 272 229 534 179 564ZM426 303 387 237C544 162 738 42 909 -84L958 -10C787 111 587 230 426 303ZM452 421 467 433H922V512H493L577 725L518 763L507 750H395V675H475L387 455ZM341 -13 391 -82C686 85 752 262 752 836H671C671 309 622 131 341 -13Z" transform="translate(0, 880) scale(1,-1)" /></svg>