<svg xmlns="http://www.w3.org/2000/svg" width="1000" height="1000"><path d="M923 -19Q812 30 753.5 110.5Q695 191 668.0 358.0Q641 525 641 837H566Q568 510 597.5 331.0Q627 152 691.5 61.5Q756 -29 877 -87ZM737 277Q763 277 774.5 263.0Q786 249 786 228Q786 173 711.0 106.5Q636 40 527 -8L563 -64Q653 -29 721.5 20.5Q790 70 827.0 124.5Q864 179 864 228Q864 258 850.0 286.0Q836 314 807.0 332.0Q778 350 737 350Q667 350 554.0 296.5Q441 243 320.5 163.5Q200 84 102 5L152 -58Q237 16 352.0 94.5Q467 173 572.5 225.0Q678 277 737 277ZM127 605H770V679H127ZM935 607Q916 669 894.0 718.5Q872 768 843 813L783 778Q836 697 866 580ZM126 450Q151 519 171.5 612.5Q192 706 203 794L127 802Q117 714 97.0 625.5Q77 537 52 473ZM171 516V442H498V516ZM122 359V285H507V359ZM284 479V112H362V479Z" transform="translate(0, 880) scale(1,-1)" /></svg>