<svg xmlns="http://www.w3.org/2000/svg" width="1000" height="1000"><path d="M201 340Q267 332 314 332Q425 332 480.0 372.5Q535 413 535 499Q535 571 487.0 612.0Q439 653 346 653Q279 653 223.5 623.0Q168 593 142 556V495Q174 534 227.5 555.0Q281 576 346 576Q410 576 436.0 556.0Q462 536 462 499Q462 442 433.0 419.5Q404 397 340 397Q295 397 201 409ZM73 321H142V626H73ZM244 680Q214 777 184 835L125 809Q161 730 184 648ZM424 646Q466 724 498 814L433 841Q413 764 370 672ZM403 -54Q453 -54 480.5 -11.0Q508 32 510 131L439 140Q439 88 433.5 60.5Q428 33 418.0 23.0Q408 13 392 13H292Q271 13 255.5 22.0Q240 31 240 42Q240 89 270.0 201.5Q300 314 362 477L298 502Q233 329 201.0 207.0Q169 85 169 19Q169 -20 200.5 -37.0Q232 -54 298 -54ZM51 209 64 141 499 207 490 269ZM565 -66Q655 27 698.0 165.5Q741 304 752.0 437.0Q763 570 764 745V807H690V682Q690 536 678.5 416.0Q667 296 626.0 179.5Q585 63 505 -18ZM978 -17Q928 82 860.0 190.5Q792 299 729 384L684 334Q740 249 802.5 142.5Q865 36 913 -63ZM580 531V460H915V531ZM956 636Q940 669 907.5 714.0Q875 759 840 801L790 755Q820 719 852.5 671.0Q885 623 904 588Z" transform="translate(0, 880) scale(1,-1)" /></svg>