<svg xmlns="http://www.w3.org/2000/svg" width="1000" height="1000"><path d="M957 -7Q874 14 806.5 45.5Q739 77 644 129Q569 171 519.5 194.5Q470 218 412.5 234.0Q355 250 293 250Q217 250 163.5 227.0Q110 204 83.0 166.5Q56 129 56 86Q56 20 105.5 -24.0Q155 -68 250 -68Q352 -68 434.5 0.0Q517 68 581.0 171.0Q645 274 738 454L789 551L713 579Q618 383 548.5 264.0Q479 145 404.5 74.0Q330 3 249 3Q199 3 167.5 26.5Q136 50 136 86Q136 126 178.0 151.0Q220 176 291 176Q342 176 390.5 162.5Q439 149 482.5 127.5Q526 106 595 68Q679 20 750.5 -14.0Q822 -48 910 -77ZM624 -69Q699 -3 765.5 72.0Q832 147 875 218L806 259Q766 187 702.0 109.5Q638 32 568 -29ZM56 324H950V391H56ZM147 476H598V541H147ZM380 709Q368 739 343.5 778.0Q319 817 292 849L226 818Q279 753 310 676ZM98 623H903V690H98ZM670 665Q695 697 722.5 740.5Q750 784 773 823L695 849Q680 815 655.5 772.0Q631 729 608 696Z" transform="translate(0, 880) scale(1,-1)" /></svg>