<svg xmlns="http://www.w3.org/2000/svg" width="1000" height="1000"><path d="M123 497H196V640C295 706 408 748 579 748C751 748 804 712 804 663C804 572 595 563 300 592V514C630 491 883 504 883 663C883 750 819 820 579 820C392 820 269 774 196 705V790H123ZM277 376 341 339C456 439 530 546 562 661L487 668C457 564 387 466 277 376ZM204 -62H585C648 -62 685 -32 685 29C685 64 674 95 641 143L569 114C596 73 602 49 602 32C602 18 589 12 565 12H214C182 12 167 18 167 34C167 59 180 92 317 228L253 275C102 118 84 72 84 23C84 -23 115 -62 204 -62ZM816 34 895 24C911 76 919 112 919 161C919 236 852 278 728 278C618 278 524 264 424 242L451 172C549 193 631 204 714 204C798 204 838 184 838 149C838 117 830 83 816 34ZM101 326H839V403H101Z" transform="translate(0, 880) scale(1,-1)" /></svg>