<svg xmlns="http://www.w3.org/2000/svg" width="1000" height="1000"><path d="M212 554 282 590C265 649 220 731 180 793L112 761C149 702 190 613 212 554ZM478 584 555 611C542 676 507 760 471 831L398 806C431 736 464 648 478 584ZM697 578 765 556C807 620 853 710 886 784L806 815C781 741 737 648 697 578ZM63 -55H937V24H541V454H890V533H110V454H459V24H63ZM314 86 386 139C347 210 268 316 194 394L128 347C200 270 278 159 314 86ZM610 132 672 86C734 154 816 264 877 356L804 404C757 316 675 204 610 132Z" transform="translate(0, 880) scale(1,-1)" /></svg>