<svg xmlns="http://www.w3.org/2000/svg" width="1000" height="1000"><path d="M273 -82C521 -82 653 136 763 420L685 446C602 211 471 -3 273 -3C200 -3 146 57 146 141C146 242 200 299 309 299C488 299 624 38 914 -80L954 -7C653 111 545 378 309 378C170 378 66 301 66 141C66 12 146 -82 273 -82ZM0.0 0.0Q0 0 0.0 0.0Q0 0 0.0 0.0ZM68 504 108 435C368 497 622 596 833 797L761 840C558 639 324 563 68 504ZM832 425 886 492C680 619 368 740 157 797L111 736C327 675 632 555 832 425Z" transform="translate(0, 880) scale(1,-1)" /></svg>