<svg xmlns="http://www.w3.org/2000/svg" width="1000" height="1000"><path d="M519 460H633C705 486 748 526 748 563C748 625 664 661 517 661C347 661 252 635 252 574C252 525 321 495 437 495C515 495 553 520 553 556V841H474V570C474 553 448 545 418 545C385 545 337 560 337 574C337 594 379 608 517 608C611 608 663 586 663 563C663 536 641 503 519 460ZM78 395H930V460H78ZM95 699H912V760H95ZM946 -52 974 21C743 65 515 100 282 125L266 57C498 33 730 -7 946 -52ZM59 -16 128 -62C258 4 353 90 391 172L310 198C264 113 191 45 59 -16ZM445 -81C518 -81 556 -47 556 20V320H477V35C477 3 467 -14 432 -14C388 -14 350 -6 305 11V-66C349 -77 399 -81 445 -81ZM82 153H918V225H82ZM136 347 163 277C390 279 661 289 846 307L799 375C612 357 370 348 136 347Z" transform="translate(0, 880) scale(1,-1)" /></svg>