<svg xmlns="http://www.w3.org/2000/svg" width="1000" height="1000"><path d="M829 406Q850 439 864.0 500.5Q878 562 878 604Q878 685 840.0 720.5Q802 756 710 756Q612 756 507.0 741.0Q402 726 346 704L376 643Q432 665 524.5 677.0Q617 689 709 689Q751 689 770.5 680.5Q790 672 795.5 655.0Q801 638 801 604Q801 566 787.5 507.0Q774 448 755 419ZM154 429H229V836H154ZM651 401Q699 434 699 474Q699 520 657.0 546.5Q615 573 513 573Q401 573 347.0 553.5Q293 534 293 501Q293 470 336.5 451.0Q380 432 441 432Q504 432 539.5 450.5Q575 469 575 503Q575 552 545 584L661 637L633 669L607 662H320V603L490 604L461 587Q479 566 489.5 543.0Q500 520 500 505Q500 487 450 487Q419 487 397.5 491.0Q376 495 376 501Q376 509 406.0 515.0Q436 521 492 521Q572 521 599.5 508.0Q627 495 627 474Q627 438 584 408ZM229 745H516V811H229ZM623 -42H698L699 332H624ZM298 -42H374V332H298ZM107 56H893V129H107ZM128 190H872V262H128ZM882 258Q900 279 908.5 299.0Q917 319 917 343Q917 395 842.0 416.5Q767 438 617 438Q475 438 358.0 416.5Q241 395 160 356V414H86V270H160V307Q235 342 359.0 358.5Q483 375 617 375Q733 375 786.5 365.0Q840 355 840 342Q840 308 813 277ZM62 -3V-73H938V-3Z" transform="translate(0, 880) scale(1,-1)" /></svg>