<svg xmlns="http://www.w3.org/2000/svg" width="1000" height="1000"><path d="M228 22H305V273Q305 359 325.0 443.5Q345 528 374.0 603.5Q403 679 454 796L466 823L385 841Q334 720 302.0 632.5Q270 545 249.0 450.5Q228 356 228 264ZM54 -46H947V22H54ZM629 22Q700 66 739.5 109.0Q779 152 779 201Q779 260 734.0 285.5Q689 311 596 311Q558 311 498 306V237L570 239Q638 239 668.0 229.5Q698 220 698 201Q698 157 654.5 114.5Q611 72 530 22ZM658 260Q709 302 732.5 333.5Q756 365 756 401Q756 464 708.0 493.0Q660 522 565 522Q492 522 430.0 508.0Q368 494 304 467V404Q364 427 427.0 437.0Q490 447 568 447Q631 447 653.5 435.0Q676 423 676 402Q676 373 660.0 345.0Q644 317 607 287ZM75 646H925V713H75Z" transform="translate(0, 880) scale(1,-1)" /></svg>