<svg xmlns="http://www.w3.org/2000/svg" width="1000" height="1000"><path d="M946 310 974 384C743 440 515 484 282 515L266 446C498 417 730 367 946 310ZM60 342 127 294C257 377 352 484 390 587L311 608C265 503 192 419 60 342ZM445 267C518 267 556 301 556 370V766H477V385C477 352 467 335 432 335C388 335 350 343 305 360V282C349 271 399 267 445 267ZM82 570H918V642H82ZM136 792 163 722C390 724 661 736 846 758L799 826C612 804 370 793 136 792ZM60 -17 118 -78C314 -21 336 59 336 128V168H644V58C644 -41 669 -70 739 -70H836C921 -70 939 -33 945 96L870 106C866 10 857 5 832 5H758C736 5 727 15 727 56V246H256V131C256 82 241 27 60 -17Z" transform="translate(0, 880) scale(1,-1)" /></svg>