<svg xmlns="http://www.w3.org/2000/svg" width="1000" height="1000"><path d="M340 296C451 296 545 384 545 488C545 566 519 647 385 733L323 706C446 619 470 542 470 496C470 418 406 362 339 363C285 364 250 393 250 422C250 514 565 575 667 568V394H588V327L835 324V394H746V627L684 648L670 637C555 638 175 591 175 425C175 349 234 296 340 296ZM200 720 235 656C393 687 550 732 704 789L638 846C518 800 345 748 200 720ZM735 86 755 23C870 40 929 99 929 155C929 230 826 281 612 281C424 281 235 256 99 226L116 153C251 182 444 206 612 206C777 206 843 183 843 155C843 127 799 99 735 86ZM311 144V71H664V144ZM133 4V-71H867V4ZM50 401 118 388C147 458 159 535 167 601L101 608C92 543 73 464 50 401ZM876 384 950 394C930 469 908 553 889 613L819 599C840 542 858 465 876 384Z" transform="translate(0, 880) scale(1,-1)" /></svg>