<svg xmlns="http://www.w3.org/2000/svg" width="1000" height="1000"><path d="M439 272H548C620 321 685 376 743 445L670 479L656 472H411C476 546 540 670 569 834L488 844C459 657 380 527 282 438L337 385L360 407H604C563 361 517 324 439 272ZM45 -33 103 -79C204 -26 312 58 381 134L304 162C251 96 143 17 45 -33ZM127 196H873V272H127ZM54 495 119 459C182 548 226 675 251 782L174 792C157 695 103 561 54 495ZM879 -84 948 -40C888 14 768 99 678 162L613 124C706 60 823 -30 879 -84ZM171 592H899V667H171Z" transform="translate(0, 880) scale(1,-1)" /></svg>