<svg xmlns="http://www.w3.org/2000/svg" width="1000" height="1000"><path d="M354 467V389C829 352 875 475 875 579C875 685 783 756 624 756C482 756 396 722 299 650C328 706 355 768 374 836L290 853C246 706 163 564 68 471L136 422C188 479 219 521 245 562C362 643 505 681 616 681C729 681 786 628 786 579C786 502 732 427 354 467ZM452 -78C504 -78 558 -47 558 9V576H479V27C479 9 464 -5 439 -5C386 -6 331 2 277 18V-63C334 -75 381 -78 452 -78ZM939 196 959 274C738 298 444 299 55 273V200C439 224 734 218 939 196Z" transform="translate(0, 880) scale(1,-1)" /></svg>