<svg xmlns="http://www.w3.org/2000/svg" width="1000" height="1000"><path d="M943 796H131V470C131 325 123 122 35 -23L99 -60C192 92 205 317 205 470V723H943ZM438 78 503 49C578 113 678 206 735 270L675 329L657 317H532C597 417 620 505 640 696L561 700C546 517 512 414 424 291L476 240L500 250H606C564 196 504 133 438 78ZM881 -67 913 6C686 60 484 99 283 127L244 56C462 23 673 -16 881 -67ZM226 335 297 303C349 366 382 471 403 556L332 576C313 493 278 396 226 335ZM733 331 796 306C836 369 885 467 921 549L844 576C819 500 771 396 733 331Z" transform="translate(0, 880) scale(1,-1)" /></svg>