<svg xmlns="http://www.w3.org/2000/svg" width="1000" height="1000"><path d="M117 -26Q270 60 437.5 167.5Q605 275 699 346L658 399L630 391H224V321H556Q462 258 333.5 183.0Q205 108 67 38ZM511 -65Q553 -65 591.0 -57.0Q629 -49 674 -31V48Q626 26 591.0 15.5Q556 5 525 5Q506 5 498.5 11.0Q491 17 491 37V205H412V20Q412 -25 436.0 -45.0Q460 -65 511 -65ZM955 33Q771 148 626 216L579 162Q658 122 743.5 71.5Q829 21 902 -29ZM98 463H902V533H98ZM685 589Q593 624 514.5 645.5Q436 667 343 680L318 620Q415 603 491.5 582.0Q568 561 646 531ZM595 606Q657 638 729.5 682.5Q802 727 847 760L800 807L783 802H170V735H686Q616 684 513 633Z" transform="translate(0, 880) scale(1,-1)" /></svg>