<svg xmlns="http://www.w3.org/2000/svg" width="1000" height="1000"><path d="M124 530 158 536 803 562 795 628 291 609Q370 653 437.5 701.0Q505 749 568 810L484 829Q386 728 170 607Q145 593 102 585ZM895 554Q822 632 717 703L657 664Q738 608 829 513ZM150 218Q195 277 233.0 355.0Q271 433 291 503L218 517Q197 447 160.0 374.5Q123 302 82 250ZM186 342H864L863 415H186ZM465 -79Q510 -79 534.5 -55.0Q559 -31 559 11V534H480V24Q480 10 471.0 1.0Q462 -8 446 -8Q366 -8 285 21V-59Q368 -79 465 -79ZM959 181Q796 202 578 202Q359 202 55 179V111Q299 128 517 128Q756 128 939 107Z" transform="translate(0, 880) scale(1,-1)" /></svg>