<svg xmlns="http://www.w3.org/2000/svg" width="1000" height="1000"><path d="M232 -36Q282 -36 326.5 -3.0Q371 30 400.5 89.5Q430 149 437 224Q440 253 440 284Q440 411 392.5 520.5Q345 630 239 679L181 622Q282 573 322.5 480.5Q363 388 363 277Q363 251 362 239Q359 178 340.0 132.5Q321 87 292.5 63.0Q264 39 232 39Q189 39 170.0 63.0Q151 87 151 143Q151 199 186.0 263.5Q221 328 279 370Q371 436 504.5 478.5Q638 521 811 521V588Q621 588 474.0 544.0Q327 500 236 432Q164 378 119.5 298.5Q75 219 75 143Q75 58 115.5 11.0Q156 -36 232 -36ZM437 -47H947V23H437ZM109 551Q200 585 303.5 646.5Q407 708 486 775L427 825Q352 763 248.5 700.0Q145 637 68 610ZM664 -20Q747 62 801.5 138.5Q856 215 882 291L826 319L811 306H655Q685 376 703.5 461.0Q722 546 722 681V832H649V681Q649 445 585 316Q579 300 558 293L577 238H779Q762 198 715.0 133.0Q668 68 608 10ZM962 481Q956 539 944.0 600.0Q932 661 918 709L847 691Q862 646 872.0 588.0Q882 530 886 472Z" transform="translate(0, 880) scale(1,-1)" /></svg>