<svg xmlns="http://www.w3.org/2000/svg" width="1000" height="1000"><path d="M623 -75Q711 -75 755.5 -12.5Q800 50 812.5 142.5Q825 235 825 366Q825 434 806.5 481.0Q788 528 739.5 555.0Q691 582 604 582Q530 582 454.0 573.5Q378 565 284 547L287 473Q384 491 455.5 498.0Q527 505 603 505Q683 505 715.0 465.5Q747 426 747 366Q747 228 718.0 115.5Q689 3 613 3Q516 3 444 27V-59Q487 -69 524.5 -72.0Q562 -75 623 -75ZM185 -72Q253 74 278.0 217.5Q303 361 309 580H230Q226 429 215.5 335.5Q205 242 179.5 157.0Q154 72 104 -27ZM664 242 667 315 353 324 348 250ZM491 526Q771 645 937 733L877 796L860 786H84V713H742Q649 659 449 566Z" transform="translate(0, 880) scale(1,-1)" /></svg>