<svg xmlns="http://www.w3.org/2000/svg" width="1000" height="1000"><path d="M124 293Q211 365 327.5 424.0Q444 483 531 483Q560 483 575.0 471.5Q590 460 590 440Q590 414 570.5 396.0Q551 378 523 378Q499 378 485.5 390.5Q472 403 472 423Q472 471 550.0 503.5Q628 536 772 563V376H700V307H938V376H846V636L785 653L769 636Q597 604 497.5 550.0Q398 496 398 423Q398 376 431.0 345.0Q464 314 523 314Q589 314 626.5 349.5Q664 385 664 438Q664 496 630.5 524.0Q597 552 531 552Q458 552 372.0 519.5Q286 487 208.0 439.0Q130 391 75 343ZM81 677H917V749H81ZM498 708 572 740 495 839 420 809ZM556 302Q434 302 329.5 287.0Q225 272 116 244L145 182Q244 210 342.5 224.0Q441 238 556 238Q653 238 702.5 225.0Q752 212 752 188Q752 150 655.0 105.5Q558 61 435.0 28.5Q312 -4 256 -4Q213 -4 191.5 9.0Q170 22 170 43Q170 93 278 93Q340 93 420.5 69.0Q501 45 646 -7Q793 -61 893 -93L947 -33Q866 -9 712 46Q551 103 453.0 131.0Q355 159 278 159Q183 159 134.5 128.5Q86 98 86 43Q86 -7 126.5 -39.5Q167 -72 256 -72Q345 -72 488.5 -31.0Q632 10 739.0 70.5Q846 131 846 188Q846 240 769.5 271.0Q693 302 556 302ZM87 598V531H350V598ZM211 653V430H284V653Z" transform="translate(0, 880) scale(1,-1)" /></svg>