<svg xmlns="http://www.w3.org/2000/svg" width="1000" height="1000"><path d="M817 519 890 495C919 531 929 568 929 611C929 694 815 728 617 728C426 728 263 685 156 619V712H79V502H156V566C263 626 453 650 617 650C795 650 848 626 848 605C848 575 843 550 817 519ZM498 682 574 700C559 744 531 794 503 834L431 815C456 777 485 723 498 682ZM193 417 254 376C318 434 380 503 418 568L347 598C316 539 255 467 193 417ZM737 376 806 412C765 474 700 549 645 604L581 566C636 511 699 440 737 376ZM52 -6 101 -74C496 50 547 281 545 478H463C463 288 431 107 52 -6ZM886 -81 945 -17C816 86 656 195 506 282L463 218C606 131 767 21 886 -81ZM70 262H822V337H70ZM883 245 952 268C936 325 918 381 896 436L830 413C852 360 868 302 883 245ZM532 12 584 -48C699 18 807 97 894 178L841 228C755 147 648 73 532 12Z" transform="translate(0, 880) scale(1,-1)" /></svg>