<svg xmlns="http://www.w3.org/2000/svg" width="1000" height="1000"><path d="M698 -64Q794 -64 842.5 -22.5Q891 19 908.5 112.5Q926 206 926 382Q926 506 902.5 583.0Q879 660 828.0 696.5Q777 733 694 733Q613 733 541.5 715.0Q470 697 431 671L459 592Q494 618 558.0 635.5Q622 653 694 653Q758 653 791.0 623.5Q824 594 835.0 537.0Q846 480 846 382Q846 242 833.5 164.0Q821 86 789.0 50.0Q757 14 695 14Q633 14 572 30V-54Q635 -64 698 -64ZM196 -62Q263 -62 309.0 -14.0Q355 34 377.0 107.0Q399 180 399 256Q399 352 348.5 431.0Q298 510 196 549L171 487Q251 453 288.0 390.0Q325 327 325 256Q325 200 311.0 145.0Q297 90 267.5 54.0Q238 18 196 18Q169 18 153.0 38.0Q137 58 137 101Q137 156 166.5 206.5Q196 257 254.5 309.0Q313 361 411 431L367 485Q219 384 139.0 291.0Q59 198 59 101Q59 17 96.0 -22.5Q133 -62 196 -62ZM254 498Q300 555 347.0 624.0Q394 693 420 745L370 782L355 774H75V699H311Q267 610 205 522ZM751 247Q719 296 664.5 357.0Q610 418 556 461L505 415Q557 370 610.5 307.5Q664 245 695 196Z" transform="translate(0, 880) scale(1,-1)" /></svg>