<svg xmlns="http://www.w3.org/2000/svg" width="1000" height="1000"><path d="M133 483H206V637C305 706 418 749 589 749C761 749 814 708 814 650C814 550 605 544 310 574V501C640 477 893 486 893 650C893 744 829 817 589 817C402 817 279 769 206 698V785H133ZM442 -8 459 -79C765 -82 918 -45 918 52C918 110 858 159 705 151L825 244L782 298C372 299 53 239 53 116C53 50 99 14 193 14C278 14 344 50 406 98C494 164 665 315 773 419L706 454L687 444H322V375H612C553 317 402 189 326 132C300 112 245 83 198 83C161 83 133 95 133 116C133 162 409 236 713 236C681 206 640 174 585 139L634 83C766 95 836 80 836 52C836 12 674 -15 442 -8ZM81 294 139 240C326 349 464 469 581 628L497 659C402 506 248 384 81 294Z" transform="translate(0, 880) scale(1,-1)" /></svg>