<svg xmlns="http://www.w3.org/2000/svg" width="1000" height="1000"><path d="M755 419 829 406C859 453 878 553 878 604C878 710 835 756 710 756C579 756 420 733 346 704L376 643C455 674 594 689 709 689C795 689 801 664 801 604C801 558 782 461 755 419ZM154 429H229V836H154ZM584 408 651 401C679 420 699 445 699 474C699 530 658 573 513 573C358 573 293 543 293 501C293 458 363 432 441 432C524 432 575 457 575 503C575 535 564 564 545 584L661 637L633 669L607 662H320V603L490 604L461 587C486 558 500 523 500 505C500 493 483 487 450 487C411 487 376 492 376 501C376 512 420 523 513 521C612 519 627 496 627 474C627 453 614 429 584 408ZM229 745H516V811H229ZM623 -42H698L699 332H624ZM298 -42H374V332H298ZM107 56H893V129H107ZM128 190H872V262H128ZM813 277 882 258C906 285 917 310 917 343C917 416 805 438 617 438C426 438 267 408 160 356V414H86V270H160V307C267 356 453 375 617 375C788 375 840 356 840 342C840 321 834 301 813 277ZM62 -3V-73H938V-3Z" transform="translate(0, 880) scale(1,-1)" /></svg>