<svg xmlns="http://www.w3.org/2000/svg" width="1000" height="1000"><path d="M354 380Q435 373 510 373Q664 373 744.5 402.0Q825 431 850.0 474.0Q875 517 875 573Q875 655 808.5 704.5Q742 754 624 754Q521 754 448.0 728.5Q375 703 298 645Q348 740 374 836L290 853Q257 741 198.0 637.5Q139 534 68 463L136 414Q201 486 245 556Q329 616 428.5 647.0Q528 678 616 678Q670 678 708.5 662.5Q747 647 766.5 623.0Q786 599 786 573Q786 515 734.5 481.0Q683 447 536 447Q453 447 354 458ZM134 21Q241 157 317 335L245 361Q185 212 74 62ZM446 -77Q495 -77 527.5 -44.5Q560 -12 560 46V570H479V60Q479 -4 433 -4Q380 -4 323 17V-65Q383 -77 446 -77ZM946 79Q874 205 767 349L705 309Q809 166 883 30Z" transform="translate(0, 880) scale(1,-1)" /></svg>