<svg xmlns="http://www.w3.org/2000/svg" width="1000" height="1000"><path d="M670 -76C845 -65 917 -4 917 129C917 247 816 308 520 308C202 308 85 217 85 117C85 9 195 -58 353 -58C469 -58 574 5 574 135V577H497V144C497 53 432 17 353 17C244 17 163 57 163 117C163 162 259 236 520 236C745 236 837 199 837 129C837 49 799 3 642 -6ZM121 495C186 591 237 709 278 834L202 852C162 727 114 620 53 540ZM239 383 265 394H827L828 467H312C348 525 380 590 418 655H329C313 608 277 530 252 489C239 468 224 460 211 457ZM188 655H929V729H188Z" transform="translate(0, 880) scale(1,-1)" /></svg>