<svg xmlns="http://www.w3.org/2000/svg" width="1000" height="1000"><path d="M663 -68C862 -68 921 109 921 258C921 416 816 545 553 545C264 545 71 323 71 129C71 3 144 -36 209 -36C405 -36 557 320 750 764L690 797L675 784H193V711H641C509 389 355 39 209 39C171 39 144 67 144 122C144 279 312 473 553 473C755 473 842 372 842 258C842 121 815 -3 656 -3C602 -3 562 29 562 70C562 106 596 140 638 140C691 140 727 81 760 5L813 52C772 128 721 201 637 201C560 201 495 140 495 68C495 -12 534 -68 663 -68Z" transform="translate(0, 880) scale(1,-1)" /></svg>