<svg xmlns="http://www.w3.org/2000/svg" width="1000" height="1000"><path d="M580 185C785 185 926 247 926 392C926 536 694 571 307 525L321 455C634 494 843 465 843 385C843 298 737 257 580 257C469 257 337 264 179 289V213C332 191 464 185 580 185ZM447 -79C517 -78 549 -58 549 16V380H472V29C472 10 460 -4 438 -5C395 -7 336 -1 274 20V-62C322 -75 384 -80 447 -79ZM95 531 141 471C294 591 383 691 454 822L370 839C320 743 227 626 95 531ZM471 537 535 510C626 596 698 672 758 744L699 792L672 779H359V707H632C599 667 545 608 471 537Z" transform="translate(0, 880) scale(1,-1)" /></svg>