<svg xmlns="http://www.w3.org/2000/svg" width="1000" height="1000"><path d="M79 658V580H921V658ZM315 644 378 687C351 726 295 785 242 827L184 789C234 745 289 686 315 644ZM611 684 671 644C718 682 778 742 823 794L754 833C720 785 659 722 611 684ZM86 310 151 279C204 366 251 488 275 586L205 598C180 497 135 385 86 310ZM192 417H883L882 489H192ZM232 54V172H153V39C153 -46 201 -63 353 -63H758C887 -63 925 -18 947 119L860 131C848 34 832 8 760 8H353C252 8 232 15 232 54ZM705 100C795 100 841 158 858 313L796 323L776 317H190V243H770C760 190 724 173 677 173C577 173 508 177 430 182V107C512 102 595 100 705 100Z" transform="translate(0, 880) scale(1,-1)" /></svg>