<svg xmlns="http://www.w3.org/2000/svg" width="1000" height="1000"><path d="M573 424 650 410C662 432 668 455 668 478C668 538 616 597 503 597C385 597 343 541 343 488C343 433 408 383 546 383C758 383 879 463 879 608C879 718 810 801 595 801C392 801 278 758 185 709L223 649C317 694 439 730 595 730C741 730 791 674 791 608C791 507 712 444 546 444C462 444 426 460 426 488C426 514 449 537 503 537C553 537 584 516 584 478C584 458 580 441 573 424ZM163 783V411H245V783ZM160 67C160 109 188 186 392 186H899V263H389C150 263 86 163 86 67C86 -10 137 -75 230 -75C345 -75 420 35 420 375H343C343 77 295 4 230 4C187 4 160 34 160 67ZM591 371V-83H667V371Z" transform="translate(0, 880) scale(1,-1)" /></svg>