<svg xmlns="http://www.w3.org/2000/svg" width="1000" height="1000"><path d="M69 724H930V797H69ZM810 432 885 402C909 445 920 484 920 535C920 630 805 664 617 664C426 664 270 617 163 536V645H83V421H163V479C270 555 453 585 617 585C785 585 837 555 837 534C837 500 831 469 810 432ZM353 422 430 455C408 540 359 665 316 756L243 729C287 639 333 509 353 422ZM544 448 614 422C651 502 702 631 737 739L659 767C632 665 582 533 544 448ZM349 402 322 334C433 318 549 300 644 278L678 351C580 369 464 388 349 402ZM467 -73C541 -73 594 -23 594 68C594 143 561 199 498 250L433 211C487 162 513 118 513 68C513 20 486 -6 458 -6C433 -6 379 1 323 15V-59C371 -69 419 -73 467 -73ZM59 52 121 6C184 59 248 140 286 208L206 238C176 176 120 102 59 52ZM877 2 955 38C921 94 852 177 776 243L704 204C778 137 846 57 877 2Z" transform="translate(0, 880) scale(1,-1)" /></svg>