<svg xmlns="http://www.w3.org/2000/svg" width="1000" height="1000"><path d="M460 428H540V839H460ZM288 654 351 701C329 732 272 783 219 819L160 771C212 734 267 684 288 654ZM112 614H888V688H112ZM652 700 705 655C747 687 800 734 841 776L775 823C746 785 694 731 652 700ZM197 239H803V311H197ZM117 114H883V186H117ZM540 267V402H460V267C460 140 434 49 55 -19L100 -85C495 -10 540 123 540 267ZM886 -92 941 -35C827 17 693 69 574 109L532 52C651 11 783 -41 886 -92ZM811 277 884 254C908 287 919 315 919 353C919 438 805 465 607 465C426 465 269 429 162 369V436H84V269H162V312C269 369 453 392 607 392C786 392 838 373 838 353C838 327 832 304 811 277ZM102 489H898V562H102Z" transform="translate(0, 880) scale(1,-1)" /></svg>