<svg xmlns="http://www.w3.org/2000/svg" width="1000" height="1000"><path d="M133 508H206V652C305 716 418 756 589 756C761 756 814 718 814 665C814 573 605 568 310 596V525C640 503 893 511 893 665C893 754 829 822 589 822C402 822 279 777 206 710V793H133ZM46 377 80 313C309 381 507 427 572 658L497 674C447 491 263 431 46 377ZM136 41C136 181 486 382 665 382C819 382 864 329 864 199C864 56 792 -2 699 -2C623 -2 551 2 475 11V-62C551 -69 623 -72 699 -72C862 -72 941 24 941 199C941 361 888 453 665 453C457 453 56 227 56 41C56 -34 106 -77 193 -77C338 -77 398 36 398 129C398 262 324 347 224 426L165 377C261 301 318 219 318 129C318 66 279 -5 193 -5C155 -5 136 9 136 41ZM418 78 474 30C605 115 749 244 799 307L737 350C688 286 555 159 418 78ZM712 68 765 125C695 182 592 251 521 291L474 241C551 195 648 123 712 68Z" transform="translate(0, 880) scale(1,-1)" /></svg>