<svg xmlns="http://www.w3.org/2000/svg" width="1000" height="1000"><path d="M735 97 754 33C874 46 928 99 928 150C928 225 820 268 615 268C423 268 234 243 99 216L116 143C251 169 443 192 615 192C773 192 842 175 842 150C842 128 802 109 735 97ZM311 139V67H664V139ZM133 12V-62H867V12ZM486 308C717 308 897 381 897 483C897 568 800 638 587 638C547 638 508 637 466 631C555 662 663 699 805 753L751 814L728 809H151V741H609C526 705 402 657 286 620C262 612 231 605 197 597L236 538C324 564 447 577 550 577C728 577 811 543 811 483C811 395 631 370 473 370C387 370 331 386 331 409C331 427 367 443 415 443C494 443 547 422 560 354L636 363C616 449 544 494 416 494C316 494 248 451 248 405C248 350 338 308 486 308Z" transform="translate(0, 880) scale(1,-1)" /></svg>