<svg xmlns="http://www.w3.org/2000/svg" width="1000" height="1000"><path d="M227 16Q266 78 312.0 160.5Q358 243 389 306L321 350L311 336H244Q277 426 293.0 526.5Q309 627 319 805L246 811Q238 640 216.5 527.0Q195 414 150 302L212 256L228 267H286Q233 150 166 47ZM464 85 437 161 81 32 105 -45ZM93 353Q134 435 164 633L94 648Q70 469 25 381ZM425 356Q443 403 471 493Q482 526 493.0 559.5Q504 593 515 624L435 648Q422 586 400.5 509.0Q379 432 360 377ZM640 104Q756 160 811.5 193.0Q867 226 892.5 258.0Q918 290 918 333Q918 391 853.5 433.0Q789 475 647 503Q749 553 823.0 610.5Q897 668 961 753L896 794L883 780H502V705H818Q754 640 682.0 593.5Q610 547 514 511L523 449Q693 421 764.5 390.5Q836 360 836 333Q836 303 782.5 266.0Q729 229 590 166ZM953 -29Q883 20 753.0 89.5Q623 159 509 208L479 144Q589 95 713.0 27.0Q837 -41 904 -91Z" transform="translate(0, 880) scale(1,-1)" /></svg>