<svg xmlns="http://www.w3.org/2000/svg" width="1000" height="1000"><path d="M532 750H211V470C211 325 203 122 115 -23L183 -60C276 92 289 317 289 470V675H943V750H621L575 845L496 827ZM230 291 147 256V592H74V274C74 240 56 221 44 213L72 146L257 224ZM499 294 556 243C644 273 732 340 732 409C732 457 690 497 587 497C482 497 445 460 445 416C445 366 502 330 625 330C810 330 918 371 918 475C918 570 833 619 633 619C459 619 321 584 239 546L280 488C362 522 500 550 633 550C769 550 836 522 836 475C836 414 764 396 625 396C551 396 520 403 520 416C520 427 547 434 587 434C627 434 656 425 656 409C656 373 592 329 499 294ZM298 -61H897V11H298ZM426 88H729V158H426ZM297 257 310 187C432 219 570 240 703 240C787 240 848 220 848 180C848 150 824 130 783 116L834 65C895 88 934 123 934 181C934 270 843 311 703 311C564 311 422 292 297 257Z" transform="translate(0, 880) scale(1,-1)" /></svg>