<svg xmlns="http://www.w3.org/2000/svg" width="1000" height="1000"><path d="M112 -50H190L191 478C270 495 337 502 444 502H732C782 502 810 478 810 438V42C810 23 800 15 786 15C756 15 716 20 666 36V-42C711 -53 752 -59 787 -59C857 -59 888 -39 888 36V442C888 523 841 577 737 577H442C333 577 268 565 187 541V570H112ZM460 -20H540V167H718V238H540V326H718V397H540V839H460V397H282V326H460V238H282V167H460ZM101 723 117 645C377 651 684 678 894 712L861 784C675 753 364 726 101 723Z" transform="translate(0, 880) scale(1,-1)" /></svg>