<svg xmlns="http://www.w3.org/2000/svg" width="1000" height="1000"><path d="M90 -62Q154 15 183.5 88.0Q213 161 220.0 233.5Q227 306 227 427V698Q271 712 314.0 717.0Q357 722 421 722H738Q774 722 793.5 705.0Q813 688 813 658V42Q813 28 806.5 21.5Q800 15 790 15Q737 15 674 36V-42Q740 -59 791 -59Q843 -59 865.0 -39.0Q887 -19 887 36V662Q887 725 851.0 761.0Q815 797 742 797H419Q358 797 314.5 789.0Q271 781 224 761V790H153V427Q153 322 145.0 249.5Q137 177 111.0 110.5Q85 44 32 -16ZM335 486H705V557H335ZM558 749H482L484 112Q484 98 480.5 92.5Q477 87 466 87Q412 87 351 107V27Q419 12 472 12Q523 12 540.5 31.5Q558 51 558 100ZM335 277H705V348H335Z" transform="translate(0, 880) scale(1,-1)" /></svg>