<svg xmlns="http://www.w3.org/2000/svg" width="1000" height="1000"><path d="M673 -89Q922 -40 922 111Q922 181 867.5 221.0Q813 261 720 261Q626 261 549.0 246.0Q472 231 382 192Q502 282 666 415L594 464L576 445H366Q423 524 458.0 618.0Q493 712 513 833L434 845Q411 702 365.5 592.0Q320 482 242 407L294 351L323 378H513Q422 291 345.5 225.5Q269 160 236 140Q135 78 62 22L134 -35Q263 86 415.5 137.0Q568 188 720 188Q787 188 815.0 168.5Q843 149 843 111Q843 55 781.5 23.5Q720 -8 644 -17ZM62 578H868V653H62Z" transform="translate(0, 880) scale(1,-1)" /></svg>