<svg xmlns="http://www.w3.org/2000/svg" width="1000" height="1000"><path d="M597 296C795 296 926 350 926 481C926 608 694 637 257 607L267 534C642 556 843 537 843 475C843 403 747 371 597 371C492 371 389 376 284 388V308C389 299 492 296 597 296ZM457 -66C527 -65 559 -45 559 30V481H482V43C482 24 470 10 448 9C405 7 346 13 284 34V-49C332 -62 394 -67 457 -66ZM458 589 535 564C679 639 799 707 872 770L813 813L782 801H119V724H681C639 692 568 647 458 589ZM64 128 97 56C352 94 684 167 806 220L753 286C619 230 325 165 64 128Z" transform="translate(0, 880) scale(1,-1)" /></svg>