<svg xmlns="http://www.w3.org/2000/svg" width="1000" height="1000"><path d="M102 585 124 530 158 536 803 562 795 628 291 609C387 662 479 723 568 810L484 829C396 738 247 650 170 607C151 596 130 590 102 585ZM829 513 895 554C853 599 791 653 717 703L657 664C731 613 787 557 829 513ZM82 250 150 218C211 299 265 413 291 503L218 517C190 425 138 320 82 250ZM186 342H864L863 415H186ZM465 -79C525 -79 559 -45 559 11V534H480V24C480 6 468 -8 446 -8C393 -8 341 1 285 21V-59C343 -73 395 -79 465 -79ZM939 107 959 181C738 209 444 209 55 179V111C439 138 734 131 939 107Z" transform="translate(0, 880) scale(1,-1)" /></svg>