<svg xmlns="http://www.w3.org/2000/svg" width="1000" height="1000"><path d="M109 -84Q348 -3 548.0 115.5Q748 234 921 402L855 447Q573 162 63 -9ZM699 -80Q803 -80 854.0 -15.0Q905 50 905 169Q905 249 840.0 292.0Q775 335 674 336Q522 337 382.0 322.5Q242 308 97 279L113 207Q390 263 666 260Q745 259 782.5 236.0Q820 213 820 167Q820 87 788.0 38.5Q756 -10 695 -10Q606 -10 523 10V-69Q597 -80 699 -80ZM426 272Q482 328 514.5 373.0Q547 418 563.5 471.5Q580 525 580 597H492Q492 501 463.5 439.5Q435 378 362 310ZM310 459Q439 442 547 442Q727 442 810.0 492.0Q893 542 893 632Q893 807 593 807Q500 807 420.5 782.0Q341 757 286.0 717.5Q231 678 206 636V773H131V444H206V573Q349 732 593 732Q714 732 763.5 706.0Q813 680 813 632Q813 518 554 518Q450 518 310 535Z" transform="translate(0, 880) scale(1,-1)" /></svg>