<svg xmlns="http://www.w3.org/2000/svg" width="1000" height="1000"><path d="M143 -58Q344 39 509.5 205.5Q675 372 836 623L752 647Q611 413 450.5 257.0Q290 101 80 6ZM649 -67Q701 -67 749.0 -40.0Q797 -13 829.0 51.0Q861 115 861 219Q861 283 828.5 335.0Q796 387 737.5 417.0Q679 447 606 447Q518 447 458.0 437.5Q398 428 352 410Q459 491 556 582L485 626L457 598H161V527H399Q363 485 261 399Q244 385 189 364Q159 353 127 339L153 268Q266 315 377.0 344.5Q488 374 598 374Q643 374 684.0 355.5Q725 337 751.0 302.0Q777 267 777 219Q778 107 740.0 55.5Q702 4 641 4Q594 4 554.5 10.0Q515 16 475 31V-48Q518 -59 557.5 -63.0Q597 -67 649 -67ZM129 718H871V795H129Z" transform="translate(0, 880) scale(1,-1)" /></svg>