<svg xmlns="http://www.w3.org/2000/svg" width="1000" height="1000"><path d="M327 659Q305 691 263.5 732.5Q222 774 178 809L118 763Q160 729 201.0 686.0Q242 643 264 610ZM469 581H545V839H469ZM735 610Q773 639 819.0 682.5Q865 726 904 768L833 813Q805 777 760.5 733.0Q716 689 675 656ZM943 602H131V367Q131 247 112.5 144.5Q94 42 35 -37L103 -77Q209 69 209 367V526H943ZM905 -9Q586 53 268 91L229 14Q578 -27 873 -86ZM287 223Q351 285 395 429L323 451Q308 395 280.5 341.5Q253 288 217 254ZM786 225Q837 288 913 424L836 451Q816 404 783.5 346.5Q751 289 723 251ZM541 492Q528 407 498.0 345.0Q468 283 411 218L463 166L487 172H577Q510 102 425 45L491 15Q551 56 617.0 107.5Q683 159 725 197L665 256L647 245H528Q567 298 587.0 350.0Q607 402 620 485Z" transform="translate(0, 880) scale(1,-1)" /></svg>