<svg xmlns="http://www.w3.org/2000/svg" width="1000" height="1000"><path d="M606 -71Q690 -71 758.0 -33.5Q826 4 865.0 74.5Q904 145 904 240Q904 340 858.0 408.5Q812 477 740.0 510.5Q668 544 590 544Q497 544 426.5 532.0Q356 520 279.5 491.0Q203 462 89 404L128 332Q228 393 303.5 422.0Q379 451 438.0 459.0Q497 467 577 467Q633 467 690.5 441.5Q748 416 786.5 364.5Q825 313 825 240Q825 165 793.5 111.0Q762 57 710.5 28.5Q659 0 599 0Q528 0 464 15V-58Q529 -71 606 -71ZM286 43Q331 43 410.0 96.0Q489 149 565.0 223.5Q641 298 675 356L613 410Q591 368 528.0 299.0Q465 230 398.5 178.5Q332 127 294 127Q283 127 272.0 146.0Q261 165 253 202L181 184Q192 131 219.5 87.0Q247 43 286 43ZM625 142Q585 193 519.0 257.0Q453 321 397 363L348 313Q400 274 466.5 207.0Q533 140 572 89ZM283 590Q271 632 242.5 690.5Q214 749 181 802L111 766Q137 722 165.0 660.5Q193 599 211 549ZM559 605Q550 654 525.5 720.5Q501 787 473 845L400 818Q425 762 448.5 693.5Q472 625 482 574ZM775 544Q841 657 895 789L815 823Q797 767 767.0 699.0Q737 631 706 575Z" transform="translate(0, 880) scale(1,-1)" /></svg>