<svg xmlns="http://www.w3.org/2000/svg" width="1000" height="1000"><path d="M589 749 511 785C420 697 262 617 107 558L162 507C320 570 490 659 589 749ZM553 497V425C781 402 854 458 854 540C854 622 777 662 647 662C559 662 478 642 417 601V639H339V437H417V558C501 583 571 597 645 597C730 597 772 571 772 540C772 500 726 476 553 497ZM148 740H868V814H148ZM314 364 242 383C196 236 117 103 40 3L107 -32C184 72 266 217 314 364ZM281 -24C258 -24 241 -16 241 1C241 26 282 73 374 133L320 173C218 107 169 47 169 -2C169 -50 214 -90 281 -90C374 -90 419 -41 419 69C419 181 364 228 289 228C238 228 199 214 172 190L189 129C220 149 256 160 289 160C327 160 345 126 345 69C345 -3 313 -24 281 -24ZM61 335H426V410H61ZM757 349 682 376C623 259 521 153 421 73L480 26C583 110 693 229 757 349ZM723 -7V-82C880 -114 932 -39 932 65C932 165 870 212 781 212C723 212 678 197 646 168V197H574V-72H646V121C693 127 734 143 776 143C826 143 855 110 855 65C855 2 828 -34 723 -7ZM480 335H927V410H480Z" transform="translate(0, 880) scale(1,-1)" /></svg>