<svg xmlns="http://www.w3.org/2000/svg" width="1000" height="1000"><path d="M338 641Q318 674 279.5 719.0Q241 764 202 800L145 764Q184 727 221.0 682.0Q258 637 277 602ZM462 566H538V841H462ZM709 602Q743 633 785.0 679.0Q827 725 862 770L795 806Q769 766 728.5 719.0Q688 672 651 638ZM884 392Q902 422 910.5 450.0Q919 478 919 513Q919 577 842.0 605.0Q765 633 617 633Q476 633 360.0 603.0Q244 573 162 517V613H84V409H162V462Q238 511 360.5 534.5Q483 558 617 558Q732 558 785.0 544.0Q838 530 838 512Q838 461 811 419ZM139 -79Q339 -17 504.5 90.0Q670 197 832 358L756 389Q615 239 454.5 139.5Q294 40 84 -21ZM649 -84Q701 -84 749.0 -65.5Q797 -47 829.0 -4.0Q861 39 861 108Q861 153 828.5 187.5Q796 222 738.0 241.5Q680 261 606 261Q521 261 465.0 255.0Q409 249 365 237Q474 292 549 341L478 380L450 362H161V298H369Q328 266 261 230Q243 221 184 207L127 192L153 125Q402 193 598 193Q670 193 723.0 171.0Q776 149 777 108Q778 43 740.0 12.0Q702 -19 641 -19Q548 -19 475 1V-72Q518 -79 556.5 -81.5Q595 -84 649 -84ZM249 427H751V498H249Z" transform="translate(0, 880) scale(1,-1)" /></svg>