<svg xmlns="http://www.w3.org/2000/svg" width="1000" height="1000"><path d="M183 593 244 557C315 609 407 688 465 756L404 796L388 792H81V719H327C293 682 231 629 183 593ZM750 69 778 9C874 36 922 96 922 158C922 236 873 281 777 281C719 281 665 267 614 242C665 296 720 395 720 655V831H641V655C641 377 583 281 501 212C483 196 467 188 442 179L482 115C582 163 700 205 776 205C821 205 843 182 843 153C843 117 813 86 750 69ZM398 350C398 493 310 579 162 607L149 549C257 527 320 462 320 350C320 231 281 150 193 150C159 150 130 169 130 202C130 371 493 500 931 500V579C481 579 55 434 55 197C55 117 114 75 193 75C335 75 398 191 398 350ZM118 24V-55H882V24Z" transform="translate(0, 880) scale(1,-1)" /></svg>