<svg xmlns="http://www.w3.org/2000/svg" width="1000" height="1000"><path d="M228 80C281 80 331 129 357 218C405 381 452 617 465 814L391 818C376 620 345 390 285 215C269 168 244 146 220 146C191 146 174 167 174 208C174 272 344 373 564 373C797 373 837 333 837 277C837 200 785 165 674 165C590 165 513 167 429 173L420 108C505 101 590 99 674 99C845 99 912 191 912 277C912 363 856 441 564 441C326 441 103 334 103 208C103 144 145 80 228 80ZM122 -39H878V29H122ZM125 474 299 558 274 613 100 539ZM447 29H515C564 62 619 138 619 221V406H551V227C551 155 505 73 447 29ZM416 244H755V298H416ZM380 585V523C724 481 906 511 906 633C906 722 781 755 592 755C414 755 211 728 91 690L103 628C222 665 423 685 592 685C740 685 826 672 826 633C826 576 716 553 380 585Z" transform="translate(0, 880) scale(1,-1)" /></svg>