<svg xmlns="http://www.w3.org/2000/svg" width="1000" height="1000"><path d="M228 264V22H305V273C305 466 384 636 466 823L385 841C304 649 228 461 228 264ZM54 -46H947V22H54ZM530 22H629C711 73 779 130 779 201C779 300 683 323 498 306V237C645 244 698 232 698 201C698 138 626 81 530 22ZM607 287 658 260C718 310 756 349 756 401C756 486 689 522 565 522C463 522 384 501 304 467V404C385 435 465 447 568 447C659 447 676 426 676 402C676 364 657 328 607 287ZM75 646H925V713H75Z" transform="translate(0, 880) scale(1,-1)" /></svg>