<svg xmlns="http://www.w3.org/2000/svg" width="1000" height="1000"><path d="M886 622Q904 648 912.5 672.5Q921 697 921 726Q921 773 840.5 798.0Q760 823 617 823Q476 823 358.5 797.0Q241 771 160 723V811H82V637H160V682Q233 722 351.0 737.0Q469 752 617 752Q733 752 786.0 741.0Q839 730 839 715Q839 695 833.5 681.0Q828 667 812 646ZM164 -62Q222 -62 262.5 -24.5Q303 13 323.5 71.5Q344 130 344 190Q344 263 298.5 324.5Q253 386 164 417L143 368Q212 342 243.5 292.5Q275 243 275 187Q275 144 262.5 103.0Q250 62 225.0 35.0Q200 8 164 8Q142 8 128.0 25.0Q114 42 114 73Q114 117 139.0 155.5Q164 194 213.5 233.5Q263 273 349 329L312 367Q180 285 112.5 216.0Q45 147 45 71Q45 7 78.0 -27.5Q111 -62 164 -62ZM379 -52H939V10H379ZM218 377Q256 419 295.5 473.0Q335 527 360 570L315 601L302 595H69V524H258Q216 453 166 395ZM410 236Q475 302 531.5 382.0Q588 462 642 560L579 575Q523 476 468.5 402.0Q414 328 352 274ZM753 10Q804 39 829.5 74.5Q855 110 855 157Q855 219 805.0 251.5Q755 284 673 284Q594 284 542.0 255.0Q490 226 490 173Q490 118 526.5 87.5Q563 57 627 57Q668 57 693.0 82.0Q718 107 718 145V466H649V167Q649 120 614 120Q590 120 572.0 134.5Q554 149 554 173Q554 194 586.5 207.5Q619 221 673 221Q722 221 755.5 201.5Q789 182 789 155Q789 117 767.5 83.5Q746 50 685 10ZM404 460Q438 494 464.5 529.5Q491 565 530 622Q534 630 544 644L485 673Q414 554 350 494ZM488 340H939V402H488ZM454 539H921V602H454Z" transform="translate(0, 880) scale(1,-1)" /></svg>