<svg xmlns="http://www.w3.org/2000/svg" width="1000" height="1000"><path d="M652 524 690 587C576 632 486 660 351 679L326 615C461 592 550 566 652 524ZM519 632 602 604C691 646 810 714 871 760L823 807L807 802H153V729H702C647 691 592 664 519 632ZM197 302H803V376H197ZM117 157H883V229H117ZM540 335V494H460V335C460 175 434 69 55 -12L100 -76C495 11 540 166 540 335ZM886 -85 941 -30C827 31 693 92 574 138L532 84C651 36 783 -26 886 -85ZM811 342 884 315C908 353 919 387 919 432C919 519 805 550 607 550C426 550 269 508 162 437V529H84V332H162V383C269 450 453 476 607 476C786 476 838 450 838 431C838 401 832 374 811 342Z" transform="translate(0, 880) scale(1,-1)" /></svg>