<svg xmlns="http://www.w3.org/2000/svg" width="1000" height="1000"><path d="M248 370C418 370 493 463 493 540C493 638 401 689 277 742L220 695C339 644 410 595 410 540C410 493 361 445 248 445C195 445 172 457 172 478C172 515 263 571 508 651L457 704C206 629 83 551 83 478C83 416 142 370 248 370ZM57 695 105 641C255 685 397 734 512 784L465 839C351 784 210 737 57 695ZM664 807V450H740V807ZM528 479V405H894V479ZM151 324V248H849V324ZM259 177V103H739V177ZM103 27V-50H897V27Z" transform="translate(0, 880) scale(1,-1)" /></svg>