<svg xmlns="http://www.w3.org/2000/svg" width="1000" height="1000"><path d="M115 760V688H885V760ZM277 490Q229 490 204.0 500.0Q179 510 179 527Q179 551 266.0 559.5Q353 568 547 568Q708 568 773.5 555.5Q839 543 839 527Q839 484 812 447L883 423Q901 449 909.5 473.5Q918 498 918 528Q918 569 879.5 593.0Q841 617 760.0 627.5Q679 638 547 638Q392 638 296.0 628.5Q200 619 150.5 595.0Q101 571 101 527Q101 475 149.0 450.5Q197 426 284 426Q396 426 453.0 482.0Q510 538 510 665V837H430V665Q430 596 412.0 557.5Q394 519 361.0 504.5Q328 490 277 490ZM462 -77Q546 -75 546 10V396H469V28Q469 10 458.5 0.5Q448 -9 428 -9Q357 -9 276 20V-57Q321 -68 363.5 -73.0Q406 -78 462 -77ZM53 87H947V160H53ZM116 215H884V286H116ZM135 331H199Q371 331 549.5 342.0Q728 353 854 376L806 439Q690 419 494.5 408.0Q299 397 117 397Z" transform="translate(0, 880) scale(1,-1)" /></svg>