<svg xmlns="http://www.w3.org/2000/svg" width="1000" height="1000"><path d="M76 132 403 279 380 346 53 209ZM193 -72C240 -72 275 -51 275 17V748H201V37C201 13 191 0 179 0C155 0 129 4 97 18V-60C131 -69 163 -72 193 -72ZM64 448H390V527H64ZM87 773 92 695C188 700 299 718 376 739L365 814C293 793 183 775 87 773ZM776 -64C877 -64 937 38 937 239C937 441 847 502 735 502C714 502 697 500 680 494C749 560 817 641 872 728L803 764L792 751H560L559 682H753C716 625 651 544 577 478C565 467 474 429 393 390L419 317C520 380 643 429 728 429C799 429 863 378 863 239C863 67 819 8 769 8C735 8 691 15 639 32V-48C683 -60 727 -64 776 -64ZM507 48C583 48 729 229 789 332L725 372C671 271 555 130 518 130C506 130 496 152 490 190L421 176C434 90 462 48 507 48ZM696 81 754 129C717 196 647 288 597 340L542 295C591 245 662 144 696 81ZM390 586 444 529C524 606 608 702 671 808L601 839C546 741 469 655 390 586Z" transform="translate(0, 880) scale(1,-1)" /></svg>