<svg xmlns="http://www.w3.org/2000/svg" width="1000" height="1000"><path d="M77 728V653H922V728ZM460 821V58H540V821ZM152 336 177 270 387 348 361 413ZM490 378V303C763 295 864 346 864 458C864 539 799 606 576 606C383 606 245 568 107 496L153 434C261 494 404 534 576 534C729 534 787 497 787 458C787 394 705 363 490 378ZM886 -76 915 0C643 72 374 127 118 167L79 96C354 50 622 -5 886 -76ZM480 214 492 141C635 155 795 182 907 208L888 277C780 251 622 225 480 214Z" transform="translate(0, 880) scale(1,-1)" /></svg>