<svg xmlns="http://www.w3.org/2000/svg" width="1000" height="1000"><path d="M90 -62C224 99 227 229 227 427V508C288 527 339 532 421 532H738C786 532 813 508 813 468V42C813 23 803 15 790 15C761 15 722 20 674 36V-42C717 -53 757 -59 791 -59C858 -59 887 -39 887 36V472C887 553 843 607 742 607H419C336 607 286 597 224 571V600H153V427C153 286 143 109 32 -16ZM472 12C522 12 558 28 558 100V207H705V278H558V356H705V427H558V559H482V427H335V356H482V278H335V207H482L484 112C484 94 481 87 466 87C433 87 397 92 351 107V27C396 17 435 12 472 12ZM521 562C624 620 741 690 837 760L774 806L747 798H176V726H660C606 683 533 637 472 601Z" transform="translate(0, 880) scale(1,-1)" /></svg>