<svg xmlns="http://www.w3.org/2000/svg" width="1000" height="1000"><path d="M200 385Q378 440 519.5 534.0Q661 628 772 766L699 813L684 799H212V722H624Q587 674 513.0 621.5Q439 569 348.5 525.0Q258 481 172 458ZM83 573H917V649H83ZM241 36Q320 36 384.5 66.0Q449 96 486.5 149.5Q524 203 524 270Q524 352 487.5 406.0Q451 460 367 505L309 452Q379 414 411.0 373.0Q443 332 443 278Q443 226 415.5 188.0Q388 150 341.5 130.0Q295 110 239 110Q189 110 164.5 122.5Q140 135 140 155Q140 206 252.0 252.5Q364 299 509.5 329.0Q655 359 733 362V133H597V59L953 57V133H817V430L755 453L737 441Q624 435 462.5 398.5Q301 362 180.0 299.5Q59 237 59 155Q59 102 106.0 69.0Q153 36 241 36ZM109 7V-71H891V7Z" transform="translate(0, 880) scale(1,-1)" /></svg>