<svg xmlns="http://www.w3.org/2000/svg" width="1000" height="1000"><path d="M623 -75C812 -75 825 158 825 366C825 491 786 582 604 582C501 582 402 569 284 547L287 473C418 497 504 505 603 505C721 505 747 432 747 366C747 234 728 3 613 3C557 3 498 9 444 27V-59C505 -73 548 -75 623 -75ZM104 -27 185 -72C281 134 302 310 309 580H230C222 304 206 174 104 -27ZM664 242 667 315 353 324 348 250ZM449 566 491 526C644 591 805 663 937 733L877 796L860 786H84V713H742C673 673 580 627 449 566Z" transform="translate(0, 880) scale(1,-1)" /></svg>