<svg xmlns="http://www.w3.org/2000/svg" width="1000" height="1000"><path d="M801 572 863 531C905 557 932 589 932 638C932 708 843 760 583 760C406 760 263 736 153 690V735H77V547H153V635C267 668 418 687 582 687C798 687 850 659 850 638C850 613 835 591 801 572ZM258 516H743V590H540V837H461V590H258ZM104 258 129 195 157 202H874L875 274H208C220 307 229 344 234 382H843V456H164C162 391 147 317 130 276C126 268 117 261 104 258ZM500 21C500 4 488 -9 466 -10C413 -12 350 -2 298 13V-62C350 -72 414 -78 472 -78C531 -78 579 -47 579 9V340H500ZM850 50 867 127C685 146 443 147 123 126V54C439 73 681 69 850 50Z" transform="translate(0, 880) scale(1,-1)" /></svg>