<svg xmlns="http://www.w3.org/2000/svg" width="1000" height="1000"><path d="M606 -71C773 -71 904 45 904 240C904 452 736 545 588 544C408 543 308 515 89 404L128 332C339 460 443 467 577 467C682 467 825 395 825 240C825 85 716 0 599 0C551 0 511 4 464 15V-58C509 -67 548 -71 606 -71ZM286 43C380 43 606 240 675 356L613 410C570 329 375 127 294 127C279 127 264 152 253 202L181 184C193 128 228 43 286 43ZM572 89 625 142C571 212 469 309 397 363L348 313C419 260 522 155 572 89ZM211 549 283 590C266 650 221 737 181 802L111 766C148 704 189 611 211 549ZM482 574 559 605C546 672 509 771 473 845L400 818C433 745 468 643 482 574ZM775 544C821 623 863 711 895 789L815 823C790 746 746 648 706 575Z" transform="translate(0, 880) scale(1,-1)" /></svg>