<svg xmlns="http://www.w3.org/2000/svg" width="1000" height="1000"><path d="M814 598 892 573C913 619 922 647 922 673C922 751 818 793 587 793C418 793 265 767 165 730V779H83V600H165V663C277 695 433 716 587 716C782 716 837 696 837 667C837 650 831 633 814 598ZM187 405 244 367C315 409 407 475 465 532L404 574L388 570H81V501H323C291 473 233 432 187 405ZM759 -10 789 -80C891 -57 942 -4 942 66C942 138 892 163 804 163C736 163 678 147 626 119C677 183 710 270 710 486V633H628V486C628 265 598 179 516 89C498 70 462 53 437 42L482 -23C582 43 716 91 798 91C842 91 863 77 863 60C863 32 831 5 759 -10ZM410 197C410 325 310 402 162 426L149 355C257 335 328 287 328 197C328 91 281 22 193 22C159 22 135 39 135 66C135 204 493 336 921 336V414C441 414 55 252 55 61C55 -14 114 -54 193 -54C335 -54 410 47 410 197Z" transform="translate(0, 880) scale(1,-1)" /></svg>