<svg xmlns="http://www.w3.org/2000/svg" width="1000" height="1000"><path d="M700 -57Q765 -57 800.0 -12.5Q835 32 849.0 129.5Q863 227 863 399Q863 537 839.5 623.5Q816 710 754.0 755.5Q692 801 579 801Q501 801 425.0 792.0Q349 783 303 768L318 690Q361 703 433.5 711.0Q506 719 579 719Q661 719 705.5 682.0Q750 645 767.0 576.5Q784 508 784 399Q784 195 761.5 108.5Q739 22 693 22Q645 22 600 40V-47Q636 -57 700 -57ZM543 -44V35H285Q252 35 234.0 56.0Q216 77 216 119V459Q216 518 224.0 576.5Q232 635 248 681L176 710Q154 654 145.0 596.5Q136 539 136 459V111Q136 30 171.0 -7.0Q206 -44 275 -44ZM320 228H679V300H320ZM320 456H679V527H320Z" transform="translate(0, 880) scale(1,-1)" /></svg>