<svg xmlns="http://www.w3.org/2000/svg" width="1000" height="1000"><path d="M125 644 143 576C173 598 203 609 242 609C292 609 308 549 308 479C308 398 283 347 223 335V254C341 263 381 356 381 479C381 610 343 688 242 688C193 688 155 671 125 644ZM186 75H254V473H186ZM48 31 76 -39 377 121 348 191ZM30 336 98 298C138 439 170 620 186 803L116 811C99 630 66 451 30 336ZM939 41 974 118C824 209 677 279 526 329L499 260C649 212 799 132 939 41ZM368 51 431 0C516 134 577 308 602 473L530 482C500 312 453 175 368 51ZM612 -57C674 -57 710 -21 710 52V750H636V67C636 34 628 16 602 16C570 16 542 23 508 42V-41C540 -52 578 -57 612 -57ZM414 463H935V536H414ZM429 776 446 704C593 707 768 726 888 758L858 826C737 794 580 777 429 776Z" transform="translate(0, 880) scale(1,-1)" /></svg>