<svg xmlns="http://www.w3.org/2000/svg" width="1000" height="1000"><path d="M235 541H765V607H235ZM317 716 393 738C376 768 348 808 317 841L245 822C273 790 303 747 317 716ZM89 658H911V724H89ZM600 713 668 698C697 734 733 789 756 827L673 844C658 807 628 752 600 713ZM832 321 900 275C928 302 939 340 939 379C939 485 788 510 614 510C427 510 291 478 149 406V483H77V288H149V369C323 427 454 440 613 440C751 440 856 415 856 375C856 355 847 335 832 321ZM554 -72C761 -72 816 33 816 175C816 308 750 387 582 387C463 387 365 360 296 322V369H220V-62H296V276C372 303 467 320 582 320C691 320 737 275 737 175C737 80 712 -3 554 -3C498 -3 440 2 375 16V-59C432 -68 492 -72 554 -72ZM263 177H652V244H263ZM263 59H652V126H263Z" transform="translate(0, 880) scale(1,-1)" /></svg>