<svg xmlns="http://www.w3.org/2000/svg" width="1000" height="1000"><path d="M312 687 388 715C372 748 341 804 306 841L233 813C265 775 294 727 312 687ZM88 635H919V706H88ZM615 697 683 671C723 719 756 770 782 818L702 844C682 799 653 744 615 697ZM522 290H626C732 335 771 385 771 445C771 530 677 578 501 578C307 578 209 530 209 461C209 391 277 348 399 348C490 348 550 389 550 437V635H470V454C470 426 442 415 396 415C339 415 292 431 292 457C292 481 348 510 501 510C638 510 690 484 690 445C690 401 659 343 522 290ZM53 218H950V290H53ZM108 160V89H452V160ZM86 6 96 -64 467 -24 457 46ZM684 174V-18H764V174ZM547 12V-61H910V12Z" transform="translate(0, 880) scale(1,-1)" /></svg>