<svg xmlns="http://www.w3.org/2000/svg" width="1000" height="1000"><path d="M166 47 227 16C279 99 348 223 389 306L321 350L311 336H244C289 458 306 570 319 805L246 811C234 584 211 454 150 302L212 256L228 267H286C256 201 212 117 166 47ZM464 85 437 161 81 32 105 -45ZM25 381 93 353C128 422 149 538 164 633L94 648C82 557 60 449 25 381ZM360 377 425 356C451 425 483 534 515 624L435 648C418 565 386 449 360 377ZM590 166 640 104C849 205 918 246 918 333C918 407 842 465 647 503C775 566 872 635 961 753L896 794L883 780H502V705H818C734 620 644 560 514 511L523 449C771 408 836 364 836 333C836 294 780 252 590 166ZM904 -91 953 -29C859 37 660 143 509 208L479 144C624 80 814 -24 904 -91Z" transform="translate(0, 880) scale(1,-1)" /></svg>