<svg xmlns="http://www.w3.org/2000/svg" width="1000" height="1000"><path d="M639 -80Q840 12 840 176Q840 274 770.0 323.5Q700 373 581 373Q485 373 393.0 328.5Q301 284 246 216L248 814H170V137L149 108L202 51Q294 167 390.0 227.0Q486 287 581 287Q665 287 708.0 260.0Q751 233 751 176Q751 109 712.5 65.0Q674 21 598 -15ZM614 517Q699 517 737.0 554.5Q775 592 775 664V839H692V681Q692 634 673.0 614.5Q654 595 614 595Q466 595 348 623V537Q401 527 472.0 522.0Q543 517 614 517Z" transform="translate(0, 880) scale(1,-1)" /></svg>