<svg xmlns="http://www.w3.org/2000/svg" width="1000" height="1000"><path d="M618 -55H827C913 -55 941 -22 952 119L879 129C874 38 867 21 832 21H632C598 21 583 39 583 63V277H502V50C502 -29 525 -55 618 -55ZM70 552H934V629H70ZM856 233 932 256C919 329 895 404 863 479L791 457C822 384 844 307 856 233ZM468 589 387 610C327 515 253 431 179 376L229 317L269 342H564C446 245 254 106 51 2L108 -69C306 36 520 204 732 382L668 437L640 417H338C381 460 424 516 468 589ZM582 647 633 712C565 752 488 791 399 828L355 765C442 728 518 688 582 647Z" transform="translate(0, 880) scale(1,-1)" /></svg>