<svg xmlns="http://www.w3.org/2000/svg" width="1000" height="1000"><path d="M125 58 174 12C274 93 358 255 358 355C358 444 314 499 261 499C191 499 135 455 135 373C135 289 194 238 265 256C250 200 200 118 125 58ZM250 317C221 317 196 337 196 373C196 409 222 431 251 431C276 431 299 407 299 378C299 337 276 317 250 317ZM333 400V735H259V467ZM88 761V681H406V761ZM65 42 89 -32 415 96 391 170ZM650 41H716C796 143 839 206 839 337C839 473 773 550 649 550C517 550 451 473 451 363C451 253 498 183 580 183C647 183 691 249 691 328V699H616V353C616 289 601 262 578 262C548 262 522 298 522 363C522 415 553 475 649 475C735 475 765 423 765 337C765 236 736 159 650 41ZM408 -34H950V41H408ZM437 699H918V775H437ZM911 58 967 91C943 144 915 194 883 245L831 213C863 163 889 111 911 58Z" transform="translate(0, 880) scale(1,-1)" /></svg>