<svg xmlns="http://www.w3.org/2000/svg" width="1000" height="1000"><path d="M827 289 893 328C847 379 750 456 659 513L598 478C683 423 777 344 827 289ZM539 567V831H460V567ZM70 674H937V746H70ZM891 602H113V531H891ZM485 543 407 569C335 500 261 442 185 395C171 386 152 379 130 376L154 306L183 314L784 344L764 410L275 387C349 433 418 482 485 543ZM735 93 755 30C870 47 929 106 929 161C929 236 826 286 612 286C424 286 235 262 99 232L116 159C251 188 444 211 612 211C777 211 843 189 843 161C843 133 799 105 735 93ZM311 151V78H664V151ZM133 11V-64H867V11Z" transform="translate(0, 880) scale(1,-1)" /></svg>