<svg xmlns="http://www.w3.org/2000/svg" width="1000" height="1000"><path d="M107 703V628H893V703ZM266 276 312 219C430 294 564 392 726 517L672 573C518 447 385 350 266 276ZM480 -72C604 -72 650 52 650 181C650 303 578 445 461 584L402 533C504 416 565 278 564 181C563 97 557 1 467 1C427 1 388 6 345 17V-60C388 -68 430 -72 480 -72ZM294 495 352 446C462 542 552 665 590 822L510 843C476 696 394 582 294 495ZM722 29 781 100C656 172 508 242 377 298L336 239C469 179 601 109 722 29ZM716 130H949V203H853V457H781V203H716ZM190 242C215 303 240 372 265 451L200 470C151 319 96 205 42 135L103 97C119 123 139 153 154 167C164 177 182 178 191 174C203 170 214 150 222 106L334 173L314 218L254 192C250 218 226 233 190 242Z" transform="translate(0, 880) scale(1,-1)" /></svg>