<svg xmlns="http://www.w3.org/2000/svg" width="1000" height="1000"><path d="M592 671 635 740C552 777 436 817 342 840L317 779C406 754 514 710 592 671ZM689 357C779 357 815 460 832 640L770 659L750 648H160V573H744C734 476 708 426 661 426C561 426 492 437 414 452V378C496 365 579 357 689 357ZM267 83V446H188V83C188 -33 236 -58 378 -58H515C617 -58 648 0 665 123L582 134C574 36 558 18 510 18H378C287 18 267 31 267 83ZM875 39 929 98C823 173 702 247 560 321L515 265C654 191 774 114 875 39Z" transform="translate(0, 880) scale(1,-1)" /></svg>