<svg xmlns="http://www.w3.org/2000/svg" width="1000" height="1000"><path d="M816 436 890 406C919 451 929 496 929 548C929 641 815 682 617 682C426 682 264 629 157 549V672H79V415H157V493C264 566 453 599 617 599C794 599 847 566 847 541C847 505 842 474 816 436ZM501 641 576 663C559 716 529 778 498 827L426 804C454 756 487 691 501 641ZM677 61V446H594V63C594 -36 619 -64 689 -64H836C921 -65 939 -27 945 123L870 135C866 17 857 10 832 10H708C686 10 677 21 677 61ZM386 297V446H306V301C306 194 291 77 60 -18L118 -78C364 26 386 171 386 297Z" transform="translate(0, 880) scale(1,-1)" /></svg>