<svg xmlns="http://www.w3.org/2000/svg" width="1000" height="1000"><path d="M801 577 864 538C906 563 932 595 932 642C932 712 843 763 583 763C406 763 263 739 153 694V737H77V553H153V639C267 672 418 690 582 690C798 690 850 663 850 642C850 618 835 597 801 577ZM258 526H743V600H540V837H461V600H258ZM329 -24 385 -90C672 -24 820 53 820 150C820 232 730 292 576 292C487 292 391 282 318 268L336 195C400 208 494 219 576 219C675 219 725 193 725 150C725 84 581 31 329 -24ZM403 269 479 234C581 292 680 359 763 426L692 479L677 468H216V399H601C555 361 482 311 403 269Z" transform="translate(0, 880) scale(1,-1)" /></svg>