<svg xmlns="http://www.w3.org/2000/svg" width="1000" height="1000"><path d="M854 388Q890 419 911.0 455.0Q932 491 932 538Q932 698 583 698Q321 698 153 599V675H77V410H153V541Q240 580 350.0 601.0Q460 622 582 622Q728 622 789.0 597.0Q850 572 850 538Q850 485 801 445ZM108 -83Q192 -36 274.5 31.5Q357 99 413 167L337 197Q293 138 213.5 74.5Q134 11 52 -31ZM941 -36Q896 12 814.5 79.0Q733 146 654 200L593 161Q672 105 753.0 36.5Q834 -32 876 -80ZM258 291H743V367L540 366V837H461V366H258Z" transform="translate(0, 880) scale(1,-1)" /></svg>