<svg xmlns="http://www.w3.org/2000/svg" width="1000" height="1000"><path d="M663 -68Q756 -68 814.0 -20.0Q872 28 896.5 101.5Q921 175 921 258Q921 341 882.5 405.5Q844 470 761.5 507.5Q679 545 553 545Q415 545 304.5 483.0Q194 421 132.5 324.5Q71 228 71 129Q71 42 111.5 3.0Q152 -36 209 -36Q301 -36 386.5 64.5Q472 165 547.5 318.5Q623 472 750 764L690 797L675 784H193V711H641Q559 510 491.0 369.0Q423 228 350.0 133.5Q277 39 209 39Q180 39 162.0 60.5Q144 82 144 122Q144 202 197.5 284.0Q251 366 344.5 419.5Q438 473 553 473Q650 473 715.0 444.0Q780 415 811.0 366.0Q842 317 842 258Q842 136 803.5 66.5Q765 -3 656 -3Q616 -3 589.0 18.0Q562 39 562 70Q562 97 584.5 118.5Q607 140 638 140Q675 140 703.5 105.0Q732 70 760 5L813 52Q776 121 735.0 161.0Q694 201 637 201Q599 201 566.5 183.0Q534 165 514.5 134.0Q495 103 495 68Q495 3 533.5 -32.5Q572 -68 663 -68Z" transform="translate(0, 880) scale(1,-1)" /></svg>