<svg xmlns="http://www.w3.org/2000/svg" width="1000" height="1000"><path d="M244 557Q302 599 363.0 653.5Q424 708 465 756L404 796L388 792H81V719H327Q302 692 261.5 656.5Q221 621 183 593ZM778 9Q848 29 885.0 69.5Q922 110 922 158Q922 217 885.0 249.0Q848 281 777 281Q694 281 614 242Q661 292 690.5 385.5Q720 479 720 655V831H641V655Q641 522 624.0 436.5Q607 351 577.0 300.5Q547 250 501 212Q488 200 475.0 193.0Q462 186 442 179L482 115Q564 154 643.0 179.5Q722 205 776 205Q808 205 825.5 190.5Q843 176 843 153Q843 125 819.5 103.0Q796 81 750 69ZM398 350Q398 455 336.5 520.5Q275 586 162 607L149 549Q232 532 276.0 482.0Q320 432 320 350Q320 257 288.5 203.5Q257 150 193 150Q166 150 148.0 164.0Q130 178 130 202Q130 285 238.5 353.0Q347 421 530.5 460.5Q714 500 931 500V579Q703 579 501.5 532.0Q300 485 177.5 398.0Q55 311 55 197Q55 139 93.5 107.0Q132 75 193 75Q295 75 346.5 150.0Q398 225 398 350ZM118 24V-55H882V24Z" transform="translate(0, 880) scale(1,-1)" /></svg>