<svg xmlns="http://www.w3.org/2000/svg" width="1000" height="1000"><path d="M482 75 545 43C617 101 720 188 780 248L723 308L706 300L535 301C590 397 620 485 662 611L579 630C544 497 501 392 420 271L479 220L497 230H651C612 183 549 127 482 75ZM909 -70 938 3C730 56 525 95 329 125L293 55C503 21 707 -19 909 -70ZM566 420H904V498H566C194 498 34 290 34 81C34 0 77 -48 129 -48C221 -48 296 67 296 339V660H943V735H622L569 845L490 827L533 735H216L217 339C217 134 170 32 131 32C118 32 109 55 109 88C109 232 260 420 566 420Z" transform="translate(0, 880) scale(1,-1)" /></svg>