<svg xmlns="http://www.w3.org/2000/svg" width="1000" height="1000"><path d="M125 507 189 484C241 554 296 664 325 752L278 798L259 792H50V720H241C219 644 177 576 125 507ZM323 338C323 470 239 508 109 524V451C202 437 248 394 248 338C248 210 174 81 49 -18L103 -72C244 47 323 196 323 338ZM748 507 817 484C871 554 930 664 960 752L911 798L891 792H694V720H871C847 644 804 576 748 507ZM947 338C947 470 862 508 732 524V451C826 437 871 394 871 338C871 210 798 81 673 -18L727 -72C867 47 947 196 947 338ZM342 117 702 264 680 328 322 191ZM471 -72C518 -72 550 -51 550 17V825H471V37C471 13 463 0 449 0C423 0 392 5 356 18V-60C396 -69 433 -72 471 -72ZM330 420H693V495H330ZM396 549 462 574C450 634 417 727 387 796L324 772C353 701 385 608 396 549ZM548 572 611 552C636 611 664 702 689 780L619 802C603 731 574 632 548 572Z" transform="translate(0, 880) scale(1,-1)" /></svg>