<svg xmlns="http://www.w3.org/2000/svg" width="1000" height="1000"><path d="M912 -83 954 -25C813 38 705 202 559 202C495 202 435 148 435 84C435 22 475 -36 546 -36C705 -36 888 130 888 258C888 357 781 419 628 419C370 419 62 299 62 70C62 2 101 -65 162 -65C258 -65 316 5 760 768L700 832L677 819H234V745H657C270 72 211 15 170 15C153 15 139 39 139 71C139 256 413 345 632 345C741 345 809 309 809 258C809 174 670 34 550 34C524 34 508 57 508 84C508 108 531 133 562 133C684 133 774 -20 912 -83ZM73 532H933V608H73Z" transform="translate(0, 880) scale(1,-1)" /></svg>