<svg xmlns="http://www.w3.org/2000/svg" width="1000" height="1000"><path d="M57 152H955V223H57ZM653 211Q706 234 744.0 269.5Q782 305 782 336Q782 387 717.5 420.5Q653 454 512 454Q419 454 350.5 441.0Q282 428 245.5 406.0Q209 384 209 356Q209 311 257.0 290.0Q305 269 390 269Q493 269 543.5 302.5Q594 336 594 414V697H514V424Q514 370 481.5 348.5Q449 327 390 327Q341 327 315.5 335.5Q290 344 290 355Q290 371 347.5 382.5Q405 394 512 394Q609 394 652.0 375.0Q695 356 695 333Q695 311 659.0 275.5Q623 240 563 211ZM109 499H913V569H109ZM68 577Q294 692 434 829L356 862Q292 795 203.5 734.5Q115 674 16 628ZM505 742Q460 708 403.5 673.5Q347 639 295 616L343 568Q428 609 524.0 665.5Q620 722 686 768L633 809L614 804H297V742ZM126 -89Q173 -49 209.5 3.0Q246 55 262 110L187 131Q173 80 137.0 28.5Q101 -23 57 -58ZM524 -84Q556 -84 587.0 -71.5Q618 -59 661 -28L607 28Q585 6 569.0 -2.0Q553 -10 534 -10Q522 -10 512.5 1.0Q503 12 492.0 41.0Q481 70 464 129L388 113Q421 0 453.5 -42.0Q486 -84 524 -84ZM951 -58Q925 -17 880.0 36.0Q835 89 792 132L723 100Q766 58 806.0 8.0Q846 -42 873 -85Z" transform="translate(0, 880) scale(1,-1)" /></svg>