<svg xmlns="http://www.w3.org/2000/svg" width="1000" height="1000"><path d="M135 445H214V607Q298 671 385.0 703.5Q472 736 585 736Q712 736 763.5 705.5Q815 675 815 619Q815 567 751.5 541.5Q688 516 581 516H313V445H581Q688 445 758.0 468.5Q828 492 861.0 531.0Q894 570 894 619Q894 700 825.5 753.5Q757 807 585 807Q459 807 366.5 770.5Q274 734 214 669V773H135ZM89 118H915V185H89ZM428 -72Q488 -72 519.0 -41.0Q550 -10 550 52L551 633H469L468 63Q468 31 457.0 15.0Q446 -1 418 -1Q368 -1 309 20V-59Q358 -72 428 -72ZM129 272H875V339H129Z" transform="translate(0, 880) scale(1,-1)" /></svg>