<svg xmlns="http://www.w3.org/2000/svg" width="1000" height="1000"><path d="M235 526H765V594H235ZM317 709 393 732C376 764 348 806 317 841L245 821C273 787 303 742 317 709ZM89 649H911V717H89ZM600 706 668 690C697 728 733 786 756 826L673 844C658 805 628 747 600 706ZM830 294 900 245C928 274 939 314 939 355C939 466 788 493 614 493C427 493 296 459 154 383V464H77V259H154V341C328 402 454 416 613 416C751 416 854 393 854 351C854 330 845 308 830 294ZM60 -24 118 -78C314 -5 336 98 336 187V282H644V55C644 -18 669 -58 739 -58H836C921 -58 939 -21 945 115L870 125C866 22 857 16 832 16H758C736 16 727 24 727 54V355H256V190C256 118 241 39 60 -24ZM595 224Q543 232 483.0 239.5Q423 247 343 256L319 198Q396 188 456.0 179.5Q516 171 569 164ZM595 129Q543 136 483.0 143.5Q423 151 343 160L319 101Q396 92 456.0 83.5Q516 75 569 67Z" transform="translate(0, 880) scale(1,-1)" /></svg>