<svg xmlns="http://www.w3.org/2000/svg" width="1000" height="1000"><path d="M700 -57C829 -57 863 67 863 399C863 657 811 801 579 801C475 801 365 788 303 768L318 690C375 707 481 719 579 719C748 719 784 601 784 399C784 118 752 22 693 22C664 22 630 28 600 40V-47C632 -56 673 -57 700 -57ZM275 -44H543V35H285C241 35 216 63 216 119V459C216 535 226 617 248 681L176 710C146 634 136 564 136 459V111C136 0 185 -44 275 -44ZM320 228H679V300H320ZM320 456H679V527H320Z" transform="translate(0, 880) scale(1,-1)" /></svg>