<svg xmlns="http://www.w3.org/2000/svg" width="1000" height="1000"><path d="M890 438Q929 494 929 572Q929 637 849.0 668.5Q769 700 617 700Q477 700 358.5 666.5Q240 633 157 574V689H79V447H157V520Q233 569 358.0 593.0Q483 617 617 617Q738 617 792.5 601.5Q847 586 847 565Q847 536 840.5 513.0Q834 490 816 466ZM576 675Q564 712 543.0 753.5Q522 795 499 830L427 808Q484 714 501 654ZM102 -73Q369 24 465.0 189.5Q561 355 558 553H474Q473 430 443.5 330.5Q414 231 321.0 141.0Q228 51 50 -12ZM950 -20Q775 122 533 266L491 205Q600 138 706.0 63.5Q812 -11 892 -80ZM68 303H934V379H68Z" transform="translate(0, 880) scale(1,-1)" /></svg>