<svg xmlns="http://www.w3.org/2000/svg" width="1000" height="1000"><path d="M138 763V329H217V763ZM728 389 782 324C856 385 898 463 898 584C898 731 785 784 597 784C434 784 282 762 170 734L190 667C307 693 458 714 597 714C743 714 816 672 816 584C816 497 786 436 728 389ZM489 851 439 752 514 732 564 831ZM537 491V692H463V498C463 441 438 408 391 408C359 408 345 419 345 434C345 451 395 475 485 475C603 474 639 444 639 418C639 386 572 338 445 313L477 251C636 283 712 343 712 416C712 493 662 544 485 544C360 544 271 499 271 434C271 386 305 343 391 343C501 343 537 401 537 491ZM575 -88C711 -88 814 -52 814 35C814 121 702 155 530 155C501 155 477 153 457 151C514 172 564 191 606 210H900V286H101L100 210H478C427 186 368 164 300 142C281 136 259 131 215 124L239 57C336 73 438 86 530 86C653 86 731 63 731 35C731 0 652 -17 565 -17C508 -17 451 -14 391 -5V-80C450 -86 509 -88 575 -88ZM252 566H762V637H252Z" transform="translate(0, 880) scale(1,-1)" /></svg>