<svg xmlns="http://www.w3.org/2000/svg" width="1000" height="1000"><path d="M435 362C508 362 549 396 549 466V839H464V480C464 448 457 432 422 432C378 432 340 438 295 456V376C339 366 389 362 435 362ZM48 444 121 400C251 467 346 554 384 637L299 660C253 575 180 506 48 444ZM936 409 964 484C733 530 505 564 272 590L256 520C488 495 720 455 936 409ZM286 670 351 713C329 743 272 790 219 825L158 782C210 746 265 699 286 670ZM82 621H918V694H82ZM652 712 707 671C749 701 802 746 843 786L775 828C746 793 694 742 652 712ZM97 324V243H903V324ZM318 168 394 193C378 247 345 328 314 388L240 364C270 306 303 222 318 168ZM597 188 668 165C696 215 733 297 760 364L683 388C662 324 626 241 597 188ZM875 -89 910 -19C723 9 560 29 418 42C555 67 674 87 781 111L751 180L719 173C552 190 429 200 288 211L244 142C373 134 444 128 531 118C451 99 372 84 245 64C215 58 188 62 146 64L102 -6C366 -27 622 -55 875 -89Z" transform="translate(0, 880) scale(1,-1)" /></svg>