<svg xmlns="http://www.w3.org/2000/svg" width="1000" height="1000"><path d="M445 -57C518 -57 559 -21 559 52V850H474V67C474 34 467 16 432 16C388 16 350 23 305 42V-41C349 -52 399 -57 445 -57ZM63 51 126 -1C256 133 351 307 389 472L314 482C268 312 195 175 63 51ZM946 34 974 113C743 204 515 274 282 324L266 253C498 205 730 125 946 34ZM282 558 356 589C334 649 277 742 224 811L154 781C206 710 261 617 282 558ZM82 460H918V536H82ZM657 587 721 561C763 620 816 711 857 789L780 817C751 746 699 647 657 587Z" transform="translate(0, 880) scale(1,-1)" /></svg>