<svg xmlns="http://www.w3.org/2000/svg" width="1000" height="1000"><path d="M154 473 244 476C225 530 214 559 217 599C220 640 229 663 209 692L121 686C136 653 138 633 135 601C130 560 133 530 154 473ZM281 709 310 773C268 785 187 802 127 814L100 752C161 740 241 721 281 709ZM340 785 362 714C462 733 573 745 680 745C778 745 820 710 820 653C820 549 763 536 668 552V475C813 454 907 493 907 653C907 757 847 817 680 817C562 817 445 805 340 785ZM435 -68C508 -68 549 -33 549 36V474H464V51C464 18 457 2 422 2C378 2 340 8 295 26V-53C339 -64 389 -68 435 -68ZM49 18 120 -28C250 50 345 150 383 245L300 266C254 169 181 90 49 18ZM936 -14 964 61C733 114 505 154 272 183L256 113C488 85 720 39 936 -14ZM285 287 351 328C329 363 272 417 219 457L157 416C209 375 264 321 285 287ZM82 230H918V304H82ZM652 327 708 288C750 323 803 375 844 420L775 460C746 419 694 362 652 327ZM310 526 361 474C493 542 637 644 687 694L630 741C581 690 444 589 310 526ZM612 494 665 551C590 603 481 671 405 708L357 656C438 614 543 545 612 494Z" transform="translate(0, 880) scale(1,-1)" /></svg>