<svg xmlns="http://www.w3.org/2000/svg" width="1000" height="1000"><path d="M816 466 890 438C919 480 929 523 929 572C929 660 815 700 617 700C426 700 264 650 157 574V689H79V447H157V520C264 589 453 617 617 617C794 617 847 589 847 565C847 531 842 501 816 466ZM501 654 576 675C559 725 529 784 499 830L427 808C454 763 487 702 501 654ZM50 -12 102 -73C497 70 561 341 558 553H474C473 347 429 122 50 -12ZM892 -80 950 -20C830 77 677 180 533 266L491 205C627 122 780 17 892 -80ZM68 303H934V379H68Z" transform="translate(0, 880) scale(1,-1)" /></svg>