<svg xmlns="http://www.w3.org/2000/svg" width="1000" height="1000"><path d="M133 451H206V620C305 695 408 741 574 741C746 741 799 697 799 631C799 520 590 513 310 546V470C625 444 878 453 878 631C878 733 814 812 574 812C392 812 279 759 206 682V777H133ZM455 -75C516 -75 551 -52 551 17V636H470V17C470 -2 463 -8 444 -8C404 -8 349 3 300 17V-63C344 -70 403 -75 455 -75ZM616 70H924V140H793V409H718V140H616ZM237 227C266 275 296 332 327 396L263 421C200 285 126 184 56 126L119 80C140 106 166 134 185 148C199 157 221 158 234 155C248 150 263 130 273 84L412 154L387 204L305 175C300 202 276 217 237 227Z" transform="translate(0, 880) scale(1,-1)" /></svg>