<svg xmlns="http://www.w3.org/2000/svg" width="1000" height="1000"><path d="M305 512C310 159 266 10 183 10C154 10 135 38 135 87C135 176 206 268 372 392L330 446C162 332 59 200 59 87C59 -10 105 -62 183 -62C319 -62 386 72 381 585H79V512ZM265 619 322 668C282 716 237 760 186 804L131 757C182 713 226 666 265 619ZM449 393H524L523 621C574 685 655 729 739 729C805 729 828 700 828 654C828 582 721 471 627 403L683 373C788 447 911 550 911 654C911 748 858 804 739 804C636 804 566 755 523 686L522 788H449ZM576 413V343H729C654 246 512 94 382 -9L434 -69C560 33 722 204 857 384L801 426L777 413ZM756 -55H861C923 -55 945 -26 952 116L881 135C878 24 873 11 847 11H783C758 11 746 25 746 48V257H673V38C673 -32 690 -55 756 -55Z" transform="translate(0, 880) scale(1,-1)" /></svg>