<svg xmlns="http://www.w3.org/2000/svg" width="1000" height="1000"><path d="M273 -82Q392 -82 481.5 -8.0Q571 66 636.5 194.5Q702 323 763 510L685 536Q616 296 514.0 151.0Q412 6 273 6Q218 6 182.0 47.0Q146 88 146 153Q146 233 187.0 275.0Q228 317 309 317Q352 317 394.5 296.5Q437 276 476.0 245.0Q515 214 579 156Q671 71 745.5 15.0Q820 -41 914 -80L954 -6Q862 31 791.0 85.0Q720 139 630 223Q563 285 518.5 320.5Q474 356 421.5 379.5Q369 403 309 403Q200 403 133.0 339.0Q66 275 66 153Q66 85 91.5 31.5Q117 -22 164.0 -52.0Q211 -82 273 -82ZM124 472Q198 534 273.0 621.5Q348 709 403 798L320 831Q271 748 201.0 667.5Q131 587 60 533ZM943 528Q899 591 817.5 678.5Q736 766 660 833L593 792Q668 724 748.0 633.5Q828 543 870 479Z" transform="translate(0, 880) scale(1,-1)" /></svg>