<svg xmlns="http://www.w3.org/2000/svg" width="1000" height="1000"><path d="M277 512C282 159 239 8 173 8C150 8 134 37 134 87C134 176 198 268 344 392L300 442C152 330 59 200 59 87C59 -10 103 -62 173 -62C296 -62 356 72 351 585H80V512ZM245 620 302 666C266 714 225 758 179 802L124 758C170 714 210 667 245 620ZM557 813 526 745C600 717 677 680 741 640L777 715C712 751 634 785 557 813ZM630 -73C693 -73 731 8 731 206C731 334 707 441 664 547L597 514C635 409 653 310 653 206C653 75 636 4 616 4C596 4 556 12 512 33V-51C552 -67 592 -73 630 -73ZM355 145 418 98C460 198 503 354 528 486L453 504C433 384 396 241 355 145ZM884 89 958 119C935 227 889 387 838 515L768 479C818 349 864 195 884 89Z" transform="translate(0, 880) scale(1,-1)" /></svg>