<svg xmlns="http://www.w3.org/2000/svg" width="1000" height="1000"><path d="M136 801V726H864V801ZM338 530Q318 567 280.0 615.5Q242 664 202 705L144 668Q183 627 220.0 577.0Q257 527 276 489ZM462 467H538V750H462ZM710 489Q744 523 786.0 573.5Q828 624 863 674L795 711Q770 668 729.5 616.0Q689 564 651 526ZM884 282Q902 311 910.5 338.5Q919 366 919 400Q919 463 842.0 490.5Q765 518 617 518Q476 518 360.0 488.5Q244 459 162 405V497H84V299H162V350Q238 397 361.0 420.5Q484 444 617 444Q696 444 745.5 437.0Q795 430 816.5 419.5Q838 409 838 399Q838 350 811 309ZM128 -40Q270 62 419.0 127.0Q568 192 708 192H922V261H708Q414 261 78 24ZM668 -74Q780 -74 780 47V391H704V55Q704 22 696.5 6.5Q689 -9 662 -9Q641 -9 630.0 2.0Q619 13 619 30Q619 44 626.0 52.5Q633 61 649 66Q661 68 672 68Q697 68 729 61L745 121Q704 132 668 132Q642 132 621 126Q547 104 547 30Q547 -20 580.0 -47.0Q613 -74 668 -74ZM194 346V273H472V346ZM278 302V119H354V302Z" transform="translate(0, 880) scale(1,-1)" /></svg>