<svg xmlns="http://www.w3.org/2000/svg" width="1000" height="1000"><path d="M212 571 282 604C265 657 220 731 180 785L112 757C149 704 190 624 212 571ZM478 597 555 622C542 681 507 757 471 820L398 796C431 734 464 655 478 597ZM697 593 765 573C807 631 853 710 886 777L806 806C781 739 737 656 697 593ZM77 -62H935V14H77ZM563 1H653C722 33 782 91 782 137C782 200 714 263 512 263C321 263 209 217 209 158C209 90 283 63 390 63C522 63 594 105 594 219V495H514V231C514 147 461 126 390 126C320 126 290 142 290 157C290 176 359 198 512 198C657 198 695 158 695 134C695 105 649 47 563 1ZM169 311H913V385H169ZM874 518V590H126V518ZM78 235 146 206C183 285 217 379 245 474L177 492C151 394 116 306 78 235Z" transform="translate(0, 880) scale(1,-1)" /></svg>