<svg xmlns="http://www.w3.org/2000/svg" width="1000" height="1000"><path d="M232 -36C332 -36 423 70 437 224C451 381 413 598 239 679L181 622C344 542 369 369 362 239C355 112 294 39 232 39C176 39 151 67 151 143C151 214 198 312 279 370C386 447 561 521 811 521V588C539 588 345 513 236 432C140 360 75 244 75 143C75 31 130 -36 232 -36ZM437 -47H947V23H437ZM109 551C228 596 379 684 486 775L427 825C332 746 174 647 68 610ZM664 -20C770 85 846 186 882 291L826 319L811 306H655C685 376 722 479 722 681V832H649V681C649 520 628 403 585 316C580 304 569 297 558 293L577 238H779C760 193 696 94 608 10ZM886 472 962 481C954 560 937 646 918 709L847 691C867 630 881 548 886 472Z" transform="translate(0, 880) scale(1,-1)" /></svg>