<svg xmlns="http://www.w3.org/2000/svg" width="1000" height="1000"><path d="M324 170 360 109C522 146 654 180 804 230L755 300L708 282L372 278C436 303 500 334 565 363L504 417C415 368 320 323 231 290C211 283 182 278 154 274L185 203L219 211L508 215C445 198 382 182 324 170ZM467 -80C541 -80 594 -38 594 42C594 104 560 151 498 193L431 156C485 117 511 83 511 42C511 5 485 -11 456 -11C431 -11 379 -3 323 13V-62C371 -76 419 -80 467 -80ZM67 19 121 -23C184 16 248 79 286 130L214 160C184 113 128 58 67 19ZM877 -26 947 9C913 52 844 115 768 165L704 127C778 75 846 16 877 -26ZM280 437 354 422C446 466 525 509 525 575C525 636 448 676 308 676C182 676 97 645 97 582C97 525 153 487 259 487C321 487 362 513 362 559V841H278V589C278 564 266 555 240 555C219 555 182 564 182 582C182 597 217 612 308 612C390 612 437 590 437 572C437 541 401 502 280 437ZM72 347 583 442 565 513 50 421ZM61 699H576V773H61ZM722 832V404H803V832ZM588 439V365H937V439Z" transform="translate(0, 880) scale(1,-1)" /></svg>