<svg xmlns="http://www.w3.org/2000/svg" width="1000" height="1000"><path d="M580 185Q741 185 833.5 236.0Q926 287 926 392Q926 544 586 544Q473 544 307 525L321 455Q453 472 570 472Q699 472 771.0 449.5Q843 427 843 385Q843 322 772.5 289.5Q702 257 580 257Q381 257 179 289V213Q374 185 580 185ZM431 -79Q495 -79 522.0 -60.0Q549 -41 549 16V380H472V29Q472 14 463.0 5.0Q454 -4 438 -5Q359 -9 274 20V-62Q336 -79 431 -79ZM141 471Q256 561 328.5 642.5Q401 724 454 822L370 839Q329 761 258.5 679.5Q188 598 95 531ZM535 510Q667 635 758 744L699 792L672 779H359V707H632Q571 633 471 537Z" transform="translate(0, 880) scale(1,-1)" /></svg>