<svg xmlns="http://www.w3.org/2000/svg" width="1000" height="1000"><path d="M521 526 588 484C629 579 663 696 690 813L623 840C598 722 563 613 521 526ZM88 432 137 365C301 461 436 587 523 710L471 750L455 742H194V668H392C341 598 230 508 88 432ZM216 69C388 69 463 172 463 257C463 365 384 431 279 492L216 449C318 390 379 326 379 257C379 201 329 140 216 140C170 140 148 153 148 181C148 230 234 292 458 380L409 431C180 348 62 262 62 181C62 111 119 69 216 69ZM48 550 121 510C187 600 246 710 293 822L222 848C177 736 117 632 48 550ZM761 733C698 733 641 714 594 684L608 616C653 645 704 658 761 658C824 658 841 617 841 555C841 384 685 165 627 165C604 165 584 193 584 260C584 308 604 354 642 354C708 354 768 196 897 68L945 132C809 256 752 433 642 433C571 433 510 369 510 260C510 151 566 90 627 90C717 90 911 340 911 555C911 673 850 733 761 733ZM116 28V-52H884V28Z" transform="translate(0, 880) scale(1,-1)" /></svg>