<svg xmlns="http://www.w3.org/2000/svg" width="1000" height="1000"><path d="M135 445H214V607Q298 671 385.0 703.5Q472 736 585 736Q709 736 759.5 705.5Q810 675 810 619Q810 583 789.5 561.0Q769 539 714.0 527.5Q659 516 556 516Q454 516 313 526V455Q466 445 550 445Q677 445 750.5 462.5Q824 480 856.5 517.5Q889 555 889 619Q889 700 821.5 753.5Q754 807 585 807Q459 807 366.5 770.5Q274 734 214 669V773H135ZM89 118H915V185H89ZM428 -72Q488 -72 519.0 -41.0Q550 -10 550 52L551 633H469L468 63Q468 31 457.0 15.0Q446 -1 418 -1Q368 -1 309 20V-59Q358 -72 428 -72ZM129 272H875V339H129Z" transform="translate(0, 880) scale(1,-1)" /></svg>