<svg xmlns="http://www.w3.org/2000/svg" width="1000" height="1000"><path d="M228 80Q269 80 303.5 116.0Q338 152 357 218Q395 347 425.5 510.0Q456 673 465 814L391 818Q362 441 285 215Q273 181 256.0 163.5Q239 146 220 146Q198 146 186.0 162.0Q174 178 174 208Q174 241 227.5 280.0Q281 319 370.5 346.0Q460 373 564 373Q675 373 735.0 361.0Q795 349 816.0 328.5Q837 308 837 277Q837 219 797.0 192.0Q757 165 674 165Q541 165 429 173L420 108Q529 99 674 99Q755 99 808.5 124.5Q862 150 887.0 190.5Q912 231 912 277Q912 326 884.0 361.5Q856 397 779.0 419.0Q702 441 564 441Q447 441 340.0 409.0Q233 377 168.0 323.0Q103 269 103 208Q103 156 136.0 118.0Q169 80 228 80ZM122 -39H878V29H122ZM125 474 299 558 274 613 100 539ZM515 29Q556 57 587.5 110.0Q619 163 619 221V406H551V227Q551 174 521.0 118.5Q491 63 447 29ZM416 244H755V298H416ZM380 523Q526 505 631 505Q768 505 837.0 536.5Q906 568 906 633Q906 755 592 755Q459 755 320.5 737.0Q182 719 91 690L103 628Q189 655 324.5 670.0Q460 685 592 685Q709 685 767.5 673.0Q826 661 826 633Q826 602 780.0 586.0Q734 570 630 570Q536 570 380 585Z" transform="translate(0, 880) scale(1,-1)" /></svg>