<svg xmlns="http://www.w3.org/2000/svg" width="1000" height="1000"><path d="M85 769V-57H157V769ZM234 784V496H305V784ZM111 515V445H331V515ZM247 217V-72H319V291H111V217ZM623 745H366V673H914V745H700L658 845L591 826ZM638 295Q692 318 730.0 358.5Q768 399 768 443Q768 472 739.5 496.5Q711 521 658 521Q603 521 577.0 498.5Q551 476 551 448Q551 431 566.0 414.0Q581 397 612.0 385.5Q643 374 687 374Q796 374 855.0 408.0Q914 442 914 505Q914 563 872.5 596.5Q831 630 728 630Q633 630 562.5 610.5Q492 591 437 558L462 504Q515 533 583.5 551.5Q652 570 728 570Q790 570 817.5 549.5Q845 529 845 505Q845 462 807.0 443.0Q769 424 687 424Q647 424 629.5 430.0Q612 436 612 448Q612 460 623.5 467.5Q635 475 658 475Q681 475 694.0 466.5Q707 458 707 443Q707 404 681.5 379.0Q656 354 596 325ZM375 -88Q418 -50 438.0 -13.5Q458 23 463.0 59.5Q468 96 468 156V243Q489 255 516.5 259.5Q544 264 587 264H800Q821 264 833.5 252.5Q846 241 846 223V-3Q846 -13 841.0 -18.0Q836 -23 829 -23Q798 -23 751 -7V-75Q789 -88 833 -88Q875 -88 894.0 -72.5Q913 -57 913 -13V250Q913 332 806 332H585Q544 332 516.5 326.0Q489 320 465 307V328H399V156Q399 88 384.5 44.5Q370 1 321 -35ZM529 152H778V218H529ZM689 310H621L623 6Q623 -10 609 -10Q578 -10 531 2V-66Q581 -74 613 -74Q653 -74 671.0 -56.5Q689 -39 689 -1ZM529 41H778V119H529ZM388 287Q469 458 532 704L472 727Q412 490 326 327Z" transform="translate(0, 880) scale(1,-1)" /></svg>