<svg xmlns="http://www.w3.org/2000/svg" width="1000" height="1000"><path d="M943 796H131V470Q131 324 112.5 199.0Q94 74 35 -23L99 -60Q205 113 205 470V723H943ZM503 49Q564 101 629.0 163.0Q694 225 735 270L675 329L657 317H532Q580 391 602.5 470.5Q625 550 640 696L561 700Q550 562 520.0 472.5Q490 383 424 291L476 240L500 250H606Q535 159 438 78ZM913 6Q576 86 283 127L244 56Q598 2 881 -67ZM297 303Q359 378 403 556L332 576Q316 506 289.0 442.0Q262 378 226 335ZM796 306Q825 351 858.5 417.5Q892 484 921 549L844 576Q826 520 794.0 450.5Q762 381 733 331Z" transform="translate(0, 880) scale(1,-1)" /></svg>