<svg xmlns="http://www.w3.org/2000/svg" width="1000" height="1000"><path d="M511 317Q689 317 779.0 402.5Q869 488 869 653L814 689L790 675H147V603H786Q786 496 711.5 441.0Q637 386 511 386Q384 386 296 409V335Q340 325 390.0 321.0Q440 317 511 317ZM135 27Q189 85 227.5 141.5Q266 198 296 263L227 289Q171 172 75 63ZM442 -61Q489 -61 520.5 -30.0Q552 1 552 58V523H473V71Q473 10 429 10Q377 10 322 28V-49Q381 -61 442 -61ZM925 79Q865 172 770 295L707 258Q788 153 862 36ZM408 693Q369 781 329 836L262 811Q308 741 336 664ZM671 661Q729 734 769 815L691 841Q679 807 656.0 764.5Q633 722 608 686Z" transform="translate(0, 880) scale(1,-1)" /></svg>