<svg xmlns="http://www.w3.org/2000/svg" width="1000" height="1000"><path d="M87 654H913V724H561L507 828L430 812L474 724H87ZM946 -16 974 57C743 111 515 152 282 182L266 114C498 85 730 38 946 -16ZM60 16 127 -31C257 48 352 151 390 249L311 271C265 170 192 90 60 16ZM445 -57C518 -57 556 -23 556 46V421H477V61C477 28 467 11 432 11C388 11 350 19 305 36V-42C349 -53 399 -57 445 -57ZM82 232H918V304H82ZM136 448 163 378C390 380 661 392 846 412L799 480C612 460 370 449 136 448ZM219 461 285 494C268 532 223 586 183 626L119 597C156 557 197 499 219 461ZM481 481 554 505C541 549 506 604 470 650L401 627C434 581 467 523 481 481ZM696 485 760 467C802 509 847 563 880 612L805 641C780 593 736 531 696 485Z" transform="translate(0, 880) scale(1,-1)" /></svg>