<svg xmlns="http://www.w3.org/2000/svg" width="1000" height="1000"><path d="M417 310 42 187 65 115 440 240ZM228 -57C274 -57 308 -38 308 23V838H233V46C233 25 225 13 209 13C179 13 149 17 109 29V-46C150 -54 187 -57 228 -57ZM32 552 99 524C140 602 174 703 192 802L123 816C104 719 73 619 32 552ZM66 405H396V480H66ZM122 622H415V697H122ZM728 457V606C804 649 872 698 927 756L876 808L861 800H451V729H787C750 693 698 658 650 634V463C650 391 618 372 579 372C540 372 496 393 496 442C496 494 571 532 718 532C840 532 880 501 880 455C880 402 842 369 766 354L802 288C908 318 959 370 959 456C959 550 894 600 718 600C534 600 417 553 417 441C417 344 498 300 577 300C648 300 727 337 728 457ZM529 266 498 195C637 174 753 153 853 129L871 203C771 226 654 246 529 266ZM930 -61 955 15C775 58 595 93 420 120L389 46C574 18 754 -17 930 -61Z" transform="translate(0, 880) scale(1,-1)" /></svg>