<svg xmlns="http://www.w3.org/2000/svg" width="1000" height="1000"><path d="M167 803 116 754C167 707 223 649 251 608L304 662C274 702 218 759 167 803ZM147 22 213 7 331 491 272 523 254 511H54V436H242ZM314 131 78 6 110 -69 348 67ZM597 -71C701 -71 750 15 750 168C750 294 677 434 587 511L532 458C617 379 672 267 672 168C672 60 647 1 588 1C549 1 516 8 480 21V-59C512 -67 544 -71 597 -71ZM339 108 397 60C459 124 515 207 555 293L484 329C450 251 397 171 339 108ZM439 418 503 368C629 498 678 628 722 820L643 838C606 647 554 533 439 418ZM874 50 948 85C925 184 886 290 845 371L775 340C815 257 852 148 874 50ZM359 591H920V664H359Z" transform="translate(0, 880) scale(1,-1)" /></svg>