<svg xmlns="http://www.w3.org/2000/svg" width="1000" height="1000"><path d="M87 643H913V718H561L507 828L430 811L474 718H87ZM216 404 284 438C267 484 222 549 182 597L116 567C153 520 194 450 216 404ZM480 427 554 453C541 505 506 571 470 627L400 603C433 548 466 478 480 427ZM696 428 762 408C804 459 850 527 883 585L805 615C780 557 736 483 696 428ZM349 420 322 351C433 335 549 315 644 292L678 367C580 386 464 405 349 420ZM467 -73C541 -73 594 -21 594 74C594 152 561 210 498 263L433 224C487 173 513 126 513 74C513 23 486 -5 458 -5C433 -5 379 1 323 16V-58C371 -69 419 -73 467 -73ZM59 56 121 10C184 64 248 149 286 220L206 250C176 185 120 108 59 56ZM877 6 955 42C921 100 852 186 776 255L704 216C778 146 846 63 877 6Z" transform="translate(0, 880) scale(1,-1)" /></svg>