<svg xmlns="http://www.w3.org/2000/svg" width="1000" height="1000"><path d="M817 513 890 488C919 525 929 563 929 608C929 691 815 726 617 726C426 726 263 682 156 614V711H79V495H156V561C263 622 453 648 617 648C795 648 848 622 848 601C848 571 843 544 817 513ZM499 681 574 699C559 744 531 796 502 837L430 818C456 778 486 723 499 681ZM82 271 150 238C212 328 267 453 293 554L220 567C191 465 138 349 82 271ZM201 379H864L863 453H201ZM465 -89C525 -89 559 -56 559 2V587H480V15C480 -4 468 -18 446 -18C393 -18 341 -9 285 11V-70C343 -83 395 -89 465 -89ZM939 120 959 196C738 224 444 225 55 194V125C439 153 734 146 939 120Z" transform="translate(0, 880) scale(1,-1)" /></svg>