<svg xmlns="http://www.w3.org/2000/svg" width="1000" height="1000"><path d="M201 588 271 623C254 674 207 746 165 799L97 767C135 716 178 639 201 588ZM479 614 556 640C542 697 506 770 468 832L395 806C430 746 464 669 479 614ZM707 613 775 591C819 647 867 723 902 787L821 819C795 754 749 673 707 613ZM166 558V338H245V558ZM405 558V338H483V558ZM689 559V373H767V559ZM598 414V338H897V414ZM725 103 746 32C862 52 919 107 919 179C920 262 820 310 601 310C414 310 225 285 89 254L106 181C241 211 434 235 601 235C770 235 834 206 834 178C834 139 792 113 725 103ZM301 164V90H654V164ZM123 11V-64H857V11Z" transform="translate(0, 880) scale(1,-1)" /></svg>