<svg xmlns="http://www.w3.org/2000/svg" width="1000" height="1000"><path d="M273 -82Q391 -82 480.5 -18.5Q570 45 636.0 153.5Q702 262 763 420L685 446Q614 246 512.0 121.5Q410 -3 273 -3Q218 -3 182.0 37.5Q146 78 146 141Q146 218 187.0 258.5Q228 299 309 299Q353 299 396.0 279.5Q439 260 478.5 229.5Q518 199 581 144Q676 62 749.0 10.0Q822 -42 914 -80L954 -7Q863 29 793.5 78.5Q724 128 632 208Q565 267 520.0 300.5Q475 334 422.0 356.0Q369 378 309 378Q200 378 133.0 317.5Q66 257 66 141Q66 77 91.5 26.0Q117 -25 164.0 -53.5Q211 -82 273 -82ZM0.0 0.0Q0 0 0.0 0.0Q0 0 0.0 0.0ZM108 435Q325 487 505.0 571.5Q685 656 833 797L761 840Q665 745 555.0 681.0Q445 617 329.5 577.5Q214 538 68 504ZM886 492Q740 582 533.5 666.5Q327 751 157 797L111 736Q288 686 489.5 601.5Q691 517 832 425Z" transform="translate(0, 880) scale(1,-1)" /></svg>