<svg xmlns="http://www.w3.org/2000/svg" width="1000" height="1000"><path d="M938 -7Q854 13 788.0 43.5Q722 74 627 126Q557 166 509.5 189.0Q462 212 406.5 227.0Q351 242 289 242Q230 242 183.5 223.0Q137 204 111.0 169.5Q85 135 85 91Q85 25 136.0 -14.0Q187 -53 267 -53Q387 -53 509.0 5.0Q631 63 711.0 144.5Q791 226 791 287Q791 370 724.0 408.0Q657 446 511 446Q361 446 213 402L246 327Q299 347 371.0 359.5Q443 372 511 372Q608 372 655.5 351.0Q703 330 703 287Q703 241 632.0 177.0Q561 113 458.5 67.0Q356 21 267 21Q218 21 193.0 39.5Q168 58 168 91Q168 122 204.0 145.5Q240 169 289 169Q341 169 389.0 154.5Q437 140 479.0 118.0Q521 96 585 58Q675 4 744.0 -29.5Q813 -63 899 -84ZM429 393H515V840H429ZM82 489H165V536Q241 591 363.5 618.5Q486 646 615 646Q729 646 780.5 633.5Q832 621 832 600Q832 578 826.0 559.5Q820 541 806 523L888 492Q904 518 911.0 542.0Q918 566 918 601Q918 671 843.0 697.0Q768 723 615 723Q476 723 361.5 688.0Q247 653 165 589V707H82Z" transform="translate(0, 880) scale(1,-1)" /></svg>