<svg xmlns="http://www.w3.org/2000/svg" width="1000" height="1000"><path d="M243 -54Q309 -54 350.5 -15.0Q392 24 392 99L395 829H315L316 110Q316 70 298.5 50.5Q281 31 243 31Q218 31 193.5 48.0Q169 65 153.5 92.0Q138 119 138 146Q138 219 194.0 271.5Q250 324 347.0 351.0Q444 378 565 378Q698 378 760.5 343.0Q823 308 823 254Q823 193 772.0 146.0Q721 99 622 69L655 18Q724 32 781.0 66.5Q838 101 871.5 149.5Q905 198 905 254Q905 307 872.0 351.5Q839 396 763.5 423.5Q688 451 566 451Q423 451 309.0 416.5Q195 382 128.0 312.5Q61 243 61 142Q61 94 87.0 48.5Q113 3 155.5 -25.5Q198 -54 243 -54ZM733 -58Q713 -21 670.5 42.0Q628 105 593 143L523 112Q592 36 656 -93ZM68 610H804V682H68Z" transform="translate(0, 880) scale(1,-1)" /></svg>