<svg xmlns="http://www.w3.org/2000/svg" width="1000" height="1000"><path d="M185 575V502H924V575ZM226 492V687C450 700 698 728 875 767L831 832C671 796 393 762 149 750V481C149 326 137 132 34 -30L107 -72C214 103 226 325 226 492ZM739 -75C852 -75 881 -1 881 195C881 338 837 417 647 417C568 417 484 410 437 399L449 334C492 342 573 348 647 348C776 348 803 294 803 195C803 47 779 -3 734 -3C712 -3 686 -1 663 6V-69C687 -74 719 -75 739 -75ZM407 -71H620V3H426C393 3 374 18 374 47V228C368 370 445 535 581 663L503 699C365 556 297 412 297 220V19C297 -45 336 -71 407 -71ZM450 81H723V150H450ZM450 210H723V279H450Z" transform="translate(0, 880) scale(1,-1)" /></svg>