<svg xmlns="http://www.w3.org/2000/svg" width="1000" height="1000"><path d="M423 521H504V810H423ZM135 521H216V810H135ZM815 482H882V558H835C803 558 782 581 782 621V824H700V613C700 526 747 482 815 482ZM114 -72H192V289C287 352 380 387 567 387C775 387 823 301 823 205C823 74 736 4 604 4C502 4 406 9 304 21V-56C406 -67 502 -70 604 -70C808 -70 901 59 901 205C901 333 846 464 567 464C363 464 249 408 192 362V450H114ZM256 85 311 32C474 120 653 250 715 315L652 362C592 296 418 166 256 85ZM630 61 684 123C599 185 469 269 379 314L328 260C424 209 552 125 630 61Z" transform="translate(0, 880) scale(1,-1)" /></svg>