<svg xmlns="http://www.w3.org/2000/svg" width="1000" height="1000"><path d="M392 729Q379 754 358.0 787.0Q337 820 316 845L246 818Q266 793 286.5 759.0Q307 725 318 698ZM539 -77Q610 -90 666 -90Q859 -90 859 68Q859 209 632 209Q499 209 364 88V219H287V-67H364V10Q420 73 493.5 102.0Q567 131 627 131Q705 131 741.5 112.0Q778 93 778 53Q778 24 743.0 2.0Q708 -20 637 -20Q593 -20 539 -10ZM77 68Q366 177 553.0 299.0Q740 421 890 570L828 612Q690 486 578.5 405.0Q467 324 343.0 261.5Q219 199 44 136ZM112 712V645H398V547H142V478H398V378H58V303H944V378H472V478H716V547H472V645H890V712H693Q721 748 763 817L684 843Q659 786 611 712Z" transform="translate(0, 880) scale(1,-1)" /></svg>