<svg xmlns="http://www.w3.org/2000/svg" width="1000" height="1000"><path d="M97 -87Q157 -6 184.5 107.0Q212 220 212 325V490H928V564H134V327Q134 229 111.5 128.5Q89 28 35 -46ZM232 -58H892V6H232ZM667 6Q769 70 769 147Q769 198 717.0 228.5Q665 259 564 259Q464 259 405.0 233.5Q346 208 346 164Q346 121 388.0 96.5Q430 72 512 72Q559 72 586.5 92.5Q614 113 614 140V451H538V171Q538 147 526.5 137.0Q515 127 492 127Q472 127 446.5 138.5Q421 150 421 164Q421 204 564 204Q621 204 659.0 187.0Q697 170 697 145Q697 111 669.5 79.0Q642 47 566 6ZM95 525Q159 596 202.0 672.0Q245 748 272 835L197 850Q171 764 131.0 696.5Q91 629 28 563ZM274 321H858V384H273ZM180 678H902V750H180Z" transform="translate(0, 880) scale(1,-1)" /></svg>