<svg xmlns="http://www.w3.org/2000/svg" width="1000" height="1000"><path d="M171 188Q368 230 502.0 290.0Q636 350 728.0 447.0Q820 544 876 694L814 733L788 722H351V651H773Q719 530 633.5 456.0Q548 382 430.0 339.5Q312 297 128 261ZM663 435Q526 501 373 554L336 496Q480 441 609 376ZM188 453Q275 530 346.0 626.0Q417 722 466 822L393 845Q349 748 280.0 659.5Q211 571 125 499ZM126 -79Q173 -32 209.5 31.0Q246 94 262 159L187 180Q173 118 137.0 56.0Q101 -6 57 -48ZM524 -73Q555 -73 586.5 -55.5Q618 -38 661 4L607 70Q585 40 569.0 28.5Q553 17 534 17Q521 17 512.0 33.0Q503 49 492.0 91.0Q481 133 464 218L386 198Q419 44 452.0 -14.5Q485 -73 524 -73ZM951 -41Q924 15 879.5 89.0Q835 163 792 220L723 180Q766 123 806.0 54.0Q846 -15 873 -74Z" transform="translate(0, 880) scale(1,-1)" /></svg>