<svg xmlns="http://www.w3.org/2000/svg" width="1000" height="1000"><path d="M890 488Q911 515 920.0 544.0Q929 573 929 608Q929 726 617 726Q477 726 357.5 696.0Q238 666 156 614V711H79V495H156V561Q232 604 358.0 626.0Q484 648 617 648Q738 648 793.0 634.0Q848 620 848 601Q848 576 841.5 555.5Q835 535 817 513ZM574 699Q563 732 543.5 768.5Q524 805 502 837L430 818Q451 785 470.5 748.0Q490 711 499 681ZM150 238Q196 304 234.5 390.5Q273 477 293 554L220 567Q198 489 160.5 409.0Q123 329 82 271ZM201 379H864L863 453H201ZM465 -89Q510 -89 534.5 -65.5Q559 -42 559 2V587H480V15Q480 0 471.0 -9.0Q462 -18 446 -18Q366 -18 285 11V-70Q370 -89 465 -89ZM959 196Q794 217 574 217Q337 217 55 194V125Q312 143 515 143Q752 143 939 120Z" transform="translate(0, 880) scale(1,-1)" /></svg>