<svg xmlns="http://www.w3.org/2000/svg" width="1000" height="1000"><path d="M473 -80Q599 -80 696.0 -48.5Q793 -17 846.5 37.0Q900 91 900 157Q900 215 863.5 259.0Q827 303 755.0 327.5Q683 352 580 352Q476 352 377 329Q411 366 452.0 433.0Q493 500 519 560L427 580Q404 513 363.5 439.5Q323 366 279 319L251 307L302 243Q358 263 424.0 273.0Q490 283 580 283Q701 283 756.5 251.5Q812 220 812 157Q812 104 760.0 65.5Q708 27 629.5 7.0Q551 -13 473 -13Q390 -13 353.0 -1.0Q316 11 316 40Q316 62 343.0 78.0Q370 94 411 94Q542 94 562 -29L645 -15Q630 66 570.5 112.0Q511 158 412 158Q360 158 318.5 141.0Q277 124 253.5 96.5Q230 69 230 40Q230 -15 291.0 -47.5Q352 -80 473 -80ZM144 423Q226 513 286.0 617.0Q346 721 376 829L297 846Q266 738 208.5 638.0Q151 538 81 470ZM233 544Q318 602 421.5 639.5Q525 677 616 677Q695 677 736.5 652.0Q778 627 778 586Q778 535 732.0 507.5Q686 480 567 480Q502 480 397 491V416Q484 407 552 407Q726 407 795.5 456.0Q865 505 865 586Q865 667 800.5 709.0Q736 751 616 751Q508 751 410.5 708.5Q313 666 223 602Z" transform="translate(0, 880) scale(1,-1)" /></svg>