<svg xmlns="http://www.w3.org/2000/svg" width="1000" height="1000"><path d="M172 458 200 385C438 458 624 583 772 766L699 813L684 799H212V722H624C549 625 347 505 172 458ZM83 573H917V649H83ZM241 36C400 36 524 133 524 270C524 380 479 445 367 505L309 452C400 402 443 351 443 278C443 170 350 110 239 110C169 110 140 130 140 155C140 267 599 357 733 362V133H597V59L953 57V133H817V430L755 453L737 441C548 431 59 333 59 155C59 87 120 36 241 36ZM109 7V-71H891V7Z" transform="translate(0, 880) scale(1,-1)" /></svg>