<svg xmlns="http://www.w3.org/2000/svg" width="1000" height="1000"><path d="M910 -77 957 -7C676 65 531 250 293 250C134 250 56 168 56 86C56 4 117 -68 250 -68C492 -68 623 238 789 551L713 579C552 247 420 3 249 3C181 3 136 39 136 86C136 139 196 176 291 176C487 176 612 20 910 -77ZM568 -29 624 -69C721 16 816 121 875 218L806 259C754 166 664 54 568 -29ZM56 320H950V395H56ZM147 472H598V545H147ZM310 676 380 709C360 753 328 805 292 849L226 818C261 775 289 728 310 676ZM98 619H903V693H98ZM608 696 670 665C707 714 744 773 773 823L695 849C675 803 639 739 608 696Z" transform="translate(0, 880) scale(1,-1)" /></svg>