<svg xmlns="http://www.w3.org/2000/svg" width="1000" height="1000"><path d="M354 561V487C829 456 875 554 875 639C875 727 783 783 624 783C482 783 396 758 305 706C333 750 356 793 374 840L290 853C246 737 165 630 70 557L133 510C185 555 219 592 245 624C362 688 505 711 616 711C729 711 786 678 786 639C786 584 732 531 354 561ZM118 421V349H882V421ZM173 287V216H827V287ZM86 154V80H914V154ZM438 -72C517 -72 560 -31 560 52L561 633H479L478 63C478 23 468 -1 428 -1C399 -1 358 6 319 20V-59C353 -68 391 -72 438 -72Z" transform="translate(0, 880) scale(1,-1)" /></svg>