<svg xmlns="http://www.w3.org/2000/svg" width="1000" height="1000"><path d="M155 803 105 754C155 707 211 649 238 608L289 662C260 702 205 759 155 803ZM137 21 201 6 308 491 250 522 232 511H56V436H222ZM314 147 76 6 110 -69 349 83ZM320 552 388 528C431 612 466 730 485 824L415 833C397 737 362 626 320 552ZM409 659H925L924 727H409ZM482 45V160H405V31C405 -51 445 -68 559 -68H824C908 -68 933 -24 947 107L865 116C858 28 848 2 805 2H570C498 2 482 8 482 45ZM774 84C846 84 886 134 898 291L836 300L818 295H407V223H814C805 178 782 154 750 154C690 154 641 155 587 160V89C643 85 701 84 774 84ZM407 525 441 464C513 510 592 534 698 534C805 534 844 506 844 470C844 401 709 392 501 416V349C733 330 919 335 919 470C919 546 872 602 698 602C571 602 480 573 407 525ZM499 268 560 237C629 310 675 388 697 470L626 474C606 402 564 333 499 268Z" transform="translate(0, 880) scale(1,-1)" /></svg>