<svg xmlns="http://www.w3.org/2000/svg" width="1000" height="1000"><path d="M812 642 886 618C910 652 921 679 921 719C921 789 805 821 617 821C426 821 267 784 160 721V804H82V630H160V671C271 714 453 745 617 745C784 745 839 728 839 708C839 681 833 670 812 642ZM164 -59C286 -59 344 79 344 193C344 284 289 387 164 430L138 361C232 323 268 257 268 190C268 110 235 15 164 15C137 15 120 37 120 76C120 155 190 219 349 322L307 380C151 283 45 193 45 74C45 -15 96 -59 164 -59ZM379 -59H939V13H379ZM162 398 221 380C271 436 330 516 363 573L304 604L292 598H69V527H250C225 483 191 434 162 398ZM342 287 410 239C501 331 574 440 642 563L569 588C500 466 429 363 342 287ZM685 13H763C820 49 861 96 861 160C861 253 783 293 673 293C573 293 484 254 484 176C484 102 543 60 627 60C688 60 723 98 723 148V469H644V170C644 136 632 123 614 123C586 123 562 143 562 176C562 200 599 219 673 219C743 219 782 197 782 158C782 113 764 70 685 13ZM340 507 404 463C463 521 502 584 544 647L475 686C436 620 393 556 340 507ZM488 343H939V415H488ZM454 542H921V615H454Z" transform="translate(0, 880) scale(1,-1)" /></svg>