<svg xmlns="http://www.w3.org/2000/svg" width="1000" height="1000"><path d="M812 646 886 622C910 656 921 686 921 726C921 790 805 823 617 823C426 823 267 786 160 723V811H82V637H160V682C267 741 453 752 617 752C784 752 839 733 839 715C839 688 833 674 812 646ZM164 -62C286 -62 344 76 344 190C344 281 289 374 164 417L143 368C242 330 275 254 275 187C275 107 240 8 164 8C137 8 114 29 114 73C114 162 190 226 349 329L312 367C156 270 45 180 45 71C45 -18 96 -62 164 -62ZM379 -52H939V10H379ZM166 395 218 377C268 433 327 513 360 570L315 601L302 595H69V524H258C232 480 197 431 166 395ZM352 274 410 236C501 328 574 437 642 560L579 575C510 453 439 350 352 274ZM685 10H753C819 48 855 93 855 157C855 243 778 284 673 284C573 284 490 247 490 173C490 99 543 57 627 57C683 57 718 95 718 145V466H649V167C649 133 635 120 614 120C584 120 554 140 554 173C554 200 599 221 673 221C740 221 789 190 789 155C789 110 772 67 685 10ZM350 494 404 460C463 518 502 581 544 644L485 673C446 607 403 543 350 494ZM488 340H939V402H488ZM454 539H921V602H454Z" transform="translate(0, 880) scale(1,-1)" /></svg>