<svg xmlns="http://www.w3.org/2000/svg" width="1000" height="1000"><path d="M97 -87C185 31 212 206 212 325V490H928V564H134V327C134 221 115 63 35 -46ZM232 -58H892V6H232ZM566 6H667C732 47 769 93 769 147C769 213 703 259 564 259C430 259 346 222 346 164C346 109 400 72 512 72C578 72 614 107 614 140V451H538V171C538 138 522 127 492 127C469 127 421 144 421 164C421 188 460 204 564 204C641 204 697 178 697 145C697 104 675 65 566 6ZM95 525C182 621 237 721 272 835L197 850C162 736 112 651 28 563ZM274 321H858V384H273ZM180 678H902V750H180Z" transform="translate(0, 880) scale(1,-1)" /></svg>