<svg xmlns="http://www.w3.org/2000/svg" width="1000" height="1000"><path d="M318 646 380 690C346 736 309 779 268 821L210 779C250 737 286 692 318 646ZM77 631V557H487V631ZM342 596V-54H419V596ZM140 500V147H219V500ZM74 167 94 93 490 213 470 287ZM491 479 565 442C607 546 646 677 678 809L605 831C574 696 534 575 491 479ZM477 -9 529 -64C703 45 867 240 917 622L868 656L851 643H577V566H832C783 272 647 96 477 -9ZM888 -75 944 -13C807 162 695 280 567 374L523 319C650 220 757 104 888 -75Z" transform="translate(0, 880) scale(1,-1)" /></svg>