<svg xmlns="http://www.w3.org/2000/svg" width="1000" height="1000"><path d="M698 -64C889 -64 926 48 926 382C926 628 860 733 694 733C581 733 480 704 431 671L459 592C504 626 595 653 694 653C826 653 846 561 846 382C846 116 819 14 695 14C653 14 614 19 572 30V-54C616 -61 651 -64 698 -64ZM196 -62C338 -62 399 115 399 256C399 375 340 494 196 549L171 487C286 438 325 341 325 256C325 151 286 18 196 18C162 18 137 41 137 101C137 214 228 301 411 431L367 485C187 362 59 239 59 101C59 -17 117 -62 196 -62ZM254 498C312 570 383 672 420 745L370 782L355 774H75V699H311C281 638 239 570 205 522ZM695 196 751 247C710 310 630 401 556 461L505 415C577 353 656 258 695 196Z" transform="translate(0, 880) scale(1,-1)" /></svg>