<svg xmlns="http://www.w3.org/2000/svg" width="1000" height="1000"><path d="M652 481Q667 508 667 536Q667 564 649.0 588.5Q631 613 594.0 628.5Q557 644 503 644Q422 644 383.0 614.5Q344 585 344 545Q344 520 366.5 498.0Q389 476 434.5 462.5Q480 449 546 449Q705 449 792.0 500.5Q879 552 879 648Q879 821 598 821Q459 821 362.5 798.0Q266 775 183 735L221 677Q391 753 598 753Q700 753 745.5 723.5Q791 694 791 648Q791 579 730.0 543.0Q669 507 546 507Q426 507 426 545Q426 563 445.5 575.0Q465 587 503 587Q541 587 562.5 574.0Q584 561 584 536Q584 511 574 492ZM163 801V473H244V801ZM910 -15Q529 39 146 72L102 4Q530 -35 875 -84ZM155 187Q233 243 284 369L211 391Q193 341 160.0 294.5Q127 248 83 217ZM761 189Q795 221 836.5 269.0Q878 317 913 364L833 391Q810 350 771.5 300.0Q733 250 698 215ZM479 421Q463 349 428.0 296.0Q393 243 326 187L373 137L402 144H526Q453 86 339 31L407 5Q592 98 685 159L627 217L605 209H449Q495 254 519.0 299.5Q543 345 559 416Z" transform="translate(0, 880) scale(1,-1)" /></svg>