<svg xmlns="http://www.w3.org/2000/svg" width="1000" height="1000"><path d="M215 601 284 635C267 685 222 756 182 808L115 777C152 726 193 651 215 601ZM479 626 554 652C541 708 506 779 470 840L399 815C432 756 465 681 479 626ZM696 625 763 604C805 659 851 733 884 796L805 827C780 764 736 684 696 625ZM210 -82C257 -82 281 -60 281 4V596H212V6C212 -9 207 -16 194 -16C168 -16 136 -9 101 6V-72C135 -78 172 -82 210 -82ZM65 394H400V463H65ZM410 260 385 326 47 183 73 114ZM627 79 671 7C838 55 915 151 915 250C915 355 858 429 668 429C530 429 436 364 436 279C436 219 476 161 567 161C678 161 748 236 748 365V491H943V566H402V491H674V376C674 301 633 229 567 229C528 229 511 255 511 279C511 316 566 359 668 359C800 358 841 305 841 254C841 193 766 117 627 79ZM936 -76 948 2C770 -14 635 -13 549 17C496 35 460 80 445 144L370 120C392 27 441 -29 510 -52C605 -83 745 -92 936 -76Z" transform="translate(0, 880) scale(1,-1)" /></svg>