<svg xmlns="http://www.w3.org/2000/svg" width="1000" height="1000"><path d="M943 795H131V470Q131 324 112.5 199.0Q94 74 35 -23L100 -60Q206 113 206 470V720H943ZM294 634V562H807V634ZM563 -64Q669 -64 756.5 -40.0Q844 -16 894.5 26.5Q945 69 945 122Q945 169 913.5 206.5Q882 244 817.0 266.0Q752 288 656 288Q595 288 542 280Q713 347 861 413L808 476L787 470H255V398H676Q531 325 377 267Q347 257 294 245L331 182Q392 201 471.0 212.0Q550 223 622 223Q742 223 802.0 197.0Q862 171 862 122Q862 58 770.0 29.5Q678 1 550 1Q491 1 456.5 12.5Q422 24 422 43Q422 58 443.5 68.0Q465 78 497 78Q555 78 587.5 56.5Q620 35 629 -17L702 -6Q673 133 498 133Q453 133 417.5 119.5Q382 106 362.0 84.5Q342 63 342 39Q342 9 369.0 -14.0Q396 -37 446.0 -50.5Q496 -64 563 -64Z" transform="translate(0, 880) scale(1,-1)" /></svg>