<svg xmlns="http://www.w3.org/2000/svg" width="1000" height="1000"><path d="M63 -9 109 -84C420 22 685 173 921 402L855 447C641 231 355 89 63 -9ZM699 -80C842 -80 905 15 905 169C905 280 801 335 674 336C458 338 274 314 97 279L113 207C287 242 470 262 666 260C773 259 820 228 820 167C820 65 779 -10 695 -10C634 -10 581 -4 523 10V-69C577 -77 636 -80 699 -80ZM362 310 426 272C529 375 580 449 580 597H492C492 467 458 399 362 310ZM310 535V459C738 403 893 487 893 632C893 723 833 807 593 807C396 807 253 715 206 636V773H131V444H206V573C289 665 412 732 593 732C765 732 813 690 813 632C813 563 747 481 310 535Z" transform="translate(0, 880) scale(1,-1)" /></svg>