<svg xmlns="http://www.w3.org/2000/svg" width="1000" height="1000"><path d="M353 27H500C584 71 656 152 656 268C656 371 590 419 481 419C371 419 305 364 305 281C305 189 386 140 481 140C509 140 532 148 552 161C521 102 434 45 353 27ZM58 -46H950V27H58ZM481 217C423 217 391 242 391 281C391 315 424 346 481 346C535 346 568 317 568 284C568 238 531 217 481 217ZM279 435 351 455C325 582 292 704 251 823L178 804C220 685 253 562 279 435ZM51 583H951V655H51ZM460 487H535V821H460ZM575 346 637 321C720 447 791 648 815 826L733 836C716 662 654 465 575 346Z" transform="translate(0, 880) scale(1,-1)" /></svg>