<svg xmlns="http://www.w3.org/2000/svg" width="1000" height="1000"><path d="M99 537 162 503C216 596 263 727 287 831L219 844C194 737 148 617 99 537ZM203 652H893L892 725H203ZM401 373 461 332C596 383 722 457 797 512L750 567L735 559H263V483H624C580 453 501 412 401 373ZM683 -91C846 -91 903 59 903 187C903 339 787 403 596 403C421 403 235 349 128 298L157 224C271 275 445 323 596 323C752 323 822 266 822 187C822 62 785 -17 679 -17C607 -17 549 -12 501 2V-79C547 -87 598 -91 683 -91ZM285 86 329 28C477 93 637 190 693 237L643 289C588 240 439 147 285 86ZM612 47 661 109C580 157 463 221 381 256L340 202C428 161 540 98 612 47Z" transform="translate(0, 880) scale(1,-1)" /></svg>