<svg xmlns="http://www.w3.org/2000/svg" width="1000" height="1000"><path d="M144 43 215 14C278 110 337 211 401 358L345 399L333 386H226C263 488 297 647 320 812L243 820C219 644 181 468 119 335L182 295L198 319H299C270 241 211 133 144 43ZM47 535H464V609H47ZM59 8 99 -58 457 134 413 200ZM530 417V341C803 302 906 384 906 579C906 742 836 809 689 809C565 809 470 752 431 715L471 653C513 691 595 731 689 731C790 731 829 680 829 579C829 422 745 381 530 417ZM374 11 404 -66C636 -7 691 167 691 386V596H616V388C616 227 598 70 374 11ZM777 -65H849C942 -65 955 -4 964 158L896 166C890 31 882 6 846 6H788C756 6 748 13 748 43V253H674V23C674 -46 702 -65 777 -65Z" transform="translate(0, 880) scale(1,-1)" /></svg>