<svg xmlns="http://www.w3.org/2000/svg" width="1000" height="1000"><path d="M366 312Q456 301 522 301Q694 301 775.5 365.5Q857 430 857 560Q857 683 779.5 746.0Q702 809 547 809Q439 809 352.5 774.0Q266 739 223 693V606Q276 663 361.0 697.5Q446 732 547 732Q665 732 721.5 686.5Q778 641 778 560Q778 463 713.0 419.0Q648 375 515 375Q445 375 366 385ZM80 -66Q257 -27 356.5 34.0Q456 95 495.0 180.0Q534 265 534 386V596H452V388Q452 285 424.0 217.5Q396 150 310.0 97.5Q224 45 55 6ZM147 303H223V780H147ZM917 -8Q861 29 763.5 77.5Q666 126 572 167L532 107Q622 67 720.0 14.5Q818 -38 871 -76Z" transform="translate(0, 880) scale(1,-1)" /></svg>