<svg xmlns="http://www.w3.org/2000/svg" width="1000" height="1000"><path d="M392 671Q378 704 348.5 748.0Q319 792 287 828L224 798Q256 760 284.0 715.0Q312 670 324 637ZM666 609Q719 682 792 808L711 833Q692 789 661.0 733.5Q630 678 600 637ZM119 569H881V643H119ZM959 320Q794 341 570 341Q341 341 55 319V247Q313 265 518 265Q753 265 939 242ZM686 551Q640 512 582.5 475.0Q525 438 468 408V23Q468 9 457.0 0.0Q446 -9 428 -9Q341 -9 266 16V-65Q307 -74 346.0 -77.5Q385 -81 441 -81Q483 -81 515.0 -56.0Q547 -31 547 11V371Q653 430 741 499Z" transform="translate(0, 880) scale(1,-1)" /></svg>