<svg xmlns="http://www.w3.org/2000/svg" width="1000" height="1000"><path d="M667 39Q728 56 775.5 92.0Q823 128 848.5 172.0Q874 216 874 256Q874 331 804.0 374.5Q734 418 580 418Q471 418 382.0 392.0Q293 366 242.5 324.5Q192 283 192 237Q192 180 235.0 141.5Q278 103 357 103Q430 103 487.0 132.5Q544 162 575.5 219.0Q607 276 607 355Q607 425 567.5 480.0Q528 535 476 558L429 514Q480 485 503.5 450.5Q527 416 527 355Q527 264 480.5 220.5Q434 177 354 177Q276 177 276 237Q276 259 314.0 286.0Q352 313 421.5 332.0Q491 351 580 351Q694 351 742.0 322.5Q790 294 790 256Q790 225 769.5 194.5Q749 164 709.5 139.5Q670 115 617 103ZM945 21Q761 7 625 7Q403 7 281 44Q217 63 170.5 115.5Q124 168 105 239L31 216Q57 122 113.0 62.5Q169 3 251 -21Q409 -66 664 -66Q790 -66 926 -56ZM163 568H370V632H163ZM281 414Q430 463 517.5 544.5Q605 626 635 750L554 754Q527 651 455.0 587.0Q383 523 248 478ZM168 701Q341 705 530.0 720.5Q719 736 865 759L836 826Q705 805 519.0 790.5Q333 776 153 771ZM647 568H854V632H647Z" transform="translate(0, 880) scale(1,-1)" /></svg>