<svg xmlns="http://www.w3.org/2000/svg" width="1000" height="1000"><path d="M124 -67Q347 -23 466.5 65.0Q586 153 631.0 291.5Q676 430 676 652H593Q593 443 551.5 317.0Q510 191 400.5 116.0Q291 41 84 5ZM71 251H935V326H71ZM217 405H495V471H217ZM935 -9Q888 38 813.5 88.5Q739 139 661 179L612 121Q688 82 760.0 30.5Q832 -21 878 -70ZM217 529H495V594H217ZM890 540Q929 595 929 670Q929 790 617 790Q477 790 358.5 758.5Q240 727 157 671V781H79V558H157V619Q232 666 357.0 689.0Q482 712 617 712Q738 712 792.5 697.5Q847 683 847 663Q847 635 840.5 613.0Q834 591 816 568Z" transform="translate(0, 880) scale(1,-1)" /></svg>