<svg xmlns="http://www.w3.org/2000/svg" width="1000" height="1000"><path d="M78 755V680H442V755ZM223 712V95H297V712ZM73 60 97 -12 470 110 446 182ZM128 262 199 286C187 357 160 461 138 538L69 519C94 443 118 335 128 262ZM318 280 385 262C404 329 433 437 452 528L380 547C367 461 338 351 318 280ZM545 417V341C801 302 896 384 896 579C896 743 832 809 694 809C580 809 494 756 458 722L496 660C534 694 609 731 694 731C785 731 820 680 820 579C820 422 745 382 545 417ZM405 10 436 -66C645 -8 699 166 699 386V596H624V388C624 227 605 70 405 10ZM775 -65H840C929 -65 940 -4 949 158L882 166C876 31 869 6 835 6H789C759 6 751 13 751 43V253H677V23C677 -46 703 -65 775 -65Z" transform="translate(0, 880) scale(1,-1)" /></svg>