<svg xmlns="http://www.w3.org/2000/svg" width="1000" height="1000"><path d="M366 341Q447 331 521 331Q694 331 775.5 391.5Q857 452 857 575Q857 690 779.5 749.5Q702 809 547 809Q473 809 408.0 790.5Q343 772 295.5 742.5Q248 713 223 681V590Q275 659 359.5 698.0Q444 737 547 737Q778 737 778 575Q778 483 712.5 440.0Q647 397 515 397Q445 397 366 407ZM80 -66Q258 -39 356.0 20.0Q454 79 491.5 167.5Q529 256 529 386V596H448V388Q448 285 426.5 218.5Q405 152 319.5 94.0Q234 36 55 2ZM147 303H223V780H147ZM797 -65Q858 -65 888.0 -46.0Q918 -27 930.0 16.0Q942 59 949 148L876 179Q872 104 866.0 67.5Q860 31 847.5 15.5Q835 0 811 0H670Q639 0 628.5 7.5Q618 15 618 37V253H543V23Q543 -28 573.0 -46.5Q603 -65 680 -65Z" transform="translate(0, 880) scale(1,-1)" /></svg>