<svg xmlns="http://www.w3.org/2000/svg" width="1000" height="1000"><path d="M357 807 281 814C241 526 133 230 40 68L111 33C203 201 316 507 357 807ZM321 7C289 7 266 19 266 48C266 92 319 192 429 302L374 345C253 237 192 117 192 48C192 -25 243 -69 321 -69C429 -69 483 7 483 172C483 337 419 403 331 403C264 403 213 389 178 360L201 290C241 315 288 326 331 326C382 326 405 272 405 172C405 41 363 7 321 7ZM57 511H520V584H57ZM684 119 727 68C845 160 937 258 935 414C934 522 821 594 676 551C730 624 778 703 823 788L745 823C700 721 647 619 580 522C574 514 557 503 535 494L570 428C718 511 852 505 853 399C854 294 803 210 684 119ZM834 -93 902 -41C820 52 711 144 596 226L545 174C660 96 761 -4 834 -93Z" transform="translate(0, 880) scale(1,-1)" /></svg>