<svg xmlns="http://www.w3.org/2000/svg" width="1000" height="1000"><path d="M801 448 855 394C897 428 932 472 932 536C932 626 843 688 583 688C406 688 263 655 153 594V665H77V414H153V538C267 585 418 614 582 614C798 614 850 570 850 536C850 503 835 475 801 448ZM461 494H540V777H461ZM703 521 298 520V448H703ZM823 815 168 814V741H823ZM79 229 137 176C254 258 363 360 450 463L392 504C307 402 199 306 79 229ZM574 385C423 385 330 363 218 327L233 253C345 292 438 311 574 311C677 311 734 285 734 252C734 141 412 1 301 1C239 1 215 29 215 71C215 107 244 142 324 142C459 142 629 6 873 -95L927 -36C689 58 489 211 324 211C215 211 134 159 134 71C134 -14 188 -75 302 -75C466 -75 824 98 824 252C824 343 724 385 574 385Z" transform="translate(0, 880) scale(1,-1)" /></svg>