<svg xmlns="http://www.w3.org/2000/svg" width="1000" height="1000"><path d="M814 539 893 511C917 553 928 585 928 633C928 718 812 753 617 753C426 753 263 708 156 633V739H78V529H156V584C263 654 453 685 617 685C784 685 846 656 846 632C846 599 838 569 814 539ZM491 697 566 718C552 760 534 807 508 852L436 831C462 788 480 743 491 697ZM0.0 0.0Q0 0 0.0 0.0Q0 0 0.0 0.0ZM366 219V152C708 127 857 188 857 315C857 415 756 469 547 469C391 469 273 431 223 397V323C291 368 408 400 547 400C710 400 778 379 778 315C778 213 636 199 366 219ZM69 2 94 -69C415 -32 554 65 554 337H472C472 88 346 36 69 2ZM167 168H243V452H167ZM885 -81 931 -13C850 18 685 67 572 95L532 31C648 3 812 -50 885 -81ZM512 658 434 679C397 636 332 570 278 529L346 496L381 528H601C573 497 539 468 502 441L559 411C617 458 674 512 713 558L659 592L647 588H443Z" transform="translate(0, 880) scale(1,-1)" /></svg>