<svg xmlns="http://www.w3.org/2000/svg" width="1000" height="1000"><path d="M312 680 388 708C372 741 341 796 306 833L233 805C265 767 294 720 312 680ZM88 627H919V700H88ZM615 690 683 664C723 712 756 762 782 811L701 837C682 791 653 737 615 690ZM164 589 113 540C165 505 225 461 254 431L307 484C276 513 217 556 164 589ZM145 0 213 -11 333 351 271 380 252 370H52V299H236ZM343 105 75 -1 110 -72 378 41ZM553 340 628 300C713 359 798 433 866 507L803 553L791 543H536V470H714C680 434 621 384 553 340ZM357 427 412 370C499 428 591 501 659 581L588 618C528 544 445 479 357 427ZM483 51V178H407V39C407 -46 446 -63 569 -63H832C917 -63 943 -19 957 115L877 125C869 33 859 7 814 7H579C498 7 483 13 483 51ZM785 124C855 124 895 169 907 344L847 359L829 349H399V276H825C816 211 794 196 762 196C701 196 652 198 599 204V130C654 126 712 124 785 124Z" transform="translate(0, 880) scale(1,-1)" /></svg>