<svg xmlns="http://www.w3.org/2000/svg" width="1000" height="1000"><path d="M77 774V698H925V774ZM635 -79Q683 -79 716.0 -51.0Q749 -23 768.5 59.5Q788 142 788 296Q788 442 735.5 506.0Q683 570 606 570Q549 570 504.0 561.0Q459 552 418 534L441 460Q477 477 516.0 484.5Q555 492 606 492Q652 492 679.0 439.0Q706 386 706 297Q706 -7 625 -7Q596 -7 560.0 1.5Q524 10 491 25V-56Q562 -79 635 -79ZM217 223 587 277 576 350 295 312Q333 401 366.5 505.0Q400 609 421 710L335 718Q316 612 288.0 513.0Q260 414 229 347Q219 325 211.5 311.5Q204 298 195 293Z" transform="translate(0, 880) scale(1,-1)" /></svg>