<svg xmlns="http://www.w3.org/2000/svg" width="1000" height="1000"><path d="M597 376Q733 403 799.0 459.0Q865 515 865 587Q865 663 799.0 702.0Q733 741 621 741Q525 741 450.5 715.5Q376 690 302 636Q351 726 376 819L294 836Q263 728 205.5 628.0Q148 528 78 460L144 413Q205 480 251 549Q332 606 431.5 636.5Q531 667 613 667Q687 667 732.5 645.0Q778 623 778 587Q778 537 720.0 499.5Q662 462 567 451ZM196 -11Q195 5 195 38Q195 186 235 346L155 355Q134 280 122.5 198.5Q111 117 111 41Q111 24 113 -10ZM471 -50Q513 -50 551.0 -41.5Q589 -33 634 -13V76Q542 27 479 27Q462 27 450.0 42.0Q438 57 438 80Q438 132 448.0 187.5Q458 243 481 342L491 384L415 394Q383 274 369.5 205.5Q356 137 356 74Q356 22 388.5 -14.0Q421 -50 471 -50ZM905 -17Q895 71 868.0 172.0Q841 273 805 355L727 337Q760 261 785.0 162.0Q810 63 820 -23Z" transform="translate(0, 880) scale(1,-1)" /></svg>