<svg xmlns="http://www.w3.org/2000/svg" width="1000" height="1000"><path d="M143 796V349C143 172 116 75 31 -32L102 -72C191 43 223 164 223 346V796ZM243 438 285 374C439 455 571 527 705 634L644 689L604 655H418C463 697 512 750 559 807L485 848C429 774 371 715 314 665C303 655 288 648 273 643L310 578L334 591H515C444 542 340 482 243 438ZM403 -60C581 -60 664 37 664 135C664 216 593 290 410 323L383 260C531 233 583 187 583 135C583 66 522 14 403 14C356 14 330 27 330 55C330 108 450 157 685 228L632 281C406 211 240 147 240 55C240 -23 305 -60 403 -60ZM415 304 476 275C561 320 645 373 694 415L642 464L623 455H290V385H538C506 357 466 330 415 304ZM813 67V796H733V69C733 -30 757 -58 824 -58H870C952 -58 969 -21 975 151L902 166C899 24 890 16 866 16H843C822 16 813 27 813 67Z" transform="translate(0, 880) scale(1,-1)" /></svg>