<svg xmlns="http://www.w3.org/2000/svg" width="1000" height="1000"><path d="M814 539 893 511C917 553 928 585 928 633C928 718 812 753 617 753C426 753 263 708 156 633V739H78V529H156V584C263 654 453 685 617 685C784 685 846 656 846 632C846 599 838 569 814 539ZM491 697 566 718C552 760 534 807 508 852L436 831C462 788 480 743 491 697ZM366 223V148C708 123 857 179 857 308C857 409 756 459 547 459C391 459 273 422 223 389V311C291 355 408 387 547 387C710 387 778 364 778 308C778 212 639 200 366 223ZM69 1 94 -69C415 -33 554 62 554 330H472C472 85 346 34 69 1ZM167 164H243V443H167ZM885 -81 931 -14C850 16 685 64 572 92L532 29C648 2 812 -51 885 -81ZM512 658 426 683C385 640 303 574 243 533L318 496L357 528H611C580 497 543 468 502 441L576 411C639 458 702 512 745 558L686 596L665 588H436Z" transform="translate(0, 880) scale(1,-1)" /></svg>