<svg xmlns="http://www.w3.org/2000/svg" width="1000" height="1000"><path d="M575 533 652 511C662 529 668 549 668 569C668 621 626 664 513 664C399 664 355 623 355 576C355 527 416 482 544 482C788 482 875 559 875 643C875 731 783 786 624 786C482 786 396 762 306 712C334 755 357 795 374 840L290 853C246 739 165 635 70 563L133 516C185 560 219 596 245 628C362 690 505 712 616 712C729 712 786 681 786 643C786 591 745 553 544 553C472 553 436 563 436 574C436 587 463 598 513 598C563 598 586 587 586 569C586 556 582 545 575 533ZM813 235 891 209C913 257 922 285 922 313C922 394 818 436 587 436C417 436 265 409 165 371V422H83V226H165V303C277 336 433 358 587 358C782 358 837 337 837 307C837 290 831 271 813 235ZM479 -79C701 -79 876 -21 876 103C876 208 782 268 576 268C517 268 460 265 394 258C445 309 503 371 581 463L499 493C444 420 364 327 286 255C268 238 233 231 200 223L238 161C322 186 441 201 541 201C711 201 791 166 791 104C791 21 618 -14 466 -14C384 -14 331 0 331 21C331 40 365 53 411 53C486 53 537 36 549 -32L624 -22C604 68 535 114 412 114C315 114 250 70 250 18C250 -48 336 -79 479 -79Z" transform="translate(0, 880) scale(1,-1)" /></svg>