<svg xmlns="http://www.w3.org/2000/svg" width="1000" height="1000"><path d="M599 -55Q735 -47 826.5 -2.0Q918 43 918 130Q918 189 886.5 226.0Q855 263 795 263Q788 263 770 261L890 437L835 499Q702 500 582.5 472.0Q463 444 388.5 389.0Q314 334 314 258Q314 197 342.5 165.0Q371 133 424 133Q468 133 510.5 162.5Q553 192 585 250L627 321Q712 465 764.0 557.0Q816 649 853 732L796 765L783 752H540V688H750Q725 632 675.5 544.5Q626 457 553 331Q537 303 520 275Q506 250 477.5 228.5Q449 207 427 207Q406 207 395.0 218.5Q384 230 384 258Q384 304 445.5 342.5Q507 381 604.0 403.5Q701 426 803 426Q766 354 677 240L710 183Q745 191 768 191Q805 191 824.0 175.0Q843 159 843 130Q843 102 806.0 77.0Q769 52 711.5 37.5Q654 23 595 23Q577 23 568 24ZM90 -58 312 99 282 162 59 17ZM188 40 292 475 238 509 221 493H60V420H210L127 49ZM298 651Q271 680 221.5 722.5Q172 765 123 803L78 753Q127 715 176.5 670.5Q226 626 251 595ZM416 474Q495 562 537.5 634.5Q580 707 623 821L550 841Q516 741 471.5 669.0Q427 597 360 534Z" transform="translate(0, 880) scale(1,-1)" /></svg>