<svg xmlns="http://www.w3.org/2000/svg" width="1000" height="1000"><path d="M561 -70C793 -70 926 30 926 287C926 448 798 580 547 580C309 580 150 512 65 462L105 396C179 446 330 504 547 504C749 504 845 390 845 287C845 76 739 1 557 1C511 1 445 10 385 27V-51C446 -65 509 -70 561 -70ZM247 76C284 159 320 279 336 381L263 391C251 298 215 182 179 106ZM559 72 638 93C620 175 581 305 543 405L469 384C507 285 543 153 559 72ZM407 552H476L601 713H517ZM134 712H866V788H134Z" transform="translate(0, 880) scale(1,-1)" /></svg>