<svg xmlns="http://www.w3.org/2000/svg" width="1000" height="1000"><path d="M45 526 97 460C392 544 550 700 608 816L519 835C471 726 346 603 45 526ZM481 397C536 397 583 405 644 427V513C582 487 537 474 495 474C472 474 461 479 461 501V652H382V484C382 422 414 397 481 397ZM903 448 956 513C857 563 734 619 627 659L580 599C686 557 806 501 903 448ZM88 683H912V760H88ZM789 -85C838 -85 871 -65 871 9V219C871 334 822 377 675 377H417C307 377 244 366 190 347V272C252 292 311 302 411 302H670C759 302 791 277 791 211V12C791 -10 784 -20 766 -20C724 -20 679 -13 632 2V-74C680 -82 727 -85 789 -85ZM129 -74H209V372H129ZM287 248V176H713V248ZM287 128V56H713V128Z" transform="translate(0, 880) scale(1,-1)" /></svg>