<svg xmlns="http://www.w3.org/2000/svg" width="1000" height="1000"><path d="M129 483 328 549 297 615 99 550ZM524 574V498C840 483 937 543 937 628C937 711 844 762 599 762C386 762 189 725 69 683L107 613C219 654 406 687 599 687C763 687 850 670 850 628C850 581 741 560 524 574ZM560 16V838H480L482 25C482 12 479 6 464 6C431 6 397 11 351 21V-49C396 -56 435 -60 472 -60C542 -60 560 -37 560 16ZM32 -42 90 -92C224 11 227 95 227 222V364C288 379 339 385 421 385H738C786 385 813 367 813 338V-2C813 -18 803 -25 790 -25C761 -25 722 -20 674 -7V-77C717 -87 757 -91 791 -91C858 -91 887 -75 887 -11V357C887 416 843 454 742 454H419C336 454 286 446 224 426V450H153V222C153 115 143 32 32 -42ZM335 237H705V304H335ZM335 99H705V173H335Z" transform="translate(0, 880) scale(1,-1)" /></svg>