<svg xmlns="http://www.w3.org/2000/svg" width="1000" height="1000"><path d="M311 701 388 729C372 758 342 808 309 841L236 813C266 779 294 737 311 701ZM88 657H919V728H88ZM615 714 684 688C723 730 755 775 779 818L700 844C681 804 652 755 615 714ZM266 253C436 253 510 332 510 398C510 481 419 523 296 565L238 522C357 482 427 442 427 398C427 359 379 321 266 321C213 321 191 331 191 348C191 377 281 425 525 493L474 541C223 477 101 411 101 348C101 295 160 253 266 253ZM78 522 121 462C271 502 413 547 527 594L484 655C371 605 231 561 78 522ZM673 622V324H753V622ZM564 360V286H891V360ZM56 -21 100 -85C495 -8 548 124 547 284H466C465 137 435 51 56 -21ZM885 -95 939 -36C826 19 695 73 580 113L538 55C655 12 784 -42 885 -95ZM73 133H927V209H73Z" transform="translate(0, 880) scale(1,-1)" /></svg>