<svg xmlns="http://www.w3.org/2000/svg" width="1000" height="1000"><path d="M249 836 195 785C250 763 311 736 342 717L398 770C365 789 304 815 249 836ZM219 467 293 449 468 670 404 707 385 699H83V633H346ZM507 556 122 474 150 407 534 494ZM482 398 523 334C674 422 794 501 925 618L863 669L818 627H632C679 678 732 742 781 808L708 847C654 763 597 697 542 641C530 629 515 621 499 615L532 550L555 562H740C671 507 576 447 482 398ZM366 212V139C708 119 859 158 859 269C859 373 756 405 547 405C364 405 223 358 167 316L212 255C282 305 403 332 547 332C710 332 777 310 777 269C777 210 635 190 366 212ZM55 -7 80 -76C466 -42 529 39 529 167V285H448V177C448 95 437 25 55 -7ZM147 134H223V381H147ZM680 -71H797C920 -71 937 -17 949 95L876 103C868 17 859 -3 811 -3H670C629 -3 618 4 618 28V108H543V3C543 -47 580 -71 680 -71Z" transform="translate(0, 880) scale(1,-1)" /></svg>