<svg xmlns="http://www.w3.org/2000/svg" width="1000" height="1000"><path d="M535 92Q461 132 426.5 206.0Q392 280 392 388Q392 526 445 730H930V797H69V730H364Q317 527 317 386Q317 111 481 35ZM642 -69Q791 -54 870.5 -4.5Q950 45 950 137Q950 233 835.5 277.5Q721 322 500 322Q364 322 263.5 297.0Q163 272 108.5 225.5Q54 179 54 114Q54 31 116.0 -13.0Q178 -57 281 -57Q383 -57 473.0 5.5Q563 68 624.0 176.0Q685 284 702 416L624 421Q611 303 561.5 212.0Q512 121 438.0 71.0Q364 21 281 21Q211 21 173.0 44.5Q135 68 135 114Q135 147 173.0 178.0Q211 209 293.5 229.5Q376 250 500 250Q623 250 706.0 233.5Q789 217 829.0 190.5Q869 164 869 133Q869 73 805.5 43.5Q742 14 608 3ZM109 386H180V467Q262 524 375.0 550.0Q488 576 604 576Q697 576 758.0 562.0Q819 548 819 527Q819 501 752.5 485.0Q686 469 567 469Q541 469 479 471V397Q545 395 573 395Q744 395 826.0 426.0Q908 457 908 527Q908 588 826.5 617.5Q745 647 605 647Q479 647 362.0 614.0Q245 581 180 525V634H109Z" transform="translate(0, 880) scale(1,-1)" /></svg>