<svg xmlns="http://www.w3.org/2000/svg" width="1000" height="1000"><path d="M247 -71C420 -71 497 98 497 228C497 345 454 466 285 532L238 477C387 421 421 308 421 220C421 127 351 0 247 0C195 0 156 27 156 81C156 181 241 264 464 346L430 415C181 329 79 205 79 81C79 -19 150 -71 247 -71ZM93 487 115 421C237 458 370 509 488 579L444 639C351 582 205 522 93 487ZM79 675 101 606C225 640 361 698 481 768L439 826C339 773 191 707 79 675ZM552 252H948V324H552ZM715 -68C767 -68 804 -52 804 21V811H727L729 33C729 15 726 8 708 8C670 8 628 13 575 28V-53C627 -63 672 -68 715 -68ZM562 526H928V596H562Z" transform="translate(0, 880) scale(1,-1)" /></svg>