<svg xmlns="http://www.w3.org/2000/svg" width="1000" height="1000"><path d="M958 411H472Q576 464 694.5 549.5Q813 635 922 735L879 815L861 804H378V735H811Q735 661 609.0 572.0Q483 483 351 411L381 332L400 342H958ZM422 115Q560 203 696 203Q748 203 784.5 189.0Q821 175 839.0 153.5Q857 132 857 110Q857 69 801.5 46.0Q746 23 633 13L658 -46Q790 -30 862.0 5.5Q934 41 934 110Q934 152 908.5 190.0Q883 228 829.5 252.0Q776 276 696 276Q610 276 533.5 252.5Q457 229 383 184ZM563 63Q584 34 603.0 -11.5Q622 -57 633 -99L701 -71Q689 -30 669.0 13.5Q649 57 626 91ZM487 614Q657 558 804 470L837 524Q693 608 516 665ZM97 756Q199 667 241 610L295 662Q272 691 231.5 730.0Q191 769 149 803ZM130 15 188 0 308 491 254 522 229 509H46V436H220ZM322 153 56 -4 88 -79 354 94Z" transform="translate(0, 880) scale(1,-1)" /></svg>