<svg xmlns="http://www.w3.org/2000/svg" width="1000" height="1000"><path d="M806 288Q848 288 872.0 302.0Q896 316 909.5 351.5Q923 387 930 453L866 477Q862 426 856.0 403.5Q850 381 838.0 374.0Q826 367 801 367Q695 367 605.5 432.5Q516 498 459.5 606.0Q403 714 392 837H320Q332 689 399.0 563.0Q466 437 573.0 362.5Q680 288 806 288ZM56 -55H945V19H56ZM169 125H844V198H169ZM149 303Q367 342 549.5 405.0Q732 468 847 581L779 618Q670 514 486.0 457.0Q302 400 100 373ZM91 595 901 674 893 744 83 668Z" transform="translate(0, 880) scale(1,-1)" /></svg>