<svg xmlns="http://www.w3.org/2000/svg" width="1000" height="1000"><path d="M126 486H204V685C297 722 388 743 571 743C774 743 821 704 821 655C821 578 736 551 607 551C508 551 414 556 314 570V493C414 483 508 481 607 481C808 481 899 543 899 655C899 743 845 816 571 816C371 816 260 784 204 757V799H126ZM541 521V788H463V521ZM303 615H702V690H303ZM633 -85C720 -85 766 -62 782 -22C818 65 830 208 824 307C819 391 746 432 590 432C491 432 388 424 275 408L277 335C404 354 503 359 591 359C686 359 740 335 742 296C744 217 735 99 707 26C699 4 677 -10 622 -10C571 -10 524 -5 469 10V-74C526 -81 581 -85 633 -85ZM92 -26 165 -75C289 82 311 226 319 428H235C227 231 214 119 92 -26ZM671 90 672 162 343 164 342 93ZM680 212 681 284 360 286 359 214Z" transform="translate(0, 880) scale(1,-1)" /></svg>