<svg xmlns="http://www.w3.org/2000/svg" width="1000" height="1000"><path d="M573 13Q661 122 713.0 229.5Q765 337 765 411Q765 475 734.0 512.5Q703 550 651 550Q618 550 588.5 531.5Q559 513 541.5 480.5Q524 448 524 408Q524 347 563.5 306.0Q603 265 668 265Q740 265 802.0 302.0Q864 339 901.0 408.0Q938 477 938 567Q938 675 884.5 734.0Q831 793 709 793Q618 793 533.5 769.5Q449 746 386 708L406 635Q554 715 708 715Q787 715 822.0 676.0Q857 637 857 567Q857 495 829.0 443.0Q801 391 756.5 365.0Q712 339 663 339Q629 339 611.5 360.0Q594 381 594 408Q594 438 609.5 456.0Q625 474 649 474Q668 474 679.5 458.0Q691 442 691 412Q691 344 639.5 235.5Q588 127 503 14ZM197 -61Q263 -61 304.5 -14.0Q346 33 364.0 104.0Q382 175 382 250Q382 370 352.5 439.0Q323 508 256.0 538.5Q189 569 73 567V496Q172 498 221.0 475.5Q270 453 287.5 399.5Q305 346 305 242Q305 150 281.5 84.5Q258 19 197 19Q172 19 154.0 36.5Q136 54 136 86Q136 166 213.0 248.5Q290 331 428 392L403 463Q303 419 225.5 355.0Q148 291 105.5 220.5Q63 150 63 86Q63 18 102.0 -21.5Q141 -61 197 -61ZM414 -61H920V14H414ZM361 676Q287 713 228.5 738.5Q170 764 110 783L90 715Q152 696 207.0 671.0Q262 646 328 607Z" transform="translate(0, 880) scale(1,-1)" /></svg>