<svg xmlns="http://www.w3.org/2000/svg" width="1000" height="1000"><path d="M52 563 84 493C379 552 659 615 917 684L877 747C626 681 340 618 52 563ZM113 525H193V784H113ZM921 496 951 567C672 605 531 626 513 831H427C436 622 601 535 921 496ZM295 726 339 659C499 690 665 727 803 763L754 826C625 792 472 756 295 726ZM94 291 117 227C240 251 427 268 591 268C761 268 855 224 855 152C855 45 810 -19 708 -19C636 -19 578 -15 530 -2V-77C575 -86 626 -89 712 -89C867 -89 938 7 938 152C938 290 804 338 591 338C560 338 536 337 502 336C590 357 681 380 767 408L711 464L674 450H399C449 471 503 495 555 524L501 576C414 527 322 488 233 454C217 447 196 441 175 437L201 379L238 389H506C442 367 381 349 280 325C257 320 200 310 94 291ZM180 208V140H714V208ZM163 112V45H729V112ZM408 -61C459 -61 490 -32 490 19V250H413V27C413 16 405 8 391 8C359 8 325 12 288 21V-52C327 -59 362 -61 408 -61Z" transform="translate(0, 880) scale(1,-1)" /></svg>