<svg xmlns="http://www.w3.org/2000/svg" width="1000" height="1000"><path d="M310 701 354 757C302 787 244 814 178 841L139 786C204 759 261 730 310 701ZM194 260C335 260 403 358 403 435C403 497 343 569 199 597L172 535C285 511 324 478 324 435C324 379 278 333 194 333C159 333 139 341 139 361C139 410 225 446 411 505L367 563C185 503 59 431 59 361C59 291 113 260 194 260ZM197 572 263 551C326 588 390 637 426 674L371 712L356 706H79V642H292C268 617 234 590 197 572ZM441 676H924V746H441ZM664 541C466 424 442 395 442 350C442 308 473 279 535 279H822C880 279 903 311 919 415L845 424C839 369 825 354 797 354H564C543 354 534 358 534 364C534 376 542 388 815 557L768 617L754 611H617C658 674 697 753 717 835L639 850C616 763 562 647 496 568L565 532L582 541ZM913 494 971 539C941 576 907 611 870 646L816 603C852 567 884 532 913 494ZM45 34 97 -31C392 36 530 157 588 249L499 268C451 185 346 93 45 34ZM481 -91C536 -91 583 -83 644 -63V21C582 -3 537 -16 495 -16C472 -16 461 -12 461 9V125H382V-7C382 -67 414 -91 481 -91ZM904 -42 955 23C856 62 733 106 626 137L581 76C687 44 807 -1 904 -42ZM88 141H912V217H88Z" transform="translate(0, 880) scale(1,-1)" /></svg>