<svg xmlns="http://www.w3.org/2000/svg" width="1000" height="1000"><path d="M654 713 693 781C591 805 476 828 340 850L310 784C444 761 559 737 654 713ZM633 -98C720 -98 766 -74 782 -34C818 55 830 201 824 303C819 388 745 429 590 429C491 429 388 421 275 404L277 331C404 351 503 356 591 356C685 356 740 331 742 291C744 210 735 89 707 14C699 -8 676 -23 622 -23C571 -23 524 -18 469 -3V-86C526 -94 581 -98 633 -98ZM91 -39 164 -88C288 73 310 219 318 426H234C226 223 213 110 91 -39ZM671 82 672 153 343 156 342 84ZM680 206 681 278 360 280 359 208ZM287 459H824C892 459 918 502 936 622L861 632C853 552 837 533 804 533H324C305 533 292 535 292 542C292 551 311 560 814 664L786 728L767 722H98V649L435 650C188 598 165 568 165 534C165 489 201 459 287 459Z" transform="translate(0, 880) scale(1,-1)" /></svg>