<svg xmlns="http://www.w3.org/2000/svg" width="1000" height="1000"><path d="M117 593 140 529 173 536 790 562 782 633 309 613C396 664 481 728 562 812L484 845C400 749 258 661 184 616C165 605 144 598 117 593ZM816 514 882 554C841 601 781 657 708 709L648 671C721 617 775 560 816 514ZM633 -84C718 -84 766 -58 782 -15C818 82 830 239 824 349C819 442 744 484 590 484C491 484 388 475 275 457L277 384C404 405 503 410 591 410C684 410 740 384 741 338C744 251 734 112 706 32C698 7 675 -9 622 -9C571 -9 524 -4 469 11V-72C526 -80 581 -84 633 -84ZM88 -27 163 -73C287 102 309 256 317 481H233C225 260 212 138 88 -27ZM671 113 672 185 343 187 342 115ZM680 248 681 320 360 322 359 250Z" transform="translate(0, 880) scale(1,-1)" /></svg>