<svg xmlns="http://www.w3.org/2000/svg" width="1000" height="1000"><path d="M244 540Q301 585 362.5 644.5Q424 704 465 758L404 793L388 788H81V720H344Q317 688 273.0 645.5Q229 603 190 570ZM789 -70Q863 -48 902.5 -3.5Q942 41 942 93Q942 158 902.5 193.0Q863 228 787 228Q698 228 614 161Q646 214 668.0 269.0Q690 324 705.0 414.5Q720 505 720 638V831H641V638Q641 493 624.0 398.0Q607 303 578.0 241.5Q549 180 501 110Q488 91 474.5 78.0Q461 65 442 54L482 -8Q564 63 646.5 110.0Q729 157 787 157Q826 157 846.5 139.0Q867 121 867 93Q867 62 839.5 36.5Q812 11 759 -4ZM398 283Q398 408 336.5 484.5Q275 561 162 585L149 518Q232 497 276.0 438.5Q320 380 320 283Q320 172 288.0 105.5Q256 39 193 39Q166 39 148.0 57.5Q130 76 130 109Q130 217 237.5 301.5Q345 386 528.5 432.5Q712 479 931 479V555Q703 555 501.5 499.0Q300 443 177.5 340.0Q55 237 55 103Q55 35 93.5 -3.0Q132 -41 193 -41Q295 -41 346.5 47.5Q398 136 398 283Z" transform="translate(0, 880) scale(1,-1)" /></svg>