<svg xmlns="http://www.w3.org/2000/svg" width="1000" height="1000"><path d="M318 -68H909V13H300C221 13 204 27 204 87V228H119V93C119 -42 166 -68 318 -68ZM706 115C836 115 881 216 881 389H121V311H788C791 253 766 190 686 190C617 190 545 196 482 214V129C556 118 638 115 706 115ZM197 536 274 569C254 633 220 696 169 762L97 735C143 670 177 602 197 536ZM67 513H933V591H67ZM478 554 561 583C542 673 512 743 458 835L381 809C433 718 458 645 478 554ZM584 338C724 501 814 648 885 779L800 806C740 673 637 518 495 363Z" transform="translate(0, 880) scale(1,-1)" /></svg>