<svg xmlns="http://www.w3.org/2000/svg" width="1000" height="1000"><path d="M464 527H548V837H464ZM355 605Q339 643 301.5 698.0Q264 753 223 801L153 773Q193 725 229.5 670.0Q266 615 281 576ZM720 579Q782 657 856 780L779 806Q757 757 722.0 699.0Q687 641 656 602ZM633 -81Q686 -81 726.0 -59.5Q766 -38 778 -1Q799 65 810.0 159.0Q821 253 821 347Q821 391 820 412Q816 491 759.0 529.0Q702 567 590 567Q442 567 275 536L277 469Q436 499 591 499Q658 499 698.0 476.0Q738 453 740 408Q741 393 741 358Q741 274 731.5 180.5Q722 87 705 30Q699 9 677.5 -3.0Q656 -15 622 -15Q537 -15 469 1V-72Q555 -81 633 -81ZM156 -67Q216 31 248.0 123.5Q280 216 293.0 314.5Q306 413 310 556H231Q227 409 215.0 318.5Q203 228 172.0 145.0Q141 62 78 -32ZM671 157 672 217 343 220 342 160ZM680 312 681 374 360 377 359 314Z" transform="translate(0, 880) scale(1,-1)" /></svg>