<svg xmlns="http://www.w3.org/2000/svg" width="1000" height="1000"><path d="M312 687 388 715C372 746 342 797 308 831L235 803C265 768 294 724 312 687ZM88 635H919V712H88ZM615 699 683 673C723 717 755 763 780 808L700 834C681 793 653 742 615 699ZM111 407 186 379C208 444 230 521 249 600L173 617C156 537 133 466 111 407ZM883 -92 918 -17C743 53 656 153 656 609H577C579 114 682 -9 883 -92ZM611 25 646 -44C787 0 876 70 876 134C876 190 841 234 754 234C605 234 295 105 101 6L144 -61C333 37 632 158 755 158C782 158 795 150 795 129C795 89 724 54 611 25ZM182 451H799V527H182ZM857 409 927 436C908 495 882 552 850 606L786 572C816 527 841 467 857 409ZM134 183H207V254C251 292 314 317 382 317C435 317 461 300 461 284C461 238 390 236 256 252V179C404 166 544 164 544 284C544 348 496 393 382 393C308 393 237 365 207 325V366H134ZM392 71V278H316V71Z" transform="translate(0, 880) scale(1,-1)" /></svg>