<svg xmlns="http://www.w3.org/2000/svg" width="1000" height="1000"><path d="M323 428 37 321 64 247 350 362ZM185 -52C224 -52 257 -31 257 37V705H184V57C184 33 175 20 163 20C139 20 114 24 81 38V-40C117 -49 150 -52 185 -52ZM64 711 77 637C158 647 275 673 355 712L329 782C257 745 148 722 64 711ZM323 109 372 44C397 67 421 98 451 137C463 151 481 151 491 148C502 143 509 127 521 77L626 157L608 202L545 171C541 193 531 211 503 220C536 280 565 344 592 415L531 436C473 286 398 170 323 109ZM631 -70C727 -70 769 45 768 183C768 320 713 492 631 624L571 571C637 477 689 305 689 182C688 102 675 3 627 3C598 3 567 10 532 25V-58C560 -67 593 -70 631 -70ZM917 19 972 77C887 162 772 246 631 335L596 273C729 190 837 110 917 19ZM678 362 714 307C790 348 846 380 911 442L860 496C801 438 754 402 678 362ZM386 776V697H916V776ZM694 738 619 754C581 589 493 523 356 442L401 373C547 467 652 548 694 738Z" transform="translate(0, 880) scale(1,-1)" /></svg>