<svg xmlns="http://www.w3.org/2000/svg" width="1000" height="1000"><path d="M84 34Q109 49 133.0 68.5Q157 88 202 127Q218 140 244 140Q251 140 261 138Q274 133 283.5 109.5Q293 86 306 28L463 147L436 192L336 140Q332 166 319.0 184.0Q306 202 279 210Q346 298 412 415L355 449Q285 329 204.5 238.5Q124 148 45 112ZM475 -70Q532 -70 571.0 -35.0Q610 0 629.0 57.5Q648 115 646 183Q646 283 595.5 405.0Q545 527 461 634L402 578Q444 529 482.0 459.5Q520 390 543.5 316.0Q567 242 567 182Q566 110 544.0 59.0Q522 8 471 8Q411 8 355 33V-57Q401 -70 475 -70ZM962 84Q791 199 454 342L433 269Q591 202 708.0 141.0Q825 80 911 15ZM580 301Q680 337 743.5 365.0Q807 393 874 436L827 502Q761 458 700.5 428.0Q640 398 556 368ZM105 776V697H895V776ZM469 757Q442 678 390.5 623.5Q339 569 267.0 530.5Q195 492 78 445L111 370Q239 425 319.5 471.0Q400 517 459.0 581.0Q518 645 548 735Z" transform="translate(0, 880) scale(1,-1)" /></svg>