<svg xmlns="http://www.w3.org/2000/svg" width="1000" height="1000"><path d="M893 511Q912 544 920.0 571.0Q928 598 928 633Q928 753 617 753Q476 753 356.5 721.5Q237 690 156 633V739H78V529H156V584Q232 634 358.5 659.5Q485 685 617 685Q696 685 747.5 677.0Q799 669 822.5 657.0Q846 645 846 632Q846 579 814 539ZM566 718Q540 797 508 852L436 831Q474 768 491 697ZM0.0 0.0Q0 0 0.0 0.0Q0 0 0.0 0.0ZM366 152Q443 146 505 146Q857 146 857 315Q857 391 779.5 430.0Q702 469 547 469Q439 469 352.5 447.5Q266 426 223 397V323Q276 358 361.0 379.0Q446 400 547 400Q671 400 724.5 381.0Q778 362 778 315Q778 259 720.0 235.0Q662 211 542 211Q472 211 366 219ZM94 -69Q260 -50 359.5 -6.5Q459 37 506.5 119.5Q554 202 554 337H472Q472 215 430.0 148.5Q388 82 304.0 51.5Q220 21 69 2ZM167 168H243V452H167ZM931 -13Q872 10 765.5 41.5Q659 73 572 95L532 31Q617 11 723.0 -23.0Q829 -57 885 -81ZM512 658 434 679Q403 643 359.5 600.5Q316 558 278 529L346 496L381 528H601Q562 485 502 441L559 411Q653 487 713 558L659 592L647 588H443Z" transform="translate(0, 880) scale(1,-1)" /></svg>