<svg xmlns="http://www.w3.org/2000/svg" width="1000" height="1000"><path d="M958 411H472C610 482 776 601 922 735L879 815L861 804H378V735H811C712 639 532 509 351 411L381 332L400 342H958ZM383 184 422 115C502 166 594 203 696 203C806 203 857 151 857 110C857 54 780 26 633 13L658 -46C816 -27 934 11 934 110C934 189 864 276 696 276C577 276 478 242 383 184ZM626 91 563 63C591 23 619 -44 633 -99L701 -71C685 -15 656 46 626 91ZM516 665 487 614C602 576 707 528 804 470L837 524C740 581 632 628 516 665ZM149 803 97 756C151 709 211 651 241 610L295 662C263 702 203 759 149 803ZM130 15 188 0 308 491 254 522 229 509H46V436H220ZM322 153 56 -4 88 -79 354 94Z" transform="translate(0, 880) scale(1,-1)" /></svg>