<svg xmlns="http://www.w3.org/2000/svg" width="1000" height="1000"><path d="M99 -17Q194 18 318.5 87.0Q443 156 540 236H444Q374 188 260.0 133.0Q146 78 61 52ZM0.0 0.0Q0 0 0.0 0.0Q0 0 0.0 0.0ZM501 -65Q543 -65 581.0 -58.0Q619 -51 664 -34V40Q572 0 513 0Q494 0 486.5 6.0Q479 12 479 30V196H408V14Q408 -28 430.5 -46.5Q453 -65 501 -65ZM74 236H929V309H74ZM140 515Q225 645 266 829L192 840Q175 758 144.5 683.0Q114 608 73 549ZM955 26Q781 128 626 196L579 146Q758 62 902 -32ZM354 309H436L435 695H354ZM179 391H860V455H179ZM226 535H860V599H226ZM591 309H673L672 695H591ZM214 695H924V763H214Z" transform="translate(0, 880) scale(1,-1)" /></svg>