<svg xmlns="http://www.w3.org/2000/svg" width="1000" height="1000"><path d="M0.0 0.0Q0 0 0.0 0.0Q0 0 0.0 0.0ZM455 -66C528 -66 568 -38 568 30V556H487V49C487 22 477 10 442 10C398 10 360 14 315 28V-55C362 -62 416 -66 455 -66ZM98 630H902V705H98ZM412 658 337 686C293 598 245 512 208 458C198 443 178 429 156 425L187 357L212 369H866V445H290C328 505 371 581 412 658ZM939 142 959 223C738 255 444 256 55 222V148C439 179 734 172 939 142ZM499 663 578 685C561 738 531 799 500 847L424 825C452 778 485 713 499 663Z" transform="translate(0, 880) scale(1,-1)" /></svg>