<svg xmlns="http://www.w3.org/2000/svg" width="1000" height="1000"><path d="M48 634V554H488V634ZM120 454 190 483C181 564 158 677 137 762L69 739C88 657 110 535 120 454ZM249 494 322 513C316 603 298 719 278 817L207 800C224 704 241 582 249 494ZM353 467 422 451C445 540 469 669 485 771L410 793C397 692 374 562 353 467ZM645 462 713 427C777 512 841 618 893 727L823 760L815 747H643V671H777C749 614 701 532 645 462ZM503 573 561 518C624 600 690 701 739 813L669 840C626 737 566 646 503 573ZM606 -63H867C923 -63 946 -1 959 154L889 171C883 57 868 13 837 13H634C601 13 589 20 589 37C589 61 602 82 914 417L869 487L854 478H558V400L797 401C545 144 512 93 512 37C512 -20 539 -63 606 -63ZM201 -16V230H128V-16ZM359 164C418 164 453 206 463 413L404 425L387 418H81V345H384C375 255 362 239 340 239C302 239 266 242 228 250V172C268 166 307 164 359 164ZM778 109 831 155C775 217 712 277 640 337L593 293C664 233 726 171 778 109ZM94 7 113 -68 477 32 459 107Z" transform="translate(0, 880) scale(1,-1)" /></svg>