<svg xmlns="http://www.w3.org/2000/svg" width="1000" height="1000"><path d="M212 559 282 594C265 651 220 731 180 792L112 761C149 704 190 616 212 559ZM478 588 555 615C542 678 507 760 471 830L398 805C431 737 464 651 478 588ZM697 582 766 560C808 623 854 711 887 784L806 814C781 742 737 650 697 582ZM87 569V487H913V569ZM583 -83C751 -83 812 54 812 236C812 341 757 402 613 402C517 402 421 393 320 377L325 306C426 319 527 328 613 328C685 328 731 303 731 236C731 89 682 -11 570 -11C501 -11 441 -6 384 10V-69C440 -78 498 -83 583 -83ZM659 125 663 198 375 202 371 130ZM419 528 336 531C310 285 243 125 132 -8L207 -46C318 93 389 270 419 528Z" transform="translate(0, 880) scale(1,-1)" /></svg>