<svg xmlns="http://www.w3.org/2000/svg" width="1000" height="1000"><path d="M184 -61C302 -61 341 95 341 250C341 497 262 570 70 537V466C225 489 258 439 258 242C258 146 230 19 184 19C161 19 145 41 145 86C145 190 213 309 377 392L336 453C166 363 63 215 63 86C63 -8 118 -61 184 -61ZM284 610 332 676C255 722 192 756 122 783L85 718C155 690 214 657 284 610ZM408 140 680 249 653 322 380 211ZM478 241 548 213C596 322 652 497 691 642L618 672L600 648H447V571H585C560 472 518 341 478 241ZM703 164H954V241H863V737H786V241H703ZM385 28V-52H956V28ZM369 510 436 470C479 561 516 672 546 784L481 810C454 697 414 593 369 510Z" transform="translate(0, 880) scale(1,-1)" /></svg>