<svg xmlns="http://www.w3.org/2000/svg" width="1000" height="1000"><path d="M312 692 388 720C372 752 341 806 307 841L234 813C265 777 294 731 312 692ZM88 643H919V715H88ZM615 704 683 677C723 723 756 772 781 818L701 844C682 801 653 748 615 704ZM85 327 129 261C496 338 544 463 544 626H463C463 479 437 398 85 327ZM854 252 908 312C804 367 686 420 584 459L540 400C645 358 761 304 854 252ZM86 524 98 453C374 459 700 487 922 524L891 588C694 556 364 528 86 524ZM69 -21 114 -84C497 6 551 162 550 334H468C468 174 436 63 69 -21ZM875 -93 930 -34C819 29 689 92 574 141L531 83C647 32 775 -32 875 -93ZM86 164H917V240H86Z" transform="translate(0, 880) scale(1,-1)" /></svg>