<svg xmlns="http://www.w3.org/2000/svg" width="1000" height="1000"><path d="M629 -74C842 -74 911 113 911 358C911 622 786 718 601 718C449 718 307 687 218 643L236 575C329 619 470 645 601 645C752 645 831 536 831 358C831 155 770 -2 622 -2C525 -2 451 11 389 35L359 -36C421 -56 498 -74 629 -74ZM41 420 104 368C228 498 309 663 363 817L287 839C235 681 150 524 41 420ZM437 122V51C603 29 715 62 715 151C715 224 643 257 516 257C417 257 315 230 237 183L290 126C356 169 444 189 516 189C592 189 629 173 629 150C629 120 575 102 437 122ZM204 287H763V355H204ZM291 399H675V467H291ZM311 507H657V575H311Z" transform="translate(0, 880) scale(1,-1)" /></svg>