<svg xmlns="http://www.w3.org/2000/svg" width="1000" height="1000"><path d="M644 -60Q730 -60 794.5 -21.5Q859 17 893.5 85.5Q928 154 928 241Q928 473 582 473Q541 473 494 467Q594 507 697.5 553.0Q801 599 869 634L810 682L783 674H126V600H668Q616 571 535.0 535.0Q454 499 337 450Q321 443 277 430Q233 416 183.0 399.0Q133 382 108 370L154 306Q247 350 353.0 377.0Q459 404 562 404Q693 404 768.0 364.0Q843 324 843 239Q843 174 818.0 122.5Q793 71 746.5 41.5Q700 12 636 12Q542 12 462 41V-39Q546 -60 644 -60ZM238 31Q288 31 373.5 81.5Q459 132 546.5 204.0Q634 276 690 336L621 382Q573 326 500.0 261.5Q427 197 359.5 152.5Q292 108 258 108Q242 108 228.5 129.0Q215 150 210 182L132 166Q149 96 172.0 63.5Q195 31 238 31ZM631 130Q587 180 513.0 240.5Q439 301 374 341L319 289Q379 252 453.5 188.0Q528 124 571 75ZM408 693Q394 726 369.0 765.5Q344 805 315 841L241 817Q270 780 294.5 740.5Q319 701 332 669ZM627 645Q680 700 764 820L679 843Q657 801 622.0 748.5Q587 696 556 661Z" transform="translate(0, 880) scale(1,-1)" /></svg>