<svg xmlns="http://www.w3.org/2000/svg" width="1000" height="1000"><path d="M366 417V341C708 302 859 377 859 572C859 738 756 809 547 809C364 809 223 718 167 636L212 582C282 678 403 731 547 731C710 731 777 677 777 572C777 415 635 374 366 417ZM55 12 80 -66C466 0 529 174 529 386V596H448V388C448 227 437 75 55 12ZM147 303H223V780H147ZM680 -65H797C920 -65 937 -4 949 158L876 169C868 34 859 6 811 6H670C629 6 618 13 618 43V253H543V23C543 -46 580 -65 680 -65Z" transform="translate(0, 880) scale(1,-1)" /></svg>