<svg xmlns="http://www.w3.org/2000/svg" width="1000" height="1000"><path d="M731 -79Q793 -79 832.0 -49.0Q871 -19 893.5 72.0Q916 163 916 339Q916 556 856.0 644.5Q796 733 690 733Q609 733 545.5 717.0Q482 701 417 671L448 601Q508 630 564.5 645.0Q621 660 689 660Q836 660 836 340Q836 147 804.0 69.5Q772 -8 717 -8Q673 -8 621.0 0.0Q569 8 522 23V-58Q620 -79 731 -79ZM229 126H680V198H229ZM229 280H680V353H229ZM96 434 121 450H589V525H192Q265 597 320.5 665.0Q376 733 424 814L345 852Q298 764 240.0 683.0Q182 602 128 546Q110 526 95.0 516.5Q80 507 62 501Z" transform="translate(0, 880) scale(1,-1)" /></svg>