<svg xmlns="http://www.w3.org/2000/svg" width="1000" height="1000"><path d="M573 13C691 159 765 313 765 411C765 496 721 550 651 550C584 550 524 491 524 408C524 328 580 265 668 265C811 265 938 381 938 567C938 702 880 793 709 793C581 793 464 755 386 708L406 635C493 682 591 715 708 715C819 715 857 655 857 567C857 415 758 339 663 339C614 339 594 377 594 408C594 449 617 474 649 474C673 474 691 454 691 412C691 322 617 165 503 14ZM197 -61C338 -61 382 115 382 250C382 487 302 570 73 567V496C270 499 305 439 305 242C305 146 288 19 197 19C167 19 136 41 136 86C136 190 241 309 428 392L403 463C199 373 63 215 63 86C63 -8 126 -61 197 -61ZM414 -61H920V14H414ZM328 607 361 676C270 722 195 756 110 783L90 715C171 690 239 660 328 607Z" transform="translate(0, 880) scale(1,-1)" /></svg>