<svg xmlns="http://www.w3.org/2000/svg" width="1000" height="1000"><path d="M366 -6 406 -80C669 -5 842 184 913 458L861 487L847 478H554V405H818C744 189 580 48 366 -6ZM898 -87 955 -29C835 91 681 214 501 311L466 248C646 146 786 28 898 -87ZM782 679C701 586 583 494 430 417L472 350C623 431 780 554 905 712L855 762L839 752H550V679ZM376 573 429 517C523 609 587 699 646 823L578 850C526 739 455 644 376 573ZM387 456 37 326 57 251 406 390ZM208 -72C252 -72 287 -51 287 17V747H215V37C215 13 205 0 191 0C162 0 133 4 94 18V-60C133 -69 169 -72 208 -72ZM62 751 77 680C173 690 312 718 405 758L387 827C302 789 164 762 62 751Z" transform="translate(0, 880) scale(1,-1)" /></svg>