<svg xmlns="http://www.w3.org/2000/svg" width="1000" height="1000"><path d="M87 679H913V745H559L505 845L432 828L476 745H87ZM152 523 174 460 205 466 779 489 770 559 337 542C418 585 497 636 571 706L494 738C416 656 284 582 215 544C196 534 177 528 152 523ZM803 445 867 484C829 526 773 577 705 624L645 586C714 539 765 487 803 445ZM633 -88C720 -88 766 -65 782 -27C818 59 830 200 824 297C819 379 746 420 590 420C491 420 388 412 275 396L277 323C404 342 503 347 591 347C686 347 740 323 742 285C744 208 735 94 707 23C699 1 677 -14 622 -14C571 -14 524 -9 469 7V-77C526 -84 581 -88 633 -88ZM92 -29 165 -78C289 76 311 217 319 416H235C227 223 214 113 92 -29ZM671 83 672 155 343 157 342 86ZM680 203 681 274 360 277 359 205Z" transform="translate(0, 880) scale(1,-1)" /></svg>