<svg xmlns="http://www.w3.org/2000/svg" width="1000" height="1000"><path d="M802 512 860 465C902 495 931 532 931 587C931 669 843 720 583 720C406 720 262 692 152 640V698H78V483H152V584C266 625 418 650 582 650C799 650 851 617 851 587C851 559 836 534 802 512ZM461 556H540V789H461ZM703 582H298V512H703ZM823 827 168 826V756H823ZM63 -15 103 -84C398 -22 630 67 854 201L795 252C592 125 340 43 63 -15ZM233 165 267 105C389 119 520 127 646 125C753 124 801 113 801 75C801 12 759 -12 675 -12C614 -12 561 -5 503 9V-68C557 -76 616 -79 679 -79C822 -79 883 -19 883 77C883 166 801 191 654 193C528 195 445 188 347 178C390 218 430 257 471 317L392 345C352 275 307 225 256 177C249 170 242 167 233 165ZM616 306 638 239C784 256 843 300 843 360C843 425 783 483 582 483C417 483 292 448 206 397V455H131V250H206V340C303 385 425 413 582 413C715 413 759 390 759 360C759 339 738 315 616 306Z" transform="translate(0, 880) scale(1,-1)" /></svg>