<svg xmlns="http://www.w3.org/2000/svg" width="1000" height="1000"><path d="M43 -13 92 -81C303 -16 538 139 538 364V538H891V612H105V538H460V364C460 152 250 47 43 -13ZM280 334 348 366C333 408 297 471 263 518L199 491C231 442 266 375 280 334ZM63 239H934V314H63ZM899 -86 949 -19C857 44 703 119 555 172L516 110C663 56 809 -19 899 -86ZM324 640 392 674C373 718 330 783 287 831L224 801C265 751 307 685 324 640ZM634 354 697 325C732 369 777 436 811 497L740 528C716 474 669 399 634 354ZM600 640 666 612C711 674 759 754 792 811L711 836C686 778 640 696 600 640Z" transform="translate(0, 880) scale(1,-1)" /></svg>