<svg xmlns="http://www.w3.org/2000/svg" width="1000" height="1000"><path d="M117 -18Q277 90 442.5 213.0Q608 336 696 413L655 471L627 462H355Q405 518 469.0 610.0Q533 702 584 806L499 834Q450 723 378.5 615.0Q307 507 227 425L271 362L309 388H558Q468 318 337.0 227.5Q206 137 67 52ZM511 -65Q553 -65 591.0 -56.0Q629 -47 674 -26V61Q627 35 591.5 23.0Q556 11 525 11Q506 11 498.5 18.0Q491 25 491 48V257H412V33Q412 -19 436.0 -42.0Q460 -65 511 -65ZM955 46Q773 178 626 258L579 199Q658 154 743.5 95.5Q829 37 902 -21ZM98 586H902V666H98Z" transform="translate(0, 880) scale(1,-1)" /></svg>