<svg xmlns="http://www.w3.org/2000/svg" width="1000" height="1000"><path d="M56 -45H946V27H479C535 84 580 164 580 229C580 308 529 358 451 358C389 358 329 312 329 241C329 171 382 124 464 124C600 124 758 213 758 357C758 466 680 546 518 546C467 546 441 542 414 532C494 589 560 639 653 713H917V785H80V713H537C446 626 364 557 230 469C201 450 170 433 142 415L197 348C321 444 420 472 515 472C638 472 674 404 674 357C674 248 530 192 464 192C417 192 398 211 398 241C398 268 416 292 451 292C489 292 502 264 502 229C501 143 460 72 387 27H56ZM870 360 950 380C936 458 909 536 867 610L798 583C838 515 858 443 870 360Z" transform="translate(0, 880) scale(1,-1)" /></svg>