<svg xmlns="http://www.w3.org/2000/svg" width="1000" height="1000"><path d="M247 -71Q328 -71 384.5 -25.5Q441 20 469.0 89.0Q497 158 497 228Q497 449 285 532L238 477Q339 439 380.0 369.5Q421 300 421 220Q421 172 398.5 120.5Q376 69 336.0 34.5Q296 0 247 0Q206 0 181.0 21.0Q156 42 156 81Q156 158 228.0 222.0Q300 286 464 346L430 415Q251 353 165.0 266.0Q79 179 79 81Q79 8 125.5 -31.5Q172 -71 247 -71ZM115 421Q333 487 488 579L444 639Q377 598 279.5 556.5Q182 515 93 487ZM101 606Q194 631 292.5 673.0Q391 715 481 768L439 826Q357 783 257.5 740.5Q158 698 79 675ZM552 252H948V324H552ZM715 -68Q758 -68 781.0 -49.0Q804 -30 804 21V811H727L729 33Q729 19 725.0 13.5Q721 8 708 8Q646 8 575 28V-53Q653 -68 715 -68ZM562 526H928V596H562Z" transform="translate(0, 880) scale(1,-1)" /></svg>