<svg xmlns="http://www.w3.org/2000/svg" width="1000" height="1000"><path d="M662 570 714 639C604 700 477 759 327 819L284 754C430 694 557 631 662 570ZM373 32H475C575 78 670 149 670 245C670 308 616 370 503 370C391 370 341 315 341 255C341 191 408 143 546 143C758 143 879 237 879 381C879 492 770 563 555 563C352 563 193 513 100 472L138 402C232 441 399 482 555 482C701 482 791 448 791 381C791 281 712 215 546 215C462 215 426 228 426 255C426 277 449 297 503 297C553 297 584 279 584 245C584 164 479 84 373 32ZM78 -30H922V49H78Z" transform="translate(0, 880) scale(1,-1)" /></svg>