<svg xmlns="http://www.w3.org/2000/svg" width="1000" height="1000"><path d="M97 721V642H903V721ZM327 528 406 554C384 630 339 748 298 831L222 805C263 724 306 605 327 528ZM582 551 654 526C691 596 740 710 777 805L697 831C669 742 620 626 582 551ZM199 572V498H801V572ZM153 451V375H847V451ZM160 270 183 209C287 246 411 269 585 269C756 269 809 250 809 223C809 174 599 167 304 186V113C645 97 887 97 887 223C887 291 823 341 585 341C385 341 246 313 160 270ZM107 -30 150 -95C501 -31 547 63 547 220H467C467 75 445 29 107 -30ZM841 -101 893 -40C795 6 689 51 598 81L555 21C649 -14 755 -58 841 -101ZM201 105V320H124V105Z" transform="translate(0, 880) scale(1,-1)" /></svg>