<svg xmlns="http://www.w3.org/2000/svg" width="1000" height="1000"><path d="M320 23V-56C373 -69 437 -75 504 -75C735 -75 893 -6 893 197C893 379 755 438 526 438C452 438 412 432 376 420C487 476 541 570 541 672H459C459 573 400 475 285 412C260 397 231 382 208 373L247 315C329 346 440 369 526 369C696 369 814 325 814 197C814 63 681 -5 503 -5C428 -5 365 5 320 23ZM206 278V212H623V278ZM197 155V86H636V155ZM133 507H209V804H133ZM316 590V518C637 489 835 510 835 668C835 783 697 817 539 817C367 817 268 782 158 726L190 666C281 711 399 748 539 748C673 748 752 710 752 668C752 578 629 553 316 590Z" transform="translate(0, 880) scale(1,-1)" /></svg>