<svg xmlns="http://www.w3.org/2000/svg" width="1000" height="1000"><path d="M909 -68V13H300Q259 13 239.0 19.0Q219 25 211.5 40.5Q204 56 204 87V228H119V93Q119 25 137.0 -9.0Q155 -43 196.5 -55.5Q238 -68 318 -68ZM706 115Q800 115 840.5 184.0Q881 253 881 389H121V311H788Q791 261 766.0 225.5Q741 190 686 190Q566 190 482 214V129Q576 115 706 115ZM274 569Q244 665 169 762L97 735Q166 637 197 536ZM67 513H933V591H67ZM561 583Q547 649 523.0 706.5Q499 764 458 835L381 809Q418 743 440.0 684.5Q462 626 478 554ZM584 338Q680 450 751.5 557.5Q823 665 885 779L800 806Q754 703 676.5 589.5Q599 476 495 363Z" transform="translate(0, 880) scale(1,-1)" /></svg>