<svg xmlns="http://www.w3.org/2000/svg" width="1000" height="1000"><path d="M174 713 194 637C395 667 627 716 786 763L752 832C609 790 376 740 174 713ZM273 450 341 482C323 525 275 584 233 629L167 600C206 557 249 493 273 450ZM516 521 585 554C572 591 535 639 497 680L431 649C466 609 501 558 516 521ZM597 -80C742 -80 811 31 808 153C808 256 716 393 580 501L519 443C619 372 718 244 718 152C717 78 691 -2 593 -2C544 -2 497 5 450 21V-68C493 -77 543 -80 597 -80ZM848 541 801 612C646 540 401 459 122 404L162 334C441 386 679 465 848 541ZM135 209 172 137C345 191 491 262 592 342L524 391C428 313 305 255 135 209ZM126 46 160 -29C383 33 558 122 657 213L588 264C494 179 337 101 126 46Z" transform="translate(0, 880) scale(1,-1)" /></svg>