<svg xmlns="http://www.w3.org/2000/svg" width="1000" height="1000"><path d="M725 -76C805 -76 875 -32 875 293C875 494 828 556 708 556C636 556 537 519 481 480L511 410C560 445 643 475 708 475C772 475 795 415 795 293C795 33 751 -1 710 -1C670 -1 638 5 596 20V-63C636 -73 674 -76 725 -76ZM85 91 469 234 439 296 58 160ZM257 -73C324 -73 341 -44 341 9V583H262V16C262 3 255 -1 240 -1C215 -1 180 3 137 16V-61C176 -69 220 -73 257 -73ZM73 412H450V483H73ZM222 605 290 642C273 691 232 763 195 817L129 783C163 733 202 655 222 605ZM581 138H938V210H581ZM581 310H938V382H581ZM496 610 570 641C557 696 523 778 489 839L419 812C450 752 482 667 496 610ZM773 586C816 651 855 723 885 794L809 820C786 758 745 675 708 615Z" transform="translate(0, 880) scale(1,-1)" /></svg>