<svg xmlns="http://www.w3.org/2000/svg" width="1000" height="1000"><path d="M118 -81Q139 -15 149.5 78.5Q160 172 160 263V422H446V493H310V616H472V690H310V842H237V690H71V616H237V493H92V278Q92 184 81.0 94.5Q70 5 49 -58ZM319 43Q353 43 385.5 59.5Q418 76 439.5 109.5Q461 143 461 192Q461 270 418.0 312.0Q375 354 306 354Q258 354 208.5 341.0Q159 328 123 308L140 235Q168 256 214.5 269.5Q261 283 306 283Q348 283 370.5 255.0Q393 227 393 192Q393 151 371.5 129.0Q350 107 319 107Q296 107 284.0 123.5Q272 140 272 163Q272 223 367 296L302 315Q254 272 230.5 233.0Q207 194 207 163Q207 111 238.0 77.0Q269 43 319 43ZM505 555H945V626H505ZM684 647Q674 692 654.5 744.5Q635 797 612 841L548 810Q569 768 588.5 713.5Q608 659 617 618ZM817 602Q839 648 862.0 706.5Q885 765 901 814L827 843Q814 794 793.0 729.0Q772 664 753 618ZM540 220H946V292H591Q622 346 649.5 416.5Q677 487 694 556H612Q602 502 576.0 423.0Q550 344 528 311Q517 293 509.5 286.0Q502 279 490 274L519 209ZM744 -87Q780 -87 798.0 -69.0Q816 -51 816 -8V455H742V4Q742 -8 736.5 -12.5Q731 -17 717 -17Q690 -17 655.5 -11.0Q621 -5 588 6V-74Q662 -87 744 -87Z" transform="translate(0, 880) scale(1,-1)" /></svg>