<svg xmlns="http://www.w3.org/2000/svg" width="1000" height="1000"><path d="M73 573 144 541C199 621 248 733 273 822L197 837C171 745 124 642 73 573ZM184 667H917L916 741H184ZM47 80 96 12C335 142 514 256 694 475L628 525L588 482H426C469 533 518 605 563 686L487 724C438 630 387 553 337 497C327 484 312 476 299 471L333 407L355 418H537C437 304 241 175 47 80ZM112 311 182 292C216 362 235 439 247 507L177 519C166 454 141 374 112 311ZM812 289 888 304C865 381 838 465 813 526L742 506C767 448 791 369 812 289ZM511 -81C566 -81 613 -72 674 -44V43C612 11 567 -4 525 -4C502 -4 491 2 491 31V304H412V11C412 -55 444 -81 511 -81ZM900 -1 957 65C858 143 735 232 628 295L577 238C683 172 803 83 900 -1Z" transform="translate(0, 880) scale(1,-1)" /></svg>