<svg xmlns="http://www.w3.org/2000/svg" width="1000" height="1000"><path d="M92 -81Q206 -46 307.5 17.0Q409 80 473.5 169.0Q538 258 538 364V538H891V612H105V538H460V364Q460 219 344.0 130.0Q228 41 43 -13ZM348 366Q337 397 313.0 439.5Q289 482 263 518L199 491Q223 454 246.5 409.0Q270 364 280 334ZM63 239H934V314H63ZM949 -19Q880 28 773.0 80.0Q666 132 555 172L516 110Q626 70 728.5 17.0Q831 -36 899 -86ZM392 674Q378 707 348.5 751.0Q319 795 287 831L224 801Q256 763 284.0 718.0Q312 673 324 640ZM697 325Q724 359 755.0 405.5Q786 452 811 497L740 528Q723 489 692.0 439.0Q661 389 634 354ZM666 612Q719 685 792 811L711 836Q692 792 661.0 736.5Q630 681 600 640Z" transform="translate(0, 880) scale(1,-1)" /></svg>