<svg xmlns="http://www.w3.org/2000/svg" width="1000" height="1000"><path d="M98 -87Q157 -8 183.5 123.0Q210 254 210 368V537H866V607H136V370Q136 267 112.5 147.0Q89 27 35 -46ZM200 -62H946V4H527Q566 28 588.0 63.0Q610 98 610 132Q610 179 581.0 202.0Q552 225 503 225Q464 225 431.5 202.0Q399 179 399 138Q399 96 428.5 75.0Q458 54 512 54Q639 54 705.0 93.5Q771 133 771 212Q771 278 720.5 313.5Q670 349 571 349Q513 349 474 332Q537 366 602 410H847V473H264V410H515Q477 374 449.5 351.5Q422 329 391 312L343 287Q325 277 307.5 268.0Q290 259 272 249L318 193Q382 242 441.5 264.5Q501 287 568 287Q635 287 666.5 266.0Q698 245 698 212Q698 162 651.5 135.0Q605 108 516 108Q461 108 461 138Q461 152 472.5 160.5Q484 169 503 169Q547 169 547 132Q547 95 522.5 65.0Q498 35 448 4H200ZM945 136Q923 244 874 326L812 304Q858 228 874 118ZM63 679H940V751H63ZM460 607H535V841H460Z" transform="translate(0, 880) scale(1,-1)" /></svg>