<svg xmlns="http://www.w3.org/2000/svg" width="1000" height="1000"><path d="M214 588 283 623C266 675 221 748 181 802L114 771C151 718 192 640 214 588ZM479 614 554 640C541 698 506 773 470 836L399 811C432 749 465 671 479 614ZM696 612 764 590C806 647 851 726 884 791L805 822C780 757 736 673 696 612ZM812 401 883 376C907 412 918 444 918 487C918 572 805 601 617 601C426 601 268 561 161 494V580H85V392H161V440C268 504 453 529 617 529C787 529 839 504 839 486C839 458 833 432 812 401ZM456 -79C523 -79 551 -51 551 11V471H472V23C472 6 460 -7 438 -7C399 -7 348 2 301 15V-66C348 -74 402 -79 456 -79ZM55 47 115 -9C198 39 290 113 347 189L272 220C222 153 138 87 55 47ZM62 267H942V342H62ZM882 -13 943 37C895 88 791 166 708 218L650 172C734 118 835 38 882 -13Z" transform="translate(0, 880) scale(1,-1)" /></svg>