<svg xmlns="http://www.w3.org/2000/svg" width="1000" height="1000"><path d="M77 138Q272 211 422.0 302.0Q572 393 673.5 479.5Q775 566 890 680L828 722Q670 578 564.5 493.5Q459 409 334.0 337.5Q209 266 44 206ZM282 -65H364V81Q437 139 501.5 164.0Q566 189 634 189Q706 189 741.0 166.5Q776 144 776 103Q776 54 741.0 29.5Q706 5 625 5Q592 5 527 12V-61Q598 -73 650 -73Q764 -73 812.5 -25.0Q861 23 861 103Q861 178 801.0 224.5Q741 271 634 271Q563 271 493.5 240.0Q424 209 364 158V289H282ZM54 413H946V488H472V628H716V697H472V841H398V697H142V628H398V488H54Z" transform="translate(0, 880) scale(1,-1)" /></svg>