<svg xmlns="http://www.w3.org/2000/svg" width="1000" height="1000"><path d="M709 527C799 527 825 620 842 790L780 809L760 798H160V724H754C744 637 728 601 681 601C581 601 512 612 434 627V548C516 535 599 527 709 527ZM193 385 220 326C323 374 431 404 583 404C739 404 794 371 794 324C794 241 605 234 310 262V183C648 161 873 163 873 324C873 412 809 481 583 481C404 481 279 442 193 385ZM111 -18 156 -85C508 3 556 148 555 326H475C475 158 449 63 111 -18ZM850 -90 904 -29C806 32 694 93 596 138L551 77C651 29 762 -33 850 -90ZM237 169V644H159V169Z" transform="translate(0, 880) scale(1,-1)" /></svg>