<svg xmlns="http://www.w3.org/2000/svg" width="1000" height="1000"><path d="M312 671 388 699C372 733 340 790 306 827L233 799C265 761 294 712 312 671ZM88 618H919V691H88ZM615 681 683 656C723 704 757 755 782 805L702 831C683 784 653 729 615 681ZM442 -13 459 -87C756 -84 918 -40 918 73C918 142 858 198 705 188L838 314L782 371C381 373 53 286 53 148C53 74 99 31 193 31C278 31 342 72 406 134C495 216 648 377 756 504L692 544L673 535H198V460H612C549 384 407 238 326 164C300 139 245 103 198 103C161 103 133 119 133 148C133 215 412 305 730 305C693 263 647 221 585 172L634 116C766 132 836 112 836 73C836 19 671 -18 442 -13Z" transform="translate(0, 880) scale(1,-1)" /></svg>