<svg xmlns="http://www.w3.org/2000/svg" width="1000" height="1000"><path d="M130 511H208V622C327 665 486 685 619 685C737 685 810 665 810 632C810 574 694 565 513 584V511C745 495 890 511 890 632C890 726 778 758 619 758C476 758 328 733 208 678V742H130ZM458 382H537V834H458ZM92 398 96 327 820 364 815 435ZM837 311 909 337C881 390 848 443 811 496L742 470C778 417 810 363 837 311ZM725 101 746 31C862 49 919 102 919 168C919 249 817 294 602 294C414 294 225 269 89 239L106 166C241 195 434 219 602 219C768 219 834 192 834 167C834 132 792 109 725 101ZM301 155V82H654V155ZM123 11V-64H857V11Z" transform="translate(0, 880) scale(1,-1)" /></svg>