<svg xmlns="http://www.w3.org/2000/svg" width="1000" height="1000"><path d="M107 -66Q276 41 404.0 153.5Q532 266 644.5 428.0Q757 590 848 818L768 838Q676 626 566.5 470.0Q457 314 331.0 201.0Q205 88 45 -11ZM704 -72Q895 -72 895 282Q895 369 877.5 433.0Q860 497 806.5 538.0Q753 579 652 579Q526 579 389.5 555.0Q253 531 127 486L147 411Q407 504 651 504Q721 504 756.5 472.0Q792 440 803.0 388.5Q814 337 814 258Q814 151 788.0 76.5Q762 2 697 2Q607 2 528 32V-51Q564 -63 605.0 -67.5Q646 -72 704 -72ZM553 745Q479 767 399.0 782.5Q319 798 249 804L228 737Q381 719 523 668Z" transform="translate(0, 880) scale(1,-1)" /></svg>