<svg xmlns="http://www.w3.org/2000/svg" width="1000" height="1000"><path d="M450 391C498 391 552 420 552 473V608C667 647 786 702 868 757L808 812L791 807H129V739H691C631 706 558 675 473 649V485C473 468 460 454 439 454C395 454 348 461 303 477V405C351 394 391 391 450 391ZM62 103H135V206C183 256 249 277 303 277C346 277 369 259 369 226C369 163 330 157 258 173V98C370 81 445 105 445 226C445 314 389 353 303 353C245 353 184 334 135 282V336H62ZM212 -9H288V427H212ZM58 -4 73 -78 437 -18 421 56ZM455 281 485 223C558 268 658 289 741 289C811 289 851 268 851 234C851 173 784 165 673 183V109C829 93 928 109 928 234C928 330 852 363 741 363C643 363 529 337 455 281ZM624 -24H701V441H624ZM460 -2 466 -74 874 -49 868 24ZM868 -93 939 -74C921 -20 900 35 876 90L807 71C830 16 851 -39 868 -93ZM91 454 160 428C205 492 237 564 257 628L184 646C167 586 131 511 91 454ZM832 426 908 448C879 518 839 595 805 652L734 626C768 573 804 498 832 426Z" transform="translate(0, 880) scale(1,-1)" /></svg>