<svg xmlns="http://www.w3.org/2000/svg" width="1000" height="1000"><path d="M139 784V708H861V784ZM219 498 285 530C268 569 223 625 183 666L119 635C156 596 197 537 219 498ZM481 518 554 543C541 586 506 643 470 690L401 666C434 619 467 560 481 518ZM696 522 761 503C803 546 847 601 880 651L805 681C780 631 736 568 696 522ZM366 257V183C708 158 859 202 859 341C859 461 756 499 547 499C364 499 223 441 167 389L212 330C282 391 403 424 547 424C710 424 777 398 777 341C777 251 635 229 366 257ZM55 -8 80 -79C466 -38 529 67 529 215V356H448V223C448 122 437 32 55 -8ZM147 170H223V473H147ZM680 -75H797C920 -75 937 -19 949 105L876 114C868 16 859 -7 811 -7H670C629 -7 618 0 618 26V138H543V2C543 -53 580 -75 680 -75Z" transform="translate(0, 880) scale(1,-1)" /></svg>