<svg xmlns="http://www.w3.org/2000/svg" width="1000" height="1000"><path d="M213 -62Q288 -62 340.0 -15.0Q392 32 417.0 105.0Q442 178 442 254Q442 381 389.5 487.5Q337 594 243 690L185 645Q269 559 314.5 459.0Q360 359 360 254Q360 197 344.0 142.0Q328 87 294.5 51.5Q261 16 213 16Q182 16 163.5 36.0Q145 56 145 98Q145 179 218.0 264.0Q291 349 455 462L406 520Q59 290 59 98Q59 15 100.5 -23.5Q142 -62 213 -62ZM82 569Q313 659 458 745L412 810Q260 716 36 635ZM516 635V562H941V635ZM498 360V283H960V360ZM687 837V-67H769V837Z" transform="translate(0, 880) scale(1,-1)" /></svg>