<svg xmlns="http://www.w3.org/2000/svg" width="1000" height="1000"><path d="M567 451 597 376C787 414 865 496 865 587C865 691 765 741 621 741C490 741 398 706 302 636C332 691 358 752 376 819L294 836C252 692 171 551 78 460L144 413C195 469 225 510 251 549C365 630 513 667 613 667C712 667 778 635 778 587C778 520 693 466 567 451ZM113 -10 196 -11C190 108 207 235 235 346L155 355C124 240 106 105 113 -10ZM471 -50C526 -50 573 -40 634 -13V76C572 43 521 27 479 27C456 27 438 49 438 80C438 166 461 254 491 384L415 394C379 258 356 166 356 74C356 6 404 -50 471 -50ZM820 -23 905 -17C892 101 852 247 805 355L727 337C772 232 807 88 820 -23Z" transform="translate(0, 880) scale(1,-1)" /></svg>