<svg xmlns="http://www.w3.org/2000/svg" width="1000" height="1000"><path d="M242 507Q323 544 419.0 564.0Q515 584 612 584Q703 584 762.0 570.0Q821 556 821 528Q821 497 764.5 481.0Q708 465 613 465Q555 465 477 496L444 437Q546 405 644 405Q736 405 794.0 423.0Q852 441 877.5 468.5Q903 496 903 528Q903 594 816.5 622.5Q730 651 613 651Q515 651 409.5 630.5Q304 610 219 572ZM84 -3Q109 9 171 49L202 70Q220 81 245 81Q260 81 269.0 76.0Q278 71 286.5 53.0Q295 35 306 -3L463 91L436 126L336 85Q332 106 319.0 120.0Q306 134 279 140Q345 208 412 301L355 333Q286 239 205.0 168.5Q124 98 45 69ZM472 -80Q553 -80 599.5 -26.0Q646 28 646 114Q646 198 594.5 293.0Q543 388 461 473L402 429Q440 394 478.5 338.0Q517 282 542.0 223.0Q567 164 567 119Q567 67 540.5 28.0Q514 -11 469 -11Q420 -11 365 4V-71Q415 -80 472 -80ZM111 265Q256 315 383.5 381.5Q511 448 567 517L490 541Q449 488 328.0 426.5Q207 365 78 324ZM962 44Q788 136 454 246L433 184Q590 132 707.5 84.0Q825 36 911 -15ZM102 538Q192 592 274.5 666.0Q357 740 420 828L341 844Q297 778 221.5 710.0Q146 642 52 590ZM581 208Q687 239 748.0 260.0Q809 281 875 315L827 369Q762 335 702.0 311.5Q642 288 556 264ZM534 586Q578 634 607.5 670.0Q637 706 660 743L609 777L597 773H298V713H554Q541 693 520.0 668.0Q499 643 482 626ZM191 602V427H267V602Z" transform="translate(0, 880) scale(1,-1)" /></svg>