<svg xmlns="http://www.w3.org/2000/svg" width="1000" height="1000"><path d="M667 39C795 74 874 177 874 256C874 350 796 418 580 418C355 418 192 328 192 237C192 166 247 103 357 103C503 103 607 194 607 355C607 456 537 531 476 558L429 514C493 478 527 440 527 355C527 229 455 177 354 177C302 177 276 198 276 237C276 279 389 351 580 351C748 351 790 297 790 256C790 196 728 127 617 103ZM926 -56 945 21C649 -2 424 1 281 44C195 70 130 145 105 239L31 216C66 88 144 10 251 -21C400 -64 625 -78 926 -56ZM163 568H370V632H163ZM281 414C475 478 594 581 635 750L554 754C518 616 426 537 248 478ZM168 701C392 706 665 727 865 759L836 826C653 796 378 777 153 771ZM647 568H854V632H647Z" transform="translate(0, 880) scale(1,-1)" /></svg>