<svg xmlns="http://www.w3.org/2000/svg" width="1000" height="1000"><path d="M217 609 284 643C267 689 222 753 182 800L117 770C154 724 195 655 217 609ZM480 632 554 658C541 709 506 774 470 830L400 805C433 751 466 682 480 632ZM700 653 772 634C810 680 852 742 882 795L800 823C777 771 737 702 700 653ZM811 429 884 402C908 440 919 474 919 519C919 605 805 636 617 636C426 636 269 594 162 524V615H84V419H162V469C269 536 453 562 617 562C786 562 838 536 838 518C838 488 832 461 811 429ZM350 36 417 10C500 58 610 134 673 191L614 247L594 238H456C523 312 547 373 568 495L487 498C471 382 434 306 337 215L386 166L413 173H521C477 125 418 77 350 36ZM858 -82 893 -12C630 28 395 56 162 78L118 9C371 -15 616 -44 858 -82ZM131 218 206 189C250 235 280 313 298 376L222 397C206 335 176 263 131 218ZM696 213 766 188C790 231 819 301 841 358L763 385C748 331 719 258 696 213Z" transform="translate(0, 880) scale(1,-1)" /></svg>