<svg xmlns="http://www.w3.org/2000/svg" width="1000" height="1000"><path d="M952 0Q848 24 769.5 57.0Q691 90 590 140Q521 175 476.5 194.5Q432 214 380.5 226.5Q329 239 272 239Q188 239 137.0 199.5Q86 160 86 93Q86 25 130.5 -10.5Q175 -46 251 -46Q393 -46 485.0 38.5Q577 123 621.0 263.5Q665 404 669 578H594Q591 424 554.5 298.0Q518 172 442.0 95.5Q366 19 251 19Q206 19 183.0 40.0Q160 61 160 93Q160 126 186.5 147.0Q213 168 272 168Q324 168 372.5 155.0Q421 142 464.0 122.5Q507 103 575 68Q668 19 744.5 -13.5Q821 -46 917 -70ZM309 349Q347 389 385.5 440.0Q424 491 451 537L402 582L380 572H136V501H349Q320 448 251 375ZM100 322H920V392H100ZM81 652H917V723H81ZM572 717Q529 785 485 837L419 805Q470 749 507 684Z" transform="translate(0, 880) scale(1,-1)" /></svg>