<svg xmlns="http://www.w3.org/2000/svg" width="1000" height="1000"><path d="M35 325 106 275C210 381 304 509 379 639L309 675C235 543 142 422 35 325ZM53 564 120 513C212 597 298 698 366 802L299 841C233 737 147 642 53 564ZM193 485V-67H272V485ZM468 -36 550 -27C496 115 486 218 518 303C555 399 558 475 504 556L424 537C474 449 477 383 443 309C407 228 413 115 468 -36ZM575 639 617 703C576 733 499 780 441 811L401 755C459 721 536 670 575 639ZM706 -27 758 -82C893 10 955 131 955 282C955 412 908 480 813 480C775 480 741 466 719 442C746 514 785 606 856 734L781 767C685 581 639 455 635 394C632 332 633 276 641 211L719 204C707 283 706 330 721 363C731 390 753 404 808 404C853 404 875 364 875 282C875 143 833 61 706 -27ZM644 787V710H938V787Z" transform="translate(0, 880) scale(1,-1)" /></svg>