<svg xmlns="http://www.w3.org/2000/svg" width="1000" height="1000"><path d="M383 353 452 321C567 451 647 615 692 830L608 840C571 633 495 476 383 353ZM175 448 251 474C235 539 193 643 152 721L81 700C120 620 161 514 175 448ZM377 491 449 516C437 574 414 643 383 708L312 688C344 622 365 549 377 491ZM721 469 787 443C826 510 875 618 914 708L830 736C805 654 759 539 721 469ZM538 391C381 391 270 338 151 229L217 176C307 260 397 312 538 312C660 312 752 270 752 181C752 79 669 -12 495 -12C425 -12 392 21 392 65C392 94 416 122 454 122C513 122 566 85 583 -9L659 14C621 125 560 190 453 190C364 190 309 130 309 63C309 -19 379 -81 504 -81C699 -81 845 29 845 181C845 319 713 391 538 391Z" transform="translate(0, 880) scale(1,-1)" /></svg>