<svg xmlns="http://www.w3.org/2000/svg" width="1000" height="1000"><path d="M312 688 388 716C372 748 341 802 307 838L234 810C265 773 294 727 312 688ZM88 638H919V710H88ZM615 699 683 673C723 719 756 768 781 815L701 841C682 797 653 744 615 699ZM354 409V336C829 307 875 395 875 472C875 554 783 604 624 604C482 604 396 582 307 538C335 577 357 612 374 652L290 663C246 560 166 466 71 401L132 355C184 396 219 429 245 458C362 515 505 533 616 533C729 533 786 507 786 472C786 427 732 382 354 409ZM477 -94C528 -94 559 -59 559 1V469H482V4C482 -9 473 -20 459 -20C426 -20 393 -15 353 -1V-79C393 -90 429 -94 477 -94ZM181 -65C305 -65 378 -9 378 88C378 155 325 216 196 242L166 172C267 153 303 128 303 88C303 24 249 4 181 4C150 4 139 11 139 23C139 41 217 90 387 140L344 205C176 153 65 95 65 23C65 -28 106 -65 181 -65ZM189 223 254 192C309 227 359 264 392 295L338 348L323 338H86V270H248C233 253 218 241 189 223ZM590 228 615 160C666 190 735 212 790 212C833 212 855 198 855 177C855 138 816 130 754 145V75C857 63 931 75 931 177C931 259 874 282 790 282C713 282 638 258 590 228ZM708 -20H785V335H708ZM599 6 602 -63 898 -52 894 18ZM877 -74 947 -61C935 -19 920 24 904 67L835 55C851 11 865 -33 877 -74Z" transform="translate(0, 880) scale(1,-1)" /></svg>