<svg xmlns="http://www.w3.org/2000/svg" width="1000" height="1000"><path d="M475 -70C593 -70 649 51 646 183C646 317 572 493 461 634L402 578C484 482 567 307 567 182C566 102 546 8 471 8C431 8 393 16 355 33V-57C390 -67 430 -70 475 -70ZM556 368 580 301C694 342 777 374 874 436L827 502C740 444 669 408 556 368ZM105 776V697H895V776ZM548 735 469 757C403 612 291 526 88 455L121 380C339 464 476 565 548 735ZM619 269 588 201C716 141 824 81 911 15L962 84C870 145 755 206 619 269ZM415 75 478 118C418 229 343 334 276 418L215 377C284 291 355 183 415 75ZM98 257 129 181C269 239 388 316 470 403L415 454C337 370 237 307 98 257ZM91 87 119 11C299 84 441 183 523 274L467 324C389 239 261 153 91 87Z" transform="translate(0, 880) scale(1,-1)" /></svg>