<svg xmlns="http://www.w3.org/2000/svg" width="1000" height="1000"><path d="M0.0 0.0Q0 0 0.0 0.0Q0 0 0.0 0.0ZM455 -66Q511 -66 539.5 -43.0Q568 -20 568 30V556H487V49Q487 28 477.5 19.0Q468 10 442 10Q373 10 315 28V-55Q389 -66 455 -66ZM98 630H902V705H98ZM337 686Q264 539 208 458Q200 446 186.0 437.0Q172 428 156 425L187 357L212 369H866V445H290Q344 530 412 658ZM959 223Q794 247 570 247Q342 247 55 222V148Q301 168 517 168Q766 168 939 142ZM578 685Q565 724 544.5 767.0Q524 810 500 847L424 825Q448 785 468.5 741.5Q489 698 499 663Z" transform="translate(0, 880) scale(1,-1)" /></svg>