<svg xmlns="http://www.w3.org/2000/svg" width="1000" height="1000"><path d="M122 769 136 692C377 698 661 723 855 755L825 826C651 797 365 772 122 769ZM218 493 285 526C268 567 223 625 183 667L118 637C155 596 196 534 218 493ZM481 514 554 539C541 585 506 643 470 693L401 669C434 620 467 559 481 514ZM696 517 761 498C803 543 848 602 881 653L805 683C780 632 736 566 696 517ZM175 409 202 346C305 397 411 428 572 428C737 428 791 396 791 344C791 254 597 242 302 271V193C639 170 871 177 871 344C871 436 807 504 572 504C383 504 260 464 175 409ZM103 -20 148 -87C500 6 549 163 548 343H468C468 172 440 66 103 -20ZM842 -91 897 -30C799 33 685 97 585 145L539 85C641 35 754 -30 842 -91ZM219 178V476H140V178Z" transform="translate(0, 880) scale(1,-1)" /></svg>