<svg xmlns="http://www.w3.org/2000/svg" width="1000" height="1000"><path d="M614 289C725 289 798 357 798 474C798 573 728 646 571 640C462 636 371 581 313 514V645H236V307H313V425C369 521 467 560 571 562C668 564 715 523 715 474C715 398 672 360 601 360C542 360 506 363 450 384V309C506 294 549 289 614 289ZM360 -18 429 18C385 98 338 175 287 251L216 222C268 148 316 66 360 -18ZM59 -44H941V28H59ZM555 18 616 -18C686 61 743 145 784 217L713 251C675 178 616 90 555 18ZM101 721H899V793H101Z" transform="translate(0, 880) scale(1,-1)" /></svg>