<svg xmlns="http://www.w3.org/2000/svg" width="1000" height="1000"><path d="M48 634V554H455V634ZM115 454 179 483C171 564 150 677 130 762L67 739C85 657 105 535 115 454ZM234 494 301 513C296 603 279 719 261 817L195 800C211 704 226 582 234 494ZM330 467 394 451C415 540 437 669 452 771L383 793C371 692 349 562 330 467ZM189 -16V230H122V-16ZM335 164C390 164 422 206 432 413L377 425L361 418H78V345H359C350 255 338 239 318 239C283 239 249 242 214 250V172C251 166 287 164 335 164ZM91 7 108 -68 444 32 428 107ZM857 289 921 328C895 379 841 456 790 513L730 478C777 423 829 344 857 289ZM740 567V831H662V567ZM467 674H940V746H467ZM914 602H491V531H914ZM720 543 650 569C609 500 568 442 525 395C518 386 507 379 495 376L508 306L524 314L860 344L849 410L602 387C644 433 682 482 720 543ZM821 93 847 30C915 47 949 106 949 161C949 236 889 286 764 286C656 286 547 262 469 232L487 159C562 188 670 211 764 211C838 211 868 189 868 161C868 133 849 105 821 93ZM596 151V78H793V151ZM496 11V-64H906V11Z" transform="translate(0, 880) scale(1,-1)" /></svg>