<svg xmlns="http://www.w3.org/2000/svg" width="1000" height="1000"><path d="M614 289Q698 289 748.0 338.0Q798 387 798 474Q798 549 745.5 594.5Q693 640 589 640Q505 640 433.5 605.0Q362 570 313 514V645H236V307H313V425Q354 495 423.5 528.5Q493 562 578 562Q644 562 679.5 537.0Q715 512 715 474Q715 418 685.0 389.0Q655 360 601 360Q553 360 521.5 364.5Q490 369 450 384V309Q492 298 528.5 293.5Q565 289 614 289ZM429 18Q364 137 287 251L216 222Q288 120 360 -18ZM59 -44H941V28H59ZM616 -18Q712 90 784 217L713 251Q684 195 642.0 133.0Q600 71 555 18ZM101 721H899V793H101Z" transform="translate(0, 880) scale(1,-1)" /></svg>