<svg xmlns="http://www.w3.org/2000/svg" width="1000" height="1000"><path d="M35 -46 98 -87C186 31 210 249 210 368V537H866V607H136V370C136 264 115 63 35 -46ZM200 -62H946V4H527C580 37 610 87 610 132C610 198 565 225 503 225C458 225 399 197 399 138C399 80 442 54 512 54C680 54 771 105 771 212C771 299 705 349 571 349C527 349 497 342 474 332C522 358 559 381 602 410H847V473H264V410H515C474 371 437 337 391 312C346 288 311 271 272 249L318 193C402 257 477 287 568 287C663 287 698 252 698 212C698 145 635 108 516 108C476 108 461 120 461 138C461 156 477 169 503 169C531 169 547 158 547 132C547 81 512 43 448 4H200ZM874 118 945 136C932 200 910 266 874 326L812 304C846 248 864 188 874 118ZM63 679H940V751H63ZM460 607H535V841H460Z" transform="translate(0, 880) scale(1,-1)" /></svg>