<svg xmlns="http://www.w3.org/2000/svg" width="1000" height="1000"><path d="M56 -45H946V27H479Q523 72 551.5 127.0Q580 182 580 229Q580 288 545.0 323.0Q510 358 451 358Q420 358 391.5 343.5Q363 329 346.0 302.0Q329 275 329 241Q329 188 366.0 156.0Q403 124 464 124Q534 124 602.0 153.0Q670 182 714.0 235.0Q758 288 758 357Q758 442 696.5 494.0Q635 546 518 546Q480 546 457.5 543.0Q435 540 414 532Q524 611 653 713H917V785H80V713H537Q464 643 394.5 587.5Q325 532 230 469L183 440L142 415L197 348Q285 416 361.5 444.0Q438 472 515 472Q572 472 608.0 454.0Q644 436 659.0 410.0Q674 384 674 357Q674 307 637.5 269.5Q601 232 551.0 212.0Q501 192 464 192Q398 192 398 241Q398 262 412.0 277.0Q426 292 451 292Q478 292 490.0 275.0Q502 258 502 229Q501 165 471.5 113.0Q442 61 387 27H56ZM950 380Q928 503 867 610L798 583Q827 534 843.5 480.0Q860 426 870 360Z" transform="translate(0, 880) scale(1,-1)" /></svg>