<svg xmlns="http://www.w3.org/2000/svg" width="1000" height="1000"><path d="M69 729H930V801H69ZM811 479 883 453C907 490 919 523 919 567C919 659 805 688 597 688C426 688 269 648 162 579V661H84V470H162V519C269 584 453 610 597 610C786 610 838 588 838 566C838 537 832 510 811 479ZM338 491 418 511C403 580 371 682 343 759L267 742C295 668 324 562 338 491ZM546 507 618 487C649 558 689 660 717 749L637 767C613 678 577 576 546 507ZM365 280V206C704 180 857 204 857 336C857 433 762 474 547 474C405 474 278 433 223 395V334C291 376 418 402 547 402C706 402 778 376 778 336C778 259 640 250 365 280ZM941 55 957 130C737 148 444 148 55 129V59C439 76 733 72 941 55ZM147 187H223V442H147ZM450 -87C510 -87 544 -57 544 -4V331H467V10C467 -10 456 -20 431 -20C378 -20 325 -12 270 6V-72C328 -83 380 -87 450 -87Z" transform="translate(0, 880) scale(1,-1)" /></svg>