<svg xmlns="http://www.w3.org/2000/svg" width="1000" height="1000"><path d="M86 10H166V772H86ZM245 130H320V722H245ZM326 507 401 478C446 579 484 721 503 834L425 844C405 729 369 596 326 507ZM427 638H930L929 712H427ZM767 316C757 291 744 268 727 244L763 179C841 196 873 180 873 147C873 97 770 50 648 32L674 -32C823 -3 949 42 949 148C949 234 893 266 820 260L877 363L818 407L807 398C453 359 351 271 351 192C351 139 386 101 446 101C576 101 690 294 813 519L749 562L731 552H454V475H693C616 315 515 173 449 173C433 173 425 180 425 193C425 220 478 282 767 316ZM660 -99 730 -72C714 -16 682 62 652 121L584 94C614 39 643 -40 660 -99Z" transform="translate(0, 880) scale(1,-1)" /></svg>