<svg xmlns="http://www.w3.org/2000/svg" width="1000" height="1000"><path d="M235 526H765V596H235ZM317 709 393 732C376 764 348 806 317 841L245 821C273 787 303 742 317 709ZM89 648H911V718H89ZM600 706 668 690C697 728 733 786 756 826L673 844C658 805 628 747 600 706ZM832 294 900 245C928 274 939 314 939 355C939 466 788 493 614 493C427 493 294 464 152 398V464H77V259H152V344C326 405 454 419 613 419C751 419 856 393 856 351C856 330 847 308 832 294ZM227 -74C383 -74 464 -3 464 90C464 160 400 224 238 252L210 185C340 164 385 133 385 90C385 27 325 -2 227 -2C186 -2 167 7 167 24C167 56 271 100 480 156L431 214C228 158 84 103 84 24C84 -37 138 -74 227 -74ZM237 233 300 203C373 241 443 281 486 315L433 367L416 358H202V289H331C308 269 279 253 237 233ZM588 56V182H514V48C514 -46 548 -66 655 -66H805C882 -66 904 -21 917 118L840 127C832 25 822 4 776 4H671C601 4 588 13 588 56ZM734 124C788 124 818 175 828 356L767 368L753 360H508V289H750C742 201 731 189 711 189C677 189 645 192 612 200V131C647 126 688 124 734 124Z" transform="translate(0, 880) scale(1,-1)" /></svg>