<svg xmlns="http://www.w3.org/2000/svg" width="1000" height="1000"><path d="M74 119 382 256 358 317 51 193ZM198 -72C246 -72 274 -51 274 17V825H205V37C205 13 196 0 184 0C163 0 139 4 109 18V-60C140 -69 169 -72 198 -72ZM69 427H390V497H69ZM754 -77C792 -77 818 -55 818 14L819 810H740L738 23C738 5 741 -1 729 -1C707 -1 683 4 653 19V-65C686 -74 720 -77 754 -77ZM491 -82H570V810H491ZM389 226H942V303H389ZM384 535H926V613H384ZM72 716 78 644C185 648 303 660 387 674L377 745C291 730 178 717 72 716Z" transform="translate(0, 880) scale(1,-1)" /></svg>