<svg xmlns="http://www.w3.org/2000/svg" width="1000" height="1000"><path d="M464 527H548V837H464ZM281 576 355 605C333 657 276 739 223 801L153 773C205 711 260 629 281 576ZM720 579C762 632 815 712 856 780L779 806C750 743 698 655 656 602ZM633 -81C703 -81 762 -51 778 -1C814 110 826 285 820 412C815 519 737 567 590 567C491 567 388 557 275 536L277 469C404 493 503 499 591 499C677 499 737 469 740 408C745 306 733 124 705 30C697 3 668 -15 622 -15C571 -15 524 -12 469 1V-72C526 -78 581 -81 633 -81ZM156 -67C280 135 302 296 310 556H231C223 292 206 160 78 -32ZM671 157 672 217 343 220 342 160ZM680 312 681 374 360 377 359 314Z" transform="translate(0, 880) scale(1,-1)" /></svg>