<svg xmlns="http://www.w3.org/2000/svg" width="1000" height="1000"><path d="M650 -76Q785 -68 851.0 -16.5Q917 35 917 123Q917 279 520 279Q380 279 282.0 257.5Q184 236 134.5 197.5Q85 159 85 109Q85 23 171.5 -18.0Q258 -59 377 -59Q454 -59 504.5 -20.0Q555 19 556 93L559 528H482L483 101Q483 54 454.0 32.0Q425 10 377 10Q290 10 226.5 31.0Q163 52 163 109Q163 133 205.5 157.0Q248 181 329.0 196.5Q410 212 520 212Q678 212 757.5 188.5Q837 165 837 123Q837 68 787.5 31.5Q738 -5 622 -11ZM182 358 208 368H827L828 435H255Q319 522 358 600H279Q265 569 239.0 524.5Q213 480 195 456Q175 431 154 426ZM387 690Q374 721 349.0 763.5Q324 806 298 840L230 815Q254 782 277.0 739.5Q300 697 315 659ZM78 600H929V668H78ZM685 634Q741 721 788 821L709 844Q695 805 672.5 754.0Q650 703 628 664Z" transform="translate(0, 880) scale(1,-1)" /></svg>