<svg xmlns="http://www.w3.org/2000/svg" width="1000" height="1000"><path d="M143 477H871V549H539V646H937V718H539V841H460V718H70V646H460V549H143ZM117 -22Q563 244 706 354L665 410L637 401H259V328H552Q471 272 342.0 196.5Q213 121 67 43ZM511 -65Q554 -65 591.5 -57.0Q629 -49 674 -29V51Q626 27 591.0 16.0Q556 5 525 5Q506 5 498.5 11.5Q491 18 491 39V228H412V25Q412 -22 436.0 -43.5Q460 -65 511 -65ZM955 37Q768 162 626 232L579 178Q657 137 742.5 83.0Q828 29 902 -25Z" transform="translate(0, 880) scale(1,-1)" /></svg>