<svg xmlns="http://www.w3.org/2000/svg" width="1000" height="1000"><path d="M480 246H556V642H887V714H211V642H480ZM545 -67Q525 -28 491.5 14.5Q458 57 421 94L355 63Q389 33 421.5 -12.0Q454 -57 473 -99ZM492 -38 539 -39Q737 -39 824.5 2.0Q912 43 912 121Q912 187 837.0 228.0Q762 269 591 269Q438 269 318.0 242.0Q198 215 88 161L139 103Q318 197 591 197Q709 197 768.5 175.0Q828 153 828 121Q828 75 740.5 47.0Q653 19 454 21ZM126 455Q187 537 230.5 627.5Q274 718 313 834L237 852Q167 641 58 500ZM278 337H767V409H278ZM278 482H767V554H278Z" transform="translate(0, 880) scale(1,-1)" /></svg>