<svg xmlns="http://www.w3.org/2000/svg" width="1000" height="1000"><path d="M725 -76Q771 -76 803.5 -49.0Q836 -22 855.5 58.5Q875 139 875 293Q875 394 858.5 451.0Q842 508 806.0 532.0Q770 556 708 556Q656 556 590.5 533.5Q525 511 481 480L511 410Q549 437 605.0 456.0Q661 475 708 475Q755 475 775.0 431.0Q795 387 795 293Q795 171 783.0 106.5Q771 42 752.5 20.5Q734 -1 710 -1Q680 -1 654.0 4.0Q628 9 596 20V-63Q648 -76 725 -76ZM85 91 469 234 439 296 58 160ZM257 -73Q305 -73 323.0 -53.0Q341 -33 341 9V583H262V16Q262 7 257.0 3.0Q252 -1 240 -1Q203 -1 137 19V-61Q196 -73 257 -73ZM73 412H450V483H73ZM290 642Q278 677 251.0 725.5Q224 774 195 817L129 783Q153 747 179.5 696.0Q206 645 222 605ZM581 138H938V210H581ZM581 310H938V382H581ZM570 641Q560 682 537.5 737.5Q515 793 489 839L419 812Q442 768 463.5 710.5Q485 653 496 610ZM773 586Q840 687 885 794L809 820Q792 774 764.0 717.0Q736 660 708 615Z" transform="translate(0, 880) scale(1,-1)" /></svg>