<svg xmlns="http://www.w3.org/2000/svg" width="1000" height="1000"><path d="M68 592H417V667H68ZM259 680 311 732C284 766 253 799 216 830L169 779C203 748 233 714 259 680ZM63 301 95 238 107 246H401L402 320H146C151 359 154 403 156 448H389V523H88C87 452 80 367 74 322C72 312 68 305 63 301ZM228 28C228 11 223 -3 212 -5C184 -6 153 1 126 11V-64C153 -71 185 -73 214 -73C257 -73 300 -41 300 16V400H228ZM413 121 403 193 62 143 72 71ZM417 701 489 672C539 709 584 755 622 802L549 825C513 777 467 735 417 701ZM401 547 455 489C658 527 818 602 911 747L859 782L840 777H514V711H800C737 638 597 583 401 547ZM878 490 941 546C780 608 650 649 500 683L452 630C600 595 725 554 878 490ZM448 484V413H907V484ZM640 447V347H714V447ZM448 376V305H907V376ZM426 231 458 161C526 196 606 218 726 218C826 218 853 204 853 189C853 157 744 152 547 167V96C775 83 931 80 931 189C931 245 890 289 726 289C593 289 492 263 426 231ZM413 -12 444 -82C683 -38 714 34 714 184H636C636 47 623 27 413 -12ZM896 -90 945 -27C881 12 810 49 751 72L707 11C770 -17 839 -54 896 -90Z" transform="translate(0, 880) scale(1,-1)" /></svg>