<svg xmlns="http://www.w3.org/2000/svg" width="1000" height="1000"><path d="M892 -92 935 -18C770 74 687 210 687 837H603C605 184 699 17 892 -92ZM868 580 938 607C920 680 895 749 863 813L800 778C829 723 853 650 868 580ZM158 546V471H554V546ZM158 427V352H554V427ZM154 248 165 184C230 219 306 242 421 242C505 242 531 230 531 213C531 179 428 172 241 188V116C458 103 606 102 606 213C606 270 568 313 421 313C293 313 208 286 154 248ZM113 5 143 -66C371 -21 401 54 401 206H323C324 68 311 45 113 5ZM570 -73 621 -8C559 32 491 70 435 93L390 30C451 2 517 -36 570 -73ZM191 111V295H115V111ZM74 682V602H816V682Z" transform="translate(0, 880) scale(1,-1)" /></svg>