<svg xmlns="http://www.w3.org/2000/svg" width="1000" height="1000"><path d="M464 -81Q508 -81 528.0 -59.0Q548 -37 548 16V595H470V26Q470 11 464.0 1.5Q458 -8 447 -8Q396 -8 345 8V-72Q402 -83 464 -81ZM229 18Q228 141 244 262L167 267Q151 144 152 22ZM55 114H947V186H55ZM233 299H771V371H233ZM233 299H771V371H233ZM852 25Q848 146 825 268L748 260Q771 138 775 16ZM233 447H771V519H233ZM387 690Q374 721 349.0 763.5Q324 806 298 840L230 815Q255 780 279.5 736.0Q304 692 315 662ZM108 595H899V668H108ZM691 647Q739 722 788 821L709 844Q696 806 673.5 757.5Q651 709 628 668Z" transform="translate(0, 880) scale(1,-1)" /></svg>