<svg xmlns="http://www.w3.org/2000/svg" width="1000" height="1000"><path d="M470 734H165V661H704L495 534L533 506L850 675L802 744L780 734H553L513 843L441 826ZM692 102Q728 90 770 90Q833 90 867.0 149.5Q901 209 901 348Q901 448 831.0 502.5Q761 557 619 557Q526 557 449.5 550.0Q373 543 295 528L323 456Q403 469 472.0 475.5Q541 482 619 482Q719 482 768.0 444.5Q817 407 817 339Q817 247 805.5 205.5Q794 164 770 164Q743 164 726.0 168.5Q709 173 692 183ZM143 348V136H219V348ZM123 160 133 83 655 138 645 210ZM288 336V268H712V336ZM464 423V-37H537V423ZM125 11V-69H875V11Z" transform="translate(0, 880) scale(1,-1)" /></svg>