<svg xmlns="http://www.w3.org/2000/svg" width="1000" height="1000"><path d="M767 438C863 438 906 458 934 569L851 578C837 518 821 505 767 505C540 505 451 681 420 832L336 819C374 657 466 438 767 438ZM106 515 149 446C415 476 684 536 823 605L763 660C654 603 405 544 106 515ZM102 641 881 682 875 756 96 715ZM169 335 195 275C302 318 416 345 585 345C757 345 813 319 813 280C813 212 605 204 299 228V152C650 133 893 135 893 280C893 360 826 419 585 419C388 419 257 385 169 335ZM95 -24 140 -89C503 -11 552 112 551 279H471C471 123 446 49 95 -24ZM857 -95 911 -34C809 20 695 74 597 113L553 53C654 11 767 -43 857 -95ZM212 141V395H133V141Z" transform="translate(0, 880) scale(1,-1)" /></svg>