<svg xmlns="http://www.w3.org/2000/svg" width="1000" height="1000"><path d="M108 718 122 641C375 647 674 673 878 706L846 778C664 748 363 722 108 718ZM176 587V512H824V587ZM120 449V370H880V449ZM456 -79C523 -79 551 -51 551 10V823H472V21C472 4 460 -8 438 -8C399 -8 348 1 301 14V-66C348 -74 402 -79 456 -79ZM57 35 115 -21C198 21 290 85 347 152L274 185C224 127 140 70 57 35ZM62 222H942V295H62ZM882 -24 941 26C893 71 789 139 706 184L650 137C734 90 835 20 882 -24Z" transform="translate(0, 880) scale(1,-1)" /></svg>