<svg xmlns="http://www.w3.org/2000/svg" width="1000" height="1000"><path d="M213 545 283 581C266 637 221 715 181 773L113 742C150 685 191 601 213 545ZM478 573 555 600C542 662 507 742 471 810L398 785C431 718 464 634 478 573ZM697 569 765 547C807 608 853 693 886 764L806 795C781 725 737 635 697 569ZM501 82C801 82 914 221 914 333C914 434 855 546 500 546C329 546 207 514 67 435L102 364C211 429 341 467 500 467C773 467 828 392 828 333C828 263 728 156 501 156C325 156 266 180 266 221C266 261 347 300 487 300C587 300 674 272 731 187L791 232C708 323 613 366 487 366C294 366 182 300 182 221C182 137 259 82 501 82ZM455 -79H534V497H455Z" transform="translate(0, 880) scale(1,-1)" /></svg>