<svg xmlns="http://www.w3.org/2000/svg" width="1000" height="1000"><path d="M864 756 799 794 786 787H438V710H721C593 584 334 488 227 488C172 488 150 512 150 536C150 563 173 585 256 585C398 585 612 484 873 401L916 471C663 550 425 656 256 656C145 656 66 609 66 536C66 476 120 412 227 412C400 412 735 570 864 756ZM566 435 616 374C728 430 834 497 920 565L869 618C785 550 680 487 566 435ZM130 117H208V229C327 273 486 293 619 293C737 293 810 273 810 240C810 181 694 172 513 191V118C745 102 890 117 890 240C890 334 778 366 619 366C476 366 328 341 208 285V351H130ZM458 -12H537V443H458ZM92 3 96 -68 819 -30 815 41ZM837 -84 909 -57C881 -4 848 49 811 103L742 77C778 23 810 -32 837 -84ZM285 664 356 703C327 748 296 790 262 832L194 793C227 751 257 708 285 664Z" transform="translate(0, 880) scale(1,-1)" /></svg>