<svg xmlns="http://www.w3.org/2000/svg" width="1000" height="1000"><path d="M633 370Q687 395 717.5 430.5Q748 466 748 501Q748 552 686.5 583.0Q625 614 517 614Q388 614 320.0 589.0Q252 564 252 515Q252 473 302.0 445.5Q352 418 437 418Q492 418 523.0 439.5Q554 461 554 492V839H473V509Q473 491 458.0 482.5Q443 474 418 474Q391 474 364.0 486.5Q337 499 337 515Q337 534 378.0 544.5Q419 555 517 555Q584 555 623.5 538.5Q663 522 663 500Q663 470 632.5 439.0Q602 408 519 370ZM0.0 0.0Q0 0 0.0 0.0Q0 0 0.0 0.0ZM77 12Q184 54 312.5 130.5Q441 207 540 301H440Q369 244 248.5 180.0Q128 116 37 86ZM481 -65Q523 -65 561.0 -56.0Q599 -47 644 -26V61Q597 35 561.5 23.0Q526 11 495 11Q476 11 468.5 18.0Q461 25 461 48V247H382V33Q382 -19 406.0 -42.0Q430 -65 481 -65ZM78 301H930V370H78ZM955 33Q882 93 801.5 147.0Q721 201 649 239L614 184Q684 143 760.0 85.5Q836 28 907 -37ZM95 665H912V733H95Z" transform="translate(0, 880) scale(1,-1)" /></svg>