<svg xmlns="http://www.w3.org/2000/svg" width="1000" height="1000"><path d="M149 795V720H851V795ZM278 516 338 563C311 605 255 663 202 708L146 664C197 620 252 559 278 516ZM461 490H539V740H461ZM651 560 708 516C755 555 816 616 861 669L795 713C760 663 699 600 651 560ZM816 356 893 333C913 376 922 400 922 421C922 492 818 533 587 533C419 533 265 510 165 477V520H83V349H165V411C277 439 433 458 587 458C782 458 837 440 837 415C837 402 831 386 816 356ZM225 -79C375 -79 442 14 442 93C442 189 362 263 255 325L197 301C300 240 361 169 361 93C361 37 320 -7 225 -7C184 -7 163 5 163 23C163 63 247 109 454 184L405 234C200 163 78 96 78 23C78 -43 140 -79 225 -79ZM57 296 93 232C223 261 346 292 446 325L410 388C312 353 189 322 57 296ZM509 296V228H908V296ZM492 150V80H926V150ZM668 392V-87H748V392Z" transform="translate(0, 880) scale(1,-1)" /></svg>