<svg xmlns="http://www.w3.org/2000/svg" width="1000" height="1000"><path d="M49 387 77 315C498 423 707 555 890 677L833 736C654 616 451 493 49 387ZM142 656H716V733H142ZM946 559H54V482H946ZM395 525H475V841H395ZM119 -38 187 -80C296 41 418 201 488 432L402 448C334 220 220 70 119 -38ZM585 -91C771 -91 839 2 839 118C839 189 778 241 619 241C529 241 439 234 347 222L351 152C445 159 539 164 619 164C706 164 756 150 756 118C756 33 695 -19 570 -19C494 -19 427 -14 364 -1V-83C426 -88 490 -91 585 -91ZM680 35 681 107 362 110 360 38ZM258 365V290H868V365Z" transform="translate(0, 880) scale(1,-1)" /></svg>