<svg xmlns="http://www.w3.org/2000/svg" width="1000" height="1000"><path d="M802 462 847 411C889 444 931 485 931 546C931 633 843 691 583 691C406 691 262 660 152 602V669H78V431H152V545C266 591 418 618 582 618C799 618 851 579 851 546C851 515 836 487 802 462ZM461 501H540V779H461ZM703 528H298V455H703ZM823 817 168 816V744H823ZM284 -69H597C661 -69 705 -35 705 33C705 76 689 123 665 172L590 142C612 96 621 62 621 40C621 19 606 7 579 7H294C262 7 247 12 247 32C247 65 264 111 404 311L336 352C185 129 164 81 164 32C164 -19 195 -69 284 -69ZM151 293H829V372H151ZM858 57 917 113C868 163 812 212 749 259L695 205C757 158 811 107 858 57Z" transform="translate(0, 880) scale(1,-1)" /></svg>