<svg xmlns="http://www.w3.org/2000/svg" width="1000" height="1000"><path d="M312 697 388 722C372 753 341 802 307 835L234 810C265 775 294 734 312 697ZM88 638H919V713H88ZM882 482V557H330L329 482ZM784 810 698 840C591 679 302 534 73 449L127 383C363 478 660 644 784 810ZM456 -89C523 -89 551 -62 551 -4V363H472V7C472 -9 460 -21 438 -21C399 -21 348 -12 301 1V-77C348 -85 402 -89 456 -89ZM57 16 115 -43C198 -6 290 51 347 109L274 148C224 97 140 47 57 16ZM62 170H942V245H62ZM882 -46 941 8C893 47 789 107 706 147L650 96C734 54 835 -6 882 -46ZM195 404V329H831V404Z" transform="translate(0, 880) scale(1,-1)" /></svg>