<svg xmlns="http://www.w3.org/2000/svg" width="1000" height="1000"><path d="M460 -78H539V91H948V166H539V288H833V361H539V479H818V554H539V661H460V554H180V479H460V361H170V288H460V166H53V91H460ZM886 532Q904 567 912.5 599.5Q921 632 921 672Q921 741 842.5 772.0Q764 803 617 803Q476 803 359.0 768.0Q242 733 160 669V787H82V552H160V613Q236 669 359.5 696.5Q483 724 617 724Q695 724 744.5 715.5Q794 707 816.5 695.0Q839 683 839 671Q839 642 833.0 616.5Q827 591 812 564Z" transform="translate(0, 880) scale(1,-1)" /></svg>