<svg xmlns="http://www.w3.org/2000/svg" width="1000" height="1000"><path d="M561 -70Q741 -70 833.5 15.0Q926 100 926 287Q926 369 882.5 435.5Q839 502 753.5 541.0Q668 580 547 580Q387 580 267.0 545.0Q147 510 65 462L105 396Q170 440 284.0 472.0Q398 504 547 504Q643 504 710.5 472.5Q778 441 811.5 391.0Q845 341 845 287Q845 134 772.5 67.5Q700 1 557 1Q521 1 475.0 8.0Q429 15 385 27V-51Q468 -70 561 -70ZM247 76Q275 139 299.5 222.5Q324 306 336 381L263 391Q254 323 230.5 244.0Q207 165 179 106ZM638 93Q624 156 597.5 243.5Q571 331 543 405L469 384Q496 313 521.0 225.0Q546 137 559 72ZM407 552H476L601 713H517ZM134 712H866V788H134Z" transform="translate(0, 880) scale(1,-1)" /></svg>