<svg xmlns="http://www.w3.org/2000/svg" width="1000" height="1000"><path d="M206 -54C356 -54 402 111 402 257C402 495 317 568 73 544V468C281 491 321 446 321 249C321 153 293 26 206 26C175 26 143 48 143 93C143 197 252 316 452 399L422 469C205 379 63 222 63 93C63 -1 130 -54 206 -54ZM345 614 382 683C285 729 206 761 115 790L91 722C179 694 253 661 345 614ZM554 164 609 102C838 203 914 244 914 331C914 405 830 463 615 501C757 564 865 632 961 751L894 792L879 778H457V703H806C714 618 615 558 471 509L480 447C755 406 829 362 829 331C829 292 765 250 554 164ZM902 -93 952 -31C848 35 630 141 465 206L437 140C595 77 803 -27 902 -93Z" transform="translate(0, 880) scale(1,-1)" /></svg>