<svg xmlns="http://www.w3.org/2000/svg" width="1000" height="1000"><path d="M200 422 228 434H870L871 501H287Q375 613 476 820L395 840Q366 767 322.5 688.0Q279 609 236 551Q218 526 201.0 513.0Q184 500 158 490ZM952 27Q766 12 619 12Q404 12 283 48Q219 67 174.0 117.0Q129 167 109 238L31 216Q57 121 113.5 62.0Q170 3 253 -21Q406 -65 655 -65Q772 -65 928 -54ZM914 300Q752 316 581 316Q387 316 173 296V230Q345 245 524 245Q719 245 894 227ZM501 62H583V617H501ZM116 671H899V741H116Z" transform="translate(0, 880) scale(1,-1)" /></svg>