<svg xmlns="http://www.w3.org/2000/svg" width="1000" height="1000"><path d="M377 67V736H294V69C294 -30 319 -58 389 -58H846C931 -58 959 -1 965 121L890 131C886 39 867 16 842 16H408C386 16 377 27 377 67ZM206 475V736H126V475C126 293 116 108 34 -32L100 -78C193 75 206 289 206 475ZM53 783V699H444V783ZM452 340H526V503C586 576 669 608 736 608C793 608 824 576 824 519C824 417 771 406 679 432V353C814 328 900 352 900 519C900 638 834 686 736 686C664 686 587 652 526 572V680H452ZM632 150H709V814H632ZM450 168 457 92 846 130 838 206ZM837 60 909 79C894 154 876 230 856 305L786 287C805 212 822 135 837 60Z" transform="translate(0, 880) scale(1,-1)" /></svg>