<svg xmlns="http://www.w3.org/2000/svg" width="1000" height="1000"><path d="M257 686Q320 713 386.0 724.0Q452 735 567 735Q710 735 766.5 701.5Q823 668 823 613Q823 550 764.5 517.5Q706 485 604 485Q439 485 306 498V429Q431 418 604 418Q702 418 769.0 443.5Q836 469 868.5 513.0Q901 557 901 613Q901 698 829.0 752.0Q757 806 567 806Q444 806 369.0 790.0Q294 774 239 746ZM297 575H703V639H297ZM190 556Q302 699 350 834L280 854Q235 725 130 596ZM620 369Q493 369 375.5 345.5Q258 322 111 276L150 216Q265 255 390.5 279.5Q516 304 609 304Q713 304 778.0 271.5Q843 239 843 163Q843 78 795.0 36.5Q747 -5 675 -5Q603 -5 501 14V-61Q586 -74 685 -74Q754 -74 807.0 -46.0Q860 -18 890.0 35.5Q920 89 920 163Q920 369 620 369ZM280 15Q328 15 409.0 52.5Q490 90 571.5 142.5Q653 195 700 237L633 278Q592 238 525.0 190.5Q458 143 395.0 110.0Q332 77 299 77Q287 77 274.5 91.5Q262 106 255 130L180 118Q195 65 217.5 40.0Q240 15 280 15ZM644 87Q604 124 536.0 170.5Q468 217 410 248L357 208Q410 180 478.5 131.0Q547 82 587 45ZM463 328Q514 407 538.0 532.0Q562 657 562 774H490Q490 661 466.0 538.5Q442 416 391 338Z" transform="translate(0, 880) scale(1,-1)" /></svg>