<svg xmlns="http://www.w3.org/2000/svg" width="1000" height="1000"><path d="M194 570 244 540C315 596 407 683 465 758L404 793L388 788H81V720H348C312 677 246 613 194 570ZM789 -70C891 -40 942 26 942 93C942 179 890 228 787 228C726 228 668 204 614 161C665 245 720 353 720 638V831H641V638C641 334 583 228 501 110C483 84 467 69 442 54L482 -8C582 79 705 157 787 157C841 157 867 128 867 93C867 52 831 16 759 -4ZM162 585 149 518C257 491 320 415 320 283C320 143 281 39 193 39C159 39 130 64 130 109C130 331 493 479 931 479V555C481 555 55 382 55 103C55 9 114 -41 193 -41C335 -41 398 96 398 283C398 452 310 553 162 585Z" transform="translate(0, 880) scale(1,-1)" /></svg>