<svg xmlns="http://www.w3.org/2000/svg" width="1000" height="1000"><path d="M192 497 254 452C310 519 365 596 411 694L346 726C305 640 252 557 192 497ZM190 64V797H115V51C115 23 105 8 98 1L141 -70L392 127L342 183ZM36 323H416V399H36ZM467 420 586 499 546 555 427 478ZM693 514V433C883 414 945 486 945 583C945 672 887 732 737 732C609 732 492 688 420 640L464 569C526 615 631 654 737 654C819 654 863 633 863 583C863 522 809 496 693 514ZM443 350V273H922V350ZM436 186V104H931V186ZM637 -74C692 -74 725 -39 725 22V829H648V36C648 17 640 1 624 1C587 1 547 9 508 26V-59C550 -70 588 -74 637 -74Z" transform="translate(0, 880) scale(1,-1)" /></svg>