<svg xmlns="http://www.w3.org/2000/svg" width="1000" height="1000"><path d="M283 623Q271 660 242.5 709.0Q214 758 181 802L114 771Q140 733 168.0 681.0Q196 629 214 588ZM554 640Q536 721 470 836L399 811Q425 763 447.0 709.0Q469 655 479 614ZM764 590Q822 668 884 791L805 822Q786 774 756.0 716.0Q726 658 696 612ZM883 376Q901 404 909.5 429.5Q918 455 918 487Q918 548 841.5 574.5Q765 601 617 601Q476 601 359.5 573.0Q243 545 161 494V580H85V392H161V440Q237 485 360.0 507.0Q483 529 617 529Q732 529 785.5 516.0Q839 503 839 486Q839 441 812 401ZM456 -79Q506 -79 528.5 -57.5Q551 -36 551 11V471H472V23Q472 10 463.0 1.5Q454 -7 438 -7Q381 -7 301 15V-66Q377 -79 456 -79ZM115 -9Q180 29 243.0 81.5Q306 134 347 189L272 220Q235 170 176.5 123.5Q118 77 55 47ZM62 267H942V342H62ZM943 37Q908 74 840.5 125.5Q773 177 708 218L650 172Q714 131 780.5 78.0Q847 25 882 -13Z" transform="translate(0, 880) scale(1,-1)" /></svg>