<svg xmlns="http://www.w3.org/2000/svg" width="1000" height="1000"><path d="M801 418 852 357C894 395 932 444 932 517C932 615 843 686 583 686C406 686 263 650 153 581V663H77V380H153V522C267 576 418 608 582 608C798 608 850 556 850 517C850 481 835 448 801 418ZM461 475H540V782H461ZM593 504 298 502V426H511C382 321 223 224 52 144L110 74C320 187 520 321 684 459L620 516ZM823 823 168 822V746H823ZM187 34V-46H833V34ZM331 63 404 101C377 172 320 276 268 353L199 320C251 244 306 136 331 63ZM585 95 653 63C698 130 758 238 801 329L725 362C692 276 632 166 585 95Z" transform="translate(0, 880) scale(1,-1)" /></svg>