<svg xmlns="http://www.w3.org/2000/svg" width="1000" height="1000"><path d="M312 676 388 705C372 740 341 797 307 835L234 806C265 766 294 718 312 676ZM88 614H919V688H88ZM882 438V511H331L330 438ZM784 811 701 838C594 653 302 482 73 385L127 320C363 429 660 621 784 811ZM456 -89C523 -89 551 -61 551 0V393H472V11C472 -6 460 -18 438 -18C399 -18 348 -9 301 4V-76C348 -84 402 -89 456 -89ZM57 25 115 -31C198 11 290 76 347 143L274 176C224 117 140 60 57 25ZM62 213H942V286H62ZM882 -34 941 16C893 61 789 129 706 175L650 128C734 80 835 11 882 -34Z" transform="translate(0, 880) scale(1,-1)" /></svg>