<svg xmlns="http://www.w3.org/2000/svg" width="1000" height="1000"><path d="M771 -64Q817 -64 843.5 -43.0Q870 -22 882.5 22.5Q895 67 900 146L829 163Q826 96 820.0 64.0Q814 32 802.0 20.0Q790 8 766 8H376Q338 8 320.5 15.0Q303 22 303 38Q303 60 374.0 156.0Q445 252 619 473L553 510L482 421Q338 241 279.0 158.0Q220 75 220 39Q220 -17 256.0 -40.5Q292 -64 369 -64ZM138 261 176 276H678V347H220Q284 444 353.5 577.0Q423 710 468 822L387 845Q351 748 285.5 614.5Q220 481 172 401Q153 370 140.0 356.5Q127 343 110 338ZM77 622H924V695H77ZM936 275Q918 354 900.0 418.0Q882 482 857 536L782 520Q824 421 855 256Z" transform="translate(0, 880) scale(1,-1)" /></svg>