<svg xmlns="http://www.w3.org/2000/svg" width="1000" height="1000"><path d="M650 -76C835 -65 917 9 917 123C917 218 806 279 520 279C232 279 85 207 85 109C85 -16 239 -59 377 -59C473 -59 555 -10 556 93L559 528H482L483 101C483 34 436 10 377 10C288 10 163 24 163 109C163 156 289 212 520 212C735 212 837 178 837 123C837 58 789 -2 622 -11ZM182 358 208 368H827L828 435H255C291 484 328 540 358 600H279C261 561 220 489 195 456C180 437 167 429 154 426ZM315 659 387 690C370 731 333 794 298 840L230 815C262 770 295 709 315 659ZM78 600H929V668H78ZM685 634C722 691 761 763 788 821L709 844C691 792 657 716 628 664Z" transform="translate(0, 880) scale(1,-1)" /></svg>