<svg xmlns="http://www.w3.org/2000/svg" width="1000" height="1000"><path d="M87 654H913V731H561L507 845L430 827L474 731H87ZM87 408 158 371C220 430 272 515 294 599L217 617C198 538 143 457 87 408ZM872 396 949 437C912 489 843 568 782 623L713 582C779 522 838 447 872 396ZM583 -84C671 -84 720 -61 740 -19C786 77 818 236 812 345C807 438 736 484 604 484C528 484 447 476 358 458L360 374C459 396 537 402 605 402C676 402 731 374 732 332C734 245 705 118 667 38C656 15 627 1 572 1C521 1 474 6 419 24V-71C476 -79 531 -84 583 -84ZM85 -29 155 -79C279 73 411 363 489 679L407 689C329 379 206 110 85 -29ZM654 106 658 185 349 193 345 114ZM693 241 697 318 396 327 392 249Z" transform="translate(0, 880) scale(1,-1)" /></svg>