<svg xmlns="http://www.w3.org/2000/svg" width="1000" height="1000"><path d="M239 746 257 686C337 720 407 735 567 735C775 735 823 676 823 613C823 527 736 485 604 485C502 485 408 488 306 498V429C408 420 502 418 604 418C808 418 901 505 901 613C901 708 846 806 567 806C387 806 300 777 239 746ZM297 575H703V639H297ZM190 556C263 649 317 741 350 834L280 854C250 768 200 682 130 596ZM620 369C438 369 285 331 111 276L150 216C299 266 482 304 609 304C732 304 843 272 843 163C843 42 762 -5 675 -5C629 -5 571 1 501 14V-61C560 -70 619 -74 685 -74C821 -74 920 11 920 163C920 321 786 369 620 369ZM280 15C383 15 611 158 700 237L633 278C553 200 368 77 299 77C283 77 265 97 255 130L180 118C199 53 223 15 280 15ZM587 45 644 87C589 138 484 208 410 248L357 208C430 170 536 93 587 45ZM463 328C538 444 562 642 562 774H490C490 646 465 452 391 338Z" transform="translate(0, 880) scale(1,-1)" /></svg>