<svg xmlns="http://www.w3.org/2000/svg" width="1000" height="1000"><path d="M97 365 414 466 388 533 70 437ZM188 420V813H111V420ZM149 692V621H423V692ZM434 439 475 373C641 436 904 563 904 691C904 779 836 816 717 816C610 816 527 801 446 773L469 703C548 733 620 745 717 745C786 745 827 724 827 691C827 592 600 495 434 439ZM888 369 944 426C791 531 675 592 534 643L492 589C631 535 737 476 888 369ZM84 -42H917V32H84ZM157 253H846V326H157ZM204 179V106H796V179Z" transform="translate(0, 880) scale(1,-1)" /></svg>