<svg xmlns="http://www.w3.org/2000/svg" width="1000" height="1000"><path d="M366 407V341C708 302 857 380 857 575C857 727 756 809 547 809C391 809 271 742 223 681V590C291 681 408 737 547 737C710 737 778 676 778 575C778 418 635 374 366 407ZM55 2 80 -66C446 -10 529 144 529 386V596H448V388C448 227 437 75 55 2ZM147 303H223V780H147ZM680 -65H797C920 -65 937 -4 949 158L876 169C868 28 859 0 811 0H670C629 0 618 7 618 37V253H543V23C543 -46 580 -65 680 -65Z" transform="translate(0, 880) scale(1,-1)" /></svg>