<svg xmlns="http://www.w3.org/2000/svg" width="1000" height="1000"><path d="M313 670 388 698C372 733 340 791 305 831L232 803C264 763 294 712 313 670ZM88 613H919V687H88ZM615 679 682 653C723 703 757 757 783 808L702 834C683 786 654 728 615 679ZM349 70 424 39C517 103 641 192 709 250L656 320L634 311H410C461 386 504 477 541 574L458 590C418 485 362 377 291 283L343 228L369 239H567C515 188 437 128 349 70ZM876 -87 904 -10C644 47 386 90 140 123L103 51C367 14 623 -30 876 -87ZM121 428 174 384 197 400H834V476H229C255 526 276 584 297 645L225 660C198 572 161 493 121 428Z" transform="translate(0, 880) scale(1,-1)" /></svg>