<svg xmlns="http://www.w3.org/2000/svg" width="1000" height="1000"><path d="M45 112 84 34C122 57 157 88 202 127C219 141 246 142 261 138C278 132 289 106 306 28L463 147L436 192L336 140C331 172 317 198 279 210C327 273 372 344 412 415L355 449C268 299 156 163 45 112ZM475 -70C593 -70 649 51 646 183C646 317 572 493 461 634L402 578C484 482 567 307 567 182C566 102 546 8 471 8C431 8 393 16 355 33V-57C390 -67 430 -70 475 -70ZM911 15 962 84C835 169 663 253 454 342L433 269C630 186 791 106 911 15ZM556 368 580 301C694 342 777 374 874 436L827 502C740 444 669 408 556 368ZM105 776V697H895V776ZM548 735 469 757C413 592 281 526 78 445L111 370C329 464 486 545 548 735Z" transform="translate(0, 880) scale(1,-1)" /></svg>