<svg xmlns="http://www.w3.org/2000/svg" width="1000" height="1000"><path d="M829 228Q850 273 864.0 356.5Q878 440 878 497Q878 615 840.0 667.5Q802 720 710 720Q612 720 507.0 697.5Q402 675 346 643L376 583Q432 615 524.0 631.5Q616 648 709 648Q751 648 770.5 633.0Q790 618 795.5 588.0Q801 558 801 498Q801 442 787.5 356.5Q774 271 755 228ZM99 -78Q175 -44 258.0 2.5Q341 49 400 94L335 140Q290 101 210.0 55.5Q130 10 55 -22ZM47 159H951V228H47ZM154 228H229V836H154ZM930 -15Q878 21 798.0 65.0Q718 109 638 147L597 95Q673 58 750.5 12.0Q828 -34 881 -72ZM608 201Q654 225 691.5 263.5Q729 302 729 337Q729 391 674.0 415.5Q619 440 513 440Q403 440 348.0 411.5Q293 383 293 339Q293 316 313.5 295.0Q334 274 368.5 262.0Q403 250 441 250Q487 250 522.5 275.0Q558 300 558 350Q558 422 528 469L661 545L633 592L607 582H320V525L550 526L461 473Q480 441 489.0 411.5Q498 382 498 350Q498 328 480.5 315.5Q463 303 441 303Q408 303 382.0 313.0Q356 323 356 339Q356 360 396.0 374.0Q436 388 513 388Q592 388 627.5 375.0Q663 362 663 337Q663 306 633.0 271.0Q603 236 560 212ZM229 732H516V800H229Z" transform="translate(0, 880) scale(1,-1)" /></svg>