<svg xmlns="http://www.w3.org/2000/svg" width="1000" height="1000"><path d="M105 641 170 603C223 667 275 744 317 822L250 851C212 772 160 701 105 641ZM284 -74C418 -74 441 155 441 409C441 603 392 681 285 681C197 681 125 663 80 641L91 570C140 592 208 605 285 605C346 605 363 528 363 409C363 172 338 -3 278 -3C248 -3 221 2 188 17V-62C221 -70 248 -74 284 -74ZM419 411 390 482C209 385 21 273 21 108C21 33 66 5 109 5C222 5 235 219 241 519L164 521C161 250 143 83 112 83C98 83 91 94 91 110C91 208 250 327 419 411ZM620 479 688 443C768 526 848 630 912 736L842 769L831 757H606L605 682H784C749 627 689 547 620 479ZM439 588 495 532C573 612 656 711 717 820L646 848C592 748 518 659 439 588ZM744 506C648 506 566 482 495 445L514 377C583 416 658 433 744 433C816 433 843 398 843 344C843 198 677 8 600 8C568 8 541 37 541 101C541 150 567 198 611 198C688 198 765 34 912 -89L960 -25C810 86 721 273 611 273C537 273 471 208 471 101C471 0 531 -67 600 -67C708 -67 916 153 916 344C916 449 846 506 744 506Z" transform="translate(0, 880) scale(1,-1)" /></svg>