<svg xmlns="http://www.w3.org/2000/svg" width="1000" height="1000"><path d="M312 696 388 724C372 754 342 806 308 841L235 813C265 777 294 733 312 696ZM88 649H919V720H88ZM615 708 683 681C723 726 756 773 780 818L700 844C681 802 653 751 615 708ZM470 -77C611 -77 638 118 635 433C634 581 523 595 376 595C312 595 242 588 180 574L181 504C245 519 318 524 377 524C511 524 556 497 557 428C561 149 531 -2 458 -2C421 -2 387 4 350 15V-68C392 -73 433 -77 470 -77ZM43 -27 123 -58C181 161 202 340 204 590H127C125 353 110 180 43 -27ZM234 83 309 79C331 209 343 340 349 470L273 473C268 343 256 212 234 83ZM532 153 538 225C437 237 313 244 198 247L195 177C306 175 434 164 532 153ZM364 75 439 71C460 202 473 332 478 463L403 465C398 335 386 205 364 75ZM548 315 554 387C452 399 327 406 214 408L211 338C321 337 448 326 548 315ZM680 506V137H756V506ZM807 -79C860 -79 892 -46 892 11V589H815V19C815 5 805 -6 789 -6C752 -6 714 -2 671 12V-67C715 -76 755 -79 807 -79Z" transform="translate(0, 880) scale(1,-1)" /></svg>