<svg xmlns="http://www.w3.org/2000/svg" width="1000" height="1000"><path d="M406 -80Q602 -24 730.5 113.5Q859 251 913 458L861 487L847 478H554V405H818Q763 245 646.0 140.0Q529 35 366 -6ZM955 -29Q748 178 501 311L466 248Q702 114 898 -87ZM782 679Q650 528 430 417L472 350Q591 414 703.0 506.0Q815 598 905 712L855 762L839 752H550V679ZM429 517Q500 586 551.0 658.0Q602 730 646 823L578 850Q501 685 376 573ZM387 456 37 326 57 251 406 390ZM208 -72Q287 -72 287 17V747H215V37Q215 19 208.5 9.5Q202 0 191 0Q144 0 94 18V-60Q146 -72 208 -72ZM77 680Q156 688 248.0 709.0Q340 730 405 758L387 827Q327 800 237.0 780.0Q147 760 62 751Z" transform="translate(0, 880) scale(1,-1)" /></svg>