<svg xmlns="http://www.w3.org/2000/svg" width="1000" height="1000"><path d="M581 -27V48H219Q197 48 184.0 62.5Q171 77 171 101V222Q171 320 222.0 405.0Q273 490 348.0 557.5Q423 625 541 713L465 746Q347 656 270.5 584.0Q194 512 144.0 420.5Q94 329 94 221V87Q94 38 126.0 5.5Q158 -27 207 -27ZM444 161Q420 211 408.0 279.5Q396 348 396 427Q396 463 399 499H322Q318 466 318 424Q318 344 334.5 270.5Q351 197 379 147ZM808 -42Q869 -42 901.5 20.5Q934 83 934 242Q934 336 894.5 383.0Q855 430 781.0 444.5Q707 459 578 459Q450 459 345 416L367 350Q455 382 580 382Q688 382 745.0 372.0Q802 362 828.5 332.5Q855 303 855 242Q855 39 799 39Q734 39 674 61V-28Q736 -42 808 -42ZM534 19Q611 77 650.5 179.0Q690 281 690 408Q690 513 663 622L586 617Q611 514 611 412Q611 292 577.0 192.5Q543 93 482 34ZM108 697H895V774H108Z" transform="translate(0, 880) scale(1,-1)" /></svg>