<svg xmlns="http://www.w3.org/2000/svg" width="1000" height="1000"><path d="M387 729Q374 754 353.0 787.0Q332 820 311 845L241 818Q261 793 281.5 759.0Q302 725 313 698ZM111 645H889V712H688Q716 748 758 817L679 843Q654 786 606 712H111ZM111 236Q260 284 349.5 326.5Q439 369 495 432Q528 470 550.5 533.0Q573 596 580 665L504 675Q492 540 423 459Q382 410 298.0 374.0Q214 338 78 302ZM84 -8Q115 6 184 49Q193 55 202 60Q219 70 246 70Q261 70 270.0 65.0Q279 60 287.5 43.5Q296 27 306 -8L463 78L436 111L336 73Q332 93 319.0 105.5Q306 118 279 124Q344 186 412 273L355 304Q286 217 205.5 151.0Q125 85 45 58ZM475 -80Q532 -80 571.0 -54.5Q610 -29 629.0 13.0Q648 55 646 105Q646 177 595.5 266.5Q545 356 461 434L402 393Q467 336 517.0 252.5Q567 169 567 104Q566 53 544.0 18.5Q522 -16 471 -16Q412 -16 355 2V-70Q399 -80 475 -80ZM962 36Q791 121 454 224L433 164Q750 67 911 -21ZM581 186Q682 213 745.5 233.5Q809 254 875 285L827 340Q761 308 700.5 286.0Q640 264 556 242ZM644 374Q933 393 933 487Q933 549 838.0 571.0Q743 593 613 593Q497 593 379.0 563.0Q261 533 170 484V576H98V394H170V440Q280 485 384.0 504.5Q488 524 612 524Q704 524 777.5 514.0Q851 504 851 487Q851 448 613 441Z" transform="translate(0, 880) scale(1,-1)" /></svg>