<svg xmlns="http://www.w3.org/2000/svg" width="1000" height="1000"><path d="M109 413 137 425H894L895 502H185Q209 603 219 712H863V787H144Q143 715 133.0 633.5Q123 552 110 501Q104 481 84 473ZM660 -68Q792 -50 854.5 0.0Q917 50 917 147Q917 241 830.5 291.0Q744 341 546 341Q320 341 197.5 285.5Q75 230 75 123Q75 63 110.0 21.0Q145 -21 202.0 -42.0Q259 -63 325 -63Q417 -63 478.0 -15.0Q539 33 539 145V637H461V154Q461 71 424.0 40.0Q387 9 325 9Q254 9 203.5 36.5Q153 64 153 127Q153 193 256.0 230.5Q359 268 546 268Q701 268 767.5 237.5Q834 207 834 147Q834 81 784.5 46.5Q735 12 632 2Z" transform="translate(0, 880) scale(1,-1)" /></svg>