<svg xmlns="http://www.w3.org/2000/svg" width="1000" height="1000"><path d="M806 -61Q865 -61 893.5 -40.0Q922 -19 931.0 19.5Q940 58 947 137L877 153Q876 96 871.5 68.0Q867 40 853.0 26.0Q839 12 809 12H336Q260 12 231.5 20.0Q203 28 203 47Q203 89 317.5 153.5Q432 218 583 272Q719 321 792.5 363.0Q866 405 866 454Q866 511 801.5 538.0Q737 565 588 565Q381 565 227 519L249 450Q319 474 397.5 485.0Q476 496 588 496Q780 496 780 454Q780 428 726.5 402.0Q673 376 562 337L512 319Q346 259 232.5 185.0Q119 111 119 41Q119 0 139.5 -22.0Q160 -44 206.5 -52.5Q253 -61 339 -61ZM776 216Q525 321 297 372L263 311Q459 268 729 159ZM81 471Q180 530 269.0 620.0Q358 710 422 818L354 843Q296 744 215.0 668.0Q134 592 39 541ZM546 524Q591 566 636.5 619.5Q682 673 712 722L663 757L648 752H319V685H598Q576 653 543.5 615.5Q511 578 484 553Z" transform="translate(0, 880) scale(1,-1)" /></svg>