<svg xmlns="http://www.w3.org/2000/svg" width="1000" height="1000"><path d="M251 810V-76H329V810ZM83 646V195H161V646ZM57 220 83 148 306 248 280 320ZM368 662V584H950V662ZM507 455 579 421C643 534 695 674 736 815L665 832C626 690 572 559 507 455ZM511 59V266H437V50C437 -45 474 -65 592 -65H825C909 -65 933 -16 947 131L868 140C860 33 849 8 803 8H604C526 8 511 16 511 59ZM786 195C854 195 892 252 904 474L844 488L826 480H429V406H822C813 295 793 269 764 269C709 269 664 271 615 277V201C665 196 719 195 786 195Z" transform="translate(0, 880) scale(1,-1)" /></svg>