<svg xmlns="http://www.w3.org/2000/svg" width="1000" height="1000"><path d="M400 576 473 536C589 595 705 671 798 748L736 799L720 790H359L358 714H620C573 677 493 622 400 576ZM78 654 139 595C272 655 411 730 515 813L438 858C343 780 214 710 78 654ZM913 588H131V358C131 243 123 88 33 -23L105 -70C197 53 209 234 209 358V512H913ZM272 436V361H838V436ZM232 279V206H908V279ZM872 -55 935 -14C895 56 849 126 795 195L736 157C789 87 834 15 872 -55ZM555 223 489 264C310 114 280 61 280 23C280 -37 313 -75 399 -75H595C668 -75 697 -9 716 119L641 131C632 30 615 -1 579 -1H433C385 -1 366 6 366 23C366 44 382 76 555 223Z" transform="translate(0, 880) scale(1,-1)" /></svg>