<svg xmlns="http://www.w3.org/2000/svg" width="1000" height="1000"><path d="M69 723H930V797H69ZM807 427 882 397C907 439 920 480 920 532C920 636 805 665 597 665C426 665 270 617 163 535V644H83V416H163V475C270 552 453 583 597 583C785 583 837 560 837 531C837 496 830 464 807 427ZM349 436 430 455C415 538 381 662 351 754L273 739C304 647 335 521 349 436ZM555 449 629 431C663 515 706 638 736 745L654 762C627 655 589 534 555 449ZM53 -14 101 -84C496 33 546 250 543 430H460C460 260 432 96 53 -14ZM889 -93 945 -29C828 51 685 135 554 202L511 140C639 72 782 -13 889 -93ZM70 231H931V309H70Z" transform="translate(0, 880) scale(1,-1)" /></svg>