<svg xmlns="http://www.w3.org/2000/svg" width="1000" height="1000"><path d="M687 104C865 205 924 246 924 333C924 407 858 465 684 503C794 566 885 635 961 753L900 794L889 780H569V705H832C762 620 688 560 579 511L587 449C794 408 847 364 847 333C847 294 801 252 644 166ZM134 208C156 255 175 304 191 355L133 371C112 298 82 224 41 147L94 107L109 126L517 265L500 325ZM261 -72C315 -72 346 -51 346 17V825H271V37C271 13 258 0 241 0C211 0 178 4 136 18V-60C179 -69 219 -72 261 -72ZM74 433H504V499H74ZM153 555 219 571C208 624 174 704 136 766L73 752C110 691 143 608 153 555ZM907 -91 954 -29C874 37 704 143 575 208L538 150C664 84 829 -22 907 -91ZM432 552C465 604 507 687 538 755L466 773C445 711 406 622 372 568Z" transform="translate(0, 880) scale(1,-1)" /></svg>