<svg xmlns="http://www.w3.org/2000/svg" width="1000" height="1000"><path d="M131 435H206V607C305 687 418 736 589 736C761 736 814 690 814 622C814 506 605 499 310 534V455C640 428 893 438 893 622C893 723 829 807 589 807C402 807 279 751 206 669V773H131ZM118 -52H880V20H118ZM373 20H520C581 64 603 151 603 228C603 310 554 363 497 363C425 363 361 320 361 245C361 166 419 125 487 125C505 125 520 132 534 143C511 87 454 38 373 20ZM485 191C453 191 426 211 426 245C426 280 454 301 486 301C513 301 539 278 539 250C539 211 514 191 485 191ZM572 271V633H497V336Z" transform="translate(0, 880) scale(1,-1)" /></svg>