<svg xmlns="http://www.w3.org/2000/svg" width="1000" height="1000"><path d="M644 166 687 104C865 205 924 246 924 333C924 407 858 465 684 503C794 566 885 635 961 753L900 794L889 780H569V705H832C762 620 688 560 579 511L587 449C794 408 847 364 847 333C847 294 801 252 644 166ZM500 325 41 181 64 107 517 265ZM261 -72C315 -72 346 -51 346 17V825H271V37C271 13 258 0 241 0C211 0 178 4 136 18V-60C179 -69 219 -72 261 -72ZM70 417H500V485H70ZM153 547 219 564C208 619 174 702 136 766L73 751C110 688 143 602 153 547ZM907 -91 954 -29C874 37 704 143 575 208L538 150C664 84 829 -22 907 -91ZM372 561 432 544C465 598 507 684 538 754L466 773C445 709 406 617 372 561Z" transform="translate(0, 880) scale(1,-1)" /></svg>