<svg xmlns="http://www.w3.org/2000/svg" width="1000" height="1000"><path d="M304 348H385L383 835H304ZM94 403H908V470H94ZM131 550H871V616H131ZM618 348H697L696 835H618ZM88 752 108 691C365 694 683 710 912 742L866 803C683 776 357 758 88 752ZM596 331C430 331 285 319 122 297L140 235C296 256 441 266 596 266C711 266 777 252 777 230C777 156 436 9 255 9C180 9 145 31 145 61C145 92 176 113 294 113C449 113 639 -2 927 -81L968 -18C690 57 479 183 294 183C155 183 57 149 57 61C57 -11 121 -58 255 -58C502 -58 870 135 870 230C870 308 751 331 596 331Z" transform="translate(0, 880) scale(1,-1)" /></svg>