<svg xmlns="http://www.w3.org/2000/svg" width="1000" height="1000"><path d="M635 -54C815 -54 926 92 926 274C926 475 789 541 571 541C522 541 475 539 438 534C543 591 711 679 818 752L750 798L721 790H147V715H621C528 654 406 584 259 510C238 499 167 474 105 448L153 389C270 441 400 474 551 474C719 474 839 427 839 272C839 147 763 15 628 15C566 15 508 25 447 46V-34C506 -48 564 -54 635 -54ZM197 140C254 200 292 270 326 340L252 361C223 296 185 229 134 171ZM420 86H495V406H420ZM700 145 764 187C733 243 688 309 640 368L575 331C627 268 667 205 700 145Z" transform="translate(0, 880) scale(1,-1)" /></svg>