<svg xmlns="http://www.w3.org/2000/svg" width="1000" height="1000"><path d="M801 465 856 411C898 445 932 489 932 553C932 644 843 705 583 705C406 705 263 673 153 612V682H77V432H153V554C267 602 418 631 582 631C798 631 850 588 850 553C850 521 835 492 801 465ZM461 516H540V788H461ZM703 544 298 543V470H703ZM823 827 168 826V753H823ZM124 17 158 -53 193 -44 789 -10 775 57 292 32C378 81 464 135 557 199L464 217C376 149 281 86 198 40C174 26 150 21 124 17ZM819 -81 879 -34C835 23 768 92 687 155L635 109C715 44 774 -26 819 -81ZM74 174H934V244H74ZM146 338H863V407H146Z" transform="translate(0, 880) scale(1,-1)" /></svg>