<svg xmlns="http://www.w3.org/2000/svg" width="1000" height="1000"><path d="M44 115 60 48 505 149 490 220ZM284 -82C334 -82 355 -59 355 -5V537H283V-4C283 -16 277 -20 261 -20C236 -20 205 -16 164 -4L165 -72C207 -79 245 -82 284 -82ZM56 266H447V333H56ZM84 454 103 398 132 403H435V470H185C217 514 240 553 267 607H474V675H64V607H189C164 545 136 499 123 482C108 464 96 456 84 454ZM186 691 258 706C243 739 211 791 177 830L110 814C142 775 173 726 186 691ZM292 675H373C406 720 443 771 474 821L389 836C369 785 327 723 292 675ZM444 370 513 330C592 423 701 609 748 718L673 735C627 611 519 446 444 370ZM479 -65H960V4H479ZM599 4H717C786 54 822 151 822 234C822 318 778 383 705 383C641 383 585 332 585 256C585 172 642 130 703 130C717 130 730 133 741 139C713 70 679 42 599 4ZM704 193C673 193 650 219 650 256C650 292 673 319 704 319C736 319 755 292 755 256C755 219 736 193 704 193ZM808 282V609H739V338ZM580 454H940V522H580ZM497 703H937V775H497Z" transform="translate(0, 880) scale(1,-1)" /></svg>