<svg xmlns="http://www.w3.org/2000/svg" width="1000" height="1000"><path d="M937 27Q754 12 609 12Q399 12 279 48Q215 67 171.5 116.5Q128 166 108 238L31 216Q57 121 112.5 62.0Q168 3 249 -21Q399 -65 646 -65Q760 -65 914 -54ZM264 90Q393 148 497.0 227.0Q601 306 715 419L655 469L630 439H408Q496 501 567 584H469Q371 475 257 422L304 355L324 369H555Q483 300 400.0 247.5Q317 195 207 147ZM882 119Q805 196 673 301L625 249Q737 157 821 67ZM440 686Q401 753 340 837L271 812Q339 712 365 656ZM150 584H889V653H150ZM645 620Q719 717 775 815L691 840Q670 796 640.5 744.0Q611 692 583 653Z" transform="translate(0, 880) scale(1,-1)" /></svg>