<svg xmlns="http://www.w3.org/2000/svg" width="1000" height="1000"><path d="M302 520H609C806 520 900 578 900 667C900 745 834 810 598 810C398 810 262 756 193 706V778H118V526H193V640C285 697 425 739 598 739C763 739 822 707 822 667C822 614 719 591 609 590L302 588ZM124 -84C186 -38 238 28 260 93L187 116C168 53 113 -13 57 -52ZM524 -81C565 -81 603 -68 661 -31L607 27C577 1 558 -7 534 -7C510 -7 497 15 464 109L390 95C437 -49 478 -81 524 -81ZM68 160H935V231H68ZM368 231H522C585 263 607 314 607 372C607 433 556 472 497 472C423 472 355 441 355 385C355 326 416 295 487 295C505 295 522 300 536 308C511 266 452 244 368 231ZM875 -81 951 -53C916 -6 842 65 792 116L725 84C787 31 843 -35 875 -81ZM485 349C451 349 424 363 424 385C424 407 452 421 486 421C514 421 541 405 541 388C541 363 515 349 485 349ZM574 404V673H499V453Z" transform="translate(0, 880) scale(1,-1)" /></svg>