<svg xmlns="http://www.w3.org/2000/svg" width="1000" height="1000"><path d="M122 -15Q224 122 329 313L270 356Q165 166 53 34ZM316 618Q233 697 132 755L87 693Q186 632 264 554ZM625 -80Q716 -80 785.0 -52.5Q854 -25 892.0 26.0Q930 77 930 144Q930 203 903.0 249.5Q876 296 821.0 323.5Q766 351 687 351Q642 351 611.0 347.5Q580 344 549 334Q688 418 835 534L794 593L776 584H419V513H691Q633 459 564.0 404.0Q495 349 440 312Q399 285 356 273L396 213Q526 283 667 283Q761 283 806.0 246.0Q851 209 851 144Q851 89 816.0 53.0Q781 17 728.5 0.0Q676 -17 622 -17Q568 -17 538.0 -3.0Q508 11 508 40Q508 62 528.0 78.0Q548 94 576 94Q672 94 689 -29L750 -15Q738 66 694.0 112.0Q650 158 577 158Q539 158 507.5 141.0Q476 124 458.0 96.5Q440 69 440 40Q440 -13 489.5 -46.5Q539 -80 625 -80ZM316 712H913V783H316Z" transform="translate(0, 880) scale(1,-1)" /></svg>