<svg xmlns="http://www.w3.org/2000/svg" width="1000" height="1000"><path d="M305 621 359 680C307 726 249 770 183 813L134 756C199 713 256 667 305 621ZM194 -64C335 -64 403 66 403 188C403 287 343 383 199 426L172 361C285 324 324 255 324 188C324 100 278 12 194 12C161 12 139 28 139 70C139 146 228 217 411 315L367 373C185 278 59 182 59 70C59 -22 113 -64 194 -64ZM203 403 263 371C326 430 390 507 426 565L371 609L356 600H79V528H302C277 485 242 439 203 403ZM441 565H924V645H441ZM689 348C457 98 442 71 442 20C442 -28 463 -62 535 -62H822C880 -62 903 -14 919 116L845 127C839 40 825 16 797 16H564C543 16 534 21 534 33C534 54 542 72 822 378L768 436L754 427L609 428C654 532 695 672 718 817L639 826C617 682 566 508 503 377L565 334L582 348ZM911 290 973 329C943 388 909 445 872 500L814 463C850 407 882 349 911 290Z" transform="translate(0, 880) scale(1,-1)" /></svg>