<svg xmlns="http://www.w3.org/2000/svg" width="1000" height="1000"><path d="M222 -76Q272 -76 312.5 -47.5Q353 -19 376.0 32.5Q399 84 399 151Q399 252 365.5 346.5Q332 441 241 522L186 485Q268 407 295.0 318.5Q322 230 322 151Q322 81 295.5 39.0Q269 -3 222 -3Q187 -2 165.0 19.0Q143 40 143 82Q143 133 186.5 187.5Q230 242 319.0 291.0Q408 340 538 376Q498 189 498 34Q498 -8 507.5 -29.5Q517 -51 543.5 -59.5Q570 -68 623 -68H809Q861 -68 888.5 -52.5Q916 -37 928.5 -3.5Q941 30 947 94L874 117Q870 65 864.5 40.5Q859 16 845.0 6.5Q831 -3 803 -3H639Q597 -3 583.5 6.0Q570 15 570 43Q570 130 580.0 213.5Q590 297 610 400L627 408L599 465Q322 388 195.5 290.5Q69 193 69 82Q69 2 109.5 -37.0Q150 -76 222 -76ZM709 68Q819 164 902 275L835 306Q765 195 668 105ZM672 231Q708 266 749.0 314.0Q790 362 825 411L758 443Q703 339 632 270ZM104 448Q215 472 307.0 499.5Q399 527 503 567L548 584Q631 617 682.5 632.0Q734 647 783 647Q815 647 833.5 633.5Q852 620 852 600Q852 581 834.5 563.0Q817 545 789 545Q743 545 717.5 566.0Q692 587 680.0 619.0Q668 651 654 709Q645 749 636 781H77V707H571Q593 630 611.0 588.0Q629 546 671.5 512.0Q714 478 789 478Q848 478 884.5 513.0Q921 548 921 600Q921 649 883.5 682.0Q846 715 789 715Q715 715 655.0 697.0Q595 679 499 639L477 630Q381 590 291.0 563.5Q201 537 80 511Z" transform="translate(0, 880) scale(1,-1)" /></svg>