<svg xmlns="http://www.w3.org/2000/svg" width="1000" height="1000"><path d="M877 536Q904 563 913.5 588.0Q923 613 923 646Q923 722 855.0 764.5Q787 807 618 807Q461 807 318.0 776.5Q175 746 70 694L108 623Q206 671 344.5 703.0Q483 735 618 735Q737 735 790.5 713.5Q844 692 844 646Q844 627 836.5 610.0Q829 593 812 576ZM191 222 216 231H874V303H274Q386 457 487 658L409 680Q319 487 202 308Q191 292 160 281ZM139 -47Q189 -6 237.5 50.5Q286 107 319 164L251 189Q222 137 176.5 87.0Q131 37 81 0ZM492 -71Q541 -71 562.0 -56.5Q583 -42 583 0V449H155V377H507V2Q507 -8 500.0 -11.5Q493 -15 476 -15Q431 -15 360 2V-61Q410 -71 492 -71ZM927 3Q900 41 845.5 93.0Q791 145 734 191L677 153Q729 111 783.5 55.5Q838 0 866 -38ZM138 520H772V593H138Z" transform="translate(0, 880) scale(1,-1)" /></svg>