<svg xmlns="http://www.w3.org/2000/svg" width="1000" height="1000"><path d="M621 -27V43H229Q200 43 183.0 61.0Q166 79 166 111V266Q166 385 278.0 504.0Q390 623 541 718L467 748Q353 673 273.0 603.0Q193 533 143.5 448.5Q94 364 94 266V97Q94 41 127.5 7.0Q161 -27 217 -27ZM427 43Q410 129 410 245Q410 398 439 509H370Q358 457 351.0 388.5Q344 320 344 250Q344 134 364 43ZM372 187H643V248H372ZM585 11Q633 66 656.0 125.0Q679 184 679 266Q679 345 640.5 387.5Q602 430 540 430Q492 430 450.0 418.0Q408 406 382 387L383 330Q411 347 454.5 355.5Q498 364 538 364Q571 364 590.5 337.5Q610 311 610 266Q610 204 590.0 147.5Q570 91 531 34ZM785 -51Q862 -51 899.0 39.0Q936 129 936 291Q936 396 900.5 456.5Q865 517 791.5 542.5Q718 568 598 568Q531 568 443.0 557.5Q355 547 285 531L302 469Q374 483 453.0 490.5Q532 498 600 498Q702 498 757.5 479.5Q813 461 836.5 415.5Q860 370 860 286Q860 205 848.5 146.0Q837 87 819.5 56.0Q802 25 784 25Q724 25 688 42V-39Q722 -51 785 -51ZM108 702H895V774H108Z" transform="translate(0, 880) scale(1,-1)" /></svg>