<svg xmlns="http://www.w3.org/2000/svg" width="1000" height="1000"><path d="M624 90 675 29C806 62 886 160 886 235C886 324 807 388 587 388C358 388 192 303 192 217C192 149 248 90 360 90C508 90 615 176 615 329C615 424 543 495 481 521L434 479C499 445 533 409 533 329C533 209 459 160 357 160C304 160 278 180 278 217C278 257 393 325 587 325C758 325 799 274 799 235C799 178 736 112 624 90ZM0.0 0.0Q0 0 0.0 0.0Q0 0 0.0 0.0ZM926 -56 945 21C649 -2 424 1 281 44C195 70 130 145 105 239L31 216C66 88 144 10 251 -21C400 -64 625 -78 926 -56ZM180 472H245V543C353 614 507 638 632 638C747 638 829 618 829 595C829 572 792 550 700 555V481C845 479 910 523 910 595C910 669 794 707 633 707C482 707 326 659 245 593V688H180ZM336 446 378 398C534 463 680 640 761 763L696 794C617 659 476 514 336 446ZM379 505 443 512C435 592 433 671 436 750H930V819H144V750H364C363 668 369 587 379 505Z" transform="translate(0, 880) scale(1,-1)" /></svg>