<svg xmlns="http://www.w3.org/2000/svg" width="1000" height="1000"><path d="M475 -10C741 -15 870 26 870 144C870 213 766 275 517 258C627 282 723 322 811 361L743 405C629 347 443 262 340 242C279 230 188 202 108 169L139 106C286 166 443 194 580 194C714 194 784 167 784 137C784 89 658 48 420 45ZM472 -94 542 -62C504 5 443 73 390 122L328 90C375 47 439 -31 472 -94ZM76 347H924V411H76ZM501 411H634C720 431 769 494 769 533C769 585 679 627 495 627C317 627 209 595 209 541C209 491 278 454 426 454C513 454 541 487 541 518V841H459V546C459 516 438 506 400 506C369 506 309 521 309 539C309 561 357 576 495 576C597 576 674 552 674 531C674 504 645 448 501 411ZM87 683H914V745H86Z" transform="translate(0, 880) scale(1,-1)" /></svg>