<svg xmlns="http://www.w3.org/2000/svg" width="1000" height="1000"><path d="M312 348H388L387 835H312ZM124 403H876V470H124ZM158 550H842V616H158ZM613 348H688L687 835H613ZM137 691C375 694 668 710 880 742L837 803C668 776 367 758 119 752ZM150 297 167 235C311 256 445 266 588 266C694 266 755 252 755 230C755 156 440 9 273 9C204 9 171 31 171 61C171 92 200 113 309 113C452 113 646 -2 912 -81L950 -18C693 57 480 183 309 183C181 183 90 149 90 61C90 -11 149 -58 273 -58C501 -58 841 135 841 230C841 308 731 331 588 331C435 331 301 319 150 297Z" transform="translate(0, 880) scale(1,-1)" /></svg>