<svg xmlns="http://www.w3.org/2000/svg" width="1000" height="1000"><path d="M540 16H639C703 51 751 87 751 146C751 212 670 260 538 260C386 260 302 227 302 160C302 103 359 56 466 56C537 56 577 98 577 137V316H498V156C498 130 477 118 449 118C425 118 382 136 382 160C382 184 419 200 538 200C623 200 669 171 669 144C669 109 649 72 540 16ZM78 -54H920V16H78ZM115 208 178 167C249 264 297 346 362 479L295 504C232 374 181 291 115 208ZM76 553 134 512C216 615 261 713 303 826L234 848C198 738 152 649 76 553ZM263 316H837V378H263ZM377 531 442 553C429 588 406 636 379 675L316 656C340 620 364 575 377 531ZM187 465H889V535H187ZM221 688H896V755H222ZM617 548 677 529C734 620 709 578 755 659L678 679C665 637 643 586 617 548Z" transform="translate(0, 880) scale(1,-1)" /></svg>