<svg xmlns="http://www.w3.org/2000/svg" width="1000" height="1000"><path d="M534 16H619C705 61 748 104 748 159C748 243 648 275 496 275C374 275 250 248 250 170C250 97 348 66 444 66C488 66 533 90 533 139V438H460V159C460 141 444 130 423 130C378 130 329 143 329 170C329 191 386 210 496 210C606 210 670 185 670 157C670 119 636 78 534 16ZM53 -55H948V16H53ZM144 300H354V366H144ZM58 438H944V509H58ZM639 300H849V366H639ZM652 518 690 577C576 623 486 653 351 672L326 611C461 588 550 561 652 518ZM519 626 602 598C691 641 810 711 871 759L823 807L807 802H153V732H706C651 693 592 660 519 626Z" transform="translate(0, 880) scale(1,-1)" /></svg>