<svg xmlns="http://www.w3.org/2000/svg" width="1000" height="1000"><path d="M639 16Q694 46 722.5 75.5Q751 105 751 146Q751 196 693.0 228.0Q635 260 538 260Q423 260 362.5 235.0Q302 210 302 160Q302 115 345.5 85.5Q389 56 466 56Q516 56 546.5 80.5Q577 105 577 137V316H498V156Q498 137 484.5 127.5Q471 118 449 118Q429 118 405.5 130.5Q382 143 382 160Q382 179 417.5 189.5Q453 200 538 200Q598 200 633.5 183.0Q669 166 669 144Q669 114 642.0 84.5Q615 55 540 16ZM78 -54H920V16H78ZM178 167Q231 239 272.0 309.0Q313 379 362 479L295 504Q248 407 206.5 339.0Q165 271 115 208ZM134 512Q191 584 229.5 657.5Q268 731 303 826L234 848Q206 764 169.0 694.0Q132 624 76 553ZM263 316H837V378H263ZM442 553Q417 620 379 675L316 656Q359 591 377 531ZM187 465H889V535H187ZM221 688H896V755H222ZM677 529Q726 607 736 625Q746 642 755 659L678 679Q654 603 617 548Z" transform="translate(0, 880) scale(1,-1)" /></svg>