<svg xmlns="http://www.w3.org/2000/svg" width="1000" height="1000"><path d="M0.0 0.0Q0 0 0.0 0.0Q0 0 0.0 0.0ZM141 -62H212V691H304V759H42V691H141ZM778 519C753 468 725 417 691 369L724 310C807 333 846 305 846 245C846 170 730 97 589 75L626 12C789 59 919 94 919 245C919 346 854 391 768 380L875 547L825 596L810 588C393 566 283 434 283 340C283 253 339 216 398 216C508 216 666 481 786 766L728 813L709 799H356V727H688C603 513 471 287 398 287C367 287 348 310 348 340C348 383 425 492 778 519ZM641 -87 708 -53C680 20 622 121 569 198L508 165C561 92 611 -10 641 -87Z" transform="translate(0, 880) scale(1,-1)" /></svg>