<svg xmlns="http://www.w3.org/2000/svg" width="1000" height="1000"><path d="M534 729H71V656H534ZM344 521V842H267V521ZM505 559H96V488H505ZM905 -86 958 -21C881 45 718 151 593 216L550 155C671 89 830 -17 905 -86ZM656 166 698 104C868 205 925 246 925 333C925 407 875 465 714 503C809 566 888 635 954 753L892 794L881 780H574V705H825C760 620 693 560 593 511L601 449C790 408 841 364 841 333C841 294 796 252 656 166ZM76 335H535V408H76ZM338 -70C419 -70 511 3 511 126C511 256 391 299 191 266V195C356 221 436 195 436 126C436 50 379 -2 338 -2C308 -2 291 10 291 37C291 76 345 132 441 187L414 250C292 187 220 109 220 39C220 -17 262 -70 338 -70ZM75 72 146 50C184 117 237 236 275 347L192 371C163 260 115 141 75 72Z" transform="translate(0, 880) scale(1,-1)" /></svg>