<svg xmlns="http://www.w3.org/2000/svg" width="1000" height="1000"><path d="M534 719H71V656H534ZM344 531V842H267V531ZM505 559H96V498H505ZM512 430H95V364H512ZM235 -70Q307 -70 375.5 -39.5Q444 -9 487.5 46.5Q531 102 531 174Q531 318 310 318Q247 318 176 308L188 252Q252 260 308 260Q391 260 423.5 238.5Q456 217 456 174Q456 124 422.0 82.5Q388 41 336.5 17.0Q285 -7 235 -7Q188 -7 167.5 3.0Q147 13 147 32Q147 58 184.0 87.5Q221 117 292.5 145.0Q364 173 463 194L432 236Q323 215 241.0 181.5Q159 148 114.5 109.5Q70 71 70 33Q70 -13 109.0 -41.5Q148 -70 235 -70ZM166 199Q194 228 228.0 275.0Q262 322 288 368L214 387Q194 341 163.0 294.0Q132 247 103 217ZM954 -29Q896 21 789.5 90.0Q683 159 589 208L554 150Q647 99 750.5 29.0Q854 -41 909 -91ZM698 104Q793 160 838.0 193.0Q883 226 904.0 258.0Q925 290 925 333Q925 391 870.5 433.0Q816 475 694 503Q781 555 845.0 612.5Q909 670 961 753L902 794L892 780H574V705H836Q783 639 726.0 593.0Q669 547 593 511L601 449Q737 421 794.0 390.5Q851 360 851 333Q851 303 808.5 266.0Q766 229 656 166Z" transform="translate(0, 880) scale(1,-1)" /></svg>