<svg xmlns="http://www.w3.org/2000/svg" width="1000" height="1000"><path d="M781 -60Q838 -60 869.5 -43.0Q901 -26 916.5 17.0Q932 60 938 142L866 159Q863 96 855.5 66.0Q848 36 832.5 25.5Q817 15 787 15H326Q228 15 228 61Q228 84 260.0 119.0Q292 154 403.0 233.0Q514 312 738 453L700 504L684 501H424Q518 612 578 702H484Q449 644 395.0 580.5Q341 517 293 475L333 410L358 429H555Q373 309 284.5 236.5Q196 164 172.5 126.5Q149 89 149 54Q149 -1 195.0 -30.5Q241 -60 334 -60ZM133 269Q160 321 181.0 397.0Q202 473 226 580L142 591Q110 391 62 298ZM60 702H944V775H60ZM946 291Q910 483 867 596L792 577Q837 451 865 267Z" transform="translate(0, 880) scale(1,-1)" /></svg>