<svg xmlns="http://www.w3.org/2000/svg" width="1000" height="1000"><path d="M473 -80Q594 -80 692.0 -56.0Q790 -32 847.0 11.5Q904 55 904 112Q904 162 868.5 202.5Q833 243 762.0 267.0Q691 291 589 291Q539 291 482.0 285.5Q425 280 377 271Q407 301 444.5 358.0Q482 415 509 469L427 486Q404 428 363.5 363.5Q323 299 279 259L251 249L302 189Q362 207 422.5 216.5Q483 226 569 226Q690 226 753.0 196.0Q816 166 816 112Q816 44 708.5 14.5Q601 -15 473 -15Q316 -15 316 23Q316 41 343.5 55.0Q371 69 411 69Q542 69 562 -37L645 -24Q630 46 570.5 85.0Q511 124 412 124Q360 124 318.5 109.5Q277 95 253.5 71.5Q230 48 230 23Q230 -25 290.5 -52.5Q351 -80 473 -80ZM308 515Q461 560 603 560Q696 560 737.0 541.0Q778 522 778 486Q778 444 733.5 421.5Q689 399 575 399Q498 399 397 409V345Q496 337 559 337Q729 337 797.0 377.5Q865 418 865 486Q865 623 603 623Q447 623 287 578ZM545 566Q684 659 752 730L696 780L673 764H326V703H615Q569 655 499 606ZM168 518Q244 572 320.0 659.0Q396 746 435 830L361 844Q322 760 253.5 686.0Q185 612 115 570Z" transform="translate(0, 880) scale(1,-1)" /></svg>