<svg xmlns="http://www.w3.org/2000/svg" width="1000" height="1000"><path d="M222 -76C318 -76 419 22 419 195C419 339 365 507 231 652L186 607C312 461 342 291 342 200C342 70 282 3 218 4C172 5 140 41 140 115C140 260 257 375 528 534V75C528 -36 548 -65 653 -65H809C914 -65 935 -8 947 156L871 178C864 32 856 10 800 10H669C613 10 600 23 600 73V582L623 598L589 651C202 439 66 289 66 121C66 -19 130 -76 222 -76ZM60 615 88 546C224 599 366 684 497 780L443 840C340 753 184 664 60 615ZM670 221 716 170C794 276 874 413 931 540L863 577C812 448 735 305 670 221ZM642 525 687 479C752 568 806 666 849 761L781 797C744 697 694 601 642 525Z" transform="translate(0, 880) scale(1,-1)" /></svg>