<svg xmlns="http://www.w3.org/2000/svg" width="1000" height="1000"><path d="M519 -80Q659 -80 747.5 -41.5Q836 -3 874.5 55.5Q913 114 913 178Q913 278 840.5 332.5Q768 387 619 387Q526 387 449.5 380.0Q373 373 295 358L323 286Q403 299 472.0 305.5Q541 312 619 312Q823 312 823 169Q823 127 794.5 87.0Q766 47 698.0 20.5Q630 -6 519 -6Q422 -6 363.0 10.0Q304 26 280.0 48.5Q256 71 256 92Q256 108 288.0 119.0Q320 130 396 130Q466 130 491.5 120.0Q517 110 517 94Q517 75 468.5 50.0Q420 25 335 0L375 -31Q477 -2 537.0 30.5Q597 63 597 94Q597 144 548.5 172.5Q500 201 396 201Q290 201 235.0 170.5Q180 140 180 92Q180 58 217.0 17.5Q254 -23 330.5 -51.5Q407 -80 519 -80ZM503 336 820 505 772 574 750 564H195V491H674L465 364ZM59 663H937V735H553L513 843L441 826L470 735H59Z" transform="translate(0, 880) scale(1,-1)" /></svg>