<svg xmlns="http://www.w3.org/2000/svg" width="1000" height="1000"><path d="M526 -80C759 -80 914 12 914 148C914 262 814 355 603 355C533 355 480 349 427 336C551 406 682 480 783 542L712 607L688 597H253V521H604C508 453 385 373 289 316C265 302 229 287 181 277L232 206C338 250 456 276 579 276C744 276 826 230 826 148C826 40 646 -6 521 -6C424 -6 377 13 377 44C377 69 409 90 462 90C542 90 592 55 606 -29L685 -15C666 90 592 159 463 159C358 159 289 107 289 44C289 -32 373 -80 526 -80ZM131 708H892V787H131Z" transform="translate(0, 880) scale(1,-1)" /></svg>