<svg xmlns="http://www.w3.org/2000/svg" width="1000" height="1000"><path d="M151 -79H222V671H324V739H42V671H151ZM299 18Q318 32 341.0 54.0Q364 76 388 101Q400 114 421 114Q431 114 437.5 107.5Q444 101 450.5 80.5Q457 60 465 18L583 124L563 164L489 118Q485 142 475.0 157.5Q465 173 445 180Q495 257 545 363L502 400Q452 295 390.5 213.5Q329 132 270 99ZM593 -72Q659 -72 691.0 -15.5Q723 41 723 140Q723 239 679.0 346.0Q635 453 561 531L513 484Q584 406 617.5 317.0Q651 228 651 144Q651 75 634.5 35.0Q618 -5 584 -5Q539 -5 502 7V-65Q543 -72 593 -72ZM327 304Q478 407 593 536H520Q473 491 421.0 454.5Q369 418 299 380ZM956 49Q890 106 785.0 173.0Q680 240 587 287L554 226Q639 182 738.5 113.5Q838 45 900 -15ZM671 258Q751 304 795.5 333.5Q840 363 888 408L844 465Q796 418 756.5 388.0Q717 358 653 321ZM296 536H926V606H296ZM530 664Q522 697 502.0 746.0Q482 795 461 835L397 805Q433 729 465 630ZM747 626Q805 728 833 810L756 841Q745 802 725.5 749.0Q706 696 688 656Z" transform="translate(0, 880) scale(1,-1)" /></svg>