<svg xmlns="http://www.w3.org/2000/svg" width="1000" height="1000"><path d="M52 -48H949V20H52ZM58 561H944V630H58ZM149 717Q335 720 521.5 733.5Q708 747 847 771L807 834Q694 814 506.5 800.0Q319 786 133 781ZM572 524H497V189Q497 169 481.0 158.5Q465 148 442 148Q422 148 399.5 163.0Q377 178 377 196Q377 218 411.5 229.5Q446 241 531 241Q590 241 621.0 222.5Q652 204 652 179Q652 140 629.0 101.5Q606 63 533 20H636Q683 49 711.0 94.0Q739 139 739 181Q739 238 683.5 273.5Q628 309 531 309Q416 309 355.0 280.5Q294 252 294 196Q294 147 338.5 116.0Q383 85 459 85Q510 85 541.0 111.0Q572 137 572 171ZM847 371 848 438H291Q343 519 382.5 593.5Q422 668 451 746L374 769Q351 695 315.5 619.5Q280 544 248 493Q232 466 215.0 449.0Q198 432 184 429Q192 412 199.5 390.0Q207 368 209 357Q217 363 243.5 367.0Q270 371 311 371Z" transform="translate(0, 880) scale(1,-1)" /></svg>