<svg xmlns="http://www.w3.org/2000/svg" width="1000" height="1000"><path d="M687 104Q786 160 833.5 193.0Q881 226 902.5 258.0Q924 290 924 333Q924 391 867.0 433.0Q810 475 684 503Q775 555 841.5 612.5Q908 670 961 753L900 794L889 780H569V705H832Q778 640 718.5 593.5Q659 547 579 511L587 449Q729 421 788.0 390.5Q847 360 847 333Q847 303 803.0 266.0Q759 229 644 166ZM500 325 41 181 64 107 517 265ZM261 -72Q304 -72 325.0 -52.0Q346 -32 346 17V825H271V37Q271 20 262.5 10.0Q254 0 241 0Q190 0 136 18V-60Q193 -72 261 -72ZM70 417H500V485H70ZM219 564Q211 605 187.5 661.5Q164 718 136 766L73 751Q100 704 122.5 646.5Q145 589 153 547ZM954 -29Q894 20 783.0 89.5Q672 159 575 208L538 150Q635 99 742.5 29.5Q850 -40 907 -91ZM432 544Q479 621 538 754L466 773Q449 722 422.5 661.5Q396 601 372 561Z" transform="translate(0, 880) scale(1,-1)" /></svg>