<svg xmlns="http://www.w3.org/2000/svg" width="1000" height="1000"><path d="M635 -54Q723 -54 789.0 -10.5Q855 33 890.5 108.0Q926 183 926 274Q926 418 835.0 479.5Q744 541 571 541Q490 541 438 534L486 560Q615 630 686.5 670.5Q758 711 818 752L750 798L721 790H147V715H621Q472 617 259 510Q251 506 190 482Q135 461 105 448L153 389Q344 474 551 474Q688 474 763.5 428.0Q839 382 839 272Q839 208 813.5 148.5Q788 89 740.0 52.0Q692 15 628 15Q537 15 447 46V-34Q531 -54 635 -54ZM197 140Q236 181 266.0 229.5Q296 278 326 340L252 361Q201 248 134 171ZM420 86H495V406H420ZM764 187Q714 276 640 368L575 331Q643 249 700 145Z" transform="translate(0, 880) scale(1,-1)" /></svg>