<svg xmlns="http://www.w3.org/2000/svg" width="1000" height="1000"><path d="M302 520H609C806 520 900 578 900 667C900 745 834 810 598 810C398 810 262 756 193 706V778H118V526H193V640C285 697 425 739 598 739C763 739 822 707 822 667C822 614 719 591 609 590L302 588ZM126 -86C188 -40 240 26 262 91L187 116C168 53 113 -13 57 -52ZM524 -82C565 -82 603 -69 661 -32L607 29C577 3 558 -5 534 -5C510 -5 497 17 464 111L389 94C436 -50 478 -82 524 -82ZM68 160H935V231H68ZM368 231H522C585 263 607 314 607 372C607 433 556 472 497 472C423 472 355 441 355 385C355 326 416 295 487 295C505 295 522 300 536 308C511 266 452 244 368 231ZM873 -83 951 -53C916 -6 850 65 792 116L723 82C785 29 841 -37 873 -83ZM485 349C451 349 424 363 424 385C424 407 452 421 486 421C514 421 541 405 541 388C541 363 515 349 485 349ZM574 404V673H499V453Z" transform="translate(0, 880) scale(1,-1)" /></svg>