<svg xmlns="http://www.w3.org/2000/svg" width="1000" height="1000"><path d="M44 115 60 48 505 149 490 220ZM284 -82Q321 -82 338.0 -64.0Q355 -46 355 -5V537H283V-4Q283 -13 278.0 -16.5Q273 -20 261 -20Q219 -20 164 -4L165 -72Q225 -82 284 -82ZM56 266H447V333H56ZM103 398 132 403H435V470H185Q228 529 267 607H474V675H64V607H189Q172 565 153.5 531.5Q135 498 123 482Q102 457 84 454ZM258 706Q246 733 223.5 767.5Q201 802 177 830L110 814Q135 784 155.5 750.5Q176 717 186 691ZM373 675Q441 767 474 821L389 836Q365 775 292 675ZM513 330Q570 397 640.5 515.0Q711 633 748 718L673 735Q640 645 571.0 537.0Q502 429 444 370ZM479 -65H960V4H479ZM717 4Q767 40 794.5 104.0Q822 168 822 234Q822 299 790.5 341.0Q759 383 705 383Q656 383 620.5 347.5Q585 312 585 256Q585 196 619.5 163.0Q654 130 703 130Q725 130 741 139Q721 89 691.0 61.0Q661 33 599 4ZM704 193Q681 193 665.5 210.5Q650 228 650 256Q650 283 665.5 301.0Q681 319 704 319Q728 319 741.5 301.5Q755 284 755 256Q755 228 741.5 210.5Q728 193 704 193ZM808 282V609H739V338ZM580 454H940V522H580ZM497 703H937V775H497Z" transform="translate(0, 880) scale(1,-1)" /></svg>