<svg xmlns="http://www.w3.org/2000/svg" width="1000" height="1000"><path d="M479 336C564 428 683 612 734 720L667 735C617 613 499 450 418 374ZM85 32 96 48 473 156 459 211 126 118 162 197 124 219 45 74ZM267 -82C314 -82 333 -59 333 -5V537H266V-4C266 -16 261 -20 246 -20C223 -20 194 -16 156 -4L157 -72C196 -79 231 -82 267 -82ZM55 269H419V329H55ZM455 -54H960V9H455ZM99 398 126 407H408V466H169C200 513 223 553 248 611H444V671H63V611H179C156 549 130 499 118 482C104 464 92 456 81 454ZM585 9H705C777 59 815 150 815 238C815 326 769 394 692 394C625 394 566 341 566 261C566 173 626 129 690 129C707 129 721 133 734 141C705 80 669 47 585 9ZM176 691 243 706C229 739 199 791 168 830L105 814C135 775 164 726 176 691ZM692 187C657 187 632 218 632 261C632 303 657 334 692 334C727 334 749 303 749 261C749 218 727 187 692 187ZM275 671H350C381 716 415 771 444 821L365 836C346 785 307 719 275 671ZM799 288V611H732V347ZM561 460H939V522H561ZM505 620C562 678 601 741 642 804L584 830C546 764 504 700 452 651ZM554 707H936V762H554Z" transform="translate(0, 880) scale(1,-1)" /></svg>