<svg xmlns="http://www.w3.org/2000/svg" width="1000" height="1000"><path d="M136 -77Q185 5 209.0 95.0Q233 185 239.5 273.5Q246 362 246 486V721H427V103Q427 54 413.5 32.0Q400 10 372 10Q327 10 268 24V-55Q335 -65 387 -65Q502 -65 502 122V790H91V721H171V486Q171 364 166.0 285.5Q161 207 139.0 123.5Q117 40 69 -33ZM92 215 596 302 586 372 82 286ZM62 491H463V557L62 558ZM954 -29Q896 20 789.5 89.5Q683 159 590 208L555 150Q648 99 751.0 29.5Q854 -40 909 -91ZM698 104Q792 160 838.0 193.0Q884 226 904.5 258.0Q925 290 925 333Q925 391 870.5 433.0Q816 475 695 503Q782 555 846.0 612.5Q910 670 961 753L902 794L892 780H575V705H837Q784 639 727.0 593.0Q670 547 594 511L602 449Q738 421 795.0 390.5Q852 360 852 333Q852 303 809.5 266.0Q767 229 657 166Z" transform="translate(0, 880) scale(1,-1)" /></svg>