<svg xmlns="http://www.w3.org/2000/svg" width="1000" height="1000"><path d="M547 211Q547 264 506.0 288.0Q465 312 371 312Q315 312 275.0 301.5Q235 291 214.5 274.0Q194 257 194 237Q194 198 260.5 176.0Q327 154 460 154Q588 154 693.5 174.5Q799 195 859.5 230.5Q920 266 920 308Q920 365 835.0 400.0Q750 435 585 435Q467 435 355 421Q388 443 429.0 485.0Q470 527 499 567L409 580Q383 536 339.5 489.0Q296 442 248 412L218 405L274 348Q342 362 406.5 369.0Q471 376 563 376Q832 376 832 308Q832 281 771.0 259.5Q710 238 622.0 225.5Q534 213 460 213Q370 213 329.0 219.5Q288 226 288 237Q288 260 370 260Q415 260 436.0 249.5Q457 239 457 212Q457 176 412.5 130.5Q368 85 286.5 44.0Q205 3 101 -20L154 -79Q254 -51 346.5 0.0Q439 51 494.5 108.5Q550 166 547 211ZM280 594Q445 627 600 627Q790 627 790 580Q790 562 775.0 549.5Q760 537 717.5 530.0Q675 523 597 523Q529 523 398 531V476Q500 470 575 470Q697 470 763.5 484.5Q830 499 854.0 523.0Q878 547 878 580Q878 634 810.5 660.0Q743 686 600 686Q436 686 257 652ZM538 639Q606 669 669.5 705.0Q733 741 770 768L701 805L676 793H311V735H605Q566 707 487 668ZM124 590Q205 629 291.5 697.5Q378 766 422 829L337 844Q296 782 221.5 727.0Q147 672 70 641ZM807 -68Q861 -68 888.5 -50.0Q916 -32 927.0 -0.5Q938 31 945 88L876 110Q872 59 866.0 35.5Q860 12 848.0 3.0Q836 -6 811 -6H669Q638 -6 627.5 -1.0Q617 4 617 20V122H543V-4Q543 -40 573.5 -54.0Q604 -68 680 -68Z" transform="translate(0, 880) scale(1,-1)" /></svg>