<svg xmlns="http://www.w3.org/2000/svg" width="1000" height="1000"><path d="M57 -64H955V10H57ZM653 1Q707 33 744.5 79.5Q782 126 782 167Q782 231 717.0 274.0Q652 317 512 317Q419 317 350.5 300.5Q282 284 245.5 255.5Q209 227 209 192Q209 136 257.5 109.5Q306 83 390 83Q492 83 543.0 126.5Q594 170 594 270V644H514V283Q514 211 481.0 180.5Q448 150 390 150Q341 150 315.5 162.5Q290 175 290 192Q290 206 314.5 218.5Q339 231 389.0 239.0Q439 247 512 247Q579 247 620.0 233.5Q661 220 678.0 200.5Q695 181 695 163Q695 135 659.0 87.5Q623 40 563 1ZM109 396H913V468H109ZM68 499Q299 656 434 833L356 862Q291 774 202.5 693.5Q114 613 16 553ZM555 722Q496 670 426.5 620.5Q357 571 290 537L341 483Q428 538 526.0 613.5Q624 689 690 749L638 793L619 786H297V722Z" transform="translate(0, 880) scale(1,-1)" /></svg>