<svg xmlns="http://www.w3.org/2000/svg" width="1000" height="1000"><path d="M0.0 0.0Q0 0 0.0 0.0Q0 0 0.0 0.0ZM141 -62H212V691H304V759H42V691H141ZM778 519Q735 431 691 369L724 310Q756 318 775 318Q810 318 828.0 299.0Q846 280 846 245Q846 208 811.5 173.0Q777 138 718.0 112.0Q659 86 589 75L626 12Q733 43 789.0 66.0Q845 89 882.0 131.5Q919 174 919 245Q919 311 884.5 346.5Q850 382 793 382Q784 382 768 380L875 547L825 596L810 588Q615 578 497.5 538.0Q380 498 331.5 446.0Q283 394 283 340Q283 279 316.5 247.5Q350 216 398 216Q476 216 582.0 374.5Q688 533 786 766L728 813L709 799H356V727H688Q644 617 590.0 515.5Q536 414 484.5 350.5Q433 287 398 287Q375 287 361.5 302.0Q348 317 348 340Q348 368 386.0 404.5Q424 441 520.5 474.0Q617 507 778 519ZM708 -53Q688 0 649.5 68.5Q611 137 569 198L508 165Q545 114 580.5 45.0Q616 -24 641 -87Z" transform="translate(0, 880) scale(1,-1)" /></svg>