<svg xmlns="http://www.w3.org/2000/svg" width="1000" height="1000"><path d="M304 348H385L383 835H304ZM94 403H908V470H94ZM131 550H871V616H131ZM618 348H697L696 835H618ZM108 691Q316 693 533.0 706.0Q750 719 912 742L866 803Q736 784 520.5 770.5Q305 757 88 752ZM596 331Q476 331 362.5 322.5Q249 314 122 297L140 235Q370 266 596 266Q681 266 729.0 256.5Q777 247 777 230Q777 194 684.5 141.0Q592 88 467.0 48.5Q342 9 255 9Q201 9 173.0 23.0Q145 37 145 61Q145 86 178.0 99.5Q211 113 294 113Q355 113 423.5 92.5Q492 72 612 26Q723 -16 785.5 -38.0Q848 -60 927 -81L968 -18Q896 2 834.0 23.5Q772 45 666 84Q532 135 450.5 159.0Q369 183 294 183Q184 183 120.5 153.5Q57 124 57 61Q57 5 107.0 -26.5Q157 -58 255 -58Q372 -58 517.5 -7.0Q663 44 766.5 113.5Q870 183 870 230Q870 285 797.0 308.0Q724 331 596 331Z" transform="translate(0, 880) scale(1,-1)" /></svg>