<svg xmlns="http://www.w3.org/2000/svg" width="1000" height="1000"><path d="M107 -77Q185 54 211.0 197.0Q237 340 236 501L234 729H759Q760 409 767.0 255.0Q774 101 802.5 15.5Q831 -70 894 -70Q922 -70 937.5 -53.0Q953 -36 961.0 2.0Q969 40 973 110L918 121Q916 62 911.0 36.0Q906 10 894 10Q869 10 856.0 67.0Q843 124 838.5 228.0Q834 332 834 500Q834 692 835 802H160V501Q160 344 135.5 205.5Q111 67 38 -35ZM575 589Q532 639 460 699L400 668Q464 614 506 556ZM489 358Q543 392 605.5 439.5Q668 487 715 529L676 583L659 574H289V510H588Q540 459 448 381ZM529 399Q460 399 398.0 384.5Q336 370 269 345L306 286Q384 330 521 330Q586 330 621.5 297.0Q657 264 657 206Q657 139 605.0 102.0Q553 65 481 65Q435 65 408.5 77.5Q382 90 382 110Q382 131 397.5 145.5Q413 160 438 160Q481 160 506.5 133.0Q532 106 540 46L595 59Q586 133 545.5 175.5Q505 218 439 218Q404 218 375.5 203.0Q347 188 331.0 163.0Q315 138 315 110Q315 61 360.5 30.5Q406 0 484 0Q605 0 669.0 55.0Q733 110 733 206Q733 260 706.5 304.0Q680 348 633.5 373.5Q587 399 529 399Z" transform="translate(0, 880) scale(1,-1)" /></svg>