<svg xmlns="http://www.w3.org/2000/svg" width="1000" height="1000"><path d="M87 148Q258 212 393.5 298.0Q529 384 621.5 467.0Q714 550 826 665L890 730L828 769L711 661Q580 538 494.0 466.0Q408 394 299.5 328.5Q191 263 54 213ZM576 -57Q539 47 481 139L419 107Q466 36 508 -89ZM528 1Q657 14 737.0 35.0Q817 56 858.0 93.0Q899 130 899 188Q899 262 836.0 304.0Q773 346 664 346Q545 346 454 313V369H377V271L408 194Q475 236 536.0 254.0Q597 272 659 272Q736 272 778.0 248.0Q820 224 820 184Q820 160 784.5 131.5Q749 103 678.5 83.0Q608 63 510 63ZM68 458H943V530H502V648H746V714H502V825H428V714H172V648H428V530H68Z" transform="translate(0, 880) scale(1,-1)" /></svg>