<svg xmlns="http://www.w3.org/2000/svg" width="1000" height="1000"><path d="M347 -20Q452 -38 533 -38Q694 -38 772.0 23.5Q850 85 850 186Q850 281 780.0 337.0Q710 393 571 393Q512 393 449 378L670 505H550Q501 470 424.5 421.0Q348 372 284 337Q183 282 145 257L173 179Q262 242 356.5 276.0Q451 310 571 310Q666 310 717.0 275.5Q768 241 768 186Q768 150 742.5 117.5Q717 85 662.0 64.5Q607 44 524 44Q444 44 347 64ZM54 505H947V583H54ZM396 631Q377 673 345.5 728.0Q314 783 285 824L206 799Q235 755 265.5 700.5Q296 646 315 603ZM658 594Q714 664 794 800L706 827Q642 693 583 616Z" transform="translate(0, 880) scale(1,-1)" /></svg>