<svg xmlns="http://www.w3.org/2000/svg" width="1000" height="1000"><path d="M526 -80Q642 -80 729.5 -52.5Q817 -25 865.5 26.0Q914 77 914 144Q914 203 879.5 249.5Q845 296 775.0 323.5Q705 351 603 351Q509 351 415 329Q612 437 783 542L731 601L707 592H253V521H604Q531 468 445.5 411.0Q360 354 289 312Q245 286 181 273L232 213Q401 283 579 283Q699 283 762.5 245.5Q826 208 826 144Q826 89 778.5 52.0Q731 15 660.5 -2.5Q590 -20 521 -20Q454 -20 414.5 -4.5Q375 11 375 40Q375 62 400.5 78.0Q426 94 462 94Q586 94 606 -29L685 -15Q670 66 613.5 112.0Q557 158 463 158Q414 158 374.5 141.0Q335 124 312.0 96.5Q289 69 289 40Q289 -13 352.5 -46.5Q416 -80 526 -80ZM131 712H892V783H131Z" transform="translate(0, 880) scale(1,-1)" /></svg>