<svg xmlns="http://www.w3.org/2000/svg" width="1000" height="1000"><path d="M618 -75C793 -75 807 71 807 201C807 279 788 336 600 336C520 336 421 328 312 314L315 249C436 264 517 269 599 269C709 269 728 242 728 201C728 118 715 -14 608 -14C556 -14 501 -10 452 1V-65C508 -74 548 -75 618 -75ZM136 -45 216 -73C305 56 324 166 330 335H253C245 162 230 81 136 -45ZM661 106 664 170 372 176 368 111ZM55 386H945V454H55ZM262 521H738V589H262ZM112 661H888V729H112ZM462 589H538V845H462Z" transform="translate(0, 880) scale(1,-1)" /></svg>