<svg xmlns="http://www.w3.org/2000/svg" width="1000" height="1000"><path d="M827 491Q923 548 923 626Q923 705 850.5 756.0Q778 807 605 807Q430 807 304.0 755.0Q178 703 70 598L118 537Q217 633 333.0 682.5Q449 732 605 732Q727 732 785.5 703.5Q844 675 844 626Q844 600 828.0 581.0Q812 562 782 546ZM263 -64Q306 33 328.5 124.5Q351 216 360.0 313.5Q369 411 372 553H301Q298 400 290.5 316.0Q283 232 259.0 148.0Q235 64 184 -44ZM588 -75Q654 -75 687.0 -15.0Q720 45 730.0 134.5Q740 224 740 348Q740 416 727.5 460.0Q715 504 677.0 529.5Q639 555 567 555Q462 555 341 525L343 458Q457 485 565 485Q610 485 632.0 466.5Q654 448 661.0 416.0Q668 384 668 333Q668 201 648.5 95.0Q629 -11 579 -11Q510 -11 454 12V-61Q485 -70 514.0 -72.5Q543 -75 588 -75ZM622 223 624 286 396 292 394 228Z" transform="translate(0, 880) scale(1,-1)" /></svg>