<svg xmlns="http://www.w3.org/2000/svg" width="1000" height="1000"><path d="M945 27Q761 12 614 12Q402 12 281 48Q217 67 172.5 117.0Q128 167 109 238L31 216Q57 122 113.0 62.5Q169 3 251 -21Q403 -65 650 -65Q765 -65 921 -54ZM441 87Q482 84 517 84Q613 84 682.0 102.5Q751 121 787.5 154.5Q824 188 824 232Q824 291 764.0 325.0Q704 359 589 359Q484 359 394.5 326.0Q305 293 220 231L286 181Q417 290 589 290Q665 290 703.0 272.5Q741 255 741 232Q741 209 714.5 187.5Q688 166 630.5 152.0Q573 138 484 138Q448 138 428 139ZM191 534Q232 580 272.0 661.0Q312 742 334 811L262 827Q240 753 204.0 683.5Q168 614 126 570ZM127 426H929V490H127ZM494 490H570V840H494ZM247 629H884V694H247Z" transform="translate(0, 880) scale(1,-1)" /></svg>