<svg xmlns="http://www.w3.org/2000/svg" width="1000" height="1000"><path d="M102 -77Q180 32 208.5 185.5Q237 339 236 501L234 729H759Q760 409 767.0 255.0Q774 101 802.5 15.5Q831 -70 894 -70Q922 -70 937.5 -53.0Q953 -36 961.0 2.0Q969 40 973 110L918 121Q916 62 911.0 36.0Q906 10 894 10Q869 10 856.0 67.0Q843 124 838.5 228.0Q834 332 834 500Q834 692 835 802H160V501Q160 340 137.0 203.5Q114 67 41 -35ZM635 98Q678 98 702.0 133.5Q726 169 734 228L662 254Q657 210 644.0 186.5Q631 163 603 163H402Q374 163 364.5 166.5Q355 170 355 179Q355 190 454.0 256.5Q553 323 694 404L659 474L637 464L308 462V395L549 396Q449 337 392.0 299.0Q335 261 304.5 229.0Q274 197 274 169Q274 131 309.0 114.5Q344 98 412 98ZM313 569H675V635H313Z" transform="translate(0, 880) scale(1,-1)" /></svg>