<svg xmlns="http://www.w3.org/2000/svg" width="1000" height="1000"><path d="M618 -75Q700 -75 741.5 -36.0Q783 3 795.0 61.5Q807 120 807 201Q807 246 793.0 274.5Q779 303 734.0 319.5Q689 336 600 336Q483 336 312 314L315 249Q476 269 599 269Q676 269 702.0 252.0Q728 235 728 201Q728 -14 608 -14Q519 -14 452 1V-65Q491 -71 525.5 -73.0Q560 -75 618 -75ZM216 -73Q279 18 302.0 108.0Q325 198 330 335H253Q249 241 239.5 182.0Q230 123 206.0 70.0Q182 17 136 -45ZM661 106 664 170 372 176 368 111ZM55 386H945V454H55ZM262 521H738V589H262ZM112 661H888V729H112ZM462 589H538V845H462Z" transform="translate(0, 880) scale(1,-1)" /></svg>