<svg xmlns="http://www.w3.org/2000/svg" width="1000" height="1000"><path d="M948 30Q764 15 616 15Q403 15 282 51Q218 70 173.5 119.5Q129 169 109 241L31 219Q57 124 113.5 65.0Q170 6 252 -18Q405 -62 653 -62Q768 -62 924 -51ZM184 140H949V211H184ZM188 389Q250 451 323.5 544.0Q397 637 451 720L380 746Q330 670 263.0 587.0Q196 504 137 442ZM169 601Q266 709 336 816L269 846Q235 790 193.5 734.5Q152 679 112 637ZM692 191Q739 218 772.0 255.5Q805 293 805 325Q805 375 748.5 409.5Q692 444 570 444Q498 444 442.0 431.5Q386 419 355.5 396.5Q325 374 325 347Q325 301 379.0 275.5Q433 250 530 250Q567 250 590.5 271.0Q614 292 614 319V654H540V346Q540 311 498 311Q454 311 428.0 321.0Q402 331 402 345Q402 380 570 380Q654 380 687.5 363.0Q721 346 721 323Q721 297 693.5 259.0Q666 221 615 191ZM283 510H901V580H283ZM234 702H904V767H234Z" transform="translate(0, 880) scale(1,-1)" /></svg>