<svg xmlns="http://www.w3.org/2000/svg" width="1000" height="1000"><path d="M856 411Q932 473 932 553Q932 626 850.5 665.5Q769 705 583 705Q321 705 153 612V682H77V432H153V554Q240 591 350.5 611.0Q461 631 582 631Q729 631 789.5 608.0Q850 585 850 553Q850 504 801 465ZM461 516H540V788H461ZM703 544 298 543V470H703ZM823 827 168 826V753H823ZM158 -53 193 -44 789 -10 775 57 292 32Q422 106 557 199L464 217Q329 112 198 40Q171 24 124 17ZM879 -34Q802 65 687 155L635 109Q688 66 731.0 20.0Q774 -26 819 -81ZM74 174H934V244H74ZM146 338H863V407H146Z" transform="translate(0, 880) scale(1,-1)" /></svg>