<svg xmlns="http://www.w3.org/2000/svg" width="1000" height="1000"><path d="M534 719H71V656H534ZM344 531V842H267V531ZM505 559H96V498H505ZM512 430H95V364H512ZM235 -70C376 -70 531 23 531 174C531 294 417 341 176 308L188 252C403 278 456 242 456 174C456 70 333 -7 235 -7C169 -7 147 8 147 32C147 83 259 150 463 194L432 236C209 193 70 108 70 33C70 -23 112 -70 235 -70ZM103 217 166 199C202 237 252 305 288 368L214 387C187 324 141 256 103 217ZM909 -91 954 -29C877 37 714 143 589 208L554 150C675 84 834 -22 909 -91ZM656 166 698 104C868 205 925 246 925 333C925 407 862 465 694 503C800 566 887 635 961 753L902 794L892 780H574V705H836C768 620 698 560 593 511L601 449C800 408 851 364 851 333C851 294 806 252 656 166Z" transform="translate(0, 880) scale(1,-1)" /></svg>