<svg xmlns="http://www.w3.org/2000/svg" width="1000" height="1000"><path d="M568 473Q668 473 735.5 495.0Q803 517 835.0 554.5Q867 592 867 639Q867 802 578 802Q485 802 417.0 786.0Q349 770 281 734Q306 761 340 810L355 831L269 851Q216 741 107 635L180 606Q202 629 217.5 642.0Q233 655 256 666Q321 694 405.5 712.0Q490 730 572 730Q679 730 733.0 709.5Q787 689 787 639Q787 593 737.0 567.5Q687 542 568 542Q500 542 429.5 546.5Q359 551 306 559V485Q429 473 568 473ZM850 219Q877 249 877 286Q877 356 801.5 389.5Q726 423 571 423Q444 423 330.0 399.0Q216 375 137 334L154 272Q235 308 346.5 333.5Q458 359 566 359Q675 359 734.5 340.5Q794 322 794 286Q794 264 780 247ZM160 41Q160 68 175.0 87.0Q190 106 241.0 118.5Q292 131 392 131H899V203H389Q217 203 151.5 160.0Q86 117 86 41Q86 -9 124.5 -42.5Q163 -76 230 -76Q322 -76 371.0 9.5Q420 95 420 296H343Q343 179 329.0 113.0Q315 47 291.0 22.0Q267 -3 232 -3Q197 -3 178.5 8.5Q160 20 160 41ZM591 293V-83H667V293ZM388 346Q487 470 563 613L484 635Q430 503 311 378Z" transform="translate(0, 880) scale(1,-1)" /></svg>