<svg xmlns="http://www.w3.org/2000/svg" width="1000" height="1000"><path d="M302 520Q442 510 524 510Q719 510 809.5 549.0Q900 588 900 667Q900 810 598 810Q460 810 356.5 779.5Q253 749 193 706V778H118V526H193V640Q266 685 370.0 712.0Q474 739 598 739Q715 739 768.5 719.5Q822 700 822 667Q822 625 758.0 600.0Q694 575 544 575Q442 575 302 588ZM126 -86Q173 -51 209.5 -4.0Q246 43 262 91L187 116Q173 70 137.0 24.0Q101 -22 57 -52ZM524 -82Q555 -82 586.5 -70.5Q618 -59 661 -32L607 29Q585 10 568.5 2.5Q552 -5 534 -5Q522 -5 512.5 4.5Q503 14 492.0 38.0Q481 62 464 111L389 94Q422 -7 454.0 -44.5Q486 -82 524 -82ZM68 160H935V231H68ZM522 231Q607 274 607 372Q607 416 575.0 444.0Q543 472 497 472Q438 472 396.5 448.5Q355 425 355 385Q355 343 393.0 319.0Q431 295 487 295Q513 295 536 308Q518 278 476.0 259.5Q434 241 368 231ZM951 -53Q924 -17 879.5 30.5Q835 78 792 116L723 82Q766 45 806.0 0.0Q846 -45 873 -83ZM485 349Q459 349 441.5 359.0Q424 369 424 385Q424 401 442.0 411.0Q460 421 486 421Q507 421 524.0 411.0Q541 401 541 388Q541 370 525.0 359.5Q509 349 485 349ZM574 404V673H499V453Z" transform="translate(0, 880) scale(1,-1)" /></svg>