<svg xmlns="http://www.w3.org/2000/svg" width="1000" height="1000"><path d="M415 505Q400 579 373.0 665.5Q346 752 316 823L240 809Q271 736 296.5 650.5Q322 565 334 492ZM67 623H933V694H67ZM643 453Q730 605 789 829L704 837Q657 626 573 470ZM0.0 0.0Q0 0 0.0 0.0Q0 0 0.0 0.0ZM103 -86Q160 -18 184.5 76.5Q209 171 209 261V414H923V486H131V261Q131 66 35 -51ZM562 -65Q601 -65 635.5 -58.5Q670 -52 710 -37V42Q627 8 575 8Q559 8 551.5 17.5Q544 27 544 48V363H467V14Q467 -29 490.5 -47.0Q514 -65 562 -65ZM958 76Q786 225 660 307L609 252Q681 201 758.5 137.0Q836 73 902 10ZM290 296V-26H366V296Z" transform="translate(0, 880) scale(1,-1)" /></svg>