<svg xmlns="http://www.w3.org/2000/svg" width="1000" height="1000"><path d="M675 29Q738 45 786.0 79.0Q834 113 860.0 155.0Q886 197 886 235Q886 306 815.0 347.0Q744 388 587 388Q476 388 385.5 363.5Q295 339 243.5 299.5Q192 260 192 217Q192 163 236.0 126.5Q280 90 360 90Q435 90 492.5 118.0Q550 146 582.5 200.0Q615 254 615 329Q615 395 574.5 447.0Q534 499 481 521L434 479Q486 452 509.5 419.0Q533 386 533 329Q533 243 485.5 201.5Q438 160 357 160Q278 160 278 217Q278 238 316.5 263.5Q355 289 425.5 307.0Q496 325 587 325Q703 325 751.0 298.0Q799 271 799 235Q799 206 778.0 176.5Q757 147 717.5 124.0Q678 101 624 90ZM0.0 0.0Q0 0 0.0 0.0Q0 0 0.0 0.0ZM945 21Q761 7 625 7Q403 7 281 44Q217 63 170.5 115.5Q124 168 105 239L31 216Q57 122 113.0 62.5Q169 3 251 -21Q409 -66 664 -66Q790 -66 926 -56ZM180 472H245V543Q320 593 423.5 615.5Q527 638 632 638Q717 638 773.0 625.5Q829 613 829 595Q829 578 803.0 566.0Q777 554 725 554L700 555V481Q806 480 858.0 509.5Q910 539 910 595Q910 649 834.0 678.0Q758 707 633 707Q521 707 413.5 675.0Q306 643 245 593V688H180ZM378 398Q484 442 585.0 546.0Q686 650 761 763L696 794Q635 689 536.5 592.0Q438 495 336 446ZM443 512Q435 588 435 681Q435 727 436 750H930V819H144V750H364Q363 639 379 505Z" transform="translate(0, 880) scale(1,-1)" /></svg>