<svg xmlns="http://www.w3.org/2000/svg" width="1000" height="1000"><path d="M473 -80C714 -80 904 -5 904 112C904 209 800 291 589 291C519 291 437 282 377 271C419 313 475 400 509 469L427 486C399 415 341 316 279 259L251 249L302 189C374 211 446 226 569 226C734 226 816 182 816 112C816 11 604 -15 473 -15C366 -15 316 -1 316 23C316 47 356 69 411 69C492 69 548 39 562 -37L645 -24C625 66 548 124 412 124C304 124 230 73 230 23C230 -38 305 -80 473 -80ZM287 578 308 515C386 538 493 560 603 560C732 560 778 531 778 486C778 420 712 380 397 409V345C778 311 865 390 865 486C865 579 773 623 603 623C479 623 365 600 287 578ZM499 606 545 566C635 626 710 686 752 730L696 780L673 764H326V703H615C587 674 543 637 499 606ZM115 570 168 518C264 586 381 713 435 830L361 844C307 727 203 623 115 570Z" transform="translate(0, 880) scale(1,-1)" /></svg>