<svg xmlns="http://www.w3.org/2000/svg" width="1000" height="1000"><path d="M222 -76Q271 -76 316.5 -43.5Q362 -11 390.5 50.5Q419 112 419 195Q419 310 373.0 429.0Q327 548 231 652L186 607Q271 509 306.5 398.0Q342 287 342 200Q342 138 325.0 93.5Q308 49 280.0 26.5Q252 4 219 4Q183 4 161.5 32.5Q140 61 140 115Q140 187 180.0 252.5Q220 318 304.5 385.0Q389 452 528 534V75Q528 17 537.5 -12.0Q547 -41 573.5 -53.0Q600 -65 653 -65H809Q861 -65 888.5 -44.0Q916 -23 928.5 22.5Q941 68 947 156L871 178Q867 101 861.5 67.5Q856 34 842.5 22.0Q829 10 800 10H669Q627 10 613.5 22.5Q600 35 600 73V582L623 598L589 651Q396 545 282.0 457.0Q168 369 117.0 288.0Q66 207 66 121Q66 20 107.5 -28.0Q149 -76 222 -76ZM88 546Q280 621 497 780L443 840Q368 776 262.0 714.5Q156 653 60 615ZM716 170Q775 250 831.5 347.5Q888 445 931 540L863 577Q824 480 771.0 382.0Q718 284 670 221ZM687 479Q777 603 849 761L781 797Q726 647 642 525Z" transform="translate(0, 880) scale(1,-1)" /></svg>