<svg xmlns="http://www.w3.org/2000/svg" width="1000" height="1000"><path d="M638 -77Q773 -17 854.5 79.0Q936 175 936 289Q936 422 864.5 488.5Q793 555 634 555Q554 555 491.0 529.5Q428 504 391.5 455.5Q355 407 355 340Q355 262 398.0 219.0Q441 176 521 176Q611 176 659.5 244.5Q708 313 708 473V721H961V792H374V721H633V471Q633 356 605.0 301.5Q577 247 521 247Q480 247 456.0 271.0Q432 295 432 340Q432 407 485.5 446.0Q539 485 631 485Q755 485 804.5 436.5Q854 388 854 295Q854 203 785.0 122.5Q716 42 599 -5ZM165 -81H239V698H321V767H83V698H165Z" transform="translate(0, 880) scale(1,-1)" /></svg>