<svg xmlns="http://www.w3.org/2000/svg" width="1000" height="1000"><path d="M69 -33 136 -77C241 98 246 287 246 486V721H427V103C427 36 409 10 372 10C343 10 310 14 268 24V-55C308 -61 348 -65 387 -65C467 -65 502 2 502 122V790H91V721H171V486C171 305 172 124 69 -33ZM92 215 596 302 586 372 82 286ZM62 491H463V557L62 558ZM909 -91 954 -29C877 37 714 143 590 208L555 150C676 84 834 -22 909 -91ZM657 166 698 104C869 205 925 246 925 333C925 407 862 465 695 503C801 566 888 635 961 753L902 794L892 780H575V705H837C769 620 699 560 594 511L602 449C801 408 852 364 852 333C852 294 807 252 657 166Z" transform="translate(0, 880) scale(1,-1)" /></svg>