<svg xmlns="http://www.w3.org/2000/svg" width="1000" height="1000"><path d="M347 64V-20C708 -83 850 29 850 186C850 307 764 393 571 393C534 393 491 388 449 378L670 505H550C487 459 371 385 284 337C236 311 187 285 145 257L173 179C281 256 401 310 571 310C703 310 768 256 768 186C768 98 655 2 347 64ZM54 505H947V583H54ZM315 603 396 631C372 684 326 767 285 824L206 799C244 741 289 661 315 603ZM583 616 658 594C702 649 754 732 794 800L706 827C671 754 625 671 583 616Z" transform="translate(0, 880) scale(1,-1)" /></svg>