<svg xmlns="http://www.w3.org/2000/svg" width="1000" height="1000"><path d="M921 -54 945 27C649 4 424 5 281 48C195 74 134 144 109 238L31 216C66 88 144 10 251 -21C400 -64 620 -76 921 -54ZM428 139 441 87C683 70 824 133 824 232C824 309 746 359 589 359C441 359 325 307 220 231L286 181C377 257 478 290 589 290C699 290 741 259 741 232C741 185 659 128 428 139ZM126 570 191 534C249 600 308 729 334 811L262 827C234 734 185 631 126 570ZM127 426H929V490H127ZM494 490H570V840H494ZM247 629H884V694H247Z" transform="translate(0, 880) scale(1,-1)" /></svg>