<svg xmlns="http://www.w3.org/2000/svg" width="1000" height="1000"><path d="M568 388C777 388 867 481 867 592C867 723 774 785 578 785C451 785 369 758 281 702C308 737 325 774 355 826L269 851C230 751 176 667 107 584L180 548C201 575 221 608 256 627C340 673 462 708 578 707C711 705 787 676 787 592C787 521 736 464 568 464C480 464 378 473 306 485V404C378 395 455 388 568 388ZM87 -67C478 90 524 274 544 607L465 611C445 318 416 146 43 -1ZM625 -58H803C889 -58 907 3 914 97L837 109C833 41 828 19 791 19H637C605 19 599 27 599 68V320H520V61C520 -33 543 -58 625 -58ZM925 196 966 261C894 299 795 340 723 360L694 299C768 279 856 238 925 196Z" transform="translate(0, 880) scale(1,-1)" /></svg>