<svg xmlns="http://www.w3.org/2000/svg" width="1000" height="1000"><path d="M753 247Q814 247 841.0 318.0Q868 389 874 532L815 551L796 540H438V468H791Q791 395 776.0 355.5Q761 316 733 316Q651 316 564 342V268Q651 247 753 247ZM122 -15Q224 122 329 313L274 352Q169 162 57 30ZM402 -84 668 -9 655 63 485 15V355H411V42Q411 15 400.0 2.5Q389 -10 372 -17ZM952 -21Q811 118 695 196L642 144Q755 66 895 -78ZM316 618Q233 697 132 755L90 695Q189 634 267 556ZM335 453Q394 537 434.0 620.5Q474 704 506 798L431 822Q406 729 368.0 650.0Q330 571 272 492ZM416 647H927V715H416Z" transform="translate(0, 880) scale(1,-1)" /></svg>