<svg xmlns="http://www.w3.org/2000/svg" width="1000" height="1000"><path d="M475 -10H516Q698 -10 784.0 26.0Q870 62 870 144Q870 176 840.5 202.5Q811 229 749.5 245.0Q688 261 596 261Q559 261 517 258Q591 274 660.0 299.5Q729 325 811 361L743 405Q638 352 524.0 304.0Q410 256 340 242Q293 233 230.0 213.0Q167 193 108 169L139 106Q246 150 360.0 172.0Q474 194 580 194Q676 194 730.0 177.5Q784 161 784 137Q784 113 742.0 92.5Q700 72 617.5 59.0Q535 46 420 45ZM542 -62Q515 -15 474.5 33.5Q434 82 390 122L328 90Q365 56 406.5 3.5Q448 -49 472 -94ZM76 347H924V411H76ZM634 411Q675 420 705.5 441.5Q736 463 752.5 488.0Q769 513 769 533Q769 574 698.0 600.5Q627 627 495 627Q361 627 285.0 604.0Q209 581 209 541Q209 502 264.0 478.0Q319 454 426 454Q486 454 513.5 472.5Q541 491 541 518V841H459V546Q459 524 444.5 515.0Q430 506 400 506Q374 506 341.5 516.5Q309 527 309 539Q309 576 495 576Q544 576 585.0 569.5Q626 563 650.0 552.5Q674 542 674 531Q674 503 635.0 469.5Q596 436 501 411ZM87 683H914V745H86Z" transform="translate(0, 880) scale(1,-1)" /></svg>