<svg xmlns="http://www.w3.org/2000/svg" width="1000" height="1000"><path d="M519 -80C818 -80 913 63 913 178C913 308 822 387 619 387C491 387 395 377 295 358L323 286C417 301 507 312 619 312C767 312 823 256 823 169C823 94 756 -6 519 -6C309 -6 256 58 256 92C256 111 286 130 396 130C499 130 517 112 517 94C517 68 446 33 335 0L375 -31C506 6 597 51 597 94C597 158 540 201 396 201C248 201 180 152 180 92C180 32 278 -80 519 -80ZM503 336 820 505 772 574 750 564H195V491H674L465 364ZM59 663H937V735H553L513 843L441 826L470 735H59Z" transform="translate(0, 880) scale(1,-1)" /></svg>