<svg xmlns="http://www.w3.org/2000/svg" width="1000" height="1000"><path d="M942 37Q762 23 627 23Q407 23 280 58Q217 75 172.5 125.5Q128 176 109 248L31 226Q57 131 112.5 72.0Q168 13 250 -11Q402 -55 649 -55Q765 -55 919 -44ZM586 79Q713 98 767.0 138.0Q821 178 821 234Q821 286 767.0 320.0Q713 354 606 354Q513 354 410.0 322.5Q307 291 220 244L280 194Q357 236 443.5 262.5Q530 289 606 289Q673 289 706.0 271.5Q739 254 739 230Q739 171 552 125ZM138 423H905V488H138ZM232 573H810V637H232ZM232 722H813V786H232Z" transform="translate(0, 880) scale(1,-1)" /></svg>