<svg xmlns="http://www.w3.org/2000/svg" width="1000" height="1000"><path d="M41 -35 102 -77C218 85 237 331 236 501L234 729H759C761 202 763 -70 894 -70C949 -70 966 -25 973 110L918 121C916 44 910 10 894 10C827 10 832 325 835 802H160V501C160 341 150 118 41 -35ZM412 98H635C696 98 724 156 734 228L662 254C656 201 643 163 603 163H402C364 163 355 167 355 179C355 193 497 291 694 404L659 474L637 464L308 462V395L549 396C371 291 274 227 274 169C274 116 325 98 412 98ZM313 569H675V635H313Z" transform="translate(0, 880) scale(1,-1)" /></svg>