<svg xmlns="http://www.w3.org/2000/svg" width="1000" height="1000"><path d="M262 709Q252 738 233.0 774.0Q214 810 192 842L127 820Q149 787 167.5 751.0Q186 715 196 687ZM428 674Q473 731 531 831L459 852Q444 816 417.5 768.5Q391 721 366 689ZM365 -57V12H162Q143 12 131.5 31.5Q120 51 120 83V491H54V73Q54 14 75.5 -21.5Q97 -57 133 -57ZM492 -82Q533 -82 556.0 -50.5Q579 -19 589.5 54.5Q600 128 600 259Q600 368 579.0 430.0Q558 492 517.5 517.5Q477 543 413 543H189V476H413Q455 476 480.0 457.5Q505 439 518.0 391.5Q531 344 531 259Q531 128 520.5 60.0Q510 -8 491 -8Q448 -8 417 11V-68Q432 -76 449.5 -79.0Q467 -82 492 -82ZM443 344Q319 320 234.5 268.0Q150 216 150 154Q150 54 272 54Q334 54 382.5 90.5Q431 127 457.5 183.5Q484 240 484 297Q484 380 426.0 416.5Q368 453 281 458L264 392Q334 394 375.5 373.5Q417 353 417 297Q417 249 397.5 209.5Q378 170 345.0 147.0Q312 124 272 124Q244 124 231.5 131.0Q219 138 219 154Q219 176 247.5 200.5Q276 225 329.0 247.0Q382 269 454 284ZM545 687 518 677H53V601H456Q393 550 307.0 489.0Q221 428 154 389L194 339Q360 439 572 622ZM960 -37Q909 9 820.5 70.5Q732 132 648 179L611 115Q696 64 781.5 2.5Q867 -59 915 -106ZM728 72Q818 135 858.0 167.5Q898 200 918.0 233.5Q938 267 938 312Q938 373 891.5 417.0Q845 461 739 489Q811 539 862.5 599.5Q914 660 961 751L900 794L891 779H619V701H845Q796 629 749.0 581.5Q702 534 635 498L643 433Q763 404 812.5 372.5Q862 341 862 312Q862 280 825.0 241.5Q788 203 691 137Z" transform="translate(0, 880) scale(1,-1)" /></svg>