<svg xmlns="http://www.w3.org/2000/svg" width="1000" height="1000"><path d="M782 546 827 491C884 525 923 569 923 626C923 717 856 807 605 807C361 807 206 730 70 598L118 537C242 658 387 732 605 732C775 732 844 687 844 626C844 590 819 566 782 546ZM184 -44 263 -64C351 136 366 296 372 553H301C295 289 289 177 184 -44ZM588 -75C729 -75 740 149 740 348C740 468 718 555 567 555C502 555 426 546 341 525L343 458C440 481 509 485 565 485C653 485 668 428 668 348C669 222 658 -11 579 -11C537 -11 493 -4 454 12V-61C498 -73 532 -75 588 -75ZM622 223 624 286 396 292 394 228Z" transform="translate(0, 880) scale(1,-1)" /></svg>