<svg xmlns="http://www.w3.org/2000/svg" width="1000" height="1000"><path d="M151 -79H222V671H324V739H42V671H151ZM299 18C328 39 354 66 388 101C399 113 421 116 431 112C444 107 452 87 465 18L583 124L563 164L489 118C484 147 474 170 445 180C481 236 515 300 545 363L502 400C438 266 352 145 270 99ZM593 -72C684 -72 723 14 723 140C723 271 660 426 561 531L513 484C612 374 651 249 651 144C651 58 632 -5 584 -5C556 -5 530 -2 502 7V-65C531 -70 561 -72 593 -72ZM327 304C425 371 510 443 593 536H520C456 475 391 430 299 380ZM900 -15 956 49C864 128 705 227 587 287L554 226C661 171 814 69 900 -15ZM671 258C757 307 817 341 888 408L844 465C780 402 737 370 653 321ZM296 536H926V606H296ZM465 630 530 664C519 708 489 782 461 835L397 805C420 757 443 699 465 630ZM747 626C781 686 812 749 833 810L756 841C741 787 711 707 688 656Z" transform="translate(0, 880) scale(1,-1)" /></svg>