<svg xmlns="http://www.w3.org/2000/svg" width="1000" height="1000"><path d="M334 -60H781C891 -60 927 -20 938 142L866 159C861 35 844 15 787 15H326C267 15 228 28 228 61C228 99 262 154 738 453L700 504L684 501H424C472 558 533 635 578 702H484C435 619 351 526 293 475L333 410L358 429H555C167 173 149 111 149 54C149 -17 208 -60 334 -60ZM62 298 133 269C174 348 203 476 226 580L142 591C127 496 101 373 62 298ZM60 702H944V775H60ZM865 267 946 291C930 376 905 496 867 596L792 577C828 475 852 351 865 267Z" transform="translate(0, 880) scale(1,-1)" /></svg>