<svg xmlns="http://www.w3.org/2000/svg" width="1000" height="1000"><path d="M568 388Q669 388 736.0 415.0Q803 442 835.0 488.0Q867 534 867 592Q867 690 796.0 737.5Q725 785 578 785Q486 785 417.5 765.0Q349 745 281 702Q294 718 306.5 739.5Q319 761 331 783L355 826L269 851Q216 715 107 584L180 548Q191 562 202.5 577.5Q214 593 227.0 605.5Q240 618 256 627Q321 662 406.0 684.5Q491 707 573 707Q679 707 733.0 680.5Q787 654 787 592Q787 464 568 464Q504 464 433.0 470.0Q362 476 306 485V404Q434 388 568 388ZM87 -67Q276 9 371.0 100.0Q466 191 499.5 304.5Q533 418 544 607L465 611Q453 438 424.5 337.5Q396 237 309.0 153.5Q222 70 43 -1ZM803 -58Q863 -58 885.5 -20.0Q908 18 914 97L837 109Q835 72 831.0 53.5Q827 35 818.0 27.0Q809 19 791 19H637Q613 19 606.0 28.0Q599 37 599 68V320H520V61Q520 13 529.0 -12.0Q538 -37 560.5 -47.5Q583 -58 625 -58ZM966 261Q911 290 843.5 317.5Q776 345 723 360L694 299Q748 284 809.5 256.5Q871 229 925 196Z" transform="translate(0, 880) scale(1,-1)" /></svg>