<svg xmlns="http://www.w3.org/2000/svg" width="1000" height="1000"><path d="M706 -70Q786 -70 828.0 17.0Q870 104 870 273Q870 356 834.5 420.0Q799 484 733.0 519.0Q667 554 578 554Q464 554 378.5 524.5Q293 495 225 449V368Q296 426 378.5 450.0Q461 474 578 474Q648 474 696.5 447.0Q745 420 768.5 374.0Q792 328 792 273Q792 189 779.5 127.5Q767 66 747.5 34.0Q728 2 706 2Q636 2 593 19V-63Q636 -70 706 -70ZM192 653H804V730H192ZM148 67Q148 11 184.0 -23.0Q220 -57 277 -57H521V20H289Q260 20 242.5 38.5Q225 57 225 88V817H148ZM312 79Q434 152 548.5 234.5Q663 317 716 369L648 418Q596 362 486.0 279.5Q376 197 261 129ZM707 148Q636 204 532.0 269.0Q428 334 344 374L296 321Q387 275 488.5 208.5Q590 142 655 86Z" transform="translate(0, 880) scale(1,-1)" /></svg>