<svg xmlns="http://www.w3.org/2000/svg" width="1000" height="1000"><path d="M131 435H206V607Q285 671 376.0 703.5Q467 736 589 736Q711 736 762.5 706.5Q814 677 814 622Q814 566 751.0 540.5Q688 515 569 515Q464 515 310 534V455Q439 444 540 444Q711 444 802.0 484.0Q893 524 893 622Q893 707 824.5 757.0Q756 807 589 807Q455 807 359.5 770.5Q264 734 206 669V773H131ZM118 -52H880V20H118ZM520 20Q563 51 583.0 107.5Q603 164 603 228Q603 288 572.0 325.5Q541 363 497 363Q440 363 400.5 331.0Q361 299 361 245Q361 188 397.0 156.5Q433 125 487 125Q511 125 534 143Q516 100 474.0 66.5Q432 33 373 20ZM485 191Q460 191 443.0 205.5Q426 220 426 245Q426 270 443.5 285.5Q461 301 486 301Q507 301 523.0 286.0Q539 271 539 250Q539 222 523.5 206.5Q508 191 485 191ZM572 271V633H497V336Z" transform="translate(0, 880) scale(1,-1)" /></svg>