<svg xmlns="http://www.w3.org/2000/svg" width="1000" height="1000"><path d="M568 473C777 473 867 549 867 639C867 745 774 802 578 802C451 802 369 780 281 734C308 763 325 789 355 831L269 851C230 770 176 702 107 635L180 606C201 628 221 650 256 666C340 703 462 731 578 730C711 729 787 707 787 639C787 582 736 542 568 542C480 542 378 548 306 559V485C378 478 455 473 568 473ZM780 247 850 219C868 239 877 262 877 286C877 379 778 423 571 423C398 423 240 387 137 334L154 272C253 317 416 360 571 359C711 358 794 333 794 286C794 271 791 260 780 247ZM160 41C160 84 178 131 392 131H899V203H389C140 203 86 129 86 41C86 -23 137 -76 230 -76C345 -76 420 15 420 296H343C343 49 295 -4 230 -3C184 -3 160 14 160 41ZM591 293V-83H667V293ZM388 346C458 434 515 523 563 613L484 635C445 540 385 456 311 378Z" transform="translate(0, 880) scale(1,-1)" /></svg>