<svg xmlns="http://www.w3.org/2000/svg" width="1000" height="1000"><path d="M217 -27H621V43H229C190 43 166 69 166 111V266C166 442 380 617 541 718L467 748C271 619 94 473 94 266V97C94 22 142 -27 217 -27ZM364 43H427C399 188 406 383 439 509H370C344 393 330 196 364 43ZM372 187H643V248H372ZM531 34 585 11C645 80 679 151 679 266C679 374 620 430 540 430C474 430 415 411 382 387L383 330C424 355 492 364 538 364C581 364 610 327 610 266C610 181 582 108 531 34ZM785 -51C892 -51 936 84 936 291C936 503 831 568 598 568C510 568 379 553 285 531L302 469C400 488 511 498 600 498C799 498 860 452 860 286C860 116 819 25 784 25C755 25 718 28 688 42V-39C716 -49 746 -51 785 -51ZM108 702H895V774H108Z" transform="translate(0, 880) scale(1,-1)" /></svg>