<svg xmlns="http://www.w3.org/2000/svg" width="1000" height="1000"><path d="M427 -82C578 -82 660 54 660 346V715H585V347C585 107 544 -12 427 -12C372 -12 340 16 340 68C340 115 374 146 455 146C592 146 696 9 917 -80L953 -10C715 80 635 217 455 217C349 217 267 170 267 69C267 -21 330 -82 427 -82ZM428 376V312C709 267 929 301 929 446C929 566 809 607 667 607C517 607 379 571 277 530L287 461C387 501 519 533 661 533C770 533 852 515 852 444C852 360 701 344 428 376ZM294 715H925V783H294ZM108 -28H185V733H108Z" transform="translate(0, 880) scale(1,-1)" /></svg>