<svg xmlns="http://www.w3.org/2000/svg" width="1000" height="1000"><path d="M454 226H546L545 372Q624 400 677.0 455.0Q730 510 730 583Q730 667 669.0 717.5Q608 768 506 768Q402 768 327.5 704.0Q253 640 216 545L299 492Q325 581 378.0 629.5Q431 678 506 678Q570 678 602.5 651.0Q635 624 635 583Q635 527 585.5 490.5Q536 454 454 434ZM500 7Q529 7 549.5 27.5Q570 48 570 77Q570 106 549.5 126.5Q529 147 500 147Q471 147 450.5 126.5Q430 106 430 77Q430 48 450.5 27.5Q471 7 500 7Z" transform="translate(0, 880) scale(1,-1)" /></svg>