<svg xmlns="http://www.w3.org/2000/svg" width="1000" height="1000"><path d="M619 16Q685 51 716.5 85.0Q748 119 748 159Q748 275 496 275Q392 275 321.0 249.5Q250 224 250 170Q250 119 307.0 92.5Q364 66 444 66Q480 66 506.5 85.0Q533 104 533 139V438H460V159Q460 146 449.5 138.0Q439 130 423 130Q386 130 357.5 140.5Q329 151 329 170Q329 187 373.0 198.5Q417 210 496 210Q575 210 622.5 194.5Q670 179 670 157Q670 127 639.0 94.0Q608 61 534 16ZM53 -55H948V16H53ZM144 300H354V366H144ZM58 438H944V509H58ZM639 300H849V366H639ZM690 577Q596 615 521.0 637.0Q446 659 351 672L326 611Q425 594 499.0 572.5Q573 551 652 518ZM602 598Q671 631 748.5 677.5Q826 724 871 759L823 807L807 802H153V732H706Q628 677 519 626Z" transform="translate(0, 880) scale(1,-1)" /></svg>