<svg xmlns="http://www.w3.org/2000/svg" width="700" height="1000"><path d="M543 251Q543 179 501.0 120.5Q459 62 350 62Q275 62 232.0 92.5Q189 123 173.0 165.0Q157 207 157 249V750H69V220Q69 146 105.5 93.0Q142 40 205.5 12.5Q269 -15 350 -15Q427 -15 491.5 13.0Q556 41 593.5 94.5Q631 148 631 220V750H543ZM438 -158Q430 -163 409.0 -165.5Q388 -168 367 -168Q342 -168 327.0 -158.0Q312 -148 312 -128Q312 -85 385 16L345 36Q291 -18 263.0 -58.5Q235 -99 235 -134Q235 -176 266.0 -204.0Q297 -232 365 -232Q393 -232 420.0 -227.0Q447 -222 464 -213Z" transform="translate(0, 880) scale(1,-1)" /></svg>