<svg xmlns="http://www.w3.org/2000/svg" width="580" height="1000"><path d="M65 187Q65 -11 261 -11Q372 -11 427 73V0H515V526H427V172Q377 60 272 60Q216 60 190.0 85.5Q164 111 158.5 141.5Q153 172 153 215V526H65ZM290 583Q332 583 361.0 612.0Q390 641 390 683Q390 725 361.0 754.0Q332 783 290 783Q248 783 219.0 754.0Q190 725 190 683Q190 641 219.0 612.0Q248 583 290 583ZM290 633Q269 633 254.5 647.5Q240 662 240 683Q240 704 254.5 718.5Q269 733 290 733Q311 733 325.5 718.5Q340 704 340 683Q340 662 325.5 647.5Q311 633 290 633Z" transform="translate(0, 880) scale(1,-1)" /></svg>