<svg xmlns="http://www.w3.org/2000/svg" width="760" height="1000"><path d="M233 109 108 526H19L185 0H274L380 388L486 0H575L741 526H651L526 109L417 526H342ZM475 597Q500 597 517.0 614.0Q534 631 534 656Q534 681 517.0 698.0Q500 715 475 715Q450 715 433.0 698.0Q416 681 416 656Q416 631 433.0 614.0Q450 597 475 597ZM285 597Q310 597 327.0 614.0Q344 631 344 656Q344 681 327.0 698.0Q310 715 285 715Q260 715 243.0 698.0Q226 681 226 656Q226 631 243.0 614.0Q260 597 285 597Z" transform="translate(0, 880) scale(1,-1)" /></svg>