<svg xmlns="http://www.w3.org/2000/svg" width="500" height="1000"><path d="M260 131 105 526H19L218 21Q193 -58 153.5 -104.5Q114 -151 35 -151V-231Q109 -230 159.5 -200.5Q210 -171 244.0 -117.0Q278 -63 307 21L481 526H396ZM345 597Q370 597 387.0 614.0Q404 631 404 656Q404 681 387.0 698.0Q370 715 345 715Q320 715 303.0 698.0Q286 681 286 656Q286 631 303.0 614.0Q320 597 345 597ZM155 597Q180 597 197.0 614.0Q214 631 214 656Q214 681 197.0 698.0Q180 715 155 715Q130 715 113.0 698.0Q96 681 96 656Q96 631 113.0 614.0Q130 597 155 597Z" transform="translate(0, 880) scale(1,-1)" /></svg>