<svg xmlns="http://www.w3.org/2000/svg" width="1000" height="1000"><path d="M500 -60C749 95 916 271 916 465C916 585 868 647 754 647C557 647 83 292 83 80C83 -20 147 -46 232 -46C336 -46 460 88 460 256C460 410 397 508 218 488V645H563V719H218V814H146V479L129 459L141 400C181 412 218 422 266 422C332 422 384 376 384 256C384 114 272 26 232 26C190 26 161 43 161 84C161 256 601 573 754 573C812 573 838 543 838 465C838 315 692 133 454 2ZM893 -64 954 -3C851 129 718 262 581 380L526 334C666 208 796 67 893 -64Z" transform="translate(0, 880) scale(1,-1)" /></svg>