<svg xmlns="http://www.w3.org/2000/svg" width="1000" height="1000"><path d="M102 -77C218 83 237 327 236 495L234 720H759C761 199 763 -70 894 -70C949 -70 966 -26 973 108L921 119C919 43 913 9 897 9C830 9 832 321 835 793H160V495C160 337 150 116 41 -35ZM589 32C688 59 732 126 732 240C732 355 663 428 516 428C357 428 252 363 252 223C252 105 323 54 391 54C451 54 529 92 529 239V680H459V247C459 151 426 130 391 130C355 130 320 160 320 225C320 311 384 358 516 358C629 358 662 314 662 239C662 162 631 115 563 94ZM285 519H703V585H285Z" transform="translate(0, 880) scale(1,-1)" /></svg>