<svg xmlns="http://www.w3.org/2000/svg" width="1000" height="1000"><path d="M647 -46C814 -46 917 114 917 282C917 483 790 549 588 549C542 549 499 547 464 542C562 599 717 687 817 760L754 806L727 798H186V726H634C549 661 435 592 299 518C279 507 213 482 156 456L200 397C309 449 430 482 569 482C725 482 836 435 836 280C836 155 763 24 639 24C581 24 529 31 473 52V-16C527 -36 582 -46 647 -46ZM260 71C363 71 591 259 680 362L613 415C533 314 348 153 279 153C259 153 246 180 239 222L160 206C179 120 203 71 260 71ZM567 110 624 165C569 232 464 324 390 376L337 324C410 274 516 173 567 110Z" transform="translate(0, 880) scale(1,-1)" /></svg>