<svg xmlns="http://www.w3.org/2000/svg" width="1000" height="1000"><path d="M201 -68C335 -68 436 24 436 209C436 331 401 429 243 429C178 429 116 410 76 387L93 325C131 345 190 361 245 361C336 361 357 296 357 197C357 83 292 3 203 3C175 3 156 21 156 46C156 174 562 382 704 382C794 382 827 334 827 243C827 122 791 4 673 4C634 4 566 17 493 40V-36C565 -56 622 -64 679 -64C851 -64 908 81 908 243C908 366 855 453 711 453C528 453 80 223 80 36C80 -35 138 -68 201 -68ZM0.0 0.0Q0 0 0.0 0.0Q0 0 0.0 0.0ZM734 80 749 135C672 157 594 176 516 187L502 133C582 119 657 103 734 80ZM148 511H219V804H148ZM744 208 759 265C685 284 609 299 534 309L521 255C596 244 669 228 744 208ZM353 356C458 443 536 554 536 675L465 674C465 557 388 467 297 386ZM313 502H482C617 502 823 529 823 673C823 786 691 817 537 817C372 817 276 783 170 727L201 673C289 718 403 754 537 754C667 754 744 717 744 670C744 592 590 566 482 566H313Z" transform="translate(0, 880) scale(1,-1)" /></svg>