<svg xmlns="http://www.w3.org/2000/svg" width="1000" height="1000"><path d="M107 -78C189 75 197 296 197 452V656H942V729H596L541 848L468 828L511 729H121V452C121 306 114 102 36 -44ZM218 -52H910V18H218ZM443 18H590C643 54 666 104 666 167C666 233 617 281 557 281C477 281 420 242 420 179C420 112 477 80 547 80C565 80 580 88 594 97C571 51 524 32 443 18ZM545 136C513 136 486 152 486 179C486 208 514 226 546 226C573 226 599 207 599 184C599 153 574 136 545 136ZM635 202V477H558V255ZM410 345C729 335 893 353 893 480C893 554 834 619 634 619C463 619 346 570 246 511L266 454C365 509 503 549 634 549C756 549 812 521 812 480C812 425 693 394 410 414Z" transform="translate(0, 880) scale(1,-1)" /></svg>