<svg xmlns="http://www.w3.org/2000/svg" width="1000" height="1000"><path d="M335 64C421 147 487 229 487 336C487 428 423 491 292 491C174 491 99 446 99 351C99 269 147 204 246 204C304 204 338 253 338 308V841H268V359C268 293 254 276 228 276C208 276 166 302 166 346C166 386 200 418 292 418C369 418 418 371 418 332C418 271 379 197 266 76ZM70 -66 549 115 533 190 50 16ZM63 601H543V682H61ZM708 -87C830 32 939 172 941 434C942 581 892 660 779 660C724 660 677 642 635 614L648 540C694 569 736 582 779 582C833 582 862 539 862 434C862 256 764 66 637 -20ZM602 382C671 484 714 636 727 838L651 840C641 660 598 514 536 424Z" transform="translate(0, 880) scale(1,-1)" /></svg>