<svg xmlns="http://www.w3.org/2000/svg" width="1000" height="1000"><path d="M921 -34 924 51C695 3 383 21 245 66C161 93 122 154 117 318L41 303C45 125 101 26 216 -13C359 -61 687 -81 921 -34ZM795 96C847 96 883 121 883 183V474C883 574 829 610 733 610H465C371 610 317 595 278 569V604H201V138H278V507C320 530 374 537 460 537H733C785 537 807 513 807 467V188C807 172 800 164 784 164C750 164 711 168 660 183V107C706 98 749 96 795 96ZM380 313H706V387H380ZM505 387H580V732H505ZM189 732H885V804H189Z" transform="translate(0, 880) scale(1,-1)" /></svg>