<svg xmlns="http://www.w3.org/2000/svg" width="1000" height="1000"><path d="M793 -76C850 7 905 99 905 218C905 310 820 386 709 386C628 386 565 358 519 324V494H436V279L420 265L463 212C541 266 622 307 702 307C770 307 820 272 820 213C820 122 770 22 709 -55ZM265 -35C407 -35 503 -26 619 21L579 88C482 49 355 40 252 40C214 40 191 59 191 92C191 162 201 251 246 353L165 373C124 269 108 171 108 80C108 8 160 -35 265 -35ZM206 517 280 560C263 626 218 719 178 788L106 750C143 683 184 583 206 517ZM475 555 554 587C541 660 506 755 470 835L395 806C428 727 461 628 475 555ZM772 524C814 596 859 691 892 774L810 812C785 729 741 623 701 545Z" transform="translate(0, 880) scale(1,-1)" /></svg>