<svg xmlns="http://www.w3.org/2000/svg" width="1000" height="1000"><path d="M357 474C820 444 865 541 865 624C865 708 775 769 621 769C481 769 390 734 294 674C324 721 350 774 368 831L294 846C252 722 171 601 78 523L136 483C187 531 217 566 243 600C357 669 504 699 613 699C722 699 778 660 778 624C778 562 725 506 357 539ZM875 -71 910 -7C694 27 527 50 364 67C521 95 674 124 781 147L751 221L719 212C552 232 429 244 288 256L244 195C402 183 478 177 583 166C487 142 372 114 245 89C215 83 188 88 146 90L102 27C366 2 622 -31 875 -71ZM425 211C558 254 705 312 843 377L780 422L751 407H557V614H478V407H174V340L614 341C538 307 464 275 339 230Z" transform="translate(0, 880) scale(1,-1)" /></svg>