<svg xmlns="http://www.w3.org/2000/svg" width="1000" height="1000"><path d="M766 -1C852 60 897 130 897 205C897 294 845 358 700 358C539 358 438 276 438 180C438 105 479 60 552 60C650 60 709 126 709 249C709 369 610 441 457 441C243 441 115 334 115 208C115 144 153 80 227 80C398 80 489 414 495 684L421 688C415 431 344 146 220 146C194 146 179 167 179 208C179 272 259 373 457 373C581 373 644 315 644 249C644 169 611 130 552 130C523 130 504 147 504 180C504 230 571 295 700 295C812 295 822 244 822 205C822 148 781 82 706 60ZM122 -39H878V29H122ZM130 519H209V803H130ZM306 510C706 489 835 526 835 672C835 784 697 817 539 817C367 817 268 780 158 721L190 662C281 710 399 749 539 749C673 749 752 709 752 669C752 602 685 550 306 583Z" transform="translate(0, 880) scale(1,-1)" /></svg>