<svg xmlns="http://www.w3.org/2000/svg" width="1000" height="1000"><path d="M259 116C398 116 521 226 521 360C521 464 493 573 320 688L252 653C412 537 443 433 443 371C443 264 350 187 259 188C184 189 137 229 137 271C137 328 197 375 253 398C371 446 546 475 703 477V213H597V143L943 140V213H784V537L725 565L707 548C523 541 347 512 218 461C134 429 59 366 59 275C59 181 124 116 259 116ZM106 -40H894V36H106ZM179 607C362 650 541 710 717 786L651 840C512 776 314 706 147 668Z" transform="translate(0, 880) scale(1,-1)" /></svg>