<svg xmlns="http://www.w3.org/2000/svg" width="1000" height="1000"><path d="M618 -64C825 -64 888 1 888 316C888 488 836 576 682 576C575 576 494 557 407 519L431 451C513 488 600 504 682 504C786 504 808 445 808 316C808 66 751 6 608 6C562 6 504 13 434 30V-46C493 -59 552 -64 618 -64ZM237 181H513C575 181 624 213 624 270C624 325 590 388 560 429L490 403C523 364 543 322 543 288C543 264 523 256 502 256H242C212 256 200 268 200 287C200 331 236 434 355 633L283 664C157 458 117 353 117 272C117 221 151 181 237 181ZM101 718H899V795H101Z" transform="translate(0, 880) scale(1,-1)" /></svg>