<svg xmlns="http://www.w3.org/2000/svg" width="1000" height="1000"><path d="M132 247C423 373 659 513 860 800L785 833C585 552 382 432 88 311ZM220 -73C392 -73 484 41 484 163C484 270 426 355 323 401L275 349C353 309 404 252 404 163C404 74 346 -4 220 -4C181 -4 161 9 161 32C161 78 363 242 616 293V72C616 -29 639 -58 721 -58H832C918 -58 936 7 943 188L866 203C862 45 857 21 820 21H734C702 21 696 30 696 76V348L638 377L615 362C315 298 80 129 80 32C80 -41 134 -73 220 -73ZM873 356C902 398 918 443 918 498C918 591 820 612 628 612C438 612 266 564 159 487V581H82V388H159V437C266 509 469 539 628 539C795 539 838 521 838 497C838 464 824 419 797 384ZM168 635H496V700H168ZM168 748H496V813H168Z" transform="translate(0, 880) scale(1,-1)" /></svg>