<svg xmlns="http://www.w3.org/2000/svg" width="1000" height="1000"><path d="M465 -82C517 -82 541 -58 541 2V561H463V6C463 -6 457 -13 443 -13C409 -13 372 -5 333 8V-70C369 -77 412 -82 465 -82ZM123 -44C203 8 291 90 342 176L264 197C219 122 138 51 58 5ZM136 251H863V322H136ZM866 -41 932 3C885 60 784 144 704 202L641 162C722 102 820 15 866 -41ZM156 401H843V472H156ZM258 652 321 685C304 726 263 785 226 829L165 800C199 757 238 694 258 652ZM86 561H913V632H86ZM502 657 570 686C557 731 523 798 489 849L425 823C456 773 488 704 502 657ZM741 639C784 692 823 752 853 806L779 833C756 782 715 714 678 665Z" transform="translate(0, 880) scale(1,-1)" /></svg>