<svg xmlns="http://www.w3.org/2000/svg" width="1000" height="1000"><path d="M669 -60C815 -60 932 54 932 231C932 380 854 487 730 487C697 487 670 481 643 471C725 552 828 660 896 748L836 808L822 797H488V720H773C718 646 613 526 541 455C526 440 508 430 487 419L522 350C573 395 650 416 710 416C802 416 853 340 853 232C853 80 761 17 661 17C607 17 575 46 575 98C575 137 594 173 625 173C674 173 707 125 716 5L772 22C759 169 705 239 625 239C557 239 511 179 511 98C511 7 572 -60 669 -60ZM201 -62C349 -62 412 119 412 262C412 383 351 505 201 561L175 498C295 448 335 349 335 262C335 155 295 20 201 20C166 20 140 43 140 104C140 220 235 308 425 441L379 496C192 370 59 245 59 104C59 -17 119 -62 201 -62ZM262 509C322 582 396 687 434 760L382 799L366 791H76V714H321C290 651 246 582 211 533Z" transform="translate(0, 880) scale(1,-1)" /></svg>