<svg xmlns="http://www.w3.org/2000/svg" width="1000" height="1000"><path d="M693 475C767 538 847 634 913 759L871 807L855 797H385V723H808C764 643 711 578 650 523ZM177 -68H251V605H177ZM421 -14C409 135 422 295 450 434L376 444C346 301 333 130 346 -12ZM95 392C201 503 296 659 352 804L280 827C226 679 134 532 37 437ZM626 -58C667 -58 701 -47 746 -18V67C701 34 663 17 632 17C619 17 608 39 608 87C608 184 625 293 647 442L578 453C551 296 535 191 535 85C535 2 566 -58 626 -58ZM865 -32 943 -21C941 127 911 311 870 444L797 422C838 291 863 113 865 -32Z" transform="translate(0, 880) scale(1,-1)" /></svg>