<svg xmlns="http://www.w3.org/2000/svg" width="1000" height="1000"><path d="M584 -78C638 -78 673 -46 673 19V415H943V487H673V527C764 578 869 656 936 737L884 774L869 770H374V696H801C739 645 665 596 598 561V487H306V415H598V33C598 4 600 -13 574 -13C542 -13 514 -5 480 10V-64C513 -74 550 -78 584 -78ZM170 -78H243V611H170ZM345 -18C441 109 511 270 539 425L473 434C439 275 385 147 288 30ZM86 393C194 506 290 666 347 815L276 836C220 684 126 534 28 437ZM941 14 974 89C804 175 635 238 464 286L440 220C611 174 782 100 941 14Z" transform="translate(0, 880) scale(1,-1)" /></svg>