<svg xmlns="http://www.w3.org/2000/svg" width="1000" height="1000"><path d="M187 40C305 40 434 142 434 246C434 324 411 390 271 455L225 413C339 354 356 302 356 246C356 174 261 105 187 107C146 108 132 124 132 147C132 209 362 309 733 335V125H604V57L943 55V125H814V396L750 421L732 408C352 378 59 271 59 147C59 84 98 40 187 40ZM122 331C227 383 336 452 426 533L359 577C284 505 169 430 75 382ZM441 -78C493 -78 547 -44 547 16V834H468V29C468 10 453 -5 428 -5C375 -6 320 3 266 20V-62C323 -74 370 -78 441 -78ZM827 502 843 577C676 599 452 596 157 572V504C448 525 672 522 827 502ZM75 640C447 650 672 669 938 716L912 787C645 740 442 720 70 710Z" transform="translate(0, 880) scale(1,-1)" /></svg>