<svg xmlns="http://www.w3.org/2000/svg" width="1000" height="1000"><path d="M850 -76C888 30 925 149 925 298C925 418 858 505 773 505C711 505 679 492 655 468V826H576V404L565 385L603 324C658 390 707 420 768 420C814 420 848 370 848 293C848 177 814 49 773 -49ZM177 -68H251V605H177ZM468 -3C564 -3 628 11 705 72L679 143C613 90 538 78 470 78C443 78 432 105 432 150C432 243 445 364 476 499L398 518C369 380 352 255 352 133C352 46 388 -3 468 -3ZM95 392C201 503 296 659 352 804L281 825C227 677 135 530 38 435Z" transform="translate(0, 880) scale(1,-1)" /></svg>