<svg xmlns="http://www.w3.org/2000/svg" width="1000" height="1000"><path d="M372 -80C651 -5 835 184 910 458L855 487L840 478H529V405H809C731 189 557 48 329 -6ZM192 -78H269V611H192ZM894 -87 955 -29C828 91 664 214 473 311L436 248C627 146 776 28 894 -87ZM99 393C216 506 319 666 380 815L302 839C242 687 143 534 38 437ZM431 327C604 426 795 596 909 778L839 819C723 625 557 494 383 397ZM540 564 608 604C577 660 523 737 473 803L407 756C461 693 507 625 540 564Z" transform="translate(0, 880) scale(1,-1)" /></svg>