<svg xmlns="http://www.w3.org/2000/svg" width="1000" height="1000"><path d="M457 -73C510 -73 554 -53 554 -5V216C655 261 753 318 823 371L750 412L733 401H214V329H635C584 296 537 275 474 251V23C474 4 462 -4 440 -4C391 -5 334 4 272 21V-58C330 -69 392 -73 457 -73ZM119 -4C201 65 263 154 294 233L215 252C191 180 139 99 59 32ZM321 405 402 420C392 497 372 579 343 654L264 639C293 564 312 482 321 405ZM862 -10 941 15C910 79 837 181 753 256L681 231C765 154 837 52 862 -10ZM73 500H927V574H73ZM633 359C683 450 725 576 748 680L662 686C644 585 604 463 556 369ZM140 665C383 679 674 713 877 763L836 833C661 785 371 752 123 736Z" transform="translate(0, 880) scale(1,-1)" /></svg>