<svg xmlns="http://www.w3.org/2000/svg" width="1000" height="1000"><path d="M456 -45H816C886 -45 913 6 931 135L852 159C844 86 828 39 794 39H487C442 39 424 46 424 57C424 69 432 80 447 91L853 347L806 425L785 408H389V331L686 332L402 152C353 120 332 82 332 41C332 -21 362 -45 456 -45ZM131 -56 208 -44C162 155 159 293 190 409C225 538 232 640 182 751L103 725C148 605 146 524 116 425C82 313 78 174 131 -56ZM313 520H926V593H762C793 648 827 718 856 782L780 810C757 745 717 655 683 593H313ZM497 593 569 618C552 675 510 750 471 808L403 777C440 722 480 649 497 593Z" transform="translate(0, 880) scale(1,-1)" /></svg>