<svg xmlns="http://www.w3.org/2000/svg" width="1000" height="1000"><path d="M806 -71C875 -71 914 -39 914 38V637C914 736 863 795 774 795H365C237 795 166 763 126 723L147 653C190 698 268 723 378 723H754C810 723 838 666 838 609V38C838 10 823 -3 800 -3C759 -3 725 6 678 24V-53C716 -65 758 -71 806 -71ZM182 -54H610V16H211C177 16 159 40 159 81V795H86V65C86 -23 121 -54 182 -54ZM224 128C251 147 271 166 303 195C316 206 331 207 342 204C354 201 362 183 374 124L488 208L466 247L404 215C400 241 388 253 361 262C397 309 427 355 455 411L403 442C340 327 266 232 186 194ZM488 44C568 44 622 124 622 241C622 354 563 478 489 581L436 534C490 467 550 333 550 242C550 180 532 110 486 110C461 110 435 116 411 125V53C435 47 461 44 488 44ZM234 362C356 418 504 517 563 613L508 643C449 558 320 478 208 430ZM784 114 823 171C738 233 622 293 480 356L461 295C594 236 703 179 784 114ZM574 320C656 351 715 374 785 422L748 480C685 436 634 410 553 379ZM238 655V586H762V655Z" transform="translate(0, 880) scale(1,-1)" /></svg>