<svg xmlns="http://www.w3.org/2000/svg" width="1000" height="1000"><path d="M642 -69C832 -50 950 9 950 137C950 268 786 323 500 323C228 323 54 246 54 115C54 0 148 -57 281 -57C489 -57 667 118 702 355L624 360C598 148 446 21 281 21C189 21 135 52 135 115C135 174 235 250 500 250C758 250 869 191 869 133C869 51 778 17 608 4ZM481 36 535 92C431 148 379 253 392 410L318 415C304 226 360 91 481 36ZM80 400H927V469H80ZM163 537H841V605H539V676H937V744H539V841H460V744H70V676H460V605H163Z" transform="translate(0, 880) scale(1,-1)" /></svg>