<svg xmlns="http://www.w3.org/2000/svg" width="1000" height="1000"><path d="M653 -56C820 -56 927 99 927 252C927 461 779 532 577 532C499 532 440 523 388 510C457 565 541 671 608 801L519 831C468 705 394 599 279 497C262 482 213 465 156 444L200 382C309 426 430 460 569 460C725 460 846 421 846 250C846 136 769 16 645 16C587 16 529 22 473 41V-39C527 -53 588 -56 653 -56ZM104 619H896V697H104ZM265 294H725V355H265ZM543 108V428H468L470 123C470 110 464 102 454 102C425 102 387 107 346 119V57C381 51 421 47 463 47C522 47 543 68 543 108ZM245 171H745V232H245Z" transform="translate(0, 880) scale(1,-1)" /></svg>