<svg xmlns="http://www.w3.org/2000/svg" width="1000" height="1000"><path d="M240 66C471 191 542 420 546 688H473C463 430 409 237 193 125ZM741 71 798 124C731 205 605 325 502 406L466 347C558 269 682 146 741 71ZM217 451H783V522H217ZM806 -71C875 -71 914 -39 914 38V637C914 736 863 795 774 795H365C237 795 166 763 126 723L147 651C190 696 268 722 378 722H754C810 722 835 690 835 631V47C835 17 823 3 800 3C759 3 725 14 678 34V-50C716 -63 758 -71 806 -71ZM182 -54H610V19H211C177 19 162 40 162 81V795H86V65C86 -23 121 -54 182 -54Z" transform="translate(0, 880) scale(1,-1)" /></svg>