<svg xmlns="http://www.w3.org/2000/svg" width="1000" height="1000"><path d="M499 228 928 399 878 468 855 461H672C740 515 830 597 897 680L819 710L800 699C446 635 84 557 84 407C84 358 127 309 237 309C381 309 516 392 516 491C516 567 473 655 345 739L285 704C399 620 431 544 431 498C431 421 329 371 235 373C185 374 165 383 165 407C165 496 489 582 752 620C714 577 653 518 571 454L608 395L632 402H797L449 260ZM515 -80C826 -80 924 29 924 118C924 217 830 277 620 277C487 277 387 265 283 250L312 185C410 197 503 210 620 210C773 210 831 166 831 110C831 54 762 -13 515 -13C327 -13 248 28 248 52C248 67 274 80 388 80C485 80 503 67 503 54C503 33 452 10 341 -15L366 -43C502 -14 596 21 596 54C596 102 537 135 388 135C234 135 164 98 164 52C164 4 237 -80 515 -80ZM101 654C292 685 478 728 662 784L596 840C451 795 245 744 71 715Z" transform="translate(0, 880) scale(1,-1)" /></svg>