<svg xmlns="http://www.w3.org/2000/svg" width="1000" height="1000"><path d="M193 499H273V830H193ZM233 685H816V752H233ZM325 287C714 258 857 304 857 452C857 548 763 609 558 609C382 609 227 548 139 473L186 423C270 492 409 538 558 538C717 538 778 498 778 452C778 333 633 335 325 358ZM938 109 958 181C737 206 444 207 55 180V113C439 138 733 132 938 109ZM462 -71C528 -70 551 -38 551 24V460H474V24C474 4 467 -3 446 -3C398 -3 349 5 295 17V-60C357 -68 416 -72 462 -71Z" transform="translate(0, 880) scale(1,-1)" /></svg>