<svg xmlns="http://www.w3.org/2000/svg" width="1000" height="1000"><path d="M798 -80C847 -80 880 -62 880 5V612C880 747 836 792 689 792H431C321 792 258 781 204 762V692C266 712 325 722 425 722H684C773 722 805 691 805 608V9C805 -8 798 -15 780 -15C738 -15 693 -8 646 7V-69C694 -77 736 -80 798 -80ZM106 -76C219 88 222 289 222 468V792H148V468C148 300 143 115 38 -40ZM420 77C584 36 710 89 710 189C710 280 638 321 529 321C442 321 352 284 292 217L346 170C399 235 463 258 529 258C606 258 634 237 634 189C634 135 562 112 441 138ZM313 375H703V437H313ZM467 437H539V662H467ZM288 519H728V581H288Z" transform="translate(0, 880) scale(1,-1)" /></svg>