<svg xmlns="http://www.w3.org/2000/svg" width="1000" height="1000"><path d="M100 -74C219 77 259 210 259 475V710H595V779H73V710H185V475C185 217 153 120 41 -16ZM389 -72C459 -72 497 -31 497 52V629H422V66C422 26 412 5 378 5C356 5 314 11 279 23V-58C309 -68 345 -72 389 -72ZM45 359H613V431H45ZM899 -79 950 -21C864 62 744 141 633 206L595 148C704 82 812 7 899 -79ZM722 105C877 206 927 255 927 342C927 416 863 466 713 504C787 567 855 646 925 764L844 798C778 672 728 600 613 512L622 450C799 409 850 371 850 342C850 303 816 248 671 157Z" transform="translate(0, 880) scale(1,-1)" /></svg>