<svg xmlns="http://www.w3.org/2000/svg" width="1000" height="1000"><path d="M366 404C708 369 857 437 857 606C857 738 756 809 547 809C391 809 273 758 223 715V629C291 689 408 731 547 731C710 731 778 690 778 606C778 470 646 444 366 476ZM420 318 486 282C521 334 534 394 534 465V635H454V466C454 408 447 360 420 318ZM147 397H223V785H147ZM875 -59 910 10C694 60 507 95 344 117C501 156 674 202 781 233L751 308L719 297C552 325 429 341 288 359L244 291C402 276 490 266 595 250C499 217 372 180 245 145C215 137 188 143 146 146L102 78C366 42 622 -3 875 -59Z" transform="translate(0, 880) scale(1,-1)" /></svg>