<svg xmlns="http://www.w3.org/2000/svg" width="1000" height="1000"><path d="M551 -10C643 54 738 144 738 269C738 348 691 398 621 398C566 398 509 352 509 281C509 211 552 168 630 168C761 168 913 253 913 397C913 496 835 586 685 586C661 586 642 583 623 576C686 614 744 653 804 713H913V785H408V713H707C650 655 585 596 521 554C494 536 455 517 387 475L435 408C513 476 591 512 682 512C800 512 838 444 838 397C838 288 698 232 635 232C590 232 568 255 568 285C568 312 587 332 621 332C657 332 671 304 671 269C671 163 560 59 469 7ZM129 -72C275 47 357 196 357 338C357 430 303 484 226 501C302 561 327 617 362 732L330 798L299 792H73V723H283C251 607 199 546 134 508V451C232 437 279 394 279 338C279 210 202 81 72 -18ZM361 -55 881 -9 861 57 351 17ZM900 -88 965 -59C944 1 891 92 839 160L778 134C827 69 881 -26 900 -88Z" transform="translate(0, 880) scale(1,-1)" /></svg>