<svg xmlns="http://www.w3.org/2000/svg" width="1000" height="1000"><path d="M125 341C151 391 173 474 185 541L117 548C107 487 86 408 61 360ZM84 622H577V691H84ZM497 340 567 355C556 410 536 487 509 551L443 539C469 473 488 394 497 340ZM247 113 306 96C353 168 403 257 434 327L383 384L360 377H289C338 485 380 656 408 814L330 822C305 668 258 474 203 363L243 295L265 306H347C328 255 295 184 247 113ZM865 415 926 469C875 544 802 623 726 695L673 650C755 571 813 496 865 415ZM121 12 184 -44C338 132 594 258 722 258C818 258 845 219 845 159C833 84 766 26 622 4L667 -78C838 -22 922 44 922 159C922 267 867 333 722 333C540 333 278 180 121 12Z" transform="translate(0, 880) scale(1,-1)" /></svg>