<svg xmlns="http://www.w3.org/2000/svg" width="1000" height="1000"><path d="M103 775V694H897V775ZM931 -31V52C708 1 424 13 280 61C194 91 157 167 152 343L74 330C77 139 131 26 250 -15C398 -67 703 -81 931 -31ZM540 207H639C703 242 751 297 751 356C751 422 670 470 538 470C386 470 302 437 302 370C302 313 359 266 466 266C537 266 577 308 577 347V546H498V366C498 340 477 328 449 328C425 328 382 346 382 370C382 394 419 410 538 410C623 410 669 381 669 354C669 309 639 263 540 207ZM228 134H860V207H228ZM249 546H837V615H249Z" transform="translate(0, 880) scale(1,-1)" /></svg>