<svg xmlns="http://www.w3.org/2000/svg" width="1000" height="1000"><path d="M689 -48C856 -48 936 137 936 414C936 687 811 800 578 800C413 800 309 780 254 755L274 683C329 708 425 723 580 723C779 723 858 621 858 414C858 190 794 31 689 31C579 31 377 275 377 402C377 464 419 498 501 498C580 498 621 461 621 412C621 355 560 276 394 195L430 154C591 221 704 306 704 412C704 528 611 577 501 577C402 577 300 520 300 402C300 247 505 -48 689 -48ZM207 -26H411V46H219C180 46 159 72 159 128V470C159 541 170 646 201 694L122 713C92 654 83 561 83 470V123C83 22 132 -26 207 -26Z" transform="translate(0, 880) scale(1,-1)" /></svg>