<svg xmlns="http://www.w3.org/2000/svg" width="1000" height="1000"><path d="M667 -78C838 -22 919 44 919 199C919 362 728 443 570 443C269 443 76 277 76 126C76 24 151 -61 284 -61C415 -61 536 40 551 194C566 351 489 574 261 655L195 608C408 528 482 339 470 209C458 82 365 21 284 21C211 21 155 65 155 126C155 237 335 368 566 368C672 368 833 326 833 199C833 84 766 26 622 4ZM123 554C279 599 474 682 616 773L557 831C432 752 219 657 80 620ZM895 455 966 511C915 586 842 665 766 737L703 690C785 611 843 536 895 455Z" transform="translate(0, 880) scale(1,-1)" /></svg>