<svg xmlns="http://www.w3.org/2000/svg" width="1000" height="1000"><path d="M106 252H894V327H106ZM228 437H772V513H228ZM890 461C919 505 929 549 929 600C929 690 815 731 617 731C426 731 264 680 157 601V720H79V469H157V545C264 617 453 649 617 649C794 649 847 617 847 593C847 557 842 526 816 489ZM501 664 576 686C559 739 529 799 498 847L426 824C454 778 487 714 501 664ZM106 -67C215 -6 339 77 414 165L333 202C276 127 161 41 50 -10ZM878 -64 945 -12C877 53 756 141 656 209L596 161C694 91 813 2 878 -64Z" transform="translate(0, 880) scale(1,-1)" /></svg>