<svg xmlns="http://www.w3.org/2000/svg" width="1000" height="1000"><path d="M547 335 781 414 693 443 345 320C264 304 185 281 89 249L128 191C299 256 433 274 567 274C682 274 820 232 820 138C820 35 706 -13 589 -13C449 -13 296 13 296 89C296 119 352 144 434 144C513 144 548 124 548 103C548 81 497 38 375 0L412 -24C539 10 624 51 624 103C624 166 544 201 434 201C331 201 216 161 216 89C216 -3 382 -75 596 -75C773 -75 899 7 899 138C899 294 735 336 547 335ZM76 391H924V458H76ZM501 458H634C720 476 766 532 766 567C766 613 679 657 495 657C317 657 213 620 213 572C213 527 278 492 426 492C513 492 541 526 541 554V841H459V583C459 557 438 547 400 547C365 547 305 556 305 572C305 586 353 601 495 601C601 601 678 584 678 565C678 541 645 491 501 458ZM87 691H914V756H86Z" transform="translate(0, 880) scale(1,-1)" /></svg>