<svg xmlns="http://www.w3.org/2000/svg" width="1000" height="1000"><path d="M225 382V318C344 311 433 391 433 485C433 584 367 625 253 626V552C343 554 365 520 365 485C365 426 317 392 225 382ZM262 595 301 571C349 618 400 673 447 734L402 798L380 785H84V713H361C328 668 297 631 262 595ZM42 179 55 106 412 216 400 279ZM787 -74C897 -74 941 63 941 358C941 622 867 696 762 696C680 696 613 665 565 621L574 552C624 596 691 622 762 622C839 622 866 536 866 358C866 135 843 0 783 0C730 0 690 13 656 37L640 -36C674 -56 716 -74 787 -74ZM504 362C590 492 645 657 682 821L607 837C571 669 516 512 443 408ZM465 -68C646 74 703 266 730 481L658 487C630 288 579 113 410 -17ZM197 -82C244 -82 266 -59 266 -5V487H199V2C199 -10 191 -14 176 -14C153 -14 124 -10 86 2L87 -72C126 -79 161 -82 197 -82Z" transform="translate(0, 880) scale(1,-1)" /></svg>