<svg xmlns="http://www.w3.org/2000/svg" width="1000" height="1000"><path d="M911 -79 943 -12C632 64 545 225 309 225C170 225 66 165 66 62C66 -21 146 -76 273 -76C541 -76 621 159 644 385L564 391C547 200 491 -11 273 -11C200 -11 146 12 146 61C146 123 200 157 309 157C488 157 608 -4 911 -79ZM0.0 0.0Q0 0 0.0 0.0Q0 0 0.0 0.0ZM81 272H157V503H81ZM382 276C698 238 936 237 936 392C936 481 777 534 590 534C454 534 250 512 111 436L135 369C268 440 454 467 584 467C725 467 853 434 853 390C853 294 660 306 387 337ZM168 606H829V673H168ZM168 743H832V810H168Z" transform="translate(0, 880) scale(1,-1)" /></svg>