<svg xmlns="http://www.w3.org/2000/svg" width="1000" height="1000"><path d="M231 -20C460 -20 538 343 552 801L482 815C470 412 409 59 236 59C184 59 132 134 132 220C132 487 411 556 666 566L612 266L681 253L757 615L703 657L682 639C361 641 58 527 58 220C58 73 156 -20 231 -20ZM371 140 414 203C304 324 253 505 315 827L249 837C173 472 247 256 371 140ZM609 -64C803 -24 936 141 936 360C936 437 885 497 806 497C777 497 744 487 708 466V406C740 419 766 425 787 425C835 425 857 395 857 343C857 169 751 35 562 7Z" transform="translate(0, 880) scale(1,-1)" /></svg>