<svg xmlns="http://www.w3.org/2000/svg" width="1000" height="1000"><path d="M351 368 426 379C410 477 397 598 395 729H930V804H69V729H314C317 594 333 470 351 368ZM565 369 636 347C668 440 693 571 702 699H624C617 576 596 453 565 369ZM781 404 849 357C881 391 908 441 908 512C908 599 821 646 614 646C448 646 273 597 185 520V631H105V370H185V460C303 544 477 571 614 571C760 571 824 543 824 512C824 469 805 431 781 404ZM133 240H867V315H133ZM77 42V-36H923V42ZM462 266V23H538V266Z" transform="translate(0, 880) scale(1,-1)" /></svg>