<svg xmlns="http://www.w3.org/2000/svg" width="1000" height="1000"><path d="M102 -77C218 117 237 331 236 501L234 729H759C761 202 763 -70 894 -70C949 -70 966 -25 973 110L918 121C916 44 910 10 894 10C827 10 832 325 835 802H160V501C160 341 150 118 41 -35ZM508 551 574 585C545 622 504 663 464 699L405 667C444 632 481 589 508 551ZM452 370 491 346C563 395 652 468 709 523L672 579L656 570H298V503H587C553 465 497 411 452 370ZM279 332 315 271C368 303 439 317 522 317C607 317 654 268 654 188C654 90 569 42 483 42C422 42 388 63 388 89C388 118 409 141 442 141C495 141 530 108 541 23L594 36C582 137 530 201 443 201C374 201 323 147 323 89C323 22 384 -25 486 -25C646 -25 727 59 727 188C727 300 645 388 530 388C432 388 352 362 279 332Z" transform="translate(0, 880) scale(1,-1)" /></svg>