<svg xmlns="http://www.w3.org/2000/svg" width="1000" height="1000"><path d="M315 582 396 613C372 671 326 761 285 824L206 796C244 733 289 646 315 582ZM658 573C702 632 754 723 794 797L706 827C671 747 625 657 583 596ZM595 -64C731 -64 834 4 834 143C834 281 696 322 530 322C494 322 467 321 437 315C515 358 588 407 653 455H919V536H81L80 455H528C477 410 411 359 320 309C301 299 273 293 201 275L228 208C325 237 427 252 519 252C642 252 752 218 752 143C752 50 672 10 585 10C539 10 481 15 411 27V-51C470 -61 529 -64 595 -64ZM0.0 -19.0Q0 -19 0.0 -19.0Q0 -19 0.0 -19.0Z" transform="translate(0, 880) scale(1,-1)" /></svg>