<svg xmlns="http://www.w3.org/2000/svg" width="1000" height="1000"><path d="M84 90H151V745H84ZM226 186H290V745H226ZM795 -79C896 -79 929 -30 929 339C929 649 874 726 762 726C678 726 615 710 560 677L583 607C634 639 692 653 761 653C826 653 855 568 855 340C855 64 833 -8 785 -8C742 -8 684 3 636 23V-58C679 -70 732 -79 795 -79ZM435 128H759V196H435ZM435 282H759V351H435ZM339 437 358 450H694V523H418C474 614 522 708 571 818L499 847C452 726 398 622 353 546C341 525 330 517 316 510Z" transform="translate(0, 880) scale(1,-1)" /></svg>