<svg xmlns="http://www.w3.org/2000/svg" width="1000" height="1000"><path d="M630 44C693 89 735 154 735 250C735 315 691 364 607 364C526 364 486 317 486 263C486 204 536 163 639 163C784 163 885 207 885 343C885 459 804 521 641 521C445 521 307 445 137 303C150 345 159 377 172 414L123 439C100 372 78 303 33 223L88 184L95 199C328 386 480 446 641 446C738 446 810 424 810 343C810 262 745 223 639 223C581 223 551 242 551 263C551 286 571 303 607 303C644 303 667 283 667 248C667 165 625 106 567 66ZM228 -72C287 -72 304 -50 304 9V838H232V14C232 0 225 -5 213 -5C185 -5 156 2 123 15L122 -60C153 -68 185 -72 228 -72ZM911 -89 952 -20C789 44 595 92 410 128L383 61C572 25 751 -27 911 -89ZM60 598C424 598 678 618 942 668L922 739C658 689 424 669 60 669Z" transform="translate(0, 880) scale(1,-1)" /></svg>