<svg xmlns="http://www.w3.org/2000/svg" width="1000" height="1000"><path d="M114 -69C437 88 655 281 804 438L741 473L713 452H414C582 551 731 664 861 781L786 831C662 710 504 583 287 453C274 445 254 436 233 430L272 362L315 383H642C553 293 352 131 62 -10ZM655 -54H830C914 -54 942 8 952 143L871 164C870 53 854 18 820 18H650C616 18 611 24 611 49V293L532 231V48C532 -28 556 -54 655 -54ZM383 595 441 646C384 705 306 770 232 821L177 772C255 718 329 656 383 595Z" transform="translate(0, 880) scale(1,-1)" /></svg>