<svg xmlns="http://www.w3.org/2000/svg" width="1000" height="1000"><path d="M104 -80C188 78 201 309 201 469V668H948V741H598L548 845L473 827L513 741H126V468C126 319 119 105 37 -46ZM914 -85 960 -19C739 55 569 203 423 203C305 203 228 149 228 71C228 5 271 -53 377 -53C527 -53 875 113 875 224C875 291 814 352 678 352C526 352 372 328 257 299L273 234C405 265 535 284 676 284C776 284 796 259 796 224C796 155 498 14 381 14C327 14 310 36 311 71C312 104 331 133 423 133C546 133 685 -6 914 -85ZM432 364 503 379C492 465 474 554 451 634L381 619C404 539 421 450 432 364ZM225 478H937V544H225ZM686 312C721 410 746 529 765 633L691 639C676 538 653 423 619 322Z" transform="translate(0, 880) scale(1,-1)" /></svg>