<svg xmlns="http://www.w3.org/2000/svg" width="1000" height="1000"><path d="M377 -72C479 -72 515 150 515 327C515 478 512 628 355 628C249 628 145 613 51 587L60 507C158 533 251 547 345 547C435 547 439 429 439 327C439 164 410 2 359 2C335 2 308 8 267 20V-62C308 -69 335 -72 377 -72ZM97 -84C260 93 314 357 348 835L272 841C238 364 183 125 31 -37ZM604 243H678V640H604ZM670 23C842 53 951 111 951 414C951 604 884 669 783 669C730 669 672 632 639 557L657 514C690 569 749 589 789 589C849 589 876 534 876 394C876 152 779 112 644 91Z" transform="translate(0, 880) scale(1,-1)" /></svg>