<svg xmlns="http://www.w3.org/2000/svg" width="1000" height="1000"><path d="M492 -16C802 -14 912 66 912 211C912 318 840 402 596 402C386 402 234 354 83 263L139 194C257 270 411 320 596 320C764 320 828 267 828 211C828 125 740 57 454 63ZM491 -99 568 -61C540 13 489 95 444 157L373 120C419 65 466 -26 491 -99ZM559 509C662 568 791 662 893 762L843 811L816 802H139V721H738C677 664 583 598 498 550ZM652 413 700 480C590 556 495 600 358 646L322 575C462 530 551 483 652 413Z" transform="translate(0, 880) scale(1,-1)" /></svg>