<svg xmlns="http://www.w3.org/2000/svg" width="1000" height="1000"><path d="M102 -77C218 117 237 331 236 501L234 729H759C761 202 763 -70 894 -70C949 -70 966 -25 973 110L918 121C916 44 910 10 894 10C827 10 832 325 835 802H160V501C160 341 150 118 41 -35ZM452 412 491 387C563 438 652 512 709 570L672 627L656 618H298V549H587C553 509 497 454 452 412ZM530 428C432 428 352 404 279 372L315 310C368 343 439 357 522 357C607 357 654 314 654 232C654 131 569 79 483 79C422 79 388 100 388 128C388 158 409 181 442 181C495 181 530 147 541 60L594 73C582 177 530 242 443 242C374 242 323 187 323 128C323 59 384 10 486 10C646 10 727 98 727 232C727 351 645 428 530 428Z" transform="translate(0, 880) scale(1,-1)" /></svg>