<svg xmlns="http://www.w3.org/2000/svg" width="1000" height="1000"><path d="M365 301C704 270 857 324 857 472C857 575 763 634 558 634C402 634 270 576 222 527V461C290 520 419 558 558 558C717 558 778 521 778 472C778 355 633 352 365 377ZM149 280H222V607H149ZM938 111 958 185C737 212 444 213 55 184V116C439 142 733 136 938 111ZM309 640 383 673C359 724 324 786 285 835L216 807C251 758 286 695 309 640ZM675 637C724 694 762 754 794 812L714 841C690 783 653 719 612 665ZM462 -71C528 -70 551 -37 551 27V466H474V27C474 6 467 -1 446 -1C398 -1 349 7 295 20V-60C357 -68 416 -72 462 -71Z" transform="translate(0, 880) scale(1,-1)" /></svg>