<svg xmlns="http://www.w3.org/2000/svg" width="1000" height="1000"><path d="M316 -61H725C871 -61 887 -18 907 133L823 152C816 38 805 9 719 9H332C223 9 195 31 195 78C195 186 382 309 559 400C703 475 853 570 853 657C853 756 742 800 569 800C381 800 216 755 102 687L142 621C270 689 410 724 569 724C694 724 762 692 762 657C762 595 620 519 491 452C304 354 105 208 105 79C105 -34 158 -61 316 -61ZM696 242 746 305C617 388 444 483 286 541L243 478C400 420 569 328 696 242Z" transform="translate(0, 880) scale(1,-1)" /></svg>