<svg xmlns="http://www.w3.org/2000/svg" width="1000" height="1000"><path d="M931 4V87C708 41 424 51 280 95C194 122 161 187 156 346L74 332C77 159 131 56 250 19C398 -28 703 -41 931 4ZM400 153C521 153 589 248 589 397C589 498 556 605 448 695L394 662C492 570 516 457 516 397C516 285 472 227 400 228C340 229 306 268 306 309C306 446 563 514 730 507V246H649V179L923 176V246H805V566L755 592L741 578C546 579 232 506 232 309C232 219 293 153 400 153ZM221 612C414 652 604 709 790 782L721 840C573 781 366 714 188 676Z" transform="translate(0, 880) scale(1,-1)" /></svg>