<svg xmlns="http://www.w3.org/2000/svg" width="1000" height="1000"><path d="M111 313C280 379 414 440 495 553C541 617 571 723 580 833L494 845C493 734 463 645 418 580C359 494 234 436 78 380ZM279 170C327 226 372 290 412 353L355 390C268 256 156 135 45 89L84 8C122 29 157 57 202 91C219 104 246 106 261 102C278 97 289 77 306 8L463 114L436 154L336 108C331 137 317 160 279 170ZM454 289 433 223C630 149 791 77 911 -4L962 59C835 135 663 210 454 289ZM581 248C695 285 778 313 875 369L827 431C740 379 669 348 556 311ZM613 549 644 481C885 501 933 559 933 614C933 729 741 737 613 737C453 737 277 688 160 611V724H82V500H160V563C310 639 451 666 612 666C724 666 851 653 851 614C851 578 787 556 613 549ZM461 549 402 499C484 413 567 257 567 145C566 74 546 -8 471 -8C431 -8 393 0 355 14V-68C390 -77 430 -80 475 -80C593 -80 649 28 646 146C646 266 572 423 461 549Z" transform="translate(0, 880) scale(1,-1)" /></svg>