<svg xmlns="http://www.w3.org/2000/svg" width="1000" height="1000"><path d="M365 340C704 311 857 356 857 499C857 593 763 652 558 652C402 652 270 599 222 556V495C290 547 419 582 558 582C717 582 778 544 778 499C778 385 633 387 365 408ZM149 320H222V626H149ZM457 222H535V492H457ZM309 648 383 680C359 729 324 789 285 835L216 809C251 761 286 702 309 648ZM675 646C723 702 762 758 794 814L714 841C690 786 652 725 612 672ZM182 -61 771 -14 758 47 290 13C356 66 420 125 481 191H918V260H89V191H385C324 119 248 53 223 33C194 11 182 3 162 -2ZM812 -83 880 -44C839 16 751 103 667 167L602 133C675 76 774 -23 812 -83Z" transform="translate(0, 880) scale(1,-1)" /></svg>