<svg xmlns="http://www.w3.org/2000/svg" width="1000" height="1000"><path d="M685 -64C821 -64 920 45 920 239C920 441 786 502 620 502C584 502 557 499 527 491C634 559 737 637 814 728L746 764L730 751H359L358 682H671C616 625 520 545 410 479C391 468 232 422 111 383L150 317C299 380 482 429 609 429C732 429 842 378 842 239C842 67 762 8 675 8C629 8 571 15 501 32V-47C560 -59 619 -64 685 -64ZM280 41C383 41 611 229 700 332L633 385C553 284 368 123 299 123C283 123 269 154 259 192L180 176C199 90 223 41 280 41ZM587 80 644 135C589 202 484 294 410 346L357 294C430 244 536 143 587 80ZM169 525C288 602 413 698 506 804L438 842C355 744 242 658 123 589Z" transform="translate(0, 880) scale(1,-1)" /></svg>