<svg xmlns="http://www.w3.org/2000/svg" width="1000" height="1000"><path d="M239 -43C366 -43 518 124 405 362C449 397 488 442 523 483L472 522L451 512H226V446H406C383 416 358 391 331 364C430 141 304 35 239 35C188 35 174 55 174 94C174 203 476 317 656 317C757 317 784 293 784 257C784 197 679 116 534 65L554 1C726 52 869 159 869 266C869 336 803 392 656 392C432 392 95 268 95 87C95 -5 153 -43 239 -43ZM137 472C185 569 228 702 249 810L173 824C151 713 109 589 65 506ZM155 606H751V680H155ZM879 -82 940 -15C713 77 639 137 639 842H561C563 115 645 27 879 -82ZM868 580 943 607C915 687 887 747 850 811L782 782C820 719 847 654 868 580Z" transform="translate(0, 880) scale(1,-1)" /></svg>