<svg xmlns="http://www.w3.org/2000/svg" width="1000" height="1000"><path d="M84 8C122 29 157 57 202 91C219 104 246 106 261 102C278 97 289 77 306 8L463 114L436 154L336 108C331 137 317 160 279 170C327 226 372 290 412 353L355 390C268 256 156 135 45 89ZM475 -80C593 -80 649 28 646 146C646 266 572 423 461 549L402 499C484 413 567 257 567 145C566 74 546 -8 471 -8C431 -8 393 0 355 14V-68C390 -77 430 -80 475 -80ZM911 -4 962 59C835 135 663 210 454 289L433 223C630 149 791 77 911 -4ZM581 248C695 285 778 313 875 369L827 431C740 379 669 348 556 311ZM644 531C865 551 913 613 913 668C913 773 786 802 618 802C438 802 287 748 170 671V784H92V553H170V623C320 699 446 728 617 728C759 728 831 707 831 668C831 632 767 606 613 599ZM539 639 462 663C400 503 260 445 78 380L111 313C311 391 476 465 539 639Z" transform="translate(0, 880) scale(1,-1)" /></svg>