<svg xmlns="http://www.w3.org/2000/svg" width="1000" height="1000"><path d="M363 264H455C565 320 638 402 638 498C638 558 599 614 490 614C389 614 352 555 352 503C352 447 393 383 531 383C743 383 879 468 879 614C879 720 794 821 559 821C336 821 231 741 164 661L202 608C264 678 373 744 559 744C725 744 794 688 794 614C794 512 697 450 531 450C460 450 424 474 424 503C424 528 453 552 490 552C536 552 565 536 565 498C565 414 479 326 363 264ZM133 212H867V285H133ZM142 440H223V784H142ZM77 41V-36H923V41ZM462 244V19H538V244Z" transform="translate(0, 880) scale(1,-1)" /></svg>