<svg xmlns="http://www.w3.org/2000/svg" width="1000" height="1000"><path d="M357 134C429 134 486 194 486 435C486 640 409 755 295 755C211 755 156 722 126 683V615C160 648 218 681 295 681C361 681 415 601 415 435C415 258 386 211 357 211C339 211 322 263 322 325C322 540 399 696 517 696C597 696 616 598 616 436C616 143 597 5 533 5C490 5 445 14 402 34V-52C448 -65 488 -70 537 -70C650 -70 694 53 694 436C694 653 643 776 517 776C384 776 254 629 254 325C254 206 311 134 357 134ZM108 774V-52H181V774ZM757 -33C848 36 919 126 919 258C919 386 832 485 630 485C392 485 209 428 41 335L71 263C234 358 429 409 630 409C776 409 838 329 838 258C838 168 776 87 712 44ZM884 512 944 565C905 627 849 690 791 749L736 702C799 639 844 578 884 512Z" transform="translate(0, 880) scale(1,-1)" /></svg>