<svg xmlns="http://www.w3.org/2000/svg" width="1000" height="1000"><path d="M74 499H153V548C260 627 458 664 617 664C789 664 844 628 844 607C844 578 837 559 819 534L897 502C918 537 927 558 927 608C927 702 815 737 617 737C426 737 260 688 153 602V723H74ZM485 696 566 718C552 761 534 807 508 852L430 832C456 789 474 744 485 696ZM446 -75C514 -74 549 -59 549 23V337C636 380 722 440 785 499L736 543L720 537H236V462H626C577 426 528 395 473 370V35C473 16 462 1 441 0C401 -2 346 4 290 27V-57C341 -69 396 -76 446 -75ZM939 206 959 284C738 317 444 318 55 283V213C439 244 734 237 939 206Z" transform="translate(0, 880) scale(1,-1)" /></svg>