<svg xmlns="http://www.w3.org/2000/svg" width="1000" height="1000"><path d="M911 -84 957 -5C762 70 668 284 498 284C413 284 348 219 348 116C348 20 414 -49 485 -49C665 -49 801 199 801 337C801 439 744 510 591 510C461 510 357 469 279 425V352C394 406 505 436 591 436C674 436 714 396 714 337C714 236 614 31 486 31C450 31 424 69 424 116C424 162 455 203 498 203C643 203 719 -5 911 -84ZM62 415H145V670H62ZM203 -76H279C269 211 309 539 389 826L313 836C233 549 193 211 203 -76ZM897 438C925 478 939 522 939 580C939 697 848 725 634 725C427 725 261 685 79 590L109 525C281 613 455 645 634 645C822 645 857 620 857 575C857 542 844 503 829 487Z" transform="translate(0, 880) scale(1,-1)" /></svg>