<svg xmlns="http://www.w3.org/2000/svg" width="1000" height="1000"><path d="M212 609 280 642C263 689 218 759 178 811L112 782C149 733 190 658 212 609ZM484 629 557 653C544 707 507 787 471 845L402 824C435 765 470 684 484 629ZM774 604C820 668 862 737 894 800L818 827C793 766 749 687 709 630ZM579 -73C725 -73 835 -15 835 89C835 194 687 233 510 233C472 233 443 232 410 228C493 260 572 292 641 328H926V405H72L71 328H508C453 294 382 261 285 223C264 216 246 209 200 199L229 133C333 155 399 166 497 166C630 166 747 146 747 89C747 19 662 -2 569 -2C519 -2 457 2 382 11V-63C446 -71 509 -73 579 -73ZM144 502H854V578H144Z" transform="translate(0, 880) scale(1,-1)" /></svg>