<svg xmlns="http://www.w3.org/2000/svg" width="1000" height="1000"><path d="M880 -97 916 -28C650 36 468 172 286 172C164 172 90 130 90 46C90 -29 145 -80 261 -80C529 -80 798 80 798 187C798 253 772 312 607 316C725 343 821 369 913 409L873 465L781 428H75V358H592C500 330 406 311 304 294C274 289 211 279 130 261L151 197C299 232 420 252 563 252C691 252 717 227 717 187C717 119 463 -6 263 -6C197 -6 168 11 168 47C168 76 196 101 286 101C444 101 624 -34 880 -97ZM504 428H619C705 449 748 500 748 540C748 592 673 638 487 638C309 638 211 602 211 548C211 497 274 460 418 460C506 460 545 493 545 524V841H460V553C460 522 432 512 391 512C360 512 297 527 297 546C297 564 349 580 487 580C590 580 664 559 664 538C664 510 649 476 504 428ZM97 679H903V749H97Z" transform="translate(0, 880) scale(1,-1)" /></svg>