<svg xmlns="http://www.w3.org/2000/svg" width="1000" height="1000"><path d="M122 -77C449 -12 533 103 565 392L493 399C459 136 375 41 81 -11ZM118 315 440 356 431 413 100 370ZM71 172H935V235H71ZM855 -80 911 -26C836 22 728 77 606 116L558 65C679 25 782 -30 855 -80ZM312 356C368 420 391 459 409 542H346C329 466 302 419 250 370ZM201 507H506V573H201ZM886 538C910 577 921 616 921 661C921 740 805 765 617 765C426 765 267 723 160 652V752H82V555H160V606C267 672 453 701 617 701C784 701 839 678 839 660C839 629 833 596 812 564ZM606 339H864V405H722V612H650V405H606ZM491 707 566 726C552 766 534 810 508 852L436 832C462 792 480 750 491 707Z" transform="translate(0, 880) scale(1,-1)" /></svg>