<svg xmlns="http://www.w3.org/2000/svg" width="1000" height="1000"><path d="M261 -68C420 -68 544 68 544 238C544 369 513 506 340 651L272 606C432 460 463 330 463 251C463 118 370 17 259 18C184 19 137 72 137 126C137 309 514 389 733 391V49H597V-30L953 -33V49H817V460L755 495L737 476C457 459 59 390 59 131C59 13 126 -68 261 -68ZM179 550C362 603 541 678 717 774L651 840C512 762 314 674 147 625ZM340 178 392 244Q333 292 264.5 340.0Q196 388 105 445L55 388Q143 330 211.5 278.5Q280 227 340 178Z" transform="translate(0, 880) scale(1,-1)" /></svg>