<svg xmlns="http://www.w3.org/2000/svg" width="1000" height="1000"><path d="M486 -70C738 150 739 576 742 807H666C663 599 673 183 427 -17ZM266 -62C316 -62 343 -25 343 33V516H269V44C269 20 259 6 243 6C216 6 179 12 144 24V-51C176 -58 213 -62 266 -62ZM66 134 532 230 513 291 46 200ZM312 353C431 375 523 452 523 549C523 660 434 699 350 699C295 699 245 675 218 655C258 709 297 758 354 805L277 845C183 725 123 645 100 572C80 508 77 438 106 357L182 374C151 442 149 494 173 557C190 601 252 632 313 632C378 632 443 597 443 548C443 486 416 434 311 411ZM890 -66 957 -12C889 124 787 279 696 389L652 334C731 229 824 74 890 -66Z" transform="translate(0, 880) scale(1,-1)" /></svg>