<svg xmlns="http://www.w3.org/2000/svg" width="1000" height="1000"><path d="M328 224C624 187 865 211 865 380C865 510 715 564 558 564C363 564 248 510 171 454L202 379C277 434 376 485 557 485C670 485 786 454 786 378C786 295 606 252 328 295ZM115 -84C489 7 535 167 535 281V372H455V282C455 197 427 60 66 -17ZM147 214H222V503H147ZM898 -84 936 -14C850 30 685 96 566 138L529 78C651 32 815 -38 898 -84ZM163 556C291 632 392 717 471 826L381 844C326 762 235 683 102 610ZM531 511C629 599 695 670 740 743L679 777L667 773H348V709H624C592 661 544 609 479 551Z" transform="translate(0, 880) scale(1,-1)" /></svg>