<svg xmlns="http://www.w3.org/2000/svg" width="1000" height="1000"><path d="M124 -35C309 129 594 248 730 248C804 248 843 228 843 181C843 118 784 82 684 63L713 1C843 24 922 76 922 181C922 264 854 321 730 321C580 321 435 250 296 158C394 238 495 335 569 415L504 464L486 445H298C367 560 426 694 457 833L374 845C339 675 275 520 172 407L224 356L249 378H435C344 272 189 120 62 22ZM716 -93 789 -62C768 -23 701 82 649 139L583 112C638 52 685 -30 716 -93ZM62 578H868V653H62Z" transform="translate(0, 880) scale(1,-1)" /></svg>