<svg xmlns="http://www.w3.org/2000/svg" width="1000" height="1000"><path d="M812 -66C864 -65 898 -33 898 36V808H829V43C829 24 817 10 798 9C751 7 707 14 653 34V-50C704 -63 750 -67 812 -66ZM675 656V167H744V656ZM176 748 189 695C241 721 322 735 389 734C487 733 537 704 537 643C537 586 511 541 393 541C330 541 258 551 209 558V487C258 480 312 475 393 475C539 475 602 553 602 643C602 742 531 799 389 799C307 799 232 783 176 748ZM531 247 590 219C602 239 609 262 609 286C609 379 539 423 394 423C273 423 162 383 90 334L102 272C172 317 286 360 394 359C493 358 542 333 542 286C542 271 540 260 531 247ZM117 41C117 84 131 132 268 132H624V200H267C105 200 54 129 54 41C54 -23 88 -76 154 -76C233 -76 295 15 295 296H227C227 49 193 -3 154 -3C131 -3 117 14 117 41ZM403 293V-83H467V293ZM273 353C322 441 359 523 392 613L330 635C301 540 264 463 212 385ZM258 821 192 841C166 760 126 692 79 625L136 596C187 666 224 741 258 821Z" transform="translate(0, 880) scale(1,-1)" /></svg>