<svg xmlns="http://www.w3.org/2000/svg" width="1000" height="1000"><path d="M593 -62C775 -34 910 1 910 132C910 219 821 289 628 287C526 286 425 266 334 228C390 277 426 345 426 435V587H351V439C351 333 302 235 233 191C167 149 109 121 48 74L90 14C265 147 455 212 628 212C786 212 831 174 831 132C831 57 717 24 564 7ZM97 394H171V771H97ZM279 382C568 343 678 417 678 596C678 728 590 800 429 800C306 800 218 753 171 692V611C233 686 319 728 429 728C551 728 598 680 598 596C598 455 510 418 279 448ZM853 403 934 435C916 523 884 622 849 696L775 668C810 590 839 486 853 403Z" transform="translate(0, 880) scale(1,-1)" /></svg>