<svg xmlns="http://www.w3.org/2000/svg" width="1000" height="1000"><path d="M501 80C801 80 914 216 914 325C914 424 855 530 500 530C329 530 201 495 61 417L102 359C211 422 341 459 500 459C773 459 828 383 828 325C828 257 728 151 501 151C325 151 266 175 266 215C266 254 347 293 487 293C587 293 674 266 731 182L791 226C708 317 613 359 487 359C294 359 182 293 182 215C182 133 259 80 501 80ZM455 -79H534V486H455ZM214 573H289V835H214ZM51 655H951V721H51ZM460 587H535V831H460ZM727 551C760 627 793 738 810 836L728 846C718 752 694 645 665 576Z" transform="translate(0, 880) scale(1,-1)" /></svg>