<svg xmlns="http://www.w3.org/2000/svg" width="1000" height="1000"><path d="M642 -69C832 -49 950 13 950 147C950 284 786 340 500 340C228 340 54 261 54 124C54 3 148 -56 281 -56C489 -56 667 127 702 375L624 381C598 158 446 20 281 20C189 20 130 58 130 124C130 186 235 268 500 268C758 268 869 203 869 143C869 57 778 21 608 7ZM424 21 493 60C314 255 414 496 575 812L502 840C301 440 255 196 424 21ZM257 521 324 563C292 631 225 714 169 771L106 732C162 673 226 587 257 521ZM65 417H935V491H65ZM639 519C701 577 788 667 861 753L788 793C731 716 648 627 585 571Z" transform="translate(0, 880) scale(1,-1)" /></svg>