<svg xmlns="http://www.w3.org/2000/svg" width="1000" height="1000"><path d="M922 486V559H490V486ZM133 457C266 569 350 673 447 823L373 850C291 709 196 604 77 513ZM76 238 130 168C326 297 595 554 703 712L643 755L624 752H339V679H583C516 577 276 355 76 238ZM317 393V323H748C739 242 726 214 688 214C607 214 549 222 487 237V163C554 151 621 144 711 144C784 144 815 230 829 386L769 402L752 393ZM377 75V239H302V68C302 -36 349 -58 464 -58H761C879 -58 913 -7 933 146L860 161C853 32 824 16 751 16H467C393 16 377 28 377 75Z" transform="translate(0, 880) scale(1,-1)" /></svg>