<svg xmlns="http://www.w3.org/2000/svg" width="1000" height="1000"><path d="M416 293C512 354 645 443 715 499L655 557L635 549H406C451 605 489 660 525 734L442 742C406 664 360 597 296 528L343 470L372 483H575C524 435 441 375 354 321ZM875 177 905 251C645 305 387 346 141 376L102 305C366 270 622 230 875 177ZM82 705H914V780H82ZM109 -63C218 -2 342 79 417 166L333 203C275 131 160 40 50 -13ZM875 -60 945 -15C877 49 756 137 656 203L593 162C691 93 810 5 875 -60Z" transform="translate(0, 880) scale(1,-1)" /></svg>