<svg xmlns="http://www.w3.org/2000/svg" width="1000" height="1000"><path d="M294 622 373 649C347 700 297 779 253 834L176 810C217 754 266 677 294 622ZM670 613C718 666 775 746 819 811L733 837C694 767 643 687 597 634ZM60 620V540H935V620ZM635 -79C723 -79 793 -38 793 229C793 402 696 453 606 453C524 453 466 443 412 423L435 355C485 373 537 381 606 381C669 381 709 326 709 230C709 49 672 -10 625 -10C585 -10 532 -1 487 15V-64C535 -73 584 -79 635 -79ZM204 168 586 213 574 285 284 254C333 344 386 451 415 568L326 574C301 462 260 348 216 274C200 245 191 239 181 235Z" transform="translate(0, 880) scale(1,-1)" /></svg>