<svg xmlns="http://www.w3.org/2000/svg" width="1000" height="1000"><path d="M147 376 171 386H924V454H296C460 540 600 611 830 788L750 831L716 816H204V748H669C506 629 343 543 120 439ZM88 -49C177 -12 455 122 589 205L541 257C396 168 140 44 51 11ZM512 -86C547 -86 592 -70 592 -17V517H513V416C396 332 278 276 168 237L200 184L246 198H514L513 -1C513 -14 505 -23 488 -23C452 -23 409 -17 364 -7V-76C413 -83 457 -86 512 -86ZM339 250 513 343 514 250ZM906 -42 955 9C860 63 714 130 591 168V104C696 64 810 17 906 -42ZM899 165 937 221C898 247 819 284 756 307L720 255C784 230 861 192 899 165ZM77 592H924V660H77Z" transform="translate(0, 880) scale(1,-1)" /></svg>