<svg xmlns="http://www.w3.org/2000/svg" width="1000" height="1000"><path d="M495 719 572 741C554 774 531 812 500 847L426 825C456 792 479 756 495 719ZM80 745V671H920V745ZM330 495 402 524C384 566 361 613 330 658L261 630C291 588 314 543 330 495ZM737 636 659 666C516 420 327 312 194 312C161 312 142 323 142 341C142 407 342 462 613 462C805 462 842 384 842 246C842 112 802 2 738 2C681 2 632 11 585 31V-58C625 -67 672 -74 748 -74C833 -74 921 -6 921 246C921 437 866 534 613 534C294 534 67 473 67 341C67 268 115 232 194 232C367 232 565 350 737 636ZM320 38C353 102 383 185 401 263L324 276C310 204 280 126 248 67ZM642 36 721 56C704 120 669 219 634 297L559 274C595 197 627 98 642 36Z" transform="translate(0, 880) scale(1,-1)" /></svg>