<svg xmlns="http://www.w3.org/2000/svg" width="1000" height="1000"><path d="M106 -74C236 77 278 210 278 475V702H647V779H76V702H200V475C200 217 164 120 41 -16ZM0.0 0.0Q0 0 0.0 0.0Q0 0 0.0 0.0ZM422 -72C498 -72 538 -31 538 52V629H460V66C460 26 447 5 410 5C386 5 340 11 301 23V-58C334 -68 374 -72 422 -72ZM664 -4C835 57 916 121 916 267C916 405 818 476 620 476C410 476 206 431 60 378L89 307C222 359 451 401 620 401C762 401 834 346 834 267C834 165 767 100 623 70ZM900 447 966 501C915 576 842 655 766 727L708 682C790 603 848 528 900 447Z" transform="translate(0, 880) scale(1,-1)" /></svg>