<svg xmlns="http://www.w3.org/2000/svg" width="1000" height="1000"><path d="M446 -75C514 -74 549 -60 549 17V315C636 354 722 414 785 469L736 507L720 503H236V436H626C576 401 528 369 473 347V29C473 11 462 -3 441 -4C401 -6 346 0 290 21V-58C341 -69 396 -76 446 -75ZM939 191 959 265C738 297 444 298 55 264V197C439 228 734 221 939 191ZM258 662 321 693C304 732 263 788 226 830L165 802C199 762 238 702 258 662ZM900 462C928 491 939 528 939 568C939 676 788 701 614 701C427 701 291 669 149 595V673H77V476H149V557C323 617 454 626 613 626C751 626 856 601 856 560C856 540 847 523 832 509ZM502 667 570 694C557 737 523 801 489 849L425 824C456 777 488 711 502 667ZM741 649C784 700 823 757 853 808L779 834C756 785 715 721 678 674Z" transform="translate(0, 880) scale(1,-1)" /></svg>