<svg xmlns="http://www.w3.org/2000/svg" width="1000" height="1000"><path d="M174 333H255V708C466 716 695 733 853 762L795 831C654 804 394 786 174 779ZM836 -79 882 -10C713 31 401 95 161 130L110 61C356 24 669 -35 836 -79ZM692 104 737 172C634 196 475 224 351 243L307 178C429 160 593 129 692 104ZM70 283H930V359H70ZM770 293C820 348 844 405 844 469C844 563 767 628 583 628C429 628 334 592 255 548V480C367 532 470 553 583 553C676 553 762 521 762 469C762 414 745 371 704 323Z" transform="translate(0, 880) scale(1,-1)" /></svg>