<svg xmlns="http://www.w3.org/2000/svg" width="1000" height="1000"><path d="M82 556H165V600C272 672 456 703 615 703C776 703 832 684 832 660C832 633 825 611 806 588L888 559C909 591 918 616 918 661C918 753 802 773 615 773C425 773 272 727 165 650V760H82ZM93 369H913V438H93ZM345 440 421 466C404 512 365 582 323 634L253 611C293 558 331 486 345 440ZM652 422C691 478 731 552 759 611L674 635C654 576 618 496 580 440ZM818 -76C865 -16 893 40 893 127C893 200 816 265 695 265C614 265 564 246 518 216V341H446V183L430 171L467 117C545 161 615 188 695 188C763 188 812 170 812 127C812 61 785 8 734 -46ZM275 -60C417 -60 503 -51 619 -8L579 56C482 19 362 12 259 12C221 12 198 28 198 60C198 98 208 163 256 237L175 252C134 176 118 104 118 48C118 -19 170 -60 275 -60Z" transform="translate(0, 880) scale(1,-1)" /></svg>