<svg xmlns="http://www.w3.org/2000/svg" width="1000" height="1000"><path d="M710 -77C878 -77 922 199 915 599C912 770 756 795 537 795C438 795 331 786 235 767L237 697C335 717 448 723 539 723C746 723 833 683 835 592C842 259 800 0 695 0C646 0 601 7 552 20V-67C609 -73 662 -77 710 -77ZM126 -58C215 232 247 457 250 788H172C168 474 140 245 37 -30ZM412 123C450 296 469 469 472 642L399 647C396 475 377 302 339 130ZM778 232 787 306C631 332 439 343 263 340L258 269C429 274 626 257 778 232ZM612 113C650 286 669 458 672 632L599 637C596 464 577 292 539 120ZM802 445 811 519C655 545 463 556 287 553L282 482C453 487 650 470 802 445Z" transform="translate(0, 880) scale(1,-1)" /></svg>