<svg xmlns="http://www.w3.org/2000/svg" width="1000" height="1000"><path d="M409 220 451 282C322 400 276 543 355 828L278 837C200 537 266 333 409 220ZM684 372C550 213 514 115 514 28C514 -42 538 -64 627 -64H754C830 -64 855 -30 866 65L790 94C786 19 780 4 745 4H635C605 4 593 13 593 32C593 97 619 177 743 326C790 383 808 435 808 513C808 620 725 677 490 677C257 677 56 510 56 275C56 131 152 40 234 40C467 40 592 424 614 802L539 816C524 463 426 117 240 117C185 117 127 191 127 275C127 460 301 606 490 606C662 606 734 567 734 513C734 460 721 416 684 372ZM929 123 969 186C915 229 845 268 775 301L739 247C815 210 874 170 929 123Z" transform="translate(0, 880) scale(1,-1)" /></svg>