<svg xmlns="http://www.w3.org/2000/svg" width="1000" height="1000"><path d="M380 -45 401 -35 847 25 819 87 476 47C538 131 581 198 633 305H907V376H673V557H946V628H673V840H598V628L333 623V557H598V376H369V305H543C493 192 444 109 420 81C389 44 374 35 354 30ZM153 -46 237 -37C181 105 170 218 204 303C242 399 246 475 189 556L107 537C159 449 162 383 127 309C89 228 95 105 153 -46ZM875 -79 941 -45C911 33 835 152 764 240L704 211C775 119 844 5 875 -79ZM256 642 300 703C258 733 177 780 117 811L75 758C136 724 216 673 256 642Z" transform="translate(0, 880) scale(1,-1)" /></svg>