<svg xmlns="http://www.w3.org/2000/svg" width="1000" height="1000"><path d="M565 -55C743 -46 916 4 916 130C916 212 862 273 748 261L880 437L822 499C535 501 241 408 241 248C241 165 286 121 364 121C426 121 494 159 543 240C610 343 763 574 842 732L778 765L764 752H494V688H732C683 586 538 363 474 265C455 233 402 195 367 195C337 195 316 208 316 248C316 344 559 426 786 426C759 376 710 307 652 240L685 183C783 204 837 182 837 130C837 66 668 19 530 27ZM143 -36 228 -27C172 115 161 218 195 303C233 399 237 475 180 556L97 537C149 449 152 383 117 309C79 228 85 115 143 -36ZM256 642 300 703C258 733 177 780 117 811L75 758C136 724 216 673 256 642ZM350 477C468 596 524 671 586 821L508 841C458 707 392 618 292 534Z" transform="translate(0, 880) scale(1,-1)" /></svg>