<svg xmlns="http://www.w3.org/2000/svg" width="1000" height="1000"><path d="M862 -85C913 -85 944 -38 961 125L901 146C893 35 883 3 859 3C694 3 661 472 642 827H575C589 441 627 -85 862 -85ZM0.0 0.0Q0 0 0.0 0.0Q0 0 0.0 0.0ZM100 -55 476 143 444 204 70 17ZM179 11 432 315 373 357 359 345H249C296 454 319 579 338 753L268 760C245 582 221 412 142 307L190 261L214 278H308L121 29ZM71 399H131V472C181 529 244 556 304 556C364 556 383 536 383 510C383 481 380 458 372 433L442 410C451 440 455 463 455 511C455 599 389 631 304 631C223 631 174 596 131 525V617H71ZM491 -55C651 32 808 214 891 418L832 457C767 289 616 91 436 5ZM108 735H471V802H108ZM499 430 922 523 908 593 488 501ZM821 619 873 663C849 704 795 764 752 806L702 768C745 725 797 661 821 619Z" transform="translate(0, 880) scale(1,-1)" /></svg>