<svg xmlns="http://www.w3.org/2000/svg" width="1000" height="1000"><path d="M357 186C820 164 842 237 842 310C842 377 770 424 616 424C476 424 395 402 299 358C329 393 355 431 373 474L303 492C261 401 188 318 97 253L151 216C195 248 214 266 238 288C352 339 499 360 608 360C717 360 771 342 771 310C771 261 725 225 357 249ZM152 -23C227 40 274 96 321 167L251 187C209 120 163 68 94 7ZM453 -70C513 -70 548 -45 548 3V311H484V21C484 10 469 -7 440 -7C411 -7 367 -1 327 10V-60C366 -67 411 -70 453 -70ZM860 -16 924 17C871 78 821 124 760 179L696 151C762 92 805 49 860 -16ZM944 465V532H58V466ZM652 540 690 594C576 637 486 665 351 682L326 626C461 605 550 580 652 540ZM602 614C691 654 810 718 871 763L823 807L807 802H153V738H706C651 702 592 671 519 640Z" transform="translate(0, 880) scale(1,-1)" /></svg>