<svg xmlns="http://www.w3.org/2000/svg" width="1000" height="1000"><path d="M714 -82C873 16 955 144 955 304C955 442 902 514 796 514C755 514 712 499 688 474C720 550 767 648 851 783L769 818C660 621 609 488 605 423C601 357 602 298 610 229L688 221C676 305 674 364 691 400C703 428 731 443 793 443C848 443 874 401 874 304C874 157 831 70 674 -24ZM98 -71 536 122 495 181 56 -11ZM224 7C306 98 395 229 453 324L388 371L372 352H270C324 457 351 566 372 714H297C278 571 246 430 172 316L224 268L246 289H346C304 212 241 112 171 31ZM52 485H578V556H52ZM111 700H520V771H111Z" transform="translate(0, 880) scale(1,-1)" /></svg>