<svg xmlns="http://www.w3.org/2000/svg" width="1000" height="1000"><path d="M576 -68C766 60 897 281 913 650L853 674L835 658H627V592H834C814 307 724 124 525 -14ZM0.0 0.0Q0 0 0.0 0.0Q0 0 0.0 0.0ZM268 -70C374 -70 525 15 525 230C525 445 411 544 195 494V423C420 464 439 367 439 229C439 98 359 7 268 7C186 7 151 39 151 101C151 194 254 274 450 351L430 415C216 336 70 240 70 103C70 2 132 -70 268 -70ZM135 525 196 562C180 628 148 713 108 785L50 756C88 682 120 593 135 525ZM887 -75 950 -23C876 102 745 264 624 390L573 349C693 219 817 46 887 -75ZM263 488H337V840H263ZM449 517C483 584 516 673 545 766L478 795C459 711 426 616 393 547ZM596 431C638 532 673 654 693 811L617 818C599 663 570 554 526 455Z" transform="translate(0, 880) scale(1,-1)" /></svg>