<svg xmlns="http://www.w3.org/2000/svg" width="1000" height="1000"><path d="M517 12C740 59 919 94 919 245C919 346 816 395 712 380L817 527L757 584C444 584 60 521 60 294C60 218 116 154 192 156C422 163 479 435 550 729H882V799H109V729H468C411 451 347 234 197 234C153 234 137 256 137 294C137 430 396 514 712 514C689 462 659 417 619 369L665 302C792 329 837 283 837 233C837 158 659 97 466 75ZM518 -89 591 -55C563 14 508 109 456 182L389 149C440 80 488 -16 518 -89Z" transform="translate(0, 880) scale(1,-1)" /></svg>