<svg xmlns="http://www.w3.org/2000/svg" width="1000" height="1000"><path d="M76 -71H918V1H448C548 55 587 131 587 178C587 251 512 290 413 290C328 290 256 251 256 180C256 112 311 66 447 66C664 66 859 109 859 269C859 395 753 455 563 455C491 455 461 447 391 429C533 482 680 541 846 621L799 682L765 672H124V601H646C525 543 404 482 264 428C208 407 156 387 110 368L156 310C277 357 368 389 559 389C690 389 772 353 772 274C772 161 630 132 478 132C394 132 335 141 335 178C335 213 379 226 419 226C467 226 507 205 507 169C507 127 447 51 337 1H76ZM638 683 670 749C553 788 450 820 357 845L317 781C411 757 518 725 638 683Z" transform="translate(0, 880) scale(1,-1)" /></svg>