<svg xmlns="http://www.w3.org/2000/svg" width="1000" height="1000"><path d="M923 -81 956 -21C821 63 758 203 664 203C588 203 534 153 534 70C534 -15 588 -61 663 -61C779 -61 910 172 910 234C910 308 868 352 762 352C586 352 101 140 101 19C101 -46 153 -77 230 -77C358 -77 460 -9 460 89C460 174 358 246 210 277L196 220C292 194 391 165 391 89C391 27 305 -18 230 -18C188 -18 171 -7 171 19C171 97 594 288 760 288C810 288 841 270 841 234C841 183 739 1 663 1C627 1 596 24 596 70C596 102 612 134 664 134C730 134 782 6 923 -81ZM292 214C366 263 443 330 484 373L439 403L424 399H113V340H366C339 311 290 276 251 250ZM129 441C348 462 654 528 847 633L779 662C596 568 305 518 100 506ZM91 644 901 707 893 763 83 702ZM806 399C886 399 917 425 930 530L866 550C859 474 848 462 807 462C586 458 413 640 392 837H320C344 601 547 399 806 399Z" transform="translate(0, 880) scale(1,-1)" /></svg>