<svg xmlns="http://www.w3.org/2000/svg" width="1000" height="1000"><path d="M399 -58C718 147 914 353 914 569C914 721 823 780 683 780C558 780 479 739 379 669L429 609C505 663 586 698 683 698C765 698 826 656 826 569C826 402 656 197 337 -1ZM97 -60 384 97 354 159 66 14ZM236 40 331 465 269 499 249 484H60V408H237L165 49ZM877 -61 951 -4C823 134 629 313 474 443L411 394C563 266 754 78 877 -61ZM272 588 324 653C282 695 196 760 130 805L80 746C147 699 233 631 272 588Z" transform="translate(0, 880) scale(1,-1)" /></svg>