<svg xmlns="http://www.w3.org/2000/svg" width="1000" height="1000"><path d="M122 -81C153 12 167 149 167 263V419H472V493H325V615H500V692H325V842H252V692H73V615H252V493H94V278C94 158 80 29 49 -58ZM336 43C404 43 488 88 488 192C488 299 418 354 323 354C253 354 177 334 128 308L146 235C186 264 260 283 323 283C388 283 416 232 416 192C416 133 376 107 336 107C302 107 287 135 287 163C287 193 304 236 388 296L319 315C248 256 217 203 217 163C217 95 264 43 336 43ZM885 -75 950 -23C874 104 739 267 614 394L562 353C685 222 813 47 885 -75ZM565 -68C761 61 895 284 912 657L850 681L832 665H617V598H831C810 310 717 126 512 -13ZM586 436C629 538 665 661 685 819L607 826C589 670 559 560 513 460Z" transform="translate(0, 880) scale(1,-1)" /></svg>