<svg xmlns="http://www.w3.org/2000/svg" width="1000" height="1000"><path d="M228 22H305V273C305 466 384 636 466 823L385 841C304 649 228 461 228 264ZM54 -46H947V22H54ZM540 22H629C711 73 779 134 779 205C779 299 683 318 498 301V240C645 247 698 239 698 205C698 142 636 81 540 22ZM658 260C718 310 756 349 756 401C756 481 689 517 565 517C463 517 384 496 304 462V407C385 438 465 450 568 450C659 450 676 426 676 402C676 364 657 328 607 287ZM75 646H925V713H75Z" transform="translate(0, 880) scale(1,-1)" /></svg>