<svg xmlns="http://www.w3.org/2000/svg" width="1000" height="1000"><path d="M503 -14C760 35 927 51 927 207C927 308 809 354 686 338L838 464L765 521C513 515 321 516 189 421C57 326 30 212 90 150C161 76 313 151 397 283C470 398 527 591 558 756H480C453 608 390 419 321 314C276 246 190 163 150 206C123 235 150 300 229 359C341 442 510 451 703 451C671 405 638 369 588 330L636 261C782 289 842 249 844 197C847 120 674 74 449 51ZM483 -79 555 -47C527 17 483 90 444 139L379 107C417 63 456 -16 483 -79ZM131 578H352V642H131ZM129 714C397 716 662 728 891 767L843 832C648 797 370 785 113 783ZM653 578H875V642H653Z" transform="translate(0, 880) scale(1,-1)" /></svg>