<svg xmlns="http://www.w3.org/2000/svg" width="1000" height="1000"><path d="M867 399C902 436 927 476 927 540C927 619 833 666 613 666C436 666 257 634 164 559V639H86V410H164V518C289 580 465 592 612 592C788 592 849 567 849 540C849 501 833 476 802 449ZM315 374H684C674 283 658 246 611 246C511 246 440 254 364 272V192C446 179 529 171 639 171C729 171 755 266 772 440L710 459L690 448H374C435 509 511 634 554 745H891V815H111V745H463C426 644 353 523 297 466C282 450 272 443 254 436L289 362ZM260 83V276H181V83C181 -33 229 -58 371 -58H705C850 -58 893 0 917 171L840 196C825 44 795 18 706 18H371C280 18 260 31 260 83Z" transform="translate(0, 880) scale(1,-1)" /></svg>