<svg xmlns="http://www.w3.org/2000/svg" width="1000" height="1000"><path d="M143 -58C421 76 631 304 836 623L752 647C569 342 366 136 80 6ZM649 -67C741 -67 861 -3 861 219C861 349 755 447 606 447C481 447 408 432 352 410C423 464 496 526 556 582L485 626L457 598H161V527H399C370 493 318 447 261 399C237 379 184 365 127 339L153 268C274 318 435 374 598 374C685 374 776 319 777 219C779 60 715 4 641 4C580 4 530 11 475 31V-48C535 -63 582 -67 649 -67ZM129 718H871V795H129Z" transform="translate(0, 880) scale(1,-1)" /></svg>