<svg xmlns="http://www.w3.org/2000/svg" width="1000" height="1000"><path d="M354 380C829 343 875 468 875 573C875 681 783 754 624 754C482 754 396 719 298 645C328 702 355 766 374 836L290 853C246 703 163 558 68 463L136 414C188 472 219 515 245 556C362 639 505 678 616 678C729 678 786 623 786 573C786 494 732 418 354 458ZM134 21C211 119 269 223 317 335L245 361C203 257 145 158 74 62ZM446 -77C508 -77 560 -35 560 46V570H479V60C479 17 463 -4 433 -4C403 -4 364 2 323 17V-65C363 -73 403 -77 446 -77ZM883 30 946 79C891 175 830 264 767 349L705 309C772 217 827 133 883 30Z" transform="translate(0, 880) scale(1,-1)" /></svg>