<svg xmlns="http://www.w3.org/2000/svg" width="1000" height="1000"><path d="M273 25H475C581 84 643 191 643 294C643 396 588 476 486 476C399 476 332 414 332 320C332 217 402 166 483 166C512 166 526 173 545 188C512 109 388 52 273 25ZM55 -48H949V25H55ZM121 408C212 516 280 680 315 807L239 824C201 681 136 542 54 453C73 443 106 421 121 408ZM486 234C439 234 406 270 406 320C406 370 439 406 486 406C533 406 566 370 566 320C566 270 533 234 486 234ZM207 573H901V646H207ZM619 352V840H541V421Z" transform="translate(0, 880) scale(1,-1)" /></svg>