<svg xmlns="http://www.w3.org/2000/svg" width="1000" height="1000"><path d="M595 -62H818C922 -62 949 -8 962 147L887 166C881 38 868 15 814 15H595C543 15 529 28 529 80V403H693V476H529V840H451V476H287V403H451V82C451 -34 485 -62 595 -62ZM110 159H186V544C279 611 370 647 557 647C765 647 813 548 813 445C813 305 726 235 594 235C492 235 398 239 296 252V177C398 165 492 162 594 162C798 162 891 288 891 445C891 582 836 725 557 725C353 725 243 665 186 614V708H110Z" transform="translate(0, 880) scale(1,-1)" /></svg>