<svg xmlns="http://www.w3.org/2000/svg" width="1000" height="1000"><path d="M90 -62C224 99 227 229 227 427V698C288 717 339 722 421 722H738C786 722 813 698 813 658V42C813 23 803 15 790 15C761 15 722 20 674 36V-42C717 -53 757 -59 791 -59C858 -59 887 -39 887 36V662C887 743 843 797 742 797H419C336 797 286 787 224 761V790H153V427C153 246 143 109 32 -16ZM335 486H705V557H335ZM558 100V749H482L484 112C484 94 481 87 466 87C433 87 397 92 351 107V27C396 17 435 12 472 12C542 12 558 38 558 100ZM335 277H705V348H335Z" transform="translate(0, 880) scale(1,-1)" /></svg>