<svg xmlns="http://www.w3.org/2000/svg" width="1000" height="1000"><path d="M472 -80C583 -80 646 3 646 114C646 232 563 367 461 473L402 429C476 360 567 214 567 119C567 55 533 -11 469 -11C435 -11 398 -5 365 4V-71C398 -77 435 -80 472 -80ZM84 -3C122 16 157 41 202 70C220 82 246 83 261 80C278 76 289 58 306 -3L463 91L436 126L336 85C331 111 317 131 279 140C327 189 372 245 412 301L355 333C268 215 156 109 45 69ZM111 259C280 317 486 412 567 511L490 541C431 465 234 374 78 324ZM911 -15 962 44C835 111 663 177 454 246L433 184C630 119 791 56 911 -15ZM581 208C695 241 778 265 875 315L827 369C740 323 669 296 556 264ZM235 481H765V550H235ZM317 687 393 713C376 751 348 800 317 840L245 817C273 778 303 725 317 687ZM89 624H911V693H89ZM668 664C697 709 733 776 756 823L673 844C658 798 628 731 600 683Z" transform="translate(0, 880) scale(1,-1)" /></svg>