<svg xmlns="http://www.w3.org/2000/svg" width="1000" height="1000"><path d="M117 -26C330 93 580 256 699 346L658 399L630 391H224V321H556C444 246 265 138 67 38ZM511 -65C566 -65 613 -56 674 -31V48C612 19 567 5 525 5C502 5 491 9 491 37V205H412V20C412 -41 444 -65 511 -65ZM902 -29 955 33C856 95 733 166 626 216L579 162C685 109 805 38 902 -29ZM98 463H902V533H98ZM646 531 685 589C570 633 473 662 343 680L318 620C448 597 543 571 646 531ZM595 606C675 648 786 715 847 760L800 807L783 802H170V735H686C637 699 576 664 513 633Z" transform="translate(0, 880) scale(1,-1)" /></svg>