<svg xmlns="http://www.w3.org/2000/svg" width="1000" height="1000"><path d="M606 -71C773 -71 904 48 904 248C904 465 736 560 588 559C408 558 308 529 89 416L128 342C339 473 443 480 577 480C682 480 825 406 825 248C825 89 716 2 599 2C551 2 511 6 464 17V-58C509 -67 548 -71 606 -71ZM286 46C380 46 606 248 675 366L613 422C570 339 375 132 294 132C279 132 264 157 253 209L181 190C193 133 228 46 286 46ZM572 93 625 147C571 219 469 318 397 373L348 322C419 268 522 160 572 93ZM249 585 324 615C299 669 251 741 191 800L120 770C178 710 225 641 249 585ZM458 498H540V840H458ZM738 579C789 633 839 706 882 781L801 805C772 737 722 659 673 603Z" transform="translate(0, 880) scale(1,-1)" /></svg>