<svg xmlns="http://www.w3.org/2000/svg" width="1000" height="1000"><path d="M899 -84 938 -7C657 59 530 242 289 242C169 242 85 181 85 91C85 2 162 -53 267 -53C521 -53 791 165 791 287C791 398 706 446 511 446C409 446 304 429 213 402L246 327C316 354 419 372 511 372C639 372 703 345 703 287C703 194 455 21 267 21C199 21 168 49 168 91C168 132 223 169 289 169C498 169 621 -15 899 -84ZM429 393H515V840H429ZM82 489H165V536C272 613 456 646 615 646C776 646 832 626 832 600C832 571 825 548 806 523L888 492C909 526 918 553 918 601C918 700 802 723 615 723C425 723 272 672 165 589V707H82Z" transform="translate(0, 880) scale(1,-1)" /></svg>