<svg xmlns="http://www.w3.org/2000/svg" width="1000" height="1000"><path d="M599 -55C759 -46 918 4 918 130C918 212 871 273 770 261L890 437L835 499C578 501 314 418 314 258C314 175 355 133 424 133C480 133 540 169 585 250C645 353 782 574 853 732L796 765L783 752H540V688H750C705 586 577 373 520 275C502 243 458 207 427 207C402 207 384 218 384 258C384 354 600 426 803 426C777 376 729 307 677 240L710 183C797 204 843 182 843 130C843 66 692 16 568 24ZM90 -58 312 99 288 160 65 15ZM198 40 302 465 248 499 231 483H60V410H220L137 49ZM251 591 298 651C260 693 182 758 123 803L78 749C139 702 216 634 251 591ZM416 474C522 593 567 671 623 821L550 841C505 707 449 618 360 534Z" transform="translate(0, 880) scale(1,-1)" /></svg>