<svg xmlns="http://www.w3.org/2000/svg" width="1000" height="1000"><path d="M56 -45H946V27H479C535 84 573 164 573 229C573 308 524 358 451 358C394 358 334 312 334 241C334 171 379 128 461 128C597 128 753 213 753 357C753 456 675 546 518 546C467 546 433 537 394 520C489 577 560 632 653 713H917V785H80V713H547C452 624 374 557 230 469C201 451 170 433 142 415L197 348C321 444 420 472 515 472C638 472 678 397 678 350C678 241 532 192 466 192C419 192 396 215 396 245C396 272 416 292 451 292C489 292 504 264 504 229C503 143 460 72 387 27H56ZM870 360 950 380C936 458 909 536 867 610L798 583C838 515 858 443 870 360Z" transform="translate(0, 880) scale(1,-1)" /></svg>