<svg xmlns="http://www.w3.org/2000/svg" width="1000" height="1000"><path d="M99 -17C211 24 401 121 540 236H444C352 173 175 87 61 52ZM0.0 0.0Q0 0 0.0 0.0Q0 0 0.0 0.0ZM501 -65C556 -65 603 -57 664 -34V40C602 13 555 0 513 0C490 0 479 4 479 30V196H408V14C408 -43 438 -65 501 -65ZM74 236H929V309H74ZM140 515C203 611 243 725 266 829L192 840C170 733 129 629 73 549ZM902 -32 955 26C856 84 733 149 626 196L579 146C685 96 805 31 902 -32ZM354 309H436L435 695H354ZM179 391H860V455H179ZM226 535H860V599H226ZM591 309H673L672 695H591ZM214 695H924V763H214Z" transform="translate(0, 880) scale(1,-1)" /></svg>