<svg xmlns="http://www.w3.org/2000/svg" width="1000" height="1000"><path d="M118 -81C147 12 160 149 160 263V422H446V493H310V616H472V690H310V842H237V690H71V616H237V493H92V278C92 158 78 29 49 -58ZM319 43C382 43 461 88 461 192C461 299 395 354 306 354C240 354 169 334 123 308L140 235C178 264 247 283 306 283C367 283 393 232 393 192C393 133 356 107 319 107C287 107 272 135 272 163C272 193 289 236 367 296L302 315C236 256 207 203 207 163C207 95 251 43 319 43ZM505 555H945V626H505ZM617 618 684 647C670 709 641 784 612 841L548 810C575 755 605 674 617 618ZM817 602C848 666 881 752 901 814L827 843C810 778 778 680 753 618ZM540 220H946V292H591C632 364 671 464 694 556H612C600 494 560 359 528 311C512 285 503 280 490 274L519 209ZM744 -87C789 -87 816 -68 816 -8V455H742V4C742 -12 736 -17 717 -17C683 -17 634 -10 588 6V-74C639 -83 692 -87 744 -87Z" transform="translate(0, 880) scale(1,-1)" /></svg>