<svg xmlns="http://www.w3.org/2000/svg" width="1000" height="1000"><path d="M644 405C840 405 903 470 903 528C903 625 741 651 613 651C453 651 258 608 141 529L163 465C284 542 451 584 612 584C724 584 821 568 821 528C821 486 735 465 613 465C568 465 522 478 477 496L444 437C511 416 577 405 644 405ZM84 -3C122 16 157 41 202 70C220 82 246 83 261 80C278 76 289 58 306 -3L463 91L436 126L336 85C331 111 317 131 279 140C327 189 372 245 412 301L355 333C268 215 156 109 45 69ZM472 -80C583 -80 646 3 646 114C646 232 563 367 461 473L402 429C476 360 567 214 567 119C567 55 533 -11 469 -11C435 -11 398 -5 365 4V-71C398 -77 435 -80 472 -80ZM111 265C280 323 486 418 567 517L490 541C431 465 234 374 78 324ZM911 -15 962 44C835 111 663 177 454 246L433 184C630 119 791 56 911 -15ZM102 538C217 607 333 707 420 828L341 844C286 762 185 663 52 590ZM581 208C695 241 778 265 875 315L827 369C740 323 669 296 556 264ZM534 586C589 645 628 691 660 743L609 777L597 773H298V713H554C536 686 504 648 482 626Z" transform="translate(0, 880) scale(1,-1)" /></svg>