<svg xmlns="http://www.w3.org/2000/svg" width="1000" height="1000"><path d="M519 370H633C705 404 748 454 748 501C748 567 664 614 517 614C347 614 252 581 252 515C252 460 321 418 437 418C515 418 554 454 554 492V839H473V509C473 483 448 474 418 474C385 474 337 492 337 515C337 539 379 555 517 555C611 555 663 527 663 500C663 467 641 425 519 370ZM0.0 0.0Q0 0 0.0 0.0Q0 0 0.0 0.0ZM77 12C195 59 394 163 540 301H440C344 225 157 126 37 86ZM481 -65C536 -65 583 -55 644 -26V61C582 27 537 11 495 11C472 11 461 16 461 48V247H382V33C382 -37 414 -65 481 -65ZM78 301H930V370H78ZM907 -37 955 33C857 114 745 189 649 239L614 184C709 129 814 49 907 -37ZM95 665H912V733H95Z" transform="translate(0, 880) scale(1,-1)" /></svg>