<svg xmlns="http://www.w3.org/2000/svg" width="1000" height="1000"><path d="M324 637 392 671C373 715 330 780 287 828L224 798C265 748 307 682 324 637ZM600 637 666 609C711 671 759 751 792 808L711 833C686 775 640 693 600 637ZM119 569H881V643H119ZM939 242 959 320C738 348 444 349 55 319V247C439 274 734 268 939 242ZM741 499 686 551C622 497 539 445 468 408V23C468 5 453 -9 428 -9C375 -9 320 -2 266 16V-65C323 -78 370 -81 441 -81C493 -81 547 -48 547 11V371C612 407 680 451 741 499Z" transform="translate(0, 880) scale(1,-1)" /></svg>