<svg xmlns="http://www.w3.org/2000/svg" width="1000" height="1000"><path d="M102 -77C218 85 237 331 236 501L234 729H759C761 202 763 -70 894 -70C949 -70 966 -25 973 110L918 121C916 44 910 10 894 10C827 10 832 325 835 802H160V501C160 341 150 118 41 -35ZM419 98H627C683 98 709 156 718 228L652 254C646 201 633 163 597 163H410C375 163 366 167 366 179C366 193 498 291 681 404L649 474L629 464L323 462V395L547 396C382 291 291 227 291 169C291 116 338 98 419 98ZM328 569H663V635H328Z" transform="translate(0, 880) scale(1,-1)" /></svg>