<svg xmlns="http://www.w3.org/2000/svg" width="1000" height="1000"><path d="M222 -76C322 -76 399 15 399 151C399 261 375 403 241 522L186 485C312 365 322 218 322 151C322 60 286 -3 222 -3C178 -2 143 23 143 82C143 181 267 302 538 376C514 264 498 146 498 34C498 -47 518 -68 623 -68H809C914 -68 935 -26 947 94L874 117C867 20 859 -3 803 -3H639C583 -3 570 6 570 43C570 167 586 276 610 400L627 408L599 465C212 357 69 221 69 82C69 -29 130 -76 222 -76ZM709 68C779 129 843 196 902 275L835 306C790 234 731 163 668 105ZM672 231C720 277 778 345 825 411L758 443C725 381 680 317 632 270ZM104 448C254 481 366 515 503 567C612 608 702 649 789 647C829 646 852 624 852 600C852 577 829 545 789 545C666 545 671 667 636 781H77V707H571C599 609 627 478 789 478C870 478 921 532 921 600C921 665 866 715 789 715C671 715 587 676 477 630C341 573 228 543 80 511Z" transform="translate(0, 880) scale(1,-1)" /></svg>