<svg xmlns="http://www.w3.org/2000/svg" width="1000" height="1000"><path d="M52 -48H949V20H52ZM58 561H944V630H58ZM149 717C373 721 649 737 847 771L807 834C649 806 366 787 133 781ZM572 171V524H497V189C497 160 470 148 442 148C418 148 377 170 377 196C377 224 412 241 531 241C616 241 652 209 652 179C652 140 642 84 533 20H636C700 60 739 126 739 181C739 255 663 309 531 309C379 309 294 272 294 196C294 133 355 85 459 85C530 85 572 128 572 171ZM311 371H847L848 438H291C355 537 410 635 451 746L374 769C341 664 288 556 248 493C227 458 203 433 184 429C193 409 206 372 209 357C219 365 254 371 311 371Z" transform="translate(0, 880) scale(1,-1)" /></svg>