<svg xmlns="http://www.w3.org/2000/svg" width="1000" height="1000"><path d="M644 52C809 110 919 163 919 266C919 336 881 391 789 391C775 391 761 388 750 385L873 557L819 605L798 595C546 586 288 518 288 364C288 291 332 262 384 262C539 262 653 485 678 728H919V794H356V728H608C588 521 490 333 384 333C369 333 356 342 357 364C361 470 592 529 778 529C741 470 714 423 672 374C666 366 651 355 633 347L665 290C705 315 748 326 782 326C823 326 848 307 848 267C848 196 732 153 596 121ZM0.0 0.0Q0 0 0.0 0.0Q0 0 0.0 0.0ZM141 -62H212V691H304V759H42V691H141ZM654 -71 720 -38C677 39 617 135 561 215L501 176C557 100 614 9 654 -71Z" transform="translate(0, 880) scale(1,-1)" /></svg>