<svg xmlns="http://www.w3.org/2000/svg" width="1000" height="1000"><path d="M706 -70C811 -70 870 45 870 273C870 440 758 554 578 554C410 554 300 500 225 449V368C321 446 425 474 578 474C724 474 792 380 792 273C792 97 748 2 706 2C656 2 623 7 593 19V-63C624 -68 656 -70 706 -70ZM192 653H804V730H192ZM148 67C148 -8 202 -57 277 -57H521V20H289C250 20 225 46 225 88V817H148ZM312 79C476 177 646 300 716 369L648 418C580 345 417 221 261 129ZM655 86 707 148C614 221 459 319 344 374L296 321C417 260 568 161 655 86Z" transform="translate(0, 880) scale(1,-1)" /></svg>