<svg xmlns="http://www.w3.org/2000/svg" width="1000" height="1000"><path d="M57 -64H955V10H57ZM563 1H653C722 42 782 111 782 167C782 242 714 317 512 317C321 317 209 262 209 192C209 115 283 83 390 83C522 83 594 133 594 270V644H514V283C514 181 461 150 390 150C320 150 290 172 290 192C290 218 359 247 512 247C657 247 695 194 695 163C695 129 649 57 563 1ZM109 396H913V468H109ZM68 499C202 590 331 698 434 833L356 862C269 744 146 633 16 553ZM555 722C483 658 385 585 290 537L341 483C461 559 606 672 690 749L638 793L619 786H297V722Z" transform="translate(0, 880) scale(1,-1)" /></svg>