<svg xmlns="http://www.w3.org/2000/svg" width="1000" height="1000"><path d="M914 -54 937 27C644 4 421 5 279 48C193 74 134 144 108 238L31 216C66 88 143 10 249 -21C397 -64 616 -76 914 -54ZM264 90C450 174 581 286 715 419L655 469L630 439H408C465 479 521 530 567 584H469C414 523 343 462 257 422L304 355L324 369H555C456 274 348 209 207 147ZM821 67 882 119C828 173 751 239 673 301L625 249C701 187 771 121 821 67ZM365 656 440 686C418 724 375 789 340 837L271 812C304 763 346 696 365 656ZM150 584H889V653H150ZM645 620C697 688 742 757 775 815L691 840C665 784 622 707 583 653Z" transform="translate(0, 880) scale(1,-1)" /></svg>