<svg xmlns="http://www.w3.org/2000/svg" width="1000" height="1000"><path d="M526 -80C759 -80 914 8 914 144C914 258 814 351 603 351C533 351 475 343 415 329C539 397 682 480 783 542L731 601L707 592H253V521H604C508 451 385 369 289 312C265 298 229 283 181 273L232 213C338 257 456 283 579 283C744 283 826 226 826 144C826 27 646 -20 521 -20C434 -20 375 0 375 40C375 69 413 94 462 94C539 94 592 59 606 -29L685 -15C666 90 592 158 463 158C362 158 289 98 289 40C289 -30 377 -80 526 -80ZM131 712H892V783H131Z" transform="translate(0, 880) scale(1,-1)" /></svg>