<svg xmlns="http://www.w3.org/2000/svg" width="1000" height="1000"><path d="M877 536C914 574 923 604 923 646C923 737 859 807 618 807C404 807 206 762 70 694L108 623C232 684 430 735 618 735C778 735 844 707 844 646C844 621 836 600 812 576ZM191 222 216 231H874V303H274C348 405 422 529 487 658L409 680C348 549 274 418 202 308C194 297 179 288 160 281ZM139 -47C204 6 274 86 319 164L251 189C212 120 148 49 81 0ZM492 -71C554 -71 583 -58 583 0V449H155V377H507V2C507 -10 499 -14 483 -15C454 -16 414 -11 360 2V-61C400 -69 443 -71 492 -71ZM866 -38 927 3C889 56 805 134 734 191L677 153C748 96 830 12 866 -38ZM138 520H772V593H138Z" transform="translate(0, 880) scale(1,-1)" /></svg>