<svg xmlns="http://www.w3.org/2000/svg" width="1000" height="1000"><path d="M554 211C554 281 508 312 392 312C284 312 230 275 230 237C230 187 305 154 473 154C714 154 897 222 897 308C897 380 800 435 589 435C519 435 437 429 377 421C419 451 475 516 509 567L427 580C399 527 341 454 279 412L251 405L302 348C374 364 446 376 569 376C734 376 816 354 816 308C816 251 604 213 473 213C356 213 316 224 316 237C316 252 336 260 391 260C442 260 472 250 472 212C472 143 321 28 101 -20L154 -79C356 -23 554 118 554 211ZM287 652 308 594C386 611 493 627 603 627C732 627 778 608 778 580C778 537 732 509 417 531V476C798 450 858 509 858 580C858 651 780 686 603 686C479 686 365 668 287 652ZM499 668 545 639C635 682 717 735 759 768L696 805L673 793H336V735H608C580 714 543 692 499 668ZM165 590C261 640 384 742 438 829L361 844C307 757 203 680 115 641ZM680 -68H807C920 -68 933 -7 945 88L876 110C868 14 859 -6 811 -6H669C628 -6 617 -1 617 20V122H543V-4C543 -53 580 -68 680 -68Z" transform="translate(0, 880) scale(1,-1)" /></svg>