<?xml version="1.0" encoding="UTF-8"?>
<svg xmlns="http://www.w3.org/2000/svg" viewBox="0 0 2000 1000"><path fill="currentColor" d="M698,531v-88h-510v88ZM698,386v-86h-510v86ZM774,591h-296v97h413v68h-413v164h-75v-164h-403v-68h403v-97h-287v-351h658ZM235,2h73v74h270v-74h73v74h234v68h-234v77h-73v-77h-270v77h-73v-77h-229v-68h229ZM1696,839v-64h-495v64ZM1696,665h-495v61h495ZM1771,923h-75v-31h-495v33h-73v-312h643ZM1403,451h-336v-51h336v-56h-308v-50h308v-60h-402v-56h402v-57h-297v-50h297v-71h75v71h288v107h123v56h-123v110h-288v56h344v51h-344v58h411v57h-890v-57h404ZM1692,178v-57h-214v57ZM1692,234h-214v60h214Z"></path></svg>