<?xml version="1.0" encoding="UTF-8"?>
<svg xmlns="http://www.w3.org/2000/svg" viewBox="0 0 2000 1000"><path fill="currentColor" d="M269,197l68-34c-19-44-62-109-105-157l-63,30c41,50,83,116,100,161ZM611,225c45-62,93-142,126-199l-81-25c-25,58-71,140-111,196ZM826,265v-74h-762v74ZM884,592l20-78c-221-28-515-29-904,1v72c384-27,679-21,884,5ZM686,335l-55-52c-64,54-147,106-218,143v385c0,18-15,32-40,32c-53,2-108-7-162-25v81c57,13,104,16,175,16c52,0,106-33,106-92v-360c65-36,133-80,194-128ZM1787,643c47-109,87-228,117-355l-68-17l-14,13l-822,90l10,81l790-90c-24,87-51,166-87,257ZM1101,859h730v-80h-730ZM1423,809l85-7l-80-802l-85,7Z"></path></svg>