<svg xmlns="http://www.w3.org/2000/svg" width="1000" height="1000"><path d="M394 410 469 380C525 505 558 676 570 833L488 837C478 683 447 525 394 410ZM86 601 118 527C245 575 455 627 635 627C763 627 834 604 834 568C834 532 822 501 803 474L881 441C902 477 916 512 916 568C916 674 790 708 635 708C418 708 217 654 86 601ZM315 -6 371 -80C658 15 802 114 802 255C802 385 707 439 554 439C467 439 366 427 297 408L314 324C378 343 472 359 554 359C656 359 720 326 720 255C720 140 580 70 315 -6Z" transform="translate(0, 880) scale(1,-1)" /></svg>