<svg xmlns="http://www.w3.org/2000/svg" width="1000" height="1000"><path d="M156 537 187 463 208 471H866V549H297C357 620 429 718 487 814L409 847C355 747 268 627 208 562C198 551 178 541 156 537ZM64 23 128 -28C247 84 334 218 377 337L301 359C255 240 183 125 64 23ZM455 -71C528 -71 567 -43 567 25V621H487V47C487 19 477 7 442 7C398 7 360 11 315 25V-60C362 -67 416 -71 455 -71ZM924 -4 955 75C731 149 509 207 282 249L263 176C489 136 714 71 924 -4ZM92 306H908V384H92ZM98 669H902V747H98Z" transform="translate(0, 880) scale(1,-1)" /></svg>