<svg xmlns="http://www.w3.org/2000/svg" width="1000" height="1000"><path d="M224 462 294 424C348 472 400 531 458 619L383 651C331 568 276 507 224 462ZM90 602H850V682H90ZM678 327V47H758V388L701 419L678 407C417 393 97 275 97 91C97 7 152 -51 267 -51C431 -51 553 74 553 242C553 381 516 490 348 490C278 490 224 474 183 455L209 380C242 396 292 410 348 410C432 410 472 349 472 242C472 115 393 29 267 29C200 29 178 53 178 91C178 207 433 314 678 327ZM859 157 619 45 656 -26 896 86ZM469 638 548 659C531 710 501 770 470 817L394 795C422 749 455 686 469 638Z" transform="translate(0, 880) scale(1,-1)" /></svg>