<svg xmlns="http://www.w3.org/2000/svg" width="1000" height="1000"><path d="M134 -33 217 -62C306 73 325 187 331 362H251C243 183 228 98 134 -33ZM618 -68C793 -68 808 88 808 222C808 302 787 368 599 368C519 368 421 360 312 345L315 268C436 284 517 288 599 288C709 288 728 265 728 222C728 135 715 9 608 9C556 9 501 15 452 25V-57C501 -63 552 -68 618 -68ZM659 119 662 196 370 202 366 124ZM201 401C335 401 437 474 437 620C437 719 391 807 243 807C178 807 115 794 75 776L98 698C135 714 192 727 245 727C323 727 357 691 357 620C357 531 292 481 203 481C175 481 158 490 158 512C158 613 512 736 694 736C784 736 828 707 828 645C828 555 781 511 663 511C624 511 556 521 483 539V455C555 441 612 431 669 431C841 431 909 519 909 645C909 754 848 816 694 816C467 816 78 672 78 511C78 441 134 401 201 401ZM436 348 507 314C584 393 637 478 686 587L606 609C560 500 507 418 436 348Z" transform="translate(0, 880) scale(1,-1)" /></svg>