<svg xmlns="http://www.w3.org/2000/svg" width="1000" height="1000"><path d="M622 0 650 -79C829 -68 913 6 913 123C913 228 806 283 520 283C212 283 86 221 86 109C86 -28 239 -59 377 -59C489 -59 549 -5 550 98L553 538H473L474 112C474 48 439 21 377 21C282 21 167 34 167 109C167 163 279 203 520 203C735 203 832 172 832 123C832 58 789 9 622 0ZM152 425 186 348 212 358H827V437H267C299 487 341 558 370 614L286 634C262 577 221 496 193 455C178 436 165 428 152 425ZM312 659 390 690C373 731 336 794 301 840L227 815C259 770 292 709 312 659ZM83 600H924V679H83ZM625 664 688 634C725 691 764 763 791 821L706 844C688 792 654 716 625 664Z" transform="translate(0, 880) scale(1,-1)" /></svg>