<svg xmlns="http://www.w3.org/2000/svg" width="1000" height="1000"><path d="M349 527 407 465C566 548 711 651 821 750L767 800L750 793H169V713H651C567 646 474 588 349 527ZM676 -70C848 -70 924 71 924 283C924 486 807 560 603 560C420 560 225 510 113 464L143 389C261 436 445 479 603 479C766 479 842 404 842 283C842 109 787 8 672 8C601 8 544 18 498 31V-55C543 -66 593 -70 676 -70ZM243 139 300 80C457 174 629 315 689 384L624 437C566 366 399 227 243 139ZM607 106 662 172C572 241 436 332 342 381L291 323C390 269 525 178 607 106Z" transform="translate(0, 880) scale(1,-1)" /></svg>