<svg xmlns="http://www.w3.org/2000/svg" width="1000" height="1000"><path d="M103 523H897V603H103ZM58 -46H950V34H58ZM411 10 521 -16C594 35 654 144 654 280C654 369 587 420 480 420C373 420 306 369 306 280C306 191 373 140 480 140C508 140 531 144 552 153C530 90 469 29 411 10ZM480 216C423 216 392 241 392 280C392 319 423 344 480 344C537 344 568 319 568 280C568 241 537 216 480 216ZM641 660 675 738C605 765 454 813 350 839L318 769C416 746 570 690 641 660ZM610 562H530V387L610 312Z" transform="translate(0, 880) scale(1,-1)" /></svg>