<svg xmlns="http://www.w3.org/2000/svg" width="1000" height="1000"><path d="M65 40 117 -26C330 93 583 251 704 341L656 404L635 396H224V316H540C428 241 259 139 65 40ZM511 -65C566 -65 613 -55 674 -28V57C612 26 567 12 525 12C502 12 492 15 492 46V205H412V28C412 -38 444 -65 511 -65ZM901 -30 957 35C858 97 735 168 628 218L578 161C684 108 804 37 901 -30ZM98 458H902V538H98ZM644 525 687 596C572 640 472 665 345 687L316 614C446 591 541 565 644 525ZM496 637 582 592C665 636 781 705 844 752L800 813L783 808H170V728H660C609 695 557 667 496 637Z" transform="translate(0, 880) scale(1,-1)" /></svg>