<svg xmlns="http://www.w3.org/2000/svg" width="1000" height="1000"><path d="M513 744H131V470C131 325 121 122 33 -23L103 -60C196 92 207 317 207 470V666H943V744H598L548 845L473 827ZM401 404V324C754 293 872 357 872 469C872 550 809 609 594 609C446 609 327 580 255 546L289 473C361 507 462 531 594 531C724 531 792 512 792 469C792 404 695 365 401 404ZM230 -57H919V21H230ZM592 16 665 -29C726 18 764 79 764 150C764 238 689 279 569 279C455 279 372 242 372 166C372 92 429 53 515 53C585 53 617 99 617 149V480H537V174C537 144 530 133 507 133C477 133 452 145 452 166C452 191 493 204 569 204C638 204 684 184 684 150C684 102 651 59 592 16Z" transform="translate(0, 880) scale(1,-1)" /></svg>