<svg xmlns="http://www.w3.org/2000/svg" width="1000" height="1000"><path d="M474 -61C712 -61 895 55 895 232C895 381 810 494 578 494C524 494 485 491 437 482C565 563 672 641 805 747L751 811L728 800H151V720H641C556 646 402 531 286 460C262 445 231 435 197 424L242 344C332 389 471 414 578 414C728 414 814 340 814 232C814 80 632 19 474 19C382 19 328 44 328 96C328 138 359 163 417 163C496 163 546 111 559 5L638 22C618 155 545 243 417 243C317 243 248 187 248 96C248 5 330 -61 474 -61Z" transform="translate(0, 880) scale(1,-1)" /></svg>