<svg xmlns="http://www.w3.org/2000/svg" width="1000" height="1000"><path d="M238 449H762V527H238ZM499 692 574 712C559 758 531 811 502 852L429 831C455 791 486 735 499 692ZM811 522 890 493C913 544 923 575 923 607C923 694 818 738 587 738C416 738 265 707 166 666V722H82V511H166V596C278 633 433 657 587 657C782 657 836 634 836 602C836 581 831 561 811 522ZM259 -78H816C886 -78 913 -33 932 89L853 99C845 20 827 0 794 0H293C274 0 260 5 260 15C260 30 280 47 852 287L806 359L785 349H142V271L601 272C162 87 133 58 133 3C133 -42 158 -78 259 -78Z" transform="translate(0, 880) scale(1,-1)" /></svg>