<svg xmlns="http://www.w3.org/2000/svg" width="1000" height="1000"><path d="M928 -54 952 31C654 8 427 9 283 52C196 78 135 144 109 238L31 216C66 88 144 10 253 -21C403 -64 625 -76 928 -54ZM734 529C714 487 689 446 657 403L701 337C811 360 851 325 851 281C851 212 638 168 440 150L481 70C690 103 933 142 933 282C933 389 852 430 757 418L855 577L785 622L771 611C269 579 153 429 153 345C153 280 195 234 272 234C419 234 604 494 758 777L691 821L668 807H212V728H635C531 524 362 314 272 314C245 314 233 326 233 345C233 381 313 496 734 529Z" transform="translate(0, 880) scale(1,-1)" /></svg>