<svg xmlns="http://www.w3.org/2000/svg" width="1000" height="1000"><path d="M362 29 419 -27C546 53 666 187 666 342C666 431 613 505 500 505C382 505 339 438 339 364C339 272 405 216 543 216C755 216 887 332 887 538C887 699 790 809 555 809C332 809 228 724 155 659L207 593C278 655 379 728 555 728C721 728 806 654 806 538C806 394 709 296 543 296C455 296 419 321 419 364C419 399 446 425 500 425C550 425 586 396 586 342C586 220 472 105 362 29ZM93 -41H937V39H93ZM152 285H232V773H152Z" transform="translate(0, 880) scale(1,-1)" /></svg>