<svg xmlns="http://www.w3.org/2000/svg" width="1000" height="1000"><path d="M536 10 619 -28C684 15 754 87 754 146C754 231 681 269 532 269C368 269 289 235 289 160C289 96 346 48 459 48C532 48 572 90 572 129V346H492V164C492 138 472 126 440 126C403 126 369 140 369 160C369 180 409 191 532 191C628 191 673 173 673 146C673 111 632 61 536 10ZM66 -58H934V20H66ZM87 208 159 167C234 264 284 346 352 479L275 504C209 374 156 291 87 208ZM51 553 118 512C204 615 252 713 296 826L216 848C179 738 131 649 51 553ZM246 308H847V386H246ZM360 530 437 554C424 589 399 637 372 676L296 655C322 619 346 574 360 530ZM166 461H901V539H166ZM207 683H893V761H208ZM612 549 684 528C744 619 718 577 766 658L676 680C663 638 640 587 612 549Z" transform="translate(0, 880) scale(1,-1)" /></svg>