<svg xmlns="http://www.w3.org/2000/svg" width="1000" height="1000"><path d="M451 -75C515 -75 549 -48 549 29V734H469V38C469 10 461 1 426 1C386 1 339 12 283 28V-59C331 -68 387 -75 451 -75ZM257 405 332 432C316 489 275 579 234 647L156 625C197 554 241 463 257 405ZM939 264 959 347C738 376 444 377 55 346V270C439 298 734 291 939 264ZM119 761 136 680C373 686 664 717 858 756L819 829C655 796 360 770 119 761ZM670 432 737 407C776 466 826 561 865 640L777 667C752 595 708 494 670 432Z" transform="translate(0, 880) scale(1,-1)" /></svg>