<svg xmlns="http://www.w3.org/2000/svg" width="1000" height="1000"><path d="M70 615 98 545C239 595 425 688 556 777L493 837C384 757 207 662 70 615ZM662 481C791 481 844 438 844 386C844 306 772 243 580 189L607 109C821 174 928 244 928 386C928 488 849 563 662 563C323 563 73 378 73 214C73 102 145 58 235 58C336 58 464 147 464 315C464 459 405 574 271 669L226 604C355 505 383 406 383 315C383 199 304 138 235 138C181 138 153 168 153 214C153 335 368 481 662 481ZM557 -81H637V377H557Z" transform="translate(0, 880) scale(1,-1)" /></svg>