<svg xmlns="http://www.w3.org/2000/svg" width="1000" height="1000"><path d="M643 -70C810 -70 910 79 910 252C910 461 769 537 567 537C489 537 430 528 378 515C449 576 530 676 594 802L513 831C460 705 382 604 269 502C252 487 203 470 146 449L190 378C299 422 420 456 559 456C715 456 829 423 829 252C829 118 759 11 635 11C577 11 519 19 463 36V-53C517 -63 578 -70 643 -70ZM104 618H896V698H104ZM252 287H718V362H252ZM535 126V428H456L458 146C458 129 452 119 442 119C413 119 377 125 336 141V60C371 52 411 47 453 47C512 47 535 74 535 126ZM235 164H735V239H235Z" transform="translate(0, 880) scale(1,-1)" /></svg>