<svg xmlns="http://www.w3.org/2000/svg" width="1000" height="1000"><path d="M504 -68C707 -68 839 34 839 175C839 303 723 372 548 372C478 372 409 361 349 339C421 444 459 599 501 822L420 832C381 615 344 447 245 304C232 285 190 256 151 223L217 169C307 245 407 293 548 293C670 293 758 257 758 175C758 81 669 10 495 10C425 10 392 27 392 67C392 94 416 112 454 112C513 112 562 83 581 -2L659 20C621 122 561 190 454 190C365 190 309 129 309 67C309 -17 374 -68 504 -68ZM62 457H929V537H62ZM126 635H870V713H126Z" transform="translate(0, 880) scale(1,-1)" /></svg>