<svg xmlns="http://www.w3.org/2000/svg" width="1000" height="1000"><path d="M174 632 189 569C291 611 426 637 576 637C737 637 803 596 803 479C803 334 776 289 737 289C704 289 671 294 626 312V231C666 219 703 213 737 213C847 213 884 288 884 479C884 624 810 716 576 716C417 716 271 680 174 632ZM501 707 544 782C461 807 345 834 251 849L226 779C315 763 423 733 501 707ZM285 495H715V573H285ZM548 316V683H468L470 329C470 313 464 305 449 305C416 305 381 314 339 328V245C384 235 423 229 460 229C530 229 548 256 548 316ZM285 365H715V443H285ZM55 -26 106 -93C215 -49 339 10 414 73L338 126C281 73 166 11 55 -26ZM67 127H933V205H67ZM877 -93 939 -31C871 15 750 79 650 128L595 68C693 18 812 -45 877 -93ZM223 223V701H143V223Z" transform="translate(0, 880) scale(1,-1)" /></svg>