<svg xmlns="http://www.w3.org/2000/svg" width="1000" height="1000"><path d="M912 -81 954 -11C697 85 488 275 317 275C199 275 90 227 90 109C90 11 149 -56 273 -56C501 -56 840 182 840 301C840 412 741 439 598 439C465 439 348 428 243 415V637H163V406L153 392L170 328C304 347 435 358 598 358C704 358 757 345 757 301C757 209 440 25 273 25C204 25 171 57 171 109C171 163 218 195 317 195C460 195 646 20 912 -81ZM690 508C796 508 825 603 842 789L779 809L760 798H160V718H756C746 631 728 589 681 589C581 589 512 600 434 615V529C510 516 587 508 690 508Z" transform="translate(0, 880) scale(1,-1)" /></svg>