<svg xmlns="http://www.w3.org/2000/svg" width="1000" height="1000"><path d="M343 46 424 10C465 51 508 120 508 176C508 258 458 296 355 296C241 296 189 261 189 190C189 128 228 82 309 82C368 82 395 123 395 160V368H316V194C316 169 311 159 295 159C277 159 268 171 268 190C268 209 284 218 355 218C415 218 429 202 429 176C429 143 403 95 343 46ZM93 -69 583 21 568 98 78 8ZM62 234 136 198C183 291 214 370 257 497L180 517C139 392 105 313 62 234ZM40 563 110 528C164 627 194 721 222 829L143 845C120 740 90 655 40 563ZM176 330H552V408H176ZM233 544 309 567C301 600 285 646 268 683L193 663C209 629 224 586 233 544ZM126 477H585V555H126ZM151 689H593V767H152ZM392 562 465 542C502 629 486 589 516 666L432 687C423 647 409 598 392 562Z" transform="translate(0, 880) scale(1,-1)" /></svg>