<svg xmlns="http://www.w3.org/2000/svg" width="1000" height="1000"><path d="M647 -59C814 -59 917 92 917 274C917 475 790 548 588 548C547 548 511 546 476 541C582 601 701 672 799 737L742 800L720 792H176V712H614C529 647 430 588 299 517C279 506 213 481 156 455L200 383C309 435 430 468 569 468C725 468 836 427 836 272C836 147 765 21 641 21C583 21 529 31 473 52V-39C527 -53 582 -59 647 -59ZM100 157 166 95C305 180 413 288 465 407L383 432C337 322 236 230 100 157ZM180 0 244 -62C439 25 612 202 664 405L583 426C529 228 373 80 180 0Z" transform="translate(0, 880) scale(1,-1)" /></svg>