<svg xmlns="http://www.w3.org/2000/svg" width="1000" height="1000"><path d="M261 23 320 -24C407 46 461 122 461 211C461 283 414 326 326 326C241 326 194 282 194 215C194 142 243 102 357 102C533 102 647 160 647 298C647 409 567 464 415 464C279 464 165 431 71 379L104 306C197 356 291 385 415 385C513 385 568 363 568 298C568 206 471 179 357 179C296 179 273 189 273 215C273 239 293 251 326 251C360 251 382 237 382 211C382 154 341 89 261 23ZM193 469 269 492C261 535 237 598 211 648L137 628C162 578 186 510 193 469ZM21 575 94 541C150 630 186 725 209 833L131 845C108 738 76 658 21 575ZM349 489 427 504C424 547 409 616 390 666L315 653C333 601 346 531 349 489ZM138 689H664V767H138ZM484 486 554 464C580 510 613 582 639 644L554 667C539 614 508 535 484 486ZM666 90 55 4 67 -75 678 11Z" transform="translate(0, 880) scale(1,-1)" /></svg>