<svg xmlns="http://www.w3.org/2000/svg" width="1000" height="1000"><path d="M235 699 262 627C372 670 490 694 597 694C718 694 781 665 781 629C781 572 725 518 357 546V467C820 437 862 526 862 629C862 733 761 774 597 774C459 774 344 747 235 699ZM875 -77 910 -2C751 24 597 47 454 65C567 91 677 119 781 147L751 228L719 219C552 239 429 251 288 263L244 190C367 181 476 172 573 161C477 137 392 119 265 94C235 88 198 92 146 95L102 21C366 -4 622 -37 875 -77ZM478 381H558V614H478ZM75 523 146 481C243 571 326 696 371 831L292 846C250 722 168 601 75 523ZM751 413H174V334L604 335C534 305 454 274 357 239L429 189C560 234 704 294 840 362L780 428Z" transform="translate(0, 880) scale(1,-1)" /></svg>