<svg xmlns="http://www.w3.org/2000/svg" width="1000" height="1000"><path d="M249 34 349 6C425 59 465 166 465 263C465 360 416 419 328 419C254 419 193 370 193 282C193 191 257 146 328 146C341 146 353 147 367 152C350 98 308 51 249 34ZM89 -71 660 66 640 144 69 7ZM328 219C298 219 272 245 272 282C272 321 298 343 328 343C359 343 384 321 384 282C384 245 359 219 328 219ZM87 424 157 388C207 466 240 551 262 636L182 657C166 580 137 500 87 424ZM424 323V755H345V388ZM84 715H645V795H84ZM573 388 649 426C627 505 594 580 541 664L474 630C525 543 554 467 573 388Z" transform="translate(0, 880) scale(1,-1)" /></svg>