<svg xmlns="http://www.w3.org/2000/svg" width="1000" height="1000"><path d="M223 595 292 631C271 678 231 747 192 798L125 764C161 715 202 644 223 595ZM483 621 559 648C543 701 512 770 476 829L404 804C436 747 468 675 483 621ZM697 622 763 590C805 646 850 720 882 785L804 816C780 755 736 678 697 622ZM810 342 883 308C907 366 919 404 919 446C919 548 812 592 567 592C383 592 213 556 88 508L117 432C237 478 403 511 567 511C776 511 838 481 838 440C838 413 832 389 810 342Z" transform="translate(0, 880) scale(1,-1)" /></svg>