<svg xmlns="http://www.w3.org/2000/svg" width="1000" height="1000"><path d="M106 250H894V330H106ZM228 434H772V514H228ZM55 -5 111 -67C225 -6 344 77 419 165L338 207C278 130 161 48 55 -5ZM872 -64 940 -8C872 57 751 145 651 213L590 161C688 91 807 2 872 -64ZM501 676 576 697C559 747 529 807 498 853L426 831C454 786 487 723 501 676ZM809 487 888 457C912 510 923 545 923 582C923 676 818 721 587 721C411 721 210 689 101 649L126 574C231 611 429 638 587 638C782 638 836 612 836 576C836 553 830 530 809 487Z" transform="translate(0, 880) scale(1,-1)" /></svg>