<svg xmlns="http://www.w3.org/2000/svg" width="1000" height="1000"><path d="M344 17 463 -10C564 47 611 160 611 263C611 360 557 419 458 419C374 419 306 370 306 282C306 191 378 146 458 146C475 146 490 147 509 152C485 90 427 37 344 17ZM89 -51H911V29H89ZM458 219C419 219 385 245 385 282C385 321 419 343 458 343C497 343 531 321 531 282C531 245 497 219 458 219ZM131 424 202 388C271 466 314 551 346 636L260 657C238 580 199 500 131 424ZM563 323V755H483V388ZM118 715H882V795H118ZM799 388 877 426C847 505 802 580 730 664L663 630C733 543 772 467 799 388Z" transform="translate(0, 880) scale(1,-1)" /></svg>