<svg xmlns="http://www.w3.org/2000/svg" width="1000" height="1000"><path d="M592 33 664 -2C785 120 837 226 837 381C837 503 774 577 650 577C547 577 482 555 405 520L435 446C505 479 574 497 650 497C724 497 756 460 756 381C756 271 707 138 592 33ZM65 -24H935V56H65ZM285 178H511C583 178 622 210 622 269C622 324 588 387 558 428L488 402C521 363 539 324 539 290C539 266 521 258 500 258H290C260 258 248 270 248 289C248 333 284 428 403 627L331 663C205 457 165 352 165 271C165 218 199 178 285 178ZM101 712H899V792H101Z" transform="translate(0, 880) scale(1,-1)" /></svg>