<svg xmlns="http://www.w3.org/2000/svg" width="1000" height="1000"><path d="M541 314H461C461 107 323 28 56 -8L104 -80C387 -37 541 69 541 314ZM93 135H907V213H93ZM886 -84 944 -20C862 29 718 93 588 137L533 81C661 33 808 -36 886 -84ZM99 431 121 358C248 404 438 437 617 437C779 437 814 420 814 396C814 378 805 358 791 337L863 306C879 334 891 363 891 400C891 480 805 516 617 516C391 516 228 487 99 431ZM855 622H145V544H855ZM540 586V843H460V586ZM84 680H916V758H84ZM231 287H769V365H231Z" transform="translate(0, 880) scale(1,-1)" /></svg>