<svg xmlns="http://www.w3.org/2000/svg" width="1000" height="1000"><path d="M168 380 219 340C280 393 339 461 386 531L330 574L313 563H94V485H262C239 449 208 413 168 380ZM81 646H917V726H81ZM504 681 575 720C546 765 517 805 488 840L416 802C448 767 479 725 504 681ZM780 472V8H858V550L793 562L778 550C590 505 408 311 408 130C408 50 451 -11 526 -11C619 -11 677 88 676 227C675 338 637 414 491 414C331 414 60 265 60 71C60 -15 106 -63 180 -63C292 -63 368 66 368 213C368 401 264 423 134 407V329C231 341 290 336 290 213C290 103 249 15 180 15C154 15 138 34 138 71C138 215 364 334 491 334C567 334 598 301 598 227C598 113 563 67 526 67C499 67 486 91 486 130C486 281 638 437 780 472ZM938 41H700V-39H938Z" transform="translate(0, 880) scale(1,-1)" /></svg>