<svg xmlns="http://www.w3.org/2000/svg" width="1000" height="1000"><path d="M355 605C378 657 400 718 419 780L350 811L340 800H61V720H315C302 681 285 635 268 595C297 550 309 516 309 488C311 457 303 440 285 440C261 440 238 450 214 470L198 390C232 370 265 360 304 360C358 360 389 414 389 483C389 540 378 568 355 605ZM166 -68C226 -68 251 -37 251 37V573H173V47C173 24 166 10 151 10C124 10 89 19 53 35V-51C85 -61 125 -68 166 -68ZM23 202 44 124 390 218 369 296Z" transform="translate(0, 880) scale(1,-1)" /></svg>