<svg xmlns="http://www.w3.org/2000/svg" width="1000" height="1000"><path d="M97 52H177V583H97ZM245 428C330 428 376 493 376 749H78V669H296C298 525 257 506 227 506C202 506 180 508 154 516V433C182 429 211 428 245 428ZM342 3 368 -85C625 -46 935 80 935 325C935 422 867 500 682 500C496 500 378 449 378 322C378 242 439 171 535 171C631 171 700 222 700 339V829H620V353C620 283 586 252 535 252C485 252 458 279 458 322C458 385 514 420 682 420C810 420 855 377 855 325C855 126 571 30 342 3ZM66 69 93 -7 364 93 337 169ZM409 594H946V674H409Z" transform="translate(0, 880) scale(1,-1)" /></svg>