<svg xmlns="http://www.w3.org/2000/svg" width="1000" height="1000"><path d="M145 103C145 240 260 372 623 585L589 651C206 434 63 271 63 103C63 -27 135 -76 214 -76C327 -76 422 22 422 200C422 344 372 507 238 652L178 607C304 461 342 321 342 200C342 70 282 2 214 4C174 5 145 37 145 103ZM60 615 89 544C225 597 367 682 498 778L443 840C340 753 184 664 60 615ZM663 221 716 170C794 276 874 413 931 540L856 577C805 448 728 305 663 221ZM636 525 687 479C752 568 806 666 849 761L775 797C738 697 688 601 636 525ZM603 73V586H524V75C524 -36 541 -65 646 -65H809C914 -65 935 -8 947 156L871 168C864 32 856 10 800 10H658C618 10 603 28 603 73Z" transform="translate(0, 880) scale(1,-1)" /></svg>