<svg xmlns="http://www.w3.org/2000/svg" width="1000" height="1000"><path d="M87 634H913V714H561L508 839L430 821L473 714H87ZM520 491C396 491 280 464 169 420L197 341C308 390 413 411 520 411C624 411 656 382 656 334C656 194 394 24 275 24C223 24 187 55 187 115C187 165 222 205 304 205C444 205 619 44 865 -77L918 -15C679 100 476 283 304 283C192 283 105 222 105 115C105 16 172 -56 275 -56C440 -56 737 149 737 334C737 443 675 491 520 491ZM125 390 190 329C302 424 403 542 488 662L415 701C335 581 234 475 125 390ZM866 366 928 422C866 495 797 558 725 613L664 562C738 505 805 440 866 366Z" transform="translate(0, 880) scale(1,-1)" /></svg>