<svg xmlns="http://www.w3.org/2000/svg" width="1000" height="1000"><path d="M77 364H923V443H77ZM293 725 374 746C361 774 336 814 312 842L235 822C256 795 283 752 293 725ZM112 669H895V748H112ZM644 732 717 716C739 747 765 793 783 826L698 845C687 812 665 766 644 732ZM340 392 263 410C213 242 133 95 43 -15L113 -58C203 52 290 225 340 392ZM569 73V302H489V73ZM346 149H712V226H346ZM247 16V-62H913V16ZM255 301 274 224C346 244 447 261 588 261C765 261 800 226 800 188C800 126 732 117 647 117C530 117 439 119 363 125V44C439 40 530 38 647 38C804 38 880 75 880 188C880 283 836 339 588 339C427 339 324 322 255 301ZM522 433 594 375C679 423 761 476 761 548C761 629 702 654 495 654C297 654 218 622 218 554C218 484 272 459 404 459C512 459 540 510 540 558V704H460V574C460 551 438 536 400 536C340 536 303 542 303 554C303 569 353 577 495 577C601 577 678 566 678 548C678 521 604 472 522 433Z" transform="translate(0, 880) scale(1,-1)" /></svg>