<svg xmlns="http://www.w3.org/2000/svg" width="1000" height="1000"><path d="M454 538 511 483C632 557 765 663 844 750L787 805L770 799H191V719H693C640 668 557 602 454 538ZM453 321 423 255C620 180 789 93 911 7L961 92C832 163 662 243 453 321ZM556 357 582 286C695 323 779 350 876 409L827 480C740 427 668 394 556 357ZM459 603 392 558C499 434 564 318 564 191C564 112 546 11 471 11C431 11 393 16 355 33V-53C390 -63 430 -67 475 -67C613 -67 644 65 644 191C644 325 570 471 459 603ZM145 456 114 382 366 290 397 364ZM42 98 75 25 423 179 390 252Z" transform="translate(0, 880) scale(1,-1)" /></svg>