<svg xmlns="http://www.w3.org/2000/svg" width="1000" height="1000"><path d="M354 496V416C829 381 874 497 874 595C874 697 783 766 624 766C482 766 396 734 300 667C330 720 355 775 374 837L290 853C246 714 164 582 69 494L135 446C187 499 219 538 245 576C362 652 505 686 616 686C729 686 789 641 789 595C789 524 732 459 354 496ZM172 3 205 -79C560 -63 884 16 884 206C884 293 804 369 564 369C335 369 154 314 154 199C154 123 239 78 360 78C451 78 561 113 561 210V592H481V221C481 174 428 154 360 154C276 154 241 175 241 199C241 248 345 288 564 288C750 288 797 243 797 206C797 68 465 14 172 3Z" transform="translate(0, 880) scale(1,-1)" /></svg>