<svg xmlns="http://www.w3.org/2000/svg" width="1000" height="1000"><path d="M656 -54C855 -54 921 115 921 266C921 424 816 557 553 557C264 557 67 327 67 133C67 7 147 -28 212 -28C426 -28 564 343 750 772L681 807L665 795H193V715H637C505 393 354 52 212 52C174 52 147 78 147 133C147 290 312 477 553 477C755 477 841 380 841 266C841 159 807 26 656 26C602 26 573 43 573 84C573 116 597 141 638 141C684 141 722 95 754 29L819 68C778 144 725 217 638 217C551 217 495 156 495 84C495 4 540 -54 656 -54Z" transform="translate(0, 880) scale(1,-1)" /></svg>