<svg xmlns="http://www.w3.org/2000/svg" width="1000" height="1000"><path d="M271 -73C334 -73 364 -46 364 12V381C425 422 489 476 545 532L482 589L468 581H85V503H396C361 474 325 448 284 421V34C284 15 275 3 259 3C226 3 195 9 157 20V-62C196 -69 233 -73 271 -73ZM69 93 567 195 551 266 56 176ZM89 310H516V388H89ZM891 -88 940 -21C840 34 691 96 562 139L528 72C654 28 790 -31 891 -88ZM258 609 327 651C300 697 244 764 191 814L126 775C177 726 232 656 258 609ZM634 81 700 26C867 126 913 174 913 253C913 331 844 361 679 380C759 430 828 482 908 575L833 617C758 524 684 463 559 393L572 312C766 290 832 276 832 253C832 222 790 168 634 81ZM450 609H530V841H450ZM643 640 708 598C755 644 816 719 861 781L787 824C752 765 691 689 643 640Z" transform="translate(0, 880) scale(1,-1)" /></svg>