<svg xmlns="http://www.w3.org/2000/svg" width="1000" height="1000"><path d="M76 701H647V781H76ZM429 -72C498 -72 540 -31 540 52V744H460V66C460 26 449 6 419 6C399 6 362 12 330 24V-58C357 -68 390 -72 429 -72ZM623 72 664 -6C835 55 916 121 916 267C916 405 828 479 620 479C399 479 196 435 40 377L69 300C212 357 440 398 620 398C772 398 834 346 834 267C834 165 767 102 623 72ZM899 447 967 502C916 577 843 656 767 728L707 682C789 603 847 528 899 447ZM248 744H168V-70H248Z" transform="translate(0, 880) scale(1,-1)" /></svg>