<svg xmlns="http://www.w3.org/2000/svg" width="1000" height="1000"><path d="M680 108C826 108 890 198 890 491C890 710 805 809 582 809C411 809 254 782 124 748L146 668C276 702 422 729 582 729C755 729 810 639 810 491C810 286 776 186 680 186C619 186 544 199 486 215V127C546 115 621 108 680 108ZM123 -34H877V46H123ZM93 165 159 108C354 227 489 413 508 641L426 647C409 432 287 276 93 165ZM591 341 628 418C524 457 341 508 192 539L156 468C307 434 490 381 591 341Z" transform="translate(0, 880) scale(1,-1)" /></svg>