<svg xmlns="http://www.w3.org/2000/svg" width="1000" height="1000"><path d="M150 363 181 284 206 294H874V374H267C354 510 424 664 486 821L410 845C349 684 267 514 192 396C183 382 169 370 150 363ZM69 9 138 -40C210 22 287 118 335 216L255 239C214 152 144 66 69 9ZM492 -71C554 -71 584 -53 584 23V557H135V478H507V34C507 16 499 8 475 7C448 6 410 12 360 29V-58C400 -67 443 -71 492 -71ZM872 -33 941 14C897 77 807 174 729 244L665 202C742 131 830 29 872 -33ZM98 651H902V731H98Z" transform="translate(0, 880) scale(1,-1)" /></svg>