<svg xmlns="http://www.w3.org/2000/svg" width="1000" height="1000"><path d="M87 716V638H913V716ZM328 515 409 541C386 621 338 748 295 836L219 809C261 723 307 596 328 515ZM579 539 651 514C690 588 742 709 780 809L700 836C671 741 619 618 579 539ZM199 556V478H801V556ZM129 359 156 287C264 327 389 360 569 360C723 360 785 334 785 295C785 227 608 218 303 243V165C659 141 866 144 866 295C866 375 792 438 569 438C361 438 233 402 129 359ZM85 -9 129 -82C500 -4 548 126 547 295H467C467 137 443 64 85 -9ZM860 -87 917 -21C812 34 695 88 595 128L547 63C651 20 768 -35 860 -87Z" transform="translate(0, 880) scale(1,-1)" /></svg>