<svg xmlns="http://www.w3.org/2000/svg" width="1000" height="1000"><path d="M120 56 179 12C279 93 363 255 363 355C363 444 317 499 254 499C194 499 140 455 140 373C140 289 192 244 260 254C245 198 195 116 120 56ZM254 323C229 323 207 340 207 375C207 404 229 425 254 425C279 425 298 404 298 375C298 340 279 323 254 323ZM341 400V735H261V467ZM88 761V681H416V761ZM63 43 90 -33 426 95 399 171ZM667 31 731 8C824 122 877 192 877 337C877 473 808 553 684 553C552 553 481 473 481 363C481 253 533 183 615 183C682 183 729 249 729 328V733H649V353C649 289 636 263 613 263C583 263 561 298 561 363C561 415 588 473 684 473C767 473 797 423 797 337C797 232 762 149 667 31ZM418 -36H950V44H418ZM447 697H918V777H447Z" transform="translate(0, 880) scale(1,-1)" /></svg>