<svg xmlns="http://www.w3.org/2000/svg" width="1000" height="1000"><path d="M580 181C785 181 924 240 924 385C924 540 694 576 307 530L321 450C634 489 844 465 844 385C844 298 737 261 580 261C469 261 337 268 179 293V209C332 187 464 181 580 181ZM447 -79C517 -79 551 -58 551 16V380H471V33C471 11 460 -1 438 -1C392 -1 334 10 282 24V-62C330 -71 384 -79 447 -79ZM95 531 149 469C302 589 392 702 456 820L370 839C320 743 227 626 95 531ZM470 537 535 495C628 582 702 659 763 732L703 789L680 779H359V699H624C591 659 544 608 470 537Z" transform="translate(0, 880) scale(1,-1)" /></svg>