<svg xmlns="http://www.w3.org/2000/svg" width="1000" height="1000"><path d="M457 -68C510 -68 554 -45 554 7V214C651 257 746 314 814 364L750 429L733 418H214V339H629C588 312 537 287 474 262V41C474 19 462 10 440 10C391 9 334 19 272 39V-52C330 -64 392 -68 457 -68ZM56 42 122 -1C204 70 266 160 297 240L212 266C188 193 136 111 56 42ZM321 429 401 445C391 523 371 607 342 683L264 668C293 592 312 507 321 429ZM860 -6 942 24C911 90 838 194 754 270L679 240C763 161 835 57 860 -6ZM73 523H927V602H73ZM556 392 633 382C683 475 725 604 748 710L662 716C644 613 604 489 556 392ZM123 775 140 698C383 704 674 728 877 759L836 835C661 805 371 783 123 775Z" transform="translate(0, 880) scale(1,-1)" /></svg>