<svg xmlns="http://www.w3.org/2000/svg" width="1000" height="1000"><path d="M578 44 663 14C730 141 796 287 851 436L771 458C719 313 651 167 578 44ZM267 120 344 154C320 229 263 349 211 442L137 414C189 321 244 198 267 120ZM495 150 575 179C559 253 519 378 479 472L405 444C444 349 480 227 495 150ZM315 615 388 657C363 704 313 773 268 826L200 788C243 736 291 662 315 615ZM588 605 656 572C706 640 763 725 806 799L723 831C692 765 638 676 588 605ZM920 612H80V532H920ZM940 50H60V-30H940Z" transform="translate(0, 880) scale(1,-1)" /></svg>