<svg xmlns="http://www.w3.org/2000/svg" width="1000" height="1000"><path d="M45 -28 112 -74C196 43 222 210 222 328V489H918V567H144V330C144 224 125 80 45 -28ZM242 -55H902V23H242ZM566 11 642 -25C723 25 769 83 769 151C769 226 703 273 564 273C430 273 346 235 346 168C346 113 400 70 512 70C578 70 615 110 615 143V453H537V177C537 150 522 139 492 139C469 139 432 148 432 168C432 189 471 199 564 199C641 199 686 183 686 149C686 108 664 69 566 11ZM35 566 106 525C193 621 247 720 282 833L204 851C169 738 119 653 35 566ZM284 316H868V394H283ZM190 676H902V754H190Z" transform="translate(0, 880) scale(1,-1)" /></svg>