<svg xmlns="http://www.w3.org/2000/svg" width="1000" height="1000"><path d="M61 -12 109 -79C379 32 550 184 700 366L636 417L620 407H422C471 481 541 632 570 836L488 843C466 656 396 484 293 363L353 312L373 327H559C462 213 288 78 61 -12ZM59 266 133 238C172 311 203 415 222 505L143 516C127 430 96 333 59 266ZM885 -80 939 -15C844 58 722 134 618 184L572 122C677 69 789 -2 885 -80ZM97 626H903V704H97ZM848 234 928 254C912 327 887 439 849 524L775 507C811 420 835 306 848 234Z" transform="translate(0, 880) scale(1,-1)" /></svg>