<svg xmlns="http://www.w3.org/2000/svg" width="1000" height="1000"><path d="M499 684 575 705C559 751 530 805 501 848L429 827C455 785 486 728 499 684ZM811 511 889 482C912 533 923 566 923 598C923 688 818 731 587 731C416 731 264 699 166 657V713H82V500H166V587C278 624 433 649 587 649C782 649 836 625 836 592C836 571 830 550 811 511ZM247 476H627L506 363L568 310L771 496L719 563L699 556H247ZM305 -21 361 -92C648 -8 792 70 792 208C792 317 697 378 544 378C457 378 356 367 287 349L304 266C368 283 462 298 544 298C646 298 710 268 710 208C710 117 570 46 305 -21Z" transform="translate(0, 880) scale(1,-1)" /></svg>