<svg xmlns="http://www.w3.org/2000/svg" width="1000" height="1000"><path d="M162 762 105 710C157 663 215 605 246 564L305 621C272 661 215 718 162 762ZM140 39 213 24 323 462 261 496 242 484H52V404H226ZM330 160 72 23 110 -52 368 96ZM550 466 628 421C718 505 807 609 879 716L811 755L799 741H534V661H741C700 608 630 532 550 466ZM350 588 407 523C494 601 586 697 654 803L581 842C521 744 438 657 350 588ZM487 64V258H407V55C407 -39 446 -61 569 -61H826C916 -61 942 -9 957 135L877 145C868 44 857 19 807 19H579C502 19 487 26 487 64ZM785 194C855 194 895 267 907 477L844 492L829 483H394V403H825C816 302 794 274 762 274C701 274 652 276 599 282V200C654 196 712 194 785 194Z" transform="translate(0, 880) scale(1,-1)" /></svg>