<svg xmlns="http://www.w3.org/2000/svg" width="1000" height="1000"><path d="M224 452 294 414C390 510 481 627 584 802L503 834C411 667 315 542 224 452ZM90 592H910V672H90ZM728 317V-3H808V378L751 409L728 397C467 383 87 268 87 81C87 -7 148 -61 260 -61C434 -61 573 64 573 232C573 371 516 480 348 480C278 480 224 464 183 445L209 370C242 386 292 400 348 400C432 400 492 339 492 232C492 105 396 19 260 19C198 19 168 45 168 81C168 197 483 304 728 317ZM921 34H616V-46H921Z" transform="translate(0, 880) scale(1,-1)" /></svg>