<svg xmlns="http://www.w3.org/2000/svg" width="1000" height="1000"><path d="M150 409 187 325 216 337H874V417H270C354 532 434 664 501 817L420 843C363 694 253 524 205 453C190 431 173 416 150 409ZM68 11 138 -39C209 30 286 135 335 240L254 262C212 168 142 74 68 11ZM508 -75C557 -75 586 -51 586 17V560H506V29C506 10 500 3 484 3C447 2 410 9 369 23V-62C416 -70 465 -75 508 -75ZM870 -27 943 12C901 82 812 188 731 264L662 228C740 150 830 42 870 -27ZM77 629H917V709H77Z" transform="translate(0, 880) scale(1,-1)" /></svg>