<svg xmlns="http://www.w3.org/2000/svg" width="1000" height="1000"><path d="M203 648 233 584C328 650 459 692 570 691C694 690 764 644 764 560C764 467 680 414 565 414C492 414 425 423 362 435V349C420 339 476 334 565 334C731 334 846 434 845 560C844 696 753 771 570 771C426 771 301 721 203 648ZM50 -10 87 -80C376 33 516 203 566 567L486 575C436 240 313 91 50 -10ZM614 -65H791C877 -65 898 1 905 117L825 124C821 28 816 15 779 15H624C592 15 586 24 586 66V268H506V67C506 -37 532 -65 614 -65ZM114 526 190 491C260 598 314 698 353 810L275 834C238 721 182 620 114 526Z" transform="translate(0, 880) scale(1,-1)" /></svg>