<svg xmlns="http://www.w3.org/2000/svg" width="1000" height="1000"><path d="M356 536 407 476C566 559 711 661 821 760L767 811L750 804H169V722H658C574 655 481 597 356 536ZM676 -80C848 -80 927 71 927 283C927 496 807 570 603 570C420 570 225 520 113 474L143 398C261 445 445 488 603 488C766 488 839 414 839 283C839 109 787 -2 672 -2C601 -2 544 4 498 21V-65C543 -76 593 -80 676 -80ZM244 138 300 81C457 175 629 316 689 385L625 436C567 365 400 226 244 138ZM607 106 662 172C572 241 436 332 342 381L291 323C390 269 525 178 607 106Z" transform="translate(0, 880) scale(1,-1)" /></svg>