<svg xmlns="http://www.w3.org/2000/svg" width="1000" height="1000"><path d="M167 805 110 753C162 706 220 648 251 607L310 664C277 704 220 761 167 805ZM140 22 213 7 333 491 271 525 252 513H52V433H236ZM340 150 72 6 110 -69 378 86ZM550 466 628 421C718 505 807 609 879 716L811 755L799 741H539V661H741C700 608 630 532 550 466ZM355 588 412 523C499 601 591 697 659 803L586 842C526 744 443 657 355 588ZM487 64V258H407V55C407 -39 446 -61 569 -61H826C916 -61 942 -9 957 135L877 145C868 44 857 19 807 19H579C502 19 487 26 487 64ZM785 194C855 194 895 267 907 477L844 492L829 483H399V403H825C816 302 794 274 762 274C701 274 652 276 599 282V200C654 196 712 194 785 194Z" transform="translate(0, 880) scale(1,-1)" /></svg>