<svg xmlns="http://www.w3.org/2000/svg" width="1000" height="1000"><path d="M360 123H626C694 123 740 167 740 231C740 291 709 362 655 427L584 390C640 322 657 275 657 239C657 217 645 203 616 203H360C320 203 307 217 307 253C307 350 339 438 411 580L337 612C255 463 224 358 224 232C224 164 274 123 360 123ZM818 236 898 221C913 274 924 324 924 443C924 550 852 602 741 602C636 602 555 584 478 544L499 466C572 505 659 522 741 522C807 522 844 496 844 432C844 346 834 287 818 236ZM140 723 155 648C446 674 709 714 888 758L841 830C690 789 420 747 140 723ZM928 -54 952 27C654 4 426 8 282 51C195 77 135 144 109 238L31 216C66 88 149 5 258 -26C408 -69 625 -76 928 -54Z" transform="translate(0, 880) scale(1,-1)" /></svg>