<svg xmlns="http://www.w3.org/2000/svg" width="1000" height="1000"><path d="M708 -70C770 -70 806 -43 806 24V622C806 757 759 808 629 808H470C375 808 320 797 272 778V698C327 718 378 728 465 728H623C698 728 726 696 726 613V36C726 14 718 5 693 5C657 5 621 14 582 27V-57C623 -65 661 -70 708 -70ZM105 -30 180 -66C288 98 291 289 291 468V807H211V468C211 300 206 125 105 -30ZM606 412 663 474C588 532 503 589 404 645L354 584C451 528 535 470 606 412ZM52 361V281H948V361Z" transform="translate(0, 880) scale(1,-1)" /></svg>