<svg xmlns="http://www.w3.org/2000/svg" width="1000" height="1000"><path d="M386 -60H782C862 -60 883 -18 898 132L818 139C811 40 801 20 766 20H424C393 20 384 26 384 40C384 62 401 74 742 241L697 317L664 303H576L767 467L709 531L683 519C296 497 69 423 69 303C69 239 119 192 191 192C328 192 396 264 722 711L662 764L640 752H332V672H596C341 325 273 272 191 272C164 272 149 284 149 303C149 357 324 420 613 435L438 282L475 223H533C297 116 271 83 271 27C271 -29 306 -60 386 -60ZM104 510 164 454C282 566 370 684 444 816L368 847C302 726 212 607 104 510ZM882 210 955 247C932 309 889 392 848 450L782 412C823 351 862 272 882 210Z" transform="translate(0, 880) scale(1,-1)" /></svg>