<svg xmlns="http://www.w3.org/2000/svg" width="1000" height="1000"><path d="M111 559 172 488C291 567 402 676 503 804L429 847C333 725 224 628 111 559ZM86 333 118 252C438 319 663 450 813 694L753 740L735 731H347V651H676C578 505 392 393 86 333ZM872 252 914 332C696 423 510 484 297 540L260 461C474 405 658 343 872 252ZM778 -89 817 -12C675 40 414 122 213 167L170 90C376 42 639 -33 778 -89ZM664 142 704 218C617 248 484 285 379 308L341 237C444 214 581 175 664 142Z" transform="translate(0, 880) scale(1,-1)" /></svg>