<svg xmlns="http://www.w3.org/2000/svg" width="1000" height="1000"><path d="M921 -32 924 51C695 3 383 21 245 66C161 94 123 152 118 316L40 304C44 126 101 28 216 -11C359 -59 687 -79 921 -32ZM161 290H917V370H161ZM494 80C547 81 582 106 582 177V830H502V183C502 164 499 157 479 157C434 157 388 165 339 176V91C396 83 451 79 494 80ZM323 578 400 609C380 663 326 748 277 808L205 778C253 714 304 631 323 578ZM170 477H888V557H170ZM669 607 739 581C778 634 826 715 864 786L783 814C757 751 708 661 669 607Z" transform="translate(0, 880) scale(1,-1)" /></svg>