<svg xmlns="http://www.w3.org/2000/svg" width="1000" height="1000"><path d="M712 511C688 464 658 417 619 369L665 302C792 329 837 284 837 239C837 164 659 100 466 78L517 9C740 56 919 88 919 239C919 352 825 398 721 383L834 554L764 602L749 591C177 569 53 393 53 309C53 238 97 193 180 193C334 193 554 470 724 765L657 813L631 799H143V719H601C485 505 282 273 180 273C148 273 133 287 133 309C133 348 227 484 712 511ZM517 -91 593 -54C565 15 510 110 458 183L388 147C439 78 487 -18 517 -91Z" transform="translate(0, 880) scale(1,-1)" /></svg>