<svg xmlns="http://www.w3.org/2000/svg" width="1000" height="1000"><path d="M619 427C755 427 785 520 785 606C785 696 715 742 578 742C437 742 311 729 177 708L191 625C323 646 449 662 574 662C677 662 705 642 705 606C705 551 686 505 614 505C573 505 529 509 483 518V435C528 429 569 427 619 427ZM103 415 155 352C373 462 517 614 562 832L483 846C438 627 306 519 103 415ZM644 28V-59C683 -66 723 -69 771 -69C877 -69 922 20 922 143C922 271 817 337 624 337C266 337 55 210 55 71C55 -5 105 -63 196 -63C349 -63 439 80 439 227C439 335 383 434 245 480L212 408C327 369 359 306 359 227C359 103 296 17 196 17C155 17 135 37 135 71C135 155 287 257 624 257C756 257 842 227 842 143C842 85 820 9 767 9C722 9 684 16 644 28ZM433 3 493 -56C631 58 758 202 803 420L725 436C680 229 565 104 433 3Z" transform="translate(0, 880) scale(1,-1)" /></svg>