<svg xmlns="http://www.w3.org/2000/svg" width="1000" height="1000"><path d="M220 633 245 570C379 646 531 692 646 692C745 692 780 671 780 622C780 555 629 507 357 477L367 397C727 435 862 530 862 622C862 727 790 772 646 772C484 772 343 714 220 633ZM451 -78C513 -78 558 -45 558 23V464H478V37C478 17 463 1 438 1C385 0 330 9 276 27V-61C333 -74 380 -78 451 -78ZM939 189 959 272C738 304 444 305 55 271V195C439 226 734 219 939 189ZM78 464 142 416C250 535 330 678 374 826L294 843C252 698 171 556 78 464Z" transform="translate(0, 880) scale(1,-1)" /></svg>