<svg xmlns="http://www.w3.org/2000/svg" width="1000" height="1000"><path d="M35 -21 105 -60C198 101 211 338 211 501V709H943V789H131V501C131 347 123 132 35 -21ZM401 432V352C754 321 877 383 877 501C877 585 809 642 618 642C450 642 327 608 250 574L286 500C363 535 467 564 618 564C724 564 795 545 795 501C795 432 695 391 401 432ZM240 -50H909V30H240ZM586 26H670C721 57 760 101 760 166C760 256 684 301 566 301C453 301 373 263 373 181C373 104 428 63 519 63C576 63 614 100 614 154V512H534V179C534 151 525 139 504 139C474 139 453 156 453 181C453 204 486 221 566 221C635 221 678 194 678 163C678 119 657 80 586 26Z" transform="translate(0, 880) scale(1,-1)" /></svg>