<svg xmlns="http://www.w3.org/2000/svg" width="1000" height="1000"><path d="M175 781V333H255V706C466 714 695 731 853 760L795 833C654 806 395 788 175 781ZM836 -80 882 -8C713 33 401 97 161 132L110 60C356 23 669 -36 836 -80ZM691 101 737 175C634 199 475 227 351 246L306 175C428 157 592 126 691 101ZM70 281H930V360H70ZM705 323 770 293C820 348 844 405 844 469C844 563 767 631 583 631C424 631 313 593 209 534L244 474C354 524 459 551 583 551C706 551 763 526 763 469C763 414 746 371 705 323Z" transform="translate(0, 880) scale(1,-1)" /></svg>