<svg xmlns="http://www.w3.org/2000/svg" width="1000" height="1000"><path d="M366 9 419 -45C535 23 607 95 607 181C607 257 545 301 440 301C341 301 276 256 276 186C276 111 343 69 482 69C703 69 856 128 856 273C856 391 749 446 559 446C382 446 233 412 110 360L145 284C269 336 394 367 559 367C690 367 775 342 775 273C775 176 634 145 482 145C400 145 356 157 356 186C356 213 390 226 440 226C493 226 527 211 527 181C527 129 473 70 366 9ZM275 453 351 478C341 522 308 590 274 641L201 620C234 568 266 497 275 453ZM46 566 118 528C193 622 240 722 271 835L193 850C162 737 119 653 46 566ZM483 474 562 491C558 535 538 608 513 661L438 646C462 592 480 518 483 474ZM190 687H892V765H190ZM663 471 732 448C766 497 810 572 845 638L757 662C737 606 696 522 663 471ZM921 17H79V-61H921Z" transform="translate(0, 880) scale(1,-1)" /></svg>