<svg xmlns="http://www.w3.org/2000/svg" width="1000" height="1000"><path d="M561 -70C793 -70 926 30 926 287C926 468 798 580 547 580C309 580 150 512 65 462L105 392C179 442 330 500 547 500C749 500 845 410 845 287C845 76 739 5 557 5C511 5 445 14 385 31V-51C446 -65 509 -70 561 -70ZM179 106 247 76C284 159 320 279 336 381L263 391C251 298 215 182 179 106ZM559 72 638 93C620 175 581 305 543 405L469 384C507 285 543 153 559 72ZM395 554 467 532 611 726 530 752ZM134 710H866V788H134Z" transform="translate(0, 880) scale(1,-1)" /></svg>