<svg xmlns="http://www.w3.org/2000/svg" width="1000" height="1000"><path d="M654 -65C827 -65 917 57 917 227C917 399 792 466 588 466C527 466 483 462 442 457C520 517 681 641 809 754L749 805L726 797H236V717H641C561 633 410 511 298 435C279 422 193 389 136 363L180 290C289 342 430 385 569 385C726 385 836 344 836 227C836 101 776 15 646 15C588 15 529 23 473 43V-46C527 -60 589 -65 654 -65ZM82 542H918V622H82ZM105 127 166 64C306 128 418 224 467 321L386 351C342 262 242 180 105 127ZM183 2 240 -60C435 10 608 147 663 323L586 347C529 196 371 63 183 2Z" transform="translate(0, 880) scale(1,-1)" /></svg>