<svg xmlns="http://www.w3.org/2000/svg" width="1000" height="1000"><path d="M246 -62C308 -62 335 -25 335 38V516H255V46C255 25 247 16 232 16C206 16 174 23 140 38V-49C171 -57 203 -62 246 -62ZM65 125 512 221 495 297 47 206ZM291 420 311 344C418 367 504 436 504 547C504 658 428 699 346 699C292 699 244 678 214 655C252 709 292 758 346 805L263 845C172 725 116 645 94 572C75 508 72 438 100 357L182 374C155 440 158 501 174 551C197 584 262 619 318 619C384 619 422 596 422 547C422 485 375 439 291 420Z" transform="translate(0, 880) scale(1,-1)" /></svg>