<svg xmlns="http://www.w3.org/2000/svg" width="1000" height="1000"><path d="M240 839 199 774C255 750 316 720 348 698L391 765C357 787 296 816 240 839ZM208 393 293 381 472 647 404 687 385 678H113V600H347ZM502 505 120 409 141 330 525 432ZM462 304 519 246C674 353 796 449 930 591L865 638L813 589H630C680 651 734 728 785 808L708 847C654 748 597 670 542 604C530 590 513 581 497 574L533 500L556 511H733C664 448 556 363 462 304ZM725 104 747 30C861 51 919 109 920 185C920 268 823 322 599 322C414 322 226 297 89 264L106 188C242 220 435 244 599 244C772 244 835 215 835 184C835 141 791 115 725 104ZM301 172V94H654V172ZM123 12V-68H857V12Z" transform="translate(0, 880) scale(1,-1)" /></svg>