<svg xmlns="http://www.w3.org/2000/svg" width="1000" height="1000"><path d="M145 221 193 364 123 382 37 146 108 111 122 127 499 258 474 333ZM253 -72C300 -72 334 -51 334 17V835H255V43C255 19 246 6 232 6C205 6 181 10 144 24V-60C181 -69 216 -72 253 -72ZM67 438H485V518H67ZM74 705 90 626C204 631 374 649 485 684L465 761C364 728 194 711 74 705ZM807 545C768 38 793 -62 896 -62C955 -62 978 12 981 117L920 131C918 52 912 18 897 18C872 18 840 106 891 610L832 636L818 625H478V545ZM428 -17 486 -76C692 101 713 383 713 834H633C633 390 622 145 428 -17ZM758 205 793 282C728 325 611 379 517 417L482 349C577 307 697 249 758 205Z" transform="translate(0, 880) scale(1,-1)" /></svg>