<svg xmlns="http://www.w3.org/2000/svg" width="1000" height="1000"><path d="M361 456H441V763H361ZM107 722H906V802H107ZM575 456H655V763H575ZM29 -47 99 -86C182 13 205 160 205 261V410H923V490H125V261C125 165 107 48 29 -47ZM558 -65C608 -65 651 -57 706 -34V52C650 27 609 15 571 15C550 15 541 28 541 59V363H461V21C461 -45 497 -65 558 -65ZM902 10 958 76C868 154 757 244 660 307L609 252C705 184 814 94 902 10ZM282 296V-26H362V296ZM231 513 306 545C286 586 249 644 214 686L141 657C174 615 212 553 231 513ZM704 536 776 511C812 557 851 619 879 672L800 702C778 651 739 585 704 536Z" transform="translate(0, 880) scale(1,-1)" /></svg>