<svg xmlns="http://www.w3.org/2000/svg" width="1000" height="1000"><path d="M101 303 423 419 396 492 73 382ZM195 369V820H115V369ZM154 675V595H423V675ZM434 384 475 307C642 380 908 534 908 682C908 780 837 824 718 824C611 824 527 807 446 776L469 697C549 731 621 743 718 743C788 743 827 720 827 682C827 564 601 449 434 384ZM888 308 947 373C793 496 677 566 536 626L491 565C631 502 738 434 888 308ZM540 2V366H460V2ZM132 163H868V243H132ZM930 34H70V-46H930Z" transform="translate(0, 880) scale(1,-1)" /></svg>