<svg xmlns="http://www.w3.org/2000/svg" width="1000" height="1000"><path d="M458 146C553 146 619 207 619 448C619 653 527 771 375 771C264 771 191 738 151 699L179 636C219 664 286 691 375 691C463 691 539 614 539 448C539 271 505 226 458 226C428 226 409 276 409 338C409 553 518 709 674 709C781 709 810 611 810 449C810 156 776 22 691 22C634 22 575 31 518 51V-39C578 -52 632 -57 697 -57C833 -57 890 66 890 449C890 666 842 789 674 789C498 789 329 642 329 338C329 219 378 146 458 146ZM132 787V-39H212V787ZM50 439V359H950V439Z" transform="translate(0, 880) scale(1,-1)" /></svg>