<svg xmlns="http://www.w3.org/2000/svg" width="1000" height="1000"><path d="M911 -67 950 12C743 60 517 199 333 199C224 199 155 145 155 67C155 -15 212 -66 322 -66C445 -66 827 76 827 228C827 338 719 371 583 371C494 371 421 361 362 344C389 365 408 384 430 413L358 450C288 365 191 301 71 245L116 178C177 211 247 246 273 254C365 281 468 293 575 293C668 293 745 276 745 228C745 133 419 12 322 12C263 12 238 27 238 67C238 104 272 121 333 121C484 121 711 -10 911 -67ZM223 440H781V518H223ZM65 566 105 492C367 543 623 624 834 788L762 840C558 677 323 613 65 566ZM833 490 887 562C680 665 367 757 155 805L108 739C326 689 633 595 833 490Z" transform="translate(0, 880) scale(1,-1)" /></svg>