<svg xmlns="http://www.w3.org/2000/svg" width="1000" height="1000"><path d="M87 638H913V718H561L507 830L430 812L474 718H87ZM151 447 198 379C298 455 412 501 583 501C736 501 782 469 782 424C782 337 598 332 329 359V279C629 258 863 262 863 424C863 512 803 581 583 581C388 581 254 528 151 447ZM460 -71C529 -71 558 -39 558 24V421H478V35C478 15 469 7 446 7C398 7 349 15 294 30V-55C348 -66 400 -71 460 -71ZM61 58 131 12C216 66 279 138 314 202L230 229C202 173 143 109 61 58ZM870 5 948 42C917 93 849 171 766 233L695 193C775 132 843 54 870 5Z" transform="translate(0, 880) scale(1,-1)" /></svg>