<svg xmlns="http://www.w3.org/2000/svg" width="1000" height="1000"><path d="M344 122 409 73C511 169 642 298 717 385L656 448L637 437H404C461 536 509 668 553 814L473 832C422 652 360 507 284 402L346 346L366 358H578C520 287 436 202 344 122ZM875 -74 905 4C645 79 387 136 141 178L102 105C366 57 622 0 875 -74ZM82 624H914V704H82ZM59 282 133 254C172 327 203 431 222 521L143 532C127 446 96 349 59 282ZM848 244 928 264C912 337 887 449 849 534L775 517C811 430 835 316 848 244Z" transform="translate(0, 880) scale(1,-1)" /></svg>