<svg xmlns="http://www.w3.org/2000/svg" width="1000" height="1000"><path d="M454 -71C582 -71 636 15 636 168C636 294 545 434 425 511L364 458C476 379 556 267 556 168C556 60 524 7 443 7C395 7 354 14 310 27V-59C350 -67 389 -71 454 -71ZM52 100 106 48C196 112 278 195 337 281L264 321C214 243 135 163 52 100ZM232 416 290 366C473 496 535 626 601 818L520 843C467 652 392 534 232 416ZM859 51 935 85C901 184 844 290 784 371L714 341C773 258 827 149 859 51ZM85 588H905V668H85Z" transform="translate(0, 880) scale(1,-1)" /></svg>