<svg xmlns="http://www.w3.org/2000/svg" width="1000" height="1000"><path d="M355 425C413 426 439 452 439 517V797H360V536C360 512 351 501 328 501C300 501 253 508 204 521V436C252 427 300 424 355 425ZM66 525H712V603H66ZM84 631H693V709H84ZM85 803 99 727C270 723 506 733 669 765L630 838C496 813 264 801 85 803ZM686 369V448C505 415 308 408 190 426C120 437 99 454 95 506L16 498C18 416 69 364 166 349C286 329 501 336 686 369ZM647 497V344H726V497ZM65 -86 718 -36 709 43 56 -7ZM72 250H705V328H72ZM360 108 383 37C572 46 654 69 654 143C654 211 588 238 435 238C302 238 216 224 121 205L142 128C230 146 315 161 435 161C529 161 572 154 572 143C572 129 526 116 360 108ZM372 4 447 35C432 68 406 104 382 131L309 101C334 77 358 36 372 4Z" transform="translate(0, 880) scale(1,-1)" /></svg>