<svg xmlns="http://www.w3.org/2000/svg" width="1000" height="1000"><path d="M223 582 292 618C271 668 231 742 191 796L124 763C160 711 201 634 223 582ZM483 610 560 636C544 693 512 767 477 829L404 804C436 743 468 667 483 610ZM698 608 765 578C807 637 851 716 884 784L805 815C781 750 737 668 698 608ZM810 342 883 308C908 366 920 404 920 446C920 548 818 592 587 592C414 592 261 555 164 505V575H84V327H164V437C276 482 433 511 587 511C782 511 839 481 839 441C839 414 832 389 810 342Z" transform="translate(0, 880) scale(1,-1)" /></svg>