<svg xmlns="http://www.w3.org/2000/svg" width="1000" height="1000"><path d="M472 -80C603 -80 646 10 646 121C646 239 565 368 463 474L399 423C473 354 566 216 566 121C566 57 543 -1 469 -1C435 -1 398 5 365 14V-71C398 -77 435 -80 472 -80ZM45 74 92 1C130 20 165 45 210 74C263 73 290 54 306 -1L467 80L436 141L333 97C328 117 308 133 283 142C331 191 379 245 419 301L355 338C268 220 156 114 45 74ZM78 329 111 253C280 311 486 406 567 505L490 546C431 470 234 379 78 329ZM910 -17 962 55C835 122 663 188 454 257L432 182C629 117 790 54 910 -17ZM556 273 581 200C695 233 778 257 875 307L827 378C740 332 669 305 556 273ZM235 476H765V556H235ZM314 687 396 713C379 751 351 800 320 840L242 817C270 778 300 725 314 687ZM89 619H911V699H89ZM597 683 671 664C700 709 736 776 759 823L670 844C655 798 625 731 597 683Z" transform="translate(0, 880) scale(1,-1)" /></svg>