<svg xmlns="http://www.w3.org/2000/svg" width="1000" height="1000"><path d="M333 297V212C407 204 480 202 554 202C698 202 856 254 856 396C856 513 732 570 543 570C354 570 229 527 129 470L173 397C268 451 376 490 543 490C712 490 775 446 775 396C775 308 666 283 549 283C477 283 405 287 333 297ZM65 3 109 -69C380 3 540 96 540 426H460C460 129 298 57 65 3ZM871 -75 917 -2C818 51 713 103 604 155L556 90C663 39 768 -16 871 -75ZM269 594 338 640C314 685 258 750 202 798L137 756C191 708 246 640 269 594ZM460 532H540V826H460ZM651 636 717 594C764 636 825 704 870 761L795 804C760 750 699 681 651 636Z" transform="translate(0, 880) scale(1,-1)" /></svg>