<svg xmlns="http://www.w3.org/2000/svg" width="1000" height="1000"><path d="M407 369 467 313C567 353 665 439 665 531C665 599 616 648 503 648C385 648 345 600 345 538C345 470 408 428 546 428C761 428 875 496 875 628C875 724 814 809 589 809C392 809 279 772 183 729L221 659C315 698 436 729 589 729C745 729 795 679 795 628C795 552 712 506 546 506C462 506 425 520 425 538C425 556 449 573 503 573C553 573 585 558 585 531C585 465 513 414 407 369ZM163 787V468H243V787ZM728 129 752 47C859 77 919 140 920 234C921 324 833 389 604 389C428 389 245 360 111 324L129 246C260 281 448 309 604 309C780 309 836 272 836 232C836 175 792 146 728 129ZM317 213V134H660V213ZM145 26V-54H857V26Z" transform="translate(0, 880) scale(1,-1)" /></svg>