<svg xmlns="http://www.w3.org/2000/svg" width="1000" height="1000"><path d="M618 -64C825 -64 888 -4 888 311C888 483 836 575 682 575C575 575 494 556 407 518L431 442C513 479 600 495 682 495C786 495 808 440 808 311C808 61 751 14 608 14C562 14 504 21 434 38V-46C493 -59 552 -64 618 -64ZM237 174H513C575 174 624 206 624 265C624 320 590 383 560 424L490 389C523 353 543 312 543 286C543 262 523 254 502 254H242C212 254 200 266 200 285C200 329 237 428 356 627L282 659C156 453 117 348 117 267C117 214 151 174 237 174ZM101 710H899V790H101Z" transform="translate(0, 880) scale(1,-1)" /></svg>