<svg xmlns="http://www.w3.org/2000/svg" width="1000" height="1000"><path d="M731 634V51H811V702L747 724L731 714C484 714 273 532 273 358C273 262 329 200 409 200C508 200 571 282 571 373C571 501 486 577 372 577C288 577 194 549 144 521L171 456C230 484 303 505 372 505C433 505 493 456 493 373C493 307 447 280 409 280C369 280 351 309 351 358C351 493 518 634 731 634ZM28 -47 98 -82C165 40 178 219 178 391V713H521V793H98V391C98 231 89 69 28 -47ZM553 92V12H956V92Z" transform="translate(0, 880) scale(1,-1)" /></svg>