<svg xmlns="http://www.w3.org/2000/svg" width="1000" height="1000"><path d="M286 450 364 413C461 535 536 675 584 811L500 838C455 706 384 567 286 450ZM807 461 886 427C906 478 918 513 918 555C918 657 811 703 599 703C422 703 238 658 118 610L147 530C262 576 441 618 599 618C775 618 830 590 830 550C830 523 824 501 807 461ZM231 460V380H711V258H251V306H171V83C171 -35 219 -60 361 -60H735C880 -60 923 -2 947 171L866 185C851 35 825 20 736 20H361C270 20 251 33 251 83V178H791V460Z" transform="translate(0, 880) scale(1,-1)" /></svg>