<svg xmlns="http://www.w3.org/2000/svg" width="1000" height="1000"><path d="M677 560 715 492C839 549 918 605 918 689C918 770 863 811 749 809C639 806 525 774 448 738L486 665C561 702 659 729 749 729C817 729 837 719 837 689C837 647 790 609 677 560ZM690 444 766 475C743 534 713 590 681 640L608 609C639 559 668 499 690 444ZM195 486 269 520C242 586 192 687 147 760L76 725C119 656 167 554 195 486ZM461 516 540 540C517 627 486 716 437 816L361 786C408 686 438 601 461 516Z" transform="translate(0, 880) scale(1,-1)" /></svg>