<svg xmlns="http://www.w3.org/2000/svg" width="1000" height="1000"><path d="M946 359 974 432C743 483 515 522 282 550L266 482C498 455 730 410 946 359ZM59 393 128 346C258 421 353 517 391 610L310 634C264 538 191 462 59 393ZM445 322C518 322 556 357 556 424V774H477V439C477 407 467 390 432 390C388 390 350 398 305 415V337C349 326 399 322 445 322ZM82 593H918V665H82ZM136 801 163 731C390 733 661 744 846 763L799 831C612 812 370 802 136 801ZM824 102C814 34 770 2 701 2C639 2 587 8 535 20V-59C578 -64 628 -69 711 -69C829 -69 889 -37 909 165L849 181L835 171H710C724 209 736 245 748 289H110V218H350C315 137 256 59 53 -18L109 -74C339 26 390 115 431 218H649C642 191 631 162 617 134L637 102Z" transform="translate(0, 880) scale(1,-1)" /></svg>