<svg xmlns="http://www.w3.org/2000/svg" width="1000" height="1000"><path d="M64 466 109 392C416 461 704 595 823 738L763 803L740 790H266V711H672C569 624 341 515 64 466ZM78 -56H920V23H78ZM74 214 144 163C218 242 285 334 344 428L269 460C214 369 151 287 74 214ZM524 13 609 -18C676 26 722 78 722 151C722 235 663 280 512 280C360 280 276 245 276 165C276 97 333 52 440 52C511 52 552 96 552 135V357H472V169C472 142 451 129 423 129C399 129 356 141 356 165C356 191 393 202 512 202C599 202 642 185 642 149C642 103 601 59 524 13ZM243 319H807V398H243ZM48 584 121 537C212 600 322 718 373 827L293 854C242 745 131 634 48 584ZM870 400 916 472C770 529 530 601 307 645L269 573C494 528 727 459 870 400Z" transform="translate(0, 880) scale(1,-1)" /></svg>