<svg xmlns="http://www.w3.org/2000/svg" width="1000" height="1000"><path d="M62 -5 114 -70C432 87 652 268 801 425L735 474L712 457H425C593 556 729 664 859 781L786 831C662 710 503 589 286 459C273 451 253 442 232 436L272 362L315 379H640C547 292 359 136 62 -5ZM655 -58H831C915 -58 943 4 949 147L869 154C868 51 852 22 818 22H651C617 22 612 28 612 56V279L532 251V55C532 -29 556 -58 655 -58ZM381 594 442 648C385 707 307 772 233 823L175 771C253 717 327 655 381 594Z" transform="translate(0, 880) scale(1,-1)" /></svg>