<svg xmlns="http://www.w3.org/2000/svg" width="1000" height="1000"><path d="M163 583 95 470C87 456 80 448 67 443L109 366L139 373H529V453H179L252 583H578V663H64V583ZM208 658 289 686C271 724 236 784 199 830L122 801C157 755 193 698 208 658ZM359 685 424 652C469 706 504 756 536 810L446 836C424 783 395 732 359 685ZM417 254V525H337V309ZM66 7 87 -72 591 45 570 123ZM174 9 238 -29C348 38 432 121 432 223C432 291 384 328 310 328C236 328 188 291 188 223C188 153 242 111 322 120C294 81 250 48 174 9ZM310 184C284 184 263 199 263 223C263 247 285 262 310 262C335 262 357 247 357 223C357 199 336 184 310 184Z" transform="translate(0, 880) scale(1,-1)" /></svg>