<svg xmlns="http://www.w3.org/2000/svg" width="1000" height="1000"><path d="M389 410 464 380C520 505 553 676 565 833L483 837C473 683 442 525 389 410ZM121 616 144 538C263 581 461 627 630 627C758 627 829 604 829 568C829 532 817 501 798 474L876 441C897 477 911 512 911 568C911 674 785 708 630 708C429 708 242 662 121 616ZM310 -6 366 -80C653 15 797 114 797 255C797 385 702 439 549 439C462 439 361 427 292 408L309 324C373 343 467 359 549 359C651 359 715 326 715 255C715 140 575 70 310 -6ZM106 680V448H186V680Z" transform="translate(0, 880) scale(1,-1)" /></svg>