<svg xmlns="http://www.w3.org/2000/svg" width="1000" height="1000"><path d="M361 293 422 253 731 368 663 416ZM76 362H924V440H76ZM522 436 585 383C681 434 766 472 766 550C766 627 679 655 495 655C317 655 213 628 213 556C213 493 274 463 411 463C513 463 540 497 540 547V841H460V579C460 550 438 538 400 538C352 538 305 544 305 556C305 568 353 579 495 579C601 579 678 570 678 548C678 524 606 471 522 436ZM86 679H914V757H86ZM567 322C428 321 281 298 89 241L128 165C299 226 433 243 567 243C682 243 820 214 820 125C820 28 706 1 589 1C449 1 296 27 296 80C296 105 352 119 434 119C513 119 543 113 543 92C543 72 497 31 375 -4L422 -46C549 -14 624 34 624 92C624 161 544 197 434 197C331 197 216 156 216 80C216 -26 375 -78 589 -78C776 -78 899 2 899 125C899 272 745 323 567 322Z" transform="translate(0, 880) scale(1,-1)" /></svg>