<svg xmlns="http://www.w3.org/2000/svg" width="1000" height="1000"><path d="M118 -56H880V23H118ZM373 9H520C581 40 605 101 605 155C605 220 571 256 483 256C410 256 361 220 361 167C361 111 404 77 483 77C498 77 511 79 523 86C501 52 453 24 373 9ZM128 490 158 417C250 456 391 498 579 498C751 498 801 471 801 433C801 371 595 360 300 384V301C692 284 883 289 883 433C883 519 819 577 579 577C357 577 221 531 128 490ZM573 200V438H496V221ZM483 135C455 135 433 149 433 167C433 185 455 199 483 199C511 199 533 185 533 167C533 149 511 135 483 135ZM97 743V664H903V743ZM322 561 404 586C384 655 343 762 305 838L226 813C263 739 303 630 322 561ZM585 583 660 559C694 623 740 727 773 813L691 838C665 757 620 651 585 583Z" transform="translate(0, 880) scale(1,-1)" /></svg>