<svg xmlns="http://www.w3.org/2000/svg" width="1000" height="1000"><path d="M242 834 198 777C254 753 315 723 347 701L393 760C359 782 298 811 242 834ZM215 393 293 381 472 647 404 682 385 673H113V605H359ZM506 500 124 404 140 333 524 435ZM480 314 519 246C674 353 796 449 930 591L865 638L814 584H625C675 646 734 728 785 808L708 847C654 748 597 670 542 604C530 590 513 581 497 574L532 502L555 516H746C677 449 574 373 480 314ZM725 104 747 30C861 51 919 109 920 185C920 268 823 321 599 321C414 321 226 296 89 263L106 188C242 220 435 244 599 244C772 244 835 215 835 184C835 141 791 115 725 104ZM301 171V95H654V171ZM123 12V-66H857V12Z" transform="translate(0, 880) scale(1,-1)" /></svg>