<svg xmlns="http://www.w3.org/2000/svg" width="529" height="1000"><path d="M53 381H141C146 437 203 467 262 467C335 467 368 436 376 374V321H288C147 321 41 268 41 146C41 47 131 -6 226 -6C290 -6 339 20 377 69V0H464V360C464 479 386 541 266 541C164 541 53 486 53 381ZM377 143C346 93 288 63 235 63C183 63 131 97 131 151C131 223 207 252 305 252H377ZM90 658 126 613C156 648 179 663 202 663C238 663 269 593 330 593C376 593 418 641 442 677L406 717C376 682 353 667 330 667C294 667 263 737 202 737C156 737 114 694 90 658Z" transform="translate(0, 880) scale(1,-1)" /></svg>