<svg xmlns="http://www.w3.org/2000/svg" width="1000" height="1000"><path d="M511 9 560 -51C765 98 933 252 933 510C933 656 865 744 721 744C474 744 263 532 263 358C263 262 319 200 399 200C498 200 561 282 561 373C561 501 476 577 362 577C278 577 194 549 144 521L171 456C220 484 293 505 362 505C423 505 483 456 483 373C483 307 437 280 399 280C359 280 341 309 341 358C341 493 508 664 721 664C809 664 855 611 855 510C855 294 712 148 511 9ZM28 -47 98 -82C165 40 178 219 178 391V713H471V793H98V391C98 231 89 69 28 -47ZM893 -64 954 -5C848 154 746 270 634 387L585 336C695 212 790 101 893 -64Z" transform="translate(0, 880) scale(1,-1)" /></svg>