<svg xmlns="http://www.w3.org/2000/svg" width="1000" height="1000"><path d="M201 -70C335 -70 436 76 436 394C436 613 407 783 257 783C207 783 149 769 102 750L118 679C163 695 218 707 259 707C345 707 357 564 357 394C357 199 292 10 203 10C175 10 156 41 156 85C156 304 419 718 671 718C791 718 827 577 827 404C827 220 795 10 703 10C667 10 602 21 534 41V-45C601 -60 660 -64 709 -64C851 -64 908 150 908 404C908 631 865 798 671 798C388 798 77 355 77 83C77 -18 138 -70 201 -70ZM734 174 763 247C676 282 588 315 499 334L472 263C563 240 648 213 734 174ZM746 390 774 465C691 497 605 521 519 540L494 469C578 450 662 423 746 390Z" transform="translate(0, 880) scale(1,-1)" /></svg>