<svg xmlns="http://www.w3.org/2000/svg" width="1000" height="1000"><path d="M77 -68H935V10H77ZM563 1 643 -9C712 32 782 111 782 167C782 242 714 321 512 321C321 321 209 262 209 192C209 115 283 77 390 77C522 77 594 133 594 270V654H514V283C514 181 461 155 390 155C320 155 292 172 292 192C292 218 359 243 512 243C657 243 695 196 695 165C695 131 649 57 563 1ZM109 390H913V468H109ZM26 553 78 490C212 581 341 689 444 824L366 862C279 744 156 633 26 553ZM535 708C464 646 375 585 280 537L350 470C470 546 615 659 699 736L638 793L619 786H317V708Z" transform="translate(0, 880) scale(1,-1)" /></svg>