<svg xmlns="http://www.w3.org/2000/svg" width="1000" height="1000"><path d="M263 377 323 329C432 416 527 508 610 623L536 664C462 554 368 458 263 377ZM837 -97 878 -23C787 23 678 69 588 103L549 34C643 2 748 -48 837 -97ZM71 553 140 512C222 615 270 713 309 826L231 848C195 738 147 649 71 553ZM213 492H881V572H213ZM221 679H896V759H222ZM457 176C457 381 367 423 163 387V307C312 342 377 317 377 176C377 84 313 10 243 10C195 10 171 30 171 68C171 195 445 319 674 357C654 330 638 318 614 295C603 284 586 282 567 280V200C717 216 817 217 817 172C817 125 758 84 667 49L723 -12C831 37 898 85 898 172C898 245 829 297 695 286C746 338 782 374 810 410L740 450L729 439C450 411 91 243 91 68C91 -14 142 -70 243 -70C348 -70 457 32 457 176Z" transform="translate(0, 880) scale(1,-1)" /></svg>