<svg xmlns="http://www.w3.org/2000/svg" width="1000" height="1000"><path d="M333 296V213C407 205 480 203 554 203C698 203 856 254 856 396C856 514 732 569 543 569C370 569 256 529 164 466L205 398C293 460 390 491 543 491C712 491 775 447 775 396C775 308 666 282 549 282C477 282 405 286 333 296ZM65 2 109 -68C380 4 540 96 540 426H460C460 129 298 56 65 2ZM147 251H227V540H147ZM871 -74 917 -3C818 50 713 102 604 154L556 91C663 40 768 -15 871 -74ZM269 595 338 639C314 684 258 749 202 798L137 757C191 709 246 641 269 595ZM460 532H540V826H460ZM651 635 717 595C764 637 825 705 870 763L795 804C760 749 699 680 651 635Z" transform="translate(0, 880) scale(1,-1)" /></svg>