<svg xmlns="http://www.w3.org/2000/svg" width="1000" height="1000"><path d="M126 546 191 495C285 583 373 691 445 801L380 839C309 728 222 627 126 546ZM513 457 588 424C677 508 769 619 820 721L765 765L749 758H335V678H695C660 609 596 534 513 457ZM556 485C381 485 245 450 116 401L145 322C274 378 399 406 556 406C687 406 756 376 756 330C756 193 385 17 260 17C205 17 168 49 168 107C168 156 203 195 291 195C441 195 632 36 893 -84L947 -23C694 91 473 272 291 272C175 272 85 212 85 107C85 10 153 -63 260 -63C433 -63 846 148 846 330C846 438 741 485 556 485Z" transform="translate(0, 880) scale(1,-1)" /></svg>