<svg xmlns="http://www.w3.org/2000/svg" width="1000" height="1000"><path d="M912 -81 954 -11C697 85 488 275 317 275C199 275 90 227 90 109C90 11 149 -56 273 -56C501 -56 840 185 840 304C840 415 741 442 598 442C465 442 348 431 243 418V643H163V409L153 395L170 331C304 350 435 361 598 361C704 361 757 348 757 304C757 212 440 25 273 25C204 25 171 57 171 109C171 163 218 195 317 195C460 195 646 20 912 -81ZM690 514C796 514 825 609 842 795L779 815L760 804H160V724H756C746 637 728 595 681 595C581 595 512 606 434 621V535C510 522 587 514 690 514Z" transform="translate(0, 880) scale(1,-1)" /></svg>