<svg xmlns="http://www.w3.org/2000/svg" width="1000" height="1000"><path d="M879 -72 914 6C717 49 499 175 333 175C223 175 163 121 163 47C163 -32 217 -74 327 -74C443 -74 799 56 799 193C799 293 693 325 567 325C484 325 414 314 359 299C384 318 401 334 424 361L351 400C286 323 198 260 84 209L127 139C185 168 243 199 268 206C356 230 459 245 561 245C647 245 718 237 718 193C718 117 419 6 327 6C272 6 243 19 243 47C243 78 274 95 333 95C476 95 690 -21 879 -72ZM643 357C792 357 872 433 871 564C870 705 774 776 578 776C451 776 358 753 270 696C295 732 314 762 343 812L264 838C222 737 162 647 91 563L168 527C189 555 208 580 241 603C325 663 452 697 578 696C711 695 790 658 790 564C790 476 736 437 634 437C581 437 519 442 475 452V366C525 360 575 357 643 357ZM231 468 276 402C440 476 619 577 680 621L630 684C570 641 387 537 231 468ZM618 449 667 517C583 561 464 615 379 645L334 583C421 547 545 489 618 449Z" transform="translate(0, 880) scale(1,-1)" /></svg>