<svg xmlns="http://www.w3.org/2000/svg" width="1000" height="1000"><path d="M322 545 368 603C320 634 265 665 203 694L161 639C223 606 277 577 322 545ZM218 -68C384 -68 463 55 463 169C463 262 393 353 224 393L192 332C331 297 381 232 381 169C381 86 323 6 218 6C175 6 146 22 146 58C146 130 258 197 473 289L422 343C207 253 59 164 59 58C59 -28 123 -68 218 -68ZM227 367 289 323C363 375 439 443 481 495L426 547L409 538H83V467H355C322 432 278 397 227 367ZM241 631 299 586C366 639 438 706 487 764L426 811L409 802H93V732H356C327 698 284 660 241 631Z" transform="translate(0, 880) scale(1,-1)" /></svg>