<svg xmlns="http://www.w3.org/2000/svg" width="1000" height="1000"><path d="M899 -89 938 -6C657 60 530 240 289 240C169 240 85 179 85 86C85 -6 162 -61 267 -61C521 -61 791 160 791 282C791 393 706 444 511 444C409 444 304 427 213 400L246 319C316 346 419 364 511 364C639 364 703 340 703 282C703 189 455 19 267 19C199 19 168 44 168 86C168 127 223 160 289 160C498 160 621 -20 899 -89ZM431 388H513V835H431ZM75 604 115 531C272 598 466 640 625 640C786 640 832 611 832 585C832 556 825 533 806 508L888 477C909 511 918 538 918 586C918 685 812 720 625 720C435 720 232 667 75 604Z" transform="translate(0, 880) scale(1,-1)" /></svg>