<svg xmlns="http://www.w3.org/2000/svg" width="1000" height="1000"><path d="M315 379 366 317C526 391 675 468 824 567L763 626L687 579L330 573C412 635 500 709 587 790L504 837C415 738 320 657 231 591C211 575 182 566 154 559L192 474L226 490L547 495C484 458 402 420 315 379ZM467 -84C569 -84 594 -3 594 139C594 254 560 343 498 422L431 383C485 300 511 225 511 139C511 44 502 -5 456 -5C421 -5 373 2 323 20V-65C371 -79 419 -84 467 -84ZM56 96 122 52C185 125 249 242 287 340L203 361C173 272 117 167 56 96ZM877 45 956 77C922 157 853 276 777 370L704 334C778 237 846 125 877 45Z" transform="translate(0, 880) scale(1,-1)" /></svg>