<svg xmlns="http://www.w3.org/2000/svg" width="1000" height="1000"><path d="M339 -52H766C876 -52 912 -12 923 152L843 162C838 47 821 28 764 28H341C282 28 243 42 243 71C243 106 280 138 741 426L687 498L661 485H427C479 552 538 632 589 712L510 747C452 643 353 511 284 447L343 386L368 405H555C172 163 154 121 154 64C154 -9 213 -52 339 -52ZM59 278 133 249C171 334 207 457 226 560L142 571C127 473 94 353 59 278ZM100 698H900V778H100ZM863 247 944 271C929 356 903 476 865 576L790 557C826 455 850 331 863 247Z" transform="translate(0, 880) scale(1,-1)" /></svg>