<svg xmlns="http://www.w3.org/2000/svg" width="1000" height="1000"><path d="M413 426 475 366C555 449 663 604 716 713L636 740C591 639 489 496 413 426ZM406 -51H955V29H406ZM596 7 678 -29C751 34 800 141 800 250C800 339 749 390 663 390C589 390 524 336 524 255C524 166 590 122 661 122C678 122 691 124 703 128C683 79 647 44 596 7ZM663 191C628 191 602 218 602 255C602 291 628 318 663 318C699 318 721 291 721 255C721 218 699 191 663 191ZM785 282V609H705V342ZM518 448H937V528H518ZM420 699H933V779H420Z" transform="translate(0, 880) scale(1,-1)" /></svg>