<svg xmlns="http://www.w3.org/2000/svg" width="1000" height="1000"><path d="M654 -65C827 -65 917 57 917 227C917 399 792 466 588 466C527 466 483 462 442 457C520 517 681 641 809 754L749 805L726 797H246V717H641C561 633 410 511 298 435C279 422 193 389 136 363L180 290C289 342 430 385 569 385C726 385 836 344 836 227C836 101 776 15 646 15C588 15 529 23 473 43V-46C527 -60 589 -65 654 -65ZM207 118 249 41C411 108 583 216 693 328L626 377C523 265 357 175 207 118ZM584 72 645 129C586 195 473 284 391 335L334 281C415 231 528 135 584 72ZM82 542H918V622H82Z" transform="translate(0, 880) scale(1,-1)" /></svg>