<svg xmlns="http://www.w3.org/2000/svg" width="1000" height="1000"><path d="M359 388C510 388 575 482 575 593C575 717 508 785 367 785C278 785 215 759 168 718C185 751 199 784 215 826L133 852C105 752 66 668 16 585L89 548C108 581 125 617 139 636C200 681 281 705 367 705C450 705 495 670 495 593C495 522 459 466 359 466C295 466 222 475 170 487V404C222 395 278 388 359 388ZM32 -4 87 -67C288 90 342 274 355 607L275 609C261 292 215 143 32 -4ZM435 -58H853C939 -58 957 3 964 103L887 109C883 44 878 22 841 22H447C416 22 410 31 410 68V320H330V61C330 -33 353 -58 435 -58Z" transform="translate(0, 880) scale(1,-1)" /></svg>