<svg xmlns="http://www.w3.org/2000/svg" width="1000" height="1000"><path d="M312 631 385 659C367 703 333 776 296 826L224 798C259 748 292 685 312 631ZM613 635 678 610C722 672 758 741 786 804L703 830C683 769 653 697 613 635ZM512 44H626C698 101 741 184 741 262C741 370 657 443 510 443C340 443 245 389 245 284C245 192 314 138 430 138C508 138 546 184 546 246V591H466V275C466 231 441 216 411 216C378 216 330 245 330 284C330 333 372 360 510 360C604 360 656 314 656 260C656 205 634 136 512 44ZM72 -36H928V44H72ZM92 553H908V633H92Z" transform="translate(0, 880) scale(1,-1)" /></svg>