<svg xmlns="http://www.w3.org/2000/svg" width="1000" height="1000"><path d="M119 -56H881V24H119ZM373 20H520C581 64 605 151 605 228C605 320 560 363 483 363C421 363 361 320 361 245C361 166 415 125 483 125C501 125 517 129 531 139C508 83 454 38 373 20ZM128 692 166 619C253 669 395 732 579 732C751 732 801 689 801 624C801 511 595 504 300 538V452C630 427 883 435 883 624C883 730 819 812 579 812C357 812 215 745 128 692ZM573 292V630H496V322ZM483 195C455 195 433 217 433 245C433 273 455 295 483 295C511 295 533 273 533 245C533 217 511 195 483 195Z" transform="translate(0, 880) scale(1,-1)" /></svg>