<svg xmlns="http://www.w3.org/2000/svg" width="1000" height="1000"><path d="M118 -56H880V24H118ZM373 20H520C581 64 605 151 605 228C605 320 560 363 483 363C421 363 361 320 361 245C361 166 415 125 483 125C501 125 517 129 531 139C508 83 454 38 373 20ZM129 440H209V609C308 685 418 732 589 732C761 732 811 689 811 624C811 511 605 504 310 538V452C640 427 893 435 893 624C893 730 829 812 589 812C402 812 282 758 209 679V772H129ZM573 292V630H496V322ZM483 195C455 195 433 217 433 245C433 273 455 295 483 295C511 295 533 273 533 245C533 217 511 195 483 195Z" transform="translate(0, 880) scale(1,-1)" /></svg>