<svg xmlns="http://www.w3.org/2000/svg" width="1000" height="1000"><path d="M513 457 588 424C677 508 769 619 820 721L765 765L749 758H335V678H695C660 609 596 534 513 457ZM101 -7 150 -80C421 2 846 151 846 328C846 441 745 485 556 485C381 485 250 449 124 403L158 328C284 381 399 406 556 406C687 406 762 378 762 328C762 211 371 66 101 -7ZM843 -87 902 -13C653 120 458 203 230 269L192 201C417 130 598 50 843 -87ZM126 546 191 495C285 583 373 691 445 801L380 839C309 728 222 627 126 546Z" transform="translate(0, 880) scale(1,-1)" /></svg>