<svg xmlns="http://www.w3.org/2000/svg" width="1000" height="1000"><path d="M526 -83C759 -83 914 12 914 148C914 262 814 355 603 355C533 355 494 350 441 339C565 409 682 480 783 542L712 607L688 597H253V518H600C504 450 385 373 289 316C265 302 229 287 181 277L232 205C338 249 456 275 579 275C744 275 826 230 826 148C826 40 646 -3 521 -3C424 -3 377 13 377 44C377 69 409 90 462 90C542 90 592 55 606 -29L685 -15C666 90 592 159 463 159C358 159 289 107 289 44C289 -32 363 -83 526 -83ZM131 707H892V787H131Z" transform="translate(0, 880) scale(1,-1)" /></svg>