<svg xmlns="http://www.w3.org/2000/svg" width="1000" height="1000"><path d="M351 618 410 683C349 729 281 773 203 816L149 753C226 710 293 664 351 618ZM218 -67C384 -67 464 66 464 188C464 287 393 388 224 431L192 356C331 319 379 255 379 188C379 100 323 15 218 15C173 15 144 31 144 70C144 146 256 209 471 307L422 373C207 278 61 182 61 70C61 -25 123 -67 218 -67ZM218 403 292 363C366 422 442 499 484 557L419 613L402 604H83V524H343C311 481 269 439 218 403Z" transform="translate(0, 880) scale(1,-1)" /></svg>