<svg xmlns="http://www.w3.org/2000/svg" width="1000" height="1000"><path d="M429 388H515V835H429ZM78 614 115 539C254 597 436 639 625 639C786 639 832 607 832 585C832 556 825 533 806 508L888 477C909 511 918 538 918 586C918 675 812 720 625 720C405 720 220 671 78 614ZM95 -9 141 -86C422 -11 809 132 809 298C809 406 727 442 559 442C398 442 275 408 157 363L187 287C306 339 415 362 559 362C667 362 725 344 725 298C725 193 377 58 95 -9ZM843 -94 901 -20C652 103 457 180 229 241L192 173C417 107 598 33 843 -94Z" transform="translate(0, 880) scale(1,-1)" /></svg>