<svg xmlns="http://www.w3.org/2000/svg" width="1000" height="1000"><path d="M329 -64H798C921 -64 936 6 947 137L867 147C860 50 855 16 799 16H326C236 16 220 36 220 61C220 119 373 189 559 255C709 309 856 362 856 454C856 529 780 571 588 571C435 571 324 551 227 525L249 444C344 474 437 490 588 490C730 490 770 476 770 454C770 415 667 378 531 331C292 249 131 163 131 61C131 -18 184 -64 329 -64ZM731 154 776 222C635 281 467 340 297 378L265 306C431 270 593 210 731 154ZM49 551 99 479C230 557 344 671 430 816L354 843C274 708 172 617 49 551ZM474 553 552 517C610 572 677 654 721 724L661 767L645 758H319V678H588C559 636 511 587 474 553Z" transform="translate(0, 880) scale(1,-1)" /></svg>