<svg xmlns="http://www.w3.org/2000/svg" width="1000" height="1000"><path d="M201 388C335 388 436 466 436 623C436 718 391 811 243 811C178 811 116 794 76 775L98 707C135 724 192 737 245 737C326 737 357 688 357 613C357 517 292 460 203 460C175 460 159 474 159 497C159 607 512 745 694 745C784 745 825 712 825 644C825 546 781 495 663 495C624 495 556 506 483 526V446C555 430 612 419 669 419C841 419 912 510 912 644C912 758 848 823 694 823C471 823 78 649 78 489C78 428 138 388 201 388ZM437 328 505 299C587 383 639 466 688 582L605 604C559 488 508 401 437 328Z" transform="translate(0, 880) scale(1,-1)" /></svg>