<svg xmlns="http://www.w3.org/2000/svg" width="1000" height="1000"><path d="M662 570 714 639C604 700 477 759 327 819L284 754C430 694 557 631 662 570ZM383 42 465 12C565 68 670 149 670 245C670 314 616 373 503 373C391 373 341 320 341 255C341 187 408 139 546 139C758 139 879 237 879 381C879 492 770 563 555 563C352 563 193 513 100 472L138 399C232 438 399 482 555 482C701 482 791 448 791 381C791 281 712 217 546 217C462 217 426 228 426 255C426 275 449 296 503 296C553 296 584 277 584 245C584 164 489 94 383 42ZM78 -30H922V50H78Z" transform="translate(0, 880) scale(1,-1)" /></svg>