<svg xmlns="http://www.w3.org/2000/svg" width="1000" height="1000"><path d="M25 101 79 44C97 67 114 98 136 137C144 151 157 151 164 148C172 144 177 134 186 99L261 157L248 202L207 183C204 200 195 213 173 220C197 280 218 344 237 415L174 428C132 278 78 162 25 101ZM262 -70C346 -70 379 41 379 183C379 322 336 492 270 618L209 567C267 474 301 304 301 182C300 102 290 0 259 0C235 0 209 7 175 21V-59C200 -67 228 -70 262 -70ZM447 124 490 191C429 227 346 263 245 300L217 232C312 197 390 163 447 124ZM308 406 336 343C386 370 422 390 464 429L420 488C384 452 355 431 308 406ZM89 776V697H470V776ZM319 740 246 752C219 587 156 521 58 440L109 375C214 469 289 550 319 740Z" transform="translate(0, 880) scale(1,-1)" /></svg>