<svg xmlns="http://www.w3.org/2000/svg" width="1000" height="1000"><path d="M234 -17H590C662 -17 705 17 705 108C705 185 654 287 594 373L514 342C577 253 620 165 620 116C620 84 603 62 572 62H234C195 62 167 76 167 127C167 295 231 525 340 737L263 771C142 550 84 304 84 101C84 1 138 -17 234 -17ZM810 153 891 132C910 202 922 282 922 425C922 553 845 628 719 628C602 628 506 600 419 550L448 471C530 523 627 546 719 546C793 546 842 501 842 417C842 303 830 224 810 153Z" transform="translate(0, 880) scale(1,-1)" /></svg>