<svg xmlns="http://www.w3.org/2000/svg" width="1000" height="1000"><path d="M568 388C777 388 867 481 867 592C867 723 774 785 578 785C451 785 369 758 281 702C308 737 325 774 355 826L268 852C229 752 175 668 106 585L180 548C201 575 227 606 246 625C330 671 462 705 578 705C711 705 787 676 787 592C787 521 736 466 568 466C480 466 378 475 306 487V404C378 395 455 388 568 388ZM42 2 87 -67C478 90 525 274 545 607L465 611C445 318 415 149 42 2ZM625 -58H803C889 -58 907 3 914 103L837 109C833 44 828 22 791 22H637C606 22 600 31 600 68V320H520V61C520 -33 543 -58 625 -58ZM922 186 966 261C894 299 795 340 723 360L691 289C765 269 853 228 922 186Z" transform="translate(0, 880) scale(1,-1)" /></svg>