<svg xmlns="http://www.w3.org/2000/svg" width="1000" height="1000"><path d="M79 -55 475 45 455 123 59 23ZM206 53 284 20C345 67 369 160 369 243C369 335 324 378 247 378C185 378 125 335 125 260C125 181 179 140 247 140C263 140 275 142 288 148C281 116 251 79 206 53ZM53 732 94 659C139 692 215 732 310 732C385 732 414 693 414 628C414 515 319 504 158 538V452C338 427 494 439 494 628C494 734 460 812 310 812C184 812 102 767 53 732ZM337 307V640H260V337ZM247 210C219 210 197 232 197 260C197 288 219 310 247 310C275 310 297 288 297 260C297 232 275 210 247 210Z" transform="translate(0, 880) scale(1,-1)" /></svg>