<svg xmlns="http://www.w3.org/2000/svg" width="1000" height="1000"><path d="M38 483 119 455C161 557 194 700 212 814L134 824C116 708 81 574 38 483ZM123 613H489V693H123ZM154 21 218 -19C328 51 414 145 414 231C414 309 366 356 307 356C230 356 168 318 168 247C168 174 233 128 302 146C274 105 230 61 154 21ZM292 203C263 203 239 219 239 247C239 275 264 291 293 291C317 291 342 272 342 250C342 218 318 203 292 203ZM384 270V497H304V328ZM149 523V443H487V523ZM65 7 85 -69 497 42 477 117Z" transform="translate(0, 880) scale(1,-1)" /></svg>