<svg xmlns="http://www.w3.org/2000/svg" width="1000" height="1000"><path d="M145 303H225V780H145ZM316 420V339C708 300 859 384 859 579C859 735 756 811 547 811C358 811 222 739 154 673L202 609C269 670 393 730 547 730C710 730 777 680 777 579C777 422 635 377 316 420ZM55 13 80 -67C466 -1 529 174 529 386V596H449V388C449 227 437 76 55 13ZM680 -69H797C920 -69 937 -4 949 158L869 166C861 36 852 11 804 11H670C629 11 620 18 620 48V253H540V23C540 -46 580 -69 680 -69Z" transform="translate(0, 880) scale(1,-1)" /></svg>