<svg xmlns="http://www.w3.org/2000/svg" width="1000" height="1000"><path d="M103 643 176 600C231 664 284 741 327 819L252 853C210 774 160 703 103 643ZM291 -74C438 -74 452 125 452 409C452 603 411 683 294 683C200 683 123 665 76 643L92 568C143 590 214 603 294 603C356 603 372 528 372 409C372 172 357 4 285 4C254 4 226 9 193 25V-62C226 -70 254 -74 291 -74ZM430 408 396 482C210 385 16 272 16 106C16 31 66 4 110 4C225 4 240 221 247 519L167 521C163 250 142 84 110 84C99 84 96 92 96 106C96 205 256 324 430 408Z" transform="translate(0, 880) scale(1,-1)" /></svg>