<svg xmlns="http://www.w3.org/2000/svg" width="1000" height="1000"><path d="M318 483V399C377 392 445 388 530 388C752 388 878 467 878 611C878 727 776 805 555 805C372 805 202 759 102 711L138 638C232 682 399 725 555 725C707 725 792 681 792 611C792 517 706 467 530 467C453 467 383 472 318 483ZM481 -78C536 -78 583 -69 644 -41V53C582 20 537 5 495 5C472 5 461 13 461 40V336H382V19C382 -51 414 -78 481 -78ZM899 11 960 78C861 166 738 266 631 337L576 279C682 204 802 104 899 11ZM561 576 478 602C401 408 257 227 45 98L98 27C311 158 468 366 561 576Z" transform="translate(0, 880) scale(1,-1)" /></svg>