<svg xmlns="http://www.w3.org/2000/svg" width="1000" height="1000"><path d="M45 483 119 457C161 559 194 702 212 816L141 824C123 708 88 574 45 483ZM123 617H489V690H123ZM164 21 218 -19C328 51 414 145 414 231C414 309 366 356 307 356C230 356 168 318 168 247C168 174 233 128 312 146C284 105 240 61 164 21ZM295 199C263 199 236 216 236 247C236 278 264 297 296 297C323 297 349 276 349 252C349 216 324 199 295 199ZM383 270V497H308V328ZM149 520V446H487V520ZM65 2 85 -65 497 46 477 112Z" transform="translate(0, 880) scale(1,-1)" /></svg>