<svg xmlns="http://www.w3.org/2000/svg" width="1000" height="1000"><path d="M70 548 131 487C284 592 368 700 439 817L355 839C298 742 211 639 70 548ZM420 536 491 486C570 558 671 667 739 756L678 798L660 786H346V706H594C546 650 481 585 420 536ZM241 80V365H161V66C161 -38 209 -59 360 -59H748C884 -59 924 -8 947 148L860 162C847 45 829 21 749 21H360C260 21 241 35 241 80ZM663 230C767 230 812 302 829 541L765 560L748 549H298V470H739C729 338 698 310 649 310C551 310 482 318 405 330V245C482 236 560 230 663 230Z" transform="translate(0, 880) scale(1,-1)" /></svg>