<svg xmlns="http://www.w3.org/2000/svg" width="1000" height="1000"><path d="M38 483 119 455C161 557 194 700 212 814L134 824C116 708 81 574 38 483ZM123 613H489V693H123ZM154 21 218 -19C328 51 412 141 412 247C412 318 364 356 290 356C216 356 168 318 168 247C168 174 222 130 302 140C274 99 230 61 154 21ZM290 206C264 206 243 222 243 247C243 272 265 288 290 288C315 288 337 272 337 247C337 222 316 206 290 206ZM384 270V497H304V328ZM149 523V443H487V523ZM65 8 85 -70 497 41 477 118Z" transform="translate(0, 880) scale(1,-1)" /></svg>