<svg xmlns="http://www.w3.org/2000/svg" width="1000" height="1000"><path d="M435 -68C508 -68 549 -32 549 41V839H464V56C464 23 457 5 422 5C378 5 340 12 295 31V-52C339 -63 389 -68 435 -68ZM53 40 116 -12C246 122 341 296 379 461L304 471C258 301 185 164 53 40ZM936 23 964 102C733 193 505 263 272 313L256 242C488 194 720 114 936 23ZM277 547 351 578C329 638 272 731 219 800L149 770C201 699 256 606 277 547ZM82 449H918V525H82ZM652 576 716 550C758 609 811 700 852 778L775 806C746 735 694 636 652 576Z" transform="translate(0, 880) scale(1,-1)" /></svg>