<svg xmlns="http://www.w3.org/2000/svg" width="1000" height="1000"><path d="M51 171 70 93 485 182 466 260ZM274 -82C324 -82 351 -53 351 13V525H271V16C271 3 264 -3 243 -3C220 -3 192 1 154 14L155 -71C197 -79 235 -82 274 -82ZM143 583 89 440C84 426 77 418 66 413L100 336L124 343H435V423H168L226 583H474V663H64V583ZM173 658 249 686C235 724 207 784 177 830L105 801C133 755 161 698 173 658ZM294 685 357 652C393 706 421 756 446 810L363 836C346 783 323 732 294 685Z" transform="translate(0, 880) scale(1,-1)" /></svg>