<svg xmlns="http://www.w3.org/2000/svg" width="1000" height="1000"><path d="M483 27 558 1C689 113 771 206 771 337C771 480 687 553 503 553C309 553 209 478 209 363C209 253 277 183 399 183C490 183 550 249 550 328V729H470V353C470 289 442 262 396 262C339 262 292 298 292 363C292 415 350 471 503 471C644 471 688 422 688 337C688 238 620 145 483 27ZM63 -36H940V44H63ZM102 697H896V777H102ZM903 156 969 201C931 263 888 323 839 382L777 339C824 280 866 218 903 156Z" transform="translate(0, 880) scale(1,-1)" /></svg>