<svg xmlns="http://www.w3.org/2000/svg" width="1000" height="1000"><path d="M324 380 360 314C522 389 673 468 823 569L755 626L670 572L324 568C409 632 499 714 589 798L504 837C415 738 320 652 231 586C211 570 182 561 154 554L185 480L219 496L556 502C493 465 411 421 324 380ZM467 -80C541 -80 594 -3 594 139C594 254 560 343 498 422L431 383C485 300 511 225 511 139C511 44 485 -9 456 -9C431 -9 379 -2 323 16V-61C371 -75 419 -80 467 -80ZM57 96 121 52C184 125 248 242 286 340L204 361C174 272 118 167 57 96ZM877 45 957 76C923 156 854 275 778 369L704 334C778 237 846 125 877 45Z" transform="translate(0, 880) scale(1,-1)" /></svg>