<svg xmlns="http://www.w3.org/2000/svg" width="1000" height="1000"><path d="M246 -72C308 -72 335 -35 335 28V558H255V36C255 15 247 6 232 6C206 6 174 13 140 28V-59C171 -67 203 -72 246 -72ZM65 95 512 191 495 267 47 176ZM291 479 311 401C418 421 504 488 504 585C504 682 435 722 346 722C293 722 252 706 222 686C259 731 296 768 346 810L258 851C167 746 116 670 94 606C75 551 72 489 100 419L182 433C157 489 160 540 174 582C197 611 262 642 318 642C384 642 422 627 422 585C422 530 375 495 291 479ZM66 297H484V377H66Z" transform="translate(0, 880) scale(1,-1)" /></svg>