<svg xmlns="http://www.w3.org/2000/svg" width="1000" height="1000"><path d="M520 539 596 489C665 594 711 702 746 819L664 836C635 736 586 632 520 539ZM711 543 784 506C820 575 866 680 897 766L831 798L822 786H674V706H788C767 650 738 589 711 543ZM659 69V366H581V65C581 -42 616 -64 709 -64H861C933 -64 955 -13 967 144L887 152C880 38 871 15 828 15H726C670 15 659 25 659 69ZM825 232C892 232 928 278 937 541L878 559L865 549H652V470H857C848 326 836 311 815 311C778 311 743 314 706 324V241C740 235 780 232 825 232Z" transform="translate(0, 880) scale(1,-1)" /></svg>