<svg xmlns="http://www.w3.org/2000/svg" width="1000" height="1000"><path d="M473 -82C714 -82 904 -5 904 122C904 229 800 291 589 291C519 291 442 282 382 271C424 313 480 400 514 469L427 486C399 415 341 316 279 259L251 249L302 176C374 198 456 213 569 213C734 213 816 202 816 122C816 21 604 -5 473 -5C366 -5 316 4 316 23C316 41 356 55 411 55C492 55 548 35 562 -37L645 -24C625 66 548 124 412 124C304 124 230 73 230 23C230 -45 305 -82 473 -82ZM287 578 308 500C386 523 493 545 603 545C732 545 778 531 778 486C778 420 712 380 397 409V331C778 297 865 384 865 486C865 579 773 623 603 623C479 623 365 600 287 578ZM479 606 545 566C635 626 710 686 752 730L696 780L673 764H326V688H591C563 662 523 633 479 606ZM109 573 172 514C268 582 385 709 439 826L355 847C301 730 197 626 109 573Z" transform="translate(0, 880) scale(1,-1)" /></svg>