<svg xmlns="http://www.w3.org/2000/svg" width="1000" height="1000"><path d="M320 394V315C721 300 864 327 864 454C864 526 791 591 566 591C393 591 272 558 179 507L209 437C297 486 407 513 566 513C717 513 784 490 784 454C784 388 658 379 320 394ZM77 80H923V158H77ZM447 -74C526 -74 556 -39 556 32L557 453H477L476 48C476 19 466 3 438 3C406 3 366 9 324 22V-62C360 -70 398 -74 447 -74ZM156 333H236V560H156ZM125 201H875V279H125ZM310 676 384 715C359 757 324 804 288 846L221 809C256 768 286 721 310 676ZM73 622H927V700H73ZM624 696 690 662C729 712 761 765 792 815L714 849C692 800 658 744 624 696Z" transform="translate(0, 880) scale(1,-1)" /></svg>