<svg xmlns="http://www.w3.org/2000/svg" width="1000" height="1000"><path d="M912 -81 954 -11C697 85 492 271 321 271C203 271 90 219 90 101C90 9 149 -50 273 -50C501 -50 841 195 841 314C841 415 741 439 598 439C465 439 344 428 239 415V643H160V408L152 388L167 334C301 353 435 364 598 364C704 364 755 348 755 314C755 222 440 19 273 19C204 19 171 55 171 101C171 155 222 199 321 199C464 199 646 20 912 -81ZM709 517C799 517 825 620 842 790L780 809L760 798H160V730H754C744 643 728 586 681 586C581 586 512 597 434 612V538C516 525 599 517 709 517Z" transform="translate(0, 880) scale(1,-1)" /></svg>