<svg xmlns="http://www.w3.org/2000/svg" width="1000" height="1000"><path d="M501 668 576 689C559 740 529 800 498 847L426 825C454 779 487 716 501 668ZM809 478 888 447C912 501 923 536 923 573C923 668 818 713 587 713C415 713 264 679 166 633V695H82V465H166V562C278 603 433 630 587 630C782 630 836 604 836 568C836 544 830 521 809 478ZM110 359 167 310C261 374 362 456 423 536L345 570C298 498 203 414 110 359ZM821 308 889 352C830 421 729 508 646 574L584 530C667 464 765 379 821 308Z" transform="translate(0, 880) scale(1,-1)" /></svg>