<svg xmlns="http://www.w3.org/2000/svg" width="1000" height="1000"><path d="M292 534 214 545C173 368 102 207 33 87L108 46C176 173 250 354 292 534ZM303 28C275 28 262 41 262 70C262 115 302 218 404 330L349 373C238 263 182 141 182 70C182 -4 230 -49 303 -49C404 -49 454 25 454 187C454 356 408 414 312 414C255 414 212 395 182 357L201 284C235 318 275 335 312 335C355 335 371 289 371 187C371 63 340 28 303 28ZM59 494H486V574H59ZM345 613 398 676C338 724 269 768 192 812L143 751C220 707 287 660 345 613Z" transform="translate(0, 880) scale(1,-1)" /></svg>