<svg xmlns="http://www.w3.org/2000/svg" width="1000" height="1000"><path d="M654 -60C817 -60 917 66 917 241C917 407 790 473 588 473C527 473 476 469 435 463C513 525 674 659 802 775L753 823L726 815H246V741H648C568 655 417 520 305 442C286 428 193 394 136 367L180 306C289 360 430 404 569 404C725 404 836 358 836 239C836 109 766 12 646 12C588 12 529 20 473 41V-41C527 -55 589 -60 654 -60ZM260 31C363 31 593 226 690 336L625 382C537 273 348 108 279 108C259 108 241 140 234 182L160 166C179 79 203 31 260 31ZM577 75 634 130C577 198 469 289 390 341L337 289C415 238 524 139 577 75ZM82 561H918V636H82Z" transform="translate(0, 880) scale(1,-1)" /></svg>