<svg xmlns="http://www.w3.org/2000/svg" width="1000" height="1000"><path d="M321 541 368 607C320 638 265 669 203 698L160 635C222 602 276 573 321 541ZM218 -71C384 -71 463 55 463 169C463 262 393 353 224 393L192 320C331 285 381 232 381 169C381 86 323 9 218 9C175 9 146 25 146 58C146 130 248 187 463 279L422 343C207 253 59 164 59 58C59 -31 123 -71 218 -71ZM228 367 289 323C363 375 439 443 481 495L426 547L409 538H83V458H337C308 426 274 398 228 367ZM234 631 299 586C364 639 438 708 487 764L426 811L409 802H93V722H339C312 690 277 660 234 631Z" transform="translate(0, 880) scale(1,-1)" /></svg>