<svg xmlns="http://www.w3.org/2000/svg" width="1000" height="1000"><path d="M899 -89 938 -6C657 60 530 240 289 240C169 240 85 179 85 86C85 -6 162 -61 267 -61C521 -61 791 160 791 282C791 393 706 444 511 444C409 444 304 427 213 400L246 319C316 346 419 364 511 364C639 364 703 340 703 282C703 189 455 19 267 19C199 19 168 44 168 86C168 127 223 160 289 160C498 160 621 -20 899 -89ZM459 388H541V835H459ZM811 501 889 472C912 524 922 555 922 588C922 676 818 720 587 720C416 720 264 689 165 647V704H83V490H165V578C277 615 433 639 587 639C782 639 837 616 837 582C837 562 830 541 811 501Z" transform="translate(0, 880) scale(1,-1)" /></svg>