<svg xmlns="http://www.w3.org/2000/svg" width="1000" height="1000"><path d="M574 300 656 281C667 311 673 341 673 372C673 457 616 533 503 533C385 533 338 461 338 387C338 308 408 249 546 249C758 249 879 332 879 538C879 689 800 801 575 801C392 801 283 758 190 698L228 631C322 687 429 719 575 719C731 719 795 644 795 538C795 394 712 322 546 322C462 322 426 346 426 387C426 423 449 457 503 457C553 457 584 426 584 372C584 347 580 323 574 300ZM164 788V262H244V788Z" transform="translate(0, 880) scale(1,-1)" /></svg>