<svg xmlns="http://www.w3.org/2000/svg" width="1000" height="1000"><path d="M499 668 578 690C561 741 531 801 500 848L424 825C452 779 485 716 499 668ZM812 478 885 447C909 501 920 536 920 573C920 668 818 712 587 712C415 712 262 678 164 632V695H84V465H164V563C276 604 433 631 587 631C782 631 839 604 839 568C839 544 833 521 812 478ZM110 359 166 297C260 361 361 443 422 523L345 570C298 498 203 414 110 359ZM823 296 888 350C829 419 728 506 645 572L586 518C669 452 767 367 823 296Z" transform="translate(0, 880) scale(1,-1)" /></svg>