<svg xmlns="http://www.w3.org/2000/svg" width="1000" height="1000"><path d="M38 483 119 455C161 557 194 700 212 814L134 824C116 708 81 574 38 483ZM123 613H489V693H123ZM154 21 218 -19C328 51 414 145 414 231C414 309 366 356 307 356C230 356 168 318 168 247C168 174 233 128 302 146C274 105 230 61 154 21ZM292 206C264 206 243 221 243 247C243 271 265 288 292 288C316 288 338 271 338 250C338 220 317 206 292 206ZM384 270V497H304V328ZM149 523V443H487V523ZM65 7 85 -69 497 42 477 117Z" transform="translate(0, 880) scale(1,-1)" /></svg>