<svg xmlns="http://www.w3.org/2000/svg" width="1000" height="1000"><path d="M202 -71C336 -71 437 19 437 203C437 334 402 434 252 434C192 434 133 417 96 397L116 320C152 340 203 354 252 354C335 354 356 298 356 203C356 87 291 8 202 8C174 8 158 23 158 48C158 175 562 376 704 376C794 376 827 333 827 243C827 113 791 11 673 11C615 11 556 21 493 41V-44C555 -61 612 -68 679 -68C851 -68 908 72 908 243C908 365 855 456 711 456C528 456 78 234 78 48C78 -32 131 -71 202 -71ZM732 72 751 144C674 165 596 184 518 195L500 125C580 111 655 95 732 72ZM143 509H223V800H143ZM742 200 761 273C687 292 611 306 536 316L519 247C594 236 667 220 742 200ZM292 395 360 351C465 438 540 541 540 671H460C460 555 393 475 292 395ZM323 584V504C659 481 824 510 824 668C824 782 697 822 537 822C381 822 276 792 170 736L201 665C289 710 403 741 537 741C667 741 743 715 743 668C743 582 630 564 323 584Z" transform="translate(0, 880) scale(1,-1)" /></svg>