<svg xmlns="http://www.w3.org/2000/svg" width="1000" height="1000"><path d="M391 260 466 225C548 292 650 385 709 449L645 507L627 497H410C461 582 513 707 550 827L469 845C425 701 368 563 298 471L351 407L373 417H562C520 370 461 315 391 260ZM745 131 767 209C596 256 427 290 265 316L237 241C411 211 579 176 745 131ZM131 642 150 568C225 590 306 600 407 600H729C795 600 825 573 825 514V42C825 14 820 0 793 0C762 0 716 8 666 24V-62C714 -73 758 -79 797 -79C869 -79 905 -48 905 30V524C905 621 856 679 736 679H405C295 679 213 666 131 642ZM178 -82V679H98V-82Z" transform="translate(0, 880) scale(1,-1)" /></svg>