<svg xmlns="http://www.w3.org/2000/svg" width="1000" height="1000"><path d="M38 -35 107 -77C223 85 237 331 237 501V726H757V480C757 105 787 -70 894 -70C952 -70 974 -18 983 112L918 121C914 44 906 10 894 10C861 10 837 145 837 467V806H157V501C157 341 147 118 38 -35ZM401 92H618C686 92 712 139 729 242L657 254C648 192 638 168 601 168H397C359 168 354 176 354 189C354 203 367 216 694 404L656 477L637 468H308V390H529C302 269 272 232 272 181C272 126 314 92 401 92ZM313 563H675V641H313Z" transform="translate(0, 880) scale(1,-1)" /></svg>