<svg xmlns="http://www.w3.org/2000/svg" width="1000" height="1000"><path d="M53 337H596V416H53ZM338 408 406 368C466 405 525 456 525 526C525 604 450 640 327 640C197 640 117 609 117 535C117 470 158 435 247 435C316 435 367 463 367 542V830H287V549C287 521 265 510 238 510C215 510 197 517 197 535C197 553 228 564 327 564C405 564 445 551 445 526C445 494 414 453 338 408ZM70 667H585V746H70ZM257 -78C421 -78 565 -1 565 144C565 264 466 309 185 302V223C418 229 485 208 485 144C485 51 361 1 257 1C194 1 170 15 170 34C170 77 268 124 515 163L481 239C212 193 85 114 85 34C85 -33 134 -78 257 -78ZM73 203 143 161C199 207 265 283 304 350L227 381C191 319 131 250 73 203Z" transform="translate(0, 880) scale(1,-1)" /></svg>