<svg xmlns="http://www.w3.org/2000/svg" width="1000" height="1000"><path d="M104 53V-39C141 -52 187 -61 241 -61C369 -61 508 21 508 221C508 433 407 498 143 452V373C371 416 427 361 427 221C427 99 350 18 241 18C185 18 139 33 104 53ZM72 530H513V608H146C169 671 190 740 211 814L134 833C117 753 95 677 70 607L57 596ZM217 448 292 424C352 499 426 614 479 728L419 770L399 763H236V684H363C327 607 276 526 217 448ZM184 354V143H264V354ZM76 147 96 72 407 152 387 227Z" transform="translate(0, 880) scale(1,-1)" /></svg>