<svg xmlns="http://www.w3.org/2000/svg" width="1000" height="1000"><path d="M618 -69C793 -69 808 77 808 205C808 282 787 345 599 345C519 345 421 337 312 323L315 245C427 260 517 265 599 265C709 265 728 243 728 205C728 124 715 9 608 9C556 9 501 13 452 23V-59C508 -68 548 -69 618 -69ZM135 -33 218 -66C307 61 326 171 332 337H252C244 175 226 86 135 -33ZM661 103 664 182 372 187 368 108ZM55 388H945V468H55ZM262 521H738V601H262ZM112 654H888V734H112ZM460 564H540V835H460Z" transform="translate(0, 880) scale(1,-1)" /></svg>