<svg xmlns="http://www.w3.org/2000/svg" width="1000" height="1000"><path d="M68 409H657V489H68ZM109 -18 411 94 384 167 81 61ZM169 70H249V345H169ZM731 19H811V453H731ZM534 445H454V-88H534ZM929 59H614V-21H929ZM497 694 576 715C560 759 533 812 504 853L428 832C454 792 484 737 497 694ZM811 527 890 498C913 548 923 581 923 612C923 700 818 742 587 742C417 742 263 710 164 669V724H84V516H164V600C276 636 433 660 587 660C782 660 836 637 836 605C836 585 831 565 811 527Z" transform="translate(0, 880) scale(1,-1)" /></svg>