<svg xmlns="http://www.w3.org/2000/svg" width="1000" height="1000"><path d="M706 60 766 -1C852 60 897 130 897 205C897 299 845 366 700 366C539 366 435 278 435 180C435 108 479 60 552 60C650 60 709 126 709 249C709 369 610 441 457 441C243 441 106 334 106 208C106 136 150 77 227 77C398 77 492 414 498 684L421 688C415 431 344 152 220 152C196 152 181 169 181 208C181 272 259 371 457 371C581 371 634 309 634 249C634 169 609 130 552 130C525 130 508 148 508 180C508 230 571 293 700 293C807 293 819 244 819 205C819 148 781 82 706 60ZM122 -39H878V29H122ZM130 519H209V803H130ZM306 583V510C706 489 835 526 835 672C835 784 697 817 539 817C367 817 268 780 158 721L190 662C281 710 399 749 539 749C673 749 752 709 752 669C752 602 685 550 306 583Z" transform="translate(0, 880) scale(1,-1)" /></svg>