<svg xmlns="http://www.w3.org/2000/svg" width="1000" height="1000"><path d="M310 653 385 681C368 718 336 780 301 821L228 793C261 751 291 698 310 653ZM84 589H916V668H84ZM612 662 680 636C721 688 756 745 782 798L700 824C681 774 651 713 612 662ZM45 105 84 29C122 49 157 76 202 109C219 121 246 122 261 119C278 114 289 91 306 24L458 129L431 173L336 126C331 153 317 174 286 184C328 233 366 286 401 344L345 380C261 254 153 156 45 105ZM478 -70C596 -70 648 35 646 154C646 270 572 422 461 543L402 489C484 408 567 259 566 153C565 82 546 5 474 5C434 5 396 12 358 28V-58C393 -67 433 -70 478 -70ZM911 4 962 72C835 145 663 217 454 293L433 222C630 151 791 82 911 4ZM556 318 580 253C694 288 777 315 874 368L827 433C740 384 669 353 556 318ZM105 668V590H895V668ZM548 623 469 650C413 508 281 451 78 382L111 310C329 390 486 460 548 623Z" transform="translate(0, 880) scale(1,-1)" /></svg>