<svg xmlns="http://www.w3.org/2000/svg" width="1000" height="1000"><path d="M130 519H210V803H130ZM706 58 766 -3C852 58 897 128 897 203C897 297 845 366 700 366C539 366 433 279 433 181C433 109 479 58 552 58C650 58 711 124 711 247C711 367 610 443 457 443C243 443 103 329 103 203C103 131 150 73 227 73C398 73 494 413 500 683L420 685C414 428 344 152 220 152C196 152 181 167 181 203C181 267 259 364 457 364C581 364 633 307 633 247C633 178 602 136 552 136C527 136 511 155 511 181C511 231 571 288 700 288C796 288 819 242 819 203C819 146 781 95 706 58ZM122 -46H878V32H122ZM306 585V505C706 484 834 521 834 667C834 779 724 820 546 820C374 820 257 786 142 727L186 655C283 707 406 742 546 742C690 742 753 709 753 667C753 602 685 552 306 585Z" transform="translate(0, 880) scale(1,-1)" /></svg>