<svg xmlns="http://www.w3.org/2000/svg" width="1000" height="1000"><path d="M324 -80C411 -80 440 -5 440 110C440 298 358 562 263 826L186 803C282 540 358 288 358 110C358 29 344 0 300 0C269 0 236 11 205 28V-62C242 -75 278 -80 324 -80ZM34 -27 103 -72C214 93 271 222 312 403L235 420C193 247 141 124 34 -27ZM57 540H478V620H57ZM459 -25 531 -73C727 140 766 521 763 828H681C681 526 648 175 459 -25ZM887 -73 961 -28C898 114 811 270 724 406L659 358C737 231 825 72 887 -73Z" transform="translate(0, 880) scale(1,-1)" /></svg>