<svg xmlns="http://www.w3.org/2000/svg" width="1000" height="1000"><path d="M606 -71C773 -71 904 48 904 248C904 465 766 557 586 556C406 555 266 513 89 430L128 355C302 444 452 476 586 476C721 476 824 406 824 248C824 89 716 7 599 7C551 7 511 11 464 22V-60C509 -67 548 -71 606 -71ZM133 167 200 134C257 191 295 258 329 324L251 347C222 285 184 222 133 167ZM418 86H497V390H418ZM249 580 324 619C299 673 251 742 191 801L120 768C178 708 225 636 249 580ZM697 139 765 182C734 235 689 298 641 354L572 316C624 256 664 196 697 139ZM459 498H539V840H459ZM672 607 739 574C790 628 840 701 883 776L800 809C771 741 721 663 672 607Z" transform="translate(0, 880) scale(1,-1)" /></svg>