<svg xmlns="http://www.w3.org/2000/svg" width="1000" height="1000"><path d="M180 -59C292 -59 364 66 364 213C364 354 310 399 237 398C295 435 343 480 386 541L336 581L311 569H94V500H262C235 447 193 404 124 390V326C151 336 181 341 215 341C273 341 295 302 295 213C295 103 249 11 180 11C152 11 134 31 134 71C134 220 364 339 491 339C567 339 600 305 600 227C600 113 562 63 525 63C496 63 480 93 480 134C480 295 640 448 782 483V36H700V-34H938V36H856V550L799 562L777 550C599 518 415 312 415 136C415 58 450 -6 525 -6C618 -6 675 88 674 227C673 336 637 410 491 410C331 410 65 265 65 71C65 -13 109 -59 180 -59ZM81 649H917V723H81ZM507 684 572 717C543 762 514 802 485 837L419 805C451 770 482 728 507 684Z" transform="translate(0, 880) scale(1,-1)" /></svg>