<svg xmlns="http://www.w3.org/2000/svg" width="1000" height="1000"><path d="M484 -22 541 -80C750 48 897 286 913 655L849 678L832 663H612V583H827C806 298 702 116 484 -22ZM277 -70C388 -70 504 37 504 192C504 343 390 397 165 366L175 287C375 316 424 271 424 192C424 92 341 9 277 9C235 9 218 24 218 55C218 95 279 170 420 268L372 331C216 224 136 128 136 55C136 -16 185 -70 277 -70ZM43 220 111 174C168 241 239 348 291 448L221 481C173 383 99 282 43 220ZM883 -76 952 -21C874 101 738 266 611 392L555 348C680 218 810 45 883 -76ZM246 481H326V830H246ZM63 615H509V693H63ZM507 457 582 430C626 531 662 653 683 810L602 820C583 665 553 556 507 457ZM474 518H98V440H474Z" transform="translate(0, 880) scale(1,-1)" /></svg>