<svg xmlns="http://www.w3.org/2000/svg" width="1000" height="1000"><path d="M91 798V718H883V798ZM917 -31V51C695 -2 412 11 268 60C182 91 145 170 140 353L62 341C65 144 119 28 237 -14C385 -68 690 -83 917 -31ZM386 268H700V346H386ZM503 306H582V606H503ZM202 567H883V645H202ZM256 462 271 391C333 409 399 418 482 418H699C757 418 783 391 783 332V221C783 193 779 179 755 179C728 179 686 186 643 199V114C684 106 725 100 759 100C827 100 862 131 862 209V341C862 438 817 496 707 496H481C390 496 324 484 256 462ZM303 97V496H224V97Z" transform="translate(0, 880) scale(1,-1)" /></svg>