<svg xmlns="http://www.w3.org/2000/svg" width="1000" height="1000"><path d="M106 250H894V330H106ZM228 434H772V514H228ZM55 -5 111 -67C225 -6 344 77 419 165L338 207C278 130 161 48 55 -5ZM872 -64 940 -8C872 57 751 145 651 213L590 161C688 91 807 2 872 -64ZM499 676 578 697C561 747 531 807 500 853L424 831C452 786 485 723 499 676ZM809 487 888 457C912 510 923 545 923 582C923 676 818 721 587 721C415 721 262 687 164 641V703H84V475H164V571C276 611 433 638 587 638C782 638 836 612 836 576C836 553 830 530 809 487Z" transform="translate(0, 880) scale(1,-1)" /></svg>