<svg xmlns="http://www.w3.org/2000/svg" width="1000" height="1000"><path d="M425 -63H788C892 -63 919 -9 932 147L857 156C851 40 838 17 784 17H426C374 17 360 30 360 82V570H280V82C280 -35 315 -63 425 -63ZM574 197 613 126C748 198 805 253 805 366C805 447 751 520 598 521C404 522 223 398 76 258L127 195C270 341 445 441 598 441C698 441 727 406 727 366C727 302 684 250 574 197ZM45 490 116 444C207 546 277 690 318 831L240 851C199 710 128 575 45 490ZM207 635H907V715H207Z" transform="translate(0, 880) scale(1,-1)" /></svg>