<svg xmlns="http://www.w3.org/2000/svg" width="1000" height="1000"><path d="M53 350 100 276C377 343 610 453 610 667V839H530V671C530 518 326 408 53 350ZM685 283H830C918 283 933 334 940 466L860 473C858 377 855 363 816 363H697C666 363 662 370 662 398V535H582V377C582 301 606 283 685 283ZM737 539 779 471C878 516 911 553 911 616C911 693 844 730 711 730C474 730 268 638 84 558L120 478C299 563 499 650 711 650C808 650 829 638 829 615C829 591 806 568 737 539ZM205 602 277 562C333 610 398 676 445 736L383 787L365 780H98V700H301C277 672 247 639 205 602ZM456 -83C523 -83 551 -54 551 13V331H473V26C473 7 460 -6 438 -6C399 -6 348 4 301 18V-69C348 -77 402 -83 456 -83ZM59 22 115 -42C198 -6 290 49 347 107L276 152C226 101 142 52 59 22ZM62 170H942V248H62ZM882 -45 939 15C891 53 787 112 704 150L650 94C734 53 835 -6 882 -45Z" transform="translate(0, 880) scale(1,-1)" /></svg>