<svg xmlns="http://www.w3.org/2000/svg" width="1000" height="1000"><path d="M45 342 90 268C374 335 615 449 615 666V839H535V670C535 513 322 401 45 342ZM693 275H843C932 275 948 326 955 459L875 466C872 369 870 354 828 354H706C672 354 668 362 668 390V530H588V369C588 293 613 275 693 275ZM750 536 792 468C892 513 925 550 925 613C925 690 856 728 720 728C445 728 300 676 79 604L114 524C322 601 469 649 720 649C821 649 843 635 843 612C843 588 820 565 750 536ZM193 616 272 581C329 624 396 683 445 737L385 786L368 779H90V700H293C268 675 237 648 193 616ZM456 -83C523 -83 551 -54 551 13V303H473V25C473 6 460 -7 438 -7C399 -7 348 3 301 17V-69C348 -78 402 -83 456 -83ZM60 17 115 -48C198 -14 290 38 347 91L277 138C227 91 143 45 60 17ZM62 151H942V230H62ZM882 -50 938 10C890 46 786 101 703 137L650 79C734 41 835 -14 882 -50Z" transform="translate(0, 880) scale(1,-1)" /></svg>