<svg xmlns="http://www.w3.org/2000/svg" width="1000" height="1000"><path d="M266 76 336 44C422 133 488 221 488 336C488 432 423 494 292 494C174 494 97 453 97 346C97 259 147 204 246 204C304 204 345 248 345 308V831H265V359C265 301 252 284 228 284C211 284 177 310 177 346C177 386 204 414 292 414C369 414 408 371 408 332C408 271 379 197 266 76ZM79 -64 558 117 533 188 50 14ZM61 597H543V677H61ZM636 -20 708 -87C830 32 939 172 941 434C942 581 892 661 779 661C719 661 669 642 623 613L648 539C694 568 736 581 779 581C833 581 861 539 861 434C861 256 763 66 636 -20ZM534 425 604 382C673 484 716 626 729 828L649 831C639 651 596 515 534 425Z" transform="translate(0, 880) scale(1,-1)" /></svg>