<svg xmlns="http://www.w3.org/2000/svg" width="1000" height="1000"><path d="M201 518 275 551C253 618 211 716 170 787L99 756C137 688 179 586 201 518ZM473 553 554 579C539 653 505 750 468 831L392 808C426 728 459 627 473 553ZM700 542 771 513C814 591 861 695 895 782L812 810C786 726 741 619 700 542ZM720 -37 792 -78C850 0 907 91 907 206C907 303 825 367 712 367C621 367 571 354 525 332V498H444V297L427 283L464 217C545 266 615 288 705 288C773 288 824 253 824 198C824 119 779 37 720 -37ZM262 -42C392 -42 497 -25 605 5L577 81C480 55 365 38 256 38C208 38 184 56 184 98C184 158 208 245 240 336L166 360C128 261 101 170 101 81C101 -3 150 -42 262 -42Z" transform="translate(0, 880) scale(1,-1)" /></svg>