<svg xmlns="http://www.w3.org/2000/svg" width="1000" height="1000"><path d="M212 495V814H132V483L119 471L131 395C171 405 208 415 256 415C322 415 372 376 372 256C372 114 276 30 217 30C172 30 152 47 152 88C152 260 591 570 744 570C802 570 827 543 827 465C827 315 679 136 441 5L493 -63C742 92 907 271 907 465C907 585 858 650 744 650C547 650 72 300 72 88C72 -16 132 -50 217 -50C345 -50 452 88 452 256C452 420 391 515 212 495ZM171 722V642H553V722ZM882 -65 945 -2C842 130 709 263 572 381L515 333C655 207 785 66 882 -65Z" transform="translate(0, 880) scale(1,-1)" /></svg>