<svg xmlns="http://www.w3.org/2000/svg" width="1000" height="1000"><path d="M637 679 671 753C554 791 451 823 358 847L316 774C410 751 517 720 637 679ZM489 13 563 -7C638 59 668 124 668 180C668 250 616 291 542 291C472 291 420 251 420 190C420 124 462 78 570 78C739 78 876 129 876 285C876 415 769 478 580 478C190 478 76 369 76 285C76 218 117 171 215 171C385 171 581 425 745 635L676 683L651 672H135V593H610C495 438 314 249 215 249C172 249 156 259 156 285C156 317 226 400 580 400C710 400 796 363 796 285C796 175 688 152 570 152C514 152 498 171 498 190C498 208 515 221 542 221C569 221 588 209 588 181C588 136 561 77 489 13ZM918 24H76V-56H918Z" transform="translate(0, 880) scale(1,-1)" /></svg>