<svg xmlns="http://www.w3.org/2000/svg" width="1000" height="1000"><path d="M312 653 389 681C372 718 340 780 305 821L230 793C263 751 293 698 312 653ZM88 589H919V669H88ZM614 662 683 636C724 688 759 745 785 798L701 824C682 774 652 713 614 662ZM41 105 89 29C127 49 158 72 203 105C220 117 242 118 257 115C274 110 289 91 306 24L466 119L431 177L342 134C337 161 322 174 291 184C333 233 371 286 406 344L341 380C257 254 149 156 41 105ZM478 -70C596 -70 648 35 646 154C646 270 572 422 461 543L402 489C484 408 567 260 566 154C565 83 546 8 474 8C434 8 396 15 358 31V-58C393 -67 433 -70 478 -70ZM911 1 962 75C835 148 663 220 454 296L433 219C630 148 791 79 911 1ZM556 322 580 250C694 285 777 312 874 365L827 437C740 388 669 357 556 322ZM548 623 469 650C413 508 281 452 78 383L111 307C329 387 486 460 548 623Z" transform="translate(0, 880) scale(1,-1)" /></svg>