<svg xmlns="http://www.w3.org/2000/svg" width="1000" height="1000"><path d="M366 8 432 -40C539 28 587 128 587 185C587 261 522 306 416 306C324 306 256 263 256 190C256 122 311 76 447 76C674 76 856 123 856 283C856 406 753 467 563 467C530 467 503 466 471 463C604 515 733 566 841 614L799 686L765 675H124V595H616C507 544 395 491 268 438C212 415 156 401 110 382L150 311C271 356 378 387 559 387C690 387 775 360 775 283C775 184 625 151 447 151C373 151 336 163 336 190C336 216 368 231 416 231C469 231 507 216 507 185C507 144 465 67 366 8ZM638 674 670 748C553 786 450 818 357 841L317 769C420 744 526 712 638 674ZM918 28H76V-51H918Z" transform="translate(0, 880) scale(1,-1)" /></svg>