<svg xmlns="http://www.w3.org/2000/svg" width="1000" height="1000"><path d="M324 -63C411 -63 439 10 439 122C439 305 359 559 263 816L186 792C283 537 359 294 359 122C359 44 344 16 301 16C270 16 236 27 205 44V-46C242 -58 278 -63 324 -63ZM34 -11 103 -56C214 104 271 229 312 405L235 422C193 254 141 135 34 -11ZM57 537H478V617H57ZM459 -25 531 -73C727 140 766 521 763 828H681C681 526 648 176 459 -25ZM887 -73 961 -28C898 115 811 270 724 406L659 358C737 231 825 72 887 -73Z" transform="translate(0, 880) scale(1,-1)" /></svg>