<svg xmlns="http://www.w3.org/2000/svg" width="1000" height="1000"><path d="M87 686H913V763H561L513 843L429 826L467 763H87ZM706 659V288H786V659ZM601 325V245H928V325ZM194 301 280 266C389 330 476 372 476 450C476 511 419 545 354 545C286 545 230 511 230 450C230 391 268 360 322 354C286 334 250 322 194 301ZM354 418C327 418 301 427 301 450C301 470 327 482 354 482C382 482 405 470 405 450C405 427 382 418 354 418ZM444 470V675H366V521ZM107 619V541H587V619ZM89 311 106 235 595 307 577 383ZM48 62 93 -7C362 97 499 175 583 259L519 309C446 245 314 158 48 62ZM511 -85C566 -85 613 -74 674 -50V32C612 1 567 -13 525 -13C502 -13 491 -7 491 21V221H412V1C412 -61 444 -85 511 -85ZM906 -15 951 53C852 97 729 148 622 183L583 120C689 83 809 33 906 -15Z" transform="translate(0, 880) scale(1,-1)" /></svg>