<svg xmlns="http://www.w3.org/2000/svg" width="1000" height="1000"><path d="M203 -62C348 -62 413 117 413 264C413 385 350 507 203 563L172 488C289 438 332 351 332 264C332 155 291 20 203 20C169 20 139 42 139 98C139 212 236 300 425 434L375 497C188 371 59 238 59 98C59 -20 119 -62 203 -62ZM204 535 273 500C338 578 408 688 444 767L385 802L369 793H79V714H329C295 656 246 587 204 535ZM666 -61C845 -61 950 55 950 232C950 381 902 494 733 494C702 494 679 490 653 484C737 567 808 646 894 754L832 811L817 800H460V720H761C708 646 608 531 534 460C518 445 499 435 477 424L518 344C576 389 665 414 733 414C829 414 871 340 871 232C871 80 776 19 666 19C618 19 587 44 587 96C587 135 607 163 635 163C680 163 700 111 708 5L785 22C772 155 726 243 635 243C560 243 509 183 509 96C509 5 570 -61 666 -61Z" transform="translate(0, 880) scale(1,-1)" /></svg>