<svg xmlns="http://www.w3.org/2000/svg" width="1000" height="1000"><path d="M27 432 79 367C212 459 289 583 321 759L240 769C211 604 146 517 27 432ZM362 394 425 450C367 504 299 560 244 599L186 543C247 502 313 445 362 394ZM499 691 536 624C597 679 657 708 733 708C795 708 813 673 813 621C813 562 794 500 755 437L822 400C866 475 891 543 891 621C891 741 838 789 733 789C641 789 570 751 499 691ZM399 -38H973V42H399ZM690 32 761 0C835 88 909 193 909 316C909 432 831 472 683 447V369C790 380 829 373 829 316C829 219 766 123 690 32ZM562 6V782H484V6ZM27 78 79 13C212 105 289 229 321 405L240 415C211 250 146 163 27 78ZM362 40 425 96C367 150 299 206 244 245L186 189C247 148 313 91 362 40Z" transform="translate(0, 880) scale(1,-1)" /></svg>