<svg xmlns="http://www.w3.org/2000/svg" width="1000" height="1000"><path d="M302 157 344 88C560 225 729 385 831 496L774 554C672 432 510 281 302 157ZM192 -78H269V611H192ZM38 437 99 393C216 506 321 666 382 815L302 839C242 687 143 534 38 437ZM583 -61C640 -60 670 -38 670 43V836H591V43C591 21 588 13 570 13C532 13 492 22 449 35V-49C499 -58 547 -62 583 -61ZM911 61 965 120C889 184 798 244 715 292L680 236C760 187 840 128 911 61ZM326 608 340 533C542 547 768 581 937 631L903 705C758 657 532 624 326 608Z" transform="translate(0, 880) scale(1,-1)" /></svg>