<svg xmlns="http://www.w3.org/2000/svg" width="1000" height="1000"><path d="M734 330V93H814V399L750 422L733 408C353 378 59 276 59 145C59 76 106 34 187 34C315 34 434 122 434 246C434 327 403 400 273 465L225 408C329 349 356 302 356 246C356 174 271 109 187 112C154 113 137 125 137 145C137 207 363 304 734 330ZM75 384 122 329C227 381 336 450 426 531L359 579C284 507 169 432 75 384ZM444 -78C507 -78 548 -52 548 16V834H468V34C468 10 460 0 433 0C388 0 338 10 291 25V-62C338 -72 390 -78 444 -78ZM827 500 843 580C676 602 452 599 157 575V502C448 523 672 520 827 500ZM70 714 75 637C447 647 672 666 938 713L912 791C645 744 442 724 70 714ZM943 130H604V54L943 52Z" transform="translate(0, 880) scale(1,-1)" /></svg>