<svg xmlns="http://www.w3.org/2000/svg" width="1000" height="1000"><path d="M233 -69C422 -69 513 97 513 216C513 317 477 417 284 464L256 388C409 346 433 288 433 216C433 128 352 11 233 11C180 11 139 28 139 76C139 152 269 222 514 332L470 400C230 296 59 193 59 76C59 -27 126 -69 233 -69ZM174 425 245 459C224 512 188 584 145 644L76 610C118 549 154 480 174 425ZM288 435 356 398C429 470 486 558 536 649L453 684C413 597 355 502 288 435ZM63 748 74 669C228 681 412 711 541 755L515 833C404 791 220 762 63 748ZM723 -56H819C909 -56 927 -2 937 171L861 176C855 38 849 16 807 16H738C691 16 682 29 682 79V816H604V84C604 -27 628 -56 723 -56Z" transform="translate(0, 880) scale(1,-1)" /></svg>