<svg xmlns="http://www.w3.org/2000/svg" width="1000" height="1000"><path d="M36 -45 111 -78C193 71 201 286 201 438V635H942V715H608C594 751 567 804 543 848L466 828C485 793 505 750 519 715H121V438C121 296 114 97 36 -45ZM209 -37H955V43H209ZM296 146H376V517H296ZM504 30 572 -14C678 65 742 147 742 255C742 329 691 379 603 379C509 379 463 331 463 266C463 192 522 155 637 155C819 155 898 235 898 373C898 475 824 557 641 557C467 557 361 479 300 419L354 354C408 411 512 479 641 479C755 479 818 442 818 373C818 290 778 233 637 233C570 233 543 241 543 266C543 288 566 301 603 301C642 301 662 284 662 255C662 172 608 99 504 30Z" transform="translate(0, 880) scale(1,-1)" /></svg>