<svg xmlns="http://www.w3.org/2000/svg" width="1000" height="1000"><path d="M87 652H913V730H561L510 829L429 811L471 730H87ZM579 110C768 110 903 145 903 260C903 389 727 414 281 389L288 310C664 330 823 310 823 260C823 210 720 189 579 189C471 189 351 197 201 212V131C349 117 467 110 579 110ZM450 -75C518 -75 552 -56 552 14V264H472V31C472 11 461 -1 434 -1C393 -1 338 6 282 22V-60C332 -67 389 -75 450 -75ZM470 373 538 328C650 380 757 437 854 495L793 570L773 563H143V484H680C623 448 551 413 470 373Z" transform="translate(0, 880) scale(1,-1)" /></svg>