<svg xmlns="http://www.w3.org/2000/svg" width="1000" height="1000"><path d="M140 -59H217V607H140ZM11 436 72 390C172 501 258 658 310 804L232 828C181 679 100 531 11 436ZM482 -54H819C913 -54 941 -8 952 193L873 198C868 40 857 26 812 26H488C444 26 423 38 423 66C423 113 509 186 882 415L836 495L820 485H414V405H710C410 216 341 142 341 64C341 -11 376 -54 482 -54ZM268 482 340 442C407 543 462 684 492 823L413 838C383 699 330 566 268 482ZM397 620H935V700H397Z" transform="translate(0, 880) scale(1,-1)" /></svg>