<svg xmlns="http://www.w3.org/2000/svg" width="1000" height="1000"><path d="M170 -62H248V599H170ZM35 429 97 384C201 494 291 650 346 795L267 820C214 672 128 524 35 429ZM324 -56H927V24H324ZM513 20H649C703 64 724 151 724 228C724 320 681 363 608 363C549 363 492 320 492 245C492 166 543 125 608 125C624 125 638 128 650 136C629 80 584 38 513 20ZM327 706 366 636C434 680 542 732 684 732C812 732 852 689 852 624C852 515 697 504 463 538V452C724 427 932 439 932 624C932 730 874 812 684 812C508 812 396 752 327 706ZM691 292V630H614V322ZM608 195C582 195 562 217 562 245C562 273 582 295 608 295C634 295 654 273 654 245C654 217 634 195 608 195Z" transform="translate(0, 880) scale(1,-1)" /></svg>