<svg xmlns="http://www.w3.org/2000/svg" width="1000" height="1000"><path d="M137 -60H214V591H137ZM11 423 72 377C169 486 253 641 304 785L226 809C177 662 98 516 11 423ZM631 -68C799 -68 904 31 904 175C904 306 808 372 665 372C612 372 562 364 518 348C574 452 604 603 637 824L557 832C526 615 498 457 420 314C411 298 375 273 344 246L407 189C477 253 555 293 665 293C757 293 824 257 824 175C824 78 757 10 624 10C569 10 543 27 543 67C543 94 562 112 592 112C636 112 673 83 688 -2L763 20C734 122 688 190 592 190C511 190 464 132 464 67C464 -17 521 -68 631 -68ZM282 457H966V537H282ZM329 635H923V713H329Z" transform="translate(0, 880) scale(1,-1)" /></svg>