<svg xmlns="http://www.w3.org/2000/svg" width="1000" height="1000"><path d="M126 -65H202V589H126ZM11 420 73 375C162 484 236 639 283 784L207 807C162 659 91 514 11 420ZM939 673 866 710C811 620 751 541 685 465L732 396L751 403H811L606 282L678 228L972 414L918 490L899 481H796C841 532 892 601 939 673ZM625 -72C879 -72 957 19 957 124C957 236 880 294 710 294C601 294 520 282 435 266L452 188C534 202 612 214 710 214C828 214 877 184 877 124C877 59 820 6 625 6C474 6 415 31 415 51C415 66 438 81 523 81C594 81 608 72 608 59C608 41 574 18 493 -2L537 -61C624 -34 698 -1 698 59C698 119 643 155 523 155C398 155 336 108 336 51C336 -14 401 -72 625 -72ZM263 722 293 649C446 681 599 726 745 780L690 845C572 801 404 750 263 722ZM876 619 868 699C567 642 270 558 270 423C270 358 314 312 405 312C541 312 632 383 632 505C632 589 596 668 502 749L432 706C518 626 552 560 552 505C552 426 481 389 403 391C366 392 350 402 350 423C350 505 593 566 876 619Z" transform="translate(0, 880) scale(1,-1)" /></svg>