<svg xmlns="http://www.w3.org/2000/svg" width="1000" height="1000"><path d="M157 -63H236V603H157ZM11 433 73 387C185 498 285 654 343 800L263 826C206 677 112 528 11 433ZM461 631H865V711H461ZM324 467 397 428C461 530 510 674 538 815L461 828C432 687 382 552 324 467ZM776 -53H861C936 -53 958 15 965 209L887 215C882 50 873 27 841 27H780C756 27 748 39 748 74V270C748 384 671 405 589 383V306C646 321 669 297 669 231V73C669 -21 690 -53 776 -53ZM760 640 683 660C616 457 518 228 318 -14L383 -62C585 188 691 435 760 640Z" transform="translate(0, 880) scale(1,-1)" /></svg>