<svg xmlns="http://www.w3.org/2000/svg" width="1000" height="1000"><path d="M124 -71H200V602H124ZM5 430 67 385C159 496 236 654 285 801L208 824C161 674 88 526 5 430ZM422 -73C486 -73 512 -46 512 12V389C562 429 614 481 659 535L594 589L583 581H277V503H524C495 474 466 448 433 421V34C433 15 426 3 413 3C386 3 360 9 329 20V-62C361 -69 391 -73 422 -73ZM264 93 670 195 657 266 253 176ZM280 310H629V388H280ZM929 -88 980 -21C898 34 776 96 671 139L633 72C736 28 847 -31 929 -88ZM412 610 482 650C460 696 415 763 371 813L304 776C345 727 391 657 412 610ZM722 81 784 26C920 126 960 174 960 253C960 331 901 361 766 380C831 430 888 482 956 575L881 617C819 524 759 463 657 393L668 312C826 290 880 276 880 253C880 222 849 168 722 81ZM568 609H647V841H568ZM726 639 793 599C831 645 881 720 918 782L843 823C815 764 765 688 726 639Z" transform="translate(0, 880) scale(1,-1)" /></svg>