<svg xmlns="http://www.w3.org/2000/svg" width="1000" height="1000"><path d="M88 311 132 241C423 367 658 518 859 805L787 843C587 562 382 432 88 311ZM229 -67C391 -67 494 51 494 173C494 280 436 355 333 401L285 349C363 309 414 262 414 173C414 84 345 13 229 13C177 13 161 27 161 46C161 102 343 222 626 283V72C626 -29 649 -58 731 -58H832C918 -58 936 7 943 188L866 193C862 40 857 22 820 22H744C712 22 706 31 706 77V361L641 378L622 362C292 288 80 153 80 46C80 -27 132 -67 229 -67ZM170 631H498V704H170ZM170 744H498V817H170ZM819 393 893 365C915 415 925 446 925 478C925 564 822 608 589 608C416 608 261 577 161 536V591H81V383H161V468C274 504 433 528 589 528C786 528 844 504 844 472C844 452 838 432 819 393Z" transform="translate(0, 880) scale(1,-1)" /></svg>