<svg xmlns="http://www.w3.org/2000/svg" width="1000" height="1000"><path d="M179 -78H259V612H179ZM33 437 95 391C208 505 308 665 367 814L287 839C229 687 134 534 33 437ZM308 660V580H918V660ZM573 823V442H652V823ZM654 468C526 468 418 434 325 388L361 314C452 363 540 388 654 388C743 388 790 363 790 315C790 189 540 22 452 22C412 22 382 54 382 109C382 156 416 193 481 193C583 193 698 36 888 -77L947 -7C764 95 621 272 481 272C379 272 302 210 302 109C302 17 364 -56 452 -56C577 -56 874 144 874 315C874 409 798 468 654 468Z" transform="translate(0, 880) scale(1,-1)" /></svg>