<svg xmlns="http://www.w3.org/2000/svg" width="1000" height="1000"><path d="M177 -49C317 -49 381 121 381 264C381 382 320 500 179 554L148 479C260 430 301 348 301 264C301 158 260 32 177 32C145 32 119 52 119 104C119 209 210 298 391 426L343 489C162 368 38 239 38 104C38 -9 96 -49 177 -49ZM179 526 246 491C309 566 375 671 410 746L351 782L335 774H60V694H294C263 640 218 575 179 526ZM651 -60C695 -60 735 -26 735 34V468C804 533 874 626 924 717L859 760L847 750H455V670H797C759 605 705 544 656 499V53C656 31 645 20 629 19C598 18 559 27 524 44V-44C567 -56 602 -60 651 -60ZM411 171 480 133C521 217 557 331 580 434L502 450C482 354 448 245 411 171ZM905 124 981 150C959 233 917 356 873 454L801 425C844 324 885 208 905 124Z" transform="translate(0, 880) scale(1,-1)" /></svg>