<svg xmlns="http://www.w3.org/2000/svg" width="1000" height="1000"><path d="M142 -53H220V596H142ZM14 428 75 382C174 491 260 646 312 790L234 814C184 668 103 522 14 428ZM724 -49C891 -49 947 90 947 251C947 433 845 509 667 509C608 509 565 503 526 493C581 555 644 664 697 806L615 831C569 692 510 581 421 471C408 455 367 437 320 414L366 345C453 392 550 429 661 429C785 429 867 381 867 251C867 137 828 28 717 28C671 28 625 38 580 53V-32C623 -43 672 -49 724 -49ZM289 605H922V685H289ZM362 133 410 61C540 128 677 236 765 348L697 392C615 280 482 190 362 133ZM664 92 727 145C680 211 589 300 524 351L464 301C529 251 619 155 664 92Z" transform="translate(0, 880) scale(1,-1)" /></svg>