<svg xmlns="http://www.w3.org/2000/svg" width="1000" height="1000"><path d="M155 -68H232V591H155ZM28 421 90 376C187 486 271 642 322 787L244 811C195 663 116 516 28 421ZM520 410 596 380C640 505 666 676 675 833L595 837C587 683 562 525 520 410ZM280 605 315 530C414 576 578 627 719 627C820 627 867 604 867 568C867 532 856 501 838 474L916 441C935 477 948 512 948 568C948 674 849 708 719 708C545 708 384 656 280 605ZM458 -6 519 -80C745 18 858 121 858 266C858 388 784 439 653 439C579 439 499 426 443 408L465 326C516 343 590 359 653 359C735 359 777 326 777 266C777 146 667 73 458 -6Z" transform="translate(0, 880) scale(1,-1)" /></svg>