<svg xmlns="http://www.w3.org/2000/svg" width="1000" height="1000"><path d="M796 476 860 431C902 462 931 502 931 560C931 647 848 700 583 700C408 700 265 672 155 617V674H75V450H155V553C269 596 418 621 582 621C799 621 846 586 846 557C846 526 831 500 796 476ZM460 525H540V769H460ZM703 558H298V479H703ZM823 812 168 811V733H823ZM111 -58H889V21H111ZM140 344H860V422H140ZM467 125 496 51C703 71 790 120 790 203C790 272 723 320 549 320C402 320 302 304 198 281L230 205C325 226 420 242 549 242C660 242 707 224 707 203C707 172 652 141 467 125ZM486 7 562 37C545 80 513 127 484 163L409 134C439 103 469 50 486 7Z" transform="translate(0, 880) scale(1,-1)" /></svg>