<svg xmlns="http://www.w3.org/2000/svg" width="1000" height="1000"><path d="M154 -65H231V595H154ZM28 425 90 380C187 490 270 646 321 791L243 815C194 667 116 520 28 425ZM725 -65C864 -65 936 47 936 228C936 399 838 467 682 467C640 467 608 463 581 458C641 518 761 642 858 755L799 805L781 797H405V717H719C657 633 545 512 459 435C445 423 377 391 333 366L380 294C461 346 565 386 668 386C779 386 856 345 856 228C856 101 816 15 719 15C670 15 622 23 576 43V-46C620 -60 671 -65 725 -65ZM307 542H926V622H307ZM297 122 363 69C469 135 553 227 591 321L510 345C476 256 400 177 297 122ZM356 -3 420 -56C568 20 705 155 746 321L668 340C626 190 499 65 356 -3Z" transform="translate(0, 880) scale(1,-1)" /></svg>