<svg xmlns="http://www.w3.org/2000/svg" width="1000" height="1000"><path d="M159 -61H237V598H159ZM28 429 90 383C191 493 278 649 331 794L253 818C201 670 119 523 28 429ZM504 520 576 556C543 629 493 722 447 795L378 753C427 678 471 590 504 520ZM638 562 697 509C795 603 824 645 824 713C824 779 783 829 698 829C610 829 527 788 446 715L494 659C569 719 640 746 694 746C727 746 740 732 740 706C740 674 718 632 638 562ZM512 58 593 19C662 85 753 178 803 239L740 295L721 285H574C599 332 622 383 649 450L572 469C530 369 492 300 454 253L510 197L528 207H654C618 163 568 109 512 58ZM911 -89 939 -11C738 40 540 78 350 109L316 35C519 2 716 -38 911 -89ZM303 415H944V494H303Z" transform="translate(0, 880) scale(1,-1)" /></svg>