<svg xmlns="http://www.w3.org/2000/svg" width="1000" height="1000"><path d="M178 -78H257V611H178ZM33 437 95 391C207 504 305 664 364 813L283 838C226 686 133 534 33 437ZM444 340H816V420H444ZM312 155H946V235H312ZM311 399 366 339C639 448 673 633 673 840H593C593 646 574 501 311 399ZM884 333 948 387C871 462 785 539 709 601L653 548C730 486 815 407 884 333ZM323 696 332 613C540 619 775 640 942 668L920 746C764 717 535 698 323 696ZM595 -79C651 -79 681 -44 681 16V368H603V27C603 10 594 -3 574 -3C542 -3 506 3 458 20V-62C507 -74 548 -79 595 -79Z" transform="translate(0, 880) scale(1,-1)" /></svg>