<svg xmlns="http://www.w3.org/2000/svg" width="1000" height="1000"><path d="M87 634H913V711H561L507 825L430 807L474 711H87ZM161 268H235V401C325 461 430 497 583 497C736 497 782 464 782 419C782 332 598 326 329 353V275C629 254 863 257 863 419C863 507 803 575 583 575C415 575 301 534 235 471V541H161ZM459 -76C519 -74 558 -44 558 19V416H478V23C478 7 465 -5 444 -5C393 -6 343 -2 283 17V-61C340 -72 396 -76 459 -76ZM60 54 132 14C217 66 280 135 315 197L229 225C201 169 142 105 60 54ZM870 7 948 42C922 93 857 167 766 228L695 195C778 134 848 57 870 7Z" transform="translate(0, 880) scale(1,-1)" /></svg>