<svg xmlns="http://www.w3.org/2000/svg" width="1000" height="1000"><path d="M148 -52H225V596H148ZM21 428 83 382C180 491 264 646 315 789L237 814C188 667 109 522 21 428ZM500 29 568 -18C661 62 750 191 750 342C750 431 711 505 614 505C514 505 481 438 481 364C481 273 532 216 646 216C818 216 919 332 919 538C919 699 842 809 652 809C476 809 357 693 295 622L357 564C417 632 526 728 652 728C776 728 839 654 839 538C839 394 765 296 646 296C585 296 560 319 560 364C560 400 579 425 614 425C646 425 670 397 670 342C670 218 581 100 500 29ZM293 -41H957V39H293Z" transform="translate(0, 880) scale(1,-1)" /></svg>