<svg xmlns="http://www.w3.org/2000/svg" width="1000" height="1000"><path d="M168 -69H246V601H168ZM38 430 100 384C200 495 287 653 339 799L261 824C210 674 128 525 38 430ZM505 112 573 71C647 168 741 299 795 388L730 441L715 431H567C609 531 644 668 675 816L597 829C559 643 515 492 459 383L527 340L541 352H674C632 280 571 193 505 112ZM897 -85 931 -10C739 66 550 124 368 166L328 96C522 48 710 -10 897 -85ZM327 621H923V701H327ZM300 273 374 247C402 321 424 426 438 518L360 527C348 440 327 341 300 273ZM865 238 944 255C933 329 915 443 888 529L813 514C839 426 856 311 865 238Z" transform="translate(0, 880) scale(1,-1)" /></svg>