<svg xmlns="http://www.w3.org/2000/svg" width="1000" height="1000"><path d="M59 311H941V384H540V834H460V384H59ZM157 -20 188 -86 524 2 510 73 276 12V354H198V33C198 -1 175 -14 157 -20ZM254 405 324 430C308 485 277 557 235 621L162 600C206 534 240 460 254 405ZM861 -79 930 -28C836 67 679 182 510 269L463 216C632 126 770 17 861 -79ZM90 710 95 640C449 650 663 669 917 716L892 787C638 740 444 720 90 710ZM670 427 732 403C771 461 821 555 860 632L777 659C752 588 708 488 670 427Z" transform="translate(0, 880) scale(1,-1)" /></svg>