<svg xmlns="http://www.w3.org/2000/svg" width="1000" height="1000"><path d="M163 -78H240V595H163ZM36 423 98 378C196 489 280 647 331 794L253 818C203 668 124 519 36 423ZM486 527 549 477C664 559 767 659 846 757L788 800L772 793H350V713H702C641 646 575 588 486 527ZM727 -70C876 -70 930 62 930 283C930 486 844 560 677 560C539 560 391 518 307 479L338 410C427 446 558 479 677 479C800 479 849 404 849 283C849 109 811 8 724 8C667 8 621 16 584 31V-55C621 -66 660 -70 727 -70ZM395 134 459 85C577 179 707 320 752 389L683 432C639 361 513 222 395 134ZM669 110 731 168C663 237 561 328 490 377L431 327C506 273 607 182 669 110Z" transform="translate(0, 880) scale(1,-1)" /></svg>