<svg xmlns="http://www.w3.org/2000/svg" width="1000" height="1000"><path d="M140 -60H218V590H140ZM8 422 69 376C171 486 259 640 313 784L234 809C182 662 99 516 8 422ZM282 634H955V714H677L630 839L552 821L591 714H282ZM634 491C533 491 437 465 346 424L376 345C465 391 549 411 634 411C716 411 738 382 738 334C738 194 537 24 440 24C399 24 372 55 372 115C372 165 398 205 464 205C571 205 712 44 912 -77L966 -15C768 100 612 283 464 283C362 283 291 222 291 115C291 16 345 -56 440 -56C581 -56 819 149 819 334C819 443 768 491 634 491ZM305 386 373 332C464 427 546 545 615 665L541 697C476 577 393 471 305 386ZM909 373 974 422C923 495 867 558 809 613L744 569C804 512 859 447 909 373Z" transform="translate(0, 880) scale(1,-1)" /></svg>