<svg xmlns="http://www.w3.org/2000/svg" width="1000" height="1000"><path d="M151 -66H230V586H151ZM11 418 73 372C181 481 276 636 332 781L253 806C198 659 108 512 11 418ZM737 294 789 230C895 307 943 395 943 509C943 598 896 672 761 673C565 674 417 540 281 404L341 344C477 489 613 593 761 593C836 593 863 556 863 509C863 431 828 358 737 294ZM543 -60H802C899 -60 919 -6 929 163L852 168C845 39 838 17 789 17H558C507 17 497 30 497 80V816H418V80C418 -31 442 -60 543 -60Z" transform="translate(0, 880) scale(1,-1)" /></svg>