<svg xmlns="http://www.w3.org/2000/svg" width="1000" height="1000"><path d="M147 -61H225V585H147ZM13 418 75 372C178 481 267 635 321 778L242 804C190 657 106 511 13 418ZM314 523H923V603H314ZM280 -46H963V34H280ZM534 8 638 -16C701 35 754 144 754 280C754 369 694 420 598 420C502 420 442 369 442 280C442 191 502 140 598 140C622 140 640 144 656 151C637 88 585 27 534 8ZM598 216C549 216 522 241 522 280C522 319 549 344 598 344C647 344 673 319 673 280C673 241 647 216 598 216ZM720 661 759 737C705 764 589 812 509 838L473 770C548 747 666 691 720 661ZM717 562H638V387L717 312Z" transform="translate(0, 880) scale(1,-1)" /></svg>