<svg xmlns="http://www.w3.org/2000/svg" width="1000" height="1000"><path d="M99 -2 159 -70C361 7 557 204 557 333C557 405 500 457 386 457C266 457 215 409 215 354C215 295 258 240 469 240C768 240 898 341 898 436C898 545 812 600 609 600C481 600 395 591 295 574L323 510C417 525 497 531 609 531C757 531 811 492 811 436C811 374 706 312 469 312C312 312 296 331 296 354C296 374 318 394 386 394C442 394 472 376 472 334C472 239 319 65 99 -2ZM680 -68H797C920 -68 937 -23 949 119L876 126C868 18 859 0 811 0H673C632 0 621 7 621 37V210H543V20C543 -49 580 -68 680 -68ZM553 562 880 703 807 760 785 752 553 753 513 843 441 829 470 753H155V680H685L505 585Z" transform="translate(0, 880) scale(1,-1)" /></svg>