<svg xmlns="http://www.w3.org/2000/svg" width="1000" height="1000"><path d="M419 -70H795C888 -70 914 -14 924 114L849 127C843 17 832 -4 786 -4H436C406 -4 393 6 393 22C393 70 421 143 474 213C499 246 514 280 514 320C514 371 459 406 371 406C270 406 230 366 230 323C230 281 255 239 486 239C785 239 891 317 891 399C891 476 822 532 619 532C491 532 395 524 295 509L323 445C417 456 507 463 619 463C767 463 811 442 811 399C811 345 723 300 486 300C326 300 306 309 306 323C306 338 331 348 371 348C414 348 442 339 442 320C442 299 433 269 412 244C356 177 314 90 314 16C314 -47 339 -70 419 -70ZM108 105H747V173H108ZM513 494 820 615 752 664 730 656H195V589H614L465 514ZM59 702H937V769H553L513 847L441 835L470 769H59Z" transform="translate(0, 880) scale(1,-1)" /></svg>