<svg xmlns="http://www.w3.org/2000/svg" width="1000" height="1000"><path d="M170 -72H248V591H170ZM29 421 91 375C199 486 294 642 351 788L272 813C216 665 126 516 29 421ZM599 70 617 -10C855 -8 940 72 940 215C940 320 883 402 695 402C538 402 419 356 306 265L362 202C449 273 559 322 695 322C816 322 861 269 861 215C861 129 801 64 599 70ZM607 -89 685 -55C664 17 625 99 592 159L519 126C553 73 588 -17 607 -89ZM619 557 678 506C755 564 852 656 928 755L866 805L853 796H353V716H788C746 667 679 603 619 557ZM727 417 783 478C700 552 629 596 526 641L480 577C585 532 651 487 727 417Z" transform="translate(0, 880) scale(1,-1)" /></svg>