<svg xmlns="http://www.w3.org/2000/svg" width="1000" height="1000"><path d="M99 -2 159 -70C361 7 556 195 556 334C556 416 504 453 386 453C276 453 225 411 225 349C225 290 268 236 469 236C768 236 895 306 895 431C895 540 812 588 609 588C481 588 395 579 295 562L315 486C411 502 494 509 609 509C757 509 814 487 814 431C814 359 706 315 469 315C332 315 306 326 306 349C306 366 328 377 386 377C445 377 473 370 473 334C473 239 319 65 99 -2ZM680 -68H797C920 -68 937 -18 949 129L871 136C863 31 854 11 806 11H673C632 11 622 19 622 52V210H542V30C542 -47 580 -68 680 -68ZM573 528 872 689 817 760 795 752 556 753 515 843 434 829 469 753H155V673H688L505 575Z" transform="translate(0, 880) scale(1,-1)" /></svg>