<svg xmlns="http://www.w3.org/2000/svg" width="1000" height="1000"><path d="M159 -65H235V591H159ZM38 421 100 376C193 485 272 641 321 786L243 809C196 661 122 515 38 421ZM762 502C745 457 723 414 695 369L740 302C820 323 853 296 853 245C853 170 736 108 598 80L634 7C800 54 934 106 934 245C934 358 867 395 789 385L874 560L803 600L788 587C391 536 290 393 290 309C290 248 328 199 399 199C537 199 673 472 794 778L725 813L706 799H359V719H683C601 499 473 279 401 279C380 279 370 289 370 307C370 346 433 457 762 502ZM624 -88 701 -58C681 11 642 106 605 179L532 150C568 81 603 -15 624 -88Z" transform="translate(0, 880) scale(1,-1)" /></svg>