<svg xmlns="http://www.w3.org/2000/svg" width="1000" height="1000"><path d="M632 516 693 468C769 532 850 628 916 752L854 800L838 790H387V712H792C748 633 694 571 632 516ZM340 -19 420 -21C407 128 421 288 449 427L371 437C340 294 327 123 340 -19ZM626 -65C668 -65 702 -57 748 -35V55C702 28 666 18 639 18C618 18 607 32 607 80C607 177 622 282 650 435L574 446C546 289 530 184 530 78C530 -18 554 -65 626 -65ZM867 -39 949 -28C947 120 917 304 875 437L798 415C840 284 865 106 867 -39ZM175 -65H254V603H175ZM37 433 98 387C205 498 299 655 355 801L276 826C221 677 133 528 37 433Z" transform="translate(0, 880) scale(1,-1)" /></svg>