<svg xmlns="http://www.w3.org/2000/svg" width="1000" height="1000"><path d="M720 -80C769 -80 800 -62 800 5V622C800 757 755 801 630 801H471C376 801 321 790 273 771V703C328 723 379 733 466 733H624C699 733 726 701 726 618V9C726 -8 719 -15 703 -15C664 -15 625 -8 583 7V-69C626 -77 664 -80 720 -80ZM114 -40 181 -76C289 88 291 289 291 468V802H219V468C219 300 214 115 114 -40ZM607 416 658 467C583 525 498 582 399 638L355 588C452 532 536 474 607 416ZM53 342V269H949V342Z" transform="translate(0, 880) scale(1,-1)" /></svg>