<svg xmlns="http://www.w3.org/2000/svg" width="1000" height="1000"><path d="M69 727H930V805H69ZM875 -86 910 -12C742 13 584 33 421 50C562 74 674 94 781 115L751 194L719 185C552 202 429 214 288 225L244 150C342 143 420 137 525 128C433 109 335 91 245 76C215 71 188 75 146 77L102 4C366 -19 622 -49 875 -86ZM871 199 899 279C647 347 425 379 257 379C121 379 84 339 84 286C84 227 127 194 239 194C453 194 594 308 735 420L670 483L651 470H363V392H558C477 333 372 272 239 272C182 272 165 278 165 286C165 295 182 301 257 301C413 301 623 266 871 199ZM277 432 325 370C495 441 655 605 751 736L674 777C587 650 431 500 277 432ZM146 604 175 538C289 592 465 627 605 627C731 627 819 615 819 593C819 572 779 556 678 560V484C836 483 908 513 908 593C908 678 782 705 605 705C424 705 250 662 146 604ZM392 740H306C305 656 311 569 322 485L399 492C391 576 388 657 392 740ZM185 488V679H105V488Z" transform="translate(0, 880) scale(1,-1)" /></svg>