<svg xmlns="http://www.w3.org/2000/svg" width="1000" height="1000"><path d="M653 -49C850 -49 917 98 917 251C917 433 789 509 577 509C499 509 443 502 391 490C460 551 538 660 605 800L521 831C464 692 390 581 279 471C262 455 213 437 156 414L200 345C309 392 430 429 569 429C725 429 836 381 836 251C836 137 789 28 645 28C587 28 529 38 473 53V-32C527 -43 588 -49 653 -49ZM104 605H896V685H104ZM205 136 247 59C409 126 581 234 691 346L624 395C521 283 355 193 205 136ZM582 90 643 147C584 213 471 302 389 353L332 299C413 249 526 153 582 90Z" transform="translate(0, 880) scale(1,-1)" /></svg>