<svg xmlns="http://www.w3.org/2000/svg" width="1000" height="1000"><path d="M153 -61H231V596H153ZM20 427 82 381C184 491 273 647 327 792L248 816C196 669 112 521 20 427ZM717 15 749 -67C883 -11 938 45 938 200C938 346 823 427 665 427C454 427 300 289 300 118C300 13 354 -58 452 -58C618 -58 660 134 660 277C660 398 603 510 479 567L442 494C538 445 581 365 581 277C581 147 550 22 452 22C405 22 379 61 379 118C379 232 473 347 665 347C786 347 859 301 859 200C859 94 809 37 717 15ZM470 535 540 493C602 568 671 669 713 746L650 794L639 787H342V707H596C564 650 515 584 470 535ZM902 468 972 514C936 589 883 668 829 740L765 703C823 624 865 549 902 468Z" transform="translate(0, 880) scale(1,-1)" /></svg>