<svg xmlns="http://www.w3.org/2000/svg" width="1000" height="1000"><path d="M176 -78H256V611H176ZM30 437 92 391C205 504 304 664 363 813L283 838C225 686 131 534 30 437ZM318 556 383 493C477 572 564 681 643 809L568 844C492 722 407 625 318 556ZM305 333 340 257C587 324 761 455 877 699L814 740L800 731H510V651H756C682 505 536 393 305 333ZM908 257 950 332C782 423 638 484 474 540L436 466C601 410 743 348 908 257ZM841 -89 881 -13C771 39 569 121 414 166L371 90C531 42 734 -33 841 -89ZM753 143 793 217C726 247 623 284 542 307L503 238C583 215 689 176 753 143Z" transform="translate(0, 880) scale(1,-1)" /></svg>