<svg xmlns="http://www.w3.org/2000/svg" width="1000" height="1000"><path d="M733 -59H799C904 -59 925 -5 937 169L859 194C852 49 844 17 788 17H748C692 17 681 30 681 80V816H603V81C603 -30 628 -59 733 -59ZM233 -66C422 -66 513 97 513 216C513 317 477 407 284 454L260 390C413 348 433 288 433 216C433 128 352 8 233 8C180 8 138 25 138 76C138 162 269 234 514 344L470 400C230 296 59 183 59 76C59 -24 126 -66 233 -66ZM179 425 240 459C219 512 183 584 140 644L81 610C123 549 159 480 179 425ZM293 434 353 400C426 472 483 560 533 651L458 683C418 596 360 501 293 434ZM63 748 74 672C228 684 412 714 541 758L515 833C404 791 220 762 63 748Z" transform="translate(0, 880) scale(1,-1)" /></svg>