<svg xmlns="http://www.w3.org/2000/svg" width="1000" height="1000"><path d="M637 314C833 314 941 394 941 511C941 618 839 671 689 671C674 671 660 669 646 668C716 698 775 725 858 765L804 830L784 820H440V742H650C601 713 554 686 501 661C483 652 457 647 429 638L468 564C523 583 592 592 683 592C788 592 855 564 855 511C855 435 766 392 632 392C558 392 506 408 506 435C506 454 534 467 576 467C644 467 690 438 699 367L773 376C758 485 689 538 577 538C490 538 427 495 427 432C427 350 510 314 637 314ZM281 829V325H360V829ZM317 469 299 545 170 517V741H91V528C91 509 75 498 61 493L86 418ZM60 -12 106 -84C501 13 542 187 541 370H458C458 202 439 79 60 -12ZM887 -88 942 -22C827 46 690 115 566 168L524 103C646 48 783 -22 887 -88ZM72 188H929V267H72Z" transform="translate(0, 880) scale(1,-1)" /></svg>