<svg xmlns="http://www.w3.org/2000/svg" width="1000" height="1000"><path d="M174 -51C290 -51 346 110 346 257C346 372 294 488 177 541L146 468C236 421 269 338 269 257C269 150 235 29 174 29C148 29 130 49 130 102C130 199 202 289 354 413L307 476C152 358 52 232 52 102C52 -5 101 -51 174 -51ZM174 513 237 481C288 553 343 656 371 729L311 764L295 754H77V676H260C238 619 205 559 174 513ZM527 483V399C566 392 610 388 665 388C818 388 906 467 906 611C906 727 835 805 682 805C559 805 445 767 379 726L410 653C471 690 580 725 682 725C773 725 824 681 824 611C824 517 772 467 665 467C615 467 570 472 527 483ZM652 -78C693 -78 730 -72 773 -53V38C728 16 694 5 663 5C644 5 635 13 635 40V336H557V19C557 -51 589 -78 652 -78ZM896 15 960 75C896 163 815 263 745 334L685 283C754 208 832 108 896 15ZM698 579 618 599C568 405 471 221 333 92L397 32C536 163 636 369 698 579Z" transform="translate(0, 880) scale(1,-1)" /></svg>