<svg xmlns="http://www.w3.org/2000/svg" width="1000" height="1000"><path d="M28 553V474H270V553ZM109 781V155H188V781ZM17 141 47 69 286 164 256 236ZM414 631H862V711H414ZM267 467 340 427C410 529 465 673 496 814L418 828C386 687 331 552 267 467ZM760 -53H860C937 -53 960 15 969 209L889 215C885 50 874 27 841 27H762C737 27 728 39 728 74V270C728 384 646 405 559 383V306C622 321 649 297 649 231V73C649 -21 671 -53 760 -53ZM741 639 665 661C590 458 482 231 261 -13L324 -63C548 187 666 434 741 639Z" transform="translate(0, 880) scale(1,-1)" /></svg>