<svg xmlns="http://www.w3.org/2000/svg" width="1000" height="1000"><path d="M65 441 95 368 111 374H516V453H163C183 503 208 574 226 630L147 650C133 593 107 512 89 471C81 452 72 444 65 441ZM173 656 250 682C240 723 217 786 195 832L121 812C140 767 161 706 173 656ZM36 603H565V682H36ZM366 656 434 631C457 688 481 760 498 818L416 836C405 784 384 708 366 656ZM838 -65C949 -65 958 114 958 355C958 548 933 605 820 605C736 605 657 588 577 554L598 477C677 510 743 525 818 525C872 525 879 488 879 345C879 171 868 12 825 12C799 12 773 18 742 32V-54C769 -62 800 -65 838 -65ZM532 -17 600 -76C730 101 779 354 808 835L728 841C701 363 654 145 532 -17ZM514 174 484 246C393 200 334 127 334 57C334 -9 372 -38 430 -38C509 -38 547 33 547 159C547 283 478 323 357 323C177 323 37 193 37 54C37 -27 74 -65 144 -65C318 -65 367 249 375 561H295C290 277 243 13 144 13C125 13 117 28 117 54C117 149 219 245 357 245C452 245 468 217 468 159C468 80 455 37 430 37C418 37 413 45 413 57C413 94 454 138 514 174Z" transform="translate(0, 880) scale(1,-1)" /></svg>