<svg xmlns="http://www.w3.org/2000/svg" width="1000" height="1000"><path d="M64 133H142V733H64ZM215 221H292V733H215ZM447 631H864V711H447ZM307 467 380 428C446 530 496 674 526 815L448 828C418 687 367 552 307 467ZM770 -53H860C936 -53 958 15 966 209L887 215C882 50 872 27 840 27H774C750 27 741 39 741 74V270C741 384 663 405 579 383V306C638 321 663 297 663 231V73C663 -21 684 -53 770 -53ZM754 640 677 660C608 457 507 229 301 -14L365 -62C574 188 683 435 754 640Z" transform="translate(0, 880) scale(1,-1)" /></svg>