<svg xmlns="http://www.w3.org/2000/svg" width="1000" height="1000"><path d="M113 460 185 426C222 475 257 534 296 623L221 651C185 567 148 505 113 460ZM34 606H551V686H34ZM421 328V45H500V389L443 420L421 408C244 394 26 268 26 82C26 -8 76 -54 155 -54C286 -54 361 73 361 242C361 382 343 492 209 492C155 492 114 476 82 457L115 385C137 399 171 412 209 412C263 412 281 350 281 242C281 113 234 26 155 26C120 26 106 44 106 82C106 200 255 315 421 328ZM578 154 381 41 422 -28 619 85ZM284 643 363 664C349 715 325 776 301 823L223 801C246 755 273 691 284 643ZM836 -65C948 -65 957 109 957 343C957 532 932 587 817 587C732 587 650 570 569 538L590 460C671 493 738 507 815 507C871 507 878 472 878 333C878 164 867 12 823 12C797 12 769 17 738 32V-54C766 -62 797 -65 836 -65ZM525 -16 592 -76C725 96 775 341 804 808L724 813C698 351 649 141 525 -16Z" transform="translate(0, 880) scale(1,-1)" /></svg>