<svg xmlns="http://www.w3.org/2000/svg" width="1000" height="1000"><path d="M51 119H126V724H51ZM168 208H243V724H168ZM747 -68C875 -68 949 27 949 175C949 310 876 372 770 372C737 372 709 367 684 358C722 460 742 609 764 825L685 832C664 615 645 469 593 326C587 313 559 293 537 272L596 212C644 261 696 293 770 293C828 293 870 257 870 175C870 74 828 10 743 10C706 10 688 27 688 67C688 94 701 112 721 112C748 112 771 83 781 -2L853 20C834 122 805 190 721 190C650 190 614 136 614 67C614 -17 661 -68 747 -68ZM508 457H978V537H508ZM535 635H954V713H535ZM354 -1C451 -1 502 140 502 279C502 385 457 491 359 539L331 466C401 425 426 353 426 279C426 180 398 78 354 78C334 78 324 91 324 128C324 209 380 306 504 415L462 478C331 373 248 247 248 128C248 33 289 -1 354 -1ZM355 512 413 483C455 548 499 638 521 703L457 740L445 730H277V652H419C402 606 378 553 355 512Z" transform="translate(0, 880) scale(1,-1)" /></svg>