<svg xmlns="http://www.w3.org/2000/svg" width="1000" height="1000"><path d="M18 45 93 5C147 105 209 237 255 355L181 385C134 261 68 126 18 45ZM200 583 252 645C211 681 141 727 87 755L40 691C94 662 159 618 200 583ZM666 33 739 -2C841 120 885 226 885 381C885 509 835 577 721 577C634 577 579 555 515 520L540 446C599 479 657 497 721 497C783 497 805 460 805 381C805 271 763 138 666 33ZM228 -24H961V56H228ZM417 178H600C663 178 703 210 703 269C703 324 675 387 649 428L579 402C607 363 622 324 622 290C622 266 607 258 589 258H424C399 258 389 270 389 289C389 334 420 429 522 630L446 663C341 457 307 352 307 271C307 218 338 178 417 178ZM259 712H931V792H259Z" transform="translate(0, 880) scale(1,-1)" /></svg>