<svg xmlns="http://www.w3.org/2000/svg" width="1000" height="1000"><path d="M33 522V443H281V522ZM118 757V115H196V757ZM21 100 52 28 298 125 267 197ZM772 -70C835 -70 866 -43 866 24V627C866 757 829 807 716 807H610C538 807 490 797 450 780V700C496 718 542 727 606 727H706C767 727 787 698 787 620V34C787 13 779 5 756 5C724 5 691 14 655 27V-57C692 -65 728 -70 772 -70ZM287 -30 362 -66C466 98 468 289 468 468V805H389V468C389 300 384 125 287 -30ZM690 420 745 481C683 533 612 583 531 633L481 573C561 523 630 472 690 420ZM267 369V289H966V369Z" transform="translate(0, 880) scale(1,-1)" /></svg>