<svg xmlns="http://www.w3.org/2000/svg" width="1000" height="1000"><path d="M40 496V417H292V496ZM127 750V100H206V750ZM28 84 59 12 309 111 278 183ZM494 29 562 -18C657 62 746 190 746 342C746 431 707 505 609 505C509 505 475 438 475 364C475 273 527 216 642 216C816 216 918 332 918 538C918 699 840 809 648 809C470 809 350 694 288 623L349 564C410 632 520 728 648 728C774 728 838 654 838 538C838 394 763 296 642 296C580 296 555 319 555 364C555 400 573 425 609 425C643 425 667 397 667 342C667 218 577 101 494 29ZM285 -41H957V39H285Z" transform="translate(0, 880) scale(1,-1)" /></svg>