<svg xmlns="http://www.w3.org/2000/svg" width="1000" height="1000"><path d="M360 133C438 133 490 194 490 435C490 640 409 758 295 758C211 758 156 722 126 686L156 623C185 650 232 678 295 678C361 678 411 601 411 435C411 258 389 213 360 213C338 213 327 263 327 325C327 540 399 696 517 696C591 696 616 598 616 436C616 143 601 8 537 8C494 8 449 17 406 37V-52C452 -65 492 -70 541 -70C654 -70 695 53 695 436C695 653 647 776 517 776C384 776 249 629 249 325C249 206 289 133 360 133ZM105 774V-52H184V774ZM712 44 757 -33C848 36 919 126 919 258C919 386 832 487 630 487C392 487 209 430 41 337L73 262C236 357 429 407 630 407C776 407 838 329 838 258C838 168 776 87 712 44ZM878 511 945 566C906 628 850 691 792 750L730 701C793 638 838 577 878 511Z" transform="translate(0, 880) scale(1,-1)" /></svg>