<svg xmlns="http://www.w3.org/2000/svg" width="1000" height="1000"><path d="M328 275V204C624 167 865 191 865 360C865 490 715 544 558 544C363 544 248 490 171 434L202 359C277 414 376 465 557 465C670 465 786 434 786 358C786 275 606 232 328 275ZM66 -17 115 -84C489 7 535 147 535 261V352H455V262C455 177 427 60 66 -17ZM147 194H222V483H147ZM898 -84 936 -14C850 30 685 96 566 138L529 78C651 32 815 -38 898 -84ZM364 518 410 458C549 509 679 562 812 629L749 689L689 657H364C435 698 507 748 580 804L504 847C416 774 324 715 236 666C219 656 195 649 173 644L205 576L241 591H549C496 568 432 542 364 518Z" transform="translate(0, 880) scale(1,-1)" /></svg>