<svg xmlns="http://www.w3.org/2000/svg" width="1000" height="1000"><path d="M363 544 324 612C158 506 37 343 37 171C37 37 94 -35 186 -35C336 -35 407 135 383 676L305 675C329 242 277 45 186 45C140 45 116 96 116 171C116 323 216 447 363 544ZM282 100 331 168C241 253 170 406 200 768L123 772C89 383 166 201 282 100ZM534 85V448H455V85C455 -32 494 -57 611 -57H826C918 -57 946 1 961 173L880 184C871 47 859 23 803 23H623C549 23 534 34 534 85ZM791 359C868 359 906 431 918 770L858 793L840 781H449V701H837C827 493 808 439 779 439C726 439 681 446 633 460V375C679 365 730 359 791 359Z" transform="translate(0, 880) scale(1,-1)" /></svg>