<svg xmlns="http://www.w3.org/2000/svg" width="1000" height="1000"><path d="M63 698H591V778H63ZM399 -72C466 -72 502 -31 502 52L504 738H425L423 67C423 27 416 6 391 6C367 6 341 12 315 24V-58C339 -68 366 -72 399 -72ZM614 333 627 415C483 441 284 442 35 414V339C280 364 480 357 614 333ZM233 738H154V-65H233ZM656 252 703 204C882 304 932 353 932 430C932 520 829 565 588 581L580 501C791 486 849 452 849 426C849 390 822 341 656 252ZM595 -31 660 -90C792 -8 905 94 958 164L901 227L880 222C798 246 704 266 582 275L573 196C691 188 770 176 834 159C795 107 713 35 595 -31ZM607 559 676 517C759 591 830 686 892 795L812 827C755 724 685 630 607 559Z" transform="translate(0, 880) scale(1,-1)" /></svg>