<svg xmlns="http://www.w3.org/2000/svg" width="1000" height="1000"><path d="M68 98H144V734H68ZM195 191H271V734H195ZM365 632 376 569C456 611 561 637 679 637C804 637 848 596 848 479C848 334 835 289 804 289C778 289 753 294 717 312V231C748 219 777 213 804 213C903 213 928 288 928 479C928 624 870 716 679 716C554 716 440 680 365 632ZM615 707 657 782C592 807 501 834 428 849L401 779C470 763 555 733 615 707ZM451 495H787V573H451ZM666 316V683H586L588 329C588 313 583 305 571 305C549 305 524 312 495 323V245C531 235 558 229 590 229C648 229 666 256 666 316ZM451 365H787V443H451ZM275 -26 320 -93C406 -49 502 10 561 73L495 126C450 73 361 11 275 -26ZM281 127H956V205H281ZM903 -93 959 -31C906 15 811 79 733 128L684 68C760 18 853 -45 903 -93ZM412 223V701H333V223Z" transform="translate(0, 880) scale(1,-1)" /></svg>