<svg xmlns="http://www.w3.org/2000/svg" width="1000" height="1000"><path d="M826 514 900 487C929 528 939 569 939 617C939 701 825 739 617 739C426 739 254 691 147 618V729H69V495H147V566C254 633 453 660 617 660C804 660 857 633 857 610C857 577 852 548 826 514ZM499 677 578 697C561 746 531 802 500 847L424 826C452 783 485 723 499 677ZM194 454H806V530H194ZM597 89 661 50C752 168 812 268 868 370L792 403C740 298 683 198 597 89ZM55 -56H945V22H55ZM311 52 375 90C323 195 263 306 200 401L131 360C195 268 256 162 311 52ZM458 488V-14H542V488Z" transform="translate(0, 880) scale(1,-1)" /></svg>