<svg xmlns="http://www.w3.org/2000/svg" width="1000" height="1000"><path d="M467 70 492 -10C802 -8 910 72 910 215C910 320 840 402 596 402C386 402 234 356 83 265L139 198C257 272 411 322 596 322C764 322 829 269 829 215C829 129 743 64 467 70ZM491 -91 569 -53C541 19 490 101 445 161L373 124C419 71 466 -19 491 -91ZM502 557 559 503C662 561 791 653 893 752L833 805L816 796H139V716H728C671 667 582 603 502 557ZM649 414 701 481C591 555 496 599 359 644L319 574C459 529 548 484 649 414Z" transform="translate(0, 880) scale(1,-1)" /></svg>