<svg xmlns="http://www.w3.org/2000/svg" width="1000" height="1000"><path d="M328 522 289 591C137 494 28 345 28 185C28 61 81 -2 166 -2C304 -2 371 150 350 651L272 648C294 255 246 77 166 77C126 77 106 120 106 185C106 321 193 434 328 522ZM251 122 302 189C219 267 155 403 183 735L106 738C75 383 146 214 251 122ZM838 -75 878 0C674 60 519 249 495 655L416 648C442 218 623 -11 838 -75ZM769 265 824 202C924 285 963 357 963 482C963 567 925 642 797 643C615 644 469 510 347 373L409 316C533 461 664 563 797 563C865 563 883 525 883 482C883 398 856 335 769 265ZM659 354H737V826H659Z" transform="translate(0, 880) scale(1,-1)" /></svg>