<svg xmlns="http://www.w3.org/2000/svg" width="1000" height="1000"><path d="M43 521V441H276V521ZM120 736V141H199V736ZM32 130 62 58 292 148 262 220ZM382 521 456 551C439 618 406 714 373 784L301 757C332 688 366 590 382 521ZM596 555 675 577C662 651 637 748 607 829L530 809C558 729 585 630 596 555ZM772 540 843 515C878 593 916 698 942 784L862 809C841 724 805 616 772 540ZM782 -37 851 -78C896 0 939 91 939 206C939 316 878 367 787 367C723 367 684 357 649 340V498H571V300L555 287L593 220C655 263 716 288 778 288C829 288 859 253 859 198C859 119 827 37 782 -37ZM441 -42C542 -42 620 -25 702 1L677 74C603 51 524 38 438 38C407 38 391 52 391 94C391 154 410 246 432 338L360 358C331 259 311 170 311 81C311 -3 354 -42 441 -42Z" transform="translate(0, 880) scale(1,-1)" /></svg>