<svg xmlns="http://www.w3.org/2000/svg" width="1000" height="1000"><path d="M53 102H129V732H53ZM176 194H252V732H176ZM436 739 511 765C499 787 477 825 450 850L378 824C401 798 422 766 436 739ZM265 699H948V777H265ZM698 754 769 730C800 762 824 795 843 829L766 852C750 822 728 785 698 754ZM764 667V372H842V667ZM693 409V329H943V409ZM336 338 421 302C524 365 604 409 604 490C604 557 548 583 487 583C424 583 368 550 368 490C368 432 408 402 454 396C418 376 386 358 336 338ZM487 458C462 458 438 467 438 490C438 509 462 521 487 521C514 521 535 510 535 490C535 467 513 458 487 458ZM574 509V704H497V559ZM295 651V575H673V651ZM275 357 294 281 681 337 661 413ZM278 1 313 -78 343 -71 846 -46 833 30 459 12C515 41 572 70 632 109L543 148C472 97 395 53 329 18C308 7 300 4 278 1ZM866 -98 927 -48C889 -3 833 51 765 101L711 51C778 0 828 -56 866 -98ZM245 96H968V174H245ZM305 221H908V299H305Z" transform="translate(0, 880) scale(1,-1)" /></svg>