<svg xmlns="http://www.w3.org/2000/svg" width="1000" height="1000"><path d="M122 -67H198V598H122ZM8 427 70 381C158 492 231 649 277 795L200 817C156 668 87 522 8 427ZM288 -56H947V23H288ZM501 9H640C697 40 719 101 719 155C719 220 686 256 601 256C530 256 483 220 483 167C483 111 524 77 601 77C614 77 626 78 637 84C617 50 574 24 501 9ZM293 499 324 428C405 463 523 498 684 498C828 498 871 471 871 433C871 374 698 360 443 384V301C790 284 952 292 952 433C952 519 892 577 684 577C492 577 374 535 293 499ZM687 200V438H610V221ZM601 135C574 135 554 149 554 167C554 185 574 199 601 199C628 199 648 185 648 167C648 149 628 135 601 135ZM268 743V664H969V743ZM456 563 538 585C521 654 487 760 455 836L376 815C406 741 440 632 456 563ZM690 582 767 561C796 627 833 730 860 815L778 836C756 753 720 649 690 582Z" transform="translate(0, 880) scale(1,-1)" /></svg>