<svg xmlns="http://www.w3.org/2000/svg" width="1000" height="1000"><path d="M496 695 575 714C560 756 533 805 506 844L430 824C455 786 484 734 496 695ZM813 536 891 509C913 557 923 588 923 617C923 702 818 743 587 743C417 743 263 713 164 673V726H84V527H164V605C276 639 433 662 587 662C782 662 836 640 836 610C836 592 831 573 813 536ZM200 472H802V550H200ZM92 232H909V311H92ZM550 19V511H470V36C470 13 462 3 432 3C388 3 338 13 287 30V-53C335 -64 389 -73 451 -73C517 -73 550 -40 550 19Z" transform="translate(0, 880) scale(1,-1)" /></svg>