<svg xmlns="http://www.w3.org/2000/svg" width="1000" height="1000"><path d="M154 -65H231V595H154ZM28 425 90 380C187 490 270 646 321 791L243 815C194 667 116 520 28 425ZM922 -77 954 1C795 44 619 175 485 175C393 175 340 119 340 47C340 -30 389 -74 480 -74C574 -74 869 56 869 193C869 293 783 325 674 325C607 325 550 314 506 299C527 318 540 334 559 361L487 395C434 318 368 258 276 207L324 142C370 171 413 199 433 206C504 230 587 245 669 245C739 245 789 237 789 193C789 117 555 6 480 6C443 6 419 21 419 47C419 76 444 95 485 95C601 95 769 -26 922 -77ZM735 357C856 357 928 433 927 564C926 705 841 776 683 776C580 776 514 755 443 698C464 734 479 764 503 814L422 838C388 737 341 647 284 563L361 529C378 557 394 582 420 605C488 665 581 697 683 696C790 695 847 658 847 564C847 476 811 437 728 437C685 437 635 442 600 452V366C640 360 681 357 735 357ZM399 468 445 403C577 477 722 578 771 622L721 684C673 641 525 537 399 468ZM712 450 758 517C690 561 594 615 525 645L483 584C553 548 653 490 712 450Z" transform="translate(0, 880) scale(1,-1)" /></svg>