<svg xmlns="http://www.w3.org/2000/svg" width="1000" height="1000"><path d="M40 530V451H295V530ZM128 760V129H207V760ZM29 115 59 42 312 138 282 211ZM342 748V-15H421V674C593 685 779 709 906 753L857 829C741 786 526 759 342 748ZM695 -52 765 -96C845 40 877 189 877 327C877 464 813 528 666 528C535 528 444 476 366 399L406 326C495 411 582 447 666 447C735 447 797 424 797 327C797 197 768 72 695 -52ZM924 71 974 143C878 205 761 269 621 334L582 267C713 204 826 139 924 71Z" transform="translate(0, 880) scale(1,-1)" /></svg>