<svg xmlns="http://www.w3.org/2000/svg" width="1000" height="1000"><path d="M133 31C240 31 294 164 294 295C294 396 246 497 137 542L111 468C190 429 217 365 217 295C217 201 186 109 133 109C110 109 98 123 98 158C98 234 160 319 296 420L255 485C113 386 21 272 21 158C21 66 65 31 133 31ZM135 516 194 486C240 547 288 631 313 691L252 731L239 722H48V644H203C185 602 159 554 135 516ZM405 450 476 416C552 512 625 629 707 804L627 832C554 665 477 540 405 450ZM305 592H960V672H305ZM807 317V-3H886V378L829 409L807 397C598 383 295 264 295 77C295 -13 352 -61 443 -61C598 -61 698 64 698 232C698 371 657 480 511 480C451 480 403 464 367 442L399 372C426 388 466 400 511 400C578 400 618 339 618 232C618 105 547 19 443 19C397 19 375 43 375 77C375 189 611 304 807 317ZM972 34H721V-46H972Z" transform="translate(0, 880) scale(1,-1)" /></svg>