<svg xmlns="http://www.w3.org/2000/svg" width="1000" height="1000"><path d="M65 187H144V472C195 529 242 554 284 554C324 554 339 512 339 433C339 316 294 302 242 315V230C356 209 418 268 418 433C418 576 377 636 284 636C226 636 183 609 144 560V637H65ZM203 -64H281V806H203ZM906 -89 945 -6C778 60 688 240 538 240C456 240 398 179 398 86C398 -6 451 -61 524 -61C682 -61 857 160 857 282C857 393 797 444 669 444C605 444 540 427 483 400L504 319C547 346 611 364 669 364C741 364 777 340 777 282C777 189 641 19 524 19C486 19 469 44 469 86C469 127 500 160 538 160C660 160 733 -20 906 -89ZM604 388H684V835H604ZM397 604 442 538C533 600 643 640 736 640C816 640 849 611 849 585C849 556 841 533 824 508L900 477C919 511 930 538 930 586C930 678 855 720 736 720C617 720 495 667 397 604Z" transform="translate(0, 880) scale(1,-1)" /></svg>