<svg xmlns="http://www.w3.org/2000/svg" width="1000" height="1000"><path d="M513 746H126V470C126 325 118 122 30 -23L107 -60C195 92 206 317 206 470V667H943V746H598L548 848L473 830ZM245 523V443H904V523ZM425 324 504 346C486 426 448 551 414 638L338 616C371 531 408 406 425 324ZM635 344 709 322C740 399 780 518 810 616L730 638C707 541 667 422 635 344ZM709 227C630 150 466 52 210 -17L259 -88C553 7 745 121 871 265L811 311L791 306H272V227ZM888 -90 945 -26C836 28 724 75 606 118L563 55C674 13 786 -37 888 -90Z" transform="translate(0, 880) scale(1,-1)" /></svg>