<svg xmlns="http://www.w3.org/2000/svg" width="1000" height="1000"><path d="M917 -74 952 4C618 82 500 243 272 243C158 243 84 182 84 93C84 0 151 -54 251 -54C548 -54 665 240 672 598H592C587 277 491 26 251 26C191 26 164 54 164 93C164 132 191 163 272 163C482 163 607 2 917 -74ZM239 370 315 337C367 395 426 475 464 541L403 584L385 576H136V496H337C315 457 279 412 239 370ZM100 317H920V397H100ZM86 647H914V727H86ZM503 681 575 721C546 766 517 806 488 841L415 802C447 767 478 725 503 681Z" transform="translate(0, 880) scale(1,-1)" /></svg>