<svg xmlns="http://www.w3.org/2000/svg" width="1000" height="1000"><path d="M65 127H142V736H65ZM204 216H280V736H204ZM408 449 480 416C554 512 624 629 704 804L624 831C553 664 479 539 408 449ZM313 592H948V672H313ZM798 317V-3H877V378L820 409L798 397C596 383 302 263 302 76C302 -14 359 -61 447 -61C600 -61 695 64 695 232C695 371 656 480 513 480C454 480 407 464 371 442L404 372C430 388 470 400 513 400C578 400 616 339 616 232C616 105 547 19 447 19C403 19 382 42 382 76C382 188 609 304 798 317ZM961 34H716V-46H961Z" transform="translate(0, 880) scale(1,-1)" /></svg>