<svg xmlns="http://www.w3.org/2000/svg" width="1000" height="1000"><path d="M512 746H131V470C131 325 123 122 35 -23L103 -60C196 92 209 317 209 470V668H943V746H597L549 845L474 827ZM247 532V453H919V532ZM543 648V343H622V648ZM628 375C488 375 372 348 269 310L303 235C405 275 502 296 628 296C728 296 780 275 780 239C780 144 498 8 402 8C359 8 327 30 327 69C327 104 364 129 421 129C546 129 681 4 889 -88L947 -16C746 67 581 207 421 207C324 207 244 163 244 69C244 -14 305 -70 402 -70C540 -70 866 93 866 240C866 328 787 375 628 375Z" transform="translate(0, 880) scale(1,-1)" /></svg>