<svg xmlns="http://www.w3.org/2000/svg" width="1000" height="1000"><path d="M35 524V445H252V524ZM104 778V89H182V778ZM23 69 57 -2 269 103 235 173ZM495 296 543 250 792 368 738 422ZM265 362H948V440H265ZM624 436 675 383C752 434 828 472 828 550C828 627 750 655 602 655C458 655 368 628 368 556C368 493 424 463 534 463C617 463 646 497 646 547V841H567V579C567 550 556 538 526 538C487 538 456 544 456 556C456 568 488 579 602 579C688 579 742 570 742 548C742 524 691 471 624 436ZM272 679H940V757H272ZM660 322C548 321 429 298 275 241L307 165C444 226 553 243 660 243C753 243 857 214 857 125C857 28 772 1 678 1C565 1 450 27 450 80C450 105 487 119 553 119C612 119 634 113 634 92C634 72 604 31 505 -4L543 -46C646 -14 714 34 714 92C714 161 642 197 553 197C470 197 371 156 371 80C371 -26 505 -78 678 -78C831 -78 935 2 935 125C935 272 804 323 660 322Z" transform="translate(0, 880) scale(1,-1)" /></svg>