<svg xmlns="http://www.w3.org/2000/svg" width="1000" height="1000"><path d="M161 689V611H873V689ZM608 709 648 781C557 809 480 829 396 850L358 781C449 757 523 736 608 709ZM203 581V748H123V558C123 484 167 444 278 444H873V523H284C227 523 203 538 203 581ZM562 -14 609 -89C803 -65 936 22 936 149C936 295 763 363 532 363C254 363 62 258 62 110C62 0 164 -64 288 -64C557 -64 690 180 716 446L632 453C611 209 500 16 292 16C204 16 146 52 146 110C146 201 308 284 532 284C687 284 852 240 852 149C852 67 751 3 562 -14ZM478 36 532 98C396 171 353 261 400 455L317 464C267 260 324 106 478 36Z" transform="translate(0, 880) scale(1,-1)" /></svg>