<svg xmlns="http://www.w3.org/2000/svg" width="1000" height="1000"><path d="M768 -79C894 -79 936 43 936 358C936 622 863 696 742 696C655 696 584 665 533 621L543 542C596 586 667 612 742 612C823 612 854 536 854 358C854 135 839 5 764 5C708 5 666 18 630 42L613 -44C649 -64 693 -79 768 -79ZM400 408 466 361C556 491 616 656 655 820L574 837C536 669 477 512 400 408ZM371 -17 430 -72C621 70 681 262 710 477L633 487C604 288 550 113 371 -17ZM33 149 95 91C206 218 323 399 406 547L346 585L330 570H68V492H287C236 400 133 257 33 149ZM227 -8H305V386H227ZM289 611 345 671C301 712 238 764 176 810L124 755C186 707 249 652 289 611ZM376 104 189 -9 227 -77 412 38Z" transform="translate(0, 880) scale(1,-1)" /></svg>