<svg xmlns="http://www.w3.org/2000/svg" width="1000" height="1000"><path d="M159 -9C212 -9 261 2 301 14L278 90C247 80 209 73 178 73C151 73 134 87 134 142C134 233 141 337 152 459L72 464C61 343 53 234 53 138C53 37 84 -9 159 -9ZM281 180C318 180 361 187 391 198L372 277C348 269 316 262 294 262C275 262 268 278 268 319V742H188V305C188 207 224 180 281 180ZM359 698H928V778H359ZM724 -72C794 -72 830 -31 830 52L831 738H752L751 67C751 27 743 6 716 6C690 6 661 12 633 24V-58C659 -68 688 -72 724 -72ZM953 333 967 415C812 441 597 442 330 414V339C594 364 809 357 953 333ZM540 738H461V-65H540Z" transform="translate(0, 880) scale(1,-1)" /></svg>