<svg xmlns="http://www.w3.org/2000/svg" width="1000" height="1000"><path d="M223 585 292 621C271 671 231 743 191 797L124 764C160 712 201 636 223 585ZM483 613 560 639C544 695 512 768 477 829L404 804C436 744 468 669 483 613ZM698 611 765 581C807 639 851 717 884 784L805 815C781 751 737 671 698 611ZM810 349 883 316C908 373 920 411 920 452C920 552 818 596 587 596C414 596 261 560 164 511V579H84V335H164V443C276 487 433 515 587 515C782 515 839 486 839 447C839 420 832 396 810 349ZM540 6V442H460V6ZM132 208H868V286H132ZM930 37H70V-42H930Z" transform="translate(0, 880) scale(1,-1)" /></svg>