<svg xmlns="http://www.w3.org/2000/svg" width="1000" height="1000"><path d="M33 -25 103 -67C216 110 223 303 223 824H145C145 301 140 141 33 -25ZM296 -54H843C929 -54 946 3 954 98L877 101C873 33 868 24 831 24L311 29C281 29 274 38 274 76V368H196V77C196 -26 220 -54 296 -54ZM41 548 67 474C155 491 256 524 330 575L296 649C232 599 131 568 41 548ZM422 834 380 779C426 757 476 729 502 710L546 768C518 787 467 814 422 834ZM405 464 471 445 601 667 541 704 527 695H331V628H491ZM618 553 333 471 355 403 642 490ZM601 395 649 337C759 423 848 503 944 618L884 666L853 624H734C769 676 807 743 843 811L773 843C733 759 692 693 651 637C642 626 631 618 619 612L648 549L666 558H790C739 503 671 444 601 395ZM783 240 804 171C896 187 940 234 939 290C939 368 853 406 698 406C555 406 413 383 313 355L326 282C427 308 569 330 698 330C810 330 860 310 860 290C860 263 831 245 783 240ZM471 281V208H739V281ZM338 154V79H891V154Z" transform="translate(0, 880) scale(1,-1)" /></svg>