<svg xmlns="http://www.w3.org/2000/svg" width="1000" height="1000"><path d="M31 44 105 2C164 100 231 227 280 342L208 374C158 254 85 123 31 44ZM224 559 276 622C232 658 158 704 101 733L55 668C112 639 181 594 224 559ZM702 15 736 -67C876 -11 934 45 934 200C934 346 815 427 647 427C424 427 264 288 264 117C264 12 319 -58 421 -58C597 -58 640 134 640 277C640 397 582 510 450 567L414 494C518 445 561 365 561 277C561 147 525 22 421 22C370 22 343 60 343 117C343 231 444 347 647 347C776 347 855 301 855 200C855 94 803 37 702 15ZM442 535 512 493C578 568 651 669 696 746L634 794L621 787H302V707H576C542 650 490 584 442 535ZM901 467 971 514C932 589 877 668 819 740L755 702C817 623 861 548 901 467Z" transform="translate(0, 880) scale(1,-1)" /></svg>