<svg xmlns="http://www.w3.org/2000/svg" width="1000" height="1000"><path d="M392 556 352 624C182 515 58 347 58 171C58 34 116 -40 210 -40C364 -40 436 135 412 689L333 688C358 243 304 40 210 40C162 40 137 93 137 171C137 329 241 457 392 556ZM309 98 359 165C265 253 192 411 224 784L146 788C111 388 190 202 309 98ZM544 526 610 482C707 563 794 663 861 759L801 800L786 793H426V713H727C676 646 620 587 544 526ZM752 -70C892 -70 938 58 938 283C938 486 864 560 711 560C591 560 462 520 388 485L419 418C497 450 607 479 711 479C818 479 857 404 857 283C857 109 825 8 750 8C698 8 657 15 623 31V-55C657 -66 692 -70 752 -70ZM461 132 526 87C629 181 743 322 782 391L711 430C672 359 563 220 461 132ZM699 112 764 166C705 235 616 326 554 375L492 329C557 275 645 184 699 112Z" transform="translate(0, 880) scale(1,-1)" /></svg>