<svg xmlns="http://www.w3.org/2000/svg" width="1000" height="1000"><path d="M586 503 636 443C747 497 842 543 842 653C842 771 747 821 568 821C395 821 286 786 201 736L237 671C320 721 425 742 568 742C704 742 762 708 762 653C762 585 689 544 586 503ZM251 429V788H171V429ZM852 511H374V433H852ZM689 -79C868 -79 905 45 905 182C905 291 811 347 634 347C446 347 277 330 98 305L116 228C292 254 461 270 629 270C779 270 820 232 820 176C820 78 794 -7 682 -7C627 -7 569 -1 507 13V-66C567 -75 622 -79 689 -79ZM532 307 450 320C386 152 270 51 53 -24L111 -86C347 -3 464 120 532 307Z" transform="translate(0, 880) scale(1,-1)" /></svg>