<svg xmlns="http://www.w3.org/2000/svg" width="1000" height="1000"><path d="M637 -64C833 -64 941 64 941 257C941 421 830 512 689 512C656 512 632 509 611 503C688 564 787 648 878 732L806 793L784 777H440V698H720C653 627 579 556 510 496C492 481 457 469 429 454L468 382C523 415 592 431 683 431C788 431 855 367 855 257C855 106 766 15 632 15C558 15 506 61 506 121C506 167 534 204 576 204C644 204 690 157 699 -1L773 16C758 195 689 282 577 282C490 282 427 204 427 116C427 6 510 -64 637 -64ZM281 823V-75H360V823ZM324 211 299 287 170 237V668H91V258C91 223 75 204 61 195L93 122Z" transform="translate(0, 880) scale(1,-1)" /></svg>