<svg xmlns="http://www.w3.org/2000/svg" width="1000" height="1000"><path d="M209 521 280 560C263 626 218 719 178 788L109 754C146 687 187 587 209 521ZM476 558 554 587C541 660 506 755 470 835L396 809C429 730 462 631 476 558ZM703 545 772 525C814 597 859 696 892 779L812 812C787 729 743 623 703 545ZM608 -8 642 -82C832 -57 946 18 946 180C946 347 786 412 500 412C228 412 58 319 58 152C58 6 148 -66 281 -66C489 -66 671 156 706 457L624 463C598 194 446 11 281 11C189 11 139 72 139 152C139 228 235 338 500 338C758 338 868 254 868 180C868 76 778 9 608 -8ZM481 52 530 112C426 182 379 328 392 527L314 533C300 294 360 122 481 52Z" transform="translate(0, 880) scale(1,-1)" /></svg>