<svg xmlns="http://www.w3.org/2000/svg" width="1000" height="1000"><path d="M146 -62H224V579H146ZM15 412 76 366C178 475 265 628 319 771L240 796C189 650 106 505 15 412ZM730 679 768 753C674 791 593 823 518 847L476 774C550 751 635 720 730 679ZM610 13 685 -7C745 59 769 124 769 180C769 250 727 291 660 291C597 291 556 251 556 190C556 124 591 78 682 78C825 78 934 129 934 285C934 415 849 478 691 478C380 478 282 369 282 285C282 218 322 171 400 171C544 171 698 425 829 635L761 683L741 672H336V593H708C617 438 479 249 400 249C374 249 361 259 361 285C361 317 409 400 691 400C794 400 855 361 855 285C855 179 777 152 682 152C646 152 633 171 633 190C633 208 642 221 660 221C680 221 690 209 690 181C690 136 668 77 610 13ZM959 24H290V-56H959Z" transform="translate(0, 880) scale(1,-1)" /></svg>