<svg xmlns="http://www.w3.org/2000/svg" width="1000" height="1000"><path d="M54 125H129V723H54ZM178 213H253V723H178ZM369 -55C482 -55 537 109 537 259C537 377 486 496 373 550L342 477C428 429 460 343 460 259C460 150 426 25 369 25C345 25 329 41 329 87C329 186 398 293 544 421L497 483C346 362 251 220 251 87C251 -21 298 -55 369 -55ZM370 521 432 490C482 564 535 669 562 744L498 778L484 768H276V690H458C434 634 400 570 370 521ZM729 -60C769 -60 803 -26 803 33V479C852 545 904 639 940 731L873 768L864 758H579V678H827C799 612 760 550 725 504V52C725 30 716 19 703 18C678 17 646 26 618 43V-44C656 -56 686 -60 729 -60ZM547 171 618 137C648 222 674 337 690 441L613 453C599 355 574 245 547 171ZM906 128 981 150C966 234 935 357 903 457L830 432C861 330 891 212 906 128Z" transform="translate(0, 880) scale(1,-1)" /></svg>