<svg xmlns="http://www.w3.org/2000/svg" width="1000" height="1000"><path d="M337 555 297 623C155 516 52 352 52 179C52 45 102 -22 184 -22C315 -22 378 139 359 691L281 689C301 256 257 57 184 57C147 57 130 106 130 179C130 333 211 458 337 555ZM261 113 313 180C236 266 175 419 202 784L125 787C96 397 162 214 261 113ZM374 703H923V783H374ZM431 181 509 202C493 293 462 434 433 544L359 525C387 417 418 272 431 181ZM676 216 753 233C741 326 718 465 694 574L620 560C641 451 665 309 676 216ZM703 44 775 25C842 191 896 388 931 565L848 580C818 402 769 208 703 44ZM522 22H601V740H522ZM939 55H356V-25H939Z" transform="translate(0, 880) scale(1,-1)" /></svg>