<svg xmlns="http://www.w3.org/2000/svg" width="1000" height="1000"><path d="M153 638 175 565 206 571 773 594 764 671 336 654C416 698 495 752 568 823L492 860C414 776 284 696 215 657C197 647 177 642 153 638ZM794 547 862 594C824 636 767 688 701 736L638 690C706 641 757 589 794 547ZM64 298 107 225C502 295 537 413 536 577H455C455 431 443 364 64 298ZM884 221 938 287C826 337 697 386 585 421L543 357C657 318 784 269 884 221ZM74 435H926V513H74ZM126 -58H874V20H126ZM231 74H769V152H231ZM171 203H829V281H171Z" transform="translate(0, 880) scale(1,-1)" /></svg>