<svg xmlns="http://www.w3.org/2000/svg" width="1000" height="1000"><path d="M189 323V693H109V323ZM119 534 169 474C293 580 467 623 606 623C735 623 808 585 808 515C808 389 604 388 314 424V344C655 310 889 309 889 515C889 651 776 702 606 702C442 702 259 658 119 534ZM462 112H542V835H462ZM58 -36 125 -79C183 -22 235 56 261 130L188 161C165 89 111 13 58 -36ZM524 -71C568 -71 609 -54 664 -9L607 53C577 24 558 16 535 16C511 16 495 41 466 154L385 137C429 -32 473 -71 524 -71ZM877 -76 948 -32C913 24 847 107 789 167L727 119C789 57 845 -22 877 -76Z" transform="translate(0, 880) scale(1,-1)" /></svg>