<svg xmlns="http://www.w3.org/2000/svg" width="1000" height="1000"><path d="M97 62H177V593H97ZM245 438C330 438 376 503 376 759H78V679H296C298 535 257 516 227 516C202 516 180 518 154 526V443C182 439 211 438 245 438ZM342 -7 368 -85C625 -41 935 99 935 402C935 518 875 648 682 648C496 648 368 553 368 390C368 289 423 211 535 211C604 211 700 250 700 393V840H620V398C620 316 588 291 535 291C470 291 448 337 448 390C448 497 514 568 682 568C816 568 855 482 855 402C855 140 551 24 342 -7ZM66 79 93 3 364 103 337 179Z" transform="translate(0, 880) scale(1,-1)" /></svg>