<svg xmlns="http://www.w3.org/2000/svg" width="1000" height="1000"><path d="M514 740H129V470C129 325 121 122 33 -23L107 -60C197 92 208 317 208 470V660H943V740H599L547 847L472 829ZM647 117C820 117 941 154 941 272C941 404 784 429 382 403L389 324C732 344 860 325 860 272C860 218 773 196 647 196C552 196 444 204 311 219V138C443 124 547 117 647 117ZM533 -76C594 -76 628 -56 628 14V275H549V31C549 11 538 -1 515 -1C478 -1 429 6 379 22V-60C425 -68 477 -76 533 -76ZM548 388 614 344C713 398 809 457 895 517L836 591L818 584H259V505H735C683 467 619 430 548 388Z" transform="translate(0, 880) scale(1,-1)" /></svg>