<svg xmlns="http://www.w3.org/2000/svg" width="1000" height="1000"><path d="M87 642H913V722H561L507 836L430 818L474 722H87ZM68 -7 120 -75C407 46 637 190 780 310L713 355L691 342H448C579 412 710 493 819 573L751 629C635 536 485 443 282 343C269 337 251 330 231 325L272 252L311 265H589C494 200 334 100 68 -7ZM639 -65H806C888 -65 916 -3 922 141L842 148C841 44 825 15 793 15H636C603 15 598 21 598 49V198L518 176V48C518 -36 542 -65 639 -65ZM374 430 433 487C379 533 304 582 233 621L176 566C251 524 322 477 374 430Z" transform="translate(0, 880) scale(1,-1)" /></svg>