<svg xmlns="http://www.w3.org/2000/svg" width="1000" height="1000"><path d="M640 -70C810 -70 913 81 913 252C913 460 769 537 562 537C481 537 421 528 367 515C440 576 523 676 589 802L507 831C453 705 373 604 257 502C240 487 189 470 130 449L175 378C287 422 411 456 554 456C714 456 832 424 832 252C832 118 759 11 632 11C572 11 513 19 455 36V-53C511 -63 573 -70 640 -70ZM86 618H900V698H86ZM239 287H717V362H239ZM528 126V428H449L451 146C451 129 445 119 435 119C405 119 368 125 327 141V60C362 52 403 47 446 47C505 47 528 74 528 126ZM221 164H734V239H221Z" transform="translate(0, 880) scale(1,-1)" /></svg>