<svg xmlns="http://www.w3.org/2000/svg" width="1000" height="1000"><path d="M155 19C208 19 259 30 300 43L277 119C245 109 206 101 175 101C147 101 130 115 130 169C130 258 137 361 149 481L69 487C57 367 49 260 49 166C49 65 80 19 155 19ZM282 205C321 205 364 213 397 224L377 303C352 294 319 288 296 288C276 288 269 304 269 345V760H189V330C189 233 225 205 282 205ZM495 85V448H416V85C416 -32 456 -57 577 -57H812C911 -57 941 1 957 173L875 184C866 47 852 23 792 23H588C510 23 495 34 495 85ZM776 358C857 358 896 432 908 770L848 793L830 781H409V701H826C817 493 795 438 764 438C705 438 657 446 605 460V375C655 364 710 358 776 358Z" transform="translate(0, 880) scale(1,-1)" /></svg>