<svg xmlns="http://www.w3.org/2000/svg" width="1000" height="1000"><path d="M806 -71C875 -71 914 -39 914 38V637C914 736 863 795 774 795H365C237 795 166 763 126 723L147 647C190 692 268 718 378 718H754C808 718 837 687 837 631V51C837 21 823 4 800 4C759 4 725 15 678 35V-50C716 -63 758 -71 806 -71ZM182 -54H610V23H211C180 23 163 43 163 81V795H86V65C86 -23 121 -54 182 -54ZM165 134 217 73C373 151 559 263 648 323L588 375L573 370H289V291H435C367 246 280 191 165 134ZM503 43C545 43 583 52 630 79V158C584 129 551 116 520 116C503 116 496 119 496 148V231H417V131C417 69 446 43 503 43ZM781 71 835 132C762 173 672 220 593 253L543 196C621 161 709 114 781 71ZM196 399H787V477H196ZM594 449 633 518C548 550 475 570 382 586L353 515C449 499 519 479 594 449ZM476 548 557 503C620 539 708 596 755 634L702 687L687 682H249V603H565C533 581 506 565 476 548Z" transform="translate(0, 880) scale(1,-1)" /></svg>