<svg xmlns="http://www.w3.org/2000/svg" width="1000" height="1000"><path d="M56 509V429H305V509ZM141 766V69H220V766ZM43 48 76 -24 322 83 290 155ZM721 -65C863 -65 935 47 935 227C935 399 836 466 676 466C633 466 600 463 572 458C633 518 756 642 856 755L796 805L778 797H394V717H714C651 633 536 511 448 435C434 422 365 391 320 365L367 293C450 346 556 385 662 385C776 385 855 344 855 227C855 101 814 15 714 15C665 15 616 23 569 43V-46C614 -60 666 -65 721 -65ZM292 542H927V622H292ZM284 123 350 68C458 134 544 226 583 321L502 345C467 257 390 178 284 123ZM345 -3 408 -57C560 19 699 154 741 321L663 341C620 191 491 64 345 -3Z" transform="translate(0, 880) scale(1,-1)" /></svg>