<svg xmlns="http://www.w3.org/2000/svg" width="1000" height="1000"><path d="M141 86C186 86 228 94 259 100L243 176C216 171 183 167 156 167C131 167 116 176 116 231C116 313 121 407 130 519L50 522C41 411 35 314 35 228C35 126 66 86 141 86ZM242 259C273 259 312 265 336 273L320 351C302 346 272 341 253 341C237 341 231 357 231 398V772H151V384C151 287 187 259 242 259ZM480 -54H829C924 -54 953 -8 964 193L885 198C880 40 868 26 823 26H486C440 26 419 38 419 66C419 113 508 186 893 415L847 495L831 485H411V405H717C408 216 337 142 337 64C337 -11 373 -54 480 -54ZM262 482 333 441C403 542 459 683 491 822L412 838C380 699 326 566 262 482ZM394 620H947V700H394Z" transform="translate(0, 880) scale(1,-1)" /></svg>