<svg xmlns="http://www.w3.org/2000/svg" width="1000" height="1000"><path d="M37 494V415H260V494ZM109 750V97H188V750ZM26 80 58 9 277 108 244 179ZM831 407 898 351C932 389 962 438 962 511C962 609 890 680 674 680C510 680 365 634 261 565L301 496C403 562 528 601 674 601C840 601 882 550 882 511C882 473 865 439 831 407ZM569 469H648V776H569ZM679 496H447V418H613C519 323 383 225 246 145L305 75C473 188 632 315 764 453L701 508ZM867 816H343V737H867ZM334 35V-44H899V35ZM465 66 540 100C519 171 473 275 432 352L360 323C401 247 445 139 465 66ZM668 93 739 66C776 133 824 241 858 332L780 360C753 274 705 164 668 93Z" transform="translate(0, 880) scale(1,-1)" /></svg>