<svg xmlns="http://www.w3.org/2000/svg" width="1000" height="1000"><path d="M538 284C686 284 768 348 768 447C768 539 701 586 553 586C523 586 500 582 475 574C501 594 532 617 558 636L495 692C419 613 327 546 231 494L300 445C372 502 439 514 553 514C642 514 682 487 682 447C682 396 630 358 538 358C474 358 422 363 364 381V300C421 288 472 284 538 284ZM47 605 106 548C203 593 318 666 402 784L327 821C269 733 167 655 47 605ZM902 553 958 614C854 658 732 745 670 822L606 781C677 697 797 605 902 553ZM716 -71 786 -100C843 -42 905 33 905 115C905 195 820 251 709 251C618 251 556 236 510 219V329H433V195L414 185L457 127C538 163 612 180 702 180C770 180 820 156 820 114C820 50 777 -17 716 -71ZM255 -63C397 -63 493 -53 605 -21L576 40C476 11 359 3 242 3C204 3 181 16 181 42C181 93 198 149 243 223L170 243C122 166 98 89 98 22C98 -33 150 -63 255 -63Z" transform="translate(0, 880) scale(1,-1)" /></svg>