<svg xmlns="http://www.w3.org/2000/svg" width="1000" height="1000"><path d="M160 33C212 33 261 43 300 54L279 130C247 121 210 114 179 114C152 114 135 128 135 182C135 269 142 369 153 487L73 493C62 375 54 270 54 178C54 77 85 33 160 33ZM283 215C320 215 363 223 394 234L375 312C350 304 319 298 296 298C277 298 270 314 270 355V760H190V340C190 243 226 215 283 215ZM935 -59 970 17C794 72 646 110 513 137C642 185 784 242 872 280L834 362L808 351C676 382 576 401 461 420L423 341C544 324 621 312 707 294C629 256 525 210 422 171C401 164 380 169 345 172L306 96C521 55 729 4 935 -59ZM530 658V578H929V658ZM570 367V825H491V367Z" transform="translate(0, 880) scale(1,-1)" /></svg>