<svg xmlns="http://www.w3.org/2000/svg" width="1000" height="1000"><path d="M312 693 388 721C372 752 341 806 307 841L234 813C265 777 294 731 312 693ZM88 640H919V715H88ZM615 704 683 678C723 723 756 772 781 818L701 844C682 801 653 748 615 704ZM94 392 119 324 147 331H894L895 408H202C212 435 220 466 225 498H863V574H154C152 518 137 446 120 407C116 400 107 395 94 392ZM612 -39H911V32H790V236H713V32H612ZM125 -45 411 24 391 96 104 31ZM199 11H274V158H199ZM461 -88H539V465H461ZM88 194H657V268H88Z" transform="translate(0, 880) scale(1,-1)" /></svg>