<svg xmlns="http://www.w3.org/2000/svg" width="1000" height="1000"><path d="M84 90H161V745H84ZM225 186H302V745H225ZM715 -70C854 -70 926 65 926 252C926 470 815 537 658 537C602 537 559 529 524 518C577 579 638 678 687 804L608 828C568 702 509 601 424 499C411 484 378 470 335 449L373 378C455 422 546 456 652 456C770 456 847 414 847 252C847 118 799 11 709 11C666 11 621 19 579 36V-54C620 -64 666 -70 715 -70ZM310 618H905V698H310ZM419 287H772V362H419ZM642 126V428H566L567 146C567 129 562 119 552 119C529 119 499 125 465 141V60C494 52 527 47 563 47C617 47 642 74 642 126ZM407 164H785V239H407Z" transform="translate(0, 880) scale(1,-1)" /></svg>