<svg xmlns="http://www.w3.org/2000/svg" width="1000" height="1000"><path d="M13 96 85 53C142 141 206 257 254 361L183 394C134 286 64 168 13 96ZM200 557 249 620C207 652 135 692 81 717L35 651C91 626 158 587 200 557ZM254 638H947V718H658L612 830L536 812L573 718H254ZM296 447 347 384C431 456 526 501 670 501C798 501 831 469 831 424C831 337 683 332 457 359V279C709 258 911 262 911 424C911 512 854 581 670 581C501 581 385 528 296 447ZM567 -71C625 -71 656 -39 656 24V421H576V35C576 15 569 7 549 7C511 7 472 15 428 30V-55C473 -66 516 -71 567 -71ZM228 58 296 12C366 66 420 138 449 202L370 229C346 173 297 109 228 58ZM906 5 981 42C955 93 898 171 828 233L759 193C826 132 883 54 906 5Z" transform="translate(0, 880) scale(1,-1)" /></svg>