<svg xmlns="http://www.w3.org/2000/svg" width="1000" height="1000"><path d="M356 533 316 601C162 494 50 330 50 156C50 21 104 -48 191 -48C331 -48 398 118 376 667L298 666C321 231 272 32 191 32C149 32 128 82 128 156C128 310 219 436 356 533ZM277 88 328 155C244 241 178 395 206 761L129 765C98 372 169 189 277 88ZM393 698H923V778H393ZM730 -72C798 -72 833 -31 833 52L835 738H756L755 67C755 27 748 6 723 6C698 6 672 12 646 24V-58C670 -68 697 -72 730 -72ZM946 333 959 415C814 441 615 442 366 414V339C611 364 812 357 946 333ZM564 738H485V-65H564Z" transform="translate(0, 880) scale(1,-1)" /></svg>