<svg xmlns="http://www.w3.org/2000/svg" width="1000" height="1000"><path d="M501 513 571 463C686 545 799 654 860 753L798 798L779 791H163V711H719C680 653 600 580 501 513ZM113 -20 196 -22C180 128 197 286 235 425L155 434C114 291 96 122 113 -20ZM481 -64C540 -64 589 -51 644 -25V67C582 34 531 16 489 16C466 16 448 32 448 81C448 179 468 277 501 433L421 444C384 287 364 188 364 77C364 -15 396 -64 481 -64ZM820 -38 905 -29C902 120 862 303 805 434L727 412C782 281 817 105 820 -38Z" transform="translate(0, 880) scale(1,-1)" /></svg>