<svg xmlns="http://www.w3.org/2000/svg" width="1000" height="1000"><path d="M292 549 251 617C121 509 27 341 27 165C27 28 74 -38 151 -38C273 -38 331 123 313 689L236 688C255 245 214 42 151 42C119 42 105 91 105 165C105 323 177 450 292 549ZM217 100 272 167C201 255 146 412 170 784L94 788C67 389 127 203 217 100ZM620 146C699 146 743 207 743 448C743 653 669 771 549 771C470 771 417 738 388 699L408 636C437 664 485 691 549 691C600 691 664 614 664 448C664 271 642 226 620 226C602 226 593 276 593 338C593 553 651 709 762 709C830 709 850 611 850 449C850 156 825 22 775 22C734 22 692 31 651 51V-39C694 -52 733 -57 779 -57C890 -57 928 66 928 449C928 666 894 789 762 789C636 789 514 642 514 338C514 219 545 146 620 146ZM365 787V-39H444V787ZM317 439V359H960V439Z" transform="translate(0, 880) scale(1,-1)" /></svg>