<svg xmlns="http://www.w3.org/2000/svg" width="1000" height="1000"><path d="M64 124H141V728H64ZM212 213H290V728H212ZM348 -43H917V37H348ZM590 99C660 99 678 135 678 198V583H599V206C599 185 591 177 578 176C558 175 515 185 467 202V113C510 104 548 99 590 99ZM304 268 368 224C429 300 473 421 497 519L419 540C399 447 360 340 304 268ZM892 218 970 247C947 327 892 453 832 546L758 517C817 421 871 297 892 218ZM738 620 794 683C735 727 615 792 538 820L491 756C569 728 677 667 738 620Z" transform="translate(0, 880) scale(1,-1)" /></svg>