<svg xmlns="http://www.w3.org/2000/svg" width="1000" height="1000"><path d="M622 756H64V683H622ZM383 587V841H303V587ZM579 619H107V547H579ZM527 366 605 348C615 385 618 404 618 416C618 478 564 518 384 518C282 518 207 506 144 486V503H66V363H144V418C212 433 289 441 384 441C511 441 540 428 540 409C540 401 537 390 527 366ZM787 456 857 435C892 523 929 638 953 744L889 767L878 757H746V677H858C843 610 819 533 787 456ZM631 -13 681 -83C786 -2 956 179 956 335C956 431 924 477 827 477C755 477 702 462 648 441L667 361C718 387 764 397 827 397C863 397 875 374 875 335C875 208 740 60 631 -13ZM922 -86 983 -25C885 113 816 190 724 257L671 200C762 130 825 56 922 -86ZM632 536 703 502C739 590 773 698 802 808L731 829C704 718 670 617 632 536ZM260 195 333 162C415 194 521 245 587 284L527 353L504 348H106V270H416C374 244 329 222 260 195ZM570 116C570 208 444 217 208 225V147C398 140 482 138 482 116C482 78 336 25 108 -20L165 -93C422 -38 570 29 570 116Z" transform="translate(0, 880) scale(1,-1)" /></svg>