<svg xmlns="http://www.w3.org/2000/svg" width="1000" height="1000"><path d="M512 748H126V470C126 325 118 121 30 -24L106 -60C194 92 205 317 205 470V669H943V748H597L549 849L474 831ZM373 371 448 335C524 439 590 555 634 671L554 698C512 585 451 470 373 371ZM815 369 893 338C914 386 924 418 924 454C924 548 834 589 638 589C483 589 333 552 227 512L254 434C353 472 500 507 638 507C793 507 839 482 839 449C839 426 832 405 815 369ZM325 386V307H729V216H351V253H271V68C271 -40 315 -60 441 -60H766C889 -60 928 -12 948 147L868 160C855 33 836 19 759 19H443C367 19 351 29 351 68V137H809V386Z" transform="translate(0, 880) scale(1,-1)" /></svg>