<svg xmlns="http://www.w3.org/2000/svg" width="1000" height="1000"><path d="M338 549 299 618C146 516 35 360 35 195C35 66 88 0 175 0C314 0 381 158 360 681L282 678C304 266 256 80 175 80C133 80 113 126 113 195C113 339 203 457 338 549ZM260 129 312 196C228 278 163 422 191 768L114 772C82 401 154 225 260 129ZM463 690 501 624C566 680 629 708 710 708C776 708 795 672 795 620C795 562 776 501 736 438L800 400C847 475 874 542 874 620C874 740 819 789 710 789C613 789 538 751 463 690ZM353 -38H967V42H353ZM665 32 736 0C815 88 893 193 893 316C893 432 811 472 657 447V369C771 380 813 373 813 316C813 219 746 123 665 32ZM525 6V782H446V6Z" transform="translate(0, 880) scale(1,-1)" /></svg>