<svg xmlns="http://www.w3.org/2000/svg" width="1000" height="1000"><path d="M94 90H172V745H94ZM243 186H321V745H243ZM347 660V580H917V660ZM593 823V442H672V823ZM670 468C552 468 448 434 361 388L398 315C483 363 564 388 670 388C753 388 795 363 795 315C795 189 566 22 485 22C447 22 420 54 420 109C420 156 451 193 509 193C603 193 710 36 886 -77L947 -7C776 94 642 272 509 272C412 272 340 210 340 109C340 17 400 -56 485 -56C602 -56 879 144 879 315C879 409 807 468 670 468Z" transform="translate(0, 880) scale(1,-1)" /></svg>