<svg xmlns="http://www.w3.org/2000/svg" width="1000" height="1000"><path d="M181 -64C305 -64 363 104 363 251C363 369 308 488 183 542L152 469C249 420 285 335 285 251C285 144 249 17 181 17C153 17 132 37 132 93C132 195 211 286 372 413L324 476C160 355 53 227 53 93C53 -18 105 -64 181 -64ZM181 514 246 481C301 555 360 661 390 737L330 771L314 762H76V683H277C252 624 216 561 181 514ZM486 446 564 418C627 540 680 680 713 816L631 834C600 702 550 563 486 446ZM827 471 905 437C926 483 936 519 936 561C936 657 865 703 712 703C583 703 456 661 373 620L406 541C482 581 601 618 712 618C821 618 852 590 852 556C852 529 845 506 827 471ZM458 460V380H761V258H492V306H413V83C413 -35 450 -60 555 -60H807C908 -60 941 -2 957 171L878 185C868 35 850 20 790 20H560C504 20 492 33 492 83V178H839V460Z" transform="translate(0, 880) scale(1,-1)" /></svg>