<svg xmlns="http://www.w3.org/2000/svg" width="1000" height="1000"><path d="M139 579 71 473C63 459 56 452 43 447L85 370L115 377H505V457H156L229 579H554V659H40V579ZM184 652 265 680C247 717 212 774 175 819L98 789C133 745 169 690 184 652ZM335 679 400 646C445 698 480 746 512 798L422 824C400 773 371 724 335 679ZM393 264V525H313V317ZM42 27 63 -51 567 61 546 139ZM150 28 214 -10C324 54 408 134 408 234C408 300 360 337 286 337C212 337 164 300 164 234C164 166 218 125 298 133C270 97 226 66 150 28ZM286 197C260 197 239 211 239 234C239 257 261 272 286 272C311 272 333 257 333 234C333 211 312 197 286 197ZM841 -72C959 -72 970 109 970 348C970 537 939 597 819 597C725 597 635 579 545 544L566 466C655 501 732 517 817 517C881 517 891 477 891 338C891 166 879 5 829 5C800 5 770 11 736 26V-60C767 -69 800 -72 841 -72ZM501 -24 567 -83C715 94 770 347 802 827L722 833C692 356 639 138 501 -24Z" transform="translate(0, 880) scale(1,-1)" /></svg>