<svg xmlns="http://www.w3.org/2000/svg" width="1000" height="1000"><path d="M84 452 131 387C502 485 554 656 553 837H472C472 671 440 544 84 452ZM866 379 922 440C814 509 687 578 573 632L530 571C643 516 769 445 866 379ZM87 703 100 630C378 636 708 664 933 702L900 767C701 735 368 706 87 703ZM685 -79C864 -79 901 52 901 188C901 302 807 361 630 361C442 361 273 343 94 316L112 239C288 267 457 284 625 284C775 284 816 243 816 181C816 88 790 -7 678 -7C623 -7 565 0 503 14V-66C563 -75 618 -79 685 -79ZM49 -24 107 -86C398 23 508 180 569 478L486 488C432 204 321 76 49 -24Z" transform="translate(0, 880) scale(1,-1)" /></svg>