<svg xmlns="http://www.w3.org/2000/svg" width="1000" height="1000"><path d="M34 46 103 0C162 97 229 224 279 339L211 376C160 256 87 125 34 46ZM223 560 277 621C233 657 159 703 102 732L54 669C111 640 180 595 223 560ZM702 15 736 -67C876 -11 934 45 934 200C934 346 815 427 647 427C424 427 264 288 264 117C264 12 319 -58 421 -58C597 -58 640 134 640 277C640 397 582 510 450 567L414 494C518 445 561 365 561 277C561 147 525 22 421 22C370 22 343 60 343 117C343 231 444 347 647 347C776 347 855 301 855 200C855 94 803 37 702 15ZM442 535 512 493C578 568 651 669 696 746L634 794L621 787H302V707H576C542 650 490 584 442 535ZM901 467 971 514C932 589 877 668 819 740L755 702C817 623 861 548 901 467Z" transform="translate(0, 880) scale(1,-1)" /></svg>