<svg xmlns="http://www.w3.org/2000/svg" width="1000" height="1000"><path d="M680 165 728 234C570 341 391 431 236 496L191 431C350 364 525 268 680 165ZM647 -46C814 -46 917 133 917 377C917 636 786 719 584 719C405 719 276 680 166 609L201 541C293 604 436 639 579 639C735 639 836 576 836 375C836 203 765 32 641 32C583 32 529 45 473 73V-20C527 -38 582 -46 647 -46ZM104 220 164 153C303 264 412 406 464 556L385 579C339 436 240 313 104 220ZM183 17 240 -50C437 64 616 277 664 557L586 571C536 313 371 116 183 17ZM78 480 148 436C233 551 286 671 335 817L257 835C209 689 146 569 78 480Z" transform="translate(0, 880) scale(1,-1)" /></svg>