<svg xmlns="http://www.w3.org/2000/svg" width="1000" height="1000"><path d="M206 28 304 1C374 55 414 164 414 263C414 360 368 419 286 419C216 419 160 370 160 282C160 191 219 146 286 146C297 146 307 147 318 151C302 95 261 46 206 28ZM82 -71 573 64 551 141 60 6ZM286 219C259 219 237 245 237 282C237 321 259 343 286 343C313 343 335 321 335 282C335 245 313 219 286 219ZM73 422 144 390C185 467 212 553 231 638L151 655C138 578 114 498 73 422ZM373 323V755H294V388ZM76 715H556V795H76ZM489 390 566 422C547 501 520 577 476 661L407 632C449 545 473 469 489 390ZM820 -65C926 -65 933 112 933 355C933 515 901 605 804 605C727 605 653 589 579 556L601 478C674 511 733 525 802 525C838 525 855 455 855 345C855 169 845 12 807 12C782 12 758 17 729 32V-54C754 -62 783 -65 820 -65ZM535 -17 603 -76C723 101 768 354 795 835L715 840C691 363 647 145 535 -17Z" transform="translate(0, 880) scale(1,-1)" /></svg>