<svg xmlns="http://www.w3.org/2000/svg" width="1000" height="1000"><path d="M49 521V441H311V521ZM140 767V97H219V767ZM36 79 67 7 328 109 298 181ZM722 -66C895 -66 935 121 935 363C935 605 853 701 701 701C584 701 473 670 405 626L424 552C495 596 601 621 701 621C807 621 855 520 855 363C855 162 821 12 716 12C644 12 587 25 541 49L517 -28C565 -48 622 -66 722 -66ZM270 410 339 363C433 492 495 655 535 817L457 834C418 668 353 513 270 410ZM467 464V384H744V464ZM467 283V203H744V283Z" transform="translate(0, 880) scale(1,-1)" /></svg>