<svg xmlns="http://www.w3.org/2000/svg" width="1000" height="1000"><path d="M78 90H155V745H78ZM226 186H304V745H226ZM478 300V214C538 205 597 202 657 202C769 202 892 254 892 396C892 513 794 570 648 570C504 570 409 533 333 485L372 413C443 457 524 490 648 490C769 490 812 446 812 396C812 308 735 283 652 283C594 283 536 288 478 300ZM286 -2 335 -69C537 3 656 96 656 426H577C577 129 461 52 286 -2ZM888 -75 937 -7C864 46 785 98 704 150L653 90C733 39 811 -16 888 -75ZM438 595 506 639C486 683 441 750 396 798L332 758C375 710 419 642 438 595ZM577 532H656V826H577ZM718 635 783 595C822 638 871 707 908 765L836 803C807 749 757 680 718 635Z" transform="translate(0, 880) scale(1,-1)" /></svg>