<svg xmlns="http://www.w3.org/2000/svg" width="1000" height="1000"><path d="M943 801H131V470C131 325 121 126 33 -18L104 -60C196 92 209 317 209 470V723H943ZM356 666V-61H432V666ZM245 531V162H321V531ZM220 187 246 119 412 201 386 269ZM467 568V488H914V568ZM652 708V375H730V708ZM450 -13 497 -84C660 -15 899 124 899 266C899 354 839 401 730 401C628 401 558 384 484 363L506 285C579 310 639 322 730 322C783 322 815 303 815 266C815 169 613 49 450 -13ZM882 -90 941 -24C794 92 684 159 548 216L503 155C636 94 738 30 882 -90Z" transform="translate(0, 880) scale(1,-1)" /></svg>