<svg xmlns="http://www.w3.org/2000/svg" width="1000" height="1000"><path d="M142 487 218 461C277 529 344 638 379 722L315 762L298 755H60V676H264C238 615 198 551 142 487ZM355 329C355 456 263 493 123 507V429C228 416 275 381 275 329C275 212 193 98 57 6L115 -56C269 55 355 194 355 329ZM673 -65C714 -65 749 -57 793 -37V52C754 29 723 16 697 16C679 16 674 26 674 48V592H595V33C595 -37 622 -65 673 -65ZM362 3 435 -27C477 139 510 349 525 522L448 533C432 370 401 162 362 3ZM880 -20 958 13C918 213 876 391 829 550L753 522C802 354 841 191 880 -20ZM415 760V680H896V760Z" transform="translate(0, 880) scale(1,-1)" /></svg>