<svg xmlns="http://www.w3.org/2000/svg" width="1000" height="1000"><path d="M496 711 572 730C558 766 533 808 508 841L435 822C458 790 484 745 496 711ZM815 573 892 549C913 593 922 622 922 645C922 724 818 761 587 761C419 761 265 734 165 699V745H83V566H165V632C277 662 433 682 587 682C782 682 837 663 837 637C837 622 831 605 815 573ZM912 544H126V303C126 205 115 73 36 -24L106 -67C191 42 204 191 204 303V466H912ZM861 -72 920 -14C833 40 703 104 561 160L514 101C657 43 777 -19 861 -72ZM481 327 532 267C636 301 736 341 821 393L763 447C688 402 590 359 481 327ZM424 19V445H344V28C344 8 326 -1 312 -5L338 -75L570 -20L551 48ZM241 180H909V255H241Z" transform="translate(0, 880) scale(1,-1)" /></svg>