<svg xmlns="http://www.w3.org/2000/svg" width="1000" height="1000"><path d="M152 -55H229V598H152ZM23 429 85 383C184 493 269 648 321 792L243 817C193 669 112 523 23 429ZM260 53 316 -11C527 132 728 337 833 474L758 523L742 503H563C680 589 781 675 881 777L811 828C717 722 591 612 433 499C422 492 408 483 391 479L437 405L470 423H685C621 346 450 175 260 53ZM626 -65C671 -65 710 -56 758 -24V60C710 29 676 13 644 13C626 13 619 17 619 48V259H540V31C540 -37 566 -65 626 -65ZM902 -5 963 54C887 127 809 201 724 271L668 222C751 149 828 73 902 -5ZM503 614 566 667C523 718 463 775 407 820L345 769C405 722 462 668 503 614Z" transform="translate(0, 880) scale(1,-1)" /></svg>