<svg xmlns="http://www.w3.org/2000/svg" width="1000" height="1000"><path d="M249 384 313 338C426 424 532 519 618 634L544 675C466 566 359 466 249 384ZM871 -103 916 -32C854 12 780 54 717 85L674 18C738 -11 811 -58 871 -103ZM71 553 140 512C222 615 270 713 309 826L231 848C195 738 147 649 71 553ZM223 536H881V616H223ZM221 689H896V769H222ZM793 475C651 452 355 325 355 95C355 -5 405 -50 486 -50C612 -50 678 64 659 443L581 436C601 152 557 29 486 29C450 29 433 53 433 95C433 290 677 365 759 392C746 362 738 345 723 319C715 307 704 305 691 302V223C794 241 850 237 850 187C850 135 822 90 759 51L797 -16C872 38 930 92 930 187C930 274 885 320 799 314C834 373 854 414 874 453L799 488ZM564 44 614 113C537 170 478 262 503 503L427 506C398 247 466 113 564 44ZM315 237 283 309C156 232 67 138 67 43C67 -40 114 -85 183 -85C272 -85 345 28 345 192C345 419 279 472 131 432V352C232 384 265 348 265 192C265 85 230 3 183 3C160 3 148 17 148 43C148 107 215 176 315 237Z" transform="translate(0, 880) scale(1,-1)" /></svg>