<svg xmlns="http://www.w3.org/2000/svg" width="1000" height="1000"><path d="M31 535V456H269V535ZM110 760V143H189V760ZM20 130 50 58 285 151 255 223ZM602 -68C830 -68 960 25 960 166C960 295 884 365 691 365C635 365 577 358 534 348C568 397 615 487 643 566L562 583C538 502 485 389 436 324L412 314L446 239C509 267 591 285 691 285C824 285 880 247 880 166C880 54 724 10 602 10C517 10 476 25 476 54C476 81 509 97 553 97C614 97 656 69 669 -18L751 -4C733 100 671 173 553 173C458 173 397 128 397 54C397 -29 463 -68 602 -68ZM271 473 340 429C426 543 495 682 529 827L451 841C416 699 348 563 271 473ZM379 636 419 564C506 626 620 676 721 676C808 676 851 642 851 589C851 513 805 465 548 498V418C869 380 931 473 931 589C931 702 860 756 721 756C581 756 463 691 379 636Z" transform="translate(0, 880) scale(1,-1)" /></svg>