<svg xmlns="http://www.w3.org/2000/svg" width="1000" height="1000"><path d="M27 268 102 223C189 328 268 455 329 585L251 615C192 485 116 364 27 268ZM44 550 112 504C190 585 264 682 321 781L250 815C194 715 124 624 44 550ZM158 432V-71H237V432ZM620 -22 676 -80C828 48 930 287 941 656L876 677L862 663H713V583H858C843 298 778 116 620 -22ZM470 -70C553 -70 645 33 645 192C645 343 552 397 389 366L396 287C541 314 567 271 567 192C567 92 513 9 470 9C447 9 435 24 435 52C435 94 479 170 581 268L524 326C412 219 355 127 355 52C355 -22 395 -70 470 -70ZM289 217 360 176C402 243 453 350 491 450L418 478C383 380 330 279 289 217ZM898 -74 966 -25C910 97 811 262 720 388L661 350C751 220 845 47 898 -74ZM438 481H516V830H438ZM315 615H638V693H315ZM627 456 702 431C733 532 760 654 775 811L695 819C681 664 660 555 627 456ZM613 518H341V440H613Z" transform="translate(0, 880) scale(1,-1)" /></svg>