<svg xmlns="http://www.w3.org/2000/svg" width="1000" height="1000"><path d="M436 474C498 474 543 497 543 563V635C658 667 776 714 858 759L798 825L781 819H129V742H633C586 725 524 708 463 694V580C463 559 448 550 423 548C377 548 322 555 271 572V489C325 478 372 474 436 474ZM54 549 120 504C187 545 247 602 285 654L206 688C173 640 115 585 54 549ZM877 499 953 538C917 579 848 641 774 690L704 649C776 599 844 540 877 499ZM112 458V380H888V458ZM252 65V209H173V55C173 -38 220 -63 360 -63H729C861 -63 900 -13 922 127L843 136C829 33 810 14 725 14H360C271 14 252 23 252 65ZM679 103C788 103 821 151 838 316L777 331L758 320H142V243H747C737 184 708 179 662 179C569 179 503 185 428 191V111C503 106 580 103 679 103Z" transform="translate(0, 880) scale(1,-1)" /></svg>