<svg xmlns="http://www.w3.org/2000/svg" width="1000" height="1000"><path d="M501 78C801 78 914 212 914 319C914 417 855 521 500 521C329 521 201 487 61 410L102 353C211 415 341 451 500 451C773 451 828 376 828 319C828 252 728 148 501 148C325 148 266 171 266 211C266 249 347 288 487 288C587 288 674 261 731 178L791 222C708 311 613 353 487 353C294 353 182 288 182 211C182 130 259 78 501 78ZM455 -79H534V478H455ZM214 549H289V824H214ZM51 645H951V714H51ZM460 564H535V820H460ZM665 552 727 526C760 605 793 723 810 825L728 836C718 738 694 624 665 552Z" transform="translate(0, 880) scale(1,-1)" /></svg>