<svg xmlns="http://www.w3.org/2000/svg" width="1000" height="1000"><path d="M727 529 784 476C843 517 905 571 905 642C905 709 824 748 709 748C618 748 557 738 511 726V839H432V708L414 700L443 628C524 655 612 672 702 672C770 672 820 659 820 632C820 599 788 569 727 529ZM256 489C396 489 493 499 603 518L578 593C479 576 365 565 244 565C204 565 181 573 181 593C181 616 206 666 228 706L162 737C126 682 98 625 98 572C98 514 146 489 256 489ZM79 391 104 321C245 355 431 417 562 477L502 539C393 486 216 422 79 391ZM662 279C791 279 844 256 844 226C844 173 766 139 580 108L607 33C815 68 928 113 928 226C928 305 849 357 662 357C334 357 85 243 85 111C85 29 150 -12 239 -12C356 -12 471 54 471 180C471 294 403 367 269 430L225 363C354 297 389 238 389 180C389 101 318 65 239 65C192 65 165 85 165 113C165 186 368 279 662 279ZM558 -91H636V221H558Z" transform="translate(0, 880) scale(1,-1)" /></svg>