<svg xmlns="http://www.w3.org/2000/svg" width="1000" height="1000"><path d="M153 -69H230V604H153ZM31 432 93 386C187 498 267 655 317 802L240 826C192 676 116 527 31 432ZM742 329 794 394C675 473 539 540 421 589L371 526C492 477 625 406 742 329ZM724 170C880 170 938 307 938 493C938 685 849 757 676 757C539 757 442 728 358 675L385 605C454 652 564 678 672 678C790 678 858 631 858 492C858 364 813 248 719 248C675 248 634 257 591 278V189C633 176 674 170 724 170ZM303 375 367 314C472 397 555 507 595 618L516 641C481 535 406 444 303 375ZM364 226 424 162C573 247 710 414 746 618L669 637C632 448 506 300 364 226ZM282 577 355 531C419 616 459 705 496 813L417 840C382 731 333 642 282 577ZM267 -40 336 -76C383 -26 422 42 440 109L367 138C351 73 309 3 267 -40ZM632 -71C673 -71 708 -53 750 -11L691 38C671 16 660 12 640 12C623 12 611 28 591 131L513 117C545 -39 580 -71 632 -71ZM892 -73 961 -37C935 14 884 90 840 145L777 104C824 47 867 -24 892 -73Z" transform="translate(0, 880) scale(1,-1)" /></svg>