<svg xmlns="http://www.w3.org/2000/svg" width="1000" height="1000"><path d="M341 56 422 21C463 61 506 129 506 184C506 266 456 303 353 303C238 303 186 269 186 198C186 137 225 91 306 91C365 91 393 132 393 169V374H314V202C314 178 309 168 293 168C274 168 265 180 265 198C265 217 281 225 353 225C413 225 427 210 427 184C427 152 401 105 341 56ZM90 -58 581 31 566 108 75 19ZM59 242 133 206C180 298 211 376 254 501L177 521C136 397 102 319 59 242ZM37 566 107 531C161 629 191 722 219 828L140 844C117 740 87 656 37 566ZM173 336H550V414H173ZM230 547 306 570C298 602 282 648 265 684L190 664C206 631 221 589 230 547ZM123 481H583V558H123ZM148 689H591V767H149ZM390 565 463 545C500 631 484 591 514 667L430 688C421 649 407 600 390 565ZM830 -65C937 -65 944 112 944 355C944 550 923 605 814 605C736 605 662 589 588 556L609 478C683 511 742 525 812 525C861 525 865 490 865 345C865 169 856 12 817 12C793 12 768 17 739 32V-54C764 -62 793 -65 830 -65ZM544 -17 611 -76C733 101 778 354 805 835L725 840C700 363 656 145 544 -17Z" transform="translate(0, 880) scale(1,-1)" /></svg>