<svg xmlns="http://www.w3.org/2000/svg" width="1000" height="1000"><path d="M48 0 431 91 412 169 29 77ZM169 99 250 70C305 112 330 198 330 277C330 364 285 404 210 404C150 404 92 364 92 293C92 217 144 179 210 179C226 179 237 181 250 186C241 154 213 122 169 99ZM23 725 63 653C107 685 179 721 270 721C342 721 369 687 369 629C369 529 279 518 122 550V464C297 441 449 454 449 629C449 728 412 801 270 801C148 801 71 757 23 725ZM297 336V640H220V363ZM210 248C184 248 163 268 163 293C163 318 184 337 210 337C238 337 259 318 259 293C259 268 238 248 210 248ZM726 326C878 326 956 379 956 480C956 608 841 645 554 615L561 535C820 558 876 543 876 480C876 427 838 406 726 406C665 406 595 415 509 433V349C595 333 662 326 726 326ZM688 233H768V475H688ZM702 603 764 562C829 623 890 689 945 757L891 819L879 811H478V731H819C787 690 747 648 702 603ZM423 -51H942V29H423ZM631 2 719 -27C777 26 793 82 793 176C793 243 744 281 664 281C585 281 537 243 537 176C537 108 585 70 664 70C680 70 695 71 708 74C695 34 662 14 631 2ZM664 137C632 137 612 151 612 176C612 200 632 214 664 214C697 214 718 200 718 176C718 151 697 137 664 137Z" transform="translate(0, 880) scale(1,-1)" /></svg>