<svg xmlns="http://www.w3.org/2000/svg" width="1000" height="1000"><path d="M346 440 37 313 68 233 376 369ZM193 -69C237 -69 271 -48 271 20V701H193V40C193 16 185 3 172 3C146 3 121 7 86 21V-57C123 -66 157 -69 193 -69ZM67 707 80 627C165 636 287 663 370 702L344 779C270 742 155 718 67 707ZM383 506V426H921V506ZM480 530 553 564C533 624 493 710 455 774L386 744C423 680 462 591 480 530ZM613 470H691V833H613ZM744 559 813 530C846 585 891 675 923 751L846 782C822 710 777 618 744 559ZM689 -1V398H612V-1ZM395 181H906V258H395ZM949 28H353V-47H949Z" transform="translate(0, 880) scale(1,-1)" /></svg>