<svg xmlns="http://www.w3.org/2000/svg" width="1000" height="1000"><path d="M88 -82H168V682C238 701 309 709 402 709H743C804 709 835 685 835 634V23C835 4 823 -4 809 -4C776 -4 727 4 673 20V-62C722 -73 767 -79 806 -79C882 -79 915 -59 915 17V641C915 733 865 788 750 788H400C305 788 239 775 168 749V788H88ZM295 92H367L366 284C407 328 470 351 541 351C597 351 631 328 631 297C631 251 607 221 562 188H438V120H717V188H617C654 204 708 229 708 297C708 369 646 419 541 419C452 419 400 378 366 331V396H295ZM283 521H711V594H283Z" transform="translate(0, 880) scale(1,-1)" /></svg>