<svg xmlns="http://www.w3.org/2000/svg" width="1000" height="1000"><path d="M309 714 385 751C367 776 332 819 295 848L220 811C255 783 289 746 309 714ZM84 662H916V740H84ZM610 737 677 703C723 740 760 779 787 816L701 851C682 815 648 773 610 737ZM101 351 479 402 467 480 85 428ZM231 430 293 388C355 436 429 510 480 573L420 630L400 622H112V544H342C315 510 271 465 231 430ZM670 400H750V625H670ZM910 437H560V359H910ZM446 -84C498 -84 553 -53 553 3V140C661 174 772 222 849 269L804 325L787 321H129V243H654C603 221 545 199 473 180V21C473 2 458 -11 433 -11C380 -10 325 -5 271 13V-69C328 -81 375 -84 446 -84ZM939 63 959 148C738 164 444 165 55 146V67C439 83 734 79 939 63Z" transform="translate(0, 880) scale(1,-1)" /></svg>