<svg xmlns="http://www.w3.org/2000/svg" width="1000" height="1000"><path d="M38 282 111 234C207 341 293 470 361 602L285 635C219 502 136 380 38 282ZM56 567 123 519C207 602 288 702 350 804L280 840C219 738 143 643 56 567ZM182 447V-67H261V447ZM515 17 625 -10C706 47 744 160 744 263C744 360 698 419 614 419C542 419 484 370 484 282C484 191 545 146 614 146C625 146 635 147 648 151C628 89 582 37 515 17ZM357 -51H929V29H357ZM614 219C584 219 559 245 559 282C559 321 584 343 614 343C644 343 669 321 669 282C669 245 644 219 614 219ZM376 422 446 390C494 467 524 553 546 638L465 655C450 578 422 497 376 422ZM701 323V755H622V388ZM377 715H909V795H377ZM841 390 917 424C896 503 863 578 814 662L746 632C794 545 822 469 841 390Z" transform="translate(0, 880) scale(1,-1)" /></svg>