<svg xmlns="http://www.w3.org/2000/svg" width="1000" height="1000"><path d="M308 555 269 623C125 524 21 371 21 208C21 81 71 18 154 18C286 18 350 171 330 686L252 684C273 280 228 98 154 98C116 98 98 141 98 208C98 349 180 464 308 555ZM233 145 285 212C206 292 145 433 171 772L94 776C65 411 132 239 233 145ZM348 634H957V714H710L666 839L588 821L625 714H348ZM667 491C575 491 488 466 405 426L436 347C515 392 591 411 667 411C739 411 757 382 757 334C757 194 582 24 495 24C458 24 435 55 435 115C435 165 457 205 516 205C609 205 735 44 917 -77L971 -15C790 99 653 283 516 283C417 283 354 222 354 115C354 16 403 -56 495 -56C625 -56 837 149 837 334C837 443 792 491 667 491ZM365 385 434 333C516 428 591 546 654 666L578 696C519 576 445 470 365 385ZM911 375 978 422C932 495 882 558 829 613L762 571C817 514 867 449 911 375Z" transform="translate(0, 880) scale(1,-1)" /></svg>