<svg xmlns="http://www.w3.org/2000/svg" width="1000" height="1000"><path d="M662 -74C893 -74 926 133 926 372C926 548 822 653 629 653C426 653 262 503 177 423V342C286 451 443 573 629 573C783 573 842 481 842 372C842 191 825 6 662 6C540 6 376 51 376 217C376 281 410 331 508 331C576 331 605 301 605 265C605 217 529 134 394 65L443 27C584 96 687 184 687 265C687 371 610 408 508 408C384 408 298 335 298 217C298 4 500 -74 662 -74ZM96 -79H177V623H96ZM432 656 485 720C408 765 296 811 202 840L167 784C256 753 360 703 432 656Z" transform="translate(0, 880) scale(1,-1)" /></svg>