<svg xmlns="http://www.w3.org/2000/svg" width="1000" height="1000"><path d="M238 22H315V552H238ZM54 -46H947V22H54ZM540 22H639C721 77 789 139 789 215C789 322 693 347 508 329V254C655 262 708 249 708 215C708 147 636 86 540 22ZM617 308 668 279C728 333 766 375 766 431C766 523 699 562 575 562C473 562 385 539 305 502V434C386 468 475 481 578 481C669 481 686 458 686 432C686 391 667 352 617 308ZM809 534 886 500C910 549 921 592 921 650C921 752 805 791 617 791C426 791 271 737 164 647V774H82V522H164V587C271 672 453 706 617 706C784 706 836 672 836 649C836 610 830 575 809 534Z" transform="translate(0, 880) scale(1,-1)" /></svg>