<svg xmlns="http://www.w3.org/2000/svg" width="1000" height="1000"><path d="M383 562 342 630C174 517 53 343 53 161C53 20 110 -56 203 -56C355 -56 425 123 402 697H324C348 236 295 24 203 24C155 24 131 79 131 161C131 326 234 459 383 562ZM299 87 350 154C258 245 186 410 217 796L139 800C105 386 182 194 299 87ZM398 -56H923V24H398ZM555 20H686C737 64 756 151 756 228C756 320 713 363 643 363C585 363 531 320 531 245C531 166 579 125 643 125C657 125 670 128 682 135C662 79 622 38 555 20ZM399 713 438 644C498 686 588 732 709 732C816 732 850 689 850 624C850 517 720 504 517 538V452C744 427 930 441 930 624C930 730 874 812 709 812C556 812 458 755 399 713ZM723 292V630H646V322ZM643 195C618 195 600 217 600 245C600 273 618 295 643 295C669 295 687 273 687 245C687 217 669 195 643 195Z" transform="translate(0, 880) scale(1,-1)" /></svg>