<svg xmlns="http://www.w3.org/2000/svg" width="1000" height="1000"><path d="M513 743H131V470C131 325 123 122 35 -23L104 -60C197 92 210 317 210 470V664H943V743H598L548 845L473 827ZM245 523V443H904V523ZM426 324 503 346C485 426 448 551 414 638L338 616C371 531 408 406 426 324ZM635 344 708 323C740 400 780 518 809 616L731 638C708 541 668 422 635 344ZM709 227C630 150 466 52 210 -17L259 -88C553 7 745 121 871 265L811 311L791 306H272V227ZM888 -90 945 -26C836 28 724 75 606 118L563 55C674 13 786 -37 888 -90Z" transform="translate(0, 880) scale(1,-1)" /></svg>