<svg xmlns="http://www.w3.org/2000/svg" width="1000" height="1000"><path d="M114 469 186 441C238 507 298 613 329 696L267 735L251 727H46V649H217C195 591 161 529 114 469ZM306 317C306 442 224 475 101 490V412C188 399 227 366 227 317C227 207 159 97 42 8L98 -54C230 52 306 186 306 317ZM826 -75 866 0C653 58 486 249 461 655L382 648C409 218 601 -13 826 -75ZM756 265 810 201C916 284 957 356 957 480C957 565 917 642 784 643C592 644 439 510 309 374L369 315C501 460 641 563 784 563C857 563 878 524 878 480C878 397 848 334 756 265ZM639 354H718V826H639Z" transform="translate(0, 880) scale(1,-1)" /></svg>