<svg xmlns="http://www.w3.org/2000/svg" width="1000" height="1000"><path d="M459 -84C524 -84 553 -55 553 12V332H474V24C474 6 462 -7 442 -7C405 -7 358 2 315 16V-71C358 -79 409 -84 459 -84ZM103 21 160 -42C234 -6 317 50 368 108L298 151C253 101 178 51 103 21ZM109 170H900V249H109ZM843 -44 901 14C857 52 764 111 689 150L634 95C710 54 801 -6 843 -44ZM498 694 574 714C559 757 531 808 503 847L431 827C456 788 485 735 498 694ZM812 532 890 504C913 553 923 585 923 614C923 701 818 742 587 742C417 742 265 711 166 671V725H82V522H166V603C278 638 433 661 587 661C782 661 836 639 836 608C836 588 831 569 812 532ZM161 546V467H839V546ZM342 366 419 387C404 456 372 561 344 637L269 616C296 543 327 436 342 366ZM573 384 646 364C673 430 707 533 731 616L654 637C634 554 600 451 573 384ZM244 400V321H756V400Z" transform="translate(0, 880) scale(1,-1)" /></svg>