<svg xmlns="http://www.w3.org/2000/svg" width="1000" height="1000"><path d="M71 109H148V734H71ZM214 201H291V734H214ZM619 684 694 705C678 751 650 805 621 848L548 827C575 785 606 728 619 684ZM841 511 919 482C942 533 953 566 953 599C953 690 866 731 692 731C557 731 403 704 308 675L330 598C421 626 573 649 692 649C828 649 866 625 866 592C866 571 860 550 841 511ZM412 476H711L614 363L678 318L840 504L785 563L769 556H412ZM452 -21 511 -92C741 -5 857 75 857 217C857 321 785 378 654 378C580 378 494 367 436 349L458 266C510 283 587 298 654 298C736 298 777 268 777 217C777 123 664 49 452 -21Z" transform="translate(0, 880) scale(1,-1)" /></svg>