<svg xmlns="http://www.w3.org/2000/svg" width="1000" height="1000"><path d="M312 523 272 591C132 490 30 335 30 170C30 40 80 -23 161 -23C290 -23 353 131 334 656L256 654C276 243 232 57 161 57C125 57 108 101 108 170C108 313 187 431 312 523ZM237 106 289 173C213 255 153 398 178 744L102 748C73 377 139 202 237 106ZM540 363 604 314C679 354 759 439 759 531C759 599 717 643 622 643C528 643 490 600 490 538C490 469 547 432 656 432C826 432 922 495 922 630C922 727 871 808 684 808C517 808 410 764 323 714L366 644C448 688 561 728 684 728C814 728 843 681 843 630C843 554 777 506 656 506C593 506 570 520 570 538C570 556 588 571 622 571C657 571 679 558 679 531C679 468 621 406 540 363ZM788 129 815 47C900 77 955 140 956 234C956 327 887 389 699 389C559 389 414 360 308 324L327 247C430 282 576 309 699 309C832 309 874 275 874 232C874 175 841 146 788 129ZM473 213V134H743V213ZM337 26V-54H899V26Z" transform="translate(0, 880) scale(1,-1)" /></svg>