<svg xmlns="http://www.w3.org/2000/svg" width="1000" height="1000"><path d="M76 729H647V807H76ZM429 279C498 279 540 317 540 396V770H460V409C460 371 449 352 419 352C399 352 362 358 330 369V292C357 283 390 279 429 279ZM623 380 664 303C835 339 916 380 916 482C916 579 828 625 620 625C399 625 196 599 40 564L69 487C212 521 440 547 620 547C772 547 834 522 834 482C834 429 767 398 623 380ZM901 578 966 632C915 686 842 744 766 796L709 744C791 688 849 635 901 578ZM248 770H168V280H248ZM540 -10V316H460V-10ZM132 131H868V209H132ZM930 22H70V-56H930Z" transform="translate(0, 880) scale(1,-1)" /></svg>