<svg xmlns="http://www.w3.org/2000/svg" width="1000" height="1000"><path d="M293 539 253 607C116 509 17 358 17 198C17 72 65 11 146 11C272 11 334 160 316 670L238 667C258 270 214 91 146 91C110 91 94 133 94 198C94 336 171 449 293 539ZM219 136 272 204C197 282 138 420 163 755L87 758C59 399 123 229 219 136ZM323 652H973V730H704L664 829L584 811L618 730H323ZM702 110C858 110 963 145 963 260C963 389 831 414 470 389L476 310C791 330 883 310 883 260C883 210 811 189 702 189C618 189 525 197 408 212V131C524 117 614 110 702 110ZM603 -75C655 -75 689 -56 689 14V264H612V31C612 11 603 -1 581 -1C550 -1 507 6 463 22V-60C504 -67 552 -75 603 -75ZM612 373 675 329C763 382 846 438 921 496L863 570L847 563H364V484H772C727 448 673 413 612 373Z" transform="translate(0, 880) scale(1,-1)" /></svg>