<svg xmlns="http://www.w3.org/2000/svg" width="1000" height="1000"><path d="M35 -21 97 -57C185 104 198 338 198 501V721H933V792H126V501C126 347 118 132 35 -21ZM669 -21 693 -76C849 -67 919 -4 919 93C919 174 825 232 583 232C339 232 214 164 214 81C214 -25 345 -63 462 -63C543 -63 615 -20 616 67L619 443H547V78C547 30 512 10 462 10C386 10 292 25 292 81C292 117 387 163 583 163C765 163 842 136 842 93C842 38 810 -13 669 -21ZM283 350 317 292 339 301H843V368H369C398 409 421 450 446 498H370C355 457 332 408 312 376C304 363 294 354 283 350ZM415 548 478 577C464 612 432 666 403 705L343 680C370 642 398 590 415 548ZM239 498H929V563H239ZM665 554 716 527C748 575 781 636 804 686L734 707C719 663 690 598 665 554Z" transform="translate(0, 880) scale(1,-1)" /></svg>