<svg xmlns="http://www.w3.org/2000/svg" width="1000" height="1000"><path d="M460 354H540V834H460ZM157 -12 188 -86 528 3 507 81 277 20V354H197V41C197 7 175 -6 157 -12ZM251 404 327 431C311 486 280 558 238 622L159 599C203 533 237 459 251 404ZM860 -80 932 -26C838 69 681 184 512 271L462 215C631 125 769 16 860 -80ZM90 714 95 635C449 645 663 664 917 711L892 791C638 744 444 724 90 714ZM667 428 735 402C774 460 824 554 863 631L774 660C749 589 705 489 667 428ZM941 387H59V307H941Z" transform="translate(0, 880) scale(1,-1)" /></svg>