<svg xmlns="http://www.w3.org/2000/svg" width="1000" height="1000"><path d="M143 420H223V784H143ZM381 271 455 241C565 304 641 394 641 490C641 560 605 623 494 623C394 623 348 565 348 503C348 427 398 377 531 377C743 377 877 468 877 614C877 737 794 823 559 823C355 823 236 761 145 695L197 630C280 686 403 742 559 742C725 742 796 695 796 614C796 512 697 456 531 456C460 456 428 475 428 503C428 528 453 543 494 543C536 543 561 525 561 490C561 408 492 332 381 271ZM133 209H867V289H133ZM77 43V-37H923V43ZM460 244V19H540V244Z" transform="translate(0, 880) scale(1,-1)" /></svg>