<svg xmlns="http://www.w3.org/2000/svg" width="1000" height="1000"><path d="M454 24 524 -13C620 53 719 146 719 275C719 354 668 404 596 404C527 404 481 361 481 290C481 220 532 173 613 173C758 173 901 249 901 403C901 522 824 595 664 595C645 595 628 593 613 589C670 627 725 665 787 714H899V794H379V714H666C607 660 548 609 485 564C457 544 427 530 357 488L406 414C482 476 567 516 661 516C783 516 821 460 821 403C821 284 692 250 613 250C579 250 558 266 558 290C558 312 571 328 596 328C628 328 639 304 639 275C639 174 541 74 454 24ZM330 -53 866 -7 846 68 320 28ZM882 -85 956 -48C934 12 880 103 826 171L756 137C806 72 862 -23 882 -85ZM128 490 203 466C257 534 320 645 351 731L286 768L270 761H55V683H238C215 621 179 555 128 490ZM326 331C326 459 242 495 113 510V433C203 420 247 383 247 331C247 212 174 95 52 1L109 -58C247 55 326 195 326 331Z" transform="translate(0, 880) scale(1,-1)" /></svg>