<svg xmlns="http://www.w3.org/2000/svg" width="1000" height="1000"><path d="M498 691 574 711C559 754 531 805 503 844L431 824C456 785 485 732 498 691ZM812 529 890 501C913 550 923 582 923 611C923 698 818 739 587 739C417 739 265 708 166 668V722H82V519H166V600C278 635 433 658 587 658C782 658 836 636 836 605C836 585 831 566 812 529ZM239 565V-75H316V565ZM97 446V122H174V446ZM73 148 96 78 293 150 270 221ZM506 368 563 316C664 373 755 444 826 512L775 566L758 560H361V480H663C619 439 567 403 506 368ZM715 -79C851 -79 906 12 906 184C906 345 819 394 666 394C537 394 400 363 321 334L348 261C431 290 555 315 666 315C776 315 826 272 826 184C826 61 789 -4 712 -4C660 -4 619 1 585 13V-69C618 -76 654 -79 715 -79ZM406 83 460 26C570 93 692 193 734 242L674 294C633 244 516 145 406 83ZM661 43 714 106C651 155 555 219 489 254L439 197C509 159 604 94 661 43Z" transform="translate(0, 880) scale(1,-1)" /></svg>