<svg xmlns="http://www.w3.org/2000/svg" width="1000" height="1000"><path d="M45 -50 112 -87C200 42 217 222 217 390V622H918V687H144V392C144 234 125 69 45 -50ZM38 665 102 634C189 699 244 767 279 844L207 860C172 783 122 725 38 665ZM190 743H902V802H190ZM570 332H669C733 356 781 381 781 419C781 464 700 496 568 496C416 496 332 473 332 429C332 391 389 360 496 360C567 360 607 387 607 413V534H528V426C528 408 507 400 479 400C455 400 412 413 412 429C412 445 449 455 568 455C653 455 699 436 699 417C699 395 679 370 570 332ZM238 275H900V332H238ZM263 534H877V589H263ZM460 -10V-76C506 -83 570 -86 638 -86C812 -86 898 12 898 101C898 187 780 239 589 239C459 239 337 221 245 199L288 144C360 164 466 178 589 178C724 178 817 154 817 101C817 33 737 -27 634 -27C562 -27 508 -20 460 -10ZM350 -27C433 -27 618 72 696 128L638 173C567 118 414 33 359 33C343 33 328 49 323 71L263 39C278 -4 304 -27 350 -27ZM599 0 649 45C603 78 516 124 452 152L406 107C468 82 556 31 599 0Z" transform="translate(0, 880) scale(1,-1)" /></svg>