<svg xmlns="http://www.w3.org/2000/svg" width="1000" height="1000"><path d="M96 19V-59H904V19ZM539 595V844H461V595ZM72 676H928V754H72ZM870 626H130V548H870ZM789 330 863 306C884 351 892 376 892 399C892 474 795 517 581 517C423 517 278 491 184 457V501H104V323H184V389C289 418 436 438 581 438C759 438 812 420 812 393C812 379 806 363 789 330ZM559 70 609 -12C776 8 896 75 896 176C896 290 746 342 529 342C270 342 106 286 106 187C106 108 195 55 313 55C556 55 676 228 699 399L617 404C598 240 493 134 316 134C237 134 189 150 189 187C189 222 325 262 529 262C689 262 814 229 814 176C814 126 719 84 559 70ZM479 111 535 170C422 218 398 272 412 399L330 405C313 271 350 157 479 111Z" transform="translate(0, 880) scale(1,-1)" /></svg>