<svg xmlns="http://www.w3.org/2000/svg" width="1000" height="1000"><path d="M731 651V275H811V721L747 741L731 730C484 730 273 590 273 463C273 383 330 333 410 333C510 333 571 393 571 474C571 582 500 634 372 634C290 634 202 616 144 593L168 522C228 544 302 560 372 560C443 560 492 529 492 474C492 431 451 410 410 410C370 410 352 432 352 463C352 561 518 651 731 651ZM28 222 98 180C160 270 178 382 178 507V714H521V793H98V512C98 403 84 305 28 222ZM563 317V238H956V317ZM100 -22 161 -75C256 -3 356 88 418 177L338 214C291 134 195 40 100 -22ZM823 -77 894 -31C834 48 733 145 648 218L584 171C668 98 766 3 823 -77Z" transform="translate(0, 880) scale(1,-1)" /></svg>