<svg xmlns="http://www.w3.org/2000/svg" width="1000" height="1000"><path d="M119 462 192 435C247 499 310 604 343 685L281 726L265 718H46V640H229C205 583 169 523 119 462ZM320 313C320 436 235 470 104 484V406C199 393 241 361 241 313C241 204 167 95 42 8L98 -55C239 51 320 182 320 313ZM754 295 809 232C904 308 950 399 950 512C950 601 905 672 779 673C594 674 457 540 333 403L395 346C520 491 643 593 779 593C845 593 870 557 870 512C870 435 836 358 754 295ZM586 -60H813C909 -60 928 -6 938 163L861 168C855 38 848 16 801 16H601C551 16 541 29 541 79V816H462V80C462 -31 486 -60 586 -60Z" transform="translate(0, 880) scale(1,-1)" /></svg>