<svg xmlns="http://www.w3.org/2000/svg" width="1000" height="1000"><path d="M405 427C507 427 526 520 526 606C526 696 482 742 382 742C293 742 213 731 133 714L136 631C215 648 302 662 381 662C430 662 447 642 447 606C447 551 434 505 398 505C374 505 347 509 320 518V435C349 429 374 427 405 427ZM71 412 130 356C267 466 358 615 387 833L308 843C281 624 198 516 71 412ZM402 28V-59C429 -66 456 -69 490 -69C577 -69 604 20 604 143C604 271 540 337 404 337C181 337 33 198 33 59C33 -17 74 -63 146 -63C256 -63 302 43 302 205C302 324 261 420 193 478L134 427C189 377 223 291 223 205C223 88 193 17 146 17C123 17 112 33 112 59C112 143 208 257 404 257C479 257 526 227 526 143C526 85 512 9 478 9C451 9 427 16 402 28ZM270 -1 336 -54C422 60 502 204 529 422L452 433C424 226 353 100 270 -1ZM527 704 573 644C616 681 668 716 767 716C863 716 877 619 877 504C877 351 852 275 785 275C733 275 689 279 638 291L628 213C679 200 733 199 785 199C928 199 955 322 955 504C955 656 938 796 767 796C652 796 571 744 527 704ZM546 -28H949V48H546ZM693 9H771V654H693ZM629 439H835V519H629Z" transform="translate(0, 880) scale(1,-1)" /></svg>