<svg xmlns="http://www.w3.org/2000/svg" width="1000" height="1000"><path d="M152 -41H230V597H152ZM18 431 79 385C182 493 272 646 326 788L248 814C195 669 111 524 18 431ZM739 -54C887 -54 946 115 946 266C946 424 857 557 662 557C447 557 293 296 293 133C293 7 347 -28 415 -28C590 -28 680 343 819 772L748 807L736 795H395V715H715C617 393 511 52 415 52C389 52 372 78 372 133C372 259 493 477 662 477C803 477 867 380 867 266C867 159 851 26 739 26C705 26 687 43 687 84C687 116 700 141 726 141C754 141 781 98 805 32L867 65C836 141 799 217 726 217C652 217 610 156 610 84C610 4 652 -54 739 -54Z" transform="translate(0, 880) scale(1,-1)" /></svg>