<svg xmlns="http://www.w3.org/2000/svg" width="1000" height="1000"><path d="M33 537V457H257V537ZM106 759V147H185V759ZM22 135 54 63 274 155 242 227ZM688 -54C810 -54 893 12 893 149C893 294 786 337 642 337C613 337 590 336 565 332C629 375 690 414 744 459H957V539H296V459H626C584 417 529 374 454 324C438 314 424 306 389 293L418 213C498 242 556 257 632 257C743 257 812 227 812 149C812 58 752 24 680 24C642 24 594 29 536 41V-41C585 -51 634 -54 688 -54ZM352 688H900V768H352Z" transform="translate(0, 880) scale(1,-1)" /></svg>