<svg xmlns="http://www.w3.org/2000/svg" width="1000" height="1000"><path d="M334 540 294 608C143 506 33 349 33 183C33 53 86 -13 172 -13C310 -13 376 146 355 672L277 670C299 255 251 67 172 67C131 67 111 113 111 183C111 328 199 447 334 540ZM256 117 307 185C224 267 160 412 188 760L111 764C80 390 150 214 256 117ZM362 -56H944V24H362ZM543 20H677C730 64 751 151 751 228C751 320 708 363 636 363C577 363 521 320 521 245C521 166 571 125 636 125C651 125 665 128 677 136C656 80 613 38 543 20ZM364 708 403 638C470 682 573 732 709 732C831 732 870 689 870 624C870 515 721 504 496 538V452C748 427 950 439 950 624C950 730 892 812 709 812C539 812 431 753 364 708ZM718 292V630H641V322ZM636 195C610 195 591 217 591 245C591 273 610 295 636 295C662 295 681 273 681 245C681 217 662 195 636 195Z" transform="translate(0, 880) scale(1,-1)" /></svg>