<svg xmlns="http://www.w3.org/2000/svg" width="1000" height="1000"><path d="M45 133 64 57 565 157 546 233ZM318 -70C374 -70 397 -43 397 20V554H317V32C317 12 309 5 288 5C259 5 222 12 183 26V-57C230 -67 274 -70 318 -70ZM61 269H531V347H61ZM71 608H551V686H71ZM220 684 296 715C279 748 243 799 205 838L134 806C170 768 206 719 220 684ZM341 683 423 658C461 706 502 761 536 813L450 843C426 793 382 731 341 683ZM675 137 714 72C874 178 928 221 928 312C928 389 872 450 727 490C821 556 893 629 964 750L891 793L882 778H608V700H835C772 611 712 552 618 498L624 433C806 390 848 344 848 312C848 271 812 227 675 137ZM903 -91 956 -28C884 29 731 123 615 180L574 114C686 58 833 -32 903 -91ZM304 625 217 649C187 582 156 535 119 492C110 482 100 479 89 477L125 399L147 405H518V483H209C245 531 274 571 304 625Z" transform="translate(0, 880) scale(1,-1)" /></svg>