<svg xmlns="http://www.w3.org/2000/svg" width="1000" height="1000"><path d="M210 634V838H130V626L117 617L129 541C169 548 206 555 254 555C320 555 370 530 370 459C370 368 277 326 228 326C184 326 162 337 162 363C162 464 548 644 742 644C800 644 823 627 823 581C823 486 682 391 449 307L489 234C744 329 904 438 904 581C904 675 856 723 742 723C509 723 81 523 81 364C81 278 143 247 228 247C344 247 450 329 450 459C450 584 389 648 210 634ZM170 788V709H551V788ZM893 229 943 297C840 383 707 469 570 545L526 487C666 405 796 313 893 229ZM540 -14V284H460V-14ZM132 111H868V189H132ZM930 19H70V-59H930Z" transform="translate(0, 880) scale(1,-1)" /></svg>