<svg xmlns="http://www.w3.org/2000/svg" width="1000" height="1000"><path d="M312 543 272 611C132 510 31 355 31 190C31 61 81 -2 162 -2C291 -2 353 151 334 676L257 674C277 263 233 77 162 77C125 77 109 122 109 190C109 333 188 451 312 543ZM237 126 290 194C213 275 153 418 179 763L103 767C74 397 139 222 237 126ZM861 291C930 291 963 323 972 462L904 476C899 385 891 372 861 371C720 367 602 593 588 827H508C525 538 677 291 861 291ZM333 -46H968V34H333ZM414 129H896V209H414ZM365 379 400 301C556 339 784 407 907 572L840 618C724 466 511 406 365 379ZM359 586 938 663 929 742 350 668Z" transform="translate(0, 880) scale(1,-1)" /></svg>