<svg xmlns="http://www.w3.org/2000/svg" width="1000" height="1000"><path d="M399 140 446 203C326 324 270 505 338 827L266 837C183 472 264 256 399 140ZM623 566C737 566 861 537 861 443C861 260 703 128 507 -3L556 -70C750 73 940 224 940 443C940 570 827 639 623 639C370 639 58 527 58 220C58 73 165 -20 247 -20C495 -20 581 343 596 801L520 815C507 412 440 59 251 59C195 59 134 134 134 220C134 487 466 566 623 566ZM905 -66 965 -4C876 116 744 251 606 362L558 307C695 191 818 59 905 -66Z" transform="translate(0, 880) scale(1,-1)" /></svg>