<svg xmlns="http://www.w3.org/2000/svg" width="1000" height="1000"><path d="M60 125H136V723H60ZM189 213H265V723H189ZM831 407 899 351C932 389 961 438 961 511C961 609 891 680 681 680C522 680 380 633 280 565L320 496C419 562 539 601 681 601C840 601 881 550 881 511C881 473 865 439 831 407ZM578 469H657V776H578ZM685 496H461V418H621C530 323 398 225 266 145L325 75C487 188 642 315 769 453L706 508ZM868 816H360V737H868ZM353 35V-44H897V35ZM478 66 553 100C532 171 487 275 448 352L376 323C415 247 458 139 478 66ZM673 92 745 66C781 133 827 241 860 332L782 359C756 273 710 163 673 92Z" transform="translate(0, 880) scale(1,-1)" /></svg>