<svg xmlns="http://www.w3.org/2000/svg" width="1000" height="1000"><path d="M424 61 453 -4C733 0 919 34 919 190C919 294 839 353 706 332L890 498L837 567L487 473C606 523 756 606 892 786L801 822C695 647 490 511 289 437C217 410 158 397 79 377L99 305L762 465C716 412 656 361 604 324L657 248C773 274 829 246 829 187C829 110 677 61 424 61ZM426 -82 504 -57C488 17 456 119 417 198L346 166C383 92 412 -9 426 -82ZM250 567 322 600C297 658 249 731 189 794L121 768C179 705 226 627 250 567ZM438 558H520V840H438Z" transform="translate(0, 880) scale(1,-1)" /></svg>