<svg xmlns="http://www.w3.org/2000/svg" width="1000" height="1000"><path d="M220 31 319 3C392 57 432 165 432 263C432 360 385 419 300 419C228 419 169 370 169 282C169 191 231 146 300 146C312 146 323 147 335 152C319 96 277 49 220 31ZM79 -71 609 65 587 142 58 6ZM300 219C272 219 247 245 247 282C247 321 272 343 300 343C329 343 352 321 352 282C352 245 329 219 300 219ZM73 423 144 389C189 467 219 552 239 637L160 656C145 579 119 499 73 423ZM391 323V755H312V388ZM74 715H592V795H74ZM523 389 600 424C580 503 549 578 501 663L433 631C480 544 506 468 523 389ZM828 -61C880 -60 914 -28 914 41V813H834V53C834 29 826 17 808 17C779 17 741 24 697 40V-48C739 -58 778 -62 828 -61ZM655 661V172H735V661Z" transform="translate(0, 880) scale(1,-1)" /></svg>