<svg xmlns="http://www.w3.org/2000/svg" width="1000" height="1000"><path d="M55 507V428H308V507ZM142 746V130H221V746ZM44 117 73 44 325 138 295 211ZM275 53 328 -15C487 127 686 313 777 417L731 474L710 464H513C554 523 621 652 679 806L603 830C545 669 464 522 392 430L448 372L466 386H639C554 299 423 173 275 53ZM627 -65C669 -65 705 -55 750 -24V67C703 31 670 15 637 15C620 15 612 20 612 53V257H533V44C533 -33 570 -65 627 -65ZM903 -18 959 46C884 118 790 200 709 258L658 202C739 141 830 59 903 -18ZM305 586H913V666H305Z" transform="translate(0, 880) scale(1,-1)" /></svg>