<svg xmlns="http://www.w3.org/2000/svg" width="1000" height="1000"><path d="M74 135H151V715H74ZM214 220H290V715H214ZM567 538 626 486C722 560 828 667 891 755L830 805L815 799H366V719H756C714 668 649 602 567 538ZM431 229C462 291 490 360 515 430L443 456C389 307 331 190 245 127L301 75C327 92 361 124 390 153C415 157 438 135 455 74L586 144L558 212L487 182C480 204 462 219 431 229ZM580 318 541 258C696 183 830 96 926 10L981 89C879 160 745 240 580 318ZM647 355 681 287C770 324 836 355 913 410L861 478C792 425 735 392 647 355ZM585 603 514 561C600 437 652 319 652 191C652 112 638 11 577 11C542 11 509 17 476 34V-52C507 -62 544 -67 585 -67C707 -67 731 65 731 191C731 325 673 471 585 603Z" transform="translate(0, 880) scale(1,-1)" /></svg>