<svg xmlns="http://www.w3.org/2000/svg" width="1000" height="1000"><path d="M0.0 0.0Q0 0 0.0 0.0Q0 0 0.0 0.0ZM724 397C695 366 662 338 630 313V20C630 5 622 -9 606 -10C575 -11 534 -6 492 13V-64C531 -75 572 -81 610 -80C657 -79 700 -56 700 10V284C758 330 805 375 845 425L804 475L787 469C320 489 62 306 62 77C62 6 101 -64 162 -64C258 -64 316 9 730 768L670 832L647 819H204V745H627C270 79 211 19 170 19C153 19 139 44 139 78C139 261 413 417 724 397ZM938 160 951 233C806 262 611 263 354 232V165C608 193 802 187 938 160ZM73 555H933V628H73Z" transform="translate(0, 880) scale(1,-1)" /></svg>