<svg xmlns="http://www.w3.org/2000/svg" width="1000" height="1000"><path d="M334 548 294 616C143 516 33 363 33 199C33 71 86 6 172 6C310 6 376 162 355 679L277 676C299 270 251 86 172 86C131 86 111 131 111 199C111 341 199 457 334 548ZM256 134 307 201C225 282 160 423 188 765L111 769C80 402 151 229 256 134ZM781 108C901 108 940 198 940 491C940 710 887 809 711 809C591 809 480 782 388 748L404 668C495 702 598 729 711 729C834 729 861 639 861 491C861 286 842 186 781 186C738 186 685 199 644 215V127C686 115 739 108 781 108ZM388 -34H920V46H388ZM356 163 424 110C561 229 657 414 670 642L590 646C578 431 493 274 356 163ZM712 342 750 417C677 456 548 507 443 538L404 469C511 435 640 382 712 342Z" transform="translate(0, 880) scale(1,-1)" /></svg>