<svg xmlns="http://www.w3.org/2000/svg" width="1000" height="1000"><path d="M284 540 243 608C119 503 29 342 29 171C29 37 74 -25 149 -25C266 -25 323 129 306 678L229 677C247 249 208 55 149 55C119 55 106 101 106 171C106 322 173 445 284 540ZM211 108 266 176C198 260 146 411 168 770L93 773C67 388 125 208 211 108ZM634 737H344V470C344 325 338 122 272 -23L345 -60C414 92 423 317 423 470V657H964V737H716L677 846L601 828ZM440 571V491H947V571ZM544 631V260H623V631ZM440 417V337H947V417ZM753 631V260H832V631ZM477 9 539 -40C659 30 793 135 876 221L806 268C728 185 595 76 477 9ZM466 -55 881 -32 874 44 460 25ZM879 -72 950 -33C925 15 871 77 820 124L754 86C797 45 855 -24 879 -72ZM612 189C643 215 676 247 712 286L636 324C587 267 529 206 462 158L526 102L538 111L747 118V196Z" transform="translate(0, 880) scale(1,-1)" /></svg>