<svg xmlns="http://www.w3.org/2000/svg" width="1000" height="1000"><path d="M383 554 342 622C174 512 53 342 53 164C53 27 110 -47 203 -47C355 -47 425 128 402 687H324C348 238 295 32 203 32C155 32 131 86 131 164C131 324 233 453 383 554ZM300 92 350 159C258 248 186 408 217 784L139 788C105 384 182 196 300 92ZM398 -56H923V24H398ZM555 20H686C737 64 756 151 756 228C756 320 713 363 643 363C585 363 531 320 531 245C531 166 579 125 643 125C657 125 670 128 682 135C662 79 622 38 555 20ZM399 713 438 644C498 686 588 732 709 732C816 732 850 689 850 624C850 517 720 504 517 538V452C744 427 930 441 930 624C930 730 874 812 709 812C556 812 458 755 399 713ZM723 292V630H646V322ZM643 195C618 195 600 217 600 245C600 273 618 295 643 295C669 295 687 273 687 245C687 217 669 195 643 195Z" transform="translate(0, 880) scale(1,-1)" /></svg>