<svg xmlns="http://www.w3.org/2000/svg" width="1000" height="1000"><path d="M87 659H913V738H561L507 835L429 818L473 738H87ZM113 341 495 391 482 469 100 419ZM234 414 306 377C370 427 433 494 484 559L419 612L397 601H116V522H346C316 485 281 451 234 414ZM674 407H754V618H674ZM894 441H534V361H894ZM562 -9 609 -84C803 -65 936 7 936 110C936 228 766 285 532 285C252 285 62 202 62 84C62 -6 161 -64 288 -64C557 -64 690 134 716 341L632 347C611 157 500 15 292 15C203 15 146 39 146 84C146 144 307 207 532 207C687 207 853 169 853 110C853 53 751 5 562 -9ZM478 10 532 70C400 127 366 194 397 345L314 352C280 193 328 65 478 10Z" transform="translate(0, 880) scale(1,-1)" /></svg>