<svg xmlns="http://www.w3.org/2000/svg" width="1000" height="1000"><path d="M42 -46 116 -87C204 31 221 196 221 325V522H918V600H141V327C141 211 122 63 42 -46ZM29 602 99 556C186 643 241 734 276 831L198 854C163 757 113 681 29 602ZM173 675H902V753H173ZM562 219 611 155C792 202 860 236 860 296C860 387 709 405 311 417L300 337C672 328 759 312 759 294C759 271 710 255 562 219ZM302 -12 356 -83C576 -25 800 65 902 126L856 204L841 196C677 218 501 234 293 242L279 163C482 154 618 145 729 130C652 94 494 33 302 -12ZM381 403 421 348C557 395 666 451 757 505L675 558C599 503 498 451 381 403Z" transform="translate(0, 880) scale(1,-1)" /></svg>