<svg xmlns="http://www.w3.org/2000/svg" width="1000" height="1000"><path d="M336 262 402 206C485 251 565 311 623 364L563 429L550 418H136V339H467C434 313 387 286 336 262ZM274 429 353 445C345 523 329 607 306 683L228 668C251 592 266 507 274 429ZM43 523H785V602H43ZM482 393 559 381C598 474 631 603 650 709L566 717C552 614 520 490 482 393ZM92 775 106 698C320 704 553 728 735 759L703 835C542 805 311 783 92 775ZM622 -12 667 -92C838 -61 917 -12 917 84C917 184 772 238 550 238C255 238 55 156 55 48C55 -29 127 -80 242 -80C474 -80 527 37 527 117C527 201 474 265 320 297L290 224C413 197 446 156 446 117C446 45 380 -1 242 -1C169 -1 136 20 136 48C136 97 282 159 550 159C720 159 836 125 836 84C836 44 766 0 622 -12ZM902 235 961 297C901 356 821 416 740 468L688 415C776 357 841 299 902 235Z" transform="translate(0, 880) scale(1,-1)" /></svg>