<svg xmlns="http://www.w3.org/2000/svg" width="1000" height="1000"><path d="M376 561 337 629C160 524 32 363 32 193C32 61 92 -12 188 -12C347 -12 421 159 396 690L317 689C343 262 287 68 188 68C138 68 111 118 111 193C111 343 219 466 376 561ZM293 121 341 188C244 273 169 423 201 782L123 785C87 401 169 221 293 121ZM537 28 609 -15C692 65 772 192 772 342C772 430 737 505 644 505C550 505 520 437 520 364C520 273 567 216 674 216C835 216 927 333 927 538C927 698 856 809 678 809C512 809 401 691 345 620L408 564C463 633 563 728 678 728C790 728 847 655 847 538C847 393 779 296 674 296C620 296 599 318 599 364C599 400 614 425 644 425C672 425 692 397 692 342C692 217 611 99 537 28ZM347 -41H962V39H347Z" transform="translate(0, 880) scale(1,-1)" /></svg>