<svg xmlns="http://www.w3.org/2000/svg" width="1000" height="1000"><path d="M155 10C209 10 260 21 301 35L278 110C245 100 207 92 175 92C147 92 130 107 130 161C130 251 137 355 149 477L69 483C57 362 49 253 49 157C49 57 80 10 155 10ZM282 198C321 198 364 206 397 217L377 296C352 288 319 281 296 281C276 281 269 297 269 338V760H189V323C189 226 225 198 282 198ZM495 85V448H416V85C416 -32 456 -57 577 -57H812C911 -57 941 1 957 173L875 184C866 47 852 23 792 23H588C510 23 495 34 495 85ZM776 358C857 358 896 432 908 770L848 793L830 781H409V701H826C817 493 795 438 764 438C705 438 657 446 605 460V375C655 364 710 358 776 358Z" transform="translate(0, 880) scale(1,-1)" /></svg>