<svg xmlns="http://www.w3.org/2000/svg" width="1000" height="1000"><path d="M287 531 248 599C115 502 19 352 19 193C19 67 66 8 145 8C268 8 328 154 310 663L233 660C252 265 210 87 145 87C111 87 96 129 96 193C96 329 169 442 287 531ZM215 132 268 200C195 278 139 414 163 747L87 750C60 394 122 224 215 132ZM953 673 879 709C828 619 771 539 709 461L759 396L777 403H829L639 282L709 228L986 416L931 490L913 481H820C861 532 909 601 953 673ZM658 -72C895 -72 970 19 970 124C970 237 895 294 737 294C636 294 559 282 480 266L496 188C573 202 646 214 737 214C845 214 890 184 890 124C890 59 838 6 658 6C517 6 465 31 465 51C465 66 486 81 562 81C626 81 640 72 640 59C640 41 608 18 533 -2L578 -61C660 -34 728 -1 728 59C728 119 675 155 562 155C447 155 386 108 386 51C386 -14 449 -72 658 -72ZM319 722 350 649C491 681 634 726 771 780L717 845C607 801 451 750 319 722ZM890 618 882 698C601 642 325 558 325 423C325 358 368 312 454 312C583 312 667 383 667 505C667 589 633 668 546 749L476 706C555 626 587 560 587 505C587 426 524 389 453 391C420 392 405 402 405 423C405 505 625 565 890 618Z" transform="translate(0, 880) scale(1,-1)" /></svg>