<svg xmlns="http://www.w3.org/2000/svg" width="1000" height="1000"><path d="M68 514V434H345V514ZM167 770V76H246V770ZM55 56 85 -17 362 90 332 162ZM572 388H654V835H572ZM342 608 385 539C480 599 600 640 715 640C810 640 845 609 845 585C845 556 837 533 819 508L897 477C917 510 928 540 928 586C928 673 847 720 715 720C573 720 444 669 342 608ZM343 -9 391 -82C590 -7 872 142 872 298C872 402 810 444 682 444C563 444 477 419 392 387L417 309C500 346 577 364 682 364C752 364 790 343 790 298C790 188 545 58 343 -9ZM872 -88 933 -20C755 105 618 180 454 242L408 179C570 113 696 41 872 -88Z" transform="translate(0, 880) scale(1,-1)" /></svg>