<svg xmlns="http://www.w3.org/2000/svg" width="1000" height="1000"><path d="M66 488V408H281V488ZM134 763V66H213V763ZM53 45 88 -25 298 80 264 151ZM388 -71C498 -71 570 19 570 203C570 334 541 434 420 434C373 434 328 417 300 397L322 324C347 341 384 354 420 354C477 354 491 298 491 203C491 87 450 8 388 8C367 8 356 24 356 47C356 174 658 376 767 376C830 376 853 337 853 243C853 113 827 11 743 11C699 11 653 21 604 41V-44C653 -61 696 -68 748 -68C887 -68 932 72 932 243C932 372 890 456 772 456C632 456 277 233 277 47C277 -34 330 -71 388 -71ZM787 73 805 143C746 164 686 183 626 194L608 126C670 112 728 96 787 73ZM794 201 814 272C756 291 698 305 640 315L623 248C680 237 736 221 794 201ZM442 395 511 351C592 438 649 541 649 671H571C571 555 520 475 442 395ZM474 584V504C739 481 868 510 868 668C868 782 768 822 639 822C510 822 415 792 319 738L358 668C439 713 530 741 639 741C736 741 788 715 788 668C788 582 708 564 474 584Z" transform="translate(0, 880) scale(1,-1)" /></svg>