<svg xmlns="http://www.w3.org/2000/svg" width="1000" height="1000"><path d="M32 276 104 227C203 331 295 456 366 584L291 619C222 490 134 371 32 276ZM49 551 116 502C204 583 288 681 354 781L284 819C220 718 140 626 49 551ZM182 434V-67H261V434ZM908 -89 947 -6C753 60 654 240 484 240C393 240 329 179 329 86C329 -6 388 -61 468 -61C648 -61 845 160 845 282C845 393 779 444 635 444C563 444 488 427 424 400L448 319C497 346 570 364 635 364C720 364 763 340 763 282C763 189 601 19 468 19C423 19 403 44 403 86C403 127 439 160 484 160C626 160 710 -20 908 -89ZM567 388H648V835H567ZM326 604 370 536C476 600 605 640 713 640C813 640 848 611 848 585C848 556 841 533 823 508L901 477C920 511 931 538 931 586C931 679 848 720 713 720C578 720 438 667 326 604Z" transform="translate(0, 880) scale(1,-1)" /></svg>