<svg xmlns="http://www.w3.org/2000/svg" width="1000" height="1000"><path d="M309 687 385 715C369 749 337 806 303 844L230 816C261 777 291 729 309 687ZM79 628H921V707H79ZM612 697 680 671C721 720 755 772 780 821L699 847C680 801 650 745 612 697ZM118 -56H880V23H118ZM373 9H520C581 41 605 103 605 159C605 225 571 261 483 261C410 261 361 225 361 171C361 114 404 79 483 79C498 79 512 82 524 89C502 54 453 25 373 9ZM129 311H209V422C308 477 418 510 589 510C761 510 811 482 811 444C811 379 605 368 310 392V309C699 292 893 297 893 444C893 530 829 589 589 589C402 589 282 551 209 494V550H129ZM573 205V448H496V227ZM483 138C455 138 433 153 433 171C433 189 455 204 483 204C511 204 533 189 533 171C533 153 511 138 483 138Z" transform="translate(0, 880) scale(1,-1)" /></svg>