<svg xmlns="http://www.w3.org/2000/svg" width="1000" height="1000"><path d="M84 90H160V745H84ZM212 186H288V745H212ZM277 -25 354 -60C420 101 430 338 430 501V709H942V789H350V501C350 346 344 129 277 -25ZM559 432V352C809 321 906 383 906 501C906 590 847 642 707 642C590 642 501 613 447 586L477 513C530 541 604 564 707 564C779 564 827 545 827 501C827 432 767 391 559 432ZM445 -49H918V29H445ZM685 26H769C805 57 833 101 833 166C833 256 772 301 676 301C585 301 521 263 521 181C521 104 567 63 632 63C685 63 720 100 720 159V512H643V179C643 156 637 147 623 147C604 147 593 161 593 181C593 204 618 221 676 221C730 221 758 194 758 163C758 119 742 80 685 26Z" transform="translate(0, 880) scale(1,-1)" /></svg>