<svg xmlns="http://www.w3.org/2000/svg" width="1000" height="1000"><path d="M716 817V412H796V817ZM601 449V369H948V449ZM689 -79C868 -79 905 34 905 144C905 253 820 295 634 295C446 295 277 280 98 258L116 180C292 203 461 217 629 217C779 217 821 188 821 138C821 62 794 -2 682 -2C627 -2 569 3 507 17V-68C567 -76 622 -79 689 -79ZM53 -19 111 -83C402 5 512 134 573 375L490 385C439 162 325 62 53 -19ZM184 411 268 374C378 441 467 495 467 576C467 637 411 676 344 676C275 676 218 641 218 576C218 514 257 482 317 477C283 452 245 436 184 411ZM344 542C316 542 290 552 290 576C290 599 316 612 344 612C372 612 395 598 395 576C395 552 372 542 344 542ZM434 597V834H356V651ZM84 767V689H587V767ZM66 415 83 338 595 420 578 497Z" transform="translate(0, 880) scale(1,-1)" /></svg>