<svg xmlns="http://www.w3.org/2000/svg" width="1000" height="1000"><path d="M346 440 37 313 68 233 376 369ZM183 -69C234 -69 271 -45 271 32V701H193V46C193 22 185 9 164 9C141 9 117 13 86 27V-57C119 -66 151 -69 183 -69ZM67 707 80 627C165 636 287 663 370 702L344 779C270 742 155 718 67 707ZM901 94 975 125C956 197 917 303 882 382L810 356C846 278 884 168 901 94ZM818.5 692.5Q817 695 818.5 692.5Q820 690 818.5 692.5ZM383 526V446H921V526ZM685 -70C805 -70 819 37 819 185C819 332 792 353 662 353C564 353 472 346 379 329L399 254C492 271 571 275 660 275C727 275 739 268 739 179C739 71 725 6 673 6C643 6 612 8 577 19V-64C609 -69 643 -70 685 -70ZM333 -13 400 -77C553 27 610 177 643 460L561 466C538 201 475 82 333 -13ZM481 550 553 584C533 641 493 724 455 785L387 754C424 693 463 608 481 550ZM613 494H691V841H613ZM744 580 812 550C845 603 889 689 921 761L846 792C822 724 777 636 744 580Z" transform="translate(0, 880) scale(1,-1)" /></svg>