<svg xmlns="http://www.w3.org/2000/svg" width="1000" height="1000"><path d="M548 623 599 566C690 608 781 670 868 750L810 800L792 793H149V715H707C661 682 616 655 548 623ZM716 -42 798 -81C858 -16 905 47 905 144C905 232 836 289 709 289C638 289 573 276 517 251V380H437V219L420 210L460 138C541 182 629 208 708 208C786 208 817 179 817 140C817 74 773 14 716 -42ZM252 -59C394 -59 503 -43 619 -8L579 70C482 40 355 25 252 25C210 25 194 33 194 57C194 105 220 185 249 267L165 282C134 200 108 122 108 49C108 -19 147 -59 252 -59ZM206 372 280 405C263 454 218 525 178 577L106 548C143 498 184 422 206 372ZM475 401 554 425C541 480 506 552 470 612L395 590C428 531 461 456 475 401ZM701 393 772 377C814 432 859 504 892 566L810 595C785 532 741 452 701 393Z" transform="translate(0, 880) scale(1,-1)" /></svg>