<svg xmlns="http://www.w3.org/2000/svg" width="1000" height="1000"><path d="M378 561 337 629C175 516 57 342 57 160C57 19 113 -56 203 -56C352 -56 420 122 397 697H319C343 236 291 24 203 24C158 24 135 79 135 160C135 325 233 458 378 561ZM296 87 346 154C257 245 188 410 218 796L140 800C107 386 182 194 296 87ZM433 660V580H919V660ZM637 823V442H715V823ZM709 468C607 468 514 434 440 388L480 317C550 363 618 388 709 388C776 388 809 363 809 315C809 189 625 22 556 22C524 22 500 54 500 109C500 156 526 193 570 193C647 193 737 36 887 -77L950 -7C804 92 689 272 570 272C483 272 421 210 421 109C421 17 478 -56 556 -56C655 -56 891 144 891 315C891 409 831 468 709 468Z" transform="translate(0, 880) scale(1,-1)" /></svg>