<svg xmlns="http://www.w3.org/2000/svg" width="1000" height="1000"><path d="M152 55C200 55 244 63 278 71L260 147C232 140 197 136 169 136C143 136 127 146 127 200C127 282 133 377 143 489L63 494C53 382 46 284 46 197C46 96 77 55 152 55ZM263 228C296 228 337 235 364 244L347 322C326 316 295 310 275 310C257 310 251 326 251 367V745H171V353C171 256 207 228 263 228ZM674 181C849 181 944 240 944 385C944 540 779 576 468 530L478 450C714 489 865 465 865 385C865 298 793 261 674 261C589 261 490 268 371 293V209C487 187 586 181 674 181ZM567 -79C625 -79 662 -58 662 16V380H583V33C583 11 575 -1 558 -1C523 -1 479 10 440 24V-62C477 -71 519 -79 567 -79ZM301 530 356 470C472 590 541 703 589 821L508 838C471 742 400 625 301 530ZM583 537 649 499C719 586 775 663 821 736L759 789L742 779H507V699H700C674 659 639 608 583 537Z" transform="translate(0, 880) scale(1,-1)" /></svg>