<svg xmlns="http://www.w3.org/2000/svg" width="1000" height="1000"><path d="M169 36C216 36 259 44 291 51L275 127C247 122 213 117 185 117C159 117 144 127 144 182C144 263 149 358 159 469L79 473C69 362 63 265 63 178C63 77 94 36 169 36ZM276 209C308 209 348 216 374 224L357 302C338 297 307 291 287 291C270 291 264 307 264 348V724H184V334C184 237 220 209 276 209ZM415 624 483 657C467 699 436 759 404 804L338 774C367 729 400 669 415 624ZM614 646 688 670C675 718 652 780 623 833L552 810C577 759 602 696 614 646ZM776 646 841 618C874 668 910 735 934 794L860 822C842 767 806 697 776 646ZM842 403 917 372C942 425 952 459 952 494C952 590 870 629 676 629C537 629 410 600 314 562L342 487C430 523 554 549 676 549C830 549 871 524 871 490C871 468 864 445 842 403ZM583 -79C645 -79 673 -48 673 21V482H595V30C595 13 585 0 567 0C536 0 496 9 459 23V-67C496 -74 539 -79 583 -79ZM300 50 363 -6C422 42 487 118 527 196L454 227C418 158 359 91 300 50ZM316 273H938V352H316ZM886 -11 950 40C916 92 843 172 784 225L722 178C782 123 853 42 886 -11Z" transform="translate(0, 880) scale(1,-1)" /></svg>