<svg xmlns="http://www.w3.org/2000/svg" width="1000" height="1000"><path d="M159 -60H236V592H159ZM34 424 95 378C192 487 274 642 324 787L247 811C198 664 120 518 34 424ZM719 -65C861 -65 934 48 934 227C934 399 834 466 674 466C631 466 598 463 569 458C631 518 754 642 854 755L794 805L777 797H401V717H712C649 633 533 511 446 435C431 422 362 391 316 365L364 293C447 346 553 385 660 385C775 385 854 344 854 227C854 101 813 15 712 15C663 15 614 23 567 43V-46C612 -60 664 -65 719 -65ZM374 114 425 45C548 111 679 220 763 332L694 373C615 261 489 171 374 114ZM662 75 726 126C681 192 595 281 532 332L472 284C534 234 619 138 662 75ZM288 542H925V622H288Z" transform="translate(0, 880) scale(1,-1)" /></svg>