<svg xmlns="http://www.w3.org/2000/svg" width="1000" height="1000"><path d="M436 475C498 475 543 498 543 563V635C658 668 776 714 858 759L798 825L781 819H129V742H633C586 726 524 708 463 695V580C463 559 448 550 423 548C377 548 322 555 271 572V490C325 479 372 475 436 475ZM54 549 120 505C187 546 247 602 285 654L206 688C173 641 115 586 54 549ZM877 500 953 539C917 580 848 641 774 690L704 649C776 599 844 541 877 500ZM112 459V381H888V459ZM232 76V177H152V48C152 -41 199 -59 347 -59H730C854 -59 891 -14 912 124L826 137C814 46 799 21 729 21H349C250 21 232 38 232 76ZM664 104C767 104 812 161 829 322L763 337L749 326H140V249H736C726 196 701 184 653 184C558 184 492 187 418 193V112C491 107 565 104 664 104Z" transform="translate(0, 880) scale(1,-1)" /></svg>