<svg xmlns="http://www.w3.org/2000/svg" width="1000" height="1000"><path d="M28 543V463H257V543ZM103 767V151H182V767ZM16 138 48 66 274 159 243 231ZM376 450 447 415C528 511 604 628 690 803L610 832C533 665 452 540 376 450ZM270 592H957V672H270ZM799 317V-3H878V378L821 409L799 397C580 383 261 265 261 78C261 -12 319 -61 414 -61C573 -61 681 64 681 232C681 371 637 480 486 480C424 480 375 464 338 443L369 371C397 387 439 400 486 400C557 400 601 339 601 232C601 105 524 19 414 19C365 19 342 43 342 78C342 191 593 304 799 317ZM970 34H708V-46H970Z" transform="translate(0, 880) scale(1,-1)" /></svg>