<svg xmlns="http://www.w3.org/2000/svg" width="1000" height="1000"><path d="M181 779V-47H261V779ZM22 303 95 281C111 352 126 436 139 522L66 533C54 446 38 367 22 303ZM70 422 83 348 356 389 342 463ZM346 60 375 -24 406 -9 880 34 872 115 498 82C626 246 747 459 905 766L823 803C670 482 543 255 447 141C410 96 368 68 346 60ZM516 468 591 504C551 584 486 690 425 781L354 736C420 646 476 553 516 468ZM886 -73 963 -40C928 60 875 182 810 295L740 264C803 150 850 26 886 -73Z" transform="translate(0, 880) scale(1,-1)" /></svg>