<svg xmlns="http://www.w3.org/2000/svg" width="1000" height="1000"><path d="M510 761H121V470C121 325 113 121 25 -24L106 -60C189 92 199 317 199 470V683H943V761H595L551 852L476 834ZM211 -61H925V17H211ZM447 -2H590C649 22 672 70 672 112C672 163 645 195 552 195C474 195 432 163 432 121C432 78 468 47 552 47C565 47 576 48 586 52C565 30 523 12 447 -2ZM219 385 246 313C335 344 464 372 642 372C801 372 848 358 848 335C848 289 657 281 381 300V218C784 205 929 221 929 335C929 411 867 451 642 451C434 451 310 417 219 385ZM640 147V333H563V164ZM552 98C525 98 503 109 503 121C503 134 525 145 552 145C579 145 601 134 601 121C601 109 579 98 552 98ZM191 597V518H948V597ZM393 440 473 463C458 518 428 601 399 661L322 640C349 580 379 495 393 440ZM658 458 733 436C759 489 792 572 817 640L737 661C717 597 684 512 658 458Z" transform="translate(0, 880) scale(1,-1)" /></svg>