<svg xmlns="http://www.w3.org/2000/svg" width="1000" height="1000"><path d="M346 558 306 627C148 525 33 369 33 204C33 75 88 8 176 8C320 8 389 168 367 689L289 687C312 274 261 88 176 88C133 88 111 134 111 204C111 348 205 466 346 558ZM266 137 317 205C230 286 163 430 192 777L114 780C82 409 156 233 266 137ZM816 256 882 225C917 292 952 363 980 430L909 466L900 455H397V376H870C855 336 836 296 816 256ZM631 -68C693 -68 721 -37 721 37V413H642V47C642 24 634 10 615 10C583 10 540 19 496 35V-51C534 -61 582 -68 631 -68ZM748 472 796 537C731 583 655 622 583 647L543 581C615 552 690 514 748 472ZM670 589 740 547C799 603 878 697 919 759L857 813L843 805H449V725H790C755 679 714 631 670 589Z" transform="translate(0, 880) scale(1,-1)" /></svg>