<svg xmlns="http://www.w3.org/2000/svg" width="1000" height="1000"><path d="M84 90H160V745H84ZM218 186H295V745H218ZM718 15 751 -67C885 -11 940 45 940 200C940 346 825 427 666 427C453 427 299 289 299 118C299 13 352 -58 451 -58C619 -58 661 134 661 277C661 398 603 510 478 567L442 494C539 445 582 365 582 277C582 147 550 22 451 22C404 22 378 61 378 118C378 232 472 347 666 347C788 347 862 301 862 200C862 94 812 37 718 15ZM470 535 539 493C602 568 671 669 713 746L651 794L640 787H340V707H597C564 650 515 584 470 535ZM905 467 975 514C938 589 886 668 831 740L766 702C825 623 867 548 905 467Z" transform="translate(0, 880) scale(1,-1)" /></svg>