<svg xmlns="http://www.w3.org/2000/svg" width="1000" height="1000"><path d="M814 618 888 589C910 640 920 670 920 701C920 786 818 830 587 830C417 830 263 800 164 759V814H84V607H164V691C276 727 433 751 587 751C782 751 839 727 839 695C839 676 833 656 814 618ZM544 496 618 478C628 494 635 511 635 529C635 572 598 603 501 603C407 603 372 575 372 536C372 487 411 455 536 455C717 455 809 503 809 587C809 666 756 709 566 709C405 709 311 684 231 657L267 589C343 614 447 633 566 633C690 633 726 608 726 587C726 558 661 521 536 521C467 521 442 526 442 534C442 542 464 547 501 547C540 547 563 541 563 529C563 517 556 507 544 496ZM220 683V479H297V683ZM66 262 107 188C502 243 534 329 534 482H453C453 348 445 313 66 262ZM883 184 936 250C825 291 701 329 596 353L554 289C664 260 785 222 883 184ZM75 363H925V441H75ZM156 6H235V90C342 120 480 130 596 130C706 130 768 121 768 102C768 82 657 82 501 84V8C712 -2 850 16 850 102C850 177 751 207 596 207C470 207 340 197 235 160V183H156ZM463 -92H543V250H463Z" transform="translate(0, 880) scale(1,-1)" /></svg>