<svg xmlns="http://www.w3.org/2000/svg" width="1000" height="1000"><path d="M56 711H324V788H56ZM229 751H151V224H229ZM741 590C730 569 718 549 702 528L738 463C824 480 857 465 857 436C857 391 747 352 618 337L644 265C801 290 938 336 938 437C938 518 881 550 801 543L865 641L796 682L785 672C403 643 301 564 301 482C301 428 340 385 403 385C535 385 659 564 791 781L724 823L706 813H368V734H661C576 587 475 464 404 464C388 464 380 470 380 482C380 507 431 560 741 590ZM628 206 704 235C687 289 654 363 622 420L548 391C580 338 610 262 628 206ZM539 -18V264H461V-18ZM132 100H868V176H132ZM930 13H70V-62H930Z" transform="translate(0, 880) scale(1,-1)" /></svg>