<svg xmlns="http://www.w3.org/2000/svg" width="1000" height="1000"><path d="M124 91C124 242 429 430 735 430C834 430 883 368 883 245C883 91 827 11 759 11C722 11 684 18 642 33V-53C682 -62 721 -66 770 -66C905 -66 963 38 963 255C963 428 886 510 738 510C397 510 41 299 41 91C41 -3 99 -52 189 -52C335 -52 420 99 420 220C420 339 348 432 190 464L170 385C297 359 339 296 339 220C339 133 274 30 189 30C148 30 124 57 124 91ZM385 -16 448 -76C647 98 763 442 803 827L723 834C685 454 571 144 385 -16ZM342 635 401 698C344 743 280 787 207 829L153 768C225 725 288 680 342 635ZM213 432 281 393C350 452 422 529 461 586L396 639L380 631H63V551H328C298 509 260 468 213 432Z" transform="translate(0, 880) scale(1,-1)" /></svg>