<svg xmlns="http://www.w3.org/2000/svg" width="1000" height="1000"><path d="M360 558 321 626C149 525 24 370 24 205C24 76 83 7 177 7C332 7 405 171 381 686L302 684C327 273 273 86 177 86C128 86 103 134 103 205C103 348 207 466 360 558ZM278 136 327 203C233 284 159 428 191 774L113 777C78 407 158 232 278 136ZM368 310 438 270C525 401 603 620 655 810L576 828C529 641 449 432 368 310ZM762 -44 839 -11C800 100 738 253 679 371L606 340C663 220 727 63 762 -44ZM522 488H971V568H522Z" transform="translate(0, 880) scale(1,-1)" /></svg>