<svg xmlns="http://www.w3.org/2000/svg" width="1000" height="1000"><path d="M922 483V563H490V483ZM77 513 137 452C272 566 365 670 461 815L383 850C298 720 198 606 77 513ZM76 238 130 168C326 297 595 554 703 712L643 762L626 755H339V675H570C478 553 273 361 76 238ZM317 398V318H746C737 245 726 219 688 219C607 219 549 227 487 242V158C551 146 614 139 700 139C784 139 815 215 829 391L768 407L753 398ZM370 75V239H290V68C290 -39 339 -61 454 -61H761C879 -61 916 -10 936 146L856 160C845 34 824 19 751 19H457C383 19 370 31 370 75Z" transform="translate(0, 880) scale(1,-1)" /></svg>