<svg xmlns="http://www.w3.org/2000/svg" width="1000" height="1000"><path d="M346 548 306 616C152 510 41 347 41 175C41 40 95 -28 181 -28C321 -28 388 137 366 682L288 681C311 248 262 51 181 51C140 51 119 101 119 175C119 327 210 451 346 548ZM267 106 318 174C234 259 169 412 197 774L120 778C89 389 160 207 267 106ZM532 521 605 555C574 628 528 721 487 794L418 754C461 679 502 591 532 521ZM655 561 715 509C804 603 830 645 830 713C830 779 790 829 707 829C626 829 552 790 478 720L526 665C596 722 657 746 703 746C735 746 747 732 747 705C747 673 727 630 655 561ZM539 58 621 19C684 86 767 179 813 242L750 295L732 285H602C625 332 645 383 670 450L594 469C555 369 520 299 483 250L541 197L558 207H668C635 163 590 109 539 58ZM909 -89 937 -11C752 39 568 77 393 109L359 35C546 2 728 -38 909 -89ZM348 415H941V494H348Z" transform="translate(0, 880) scale(1,-1)" /></svg>