<svg xmlns="http://www.w3.org/2000/svg" width="1000" height="1000"><path d="M160 421 205 512 135 533 34 355 107 320 118 330 497 418 471 492ZM253 212C307 212 334 240 334 306V840H255V319C255 300 249 289 232 289C206 289 178 295 144 307V223C180 216 216 212 253 212ZM67 544H485V623H67ZM68 753 91 676C207 679 380 691 492 716L463 790C361 768 187 756 68 753ZM808 628C779 292 814 219 896 219C952 219 975 280 981 376L921 385C917 322 911 297 897 297C878 297 858 352 890 696L829 718L816 707H478V628ZM422 269 486 211C693 328 714 529 713 839H633C634 542 628 380 422 269ZM769 392 800 467C737 496 610 535 513 561L478 490C577 461 708 421 769 392ZM540 -14V263H460V-14ZM132 100H868V178H132ZM930 20H70V-58H930Z" transform="translate(0, 880) scale(1,-1)" /></svg>