<svg xmlns="http://www.w3.org/2000/svg" width="1000" height="1000"><path d="M354 532 316 600C149 500 28 347 28 183C28 56 85 -12 177 -12C327 -12 399 149 375 660L297 658C321 251 268 68 177 68C130 68 106 114 106 183C106 325 206 441 354 532ZM274 116 323 183C232 263 160 405 191 746L113 750C79 384 157 210 274 116ZM766 295 823 233C912 309 956 402 956 513C956 603 913 672 792 673C614 674 483 539 365 402L429 346C548 491 664 593 792 593C853 593 877 558 877 513C877 436 844 358 766 295ZM614 -60H822C917 -60 936 -6 947 163L870 168C863 38 856 16 810 16H629C579 16 569 29 569 79V816H490V80C490 -31 515 -60 614 -60Z" transform="translate(0, 880) scale(1,-1)" /></svg>