<svg xmlns="http://www.w3.org/2000/svg" width="1000" height="1000"><path d="M74 499H153V548C260 627 458 664 617 664C789 664 844 628 844 607C844 578 837 559 819 534L897 502C918 537 927 558 927 608C927 702 815 737 617 737C426 737 260 688 153 602V723H74ZM485 696 566 718C552 761 534 807 508 852L430 832C456 789 474 744 485 696ZM361 334 435 349C424 435 406 524 383 604L310 589C333 509 350 420 361 334ZM165 418H836V488H165ZM566 339 637 327C664 414 684 512 700 600L623 609C610 524 592 428 566 339ZM143 160H857V234H143ZM77 33V-43H923V33ZM462 316V16H538V316Z" transform="translate(0, 880) scale(1,-1)" /></svg>