<svg xmlns="http://www.w3.org/2000/svg" width="1000" height="1000"><path d="M356 153C475 153 541 248 541 397C541 498 509 605 403 695L350 662C446 570 470 457 470 397C470 285 427 227 356 228C297 229 264 268 264 309C264 446 516 514 680 507V246H600V179L829 176V246H753V566L704 592L690 578C499 579 191 506 191 309C191 219 251 153 356 153ZM158 676 190 612C380 652 566 709 748 782L681 840C536 781 333 714 158 676ZM891 24V105C668 29 411 10 267 53C181 80 148 143 143 300L61 286C64 115 118 15 237 -22C385 -68 663 -51 891 24ZM841 321V-55H921V321Z" transform="translate(0, 880) scale(1,-1)" /></svg>