<svg xmlns="http://www.w3.org/2000/svg" width="1000" height="1000"><path d="M622 15 667 -67C838 -11 917 45 917 200C917 346 772 427 550 427C255 427 55 279 55 108C55 5 123 -58 242 -58C474 -58 527 134 527 277C527 392 464 510 290 567L260 492C403 443 446 365 446 277C446 147 380 22 242 22C169 22 136 55 136 108C136 222 282 347 550 347C720 347 836 301 836 200C836 94 766 37 622 15ZM288 535 360 490C446 565 542 666 601 743L540 794L523 787H77V707H464C418 650 349 584 288 535ZM895 463 965 517C914 592 841 671 765 743L703 698C785 619 843 544 895 463Z" transform="translate(0, 880) scale(1,-1)" /></svg>