<svg xmlns="http://www.w3.org/2000/svg" width="1000" height="1000"><path d="M133 463 205 429C245 477 284 537 327 626L252 654C213 570 172 509 133 463ZM43 609H610V689H43ZM472 331V48H551V392L494 423L472 411C277 397 38 272 38 87C38 -3 89 -51 176 -51C313 -51 398 76 398 245C398 385 377 495 236 495C178 495 134 479 101 460L132 387C156 402 194 415 236 415C295 415 319 353 319 245C319 116 264 29 176 29C134 29 118 49 118 87C118 204 289 318 472 331ZM634 157 428 44 468 -25 674 88ZM320 645 399 666C384 718 359 778 333 826L256 804C280 757 308 694 320 645ZM838 -61C890 -60 924 -28 924 41V813H844V53C844 29 837 17 818 17C791 17 754 24 712 39V-49C753 -59 790 -62 838 -61ZM676 661V172H756V661Z" transform="translate(0, 880) scale(1,-1)" /></svg>