<svg xmlns="http://www.w3.org/2000/svg" width="1000" height="1000"><path d="M32 509V430H241V509ZM97 769V107H175V769ZM20 90 54 19 258 119 224 190ZM586 754H264V470C264 325 256 121 181 -24L253 -58C333 94 342 317 342 470V677H959V754H670L633 845L557 827ZM324 588V510H953V588ZM495 409 575 432C557 498 520 601 487 673L411 648C443 578 479 475 495 409ZM689 430 761 409C792 469 832 568 861 648L781 673C760 596 719 495 689 430ZM404 455V378H868V455ZM350 285 374 212C457 245 553 271 692 271C803 271 850 255 850 231C850 183 722 175 487 195V118C762 99 931 100 931 231C931 304 873 349 692 349C531 349 431 320 350 285ZM312 -10 351 -83C647 -20 685 93 684 231H606C606 110 585 50 312 -10ZM917 -87 967 -20C886 25 792 69 715 102L672 35C753 0 847 -45 917 -87Z" transform="translate(0, 880) scale(1,-1)" /></svg>