<svg xmlns="http://www.w3.org/2000/svg" width="1000" height="1000"><path d="M495 719 573 738C560 776 534 820 508 854L432 835C456 801 483 755 495 719ZM814 575 892 550C913 595 922 624 922 649C922 730 818 768 587 768C418 768 264 740 164 704V752H84V567H164V637C276 668 433 689 587 689C782 689 837 669 837 642C837 625 831 608 814 575ZM80 10 129 -56C335 33 580 156 697 224L643 282L623 276H232V197H481C383 145 247 77 80 10ZM511 -85C564 -85 610 -75 669 -49V32C609 3 566 -11 525 -11C503 -11 493 -8 493 22V124H413V4C413 -59 445 -85 511 -85ZM888 -59 941 7C845 53 726 107 622 144L575 83C678 44 794 -9 888 -59ZM110 314H889V392H110ZM640 368 680 439C568 474 471 495 348 513L322 440C448 421 540 400 640 368ZM489 470 580 425C660 462 773 520 834 559L788 618L771 614H180V535H625C579 510 537 491 489 470Z" transform="translate(0, 880) scale(1,-1)" /></svg>