<svg xmlns="http://www.w3.org/2000/svg" width="1000" height="1000"><path d="M578 -61C791 -61 941 55 941 232C941 381 871 494 666 494C622 494 589 491 551 483C660 565 752 643 865 750L807 811L788 800H304V720H714C642 646 511 531 413 460C393 445 366 435 338 424L381 344C457 389 575 414 666 414C793 414 861 340 861 232C861 80 715 19 578 19C504 19 460 44 460 96C460 137 486 163 531 163C596 163 633 111 644 5L722 22C705 155 644 243 531 243C442 243 381 185 381 96C381 5 454 -61 578 -61ZM105 764V-36H185V764Z" transform="translate(0, 880) scale(1,-1)" /></svg>