<svg xmlns="http://www.w3.org/2000/svg" width="1000" height="1000"><path d="M43 602H312V682H43ZM138 115H218V640H138ZM307 176 31 113 48 35 324 98ZM333 664H965V744H333ZM781 670 704 711C656 634 582 546 501 474C487 461 459 452 400 426L434 350C511 391 592 413 664 413C762 413 842 368 842 232C842 69 786 14 717 14C680 14 634 21 579 38V-46C626 -59 672 -64 725 -64C850 -64 922 33 922 232C922 430 815 493 673 493C650 493 634 491 615 487C680 551 729 602 781 670Z" transform="translate(0, 880) scale(1,-1)" /></svg>