<svg xmlns="http://www.w3.org/2000/svg" width="1000" height="1000"><path d="M77 90H153V745H77ZM205 186H281V745H205ZM603 692 679 712C663 758 635 811 606 852L534 831C561 790 590 735 603 692ZM831 522 909 494C932 544 942 577 942 609C942 699 855 739 677 739C540 739 386 713 289 684L310 607C403 635 557 658 677 658C817 658 856 635 856 602C856 582 850 561 831 522ZM339 513V434H874V513ZM475 326 550 344C537 418 511 532 487 613L413 597C436 518 462 402 475 326ZM656 342 729 324C753 398 779 508 799 597L724 613C706 522 680 414 656 342ZM645 3V351H566V3ZM321 156H891V234H321ZM939 35H273V-43H939Z" transform="translate(0, 880) scale(1,-1)" /></svg>