<svg xmlns="http://www.w3.org/2000/svg" width="1000" height="1000"><path d="M62 133H139V733H62ZM205 221H282V733H205ZM306 634H960V714H692L645 839L568 821L606 714H306ZM649 491C550 491 457 466 369 425L398 346C484 391 566 411 649 411C727 411 749 382 749 334C749 194 555 24 461 24C421 24 395 55 395 115C395 165 420 205 484 205C587 205 723 44 918 -77L972 -15C779 100 629 283 484 283C383 283 315 222 315 115C315 16 367 -56 461 -56C599 -56 829 149 829 334C829 443 780 491 649 491ZM327 386 395 332C484 427 564 545 631 665L557 697C493 577 413 471 327 386ZM914 373 980 422C931 495 876 558 819 613L754 569C813 512 866 447 914 373Z" transform="translate(0, 880) scale(1,-1)" /></svg>