<svg xmlns="http://www.w3.org/2000/svg" width="1000" height="1000"><path d="M212 807V-69H292V807ZM59 309 131 288C147 359 161 443 174 529L101 539C90 452 74 373 59 309ZM107 429 120 355 381 395 368 469ZM381 660V580H918V660ZM611 823V442H689V823ZM686 468C574 468 474 434 392 388L431 316C510 363 586 388 686 388C762 388 801 363 801 315C801 189 590 22 513 22C478 22 452 54 452 109C452 156 481 193 533 193C621 193 721 36 887 -77L948 -7C787 93 661 272 533 272C440 272 372 210 372 109C372 17 431 -56 513 -56C623 -56 884 144 884 315C884 409 817 468 686 468Z" transform="translate(0, 880) scale(1,-1)" /></svg>