<svg xmlns="http://www.w3.org/2000/svg" width="1000" height="1000"><path d="M266 -6 301 -72C536 -23 717 173 714 359C714 416 693 489 595 489C526 489 472 440 472 371C472 304 527 251 597 251C760 251 921 328 921 645H363V573H837C841 415 728 313 602 313C562 313 541 345 541 371C541 405 559 426 593 426C623 426 640 400 640 361C640 237 531 57 266 -6ZM84 90H156V745H84ZM238 186H309V745H238ZM906 -80 956 -24C897 28 800 100 713 161L667 109C754 49 849 -27 906 -80ZM490 644 557 673C544 720 521 784 492 836L427 811C453 763 477 702 490 644ZM708 666 770 641C829 763 802 707 850 815L771 841C757 785 734 717 708 666Z" transform="translate(0, 880) scale(1,-1)" /></svg>