<svg xmlns="http://www.w3.org/2000/svg" width="1000" height="1000"><path d="M155 -62H233V604H155ZM24 433 86 388C187 498 274 655 327 801L249 826C197 677 115 528 24 433ZM269 40 325 -21C487 98 680 256 772 346L718 404L703 396H399V316H630C545 241 417 139 269 40ZM620 -65C664 -65 702 -55 751 -28V57C703 26 669 12 638 12C620 12 612 15 612 46V205H533V28C533 -38 562 -65 620 -65ZM908 -25 966 35C891 97 797 168 716 218L662 166C742 113 834 42 908 -25ZM303 458H915V538H303ZM713 526 757 595C669 639 593 664 497 686L464 615C563 592 635 566 713 526ZM601 637 676 592C741 638 832 710 880 759L830 814L814 808H358V728H726C688 695 648 667 601 637Z" transform="translate(0, 880) scale(1,-1)" /></svg>