<svg xmlns="http://www.w3.org/2000/svg" width="1000" height="1000"><path d="M346 440 37 313 68 233 376 369ZM183 -69C234 -69 271 -45 271 32V701H193V46C193 22 185 9 164 9C141 9 117 13 86 27V-57C119 -66 151 -69 183 -69ZM67 707 80 627C165 636 287 663 370 702L344 779C270 742 155 718 67 707ZM383 506V426H921V506ZM480 530 553 564C533 624 493 710 455 774L386 744C423 680 462 591 480 530ZM613 470H691V833H613ZM744 559 813 530C846 585 891 675 923 751L846 782C822 710 777 618 744 559ZM690 -1V398H611V-1ZM395 180H906V259H395ZM949 31H353V-48H949Z" transform="translate(0, 880) scale(1,-1)" /></svg>