<svg xmlns="http://www.w3.org/2000/svg" width="1000" height="1000"><path d="M21 531V452H226V531ZM84 762V129H162V762ZM9 115 43 44 243 139 209 210ZM489 9 546 -45C645 23 707 95 707 181C707 257 653 301 558 301C467 301 412 256 412 186C412 111 469 69 594 69C789 69 920 128 920 273C920 391 828 446 660 446C506 446 377 411 271 358L304 284C411 336 518 367 660 367C772 367 840 342 840 273C840 176 724 145 594 145C524 145 492 157 492 186C492 213 518 226 558 226C600 226 627 211 627 181C627 129 581 70 489 9ZM411 453 487 478C478 522 450 590 421 641L347 620C376 568 403 497 411 453ZM215 565 287 529C351 623 392 723 419 836L341 849C314 736 277 652 215 565ZM590 474 668 491C665 535 648 608 626 661L551 646C572 592 587 518 590 474ZM343 687H945V765H343ZM744 471 814 448C843 497 881 572 911 638L825 662C807 606 772 522 744 471ZM970 17H248V-61H970Z" transform="translate(0, 880) scale(1,-1)" /></svg>