<svg xmlns="http://www.w3.org/2000/svg" width="1000" height="1000"><path d="M806 -71C875 -71 914 -39 914 38V637C914 736 863 795 774 795H365C237 795 166 763 126 723L147 644C190 689 268 715 378 715H754C808 715 834 687 834 631V51C834 21 823 7 800 7C759 7 725 18 678 38V-50C716 -63 758 -71 806 -71ZM182 -54H610V26H211C180 26 166 43 166 81V795H86V65C86 -23 121 -54 182 -54ZM624 414C614 392 601 371 586 350L622 285C703 301 735 287 735 256C735 210 631 170 507 154L533 82C683 108 816 156 816 258C816 340 760 371 684 365L746 467L677 506L665 496C301 465 202 385 202 303C202 250 240 206 302 206C433 206 548 388 674 610L607 652L589 641H267V562H547C466 411 371 285 304 285C288 285 281 291 281 303C281 329 329 382 624 414ZM515 21 591 50C575 104 543 180 513 237L439 209C469 155 498 79 515 21Z" transform="translate(0, 880) scale(1,-1)" /></svg>