<svg xmlns="http://www.w3.org/2000/svg" width="1000" height="1000"><path d="M510 754H131V470C131 325 123 122 35 -23L103 -60C196 92 209 317 209 470V677H943V754H595L551 845L476 827ZM195 588V510H936V588ZM403 409 484 432C463 498 419 601 380 673L304 648C342 578 384 475 403 409ZM631 430 703 409C739 469 786 568 820 648L740 673C714 596 667 495 631 430ZM290 455V378H836V455ZM229 285 254 212C352 245 465 271 628 271C765 271 821 255 821 231C821 183 664 175 387 195V118C710 99 902 100 902 231C902 304 834 349 628 349C440 349 324 320 229 285ZM182 -10 224 -83C565 -20 613 93 612 231H533C533 110 503 50 182 -10ZM897 -87 951 -20C856 25 744 69 653 102L607 35C702 0 814 -45 897 -87Z" transform="translate(0, 880) scale(1,-1)" /></svg>