<svg xmlns="http://www.w3.org/2000/svg" width="1000" height="1000"><path d="M40 547 106 487C204 592 263 700 311 817L230 838C192 741 131 638 40 547ZM271 556 344 514C395 579 460 678 504 759L441 798L428 786H231V706H380C350 656 309 599 271 556ZM243 -60H482C582 -60 616 -19 631 154L553 167C543 34 527 20 476 20H254C189 20 177 33 177 83V238H538V560H201V480H460V318H177V366H98V83C98 -35 134 -60 243 -60ZM818 -61C871 -60 904 -28 904 41V813H824V52C824 29 817 17 798 17C768 17 727 25 682 40V-48C726 -58 767 -62 818 -61ZM635 661V172H715V661Z" transform="translate(0, 880) scale(1,-1)" /></svg>