<svg xmlns="http://www.w3.org/2000/svg" width="1000" height="1000"><path d="M310 546 270 615C130 517 29 366 29 206C29 80 79 19 160 19C288 19 351 168 332 677L255 675C275 278 231 99 160 99C123 99 107 141 107 206C107 344 185 457 310 546ZM235 144 288 211C211 290 151 428 177 762L101 765C72 407 138 237 235 144ZM748 -54C889 -54 947 115 947 266C947 424 861 557 676 557C472 557 324 291 324 133C324 7 374 -28 443 -28C612 -28 695 343 827 772L755 807L744 795H423V715H724C631 393 531 52 443 52C419 52 403 78 403 133C403 254 518 477 676 477C807 477 868 380 868 266C868 159 855 26 748 26C718 26 702 43 702 84C702 116 713 141 736 141C762 141 787 99 809 33L871 64C842 140 808 217 736 217C664 217 625 156 625 84C625 4 666 -54 748 -54Z" transform="translate(0, 880) scale(1,-1)" /></svg>