<svg xmlns="http://www.w3.org/2000/svg" width="1000" height="1000"><path d="M54 90H130V745H54ZM181 186H257V745H181ZM457 680 531 705C519 738 494 794 467 831L394 805C419 768 442 720 457 680ZM290 620H950V699H290ZM706 688 775 665C808 713 834 763 854 811L775 834C759 788 736 734 706 688ZM355 498 370 426C390 435 415 439 443 439C482 439 497 398 497 345C497 279 484 240 435 231V156C543 158 572 241 572 345C572 452 539 516 442 516C408 516 378 510 355 498ZM392 22H468V333H392ZM275 -1 307 -73 571 52 538 125ZM260 226 334 194C369 305 398 446 411 590L336 598C321 457 292 316 260 226ZM937 -17 977 61C876 129 776 181 673 218L638 146C740 111 842 51 937 -17ZM546 0 619 -48C677 52 718 180 735 303L657 319C636 193 605 92 546 0ZM714 -87C770 -87 807 -52 807 18V512H730V33C730 1 725 -14 705 -14C681 -14 659 -7 631 11V-71C657 -82 687 -87 714 -87ZM580 284H948V362H580ZM604 541 617 465C717 468 835 482 916 507L896 580C814 555 708 542 604 541Z" transform="translate(0, 880) scale(1,-1)" /></svg>