<svg xmlns="http://www.w3.org/2000/svg" width="1000" height="1000"><path d="M37 -46 104 -80C188 78 201 309 201 469V668H948V741H598L548 845L473 827L513 741H126V468C126 319 119 105 37 -46ZM773 327 775 393H356V327ZM432 364 503 379C492 465 474 554 451 634L381 619C404 539 421 450 432 364ZM225 478H937V544H225ZM633 365 700 354C728 442 749 543 765 633L691 639C678 552 659 455 633 365ZM528 -82H602V351H528ZM213 197 236 134C374 184 517 205 657 205C796 205 832 181 832 157C832 113 779 92 552 109V44C816 30 915 69 915 157C915 233 830 273 657 273C498 273 355 245 213 197Z" transform="translate(0, 880) scale(1,-1)" /></svg>