<svg xmlns="http://www.w3.org/2000/svg" width="1000" height="1000"><path d="M169 -32C228 -32 286 -18 334 0L305 75C268 61 227 50 191 50C162 50 144 69 144 124C144 221 152 333 165 463L85 471C72 341 63 223 63 120C63 19 94 -32 169 -32ZM312 170C354 170 400 178 437 191L416 271C386 260 352 252 326 252C305 252 296 268 296 309V771H216V295C216 197 252 170 312 170ZM394 651V571H918V651ZM617 823V442H695V823ZM376 -4 426 -76C608 2 892 157 892 316C892 414 827 465 695 465C578 465 495 441 412 412L437 335C520 369 591 385 695 385C771 385 810 361 810 316C810 201 560 66 376 -4ZM881 -81 941 -14C774 116 647 192 493 256L448 194C599 126 717 53 881 -81Z" transform="translate(0, 880) scale(1,-1)" /></svg>