<svg xmlns="http://www.w3.org/2000/svg" width="1000" height="1000"><path d="M54 90H130V745H54ZM181 186H257V745H181ZM455 680 530 705C517 738 492 794 465 831L392 805C417 768 440 720 455 680ZM288 620H949V699H288ZM704 688 773 665C806 713 832 763 852 811L773 834C757 788 734 734 704 688ZM355 498 370 426C390 435 415 439 443 439C482 439 497 398 497 345C497 279 484 240 435 231V156C543 158 572 241 572 345C572 452 539 516 442 516C408 516 378 510 355 498ZM392 22H468V333H392ZM275 -1 307 -73 571 52 538 125ZM260 226 334 194C369 305 398 446 411 590L336 598C321 457 292 316 260 226ZM936 -17 979 61C877 129 777 181 674 218L637 146C739 111 841 51 936 -17ZM545 0 619 -48C677 52 718 180 735 303L656 319C635 193 603 92 545 0ZM714 -87C770 -87 807 -52 807 18V512H730V39C730 6 725 -9 705 -9C681 -9 659 -1 631 17V-71C657 -82 687 -87 714 -87ZM580 283H948V362H580ZM604 544 617 464C717 466 835 480 916 505L896 583C814 558 708 545 604 544Z" transform="translate(0, 880) scale(1,-1)" /></svg>