<svg xmlns="http://www.w3.org/2000/svg" width="1000" height="1000"><path d="M350 516 420 559C375 632 307 725 244 798L179 750C245 675 306 587 350 516ZM531 566 583 508C716 601 757 645 757 713C757 779 712 829 619 829C502 829 385 781 277 694L323 637C420 710 529 746 618 746C655 746 672 732 672 712C672 678 639 638 531 566ZM361 58 440 19C529 81 652 173 717 230L657 295L635 285H421C455 332 487 383 521 450L442 469C387 370 340 303 296 264L343 196L368 207H555C508 163 438 109 361 58ZM877 -88 903 -10C643 42 385 80 139 110L104 36C368 2 624 -38 877 -88ZM82 415H914V494H82Z" transform="translate(0, 880) scale(1,-1)" /></svg>