<svg xmlns="http://www.w3.org/2000/svg" width="1000" height="1000"><path d="M141 162H209V801H141ZM40 493H301V562H40ZM305 257 60 140 80 73 324 196ZM659 335 834 414 768 443 506 320C446 304 397 286 344 263L374 205C457 247 573 274 673 274C759 274 853 232 853 138C853 35 778 -13 689 -13C585 -13 482 13 482 89C482 119 512 141 573 141C633 141 652 124 652 103C652 81 621 38 529 0L557 -24C652 10 722 51 722 103C722 166 657 201 573 201C496 201 410 161 410 89C410 -3 534 -75 696 -75C828 -75 932 7 932 138C932 294 799 336 659 335ZM305 391H941V458H305ZM624 458H723C788 476 823 530 823 565C823 611 757 657 620 657C486 657 408 620 408 572C408 527 456 494 567 494C633 494 658 528 658 556V841H588V583C588 557 576 547 549 547C522 547 481 556 481 572C481 586 513 601 620 601C699 601 754 584 754 565C754 541 732 491 624 458ZM313 691H934V756H312Z" transform="translate(0, 880) scale(1,-1)" /></svg>