<svg xmlns="http://www.w3.org/2000/svg" width="1000" height="1000"><path d="M117 -33 197 -25C148 106 138 200 166 280C198 369 202 438 153 513L75 495C120 414 122 354 93 285C61 209 67 106 117 -33ZM210 586 257 653C219 681 147 724 94 753L50 693C103 662 175 615 210 586ZM652 181C838 181 950 240 950 385C950 540 761 576 421 530L432 450C698 489 871 465 871 385C871 298 786 261 652 261C558 261 446 268 312 293V209C442 187 554 181 652 181ZM536 -79C598 -79 634 -58 634 16V380H554V33C554 11 545 -1 526 -1C487 -1 438 10 394 24V-62C435 -71 482 -79 536 -79ZM237 530 292 470C422 590 498 703 553 821L470 838C428 742 349 625 237 530ZM554 537 619 497C698 584 761 661 813 734L752 789L732 779H465V699H685C657 659 617 608 554 537Z" transform="translate(0, 880) scale(1,-1)" /></svg>