<svg xmlns="http://www.w3.org/2000/svg" width="1000" height="1000"><path d="M276 545 236 614C108 516 15 367 15 207C15 81 61 23 138 23C257 23 316 167 299 678L222 675C240 280 200 102 138 102C106 102 92 143 92 207C92 344 162 457 276 545ZM204 147 258 215C188 293 133 430 157 762L81 766C55 409 115 239 204 147ZM526 9 584 -45C676 23 734 95 734 181C734 257 684 301 593 301C505 301 455 256 455 186C455 111 507 69 626 69C810 69 931 128 931 273C931 391 846 446 687 446C544 446 423 411 324 358L357 284C456 336 556 367 687 367C792 367 852 342 852 273C852 176 747 145 626 145C561 145 534 157 534 186C534 213 557 226 593 226C630 226 655 211 655 181C655 129 611 70 526 9ZM454 453 530 478C522 522 496 590 468 641L395 620C421 568 447 497 454 453ZM271 565 344 529C404 623 442 723 466 836L388 849C364 736 330 652 271 565ZM620 474 698 491C695 535 679 608 659 661L584 646C603 592 617 518 620 474ZM393 687H952V765H393ZM763 471 833 448C860 497 895 572 923 638L837 662C821 606 789 522 763 471ZM975 17H305V-61H975Z" transform="translate(0, 880) scale(1,-1)" /></svg>