<svg xmlns="http://www.w3.org/2000/svg" width="1000" height="1000"><path d="M329 -24 382 -95C669 -37 820 19 820 121C820 202 730 250 576 250C489 250 387 244 318 232L336 153C400 164 494 174 576 174C675 174 725 158 725 121C725 64 581 24 329 -24ZM419 223 507 195C600 246 690 305 766 363L693 416L677 408H216V330H584C546 298 485 256 419 223ZM81 561 156 526C210 612 257 731 281 828L202 844C177 746 131 635 81 561ZM190 661H888V741H190ZM287 429 354 464C337 504 304 562 270 605L205 574C236 531 270 472 287 429ZM499 452 573 476C558 522 533 582 504 632L432 609C459 559 486 499 499 452ZM671 453 736 424C771 472 808 537 834 593L761 622C740 570 704 502 671 453Z" transform="translate(0, 880) scale(1,-1)" /></svg>