<svg xmlns="http://www.w3.org/2000/svg" width="1000" height="1000"><path d="M96 19V-59H904V19ZM539 595V844H461V595ZM72 676H928V754H72ZM870 626H130V548H870ZM791 330 865 306C885 351 893 376 893 399C893 474 798 517 578 517C420 517 278 492 184 459V501H104V323H184V391C289 419 434 438 578 438C760 438 812 420 812 393C812 379 807 363 791 330ZM559 70 609 -12C776 8 896 75 896 176C896 290 746 342 529 342C270 342 106 286 106 187C106 108 195 55 313 55C556 55 676 228 699 399L617 404C598 240 493 134 316 134C237 134 189 150 189 187C189 222 325 262 529 262C689 262 814 229 814 176C814 126 719 84 559 70ZM479 111 535 170C422 218 398 272 412 399L330 405C313 271 350 157 479 111Z" transform="translate(0, 880) scale(1,-1)" /></svg>