<svg xmlns="http://www.w3.org/2000/svg" width="1000" height="1000"><path d="M172 340H533V420H172ZM45 155H659V235H45ZM44 398 99 339C363 448 396 631 396 840H315C315 644 297 500 44 398ZM597 333 662 386C587 461 505 538 434 600L376 548C449 486 531 407 597 333ZM55 696 64 614C266 620 493 640 655 667L633 745C483 717 261 698 55 696ZM318 -79C374 -79 404 -44 404 16V368H326V27C326 10 317 -3 297 -3C267 -3 231 3 184 20V-62C232 -74 272 -79 318 -79ZM831 -61C881 -60 917 -28 917 41V813H837V53C837 29 829 17 811 17C786 17 753 24 714 38V-50C752 -60 785 -62 831 -61ZM686 661V172H766V661Z" transform="translate(0, 880) scale(1,-1)" /></svg>