<svg xmlns="http://www.w3.org/2000/svg" width="1000" height="1000"><path d="M168 -3C218 -3 263 7 299 17L278 93C249 85 214 79 185 79C158 79 143 92 143 149C143 241 148 347 158 470L78 474C68 351 62 243 62 146C62 41 93 -3 168 -3ZM275 189C307 189 347 195 373 203L356 282C337 277 306 271 286 271C270 271 263 287 263 328V758H183V314C183 216 219 189 275 189ZM528 112 598 73C666 170 754 301 804 389L739 440L725 431H592C631 531 663 668 693 817L614 829C578 642 537 490 485 381L554 340L567 352H686C648 280 591 193 528 112ZM896 -85 931 -10C751 66 574 123 403 166L363 96C545 48 721 -10 896 -85ZM365 621H921V701H365ZM337 273 412 247C438 321 459 427 471 518L393 527C383 440 362 341 337 273ZM864 238 943 255C932 329 916 443 890 529L816 515C840 426 856 311 864 238Z" transform="translate(0, 880) scale(1,-1)" /></svg>