<svg xmlns="http://www.w3.org/2000/svg" width="1000" height="1000"><path d="M82 800V720H895V800ZM930 -37V45C702 -8 411 5 263 55C176 86 136 167 131 351L53 339C56 140 112 22 233 -20C385 -74 697 -89 930 -37ZM184 171 490 267 465 336 160 250ZM299 66H377V700H299ZM198 386H459V463H198ZM179 539H477V616H179ZM824 58H895C952 58 962 123 966 266L890 272C888 157 886 134 865 134H837C824 134 818 139 818 152C818 169 819 198 856 540L787 564L775 553H473V474H765C743 214 741 177 741 138C741 81 759 58 824 58ZM447 106 510 53C673 181 696 355 703 702L625 706C616 364 598 223 447 106Z" transform="translate(0, 880) scale(1,-1)" /></svg>