<svg xmlns="http://www.w3.org/2000/svg" width="1000" height="1000"><path d="M120 760 136 690C364 693 621 720 827 758L788 827C605 790 352 764 120 760ZM45 266 78 178C109 201 139 231 176 268C190 282 213 284 225 280C240 275 249 253 263 178L394 293L371 337L288 287C284 318 267 343 235 354C273 415 308 484 341 553L284 583C211 437 138 316 45 266ZM520 -65H841C914 -65 929 -19 937 137L866 144C861 29 856 6 817 6H551C514 6 505 17 505 59V748H430V53C430 -41 446 -65 520 -65ZM551 151 600 106C687 190 786 299 870 416L803 455C726 343 628 228 551 151ZM538 404 587 364C656 435 727 518 801 620L733 658C669 560 600 472 538 404Z" transform="translate(0, 880) scale(1,-1)" /></svg>