<svg xmlns="http://www.w3.org/2000/svg" width="1000" height="1000"><path d="M56 711H324V788H56ZM229 751H151V224H229ZM540 -19V253H460V-19ZM132 92H868V170H132ZM930 15H70V-63H930ZM482 727 559 751C548 777 526 821 502 851L428 826C449 795 469 758 482 727ZM346 678H936V758H346ZM719 737 792 715C821 753 843 793 860 831L780 853C766 817 747 774 719 737ZM309 360 361 297C387 311 408 324 436 345C447 352 462 354 473 350C485 346 499 333 514 301L617 367L586 418L534 390C529 400 520 407 508 411C528 438 548 468 567 502L501 536C446 456 379 392 309 360ZM630 226C729 226 760 301 759 396C759 475 705 580 623 663L563 612C626 560 680 464 680 396C679 341 668 301 627 301C593 301 562 306 528 319V237C558 229 592 226 630 226ZM921 280 973 347C886 397 766 446 622 498L591 428C727 380 838 333 921 280ZM677 522 708 455C787 479 844 497 911 533L864 600C804 567 755 546 677 522ZM687 707 606 739C567 643 476 604 336 558L378 489C532 545 643 594 687 707Z" transform="translate(0, 880) scale(1,-1)" /></svg>