<svg xmlns="http://www.w3.org/2000/svg" width="1000" height="1000"><path d="M511 756H123V470C123 325 115 121 27 -24L106 -60C191 92 201 317 201 470V677H943V756H596L550 851L475 833ZM242 522 282 454C341 488 460 533 623 533C802 533 835 490 835 430C835 345 768 316 655 316C567 316 485 321 397 331V249C485 240 567 238 655 238C837 238 915 309 915 430C915 537 866 611 623 611C426 611 303 558 242 522ZM389 390H737V468H389ZM351 -67C606 -67 630 275 631 705H552C552 312 528 11 351 11C301 11 273 27 273 61C273 98 311 119 382 119C535 119 679 -4 928 -68L961 9C694 75 584 197 382 197C277 197 193 153 193 61C193 -29 251 -67 351 -67Z" transform="translate(0, 880) scale(1,-1)" /></svg>