<svg xmlns="http://www.w3.org/2000/svg" width="1000" height="1000"><path d="M154 791V-50H233V791ZM15 305 85 286C100 357 113 441 125 527L53 535C43 448 29 369 15 305ZM63 427 75 353 309 390 297 464ZM770 108C896 108 941 198 941 491C941 710 880 809 694 809C562 809 440 782 339 748L356 668C457 702 570 729 694 729C828 729 862 639 862 491C862 286 839 186 770 186C723 186 664 199 619 215V127C666 115 724 108 770 108ZM339 -34H922V46H339ZM307 164 375 109C525 228 631 413 645 641L564 647C551 432 457 275 307 164ZM696 342 734 417C654 456 512 507 397 538L359 469C476 435 617 382 696 342Z" transform="translate(0, 880) scale(1,-1)" /></svg>