<svg xmlns="http://www.w3.org/2000/svg" width="1000" height="1000"><path d="M49 -5 101 -70C419 87 639 268 788 425L722 474L699 457H412C580 556 716 664 846 781L773 831C649 710 490 589 273 459C260 451 240 442 219 436L259 362L302 379H627C534 292 346 136 49 -5ZM642 -58H818C902 -58 930 4 936 147L856 154C855 51 839 22 805 22H638C604 22 599 28 599 56V279L519 251V55C519 -29 543 -58 642 -58ZM368 594 429 648C372 707 294 772 220 823L162 771C240 717 314 655 368 594Z" transform="translate(0, 880) scale(1,-1)" /></svg>