<svg xmlns="http://www.w3.org/2000/svg" width="1000" height="1000"><path d="M610 -16 655 -91C820 -48 879 23 879 116C879 213 817 271 662 271C535 271 400 224 333 186C391 271 441 380 475 548L393 558C365 392 307 266 232 154C216 130 170 106 129 75L182 13C352 128 527 190 662 190C752 190 799 163 799 116C799 49 720 4 610 -16ZM403 473V392C740 355 867 438 867 601C867 737 767 808 552 808C348 808 201 735 109 669L152 599C246 666 382 727 552 727C715 727 788 686 788 601C788 472 674 446 403 473Z" transform="translate(0, 880) scale(1,-1)" /></svg>