<svg xmlns="http://www.w3.org/2000/svg" width="1000" height="1000"><path d="M133 -67H210V597H133ZM10 426 72 381C167 491 247 648 297 793L220 817C172 668 95 521 10 426ZM594 -80C702 -80 737 10 737 121C737 239 672 368 590 474L524 423C584 354 659 216 659 121C659 57 645 -1 586 -1C558 -1 529 5 502 14V-71C531 -77 562 -80 594 -80ZM244 71 293 1C324 20 352 45 388 74C430 73 445 54 458 -1L587 80L561 141L486 98C481 118 466 133 446 142C484 191 523 245 555 301L488 338C419 220 332 111 244 71ZM270 327 306 255C441 313 607 408 672 507L600 544C552 468 395 377 270 327ZM932 -15 986 53C885 120 747 186 579 255L549 184C707 119 836 56 932 -15ZM654 273 679 200C771 233 837 257 915 307L872 378C802 332 745 305 654 273ZM400 476H825V556H400ZM458 687 536 713C522 751 500 800 475 840L400 817C423 778 446 725 458 687ZM284 619H942V699H284ZM684 683 757 664C779 709 808 776 827 823L743 844C731 798 707 731 684 683Z" transform="translate(0, 880) scale(1,-1)" /></svg>