<svg xmlns="http://www.w3.org/2000/svg" width="1000" height="1000"><path d="M131 -68H207V603H131ZM14 431 76 386C166 497 242 655 290 801L213 824C167 674 95 527 14 431ZM497 456H576V763H497ZM304 722H936V802H304ZM666 456H745V763H666ZM235 -47 305 -86C370 13 389 160 389 261V410H950V490H311V261C311 165 296 48 235 -47ZM659 -65C702 -65 739 -57 785 -34V52C741 27 708 15 678 15C662 15 655 28 655 59V363H576V21C576 -45 607 -65 659 -65ZM924 12 986 74C915 152 827 242 750 305L692 254C768 186 854 96 924 12ZM435 296V-26H513V296ZM395 514 468 545C452 586 423 644 395 686L324 658C350 616 380 554 395 514ZM768 535 839 511C868 557 899 619 921 672L844 701C827 650 797 584 768 535Z" transform="translate(0, 880) scale(1,-1)" /></svg>