<svg xmlns="http://www.w3.org/2000/svg" width="1000" height="1000"><path d="M74 496V416H335V496ZM166 792V49H243V792ZM57 22 84 -50 351 66 323 138ZM534 123H710C763 123 798 167 798 231C798 291 773 360 731 425L660 390C706 322 719 275 719 239C719 217 708 203 685 203H544C515 203 506 217 506 253C506 350 528 438 577 580L503 605C449 459 426 356 426 232C426 163 465 123 534 123ZM832 248 909 233C919 288 928 349 928 449C928 559 876 602 788 602C717 602 661 584 608 544L638 473C683 507 737 522 788 522C833 522 850 496 850 438C850 364 843 299 832 248ZM374 723 391 648C590 674 769 714 891 758L853 830C750 789 565 747 374 723ZM915 -54 932 26C733 4 582 8 487 50C429 76 390 142 372 234L293 216C317 88 376 6 451 -25C555 -68 706 -76 915 -54Z" transform="translate(0, 880) scale(1,-1)" /></svg>