<svg xmlns="http://www.w3.org/2000/svg" width="1000" height="1000"><path d="M147 66C192 66 233 73 263 79L247 155C221 150 188 147 162 147C137 147 122 156 122 211C122 292 127 386 136 497L56 500C47 390 41 294 41 207C41 105 72 66 147 66ZM246 238C276 238 315 244 338 251L323 329C305 325 275 320 257 320C241 320 235 336 235 377V750H155V363C155 266 191 238 246 238ZM593 -68C648 -68 685 -45 685 7V214C760 257 833 314 886 364L827 429L814 418H413V339H734C702 312 655 287 605 262V41C605 19 596 10 580 10C541 9 498 19 449 39V-52C495 -64 542 -68 593 -68ZM283 40 349 0C412 71 461 161 484 241L404 264C385 191 345 109 283 40ZM488 429 567 445C559 523 543 607 521 683L443 668C466 592 480 507 488 429ZM906 -6 983 24C959 90 903 194 838 270L765 240C830 161 886 57 906 -6ZM304 523H965V602H304ZM669 393 746 381C785 474 817 603 835 709L751 717C738 614 707 490 669 393ZM342 775 355 698C543 704 768 728 925 759L894 835C758 805 534 783 342 775Z" transform="translate(0, 880) scale(1,-1)" /></svg>