<svg xmlns="http://www.w3.org/2000/svg" width="1000" height="1000"><path d="M145 -73H222V575H145ZM18 407 79 361C177 470 261 625 312 768L235 793C185 646 106 501 18 407ZM312 652H963V730H694L654 829L574 811L607 730H312ZM692 110C848 110 953 145 953 260C953 389 821 414 460 389L466 310C781 330 873 310 873 260C873 210 801 189 692 189C608 189 514 197 397 212V131C513 117 604 110 692 110ZM592 -75C645 -75 679 -56 679 14V264H602V31C602 11 592 -1 571 -1C539 -1 496 6 453 22V-60C494 -67 541 -75 592 -75ZM601 373 665 329C752 382 836 438 911 496L853 570L837 563H353V484H762C717 448 663 413 601 373Z" transform="translate(0, 880) scale(1,-1)" /></svg>