<svg xmlns="http://www.w3.org/2000/svg" width="1000" height="1000"><path d="M33 -25 103 -67C216 110 223 303 223 824H145C145 301 140 141 33 -25ZM296 -54H843C929 -54 946 3 954 98L877 101C873 33 868 24 831 24L311 29C281 29 274 38 274 76V368H196V77C196 -26 220 -54 296 -54ZM41 548 67 474C155 491 256 524 330 575L296 649C232 599 131 568 41 548ZM424 839 380 775C427 753 476 726 503 707L548 773C520 792 469 818 424 839ZM401 464 474 443 604 665 541 708 525 701H331V623H484ZM617 558 332 476 357 398 644 485ZM588 391 652 337C762 423 851 503 947 618L881 666L850 630H744C779 682 813 743 849 811L771 843C731 759 690 693 650 637C641 626 630 618 618 612L649 544L665 552H776C722 497 658 442 588 391ZM781 246 804 169C896 185 942 234 941 290C941 368 855 407 698 407C555 407 411 384 311 356L329 282C429 308 571 329 698 329C808 329 858 310 858 290C858 265 832 250 781 246ZM471 285V207H739V285ZM338 157V78H891V157Z" transform="translate(0, 880) scale(1,-1)" /></svg>