<svg xmlns="http://www.w3.org/2000/svg" width="1000" height="1000"><path d="M60 110H136V717H60ZM189 199H265V717H189ZM299 409H749V489H299ZM337 -17 567 95 533 166 302 60ZM368 70H447V345H368ZM796 19H875V453H796ZM616 694 691 715C675 759 648 812 619 853L546 832C573 791 602 737 616 694ZM840 527 918 498C941 548 951 580 951 612C951 701 864 742 689 742C553 742 401 716 305 687L326 611C418 638 570 660 689 660C826 660 864 637 864 605C864 585 859 565 840 527ZM664 445H585V-88H664ZM956 59H716V-21H956Z" transform="translate(0, 880) scale(1,-1)" /></svg>