<svg xmlns="http://www.w3.org/2000/svg" width="1000" height="1000"><path d="M342 558 301 626C154 513 47 339 47 157C47 16 99 -56 183 -56C319 -56 383 116 362 697H285C306 236 259 24 183 24C144 24 125 78 125 157C125 322 211 455 342 558ZM263 87 316 154C235 245 172 410 200 796L123 800C93 386 161 194 263 87ZM934 791H436V470C436 323 430 115 378 -22L455 -60C507 92 514 317 514 470V714H934ZM894 -51 959 -1C907 78 830 173 744 255L687 205C772 120 844 28 894 -51ZM676 469 737 418C798 475 856 541 906 623L841 663C798 590 740 520 676 469ZM661 28V680H584V39C584 9 573 -3 565 -9L584 -77L761 -13L745 57ZM535 306H933V381H535Z" transform="translate(0, 880) scale(1,-1)" /></svg>