<svg xmlns="http://www.w3.org/2000/svg" width="1000" height="1000"><path d="M895 673 823 713C757 627 685 551 606 477L643 396L667 403H750L496 282L576 228L928 408L878 490L855 481H718C773 532 837 601 895 673ZM515 -72C826 -72 918 21 918 124C918 231 830 294 620 294C487 294 387 282 283 267L300 188C402 202 499 214 620 214C773 214 837 184 837 124C837 59 762 6 515 6C327 6 246 31 246 51C246 66 274 81 388 81C485 81 503 72 503 59C503 41 460 19 356 -2L396 -59C504 -32 596 -1 596 59C596 119 537 155 388 155C234 155 166 108 166 51C166 -14 237 -72 515 -72ZM71 722 101 649C290 681 480 726 662 780L602 845C455 801 247 750 71 722ZM833 621 823 701C456 643 84 559 84 424C84 359 129 312 237 312C396 312 514 383 514 505C514 589 471 670 355 751L285 706C391 626 433 560 433 505C433 426 335 389 235 391C185 392 165 402 165 424C165 506 487 568 833 621Z" transform="translate(0, 880) scale(1,-1)" /></svg>