<svg xmlns="http://www.w3.org/2000/svg" width="1000" height="1000"><path d="M557 200 512 140C631 85 759 12 882 -68L933 -3C805 78 684 142 557 200ZM366 8 410 -68C761 19 866 105 866 198C866 304 725 353 479 353C229 353 76 267 76 164C76 85 133 43 218 43C376 43 739 344 889 576L829 621L802 609C665 625 503 635 327 635C200 635 144 570 144 505C144 430 205 395 290 395C448 395 665 531 815 765L755 808L728 798H177V723H688C563 553 394 471 290 471C246 471 229 483 229 505C229 531 253 564 327 564C488 564 640 554 758 538C641 366 323 122 218 122C177 122 157 137 157 164C157 211 289 276 479 276C687 276 776 238 776 198C776 124 641 66 366 8Z" transform="translate(0, 880) scale(1,-1)" /></svg>