<svg xmlns="http://www.w3.org/2000/svg" width="1000" height="1000"><path d="M453 -70C516 -70 544 -42 544 25V629C544 757 514 807 411 807H336C279 807 236 798 201 782V702C242 719 283 727 333 727H398C451 727 466 700 466 624V32C466 12 457 5 436 5C406 5 375 14 340 27V-58C376 -65 410 -70 453 -70ZM40 -31 115 -66C216 98 217 289 217 468V803H139V468C139 300 135 124 40 -31ZM382 425 437 486C383 534 321 580 250 626L200 566C269 521 330 473 382 425ZM41 374V294H618V374ZM674 252 722 205C895 305 943 353 943 430C943 520 843 564 609 580L601 500C806 485 861 452 861 426C861 390 834 341 674 252ZM615 -31 680 -89C807 -7 917 96 967 165L912 226L892 221C813 245 721 266 603 275L594 195C708 187 783 175 845 158C808 106 728 35 615 -31ZM627 559 696 519C776 592 845 687 905 795L825 827C769 724 702 630 627 559Z" transform="translate(0, 880) scale(1,-1)" /></svg>