<svg xmlns="http://www.w3.org/2000/svg" width="1000" height="1000"><path d="M286 549 245 617C119 509 28 344 28 169C28 33 73 -32 149 -32C268 -32 325 126 308 688L231 687C249 249 209 48 149 48C118 48 105 96 105 169C105 325 174 451 286 549ZM213 105 267 172C199 259 145 414 168 782L92 786C67 391 125 207 213 105ZM533 297 577 249 803 368 753 425ZM325 362H944V440H325ZM650 436 697 383C767 434 839 472 839 550C839 627 765 655 631 655C500 655 415 628 415 556C415 493 469 463 569 463C644 463 675 497 675 547V841H596V579C596 550 589 538 562 538C527 538 502 544 502 556C502 568 528 579 631 579C709 579 754 570 754 548C754 524 711 471 650 436ZM332 679H936V757H332ZM683 322C582 321 474 298 334 241L363 165C488 226 586 243 683 243C767 243 858 214 858 125C858 28 784 1 700 1C598 1 496 27 496 80C496 105 527 119 586 119C637 119 656 113 656 92C656 72 633 31 543 -4L577 -46C671 -14 736 34 736 92C736 161 667 197 586 197C511 197 418 156 418 80C418 -26 543 -78 700 -78C839 -78 936 2 936 125C936 272 814 323 683 322Z" transform="translate(0, 880) scale(1,-1)" /></svg>