<svg xmlns="http://www.w3.org/2000/svg" width="1000" height="1000"><path d="M29 474 104 454C137 549 164 683 178 789L101 795C90 688 64 560 29 474ZM97 597H343V674H97ZM71 37 131 -1C225 64 304 143 304 256C304 323 256 362 199 362C141 362 93 323 93 256C93 190 137 142 204 154C179 118 133 74 71 37ZM199 216C177 216 159 232 159 256C159 280 177 297 199 297C220 297 239 280 239 256C239 232 220 216 199 216ZM285 279V490H208V335ZM128 515V439H339V515ZM40 37 70 -39 348 64 319 139ZM582 538 641 486C731 561 830 668 888 756L826 804L812 799H395V719H757C718 668 657 602 582 538ZM598 317 557 259C701 184 825 97 915 11L971 88C876 159 751 239 598 317ZM656 355 692 288C775 325 836 356 907 411L855 478C791 425 738 392 656 355ZM603 603 532 563C612 437 660 320 660 191C660 112 646 11 590 11C557 11 524 17 493 34V-52C523 -62 559 -67 599 -67C716 -67 739 65 739 191C739 325 684 471 603 603ZM384 455 345 387 530 295 569 363ZM291 91 335 26 590 180 546 245Z" transform="translate(0, 880) scale(1,-1)" /></svg>