<svg xmlns="http://www.w3.org/2000/svg" width="1000" height="1000"><path d="M743 664 794 601C855 629 921 672 921 726C921 780 838 813 719 813C624 813 561 805 514 796V858H435V785L417 780L443 704C527 722 619 737 712 737C783 737 836 732 836 715C836 700 806 690 743 664ZM250 606C398 606 496 614 610 629L587 705C483 692 364 682 236 682C197 682 173 687 173 699C173 709 199 744 218 765L156 800C119 761 90 716 90 677C90 629 138 606 250 606ZM272 -91C335 -91 365 -63 365 -6V253C426 284 490 325 546 367L483 429L469 423H86V346H377C351 328 323 312 285 293V17C285 -3 276 -15 260 -15C227 -15 196 -8 158 2V-79C197 -87 234 -91 272 -91ZM70 35 568 112 552 185 57 116ZM90 200H517V277H90ZM892 -102 941 -32C841 10 692 57 563 89L529 19C655 -14 791 -58 892 -102ZM261 426 326 476C299 510 243 562 190 599L129 552C180 515 235 463 261 426ZM635 45 701 -15C868 58 914 97 914 166C914 238 865 263 700 268C772 303 830 338 909 400L834 450C759 379 685 334 560 281L573 201C767 188 833 183 833 166C833 143 791 110 635 45ZM451 435H531V611H451ZM646 468 707 418C754 454 815 510 860 556L790 607C755 562 694 504 646 468Z" transform="translate(0, 880) scale(1,-1)" /></svg>