<svg xmlns="http://www.w3.org/2000/svg" width="1000" height="1000"><path d="M355 534 316 602C151 501 31 346 31 181C31 53 88 -15 179 -15C328 -15 399 147 376 663L298 661C322 250 269 64 179 64C133 64 110 111 110 181C110 324 209 442 355 534ZM275 113 324 181C234 262 163 405 194 750L116 754C82 384 159 209 275 113ZM719 -52H846C935 -52 953 5 963 181L886 188C881 53 875 28 834 28H743C700 28 690 41 690 91V726H612V88C612 -23 632 -52 719 -52ZM401 342 934 378 929 458 396 422ZM405 721 418 643C576 657 768 692 900 742L863 817C751 771 566 737 405 721Z" transform="translate(0, 880) scale(1,-1)" /></svg>