<svg xmlns="http://www.w3.org/2000/svg" width="1000" height="1000"><path d="M67 513V433H301V513ZM144 757V92H223V757ZM55 75 87 3 318 104 285 176ZM491 527 554 477C670 558 775 659 856 756L798 800L782 793H353V713H710C649 646 581 588 491 527ZM736 -70C885 -70 940 62 940 283C940 486 853 560 684 560C544 560 395 517 310 478L341 409C431 445 564 479 684 479C809 479 859 404 859 283C859 109 820 8 732 8C675 8 629 16 591 31V-55C628 -66 668 -70 736 -70ZM400 134 463 85C583 179 714 320 760 389L691 432C646 361 519 222 400 134ZM677 110 739 168C670 237 567 328 495 377L436 327C512 273 615 182 677 110Z" transform="translate(0, 880) scale(1,-1)" /></svg>