<svg xmlns="http://www.w3.org/2000/svg" width="1000" height="1000"><path d="M225 648 291 687C270 723 230 777 190 817L126 782C162 743 203 687 225 648ZM485 671 559 698C543 740 511 795 476 840L405 814C438 769 470 713 485 671ZM699 677 763 645C804 689 849 747 882 799L806 832C782 784 738 723 699 677ZM815 481 890 455C911 502 920 530 920 556C920 634 818 678 587 678C418 678 264 650 164 613V662H84V472H164V545C276 577 433 599 587 599C782 599 839 579 839 549C839 533 833 516 815 481ZM417 9V-71C694 -97 825 -64 825 50C825 141 734 176 543 176C393 176 257 143 147 86L193 14C291 69 418 96 543 96C678 96 742 83 742 50C742 16 675 -18 417 9ZM86 355 155 305C228 366 292 452 330 529L255 564C218 484 156 406 86 355ZM924 296H76V216H924ZM560 253V560H480V253ZM220 385H853V464H220Z" transform="translate(0, 880) scale(1,-1)" /></svg>