<svg xmlns="http://www.w3.org/2000/svg" width="1000" height="1000"><path d="M64 488V409H332V488ZM158 779V48H237V779ZM50 24 82 -48 350 64 318 137ZM458 340H823V420H458ZM330 155H950V235H330ZM329 399 384 339C651 448 684 631 684 840H603C603 644 585 501 329 399ZM888 333 952 387C877 462 794 539 721 601L664 548C738 486 821 407 888 333ZM340 696 349 613C553 619 783 640 946 668L924 745C772 717 548 698 340 696ZM606 -79C662 -79 692 -44 692 16V368H614V27C614 10 605 -3 585 -3C554 -3 518 3 471 20V-62C519 -74 560 -79 606 -79Z" transform="translate(0, 880) scale(1,-1)" /></svg>