<svg xmlns="http://www.w3.org/2000/svg" width="1000" height="1000"><path d="M20 41 94 2C146 100 205 230 249 345L174 374C130 253 67 121 20 41ZM195 569 246 631C207 665 139 709 87 735L40 670C93 643 155 601 195 569ZM311 408 350 327 375 337H907V417H423C491 532 556 664 610 817L530 840C483 691 394 521 355 450C343 428 330 415 311 408ZM248 9 318 -39C376 30 438 135 478 240L399 260C364 166 308 72 248 9ZM602 -75C650 -75 679 -51 679 17V560H600V29C600 11 595 3 580 3C547 2 513 9 476 23V-62C518 -70 563 -75 602 -75ZM900 -27 973 10C938 80 867 186 801 262L731 228C795 150 868 42 900 -27ZM261 629H942V709H261Z" transform="translate(0, 880) scale(1,-1)" /></svg>