<svg xmlns="http://www.w3.org/2000/svg" width="1000" height="1000"><path d="M148 51C194 51 237 58 269 64L254 140C226 135 192 131 164 131C139 131 123 140 123 193C123 270 129 359 139 465L59 469C49 363 42 271 42 189C42 90 73 51 148 51ZM258 215C292 215 332 222 359 231L342 308C321 302 291 297 270 297C253 297 246 313 246 353V703H166V340C166 243 202 215 258 215ZM481 616 557 643C543 690 516 767 488 819L412 792C440 740 466 673 481 616ZM316 534H958V614H316ZM713 618 783 596C818 662 847 734 868 801L784 824C769 759 743 682 713 618ZM337 -29 629 64 604 141 309 47ZM421 66 490 44C538 130 595 264 634 378L564 414L548 401H338V321H528C502 245 460 145 421 66ZM760 20H839V437H760ZM954 56H684V-24H954Z" transform="translate(0, 880) scale(1,-1)" /></svg>