<svg xmlns="http://www.w3.org/2000/svg" width="1000" height="1000"><path d="M224 650 290 689C268 724 228 778 187 817L124 782C160 744 201 688 224 650ZM486 672 560 700C543 741 512 795 476 840L406 814C439 770 471 714 486 672ZM702 679 766 646C807 690 852 747 886 799L810 832C786 785 741 725 702 679ZM820 485 894 460C915 506 924 533 924 559C924 636 822 680 588 680C418 680 262 653 161 616V664H81V476H161V548C274 580 433 601 588 601C786 601 843 581 843 552C843 536 837 519 820 485ZM442 -78C493 -78 546 -46 546 12V262C644 312 744 384 815 451L762 505L746 498H195V419H650C599 377 535 337 466 304V30C466 12 453 -2 430 -2C381 -2 331 5 281 22V-63C333 -75 377 -78 442 -78ZM908 169 927 253C720 276 444 277 79 252V173C440 196 716 190 908 169Z" transform="translate(0, 880) scale(1,-1)" /></svg>