<svg xmlns="http://www.w3.org/2000/svg" width="1000" height="1000"><path d="M925 800H129V583C129 509 125 424 45 355L116 309C195 387 206 496 206 583V722H925ZM489 640 538 576C644 599 746 624 831 656L776 716C700 687 601 660 489 640ZM390 408V707H311V408ZM243 499H922V575H243ZM704 482C569 482 423 458 284 407L337 337C453 381 588 404 702 404C762 404 788 396 788 379C788 359 758 348 676 340L708 265C817 280 878 312 878 385C878 447 833 482 704 482ZM649 -78C743 -78 787 -60 804 -30C842 37 851 128 848 204C845 302 782 328 604 328C500 328 391 322 273 309L275 238C408 253 512 257 605 257C707 257 762 259 766 202C769 142 758 80 729 24C720 8 698 -4 638 -4C585 -4 536 1 479 16V-67C538 -74 595 -78 649 -78ZM88 -15 157 -71C287 50 310 168 319 324H234C225 177 212 87 88 -15ZM690 51V121L344 123V53ZM699 144 700 214 362 216 361 146Z" transform="translate(0, 880) scale(1,-1)" /></svg>