<svg xmlns="http://www.w3.org/2000/svg" width="1000" height="1000"><path d="M156 -78H233V611H156ZM34 436 96 391C190 504 271 664 320 813L243 836C195 684 119 533 34 436ZM416 325C537 325 581 414 581 508C581 613 520 693 437 761L379 723C459 660 505 585 505 508C505 446 476 397 416 397C390 397 376 410 376 433C376 476 434 523 596 606L550 662C388 583 298 513 298 433C298 362 348 325 416 325ZM282 729 321 661C421 692 516 726 592 762L554 831C478 792 384 758 282 729ZM620 726V650H927V726ZM607 566V488H940V566ZM733 836V321H813V836ZM573 -82C635 -82 664 -54 664 6V400H585V18C585 1 576 -12 559 -12C528 -12 489 -3 451 10V-69C489 -77 531 -82 573 -82ZM288 29 346 -25C406 16 472 79 513 144L445 176C409 119 348 63 288 29ZM299 208H935V287H299ZM883 -28 941 20C907 64 832 130 772 174L716 129C776 83 849 15 883 -28Z" transform="translate(0, 880) scale(1,-1)" /></svg>