<svg xmlns="http://www.w3.org/2000/svg" width="1000" height="1000"><path d="M499 692 574 712C559 758 531 811 502 852L429 831C455 791 486 735 499 692ZM811 522 890 494C913 544 923 577 923 608C923 697 818 739 587 739C416 739 265 708 166 666V722H82V512H166V597C278 634 433 658 587 658C782 658 836 635 836 602C836 582 831 561 811 522ZM165 513V434H836V513ZM347 324 424 346C407 420 372 535 340 616L265 595C296 516 331 399 347 324ZM567 343 639 322C669 393 707 504 734 595L657 616C635 527 597 416 567 343ZM539 3V351H459V3ZM142 156H856V234H142ZM917 35H82V-43H917Z" transform="translate(0, 880) scale(1,-1)" /></svg>