<svg xmlns="http://www.w3.org/2000/svg" width="1000" height="1000"><path d="M806 -71C875 -71 914 -39 914 38V637C914 736 863 795 774 795H365C237 795 166 763 126 723L147 653C190 698 268 723 378 723H754C810 723 838 690 838 631V38C838 10 823 -3 800 -3C759 -3 725 6 678 24V-53C716 -65 758 -71 806 -71ZM182 -54H610V16H211C177 16 159 40 159 81V795H86V65C86 -23 121 -54 182 -54ZM338 271C512 271 610 405 746 660L676 677L667 669H494V603H637C542 432 445 340 338 340C288 340 264 362 264 391C264 423 286 452 345 452C469 452 582 336 787 261L808 331C599 405 511 519 345 519C255 519 190 472 190 390C190 312 243 271 338 271ZM371 546 429 585C399 623 358 663 326 688L270 651C302 626 342 582 371 546ZM199 79 258 47C292 96 326 162 350 224L286 247C265 187 229 121 199 79ZM513 50C542 50 566 59 605 96L569 153C548 133 534 123 520 123C507 123 492 140 475 240L413 226C439 82 478 50 513 50ZM736 50 800 78C777 125 730 196 693 247L635 215C675 164 714 96 736 50Z" transform="translate(0, 880) scale(1,-1)" /></svg>