<svg xmlns="http://www.w3.org/2000/svg" width="1000" height="1000"><path d="M497 689 575 709C560 752 533 802 505 841L429 821C454 783 484 730 497 689ZM812 528 890 501C913 550 923 581 923 610C923 696 818 737 587 737C417 737 263 707 164 667V720H84V519H164V599C276 633 433 656 587 656C782 656 836 634 836 604C836 585 831 565 812 528ZM721 -60H830C914 -60 931 5 938 154L858 160C854 41 849 19 813 19H732C710 19 700 23 700 36C700 54 702 84 763 442L698 466L680 456H111V376H667C623 102 620 63 620 23C620 -36 645 -60 721 -60ZM67 -8 126 -68C407 66 444 252 473 615L393 619C363 261 330 114 67 -8Z" transform="translate(0, 880) scale(1,-1)" /></svg>