<svg xmlns="http://www.w3.org/2000/svg" width="1000" height="1000"><path d="M333 540 416 561C396 643 356 743 317 825L239 804C279 720 317 622 333 540ZM67 655H933V732H67ZM569 532 641 508C707 603 754 716 787 820L700 837C673 737 631 628 569 532ZM35 -47 104 -86C187 25 210 190 210 303V482H923V559H131V303C131 195 113 60 35 -47ZM200 -67H923V11H200ZM312 158 385 181C373 240 345 333 316 403L245 384C274 311 301 218 312 158ZM444 256 513 276C503 318 488 363 468 405L398 390C419 346 432 303 444 256ZM688 199V445H610V278ZM765 198 832 177C859 231 894 319 920 392L841 415C824 348 792 255 765 198ZM501 5H636C693 45 717 100 717 170C717 254 658 297 596 297C520 297 468 254 468 186C468 114 523 74 595 74C611 74 621 76 630 81C616 47 575 21 501 5ZM591 147C565 147 544 160 544 186C544 213 565 228 592 228C616 228 639 211 639 190C639 160 617 147 591 147Z" transform="translate(0, 880) scale(1,-1)" /></svg>