<svg xmlns="http://www.w3.org/2000/svg" width="1000" height="1000"><path d="M191 -54V773H113V-54ZM40 366H264V446H40ZM703 427C822 427 846 520 846 606C846 696 789 742 671 742C557 742 455 730 348 711L357 628C462 647 568 662 669 662C744 662 767 642 767 606C767 551 751 505 697 505C665 505 630 509 594 518V435C630 429 663 427 703 427ZM281 413 336 354C513 464 630 614 666 832L588 844C551 625 445 517 281 413ZM714 28V-59C747 -66 780 -69 821 -69C917 -69 953 20 953 143C953 271 869 337 705 337C416 337 238 204 238 65C238 -11 283 -63 364 -63C495 -63 563 61 563 215C563 329 514 427 413 479L366 418C450 373 484 298 484 215C484 95 437 17 364 17C333 17 317 35 317 65C317 149 441 257 705 257C808 257 874 227 874 143C874 85 856 9 813 9C777 9 746 16 714 28ZM544 1 606 -55C718 59 821 203 857 421L779 434C743 227 650 102 544 1Z" transform="translate(0, 880) scale(1,-1)" /></svg>