<svg xmlns="http://www.w3.org/2000/svg" width="1000" height="1000"><path d="M74 90H152V745H74ZM226 186H304V745H226ZM329 555 394 493C485 572 571 681 647 809L572 843C498 721 415 624 329 555ZM317 334 352 257C592 324 761 455 873 699L810 740L797 731H516V651H754C682 505 540 394 317 334ZM902 257 944 332C780 423 641 484 481 540L443 466C604 410 742 348 902 257ZM838 -88 877 -14C771 38 575 120 424 165L382 91C536 43 734 -32 838 -88ZM752 143 791 216C727 246 627 283 548 306L510 238C587 215 690 176 752 143Z" transform="translate(0, 880) scale(1,-1)" /></svg>