<svg xmlns="http://www.w3.org/2000/svg" width="1000" height="1000"><path d="M369 536 331 605C153 511 24 367 24 212C24 91 85 25 181 25C340 25 415 181 390 659L311 655C337 275 281 105 181 105C130 105 103 147 103 212C103 342 211 451 369 536ZM287 145 335 213C238 288 161 419 194 739L116 743C80 399 163 234 287 145ZM386 707H781C769 632 746 518 729 457L755 390H885C877 116 856 25 797 25C754 25 714 36 678 51V-35C711 -45 756 -53 811 -53C917 -53 951 14 966 456L901 477L890 465H813C832 540 861 692 873 787H386ZM631 730 552 733C526 395 473 186 322 -21L399 -66C557 166 603 372 631 730Z" transform="translate(0, 880) scale(1,-1)" /></svg>