<svg xmlns="http://www.w3.org/2000/svg" width="1000" height="1000"><path d="M87 644H913V723H561L507 827L429 810L473 723H87ZM114 274 496 333 482 411 100 352ZM231 353 303 318C367 377 434 461 485 537L419 585L397 572H116V493H351C319 445 282 402 231 353ZM674 345H754V594H674ZM894 378H534V298H894ZM732 -31 790 -87C849 -42 911 16 911 91C911 160 829 203 715 203C624 203 563 192 517 180V303H438V160L420 152L450 79C531 107 618 125 708 125C776 125 826 110 826 81C826 44 793 11 732 -31ZM262 -72C401 -72 499 -61 609 -41L584 35C485 17 370 6 250 6C210 6 187 15 187 36C187 63 212 116 235 160L168 191C132 132 104 72 104 16C104 -44 152 -72 262 -72Z" transform="translate(0, 880) scale(1,-1)" /></svg>