<svg xmlns="http://www.w3.org/2000/svg" width="1000" height="1000"><path d="M806 -71C875 -71 914 -39 914 38V637C914 736 863 795 774 795H365C237 795 166 763 126 723L147 647C190 692 268 718 378 718H754C808 718 837 687 837 631V51C837 21 823 4 800 4C759 4 725 15 678 35V-50C716 -63 758 -71 806 -71ZM182 -54H610V23H211C180 23 163 43 163 81V795H86V65C86 -23 121 -54 182 -54ZM506 34C664 34 761 104 761 220C761 324 671 373 538 373C490 373 445 368 408 358C457 431 486 533 515 692L435 700C407 543 380 436 310 334C302 323 268 305 239 287L292 222C358 267 432 295 538 295C621 295 681 273 681 220C681 153 619 108 500 108C450 108 426 118 426 140C426 156 443 165 469 165C509 165 543 141 557 87L632 112C605 185 562 239 469 239C391 239 348 198 348 140C348 70 402 34 506 34ZM186 414H814V493H186ZM228 544H776V621H228Z" transform="translate(0, 880) scale(1,-1)" /></svg>