<svg xmlns="http://www.w3.org/2000/svg" width="1000" height="1000"><path d="M728 576 783 520C842 557 905 606 905 671C905 734 824 769 709 769C618 769 557 760 511 750V844H432V734L414 727L442 655C523 678 612 694 702 694C770 694 820 684 820 661C820 634 789 611 728 576ZM255 531C397 531 493 540 603 558L579 632C479 616 365 606 242 606C204 606 181 612 181 629C181 648 206 693 226 726L162 759C126 709 98 657 98 609C98 554 146 531 255 531ZM136 422 174 348C257 385 374 419 568 419C776 419 823 371 823 297C823 198 737 161 605 161C503 161 412 164 310 172L300 94C402 86 503 85 605 85C809 85 903 164 903 297C903 408 847 497 568 497C341 497 222 459 136 422ZM114 -61H886V15H114ZM460 -23H540V393H460ZM297 240H703V318H297ZM196 121V471H116V121Z" transform="translate(0, 880) scale(1,-1)" /></svg>