<svg xmlns="http://www.w3.org/2000/svg" width="1000" height="1000"><path d="M497 692 572 712C558 750 533 795 507 831L433 811C457 777 485 729 497 692ZM814 546 892 520C913 566 922 596 922 621C922 703 818 742 587 742C418 742 265 713 165 676V725H83V538H165V609C277 641 433 662 587 662C782 662 837 642 837 614C837 597 831 580 814 546ZM669 336C653 310 633 284 609 257L648 190C770 209 812 186 812 155C812 105 654 65 481 50L517 -23C720 6 894 40 894 156C894 243 820 279 716 270L804 378L736 425L722 416C203 395 82 290 82 205C82 145 123 104 198 104C346 104 536 307 706 529L641 575L619 565H166V486H564C451 332 290 183 196 183C172 183 160 191 160 206C160 234 237 309 669 336ZM512 -90 587 -52C563 4 517 83 473 143L403 106C446 49 487 -30 512 -90Z" transform="translate(0, 880) scale(1,-1)" /></svg>