<svg xmlns="http://www.w3.org/2000/svg" width="1000" height="1000"><path d="M34 -25 103 -67C216 110 223 303 223 824H146C146 301 141 141 34 -25ZM295 -51H843C929 -51 947 12 954 98L877 101C873 25 868 16 831 16L306 21C276 21 271 30 271 76V368H196V77C196 -23 219 -51 295 -51ZM41 547 67 475C155 492 256 525 330 576L296 648C232 598 131 567 41 547ZM422 834 380 779C426 757 476 729 502 710L546 768C518 787 467 814 422 834ZM405 464 471 445 601 667 541 704 527 695H331V628H491ZM618 553 333 471 355 403 642 490ZM601 395 649 337C759 423 848 503 944 618L884 666L853 624H734C769 676 807 743 843 811L773 843C733 759 692 693 651 637C642 626 631 618 619 612L648 549L666 558H790C739 503 671 444 601 395ZM783 240 804 171C896 187 940 234 939 290C939 368 853 406 698 406C555 406 413 383 313 355L326 282C427 308 569 330 698 330C810 330 860 310 860 290C860 263 831 245 783 240ZM471 281V208H739V281ZM338 154V79H891V154Z" transform="translate(0, 880) scale(1,-1)" /></svg>