<svg xmlns="http://www.w3.org/2000/svg" width="1000" height="1000"><path d="M130 56C176 56 218 64 250 70L233 146C206 140 173 137 146 137C120 137 105 146 105 201C105 283 110 378 119 490L39 494C30 382 24 285 24 198C24 96 55 56 130 56ZM233 229C264 229 304 236 328 243L312 321C294 316 263 311 244 311C228 311 222 327 222 368V746H142V354C142 257 178 229 233 229ZM951 673 878 710C823 621 763 542 696 465L743 396L762 403H822L616 282L688 228L984 414L931 490L912 481H807C852 532 904 601 951 673ZM635 -72C891 -72 970 20 970 124C970 235 892 294 720 294C611 294 529 282 444 266L460 188C543 202 622 214 720 214C840 214 890 184 890 124C890 59 832 6 635 6C482 6 423 31 423 51C423 66 446 81 532 81C604 81 618 72 618 59C618 41 584 18 502 -2L546 -61C634 -34 708 -1 708 59C708 119 653 155 532 155C407 155 344 108 344 51C344 -14 409 -72 635 -72ZM270 722 300 649C454 681 608 726 757 780L701 845C582 801 413 750 270 722ZM889 619 881 699C577 642 277 558 277 423C277 358 321 312 413 312C549 312 641 383 641 505C641 589 605 669 511 750L441 706C527 626 561 560 561 505C561 426 490 389 411 391C374 392 358 402 358 423C358 505 604 566 889 619Z" transform="translate(0, 880) scale(1,-1)" /></svg>