<svg xmlns="http://www.w3.org/2000/svg" width="1000" height="1000"><path d="M70 121H148V733H70ZM228 211H305V733H228ZM616 -68C835 -68 959 25 959 166C959 295 885 365 701 365C648 365 594 358 554 349C586 398 631 488 657 567L576 583C554 502 503 389 456 324L434 314L469 240C529 267 606 285 701 285C827 285 878 247 878 166C878 54 732 10 616 10C536 10 499 25 499 54C499 81 528 97 570 97C627 97 666 69 678 -18L760 -4C742 100 684 173 570 173C479 173 419 128 419 54C419 -29 484 -68 616 -68ZM300 473 369 430C451 544 517 682 549 828L470 841C437 699 373 563 300 473ZM403 637 444 565C526 627 634 676 729 676C811 676 851 642 851 589C851 513 808 465 564 498V418C872 380 931 473 931 589C931 702 863 756 729 756C596 756 483 692 403 637Z" transform="translate(0, 880) scale(1,-1)" /></svg>