<svg xmlns="http://www.w3.org/2000/svg" width="1000" height="1000"><path d="M41 506V427H289V506ZM126 741V99H204V741ZM29 83 60 11 306 109 275 181ZM318 -43H916V37H318ZM573 99C644 99 663 135 663 198V583H584V206C584 185 576 177 561 176C541 175 495 185 445 202V113C489 104 529 99 573 99ZM271 268 335 224C400 300 446 421 471 519L393 540C372 447 331 340 271 268ZM894 218 972 247C947 327 889 453 826 546L752 517C814 421 871 297 894 218ZM731 620 786 683C723 727 596 792 516 820L469 756C552 728 666 667 731 620Z" transform="translate(0, 880) scale(1,-1)" /></svg>