<svg xmlns="http://www.w3.org/2000/svg" width="1000" height="1000"><path d="M28 273 102 227C191 329 271 453 334 579L256 610C196 483 119 367 28 273ZM45 545 113 499C192 577 267 671 326 767L254 802C198 706 127 617 45 545ZM162 432V-57H240V432ZM538 -60H809C889 -60 910 -18 925 132L846 139C839 40 829 20 794 20H560C536 20 528 26 528 37C528 57 542 71 814 241L761 317L737 303H681L838 482L777 536L758 524C459 501 286 407 286 296C286 235 330 194 391 194C492 194 551 276 794 723L730 762L712 752H493V672H679C490 325 441 274 391 274C374 274 365 282 365 296C365 342 483 418 697 435L561 282L599 223H638C454 117 428 85 428 29C428 -27 461 -60 538 -60ZM314 507 378 459C466 571 532 689 587 821L510 844C461 723 394 604 314 507ZM890 211 965 239C948 301 916 384 885 442L815 413C846 352 875 273 890 211Z" transform="translate(0, 880) scale(1,-1)" /></svg>