<svg xmlns="http://www.w3.org/2000/svg" width="1000" height="1000"><path d="M346 440 37 313 68 233 376 369ZM183 -69C234 -69 271 -45 271 32V701H193V46C193 22 185 9 164 9C141 9 117 13 86 27V-57C119 -66 151 -69 183 -69ZM67 707 80 627C165 636 287 663 370 702L344 779C270 742 155 718 67 707ZM383 526V446H921V526ZM481 550 553 584C533 641 493 724 455 785L387 754C424 693 463 608 481 550ZM613 494H691V841H613ZM744 580 812 550C845 603 889 689 921 761L846 792C822 724 777 636 744 580ZM697 -25 753 -95C864 -65 954 7 954 130C954 270 841 331 666 331C457 331 345 231 345 99C345 -4 419 -64 510 -64C700 -64 791 173 808 417L728 422C716 177 623 18 513 18C459 18 425 43 425 99C425 160 509 252 666 252C775 252 875 209 875 130C875 52 795 -5 697 -25ZM625 19 685 80C600 151 580 239 594 425L515 432C498 236 528 86 625 19Z" transform="translate(0, 880) scale(1,-1)" /></svg>