<svg xmlns="http://www.w3.org/2000/svg" width="1000" height="1000"><path d="M40 547 106 487C204 592 263 700 311 817L230 838C192 741 131 638 40 547ZM317 566 390 525C441 590 500 679 544 760L481 798L468 786H231V706H420C390 656 355 609 317 566ZM128 23H207V328H578V590H231V510H500V408H207V446H128ZM837 418 904 470C861 548 801 633 745 693L684 648C740 584 799 493 837 418ZM722 333C540 333 248 180 91 12L154 -44C308 132 594 258 722 258C818 258 845 219 845 170C845 91 766 31 622 8L667 -78C838 -19 922 50 922 170C922 267 867 333 722 333Z" transform="translate(0, 880) scale(1,-1)" /></svg>