<svg xmlns="http://www.w3.org/2000/svg" width="1000" height="1000"><path d="M87 652H913V730H561L507 826L429 809L473 730H87ZM113 346 495 394 482 472 100 424ZM235 417 306 380C370 428 433 491 484 553L419 607L397 596H116V518H345C316 483 280 452 235 417ZM674 411H754V613H674ZM894 444H534V365H894ZM446 -88C498 -88 553 -57 553 -1V133C661 166 771 214 849 261L804 317L787 313H129V235H653C603 213 545 192 473 173V12C473 -7 458 -19 433 -19C380 -19 325 -14 271 4V-73C328 -85 375 -88 446 -88ZM939 57 959 142C738 158 444 159 55 140V60C439 77 734 72 939 57Z" transform="translate(0, 880) scale(1,-1)" /></svg>