<svg xmlns="http://www.w3.org/2000/svg" width="1000" height="1000"><path d="M88 90H165V745H88ZM234 186H312V745H234ZM449 449H823V527H449ZM496 -79H825C887 -79 916 -32 931 99L853 109C845 23 832 -1 805 -1H524C499 -1 488 6 488 17C488 34 504 52 874 292L829 358L810 350H388V272L688 273C410 94 384 59 384 8C384 -43 412 -79 496 -79ZM628 701 703 720C688 764 661 815 633 854L560 834C587 794 615 741 628 701ZM817 537 896 509C918 558 928 589 928 620C928 709 848 748 696 748C577 748 449 726 358 700L379 622C466 647 593 667 696 667C810 667 842 644 842 614C842 594 836 574 817 537Z" transform="translate(0, 880) scale(1,-1)" /></svg>