<svg xmlns="http://www.w3.org/2000/svg" width="1000" height="1000"><path d="M13 276 87 230C178 329 259 451 322 574L245 606C184 482 105 367 13 276ZM30 542 98 495C178 571 255 664 314 758L243 793C185 699 113 612 30 542ZM149 430V-49H228V430ZM419 689 458 624C528 680 597 708 685 708C759 708 780 671 780 619C780 561 760 501 716 438L779 400C830 475 859 541 859 619C859 739 800 789 685 789C581 789 500 750 419 689ZM294 -38H967V42H294ZM638 32 709 0C794 88 879 193 879 316C879 432 792 472 628 447V369C752 380 799 373 799 316C799 219 726 123 638 32ZM480 6V782H401V6Z" transform="translate(0, 880) scale(1,-1)" /></svg>