<svg xmlns="http://www.w3.org/2000/svg" width="1000" height="1000"><path d="M160 33C212 33 261 43 300 54L279 130C247 121 210 114 179 114C152 114 135 128 135 182C135 269 142 369 153 487L73 493C62 375 54 270 54 178C54 77 85 33 160 33ZM283 215C320 215 363 223 394 234L375 312C350 304 319 298 296 298C277 298 270 314 270 355V760H190V340C190 243 226 215 283 215ZM945 -59 980 17C804 72 656 110 523 137C652 185 794 242 882 280L844 362L818 351C686 382 586 401 471 420L433 341C554 324 631 312 717 294C639 256 535 210 432 171C411 164 390 169 355 172L316 96C531 55 739 4 945 -59ZM540 658V578H939V658ZM580 367V825H501V367Z" transform="translate(0, 880) scale(1,-1)" /></svg>