<svg xmlns="http://www.w3.org/2000/svg" width="1000" height="1000"><path d="M55 -39 120 -83C224 70 246 297 246 462V717H867V794H169V488C169 332 160 115 55 -39ZM888 -71 934 3C740 119 622 339 465 339C371 339 291 272 291 155C291 43 354 -33 449 -33C612 -33 833 217 833 384C833 485 750 552 602 552C453 552 335 527 226 497L236 422C343 452 465 472 602 472C700 472 748 438 748 384C748 234 542 47 452 47C404 47 367 81 368 155C369 213 403 263 465 263C571 263 697 49 888 -71Z" transform="translate(0, 880) scale(1,-1)" /></svg>