<svg xmlns="http://www.w3.org/2000/svg" width="1000" height="1000"><path d="M87 90H165V745H87ZM240 186H317V745H240ZM330 -56H922V24H330ZM514 20H650C703 64 724 151 724 228C724 320 681 363 608 363C550 363 493 320 493 245C493 166 544 125 608 125C624 125 638 128 650 136C629 80 585 38 514 20ZM332 707 371 637C439 681 544 732 683 732C808 732 847 689 847 624C847 515 696 504 466 538V452C723 427 928 439 928 624C928 730 870 812 683 812C510 812 400 752 332 707ZM691 292V630H614V322ZM608 195C583 195 563 217 563 245C563 273 583 295 608 295C635 295 654 273 654 245C654 217 635 195 608 195Z" transform="translate(0, 880) scale(1,-1)" /></svg>