<svg xmlns="http://www.w3.org/2000/svg" width="1000" height="1000"><path d="M67 120H144V727H67ZM216 209H293V727H216ZM608 -75C664 -75 691 -50 691 20V734H612V31C612 8 606 1 581 1C552 1 518 10 478 23V-61C515 -69 558 -75 608 -75ZM459 407 534 431C523 488 493 578 463 646L386 627C416 556 448 465 459 407ZM962 264 977 347C817 376 604 377 324 346V270C601 298 814 291 962 264ZM370 761 382 680C554 686 763 717 903 756L875 829C757 796 544 770 370 761ZM757 430 827 409C855 468 891 563 919 642L835 665C816 593 785 492 757 430Z" transform="translate(0, 880) scale(1,-1)" /></svg>