<svg xmlns="http://www.w3.org/2000/svg" width="1000" height="1000"><path d="M497 692 576 712C560 758 532 811 504 852L428 831C454 791 484 735 497 692ZM811 522 890 494C913 544 923 577 923 608C923 697 818 739 587 739C416 739 263 708 164 666V722H84V512H164V597C276 634 433 658 587 658C782 658 836 635 836 602C836 582 831 561 811 522ZM165 513V434H836V513ZM347 324 425 346C408 420 373 535 341 616L265 595C296 516 330 399 347 324ZM566 343 640 322C670 393 708 503 735 594L656 616C634 527 596 416 566 343ZM539 3V351H459V3ZM142 156H856V234H142ZM917 35H82V-43H917Z" transform="translate(0, 880) scale(1,-1)" /></svg>