<svg xmlns="http://www.w3.org/2000/svg" width="1000" height="1000"><path d="M510 754H131V470C131 325 123 122 35 -23L103 -60C196 92 209 317 209 470V677H943V754H595L551 845L476 827ZM374 -66C520 -66 586 47 586 181C586 290 552 376 405 432L360 368C482 323 504 259 504 181C504 90 451 12 374 12C337 12 315 35 315 67C315 132 366 201 544 264L509 332C302 266 231 170 231 67C231 -20 287 -66 374 -66ZM244 398 271 329C372 358 479 400 576 455L533 516C448 469 342 425 244 398ZM231 543 260 476C361 503 472 548 570 603L527 664C438 616 330 569 231 543ZM624 190H948V268H624ZM750 -62C800 -62 835 -46 835 25V651H760L762 37C762 19 760 13 744 13C712 13 676 18 631 33V-47C675 -57 713 -62 750 -62ZM632 409H931V485H632Z" transform="translate(0, 880) scale(1,-1)" /></svg>