<svg xmlns="http://www.w3.org/2000/svg" width="1000" height="1000"><path d="M94 90H172V745H94ZM245 186H322V745H245ZM466 446 544 418C609 540 663 680 697 816L614 834C583 702 532 563 466 446ZM817 470 895 436C916 483 926 519 926 561C926 657 853 703 697 703C566 703 435 661 350 619L382 540C461 581 583 618 697 618C809 618 842 590 842 556C842 529 835 506 817 470ZM437 460V380H749V258H469V306H390V83C390 -35 428 -60 535 -60H794C898 -60 931 -2 947 171L868 185C858 35 840 20 778 20H540C482 20 469 33 469 83V178H828V460Z" transform="translate(0, 880) scale(1,-1)" /></svg>