<svg xmlns="http://www.w3.org/2000/svg" width="1000" height="1000"><path d="M143 507 221 484C278 556 343 673 374 762L308 799L291 791H65V713H264C239 647 199 576 143 507ZM348 338C348 470 259 510 126 526V448C223 434 268 394 268 338C268 210 192 86 63 -13L121 -72C266 47 348 196 348 338ZM530 17 640 -10C719 47 756 160 756 263C756 360 710 419 627 419C557 419 500 370 500 282C500 191 559 146 627 146C638 146 648 147 660 151C640 89 596 37 530 17ZM381 -51H930V29H381ZM627 219C598 219 574 245 574 282C574 321 598 343 627 343C657 343 681 321 681 282C681 245 657 219 627 219ZM397 422 468 390C514 467 543 553 564 638L483 655C469 578 442 497 397 422ZM713 323V755H634V388ZM400 715H910V795H400ZM844 390 919 424C899 502 868 578 821 662L753 632C799 545 826 469 844 390Z" transform="translate(0, 880) scale(1,-1)" /></svg>