<svg xmlns="http://www.w3.org/2000/svg" width="1000" height="1000"><path d="M729 595 783 535C842 570 905 618 905 681C905 741 824 777 709 777C618 777 557 768 511 758V843H432V744L414 738L442 663C523 684 612 700 702 700C770 700 820 691 820 670C820 646 790 628 729 595ZM255 544C397 544 493 553 603 569L579 645C479 631 365 621 242 621C204 621 181 627 181 642C181 659 206 702 226 731L162 764C126 718 98 667 98 621C98 569 146 544 255 544ZM150 266 187 184 216 192H874V271H282C354 337 434 414 501 514L420 547C360 448 256 337 205 291C189 277 173 270 150 266ZM68 -3 138 -50C209 -4 286 65 335 135L254 163C212 102 142 40 68 -3ZM508 -81C557 -81 586 -58 586 7V353H506V19C506 2 500 -7 484 -7C447 -6 410 1 369 13V-68C416 -76 465 -81 508 -81ZM870 -42 943 -3C901 44 812 114 731 164L662 127C740 76 830 4 870 -42ZM77 384H917V463H77Z" transform="translate(0, 880) scale(1,-1)" /></svg>