<svg xmlns="http://www.w3.org/2000/svg" width="1000" height="1000"><path d="M169 36C216 36 259 44 291 51L275 127C247 122 213 117 185 117C159 117 144 127 144 182C144 263 149 358 159 469L79 473C69 362 63 265 63 178C63 77 94 36 169 36ZM276 209C308 209 348 216 374 224L357 302C338 297 307 291 287 291C270 291 264 307 264 348V724H184V334C184 237 220 209 276 209ZM334 696 377 626C462 691 550 731 681 731C806 731 845 697 845 629C845 540 794 501 477 536V455C811 425 925 471 925 629C925 731 869 811 681 811C525 811 420 763 334 696ZM320 112H928V192H320ZM557 -72C632 -72 673 -35 673 48V633H594V66C594 26 582 6 549 6C518 6 482 13 446 27V-59C478 -68 513 -72 557 -72ZM345 266H902V346H345Z" transform="translate(0, 880) scale(1,-1)" /></svg>