<svg xmlns="http://www.w3.org/2000/svg" width="1000" height="1000"><path d="M219 -62C389 -62 463 117 463 260C463 380 397 501 224 556L193 494C332 444 382 346 382 260C382 154 327 17 219 17C175 17 144 42 144 103C144 217 261 305 482 437L429 492C212 367 59 243 59 103C59 -16 124 -62 219 -62ZM234 529 293 505C367 578 454 681 503 755L443 792L425 784H88V708H376C336 646 282 578 234 529ZM693 -69H799C904 -69 925 -15 937 159L859 184C852 39 844 7 788 7H708C652 7 641 20 641 70V806H563V71C563 -40 588 -69 693 -69Z" transform="translate(0, 880) scale(1,-1)" /></svg>