<svg xmlns="http://www.w3.org/2000/svg" width="1000" height="1000"><path d="M501 53C801 53 914 177 914 273C914 369 845 455 545 455C356 455 222 428 67 360L106 300C226 355 370 387 545 387C773 387 828 323 828 273C828 213 728 126 501 126C325 126 266 142 266 177C266 211 347 237 467 237C573 237 656 201 716 138L791 187C702 265 601 307 467 307C294 307 182 250 182 177C182 102 259 53 501 53ZM455 -79H534V413H455ZM212 521 788 520V589H212ZM59 660H937V732H553L513 835L441 818L470 732H59Z" transform="translate(0, 880) scale(1,-1)" /></svg>