<svg xmlns="http://www.w3.org/2000/svg" width="1000" height="1000"><path d="M51 110H127V717H51ZM180 199H256V717H180ZM618 739H317V470C317 323 310 118 242 -28L318 -60C389 92 395 317 395 470V660H961V739H701L661 847L585 829ZM363 120 415 54C544 132 706 239 815 323L766 381C657 298 498 193 363 120ZM526 -71H604V638H526ZM924 41 972 112C900 160 822 200 737 232L701 173C781 137 856 93 924 41ZM402 407H950V486H402ZM737 -80C801 -80 824 -60 824 -7L826 638H748L746 20C746 3 741 -3 731 -3C710 -3 682 3 655 11V-70C677 -76 707 -80 737 -80Z" transform="translate(0, 880) scale(1,-1)" /></svg>