<svg xmlns="http://www.w3.org/2000/svg" width="1000" height="1000"><path d="M261 308C400 308 524 393 524 494C524 568 493 647 320 729L252 704C412 620 443 546 443 501C443 426 350 375 259 375C184 376 137 403 137 430C137 463 197 498 253 513C371 546 576 573 733 568V395H597V327L953 325V395H817V629L755 649L737 639C553 639 347 610 218 573C134 548 59 502 59 434C59 360 126 308 261 308ZM147 718 179 652C362 682 541 725 717 779L651 840C512 796 314 746 147 718ZM572 -80C751 -80 816 26 816 168C816 252 758 301 605 301C506 301 408 293 306 279L311 219C414 229 517 235 605 235C679 235 734 216 734 168C734 58 678 -19 558 -19C486 -19 421 -14 360 0V-69C420 -76 482 -80 572 -80ZM660 78 662 142 356 146 353 81ZM379 300 295 305C262 163 206 63 135 -23L207 -63C282 31 344 147 379 300Z" transform="translate(0, 880) scale(1,-1)" /></svg>