<svg xmlns="http://www.w3.org/2000/svg" width="1000" height="1000"><path d="M472 635 540 594C641 642 778 723 839 776L774 823L756 817H187V748H679C636 712 566 677 472 635ZM690 380C849 380 907 455 907 526C907 618 790 651 585 651C411 651 230 631 118 615L139 550C258 565 437 584 585 584C746 584 831 568 831 526C831 480 790 443 685 443C611 443 548 448 496 459V390C544 383 591 380 690 380ZM445 -57C518 -57 556 -27 556 36V530H477V53C477 25 467 10 432 10C388 10 350 17 305 32V-43C349 -54 399 -57 445 -57ZM61 37 121 -15C251 64 346 168 384 267L312 294C266 193 193 111 61 37ZM946 9 974 81C743 135 515 177 282 206L266 140C498 111 730 63 946 9ZM82 264H918V337H82ZM157 434 186 371 408 451 379 514Z" transform="translate(0, 880) scale(1,-1)" /></svg>