<svg xmlns="http://www.w3.org/2000/svg" width="1000" height="1000"><path d="M107 -36 188 -28C139 103 129 197 156 277C189 366 192 435 143 510L65 492C110 411 112 351 83 282C51 206 57 103 107 -36ZM203 583 249 650C211 678 138 721 84 750L40 690C94 658 167 611 203 583ZM262 523H918V603H262ZM225 -46H962V34H225ZM505 9 610 -16C676 35 731 144 731 280C731 369 669 420 570 420C471 420 409 369 409 280C409 191 471 140 570 140C595 140 614 144 632 152C612 89 557 28 505 9ZM570 216C519 216 491 241 491 280C491 319 519 344 570 344C621 344 648 319 648 280C648 241 621 216 570 216ZM702 661 739 737C682 764 557 812 471 838L435 770C516 747 643 691 702 661ZM692 562H612V387L692 312Z" transform="translate(0, 880) scale(1,-1)" /></svg>