<svg xmlns="http://www.w3.org/2000/svg" width="1000" height="1000"><path d="M48 579 120 534C211 610 281 718 322 824L243 850C202 744 131 643 48 579ZM244 571H848V648H244ZM237 702H907V779H237ZM824 348 902 323C923 369 932 395 932 419C932 506 832 538 590 538C418 538 263 512 139 478L159 404C273 435 433 461 590 461C790 461 847 441 847 414C847 398 841 381 824 348ZM376 6 483 -21C572 9 614 72 614 139C614 206 561 244 464 244C382 244 316 211 316 151C316 88 386 58 464 58C477 58 488 59 502 60C484 41 439 16 376 6ZM112 -61H896V17H112ZM464 122C426 122 394 132 394 151C394 169 426 177 464 177C502 177 534 169 534 151C534 132 502 122 464 122ZM151 169 211 121C270 157 315 196 348 236L274 277C249 242 209 205 151 169ZM566 172V334H487V209ZM140 295H868V373H140ZM798 121 865 170C837 204 788 242 725 281L669 234C730 193 772 155 798 121Z" transform="translate(0, 880) scale(1,-1)" /></svg>