<svg xmlns="http://www.w3.org/2000/svg" width="1000" height="1000"><path d="M149 -33C251 -33 304 113 304 253C304 361 257 470 154 518L125 446C201 403 228 329 228 253C228 152 197 46 149 46C128 46 117 60 117 99C117 183 176 281 307 393L264 457C127 349 40 220 40 99C40 1 82 -33 149 -33ZM151 492 210 462C254 528 300 621 324 688L261 724L248 715H67V637H220C202 589 175 534 151 492ZM600 -68C670 -68 689 -35 689 26V546H611V39C611 18 603 10 590 10C563 9 521 19 483 35V-55C523 -64 559 -68 600 -68ZM315 115 386 77C448 161 488 302 511 414L429 427C412 325 374 196 315 115ZM321 484 395 446C457 546 504 689 532 828L453 840C425 702 376 568 321 484ZM896 68 975 91C952 181 900 326 840 433L764 411C823 301 874 158 896 68ZM441 628H917V708H441Z" transform="translate(0, 880) scale(1,-1)" /></svg>