<svg xmlns="http://www.w3.org/2000/svg" width="1000" height="1000"><path d="M588 730 509 764C412 654 242 553 76 478L130 425C300 505 482 617 588 730ZM531 400V325C795 296 872 367 872 465C872 561 792 607 654 607C558 607 470 580 404 526V590H325V336H404V474C496 522 572 539 652 539C744 539 788 507 788 465C788 407 739 373 531 400ZM117 720H890V794H117ZM455 -85C516 -85 551 -63 551 2V430H470V2C470 -16 463 -22 444 -22C404 -22 349 -11 300 2V-73C344 -81 403 -85 455 -85ZM616 24H924V92H793V312H718V92H616ZM242 167C269 204 298 251 327 301L266 329C203 215 129 131 59 83L119 37C140 58 166 82 185 93C199 101 221 102 234 99C248 96 263 79 273 41L412 98L387 148L305 124C300 146 277 160 242 167Z" transform="translate(0, 880) scale(1,-1)" /></svg>