<svg xmlns="http://www.w3.org/2000/svg" width="1000" height="1000"><path d="M37 587V508H329V587ZM18 192 86 158 98 174 330 262 305 339 136 272 219 518 148 541ZM166 -60C212 -60 248 -39 248 27V780H170V51C170 29 164 16 145 16C125 16 100 22 67 37V-48C101 -57 133 -60 166 -60ZM368 407 408 328 431 337H914V417H477C538 532 597 664 646 817L566 838C525 689 444 519 408 448C397 426 385 414 368 407ZM313 8 383 -38C436 31 492 136 528 241L449 259C418 165 367 71 313 8ZM632 -75C680 -75 709 -51 709 17V560H630V29C630 11 626 3 611 3C579 2 547 9 512 23V-62C552 -70 595 -75 632 -75ZM905 -26 978 9C947 79 882 185 822 261L752 229C810 151 876 43 905 -26ZM328 629H945V709H328Z" transform="translate(0, 880) scale(1,-1)" /></svg>