<svg xmlns="http://www.w3.org/2000/svg" width="1000" height="1000"><path d="M37 602V522H348V602ZM18 210 85 175 97 191 350 279 326 356 139 288 228 532 158 557ZM175 -42C222 -42 259 -21 259 45V793H181V69C181 47 174 34 155 34C133 34 107 40 71 55V-30C108 -39 141 -42 175 -42ZM383 748V-15H462V674C622 685 795 710 912 754L867 830C758 786 556 759 383 748ZM710 -54 780 -98C857 41 886 190 886 327C886 463 826 528 687 528C564 528 478 475 406 399L444 324C529 411 609 447 687 447C750 447 806 424 806 327C806 196 779 70 710 -54ZM927 70 977 142C888 204 778 268 645 335L605 268C727 205 833 140 927 70Z" transform="translate(0, 880) scale(1,-1)" /></svg>