<svg xmlns="http://www.w3.org/2000/svg" width="1000" height="1000"><path d="M169 788V-56H248V788ZM24 302 95 282C110 353 123 437 136 523L64 532C53 445 38 366 24 302ZM72 423 84 349 330 387 318 461ZM853 -80 928 -41C895 47 826 180 760 279L689 247C750 152 817 15 853 -80ZM673 373V831H594V373ZM326 581H945V661H326ZM912 412H356V331H912ZM634 346 553 377C504 254 446 142 394 56C383 40 372 28 357 23L386 -56L407 -46L837 6L821 83L471 43C527 129 584 233 634 346Z" transform="translate(0, 880) scale(1,-1)" /></svg>