<svg xmlns="http://www.w3.org/2000/svg" width="1000" height="1000"><path d="M30 602V522H326V602ZM10 208 78 174 90 190 327 278 303 355 130 288 214 533 143 556ZM161 -43C207 -43 243 -22 243 44V793H165V68C165 46 159 33 140 33C120 33 94 39 60 54V-31C95 -40 128 -43 161 -43ZM315 634H961V714H696L650 839L573 821L611 714H315ZM653 491C556 491 464 466 376 425L406 346C491 391 572 411 653 411C731 411 752 382 752 334C752 194 561 24 468 24C429 24 403 55 403 115C403 165 428 205 491 205C592 205 727 44 920 -77L974 -15C783 100 634 283 491 283C390 283 323 222 323 115C323 16 374 -56 468 -56C605 -56 832 149 832 334C832 443 784 491 653 491ZM335 386 403 332C491 427 570 545 637 665L562 697C499 577 420 471 335 386ZM915 374 981 422C933 495 879 558 822 613L757 570C815 513 868 448 915 374Z" transform="translate(0, 880) scale(1,-1)" /></svg>