<svg xmlns="http://www.w3.org/2000/svg" width="1000" height="1000"><path d="M157 -49C205 -49 237 -26 237 38V797H159V51C159 36 154 29 143 29C119 29 90 36 58 51V-38C89 -45 122 -49 157 -49ZM52 549H298V624H52ZM316 386 275 448 26 269 70 203ZM734 -59C877 -59 950 78 950 274C950 475 854 548 689 548C661 548 635 546 611 542C692 603 784 676 860 741L802 800L783 792H374V712H702C637 647 561 588 463 518C447 507 393 481 349 455L393 385C477 437 568 468 675 468C793 468 871 427 871 272C871 147 823 21 730 21C685 21 644 31 601 52V-39C642 -53 685 -59 734 -59ZM307 155 374 97C481 182 563 290 603 409L524 430C489 320 412 228 307 155ZM369 -2 434 -60C583 27 716 204 756 407L677 424C636 226 516 78 369 -2Z" transform="translate(0, 880) scale(1,-1)" /></svg>