<svg xmlns="http://www.w3.org/2000/svg" width="1000" height="1000"><path d="M173 -47C286 -47 341 114 341 262C341 377 290 494 177 547L146 474C232 427 264 343 264 262C264 155 230 33 173 33C148 33 133 49 133 94C133 190 202 294 348 418L301 481C151 363 54 225 54 94C54 -12 101 -47 173 -47ZM174 519 236 487C285 559 339 662 365 735L302 770L288 760H80V682H260C237 628 203 566 174 519ZM741 -65C871 -65 937 44 937 228C937 399 847 467 704 467C668 467 639 463 615 458C671 518 779 642 868 755L809 805L793 797H448V717H737C680 633 578 512 500 435C487 423 424 392 383 366L432 295C505 347 598 386 692 386C791 386 858 345 858 228C858 101 824 15 735 15C689 15 644 23 600 43V-46C642 -60 690 -65 741 -65ZM365 542H925V622H365ZM346 121 413 70C510 137 587 227 622 321L541 343C509 255 440 177 346 121ZM401 -5 466 -55C601 23 729 157 765 320L687 338C650 189 531 65 401 -5Z" transform="translate(0, 880) scale(1,-1)" /></svg>