<svg xmlns="http://www.w3.org/2000/svg" width="1000" height="1000"><path d="M141 -36 221 -27C168 115 158 218 190 303C227 399 231 475 175 556L97 537C147 449 149 383 116 309C79 228 85 115 141 -36ZM248 635 297 704C256 734 177 781 118 812L71 751C130 717 209 666 248 635ZM490 123H691C748 123 786 167 786 231C786 291 759 360 714 425L643 390C692 322 706 275 706 239C706 217 695 203 670 203H497C465 203 455 217 455 253C455 350 479 438 535 580L461 607C399 460 374 356 374 232C374 163 416 123 490 123ZM833 245 910 230C922 284 931 342 931 447C931 557 874 602 779 602C698 602 636 584 576 544L603 471C656 507 720 522 779 522C830 522 853 496 853 436C853 359 845 296 833 245ZM313 723 329 648C554 674 757 714 895 758L854 830C738 789 529 747 313 723ZM923 -54 942 27C715 4 543 8 434 51C368 76 323 142 303 235L224 216C251 88 317 6 401 -25C518 -68 688 -76 923 -54Z" transform="translate(0, 880) scale(1,-1)" /></svg>