<svg xmlns="http://www.w3.org/2000/svg" width="1000" height="1000"><path d="M52 141 114 72C266 165 415 269 415 370C415 428 378 460 305 460C229 460 197 425 197 375C197 321 246 290 328 290C453 290 549 323 549 426C549 518 487 567 348 567C254 567 163 540 100 505L133 436C189 467 280 490 348 490C437 490 470 467 470 426C470 368 423 359 328 359C298 359 276 365 276 375C276 385 289 391 305 391C323 391 337 384 337 370C337 315 198 214 52 141ZM87 548V300H166V548ZM326 264V128H403V264ZM283 138 327 71 558 193 514 259ZM561 782H63V709H561ZM352 635V845H272V635ZM521 667H103V595H521ZM589 135 649 80C767 185 943 403 943 609C943 731 903 784 792 784C723 784 651 763 590 732L621 658C675 687 737 704 792 704C853 704 864 667 864 609C864 423 704 228 589 135ZM890 86 959 135C850 309 770 410 671 495L610 454C709 364 783 266 890 86ZM59 -42 124 -86C183 -45 235 8 260 58L189 95C167 47 112 -6 59 -42ZM524 -78C564 -78 602 -71 660 -38L607 25C577 6 561 2 536 2C512 2 496 18 467 81L387 63C435 -54 479 -78 524 -78ZM879 -84 946 -38C911 1 845 59 787 100L729 50C791 7 847 -48 879 -84Z" transform="translate(0, 880) scale(1,-1)" /></svg>