<svg xmlns="http://www.w3.org/2000/svg" width="1000" height="1000"><path d="M93 -36 174 -27C123 110 112 208 142 291C176 384 180 457 128 535L51 516C98 431 100 368 69 297C35 218 41 110 93 -36ZM186 612 234 679C196 708 124 753 71 783L25 724C79 691 150 642 186 612ZM465 456H544V763H465ZM256 722H932V802H256ZM646 456H725V763H646ZM185 -47 255 -86C325 13 345 160 345 261V410H947V490H266V261C266 165 250 48 185 -47ZM636 -65C681 -65 720 -57 768 -34V52C721 27 686 15 654 15C636 15 629 28 629 59V363H550V21C550 -45 582 -65 636 -65ZM922 11 983 75C906 153 813 243 730 306L674 253C755 185 847 95 922 11ZM399 296V-26H477V296ZM356 514 429 545C413 586 381 644 352 686L280 658C307 616 340 554 356 514ZM755 535 827 511C857 557 891 619 914 672L837 701C818 650 785 584 755 535Z" transform="translate(0, 880) scale(1,-1)" /></svg>