<svg xmlns="http://www.w3.org/2000/svg" width="1000" height="1000"><path d="M59 595V522H299V595ZM43 198 104 171 114 191 298 278 280 348 144 280 210 530 145 553ZM152 -50C195 -50 228 -29 228 37V797H152V61C152 39 146 27 129 27C115 27 94 32 66 47V-38C95 -47 123 -50 152 -50ZM373 -71C486 -71 561 19 561 203C561 334 531 434 406 434C359 434 312 417 283 397L304 324C331 341 369 354 406 354C466 354 481 298 481 203C481 87 438 8 373 8C351 8 339 24 339 47C339 174 652 376 765 376C830 376 855 337 855 243C855 113 828 11 740 11C694 11 647 21 597 41V-44C647 -61 692 -68 745 -68C887 -68 934 72 934 243C934 371 891 456 770 456C625 456 261 233 261 47C261 -34 313 -71 373 -71ZM785 73 804 143C743 164 681 183 619 194L601 126C665 112 724 96 785 73ZM793 201 813 272C753 291 693 305 634 315L616 248C676 237 733 221 793 201ZM430 395 500 351C583 438 642 541 642 671H564C564 555 511 475 430 395ZM463 584V504C735 481 867 510 867 668C867 782 765 822 632 822C501 822 403 792 305 738L344 668C426 713 521 741 632 741C733 741 788 715 788 668C788 582 704 564 463 584Z" transform="translate(0, 880) scale(1,-1)" /></svg>