<svg xmlns="http://www.w3.org/2000/svg" width="1000" height="1000"><path d="M155 -63C202 -63 235 -40 235 24V815H157V36C157 22 152 14 141 14C118 14 89 21 58 36V-52C88 -59 121 -63 155 -63ZM60 559H284V634H60ZM303 390 260 451 32 265 78 200ZM348 362 382 285 401 294H902V374H455C521 510 574 667 620 824L543 843C497 682 436 512 380 395C373 381 362 369 348 362ZM287 9 358 -40C412 22 470 118 506 216L427 239C396 152 344 66 287 9ZM606 -71C655 -71 693 -53 693 23V557H344V478H616V34C616 16 610 8 590 7C568 6 536 12 495 29V-58C529 -67 564 -71 606 -71ZM891 -33 961 14C928 77 861 174 802 244L735 202C793 131 859 29 891 -33ZM319 651H923V731H319Z" transform="translate(0, 880) scale(1,-1)" /></svg>