<svg xmlns="http://www.w3.org/2000/svg" width="1000" height="1000"><path d="M133 -36 213 -27C160 115 150 218 182 303C218 399 221 475 167 556L90 537C139 449 141 383 109 309C72 228 78 115 133 -36ZM228 637 277 704C238 734 165 781 111 812L64 753C119 719 191 668 228 637ZM468 17 581 -10C668 47 709 160 709 263C709 360 661 419 572 419C496 419 435 370 435 282C435 191 499 146 572 146C585 146 596 147 611 151C590 89 540 37 468 17ZM279 -51H930V29H279ZM572 219C539 219 511 245 511 282C511 321 539 343 572 343C605 343 632 321 632 282C632 245 605 219 572 219ZM305 423 376 389C431 467 465 552 490 637L407 656C390 579 359 498 305 423ZM664 323V755H585V388ZM302 715H907V795H302ZM835 389 911 425C887 503 851 579 794 663L727 631C782 544 813 468 835 389Z" transform="translate(0, 880) scale(1,-1)" /></svg>