<svg xmlns="http://www.w3.org/2000/svg" width="1000" height="1000"><path d="M54 56 105 -11C380 129 642 329 778 464L706 524L684 503H427C581 589 714 673 844 775L776 831C652 725 488 615 281 502C267 495 248 486 227 482L263 405L306 423H610C527 347 302 177 54 56ZM520 -65C575 -65 624 -57 683 -24V60C621 29 576 13 534 13C511 13 501 17 501 48V259H421V31C421 -37 453 -65 520 -65ZM894 -5 951 60C852 133 750 207 639 277L588 222C696 149 797 73 894 -5ZM372 611 433 670C376 721 298 778 224 823L166 766C244 719 318 665 372 611Z" transform="translate(0, 880) scale(1,-1)" /></svg>