<svg xmlns="http://www.w3.org/2000/svg" width="1000" height="1000"><path d="M160 -51C209 -51 240 -29 240 36V798H162V49C162 34 157 27 145 27C121 27 90 34 57 49V-40C89 -47 124 -51 160 -51ZM38 549H322V625H38ZM339 384 300 448 12 269 54 201ZM652 -68C815 -68 916 30 916 175C916 307 823 372 685 372C635 372 588 364 546 349C600 453 629 604 660 824L580 832C551 615 523 459 449 316C440 300 406 276 376 249L438 192C506 254 580 293 685 293C773 293 836 257 836 175C836 77 772 10 646 10C593 10 569 27 569 67C569 94 587 112 615 112C657 112 692 83 706 -2L781 20C753 122 710 190 615 190C536 190 490 133 490 67C490 -17 546 -68 652 -68ZM319 457H974V537H319ZM363 635H933V713H363Z" transform="translate(0, 880) scale(1,-1)" /></svg>