<svg xmlns="http://www.w3.org/2000/svg" width="1000" height="1000"><path d="M113 -36 194 -28C142 110 132 210 162 293C197 386 201 459 148 538L70 520C118 434 120 370 89 298C54 219 60 110 113 -36ZM212 616 260 683C220 712 146 758 90 788L44 728C100 695 175 646 212 616ZM277 439 305 361 327 368H939V448H375C389 523 407 629 414 717H881V797H337C334 682 313 545 300 467C297 450 287 443 277 439ZM225 40 293 -10C348 58 416 163 459 258L383 284C344 196 282 102 225 40ZM572 -65C629 -65 655 -37 655 25V642H576V37C576 20 570 12 554 12C521 12 490 20 453 34V-53C491 -60 528 -65 572 -65ZM898 -7 972 31C938 101 868 211 810 284L740 251C799 176 865 63 898 -7Z" transform="translate(0, 880) scale(1,-1)" /></svg>