<svg xmlns="http://www.w3.org/2000/svg" width="1000" height="1000"><path d="M166 822V-66H245V822ZM40 314 108 297C122 368 134 452 145 538L75 544C65 457 52 378 40 314ZM89 438 99 364 310 398 299 472ZM360 299 584 415 552 475 326 365ZM429 360V811H354V360ZM390 662V590H575V662ZM583 374 631 312C754 391 924 525 924 673C924 771 874 814 782 814C702 814 639 795 579 760L607 692C663 726 714 738 782 738C826 738 849 715 849 673C849 555 700 439 583 374ZM892 307 951 362C843 485 761 555 661 615L612 564C710 501 785 433 892 307ZM667 -7V357H591V-7ZM371 156H887V231H371ZM931 21H327V-52H931Z" transform="translate(0, 880) scale(1,-1)" /></svg>