<svg xmlns="http://www.w3.org/2000/svg" width="1000" height="1000"><path d="M365 704 283 721C227 476 131 254 36 88L112 45C206 217 308 461 365 704ZM330 28C297 28 282 41 282 70C282 115 328 218 440 330L384 375C262 265 200 141 200 70C200 -4 251 -49 330 -49C439 -49 494 28 494 197C494 366 433 434 341 434C278 434 230 415 197 377L218 304C255 338 300 355 341 355C391 355 409 299 409 197C409 63 374 28 330 28ZM61 684H523V764H61ZM655 -15 711 -82C867 16 951 144 951 304C951 442 895 514 762 514C707 514 667 499 633 475C654 551 705 641 792 777L709 818C588 625 548 515 537 430C529 364 532 298 541 229H623C602 380 641 428 760 428C834 428 864 386 864 304C864 158 803 79 655 -15Z" transform="translate(0, 880) scale(1,-1)" /></svg>