<svg xmlns="http://www.w3.org/2000/svg" width="1000" height="1000"><path d="M111 -20 191 -12C141 122 131 217 159 298C192 388 195 459 146 535L69 517C115 435 117 373 88 303C55 226 61 122 111 -20ZM197 610 244 677C207 705 140 749 89 778L44 719C95 687 162 639 197 610ZM425 150 491 107C655 260 789 420 892 577L815 626C725 472 588 297 425 150ZM945 -61 973 17C739 96 507 156 285 201L250 129C488 78 718 17 945 -61ZM504 340 570 387C527 444 453 519 384 585L321 528C396 464 459 400 504 340ZM289 727 305 649C507 663 748 697 916 747L879 824C734 776 494 743 289 727Z" transform="translate(0, 880) scale(1,-1)" /></svg>