<svg xmlns="http://www.w3.org/2000/svg" width="1000" height="1000"><path d="M106 -36 186 -28C139 99 129 189 154 265C184 352 187 418 142 490L65 473C107 395 109 337 83 271C53 197 59 99 106 -36ZM187 561 232 627C197 654 132 696 83 723L40 664C89 634 154 589 187 561ZM259 250H921V330H259ZM356 434H824V514H356ZM208 -8 266 -67C363 -6 463 77 527 165L448 204C397 127 298 45 208 -8ZM899 -64 968 -12C910 53 807 141 723 209L660 161C743 91 844 2 899 -64ZM590 676 665 697C648 747 618 807 587 853L515 831C544 786 576 723 590 676ZM834 487 913 457C937 510 948 545 948 582C948 677 856 721 665 721C519 721 349 691 251 656L276 580C369 613 536 638 665 638C819 638 861 612 861 576C861 553 855 530 834 487Z" transform="translate(0, 880) scale(1,-1)" /></svg>