<svg xmlns="http://www.w3.org/2000/svg" width="1000" height="1000"><path d="M137 -36 218 -27C167 108 157 205 186 287C219 379 223 451 172 528L95 510C142 426 144 364 114 293C80 215 86 108 137 -36ZM225 605 272 671C235 700 167 744 115 774L70 715C121 683 190 634 225 605ZM760 504C741 459 717 415 686 369L731 302C823 325 860 293 860 243C860 168 727 106 574 79L614 8C795 55 941 101 941 243C941 356 867 396 782 385L874 559L804 600L789 588C346 545 239 393 239 309C239 245 278 197 352 197C494 197 652 472 786 774L718 813L698 799H313V719H673C581 501 434 277 354 277C330 277 318 289 318 308C318 346 390 464 760 504ZM607 -89 684 -57C662 12 618 107 577 180L505 149C545 80 583 -16 607 -89Z" transform="translate(0, 880) scale(1,-1)" /></svg>