<svg xmlns="http://www.w3.org/2000/svg" width="1000" height="1000"><path d="M35 599V520H313V599ZM16 204 79 173 90 193 313 280 295 353 125 283 202 531 137 557ZM145 -47C189 -47 225 -26 225 40V797H147V64C147 42 141 30 123 30C105 30 82 35 50 50V-35C83 -44 113 -47 145 -47ZM563 538 622 485C720 560 827 667 890 755L829 805L815 799H359V719H754C712 668 646 602 563 538ZM425 229C456 291 484 360 510 430L438 456C383 307 325 190 238 127L294 75C319 92 354 124 383 153C409 157 432 135 449 74L582 144L554 212L481 182C474 203 456 219 425 229ZM576 318 537 258C694 183 829 96 927 10L981 89C878 160 742 240 576 318ZM644 355 678 287C768 324 835 354 912 410L861 478C791 425 734 392 644 355ZM581 603 510 561C597 436 649 319 649 191C649 112 635 11 574 11C539 11 505 17 472 34V-52C503 -62 540 -67 582 -67C704 -67 728 65 728 191C728 325 669 471 581 603Z" transform="translate(0, 880) scale(1,-1)" /></svg>