<svg xmlns="http://www.w3.org/2000/svg" width="1000" height="1000"><path d="M177 -60C225 -60 257 -37 257 27V797H179V40C179 26 174 18 162 18C138 18 107 25 74 40V-49C106 -56 141 -60 177 -60ZM59 546H334V622H59ZM351 380 312 444 32 262 75 195ZM514 526 578 478C689 560 789 660 867 757L808 800L792 793H381V713H724C665 646 600 587 514 526ZM749 -70C896 -70 949 61 949 283C949 486 866 560 700 560C565 560 421 518 339 480L370 411C457 447 584 479 700 479C821 479 868 404 868 283C868 109 831 8 746 8C690 8 645 16 609 31V-55C645 -66 684 -70 749 -70ZM425 134 488 85C604 179 731 320 775 389L705 432C662 361 539 222 425 134ZM692 111 755 167C688 236 588 327 519 376L460 328C532 274 632 183 692 111Z" transform="translate(0, 880) scale(1,-1)" /></svg>