<svg xmlns="http://www.w3.org/2000/svg" width="1000" height="1000"><path d="M43 89H121C115 204 111 323 125 415C133 476 163 607 216 607C253 607 271 480 262 341C258 260 249 200 229 200C212 200 214 286 239 383C251 426 269 463 297 489L258 564C218 527 178 469 156 381C113 216 146 118 223 118C305 118 329 188 339 338C352 536 327 690 217 690C173 690 144 649 121 590L134 714H54C38 418 38 261 43 89ZM311 638H945V718H684L642 830L566 812L600 718H311ZM343 447 396 385C473 457 560 501 691 501C809 501 837 469 837 424C837 337 704 332 497 359V279C727 258 916 262 916 424C916 512 860 581 691 581C534 581 426 528 343 447ZM597 -71C650 -71 682 -39 682 24V421H603V35C603 15 596 7 578 7C544 7 510 15 470 30V-55C511 -66 551 -71 597 -71ZM284 58 351 12C416 66 465 138 492 202L414 229C393 173 348 109 284 58ZM906 5 978 42C955 93 903 171 839 233L771 193C832 132 885 54 906 5Z" transform="translate(0, 880) scale(1,-1)" /></svg>