<svg xmlns="http://www.w3.org/2000/svg" width="1000" height="1000"><path d="M138 -36 218 -27C165 111 155 211 187 294C222 387 225 461 172 540L96 522C144 436 146 372 114 300C78 221 84 111 138 -36ZM244 624 285 683C245 712 170 758 114 788L75 737C131 703 205 654 244 624ZM254 100 292 35C452 124 618 256 860 486L809 539C579 313 404 177 254 100ZM593 -72C699 -72 725 38 725 191C725 319 674 456 583 601L523 557C605 436 654 294 653 191C652 104 648 3 581 3C551 3 521 9 487 21V-58C521 -67 553 -72 593 -72ZM279 358 316 296C489 413 632 607 699 821L628 842C560 624 436 460 279 358ZM906 51 961 104C882 184 788 262 704 322L667 272C749 210 831 136 906 51ZM301 657V584H938V657Z" transform="translate(0, 880) scale(1,-1)" /></svg>