<svg xmlns="http://www.w3.org/2000/svg" width="1000" height="1000"><path d="M109 -25 189 -17C142 109 132 199 158 276C188 362 193 429 145 501L67 484C110 406 112 348 85 282C55 208 60 109 109 -25ZM205 570 250 638C211 665 139 706 85 734L42 673C97 643 168 597 205 570ZM407 36V-51C456 -64 516 -70 579 -70C795 -70 943 -6 943 197C943 379 811 442 600 442C558 442 526 439 496 433C581 489 615 565 615 667H536C536 568 480 477 374 413C351 398 324 390 299 381L338 311C415 342 519 365 600 365C756 365 864 325 864 197C864 63 742 8 578 8C508 8 449 18 407 36ZM300 283V207H690V283ZM292 160V81H702V160ZM403 589V509C704 480 890 505 890 663C890 778 761 812 612 812C433 812 328 777 214 722L250 653C344 698 466 734 612 734C736 734 809 705 809 663C809 583 695 552 403 589Z" transform="translate(0, 880) scale(1,-1)" /></svg>