<svg xmlns="http://www.w3.org/2000/svg" width="1000" height="1000"><path d="M61 601V528H347V601ZM43 214 105 184 116 204 348 290 330 362 153 293 233 536 169 560ZM175 -32C220 -32 255 -11 255 55V798H179V79C179 57 172 44 153 44C134 44 110 50 78 65V-20C111 -29 143 -32 175 -32ZM336 703H921V783H336ZM399 181 477 203C460 294 427 435 396 545L322 525C352 417 384 272 399 181ZM659 216 737 234C724 327 700 466 674 575L600 560C623 451 648 309 659 216ZM688 45 760 25C832 191 889 388 926 565L842 581C811 403 758 209 688 45ZM496 22H574V740H496ZM937 55H316V-25H937Z" transform="translate(0, 880) scale(1,-1)" /></svg>