<svg xmlns="http://www.w3.org/2000/svg" width="1000" height="1000"><path d="M153 -51C201 -51 233 -28 233 36V804H155V49C155 35 150 27 139 27C115 27 86 34 54 49V-40C85 -47 118 -51 153 -51ZM48 554H294V629H48ZM312 389 271 451 22 270 66 204ZM855 531 929 503C950 556 958 589 958 617C958 711 881 735 697 735C551 735 411 702 323 659L351 584C443 629 571 655 697 655C844 655 878 638 878 611C878 592 873 571 855 531ZM644 126 693 68C774 130 867 212 946 300L881 352C808 269 717 184 644 126ZM641 310 690 256C754 309 820 370 891 447L825 500C763 427 698 360 641 310ZM485 -55H826C910 -55 937 -15 945 149L866 159C862 44 850 25 807 25H506C462 25 430 33 430 68C430 106 444 137 700 436L639 495L621 482H523C572 572 630 694 682 817L607 842C550 706 462 520 399 436L463 386L479 402H566C359 154 350 120 350 61C350 -4 390 -55 485 -55Z" transform="translate(0, 880) scale(1,-1)" /></svg>