<svg xmlns="http://www.w3.org/2000/svg" width="1000" height="1000"><path d="M61 609V529H342V609ZM42 216 110 184 122 199 342 285 317 362 160 297 238 540 167 563ZM185 -32C230 -32 266 -11 266 55V798H188V79C188 57 182 44 163 44C144 44 120 50 88 65V-20C121 -29 153 -32 185 -32ZM336 703H921V783H336ZM399 181 477 203C460 294 427 435 396 545L322 525C352 417 384 272 399 181ZM602 216 680 234C667 327 643 466 617 575L543 560C566 451 591 309 602 216ZM688 45 760 25C832 191 889 388 926 565L842 581C811 403 758 209 688 45ZM937 55H316V-25H937Z" transform="translate(0, 880) scale(1,-1)" /></svg>