<svg xmlns="http://www.w3.org/2000/svg" width="1000" height="1000"><path d="M159 35 240 8C315 95 389 196 466 335L397 376L384 363H251C296 458 338 599 365 752L285 760C256 594 210 426 137 302L200 265L220 283H337C299 210 236 118 159 35ZM43 487H543V567H43ZM67 9 98 -65 531 118 494 190ZM82 704H504V784H82ZM641 137 684 72C864 178 923 221 923 312C923 389 860 450 695 489C802 555 885 627 964 748L892 794L881 779H566V699H827C756 610 685 551 576 498L584 433C792 390 842 344 842 312C842 271 799 227 641 137ZM902 -92 955 -28C874 31 703 126 574 184L535 115C660 58 824 -33 902 -92Z" transform="translate(0, 880) scale(1,-1)" /></svg>