<svg xmlns="http://www.w3.org/2000/svg" width="1000" height="1000"><path d="M36 603V523H339V603ZM16 200 83 167 96 183 340 273 316 350 135 281 222 533 152 557ZM170 -57C216 -57 253 -36 253 30V800H175V55C175 32 169 20 150 20C128 20 102 26 68 41V-45C103 -54 136 -57 170 -57ZM531 -59H843C941 -59 961 5 972 179L892 187C886 46 880 21 831 21H547C494 21 483 34 483 84V802H404V81C404 -30 428 -59 531 -59ZM542 182 602 138C698 237 809 367 904 506L825 543C739 410 629 274 542 182ZM528 476 590 436C666 520 745 618 829 740L747 777C675 661 597 556 528 476Z" transform="translate(0, 880) scale(1,-1)" /></svg>