<svg xmlns="http://www.w3.org/2000/svg" width="1000" height="1000"><path d="M61 596V522H365V596ZM43 201 104 169 116 189 366 279 348 352 154 280 240 530 177 556ZM183 -53C228 -53 265 -32 265 34V799H188V59C188 36 181 24 162 24C141 24 116 30 82 44V-41C117 -50 149 -53 183 -53ZM730 -59C868 -59 937 76 937 274C937 475 845 548 687 548C660 548 636 547 613 543C691 604 779 676 851 742L793 800L775 792H386V712H698C636 648 564 587 470 518C455 507 403 481 360 456L406 385C485 437 572 468 673 468C786 468 858 427 858 272C858 147 814 21 725 21C683 21 644 31 603 52V-39C642 -53 683 -59 730 -59ZM322 155 389 98C490 183 569 291 607 410L528 430C494 320 421 228 322 155ZM380 -2 446 -60C588 27 714 204 752 407L674 424C635 226 521 78 380 -2Z" transform="translate(0, 880) scale(1,-1)" /></svg>