<svg xmlns="http://www.w3.org/2000/svg" width="1000" height="1000"><path d="M137 -36 218 -27C167 109 156 208 186 290C220 383 223 456 172 534L95 515C142 431 144 368 114 296C80 217 86 109 137 -36ZM224 612 271 678C235 707 167 752 115 782L69 723C121 691 189 642 224 612ZM911 -81 952 -11C749 85 601 275 452 275C351 275 273 227 273 109C273 11 322 -56 427 -56C613 -56 876 170 876 301C876 412 796 439 677 439C571 439 487 428 404 415V637H325V406L317 392L330 328C436 347 548 358 677 358C754 358 794 345 794 301C794 209 562 25 427 25C378 25 353 57 353 109C353 163 382 195 452 195C559 195 701 20 911 -81ZM751 508C839 508 863 603 877 789L812 809L797 798H323V718H793C786 631 771 589 735 589C655 589 601 600 539 615V529C602 516 666 508 751 508Z" transform="translate(0, 880) scale(1,-1)" /></svg>