<svg xmlns="http://www.w3.org/2000/svg" width="1000" height="1000"><path d="M36 612V532H338V612ZM17 210 84 176 96 192 339 282 315 360 135 290 222 542 152 566ZM170 -47C216 -47 253 -26 253 40V809H175V65C175 42 169 30 150 30C128 30 103 36 68 51V-35C104 -44 136 -47 170 -47ZM333 786V706H935V786ZM961 -33V50C792 -2 583 3 474 53C403 87 383 157 379 337L301 329C303 135 337 28 435 -19C547 -72 788 -84 961 -33ZM400 139 455 74C637 169 779 346 830 576L764 604L749 594H577V515H728C676 355 568 221 400 139ZM395 379 462 329C552 417 621 546 658 669L583 689C541 561 474 450 395 379ZM890 79 954 133C877 227 802 302 718 370L663 317C741 252 815 175 890 79Z" transform="translate(0, 880) scale(1,-1)" /></svg>