<svg xmlns="http://www.w3.org/2000/svg" width="1000" height="1000"><path d="M493 644 565 597C653 640 756 695 841 748L792 814L773 810H194V731H652C618 709 565 677 493 644ZM623 511 673 579C591 620 496 660 387 700L345 633C452 593 546 552 623 511ZM943 576H131V327C131 225 120 86 37 -15L108 -59C196 55 209 211 209 327V499H943ZM890 -63 949 -5C859 51 724 118 577 177L530 118C679 57 802 -8 890 -63ZM496 350 546 289C654 326 758 369 846 424L788 478C711 430 609 384 496 350ZM436 26V476H355V36C355 15 337 7 323 2L350 -68L594 -9L576 59ZM247 200H940V276H247Z" transform="translate(0, 880) scale(1,-1)" /></svg>