<svg xmlns="http://www.w3.org/2000/svg" width="1000" height="1000"><path d="M136 -59C183 -59 216 -36 216 28V782H138V40C138 26 133 18 122 18C99 18 69 26 38 40V-48C68 -55 101 -59 136 -59ZM35 536H271V610H35ZM290 374 249 435 9 257 53 192ZM276 638H945V718H667L623 830L547 812L582 718H276ZM313 447 366 384C447 457 539 501 677 501C801 501 832 469 832 424C832 337 690 332 472 359V279C715 258 912 262 912 424C912 512 855 581 677 581C513 581 400 528 313 447ZM578 -71C634 -71 665 -39 665 24V421H586V35C586 15 578 7 560 7C523 7 486 15 443 30V-55C487 -66 529 -71 578 -71ZM249 58 317 12C385 66 437 138 465 202L386 229C364 173 316 109 249 58ZM905 5 978 42C953 93 898 171 831 233L762 193C827 132 882 54 905 5Z" transform="translate(0, 880) scale(1,-1)" /></svg>