<svg xmlns="http://www.w3.org/2000/svg" width="1000" height="1000"><path d="M112 -25 192 -17C144 112 134 203 160 281C190 368 194 436 147 509L71 492C114 412 116 354 89 286C58 212 64 112 112 -25ZM191 582 237 647C202 674 138 717 89 745L46 686C94 655 158 609 191 582ZM770 58 831 -3C910 58 951 128 951 203C951 297 903 366 767 366C617 366 520 276 520 178C520 106 564 59 633 59C723 59 781 124 781 247C781 367 685 443 545 443C347 443 218 327 218 201C218 129 261 73 335 73C498 73 582 413 588 683L508 685C502 428 438 152 330 152C308 152 295 167 295 201C295 260 370 364 545 364C658 364 703 307 703 247C703 178 677 137 633 137C611 137 598 154 598 178C598 228 652 288 767 288C853 288 873 242 873 203C873 146 838 95 770 58ZM238 -46H930V32H238ZM406 585V505C776 484 893 521 893 667C893 779 793 820 626 820C468 820 360 786 254 727L296 655C385 707 498 742 626 742C758 742 813 709 813 667C813 602 754 552 406 585Z" transform="translate(0, 880) scale(1,-1)" /></svg>