<svg xmlns="http://www.w3.org/2000/svg" width="1000" height="1000"><path d="M180 778V-65H260V778ZM38 292 109 272C124 343 137 427 149 513L77 522C67 435 52 356 38 292ZM86 413 98 339 339 377 327 451ZM337 696 379 626C464 691 552 731 683 731C808 731 847 697 847 629C847 540 797 501 479 536V455C813 425 927 471 927 629C927 731 872 811 683 811C527 811 423 763 337 696ZM322 112H930V192H322ZM559 -72C634 -72 675 -35 675 48V633H597L596 66C596 26 584 6 551 6C520 6 485 13 448 27V-59C480 -68 515 -72 559 -72ZM347 266H904V346H347Z" transform="translate(0, 880) scale(1,-1)" /></svg>