<svg xmlns="http://www.w3.org/2000/svg" width="1000" height="1000"><path d="M73 730V650H449V730ZM205 -3H357C409 -3 452 37 452 117C452 191 420 280 380 353L310 317C349 243 373 168 373 124C373 94 357 76 331 76H207C176 76 159 100 159 136C159 273 198 469 291 668L215 698C121 494 78 284 78 113C78 29 127 -3 205 -3ZM487 373 456 446 262 360 291 287ZM471 25 526 -46C683 77 918 311 918 557C918 708 869 775 739 775C647 775 556 748 480 709L508 632C581 675 658 694 739 694C816 694 838 639 838 557C838 346 626 135 471 25ZM886 -51 951 11C808 218 700 337 568 438L514 384C645 277 744 162 886 -51Z" transform="translate(0, 880) scale(1,-1)" /></svg>