<svg xmlns="http://www.w3.org/2000/svg" width="1000" height="1000"><path d="M164 35 246 8C319 95 391 197 467 336L397 375L384 363H256C300 458 340 599 367 752L287 760C259 594 214 426 143 302L207 265L225 283H339C302 211 239 118 164 35ZM52 487H540V567H52ZM75 9 107 -64 529 118 491 190ZM90 704H502V784H90ZM669 129 727 67C845 160 936 261 935 403C934 526 822 580 676 541C730 613 778 690 823 773L742 807C697 707 647 617 580 523C573 514 551 503 528 494L566 418C733 499 849 484 850 396C851 310 783 218 669 129ZM829 -93 900 -39C818 52 709 143 593 224L540 169C655 93 756 -6 829 -93Z" transform="translate(0, 880) scale(1,-1)" /></svg>