<svg xmlns="http://www.w3.org/2000/svg" width="1000" height="1000"><path d="M135 -36 212 -27C161 115 152 218 182 303C216 399 219 475 168 556L95 537C141 449 143 383 112 309C78 228 84 115 135 -36ZM237 639 276 703C238 733 166 780 112 811L75 755C129 721 200 670 237 639ZM482 37H575C724 82 817 152 817 261C817 362 763 429 637 429C587 429 535 404 493 372C526 424 596 587 646 826L569 841C530 600 437 385 362 256L427 206C480 293 547 353 637 353C712 353 738 305 738 261C738 174 617 98 482 37ZM260 -36H947V37H260ZM290 547H914V620H290Z" transform="translate(0, 880) scale(1,-1)" /></svg>