<svg xmlns="http://www.w3.org/2000/svg" width="1000" height="1000"><path d="M137 -36 218 -27C167 109 156 208 186 290C220 383 223 456 172 534L95 515C142 431 144 368 114 296C80 217 86 109 137 -36ZM224 612 271 678C235 707 167 752 115 782L69 723C121 691 189 642 224 612ZM911 -81 952 -11C749 85 601 275 452 275C351 275 273 227 273 109C273 11 322 -56 427 -56C613 -56 876 173 876 304C876 415 796 442 677 442C571 442 487 431 404 418V643H325V409L317 395L330 331C436 350 548 361 677 361C754 361 794 348 794 304C794 212 562 25 427 25C378 25 353 57 353 109C353 163 382 195 452 195C559 195 701 20 911 -81ZM751 514C839 514 863 609 877 795L812 815L797 804H323V724H793C786 637 771 595 735 595C655 595 601 606 539 621V535C602 522 666 514 751 514Z" transform="translate(0, 880) scale(1,-1)" /></svg>