<svg xmlns="http://www.w3.org/2000/svg" width="1000" height="1000"><path d="M456 -85C523 -85 551 -55 551 12V361H472V24C472 6 460 -7 438 -7C399 -7 349 2 302 16V-71C349 -79 402 -85 456 -85ZM64 26 121 -38C203 1 293 61 350 123L278 165C229 111 146 58 64 26ZM68 189H935V268H68ZM876 -41 933 18C886 59 784 122 702 164L647 109C730 65 829 1 876 -41ZM149 307 232 312C201 395 190 449 203 503C217 562 224 603 192 650L111 639C138 588 140 553 127 507C112 453 116 395 149 307ZM271 683 305 756C263 774 182 801 122 819L90 750C151 731 231 701 271 683ZM665 328H775C878 328 898 389 910 513L832 520C825 429 817 408 763 408H686C631 408 620 421 620 471V841H540V468C540 357 563 328 665 328ZM296 565 924 602 920 682 292 645Z" transform="translate(0, 880) scale(1,-1)" /></svg>