<svg xmlns="http://www.w3.org/2000/svg" width="1000" height="1000"><path d="M168 699V621H456V699ZM657 403H808C900 403 926 443 942 583L862 592C852 494 842 481 802 481H666C623 481 614 491 614 539V821H534V531C534 431 561 403 657 403ZM209 488V814H129V492C129 460 105 450 88 445L122 372C395 471 665 576 910 687L866 757C623 644 412 563 209 488ZM102 7 131 -71C502 -31 679 138 800 344L722 370C605 171 428 35 102 7ZM33 75 109 40C166 86 206 160 226 219L149 243C130 186 90 119 33 75ZM856 -71 887 7C609 24 381 163 318 317L238 296C310 111 586 -51 856 -71ZM552 257 607 321C546 357 435 407 354 437L310 372C394 342 494 294 552 257ZM898 34 968 79C940 126 877 197 813 250L749 205C810 151 871 84 898 34Z" transform="translate(0, 880) scale(1,-1)" /></svg>