<svg xmlns="http://www.w3.org/2000/svg" width="1000" height="1000"><path d="M64 605V530H391V605ZM46 201 106 167 119 188 393 281 376 355 158 279 252 538 191 565ZM196 -62C243 -62 280 -41 280 26V815H204V51C204 28 197 15 177 15C154 15 126 21 90 36V-50C127 -59 161 -62 196 -62ZM726 689 644 709C574 508 453 325 334 188L399 134C520 279 651 484 726 689ZM689 44V-40C875 -95 932 32 932 201C932 350 866 418 760 418C691 418 636 383 594 315V427H515V-35H594V237C654 314 702 336 755 336C817 336 849 283 849 201C849 72 817 -6 689 44ZM378 668H931V748H378Z" transform="translate(0, 880) scale(1,-1)" /></svg>