<svg xmlns="http://www.w3.org/2000/svg" width="1000" height="1000"><path d="M126 -36 207 -27C156 109 146 206 175 288C209 380 213 452 162 530L84 511C131 427 133 365 102 294C68 216 74 109 126 -36ZM223 604 267 675C229 703 157 748 102 778L60 715C114 683 186 634 223 604ZM339 -71C458 -71 539 19 539 203C539 334 508 434 377 434C326 434 277 417 245 397L267 323C296 341 337 354 377 354C443 354 460 298 460 203C460 87 410 8 339 8C316 8 303 24 303 47C303 174 639 376 760 376C831 376 858 336 858 243C858 113 829 11 733 11C684 11 634 21 581 41V-44C634 -61 682 -68 738 -68C888 -68 938 72 938 243C938 369 892 456 765 456C611 456 224 233 224 47C224 -33 277 -71 339 -71ZM782 72 801 143C736 164 669 183 604 194L586 125C653 111 717 95 782 72ZM790 200 810 272C747 291 683 305 619 315L602 247C665 236 727 220 790 200ZM405 395 474 351C563 438 627 541 627 671H547C547 555 491 475 405 395ZM437 584V504C726 481 867 510 867 668C867 782 758 822 618 822C481 822 377 791 276 737L312 667C399 712 501 741 618 741C727 741 787 715 787 668C787 582 695 564 437 584Z" transform="translate(0, 880) scale(1,-1)" /></svg>