<svg xmlns="http://www.w3.org/2000/svg" width="1000" height="1000"><path d="M130 -34 211 -25C160 110 150 208 179 290C213 381 217 453 166 531L88 513C135 429 137 366 106 295C73 217 78 110 130 -34ZM226 605 271 676C232 704 160 749 106 779L64 716C118 684 190 635 226 605ZM701 -59C849 -59 929 81 929 274C929 475 825 548 653 548C621 548 593 546 566 542C654 603 752 675 832 740L775 800L755 792H315V712H669C599 647 518 588 412 518C395 507 338 481 291 455L336 384C425 436 523 468 637 468C764 468 849 427 849 272C849 147 797 21 696 21C648 21 604 31 558 52V-39C602 -53 648 -59 701 -59ZM247 156 313 97C427 182 516 290 558 409L478 431C441 321 358 229 247 156ZM312 -1 377 -61C537 26 679 203 721 406L642 425C598 227 470 79 312 -1Z" transform="translate(0, 880) scale(1,-1)" /></svg>