<svg xmlns="http://www.w3.org/2000/svg" width="1000" height="1000"><path d="M28 633 100 588C191 652 261 740 302 828L223 857C182 769 111 686 28 633ZM224 618H848V697H224ZM217 726H907V807H217ZM828 441 905 421C924 460 932 481 932 496C932 574 835 602 590 602C420 602 269 581 144 555L158 477C273 501 433 523 590 523C790 523 847 510 847 490C847 480 842 467 828 441ZM412 204 493 154C580 182 664 235 664 315C664 367 616 400 503 400C385 400 347 367 347 318C347 262 408 232 546 232C763 232 877 275 877 363C877 427 822 491 597 491C392 491 272 462 179 425L217 351C311 386 440 411 597 411C753 411 790 382 790 363C790 328 712 306 546 306C462 306 427 313 427 318C427 326 449 330 503 330C553 330 584 326 584 315C584 275 518 238 412 204ZM163 463V265H243V463ZM728 94 746 17C866 23 917 61 916 114C916 187 806 217 616 217C426 217 241 196 111 172L129 95C259 118 444 138 616 138C760 138 830 127 830 114C830 100 793 94 728 94ZM317 114V36H660V114ZM145 10V-69H857V10Z" transform="translate(0, 880) scale(1,-1)" /></svg>