<svg xmlns="http://www.w3.org/2000/svg" width="1000" height="1000"><path d="M312 439 34 312 67 233 344 369ZM167 -69C215 -69 252 -45 252 32V701H174V46C174 22 166 9 147 9C126 9 105 13 77 27V-57C108 -66 137 -69 167 -69ZM64 707 76 627C152 636 262 663 336 702L310 778C243 742 142 718 64 707ZM356 596V516H920V596ZM485 602 559 639C538 684 498 750 459 798L389 765C427 716 467 649 485 602ZM736 635 804 602C838 644 883 713 915 770L840 803C815 749 770 679 736 635ZM940 141 974 219C812 274 652 317 488 347L462 274C624 245 788 197 940 141ZM301 170 373 121C468 203 538 307 567 408L487 431C452 328 400 245 301 170ZM581 -86C645 -86 684 -51 684 17V826H605V32C605 0 597 -13 571 -13C537 -13 507 -6 471 12V-70C506 -81 545 -86 581 -86ZM344 378H933V456H344ZM291 26 337 -39C414 -4 499 51 551 107L491 153C444 104 366 56 291 26ZM918 -42 967 19C924 54 833 107 761 142L714 84C788 47 877 -7 918 -42Z" transform="translate(0, 880) scale(1,-1)" /></svg>