<svg xmlns="http://www.w3.org/2000/svg" width="1000" height="1000"><path d="M120 -23 200 -15C151 115 141 208 168 287C199 375 203 444 155 517L78 500C122 420 124 360 96 292C65 217 71 115 120 -23ZM204 591 250 657C214 684 147 727 97 755L53 696C103 665 170 619 204 591ZM443 616 519 643C504 690 475 767 445 819L370 792C399 740 427 673 443 616ZM264 534H950V614H264ZM691 618 760 596C798 662 828 734 851 801L766 824C750 759 722 682 691 618ZM285 -29 596 64 573 141 258 47ZM379 66 447 43C498 129 559 263 601 377L531 414L515 401H287V321H493C465 245 420 145 379 66ZM741 20H820V437H741ZM945 56H657V-24H945Z" transform="translate(0, 880) scale(1,-1)" /></svg>