<svg xmlns="http://www.w3.org/2000/svg" width="1000" height="1000"><path d="M622 767H64V694H622ZM383 609V841H303V609ZM579 641H107V569H579ZM529 410 609 393C616 428 618 445 618 454C618 511 567 551 381 551C279 551 207 542 144 525V536H66V408H144V457C212 469 286 474 381 474C512 474 540 463 540 447C540 441 538 432 529 410ZM54 9 637 93 623 172 42 93ZM289 -79C353 -79 392 -54 392 23V446H312V33C312 9 298 -5 280 -5C246 -5 210 0 163 15V-66C207 -76 248 -79 289 -79ZM87 180H586V260H87ZM45 305H628V384H45ZM787 456 857 435C892 523 929 638 953 744L889 767L878 757H746V677H858C843 610 819 533 787 456ZM631 -13 681 -83C786 -2 956 179 956 335C956 431 924 477 827 477C755 477 702 462 648 441L667 361C718 387 764 397 827 397C863 397 875 374 875 335C875 208 740 60 631 -13ZM922 -86 983 -25C885 113 816 190 724 257L671 200C762 130 825 56 922 -86ZM632 536 703 502C739 590 773 698 802 808L731 829C704 718 670 617 632 536Z" transform="translate(0, 880) scale(1,-1)" /></svg>