<svg xmlns="http://www.w3.org/2000/svg" width="1000" height="1000"><path d="M450 445C526 445 551 480 551 542V687H470V545C470 525 459 516 439 515C410 515 349 521 281 541V459C339 449 391 445 450 445ZM51 545 103 491C189 540 254 603 289 656L216 697C185 647 131 591 51 545ZM892 488 965 533C931 577 854 647 766 699L699 655C785 601 861 532 892 488ZM670 695 718 762C631 786 459 823 350 837L313 770C428 757 581 721 670 695ZM204 -68H585C649 -68 685 -38 685 23C685 58 674 89 641 138L568 109C596 67 603 43 603 26C603 12 589 6 565 6H214C182 6 167 12 167 29C167 53 180 86 317 223L254 270C102 113 84 66 84 17C84 -29 115 -68 204 -68ZM816 28 895 19C911 70 919 106 919 155C919 231 852 273 727 273C617 273 524 259 424 236L451 167C549 188 631 199 714 199C798 199 838 178 838 143C838 112 830 78 816 28ZM101 320H839V398H101Z" transform="translate(0, 880) scale(1,-1)" /></svg>