<svg xmlns="http://www.w3.org/2000/svg" width="1000" height="1000"><path d="M177 -64C225 -64 256 -41 256 23V794H179V33C179 18 174 11 161 11C137 11 107 18 74 33V-53C106 -60 140 -64 177 -64ZM60 542H331V618H60ZM349 376 309 440 34 259 77 191ZM441 487 518 513C503 590 472 699 442 780L368 756C396 677 426 565 441 487ZM634 523 714 543C703 628 679 739 653 832L574 813C599 722 623 610 634 523ZM792 501 865 479C897 567 932 688 955 786L873 808C854 711 822 587 792 501ZM325 -2 369 -78C685 -12 859 115 954 363L891 409L872 401H514V323H840C747 135 605 52 325 -2ZM721 93 778 160C701 196 621 228 535 257L492 191C576 160 652 128 721 93ZM318 207 385 156C487 244 563 354 611 456L535 488C489 383 414 285 318 207Z" transform="translate(0, 880) scale(1,-1)" /></svg>