<svg xmlns="http://www.w3.org/2000/svg" width="1000" height="1000"><path d="M299 486 362 438C450 484 522 521 522 595C522 669 448 701 308 701C182 701 99 672 99 603C99 537 143 508 249 508C321 508 360 532 360 593V843H280V611C280 594 266 586 240 586C211 586 180 592 180 603C180 614 217 623 308 623C390 623 440 611 440 595C440 570 406 539 299 486ZM69 383 580 471 567 546 52 461ZM61 707H576V785H61ZM722 835V441H802V835ZM588 478V400H937V478ZM462 -84C514 -83 548 -57 548 8V354H468V31C468 7 457 -8 429 -8C394 -8 337 4 276 22V-63C336 -77 394 -85 462 -84ZM53 62H947V140H53ZM116 178H884V256H116ZM117 360 135 284C344 281 654 291 854 325L806 398C641 371 337 359 117 360Z" transform="translate(0, 880) scale(1,-1)" /></svg>