<svg xmlns="http://www.w3.org/2000/svg" width="1000" height="1000"><path d="M140 -36 221 -27C170 110 160 209 190 291C225 384 229 457 175 535L97 517C145 432 147 369 115 297C80 218 86 110 140 -36ZM247 611 294 680C253 709 175 755 116 785L72 723C131 690 208 641 247 611ZM355 493H848V573H355ZM346 291H857V371H346ZM641 -78V661H562V-78ZM264 89H939V169H264ZM813 565 891 533C917 588 928 625 928 664C928 763 841 807 648 807C507 807 377 775 280 735L311 656C400 695 524 723 648 723C803 723 844 696 844 659C844 634 836 610 813 565Z" transform="translate(0, 880) scale(1,-1)" /></svg>