<svg xmlns="http://www.w3.org/2000/svg" width="1000" height="1000"><path d="M163 -35C211 -35 243 -12 243 52V788H165V65C165 51 160 43 148 43C124 43 95 50 62 65V-24C94 -31 127 -35 163 -35ZM49 546H316V621H49ZM333 387 294 450 23 277 65 210ZM777 108C902 108 946 198 946 491C946 710 886 809 702 809C572 809 452 782 353 748L370 668C469 702 580 729 702 729C834 729 867 639 867 491C867 286 845 186 777 186C730 186 673 199 629 215V127C675 115 732 108 777 108ZM353 -34H927V46H353ZM321 164 389 109C537 228 641 413 655 641L574 647C562 432 469 275 321 164ZM704 342 742 417C663 456 524 507 410 538L373 469C488 435 627 382 704 342Z" transform="translate(0, 880) scale(1,-1)" /></svg>