<svg xmlns="http://www.w3.org/2000/svg" width="1000" height="1000"><path d="M58 607V533H376V607ZM40 200 100 166 113 187 378 281 360 354 151 278 242 540 181 567ZM187 -66C234 -66 269 -45 269 22V820H193V41C193 18 184 5 170 5C144 5 117 11 82 26V-54C118 -63 152 -66 187 -66ZM639 511 699 463C769 525 846 620 913 747L851 795L835 785H406V707H791C747 625 696 565 639 511ZM361 -24 439 -26C428 123 440 283 467 422L390 432C360 289 348 118 361 -24ZM635 -70C674 -70 707 -63 751 -41V48C708 22 674 13 648 13C628 13 618 27 618 75C618 172 632 277 659 430L584 441C558 284 542 179 542 73C542 -23 565 -70 635 -70ZM863 -44 945 -33C943 115 914 299 874 432L797 410C837 279 861 101 863 -44Z" transform="translate(0, 880) scale(1,-1)" /></svg>