<svg xmlns="http://www.w3.org/2000/svg" width="1000" height="1000"><path d="M165 499 210 571 140 592 32 436 106 402 116 409 496 480 469 555ZM253 322C309 322 334 353 334 417V844H255V425C255 409 251 399 232 399C207 399 177 405 144 416V333C180 325 216 322 253 322ZM67 586H485V665H67ZM66 774 92 697C209 699 382 710 494 731L462 803C359 786 185 776 66 774ZM809 662C783 391 822 327 896 327C951 327 974 383 981 476L921 484C917 426 910 405 897 405C880 405 865 447 890 732L827 751L815 740H478V662ZM420 379 486 321C693 416 715 587 713 844H633C635 602 630 471 420 379ZM774 464 803 539C740 563 610 596 511 617L476 546C577 522 712 488 774 464ZM462 -93C514 -92 548 -65 548 0V336H468V23C468 -2 457 -17 429 -17C394 -17 337 -5 276 14V-72C336 -86 394 -94 462 -93ZM53 49H947V127H53ZM116 163H884V241H116ZM117 342 135 266C344 263 654 273 854 306L806 379C641 353 337 341 117 342Z" transform="translate(0, 880) scale(1,-1)" /></svg>