<svg xmlns="http://www.w3.org/2000/svg" width="1000" height="1000"><path d="M87 660H913V738H561L507 838L429 820L473 738H87ZM114 327 496 380 482 458 100 405ZM234 401 305 365C369 418 433 490 484 557L419 608L397 597H116V519H347C317 478 281 442 234 401ZM674 394H754V616H674ZM894 428H534V348H894ZM456 -85C523 -85 551 -55 551 12V342H472V24C472 5 460 -8 438 -8C399 -8 349 2 302 16V-71C349 -79 402 -85 456 -85ZM65 23 121 -41C203 -4 293 53 350 112L279 156C229 104 147 54 65 23ZM68 177H935V255H68ZM876 -44 933 15C886 55 783 115 701 155L647 99C730 57 829 -4 876 -44Z" transform="translate(0, 880) scale(1,-1)" /></svg>