<svg xmlns="http://www.w3.org/2000/svg" width="1000" height="1000"><path d="M25 602V522H269V602ZM7 192 77 164 87 179 268 267 240 344 119 279 185 534 113 554ZM131 -61C174 -61 209 -40 209 27V801H131V51C131 28 126 16 109 16C94 16 72 22 44 37V-49C73 -58 102 -61 131 -61ZM509 9 566 -45C663 23 724 95 724 181C724 257 671 301 577 301C487 301 433 256 433 186C433 111 489 69 612 69C805 69 933 128 933 273C933 391 843 446 677 446C526 446 399 411 294 358L328 284C433 336 538 367 677 367C787 367 853 342 853 273C853 176 740 145 612 145C543 145 513 157 513 186C513 213 538 226 577 226C618 226 644 211 644 181C644 129 599 70 509 9ZM432 453 508 478C500 522 472 590 443 641L370 620C398 568 425 497 432 453ZM239 565 312 529C375 623 415 723 441 836L363 849C337 736 301 652 239 565ZM607 474 686 491C682 535 666 608 644 661L569 646C590 592 604 518 607 474ZM366 687H957V765H366ZM759 471 829 448C858 497 895 572 924 638L838 662C821 606 786 522 759 471ZM982 17H273V-61H982Z" transform="translate(0, 880) scale(1,-1)" /></svg>