<svg xmlns="http://www.w3.org/2000/svg" width="1000" height="1000"><path d="M146 -54C193 -54 225 -31 225 33V809H148V46C148 32 143 24 131 24C107 24 78 31 45 46V-43C77 -50 110 -54 146 -54ZM36 557H292V632H36ZM310 390 269 452 9 270 53 204ZM797 256 863 223C903 289 942 360 975 425L906 466L896 455H302V376H860C843 336 821 296 797 256ZM580 -68C645 -68 674 -37 674 37V413H595V47C595 24 586 10 565 10C530 10 482 19 434 35V-51C475 -61 527 -68 580 -68ZM719 471 765 538C688 584 600 623 515 648L479 580C564 551 651 513 719 471ZM627 589 699 547C767 603 858 695 905 756L846 813L831 805H364V725H768C727 679 679 631 627 589Z" transform="translate(0, 880) scale(1,-1)" /></svg>