<svg xmlns="http://www.w3.org/2000/svg" width="1000" height="1000"><path d="M133 508H206V654C305 719 418 759 589 759C761 759 814 721 814 667C814 574 605 568 310 596V525C650 503 893 511 893 667C893 757 829 826 589 826C402 826 279 780 206 713V796H133ZM529 256H643C715 286 758 331 758 373C758 440 674 480 527 480C357 480 262 451 262 385C262 331 331 298 447 298C525 298 563 326 563 364V680H484V380C484 360 458 351 428 351C395 351 347 367 347 385C347 408 389 424 527 424C621 424 673 399 673 372C673 342 651 305 529 256ZM78 190H930V256H78ZM630 -83C768 -83 820 -34 820 33C820 96 752 159 615 239L554 194C688 122 738 73 738 33C738 -6 693 -21 585 -21C528 -21 463 -13 404 0V-68C474 -79 544 -83 630 -83ZM133 -24 195 -72C369 22 457 94 522 199L447 225C384 133 301 60 133 -24Z" transform="translate(0, 880) scale(1,-1)" /></svg>