<svg xmlns="http://www.w3.org/2000/svg" width="1000" height="1000"><path d="M354 483V406C829 370 875 489 875 589C875 692 783 761 624 761C482 761 396 728 300 660C329 714 355 772 374 837L290 853C246 711 163 575 68 486L135 437C187 492 219 533 245 572C362 651 505 686 616 686C729 686 786 636 786 589C786 516 732 445 354 483ZM458 -75C519 -75 550 -52 550 14V583H473V14C473 -4 466 -10 447 -10C407 -10 352 1 303 15V-63C347 -71 406 -75 458 -75ZM616 51H924V120H793V364H718V120H616ZM240 204C267 246 297 297 327 352L264 378C201 256 127 166 57 115L119 69C140 92 166 118 185 130C199 138 221 139 234 136C248 132 263 114 273 73L412 135L387 184L305 159C300 182 276 197 240 204Z" transform="translate(0, 880) scale(1,-1)" /></svg>