<svg xmlns="http://www.w3.org/2000/svg" width="1000" height="1000"><path d="M28 562 100 517C191 600 261 717 302 832L223 857C182 742 111 632 28 562ZM224 557H848V636H224ZM217 697H907V777H217ZM822 311 900 284C923 332 932 362 932 391C932 481 830 519 590 519C417 519 260 490 137 453L159 375C273 410 433 439 590 439C790 439 847 416 847 385C847 367 841 348 822 311ZM121 259H654C646 226 633 190 618 158L638 119H824C814 27 781 -4 703 -4C642 -4 590 3 539 15V-70C582 -76 643 -81 713 -81C840 -81 889 -40 909 189L849 206L835 196H710C726 239 741 286 752 337H121ZM436 277 359 291C323 162 249 57 61 -30L122 -89C327 16 396 133 436 277Z" transform="translate(0, 880) scale(1,-1)" /></svg>