<svg xmlns="http://www.w3.org/2000/svg" width="1000" height="1000"><path d="M45 445 91 370C374 424 615 510 615 695V844H535V700C535 581 327 492 45 445ZM693 375H843C933 375 948 422 955 538L875 545C873 467 871 454 828 454H706C672 454 668 461 668 484V595H588V459C588 390 614 375 693 375ZM746 593 782 521C890 560 925 591 925 654C925 726 858 755 720 755C483 755 258 665 71 591L103 510C283 587 508 676 720 676C824 676 843 669 843 653C843 634 820 618 746 593ZM201 635 273 592C328 635 394 695 445 749L382 803L364 796H90V717H293C270 694 241 667 201 635ZM359 3 420 -54C543 -16 666 49 666 146C666 220 612 247 500 247C377 247 339 216 339 157C339 97 393 64 543 64C755 64 887 120 887 243C887 345 789 397 555 397C352 397 241 356 171 330L208 256C272 284 377 318 555 318C721 318 806 277 806 243C806 195 710 143 543 143C452 143 419 150 419 157C419 164 442 169 500 169C551 169 586 162 586 146C586 104 486 39 359 3ZM93 -63H937V16H93ZM152 99H232V379H152Z" transform="translate(0, 880) scale(1,-1)" /></svg>