<svg xmlns="http://www.w3.org/2000/svg" width="1000" height="1000"><path d="M132 -36 204 -27C156 115 148 218 176 303C208 399 211 475 163 556L94 537C138 449 140 383 110 309C78 228 84 115 132 -36ZM228 639 265 703C229 733 161 780 110 811L75 755C126 721 194 670 228 639ZM771 61 825 -1C904 61 946 131 946 207C946 297 897 361 765 361C620 361 527 279 527 182C527 106 565 61 631 61C719 61 776 127 776 251C776 372 684 445 545 445C350 445 233 337 233 210C233 146 269 81 336 81C492 81 577 418 582 690L511 694C505 435 445 148 332 148C310 148 295 169 295 210C295 275 365 377 545 377C657 377 713 318 713 251C713 171 685 131 631 131C606 131 590 149 590 182C590 232 649 298 765 298C867 298 874 246 874 207C874 150 839 83 771 61ZM241 -39H927V30H241ZM409 588V515C771 494 890 531 890 678C890 791 763 824 620 824C464 824 373 787 274 728L303 668C385 716 493 756 620 756C741 756 812 715 812 675C812 607 752 555 409 588Z" transform="translate(0, 880) scale(1,-1)" /></svg>