<svg xmlns="http://www.w3.org/2000/svg" width="1000" height="1000"><path d="M152 798V-36H230V798ZM19 315 88 297C103 368 115 452 126 538L55 545C46 458 32 379 19 315ZM68 438 79 364 301 400 290 474ZM346 749 359 669C516 676 746 705 894 759L855 835C733 789 508 758 346 749ZM310 402H951V482H310ZM591 193H670V745H591ZM725 246C598 246 469 200 340 109L389 42C501 120 620 166 725 166C786 166 821 143 821 104C821 53 775 11 696 -13L737 -85C829 -52 900 10 900 104C900 204 829 246 725 246Z" transform="translate(0, 880) scale(1,-1)" /></svg>