<svg xmlns="http://www.w3.org/2000/svg" width="1000" height="1000"><path d="M321 545 379 594C319 663 252 730 174 795L123 748C199 682 264 614 321 545ZM323 502 381 447C582 551 801 707 878 784L810 832C736 755 519 599 323 502ZM757 505 814 566C725 639 589 737 494 788L439 735C537 678 676 582 757 505ZM98 489V414H902V489ZM578 -80C751 -80 814 40 814 202C814 296 757 350 609 350C512 350 415 342 313 327L318 264C420 275 523 283 609 283C681 283 732 260 732 202C732 74 680 -16 564 -16C494 -16 432 -11 373 4V-68C431 -76 490 -80 578 -80ZM659 103 663 169 366 174 363 107ZM405 435 321 438C293 234 229 98 133 -15L207 -54C304 67 373 220 405 435Z" transform="translate(0, 880) scale(1,-1)" /></svg>