<svg xmlns="http://www.w3.org/2000/svg" width="1000" height="1000"><path d="M108 -36 188 -27C138 106 128 201 156 282C187 372 190 443 143 519L67 501C112 419 114 357 86 287C53 211 59 106 108 -36ZM180 596 227 661C194 689 133 733 86 762L42 705C87 673 149 625 180 596ZM549 -71C667 -71 716 12 716 168C716 294 635 434 531 511L471 458C569 379 636 267 636 168C636 60 609 7 539 7C496 7 460 14 420 27V-59C456 -67 491 -71 549 -71ZM217 99 274 49C349 113 417 196 466 282L393 320C352 242 286 162 217 99ZM361 417 422 367C574 497 629 627 684 819L604 840C559 649 497 533 361 417ZM885 51 961 84C933 183 885 289 835 370L765 341C814 258 859 149 885 51ZM249 588H932V668H249Z" transform="translate(0, 880) scale(1,-1)" /></svg>