<svg xmlns="http://www.w3.org/2000/svg" width="1000" height="1000"><path d="M100 -35 180 -27C131 106 121 201 149 281C182 371 185 441 136 516L58 499C103 417 105 356 76 286C44 210 49 106 100 -35ZM194 591 240 658C202 686 131 730 77 759L32 699C86 667 158 619 194 591ZM661 -54C788 -54 878 12 878 149C878 292 760 337 608 337C577 337 552 336 525 331C595 374 660 414 718 459H950V539H240V459H598C552 417 493 374 412 324C396 314 380 306 342 293L371 213C457 242 516 257 598 257C717 257 797 227 797 149C797 58 730 24 653 24C612 24 560 29 498 41V-41C551 -51 603 -54 661 -54ZM300 688H889V768H300Z" transform="translate(0, 880) scale(1,-1)" /></svg>