<svg xmlns="http://www.w3.org/2000/svg" width="1000" height="1000"><path d="M362 441 37 314 67 233 391 369ZM200 -69C245 -69 280 -48 280 20V701H201V40C201 16 193 3 180 3C152 3 126 7 89 21V-57C127 -66 163 -69 200 -69ZM67 707 81 627C170 636 299 663 386 702L361 779C282 742 160 718 67 707ZM535 608 605 646C585 695 544 764 506 816L438 778C476 727 516 656 535 608ZM708 643 775 608C806 652 847 727 876 787L802 820C779 764 740 691 708 643ZM395 582V502H914V582ZM354 -11 409 -73C671 65 699 327 697 535H617C617 333 606 119 354 -11ZM893 -79 956 -24C869 77 757 185 653 272L599 216C699 132 811 22 893 -79ZM374 285H937V365H374Z" transform="translate(0, 880) scale(1,-1)" /></svg>