<svg xmlns="http://www.w3.org/2000/svg" width="1000" height="1000"><path d="M140 -36 221 -28C170 110 160 209 190 292C226 385 230 458 176 537L97 518C145 433 147 370 116 298C80 219 86 110 140 -36ZM250 613 297 682C256 711 176 757 117 787L71 725C132 692 210 643 250 613ZM281 477H943V559H281ZM335 702H890V784H335ZM447 318 512 266 529 280H655C615 225 559 160 493 97L567 59C642 132 735 236 793 310L727 372L710 361H565C621 462 653 582 680 724L599 734C572 585 530 444 447 318ZM900 -73 934 6C730 71 529 119 337 153L296 78C503 38 703 -10 900 -73Z" transform="translate(0, 880) scale(1,-1)" /></svg>