<svg xmlns="http://www.w3.org/2000/svg" width="1000" height="1000"><path d="M193 817V-71H273V817ZM40 313 112 292C128 363 142 447 155 533L82 543C71 456 55 377 40 313ZM88 433 101 359 361 399 348 473ZM316 -56H917V24H316ZM504 20H640C694 64 715 151 715 228C715 320 672 363 599 363C540 363 484 320 484 245C484 166 534 125 599 125C615 125 629 128 641 136C620 80 575 38 504 20ZM319 706 358 636C426 680 534 732 675 732C803 732 842 689 842 624C842 515 688 504 455 538V452C715 427 923 439 923 624C923 730 864 812 675 812C499 812 387 752 319 706ZM682 292V630H605V322ZM599 195C573 195 554 217 554 245C554 273 573 295 599 295C625 295 645 273 645 245C645 217 625 195 599 195Z" transform="translate(0, 880) scale(1,-1)" /></svg>