<svg xmlns="http://www.w3.org/2000/svg" width="1000" height="1000"><path d="M156 -56C203 -56 235 -33 235 31V782H158V43C158 29 153 21 142 21C119 21 90 29 59 43V-45C89 -52 122 -56 156 -56ZM60 536H285V611H60ZM304 375 262 436 34 259 79 194ZM396 650 463 684C447 722 417 778 385 819L320 788C349 746 381 692 396 650ZM593 671 666 695C652 739 630 797 602 845L531 822C555 775 580 718 593 671ZM751 673 816 644C849 690 884 753 908 807L835 836C817 785 782 720 751 673ZM817 453 893 425C916 474 926 505 926 536C926 627 846 664 652 664C516 664 392 636 296 603L321 527C409 559 531 584 652 584C804 584 845 562 845 531C845 512 837 492 817 453ZM480 268V188C759 164 879 218 879 344C879 455 797 498 626 498C482 498 372 461 329 438L365 366C413 392 510 417 626 417C749 417 797 389 797 344C797 268 694 246 480 268ZM248 14 276 -65C563 -29 622 74 622 222V357H543V231C543 134 528 50 248 14ZM731 -60H821C925 -60 937 -7 949 121L870 129C867 37 855 19 815 19H734C700 19 692 26 692 51V149H612V21C612 -38 646 -60 731 -60Z" transform="translate(0, 880) scale(1,-1)" /></svg>