<svg xmlns="http://www.w3.org/2000/svg" width="1000" height="1000"><path d="M151 152H227V638H151ZM34 497 93 450C184 543 259 675 307 798L232 827C186 701 115 577 34 497ZM713 125C858 125 932 215 932 362C932 502 830 558 666 558C631 558 607 555 577 550C640 598 748 687 850 776L790 822L772 816H387V738H687C622 673 523 593 433 533C418 523 347 498 301 478L348 406C433 448 543 479 652 479C770 479 852 450 852 362C852 268 810 204 707 204C657 204 607 210 559 226V140C605 130 658 125 713 125ZM361 281 409 212C535 264 670 349 756 437L689 483C608 394 478 324 361 281ZM657 235 717 290C671 342 583 411 518 451L462 399C525 359 613 284 657 235ZM270 602H925V680H270ZM59 -41 124 -84C183 -31 235 39 260 107L188 140C166 74 111 4 59 -41ZM524 -76C567 -76 607 -62 663 -20L607 42C577 16 559 9 536 9C512 9 496 31 466 131L386 113C431 -41 475 -76 524 -76ZM878 -81 947 -37C912 14 846 91 788 146L728 97C790 39 846 -32 878 -81Z" transform="translate(0, 880) scale(1,-1)" /></svg>