<svg xmlns="http://www.w3.org/2000/svg" width="1000" height="1000"><path d="M53 87H131C124 202 120 322 135 413C145 474 178 605 237 605C282 605 303 479 293 340C287 258 277 198 252 198C230 198 235 288 262 382C276 425 297 461 329 488L290 562C246 526 204 467 178 379C132 219 164 117 245 117C334 117 359 191 371 337C385 528 356 689 238 689C189 689 156 645 130 579L146 713H64C46 417 46 260 53 87ZM369 560H957V640H369ZM464 -6 514 -80C768 15 898 114 898 255C898 375 811 439 676 439C592 439 504 427 443 408L463 324C520 343 603 359 676 359C762 359 818 326 818 255C818 140 699 70 464 -6ZM506 406 570 388C641 514 721 692 770 813L689 841C638 706 571 537 506 406Z" transform="translate(0, 880) scale(1,-1)" /></svg>