<svg xmlns="http://www.w3.org/2000/svg" width="1000" height="1000"><path d="M31 602V523H316V602ZM12 209 80 176 92 191 317 278 292 355 130 290 210 534 139 556ZM157 -40C202 -40 238 -19 238 47V792H160V71C160 49 154 36 136 36C117 36 92 42 59 57V-28C93 -37 125 -40 157 -40ZM417 449 489 416C564 512 635 629 716 804L636 831C564 664 489 539 417 449ZM321 592H963V672H321ZM812 317V-3H892V378L835 409L812 397C608 383 310 264 310 77C310 -14 367 -61 456 -61C610 -61 707 64 707 232C707 371 667 480 523 480C464 480 416 464 380 442L413 372C439 388 479 400 523 400C589 400 627 339 627 232C627 105 557 19 456 19C411 19 390 42 390 77C390 188 620 304 812 317ZM976 34H729V-46H976Z" transform="translate(0, 880) scale(1,-1)" /></svg>