<svg xmlns="http://www.w3.org/2000/svg" width="1000" height="1000"><path d="M122 -15 203 -7C156 121 145 212 172 290C203 377 208 445 159 517L81 500C125 421 127 363 99 295C67 221 73 121 122 -15ZM223 587 269 656C230 683 155 725 99 753L56 691C112 661 186 615 223 587ZM306 62 335 -23 367 -8 865 36 857 116 463 83C598 247 725 459 891 766L808 804C648 483 514 256 412 142C373 98 328 69 306 62ZM486 467 560 504C519 584 451 690 386 781L315 735C385 646 444 553 486 467ZM874 -73 951 -40C914 62 858 185 791 300L720 268C786 152 837 27 874 -73Z" transform="translate(0, 880) scale(1,-1)" /></svg>