<svg xmlns="http://www.w3.org/2000/svg" width="1000" height="1000"><path d="M109 -36 188 -28C138 106 128 203 156 284C188 375 191 447 143 523L67 505C112 422 114 360 86 290C53 212 59 106 109 -36ZM182 601 229 666C195 694 134 738 87 768L42 710C88 678 150 630 182 601ZM441 394V315C773 300 898 327 898 454C898 526 825 591 639 591C480 591 378 558 293 507L320 437C400 486 494 513 639 513C764 513 819 490 819 454C819 388 721 379 441 394ZM240 80H941V158H240ZM546 -74C609 -74 642 -39 642 32L643 453H564L563 48C563 19 555 3 531 3C505 3 471 9 437 22V-62C469 -70 503 -74 546 -74ZM279 201H901V279H279ZM427 676 500 715C479 757 450 804 420 846L352 809C382 768 406 721 427 676ZM240 622H939V700H240ZM687 696 754 662C785 712 813 765 838 815L761 849C743 800 715 744 687 696Z" transform="translate(0, 880) scale(1,-1)" /></svg>