<svg xmlns="http://www.w3.org/2000/svg" width="1000" height="1000"><path d="M536 743H76V670H536ZM346 567V836H266V567ZM498 599H114V527H498ZM58 -20 114 -77C266 30 405 174 405 245C405 291 378 336 305 336C229 336 205 294 205 253C205 210 250 172 332 172C457 172 537 227 537 340C537 429 501 494 372 494C271 494 168 462 100 422L136 375C196 405 299 427 372 427C447 427 462 385 462 340C462 261 423 226 328 226C284 226 266 236 266 253C266 269 276 283 304 283C330 283 347 270 347 247C347 186 199 65 58 -20ZM92 476V185H162V476ZM528 479 599 442C639 546 675 677 705 809L633 831C605 696 568 575 528 479ZM516 -10 566 -64C727 45 879 230 925 622L877 656L860 643H609V566H844C799 272 675 96 516 -10ZM896 -75 951 -13C824 162 720 280 601 374L557 319C674 220 774 104 896 -75ZM321 144V-24H388V144ZM275 -30 314 -86 545 54 506 110Z" transform="translate(0, 880) scale(1,-1)" /></svg>