<svg xmlns="http://www.w3.org/2000/svg" width="1000" height="1000"><path d="M576 207C721 262 754 326 754 392C754 470 678 540 492 540C282 540 119 499 119 388C119 320 196 265 308 265C392 265 493 296 493 391V836H416V406C416 362 368 336 308 336C234 336 199 362 199 388C199 433 296 462 492 462C627 462 671 423 671 393C671 355 649 316 529 270C155 128 105 85 105 30C105 -25 129 -55 222 -55H763C830 -55 856 -10 873 125L798 136C790 42 773 20 740 20H253C216 20 204 25 204 37C204 56 220 72 576 207ZM896 295 964 335C922 415 874 495 820 573L756 535C809 456 856 375 896 295ZM105 718V641H875V718Z" transform="translate(0, 880) scale(1,-1)" /></svg>