<svg xmlns="http://www.w3.org/2000/svg" width="1000" height="1000"><path d="M100 -36 181 -27C131 106 121 202 149 283C182 374 186 445 135 521L58 503C104 420 106 359 76 289C43 211 49 106 100 -36ZM194 596 241 663C203 691 131 735 77 764L32 704C86 673 158 625 194 596ZM386 631H858V711H386ZM232 468 305 427C380 529 437 673 470 814L392 829C358 688 300 553 232 468ZM749 -53H858C936 -53 960 15 969 209L890 215C885 50 873 27 840 27H749C724 27 715 39 715 74V270C715 384 631 405 540 383V306C608 321 636 297 636 231V73C636 -21 658 -53 749 -53ZM729 639 652 661C574 458 460 232 226 -13L288 -63C526 186 649 434 729 639Z" transform="translate(0, 880) scale(1,-1)" /></svg>