<svg xmlns="http://www.w3.org/2000/svg" width="1000" height="1000"><path d="M99 795V717H607V795ZM65 647V569H642V647ZM85 102H165V378C229 425 285 441 399 441C527 441 558 386 558 319C558 219 500 179 424 179C355 179 289 185 220 199V114C289 102 355 99 424 99C562 99 640 188 640 319C640 426 588 521 399 521C273 521 203 491 165 455V506H85ZM393 -81V757H314V-81ZM213 277H489V355H213ZM716 137 749 72C886 178 932 221 932 312C932 389 886 450 765 490C843 556 901 632 964 751L889 793L881 778H659V700H843C790 611 745 553 667 498L673 433C823 390 854 344 854 312C854 271 828 227 716 137ZM903 -90 956 -29C894 28 764 120 665 175L621 113C717 57 843 -32 903 -90Z" transform="translate(0, 880) scale(1,-1)" /></svg>