<svg xmlns="http://www.w3.org/2000/svg" width="1000" height="1000"><path d="M145 765V-61H224V765ZM11 285 80 266C95 337 107 421 119 507L48 515C38 428 24 349 11 285ZM60 407 71 333 296 370 284 444ZM513 365 576 314C660 354 746 439 746 531C746 599 702 645 601 645C498 645 459 600 459 538C459 469 519 431 637 431C823 431 925 495 925 629C925 726 871 808 671 808C487 808 374 763 281 713L323 642C411 687 532 728 671 728C809 728 846 680 846 629C846 553 774 506 637 506C567 506 539 520 539 538C539 556 559 572 601 572C640 572 666 558 666 531C666 467 603 409 513 365ZM787 129 813 47C905 77 962 140 963 234C963 326 888 389 686 389C533 389 375 360 259 324L278 247C390 282 551 309 686 309C833 309 880 274 880 232C880 175 843 146 787 129ZM439 213V134H734V213ZM290 26V-54H904V26Z" transform="translate(0, 880) scale(1,-1)" /></svg>