<svg xmlns="http://www.w3.org/2000/svg" width="1000" height="1000"><path d="M52 -11 114 -78C266 29 415 167 415 278C415 339 378 376 305 376C229 376 197 335 197 284C197 227 246 191 328 191C453 191 549 238 549 351C549 450 487 508 348 508C254 508 163 476 100 436L133 368C189 404 280 430 348 430C437 430 470 398 470 351C470 272 423 265 328 265C298 265 276 272 276 284C276 295 289 302 305 302C323 302 337 294 337 278C337 209 198 74 52 -11ZM87 485V194H166V485ZM326 163V-25H403V163ZM283 -26 327 -91 558 49 514 114ZM561 750H63V677H561ZM352 581V835H272V581ZM521 613H103V541H521ZM563 474 641 443C681 547 717 678 746 810L668 826C640 691 603 570 563 474ZM545 -8 605 -65C759 44 902 234 946 626L893 656L878 643H649V565H856C813 271 697 98 545 -8ZM903 -74 973 -17C852 158 753 276 640 370L581 320C693 221 788 105 903 -74Z" transform="translate(0, 880) scale(1,-1)" /></svg>