<svg xmlns="http://www.w3.org/2000/svg" width="1000" height="1000"><path d="M223 325C383 325 452 425 452 508C452 613 367 693 253 761L195 735C305 669 370 590 370 508C370 446 325 397 223 397C180 397 155 410 155 433C155 481 245 528 465 611L416 662C199 583 69 513 69 433C69 362 134 325 223 325ZM46 729 84 656C223 687 354 721 460 757L422 831C317 792 187 758 46 729ZM506 726V650H931V726ZM488 566V488H950V566ZM678 836V321H758V836ZM456 -82C523 -82 552 -54 552 6V400H472V18C472 1 460 -12 438 -12C399 -12 348 -3 301 10V-69C348 -77 402 -82 456 -82ZM58 30 115 -26C198 15 290 78 347 143L275 177C225 120 141 64 58 30ZM62 208H942V287H62ZM882 -29 940 21C892 65 788 131 705 175L650 128C734 82 835 14 882 -29Z" transform="translate(0, 880) scale(1,-1)" /></svg>