<svg xmlns="http://www.w3.org/2000/svg" width="1000" height="1000"><path d="M140 -50C188 -50 219 -28 219 37V788H142V49C142 35 137 27 125 27C102 27 72 35 40 49V-39C71 -46 105 -50 140 -50ZM33 542H283V617H33ZM301 380 261 443 6 266 50 199ZM327 -33 409 -62C482 73 497 187 502 362H423C416 183 404 98 327 -33ZM730 -68C873 -68 892 88 892 222C892 302 868 368 714 368C649 368 568 360 480 345L482 268C580 284 647 288 714 288C797 288 813 265 813 222C813 135 805 9 721 9C679 9 634 15 593 25V-57C634 -63 675 -68 730 -68ZM763 119 766 196 527 202 523 124ZM403 401C516 401 589 467 589 620C589 726 555 807 427 807C373 807 322 794 289 776L308 698C338 714 385 727 428 727C486 727 509 691 509 620C509 531 475 481 404 481C381 481 364 493 364 515C364 616 639 736 788 736C859 736 891 707 891 645C891 555 854 511 767 511C734 511 679 521 619 539V454C676 440 721 431 768 431C916 431 971 519 971 645C971 754 921 816 788 816C603 816 285 676 285 515C285 444 329 401 403 401ZM574 349 646 314C708 393 752 478 792 587L713 610C675 501 632 419 574 349Z" transform="translate(0, 880) scale(1,-1)" /></svg>