<svg xmlns="http://www.w3.org/2000/svg" width="1000" height="1000"><path d="M172 781V-48H252V781ZM29 301 100 281C115 352 128 436 140 522L68 531C58 444 43 365 29 301ZM77 422 89 348 332 386 320 460ZM502 29 571 -17C662 63 748 191 748 342C748 431 711 505 614 505C516 505 484 438 484 364C484 273 534 216 646 216C816 216 914 332 914 538C914 699 839 809 651 809C478 809 360 693 300 622L362 564C422 632 528 728 651 728C773 728 834 654 834 538C834 394 762 296 646 296C587 296 563 319 563 364C563 400 581 425 614 425C646 425 669 397 669 342C669 218 582 100 502 29ZM299 -41H952V39H299Z" transform="translate(0, 880) scale(1,-1)" /></svg>