<svg xmlns="http://www.w3.org/2000/svg" width="1000" height="1000"><path d="M158 -8H274C313 -8 346 34 346 114C346 190 322 285 291 364L223 331C253 250 271 168 271 122C271 91 259 71 239 71H177C154 71 140 96 140 133C140 285 171 499 242 707L166 735C94 523 61 295 61 109C61 24 98 -8 158 -8ZM380 389 345 461 179 373 212 301ZM363 651V571H915V651ZM600 823V442H678V823ZM346 -4 396 -76C587 2 886 156 886 316C886 415 817 465 680 465C557 465 470 440 383 410L408 333C495 369 571 385 680 385C761 385 803 361 803 316C803 201 539 66 346 -4ZM877 -81 937 -13C761 116 628 193 466 257L421 194C580 126 704 52 877 -81Z" transform="translate(0, 880) scale(1,-1)" /></svg>