<svg xmlns="http://www.w3.org/2000/svg" width="1000" height="1000"><path d="M53 603V524H335V603ZM34 212 97 180 109 199 335 286 317 359 145 290 223 535 157 561ZM165 -38C210 -38 245 -17 245 49V799H167V73C167 51 162 38 143 38C125 38 101 44 69 59V-26C102 -35 133 -38 165 -38ZM808 31V816H729V48C729 29 718 14 699 14C663 14 612 24 559 39V-51C615 -60 674 -66 722 -64C769 -62 808 -47 808 31ZM354 553H956V633H354ZM617 188 682 233C637 301 571 387 503 460L441 415C508 341 574 251 617 188Z" transform="translate(0, 880) scale(1,-1)" /></svg>