<svg xmlns="http://www.w3.org/2000/svg" width="1000" height="1000"><path d="M28 582 100 536C191 612 261 719 302 824L223 850C182 745 111 645 28 582ZM224 573H848V652H224ZM217 701H907V781H217ZM825 352 902 328C923 373 932 400 932 423C932 509 832 543 590 543C418 543 263 517 139 484L158 406C273 437 433 463 590 463C790 463 847 444 847 418C847 402 841 385 825 352ZM469 268 511 199C626 238 752 295 827 340L769 404L753 401H205V323H619C583 306 537 289 469 268ZM455 148 425 80C612 41 772 -5 888 -51L937 27C814 64 653 106 455 148ZM551 167 577 96C684 115 764 131 856 161L808 231C726 203 657 186 551 167ZM458 295 405 234C503 172 557 117 557 63C557 27 540 -6 469 -6C430 -6 393 -2 356 16V-68C390 -77 429 -81 474 -81C608 -81 637 -19 637 63C637 155 563 225 458 295ZM160 224 138 148 377 102 399 178ZM69 38 95 -35 425 43 399 117Z" transform="translate(0, 880) scale(1,-1)" /></svg>