<svg xmlns="http://www.w3.org/2000/svg" width="1000" height="1000"><path d="M583 496V416C884 381 917 497 917 595C917 699 858 766 744 766C666 766 610 734 553 667C571 720 585 775 597 837L516 849C489 711 440 578 383 490L455 446C486 500 505 538 521 576C591 652 675 686 741 686C805 686 836 641 836 595C836 524 807 459 583 496ZM456 3 484 -79C713 -55 930 24 930 206C930 293 875 369 707 369C551 369 433 314 433 199C433 123 491 78 578 78C646 78 722 113 722 210V592H642V221C642 174 617 154 578 154C537 154 515 175 515 199C515 248 576 288 707 288C817 288 845 244 845 207C845 77 655 20 456 3ZM58 601V527H389V601ZM40 195 100 160 114 181 391 275 373 349 153 272 248 534 187 562ZM194 -72C241 -72 276 -51 276 16V814H200V35C200 12 191 -1 176 -1C149 -1 122 5 85 20V-60C123 -69 157 -72 194 -72Z" transform="translate(0, 880) scale(1,-1)" /></svg>