<svg xmlns="http://www.w3.org/2000/svg" width="1000" height="1000"><path d="M313 459H569C616 459 656 485 656 524C656 558 605 629 560 667L500 628C547 589 567 557 567 546C567 531 552 528 527 528H313C278 528 253 540 253 556C253 632 290 691 379 788L315 821C219 722 172 636 172 545C172 480 224 459 313 459ZM732 543 803 535C819 566 829 614 829 666C829 763 754 807 658 807C564 807 491 785 422 736L451 670C514 713 588 734 658 734C714 734 754 709 754 660C754 621 745 576 732 543ZM192 -57H351C402 -57 447 -17 447 56C447 104 421 154 373 192L302 171C351 133 370 88 370 58C370 29 354 14 327 14H192C160 14 139 34 139 67C139 142 174 272 270 411L202 444C104 304 61 148 61 51C61 -28 111 -57 192 -57ZM473 222 448 283 256 209 279 148ZM596 -57H752C784 -57 813 -25 813 27C813 75 777 156 746 209L681 173C714 118 727 68 727 45C727 24 716 15 697 15H596C563 15 542 32 542 55C542 161 569 279 638 417L571 442C498 304 463 166 463 39C463 -32 514 -57 596 -57ZM853 55 920 42C933 86 941 144 941 226C941 332 880 386 802 386C731 386 676 364 624 313L659 252C702 292 753 311 802 311C840 311 868 277 868 217C868 154 861 100 853 55Z" transform="translate(0, 880) scale(1,-1)" /></svg>