<svg xmlns="http://www.w3.org/2000/svg" width="1000" height="1000"><path d="M45 596V516H311V596ZM27 195 90 165 100 185 311 273 293 345 134 275 207 526 141 552ZM150 -58C194 -58 229 -37 229 29V797H151V54C151 31 146 19 128 19C111 19 88 25 58 40V-46C89 -55 119 -58 150 -58ZM285 716V638H960V716ZM475 516 555 540C537 620 497 747 462 835L386 810C420 724 458 597 475 516ZM681 538 753 515C785 589 827 710 858 810L779 835C756 740 713 617 681 538ZM377 556V478H868V556ZM319 359 341 287C429 327 532 360 679 360C798 360 849 334 849 295C849 227 710 218 462 243V165C753 141 929 144 929 295C929 375 868 438 679 438C509 438 404 402 319 359ZM281 -9 321 -82C632 -4 669 126 668 295H589C589 137 567 64 281 -9ZM914 -87 965 -21C879 34 784 88 702 128L659 63C744 20 839 -35 914 -87Z" transform="translate(0, 880) scale(1,-1)" /></svg>