<svg xmlns="http://www.w3.org/2000/svg" width="1000" height="1000"><path d="M165 -59C212 -59 245 -36 245 29V816H167V41C167 27 162 19 150 19C127 19 97 26 65 41V-48C96 -55 130 -59 165 -59ZM58 561H308V636H58ZM327 392 285 454 31 269 75 203ZM274 40 330 -21C490 98 681 256 772 346L718 404L703 396H403V316H631C547 241 420 139 274 40ZM622 -65C665 -65 703 -55 751 -28V57C704 26 671 12 639 12C622 12 614 15 614 46V205H535V28C535 -38 564 -65 622 -65ZM906 -25 964 35C890 97 797 168 716 218L663 166C742 113 833 42 906 -25ZM308 458H913V538H308ZM714 526 757 595C670 639 595 664 500 686L467 615C565 592 636 566 714 526ZM603 637 677 592C742 638 831 710 880 759L829 814L813 808H362V728H726C688 695 649 667 603 637Z" transform="translate(0, 880) scale(1,-1)" /></svg>