<svg xmlns="http://www.w3.org/2000/svg" width="1000" height="1000"><path d="M162 -30C210 -30 242 -7 242 57V784H164V70C164 56 159 48 147 48C123 48 93 55 60 70V-19C92 -26 126 -30 162 -30ZM45 544H318V620H45ZM335 387 296 450 20 279 61 211ZM378 748V-15H457V674C615 685 787 710 903 754L858 830C750 786 549 759 378 748ZM702 -55 772 -98C849 41 877 190 877 327C877 463 817 528 679 528C557 528 472 475 401 399L439 323C523 411 603 447 679 447C742 447 797 424 797 327C797 196 771 69 702 -55ZM918 70 968 142C879 204 770 268 638 335L598 268C719 205 824 140 918 70Z" transform="translate(0, 880) scale(1,-1)" /></svg>