<svg xmlns="http://www.w3.org/2000/svg" width="1000" height="1000"><path d="M637 297C833 297 941 378 941 498C941 607 838 661 689 661C673 661 659 660 645 658C715 689 775 718 859 760L804 824L784 814H440V736H652C603 706 554 678 502 651C484 642 457 637 429 627L468 554C523 573 592 582 683 582C788 582 855 553 855 498C855 419 766 375 632 375C558 375 506 392 506 420C506 440 534 454 576 454C644 454 690 424 699 350L773 359C758 471 689 525 577 525C490 525 427 481 427 417C427 334 510 297 637 297ZM281 824V307H360V824ZM317 456 299 532 170 503V735H91V515C91 495 75 483 61 479L86 404ZM241 -88C399 -88 524 -27 524 79C524 152 489 212 320 283L262 231C422 161 442 117 442 79C442 28 351 -12 241 -11C171 -10 137 4 137 25C137 97 559 127 735 128V0H597V-78H953V0H815V197L755 217L737 206C522 199 59 178 59 25C59 -46 125 -88 241 -88ZM147 269 179 198C362 223 541 259 717 305L651 371C512 334 314 292 147 269Z" transform="translate(0, 880) scale(1,-1)" /></svg>