<svg xmlns="http://www.w3.org/2000/svg" width="1000" height="1000"><path d="M60 614V534H365V614ZM41 226 103 192 116 211 366 299 348 372 155 302 240 545 175 573ZM182 -25C228 -25 265 -4 265 62V809H187V86C187 64 180 51 161 51C141 51 115 57 81 72V-13C116 -22 149 -25 182 -25ZM682 179 756 149C820 302 863 431 903 563L821 585C784 449 744 320 682 179ZM354 -16H938V64H354ZM521 154 594 178C556 314 513 457 467 581L392 552C438 433 481 297 521 154ZM378 695H914V775H378Z" transform="translate(0, 880) scale(1,-1)" /></svg>