<svg xmlns="http://www.w3.org/2000/svg" width="1000" height="1000"><path d="M109 -36 189 -27C138 108 128 205 157 286C191 378 194 450 144 527L66 509C113 425 115 363 85 292C51 214 57 108 109 -36ZM198 603 245 670C208 698 138 743 86 773L41 714C93 681 163 633 198 603ZM624 314H544C544 107 434 29 210 -7L250 -81C488 -38 624 69 624 314ZM241 135H924V213H241ZM906 -86 955 -18C886 31 765 95 656 139L610 79C718 31 841 -38 906 -86ZM236 439 260 363C369 407 527 437 681 437C810 437 839 420 839 396C839 378 832 358 820 337L893 306C907 334 917 363 917 400C917 480 845 516 681 516C487 516 347 489 236 439ZM880 622H285V544H880ZM623 586V843H543V586ZM234 680H932V758H234ZM357 287H808V365H357Z" transform="translate(0, 880) scale(1,-1)" /></svg>