<svg xmlns="http://www.w3.org/2000/svg" width="1000" height="1000"><path d="M124 -36 205 -28C155 104 145 199 174 279C207 369 211 439 160 515L81 497C127 415 129 354 99 285C66 208 72 104 124 -36ZM230 587 277 656C236 684 158 728 100 756L56 695C114 663 192 616 230 587ZM540 538 599 485C700 560 811 666 876 754L816 805L801 799H326V719H738C694 668 626 602 540 538ZM550 318 513 258C676 183 816 96 917 10L971 89C864 160 723 240 550 318ZM624 356 656 287C750 324 820 354 900 410L849 479C777 426 717 393 624 356ZM556 603 486 561C575 436 629 319 629 191C629 112 615 11 551 11C516 11 481 17 448 34V-52C479 -62 517 -67 559 -67C683 -67 709 65 709 191C709 325 647 471 556 603ZM303 455 266 385 475 293 512 363ZM206 93 246 25 534 179 494 247Z" transform="translate(0, 880) scale(1,-1)" /></svg>