<svg xmlns="http://www.w3.org/2000/svg" width="1000" height="1000"><path d="M187 792V-71H265V792ZM54 296 123 278C138 349 150 433 161 519L90 526C81 439 67 360 54 296ZM103 419 114 345 336 381 325 455ZM770 500C754 456 734 414 707 369L752 302C825 322 857 297 857 246C857 171 749 109 619 80L653 7C810 54 938 108 938 246C938 359 874 395 801 386L881 561L810 599L795 586C424 531 326 393 326 309C326 249 363 200 432 200C567 200 691 473 805 780L737 813L719 799H392V719H697C619 498 502 280 434 280C415 280 405 290 405 307C405 345 464 453 770 500ZM641 -88 718 -59C700 10 663 105 628 178L554 150C588 81 621 -15 641 -88Z" transform="translate(0, 880) scale(1,-1)" /></svg>