<svg xmlns="http://www.w3.org/2000/svg" width="1000" height="1000"><path d="M38 600V520H314V600ZM19 210 88 178 99 192 314 278 289 355 137 291 213 532 142 554ZM160 -36C204 -36 240 -15 240 51V788H162V74C162 52 156 40 138 40C120 40 96 46 64 61V-24C97 -33 128 -36 160 -36ZM934 -62 976 16C751 130 695 378 499 378C385 378 325 305 325 150C325 16 369 -62 468 -62C669 -62 706 266 706 826H627C627 270 580 18 468 18C425 18 404 71 404 150C404 238 427 298 499 298C631 298 715 52 934 -62ZM341 547H944V627H341Z" transform="translate(0, 880) scale(1,-1)" /></svg>