<svg xmlns="http://www.w3.org/2000/svg" width="1000" height="1000"><path d="M101 -36 181 -27C129 112 119 214 149 297C184 392 187 467 135 546L58 528C106 441 108 376 77 303C42 223 48 112 101 -36ZM187 627 235 693C199 722 130 769 79 799L32 741C84 708 152 657 187 627ZM308 781V333H387V706C568 714 759 731 894 760L844 833C723 806 496 788 308 781ZM880 -80 919 -8C774 33 506 97 301 132L257 60C468 23 736 -36 880 -80ZM755 101 794 175C706 199 570 227 464 246L425 175C530 157 670 126 755 101ZM223 281H960V360H223ZM762 323 829 293C872 348 892 405 892 469C892 568 826 631 663 631C526 631 431 593 342 534L372 474C466 524 556 551 663 551C768 551 812 526 812 469C812 414 797 371 762 323Z" transform="translate(0, 880) scale(1,-1)" /></svg>