<svg xmlns="http://www.w3.org/2000/svg" width="1000" height="1000"><path d="M28 588 100 543C191 617 261 721 302 823L223 850C182 748 111 650 28 588ZM224 578H848V657H224ZM217 703H907V784H217ZM825 364 903 341C923 385 932 411 932 433C932 518 833 551 590 551C418 551 264 525 140 494L158 416C273 445 433 471 590 471C790 471 847 453 847 427C847 412 841 397 825 364ZM120 305 172 237C291 282 402 346 503 420L438 472C342 401 233 345 120 305ZM90 175 122 100C442 139 651 221 809 354L757 412L739 405H351V330H633C535 262 396 214 90 175ZM876 100 918 175C700 227 514 263 301 295L264 221C478 188 662 152 876 100ZM784 -96 823 -25C681 5 420 52 219 78L176 7C382 -21 645 -64 784 -96ZM668 37 708 108C621 125 488 147 383 160L345 92C448 79 585 56 668 37Z" transform="translate(0, 880) scale(1,-1)" /></svg>