<svg xmlns="http://www.w3.org/2000/svg" width="1000" height="1000"><path d="M40 577V498H326V577ZM21 188 89 155 101 170 326 256 302 333 140 269 220 509 149 532ZM167 -58C212 -58 248 -37 248 29V765H170V52C170 30 164 18 145 18C126 18 101 24 69 39V-46C102 -55 134 -58 167 -58ZM596 -63C666 -63 684 -27 684 38V530H606V46C606 24 598 16 584 15C565 14 522 25 476 42V-49C517 -58 554 -63 596 -63ZM311 131 378 91C441 181 483 330 505 450L424 463C406 348 367 216 311 131ZM894 83 975 106C951 203 897 356 839 470L762 448C819 331 873 179 894 83ZM741 582 800 642C741 696 623 776 548 809L497 747C574 713 681 639 741 582Z" transform="translate(0, 880) scale(1,-1)" /></svg>