<svg xmlns="http://www.w3.org/2000/svg" width="1000" height="1000"><path d="M495 731 571 749C558 783 534 821 510 852L436 833C458 804 484 762 495 731ZM816 603 893 579C914 622 922 649 922 670C922 746 818 782 587 782C419 782 266 756 165 723V766H83V597H165V657C277 685 433 703 587 703C782 703 837 686 837 661C837 648 832 633 816 603ZM161 625V547H839V625ZM333 477 408 498C396 551 372 627 351 685L276 665C297 610 321 530 333 477ZM587 493 659 474C680 525 706 603 724 665L649 685C633 622 608 544 587 493ZM244 511V432H756V511ZM462 -87C515 -86 548 -59 548 7V386H467V29C467 4 456 -10 429 -10C396 -10 342 2 284 20V-65C341 -79 397 -88 462 -87ZM81 75H919V153H81ZM140 202H860V280H140ZM141 391 158 315C354 313 645 325 832 361L786 434C632 405 347 391 141 391Z" transform="translate(0, 880) scale(1,-1)" /></svg>