<svg xmlns="http://www.w3.org/2000/svg" width="1000" height="1000"><path d="M43 600V520H304V600ZM24 200 87 170 98 190 304 278 286 350 131 281 203 531 137 557ZM145 -52C189 -52 224 -31 224 35V800H146V60C146 37 141 25 123 25C107 25 84 31 54 45V-40C85 -49 115 -52 145 -52ZM593 146C675 146 723 207 723 448C723 653 646 771 520 771C435 771 379 738 348 699L370 636C400 664 451 691 520 691C578 691 644 614 644 448C644 271 620 226 593 226C573 226 562 276 562 338C562 553 629 709 749 709C823 709 844 611 844 449C844 156 818 22 762 22C718 22 673 31 629 51V-39C675 -52 717 -57 766 -57C881 -57 923 66 923 449C923 666 887 789 749 789C614 789 483 642 483 338C483 219 517 146 593 146ZM326 787V-39H405V787ZM272 439V359H960V439Z" transform="translate(0, 880) scale(1,-1)" /></svg>