<svg xmlns="http://www.w3.org/2000/svg" width="1000" height="1000"><path d="M190 346V839H110V346ZM149 763V683H523V763ZM650 377 680 301C824 339 923 392 923 508C923 606 864 667 674 667C482 667 277 579 131 468L182 406C321 505 511 586 674 586C795 586 840 553 840 508C840 431 758 405 650 377ZM503 24 581 -24C695 36 741 103 741 190C741 278 657 335 510 335C340 335 245 289 245 203C245 128 314 92 430 92C508 92 546 139 546 211V493H466V220C466 180 441 165 411 165C368 165 330 178 330 203C330 234 372 256 510 256C604 256 656 226 656 189C656 138 621 86 503 24ZM78 -46H930V33H78Z" transform="translate(0, 880) scale(1,-1)" /></svg>