<svg xmlns="http://www.w3.org/2000/svg" width="1000" height="1000"><path d="M679 327 729 396C571 475 392 542 237 591L190 525C349 475 524 404 679 327ZM647 170C824 170 917 307 917 493C917 685 796 757 584 757C405 757 276 728 166 675L201 605C293 652 436 678 579 678C735 678 836 631 836 492C836 364 765 248 641 248C583 248 529 257 473 278V189C527 176 582 170 647 170ZM104 377 164 312C303 395 412 505 464 616L385 643C339 537 240 446 104 377ZM183 226 240 162C437 247 617 414 665 618L586 637C536 448 371 300 183 226ZM77 578 148 531C233 616 286 705 335 813L256 841C208 732 145 643 77 578ZM59 -36 124 -79C183 -27 235 44 260 111L188 144C166 79 111 9 59 -36ZM524 -71C567 -71 607 -57 663 -16L607 47C577 20 559 13 536 13C512 13 496 36 466 135L386 118C431 -37 475 -71 524 -71ZM878 -76 947 -32C912 19 846 95 788 150L728 101C790 44 846 -28 878 -76Z" transform="translate(0, 880) scale(1,-1)" /></svg>