<svg xmlns="http://www.w3.org/2000/svg" width="1000" height="1000"><path d="M152 -72C200 -72 232 -49 232 16V790H154V28C154 14 149 6 138 6C115 6 85 13 54 28V-61C84 -68 117 -72 152 -72ZM51 538H289V613H51ZM307 372 266 434 24 251 69 186ZM848 533 914 484C945 513 967 550 967 603C967 688 893 742 692 742C530 742 396 706 297 650L336 580C430 630 554 662 692 662C852 662 887 634 887 603C887 577 874 554 848 533ZM589 484H668V837H589ZM814 519 444 518V440H814ZM487 -72H833C908 -72 935 -18 955 117L874 128C865 37 849 8 811 8H518C465 8 448 15 448 26C448 46 462 62 872 307L830 378L810 370H348V291L681 292C386 112 354 75 354 21C354 -32 389 -72 487 -72Z" transform="translate(0, 880) scale(1,-1)" /></svg>