<svg xmlns="http://www.w3.org/2000/svg" width="1000" height="1000"><path d="M73 241 131 175C455 296 680 467 777 705L692 726C614 516 402 358 73 241ZM728 -92 761 -17C606 37 447 83 284 119L243 48C408 9 569 -37 728 -92ZM677 71 709 148C594 187 480 220 375 247L335 178C456 145 568 113 677 71ZM153 636 218 584C304 643 388 724 447 799L373 840C323 770 234 687 153 636ZM692 190H837C894 190 926 215 945 327L865 339C856 280 848 268 816 268H687C654 268 643 281 643 306V422H563V282C563 218 609 190 692 190ZM104 433 162 375C272 431 325 469 348 479C451 528 583 540 675 540C781 540 826 529 826 499C826 468 782 452 727 452C665 452 610 464 563 489L521 413C586 386 655 373 727 373C830 373 906 407 906 499C906 596 809 619 675 619C596 619 532 610 470 593C518 636 561 679 603 726L540 772L520 762H321V682H454C362 587 258 514 104 433Z" transform="translate(0, 880) scale(1,-1)" /></svg>