<svg xmlns="http://www.w3.org/2000/svg" width="1000" height="1000"><path d="M145 565H855V628H538V693H916V758H538V843H462V758H84V693H462V628H145ZM465 -82C517 -82 541 -58 541 0V541H463V4C463 -7 457 -15 443 -15C409 -15 372 -8 333 6V-71C369 -77 412 -82 465 -82ZM58 -12 123 -53C203 -9 291 58 342 129L264 147C219 85 138 26 58 -12ZM136 175H863V240H136ZM866 -50 932 -13C885 34 784 103 704 150L641 118C722 68 820 -4 866 -50ZM156 301H843V366H156ZM86 425H913V492H86Z" transform="translate(0, 880) scale(1,-1)" /></svg>