<svg xmlns="http://www.w3.org/2000/svg" width="1000" height="1000"><path d="M107 -36 187 -28C136 107 126 204 155 285C188 377 191 448 141 525L65 507C111 424 113 361 83 291C50 213 56 107 107 -36ZM189 602 236 668C200 696 134 741 84 770L39 712C89 680 155 632 189 602ZM225 716V638H947V716ZM431 516 511 540C491 620 449 747 412 835L336 810C372 724 413 597 431 516ZM650 538 723 515C757 589 802 710 835 810L756 835C731 740 685 617 650 538ZM323 556V478H849V556ZM261 359 285 287C379 327 489 360 646 360C776 360 830 334 830 295C830 227 680 218 414 243V165C725 141 911 144 911 295C911 375 846 438 646 438C464 438 352 402 261 359ZM221 -9 263 -82C592 -4 632 126 632 295H552C552 137 530 64 221 -9ZM899 -87 952 -21C860 34 758 88 670 128L625 63C716 20 818 -35 899 -87Z" transform="translate(0, 880) scale(1,-1)" /></svg>