<svg xmlns="http://www.w3.org/2000/svg" width="1000" height="1000"><path d="M43 587V507H330V587ZM24 193 87 161 98 181 330 268 312 341 135 271 214 518 149 545ZM157 -59C202 -59 238 -38 238 28V785H160V52C160 30 154 18 136 18C117 18 92 23 60 38V-47C93 -56 125 -59 157 -59ZM614 684 690 705C674 751 645 805 616 848L544 827C571 785 601 728 614 684ZM847 511 925 482C948 533 959 566 959 599C959 689 870 731 689 731C549 731 390 704 293 674L315 597C408 626 565 649 689 649C833 649 872 625 872 592C872 571 866 550 847 511ZM401 476H711L611 363L674 317L842 503L787 563L771 556H401ZM444 -21 503 -92C740 -6 859 74 859 216C859 320 785 378 651 378C575 378 487 367 427 349L449 266C503 283 581 298 651 298C735 298 779 268 779 216C779 122 663 48 444 -21Z" transform="translate(0, 880) scale(1,-1)" /></svg>