<svg xmlns="http://www.w3.org/2000/svg" width="1000" height="1000"><path d="M58 -37 125 -79C183 -13 235 78 261 166L187 193C164 108 110 20 58 -37ZM524 -71C570 -71 613 -49 666 3L607 65C577 30 556 20 535 20C511 20 495 49 465 190L384 174C426 -24 469 -71 524 -71ZM876 -75 949 -33C914 32 848 130 790 200L726 152C788 80 844 -12 876 -75ZM71 484 146 446C204 552 255 697 282 820L202 834C175 713 126 577 71 484ZM183 617H900V696H183ZM269 250 341 281C323 343 286 432 251 498L181 468C214 405 250 313 269 250ZM499 282 577 305C564 374 535 463 504 539L428 517C458 443 486 351 499 282ZM689 271 758 244C796 316 836 413 865 493L785 520C763 442 724 342 689 271Z" transform="translate(0, 880) scale(1,-1)" /></svg>