<svg xmlns="http://www.w3.org/2000/svg" width="1000" height="1000"><path d="M61 598V523H361V598ZM43 193 104 162 116 182 362 274 344 347 152 273 237 531 175 557ZM182 -67C227 -67 262 -46 262 21V807H186V40C186 17 179 4 165 4C140 4 115 10 81 25V-55C116 -64 148 -67 182 -67ZM519 226H787V306H519ZM612 265H691V749H612ZM362 709H942V789H362ZM414 540 427 467C482 484 540 492 614 492H769C821 492 845 465 845 406V52C845 24 842 10 820 10C795 10 758 16 718 29V-57C756 -64 792 -69 823 -69C889 -69 923 -38 923 40V416C923 513 881 571 776 571H612C532 571 474 559 414 540ZM460 -72V571H381V-72Z" transform="translate(0, 880) scale(1,-1)" /></svg>