<svg xmlns="http://www.w3.org/2000/svg" width="1000" height="1000"><path d="M40 602V522H321V602ZM21 204 89 172 101 187 321 275 296 352 138 286 217 533 146 555ZM164 -47C208 -47 245 -26 245 40V795H167V64C167 42 161 30 142 30C123 30 99 35 67 50V-35C100 -44 131 -47 164 -47ZM853 291C922 291 956 323 966 462L897 476C892 385 883 372 853 371C708 367 588 593 574 827H493C511 538 665 291 853 291ZM315 -46H962V34H315ZM397 129H888V209H397ZM347 379 383 301C542 339 774 407 899 572L832 618C714 466 496 406 347 379ZM341 586 931 663 922 742 332 668Z" transform="translate(0, 880) scale(1,-1)" /></svg>