<svg xmlns="http://www.w3.org/2000/svg" width="1000" height="1000"><path d="M48 598V518H373V598ZM28 203 94 167 108 183 375 273 352 351 150 280 244 528 175 553ZM192 -53C239 -53 278 -32 278 34V792H199V58C199 36 193 24 173 24C149 24 122 29 85 44V-41C123 -50 157 -53 192 -53ZM383 664H949V744H383ZM787 670 710 709C668 632 602 546 530 474C517 461 490 452 436 426L473 350C542 391 614 413 679 413C767 413 834 368 834 232C834 69 788 14 726 14C694 14 652 21 603 38V-46C645 -59 686 -64 733 -64C855 -64 914 33 914 232C914 430 820 493 687 493C668 493 655 492 638 488C696 552 741 602 787 670Z" transform="translate(0, 880) scale(1,-1)" /></svg>