<svg xmlns="http://www.w3.org/2000/svg" width="1000" height="1000"><path d="M165 761 109 707C162 665 221 613 250 576L309 635C277 670 218 722 165 761ZM144 58 216 45 330 480 269 511 250 500H49V421H231ZM344 176 70 50 106 -27 380 109ZM359 9 413 -63C608 65 909 310 909 567C909 722 842 792 693 792C577 792 467 754 376 705L408 630C497 684 591 710 693 710C789 710 828 652 828 567C828 350 552 124 359 9ZM886 -67 951 -2C772 212 636 338 472 443L421 386C583 275 710 153 886 -67Z" transform="translate(0, 880) scale(1,-1)" /></svg>