<svg xmlns="http://www.w3.org/2000/svg" width="1000" height="1000"><path d="M60 601V521H346V601ZM41 193 109 161 121 177 346 267 321 344 157 276 239 531 168 553ZM186 -65C231 -65 268 -44 268 23V800H190V47C190 24 184 12 165 12C146 12 121 18 88 33V-53C122 -62 154 -65 186 -65ZM368 131 669 278 638 347 338 210ZM472 -73C519 -73 557 -52 557 16V747H477V42C477 18 470 5 449 5C430 5 407 9 381 23V-61C413 -70 443 -73 472 -73ZM356 447H656V527H356ZM362 774 367 692C461 697 582 715 659 736L644 815C572 794 456 776 362 774ZM727 131 758 66C888 172 932 215 932 306C932 383 889 444 775 484C848 550 903 627 963 746L887 787L880 772H673V694H845C795 605 753 548 680 492L686 427C827 384 855 338 855 306C855 265 832 221 727 131ZM903 -96 955 -35C897 21 773 113 678 168L633 107C725 51 845 -38 903 -96Z" transform="translate(0, 880) scale(1,-1)" /></svg>