<svg xmlns="http://www.w3.org/2000/svg" width="1000" height="1000"><path d="M170 -78C218 -78 250 -55 250 9V817H172V13C172 -1 167 -9 155 -9C131 -9 101 -2 68 13V-67C100 -74 134 -78 170 -78ZM54 556H324V632H54ZM342 382 302 446 27 256 71 189ZM454 340H823V420H454ZM324 155H952V235H324ZM323 399 377 339C648 448 682 632 682 840H601C601 645 583 501 323 399ZM890 333 954 387C878 462 793 539 718 601L662 548C738 486 822 407 890 333ZM334 696 343 613C549 619 783 640 948 668L926 746C772 717 545 698 334 696ZM604 -79C660 -79 690 -44 690 16V368H612V27C612 10 603 -3 583 -3C552 -3 515 3 468 20V-62C516 -74 557 -79 604 -79Z" transform="translate(0, 880) scale(1,-1)" /></svg>