<svg xmlns="http://www.w3.org/2000/svg" width="1000" height="1000"><path d="M28 577V497H304V577ZM9 187 78 155 89 169 305 255 279 332 127 268 203 509 132 531ZM150 -59C195 -59 230 -38 230 28V764H152V51C152 29 146 17 128 17C110 17 86 23 54 38V-47C87 -56 118 -59 150 -59ZM948 673 875 709C821 620 761 541 696 464L744 396L763 403H821L619 282L691 228L981 415L927 490L908 481H807C851 532 902 601 948 673ZM638 -72C888 -72 966 19 966 124C966 236 889 294 721 294C615 294 535 282 451 266L467 188C548 202 626 214 721 214C837 214 886 184 886 124C886 59 830 6 638 6C489 6 432 31 432 51C432 66 455 81 537 81C607 81 621 72 621 59C621 41 587 18 508 -2L552 -61C638 -34 710 -1 710 59C710 119 656 155 537 155C415 155 353 108 353 51C353 -14 418 -72 638 -72ZM281 722 312 649C462 681 612 726 757 780L702 845C586 801 421 750 281 722ZM885 619 877 699C581 642 288 558 288 423C288 358 332 312 422 312C556 312 645 383 645 505C645 589 610 668 518 749L448 706C532 626 565 560 565 505C565 426 496 389 420 391C384 392 368 402 368 423C368 505 606 566 885 619Z" transform="translate(0, 880) scale(1,-1)" /></svg>