<svg xmlns="http://www.w3.org/2000/svg" width="1000" height="1000"><path d="M115 -25 196 -17C147 114 136 208 164 287C197 377 201 446 151 521L72 503C118 422 120 362 91 293C58 217 64 114 115 -25ZM216 593 262 661C222 689 147 732 91 761L47 700C104 669 178 621 216 593ZM721 -54C883 -54 944 115 944 266C944 424 851 557 637 557C402 557 236 304 236 133C236 7 297 -28 365 -28C550 -28 653 343 805 772L734 807L721 795H345V715H699C591 393 473 52 365 52C336 52 315 78 315 133C315 267 449 477 637 477C794 477 864 380 864 266C864 159 844 26 721 26C682 26 661 43 661 84C661 116 677 141 706 141C740 141 769 97 795 31L858 66C825 142 784 217 706 217C629 217 584 156 584 84C584 4 626 -54 721 -54Z" transform="translate(0, 880) scale(1,-1)" /></svg>