<svg xmlns="http://www.w3.org/2000/svg" width="1000" height="1000"><path d="M167 -54C214 -54 246 -31 246 33V803H169V46C169 32 164 24 152 24C128 24 99 31 67 46V-43C98 -50 131 -54 167 -54ZM61 553H307V628H61ZM326 387 285 449 35 268 79 202ZM549 -60H810C890 -60 911 -18 926 132L847 139C840 40 830 20 795 20H570C546 20 539 26 539 37C539 57 552 71 818 241L766 317L741 303H689L842 484L781 537L763 525C472 501 303 406 303 295C303 235 346 194 406 194C505 194 563 277 798 724L734 762L717 752H505V672H685C501 325 454 274 406 274C390 274 382 282 382 295C382 340 495 418 703 435L570 282L608 223H645C466 117 439 85 439 29C439 -27 472 -60 549 -60ZM330 507 395 460C480 572 544 690 597 822L521 844C473 723 408 604 330 507ZM889 211 965 238C948 300 917 383 887 441L817 413C847 352 875 273 889 211Z" transform="translate(0, 880) scale(1,-1)" /></svg>