<svg xmlns="http://www.w3.org/2000/svg" width="1000" height="1000"><path d="M53 609V529H318V609ZM34 190 103 160 114 176 318 268 292 345 147 276 222 539 151 560ZM169 -72C213 -72 249 -51 249 16V814H171V41C171 18 166 5 148 5C130 5 107 11 76 26V-60C108 -69 138 -72 169 -72ZM421 837 377 774C424 750 474 720 502 698L547 764C518 785 468 815 421 837ZM392 392 472 379 607 648 540 686 525 677H329V599H494ZM615 502 328 406 355 329 644 432ZM582 302 646 250C762 357 854 453 955 595L885 637L846 588H730C768 652 811 732 850 815L772 847C732 748 690 670 649 604C640 590 628 580 616 573L648 500L666 510H789C736 443 654 362 582 302ZM782 104 807 30C895 53 944 109 944 185C944 268 867 321 693 321C555 321 411 296 308 263L327 188C427 219 572 243 693 243C816 243 862 215 862 184C862 141 832 115 782 104ZM469 172V94H739V172ZM336 12V-68H892V12Z" transform="translate(0, 880) scale(1,-1)" /></svg>