<svg xmlns="http://www.w3.org/2000/svg" width="1000" height="1000"><path d="M121 -46 201 -37C149 103 139 204 169 288C205 383 208 457 155 537L78 518C126 432 128 367 96 294C61 214 67 103 121 -46ZM216 615 261 685C223 715 151 761 97 791L53 729C108 696 180 646 216 615ZM386 834 344 777C393 753 446 723 474 701L518 760C488 782 435 811 386 834ZM365 392 437 379 580 648 516 682 500 672H289V604H477ZM597 499 293 403 313 332 620 434ZM577 312 620 249C744 356 841 453 948 595L884 637L843 583H707C748 647 795 731 837 814L762 847C719 748 675 670 631 604C621 590 608 580 595 573L627 503L645 515H789C734 448 652 371 577 312ZM773 104 796 30C889 53 938 109 939 185C939 268 858 321 676 321C529 321 379 295 269 263L283 188C392 219 545 244 676 244C810 244 859 215 859 184C859 141 825 115 773 104ZM438 171V95H724V171ZM296 12V-66H886V12Z" transform="translate(0, 880) scale(1,-1)" /></svg>