<svg xmlns="http://www.w3.org/2000/svg" width="1000" height="1000"><path d="M147 790V-67H225V790ZM24 295 92 278C106 349 117 433 127 519L58 525C49 438 36 359 24 295ZM73 419 83 345 286 379 275 453ZM386 540H819V618H386ZM434 706 509 732C497 761 472 810 445 843L372 818C397 784 420 742 434 706ZM259 653H946V732H259ZM693 716 762 693C795 735 821 780 841 823L762 846C747 806 723 758 693 716ZM837 304 912 275C936 326 946 356 946 387C946 479 863 516 665 516C524 516 397 489 297 454L323 378C413 411 540 436 665 436C822 436 865 413 865 383C865 363 857 343 837 304ZM647 -78C826 -78 870 18 870 176C870 331 833 395 661 395C566 395 491 383 431 353V376H353V-65H431V284C496 307 574 315 661 315C761 315 790 281 790 176C790 79 744 1 647 1C599 1 551 4 497 16V-70C545 -75 594 -78 647 -78ZM404 173H728V252H404ZM404 59H728V139H404Z" transform="translate(0, 880) scale(1,-1)" /></svg>