<svg xmlns="http://www.w3.org/2000/svg" width="1000" height="1000"><path d="M37 598V518H350V598ZM17 204 80 170 93 189 352 279 334 352 132 280 220 529 156 556ZM163 -51C209 -51 247 -30 247 36V796H168V60C168 38 162 26 143 26C121 26 95 31 60 46V-39C96 -48 129 -51 163 -51ZM266 -10 319 -80C542 35 713 240 713 567V824H633V567C633 278 474 87 266 -10ZM759 -64H870C945 -64 956 3 961 190L882 198C879 36 873 16 859 16H769C754 16 752 23 752 71V308H673V67C673 -36 690 -64 759 -64ZM796 335 857 279C920 351 940 408 940 472C940 570 881 638 779 638C567 638 451 534 302 431L356 358C515 478 599 558 779 558C837 558 860 523 860 472C860 427 839 377 796 335ZM388 481 457 451C508 523 562 615 590 695L528 734L512 723H306V643H480C456 591 427 536 388 481Z" transform="translate(0, 880) scale(1,-1)" /></svg>