<svg xmlns="http://www.w3.org/2000/svg" width="1000" height="1000"><path d="M58 600V526H351V600ZM40 202 101 171 113 191 351 281 333 353 149 282 232 534 169 560ZM174 -53C219 -53 255 -32 255 34V805H179V59C179 36 172 24 154 24C134 24 109 30 76 45V-41C110 -50 142 -53 174 -53ZM639 511 699 463C769 525 846 620 913 747L851 795L835 785H406V707H791C747 625 696 565 639 511ZM361 -24 439 -26C428 123 440 283 467 422L390 432C360 289 348 118 361 -24ZM635 -70C674 -70 707 -63 751 -41V48C708 22 674 13 648 13C628 13 618 27 618 75C618 172 632 277 659 430L584 441C558 284 542 179 542 73C542 -23 565 -70 635 -70ZM863 -44 945 -33C943 115 914 299 874 432L797 410C837 279 861 101 863 -44Z" transform="translate(0, 880) scale(1,-1)" /></svg>