<svg xmlns="http://www.w3.org/2000/svg" width="1000" height="1000"><path d="M178 -62C226 -62 258 -39 258 25V788H180V38C180 23 175 16 163 16C139 16 110 23 77 38V-51C109 -58 142 -62 178 -62ZM68 539H325V615H68ZM342 375 302 437 42 258 85 191ZM317 695 360 626C447 691 538 731 673 731C803 731 843 697 843 629C843 540 790 501 463 536V455C807 425 923 471 923 629C923 731 867 811 673 811C513 811 406 762 317 695ZM300 112H928V192H300ZM546 -72C621 -72 663 -34 663 49V633H584L583 66C583 26 571 6 538 6C507 6 471 13 435 27V-59C467 -68 502 -72 546 -72ZM326 266H901V346H326Z" transform="translate(0, 880) scale(1,-1)" /></svg>