<svg xmlns="http://www.w3.org/2000/svg" width="1000" height="1000"><path d="M569 525 648 503C661 524 669 547 669 571C669 626 617 673 502 673C382 673 340 628 340 579C340 521 397 481 546 481C768 481 886 530 886 656C886 750 815 823 585 823C384 823 266 788 173 744L210 673C305 716 428 744 585 744C745 744 800 697 800 656C800 586 718 549 546 549C456 549 422 560 422 577C422 593 448 608 502 608C554 608 586 595 586 571C586 555 579 540 569 525ZM155 800V504H233V800ZM943 435H131V273C131 181 123 64 35 -29L103 -77C196 24 209 172 209 273V357H943ZM199 -7 247 -78C578 7 620 141 620 318H540C540 170 516 72 199 -7ZM891 -86 950 -21C857 38 752 98 663 142L613 78C706 31 808 -29 891 -86Z" transform="translate(0, 880) scale(1,-1)" /></svg>