<svg xmlns="http://www.w3.org/2000/svg" width="1000" height="1000"><path d="M50 599V519H344V599ZM31 206 99 172 111 188 345 275 321 352 150 286 233 530 163 553ZM181 -44C226 -44 263 -23 263 43V789H184V67C184 45 178 32 159 32C139 32 114 38 80 53V-32C115 -41 147 -44 181 -44ZM479 85V448H400V85C400 -32 441 -57 564 -57H808C910 -57 940 1 957 173L874 184C865 47 851 23 789 23H574C495 23 479 34 479 85ZM772 358C853 358 893 432 906 770L845 793L827 781H393V701H823C814 493 792 438 760 438C698 438 649 446 595 460V375C647 364 703 358 772 358Z" transform="translate(0, 880) scale(1,-1)" /></svg>