<svg xmlns="http://www.w3.org/2000/svg" width="1000" height="1000"><path d="M226 -46C302 -46 332 23 332 136C332 314 283 558 211 809L132 786C202 545 252 303 252 136C252 66 243 34 217 34C195 34 171 44 149 61V-28C173 -41 196 -46 226 -46ZM13 -4 89 -36C161 120 195 247 221 415L143 425C117 263 84 143 13 -4ZM39 538H351V617H39ZM344 556 421 528C463 614 499 735 517 828L438 841C419 744 384 631 344 556ZM435 660H940V738H435ZM795 -74C858 -74 887 -48 887 16V459C887 554 854 591 748 591H662C599 591 555 584 517 571V492C560 506 603 512 658 512H735C792 512 808 490 808 434V25C808 5 800 -3 778 -3C747 -3 715 6 680 19V-62C717 -69 752 -74 795 -74ZM356 -34 431 -71C533 50 534 200 534 333V589H456V333C456 209 451 80 356 -34ZM723 286 771 352C714 390 649 426 575 462L532 398C604 362 668 324 723 286ZM349 269V190H970V269Z" transform="translate(0, 880) scale(1,-1)" /></svg>