<svg xmlns="http://www.w3.org/2000/svg" width="1000" height="1000"><path d="M99 -36 180 -28C129 106 119 203 148 284C181 375 184 446 134 523L57 505C103 422 105 360 76 290C43 212 48 106 99 -36ZM187 599 234 665C197 694 128 738 77 768L32 709C83 677 152 628 187 599ZM237 638H944V718H648L602 830L526 812L563 718H237ZM281 447 332 383C418 456 515 501 661 501C792 501 827 469 827 424C827 337 675 332 444 359V279C701 258 907 262 907 424C907 512 850 581 661 581C490 581 372 528 281 447ZM556 -71C615 -71 646 -39 646 24V421H567V35C567 15 559 7 539 7C500 7 460 15 414 30V-55C460 -66 505 -71 556 -71ZM211 58 279 12C351 66 406 138 435 202L355 229C331 173 281 109 211 58ZM903 5 978 42C952 93 893 171 822 233L753 193C822 132 880 54 903 5Z" transform="translate(0, 880) scale(1,-1)" /></svg>