<svg xmlns="http://www.w3.org/2000/svg" width="1000" height="1000"><path d="M30 592V512H308V592ZM11 190 80 158 91 174 309 262 283 339 128 273 206 523 135 545ZM153 -63C198 -63 234 -42 234 24V787H156V49C156 26 150 14 132 14C113 14 89 20 57 34V-51C90 -60 121 -63 153 -63ZM291 638H948V718H676L633 830L557 812L592 718H291ZM327 447 379 385C459 457 549 501 685 501C807 501 837 469 837 424C837 337 698 332 484 359V279C722 258 916 262 916 424C916 512 860 581 685 581C524 581 413 528 327 447ZM588 -71C643 -71 674 -39 674 24V421H595V35C595 15 588 7 570 7C534 7 498 15 456 30V-55C498 -66 540 -71 588 -71ZM265 58 332 12C399 66 450 138 478 202L399 229C377 173 330 109 265 58ZM909 5 982 42C957 93 903 171 837 233L769 193C832 132 887 54 909 5Z" transform="translate(0, 880) scale(1,-1)" /></svg>