<svg xmlns="http://www.w3.org/2000/svg" width="1000" height="1000"><path d="M154 791V-61H233V791ZM19 300 89 281C103 352 115 436 127 522L56 530C46 443 32 364 19 300ZM68 422 79 348 305 385 294 459ZM403 203C546 203 692 484 826 759L761 803L746 795H354V715H718C621 515 482 283 403 283C369 283 349 309 349 354C349 397 393 462 499 467C608 472 784 471 938 456L952 540C788 551 605 551 492 547C337 541 270 458 270 354C270 242 332 203 403 203ZM507 244V162H882V244ZM428 29V-51H941V29ZM660 371V-3H739V371Z" transform="translate(0, 880) scale(1,-1)" /></svg>