<svg xmlns="http://www.w3.org/2000/svg" width="1000" height="1000"><path d="M60 593V519H351V593ZM43 192 104 161 116 181 352 272 334 344 151 272 233 527 170 553ZM176 -65C221 -65 257 -44 257 23V800H181V47C181 24 174 12 155 12C136 12 111 18 78 33V-53C112 -62 144 -65 176 -65ZM368 131 669 278 638 347 338 210ZM472 -73C519 -73 557 -52 557 16V747H477V42C477 18 470 5 449 5C430 5 407 9 381 23V-61C413 -70 443 -73 472 -73ZM356 447H656V527H356ZM362 774 367 692C461 697 582 715 659 736L644 815C572 794 456 776 362 774ZM727 131 758 66C888 172 932 215 932 306C932 383 889 444 775 484C848 550 903 627 963 746L887 787L880 772H673V694H845C795 605 753 548 680 492L686 427C827 384 855 338 855 306C855 265 832 221 727 131ZM903 -96 955 -35C897 21 773 113 678 168L633 107C725 51 845 -38 903 -96Z" transform="translate(0, 880) scale(1,-1)" /></svg>