<svg xmlns="http://www.w3.org/2000/svg" width="1000" height="1000"><path d="M172 772V-44H251V772ZM34 297 104 278C119 349 131 433 143 519L72 527C62 440 47 361 34 297ZM83 419 94 345 327 382 315 456ZM740 573 797 636C714 697 619 756 507 816L457 757C566 697 662 634 740 573ZM527 42 606 12C680 68 759 149 759 245C759 314 718 373 624 373C536 373 491 320 491 255C491 187 547 139 651 139C816 139 914 232 914 381C914 492 825 563 664 563C516 563 403 526 327 490L361 417C436 451 552 482 664 482C768 482 829 448 829 381C829 281 771 217 651 217C598 217 572 228 572 255C572 275 589 296 624 296C659 296 677 277 677 245C677 164 606 94 527 42ZM311 -30H944V50H311Z" transform="translate(0, 880) scale(1,-1)" /></svg>