<svg xmlns="http://www.w3.org/2000/svg" width="1000" height="1000"><path d="M87 673H913V751H561L507 841L429 824L473 751H87ZM112 421 494 460 482 538 100 499ZM239 486 309 449C373 487 432 532 483 582L419 641L397 633H116V555H340C313 530 279 509 239 486ZM674 482H754V643H674ZM894 516H534V438H894ZM462 -82C514 -81 548 -54 548 11V382H468V32C468 7 457 -8 429 -8C394 -8 337 2 276 23V-61C336 -77 394 -83 462 -82ZM53 76H947V154H53ZM116 200H884V278H116ZM117 387 135 311C344 309 654 320 854 356L806 429C641 400 337 387 117 387Z" transform="translate(0, 880) scale(1,-1)" /></svg>