<svg xmlns="http://www.w3.org/2000/svg" width="1000" height="1000"><path d="M172 -63C220 -63 252 -40 252 24V794H174V37C174 23 169 15 157 15C133 15 103 22 70 37V-52C102 -59 136 -63 172 -63ZM56 543H327V619H56ZM344 377 304 441 30 259 73 192ZM393 493H859V573H393ZM384 291H868V371H384ZM666 -78V661H587V-78ZM306 89H945V169H306ZM820 566 898 534C924 589 935 626 935 664C935 764 853 807 669 807C536 807 414 776 322 736L353 658C436 696 553 724 669 724C815 724 852 697 852 659C852 634 843 611 820 566Z" transform="translate(0, 880) scale(1,-1)" /></svg>