<svg xmlns="http://www.w3.org/2000/svg" width="1000" height="1000"><path d="M332 550 413 561C393 643 353 743 314 825L238 814C278 730 316 632 332 550ZM67 659H933V728H67ZM571 532 641 518C707 613 754 726 787 830L702 837C675 737 633 628 571 532ZM812 356 877 316C914 354 923 384 923 426C923 517 859 587 618 587C404 587 206 542 70 474L108 403C232 464 430 515 618 515C778 515 844 487 844 426C844 401 836 380 812 356ZM893 -83 937 -21C684 47 492 171 319 171C186 171 96 117 96 45C96 -17 157 -74 270 -74C443 -74 816 75 816 199C816 275 711 316 556 316C516 316 473 313 425 305C537 340 627 370 743 419L675 459L650 447H240V380H506C433 349 331 313 217 281C185 272 163 265 126 259L155 192C284 229 399 247 556 247C657 247 723 231 723 199C723 113 383 -4 270 -4C209 -4 179 17 179 45C179 76 214 103 319 103C463 103 632 -11 893 -83Z" transform="translate(0, 880) scale(1,-1)" /></svg>