<svg xmlns="http://www.w3.org/2000/svg" width="1000" height="1000"><path d="M251 -80C327 -80 358 -8 358 108C358 294 305 553 233 814L154 792C225 539 278 284 278 108C278 33 268 0 240 0C217 0 193 11 172 28V-62C196 -75 220 -80 251 -80ZM34 -36 110 -69C184 94 218 225 246 401L168 412C141 242 107 117 34 -36ZM60 533H377V612H60ZM361 540 436 511C486 599 527 724 548 821L469 834C448 734 408 617 361 540ZM456 648H925V726H456ZM621 -77C728 -77 772 -7 772 114C772 217 702 321 614 381L555 328C638 270 692 187 692 114C692 40 670 -1 612 -1C574 -1 542 5 507 18V-66C538 -73 569 -77 621 -77ZM357 67 417 21C477 70 532 133 572 199L499 235C465 176 413 115 357 67ZM465 306 529 258C652 359 700 460 744 609L665 628C628 482 578 395 465 306ZM890 24 965 52C942 127 904 208 864 270L793 245C832 182 868 99 890 24ZM388 425H936V504H388Z" transform="translate(0, 880) scale(1,-1)" /></svg>