<svg xmlns="http://www.w3.org/2000/svg" width="1000" height="1000"><path d="M137 -36 217 -28C167 105 157 201 185 281C217 372 221 443 172 518L95 501C140 418 142 357 113 287C81 210 87 105 137 -36ZM221 594 268 660C231 688 165 732 114 761L70 703C120 671 187 623 221 594ZM271 694 313 623C409 690 508 731 656 731C802 731 844 697 844 629C844 540 786 501 427 536V455C801 425 925 471 925 629C925 729 868 811 656 811C483 811 367 762 271 694ZM245 112H936V192H245ZM521 -72C597 -72 638 -33 638 50L639 633H560L559 67C559 27 547 6 512 6C480 6 444 13 407 27V-59C439 -68 476 -72 521 -72ZM276 266H905V346H276Z" transform="translate(0, 880) scale(1,-1)" /></svg>