<svg xmlns="http://www.w3.org/2000/svg" width="1000" height="1000"><path d="M79 776V699H564V776ZM78 165 574 261 557 330 63 244ZM289 -66C345 -66 381 -45 381 22V658H304V42C304 18 288 5 265 5C227 5 188 9 136 23V-54C189 -63 238 -66 289 -66ZM64 426 108 357C273 437 426 533 550 633L505 690C383 591 231 501 64 426ZM689 -33 737 -91C878 7 955 144 955 304C955 442 899 514 787 514C743 514 701 499 673 474C701 550 742 648 817 783L749 818C645 621 596 488 592 423C588 357 589 298 598 229L673 221C659 305 658 364 676 400C690 428 720 443 789 443C851 443 876 401 876 304C876 157 823 61 689 -33Z" transform="translate(0, 880) scale(1,-1)" /></svg>