<svg xmlns="http://www.w3.org/2000/svg" width="1000" height="1000"><path d="M165 -62C213 -62 245 -39 245 25V786H167V38C167 23 162 16 151 16C127 16 98 23 65 38V-51C97 -58 130 -62 165 -62ZM59 538H308V613H59ZM326 374 285 436 32 257 76 191ZM285 241 344 178C587 299 755 470 828 708L749 726C690 516 532 358 285 241ZM778 -91 812 -18C697 36 577 82 455 118L415 49C538 10 659 -36 778 -91ZM740 72 774 147C688 186 603 219 524 246L484 179C574 146 658 114 740 72ZM329 632 400 588C468 647 536 728 583 803L506 836C466 766 394 683 329 632ZM747 190H862C911 190 938 215 955 327L876 339C869 280 863 268 839 268H766C738 268 729 281 729 306V422H650V282C650 218 685 190 747 190ZM309 433 369 381C451 437 490 475 508 485C585 527 675 540 744 540C816 540 847 529 847 499C847 468 817 452 782 452C737 452 697 463 664 486L622 413C673 386 726 373 782 373C866 373 926 407 926 499C926 596 851 619 744 619C684 619 643 612 599 599C635 642 667 685 699 732L635 772L620 762H478V682H571C502 587 424 514 309 433Z" transform="translate(0, 880) scale(1,-1)" /></svg>