<svg xmlns="http://www.w3.org/2000/svg" width="1000" height="1000"><path d="M61 604V524H359V604ZM41 203 109 169 121 185 360 275 336 352 160 283 245 534 175 557ZM193 -53C238 -53 275 -32 275 34V799H197V59C197 36 191 24 172 24C151 24 126 30 92 44V-41C127 -50 159 -53 193 -53ZM730 -59C868 -59 937 76 937 274C937 475 845 548 687 548C660 548 636 547 613 543C691 604 779 676 851 742L793 800L775 792H386V712H698C636 648 564 587 470 518C455 507 403 481 360 456L406 385C485 437 572 468 673 468C786 468 858 427 858 272C858 147 814 21 725 21C683 21 644 31 603 52V-39C642 -53 683 -59 730 -59ZM322 155 389 98C490 183 569 291 607 410L528 430C494 320 421 228 322 155ZM380 -2 446 -60C588 27 714 204 752 407L674 424C635 226 521 78 380 -2Z" transform="translate(0, 880) scale(1,-1)" /></svg>