<svg xmlns="http://www.w3.org/2000/svg" width="1000" height="1000"><path d="M290 689H512V767H290ZM440 730H362V-56H440ZM807 495C796 452 781 412 760 369L804 302C849 319 875 304 875 249C875 174 802 113 704 81L730 6C853 53 955 118 955 249C955 362 906 393 849 387L912 565L840 598L826 584C558 511 474 393 474 309C474 255 508 203 569 203C695 203 769 474 854 787L785 813L771 799H527V719H753C695 495 623 283 573 283C560 283 553 291 553 306C553 344 594 436 807 495ZM712 -86 790 -61C776 8 748 103 723 176L647 152C672 83 697 -13 712 -86ZM60 605V525H331V605ZM41 198 104 168 115 188 331 278 313 350 148 279 224 535 158 561ZM167 -59C210 -59 246 -38 246 29V810H168V53C168 31 163 18 145 18C127 18 104 24 74 39V-47C105 -56 135 -59 167 -59Z" transform="translate(0, 880) scale(1,-1)" /></svg>