<svg xmlns="http://www.w3.org/2000/svg" width="1000" height="1000"><path d="M80 370 105 300C246 332 432 389 563 445L503 507C394 457 217 399 80 370ZM662 261C791 261 844 241 844 214C844 165 765 135 580 108L607 33C814 64 928 105 928 214C928 290 849 339 662 339C335 339 87 234 87 108C87 29 151 -10 240 -10C359 -10 473 52 473 171C473 282 402 348 268 406L225 339C354 278 389 225 389 171C389 98 320 66 240 66C193 66 167 85 167 110C167 176 368 261 662 261ZM558 -81H636V210H558ZM568 489 647 468C660 490 667 513 667 537C667 596 616 646 503 646C386 646 344 599 344 546C344 486 401 444 546 444C761 444 878 499 878 633C878 734 807 811 582 811C389 811 275 776 183 731L221 661C313 703 432 731 582 731C738 731 792 683 792 633C792 555 712 512 546 512C459 512 426 525 426 545C426 563 451 581 503 581C553 581 584 565 584 537C584 520 578 504 568 489ZM165 789V465H243V789Z" transform="translate(0, 880) scale(1,-1)" /></svg>