<svg xmlns="http://www.w3.org/2000/svg" width="1000" height="1000"><path d="M892 -82 928 -14C751 78 663 210 663 837H591C593 184 689 27 892 -82ZM84 565H809V637H84ZM872 560 937 587C918 661 892 729 859 793L801 758C831 703 856 630 872 560ZM234 608 297 583C358 637 424 697 473 759L419 808L402 800H118V732H364C334 695 290 653 234 608ZM92 182H592V248H92ZM863 261 790 276C780 199 705 121 599 63L634 1C761 64 846 169 863 261ZM328 331 371 293C434 331 521 404 562 449L504 500L486 493H145V426H442C411 393 373 361 328 331ZM372 240 417 280C384 319 349 353 310 387L269 349C307 316 341 279 372 240ZM70 -23 130 -55C197 0 263 66 303 130L231 151C200 94 135 25 70 -23ZM553 -56 621 -27C579 32 510 103 452 156L389 127C447 75 513 6 553 -56Z" transform="translate(0, 880) scale(1,-1)" /></svg>