<svg xmlns="http://www.w3.org/2000/svg" width="1000" height="1000"><path d="M60 618V539H359V618ZM41 226 108 192 120 207 360 295 336 372 160 305 245 549 174 573ZM192 -25C238 -25 275 -4 275 62V809H197V86C197 64 190 51 171 51C151 51 125 57 91 72V-13C126 -22 159 -25 192 -25ZM682 179 756 149C820 302 863 431 903 563L821 585C784 449 744 320 682 179ZM354 -16H938V64H354ZM521 154 594 178C556 314 513 457 467 581L392 552C438 433 481 297 521 154ZM378 695H914V775H378Z" transform="translate(0, 880) scale(1,-1)" /></svg>