<svg xmlns="http://www.w3.org/2000/svg" width="1000" height="1000"><path d="M42 602V522H323V602ZM23 213 86 181 97 200 323 287 305 359 134 291 211 533 145 560ZM154 -35C198 -35 234 -14 234 52V796H156V76C156 54 150 41 132 41C113 41 90 47 58 62V-23C91 -32 122 -35 154 -35ZM349 749 362 669C521 676 753 705 902 759L863 835C740 789 513 758 349 749ZM313 402H960V482H313ZM597 193H676V745H597ZM732 246C604 246 474 200 343 109L392 42C505 120 625 166 732 166C794 166 829 143 829 104C829 53 782 11 703 -13L744 -85C837 -52 908 10 908 104C908 204 837 246 732 246Z" transform="translate(0, 880) scale(1,-1)" /></svg>