<svg xmlns="http://www.w3.org/2000/svg" width="1000" height="1000"><path d="M61 589V509H361V589ZM41 190 104 157 116 177 362 267 344 340 153 268 238 519 173 547ZM181 -67C226 -67 263 -46 263 20V790H185V45C185 22 179 10 160 10C140 10 115 16 81 31V-55C116 -64 148 -67 181 -67ZM519 226H787V306H519ZM612 265H691V749H612ZM362 709H942V789H362ZM414 540 427 467C482 484 540 492 614 492H769C821 492 845 465 845 406V52C845 24 842 10 820 10C795 10 758 16 718 29V-57C756 -64 792 -69 823 -69C889 -69 923 -38 923 40V416C923 513 881 571 776 571H612C532 571 474 559 414 540ZM460 -72V571H381V-72Z" transform="translate(0, 880) scale(1,-1)" /></svg>