<svg xmlns="http://www.w3.org/2000/svg" width="1000" height="1000"><path d="M172 799V-54H252V799ZM19 310 91 289C107 360 121 444 134 530L61 540C50 453 34 374 19 310ZM67 430 80 356 341 396 328 470ZM524 -59H832C930 -59 949 5 961 179L881 187C875 46 868 21 820 21H541C488 21 477 34 477 84V802H398V81C398 -30 422 -59 524 -59ZM534 182 594 138C690 237 800 367 894 506L815 543C729 410 621 274 534 182ZM520 476 582 436C658 520 736 618 819 740L737 777C666 661 588 556 520 476Z" transform="translate(0, 880) scale(1,-1)" /></svg>