<svg xmlns="http://www.w3.org/2000/svg" width="1000" height="1000"><path d="M614 137 661 72C856 178 921 221 921 312C921 389 851 450 669 489C788 555 880 625 964 747L894 794L882 779H532V699H822C744 610 663 550 543 498L552 433C780 390 839 344 839 312C839 271 789 227 614 137ZM902 -92 956 -27C868 32 682 128 540 187L504 115C639 59 817 -33 902 -92ZM190 654V574H475V654ZM229 372V821H151V372ZM68 34 94 -43 479 98 447 174ZM89 401V324H332C296 244 224 136 142 46L224 17C300 111 377 223 456 376L387 415L373 401Z" transform="translate(0, 880) scale(1,-1)" /></svg>