<svg xmlns="http://www.w3.org/2000/svg" width="1000" height="1000"><path d="M117 -28 198 -19C148 116 138 213 167 294C201 386 205 457 153 534L74 516C121 433 123 370 93 300C59 222 65 116 117 -28ZM220 609 267 677C227 706 151 751 94 780L49 719C106 687 182 639 220 609ZM296 749 310 669C480 676 730 705 891 759L850 835C717 789 473 758 296 749ZM256 402H954V482H256ZM565 192H645V745H565ZM709 248C571 248 433 202 292 108L339 41C462 121 591 167 709 167C777 167 817 144 817 103C817 51 767 10 681 -12L722 -86C821 -54 897 8 897 103C897 205 820 248 709 248Z" transform="translate(0, 880) scale(1,-1)" /></svg>