<svg xmlns="http://www.w3.org/2000/svg" width="1000" height="1000"><path d="M48 683H304V761H48ZM215 724H137V-62H215ZM483 527 546 476C665 558 772 659 854 756L796 800L780 793H344V713H707C645 646 576 588 483 527ZM732 -70C883 -70 939 62 939 283C939 486 851 560 680 560C538 560 386 517 300 478L330 408C422 445 558 479 680 479C807 479 858 404 858 283C858 109 819 8 729 8C671 8 624 16 587 31V-55C624 -66 664 -70 732 -70ZM392 135 454 84C576 178 710 319 756 388L687 433C642 362 513 223 392 135ZM674 110 735 168C665 237 560 328 487 377L429 327C505 273 610 182 674 110Z" transform="translate(0, 880) scale(1,-1)" /></svg>