<svg xmlns="http://www.w3.org/2000/svg" width="1000" height="1000"><path d="M73 58H151C145 179 141 304 155 400C164 465 197 605 254 605C296 605 315 469 306 323C301 237 292 172 267 172C243 172 252 272 278 370C290 414 312 452 344 478L309 555C263 518 218 456 193 363C147 196 179 90 261 90C349 90 373 167 384 320C398 521 370 689 255 689C207 689 175 644 151 577L165 714H84C67 404 67 239 73 58ZM433 493H868V573H433ZM425 291H876V371H425ZM690 -78V661H612V-78ZM353 89H948V169H353ZM824 568 902 536C928 591 939 627 939 665C939 764 862 807 690 807C567 807 453 776 368 738L399 660C475 698 583 724 690 724C823 724 856 697 856 660C856 635 847 612 824 568Z" transform="translate(0, 880) scale(1,-1)" /></svg>