<svg xmlns="http://www.w3.org/2000/svg" width="1000" height="1000"><path d="M133 -37C180 -37 212 -15 212 50V783H135V62C135 48 130 40 119 40C97 40 68 47 37 62V-26C67 -33 99 -37 133 -37ZM43 542H254V617H43ZM274 385 232 445 17 272 62 208ZM602 754H292V470C292 325 284 121 212 -24L285 -58C362 94 370 317 370 470V677H963V754H687L651 845L574 827ZM351 588V510H958V588ZM515 409 595 432C578 498 542 601 510 673L434 648C465 578 500 475 515 409ZM701 430 774 409C804 469 843 568 870 648L791 673C770 596 731 495 701 430ZM429 455V378H876V455ZM376 285 399 212C480 245 573 271 706 271C811 271 857 255 857 231C857 183 735 175 508 195V118C773 99 938 100 938 231C938 304 882 349 706 349C550 349 454 320 376 285ZM340 -10 378 -83C665 -20 701 93 700 231H622C622 110 603 50 340 -10ZM922 -87 971 -20C894 25 803 69 729 102L686 35C764 0 855 -45 922 -87Z" transform="translate(0, 880) scale(1,-1)" /></svg>