<svg xmlns="http://www.w3.org/2000/svg" width="1000" height="1000"><path d="M183 -72C231 -72 263 -49 263 15V804H185V28C185 14 180 6 168 6C144 6 114 13 81 28V-61C113 -68 147 -72 183 -72ZM70 549H334V624H70ZM351 379 311 442 43 257 87 190ZM648 457 720 429C785 515 852 628 891 732L832 766L818 758H531V678H780C753 610 707 534 648 457ZM351 -9 400 -81C597 1 907 164 907 332C907 437 837 482 689 482C561 482 465 455 371 421L399 344C491 384 575 402 689 402C778 402 824 377 824 332C824 210 548 64 351 -9ZM890 -86 950 -18C769 117 630 198 464 264L419 201C583 130 712 53 890 -86ZM365 542 433 499C501 587 565 695 617 805L549 835C498 724 435 623 365 542Z" transform="translate(0, 880) scale(1,-1)" /></svg>