<svg xmlns="http://www.w3.org/2000/svg" width="1000" height="1000"><path d="M174 -55C222 -55 254 -32 254 32V805H176V45C176 31 171 23 159 23C135 23 104 30 71 45V-44C103 -51 138 -55 174 -55ZM54 553H333V629H54ZM351 387 311 450 28 269 70 201ZM726 15 757 -67C887 -11 940 45 940 200C940 346 828 427 676 427C473 427 323 290 323 119C323 14 375 -58 472 -58C632 -58 673 134 673 277C673 398 616 510 496 567L459 494C551 445 594 365 594 277C594 147 567 22 472 22C428 22 402 61 402 119C402 233 491 347 676 347C793 347 862 301 862 200C862 94 814 37 726 15ZM487 535 557 494C617 569 683 670 723 747L661 794L650 787H367V707H608C577 650 531 584 487 535ZM903 468 973 513C938 588 888 667 835 739L771 703C827 624 867 549 903 468Z" transform="translate(0, 880) scale(1,-1)" /></svg>