<svg xmlns="http://www.w3.org/2000/svg" width="1000" height="1000"><path d="M74 691V617H467V691ZM261 633 192 603C285 488 319 376 319 238C319 141 311 7 258 7C226 7 197 14 167 29V-51C194 -60 225 -63 261 -63C352 -63 393 53 393 239C393 386 359 508 261 633ZM86 518 144 470C242 554 322 678 375 814L306 836C258 699 183 588 86 518ZM90 410V336H437V410ZM64 188 80 110 486 207 470 282ZM433 374 503 335C583 427 695 611 744 719L668 735C620 613 510 450 433 374ZM469 -56 960 -57V12L469 14ZM592 12H712C782 62 819 157 819 240C819 323 775 388 699 388C634 388 577 337 577 261C577 178 635 136 697 136C712 136 725 139 737 145C709 78 673 50 592 12ZM699 198C667 198 643 224 643 261C643 297 667 324 699 324C732 324 752 297 752 261C752 224 732 198 699 198ZM805 287V611H735V343ZM572 457H940V525H572ZM487 704H936V775H487Z" transform="translate(0, 880) scale(1,-1)" /></svg>