<svg xmlns="http://www.w3.org/2000/svg" width="1000" height="1000"><path d="M665 119 712 68C847 160 937 258 935 414C934 522 810 595 654 551C712 625 763 702 812 787L731 824C683 722 624 620 552 522C546 514 528 506 513 499L551 433C712 516 849 506 850 399C851 294 801 210 665 119ZM827 -93 898 -39C809 54 691 146 565 228L514 174C638 96 748 -4 827 -93ZM448 595C477 649 503 709 527 776L463 809L450 798H86V721H421C403 669 384 628 360 585C398 540 413 496 413 468C415 437 404 418 376 418C340 418 306 427 270 450L251 370C295 350 338 342 389 342C459 342 492 394 492 463C492 520 478 558 448 595ZM87 -9 122 -74 448 84 421 155 190 46V595H114V45C114 10 99 -3 87 -9Z" transform="translate(0, 880) scale(1,-1)" /></svg>