<svg xmlns="http://www.w3.org/2000/svg" width="1000" height="1000"><path d="M194 -70C242 -70 274 -47 274 17V824H196V31C196 17 191 9 178 9C153 9 123 16 89 31V-59C122 -66 157 -70 194 -70ZM67 563H361V640H67ZM378 390 339 454 41 265 83 197ZM466 446 544 418C610 540 664 680 698 816L615 834C584 702 533 563 466 446ZM820 470 898 436C918 483 929 519 929 561C929 657 855 703 698 703C566 703 435 661 349 619L382 540C461 581 584 618 698 618C812 618 845 590 845 556C845 529 838 506 820 470ZM436 460V380H751V258H469V306H390V83C390 -35 428 -60 535 -60H796C900 -60 934 -2 950 171L871 185C861 35 842 20 780 20H540C482 20 469 33 469 83V178H830V460Z" transform="translate(0, 880) scale(1,-1)" /></svg>