<svg xmlns="http://www.w3.org/2000/svg" width="1000" height="1000"><path d="M132 -36 212 -27C163 106 152 202 181 282C213 373 217 444 167 520L90 502C136 420 138 358 109 288C76 211 82 106 132 -36ZM219 596 266 662C229 690 161 734 110 763L65 704C116 673 184 625 219 596ZM345 648 380 588C457 652 564 692 655 691C755 690 810 644 810 560C810 467 743 414 651 414C591 414 535 423 483 435V349C531 339 577 334 651 334C794 334 890 432 890 560C889 697 812 771 655 771C534 771 428 721 345 648ZM218 -11 261 -80C501 33 617 203 658 567L579 574C538 239 436 90 218 -11ZM700 -65H833C913 -65 933 1 939 117L860 124C856 28 852 15 819 15H709C680 15 675 24 675 66V268H596V67C596 -37 621 -65 700 -65ZM271 524 347 493C405 600 450 700 482 812L404 832C374 719 327 618 271 524Z" transform="translate(0, 880) scale(1,-1)" /></svg>