<svg xmlns="http://www.w3.org/2000/svg" width="1000" height="1000"><path d="M102 -43 182 -35C133 97 122 192 150 272C183 362 186 433 137 508L60 490C105 408 107 347 78 278C45 201 51 97 102 -43ZM192 582 239 649C202 677 132 721 79 750L34 690C87 659 157 611 192 582ZM720 293 768 227C891 306 944 387 944 504C944 592 893 672 744 673C526 674 360 541 205 406L260 342C414 487 573 593 744 593C833 593 864 553 864 504C864 426 826 358 720 293ZM481 -60H796C895 -60 915 -6 926 163L848 168C841 41 834 19 783 19H497C445 19 434 32 434 82V816H355V80C355 -31 379 -60 481 -60Z" transform="translate(0, 880) scale(1,-1)" /></svg>