<svg xmlns="http://www.w3.org/2000/svg" width="1000" height="1000"><path d="M180 -44C301 -44 359 120 359 266C359 382 304 499 182 552L151 479C246 432 281 349 281 266C281 160 245 37 180 37C152 37 133 57 133 111C133 210 209 299 367 424L320 487C159 369 54 242 54 111C54 2 105 -44 180 -44ZM180 525 244 492C298 565 355 668 385 742L325 777L309 768H78V690H271C248 631 214 571 180 525ZM914 -81 954 -11C784 85 673 275 538 275C447 275 388 227 388 109C388 11 431 -56 525 -56C685 -56 901 166 901 304C901 415 833 442 728 442C640 442 575 431 505 418V643H427V409L420 395L432 331C520 350 620 361 728 361C788 361 821 348 821 304C821 212 640 25 525 25C489 25 467 57 467 109C467 163 486 195 538 195C623 195 738 20 914 -81ZM791 514C868 514 890 609 902 795L835 815L823 804H425V724H820C813 637 801 595 771 595C703 595 659 606 607 621V535C661 522 717 514 791 514Z" transform="translate(0, 880) scale(1,-1)" /></svg>