<svg xmlns="http://www.w3.org/2000/svg" width="1000" height="1000"><path d="M471 -82C523 -82 548 -58 548 2V598H468V14C468 2 462 -5 448 -5C414 -5 378 3 339 16V-70C375 -77 418 -82 471 -82ZM56 7 124 -46C204 6 292 88 343 174L262 199C217 124 136 53 56 7ZM136 248H864V326H136ZM865 -44 934 5C887 62 786 146 706 204L640 159C721 99 819 12 865 -44ZM156 397H844V475H156ZM254 651 324 685C307 726 266 785 229 829L161 799C195 756 234 693 254 651ZM86 554H914V632H86ZM499 657 573 686C560 731 526 798 492 849L422 823C453 773 485 704 499 657ZM675 665 744 639C787 692 826 752 856 806L776 833C753 782 712 714 675 665Z" transform="translate(0, 880) scale(1,-1)" /></svg>