<svg xmlns="http://www.w3.org/2000/svg" width="1000" height="1000"><path d="M187 -68C235 -68 267 -45 267 19V814H189V32C189 18 184 10 172 10C148 10 117 17 84 32V-57C116 -64 151 -68 187 -68ZM69 557H344V633H69ZM362 386 322 449 42 263 85 195ZM707 679 624 700C550 499 420 316 294 179L358 124C487 269 626 474 707 679ZM669 34V-50C865 -105 925 22 925 191C925 340 857 408 745 408C672 408 611 372 565 300V417H486V-45H565V222C631 304 684 326 741 326C808 326 842 273 842 191C842 62 807 -16 669 34ZM338 658H927V738H338Z" transform="translate(0, 880) scale(1,-1)" /></svg>