<svg xmlns="http://www.w3.org/2000/svg" width="1000" height="1000"><path d="M166 -58C214 -58 246 -35 246 29V803H168V42C168 28 163 20 151 20C126 20 96 27 63 42V-47C95 -54 130 -58 166 -58ZM45 551H327V627H45ZM344 384 304 448 19 266 61 198ZM615 -62H837C927 -62 950 -8 961 147L887 155C882 38 870 16 822 16H620C576 16 564 29 564 81V570H486V82C486 -34 516 -62 615 -62ZM701 201 753 135C848 205 889 271 889 372C889 449 843 520 722 521C579 522 447 435 339 326L392 262C495 376 615 441 722 441C793 441 811 408 811 372C811 314 780 254 701 201ZM315 488 388 447C453 549 504 693 533 834L455 849C426 708 374 573 315 488ZM441 635H943V715H441Z" transform="translate(0, 880) scale(1,-1)" /></svg>