<svg xmlns="http://www.w3.org/2000/svg" width="1000" height="1000"><path d="M140 -36 220 -27C169 111 159 211 189 294C224 388 228 462 175 541L96 522C145 437 147 372 115 300C80 221 86 111 140 -36ZM243 617 290 687C250 716 173 762 116 792L71 730C129 697 205 648 243 617ZM262 629 299 562C410 609 560 696 663 780L601 836C514 761 371 673 262 629ZM720 476C811 476 848 439 848 388C848 314 798 250 658 196L688 118C848 183 928 248 928 388C928 495 862 557 720 557C461 557 268 392 268 228C268 129 323 81 400 81C487 81 579 158 579 315C579 461 535 578 435 675L383 615C479 512 500 409 500 315C500 216 449 161 400 161C364 161 346 187 346 228C346 349 500 476 720 476ZM638 -81H716V377H638Z" transform="translate(0, 880) scale(1,-1)" /></svg>