<svg xmlns="http://www.w3.org/2000/svg" width="1000" height="1000"><path d="M34 601V521H299V601ZM15 202 84 171 95 186 299 273 273 350 131 286 204 533 132 554ZM151 -47C194 -47 230 -26 230 40V793H152V64C152 42 146 29 128 29C111 29 88 35 57 50V-35C89 -44 119 -47 151 -47ZM326 523H930V603H326ZM291 -46H970V34H291ZM544 8 648 -16C710 35 763 144 763 280C763 369 704 420 607 420C512 420 452 369 452 280C452 191 512 140 607 140C631 140 649 144 665 151C647 88 594 27 544 8ZM607 216C559 216 532 241 532 280C532 319 559 344 607 344C656 344 682 319 682 280C682 241 656 216 607 216ZM729 661 767 737C714 764 599 812 520 838L483 770C557 747 675 691 729 661ZM726 562H647V387L726 312Z" transform="translate(0, 880) scale(1,-1)" /></svg>