<svg xmlns="http://www.w3.org/2000/svg" width="1000" height="1000"><path d="M235 520H765V598H235ZM309 695 385 723C369 755 338 808 304 843L231 815C262 779 291 734 309 695ZM84 641H916V720H84ZM612 707 681 681C721 726 754 774 779 820L698 846C679 803 650 751 612 707ZM813 263 886 233C909 286 920 319 920 354C920 445 818 489 587 489C416 489 262 457 164 413V473H84V251H164V345C276 384 433 409 587 409C782 409 839 384 839 349C839 326 832 305 813 263ZM140 -21 183 -97C513 -41 697 70 795 279L735 328L714 322H337V244H677C579 88 432 24 140 -21ZM555 45 611 113C530 144 447 170 357 195L315 128C403 102 482 74 555 45ZM132 150 198 97C305 172 385 264 436 351L361 387C313 298 233 215 132 150Z" transform="translate(0, 880) scale(1,-1)" /></svg>