<svg xmlns="http://www.w3.org/2000/svg" width="1000" height="1000"><path d="M60 101H136C131 207 128 317 140 401C147 456 172 573 218 573C248 573 262 460 254 333C251 260 244 207 231 207C223 207 217 272 239 367C250 408 263 443 284 471L237 541C208 506 176 452 159 372C121 210 155 126 226 126C296 126 319 185 329 331C341 523 322 654 219 654C181 654 157 620 136 574L147 677H69C55 405 55 260 60 101ZM341 250H919V330H341ZM422 434H838V514H422ZM291 -11 350 -67C435 -6 523 77 580 165L502 201C457 124 370 42 291 -11ZM897 -64 966 -15C915 50 825 138 750 206L687 161C760 91 848 2 897 -64ZM630 676 705 697C688 747 658 807 627 853L555 831C584 785 616 723 630 676ZM831 487 910 457C934 510 945 545 945 582C945 678 861 721 698 721C571 721 422 693 332 661L356 584C442 614 587 638 698 638C824 638 858 612 858 576C858 553 852 530 831 487Z" transform="translate(0, 880) scale(1,-1)" /></svg>