<svg xmlns="http://www.w3.org/2000/svg" width="1000" height="1000"><path d="M513 752H120V470C120 325 112 122 24 -23L95 -60C188 92 199 317 199 470V673H943V752H600L546 851L469 833ZM233 615V537H920V615ZM390 656V360H470V656ZM233 492V413H920V492ZM670 656V360H750V656ZM537 -87C591 -86 623 -60 623 5V347H540V28C540 4 530 -11 505 -11C475 -11 424 1 370 19V-66C424 -80 476 -88 537 -87ZM194 57H957V135H194ZM248 172H903V250H248ZM249 353 264 277C442 273 708 284 879 318L835 391C695 364 436 352 249 353Z" transform="translate(0, 880) scale(1,-1)" /></svg>