<svg xmlns="http://www.w3.org/2000/svg" width="1000" height="1000"><path d="M168 -62C292 -62 341 111 341 254C341 435 281 573 199 690L138 645C217 532 263 397 263 254C263 147 231 16 168 16C144 16 126 39 126 98C126 208 196 313 350 462L305 520C154 379 52 235 52 98C52 -18 100 -62 168 -62ZM36 635 79 569C178 623 272 682 347 745L305 810C230 745 137 686 36 635ZM506 593 572 626C552 675 511 747 474 801L412 772C450 718 488 644 506 593ZM736 622 798 593C831 639 875 715 907 778L838 807C814 747 769 671 736 622ZM421 572V502H900V572ZM362 -19 409 -72C662 61 698 283 697 514H626C626 289 605 106 362 -19ZM893 -77 949 -28C876 63 790 158 714 238L666 189C742 111 827 14 893 -77ZM382 281H931V351H382Z" transform="translate(0, 880) scale(1,-1)" /></svg>