<svg xmlns="http://www.w3.org/2000/svg" width="1000" height="1000"><path d="M150 773V-59H228V773ZM19 290 88 272C102 343 114 427 126 513L55 520C45 433 32 354 19 290ZM68 413 78 339 298 375 286 449ZM263 -10 317 -80C538 35 708 240 708 567V824H628V567C628 278 470 87 263 -10ZM753 -64H863C937 -64 949 3 954 190L875 198C872 36 866 16 852 16H763C749 16 746 23 746 71V308H667V67C667 -36 685 -64 753 -64ZM789 335 850 278C912 351 932 408 932 472C932 570 874 638 772 638C562 638 447 533 299 430L353 357C511 478 594 558 772 558C830 558 852 523 852 472C852 427 831 377 789 335ZM385 481 454 451C505 523 558 615 586 695L524 734L508 723H304V643H476C452 591 424 536 385 481Z" transform="translate(0, 880) scale(1,-1)" /></svg>