<svg xmlns="http://www.w3.org/2000/svg" width="1000" height="1000"><path d="M136 -36 217 -28C167 106 157 203 185 283C219 375 222 446 172 522L94 504C140 421 142 359 112 289C79 212 85 106 136 -36ZM233 596 277 666C239 694 166 739 112 768L70 705C125 673 197 625 233 596ZM485 271 559 241C649 304 713 394 713 490C713 560 681 623 584 623C495 623 456 565 456 503C456 427 504 377 614 377C791 377 903 464 903 612C903 735 833 823 638 823C472 823 367 769 288 712L337 645C410 695 511 742 638 742C768 742 823 693 823 612C823 510 744 456 614 456C559 456 535 475 535 503C535 528 553 543 584 543C616 543 634 525 634 490C634 408 575 332 485 271ZM293 209H887V289H293ZM256 43V-37H924V43ZM550 244V19H629V244Z" transform="translate(0, 880) scale(1,-1)" /></svg>