<svg xmlns="http://www.w3.org/2000/svg" width="1000" height="1000"><path d="M140 -38 221 -29C169 109 159 209 190 292C225 386 229 460 175 539L97 520C145 434 147 370 115 298C80 219 86 109 140 -38ZM246 615 293 685C252 714 174 760 116 790L71 728C130 695 207 645 246 615ZM421 -67C468 -67 500 -44 500 20V821H423V29C423 15 418 7 406 7C382 7 352 14 320 29V-56C351 -63 385 -67 421 -67ZM310 562H568V638H310ZM586 390 545 453 283 265 327 198ZM729 -67C773 -67 816 -33 816 27V481C865 550 911 640 950 739L889 780L877 769H625V691H848C822 625 783 558 739 508V40C739 21 733 6 718 6C688 5 656 14 626 31V-51C659 -63 687 -67 729 -67ZM954 312 962 397C872 429 753 430 595 396V318C751 349 871 342 954 312Z" transform="translate(0, 880) scale(1,-1)" /></svg>