<svg xmlns="http://www.w3.org/2000/svg" width="1000" height="1000"><path d="M223 -79C273 -79 304 -56 304 8V834H225V20C225 6 220 -2 206 -2C180 -2 147 5 110 20V-68C146 -75 183 -79 223 -79ZM65 568H430V646H65ZM444 389 409 457 40 264 77 192ZM658 -78C704 -78 750 -44 750 16V483C816 553 881 647 931 748L870 791L857 780H500V701H818C781 632 728 564 672 513V29C672 10 664 -5 646 -5C610 -6 573 3 536 20V-62C576 -74 609 -78 658 -78ZM951 313 962 398C839 430 675 431 458 397V319C673 350 837 343 951 313Z" transform="translate(0, 880) scale(1,-1)" /></svg>