<svg xmlns="http://www.w3.org/2000/svg" width="1000" height="1000"><path d="M171 -57C219 -57 251 -34 251 30V798H173V43C173 29 168 21 157 21C133 21 104 28 72 43V-46C103 -53 136 -57 171 -57ZM66 548H312V623H66ZM330 383 289 445 40 264 84 198ZM716 -59C858 -59 931 78 931 274C931 475 835 548 672 548C643 548 618 546 594 542C675 603 766 676 841 741L783 800L764 792H359V712H684C619 647 544 588 447 518C431 507 377 481 333 455L378 385C461 437 552 468 657 468C775 468 851 427 851 272C851 147 805 21 712 21C668 21 627 31 584 52V-39C625 -53 667 -59 716 -59ZM293 155 360 97C465 182 547 290 587 409L507 430C473 320 396 228 293 155ZM353 -2 419 -60C567 27 699 204 738 407L660 424C618 226 500 78 353 -2Z" transform="translate(0, 880) scale(1,-1)" /></svg>