<svg xmlns="http://www.w3.org/2000/svg" width="1000" height="1000"><path d="M40 109H116C111 217 107 329 120 414C128 470 157 590 207 590C241 590 258 475 249 346C245 270 237 216 220 216C209 216 205 287 229 381C241 423 256 458 281 485L236 556C203 521 168 466 148 385C107 224 140 135 215 135C291 135 315 198 325 343C338 533 316 672 208 672C165 672 138 636 116 584L129 695H49C34 418 34 271 40 109ZM521 456H599V763H521ZM340 722H938V802H340ZM681 456H760V763H681ZM273 -47 343 -86C405 13 423 160 423 261V410H951V490H345V261C345 165 331 48 273 -47ZM676 -65C717 -65 753 -57 798 -34V52C756 27 725 15 696 15C681 15 674 28 674 59V363H596V21C596 -45 626 -65 676 -65ZM924 12 988 74C920 152 838 242 765 305L705 254C776 186 858 96 924 12ZM462 296V-26H540V296ZM425 514 498 545C483 586 455 644 429 686L358 658C382 616 411 554 425 514ZM777 535 848 511C875 557 905 619 926 672L849 701C833 650 804 584 777 535Z" transform="translate(0, 880) scale(1,-1)" /></svg>