<svg xmlns="http://www.w3.org/2000/svg" width="1000" height="1000"><path d="M223 -79C273 -79 304 -56 304 8V834H225V22C225 8 220 0 206 0C180 0 147 7 110 22V-68C146 -75 183 -79 223 -79ZM65 568H430V646H65ZM444 389 409 457 40 264 77 192ZM658 -78C704 -78 750 -44 750 16V482C816 552 881 647 931 747L870 791L857 781H500V700H817C781 633 728 568 672 519V35C672 16 664 1 646 1C610 0 573 9 536 26V-62C576 -74 609 -78 658 -78ZM951 313 962 399C839 431 675 432 458 398V319C673 350 837 343 951 313Z" transform="translate(0, 880) scale(1,-1)" /></svg>