<svg xmlns="http://www.w3.org/2000/svg" width="1000" height="1000"><path d="M73 554H927V633H73ZM659 724C508 445 335 188 209 188C177 188 158 209 158 247C158 317 259 421 457 421C581 421 674 354 674 288C674 220 649 179 614 179C591 179 579 196 579 223C579 272 645 337 723 337C819 337 839 291 839 240C839 177 791 110 726 80L786 13C872 80 917 149 917 240C917 343 868 416 723 416C615 416 502 329 502 223C502 149 546 100 614 100C702 100 752 172 752 288C752 420 610 501 457 501C243 501 78 385 78 247C78 167 125 108 209 108C399 108 577 412 774 769L706 811L694 802H212V724ZM112 -47H888V32H112Z" transform="translate(0, 880) scale(1,-1)" /></svg>