<svg xmlns="http://www.w3.org/2000/svg" width="1000" height="1000"><path d="M131 -36 212 -28C161 109 151 207 181 289C216 381 220 454 167 531L88 513C136 429 138 366 107 294C72 216 78 109 131 -36ZM240 606 288 675C246 704 167 749 108 779L62 717C122 685 201 636 240 606ZM720 572 775 637C686 698 583 757 461 817L413 756C531 696 635 633 720 572ZM490 42 569 12C651 68 736 149 736 245C736 314 691 373 593 373C498 373 453 320 453 255C453 187 512 139 624 139C800 139 904 233 904 381C904 492 810 563 636 563C474 563 349 523 270 486L304 413C384 448 513 482 636 482C750 482 818 448 818 381C818 281 755 217 624 217C563 217 535 228 535 255C535 275 553 296 593 296C632 296 653 277 653 245C653 164 576 94 490 42ZM252 -30H938V50H252Z" transform="translate(0, 880) scale(1,-1)" /></svg>