<svg xmlns="http://www.w3.org/2000/svg" width="1000" height="1000"><path d="M42 606V527H317V606ZM23 213 92 181 103 196 318 282 292 359 140 294 217 538 146 560ZM164 -35C208 -35 244 -14 244 52V796H166V76C166 54 160 41 142 41C123 41 100 47 68 62V-23C101 -32 132 -35 164 -35ZM349 749 362 669C521 676 753 705 902 759L863 835C740 789 513 758 349 749ZM313 402H960V482H313ZM597 193H676V745H597ZM732 246C604 246 474 200 343 109L392 42C505 120 625 166 732 166C794 166 829 143 829 104C829 53 782 11 703 -13L744 -85C837 -52 908 10 908 104C908 204 837 246 732 246Z" transform="translate(0, 880) scale(1,-1)" /></svg>