<svg xmlns="http://www.w3.org/2000/svg" width="1000" height="1000"><path d="M188 -60C237 -60 268 -37 268 27V807H190V31C190 17 185 9 173 9C149 9 118 16 84 31V-49C117 -56 152 -60 188 -60ZM66 554H350V630H66ZM367 385 328 449 40 266 82 198ZM373 660V580H920V660ZM607 823V442H686V823ZM683 468C569 468 468 434 385 388L423 315C504 363 581 388 683 388C761 388 801 363 801 315C801 189 585 22 507 22C470 22 444 54 444 109C444 156 474 193 528 193C617 193 719 36 889 -77L950 -7C786 94 657 272 528 272C433 272 364 210 364 109C364 17 424 -56 507 -56C619 -56 884 144 884 315C884 409 816 468 683 468Z" transform="translate(0, 880) scale(1,-1)" /></svg>