<svg xmlns="http://www.w3.org/2000/svg" width="1000" height="1000"><path d="M122 -36 202 -28C152 107 142 204 171 285C204 376 208 448 157 524L80 506C126 423 128 361 98 290C65 213 71 107 122 -36ZM215 598 259 669C221 697 151 742 98 771L56 708C109 676 180 628 215 598ZM286 9 317 -71C599 7 738 300 830 698L752 717C663 333 528 63 286 9ZM227 154 305 126C347 218 376 355 391 469L315 480C301 370 270 240 227 154ZM858 -71 891 9C685 43 511 317 464 616L385 603C439 247 653 -31 858 -71ZM619 566 687 612C640 682 558 780 495 837L435 788C499 731 574 636 619 566ZM883 129 959 157C938 248 890 386 842 489L770 464C816 360 862 226 883 129Z" transform="translate(0, 880) scale(1,-1)" /></svg>