<svg xmlns="http://www.w3.org/2000/svg" width="1000" height="1000"><path d="M51 605V525H321V605ZM32 198 101 167 112 183 322 272 296 349 147 282 223 536 152 557ZM170 -57C214 -57 250 -36 250 30V802H172V55C172 32 167 20 149 20C131 20 107 26 76 41V-45C108 -54 139 -57 170 -57ZM357 362 391 286 410 294H902V374H463C528 510 580 667 626 824L549 843C503 682 443 511 388 395C382 381 371 369 357 362ZM297 9 368 -40C421 22 478 118 513 216L434 239C404 152 353 66 297 9ZM611 -71C659 -71 698 -53 698 23V557H354V478H620V34C620 16 614 8 594 7C573 6 541 12 500 29V-58C534 -67 569 -71 611 -71ZM891 -33 961 14C929 77 862 174 805 244L738 202C795 131 860 29 891 -33ZM329 651H923V731H329Z" transform="translate(0, 880) scale(1,-1)" /></svg>