<svg xmlns="http://www.w3.org/2000/svg" width="1000" height="1000"><path d="M806 388 884 359C906 410 917 442 917 474C917 562 814 606 586 606C418 606 268 575 171 533V589H88V377H171V464C282 501 435 526 586 526C778 526 831 502 831 469C831 448 824 428 806 388ZM186 341H815V421H186ZM174 183H827V263H174ZM540 -85V485H460V-85ZM69 25H931V105H69ZM498 668 577 615C666 652 779 700 865 747L821 816L803 812H164V733L649 732C616 714 565 692 498 668ZM625 546 672 616C590 650 495 683 386 717L347 647C454 614 548 580 625 546Z" transform="translate(0, 880) scale(1,-1)" /></svg>