<svg xmlns="http://www.w3.org/2000/svg" width="1000" height="1000"><path d="M171 813V-75H250V813ZM39 306 108 288C123 359 135 443 146 529L75 536C66 449 52 370 39 306ZM88 429 99 355 320 391 309 465ZM465 -69C597 -69 649 70 649 230C649 353 621 464 487 534L443 473C549 417 568 329 568 230C568 112 528 12 465 12C432 12 411 42 411 83C411 175 462 266 615 348L580 417C402 331 331 213 331 83C331 -17 384 -69 465 -69ZM343 493 373 423C462 459 555 512 639 581L594 641C522 582 428 526 343 493ZM332 675 363 607C452 641 549 696 634 764L589 827C513 768 416 707 332 675ZM678 251H960V329H678ZM783 -66C831 -66 865 -50 865 23V813H791L793 35C793 17 791 10 777 10C748 10 716 15 675 30V-51C714 -61 749 -66 783 -66ZM685 525H945V601H685Z" transform="translate(0, 880) scale(1,-1)" /></svg>