<svg xmlns="http://www.w3.org/2000/svg" width="1000" height="1000"><path d="M119 -36 199 -28C150 103 140 197 167 277C198 366 202 435 154 510L77 492C122 411 124 351 95 282C64 206 69 103 119 -36ZM202 584 249 650C213 678 146 721 96 750L52 691C102 660 169 613 202 584ZM220 -10 272 -80C507 35 690 240 690 567V824H610V567C610 279 439 88 220 -10ZM742 -64H860C936 -64 949 3 954 190L875 198C872 36 866 16 848 16H752C735 16 731 23 731 71V308H652V67C652 -36 671 -64 742 -64ZM784 336 846 280C910 351 931 408 931 472C931 570 870 638 763 638C542 638 420 536 261 433L314 359C480 478 571 558 763 558C826 558 851 523 851 472C851 428 829 378 784 336ZM348 481 417 451C471 522 528 614 559 694L497 734L481 723H262V643H447C421 591 391 536 348 481Z" transform="translate(0, 880) scale(1,-1)" /></svg>