<svg xmlns="http://www.w3.org/2000/svg" width="1000" height="1000"><path d="M164 -47C211 -47 243 -24 243 40V804H166V53C166 39 161 31 149 31C126 31 96 38 64 53V-36C95 -43 128 -47 164 -47ZM60 555H302V630H60ZM321 391 279 453 33 273 78 207ZM526 112 595 72C665 170 754 300 805 389L740 440L726 431H589C629 531 662 668 692 816L613 829C577 643 535 490 482 381L551 340L564 352H687C647 280 589 193 526 112ZM899 -85 934 -10C752 66 571 124 398 166L358 96C543 48 722 -10 899 -85ZM360 621H924V701H360ZM332 273 407 247C433 321 454 427 467 518L389 527C378 440 357 341 332 273ZM867 238 946 255C935 329 919 443 893 529L818 515C843 426 859 311 867 238Z" transform="translate(0, 880) scale(1,-1)" /></svg>