<svg xmlns="http://www.w3.org/2000/svg" width="1000" height="1000"><path d="M168 772V-50H247V772ZM26 295 96 275C112 346 125 430 137 516L65 525C55 438 40 359 26 295ZM74 416 86 342 326 380 314 454ZM281 53 333 -15C491 127 688 313 778 417L732 474L711 464H517C557 523 624 652 681 806L605 830C548 669 468 522 396 430L452 372L470 386H641C557 299 427 173 281 53ZM630 -65C671 -65 707 -55 752 -24V67C705 31 672 15 640 15C623 15 615 20 615 53V257H536V44C536 -33 573 -65 630 -65ZM903 -18 959 46C885 118 792 200 711 258L660 202C741 141 831 59 903 -18ZM310 586H914V666H310Z" transform="translate(0, 880) scale(1,-1)" /></svg>