<svg xmlns="http://www.w3.org/2000/svg" width="1000" height="1000"><path d="M54 612V533H325V612ZM35 199 103 169 115 184 325 275 300 352 149 284 226 543 155 564ZM173 -60C217 -60 253 -39 253 28V814H175V53C175 30 170 17 152 17C133 17 110 23 79 38V-48C111 -57 142 -60 173 -60ZM830 581 899 538C929 571 942 618 942 664C942 754 891 813 718 813C552 813 398 760 294 708L335 636C430 682 575 733 718 733C818 733 862 708 862 664C862 633 850 603 830 581ZM521 -48H792C912 -48 949 -16 962 163L884 172C874 54 867 31 798 31H531C463 31 435 42 435 71C435 108 459 142 864 508L815 567L800 562H366V483H695C392 186 353 137 353 71C353 -8 401 -48 521 -48ZM756 183 805 246C708 298 576 353 459 391L418 325C533 289 660 233 756 183Z" transform="translate(0, 880) scale(1,-1)" /></svg>