<svg xmlns="http://www.w3.org/2000/svg" width="1000" height="1000"><path d="M156 -46C204 -46 236 -23 236 41V799H158V54C158 39 153 32 141 32C118 32 88 39 55 54V-35C87 -42 120 -46 156 -46ZM46 552H303V627H46ZM321 388 280 451 20 272 63 206ZM566 538 625 485C722 560 828 667 891 755L830 805L816 799H363V719H756C713 668 648 602 566 538ZM429 229C460 291 488 360 513 430L441 456C387 307 329 190 243 127L298 75C324 92 359 124 387 153C413 157 436 135 453 74L585 144L557 212L485 182C478 203 460 219 429 229ZM579 318 540 258C696 183 830 96 927 10L981 89C879 160 744 240 579 318ZM646 355 680 287C770 324 836 355 913 410L862 478C792 425 735 392 646 355ZM584 603 513 561C599 436 651 319 651 191C651 112 637 11 576 11C541 11 508 17 475 34V-52C506 -62 543 -67 584 -67C706 -67 730 65 730 191C730 325 672 471 584 603Z" transform="translate(0, 880) scale(1,-1)" /></svg>