<svg xmlns="http://www.w3.org/2000/svg" width="1000" height="1000"><path d="M160 3C290 3 352 147 352 280C352 386 295 491 163 538L135 464C237 422 273 354 273 280C273 184 234 82 160 82C131 82 110 99 110 140C110 225 191 306 358 415L314 480C145 375 31 261 31 140C31 41 83 3 160 3ZM162 513 226 479C284 544 344 633 376 698L317 738L302 729H54V651H256C231 606 196 554 162 513ZM459 690 497 624C563 680 627 708 708 708C776 708 795 672 795 620C795 562 776 501 735 438L800 400C847 475 874 542 874 620C874 740 818 789 708 789C611 789 535 751 459 690ZM348 -38H969V42H348ZM664 32 735 0C814 88 893 193 893 316C893 432 811 472 655 447V369C770 380 813 373 813 316C813 219 745 123 664 32ZM521 6V782H442V6Z" transform="translate(0, 880) scale(1,-1)" /></svg>