<svg xmlns="http://www.w3.org/2000/svg" width="1000" height="1000"><path d="M157 776V-50H236V776ZM16 297 86 278C101 349 114 433 126 519L55 527C44 440 30 361 16 297ZM64 419 76 345 314 382 302 456ZM393 521 467 551C451 618 417 714 385 784L313 757C343 688 377 590 393 521ZM604 555 683 577C670 651 645 748 616 829L539 809C566 729 593 630 604 555ZM777 540 848 515C882 593 920 698 946 784L866 809C845 724 809 616 777 540ZM787 -37 856 -78C899 0 942 91 942 206C942 317 882 367 793 367C730 367 692 357 657 340V498H579V300L563 287L601 220C662 263 723 288 783 288C833 288 862 253 862 198C862 119 831 37 787 -37ZM451 -42C551 -42 628 -25 709 0L683 74C611 51 533 38 450 38C420 38 404 51 404 93C404 153 422 246 443 338L372 358C344 259 324 170 324 81C324 -3 366 -42 451 -42Z" transform="translate(0, 880) scale(1,-1)" /></svg>