<svg xmlns="http://www.w3.org/2000/svg" width="1000" height="1000"><path d="M559 496V416C883 381 918 497 918 595C918 699 854 766 735 766C648 766 588 734 526 667C545 720 561 775 574 837L493 849C464 711 410 578 348 491L419 446C453 500 474 538 491 576C567 652 658 686 730 686C801 686 836 641 836 595C836 524 803 459 559 496ZM425 3 454 -79C699 -56 930 23 930 206C930 293 872 369 695 369C529 369 402 314 402 199C402 123 464 78 555 78C627 78 707 113 707 210V592H627V221C627 174 599 154 555 154C508 154 485 175 485 199C485 248 552 288 695 288C814 288 845 244 845 207C845 76 636 19 425 3ZM58 600V520H363V600ZM38 197 101 163 113 184 364 275 346 348 151 275 237 530 173 557ZM180 -63C226 -63 263 -42 263 25V804H185V49C185 27 179 14 160 14C139 14 113 20 79 35V-51C114 -60 147 -63 180 -63Z" transform="translate(0, 880) scale(1,-1)" /></svg>