<svg xmlns="http://www.w3.org/2000/svg" width="1000" height="1000"><path d="M30 606V526H316V606ZM11 199 79 167 91 183 316 273 292 350 128 282 209 536 138 559ZM156 -58C201 -58 238 -37 238 30V804H160V54C160 31 154 19 135 19C116 19 91 25 58 40V-46C92 -55 124 -58 156 -58ZM331 439 360 361 380 368H947V448H428C441 523 457 629 464 717H894V797H387C384 682 365 545 353 467C350 450 341 443 331 439ZM283 39 352 -10C403 58 466 163 506 258L430 283C393 195 335 101 283 39ZM606 -65C662 -65 688 -38 688 24V642H609V36C609 20 603 12 588 12C558 12 528 20 494 33V-54C530 -61 565 -65 606 -65ZM907 -7 981 31C950 101 885 211 831 284L760 251C815 176 877 63 907 -7Z" transform="translate(0, 880) scale(1,-1)" /></svg>