<svg xmlns="http://www.w3.org/2000/svg" width="1000" height="1000"><path d="M166 822V-66H245V822ZM40 314 108 297C122 368 134 452 145 538L75 544C65 457 52 378 40 314ZM89 438 99 364 310 398 299 472ZM362 298 586 414 548 481 322 371ZM431 360V811H352V360ZM390 666V586H575V666ZM579 374 632 310C755 388 927 531 927 679C927 775 877 816 782 816C702 816 639 797 579 762L607 689C664 723 714 735 782 735C826 735 846 714 846 679C846 561 696 439 579 374ZM890 306 952 363C844 486 762 556 663 616L611 563C709 500 785 432 890 306ZM668 -7V357H590V-7ZM371 154H887V234H371ZM931 25H327V-55H931Z" transform="translate(0, 880) scale(1,-1)" /></svg>