<svg xmlns="http://www.w3.org/2000/svg" width="1000" height="1000"><path d="M48 81H125C120 195 117 312 128 402C135 462 161 591 206 591C236 591 249 466 242 330C238 250 233 191 217 191C207 191 205 270 227 370C237 412 251 449 275 476L233 550C199 514 164 456 145 369C107 200 140 110 213 110C286 110 308 173 317 327C329 530 309 674 207 674C169 674 145 636 125 586L136 697H57C44 406 44 251 48 81ZM626 754H336V470C336 325 328 120 261 -25L335 -57C407 95 414 317 414 470V677H966V754H710L676 845L600 827ZM394 588V510H961V588ZM544 409 624 432C608 498 574 601 545 673L469 648C497 578 530 475 544 409ZM719 430 792 409C820 469 856 568 882 648L803 673C783 596 747 495 719 430ZM466 455V378H885V455ZM415 285 438 212C514 245 601 271 725 271C822 271 865 255 865 231C865 183 753 175 541 195V118C789 99 945 100 945 231C945 304 893 349 725 349C580 349 489 320 415 285ZM382 -10 420 -83C690 -20 723 93 722 231H644C644 110 629 50 382 -10ZM927 -87 974 -20C902 25 817 69 748 102L706 35C780 0 864 -45 927 -87Z" transform="translate(0, 880) scale(1,-1)" /></svg>