<svg xmlns="http://www.w3.org/2000/svg" width="1000" height="1000"><path d="M100 -33 181 -24C130 111 120 209 149 291C183 383 186 455 135 532L58 514C104 430 106 367 76 296C42 218 48 111 100 -33ZM194 608 241 675C203 704 131 749 78 778L32 719C86 686 158 638 194 608ZM440 -54H823C921 -54 951 -8 962 193L882 198C877 40 865 26 818 26H446C398 26 375 38 375 66C375 113 470 185 885 414L841 495L823 485H369V405H701C369 216 292 142 292 64C292 -11 329 -54 440 -54ZM212 483 282 441C358 542 418 683 452 822L373 839C339 700 281 567 212 483ZM351 620H947V700H351Z" transform="translate(0, 880) scale(1,-1)" /></svg>