<svg xmlns="http://www.w3.org/2000/svg" width="1000" height="1000"><path d="M36 601V521H320V601ZM17 197 85 165 97 181 321 270 296 347 134 279 214 531 144 554ZM162 -58C206 -58 243 -37 243 29V797H165V54C165 31 159 19 140 19C121 19 97 25 64 40V-46C98 -55 129 -58 162 -58ZM800 256 866 223C906 289 945 360 977 426L908 466L898 455H310V376H863C846 336 824 296 800 256ZM585 -68C650 -68 679 -37 679 37V413H600V47C600 24 591 10 570 10C535 10 488 19 441 35V-51C481 -61 533 -68 585 -68ZM723 471 769 538C693 584 606 623 522 648L485 580C569 551 656 513 723 471ZM632 589 704 547C771 603 862 695 908 756L849 813L834 805H372V725H771C731 679 683 631 632 589Z" transform="translate(0, 880) scale(1,-1)" /></svg>