<svg xmlns="http://www.w3.org/2000/svg" width="1000" height="1000"><path d="M50 594V515H350V594ZM31 206 94 172 106 192 351 279 333 352 145 282 228 526 163 553ZM171 -44C216 -44 253 -23 253 43V789H174V67C174 45 168 32 149 32C129 32 104 38 70 53V-32C105 -41 137 -44 171 -44ZM479 85V448H400V85C400 -32 441 -57 564 -57H808C910 -57 940 1 957 173L874 184C865 47 851 23 789 23H574C495 23 479 34 479 85ZM772 358C853 358 893 432 906 770L845 793L827 781H393V701H823C814 493 792 438 760 438C698 438 649 446 595 460V375C647 364 703 358 772 358Z" transform="translate(0, 880) scale(1,-1)" /></svg>