<svg xmlns="http://www.w3.org/2000/svg" width="1000" height="1000"><path d="M169 -46C218 -46 249 -23 249 41V786H171V54C171 40 166 32 154 32C129 32 98 39 64 54V-35C97 -42 132 -46 169 -46ZM42 541H337V618H42ZM353 380 316 445 17 269 57 201ZM345 707H769C756 631 732 518 714 456L739 390H882C874 116 851 25 788 25C741 25 699 36 661 51V-34C695 -45 743 -53 801 -53C911 -53 948 16 963 456L899 478L887 466H798C819 541 849 692 862 787H345ZM605 729 526 733C498 396 442 187 280 -20L356 -66C526 165 575 372 605 729Z" transform="translate(0, 880) scale(1,-1)" /></svg>