<svg xmlns="http://www.w3.org/2000/svg" width="1000" height="1000"><path d="M94 -36 174 -27C123 109 112 208 141 290C175 383 177 456 128 534L52 516C99 431 101 368 71 296C37 218 43 109 94 -36ZM169 613 217 678C182 707 120 752 72 782L26 725C74 692 137 643 169 613ZM470 9 525 -45C629 23 694 95 694 181C694 257 638 301 540 301C447 301 389 256 389 186C389 111 449 69 578 69C780 69 917 128 917 273C917 391 821 446 647 446C487 446 352 412 241 359L275 284C386 336 499 367 647 367C764 367 837 342 837 273C837 176 714 145 578 145C504 145 469 157 469 186C469 213 497 226 540 226C585 226 614 211 614 181C614 129 566 70 470 9ZM388 453 464 478C455 522 426 590 395 641L322 620C351 568 380 497 388 453ZM183 566 255 528C322 622 365 722 393 835L315 850C287 737 248 653 183 566ZM575 474 653 491C650 535 632 608 609 661L534 646C556 592 572 518 575 474ZM316 687H945V765H316ZM736 471 806 448C836 497 876 572 907 638L820 662C802 606 766 522 736 471ZM971 17H216V-61H971Z" transform="translate(0, 880) scale(1,-1)" /></svg>