<svg xmlns="http://www.w3.org/2000/svg" width="1000" height="1000"><path d="M186 797V-56H266V797ZM30 309 102 288C119 359 133 443 146 529L73 539C62 452 45 373 30 309ZM78 429 91 355 357 395 344 469ZM286 -7 342 -70C573 87 737 276 845 433L775 474L759 457H568C690 556 790 668 884 785L812 828C721 707 605 585 448 455C438 447 423 438 408 432L457 362L488 379H707C639 292 501 134 286 -7ZM735 -58H846C919 -58 944 4 949 147L870 154C870 51 858 22 834 22H733C708 22 705 28 705 56V279L626 251V55C626 -29 647 -58 735 -58ZM516 598 581 645C540 704 483 769 429 820L366 775C423 721 477 659 516 598Z" transform="translate(0, 880) scale(1,-1)" /></svg>