<svg xmlns="http://www.w3.org/2000/svg" width="1000" height="1000"><path d="M128 -36 208 -27C158 108 148 205 177 286C210 378 214 450 163 526L86 508C132 425 134 363 104 292C71 214 76 108 128 -36ZM220 603 267 670C229 698 158 743 105 772L60 713C113 681 184 632 220 603ZM449 527 511 473C639 555 755 657 844 755L787 800L771 793H300V713H692C624 646 549 588 449 527ZM717 -70C873 -70 934 64 934 283C934 486 839 560 660 560C508 560 346 515 253 474L284 403C381 443 529 479 660 479C795 479 852 404 852 283C852 109 809 8 714 8C652 8 603 17 563 31V-55C603 -66 645 -70 717 -70ZM354 136 415 83C546 177 689 318 738 387L670 434C622 363 484 224 354 136ZM656 109 716 169C641 238 528 329 450 378L394 326C476 272 588 181 656 109Z" transform="translate(0, 880) scale(1,-1)" /></svg>