<svg xmlns="http://www.w3.org/2000/svg" width="1000" height="1000"><path d="M128 -11 209 -3C159 130 149 226 177 306C210 396 214 467 164 543L86 525C132 442 134 381 104 312C71 235 77 130 128 -11ZM222 617 269 684C231 712 159 756 105 785L60 725C115 694 186 646 222 617ZM654 179 726 147C798 300 846 429 890 561L808 585C767 449 722 320 654 179ZM283 -16H934V64H283ZM472 152 545 179C503 315 455 458 404 582L329 550C381 431 429 295 472 152ZM310 695H907V775H310Z" transform="translate(0, 880) scale(1,-1)" /></svg>