<svg xmlns="http://www.w3.org/2000/svg" width="1000" height="1000"><path d="M32 608V528H312V608ZM13 207 81 175 92 190 312 279 287 356 129 289 208 539 137 561ZM155 -46C200 -46 236 -25 236 41V802H158V65C158 43 152 31 134 31C115 31 91 36 59 51V-34C92 -43 123 -46 155 -46ZM446 631H870V711H446ZM305 467 378 428C445 530 496 674 526 815L448 828C418 687 366 552 305 467ZM775 -53H867C943 -53 965 15 973 209L894 215C890 50 880 27 847 27H778C754 27 745 39 745 74V270C745 384 666 405 582 383V306C642 321 666 297 666 231V73C666 -21 688 -53 775 -53ZM758 640 681 660C611 457 508 229 299 -14L363 -62C575 187 686 435 758 640Z" transform="translate(0, 880) scale(1,-1)" /></svg>