<svg xmlns="http://www.w3.org/2000/svg" width="1000" height="1000"><path d="M127 -36 207 -28C158 103 148 196 175 276C206 364 210 434 162 508L85 491C129 410 131 350 103 281C72 205 77 103 127 -36ZM210 582 257 648C221 676 154 719 104 748L60 689C110 658 177 611 210 582ZM856 -81 931 -40C895 48 818 181 746 280L675 246C742 151 816 14 856 -81ZM649 373V831H570V373ZM270 581H954V661H270ZM918 412H304V331H918ZM607 346 525 377C471 254 408 142 349 56C338 40 326 28 309 23L337 -56L360 -46L834 6L817 83L427 43C489 129 552 233 607 346Z" transform="translate(0, 880) scale(1,-1)" /></svg>