<svg xmlns="http://www.w3.org/2000/svg" width="1000" height="1000"><path d="M122 -36 202 -27C152 106 142 202 170 282C202 373 205 444 156 520L80 502C125 419 127 358 98 288C66 211 71 106 122 -36ZM203 596 250 661C215 690 149 734 99 763L54 704C104 673 170 625 203 596ZM695 15 729 -67C868 -11 927 45 927 200C927 346 808 427 641 427C418 427 258 288 258 117C258 12 313 -58 415 -58C590 -58 633 134 633 277C633 397 575 510 444 567L408 494C511 445 554 365 554 277C554 147 519 22 415 22C364 22 337 60 337 117C337 231 438 347 641 347C769 347 847 301 847 200C847 94 795 37 695 15ZM436 535 506 493C572 568 644 669 689 746L627 794L615 787H297V707H569C535 650 484 584 436 535ZM893 467 963 514C925 589 869 668 812 740L748 702C809 623 854 548 893 467Z" transform="translate(0, 880) scale(1,-1)" /></svg>