<svg xmlns="http://www.w3.org/2000/svg" width="1000" height="1000"><path d="M45 600V520H306V600ZM27 195 96 165 107 180 306 268 280 345 141 280 213 532 142 552ZM160 -58C204 -58 239 -37 239 29V797H161V54C161 31 156 19 138 19C121 19 98 25 68 40V-46C99 -55 129 -58 160 -58ZM285 716V638H960V716ZM475 516 555 540C537 620 497 747 462 835L386 810C420 724 458 597 475 516ZM681 538 753 515C785 589 827 710 858 810L779 835C756 740 713 617 681 538ZM377 556V478H868V556ZM319 359 341 287C429 327 532 360 679 360C798 360 849 334 849 295C849 227 710 218 462 243V165C753 141 929 144 929 295C929 375 868 438 679 438C509 438 404 402 319 359ZM281 -9 321 -82C632 -4 669 126 668 295H589C589 137 567 64 281 -9ZM914 -87 965 -21C879 34 784 88 702 128L659 63C744 20 839 -35 914 -87Z" transform="translate(0, 880) scale(1,-1)" /></svg>