<svg xmlns="http://www.w3.org/2000/svg" width="1000" height="1000"><path d="M140 -38 222 -29C170 109 159 209 191 292C226 386 230 460 176 539L96 520C145 434 148 370 115 298C80 219 86 109 140 -38ZM250 619 292 683C251 712 173 758 115 788L75 732C134 699 211 649 250 619ZM421 -67C468 -67 500 -44 500 20V821H423V23C423 9 418 1 406 1C382 1 352 8 320 23V-56C351 -63 385 -67 421 -67ZM310 562H568V638H310ZM586 390 545 453 283 265 327 198ZM729 -67C773 -67 816 -33 816 27V481C865 550 911 640 950 739L889 780L877 769H625V691H848C822 625 783 558 739 508V40C739 21 733 6 718 6C688 5 656 14 626 31V-51C659 -63 687 -67 729 -67ZM954 312 962 397C872 429 753 430 595 396V318C751 349 871 342 954 312Z" transform="translate(0, 880) scale(1,-1)" /></svg>