<svg xmlns="http://www.w3.org/2000/svg" width="1000" height="1000"><path d="M167 -63C215 -63 247 -40 247 24V794H169V28C169 13 164 6 152 6C128 6 98 13 65 28V-52C97 -59 131 -63 167 -63ZM52 543H321V619H52ZM338 377 298 440 26 259 69 192ZM629 -22 685 -80C833 48 932 287 944 656L878 676L864 663H719V583H861C846 298 784 116 629 -22ZM483 -70C564 -70 654 33 654 192C654 343 563 397 404 366L411 287C552 314 576 271 576 192C576 92 524 9 483 9C461 9 449 24 449 52C449 93 492 170 592 268L534 326C424 219 369 126 369 52C369 -22 409 -70 483 -70ZM305 217 376 176C417 243 467 350 504 450L431 478C397 380 345 279 305 217ZM900 -74 968 -25C913 97 816 262 727 388L668 350C756 220 848 47 900 -74ZM450 481H529V830H450ZM332 615H647V693H332ZM635 456 710 432C740 533 766 655 781 812L702 819C688 664 667 555 635 456ZM622 518H356V440H622Z" transform="translate(0, 880) scale(1,-1)" /></svg>