<svg xmlns="http://www.w3.org/2000/svg" width="1000" height="1000"><path d="M140 -44C187 -44 219 -21 219 44V760H142V56C142 41 137 34 125 34C102 34 73 41 41 56V-33C72 -40 105 -44 140 -44ZM39 523H274V598H39ZM293 369 252 431 13 261 57 196ZM286 409H746V489H286ZM324 -17 560 95 527 166 290 60ZM357 70H436V345H357ZM796 19H875V453H796ZM611 694 686 715C670 759 643 812 614 853L541 832C568 791 597 737 611 694ZM843 527 921 498C944 548 954 580 954 612C954 701 865 742 685 742C546 742 390 715 293 687L314 610C407 638 563 660 685 660C827 660 867 637 867 605C867 585 862 565 843 527ZM659 445H580V-88H659ZM959 59H713V-21H959Z" transform="translate(0, 880) scale(1,-1)" /></svg>