<svg xmlns="http://www.w3.org/2000/svg" width="1000" height="1000"><path d="M123 -36 203 -28C154 104 143 199 171 279C203 369 206 440 158 515L82 497C126 415 128 354 100 285C68 208 74 104 123 -36ZM202 591 249 656C214 684 150 728 101 757L56 699C105 667 169 620 202 591ZM587 684 662 705C646 751 618 805 589 848L516 827C543 785 574 728 587 684ZM840 511 918 482C941 533 952 566 952 599C952 689 858 731 665 731C516 731 347 703 247 671L269 595C365 625 532 649 665 649C822 649 865 625 865 592C865 571 859 550 840 511ZM364 476H691L586 363L649 315L826 501L771 563L754 556H364ZM410 -21 469 -92C718 -6 844 73 844 214C844 320 764 378 625 378C547 378 456 367 394 349L414 266C470 283 553 298 625 298C714 298 763 268 763 214C763 121 641 48 410 -21Z" transform="translate(0, 880) scale(1,-1)" /></svg>