<svg xmlns="http://www.w3.org/2000/svg" width="1000" height="1000"><path d="M40 577V498H325V577ZM22 198 85 165 96 184 325 268 307 341 134 274 212 510 146 536ZM154 -44C199 -44 234 -24 234 42V765H156V66C156 44 150 32 132 32C113 32 89 38 57 53V-32C90 -41 122 -44 154 -44ZM591 -71C704 -71 750 10 750 168C750 294 675 434 579 511L520 458C610 379 670 267 670 168C670 60 646 7 582 7C542 7 507 14 470 27V-59C504 -67 537 -71 591 -71ZM294 98 353 50C420 114 482 197 526 283L453 319C416 241 357 161 294 98ZM420 417 483 368C620 498 671 628 721 820L641 839C600 648 544 533 420 417ZM894 52 969 84C944 183 901 289 856 370L785 342C829 259 870 150 894 52ZM326 588H940V668H326Z" transform="translate(0, 880) scale(1,-1)" /></svg>