<svg xmlns="http://www.w3.org/2000/svg" width="1000" height="1000"><path d="M150 -39C197 -39 229 -17 229 48V787H152V60C152 46 147 38 135 38C112 38 82 45 50 60V-29C81 -35 114 -39 150 -39ZM44 544H291V620H44ZM309 385 268 447 18 273 62 207ZM587 92C641 92 678 116 678 186V494C762 562 847 659 908 754L843 805L831 794H365V714H776C728 645 661 581 599 533V205C599 183 588 172 570 171C536 170 496 179 459 196V108C502 96 537 92 587 92ZM301 245 369 202C419 289 463 407 490 514L412 534C387 434 346 321 301 245ZM901 192 977 223C951 309 900 436 847 538L774 504C827 400 876 279 901 192ZM352 40V-40H918V40Z" transform="translate(0, 880) scale(1,-1)" /></svg>