<svg xmlns="http://www.w3.org/2000/svg" width="1000" height="1000"><path d="M40 598V518H326V598ZM21 204 84 172 95 192 326 280 309 352 132 282 211 529 146 555ZM154 -47C198 -47 235 -26 235 40V795H157V64C157 42 151 30 132 30C113 30 89 35 57 50V-35C90 -44 121 -47 154 -47ZM853 291C922 291 956 323 966 462L897 476C892 385 883 372 853 371C708 367 588 593 574 827H493C511 538 665 291 853 291ZM315 -46H962V34H315ZM397 129H888V209H397ZM347 379 383 301C542 339 774 407 899 572L832 618C714 466 496 406 347 379ZM341 586 931 663 922 742 332 668Z" transform="translate(0, 880) scale(1,-1)" /></svg>