<svg xmlns="http://www.w3.org/2000/svg" width="1000" height="1000"><path d="M39 498 74 428C275 480 526 548 696 604L667 666C496 613 249 544 39 498ZM294 393H372V821H294ZM908 422 948 491C836 521 715 548 583 569L560 507C686 483 802 455 908 422ZM73 661H927V733H73ZM211 -68H817C887 -68 914 -22 932 92L857 100C849 18 832 5 798 5H243C204 5 192 9 192 18C192 29 203 35 852 206L815 281L794 277H154V204L592 205C110 92 86 67 86 10C86 -33 110 -68 211 -68ZM652 281 696 344C594 376 478 406 341 437L305 375C440 345 556 313 652 281ZM620 405C674 405 706 436 706 490V821H628V496C628 482 619 471 602 471C562 471 523 477 478 492V420C524 409 565 405 620 405Z" transform="translate(0, 880) scale(1,-1)" /></svg>