<svg xmlns="http://www.w3.org/2000/svg" width="1000" height="1000"><path d="M33 597V517H307V597ZM14 198 83 166 94 181 308 269 282 346 131 280 207 528 136 550ZM154 -53C198 -53 234 -32 234 34V789H156V58C156 36 150 24 132 24C114 24 90 29 59 44V-41C91 -50 122 -53 154 -53ZM582 -70C641 -70 673 -41 673 22V662H594V40C594 17 585 8 568 8C539 8 501 18 467 32V-58C501 -65 541 -70 582 -70ZM292 76 348 14C410 63 479 141 522 222L454 258C416 186 353 121 292 76ZM305 285H960V365H305ZM910 9 970 70C934 118 857 197 796 252L738 202C800 145 875 62 910 9ZM350 459H916V539H350ZM800 582H946V662H855L876 780L806 813L789 801H353V721H783L772 654Z" transform="translate(0, 880) scale(1,-1)" /></svg>