<svg xmlns="http://www.w3.org/2000/svg" width="1000" height="1000"><path d="M70 605V531H370V605ZM53 202 114 170 126 190 371 282 353 355 162 281 247 538 184 564ZM191 -58C236 -58 271 -37 271 30V814H195V49C195 26 188 13 174 13C149 13 124 19 90 34V-46C125 -55 157 -58 191 -58ZM385 660V580H919V660ZM613 823V442H691V823ZM688 468C576 468 477 434 395 388L434 316C513 363 588 388 688 388C764 388 803 363 803 315C803 189 593 22 516 22C481 22 455 54 455 109C455 156 484 193 536 193C623 193 723 36 888 -77L950 -7C789 93 663 272 536 272C443 272 375 210 375 109C375 17 434 -56 516 -56C626 -56 885 144 885 315C885 409 819 468 688 468Z" transform="translate(0, 880) scale(1,-1)" /></svg>