<svg xmlns="http://www.w3.org/2000/svg" width="1000" height="1000"><path d="M27 601V521H305V601ZM8 195 77 164 88 179 306 269 281 346 124 278 203 532 132 553ZM150 -60C195 -60 231 -39 231 27V798H153V52C153 29 147 17 129 17C110 17 86 23 54 38V-48C87 -57 118 -60 150 -60ZM301 -56H952V23H301ZM510 9H650C706 40 728 101 728 155C728 220 695 256 610 256C539 256 492 220 492 167C492 111 533 77 610 77C623 77 635 78 645 84C626 50 584 24 510 9ZM306 500 337 429C417 464 534 498 692 498C833 498 876 471 876 433C876 374 706 360 454 384V301C797 284 957 292 957 433C957 519 897 577 692 577C502 577 387 535 306 500ZM695 200V438H618V221ZM610 135C583 135 563 149 563 167C563 185 583 199 610 199C637 199 657 185 657 167C657 149 637 135 610 135ZM281 743V664H974V743ZM467 563 548 585C532 654 498 760 467 836L388 815C417 741 451 632 467 563ZM698 582 775 561C803 627 840 730 867 815L785 836C763 753 727 649 698 582Z" transform="translate(0, 880) scale(1,-1)" /></svg>