<svg xmlns="http://www.w3.org/2000/svg" width="1000" height="1000"><path d="M290 689H512V767H290ZM440 730H362V-56H440ZM807 495C796 452 781 412 760 369L804 302C849 319 875 304 875 249C875 174 802 113 704 81L730 6C853 53 955 118 955 249C955 362 906 393 849 387L912 565L840 598L826 584C558 511 474 393 474 309C474 255 508 203 569 203C695 203 769 474 854 787L785 813L771 799H527V719H753C695 495 623 283 573 283C560 283 553 291 553 306C553 344 594 436 807 495ZM712 -86 790 -61C776 8 748 103 723 176L647 152C672 83 697 -13 712 -86ZM60 609V529H326V609ZM41 198 110 168 121 183 326 273 300 350 155 283 230 540 158 561ZM177 -59C220 -59 256 -38 256 29V810H178V53C178 31 173 18 155 18C137 18 114 24 84 39V-47C115 -56 145 -59 177 -59Z" transform="translate(0, 880) scale(1,-1)" /></svg>