<svg xmlns="http://www.w3.org/2000/svg" width="1000" height="1000"><path d="M575 512 648 497C660 515 666 533 666 552C666 600 616 652 503 652C385 652 345 602 345 560C345 516 408 469 546 469C758 469 878 541 878 658C878 747 816 810 601 810C398 810 275 771 182 727L220 670C314 711 445 743 601 743C747 743 791 704 791 658C791 576 712 525 546 525C462 525 426 537 426 560C426 580 449 598 503 598C553 598 584 582 584 552C584 537 581 524 575 512ZM163 788V490H244V788ZM403 26H542C674 52 751 91 751 156C751 222 684 267 533 267C471 267 415 251 377 230C415 261 493 349 561 481L478 501C422 360 295 233 203 156L273 124C338 171 422 204 533 204C632 204 664 180 664 156C664 108 539 61 403 26ZM74 -45H927V26H74ZM117 316H886V385H117Z" transform="translate(0, 880) scale(1,-1)" /></svg>