<svg xmlns="http://www.w3.org/2000/svg" width="1000" height="1000"><path d="M186 -77C231 -77 254 -54 254 9V834H188V12C188 -2 183 -10 171 -10C147 -10 116 -3 83 12V-66C115 -73 150 -77 186 -77ZM64 574H348V640H64ZM359 392 332 455 44 262 74 195ZM451 478 517 515C504 593 471 703 442 786L379 756C406 676 436 557 451 478ZM641 517 712 543C703 631 677 743 651 838L583 815C607 721 631 603 641 517ZM798 499 862 476C893 562 927 687 951 786L877 816C859 717 827 591 798 499ZM334 -14 378 -84C686 -18 855 110 947 359L883 402L862 393H519V325H851C760 123 608 40 334 -14ZM724 97 776 148C701 184 623 216 539 246L500 196C582 165 656 132 724 97ZM332 200 388 156C488 245 561 356 608 459L543 483C499 377 426 278 332 200Z" transform="translate(0, 880) scale(1,-1)" /></svg>