<svg xmlns="http://www.w3.org/2000/svg" width="1000" height="1000"><path d="M179 -44C300 -44 359 120 359 266C359 382 304 499 182 552L151 479C246 432 281 349 281 266C281 160 245 37 179 37C152 37 133 54 133 101C133 200 209 299 367 424L320 487C159 369 54 233 54 101C54 -7 104 -44 179 -44ZM180 525 244 492C298 565 355 668 385 742L323 777L308 768H78V690H276C250 635 213 573 180 525ZM914 -81 954 -11C784 85 673 275 538 275C447 275 388 227 388 109C388 11 431 -56 525 -56C685 -56 901 163 901 301C901 412 833 439 728 439C640 439 575 428 505 415V637H427V406L420 392L432 328C520 347 620 358 728 358C788 358 821 345 821 301C821 209 640 25 525 25C489 25 467 57 467 109C467 163 486 195 538 195C623 195 738 20 914 -81ZM791 508C868 508 890 603 902 789L835 809L823 798H425V718H820C813 631 801 589 771 589C703 589 659 600 607 615V529C661 516 717 508 791 508Z" transform="translate(0, 880) scale(1,-1)" /></svg>