<svg xmlns="http://www.w3.org/2000/svg" width="1000" height="1000"><path d="M293 203H759C864 203 885 267 897 406L817 412C810 301 802 283 746 283H311C255 283 243 296 243 346V832H163V343C163 232 188 203 293 203ZM349 407 402 354C527 423 670 515 792 612L714 660C603 567 462 471 349 407ZM330 613 386 564C485 623 587 691 695 777L614 825C520 743 420 669 330 613ZM58 -41 125 -84C183 -25 235 56 261 134L188 164C165 89 111 9 58 -41ZM524 -76C569 -76 610 -58 665 -11L607 51C577 20 558 12 535 12C511 12 495 37 466 157L385 141C429 -35 472 -76 524 -76ZM877 -81 948 -38C913 20 847 108 789 170L727 122C789 57 845 -25 877 -81Z" transform="translate(0, 880) scale(1,-1)" /></svg>