<svg xmlns="http://www.w3.org/2000/svg" width="1000" height="1000"><path d="M136 -36 216 -27C164 111 154 211 184 294C219 388 223 461 170 540L93 522C141 436 143 372 112 300C77 221 82 111 136 -36ZM230 619 278 686C240 715 167 761 113 791L67 732C122 698 194 649 230 619ZM481 112 549 70C625 168 722 299 778 387L713 441L698 431H543C586 531 622 668 655 816L576 830C537 644 491 493 434 384L501 340L516 352H655C612 280 550 193 481 112ZM884 -85 917 -10C721 66 526 124 339 166L299 96C498 47 692 -10 884 -85ZM297 621H911V701H297ZM270 273 344 247C373 321 396 426 410 518L332 527C320 440 297 341 270 273ZM852 237 931 255C920 329 901 443 873 529L799 514C825 426 843 310 852 237Z" transform="translate(0, 880) scale(1,-1)" /></svg>