<svg xmlns="http://www.w3.org/2000/svg" width="1000" height="1000"><path d="M113 -36 194 -28C144 107 134 203 162 284C196 376 200 447 149 524L71 506C117 422 119 360 89 290C56 212 62 107 113 -36ZM209 599 256 666C217 695 145 739 91 768L45 708C100 676 172 628 209 599ZM841 157C913 157 949 202 960 373L884 383C878 256 869 237 841 237C667 237 530 525 513 826H432C452 466 621 157 841 157ZM284 -28H896V52H284ZM258 255 302 176C481 223 738 310 879 515L812 559C678 370 426 288 258 255ZM259 536 921 633 908 713 246 620Z" transform="translate(0, 880) scale(1,-1)" /></svg>