<svg xmlns="http://www.w3.org/2000/svg" width="1000" height="1000"><path d="M293 318 358 278C447 338 521 393 521 481C521 561 448 607 308 607C182 607 99 572 99 491C99 419 143 377 249 377C321 377 360 411 360 474V823H280V500C280 467 266 456 240 456C210 456 180 468 180 491C180 513 217 528 308 528C390 528 440 505 440 481C440 442 405 395 293 318ZM73 201 584 323 567 396 52 279ZM61 650H576V728H61ZM722 812V262H802V812ZM588 298V220H937V298ZM58 -36 125 -79C183 -15 235 72 261 157L187 185C164 104 110 18 58 -36ZM524 -71C570 -71 612 -50 666 0L607 62C577 29 557 19 535 19C511 19 495 47 466 181L385 165C427 -26 470 -71 524 -71ZM876 -75 948 -33C913 30 847 124 789 192L726 144C788 74 844 -14 876 -75Z" transform="translate(0, 880) scale(1,-1)" /></svg>