<svg xmlns="http://www.w3.org/2000/svg" width="1000" height="1000"><path d="M137 28C247 28 302 173 302 312C302 419 252 527 142 575L113 502C195 460 225 387 225 312C225 212 192 107 137 107C114 107 100 122 100 161C100 246 165 339 306 451L262 515C117 407 22 283 22 161C22 63 68 28 137 28ZM139 549 199 518C247 584 297 676 323 742L261 780L247 770H49V692H215C195 645 166 591 139 549ZM802 420V158H881V494L819 516L801 500C641 490 320 420 320 230C320 149 367 99 456 99C590 99 677 221 677 360C677 477 635 551 526 631L472 571C571 496 598 436 598 360C598 246 535 177 456 179C420 180 399 201 399 230C399 340 670 416 802 420ZM344 -45H958V35H344ZM343 566 387 496C504 549 619 623 732 722L673 778C582 696 453 611 343 566ZM344 714H958V794H344ZM964 194H727V114H964Z" transform="translate(0, 880) scale(1,-1)" /></svg>