<svg xmlns="http://www.w3.org/2000/svg" width="1000" height="1000"><path d="M225 352 276 311C485 397 541 536 545 723H474C465 543 420 429 225 352ZM709 314 769 351C709 404 596 487 503 540L463 499C547 448 655 363 709 314ZM245 562H757V623H245ZM778 208C840 208 875 230 875 284V701C875 770 829 811 749 811H379C263 811 199 789 163 761L182 698C221 730 291 747 391 747H729C780 747 802 725 802 684V303C802 282 791 272 770 272C736 272 703 279 662 292V221C696 212 734 208 778 208ZM213 220H600V283H241C211 283 197 298 197 327V811H127V303C127 242 158 220 213 220ZM44 -45 114 -79C178 -18 231 68 254 154L178 177C158 93 102 7 44 -45ZM524 -73C566 -73 604 -57 664 -8L609 54C578 20 559 9 534 9C509 9 496 38 462 175L384 157C432 -31 478 -73 524 -73ZM883 -75 962 -44C926 18 858 111 798 178L729 142C792 72 850 -15 883 -75Z" transform="translate(0, 880) scale(1,-1)" /></svg>