<svg xmlns="http://www.w3.org/2000/svg" width="1000" height="1000"><path d="M926 -81 964 -20C822 64 756 206 657 206C578 206 518 155 518 71C518 -14 578 -65 656 -65C778 -65 916 174 916 237C916 312 871 360 760 360C576 360 66 142 66 20C66 -46 121 -79 201 -79C337 -79 443 -8 443 91C443 186 337 251 180 282L166 223C267 197 371 167 371 91C371 28 280 -15 201 -15C158 -15 140 -4 140 20C140 99 584 292 758 292C811 292 843 273 843 237C843 186 736 2 656 2C619 2 586 25 586 71C586 104 603 136 657 136C727 136 777 7 926 -81ZM224 253 267 217C345 266 425 334 469 377L421 410L405 406H78V344H345C316 315 265 279 224 253ZM65 514 95 444C325 465 647 532 850 638L778 671C586 576 280 526 65 514ZM56 649 907 713 897 773 47 712ZM807 404C890 404 923 430 937 536L869 556C862 479 851 467 808 467C576 463 394 647 372 846H296C321 608 534 404 807 404Z" transform="translate(0, 880) scale(1,-1)" /></svg>