<svg xmlns="http://www.w3.org/2000/svg" width="1000" height="1000"><path d="M226 -69C379 -69 465 50 465 221C465 356 403 511 206 567L188 496C352 438 389 320 389 226C389 105 330 6 226 6C179 6 133 33 133 100C133 279 557 483 827 491C827 398 816 316 775 316C743 316 714 322 679 337V257C721 249 766 244 805 244C875 244 898 304 906 573C528 573 56 343 56 94C56 -12 134 -69 226 -69ZM691 -48H843C910 -48 943 3 947 138L872 156C872 70 863 30 839 30H688C646 30 628 42 628 96V373H553V96C553 -24 603 -48 691 -48ZM228 531 281 499C370 557 468 646 518 707H935V779H71V707H415C367 646 297 576 228 531Z" transform="translate(0, 880) scale(1,-1)" /></svg>