<svg xmlns="http://www.w3.org/2000/svg" width="1000" height="1000"><path d="M42 598V518H320V598ZM23 200 86 169 97 189 320 277 303 349 132 279 210 529 144 555ZM152 -53C197 -53 232 -32 232 34V797H154V59C154 36 149 24 131 24C112 24 89 30 57 44V-41C90 -50 120 -53 152 -53ZM516 297 562 249 800 368 748 423ZM296 362H949V440H296ZM639 436 688 383C762 434 836 472 836 550C836 627 760 655 619 655C481 655 393 628 393 556C393 493 448 463 554 463C633 463 663 497 663 547V841H584V579C584 550 575 538 546 538C509 538 481 544 481 556C481 568 510 579 619 579C701 579 751 570 751 548C751 524 704 471 639 436ZM304 679H941V757H304ZM674 322C567 321 453 298 306 241L336 165C468 226 571 243 674 243C762 243 861 214 861 125C861 28 781 1 691 1C584 1 475 27 475 80C475 105 509 119 571 119C626 119 647 113 647 92C647 72 621 31 526 -4L562 -46C661 -14 727 34 727 92C727 161 657 197 571 197C492 197 396 156 396 80C396 -26 526 -78 691 -78C838 -78 939 2 939 125C939 272 811 323 674 322Z" transform="translate(0, 880) scale(1,-1)" /></svg>