<svg xmlns="http://www.w3.org/2000/svg" width="1000" height="1000"><path d="M61 608V528H365V608ZM41 213 108 179 121 194 366 283 342 360 161 292 248 538 178 562ZM195 -40C241 -40 279 -19 279 47V800H200V71C200 49 194 36 175 36C154 36 128 42 93 57V-28C129 -37 162 -40 195 -40ZM375 475H939V557H375ZM420 700H893V782H420ZM507 311 577 265 591 279H689C655 223 607 157 552 96L624 58C689 131 770 238 821 313L751 369L735 359H622C669 460 697 580 720 722L640 730C616 580 580 439 507 311ZM902 -75 937 5C761 69 588 117 422 152L381 76C559 37 732 -11 902 -75Z" transform="translate(0, 880) scale(1,-1)" /></svg>