<svg xmlns="http://www.w3.org/2000/svg" width="1000" height="1000"><path d="M251 -68C388 -68 504 17 504 193C504 339 468 421 391 519L320 498C393 398 423 308 423 193C423 55 338 7 249 8C174 9 127 46 127 99C127 183 262 327 719 321V36H604V-37H943V36H795V390L734 413L716 396C324 401 49 290 49 103C49 -1 116 -68 251 -68ZM147 511 179 444C362 482 561 531 737 598L671 657C532 605 314 545 147 511ZM125 693 157 624C343 658 532 710 698 776L633 834C500 785 293 725 125 693Z" transform="translate(0, 880) scale(1,-1)" /></svg>