<svg xmlns="http://www.w3.org/2000/svg" width="1000" height="1000"><path d="M121 -46 201 -37C149 103 139 204 169 288C205 383 208 457 155 537L78 518C126 432 128 367 96 294C61 214 67 103 121 -46ZM216 615 261 685C223 715 151 761 97 791L53 729C108 696 180 646 216 615ZM388 837 344 774C393 750 445 720 474 698L519 764C489 785 436 815 388 837ZM358 392 439 379 582 648 515 686 499 677H289V599H467ZM594 503 289 407 316 329 622 432ZM560 302 623 249C746 356 844 453 951 595L882 637L840 588H712C752 652 797 731 838 814L761 847C717 748 673 670 630 604C620 590 607 580 594 573L627 500L646 510H779C723 444 636 362 560 302ZM771 104 796 30C889 53 940 109 940 185C940 268 859 321 676 321C529 321 377 296 268 263L286 188C393 219 547 243 676 243C808 243 858 215 858 184C858 141 825 115 771 104ZM438 172V94H724V172ZM296 12V-68H886V12Z" transform="translate(0, 880) scale(1,-1)" /></svg>