<svg xmlns="http://www.w3.org/2000/svg" width="1000" height="1000"><path d="M147 772V-62H225V772ZM19 287 88 270C102 341 113 425 125 511L54 517C45 430 31 351 19 287ZM68 411 78 337 292 372 281 446ZM353 632 365 569C446 611 553 637 673 637C800 637 846 596 846 479C846 334 832 289 800 289C775 289 748 294 712 312V231C744 219 774 213 800 213C901 213 926 288 926 479C926 624 867 716 673 716C546 716 430 680 353 632ZM609 707 651 782C584 807 492 834 418 849L390 779C461 763 547 733 609 707ZM441 495H783V573H441ZM659 316V683H580L581 329C581 313 577 305 564 305C541 305 516 312 486 323V245C522 235 550 229 582 229C641 229 659 256 659 316ZM441 365H783V443H441ZM261 -26 307 -93C394 -49 492 10 552 73L486 126C440 73 349 11 261 -26ZM268 127H956V205H268ZM903 -93 959 -31C905 15 808 79 729 128L679 68C756 18 852 -45 903 -93ZM400 223V701H321V223Z" transform="translate(0, 880) scale(1,-1)" /></svg>