<svg xmlns="http://www.w3.org/2000/svg" width="1000" height="1000"><path d="M129 -58C176 -58 208 -35 208 30V796H131V42C131 28 126 20 115 20C92 20 63 27 32 42V-47C62 -54 95 -58 129 -58ZM36 546H254V621H36ZM274 382 231 443 9 262 55 198ZM513 9 571 -45C666 23 726 95 726 181C726 257 674 301 581 301C492 301 440 256 440 186C440 111 494 69 615 69C805 69 930 128 930 273C930 391 842 446 679 446C531 446 406 411 304 358L337 284C440 336 543 367 679 367C787 367 851 342 851 273C851 176 741 145 615 145C548 145 519 157 519 186C519 213 543 226 581 226C621 226 646 211 646 181C646 129 601 70 513 9ZM439 453 515 478C506 522 479 590 451 641L377 620C405 568 431 497 439 453ZM250 565 322 529C384 623 423 723 449 836L371 849C345 736 310 652 250 565ZM610 474 688 491C685 535 669 608 648 661L573 646C593 592 607 518 610 474ZM375 687H953V765H375ZM758 471 828 448C856 497 893 572 921 638L836 662C819 606 785 522 758 471ZM977 17H283V-61H977Z" transform="translate(0, 880) scale(1,-1)" /></svg>