<svg xmlns="http://www.w3.org/2000/svg" width="1000" height="1000"><path d="M182 -63C230 -63 262 -40 262 24V789H184V27C184 13 179 5 167 5C144 5 114 13 81 27V-52C113 -59 147 -63 182 -63ZM70 540H332V615H70ZM350 375 310 438 43 258 86 191ZM381 795V717H896V795ZM346 647V569H931V647ZM364 457 391 380C470 414 567 441 685 441C816 441 847 386 847 319C847 219 785 179 707 179C633 179 564 185 493 199V114C564 102 633 99 707 99C847 99 929 188 929 319C929 426 877 521 685 521C552 521 445 493 364 457ZM678 -81V757H599V-81ZM487 277H776V355H487Z" transform="translate(0, 880) scale(1,-1)" /></svg>