<svg xmlns="http://www.w3.org/2000/svg" width="1000" height="1000"><path d="M219 23 280 -24C356 46 402 122 402 211C402 283 362 326 280 326C203 326 161 282 161 215C161 142 205 102 307 102C460 102 564 160 564 298C564 409 489 464 357 464C237 464 135 430 52 377L87 306C168 356 250 385 357 385C442 385 486 363 486 298C486 206 406 179 307 179C259 179 239 190 239 215C239 238 254 251 280 251C307 251 324 237 324 211C324 154 288 89 219 23ZM160 469 236 492C229 535 208 598 186 648L111 628C133 578 154 510 160 469ZM10 575 84 541C132 630 164 725 184 833L106 845C86 738 58 658 10 575ZM295 489 373 504C371 547 357 616 341 666L266 653C281 601 293 531 295 489ZM117 689H574V767H117ZM413 486 483 464C506 510 534 582 557 644L473 667C460 614 434 535 413 486ZM574 89 44 3 56 -75 587 11ZM815 -69H856C944 -69 967 -19 977 135L900 141C895 24 887 11 846 11H832C792 11 785 25 785 75V724H707V71C707 -40 731 -69 815 -69ZM587 427 923 462 919 542 583 507ZM593 720 602 642C703 656 825 690 911 741L879 817C809 769 692 736 593 720ZM578 218 931 254 928 334 575 298Z" transform="translate(0, 880) scale(1,-1)" /></svg>