<svg xmlns="http://www.w3.org/2000/svg" width="1000" height="1000"><path d="M133 -38 214 -30C163 108 153 207 183 290C218 383 221 456 168 535L90 516C138 431 140 367 109 296C74 217 80 108 133 -38ZM234 612 282 680C242 709 167 754 110 784L65 724C121 691 196 642 234 612ZM386 638 414 575C515 651 624 691 712 691C780 691 807 669 807 624C807 557 699 507 492 477L504 397C778 435 888 532 888 624C888 725 826 771 712 771C589 771 480 718 386 638ZM564 -78C621 -78 657 -45 657 23V464H578V37C578 17 566 1 547 1C507 0 465 9 424 27V-61C470 -74 508 -78 564 -78ZM935 189 953 272C785 304 561 305 265 271V195C557 226 779 219 935 189ZM273 463 340 418C422 537 483 680 517 828L438 842C406 697 344 555 273 463Z" transform="translate(0, 880) scale(1,-1)" /></svg>