<svg xmlns="http://www.w3.org/2000/svg" width="1000" height="1000"><path d="M637 284C833 284 941 367 941 491C941 603 838 658 689 658C672 658 658 657 643 655C714 688 776 719 859 763L804 827L784 817H440V738H655C605 706 556 676 502 648C484 638 457 633 429 624L468 550C523 570 592 580 683 580C788 580 855 549 855 491C855 409 766 362 632 362C558 362 506 381 506 410C506 431 534 446 576 446C644 446 690 415 699 337L773 347C758 462 689 518 577 518C490 518 427 472 427 407C427 322 510 284 637 284ZM281 829V293H360V829ZM318 448 299 524 170 494V736H91V507C91 486 75 474 61 469L87 395ZM456 -89C523 -89 551 -60 551 7V315H473V19C473 1 460 -12 438 -12C399 -12 348 -2 301 11V-75C348 -84 402 -89 456 -89ZM60 15 115 -50C198 -15 290 39 347 95L277 141C227 92 143 44 60 15ZM62 157H942V236H62ZM882 -53 938 7C890 45 786 102 703 140L650 83C734 43 835 -15 882 -53Z" transform="translate(0, 880) scale(1,-1)" /></svg>