<svg xmlns="http://www.w3.org/2000/svg" width="1000" height="1000"><path d="M123 -36 203 -27C154 106 143 202 172 283C204 374 208 445 158 521L81 503C127 420 129 359 100 289C67 211 73 106 123 -36ZM210 597 257 663C220 691 152 735 101 764L56 705C107 674 176 626 210 597ZM699 -64C872 -64 922 -8 922 311C922 487 881 575 750 575C665 575 600 556 531 518L550 442C615 479 685 495 750 495C829 495 843 440 843 311C843 61 805 14 691 14C655 14 608 21 552 38V-46C599 -59 647 -64 699 -64ZM387 174H623C672 174 712 206 712 265C712 319 685 381 661 421L589 389C616 353 631 312 631 286C631 262 616 254 599 254H407C383 254 374 266 374 285C374 329 403 428 498 627L424 656C323 451 292 347 292 267C292 214 319 174 387 174ZM287 710H923V790H287Z" transform="translate(0, 880) scale(1,-1)" /></svg>