<svg xmlns="http://www.w3.org/2000/svg" width="1000" height="1000"><path d="M701 521 760 461C834 516 882 571 882 667C882 789 810 833 705 833C603 833 539 797 489 746L508 681C557 731 619 753 705 753C778 753 806 716 806 667C806 600 763 561 701 521ZM531 448V799H455V448ZM874 528H591V451H874ZM779 -69C904 -69 924 69 924 196C924 310 864 369 743 369C635 369 536 358 434 338L443 261C545 282 643 291 740 291C824 291 852 251 852 190C852 97 830 3 775 3C737 3 697 7 655 18V-62C696 -68 733 -69 779 -69ZM354 -14 416 -76C603 32 673 189 713 485L634 492C603 212 528 85 354 -14ZM63 601V527H392V601ZM46 197 101 160 114 181 396 280 383 355 153 272 247 534 197 564ZM198 -72C245 -72 278 -51 278 16V814H206V35C206 12 196 -1 181 -1C154 -1 126 5 89 20V-60C127 -69 162 -72 198 -72Z" transform="translate(0, 880) scale(1,-1)" /></svg>