<svg xmlns="http://www.w3.org/2000/svg" width="1000" height="1000"><path d="M102 -43 182 -35C133 97 122 192 150 272C183 362 186 433 137 508L60 490C105 408 107 347 78 278C45 201 51 97 102 -43ZM192 582 239 649C202 677 132 721 79 750L34 690C87 659 157 611 192 582ZM798 -75 838 0C594 52 385 249 354 655L275 648C308 218 540 -19 798 -75ZM726 263 773 196C902 279 953 350 953 473C953 559 904 642 751 643C529 644 350 511 190 376L245 312C403 457 575 563 751 563C844 563 873 521 873 473C873 392 837 331 726 263ZM585 354H664V826H585Z" transform="translate(0, 880) scale(1,-1)" /></svg>