<svg xmlns="http://www.w3.org/2000/svg" width="1000" height="1000"><path d="M52 421 84 345C379 430 659 520 917 621L877 688C626 592 340 501 52 421ZM113 392H193V769H113ZM921 349 951 424C672 480 529 539 511 836H429C438 533 601 405 921 349ZM294 657 339 585C499 629 665 683 803 736L753 803C624 753 471 701 294 657ZM456 -77C523 -77 552 -47 552 21V417H472V33C472 14 460 1 438 1C399 1 348 11 301 25V-63C348 -72 402 -77 456 -77ZM57 42 115 -21C198 22 290 88 347 157L274 197C224 137 140 78 57 42ZM62 229H942V309H62ZM882 -24 941 33C893 79 789 149 706 195L650 142C734 93 835 22 882 -24Z" transform="translate(0, 880) scale(1,-1)" /></svg>