<svg xmlns="http://www.w3.org/2000/svg" width="1000" height="1000"><path d="M61 593V514H355V593ZM41 190 109 157 121 173 356 263 332 340 159 271 243 524 173 547ZM191 -67C236 -67 273 -46 273 20V790H195V45C195 22 189 10 170 10C150 10 125 16 91 31V-55C126 -64 158 -67 191 -67ZM519 226H787V306H519ZM612 265H691V749H612ZM362 709H942V789H362ZM414 540 427 467C482 484 540 492 614 492H769C821 492 845 465 845 406V52C845 24 842 10 820 10C795 10 758 16 718 29V-57C756 -64 792 -69 823 -69C889 -69 923 -38 923 40V416C923 513 881 571 776 571H612C532 571 474 559 414 540ZM460 -72V571H381V-72Z" transform="translate(0, 880) scale(1,-1)" /></svg>