<svg xmlns="http://www.w3.org/2000/svg" width="1000" height="1000"><path d="M140 -36 221 -27C169 111 159 211 190 294C225 388 229 461 175 540L97 522C145 436 147 372 115 300C80 220 86 111 140 -36ZM245 617 293 686C252 715 175 761 117 791L71 730C129 697 206 647 245 617ZM400 447 478 416C555 538 616 678 655 814L572 835C536 703 478 564 400 447ZM813 467 892 433C912 481 923 517 923 559C923 657 837 703 661 703C513 703 362 660 265 616L296 537C388 579 531 618 661 618C797 618 838 590 838 554C838 527 831 504 813 467ZM361 460V380H735V258H389V306H310V83C310 -35 351 -60 471 -60H772C891 -60 928 -2 947 171L867 185C855 35 834 20 762 20H474C404 20 389 33 389 83V178H814V460Z" transform="translate(0, 880) scale(1,-1)" /></svg>