<svg xmlns="http://www.w3.org/2000/svg" width="1000" height="1000"><path d="M161 -30C209 -30 241 -7 241 58V792H163V70C163 56 158 48 146 48C123 48 93 55 60 70V-19C92 -26 126 -30 161 -30ZM51 551H308V626H51ZM326 392 286 455 25 281 68 215ZM377 749 390 669C540 676 759 705 899 759L862 835C746 789 532 758 377 749ZM343 402H954V482H343ZM609 193H688V745H609ZM738 245C617 245 493 199 370 109L420 43C526 119 639 165 738 165C795 165 827 142 827 104C827 54 782 11 708 -14L749 -85C837 -51 905 11 905 104C905 203 838 245 738 245Z" transform="translate(0, 880) scale(1,-1)" /></svg>