<svg xmlns="http://www.w3.org/2000/svg" width="1000" height="1000"><path d="M176 -78C224 -78 256 -55 256 9V834H178V19C178 5 173 -3 161 -3C137 -3 107 4 74 19V-67C106 -74 140 -78 176 -78ZM59 569H332V645H59ZM350 392 309 455 32 262 76 195ZM937 791H382V470C382 323 376 116 317 -21L395 -60C453 92 460 317 460 470V714H937ZM894 -52 958 -1C900 78 812 173 716 255L659 204C756 119 836 27 894 -52ZM645 470 704 418C774 475 840 541 897 623L832 664C783 591 718 521 645 470ZM622 27V680H545V39C545 9 532 -3 523 -9L544 -77L740 -10L723 60ZM485 306H935V381H485Z" transform="translate(0, 880) scale(1,-1)" /></svg>