<svg xmlns="http://www.w3.org/2000/svg" width="1000" height="1000"><path d="M37 603V524H313V603ZM18 196 81 165 93 186 313 276 295 349 126 277 203 534 138 560ZM146 -63C190 -63 226 -42 226 25V810H148V49C148 27 143 14 125 14C107 14 84 20 52 35V-51C85 -60 115 -63 146 -63ZM660 314H580C580 107 481 30 273 -6L311 -82C531 -39 660 69 660 314ZM302 135H935V213H302ZM918 -87 964 -17C900 32 788 96 687 140L645 78C744 30 858 -39 918 -87ZM293 443 317 365C419 408 566 437 710 437C827 437 854 420 854 396C854 378 847 358 836 337L910 306C922 334 931 363 931 400C931 480 865 516 710 516C528 516 397 490 293 443ZM895 622H343V544H895ZM659 586V843H579V586ZM295 680H942V758H295ZM409 287H828V365H409Z" transform="translate(0, 880) scale(1,-1)" /></svg>