<svg xmlns="http://www.w3.org/2000/svg" width="1000" height="1000"><path d="M542 413H782C885 413 905 444 917 512L839 522C832 491 824 481 770 481H563C508 481 498 492 498 534V762H416V529C416 437 440 413 542 413ZM91 595 871 641 868 708 88 663ZM110 781 126 715C352 722 624 737 814 759L776 823C612 802 342 787 110 781ZM71 487 891 533 888 600 68 554ZM306 -65H367C456 -65 474 -26 484 64L417 76C412 23 405 5 357 5H323C277 5 269 16 269 59V361H201V54C201 -40 220 -65 306 -65ZM53 189 435 206 433 275 51 258ZM62 376 70 310C181 317 314 335 407 360L388 426C308 402 176 384 62 376ZM43 71 444 90 443 159 42 140ZM750 -61H833C924 -61 942 -23 953 68L884 80C879 26 872 8 823 8H768C721 8 712 19 712 63V350H643V58C643 -37 662 -61 750 -61ZM473 186 904 204 902 273 471 255ZM484 365 493 298C617 306 767 324 872 350L851 415C761 391 611 373 484 365ZM462 76 914 95 913 165 461 146Z" transform="translate(0, 880) scale(1,-1)" /></svg>