<svg xmlns="http://www.w3.org/2000/svg" width="1000" height="1000"><path d="M121 -36 201 -27C152 106 142 202 170 283C203 373 207 444 156 520L79 502C125 420 127 358 97 288C64 211 70 106 121 -36ZM214 595 261 662C223 690 152 734 98 764L53 704C107 672 178 624 214 595ZM389 688 428 624C501 681 575 708 667 708C746 708 768 670 768 618C768 560 747 502 702 439L763 400C817 475 848 540 848 618C848 738 786 789 667 789C558 789 473 750 389 688ZM253 -38H967V42H253ZM619 32 690 0C779 88 869 193 869 316C869 432 778 472 607 447V369C737 380 789 373 789 316C789 219 711 123 619 32ZM447 6V782H368V6Z" transform="translate(0, 880) scale(1,-1)" /></svg>