<svg xmlns="http://www.w3.org/2000/svg" width="1000" height="1000"><path d="M54 608V528H330V608ZM35 199 98 169 109 189 331 280 313 352 142 280 220 538 155 564ZM163 -60C207 -60 243 -39 243 28V814H165V53C165 30 160 17 142 17C123 17 100 23 69 38V-48C101 -57 132 -60 163 -60ZM830 581 899 542C929 575 942 618 942 664C942 754 891 813 718 813C552 813 398 760 294 708L335 636C430 682 575 733 718 733C818 733 862 708 862 664C862 633 851 603 830 581ZM521 -48H792C912 -48 949 -16 962 163L884 172C874 54 867 31 798 31H531C463 31 435 42 435 71C435 108 459 142 864 508L815 567L800 562H366V483H695C392 186 353 137 353 71C353 -8 401 -48 521 -48ZM756 183 805 246C708 298 576 353 459 391L418 325C533 289 660 233 756 183Z" transform="translate(0, 880) scale(1,-1)" /></svg>