<svg xmlns="http://www.w3.org/2000/svg" width="1000" height="1000"><path d="M104 -36 184 -28C134 104 124 199 152 279C183 369 186 439 139 515L62 497C107 415 109 354 81 285C49 208 55 104 104 -36ZM181 591 228 656C193 684 130 728 82 757L37 699C85 667 148 620 181 591ZM292 632 305 569C394 611 512 637 643 637C784 637 837 596 837 479C837 334 818 289 784 289C755 289 726 294 687 312V231C722 219 754 213 784 213C887 213 917 288 917 479C917 624 852 716 643 716C504 716 377 680 292 632ZM575 707 617 782C545 807 443 834 361 849L335 779C413 763 507 733 575 707ZM389 495H765V573H389ZM624 316V683H544L546 329C546 313 541 305 528 305C501 305 472 313 437 325V245C477 235 509 229 543 229C606 229 624 256 624 316ZM389 365H765V443H389ZM190 -26 238 -93C333 -49 441 10 507 73L437 126C387 73 287 11 190 -26ZM199 127H955V205H199ZM900 -93 959 -31C899 15 793 79 706 128L654 68C740 18 844 -45 900 -93ZM340 223V701H261V223Z" transform="translate(0, 880) scale(1,-1)" /></svg>