<svg xmlns="http://www.w3.org/2000/svg" width="1000" height="1000"><path d="M132 -50 213 -41C161 99 151 200 182 284C218 379 222 454 167 534L89 515C138 428 140 363 108 290C71 210 77 99 132 -50ZM238 612 287 681C246 710 167 757 109 787L63 727C122 693 199 643 238 612ZM598 -22 655 -80C814 48 921 287 934 656L868 677L854 663H696V583H850C834 298 764 116 598 -22ZM442 -70C528 -70 623 34 623 192C623 343 528 397 357 366L364 287C516 314 544 271 544 192C544 92 487 9 442 9C416 9 403 24 403 52C403 94 449 170 556 268L501 327C382 220 323 127 323 52C323 -21 364 -70 442 -70ZM254 217 324 176C368 243 422 350 461 450L389 478C352 380 296 279 254 217ZM892 -74 960 -24C901 98 798 263 702 389L643 350C738 220 836 47 892 -74ZM409 481H488V830H409ZM279 615H618V693H279ZM607 456 682 431C715 532 743 654 759 811L679 819C665 664 642 555 607 456ZM591 518H306V440H591Z" transform="translate(0, 880) scale(1,-1)" /></svg>