<svg xmlns="http://www.w3.org/2000/svg" width="1000" height="1000"><path d="M109 -36 189 -28C141 101 131 193 157 271C188 359 192 427 144 501L67 483C111 404 113 345 86 277C54 202 60 101 109 -36ZM195 573 241 640C205 667 137 710 86 738L42 678C93 647 161 601 195 573ZM485 367 547 313C636 353 726 439 726 531C726 599 680 646 575 646C467 646 428 600 428 538C428 470 489 430 614 430C809 430 916 496 916 629C916 725 859 809 650 809C456 809 339 763 242 713L283 640C376 686 502 729 650 729C795 729 836 680 836 629C836 553 760 506 614 506C539 506 508 520 508 538C508 556 529 572 575 572C618 572 646 558 646 531C646 466 580 411 485 367ZM774 129 800 47C897 77 955 140 956 234C957 325 877 389 665 389C505 389 338 360 216 324L235 246C354 281 524 309 665 309C823 309 873 273 873 232C873 175 833 146 774 129ZM405 213V134H716V213ZM248 26V-54H895V26Z" transform="translate(0, 880) scale(1,-1)" /></svg>