<svg xmlns="http://www.w3.org/2000/svg" width="1000" height="1000"><path d="M167 -47C215 -47 247 -25 247 39V784H169V52C169 38 164 30 152 30C128 30 97 37 64 52V-37C96 -43 131 -47 167 -47ZM48 539H325V615H48ZM342 379 304 442 22 267 64 199ZM696 -52H842C934 -52 951 5 962 181L885 188C879 53 873 28 830 28H719C674 28 664 41 664 91V726H586V88C586 -23 606 -52 696 -52ZM353 342 934 378 929 458 348 422ZM357 721 371 643C543 657 751 692 895 742L858 817C735 771 533 737 357 721Z" transform="translate(0, 880) scale(1,-1)" /></svg>