<svg xmlns="http://www.w3.org/2000/svg" width="1000" height="1000"><path d="M114 -32 194 -23C145 109 135 203 162 283C195 373 198 443 149 518L72 501C117 419 119 358 90 289C58 212 63 109 114 -32ZM204 592 251 659C213 687 143 731 91 760L46 700C99 668 169 621 204 592ZM409 100V621H330V98C330 -18 375 -43 504 -43H784C903 -43 938 19 958 192L881 201C868 61 852 37 781 37H504C426 37 409 48 409 100ZM747 355C853 355 880 461 896 763L835 784L818 772H303V692H815C807 484 773 433 733 433C661 433 606 446 543 463V376C606 363 669 355 747 355Z" transform="translate(0, 880) scale(1,-1)" /></svg>