<svg xmlns="http://www.w3.org/2000/svg" width="1000" height="1000"><path d="M140 -48 221 -39C169 99 159 199 190 282C225 376 229 450 175 528L97 510C145 424 147 360 115 288C80 209 86 99 140 -48ZM245 605 293 674C253 703 175 749 117 779L71 718C130 685 207 635 245 605ZM403 449H808V527H403ZM444 -78H821C884 -78 912 -32 928 97L850 107C842 22 828 0 800 0H474C450 0 438 5 438 16C438 33 455 51 867 291L822 358L802 349H334V271L667 272C356 93 329 58 329 7C329 -42 357 -78 444 -78ZM598 699 674 718C659 763 631 814 603 854L530 833C557 793 586 740 598 699ZM813 534 892 506C914 555 924 587 924 618C924 706 839 746 670 746C540 746 398 723 303 694L324 617C415 644 556 665 670 665C802 665 838 642 838 611C838 591 832 571 813 534Z" transform="translate(0, 880) scale(1,-1)" /></svg>