<svg xmlns="http://www.w3.org/2000/svg" width="1000" height="1000"><path d="M100 -35 488 94 461 166 68 40ZM191 12 425 305 361 359 346 349H259C305 447 335 561 357 718L278 725C253 556 216 414 143 304L204 259L222 270H294L124 45ZM59 390H138V463C192 511 259 531 321 531C381 531 405 514 405 490C405 462 395 443 378 419L455 387C472 416 484 445 484 493C484 579 429 610 322 610C239 610 182 578 138 537V592H59ZM105 690H489V768H105ZM863 -85C927 -85 956 -38 964 125L894 146C890 29 882 -3 861 -3C748 -3 691 447 677 827L596 826C612 440 673 -85 863 -85ZM510 47 569 -21C711 65 822 220 899 413L819 444C758 269 662 132 510 47ZM516 446 923 523 908 599 501 522ZM828 618 888 663C864 704 815 764 775 806L717 767C758 724 805 661 828 618Z" transform="translate(0, 880) scale(1,-1)" /></svg>