<svg xmlns="http://www.w3.org/2000/svg" width="1000" height="1000"><path d="M201 768V-65H281V768ZM48 288 120 267C136 338 150 422 163 508L90 518C79 431 63 352 48 288ZM96 408 109 334 370 374 357 448ZM346 696 389 627C473 691 560 731 690 731C814 731 852 697 852 629C852 540 802 501 487 536V455C819 425 932 471 932 629C932 731 876 811 690 811C535 811 431 763 346 696ZM332 112H934V192H332ZM567 -72C641 -72 682 -35 682 48L683 633H604L603 66C603 26 591 6 558 6C527 6 492 13 456 27V-59C488 -68 523 -72 567 -72ZM357 266H909V346H357Z" transform="translate(0, 880) scale(1,-1)" /></svg>