<svg xmlns="http://www.w3.org/2000/svg" width="1000" height="1000"><path d="M28 614V534H307V614ZM8 210 77 178 88 194 307 283 282 360 125 293 204 545 133 567ZM151 -45C195 -45 231 -24 231 42V810H153V67C153 44 148 32 129 32C110 32 87 38 54 53V-33C88 -42 119 -45 151 -45ZM798 420V158H877V494L815 516L797 500C634 490 309 420 309 230C309 149 356 99 446 99C582 99 670 221 670 360C670 477 628 551 517 631L463 571C564 496 591 436 591 360C591 246 526 177 446 179C409 180 388 201 388 230C388 340 664 416 798 420ZM332 -45H956V35H332ZM333 566 376 496C495 549 611 623 726 722L667 778C575 696 444 611 333 566ZM332 714H956V794H332ZM963 194H721V114H963Z" transform="translate(0, 880) scale(1,-1)" /></svg>