<svg xmlns="http://www.w3.org/2000/svg" width="1000" height="1000"><path d="M35 605V525H297V605ZM16 192 79 163 90 184 297 275 279 347 121 275 195 535 129 561ZM138 -68C181 -68 217 -47 217 20V814H139V45C139 22 134 9 116 9C99 9 77 15 47 30V-56C78 -65 107 -68 138 -68ZM364 -7C461 -7 513 138 513 279C513 387 467 496 369 545L340 473C411 430 437 355 437 279C437 178 408 72 364 72C344 72 334 85 334 123C334 207 390 307 515 420L472 483C340 375 258 244 258 123C258 26 299 -7 364 -7ZM365 518 423 488C465 555 509 648 532 715L468 751L455 741H286V663H431C413 615 388 560 365 518ZM682 538 743 489C810 564 883 672 926 761L861 804L849 799H554V719H810C782 668 737 602 682 538ZM611 229C632 291 650 360 667 430L594 449C557 300 518 183 460 120L523 75C540 92 563 124 583 153C598 153 614 132 628 85L717 144L684 216L644 193C640 207 628 219 611 229ZM711 314 662 262C767 187 858 100 923 14L984 85C914 156 823 236 711 314ZM736 353 778 289C839 326 884 360 936 412L881 476C834 423 796 390 736 353ZM716 603 640 565C701 440 736 321 736 191C736 112 726 11 683 11C655 11 627 18 600 35V-51C627 -61 660 -67 696 -67C798 -67 814 65 814 191C814 325 775 471 716 603Z" transform="translate(0, 880) scale(1,-1)" /></svg>