<svg xmlns="http://www.w3.org/2000/svg" width="1000" height="1000"><path d="M251 -80C327 -80 358 -7 358 110C358 298 305 561 233 825L154 804C225 547 277 288 277 110C277 34 268 0 239 0C217 0 193 11 172 28V-62C196 -75 220 -80 251 -80ZM34 -36 110 -69C184 96 218 229 246 407L168 418C141 246 107 119 34 -36ZM60 541H377V619H60ZM361 540 437 512C478 600 513 726 530 822L451 834C433 734 399 617 361 540ZM449 648H925V726H449ZM410 310H935V390H410ZM452 477H892V557H452ZM533 200 600 151 613 164H690C664 126 630 84 589 43L661 11C715 65 782 141 827 198L763 251L749 243H651C686 315 709 399 731 502L651 510C629 400 595 293 533 200ZM904 -91 933 -13C768 34 606 69 451 94L415 20C583 -10 745 -44 904 -91Z" transform="translate(0, 880) scale(1,-1)" /></svg>