<svg xmlns="http://www.w3.org/2000/svg" width="1000" height="1000"><path d="M154 -52C202 -52 234 -30 234 35V775H156V47C156 33 151 25 140 25C116 25 86 32 53 47V-42C85 -48 119 -52 154 -52ZM42 531H304V607H42ZM321 372 282 435 16 260 59 193ZM344 523H927V603H344ZM310 -46H966V34H310ZM552 8 655 -16C717 35 769 144 769 280C769 369 710 420 615 420C520 420 461 369 461 280C461 191 520 140 615 140C638 140 656 143 671 151C653 88 602 27 552 8ZM615 216C567 216 541 241 541 280C541 319 567 344 615 344C663 344 688 319 688 280C688 241 663 216 615 216ZM732 662 771 737C720 764 608 812 532 838L495 771C567 748 680 692 732 662ZM733 562H654V387L733 312Z" transform="translate(0, 880) scale(1,-1)" /></svg>