<svg xmlns="http://www.w3.org/2000/svg" width="1000" height="1000"><path d="M36 602V522H314V602ZM17 201 86 170 97 185 314 273 289 350 134 284 212 533 141 555ZM159 -51C203 -51 239 -30 239 36V796H161V60C161 38 156 26 137 26C119 26 95 31 63 46V-39C96 -48 127 -51 159 -51ZM266 -10 319 -80C542 35 713 240 713 567V824H633V567C633 278 474 87 266 -10ZM759 -64H870C945 -64 956 3 961 190L882 198C879 36 873 16 859 16H769C754 16 752 23 752 71V308H673V67C673 -36 690 -64 759 -64ZM796 335 857 279C920 351 940 408 940 472C940 570 881 638 779 638C567 638 451 534 302 431L356 358C515 478 599 558 779 558C837 558 860 523 860 472C860 427 839 377 796 335ZM388 481 457 451C508 523 562 615 590 695L528 734L512 723H306V643H480C456 591 427 536 388 481Z" transform="translate(0, 880) scale(1,-1)" /></svg>