<svg xmlns="http://www.w3.org/2000/svg" width="1000" height="1000"><path d="M189 -54C238 -54 269 -31 269 33V803H191V46C191 32 186 24 174 24C150 24 119 31 86 46V-43C118 -50 153 -54 189 -54ZM66 552H353V628H66ZM369 385 331 450 41 269 82 201ZM536 271 610 241C691 304 751 394 751 490C751 560 721 623 629 623C545 623 508 565 508 503C508 427 555 377 656 377C819 377 923 463 923 612C923 735 859 823 679 823C528 823 429 772 354 718L401 651C470 699 564 742 679 742C795 742 843 693 843 612C843 510 773 456 656 456C607 456 587 475 587 503C587 528 602 543 629 543C657 543 673 525 673 490C673 408 618 332 536 271ZM365 209H905V289H365ZM335 43V-37H935V43ZM596 244V19H675V244Z" transform="translate(0, 880) scale(1,-1)" /></svg>