<svg xmlns="http://www.w3.org/2000/svg" width="1000" height="1000"><path d="M43 -9 87 -77C376 36 615 243 615 567V824H535V567C535 282 306 92 43 -9ZM693 -64H843C929 -64 947 3 954 191L874 197C870 36 865 16 828 16H706C674 16 668 25 668 71V308H588V67C588 -36 611 -64 693 -64ZM762 342 826 288C898 351 925 409 925 472C925 570 850 638 720 638C454 638 307 545 105 444L151 367C352 479 472 558 720 558C809 558 844 522 844 472C844 431 818 385 762 342ZM196 480 268 448C332 515 404 607 443 688L385 731L370 723H90V643H325C294 593 254 539 196 480Z" transform="translate(0, 880) scale(1,-1)" /></svg>