<svg xmlns="http://www.w3.org/2000/svg" width="1000" height="1000"><path d="M64 142H141V533C180 585 214 607 269 607C341 607 349 514 349 416C349 284 325 221 283 221C242 221 204 224 163 238V156C204 144 242 141 283 141C390 141 426 251 426 416C426 550 405 687 269 687C201 687 165 661 141 616V668H64ZM283 -76V793H206V-76ZM160 372H324V450H160ZM746 -59C879 -59 942 73 942 274C942 475 856 548 706 548C682 548 660 547 640 543C712 604 794 677 862 743L803 800L786 792H426V712H714C656 648 589 587 502 518C489 507 439 481 399 456L444 386C518 438 599 468 693 468C798 468 863 427 863 272C863 147 824 21 742 21C703 21 666 31 628 52V-39C664 -53 702 -59 746 -59ZM363 154 431 98C525 183 598 291 634 410L556 429C524 319 456 227 363 154ZM418 -3 484 -59C616 28 734 205 769 408L692 423C655 225 549 77 418 -3Z" transform="translate(0, 880) scale(1,-1)" /></svg>