<svg xmlns="http://www.w3.org/2000/svg" width="1000" height="1000"><path d="M25 558 97 512C188 595 258 711 299 825L220 850C179 736 108 627 25 558ZM221 552H845V631H221ZM214 691H904V771H214ZM820 308 898 281C920 329 929 359 929 387C929 477 828 514 587 514C414 514 257 486 134 449L156 371C270 406 430 434 587 434C787 434 844 412 844 382C844 363 838 344 820 308ZM145 258H867V336H145ZM235 37 308 73C287 117 246 184 208 236L139 201C176 150 216 82 235 37ZM555 55 629 86C614 131 583 197 552 250L482 218C510 167 541 100 555 55ZM593 0 657 -39C745 39 815 135 861 218L783 255C744 170 679 77 593 0ZM351 -12H431V295H351ZM888 24H120V-54H888Z" transform="translate(0, 880) scale(1,-1)" /></svg>