<svg xmlns="http://www.w3.org/2000/svg" width="1000" height="1000"><path d="M120 -46 200 -37C148 101 138 200 168 283C202 377 205 451 154 529L77 511C124 425 126 361 96 289C61 210 67 101 120 -46ZM208 606 252 677C215 706 147 752 95 782L53 719C105 686 173 637 208 606ZM352 632 420 666C402 708 369 769 335 814L269 783C300 738 335 677 352 632ZM569 655 643 680C629 727 604 790 573 842L502 819C529 768 556 705 569 655ZM746 656 811 626C847 676 885 744 912 802L837 832C817 777 779 707 746 656ZM827 412 902 382C926 435 936 468 936 504C936 599 847 639 637 639C485 639 346 608 240 570L267 494C365 531 502 558 637 558C807 558 855 533 855 499C855 476 848 454 827 412ZM433 256 478 192C609 244 719 295 840 365L786 430L742 403L483 400C539 439 591 483 649 534L580 588C508 519 431 459 359 413C343 403 320 396 297 391L334 310L362 318L580 323C533 301 483 278 433 256ZM550 -84C623 -84 666 -32 666 78C666 161 639 225 589 282L520 244C564 187 585 137 585 78C585 19 569 -6 538 -6C507 -6 467 1 425 18V-66C466 -79 506 -84 550 -84ZM221 45 284 1C336 54 387 138 418 208L341 239C317 173 271 97 221 45ZM881 -3 954 34C927 92 871 178 809 245L741 204C801 134 856 54 881 -3Z" transform="translate(0, 880) scale(1,-1)" /></svg>