<svg xmlns="http://www.w3.org/2000/svg" width="1000" height="1000"><path d="M309 670 385 703C367 738 332 796 295 835L220 802C255 763 289 713 309 670ZM84 605H916V684H84ZM610 685 677 654C723 704 760 758 787 808L701 839C682 790 648 733 610 685ZM102 182 480 252 466 330 84 260ZM231 269 294 233C356 298 430 398 481 483L418 534L398 524H112V445H354C324 393 275 323 231 269ZM670 232H750V541H670ZM910 268H560V189H910ZM59 -38 124 -82C183 -30 235 38 260 104L188 137C166 74 111 6 59 -38ZM524 -74C567 -74 606 -60 663 -20L607 43C577 17 559 11 536 11C512 11 496 32 466 128L386 110C431 -40 475 -74 524 -74ZM878 -79 947 -34C912 15 846 90 788 143L728 94C790 38 846 -31 878 -79Z" transform="translate(0, 880) scale(1,-1)" /></svg>