<svg xmlns="http://www.w3.org/2000/svg" width="1000" height="1000"><path d="M70 613V533H362V613ZM51 204 118 172 130 188 363 279 339 356 168 287 252 543 181 566ZM199 -55C244 -55 282 -34 282 33V814H203V57C203 35 198 22 179 22C158 22 133 28 100 43V-43C134 -52 166 -55 199 -55ZM727 -70C862 -70 930 63 930 252C930 471 823 537 671 537C618 537 577 529 544 519C595 580 654 678 701 804L622 828C584 702 527 601 445 499C433 484 402 470 360 449L398 378C477 422 564 456 665 456C779 456 852 413 852 252C852 118 806 11 721 11C679 11 636 19 596 36V-54C635 -64 679 -70 727 -70ZM338 619H908V697H338ZM443 287H781V362H443ZM658 126V428H582L583 146C583 129 578 119 568 119C545 119 517 125 483 141V60C512 52 544 47 579 47C632 47 658 74 658 126ZM430 164H793V239H430Z" transform="translate(0, 880) scale(1,-1)" /></svg>