<svg xmlns="http://www.w3.org/2000/svg" width="1000" height="1000"><path d="M53 601V527H323V601ZM36 190 97 160 108 181 323 273 305 345 140 272 216 534 153 560ZM159 -72C203 -72 238 -51 238 16V814H162V35C162 12 156 -1 143 -1C120 -1 97 5 66 20V-60C98 -69 128 -72 159 -72ZM419 834 377 777C424 753 475 723 502 701L546 760C516 782 466 811 419 834ZM398 392 469 379 605 648 541 682 526 672H329V604H504ZM618 499 331 403 353 332 641 434ZM599 312 643 250C759 357 851 453 952 595L888 637L849 583H726C764 647 809 732 849 815L774 847C733 748 692 670 651 604C642 590 629 580 617 573L648 503L665 515H799C747 448 669 371 599 312ZM784 104 807 30C895 53 942 109 942 185C942 268 865 321 693 321C555 321 413 295 310 263L323 188C425 219 570 244 693 244C818 244 864 215 864 184C864 141 832 115 784 104ZM469 171V95H739V171ZM336 12V-66H892V12Z" transform="translate(0, 880) scale(1,-1)" /></svg>