<svg xmlns="http://www.w3.org/2000/svg" width="1000" height="1000"><path d="M188 -78C236 -78 268 -55 268 9V834H190V13C190 -1 185 -9 172 -9C148 -9 117 -2 83 13V-67C116 -74 151 -78 188 -78ZM64 569H352V645H64ZM369 391 330 455 37 262 80 194ZM915 -89 954 -6C764 60 666 240 498 240C409 240 345 179 345 86C345 -6 404 -61 483 -61C660 -61 854 160 854 282C854 393 789 444 647 444C576 444 502 427 439 400L462 319C511 346 583 364 647 364C730 364 772 340 772 282C772 189 614 19 483 19C439 19 419 44 419 86C419 127 454 160 498 160C638 160 721 -20 915 -89ZM579 388H660V835H579ZM343 604 386 536C491 600 618 640 724 640C821 640 856 611 856 585C856 556 848 533 830 508L908 477C927 511 938 538 938 586C938 679 857 720 724 720C591 720 453 667 343 604Z" transform="translate(0, 880) scale(1,-1)" /></svg>