<svg xmlns="http://www.w3.org/2000/svg" width="1000" height="1000"><path d="M64 612V532H385V612ZM44 202 110 167 123 184 386 278 364 355 163 282 258 541 188 565ZM206 -62C253 -62 291 -41 291 26V815H213V51C213 28 207 15 187 15C164 15 136 21 100 36V-50C137 -59 171 -62 206 -62ZM726 689 644 709C574 508 453 325 334 188L399 134C520 279 651 484 726 689ZM689 44V-40C875 -95 932 32 932 201C932 350 866 418 760 418C691 418 636 383 594 315V427H515V-35H594V237C654 314 702 336 755 336C817 336 849 283 849 201C849 72 817 -6 689 44ZM378 668H931V748H378Z" transform="translate(0, 880) scale(1,-1)" /></svg>