<svg xmlns="http://www.w3.org/2000/svg" width="1000" height="1000"><path d="M28 623 100 578C191 645 261 739 302 832L223 860C182 767 111 679 28 623ZM224 609H848V688H224ZM217 723H907V804H217ZM827 419 904 398C924 439 932 461 932 479C932 559 834 589 590 589C419 589 267 566 142 539L158 461C273 486 433 510 590 510C790 510 847 495 847 473C847 461 842 447 827 419ZM249 259 315 214C406 275 491 348 588 459L511 500C424 394 334 316 249 259ZM124 323H894V402H124ZM721 150V-38H801V216L744 239L721 228C476 219 118 182 118 20C118 -55 173 -89 284 -89C452 -89 580 -24 580 110C580 218 528 280 366 280C299 280 247 270 207 258L235 183C266 193 313 202 366 202C445 202 499 178 499 110C499 37 410 -10 284 -10C223 -10 199 0 199 20C199 85 491 141 721 150ZM906 -1H617V-80H906Z" transform="translate(0, 880) scale(1,-1)" /></svg>