<svg xmlns="http://www.w3.org/2000/svg" width="1000" height="1000"><path d="M122 -36 202 -28C152 105 142 201 170 281C203 371 206 442 157 518L79 500C125 418 127 356 98 287C65 210 71 105 122 -36ZM211 592 258 659C221 687 151 731 99 760L54 701C107 669 176 621 211 592ZM228 446 283 394C397 524 552 577 679 577C795 577 862 530 862 436C862 271 677 273 411 316V236C727 193 943 202 943 436C943 595 839 657 679 657C526 657 357 602 228 446ZM553 -69H632V830H553Z" transform="translate(0, 880) scale(1,-1)" /></svg>