<svg xmlns="http://www.w3.org/2000/svg" width="1000" height="1000"><path d="M149 -72C197 -72 229 -50 229 15V808H151V27C151 13 146 5 135 5C111 5 82 12 50 27V-61C81 -68 114 -72 149 -72ZM45 552H289V627H45ZM307 381 266 443 18 257 63 191ZM444 340H832V420H444ZM308 155H968V235H308ZM307 400 360 339C646 448 682 635 682 840H601C601 648 581 502 307 400ZM906 333 970 388C888 463 796 540 715 602L661 547C743 485 833 406 906 333ZM317 695 327 612C544 618 790 640 964 670L940 747C779 717 539 697 317 695ZM602 -79C659 -79 689 -44 689 16V368H611V28C611 10 602 -3 582 -3C549 -3 511 4 462 21V-62C512 -74 554 -79 602 -79Z" transform="translate(0, 880) scale(1,-1)" /></svg>