<svg xmlns="http://www.w3.org/2000/svg" width="1000" height="1000"><path d="M166 822V-66H245V822ZM40 314 108 297C122 368 134 452 145 538L75 544C65 457 52 378 40 314ZM89 438 99 364 310 398 299 472ZM316 797V716H922V797ZM944 -70 960 12C745 -3 582 -2 478 27C415 45 371 82 353 143L277 115C302 28 361 -25 442 -47C554 -76 719 -85 944 -70ZM327 102 378 34C557 114 673 233 773 363L710 411L696 403H604C632 455 668 554 688 698L608 705C591 568 543 442 480 358L545 313L559 324H632C572 249 471 164 327 102ZM322 290 397 267C422 320 443 394 456 459L378 469C368 407 347 338 322 290ZM873 35 929 96C867 148 786 203 716 239L665 180C735 142 809 91 873 35ZM360 534H896V612H360ZM847 265 925 281C915 334 897 413 872 475L798 460C822 398 838 316 847 265Z" transform="translate(0, 880) scale(1,-1)" /></svg>