<svg xmlns="http://www.w3.org/2000/svg" width="1000" height="1000"><path d="M923 797H131V470C131 325 123 122 35 -23L100 -60C193 92 207 317 206 470V718H923ZM572 430 639 397C723 443 818 515 878 578L821 627L803 621H175V549H746C699 505 650 472 572 430ZM228 371 260 307C370 355 487 382 643 382C828 382 867 290 867 194C867 62 794 -3 677 -3C586 -3 502 0 412 17V-57C502 -69 586 -72 677 -72C858 -72 943 44 943 194C943 322 891 453 643 453C471 453 331 420 228 371ZM428 49 501 65C488 156 472 239 445 326L376 308C403 222 419 140 428 49ZM297 155H834V228H297ZM588 -21 659 -28C690 90 713 212 732 326L656 337C641 222 620 100 588 -21Z" transform="translate(0, 880) scale(1,-1)" /></svg>