<svg xmlns="http://www.w3.org/2000/svg" width="1000" height="1000"><path d="M253 -46C332 -46 362 24 362 136C362 314 304 559 224 810L146 786C224 543 282 303 282 136C282 64 271 34 240 34C215 34 188 44 164 61V-28C191 -41 218 -46 253 -46ZM17 -1 91 -37C175 119 215 244 246 413L168 426C137 264 99 145 17 -1ZM42 538H387V617H42ZM647 -62H839C926 -62 948 -8 959 147L885 155C879 38 869 16 821 16H654C611 16 600 29 600 81V570H521V82C521 -34 551 -62 647 -62ZM720 202 774 136C860 207 898 275 898 373C898 449 854 520 740 521C608 522 487 443 388 340L440 277C534 384 643 441 740 441C805 441 820 408 820 373C820 316 792 255 720 202ZM364 487 438 448C498 550 544 694 570 835L492 848C466 707 419 572 364 487ZM483 635H942V715H483Z" transform="translate(0, 880) scale(1,-1)" /></svg>