<svg xmlns="http://www.w3.org/2000/svg" width="1000" height="1000"><path d="M61 600V527H371V600ZM43 211 104 179 116 199 372 287 354 360 155 288 243 535 180 560ZM186 -40C232 -40 268 -19 268 47V800H191V66C191 43 183 30 169 30C144 30 118 36 83 51V-28C119 -37 152 -40 186 -40ZM375 475H939V557H375ZM420 700H893V782H420ZM507 311 577 265 591 279H689C655 223 607 157 552 96L624 58C689 131 770 238 821 313L751 369L735 359H622C669 460 697 580 720 722L640 730C616 580 580 439 507 311ZM902 -75 937 5C761 69 588 117 422 152L381 76C559 37 732 -11 902 -75Z" transform="translate(0, 880) scale(1,-1)" /></svg>