<svg xmlns="http://www.w3.org/2000/svg" width="1000" height="1000"><path d="M142 -58C190 -58 222 -36 222 29V764H144V41C144 27 139 19 128 19C104 19 75 26 43 41V-48C74 -54 107 -58 142 -58ZM39 522H281V597H39ZM299 364 258 426 13 252 56 187ZM952 673 879 709C825 620 766 541 701 464L748 396L767 403H825L623 282L695 228L985 415L931 490L912 481H811C855 532 906 601 952 673ZM643 -72C892 -72 970 19 970 124C970 236 893 294 726 294C619 294 539 282 456 266L472 188C553 202 630 214 726 214C842 214 890 184 890 124C890 59 834 6 643 6C494 6 437 31 437 51C437 66 460 81 542 81C611 81 626 72 626 59C626 41 592 18 513 -2L557 -61C642 -34 715 -1 715 59C715 119 660 155 542 155C420 155 358 108 358 51C358 -14 423 -72 643 -72ZM286 722 317 649C466 681 617 726 761 780L707 845C590 801 426 750 286 722ZM889 619 881 699C585 642 293 558 293 423C293 358 337 312 427 312C561 312 650 383 650 505C650 589 615 668 523 749L453 706C537 626 570 560 570 505C570 426 501 389 425 391C389 392 373 402 373 423C373 505 611 566 889 619Z" transform="translate(0, 880) scale(1,-1)" /></svg>