<svg xmlns="http://www.w3.org/2000/svg" width="1000" height="1000"><path d="M29 597V517H286V597ZM10 194 80 164 90 179 285 266 259 344 124 279 195 528 123 549ZM142 -56C185 -56 220 -35 220 31V791H142V55C142 33 137 21 119 21C103 21 80 26 50 41V-44C81 -53 111 -56 142 -56ZM326 537 358 463 375 471H910V549H451C501 621 560 720 609 817L532 847C488 747 417 627 369 562C360 551 344 541 326 537ZM252 23 318 -26C414 86 485 220 520 339L444 359C407 240 348 125 252 23ZM569 -71C636 -71 674 -43 674 25V621H595V47C595 19 587 7 558 7C523 7 492 13 455 25V-60C493 -67 538 -71 569 -71ZM952 -3 987 74C805 148 625 206 440 248L415 177C599 137 781 72 952 -3ZM281 306H944V384H281ZM286 669H939V747H286Z" transform="translate(0, 880) scale(1,-1)" /></svg>