<svg xmlns="http://www.w3.org/2000/svg" width="1000" height="1000"><path d="M166 -68C214 -68 246 -45 246 19V784H168V32C168 18 163 10 152 10C128 10 99 17 66 32V-57C98 -64 131 -68 166 -68ZM60 534H309V609H60ZM327 370 286 432 33 252 77 186ZM620 684 695 705C679 751 651 805 622 848L549 827C577 785 607 728 620 684ZM844 511 922 482C945 533 956 566 956 599C956 690 869 731 693 731C557 731 403 704 307 675L329 597C420 626 573 649 693 649C832 649 869 625 869 592C869 571 863 550 844 511ZM412 476H713L615 363L679 318L843 504L788 563L771 556H412ZM452 -21 512 -92C743 -6 860 75 860 217C860 321 787 378 656 378C581 378 495 367 436 349L458 266C511 283 588 298 656 298C738 298 780 268 780 217C780 122 666 48 452 -21Z" transform="translate(0, 880) scale(1,-1)" /></svg>