<svg xmlns="http://www.w3.org/2000/svg" width="1000" height="1000"><path d="M141 -50 223 -41C169 101 158 204 191 289C228 385 232 461 177 542L96 523C147 435 149 369 116 295C79 214 85 101 141 -50ZM250 625 293 689C252 719 174 766 116 797L75 741C134 707 211 656 250 625ZM516 -68H917V13H499C425 13 408 27 408 87V228H324V93C324 -42 369 -68 516 -68ZM764 115C874 115 906 216 906 389H326V311H819C821 253 804 190 749 190C698 190 644 196 596 214V129C652 118 714 115 764 115ZM373 538 448 569C433 633 408 696 369 762L298 737C333 672 358 604 373 538ZM285 513H935V591H285ZM588 554 667 581C653 671 630 741 590 833L515 809C554 718 573 645 588 554ZM604 363 688 340C793 503 861 650 914 781L833 806C788 673 711 518 604 363Z" transform="translate(0, 880) scale(1,-1)" /></svg>