<svg xmlns="http://www.w3.org/2000/svg" width="1000" height="1000"><path d="M28 579 100 534C191 610 261 718 302 824L223 850C182 744 111 643 28 579ZM224 570H848V650H224ZM217 700H907V780H217ZM824 348 902 323C923 369 932 395 932 419C932 506 832 540 590 540C418 540 263 514 139 481L159 403C273 434 433 460 590 460C790 460 847 441 847 414C847 398 841 381 824 348ZM376 6 483 -21C572 9 614 72 614 139C614 206 561 244 464 244C382 244 316 211 316 151C316 88 386 58 464 58C477 58 488 59 502 60C484 41 439 16 376 6ZM112 -61H896V17H112ZM464 122C426 122 394 132 394 151C394 169 426 177 464 177C502 177 534 169 534 151C534 132 502 122 464 122ZM151 169 211 121C270 157 315 196 348 236L274 277C249 242 209 205 151 169ZM566 172V334H487V209ZM140 295H868V373H140ZM798 121 865 170C837 204 788 242 725 281L669 234C730 193 772 155 798 121Z" transform="translate(0, 880) scale(1,-1)" /></svg>