<svg xmlns="http://www.w3.org/2000/svg" width="1000" height="1000"><path d="M58 550V471H406V550ZM197 738V284H275V738ZM64 276 88 202 409 286 385 360ZM68 762 74 682C184 686 311 701 400 718L386 796C304 779 179 764 68 762ZM599 293H728V373H611C576 373 556 396 556 451V831H478V447C478 347 527 293 599 293ZM771 185C906 185 936 301 936 521C936 712 859 781 708 781C587 781 473 760 402 732L429 658C499 685 608 702 708 702C815 702 857 636 857 521C857 357 841 263 768 263C719 263 680 271 649 281V197C679 190 720 185 771 185ZM735 418 802 467C761 522 714 576 660 630L597 583C649 528 695 473 735 418ZM58 -38 125 -81C183 -20 235 62 261 141L188 171C165 94 111 14 58 -38ZM524 -73C569 -73 610 -54 665 -7L607 56C577 24 557 15 535 15C511 15 495 42 466 165L385 148C428 -31 472 -73 524 -73ZM877 -77 948 -35C913 25 847 113 789 177L727 129C789 63 845 -20 877 -77Z" transform="translate(0, 880) scale(1,-1)" /></svg>