<svg xmlns="http://www.w3.org/2000/svg" width="1000" height="1000"><path d="M147 -68C194 -68 226 -45 226 19V778H149V32C149 17 144 10 132 10C110 10 81 17 50 32V-57C80 -64 112 -68 147 -68ZM51 530H275V605H51ZM294 367 252 428 24 250 70 185ZM673 181C850 181 948 240 948 385C948 540 779 576 462 530L472 450C714 489 869 465 869 385C869 298 795 261 673 261C586 261 484 268 363 293V209C481 187 583 181 673 181ZM564 -79C623 -79 659 -58 659 16V380H580V33C580 11 572 -1 554 -1C519 -1 474 10 434 24V-62C472 -71 515 -79 564 -79ZM291 530 347 470C466 590 536 703 585 821L504 838C465 742 393 625 291 530ZM580 537 646 499C718 586 775 663 822 736L761 789L743 779H502V699H700C674 659 638 608 580 537Z" transform="translate(0, 880) scale(1,-1)" /></svg>