<svg xmlns="http://www.w3.org/2000/svg" width="1000" height="1000"><path d="M146 -56C194 -56 226 -33 226 31V802H148V44C148 30 143 22 131 22C108 22 78 29 46 44V-45C77 -52 111 -56 146 -56ZM39 551H290V627H39ZM308 386 267 448 12 266 56 200ZM446 631H869V711H446ZM304 467 377 428C444 530 496 674 525 815L447 828C417 687 365 552 304 467ZM774 -53H866C942 -53 964 15 972 209L893 215C889 50 879 27 846 27H777C753 27 745 39 745 74V270C745 384 666 405 581 383V306C641 321 666 297 666 231V73C666 -21 687 -53 774 -53ZM757 640 680 660C610 457 508 229 298 -14L362 -62C574 187 685 435 757 640Z" transform="translate(0, 880) scale(1,-1)" /></svg>