<svg xmlns="http://www.w3.org/2000/svg" width="1000" height="1000"><path d="M309 673 385 701C369 735 337 792 303 831L230 803C261 764 291 714 309 673ZM84 613H916V692H84ZM612 683 680 657C721 706 755 758 780 808L699 834C680 787 650 731 612 683ZM178 -85H257V411H178ZM34 269 93 222C204 315 303 449 361 573L283 604C226 477 133 350 34 269ZM334 -65H953V13H334ZM510 25 593 47C582 116 548 237 513 332L437 314C469 220 501 96 510 25ZM672 1 748 -16C786 78 831 214 857 321L769 337C750 235 710 92 672 1ZM327 324 398 281C467 359 511 466 532 557L455 576C434 485 387 386 327 324ZM458 396H921V474H458Z" transform="translate(0, 880) scale(1,-1)" /></svg>