<svg xmlns="http://www.w3.org/2000/svg" width="1000" height="1000"><path d="M60 606V526H323V606ZM41 197 110 167 121 182 323 271 296 349 155 282 228 537 157 558ZM175 -58C219 -58 254 -37 254 30V804H177V54C177 31 171 19 153 19C136 19 113 25 83 40V-46C114 -55 144 -58 175 -58ZM929 483V563H607V483ZM289 510 354 456C454 569 521 673 593 821L515 847C452 712 379 602 289 510ZM286 235 348 171C495 302 697 562 779 722L716 763L701 755H494V675H659C596 562 434 356 286 235ZM478 398V318H790C784 241 775 219 747 219C692 219 649 227 605 242V156C652 146 697 139 757 139C842 139 860 215 872 391L808 407L795 398ZM530 75V239H451V68C451 -39 492 -61 582 -61H805C901 -61 929 -10 946 146L866 160C857 34 842 19 790 19H590C539 19 530 31 530 75Z" transform="translate(0, 880) scale(1,-1)" /></svg>