<svg xmlns="http://www.w3.org/2000/svg" width="1000" height="1000"><path d="M51 414 84 346C379 430 659 520 917 619L876 678C625 583 339 492 51 414ZM113 391H193V764H113ZM921 350 951 416C672 471 531 536 513 831H427C436 531 601 405 921 350ZM290 647 339 584C499 628 665 682 803 734L749 791C620 742 467 691 290 647ZM456 -79C523 -79 551 -52 551 10V424H472V21C472 4 460 -9 438 -9C399 -9 348 0 301 14V-67C348 -74 402 -79 456 -79ZM57 38 115 -18C198 26 290 93 347 163L274 196C224 135 140 75 57 38ZM62 236H942V310H62ZM882 -21 941 29C893 76 789 147 706 194L650 147C734 98 835 25 882 -21Z" transform="translate(0, 880) scale(1,-1)" /></svg>