<svg xmlns="http://www.w3.org/2000/svg" width="1000" height="1000"><path d="M72 86 559 183 543 253 58 166ZM275 -72C325 -72 360 -51 360 17V825H285V37C285 13 273 0 256 0C227 0 196 4 155 18V-60C197 -69 236 -72 275 -72ZM66 471H551V547H66ZM92 631H525V708H92ZM644 160 687 98C865 200 924 241 924 329C924 403 859 462 695 500C802 564 884 635 961 753L898 794L887 780H569V704H834C763 618 688 558 580 508L588 446C794 404 846 360 846 329C846 289 801 247 644 160ZM906 -99 955 -36C875 30 705 137 576 203L542 140C666 75 829 -31 906 -99ZM86 304H531V380H86Z" transform="translate(0, 880) scale(1,-1)" /></svg>