<svg xmlns="http://www.w3.org/2000/svg" width="1000" height="1000"><path d="M69 64H149C141 177 137 293 153 383C164 442 203 568 270 568C324 568 349 446 338 311C331 232 317 174 289 174C261 174 268 264 298 351C314 394 338 429 374 456L335 529C288 493 242 435 213 350C162 200 193 92 279 92C376 92 404 171 416 308C432 486 399 652 272 652C215 652 176 607 147 534L166 675H83C62 386 62 233 69 64ZM737 -66C896 -66 925 121 925 363C925 605 860 701 718 701C617 701 519 670 461 626L480 552C541 596 632 621 718 621C809 621 845 520 845 363C845 162 822 12 731 12C669 12 620 25 580 49L560 -28C601 -48 650 -66 737 -66ZM343 409 413 364C494 493 547 656 582 818L504 833C470 667 414 512 343 409ZM512 464V384H755V464ZM512 283V203H755V283Z" transform="translate(0, 880) scale(1,-1)" /></svg>