<svg xmlns="http://www.w3.org/2000/svg" width="1000" height="1000"><path d="M485 177 540 118C749 220 897 416 913 718L849 736L832 724H612V645H827C806 426 703 288 485 177ZM277 124C388 124 504 210 504 342C504 470 390 512 165 487L175 409C375 433 424 396 424 342C424 262 341 203 277 203C235 203 218 215 218 240C218 272 279 322 420 401L364 461C208 375 136 298 136 240C136 175 185 124 277 124ZM43 370 111 321C168 375 239 460 291 540L221 577C173 500 99 419 43 370ZM884 123 951 177C873 274 737 405 610 506L556 460C681 356 811 219 884 123ZM246 572H326V850H246ZM63 671H509V748H63ZM507 552 582 518C626 602 662 703 683 834L602 842C583 718 553 632 507 552ZM474 609H98V531H474ZM59 -41 124 -84C183 -39 235 21 260 79L189 114C167 59 112 -1 59 -41ZM524 -76C565 -76 604 -67 661 -30L607 33C577 11 560 5 536 5C512 5 496 24 467 102L387 84C433 -48 477 -76 524 -76ZM879 -82 946 -37C911 7 845 72 787 119L729 69C791 21 847 -41 879 -82Z" transform="translate(0, 880) scale(1,-1)" /></svg>