<svg xmlns="http://www.w3.org/2000/svg" width="1000" height="1000"><path d="M40 601V521H332V601ZM21 200 84 168 96 188 333 278 315 351 132 279 214 532 149 559ZM157 -57C202 -57 238 -36 238 30V804H160V55C160 32 154 20 136 20C116 20 92 26 59 41V-45C93 -54 124 -57 157 -57ZM636 10 718 -28C767 15 819 87 819 146C819 231 761 269 642 269C511 269 450 235 450 160C450 96 495 48 587 48C651 48 682 90 682 129V346H603V164C603 138 593 126 571 126C547 126 529 140 529 160C529 180 553 191 642 191C715 191 739 173 739 146C739 111 708 61 636 10ZM290 -58H945V20H290ZM297 207 370 168C427 265 465 347 516 480L439 503C390 373 349 290 297 207ZM270 551 339 513C404 616 440 714 474 827L395 846C367 736 331 647 270 551ZM427 308H880V386H427ZM503 530 579 554C570 589 551 637 530 676L455 655C474 619 492 574 503 530ZM366 461H920V539H366ZM397 683H913V761H398ZM694 549 767 528C812 619 792 577 828 658L742 680C732 638 715 587 694 549Z" transform="translate(0, 880) scale(1,-1)" /></svg>