<svg xmlns="http://www.w3.org/2000/svg" width="1000" height="1000"><path d="M190 796V-66H269V796ZM49 301 119 282C134 353 147 437 159 523L88 531C77 444 63 365 49 301ZM97 423 109 349 346 386 334 460ZM408 493H863V573H408ZM399 291H871V371H399ZM675 -78V661H596V-78ZM324 89H947V169H324ZM822 567 900 535C926 590 937 626 937 664C937 764 857 807 677 807C548 807 428 776 339 737L370 659C451 697 564 724 677 724C818 724 854 697 854 659C854 635 845 611 822 567Z" transform="translate(0, 880) scale(1,-1)" /></svg>