<svg xmlns="http://www.w3.org/2000/svg" width="1000" height="1000"><path d="M65 601V527H367V601ZM47 202 108 170 120 190 368 281 350 354 157 281 243 535 180 561ZM187 -55C232 -55 268 -34 268 33V807H191V51C191 29 184 16 170 16C145 16 119 22 85 36V-43C120 -52 153 -55 187 -55ZM359 635 402 569C499 614 633 699 724 781L663 835C586 762 456 677 359 635ZM759 474C835 474 863 439 863 389C863 318 824 254 707 200L738 122C874 187 942 249 942 389C942 498 881 554 759 554C536 554 368 398 368 234C368 141 415 92 486 92C568 92 644 162 644 315C644 462 606 579 521 677L465 619C547 515 565 411 565 315C565 224 527 172 486 172C458 172 445 195 445 234C445 355 572 474 759 474ZM687 -81H764V377H687Z" transform="translate(0, 880) scale(1,-1)" /></svg>