<svg xmlns="http://www.w3.org/2000/svg" width="1000" height="1000"><path d="M53 608V528H329V608ZM34 212 103 180 114 195 330 282 304 359 151 293 228 539 157 561ZM175 -38C220 -38 255 -17 255 49V799H177V73C177 51 172 38 153 38C135 38 111 44 79 59V-26C112 -35 143 -38 175 -38ZM808 31V816H729V48C729 29 718 14 699 14C663 14 612 24 559 39V-51C615 -60 674 -66 722 -64C769 -62 808 -47 808 31ZM354 553H956V633H354ZM617 188 682 233C637 301 571 387 503 460L441 415C508 341 574 251 617 188Z" transform="translate(0, 880) scale(1,-1)" /></svg>