<svg xmlns="http://www.w3.org/2000/svg" width="1000" height="1000"><path d="M36 602V522H314V602ZM17 201 86 170 97 185 314 273 289 350 134 284 212 533 141 555ZM159 -51C203 -51 239 -30 239 36V796H161V60C161 38 156 26 137 26C119 26 95 31 63 46V-39C96 -48 127 -51 159 -51ZM854 531 928 503C950 556 958 589 958 617C958 711 878 735 691 735C541 735 397 702 308 659L335 584C429 629 561 655 691 655C842 655 878 638 878 611C878 592 873 571 854 531ZM637 126 686 68C770 130 865 212 946 300L880 352C806 269 712 184 637 126ZM633 310 683 256C749 309 817 370 890 447L822 500C759 427 692 360 633 310ZM474 -55H823C908 -55 936 -15 945 149L865 159C861 44 849 25 804 25H493C447 25 414 33 414 68C414 106 428 136 692 435L631 495L613 482H511C562 572 622 694 674 817L599 843C541 707 450 521 385 437L449 386L466 402H557C344 155 334 120 334 61C334 -5 376 -55 474 -55Z" transform="translate(0, 880) scale(1,-1)" /></svg>