<svg xmlns="http://www.w3.org/2000/svg" width="1000" height="1000"><path d="M308 727 385 755C370 780 340 825 308 854L234 826C264 795 291 758 308 727ZM79 681H921V760H79ZM612 741 683 714C721 752 752 792 776 830L696 856C677 821 649 778 612 741ZM87 611V533H913V611ZM328 431 410 457C387 526 339 636 296 712L219 684C261 610 307 501 328 431ZM578 455 651 430C690 494 742 599 780 684L699 712C670 630 618 523 578 455ZM199 473V395H801V473ZM157 299 183 233C286 271 406 293 579 293C743 293 795 274 795 243C795 189 608 181 303 203V125C659 104 876 112 876 243C876 312 812 371 579 371C379 371 243 342 157 299ZM85 -15 129 -88C500 -21 548 97 547 243H467C467 106 443 48 85 -15ZM860 -92 917 -25C812 23 695 69 595 103L547 37C651 0 768 -48 860 -92ZM213 125V346H133V125Z" transform="translate(0, 880) scale(1,-1)" /></svg>