<svg xmlns="http://www.w3.org/2000/svg" width="1000" height="1000"><path d="M120 84 191 54C234 132 290 250 324 328L251 366L243 352H209C243 462 257 568 267 783L190 786C182 569 164 460 112 318L167 272L180 283H214C190 223 156 147 120 84ZM373 114 344 188 54 69 81 -5ZM11 390 85 367C113 435 131 537 143 624L68 635C58 551 40 452 11 390ZM266 386 336 370C359 434 384 533 404 616L327 633C313 550 287 449 266 386ZM640 -75C694 -75 720 -51 720 18V734H641V30C641 8 636 1 612 1C585 1 554 9 516 22V-62C551 -69 592 -75 640 -75ZM498 407 573 431C562 488 535 578 507 646L430 627C458 556 487 465 498 407ZM971 264 984 347C835 376 637 377 374 346V270C633 298 832 291 971 264ZM417 761 429 680C589 686 785 717 916 756L890 829C779 796 580 770 417 761ZM777 429 847 409C873 468 907 563 933 642L849 664C832 592 802 491 777 429Z" transform="translate(0, 880) scale(1,-1)" /></svg>