<svg xmlns="http://www.w3.org/2000/svg" width="1000" height="1000"><path d="M51 143 328 274 299 342 22 220ZM145 -39C191 -39 229 -18 229 49V695H149V74C149 51 143 38 123 38C104 38 82 41 57 55V-28C88 -36 117 -39 145 -39ZM40 423H316V502H40ZM44 722 48 640C135 645 250 663 322 684L307 763C240 742 131 724 44 722ZM432 689 471 624C540 680 608 708 695 708C767 708 788 671 788 619C788 561 768 501 725 438L788 400C838 475 867 541 867 619C867 739 809 789 695 789C592 789 512 750 432 689ZM309 -38H973V42H309ZM648 32 719 0C803 88 887 193 887 316C887 432 801 472 638 447V369C760 380 807 373 807 316C807 219 735 123 648 32ZM492 6V782H413V6Z" transform="translate(0, 880) scale(1,-1)" /></svg>