<svg xmlns="http://www.w3.org/2000/svg" width="1000" height="1000"><path d="M167 -63C280 -63 324 94 324 248C324 494 248 568 65 535V457C213 480 245 437 245 240C245 144 212 17 167 17C140 17 128 41 128 79C128 171 201 300 354 383L317 452C150 360 48 208 48 79C48 -15 100 -63 167 -63ZM270 608 316 675C243 721 182 755 115 782L78 716C146 688 203 655 270 608ZM578 -66H913V15H562C489 15 472 29 472 89V230H389V95C389 -40 433 -66 578 -66ZM778 117C881 117 908 218 908 391H390V313H823C825 255 811 192 764 192C719 192 671 198 629 216V131C679 120 733 117 778 117ZM428 541 502 571C489 635 466 698 432 764L362 740C392 675 414 607 428 541ZM354 515H929V593H354ZM619 556 697 582C685 672 665 742 629 834L555 811C590 720 606 647 619 556ZM636 365 717 343C810 506 870 653 917 784L838 808C798 675 729 520 636 365Z" transform="translate(0, 880) scale(1,-1)" /></svg>