<svg xmlns="http://www.w3.org/2000/svg" width="1000" height="1000"><path d="M76 -38 155 -30C105 105 95 202 122 283C154 374 157 446 110 523L34 505C80 421 82 359 53 289C21 211 26 105 76 -38ZM141 602 189 665C156 694 99 738 54 768L9 712C52 679 111 631 141 602ZM893 291 955 330C937 381 899 458 863 515L803 480C836 425 873 346 893 291ZM840 569V833H763V569ZM638 676H968V748H638ZM950 604H654V533H950ZM832 545 765 571C737 502 708 444 678 397C673 388 666 381 657 378L667 308L678 316L913 346L905 412L750 389C779 435 806 484 832 545ZM877 95 906 32C956 49 980 108 980 163C980 238 936 288 845 288C768 288 689 264 634 234L652 161C704 190 779 213 845 213C885 213 901 191 901 163C901 135 891 107 877 95ZM728 153V80H866V153ZM658 13V-62H945V13ZM379 425C429 426 455 452 455 517V797H378V536C378 512 371 501 356 501C341 501 316 508 288 521V436C316 427 346 424 379 425ZM190 525H627V603H190ZM203 631H615V709H203ZM204 803 213 727C328 723 487 733 599 765L571 838C481 813 325 801 204 803ZM609 369V448C488 415 354 408 274 426C236 434 226 454 223 506L145 498C146 416 193 364 258 349C339 329 485 336 609 369ZM571 497V344H649V497ZM190 -86 631 -36 626 43 184 -7ZM195 250H623V328H195ZM389 108 405 37C533 46 600 69 600 143C600 211 543 238 440 238C350 238 292 224 228 205L241 128C301 146 359 161 440 161C492 161 521 154 521 143C521 129 489 116 389 108ZM386 4 461 35C451 68 433 104 417 131L344 101C360 77 376 36 386 4Z" transform="translate(0, 880) scale(1,-1)" /></svg>