<svg xmlns="http://www.w3.org/2000/svg" width="1000" height="1000"><path d="M309 678 385 706C369 738 338 793 304 829L231 801C262 764 291 717 309 678ZM84 621H916V700H84ZM612 689 681 663C721 709 754 759 779 806L698 832C679 788 650 734 612 689ZM353 74H612C685 74 720 109 720 164C720 208 701 251 666 297L589 265C622 223 632 195 632 175C632 162 622 153 601 153H354C321 153 308 164 308 189C308 244 330 295 402 393L330 431C250 328 220 257 220 170C220 109 263 74 353 74ZM797 148 875 127C889 167 904 217 904 298C904 392 849 433 724 433C622 433 543 421 468 391L490 314C560 342 645 355 724 355C794 355 824 335 824 290C824 233 812 185 797 148ZM138 523 153 448C437 467 693 496 868 528L822 601C674 571 411 541 138 523ZM907 -64 930 16C640 -1 418 2 278 34C193 52 135 101 109 175L31 149C63 45 147 -21 253 -43C399 -75 611 -80 907 -64Z" transform="translate(0, 880) scale(1,-1)" /></svg>