<svg xmlns="http://www.w3.org/2000/svg" width="1000" height="1000"><path d="M56 137 328 269 298 338 28 215ZM148 -46C193 -46 231 -25 231 42V694H151V68C151 44 146 31 126 31C107 31 85 34 61 48V-34C92 -43 120 -46 148 -46ZM46 420H316V499H46ZM48 721 52 638C138 644 252 662 323 682L308 761C242 741 134 723 48 721ZM430 699 451 627C541 670 636 694 723 694C821 694 865 665 865 629C865 572 827 518 528 546V467C912 437 946 526 946 629C946 733 864 774 723 774C611 774 518 747 430 699ZM949 -77 977 -2C848 24 729 45 613 63C705 89 794 117 878 145L848 228L822 219C687 239 587 251 473 263L437 190C537 181 625 172 703 161C626 137 557 119 454 94C430 88 399 92 357 95L322 21C536 -4 743 -37 949 -77ZM620 381H699V614H620ZM293 523 365 481C444 571 511 696 548 831L469 846C435 722 369 601 293 523ZM848 413H380V334L729 335C672 305 607 274 528 239L587 185C694 230 810 290 921 358L872 426Z" transform="translate(0, 880) scale(1,-1)" /></svg>