<svg xmlns="http://www.w3.org/2000/svg" width="1000" height="1000"><path d="M83 54 144 8C241 92 313 244 313 365C313 450 263 487 201 487C139 487 88 444 88 365C88 285 146 242 211 246C194 190 154 113 83 54ZM201 316C175 316 156 332 156 365C156 397 176 416 201 416C224 416 246 397 246 365C246 332 224 316 201 316ZM287 391V701H209V456ZM74 726V647H333V726ZM51 55 75 -21 342 68 317 145ZM420 493H858V573H420ZM412 291H866V371H412ZM679 -78V661H600V-78ZM339 89H939V169H339ZM815 568 892 535C919 591 930 627 930 665C930 764 853 807 679 807C555 807 440 776 354 738L385 660C462 698 571 724 679 724C813 724 847 697 847 660C847 635 838 612 815 568Z" transform="translate(0, 880) scale(1,-1)" /></svg>