<svg xmlns="http://www.w3.org/2000/svg" width="1000" height="1000"><path d="M155 5C265 5 321 151 321 289C321 396 271 504 159 552L130 479C214 437 244 364 244 289C244 189 211 84 155 84C131 84 117 99 117 139C117 224 183 316 325 428L281 492C134 385 39 260 39 139C39 40 85 5 155 5ZM156 526 217 495C265 561 316 653 343 719L280 757L267 747H65V670H234C213 622 184 568 156 526ZM593 538 652 486C741 561 838 669 895 757L833 804L820 799H408V719H766C727 668 667 602 593 538ZM610 317 568 259C710 184 833 97 921 11L977 88C883 159 761 239 610 317ZM666 355 702 288C784 325 844 356 914 411L862 478C799 425 747 392 666 355ZM615 603 543 563C622 437 669 320 669 191C669 112 656 11 600 11C567 11 535 17 504 34V-52C534 -62 570 -67 610 -67C726 -67 748 65 748 191C748 325 695 471 615 603ZM400 455 360 387 542 295 582 363ZM307 90 351 26 603 180 558 244Z" transform="translate(0, 880) scale(1,-1)" /></svg>