<svg xmlns="http://www.w3.org/2000/svg" width="1000" height="1000"><path d="M663 91H739V720H663ZM825 -59H901V820H825ZM498 51H574V760H498ZM94 9H166V633C210 660 252 669 284 669C332 669 372 635 372 401C372 184 329 111 310 111C277 111 245 114 210 125V48C245 43 277 41 312 41C394 41 447 111 447 401C447 679 399 741 284 741C245 741 205 727 166 699V737H94ZM137 224 201 184C272 299 356 471 384 554L316 586C287 502 220 333 137 224ZM300 269 354 321C310 381 249 446 206 488L159 442C208 394 261 322 300 269Z" transform="translate(0, 880) scale(1,-1)" /></svg>