<svg xmlns="http://www.w3.org/2000/svg" width="1000" height="1000"><path d="M533 739H226V470C226 325 218 122 130 -23L199 -60C292 92 305 317 305 470V660H943V739H622L571 845L492 827ZM245 299 157 264V592H77V277C77 243 59 224 47 216L77 143L273 226ZM582 -78C653 -78 673 -46 673 15V397H594V28C594 7 585 -1 572 -1C544 -2 500 8 459 23V-65C502 -74 539 -78 582 -78ZM283 71 354 36C419 101 461 211 485 298L403 313C385 234 345 134 283 71ZM289 358 362 321C428 399 478 512 507 621L428 633C399 527 348 423 289 358ZM893 31 973 53C949 123 894 235 831 318L755 296C817 211 870 101 893 31ZM414 459H914V538H414Z" transform="translate(0, 880) scale(1,-1)" /></svg>