<svg xmlns="http://www.w3.org/2000/svg" width="1000" height="1000"><path d="M21 86 83 41C175 124 243 267 243 390C243 474 194 509 134 509C73 509 25 467 25 390C25 313 81 272 144 273C125 219 88 143 21 86ZM134 343C109 343 91 358 91 390C91 420 110 439 134 439C156 439 177 420 177 390C177 357 156 343 134 343ZM219 415V706H141V479ZM30 731V653H248V731ZM6 95 31 20 257 96 231 171ZM289 -56H954V23H289ZM505 9H645C702 40 724 101 724 155C724 220 691 256 605 256C534 256 487 220 487 167C487 111 528 77 605 77C619 77 631 79 641 85C621 51 579 24 505 9ZM295 498 326 427C407 463 527 498 689 498C835 498 878 471 878 433C878 373 703 360 446 384V301C796 284 959 291 959 433C959 519 899 577 689 577C495 577 377 535 295 498ZM691 200V438H614V221ZM605 135C579 135 558 149 558 167C558 185 579 199 605 199C632 199 653 185 653 167C653 149 632 135 605 135ZM269 743V664H977V743ZM460 562 541 585C524 654 490 760 458 836L379 814C409 740 443 632 460 562ZM695 582 772 560C801 626 839 729 866 814L784 836C762 754 725 650 695 582Z" transform="translate(0, 880) scale(1,-1)" /></svg>