<svg xmlns="http://www.w3.org/2000/svg" width="1000" height="1000"><path d="M137 -18C236 -18 288 127 288 268C288 376 242 485 142 534L113 462C186 419 212 344 212 268C212 167 182 61 137 61C117 61 106 74 106 113C106 196 163 296 291 409L247 472C113 364 30 234 30 113C30 15 71 -18 137 -18ZM138 507 197 477C239 544 284 637 308 703L243 740L231 730H58V652H205C187 604 162 549 138 507ZM749 329 801 394C683 473 549 540 433 589L383 527C502 477 633 406 749 329ZM731 170C886 170 943 307 943 493C943 685 855 757 684 757C549 757 453 728 370 675L397 605C465 652 573 678 680 678C797 678 863 631 863 492C863 364 819 248 726 248C683 248 642 257 600 278V189C641 176 682 170 731 170ZM315 375 378 314C483 397 565 507 604 618L525 641C491 535 417 444 315 375ZM375 226 436 162C583 247 718 414 754 618L677 637C640 448 516 300 375 226ZM293 577 366 531C431 616 470 705 507 813L428 840C393 731 344 642 293 577ZM278 -40 347 -76C393 -26 432 42 449 109L377 137C361 73 319 3 278 -40ZM639 -71C681 -71 715 -53 757 -11L698 38C678 16 667 11 648 11C630 11 618 28 599 130L521 117C553 -40 587 -71 639 -71ZM896 -73 966 -38C940 13 890 90 846 145L783 104C830 47 872 -24 896 -73Z" transform="translate(0, 880) scale(1,-1)" /></svg>