<svg xmlns="http://www.w3.org/2000/svg" width="1000" height="1000"><path d="M121 75 192 45C235 124 291 245 325 324L252 363L244 349H209C244 463 258 571 268 791L191 795C183 572 165 461 113 315L168 269L181 280H216C193 218 158 140 121 75ZM374 107 344 181 55 59 82 -15ZM12 388 86 365C114 435 132 539 144 629L69 640C59 554 41 452 12 388ZM267 384 337 368C360 434 385 536 405 620L328 638C313 553 288 449 267 384ZM563 -59H851C948 -59 967 5 978 179L898 187C893 46 886 21 839 21H579C526 21 516 34 516 84V802H437V81C437 -30 461 -59 563 -59ZM567 182 627 138C719 237 825 367 916 506L837 543C755 410 651 274 567 182ZM553 476 615 436C688 520 764 618 844 740L763 777C694 661 619 556 553 476Z" transform="translate(0, 880) scale(1,-1)" /></svg>