<svg xmlns="http://www.w3.org/2000/svg" width="1000" height="1000"><path d="M56 76H135C126 199 123 375 138 494C147 561 181 626 214 626C253 626 267 535 267 419C267 279 258 178 236 178C226 178 223 190 224 211C224 278 261 402 340 494L282 548C194 456 146 325 146 210C146 133 179 93 235 93C336 93 347 226 347 419C347 586 316 708 222 708C182 708 151 677 132 617L147 723H66C49 431 49 262 56 76ZM738 -64C898 -64 944 -10 944 311C944 489 907 575 784 575C706 575 648 556 584 518L602 442C661 479 725 495 784 495C854 495 865 440 865 311C865 61 834 14 730 14C697 14 655 21 604 38V-46C647 -59 690 -64 738 -64ZM451 174H672C717 174 752 206 752 265C752 319 728 380 706 420L634 389C658 353 672 312 672 286C672 262 658 254 643 254H475C454 254 445 266 445 285C445 329 472 428 558 627L484 655C392 451 364 347 364 267C364 214 388 174 451 174ZM362 710H941V790H362Z" transform="translate(0, 880) scale(1,-1)" /></svg>