<svg xmlns="http://www.w3.org/2000/svg" width="1000" height="1000"><path d="M60 87 126 43C223 123 297 257 297 371C297 452 245 488 184 488C120 488 70 447 70 371C70 297 124 255 190 257C169 206 130 139 60 87ZM184 326C158 326 138 341 138 371C138 401 159 419 184 419C207 419 229 401 229 371C229 341 207 326 184 326ZM270 396V671H192V458ZM50 696V618H321V696ZM27 92 51 16 329 98 306 174ZM336 -12 391 -77C606 67 792 331 850 665L785 691L770 680H540V600H755C694 335 529 114 336 -12ZM329 358 397 309C503 443 585 635 628 823L551 838C502 643 423 467 329 358ZM912 -69 981 -23C892 118 805 230 707 332L649 286C739 189 825 74 912 -69Z" transform="translate(0, 880) scale(1,-1)" /></svg>