<svg xmlns="http://www.w3.org/2000/svg" width="1000" height="1000"><path d="M308 724 385 752C370 777 341 820 308 848L235 820C264 790 291 754 308 724ZM84 681H916V760H84ZM612 739 683 713C721 749 752 787 775 824L695 850C677 816 649 774 612 739ZM103 616V537H897V616ZM926 -70 949 12C662 -2 444 -1 305 26C221 42 162 77 137 133L60 99C93 20 169 -29 274 -49C419 -75 634 -84 926 -70ZM99 91 147 20C393 78 542 163 679 258L623 320L608 311H475C506 349 542 414 569 516L487 525C461 417 403 335 335 285L386 224L405 233H493C422 189 277 129 99 91ZM97 218 171 188C206 227 234 282 252 329L174 349C159 304 131 253 97 218ZM852 20 902 89C815 127 704 166 609 193L567 126C662 98 764 61 852 20ZM135 384H869V461H135ZM816 186 894 212C881 250 854 308 822 353L749 330C780 283 805 224 816 186Z" transform="translate(0, 880) scale(1,-1)" /></svg>