<svg xmlns="http://www.w3.org/2000/svg" width="1000" height="1000"><path d="M158 7C278 7 337 149 337 283C337 388 284 492 162 539L134 465C226 424 259 355 259 283C259 186 223 87 158 87C132 87 115 102 115 141C115 224 188 308 342 416L298 480C141 377 36 260 36 141C36 44 85 7 158 7ZM160 513 222 481C275 545 330 633 359 697L299 737L285 728H61V650H244C222 605 190 554 160 513ZM848 157C916 157 949 202 959 373L885 383C879 256 872 237 848 237C711 237 598 525 583 826H503C520 466 659 157 848 157ZM387 -28H895V52H387ZM359 255 403 176C551 223 768 310 886 515L819 557C708 368 498 288 359 255ZM368 536 917 633 903 713 353 620Z" transform="translate(0, 880) scale(1,-1)" /></svg>