<svg xmlns="http://www.w3.org/2000/svg" width="1000" height="1000"><path d="M88 55 152 8C250 92 325 248 325 368C325 453 275 492 211 492C149 492 97 449 97 368C97 287 152 243 219 249C203 193 161 115 88 55ZM211 318C185 318 165 335 165 368C165 401 186 421 211 421C235 421 257 401 257 368C257 335 235 318 211 318ZM298 395V712H220V460ZM72 738V659H352V738ZM50 52 74 -25 361 71 337 148ZM501 300V214C559 205 616 202 674 202C782 202 899 254 899 396C899 513 806 570 666 570C528 570 437 533 364 487L403 415C470 457 547 490 666 490C780 490 820 446 820 396C820 308 748 283 669 283C614 283 557 288 501 300ZM320 -3 369 -69C562 3 675 96 675 426H596C596 129 486 51 320 -3ZM893 -75 943 -8C873 45 798 97 721 149L669 90C745 39 820 -16 893 -75ZM464 595 532 639C512 683 469 750 425 798L361 758C403 710 445 642 464 595ZM596 532H675V826H596ZM730 635 795 595C833 638 881 707 916 765L844 803C817 749 768 680 730 635Z" transform="translate(0, 880) scale(1,-1)" /></svg>