<svg xmlns="http://www.w3.org/2000/svg" width="1000" height="1000"><path d="M648 298C741 298 752 259 752 164C752 40 734 -4 702 -5C664 -6 632 0 595 19V-61C632 -72 667 -75 705 -74C793 -71 827 -3 827 168C827 338 769 375 648 375C496 375 348 203 348 84C348 4 387 -14 439 -14C507 -14 554 76 554 245C554 399 488 446 367 446C197 446 49 246 49 74C49 -12 90 -50 148 -50C306 -50 432 339 437 739H354C349 387 255 42 156 42C137 42 126 55 126 79C126 196 239 362 367 362C462 362 477 317 477 245C477 135 466 82 441 82C429 82 422 90 422 93C422 166 526 298 648 298ZM551 70 619 38C655 91 693 172 716 253L646 266C623 192 588 120 551 70ZM907 44 981 70C967 127 937 217 905 284L835 263C865 194 893 103 907 44ZM198 445 261 486C237 535 188 606 142 659L82 621C127 568 175 495 198 445ZM512 482 572 445C613 491 667 565 706 627L638 665C608 606 554 531 512 482ZM62 770 75 694C300 700 565 723 747 753L719 824C555 796 289 773 62 770Z" transform="translate(0, 880) scale(1,-1)" /></svg>