<svg xmlns="http://www.w3.org/2000/svg" width="1000" height="1000"><path d="M36 73H113C107 181 105 292 118 377C126 433 154 552 206 552C242 552 259 438 250 309C246 234 237 180 220 180C207 180 204 251 228 344C241 386 257 421 282 448L237 519C203 484 168 429 147 348C105 189 139 99 214 99C291 99 316 163 326 306C339 494 316 635 207 635C167 635 152 610 138 583C154 638 176 703 204 756L128 786C87 698 48 555 38 409C30 296 32 187 36 73ZM319 634H962V714H698L652 839L575 821L613 714H319ZM655 491C558 491 467 466 380 425L410 346C494 391 574 411 655 411C732 411 753 382 753 334C753 194 564 24 472 24C432 24 407 55 407 115C407 165 431 205 494 205C594 205 728 44 920 -77L974 -15C784 100 637 283 494 283C393 283 326 222 326 115C326 16 378 -56 472 -56C607 -56 833 149 833 334C833 443 785 491 655 491ZM338 386 407 332C494 427 573 545 639 665L564 697C502 577 423 471 338 386ZM915 374 981 422C933 495 880 558 824 613L758 570C816 513 868 448 915 374Z" transform="translate(0, 880) scale(1,-1)" /></svg>