<svg xmlns="http://www.w3.org/2000/svg" width="1000" height="1000"><path d="M43 216 112 180 124 200 352 279 333 358 168 303 226 459 157 482ZM243 503V87C243 64 236 51 217 51C191 51 162 57 124 72V-13C165 -22 200 -25 235 -25C284 -25 323 -4 323 62V583H68V503ZM241 607 301 662C262 706 217 747 167 787L110 734C160 693 204 650 241 607ZM363 477H932V559H363ZM409 702H885V784H409ZM497 313 566 267 581 281H680C646 225 598 159 541 98L614 60C680 133 761 240 812 315L743 371L727 361H612C660 462 688 582 710 724L630 732C606 582 570 441 497 313ZM895 -73 929 7C752 71 578 119 410 154L369 78C549 39 723 -9 895 -73Z" transform="translate(0, 880) scale(1,-1)" /></svg>