<svg xmlns="http://www.w3.org/2000/svg" width="1000" height="1000"><path d="M217 -62C268 -62 296 -40 296 29V815H217V32C217 18 212 10 200 10C174 10 145 17 109 32V-51C145 -59 179 -62 217 -62ZM45 557 84 486C213 543 334 612 431 681L384 742C289 673 173 610 45 557ZM50 203 112 168 127 187 430 284 412 359 171 279 271 527 211 555ZM494 445 572 418C632 540 683 680 714 816L632 833C603 701 555 562 494 445ZM819 472 896 438C917 484 927 520 927 562C927 657 859 703 712 703C588 703 466 661 387 621L420 542C492 581 605 618 712 618C815 618 844 590 844 557C844 530 836 507 819 472ZM469 460V380H755V258H504V306H425V83C425 -35 461 -60 562 -60H803C900 -60 932 -2 947 171L868 185C859 35 842 20 784 20H568C516 20 504 33 504 83V178H833V460Z" transform="translate(0, 880) scale(1,-1)" /></svg>