<svg xmlns="http://www.w3.org/2000/svg" width="1000" height="1000"><path d="M114 -36 194 -28C144 106 134 203 163 284C196 375 199 447 149 523L72 505C118 422 120 360 91 290C58 212 63 106 114 -36ZM201 600 248 666C211 694 143 739 92 768L47 709C98 677 166 629 201 600ZM618 10 700 -28C753 15 809 87 809 146C809 231 748 269 623 269C484 269 419 235 419 160C419 96 467 48 564 48C629 48 663 90 663 129V346H583V164C583 138 571 126 547 126C520 126 499 140 499 160C499 180 526 191 623 191C700 191 729 173 729 146C729 111 696 61 618 10ZM246 -58H947V20H246ZM256 207 329 168C390 265 430 347 485 480L408 503C355 373 312 290 256 207ZM227 551 296 513C365 616 404 714 440 827L360 846C330 736 292 647 227 551ZM392 308H877V386H392ZM476 530 553 554C543 589 522 637 500 676L425 655C446 619 465 574 476 530ZM327 461H920V539H327ZM360 683H913V761H361ZM681 549 753 528C801 619 780 577 819 658L732 680C721 638 703 587 681 549Z" transform="translate(0, 880) scale(1,-1)" /></svg>