<svg xmlns="http://www.w3.org/2000/svg" width="1000" height="1000"><path d="M571 496V416C881 381 915 497 915 595C915 699 854 766 738 766C656 766 599 734 540 667C558 720 573 775 585 837L504 849C477 711 426 578 366 490L438 446C470 500 490 538 507 576C579 652 666 686 734 686C801 686 834 641 834 595C834 524 803 459 571 496ZM441 3 470 -79C705 -55 928 24 928 206C928 293 872 369 700 369C540 369 418 314 418 199C418 123 478 78 567 78C636 78 714 113 714 210V592H634V221C634 174 607 154 567 154C523 154 500 175 500 199C500 248 564 288 700 288C814 288 843 244 843 207C843 77 645 19 441 3ZM184 -54C310 -54 370 111 370 257C370 374 314 491 187 544L156 471C255 423 291 340 291 257C291 151 254 26 184 26C156 26 135 44 135 93C135 193 215 290 378 416L331 479C166 360 56 225 56 93C56 -17 108 -54 184 -54ZM185 517 250 484C306 557 366 661 396 735L335 771L320 761H79V683H286C259 628 220 565 185 517Z" transform="translate(0, 880) scale(1,-1)" /></svg>