<svg xmlns="http://www.w3.org/2000/svg" width="1000" height="1000"><path d="M532 750H206V470C206 325 198 122 110 -23L178 -60C271 92 284 317 284 470V672H943V750H621L575 845L496 827ZM225 291 147 261V592H69V274C69 240 51 221 39 213L67 141L252 219ZM280 575V497H942V575ZM465 406 546 429C528 493 490 594 455 665L378 641C411 573 448 471 465 406ZM667 427 741 407C772 466 814 563 844 642L763 665C741 589 699 491 667 427ZM370 447V370H853V447ZM313 290 334 218C421 250 522 275 666 275C783 275 833 255 833 232C833 186 697 177 453 198V120C739 101 913 103 913 232C913 304 853 353 666 353C499 353 396 325 313 290ZM275 -4 315 -77C621 -15 657 97 657 232H578C578 114 555 55 275 -4ZM897 -81 948 -13C864 31 770 74 690 106L647 38C730 4 823 -39 897 -81Z" transform="translate(0, 880) scale(1,-1)" /></svg>