<svg xmlns="http://www.w3.org/2000/svg" width="1000" height="1000"><path d="M532 752H202V470C202 325 193 122 105 -23L175 -60C268 92 281 317 281 470V673H943V752H621L573 852L494 834ZM221 295 138 262V592H59V276C59 242 41 223 29 215L58 142L249 223ZM268 122 317 52C466 131 652 237 779 321L734 382C607 300 424 195 268 122ZM457 -71H536V638H457ZM915 40 962 112C879 160 789 200 691 233L657 172C750 135 836 91 915 40ZM307 407H939V486H307ZM698 -79C761 -79 787 -58 787 -3L789 638H710L708 22C708 5 703 -1 690 -1C666 -1 633 5 601 14V-68C628 -74 662 -79 698 -79Z" transform="translate(0, 880) scale(1,-1)" /></svg>