<svg xmlns="http://www.w3.org/2000/svg" width="1000" height="1000"><path d="M314 645 388 673C371 713 338 780 302 825L229 797C263 752 295 694 314 645ZM88 577H919V653H88ZM616 651 681 626C724 683 759 745 786 804L705 830C685 774 655 708 616 651ZM456 50 495 -20C768 0 922 53 922 165C922 250 849 314 620 314C534 314 476 308 402 290L706 437L651 498L624 491H128V418H514C438 375 307 305 216 264C189 253 145 237 68 204L114 136C242 197 428 240 620 240C770 240 834 204 834 165C834 116 707 64 456 50ZM472 -80 551 -50C526 14 485 88 443 137L369 108C409 62 449 -16 472 -80Z" transform="translate(0, 880) scale(1,-1)" /></svg>