<svg xmlns="http://www.w3.org/2000/svg" width="1000" height="1000"><path d="M581 496V416C882 381 916 497 916 595C916 699 856 766 743 766C663 766 608 734 551 667C568 720 583 775 595 837L514 849C487 711 437 578 380 490L452 446C483 500 502 538 519 576C589 652 673 686 739 686C804 686 835 641 835 595C835 524 805 459 581 496ZM454 3 482 -79C711 -55 928 24 928 206C928 293 874 369 705 369C549 369 430 314 430 199C430 123 489 78 576 78C644 78 720 113 720 210V592H640V221C640 174 615 154 576 154C534 154 512 175 512 199C512 248 574 288 705 288C816 288 844 244 844 207C844 77 653 20 454 3ZM190 -63C322 -63 383 109 383 256C383 375 325 495 192 550L160 476C265 427 304 341 304 256C304 148 266 18 190 18C160 18 136 39 136 96C136 202 222 291 393 421L344 484C172 361 56 232 56 96C56 -17 111 -63 190 -63ZM191 522 257 488C316 564 379 671 411 748L350 783L335 773H79V695H300C270 638 228 572 191 522Z" transform="translate(0, 880) scale(1,-1)" /></svg>