<svg xmlns="http://www.w3.org/2000/svg" width="1000" height="1000"><path d="M180 -55C230 -55 257 -32 257 34V813H179V43C179 29 174 21 164 21C141 21 117 28 84 43V-44C117 -51 147 -55 180 -55ZM45 557 86 487C188 543 284 612 361 681L304 737C232 669 143 608 45 557ZM41 201 108 171 119 191 348 287 330 362 155 282 232 528 169 554ZM540 112 610 73C677 170 763 301 812 389L746 440L733 431H604C642 531 674 668 703 817L624 829C589 642 549 490 498 380L567 340L580 352H695C657 280 601 193 540 112ZM902 -85 937 -11C760 66 586 123 418 166L378 96C556 48 730 -10 902 -85ZM382 621H926V701H382ZM353 273 428 247C453 321 474 427 486 518L408 527C398 440 378 341 353 273ZM869 238 948 255C937 329 921 443 897 529L822 515C845 426 861 311 869 238Z" transform="translate(0, 880) scale(1,-1)" /></svg>