<svg xmlns="http://www.w3.org/2000/svg" width="1000" height="1000"><path d="M57 100 122 54C219 137 291 284 291 403C291 487 241 523 179 523C117 523 66 481 66 403C66 325 120 283 185 286C167 232 127 157 57 100ZM179 355C153 355 134 371 134 403C134 434 154 453 179 453C202 453 224 434 224 403C224 371 202 355 179 355ZM265 429V728H187V493ZM52 753V675H311V753ZM29 102 53 26 319 112 295 189ZM273 40 329 -21C491 98 683 256 775 346L722 404L706 396H403V316H633C548 241 420 139 273 40ZM624 -65C667 -65 706 -55 754 -28V57C707 26 673 12 641 12C623 12 616 15 616 46V205H537V28C537 -38 566 -65 624 -65ZM911 -25 969 35C894 97 801 168 719 218L665 166C746 113 837 42 911 -25ZM307 458H918V538H307ZM717 526 760 595C673 639 597 664 501 686L468 615C566 592 639 566 717 526ZM605 637 680 592C745 638 835 710 884 759L833 814L817 808H362V728H729C691 695 651 667 605 637Z" transform="translate(0, 880) scale(1,-1)" /></svg>