<svg xmlns="http://www.w3.org/2000/svg" width="1000" height="1000"><path d="M63 -13H140L141 763H63ZM197 482C267 482 282 537 282 626V787H205V644C205 582 195 561 176 561C145 561 119 570 96 589V502C123 489 162 482 197 482ZM193 352C154 352 121 335 95 314L109 243C135 256 166 271 187 271C217 271 218 238 218 191C218 89 199 8 177 -42L254 -81C278 -22 296 56 296 191C296 300 270 352 193 352ZM666 314H586C586 107 489 30 284 -6L321 -82C538 -39 666 69 666 314ZM313 135H937V213H313ZM921 -87 966 -17C903 32 792 96 693 140L651 78C749 30 862 -39 921 -87ZM303 443 327 365C428 408 572 437 715 437C830 437 856 420 856 396C856 378 850 358 839 337L913 306C925 334 934 363 934 400C934 480 869 516 715 516C536 516 405 490 303 443ZM897 622H353V544H897ZM665 586V843H585V586ZM306 680H945V758H306ZM418 287H832V365H418Z" transform="translate(0, 880) scale(1,-1)" /></svg>