<svg xmlns="http://www.w3.org/2000/svg" width="1000" height="1000"><path d="M892 520 945 589C683 705 464 794 257 851L215 780C421 723 633 638 892 520ZM55 593 86 519C278 566 448 629 542 689L491 753C397 694 249 637 55 593ZM435 -77C508 -77 549 -43 549 24V607H464V41C464 12 457 -6 422 -6C378 -6 340 1 295 19V-62C339 -72 389 -77 435 -77ZM50 13 116 -35C246 61 341 185 379 302L301 320C255 199 182 101 50 13ZM933 -14 964 62C733 126 505 175 272 212L253 142C485 107 717 51 933 -14ZM82 282H918V356H82ZM140 513V439H860V513Z" transform="translate(0, 880) scale(1,-1)" /></svg>