<svg xmlns="http://www.w3.org/2000/svg" width="1000" height="1000"><path d="M42 68 105 22C198 106 264 254 264 381C264 467 222 505 159 505C102 505 48 463 48 383C48 302 100 266 164 270C148 214 110 128 42 68ZM157 333C133 333 114 351 114 384C114 416 134 435 157 435C179 435 200 416 200 384C200 351 179 333 157 333ZM241 410V718H164V474ZM53 743V665H270V743ZM29 73 55 -2 279 78 253 154ZM593 146C675 146 722 207 722 448C722 653 645 771 519 771C434 771 378 738 348 699L369 636C400 664 451 691 519 691C577 691 643 614 643 448C643 271 619 226 593 226C572 226 562 276 562 338C562 553 629 709 748 709C823 709 844 611 844 449C844 156 818 22 762 22C718 22 673 31 629 51V-39C675 -52 717 -57 766 -57C881 -57 923 66 923 449C923 666 887 789 748 789C613 789 483 642 483 338C483 219 517 146 593 146ZM325 787V-39H404V787ZM271 439V359H960V439Z" transform="translate(0, 880) scale(1,-1)" /></svg>