<svg xmlns="http://www.w3.org/2000/svg" width="1000" height="1000"><path d="M125 58 174 12C274 93 358 255 358 355C358 444 314 499 261 499C191 499 135 455 135 373C135 289 194 238 265 256C250 200 200 118 125 58ZM250 317C221 317 196 337 196 373C196 409 222 431 251 431C276 431 299 407 299 378C299 337 276 317 250 317ZM333 400V735H259V467ZM88 761V681H406V761ZM65 42 89 -32 415 96 391 170ZM623 27 697 1C801 113 850 206 850 337C850 483 790 537 665 537C547 537 471 473 471 363C471 273 515 218 595 218C667 218 708 272 708 336V729H630V353C630 320 619 302 594 302C570 302 551 324 551 363C551 409 575 455 665 455C746 455 771 417 771 337C771 238 729 145 623 27ZM410 -35H943V43H410ZM434 698H916V776H434ZM901 158 967 191C943 253 918 313 887 372L824 341C853 282 878 220 901 158Z" transform="translate(0, 880) scale(1,-1)" /></svg>