<svg xmlns="http://www.w3.org/2000/svg" width="1000" height="1000"><path d="M624 174 668 94C835 140 911 186 911 321C911 450 769 516 555 516C266 516 75 399 75 251C75 159 141 101 258 101C482 101 534 263 534 385C534 491 471 584 303 632L273 557C411 517 453 455 453 385C453 281 391 180 258 180C188 180 156 208 156 251C156 339 296 437 555 437C719 437 830 397 830 321C830 241 762 192 624 174ZM306 602 372 552C455 615 548 699 605 764L545 821L529 814H99V735H456C416 690 359 640 306 602ZM889 534 954 590C905 652 834 718 761 777L703 729C782 663 838 601 889 534ZM94 29V-51H906V29Z" transform="translate(0, 880) scale(1,-1)" /></svg>