<svg xmlns="http://www.w3.org/2000/svg" width="1000" height="1000"><path d="M66 599 137 567C191 642 239 747 263 831L187 846C162 760 116 663 66 599ZM176 684H904L903 758H176ZM279 635V565H721V635ZM363 321 429 370C384 417 316 477 253 524L192 475C258 427 319 368 363 321ZM540 363 597 311C730 370 770 408 770 456C770 502 734 543 637 543C520 543 395 510 287 457L333 405C430 450 539 472 628 472C663 472 680 461 680 449C680 428 648 403 540 363ZM201 -79C335 -79 436 -3 436 148C436 235 390 325 250 325C186 325 124 308 86 288L111 224C146 242 201 256 252 256C328 256 357 205 357 136C357 43 292 -12 203 -12C175 -12 156 0 156 15C156 120 444 272 674 272C783 272 827 241 827 179C827 79 791 -11 670 -11C621 -11 563 0 490 20V-56C562 -73 619 -80 676 -80C851 -80 908 46 908 179C908 277 843 347 682 347C410 347 80 169 80 13C80 -49 138 -79 201 -79ZM734 32 748 92C672 111 595 125 517 134L505 74C584 63 658 50 734 32ZM744 136 758 198C684 214 609 226 535 234L523 174C598 165 670 152 744 136Z" transform="translate(0, 880) scale(1,-1)" /></svg>