<svg xmlns="http://www.w3.org/2000/svg" width="1000" height="1000"><path d="M354 557V483C829 452 875 551 875 636C875 726 783 782 624 782C482 782 396 757 305 704C333 748 356 792 374 840L290 853C246 736 165 627 70 553L136 507C188 552 222 589 248 621C365 686 505 710 616 710C729 710 786 676 786 636C786 581 732 527 354 557ZM368 396 450 369C513 448 544 524 564 618L484 629C464 541 434 470 368 396ZM523 13H627C733 55 771 103 771 159C771 241 677 288 501 288C307 288 209 241 209 175C209 108 277 66 399 66C490 66 550 105 550 152V339H470V168C470 143 442 132 396 132C339 132 292 147 292 170C292 193 348 220 501 220C638 220 690 196 690 159C690 118 660 63 523 13ZM53 -59H950V13H53ZM102 339H896V412H102Z" transform="translate(0, 880) scale(1,-1)" /></svg>