<svg xmlns="http://www.w3.org/2000/svg" width="1000" height="1000"><path d="M51 75H130C121 196 118 370 133 486C141 549 171 613 202 613C236 613 246 524 246 411C246 274 240 176 222 176C213 176 211 188 211 206C211 271 246 394 322 486L262 538C178 447 134 318 134 206C134 129 166 91 221 91C316 91 326 218 326 411C326 576 297 695 209 695C172 695 144 665 127 607L141 710H61C44 423 44 257 51 75ZM332 250H929V330H332ZM417 434H845V514H417ZM282 -10 341 -67C429 -6 520 77 578 165L499 202C453 125 364 43 282 -10ZM907 -64 976 -14C924 51 831 139 754 207L691 161C766 91 857 2 907 -64ZM630 676 705 697C689 747 659 807 628 853L556 831C585 786 617 723 630 676ZM842 487 921 457C945 510 956 545 956 582C956 677 870 721 700 721C569 721 415 693 324 660L348 583C435 614 585 638 700 638C833 638 869 612 869 576C869 553 863 530 842 487Z" transform="translate(0, 880) scale(1,-1)" /></svg>