<svg xmlns="http://www.w3.org/2000/svg" width="1000" height="1000"><path d="M532 760H186V470C186 325 177 122 89 -23L158 -60C251 92 264 317 264 470V682H943V760H621L575 855L496 837ZM205 291 127 261V592H49V274C49 240 31 221 19 213L47 141L232 219ZM507 273 581 223C661 256 741 322 741 408C741 466 696 503 593 503C487 503 449 467 449 412C449 351 508 318 631 318C823 318 928 369 928 477C928 555 876 625 671 625C477 625 357 585 265 541L303 467C392 507 523 545 671 545C813 545 844 509 844 477C844 424 773 392 631 392C557 392 529 402 529 412C529 424 549 433 593 433C634 433 661 425 661 408C661 359 599 310 507 273ZM786 112 809 33C912 49 964 97 964 167C964 249 873 291 688 291C522 291 358 267 241 238L260 161C375 189 540 212 688 212C822 212 879 192 879 166C879 134 845 119 786 112ZM426 159V80H731V159ZM272 20V-59H906V20Z" transform="translate(0, 880) scale(1,-1)" /></svg>