<svg xmlns="http://www.w3.org/2000/svg" width="1000" height="1000"><path d="M533 745H214V470C214 325 206 122 117 -23L187 -60C280 92 293 317 293 470V666H943V745H622L571 850L492 832ZM234 299 146 264V592H67V277C67 243 49 224 37 216L66 143L262 225ZM313 -2 361 -71C566 52 760 182 939 327L886 385C712 245 513 113 313 -2ZM357 -11H435V535H357ZM918 -67 958 2C765 82 669 202 656 632H576C582 193 696 14 918 -67ZM481 340 536 275C647 338 763 417 858 493L800 550C711 479 604 404 481 340Z" transform="translate(0, 880) scale(1,-1)" /></svg>