<svg xmlns="http://www.w3.org/2000/svg" width="1000" height="1000"><path d="M311 705 388 733C373 759 343 804 311 833L237 805C267 774 294 737 311 705ZM88 660H919V738H88ZM615 719 686 693C724 731 755 770 779 809L699 835C680 800 652 756 615 719ZM176 -73C224 -73 255 -51 255 14V621H178V22C178 8 173 0 161 0C137 0 108 8 75 22V-62C107 -69 140 -73 176 -73ZM66 412H323V487H66ZM339 279 302 343 42 197 82 130ZM315 537 352 466C441 516 533 546 671 546C801 546 839 522 839 476C839 412 788 384 461 411V332C805 308 921 341 921 476C921 567 865 625 671 625C511 625 404 588 315 537ZM298 65H926V144H298ZM544 -76C619 -76 661 -39 661 40V479H582L581 56C581 18 569 -1 536 -1C505 -1 469 6 433 19V-64C465 -72 500 -76 544 -76ZM324 189H899V268H324Z" transform="translate(0, 880) scale(1,-1)" /></svg>