<svg xmlns="http://www.w3.org/2000/svg" width="1000" height="1000"><path d="M532 741H223V470C223 325 215 122 127 -23L196 -60C289 92 302 317 302 470V662H943V741H621L572 845L493 827ZM243 298 155 263V592H76V277C76 243 58 224 46 216L75 142L270 225ZM322 494H916V573H322ZM388 115 464 142C446 211 413 317 381 399L310 374C340 293 373 184 388 115ZM652 141 728 165C715 235 690 340 664 422L592 400C615 319 641 212 652 141ZM682 25 751 -3C823 121 881 270 919 403L839 428C807 293 753 148 682 25ZM485 7H564V531H485ZM933 42H302V-37H933Z" transform="translate(0, 880) scale(1,-1)" /></svg>