<svg xmlns="http://www.w3.org/2000/svg" width="1000" height="1000"><path d="M57 100 122 56C219 138 290 279 290 398C290 483 246 523 184 523C122 523 66 481 66 403C66 323 119 285 185 290C167 236 127 157 57 100ZM180 354C154 354 134 371 134 404C134 435 155 454 180 454C203 454 225 435 225 405C225 371 203 354 180 354ZM265 429V728H187V493ZM52 753V675H311V753ZM29 102 53 26 319 112 295 189ZM273 40 329 -21C491 98 683 256 775 346L722 404L706 396H403V316H633C548 241 420 139 273 40ZM624 -65C667 -65 706 -55 754 -28V57C707 26 673 12 641 12C623 12 616 15 616 46V205H537V28C537 -38 566 -65 624 -65ZM911 -25 969 35C894 97 801 168 719 218L665 166C746 113 837 42 911 -25ZM307 458H918V538H307ZM717 526 760 595C673 639 597 664 501 686L468 615C566 592 639 566 717 526ZM605 637 680 592C745 638 835 710 884 759L833 814L817 808H362V728H729C691 695 651 667 605 637Z" transform="translate(0, 880) scale(1,-1)" /></svg>