<svg xmlns="http://www.w3.org/2000/svg" width="1000" height="1000"><path d="M243 692 170 702C135 478 75 275 16 123L85 89C143 247 206 470 243 692ZM212 75C200 75 193 87 193 114C193 154 217 245 287 346L235 384C158 283 117 181 117 113C117 42 157 0 212 0C292 0 324 71 324 227C324 384 283 448 217 448C178 448 149 430 128 395L141 324C165 355 192 371 216 371C237 371 249 320 249 227C249 108 230 75 212 75ZM43 668H338V745H43ZM294 716V638H964V716ZM482 516 563 540C544 620 505 747 470 835L394 810C428 724 466 597 482 516ZM687 538 759 516C791 590 833 711 864 811L784 835C761 740 719 617 687 538ZM385 556V478H873V556ZM328 359 349 287C437 327 539 360 685 360C804 360 854 334 854 295C854 227 716 218 469 243V165C758 141 934 144 934 295C934 375 873 438 685 438C516 438 412 402 328 359ZM290 -9 330 -82C638 -4 675 126 675 295H596C596 137 573 64 290 -9ZM919 -87 970 -21C884 34 790 88 709 128L665 63C750 20 844 -35 919 -87Z" transform="translate(0, 880) scale(1,-1)" /></svg>