<svg xmlns="http://www.w3.org/2000/svg" width="1000" height="1000"><path d="M76 -38 155 -30C105 105 95 202 122 283C154 374 157 446 110 523L34 505C80 421 82 359 53 289C21 211 26 105 76 -38ZM141 602 189 665C156 694 99 738 54 768L9 712C52 679 111 631 141 602ZM672 522 749 481C792 586 821 694 844 811L766 823C747 722 715 616 672 522ZM809 533 885 506C908 575 937 680 956 766L886 788L880 776H792V696H858C844 640 826 579 809 533ZM796 59V356H718V55C718 -52 748 -74 823 -74H896C956 -74 975 -23 984 134L907 142C903 28 897 5 870 5H833C803 5 796 15 796 59ZM873 222C953 222 967 268 973 531L907 549L898 539H778V460H893C888 316 883 301 867 301C844 301 821 304 798 314V231C820 225 845 222 873 222ZM404 425C457 426 483 452 483 517V797H405V536C405 512 398 501 380 501C362 501 331 508 297 521V436C331 427 366 424 404 425ZM189 525H682V603H189ZM203 631H667V709H203ZM204 803 214 727C344 723 524 733 649 765L619 838C517 813 340 801 204 803ZM661 369V448C524 415 374 408 283 426C237 435 224 454 220 506L142 498C143 416 192 364 265 349C356 329 521 336 661 369ZM623 497V344H701V497ZM189 -86 686 -36 680 43 181 -7ZM194 250H676V328H194ZM413 108 431 37C575 46 646 69 646 143C646 211 587 238 470 238C369 238 303 224 231 205L247 128C314 146 379 161 470 161C534 161 566 154 566 143C566 129 531 116 413 108ZM414 4 489 35C478 68 457 104 439 131L366 101C384 77 403 36 414 4Z" transform="translate(0, 880) scale(1,-1)" /></svg>