<svg xmlns="http://www.w3.org/2000/svg" width="1000" height="1000"><path d="M149 635 169 566C210 595 244 609 293 609C348 609 365 549 365 479C365 398 334 347 264 335V254C393 267 443 356 443 479C443 610 400 688 295 688C231 688 186 666 149 635ZM224 75H302V473H224ZM69 33 102 -41 438 119 404 193ZM46 336 121 297C167 438 202 619 220 802L142 811C123 630 86 451 46 336ZM920 41 961 122C827 213 695 283 560 333L526 260C660 212 795 132 920 41ZM409 51 480 1C556 135 610 309 633 474L554 482C527 312 485 175 409 51ZM630 -57C691 -57 729 -21 729 52V750H651V73C651 40 644 22 621 22C592 22 566 29 533 48V-41C564 -52 599 -57 630 -57ZM440 459H924V539H440ZM471 781 487 699C619 702 775 721 883 753L856 831C747 799 607 782 471 781Z" transform="translate(0, 880) scale(1,-1)" /></svg>