<svg xmlns="http://www.w3.org/2000/svg" width="1000" height="1000"><path d="M235 540H765V618H235ZM308 704 385 732C369 761 339 810 306 843L233 815C263 781 291 739 308 704ZM79 653H921V732H79ZM612 716 682 690C721 732 753 777 777 820L697 846C678 806 649 758 612 716ZM814 304 888 275C910 326 920 356 920 387C920 472 818 516 587 516C417 516 263 486 164 445V500H84V293H164V377C276 413 433 437 587 437C782 437 839 413 839 381C839 362 833 342 814 304ZM558 -78C766 -78 818 22 818 176C818 324 761 395 576 395C458 395 369 377 299 342V376H220V-65H299V274C376 300 463 315 576 315C695 315 737 274 737 176C737 79 691 1 558 1C502 1 445 5 382 19V-66C437 -74 497 -78 558 -78ZM271 173H654V252H271ZM271 59H654V139H271Z" transform="translate(0, 880) scale(1,-1)" /></svg>