<svg xmlns="http://www.w3.org/2000/svg" width="1000" height="1000"><path d="M80 55 144 9C241 92 312 239 312 359C312 446 268 487 206 487C144 487 88 444 88 365C88 284 142 245 208 250C191 195 151 114 80 55ZM202 315C176 315 156 332 156 366C156 398 177 417 202 417C225 417 247 398 247 367C247 332 225 315 202 315ZM287 391V701H209V456ZM74 726V647H333V726ZM51 55 75 -21 342 68 317 145ZM420 493H858V573H420ZM412 291H866V371H412ZM679 -78V661H600V-78ZM339 89H939V169H339ZM815 568 892 535C919 591 930 627 930 665C930 764 853 807 679 807C555 807 440 776 354 738L385 660C462 698 571 724 679 724C813 724 847 697 847 660C847 635 838 612 815 568Z" transform="translate(0, 880) scale(1,-1)" /></svg>