<svg xmlns="http://www.w3.org/2000/svg" width="1000" height="1000"><path d="M308 701 385 729C369 757 339 806 306 838L233 810C263 777 291 736 308 701ZM79 651H921V730H79ZM612 714 682 687C721 729 753 772 777 815L697 841C678 802 649 754 612 714ZM580 116C785 116 924 155 924 282C924 422 694 437 307 402L321 323C634 353 844 334 844 282C844 225 737 195 580 195C469 195 337 201 179 220V138C332 121 464 116 580 116ZM447 -83C517 -83 551 -62 551 9V278H471V26C471 4 460 -8 438 -8C392 -8 334 4 282 17V-66C330 -75 384 -83 447 -83ZM98 401 148 338C301 431 391 518 455 608L373 638C323 564 230 475 98 401ZM466 400 535 357C628 425 702 483 763 539L703 601L680 593H359V514H607C577 486 535 450 466 400Z" transform="translate(0, 880) scale(1,-1)" /></svg>