<svg xmlns="http://www.w3.org/2000/svg" width="1000" height="1000"><path d="M176 412V716H96V412ZM105 595 157 532C285 618 464 652 607 652C740 652 817 621 817 569C817 474 605 471 306 500V421C658 394 898 386 898 569C898 689 783 731 607 731C438 731 250 695 105 595ZM460 244H540V834H460ZM725 108 747 27C861 49 919 103 920 183C920 267 822 320 600 320C414 320 226 294 89 262L106 184C242 215 435 240 600 240C771 240 835 212 835 182C835 140 791 119 725 108ZM301 169V91H654V169ZM123 11V-68H857V11Z" transform="translate(0, 880) scale(1,-1)" /></svg>