<svg xmlns="http://www.w3.org/2000/svg" width="1000" height="1000"><path d="M533 739H227V470C227 325 218 122 130 -23L200 -60C293 92 306 317 306 470V659H943V739H622L570 848L491 830ZM246 302 154 265V592H75V278C75 244 57 225 45 217L74 143L275 228ZM526 -58H834C932 -58 951 6 963 149L883 154C877 41 870 22 822 22H542C489 22 478 35 478 85V590H399V82C399 -29 423 -58 526 -58ZM537 147 594 100C690 172 800 266 894 368L818 409C732 313 624 214 537 147ZM523 360 582 317C658 378 736 449 819 538L740 579C669 495 591 418 523 360Z" transform="translate(0, 880) scale(1,-1)" /></svg>