<svg xmlns="http://www.w3.org/2000/svg" width="1000" height="1000"><path d="M109 122 181 92C223 166 276 281 308 355L236 393L229 379H201C230 482 244 584 254 787L177 789C170 583 152 480 103 345L157 299L169 310H196C175 253 142 182 109 122ZM352 149 322 222 48 109 75 36ZM9 412 82 392C108 458 125 553 137 636L63 645C53 566 36 472 9 412ZM246 409 316 394C337 456 361 550 380 628L304 643C290 563 266 468 246 409ZM477 631H871V711H477ZM343 466 416 428C478 530 526 674 554 815L476 827C448 686 400 551 343 466ZM784 -53H866C941 -53 962 15 969 209L890 215C886 50 877 27 846 27H789C766 27 758 39 758 74V270C758 384 682 405 601 383V306C656 321 679 297 679 231V73C679 -21 699 -53 784 -53ZM769 640 692 660C627 457 532 228 337 -14L402 -62C599 188 703 435 769 640Z" transform="translate(0, 880) scale(1,-1)" /></svg>