<svg xmlns="http://www.w3.org/2000/svg" width="1000" height="1000"><path d="M69 599H931V678H69ZM139 732H861V810H139ZM302 522 358 468 380 479H524C485 451 440 423 381 393L457 354C539 396 638 454 707 498L655 565L635 558H456C506 614 540 677 577 759L487 767C452 682 397 595 302 522ZM139 344H861V423H139ZM324 167 360 96C522 132 654 166 804 216L755 292L709 278L383 274C447 297 500 319 565 347L504 411C415 363 320 318 231 286C211 279 182 274 154 270L185 186L219 194L487 201C431 188 376 177 324 167ZM467 -90C561 -90 594 -52 594 31C594 92 560 138 498 180L431 143C485 104 511 71 511 31C511 2 500 -13 456 -13C418 -13 372 -5 323 11V-72C370 -84 416 -90 467 -90ZM66 13 122 -39C185 -1 249 61 287 112L213 153C183 106 127 51 66 13ZM877 -42 947 3C913 45 844 108 768 157L704 109C778 58 846 -1 877 -42Z" transform="translate(0, 880) scale(1,-1)" /></svg>