<svg xmlns="http://www.w3.org/2000/svg" width="1000" height="1000"><path d="M706 797V170H786V797ZM591 207V127H938V207ZM195 217 268 175C378 253 467 351 467 452C467 518 416 566 344 566C274 566 218 526 218 452C218 377 263 340 337 340C312 297 268 262 195 217ZM344 408C315 408 290 422 290 452C290 481 315 498 344 498C371 498 395 479 395 452C395 422 371 408 344 408ZM435 476V824H355V537ZM84 720V640H587V720ZM65 208 84 130 596 236 577 314ZM101 43V-37H899V43Z" transform="translate(0, 880) scale(1,-1)" /></svg>