<svg xmlns="http://www.w3.org/2000/svg" width="1000" height="1000"><path d="M153 -11C271 -11 330 137 330 275C330 383 277 491 156 540L128 466C219 423 252 350 252 275C252 175 216 68 153 68C126 68 109 84 109 125C109 213 182 302 335 415L291 479C134 371 31 248 31 125C31 25 79 -11 153 -11ZM154 514 217 481C269 548 324 641 353 708L292 746L278 737H56V659H240C217 611 185 556 154 514ZM952 -32 954 51C785 3 575 21 472 66C411 94 383 150 379 314L302 306C305 128 346 28 432 -11C537 -59 779 -79 952 -32ZM391 290H949V370H391ZM627 80C687 81 712 106 712 177V830H633V183C633 164 631 157 616 157C583 157 549 165 513 176V91C555 83 595 79 627 80ZM501 578 578 609C563 663 523 748 487 808L414 778C449 714 487 631 501 578ZM397 477H927V557H397ZM757 607 828 581C856 634 892 715 920 786L840 814C822 751 785 661 757 607Z" transform="translate(0, 880) scale(1,-1)" /></svg>