<svg xmlns="http://www.w3.org/2000/svg" width="1000" height="1000"><path d="M122 734 67 678C119 639 177 590 206 556L263 615C232 649 175 697 122 734ZM108 72 179 62 266 468 209 497 190 489H36V409H173ZM265 172 50 67 88 -6 304 108ZM578 -71C693 -71 740 11 740 168C740 294 663 434 564 511L504 458C597 379 660 267 660 168C660 60 635 7 569 7C528 7 492 14 454 27V-59C489 -67 522 -71 578 -71ZM268 98 326 50C396 114 460 197 506 283L433 319C394 241 333 161 268 98ZM401 417 463 368C606 498 658 628 710 820L630 839C587 648 529 533 401 417ZM893 51 969 84C942 183 898 289 851 370L780 341C826 258 868 149 893 51ZM300 588H939V668H300Z" transform="translate(0, 880) scale(1,-1)" /></svg>