<svg xmlns="http://www.w3.org/2000/svg" width="1000" height="1000"><path d="M53 131 370 266 338 334 22 208ZM174 -39C224 -39 249 -9 249 50V789H171V67C171 46 164 39 146 39C127 39 105 44 78 57V-26C112 -35 142 -39 174 -39ZM38 411H359V489H38ZM88 533 163 554C152 610 126 696 102 759L28 739C52 673 78 587 88 533ZM252 553 324 535C346 592 371 678 389 747L309 765C294 697 272 608 252 553ZM450 690 488 624C555 680 620 708 704 708C773 708 793 671 793 619C793 561 774 501 732 438L796 400C844 475 872 541 872 619C872 739 815 789 704 789C604 789 527 751 450 690ZM334 -38H971V42H334ZM659 32 730 0C810 88 891 193 891 316C891 432 808 472 650 447V369C767 380 811 373 811 316C811 219 742 123 659 32ZM511 6V782H432V6Z" transform="translate(0, 880) scale(1,-1)" /></svg>