<svg xmlns="http://www.w3.org/2000/svg" width="1000" height="1000"><path d="M39 95 103 50C197 133 284 291 284 386C284 471 242 523 189 523C120 523 66 481 66 403C66 323 110 288 174 291C157 236 107 153 39 95ZM178 354C153 354 132 371 132 403C132 435 154 454 178 454C201 454 220 433 220 408C220 371 201 354 178 354ZM260 429V728H183V493ZM49 753V675H311V753ZM26 101 50 26 319 115 296 190ZM273 40 329 -21C491 98 683 256 775 346L722 404L706 396H403V316H633C548 241 420 139 273 40ZM624 -65C667 -65 706 -55 754 -28V57C707 26 673 12 641 12C623 12 616 15 616 46V205H537V28C537 -38 566 -65 624 -65ZM911 -25 969 35C894 97 801 168 719 218L665 166C746 113 837 42 911 -25ZM307 458H918V538H307ZM717 526 760 595C673 639 597 664 501 686L468 615C566 592 639 566 717 526ZM605 637 680 592C745 638 835 710 884 759L833 814L817 808H362V728H729C691 695 651 667 605 637Z" transform="translate(0, 880) scale(1,-1)" /></svg>