<svg xmlns="http://www.w3.org/2000/svg" width="1000" height="1000"><path d="M85 769V-57H157V769ZM234 784V496H305V784ZM111 515V445H331V515ZM247 217V-72H319V291H111V217ZM623 745H366V673H914V745H700L658 845L591 826ZM596 325 638 295C706 324 768 382 768 443C768 477 735 521 658 521C577 521 551 479 551 448C551 417 593 374 687 374C832 374 914 421 914 505C914 574 875 630 728 630C589 630 500 595 437 558L462 504C527 540 621 570 728 570C820 570 845 530 845 505C845 447 795 424 687 424C633 424 612 432 612 448C612 463 626 475 658 475C688 475 707 464 707 443C707 387 668 360 596 325ZM321 -35 375 -88C465 -9 468 57 468 156V243C497 259 532 264 587 264H800C829 264 846 247 846 223V-3C846 -17 838 -23 829 -23C810 -23 783 -18 751 -7V-75C780 -85 807 -88 833 -88C886 -88 913 -74 913 -13V250C913 301 881 332 806 332H585C529 332 496 324 465 307V328H399V156C399 78 392 18 321 -35ZM529 152H778V218H529ZM689 -1V310H621L623 6C623 -5 618 -10 609 -10C586 -10 562 -6 531 2V-66C562 -71 587 -74 613 -74C667 -74 689 -51 689 -1ZM529 41H778V119H529ZM326 327 388 287C445 407 494 555 532 704L472 727C434 577 385 439 326 327Z" transform="translate(0, 880) scale(1,-1)" /></svg>