<svg xmlns="http://www.w3.org/2000/svg" width="1000" height="1000"><path d="M134 28C240 28 295 163 295 295C295 397 247 498 138 543L111 470C190 431 218 365 218 295C218 200 186 107 134 107C111 107 99 120 99 156C99 233 161 319 297 421L255 486C114 386 22 271 22 156C22 63 66 28 134 28ZM136 518 195 487C241 550 289 634 314 695L252 735L240 725H49V648H205C187 605 160 556 136 518ZM329 634H960V714H703L657 839L580 821L617 714H329ZM660 491C564 491 475 466 389 425L419 346C502 391 580 411 660 411C734 411 754 382 754 334C754 194 571 24 480 24C442 24 417 55 417 115C417 165 441 205 502 205C599 205 731 44 918 -77L973 -15C786 100 643 283 502 283C402 283 337 222 337 115C337 16 387 -56 480 -56C614 -56 834 149 834 334C834 443 788 491 660 491ZM348 385 417 332C502 427 580 545 644 665L569 696C508 576 431 470 348 385ZM914 375 980 422C933 495 880 558 825 613L760 571C816 514 867 449 914 375Z" transform="translate(0, 880) scale(1,-1)" /></svg>