<svg xmlns="http://www.w3.org/2000/svg" width="1000" height="1000"><path d="M236 681 164 691C130 471 72 271 14 121L83 88C139 243 200 462 236 681ZM205 75C195 75 188 86 188 112C188 152 211 241 279 340L227 377C152 278 113 179 113 112C113 42 152 0 205 0C284 0 315 70 315 224C315 379 275 442 211 442C172 442 144 424 124 389L137 319C160 350 186 365 209 365C229 365 240 315 240 224C240 107 222 75 205 75ZM42 656H318V733H42ZM635 754H352V470C352 325 344 120 278 -25L353 -57C423 95 430 317 430 470V677H968V754H719L686 845L609 827ZM409 588V510H963V588ZM555 409 635 432C619 498 586 601 557 673L481 648C509 578 541 475 555 409ZM726 430 799 409C826 469 862 568 886 648L807 673C789 596 753 495 726 430ZM480 455V378H888V455ZM430 285 453 212C526 245 611 271 733 271C826 271 868 255 868 231C868 183 760 175 552 195V118C795 99 948 100 948 231C948 304 897 349 733 349C590 349 501 320 430 285ZM398 -10 435 -83C700 -20 732 93 731 231H653C653 110 639 50 398 -10ZM929 -87 976 -20C905 25 823 69 755 102L714 35C786 0 867 -45 929 -87Z" transform="translate(0, 880) scale(1,-1)" /></svg>