<svg xmlns="http://www.w3.org/2000/svg" width="1000" height="1000"><path d="M203 -65C254 -65 282 -42 282 25V806H204V34C204 20 198 12 187 12C162 12 134 19 99 34V-54C134 -61 167 -65 203 -65ZM42 550 82 480C203 535 316 604 408 673L359 733C271 664 162 602 42 550ZM44 196 108 163 122 182 403 279 386 354 164 274 257 520 196 547ZM601 13V-72C773 -109 890 -38 890 80C890 185 819 243 684 243C581 243 475 195 394 114L453 54C520 129 610 162 684 162C768 162 804 128 804 78C804 15 746 -22 601 13ZM358 325H942V404H358ZM433 516H866V594H433ZM433 700H867V778H433Z" transform="translate(0, 880) scale(1,-1)" /></svg>