<svg xmlns="http://www.w3.org/2000/svg" width="1000" height="1000"><path d="M533 740H224V470C224 325 215 122 127 -23L197 -60C290 92 303 317 303 470V661H943V740H622L570 848L491 830ZM243 301 152 264V592H73V278C73 244 55 225 43 217L72 143L272 227ZM493 -63H817C909 -63 937 -27 948 140L869 144C864 27 853 17 809 17H499C456 17 436 24 436 45C436 78 515 129 881 310L833 386L818 378H426V299H685C403 155 354 110 354 42C354 -24 389 -63 493 -63ZM283 375 355 333C421 413 474 524 503 634L424 650C395 542 343 440 283 375ZM410 468H930V547H410Z" transform="translate(0, 880) scale(1,-1)" /></svg>