<svg xmlns="http://www.w3.org/2000/svg" width="1000" height="1000"><path d="M533 743H219V470C219 325 211 122 122 -23L192 -60C285 92 298 317 298 470V663H943V743H622L571 849L492 831ZM239 300 149 264V592H70V278C70 244 52 225 40 217L69 143L267 226ZM421 506 459 438C529 478 597 500 684 500C757 500 778 479 778 448C778 410 758 366 714 318L777 272C828 327 857 380 857 448C857 544 798 579 684 579C581 579 501 550 421 506ZM297 -52H963V27H297ZM638 20 709 -24C793 41 877 118 877 220C877 316 790 345 628 326V248C750 257 797 253 797 220C797 156 724 87 638 20ZM481 -9V564H402V-9Z" transform="translate(0, 880) scale(1,-1)" /></svg>