<svg xmlns="http://www.w3.org/2000/svg" width="1000" height="1000"><path d="M137 42 206 12C251 96 309 222 343 306L270 345L262 331H223C260 453 274 567 285 802L207 806C199 570 180 452 127 297L183 251L197 262H237C213 196 176 112 137 42ZM396 79 365 153 67 24 95 -51ZM23 374 97 350C126 422 144 535 156 630L81 641C71 550 52 442 23 374ZM287 370 358 353C381 423 407 531 428 621L350 640C335 551 309 440 287 370ZM728 704 646 723C580 522 464 339 352 202L417 149C533 294 657 499 728 704ZM690 58V-26C869 -81 924 46 924 215C924 364 860 432 757 432C692 432 641 399 602 333V441H524V-21H602V256C658 328 703 350 753 350C811 350 841 297 841 215C841 86 811 9 690 58ZM396 682H920V762H396Z" transform="translate(0, 880) scale(1,-1)" /></svg>