<svg xmlns="http://www.w3.org/2000/svg" width="1000" height="1000"><path d="M119 -36 199 -27C147 111 137 211 166 294C200 388 203 462 153 541L77 522C124 437 126 372 96 300C62 221 68 111 119 -36ZM194 622 242 686C208 716 145 761 97 792L51 735C99 702 162 652 194 622ZM351 384 413 342C510 428 599 523 673 638L602 675C535 566 444 466 351 384ZM883 -103 926 -32C873 12 810 54 757 85L715 18C770 -11 832 -58 883 -103ZM200 551 269 513C339 616 380 714 413 827L335 846C305 736 264 647 200 551ZM334 536H893V616H334ZM333 689H907V769H334ZM815 475C694 452 442 319 442 89C442 -11 483 -56 558 -56C670 -56 726 58 710 443L634 436C650 146 613 23 558 23C533 23 518 47 518 89C518 284 716 365 786 392C775 362 768 345 756 319C749 307 741 304 732 302V223C820 241 862 237 862 187C862 135 843 90 790 51L833 -16C899 40 940 92 940 187C940 274 906 320 828 314C858 373 874 414 891 453L820 488ZM619 38 672 107C607 164 556 256 577 503L503 506C478 241 536 107 619 38ZM413 237 386 309C278 232 198 133 198 38C198 -45 241 -85 300 -85C389 -85 444 28 444 192C444 419 396 472 256 432V352C342 384 366 348 366 192C366 85 335 3 300 3C284 3 276 17 276 38C276 102 328 176 413 237Z" transform="translate(0, 880) scale(1,-1)" /></svg>