<svg xmlns="http://www.w3.org/2000/svg" width="1000" height="1000"><path d="M166 -42C284 -42 342 112 342 253C342 364 289 475 170 526L140 453C231 408 264 331 264 253C264 150 229 37 166 37C140 37 123 53 123 97C123 188 196 283 349 400L303 464C147 351 45 223 45 97C45 -6 93 -42 166 -42ZM168 499 230 467C282 536 338 633 366 703L304 740L290 730H69V652H256C232 602 198 544 168 499ZM809 31V816H730V48C730 29 719 14 700 14C664 14 613 24 561 39V-51C616 -60 675 -66 723 -64C771 -62 809 -47 809 31ZM356 553H957V633H356ZM619 188 684 233C639 301 573 387 505 460L442 415C510 341 576 251 619 188Z" transform="translate(0, 880) scale(1,-1)" /></svg>