<svg xmlns="http://www.w3.org/2000/svg" width="1000" height="1000"><path d="M157 -45C266 -45 319 110 319 254C319 367 270 480 161 531L131 459C213 413 242 334 242 254C242 150 211 34 157 34C134 34 120 53 120 104C120 195 184 285 325 404L279 467C134 353 42 230 42 104C42 1 88 -45 157 -45ZM157 504 218 473C266 543 316 642 342 712L278 748L265 738H68V660H237C215 608 185 549 157 504ZM380 362 415 286 433 294H903V374H485C547 510 597 668 640 825L563 843C520 682 463 511 410 395C404 381 393 369 380 362ZM323 9 394 -40C445 22 499 118 533 216L454 239C425 152 376 66 323 9ZM623 -71C670 -71 709 -53 709 23V557H378V478H632V34C632 16 626 8 607 7C585 6 555 12 515 29V-58C548 -67 582 -71 623 -71ZM890 -33 961 14C930 77 866 174 811 244L744 202C798 131 860 29 890 -33ZM355 651H923V731H355Z" transform="translate(0, 880) scale(1,-1)" /></svg>