<svg xmlns="http://www.w3.org/2000/svg" width="1000" height="1000"><path d="M53 81H132C123 206 120 386 135 506C143 572 175 640 206 640C241 640 252 546 252 428C252 283 245 183 226 183C216 183 215 195 215 214C215 282 253 412 330 505L271 559C185 465 138 330 138 214C138 137 170 98 225 98C324 98 332 230 332 428C332 598 304 721 213 721C175 721 146 690 129 630L143 736H63C45 441 45 269 53 81ZM403 697H920V777H403ZM352 365H971V445H352ZM708 26V738H629V43C629 20 623 9 598 9C562 9 520 20 478 37V-48C518 -60 565 -69 617 -69C683 -69 708 -34 708 26Z" transform="translate(0, 880) scale(1,-1)" /></svg>