<svg xmlns="http://www.w3.org/2000/svg" width="1000" height="1000"><path d="M14 196 83 162 94 181 312 260 293 338 136 284 192 443 123 464ZM205 487V65C205 43 199 30 181 30C155 30 128 36 92 51V-35C131 -44 165 -47 199 -47C248 -47 285 -26 285 41V567H40V487ZM203 593 264 647C226 691 184 732 136 773L79 721C126 680 168 636 203 593ZM821 -75 861 0C635 55 449 249 422 655L343 648C373 218 582 -16 821 -75ZM750 264 801 199C917 282 963 353 963 477C963 562 919 642 777 643C572 644 408 511 264 375L322 314C465 459 620 563 777 563C859 563 883 523 883 477C883 395 851 333 750 264ZM623 354H702V826H623Z" transform="translate(0, 880) scale(1,-1)" /></svg>