<svg xmlns="http://www.w3.org/2000/svg" width="1000" height="1000"><path d="M102 53 150 7C246 88 329 252 329 352C329 441 288 496 236 496C168 496 114 452 114 370C114 286 171 236 240 253C225 197 175 113 102 53ZM225 314C197 314 173 334 173 370C173 406 198 428 226 428C250 428 272 404 272 375C272 334 250 314 225 314ZM306 397V732H233V464ZM80 758V679H370V758ZM55 39 81 -34 378 94 353 167ZM330 -56H917V24H330ZM513 20H648C701 64 722 151 722 228C722 320 678 363 606 363C548 363 491 320 491 245C491 166 542 125 606 125C622 125 635 128 647 136C627 80 583 38 513 20ZM332 708 371 637C438 681 543 732 680 732C804 732 843 689 843 624C843 515 693 504 465 538V452C720 427 923 439 923 624C923 730 866 812 680 812C509 812 400 753 332 708ZM689 292V630H612V322ZM606 195C581 195 561 217 561 245C561 273 581 295 606 295C632 295 652 273 652 245C652 217 632 195 606 195Z" transform="translate(0, 880) scale(1,-1)" /></svg>