<svg xmlns="http://www.w3.org/2000/svg" width="1000" height="1000"><path d="M125 -57C190 -57 223 -29 223 51V604H145V57C145 31 134 21 120 21C104 21 78 28 56 40V-45C75 -52 100 -57 125 -57ZM29 128 336 201 318 278 10 206ZM54 373H293V453H54ZM82 650 158 671C149 708 133 765 118 805L44 788C58 749 75 688 82 650ZM38 569H313V649H38ZM209 650 283 638C297 682 315 748 326 794L245 808C238 762 223 697 209 650ZM532 9 590 -45C682 23 738 95 738 181C738 257 689 301 598 301C511 301 461 256 461 186C461 111 513 69 631 69C814 69 934 128 934 273C934 391 850 446 692 446C550 446 430 411 332 357L365 284C463 336 562 367 692 367C795 367 855 342 855 273C855 176 751 145 631 145C567 145 541 157 541 186C541 213 563 226 598 226C635 226 659 211 659 181C659 129 616 70 532 9ZM460 453 536 478C528 522 503 590 476 641L402 620C428 568 453 497 460 453ZM280 565 353 529C411 623 449 723 473 836L395 849C371 736 337 652 280 565ZM624 474 703 491C699 535 684 608 664 661L589 646C608 592 621 518 624 474ZM401 687H954V765H401ZM766 471 836 448C863 497 898 572 925 638L840 662C824 606 792 522 766 471ZM977 17H314V-61H977Z" transform="translate(0, 880) scale(1,-1)" /></svg>