<svg xmlns="http://www.w3.org/2000/svg" width="1000" height="1000"><path d="M350 475H430V765H350ZM97 732H903V811H97ZM570 475H650V765H570ZM77 507V429H923V507ZM224 525 296 561C276 603 239 663 204 706L134 673C167 630 205 566 224 525ZM697 549 765 521C803 569 842 632 870 687L793 720C771 668 732 600 697 549ZM618 -88 691 -42C632 28 538 125 449 199L382 156C469 80 564 -20 618 -88ZM90 76 165 37C225 156 278 319 305 457L225 469C198 334 148 181 90 76ZM201 230H893V310H201Z" transform="translate(0, 880) scale(1,-1)" /></svg>