<svg xmlns="http://www.w3.org/2000/svg" width="1000" height="1000"><path d="M138 -36 218 -27C167 111 157 211 187 294C222 388 225 462 173 541L95 522C143 437 145 372 114 300C79 221 85 111 138 -36ZM230 620 278 686C240 716 169 761 116 792L70 733C123 699 194 650 230 620ZM440 -24 489 -95C745 -37 874 19 874 121C874 202 796 250 657 250C580 250 490 244 430 232L447 155C503 165 585 174 657 174C742 174 784 158 784 121C784 64 661 24 440 -24ZM517 223 605 195C685 246 764 305 829 363L759 416L746 408H340V330H658C626 298 574 256 517 223ZM236 559 312 528C359 614 400 734 421 830L342 844C320 746 280 634 236 559ZM335 661H928V740H335ZM409 431 476 463C461 504 434 561 404 604L339 574C365 531 395 474 409 431ZM588 453 661 475C648 521 627 581 602 631L530 609C553 560 576 501 588 453ZM731 452 796 425C826 472 859 538 881 594L808 622C791 569 759 501 731 452Z" transform="translate(0, 880) scale(1,-1)" /></svg>