<svg xmlns="http://www.w3.org/2000/svg" width="1000" height="1000"><path d="M273 678 199 688C163 453 99 239 37 80L107 45C169 210 235 445 273 678ZM242 27C228 27 221 40 221 68C221 111 246 208 320 315L267 354C187 248 144 137 144 68C144 -5 185 -49 242 -49C324 -49 358 26 358 189C358 352 316 418 247 418C206 418 175 399 154 363L167 291C192 324 221 340 246 340C270 340 281 286 281 189C281 61 262 27 242 27ZM65 655H374V732H65ZM388 600H924V678H388ZM439 391H873V469H439ZM696 -1V829H616V-1ZM439 177H873V255H439ZM950 31H362V-47H950Z" transform="translate(0, 880) scale(1,-1)" /></svg>