<svg xmlns="http://www.w3.org/2000/svg" width="1000" height="1000"><path d="M123 52 185 5C287 89 364 248 364 362C364 451 319 499 258 499C190 499 132 455 132 373C132 289 190 244 259 253C244 195 200 114 123 52ZM251 321C223 321 201 339 201 373C201 407 224 427 251 427C275 427 298 406 298 376C298 339 276 321 251 321ZM338 400V735H259V467ZM90 761V681H406V761ZM68 42 91 -35 415 72 393 150ZM623 27 697 1C801 113 850 206 850 337C850 483 790 537 665 537C547 537 471 473 471 363C471 273 515 218 595 218C667 218 708 272 708 336V729H630V353C630 320 619 302 594 302C570 302 551 324 551 363C551 409 575 455 665 455C746 455 771 417 771 337C771 238 729 145 623 27ZM410 -36H943V44H410ZM434 697H916V777H434ZM895 158 967 192C944 254 918 314 888 373L819 341C848 282 873 220 895 158Z" transform="translate(0, 880) scale(1,-1)" /></svg>