<svg xmlns="http://www.w3.org/2000/svg" width="1000" height="1000"><path d="M19 196 88 161 100 181 326 261 307 339 143 284 201 442 132 465ZM217 487V65C217 43 210 30 192 30C165 30 137 36 100 51V-35C140 -44 175 -47 210 -47C259 -47 297 -26 297 41V567H45V487ZM215 592 275 647C236 691 193 732 143 773L86 720C135 679 178 636 215 592ZM754 294 807 230C912 307 960 395 960 509C960 598 913 672 779 673C583 674 435 540 300 404L360 345C495 490 631 593 779 593C853 593 880 556 880 509C880 431 845 358 754 294ZM561 -60H819C917 -60 936 -6 946 163L869 168C863 39 855 17 807 17H577C526 17 516 30 516 80V816H437V80C437 -31 461 -60 561 -60Z" transform="translate(0, 880) scale(1,-1)" /></svg>