<svg xmlns="http://www.w3.org/2000/svg" width="1000" height="1000"><path d="M193 -62C244 -62 271 -39 271 28V799H193V36C193 23 188 15 177 15C153 15 127 22 93 36V-51C126 -58 158 -62 193 -62ZM43 546 82 476C195 531 302 599 387 667L337 725C255 658 155 597 43 546ZM42 194 108 162 120 182 380 278 362 352 160 273 246 516 184 543ZM668 -65C710 -65 746 -57 791 -36V52C751 29 719 16 692 16C674 16 668 26 668 48V592H590V33C590 -37 617 -65 668 -65ZM352 3 425 -27C468 139 502 349 517 522L440 533C424 370 392 162 352 3ZM880 -20 958 13C917 213 874 391 826 550L751 522C801 354 840 191 880 -20ZM406 760V680H894V760Z" transform="translate(0, 880) scale(1,-1)" /></svg>