<svg xmlns="http://www.w3.org/2000/svg" width="1000" height="1000"><path d="M533 733H236V470C236 325 228 122 139 -23L210 -60C303 92 316 317 316 470V654H943V733H622L569 846L490 828ZM256 305 161 266V592H81V280C81 246 63 227 51 219L81 144L285 230ZM333 -12 387 -78C597 34 773 237 832 506L767 534L751 524H532V444H730C670 247 525 85 333 -12ZM327 272 394 221C497 325 577 475 620 621L544 641C496 490 418 356 327 272ZM897 -71 963 -20C875 90 789 176 693 256L638 205C727 129 811 40 897 -71Z" transform="translate(0, 880) scale(1,-1)" /></svg>