<svg xmlns="http://www.w3.org/2000/svg" width="1000" height="1000"><path d="M179 -64C299 -64 359 100 359 248C359 364 305 482 184 536L154 471C248 423 281 331 281 248C281 140 244 14 179 14C154 14 134 35 134 90C134 190 206 284 362 411L321 472C161 352 59 223 59 90C59 -18 107 -64 179 -64ZM186 508 245 481C297 552 353 653 381 725L324 763L310 755H80V680H278C254 621 220 555 186 508ZM464 449H826V527H464ZM512 -79H824C886 -79 914 -32 929 100L851 109C844 23 831 -1 804 -1H540C515 -1 503 6 503 17C503 35 519 52 874 293L829 358L810 350H405V272L693 273C428 95 401 59 401 8C401 -43 430 -79 512 -79ZM636 701 711 721C696 765 669 815 641 854L568 834C595 794 623 742 636 701ZM816 538 894 510C917 559 927 590 927 621C927 709 849 749 702 749C588 749 466 728 376 701L396 623C482 648 604 667 702 667C811 667 840 645 840 614C840 595 835 575 816 538Z" transform="translate(0, 880) scale(1,-1)" /></svg>