<svg xmlns="http://www.w3.org/2000/svg" width="1000" height="1000"><path d="M315 681 378 718C356 752 309 800 266 837L205 803C248 766 293 716 315 681ZM605 716 666 681C705 713 757 763 794 807L725 841C696 800 645 749 605 716ZM523 370H629C726 402 758 442 758 485C758 556 668 596 500 596C314 596 221 556 221 499C221 440 286 404 402 404C490 404 547 438 547 478V627H468V493C468 475 442 468 399 468C346 468 302 478 302 493C302 510 355 529 500 529C629 529 678 512 678 485C678 454 653 408 523 370ZM77 299H923V370H77ZM123 627H872V699H123ZM735 89 754 28C874 41 928 93 928 141C928 214 820 255 615 255C423 255 234 232 99 205L116 132C251 158 443 180 615 180C773 180 842 164 842 141C842 121 802 100 735 89ZM311 133V61H664V133ZM133 10V-64H867V10Z" transform="translate(0, 880) scale(1,-1)" /></svg>