<svg xmlns="http://www.w3.org/2000/svg" width="1000" height="1000"><path d="M214 593 283 628C266 680 221 752 181 807L114 776C151 723 192 645 214 593ZM479 619 554 646C541 703 506 777 470 840L399 815C432 754 465 676 479 619ZM696 617 764 596C806 653 851 730 884 796L805 827C780 761 736 679 696 617ZM408 188 467 141C567 179 666 251 666 340C666 396 616 444 503 444C385 444 345 398 345 348C345 296 408 250 546 250C762 250 878 314 878 441C878 532 815 602 590 602C392 602 276 568 183 525L221 458C315 500 436 527 590 527C746 527 791 487 791 441C791 370 712 317 546 317C462 317 426 330 426 347C426 363 449 379 503 379C553 379 584 365 584 340C584 279 514 230 408 188ZM163 582V279H244V582ZM74 136H927V208H74ZM74 -36 128 -92C231 -48 348 13 419 78L341 118C287 63 179 0 74 -36ZM855 -94 920 -41C856 5 741 70 647 120L589 70C682 19 794 -47 855 -94Z" transform="translate(0, 880) scale(1,-1)" /></svg>