<svg xmlns="http://www.w3.org/2000/svg" width="1000" height="1000"><path d="M111 57 182 26C220 104 269 223 298 302L228 339L221 325H199C227 435 240 542 249 757L173 759C167 542 151 434 106 291L156 245L167 256H192C172 196 142 120 111 57ZM334 86 303 158 53 39 83 -33ZM22 361 94 341C117 412 133 511 144 599L70 607C61 523 46 424 22 361ZM230 357 299 344C319 410 340 508 358 590L282 603C270 516 248 418 230 357ZM400 632 411 569C487 611 585 637 696 637C813 637 853 596 853 479C853 334 843 289 813 289C790 289 765 294 732 312V231C762 219 789 213 813 213C911 213 933 288 933 479C933 624 878 716 696 716C578 716 472 680 400 632ZM635 707 677 782C615 807 530 834 461 849L433 779C499 763 578 733 635 707ZM482 495H798V573H482ZM686 316V683H607L608 329C608 313 604 305 592 305C572 305 550 312 524 322V245C557 235 582 229 613 229C668 229 686 256 686 316ZM482 365H798V443H482ZM316 -26 361 -93C441 -49 532 10 587 73L524 126C482 73 398 11 316 -26ZM322 127H957V205H322ZM905 -93 959 -31C909 15 820 79 747 128L698 68C769 18 858 -45 905 -93ZM447 223V701H368V223Z" transform="translate(0, 880) scale(1,-1)" /></svg>