<svg xmlns="http://www.w3.org/2000/svg" width="1000" height="1000"><path d="M125 -36 205 -27C154 111 144 211 174 294C209 388 212 462 160 541L82 522C130 437 132 372 101 300C66 221 72 111 125 -36ZM218 618 263 688C225 717 154 763 101 793L58 731C112 698 183 648 218 618ZM276 660H919V738H653L611 838L534 820L569 738H276ZM302 328 599 380 586 458 288 405ZM380 401 454 371C503 424 555 496 595 563L535 608L517 597H299V519H471C447 478 418 442 380 401ZM725 394H803V616H725ZM904 428H626V348H904ZM554 -85C617 -85 645 -55 645 12V342H567V22C567 4 556 -8 538 -8C505 -8 463 1 424 14V-73C463 -80 508 -85 554 -85ZM254 21 312 -39C375 -2 445 55 489 115L419 155C381 103 317 52 254 21ZM264 177H933V255H264ZM879 -42 938 14C902 53 823 113 760 153L703 101C767 59 844 -2 879 -42Z" transform="translate(0, 880) scale(1,-1)" /></svg>