<svg xmlns="http://www.w3.org/2000/svg" width="1000" height="1000"><path d="M55 117 343 255 309 322 23 194ZM163 -55C212 -55 236 -25 236 33V785H158V49C158 29 151 22 133 22C116 22 96 27 72 41V-43C103 -52 132 -55 163 -55ZM39 402H331V480H39ZM81 526 155 546C146 602 121 690 99 754L25 735C47 669 72 581 81 526ZM234 544 306 528C327 586 350 674 366 744L286 760C273 690 252 601 234 544ZM892 -71 933 8C787 56 637 203 507 203C431 203 372 149 372 71C372 -11 423 -62 500 -62C598 -62 891 76 891 228C891 338 815 371 707 371C645 371 604 361 562 344C581 365 595 388 610 413L542 450C493 365 424 301 339 245L389 178C432 211 481 246 500 254C564 281 626 293 701 293C767 293 811 276 811 228C811 133 569 16 500 16C470 16 452 31 452 71C452 108 477 125 507 125C614 125 750 -14 892 -71ZM454 440H847V518H454ZM343 566 371 492C556 543 743 624 889 788L828 840C683 679 524 613 343 566ZM878 490 926 562C784 665 556 757 406 805L373 739C526 689 734 595 878 490Z" transform="translate(0, 880) scale(1,-1)" /></svg>