<svg xmlns="http://www.w3.org/2000/svg" width="1000" height="1000"><path d="M792 434H872C935 434 947 491 951 593L884 599C881 525 879 504 855 504H807C792 504 784 508 784 519C784 529 786 543 827 744L765 766L755 752H401V682H739C716 568 713 541 713 512C713 469 729 434 792 434ZM385 492 444 433C613 511 645 621 658 832L582 831C569 631 541 563 385 492ZM623 10V-65C847 -96 920 -22 920 80C920 179 842 225 715 225C629 225 550 201 492 153V210H414V-55H492V101C573 140 641 157 713 157C796 157 836 124 836 80C836 19 792 -18 623 10ZM404 296H923V370H404ZM75 132 391 279 367 346 52 209ZM187 -72C233 -72 268 -51 268 17V748H195V37C195 13 185 0 172 0C149 0 124 4 93 18V-60C126 -69 157 -72 187 -72ZM63 448H378V527H63ZM85 773 90 695C183 700 290 718 364 739L353 814C284 793 178 775 85 773Z" transform="translate(0, 880) scale(1,-1)" /></svg>