<svg xmlns="http://www.w3.org/2000/svg" width="1000" height="1000"><path d="M179 -81C230 -81 257 -58 257 9V816H179V17C179 4 174 -4 163 -4C139 -4 113 3 79 17V-70C113 -77 144 -81 179 -81ZM30 550 71 480C183 538 289 609 373 680L319 738C239 668 139 604 30 550ZM30 187 95 155 107 175 366 273 348 348 145 266 232 522 171 549ZM480 -72C609 -72 659 65 659 227C659 350 632 461 501 531L456 469C559 413 578 327 578 227C578 108 540 9 480 9C447 9 428 39 428 80C428 171 477 263 625 345L590 414C417 328 347 210 347 80C347 -20 399 -72 480 -72ZM360 490 390 420C476 456 567 509 649 578L604 638C534 579 443 523 360 490ZM348 672 381 604C467 638 561 693 644 761L599 823C525 765 430 704 348 672ZM687 248H961V326H687ZM788 -69C835 -69 870 -53 870 20V810H796L798 32C798 14 796 7 782 7C753 7 722 12 682 27V-54C721 -64 755 -69 788 -69ZM693 522H947V598H693Z" transform="translate(0, 880) scale(1,-1)" /></svg>