<svg xmlns="http://www.w3.org/2000/svg" width="1000" height="1000"><path d="M532 760H186V470C186 325 177 122 89 -23L158 -60C251 92 264 317 264 470V682H943V760H621L575 855L496 837ZM205 291 127 261V592H49V274C49 240 31 221 19 213L47 141L232 219ZM709 -7 735 -85C874 -74 948 -21 948 82C948 175 856 216 634 216C396 216 289 172 289 71C289 -47 407 -69 519 -69C615 -69 665 -21 666 69L669 412H589L590 82C590 31 564 10 519 10C448 10 369 22 369 71C369 109 447 137 634 137C801 137 868 117 868 82C868 39 837 2 709 -7ZM340 332 372 256 392 263H873V342H450C474 381 504 436 525 480L443 498C425 453 393 389 372 356C361 341 350 334 340 332ZM465 506 542 537C529 570 500 621 473 657L398 631C423 595 449 546 465 506ZM295 453H948V532H295ZM708 517 773 487C802 532 832 589 853 635L770 660C756 618 730 558 708 517Z" transform="translate(0, 880) scale(1,-1)" /></svg>