<svg xmlns="http://www.w3.org/2000/svg" width="1000" height="1000"><path d="M248 410C418 410 493 495 493 566C493 655 401 702 277 750L220 707C339 661 410 616 410 566C410 523 361 479 248 479C195 479 172 490 172 509C172 543 263 594 508 667L457 716C206 647 83 576 83 509C83 452 142 410 248 410ZM57 707 105 658C255 698 397 743 512 789L465 839C351 789 210 746 57 707ZM664 810V483H740V810ZM528 513V442H894V513ZM185 375V303H815V375ZM55 -24 100 -82C495 4 550 157 549 324H467C467 164 434 57 55 -24ZM886 -92 941 -37C827 24 693 85 574 131L531 78C651 29 783 -33 886 -92ZM73 156H928V229H73Z" transform="translate(0, 880) scale(1,-1)" /></svg>