<svg xmlns="http://www.w3.org/2000/svg" width="1000" height="1000"><path d="M731 676V390H811V747L747 766L731 755C484 755 273 634 273 526C273 453 331 408 411 408C511 408 571 458 571 535C571 635 507 677 372 677C291 677 206 662 144 642L167 568C227 588 302 601 372 601C447 601 492 579 492 535C492 502 453 485 411 485C371 485 352 503 352 526C352 609 518 676 731 676ZM28 357 98 311C158 387 178 470 178 575V732H521V811H98V582C98 495 82 425 28 357ZM567 432V353H956V432ZM324 175 360 104C522 141 654 176 804 226L755 302L709 288L382 283C446 308 500 331 565 359L504 424C415 374 320 329 231 296C211 288 182 283 154 280L185 196L219 203L488 210C432 197 376 185 324 175ZM467 -86C541 -86 594 -47 594 37C594 99 560 146 498 188L431 151C485 112 511 77 511 37C511 7 495 -9 456 -9C418 -9 372 -1 323 15V-68C370 -80 416 -86 467 -86ZM65 18 122 -33C185 6 249 69 287 120L212 160C182 113 126 57 65 18ZM877 -36 947 8C913 51 844 115 768 165L704 117C778 66 846 6 877 -36Z" transform="translate(0, 880) scale(1,-1)" /></svg>