<svg xmlns="http://www.w3.org/2000/svg" width="1000" height="1000"><path d="M20 212 89 179 100 198 309 273 290 351 141 300 194 453 125 474ZM203 495V88C203 65 197 52 180 52C155 52 129 58 94 73V-12C133 -21 165 -24 199 -24C247 -24 283 -3 283 63V574H46V495ZM202 598 263 652C227 695 186 734 140 774L82 722C128 682 168 640 202 598ZM414 689 453 624C524 680 594 708 683 708C758 708 780 670 780 618C780 560 759 501 715 438L777 400C829 475 859 540 859 618C859 738 799 789 683 789C578 789 496 750 414 689ZM286 -38H970V42H286ZM636 32 707 0C793 88 879 193 879 316C879 432 791 472 625 447V369C751 380 799 373 799 316C799 219 725 123 636 32ZM474 6V782H395V6Z" transform="translate(0, 880) scale(1,-1)" /></svg>