<svg xmlns="http://www.w3.org/2000/svg" width="1000" height="1000"><path d="M460 391C536 391 561 425 561 487V661H480V490C480 470 469 461 449 461C420 461 359 466 291 486V405C349 395 401 391 460 391ZM49 489 103 437C189 490 254 563 289 623L214 660C185 604 131 539 49 489ZM892 433 967 475C933 525 856 604 768 663L699 622C785 561 861 483 892 433ZM670 674 718 739C631 768 459 808 350 825L313 760C428 744 581 704 670 674ZM735 101 758 35C862 62 930 135 930 207C931 288 839 359 607 359C425 359 236 331 99 296L116 223C252 257 445 283 607 283C786 283 846 248 846 205C846 163 793 118 735 101ZM311 192V116H664V192ZM133 12V-64H867V12Z" transform="translate(0, 880) scale(1,-1)" /></svg>