<svg xmlns="http://www.w3.org/2000/svg" width="1000" height="1000"><path d="M308 699 385 727C369 756 339 806 306 839L232 811C263 777 291 735 308 699ZM79 648H921V727H79ZM612 712 682 686C721 728 753 772 778 816L697 842C678 802 649 753 612 712ZM84 50 472 164 448 234 61 130ZM233 -76C289 -76 322 -52 322 25V623H244V37C244 12 233 -1 218 -1C192 -1 163 3 125 17V-64C162 -73 197 -76 233 -76ZM103 280H434V358H103ZM77 448H460V526H77ZM591 71V427H512V69C512 -44 554 -68 664 -68H795C892 -68 920 -11 936 140L861 149C850 31 839 11 793 11H664C605 11 591 20 591 71ZM780 223C879 223 898 312 913 542L851 557L836 548H492V469H832C826 329 802 300 771 300C735 300 698 309 655 321V236C696 228 737 223 780 223Z" transform="translate(0, 880) scale(1,-1)" /></svg>