<svg xmlns="http://www.w3.org/2000/svg" width="1000" height="1000"><path d="M39 85 107 40C202 121 272 256 272 373C272 455 222 489 161 489C99 489 50 448 50 373C50 298 101 258 165 259C144 208 107 138 39 85ZM162 327C136 327 117 342 117 373C117 402 137 420 162 420C184 420 205 402 205 373C205 342 184 327 162 327ZM247 398V673H169V460ZM43 698V620H287V698ZM20 92 44 17 295 94 271 169ZM581 -71C694 -71 741 10 741 168C741 294 665 434 569 511L509 458C600 379 661 267 661 168C661 60 636 7 572 7C531 7 497 14 459 27V-59C493 -67 526 -71 581 -71ZM280 98 338 50C407 114 469 197 514 283L441 319C403 241 343 161 280 98ZM408 417 470 368C609 498 661 628 711 820L631 839C590 648 533 533 408 417ZM887 51 963 84C937 183 894 289 848 370L777 341C822 258 863 149 887 51ZM312 588H934V668H312Z" transform="translate(0, 880) scale(1,-1)" /></svg>