<svg xmlns="http://www.w3.org/2000/svg" width="1000" height="1000"><path d="M532 760H186V470C186 325 177 122 89 -23L158 -60C251 92 264 317 264 470V682H943V760H621L575 855L496 837ZM205 291 127 261V592H49V274C49 240 31 221 19 213L47 141L232 219ZM270 521H458V598H270ZM402 562H326V-59H402ZM436 366 488 295C672 350 846 459 918 574L855 630L838 621H568V542H787C726 474 601 404 436 366ZM457 -62H955V17H457ZM439 158 511 122C555 183 595 256 630 330L555 351C522 279 485 215 439 158ZM714 2 795 -23C835 12 862 53 862 110C862 176 812 219 714 219C616 219 555 181 555 116C555 58 590 24 658 24C725 24 753 56 753 104V272H675V118C675 107 667 101 655 101C645 101 634 106 634 116C634 135 661 142 714 142C762 142 783 135 783 109C783 72 760 37 714 2ZM555 233H889V312H555ZM424 449 498 408C552 459 617 556 647 644L569 661C538 576 473 488 424 449ZM914 301 966 369C880 413 738 470 606 504L559 437C692 402 830 348 914 301Z" transform="translate(0, 880) scale(1,-1)" /></svg>