<svg xmlns="http://www.w3.org/2000/svg" width="1000" height="1000"><path d="M242 549 309 600C278 655 214 735 153 794L91 747C149 688 212 605 242 549ZM462 512H543V838H462ZM683 595 746 549C801 600 870 684 922 754L848 801C808 735 738 650 683 595ZM213 -68C373 -68 442 55 442 154C442 280 357 376 243 457L185 427C295 347 360 254 360 154C360 80 315 6 213 6C171 6 145 23 145 54C145 118 236 185 455 286L406 339C190 244 59 150 59 54C59 -29 124 -68 213 -68ZM36 420 76 355C215 392 346 433 452 477L412 541C307 496 177 454 36 420ZM516 420V350H941V420ZM498 228V155H960V228ZM687 539V-79H769V539Z" transform="translate(0, 880) scale(1,-1)" /></svg>