<svg xmlns="http://www.w3.org/2000/svg" width="1000" height="1000"><path d="M532 746H213V470C213 325 204 122 116 -23L186 -60C279 92 292 317 292 470V667H943V746H621L572 850L493 832ZM232 298 145 263V592H66V277C66 243 48 224 36 216L65 142L260 225ZM322 494H916V573H322ZM388 115 464 142C446 211 413 317 381 399L310 374C340 293 373 184 388 115ZM594 141 670 165C657 235 632 340 606 422L534 400C557 319 583 212 594 141ZM682 25 751 -3C823 121 881 270 919 403L839 428C807 293 753 148 682 25ZM933 42H302V-37H933Z" transform="translate(0, 880) scale(1,-1)" /></svg>