<svg xmlns="http://www.w3.org/2000/svg" width="1000" height="1000"><path d="M70 71H149C140 192 137 365 152 482C161 545 191 609 222 609C257 609 268 520 268 407C268 270 261 172 242 172C233 172 231 184 232 202C232 268 266 390 343 481L283 534C199 443 154 314 154 202C154 126 187 87 242 87C338 87 348 214 348 407C348 572 318 691 230 691C192 691 163 661 146 603L160 706H80C63 419 63 253 70 71ZM695 181C869 181 963 240 963 385C963 540 800 576 490 530L500 450C735 489 884 465 884 385C884 298 813 261 695 261C611 261 512 268 394 293V209C509 187 608 181 695 181ZM589 -79C646 -79 683 -58 683 16V380H604V33C604 11 596 -1 579 -1C545 -1 501 10 462 24V-62C499 -71 541 -79 589 -79ZM324 530 380 470C495 590 563 703 611 821L530 838C493 742 423 625 324 530ZM604 537 670 499C740 586 795 663 841 736L779 789L762 779H529V699H720C695 659 660 608 604 537Z" transform="translate(0, 880) scale(1,-1)" /></svg>