<svg xmlns="http://www.w3.org/2000/svg" width="1000" height="1000"><path d="M25 362 105 343C129 451 151 602 162 724L82 730C71 604 50 460 25 362ZM85 510H343V590H85ZM188 -58C242 -58 265 -23 265 37V772H187V49C187 30 181 20 167 20C139 20 108 27 77 42V-42C109 -52 142 -58 188 -58ZM362 276 328 348 26 211 60 139ZM827 -75 867 0C655 58 488 249 463 655L384 648C412 218 603 -13 827 -75ZM757 265 811 201C917 284 958 356 958 480C958 565 919 642 785 643C594 644 442 510 312 374L372 315C503 460 643 563 785 563C859 563 879 524 879 480C879 397 849 334 757 265ZM641 354H720V826H641Z" transform="translate(0, 880) scale(1,-1)" /></svg>