<svg xmlns="http://www.w3.org/2000/svg" width="1000" height="1000"><path d="M165 487 209 562 139 583 33 424 106 390 117 397 496 471 470 545ZM253 305C309 305 334 336 334 401V843H255V410C255 393 250 382 232 382C207 382 177 389 144 400V316C180 309 216 305 253 305ZM67 580H485V658H67ZM66 770 92 693C208 695 382 706 494 728L462 801C360 783 185 773 66 770ZM809 657C782 376 821 311 896 311C951 311 974 368 981 461L921 469C917 411 910 389 897 389C880 389 864 433 890 726L828 746L815 735H478V657ZM420 363 486 305C693 403 715 578 713 842H633C635 593 630 457 420 363ZM773 453 803 528C740 553 610 587 512 609L477 537C577 513 711 478 773 453ZM323 168 360 98C522 135 654 170 804 221L755 297L709 282L382 278C446 302 500 326 565 355L504 419C415 369 320 323 231 290C211 283 182 277 154 274L185 190L219 198L489 205C432 191 377 179 323 168ZM467 -94C561 -94 594 -55 594 30C594 92 560 140 498 182L431 145C485 105 511 71 511 30C511 -1 500 -17 456 -17C418 -17 372 -9 323 7V-76C370 -88 416 -94 467 -94ZM65 11 122 -40C185 -1 249 62 287 114L212 154C182 106 126 50 65 11ZM877 -44 948 0C914 44 845 108 769 158L704 111C778 59 846 -1 877 -44Z" transform="translate(0, 880) scale(1,-1)" /></svg>