<svg xmlns="http://www.w3.org/2000/svg" width="1000" height="1000"><path d="M301 666 225 680C182 460 107 261 34 112L105 74C178 229 256 448 301 666ZM268 63C248 63 238 75 238 101C238 141 270 229 357 327L303 368C209 269 160 167 160 100C160 30 204 -12 268 -12C360 -12 401 58 401 212C401 367 352 429 276 429C227 429 191 412 165 377L181 307C210 337 244 353 275 353C308 353 323 303 323 212C323 95 297 63 268 63ZM60 642H415V721H60ZM609 388H690V835H609ZM406 607 450 539C536 599 641 640 740 640C820 640 852 610 852 585C852 556 844 533 826 508L904 477C923 509 934 541 934 586C934 672 859 720 740 720C616 720 499 669 406 607ZM403 -9 452 -81C633 -6 891 144 891 298C891 401 833 444 714 444C605 444 527 422 450 393L473 314C548 347 617 364 714 364C776 364 808 342 808 298C808 187 587 58 403 -9ZM883 -86 945 -20C782 106 659 180 509 242L462 180C610 114 723 43 883 -86Z" transform="translate(0, 880) scale(1,-1)" /></svg>