<svg xmlns="http://www.w3.org/2000/svg" width="1000" height="1000"><path d="M43 102 112 58C208 138 280 271 280 386C280 467 228 502 168 502C104 502 55 461 55 386C55 312 106 272 171 272C150 222 111 154 43 102ZM168 341C142 341 122 355 122 386C122 415 143 433 168 433C191 433 212 415 212 386C212 355 191 341 168 341ZM254 411V682H176V472ZM42 707V629H298V707ZM19 109 43 33 307 111 283 187ZM601 -68C671 -68 690 -35 690 26V546H611V39C611 18 603 10 590 10C563 9 521 19 482 35V-55C523 -64 559 -68 601 -68ZM314 115 385 77C447 161 487 302 510 414L429 427C412 325 373 196 314 115ZM320 484 394 446C456 546 504 689 532 828L453 840C425 702 375 568 320 484ZM898 68 977 91C954 181 902 326 841 433L765 411C824 301 876 158 898 68ZM440 628H919V708H440Z" transform="translate(0, 880) scale(1,-1)" /></svg>