<svg xmlns="http://www.w3.org/2000/svg" width="1000" height="1000"><path d="M309 681 385 709C369 742 338 797 304 834L231 806C262 768 291 721 309 681ZM79 624H921V703H79ZM612 692 681 666C721 713 754 763 779 811L698 837C679 792 650 738 612 692ZM360 17 420 -40C544 13 666 102 666 220C666 299 612 343 500 343C379 343 339 299 339 235C339 163 397 122 543 122C755 122 887 199 887 352C887 475 789 547 555 547C345 547 236 490 165 451L208 379C274 419 378 467 555 467C721 467 806 414 806 352C806 270 710 201 543 201C453 201 419 214 419 235C419 251 443 264 500 264C551 264 586 249 586 220C586 150 481 67 360 17ZM93 -51H937V29H93ZM152 169H232V523H152Z" transform="translate(0, 880) scale(1,-1)" /></svg>