<svg xmlns="http://www.w3.org/2000/svg" width="1000" height="1000"><path d="M158 -7C265 -7 320 144 320 287C320 398 270 509 162 559L132 487C214 442 243 365 243 287C243 184 211 72 158 72C135 72 121 87 121 129C121 217 185 317 324 433L279 497C136 385 44 253 44 129C44 27 88 -7 158 -7ZM159 532 219 501C266 570 316 666 342 735L278 772L265 762H70V684H236C215 634 186 576 159 532ZM298 40 355 -21C510 98 695 256 783 346L729 404L714 396H425V316H645C563 241 440 139 298 40ZM637 -65C679 -65 717 -55 764 -28V57C718 26 686 12 655 12C638 12 631 15 631 46V205H552V28C552 -38 581 -65 637 -65ZM912 -25 970 35C898 97 808 168 730 218L676 166C753 113 841 42 912 -25ZM333 458H920V538H333ZM725 526 769 595C685 639 612 664 520 686L486 615C581 592 651 566 725 526ZM618 637 692 592C754 638 841 710 888 760L837 814L821 808H386V728H738C701 695 663 667 618 637Z" transform="translate(0, 880) scale(1,-1)" /></svg>