<svg xmlns="http://www.w3.org/2000/svg" width="1000" height="1000"><path d="M70 78 138 36C238 115 313 247 313 358C313 442 269 485 207 485C141 485 84 443 84 367C84 288 135 249 204 254C184 203 142 132 70 78ZM201 318C174 318 152 335 152 367C152 398 175 417 201 417C225 417 247 397 247 369C247 335 225 318 201 318ZM287 392V678H209V455ZM51 703V625H348V703ZM29 78 51 1 357 92 334 169ZM859 -80 934 -41C902 47 835 180 771 279L699 247C759 152 824 15 859 -80ZM685 373V831H606V373ZM345 581H951V661H345ZM919 412H374V331H919ZM647 346 566 377C518 254 462 142 410 56C400 40 390 28 374 23L403 -55L424 -46L845 6L829 83L488 43C542 129 598 233 647 346Z" transform="translate(0, 880) scale(1,-1)" /></svg>