<svg xmlns="http://www.w3.org/2000/svg" width="1000" height="1000"><path d="M168 -44C218 -44 246 -22 246 45V788H168V54C168 40 162 32 152 32C128 32 103 39 70 54V-33C103 -40 134 -44 168 -44ZM26 544 67 475C174 528 274 593 355 660L300 717C224 652 130 593 26 544ZM24 200 90 171 102 190 342 284 324 358 142 280 220 514 156 540ZM783 108C909 108 952 198 952 491C952 710 893 809 708 809C577 809 457 782 358 748L374 668C474 702 585 729 708 729C840 729 873 639 873 491C873 286 852 186 783 186C736 186 679 199 634 215V127C680 115 738 108 783 108ZM357 -34H934V46H357ZM326 164 393 109C542 228 646 413 660 641L580 647C567 432 474 275 326 164ZM710 342 748 417C669 456 529 507 415 538L377 469C493 435 632 382 710 342Z" transform="translate(0, 880) scale(1,-1)" /></svg>