<svg xmlns="http://www.w3.org/2000/svg" width="1000" height="1000"><path d="M152 -12C266 -12 322 133 322 270C322 377 271 484 156 532L128 459C214 417 245 345 245 270C245 171 211 67 152 67C127 67 112 82 112 122C112 207 181 297 327 408L283 472C133 366 34 243 34 122C34 24 81 -12 152 -12ZM154 506 215 474C265 540 317 632 345 697L283 736L269 726H60V648H234C212 602 182 548 154 506ZM798 -53H893C952 -53 966 10 970 192L890 198C888 49 884 27 859 27H818C799 27 793 33 793 53C793 77 796 117 860 604L790 630L775 621H361V541H771C719 154 714 98 714 50C714 -30 736 -53 798 -53ZM319 -10 382 -68C586 106 613 351 642 823L563 827C534 355 509 149 319 -10ZM670 208 709 285C636 327 509 381 405 418L368 350C473 308 604 252 670 208Z" transform="translate(0, 880) scale(1,-1)" /></svg>