<svg xmlns="http://www.w3.org/2000/svg" width="1000" height="1000"><path d="M309 700 385 728C369 759 339 810 305 844L232 816C262 781 291 737 309 700ZM79 647H921V726H79ZM612 712 681 686C721 730 753 776 778 821L697 847C678 806 650 755 612 712ZM109 30H189V437H109ZM254 309C337 309 382 358 382 573H92V494H302C304 402 265 386 236 386C212 386 190 388 165 394V313C192 310 221 309 254 309ZM348 -6 373 -91C622 -62 925 35 925 232C925 316 859 374 678 374C496 374 382 336 382 230C382 159 441 105 535 105C629 105 696 144 696 243V619H616V253C616 205 584 185 535 185C487 185 462 202 462 230C462 278 515 296 678 296C802 296 845 272 845 232C845 89 570 14 348 -6ZM80 51 105 -24 368 52 343 128ZM413 429H934V508H413Z" transform="translate(0, 880) scale(1,-1)" /></svg>