<svg xmlns="http://www.w3.org/2000/svg" width="1000" height="1000"><path d="M152 -9C268 -9 325 139 325 277C325 385 273 494 156 542L127 469C216 426 247 353 247 277C247 178 213 71 152 71C127 71 111 86 111 127C111 214 181 305 330 418L286 482C133 374 33 250 33 127C33 27 80 -9 152 -9ZM154 516 215 484C266 551 320 644 348 711L286 749L272 739H58V661H237C215 613 183 559 154 516ZM587 538 647 486C736 561 834 668 892 756L830 804L817 799H403V719H762C723 668 663 602 587 538ZM467 229C495 291 521 360 544 430L472 454C422 305 368 188 289 125L346 75C370 92 402 124 428 153C451 156 473 134 489 77L610 144L581 213L517 185C511 204 494 219 467 229ZM604 317 563 259C706 184 830 97 919 11L975 88C880 159 756 239 604 317ZM661 355 697 288C780 325 841 356 911 411L859 478C795 425 743 392 661 355ZM609 603 537 562C617 437 665 320 665 191C665 112 652 11 595 11C562 11 530 17 499 34V-52C529 -62 564 -67 605 -67C721 -67 744 65 744 191C744 325 690 471 609 603Z" transform="translate(0, 880) scale(1,-1)" /></svg>