<svg xmlns="http://www.w3.org/2000/svg" width="1000" height="1000"><path d="M97 345 414 453 388 525 70 423ZM190 405V824H110V405ZM149 694V615H423V694ZM434 427 475 353C657 424 907 558 907 695C907 788 836 830 717 830C610 830 526 814 445 784L469 706C548 738 620 750 717 750C787 750 825 729 825 695C825 595 601 487 434 427ZM888 348 944 413C791 526 675 590 534 645L492 584C631 526 738 463 888 348ZM349 348 322 276C433 262 549 245 644 226L678 303C580 319 464 336 349 348ZM464 -80C545 -80 594 -53 594 48C594 114 561 163 498 208L433 168C487 127 514 91 514 48C514 14 497 -5 457 -5C413 -5 372 2 323 15V-65C367 -75 412 -80 464 -80ZM58 34 126 -12C187 35 249 107 286 168L206 202C176 146 119 78 58 34ZM877 -16 955 23C921 73 852 147 776 206L704 164C778 104 846 33 877 -16Z" transform="translate(0, 880) scale(1,-1)" /></svg>