<svg xmlns="http://www.w3.org/2000/svg" width="1000" height="1000"><path d="M267 7H335V285H267ZM62 597H426V668H62ZM739 -54H843C903 -54 922 -23 929 139L859 150C855 31 848 17 822 17H773C750 17 738 32 738 57V297H666V46C666 -29 680 -54 739 -54ZM468 597H920V668H468ZM868 255 939 269C932 346 920 426 902 505L833 491C849 414 861 333 868 255ZM267 628 198 640C172 544 140 455 108 401L163 354L183 374H311C255 267 145 100 47 -12L116 -64C208 48 318 228 419 420L353 459L342 439H209C229 486 249 550 267 628ZM659 614 589 627C557 534 519 447 481 395L542 352L562 374H706C648 268 537 107 424 -10L484 -69C590 47 709 226 818 420L758 456L742 439H591C614 483 637 543 659 614ZM728 672 779 730C732 769 680 805 620 840L575 784C633 749 684 711 728 672ZM294 673 345 731C298 770 246 806 186 841L141 785C199 750 250 712 294 673ZM232 3 270 -61 461 67 423 131Z" transform="translate(0, 880) scale(1,-1)" /></svg>