<svg xmlns="http://www.w3.org/2000/svg" width="1000" height="1000"><path d="M69 599H931V678H69ZM139 732H861V810H139ZM302 522 358 468 380 479H524C485 451 440 423 381 393L457 354C539 396 638 454 707 498L655 565L635 558H456C506 614 540 677 577 759L487 767C452 682 397 595 302 522ZM139 344H861V423H139ZM324 157 360 96C522 132 654 166 804 216L755 285L709 268L372 264C436 288 500 318 565 347L504 402C415 353 320 308 231 276C211 269 182 264 154 261L185 190L219 197L508 201C445 184 382 169 324 157ZM467 -90C541 -90 594 -48 594 31C594 92 560 138 498 180L431 143C485 104 511 71 511 31C511 -5 485 -21 456 -21C431 -21 379 -13 323 3V-72C371 -86 419 -90 467 -90ZM67 8 121 -34C184 4 248 66 286 117L214 148C184 101 128 46 67 8ZM877 -37 947 -2C913 40 844 103 768 152L704 114C778 63 846 4 877 -37Z" transform="translate(0, 880) scale(1,-1)" /></svg>