<svg xmlns="http://www.w3.org/2000/svg" width="1000" height="1000"><path d="M174 -18C302 -18 364 133 364 270C364 379 307 488 177 537L148 463C249 419 285 346 285 270C285 171 247 62 174 62C145 62 125 79 125 122C125 212 205 298 371 412L326 476C158 367 45 247 45 122C45 20 97 -18 174 -18ZM176 511 240 477C297 545 357 639 389 706L329 745L314 736H69V658H272C246 610 210 554 176 511ZM446 196 487 119 507 135 815 209V292L558 230V739H481V258C481 224 472 210 446 196ZM794 -69H872V830H794Z" transform="translate(0, 880) scale(1,-1)" /></svg>