<svg xmlns="http://www.w3.org/2000/svg" width="1000" height="1000"><path d="M161 692V614H873V692ZM609 710 647 783C556 810 479 830 395 851L359 781C450 758 524 737 609 710ZM203 588V749H123V566C123 492 167 452 278 452H873V530H284C227 530 203 546 203 588ZM692 -77C816 -77 850 -4 850 189C850 331 799 414 578 414C480 414 376 407 317 396L333 322C387 330 485 335 578 335C737 335 769 283 769 189C769 43 741 -7 685 -7C657 -7 624 -4 595 3V-70C626 -75 666 -77 692 -77ZM291 -75H541V3H302C260 3 237 19 237 49V208C237 252 246 301 267 339L194 360C166 315 157 275 157 212V38C157 -43 204 -75 291 -75ZM334 69H672V145H334ZM334 195H672V271H334Z" transform="translate(0, 880) scale(1,-1)" /></svg>