<svg xmlns="http://www.w3.org/2000/svg" width="1000" height="1000"><path d="M67 10 91 -67 562 53 538 130ZM47 544 110 492C199 592 266 697 321 815L246 844C196 736 128 630 47 544ZM200 34 263 -14 521 215 462 280 439 269H365L553 502L497 556L478 544C168 510 49 442 49 356C49 295 91 254 152 254C234 254 265 305 532 722L468 763L450 752H223V672H406C200 351 175 334 152 334C135 334 128 342 128 356C128 377 195 428 411 455L254 258L295 189H365ZM713 -60C754 -60 787 -26 787 34V474C836 539 887 633 923 724L856 761L847 751H564V671H810C782 606 744 545 709 500V53C709 31 700 20 688 19C662 18 631 27 603 44V-44C641 -56 671 -60 713 -60ZM532 170 603 136C633 220 659 334 675 437L598 449C584 352 559 243 532 170ZM889 126 964 148C949 232 918 354 886 453L813 428C845 327 874 210 889 126Z" transform="translate(0, 880) scale(1,-1)" /></svg>