<svg xmlns="http://www.w3.org/2000/svg" width="1000" height="1000"><path d="M550 427C550 505 515 553 394 553C296 553 234 514 234 475C234 424 312 386 447 386C721 386 897 439 897 545C897 627 801 671 587 671C560 671 532 670 504 668C573 682 669 705 799 743L751 807L728 802H151V731H593C510 709 402 683 286 655C262 649 231 644 197 638L230 578C320 598 443 611 550 611C728 611 811 583 811 545C811 484 665 451 447 451C361 451 320 462 320 477C320 491 348 499 393 499C442 499 469 476 469 427C469 288 276 119 194 119C161 119 142 132 142 153C142 222 342 282 613 282C805 282 842 218 842 161C842 61 703 -3 613 -3C527 -3 468 25 468 70C468 103 507 130 555 130C634 130 687 89 700 -13L776 1C756 127 684 187 556 187C456 187 388 130 388 65C388 -13 465 -69 613 -69C773 -69 921 11 921 161C921 265 866 352 613 352C299 352 67 280 67 153C67 85 115 48 194 48C309 48 550 252 550 427Z" transform="translate(0, 880) scale(1,-1)" /></svg>