<svg xmlns="http://www.w3.org/2000/svg" width="1000" height="1000"><path d="M171 -54C278 -54 331 108 331 257C331 373 282 491 175 545L144 472C225 425 255 340 255 257C255 149 224 26 171 26C149 26 134 45 134 99C134 195 198 290 338 416L291 478C146 359 56 230 56 99C56 -7 102 -54 171 -54ZM171 516 232 485C279 558 330 662 355 736L293 770L277 760H82V682H248C228 624 199 562 171 516ZM320 241 379 178C607 299 765 470 833 708L756 726C701 516 551 358 320 241ZM783 -91 818 -18C710 36 597 82 483 118L443 49C558 10 672 -36 783 -91ZM747 72 782 147C701 186 621 219 547 246L507 179C592 146 671 114 747 72ZM357 632 429 588C494 647 559 728 604 803L526 836C489 766 419 683 357 632ZM753 190H863C910 190 937 215 953 327L874 339C868 280 862 268 840 268H777C750 268 741 281 741 306V422H662V282C662 218 695 190 753 190ZM342 433 402 382C480 438 516 477 533 486C606 527 687 540 752 540C818 540 847 529 847 499C847 468 819 452 788 452C746 452 709 463 678 486L636 413C685 386 736 373 788 373C869 373 925 407 925 499C925 596 855 619 752 619C696 619 659 613 619 600C652 643 682 686 713 733L649 772L635 762H503V682H588C523 587 450 514 342 433Z" transform="translate(0, 880) scale(1,-1)" /></svg>