<svg xmlns="http://www.w3.org/2000/svg" width="1000" height="1000"><path d="M58 132 322 266 292 335 29 209ZM145 -56C191 -56 229 -35 229 32V700H149V58C149 34 143 21 123 21C105 21 84 24 60 38V-44C90 -53 118 -56 145 -56ZM47 421H310V500H47ZM49 727 53 645C136 650 248 668 317 688L302 768C238 747 133 729 49 727ZM524 8 595 -37C679 35 710 135 710 185C710 260 659 306 570 306C492 306 438 263 438 190C438 115 490 76 594 76C773 76 916 123 916 283C916 406 836 467 683 467C660 467 641 466 619 464C727 521 828 573 908 620L860 687L832 675H337V595H719C632 542 545 490 450 440C410 419 360 402 318 382L360 309C463 357 541 387 680 387C775 387 837 361 837 283C837 184 728 151 594 151C543 151 517 165 517 190C517 215 538 231 570 231C605 231 631 215 631 185C631 136 593 57 524 8ZM738 670 777 742C686 781 602 816 522 842L477 776C563 746 648 712 738 670ZM964 28H300V-51H964Z" transform="translate(0, 880) scale(1,-1)" /></svg>