<svg xmlns="http://www.w3.org/2000/svg" width="1000" height="1000"><path d="M149 -10C265 -10 323 145 323 287C323 399 270 511 153 562L123 489C213 444 245 366 245 287C245 184 210 69 149 69C124 69 107 85 107 129C107 221 178 317 329 436L283 499C129 386 29 256 29 129C29 25 77 -10 149 -10ZM150 535 213 503C264 573 318 670 346 740L284 777L270 767H54V689H237C214 638 181 580 150 535ZM811 256 877 224C915 290 953 361 983 427L914 466L904 455H342V376H870C854 336 833 296 811 256ZM604 -68C668 -68 697 -37 697 37V413H618V47C618 24 610 10 589 10C555 10 509 19 463 35V-51C502 -61 553 -68 604 -68ZM736 471 783 538C710 584 626 623 546 648L508 580C589 551 671 513 736 471ZM649 589 720 547C785 603 872 695 917 757L857 813L842 805H400V725H783C744 679 698 631 649 589Z" transform="translate(0, 880) scale(1,-1)" /></svg>