<svg xmlns="http://www.w3.org/2000/svg" width="1000" height="1000"><path d="M310 666 385 694C368 731 336 794 301 835L228 807C261 765 291 712 310 666ZM79 601H921V680H79ZM612 674 680 649C721 702 756 759 782 813L700 839C681 788 651 726 612 674ZM316 -62H753C857 -62 877 2 889 138L809 143C803 35 795 18 740 18H334C278 18 267 31 267 81V541H187V78C187 -33 212 -62 316 -62ZM364 137 418 85C537 151 674 238 791 331L714 378C608 290 473 199 364 137ZM346 333 402 285C497 341 595 406 698 488L618 535C528 458 432 387 346 333Z" transform="translate(0, 880) scale(1,-1)" /></svg>