<svg xmlns="http://www.w3.org/2000/svg" width="1000" height="1000"><path d="M26 374 106 356C129 468 150 625 160 751L81 757C70 626 50 475 26 374ZM85 530H333V610H85ZM183 -63C238 -63 260 -28 260 32V801H181V44C181 25 175 15 162 15C134 15 104 22 73 37V-47C105 -57 138 -63 183 -63ZM352 286 316 358 27 214 62 143ZM670 314H590C590 107 494 30 292 -6L328 -82C543 -39 670 69 670 314ZM320 135H938V213H320ZM921 -87 966 -17C903 32 794 96 696 140L654 78C751 30 863 -39 921 -87ZM310 444 334 366C434 408 576 437 718 437C831 437 857 420 857 396C857 378 851 358 840 337L914 306C926 334 935 363 935 400C935 480 870 516 718 516C540 516 411 490 310 444ZM898 622H359V544H898ZM669 586V843H589V586ZM313 680H945V758H313ZM424 287H833V365H424Z" transform="translate(0, 880) scale(1,-1)" /></svg>