<svg xmlns="http://www.w3.org/2000/svg" width="1000" height="1000"><path d="M52 420 84 344C379 429 659 520 917 621L877 688C626 592 340 500 52 420ZM113 391H193V770H113ZM921 348 951 423C672 479 529 538 511 837H429C438 532 601 404 921 348ZM294 657 339 585C499 629 665 684 803 737L753 803C624 753 471 702 294 657ZM590 275 510 320C413 224 242 137 75 72L129 10C300 79 483 176 590 275ZM552 4V-74C799 -99 876 -38 876 50C876 137 796 186 655 186C560 186 471 162 404 113V158H324V-62H404V56C497 95 573 109 654 109C747 109 791 85 791 50C791 4 741 -20 552 4ZM115 266H893V343H115Z" transform="translate(0, 880) scale(1,-1)" /></svg>