<svg xmlns="http://www.w3.org/2000/svg" width="1000" height="1000"><path d="M67 137 312 276 280 344 36 214ZM144 -57C189 -57 227 -36 227 31V721H147V57C147 33 143 20 123 20C106 20 85 23 62 37V-45C91 -54 119 -57 144 -57ZM56 435H299V515H56ZM55 748 58 666C137 671 244 689 309 710L294 789C234 768 134 750 55 748ZM534 297 577 249 802 368 752 425ZM327 362H942V440H327ZM650 436 696 383C766 434 838 472 838 550C838 627 764 655 630 655C501 655 415 628 415 556C415 493 470 463 570 463C644 463 674 497 674 547V841H595V579C595 550 589 538 562 538C527 538 503 544 503 556C503 568 528 579 630 579C708 579 753 570 753 548C753 524 711 471 650 436ZM333 679H934V757H333ZM683 322C582 321 475 298 335 241L364 165C488 226 586 243 683 243C766 243 857 214 857 125C857 28 783 1 699 1C598 1 497 27 497 80C497 105 527 119 586 119C636 119 655 113 655 92C655 72 632 31 543 -4L577 -46C670 -14 735 34 735 92C735 161 666 197 586 197C511 197 418 156 418 80C418 -26 543 -78 699 -78C838 -78 935 2 935 125C935 272 812 323 683 322Z" transform="translate(0, 880) scale(1,-1)" /></svg>