<svg xmlns="http://www.w3.org/2000/svg" width="1000" height="1000"><path d="M73 -18H145V617C188 647 230 657 261 657C309 657 349 612 349 379C349 160 318 73 279 73C245 73 223 80 209 89V12C223 7 245 3 282 3C384 3 423 87 423 379C423 658 376 731 261 731C223 731 184 714 145 684V727H73ZM116 199 181 159C250 276 332 453 359 538L292 571C263 484 196 310 116 199ZM283 234 341 283C295 349 228 423 182 469L134 423C186 370 242 292 283 234ZM422 600H923V678H422ZM470 391H875V469H470ZM713 -1V829H633V-1ZM470 177H875V255H470ZM947 31H398V-47H947Z" transform="translate(0, 880) scale(1,-1)" /></svg>