<svg xmlns="http://www.w3.org/2000/svg" width="1000" height="1000"><path d="M533 733H236V470C236 325 228 122 139 -23L210 -60C303 92 316 317 316 470V654H943V733H622L569 846L490 828ZM256 305 161 266V592H81V280C81 246 63 227 51 219L81 144L285 230ZM333 -12 387 -78C597 34 760 237 818 506L753 534L737 524H532V444H717C656 247 525 85 333 -12ZM327 272 394 221C497 325 577 475 620 621L544 641C496 490 418 356 327 272ZM898 -71 963 -18C874 93 788 181 691 262L635 210C725 133 811 42 898 -71Z" transform="translate(0, 880) scale(1,-1)" /></svg>