<svg xmlns="http://www.w3.org/2000/svg" width="1000" height="1000"><path d="M181 -48C306 -48 352 110 352 260C352 501 273 574 71 544V466C238 489 272 446 272 252C272 157 239 32 181 32C150 32 133 55 133 95C133 188 220 312 388 395L353 464C170 373 53 223 53 95C53 1 110 -48 181 -48ZM296 613 340 682C261 728 196 761 122 788L86 720C160 692 222 660 296 613ZM380 477H934V559H380ZM425 702H889V784H425ZM509 313 579 267 593 281H688C655 225 608 159 553 98L625 60C690 133 769 240 820 315L749 371L734 361H623C670 462 697 582 719 724L640 732C616 582 580 440 509 313ZM898 -73 933 7C760 71 590 119 426 154L385 78C560 39 731 -9 898 -73Z" transform="translate(0, 880) scale(1,-1)" /></svg>