<svg xmlns="http://www.w3.org/2000/svg" width="1000" height="1000"><path d="M532 750H206V470C206 325 198 122 110 -23L178 -60C271 92 284 317 284 470V672H943V750H621L575 845L496 827ZM225 291 147 261V592H69V274C69 240 51 221 39 213L67 141L252 219ZM471 241 537 196C610 249 665 289 665 368C665 446 595 480 484 480C383 480 316 449 316 377C316 309 357 275 439 275C493 275 537 303 537 364V647H458V385C458 363 450 354 432 354C412 354 395 363 395 377C395 391 417 402 484 402C546 402 585 388 585 368C585 330 554 297 471 241ZM307 135 706 233 687 306 284 211ZM295 499H698V577H295ZM796 638V193H875V638ZM707 229V151H964V229ZM269 -39 338 -76C385 -28 424 37 442 100L370 130C354 69 311 2 269 -39ZM634 -71C675 -71 709 -54 752 -14L693 36C673 15 662 11 643 11C625 11 613 26 594 122L515 108C548 -41 583 -71 634 -71ZM894 -73 963 -37C937 12 886 84 842 137L780 96C827 41 870 -27 894 -73Z" transform="translate(0, 880) scale(1,-1)" /></svg>