<svg xmlns="http://www.w3.org/2000/svg" width="1000" height="1000"><path d="M212 652 282 677C265 718 220 773 180 814L112 792C149 753 190 692 212 652ZM478 672 555 690C542 735 507 792 471 840L398 822C431 775 464 716 478 672ZM697 669 765 654C807 697 853 756 886 808L806 829C781 779 737 717 697 669ZM583 232 643 202C712 226 782 280 782 324C782 384 714 430 512 430C341 430 229 396 229 342C229 284 303 264 410 264C542 264 594 311 594 406V625H514V406C514 346 481 325 410 325C340 325 310 332 310 340C310 353 379 369 512 369C657 369 695 341 695 322C695 300 659 262 583 232ZM189 457H903V525H189ZM874 598V669H126V598ZM88 370 159 346C196 409 230 484 258 558L187 572C161 495 126 426 88 370ZM563 253C392 253 258 231 132 201L160 140C287 174 409 190 563 190C692 190 754 175 754 148C754 79 360 -6 260 -6C206 -6 186 16 186 31C186 52 208 74 289 74C425 74 638 -29 893 -102L947 -43C699 25 451 139 289 139C180 139 103 95 103 31C103 -19 154 -81 260 -81C429 -81 849 38 849 148C849 209 745 253 563 253Z" transform="translate(0, 880) scale(1,-1)" /></svg>