<svg xmlns="http://www.w3.org/2000/svg" width="1000" height="1000"><path d="M167 -44C281 -44 338 109 338 251C338 362 286 474 171 525L141 452C229 407 260 329 260 251C260 148 226 35 167 35C142 35 126 51 126 94C126 184 196 281 344 399L298 462C147 350 48 219 48 94C48 -9 95 -44 167 -44ZM168 498 230 466C280 535 334 632 361 702L299 738L285 729H73V651H253C230 600 198 542 168 498ZM526 276H789V356H526ZM618 317H696V840H618ZM424 630 438 558C491 574 549 582 622 582H769C820 582 844 555 844 496V44C844 16 841 2 819 2C795 2 760 8 720 21V-66C758 -72 792 -77 822 -77C888 -77 923 -46 923 32V506C923 603 880 661 776 661H621C541 661 483 650 424 630ZM470 -80V661H392V-80Z" transform="translate(0, 880) scale(1,-1)" /></svg>