<svg xmlns="http://www.w3.org/2000/svg" width="1000" height="1000"><path d="M494 718 573 736C559 772 535 813 510 845L434 826C457 795 483 751 494 718ZM815 582 893 558C914 602 922 630 922 653C922 731 818 768 587 768C419 768 264 741 164 706V752H84V575H164V640C276 670 433 689 587 689C782 689 837 671 837 645C837 630 832 614 815 582ZM68 33 118 -34C382 75 633 231 763 337L695 399L674 382H467C575 437 684 502 789 573L726 635C615 552 487 468 285 380C272 374 253 367 233 364L271 289L312 303H582C483 237 296 127 68 33ZM516 -77C569 -77 616 -69 673 -37V45C614 14 571 -2 531 -2C509 -2 499 2 499 33V184H419V16C419 -50 450 -77 516 -77ZM873 -30 930 36C835 92 737 150 630 204L579 146C683 89 780 30 873 -30ZM391 450 443 513C392 553 322 597 257 633L208 570C278 534 343 492 391 450Z" transform="translate(0, 880) scale(1,-1)" /></svg>