<svg xmlns="http://www.w3.org/2000/svg" width="1000" height="1000"><path d="M57 152H955V223H57ZM563 211H653C722 241 782 294 782 336C782 396 714 454 512 454C321 454 209 411 209 356C209 294 283 269 390 269C522 269 594 307 594 414V697H514V424C514 347 461 327 390 327C320 327 290 342 290 355C290 374 359 394 512 394C657 394 695 357 695 333C695 307 649 253 563 211ZM109 499H913V569H109ZM16 628 68 577C202 645 331 728 434 829L356 862C269 772 146 689 16 628ZM505 742C449 699 368 648 295 616L343 568C461 625 603 710 686 768L633 809L614 804H297V742ZM57 -58 126 -89C188 -37 240 36 262 110L187 131C168 60 113 -13 57 -58ZM524 -84C565 -84 603 -70 661 -28L607 28C577 -2 558 -10 534 -10C510 -10 497 14 464 129L388 113C435 -48 478 -84 524 -84ZM873 -85 951 -58C916 -4 850 75 792 132L723 100C785 40 841 -34 873 -85Z" transform="translate(0, 880) scale(1,-1)" /></svg>