<svg xmlns="http://www.w3.org/2000/svg" width="1000" height="1000"><path d="M75 131 352 269 322 337 46 208ZM168 -61C214 -61 252 -40 252 27V711H172V53C172 29 167 16 146 16C128 16 106 19 81 33V-50C112 -58 141 -61 168 -61ZM64 426H339V506H64ZM67 738 71 656C159 661 274 679 346 700L330 779C264 758 155 740 67 738ZM352 9 384 -71C641 7 769 301 853 699L775 716C694 332 572 63 352 9ZM297 154 375 127C413 220 440 355 454 469L378 480C365 370 336 240 297 154ZM874 -71 907 9C721 43 563 316 520 615L441 604C491 248 687 -31 874 -71ZM654 567 723 611C680 681 605 779 548 836L486 789C544 732 613 637 654 567ZM894 130 971 157C951 248 908 386 864 489L792 465C834 361 876 227 894 130Z" transform="translate(0, 880) scale(1,-1)" /></svg>