<svg xmlns="http://www.w3.org/2000/svg" width="1000" height="1000"><path d="M34 197 103 162 114 181 338 263 318 341 156 285 215 448 145 471ZM229 495V61C229 38 223 25 204 25C178 25 150 31 113 46V-40C153 -49 188 -52 223 -52C271 -52 309 -31 309 36V575H59V495ZM227 603 288 657C249 703 206 745 157 786L100 734C148 692 191 648 227 603ZM856 -80 931 -41C899 47 833 180 769 279L697 247C757 152 822 15 856 -80ZM685 373V831H606V373ZM347 581H947V661H347ZM915 412H377V331H915ZM647 346 566 377C519 254 463 142 412 56C402 40 392 28 376 23L405 -55L426 -46L842 6L827 83L490 43C544 129 599 233 647 346Z" transform="translate(0, 880) scale(1,-1)" /></svg>