<svg xmlns="http://www.w3.org/2000/svg" width="1000" height="1000"><path d="M181 -64C232 -64 259 -41 259 26V784H181V34C181 20 176 12 165 12C141 12 115 19 81 34V-53C114 -60 146 -64 181 -64ZM30 535 71 465C185 520 291 586 377 654L323 712C242 646 141 585 30 535ZM30 188 96 156 108 175 367 270 349 345 149 266 234 505 171 532ZM691 181C861 181 950 240 950 385C950 540 795 576 493 530L503 450C729 489 871 465 871 385C871 298 804 261 691 261C610 261 515 268 401 293V209C512 187 607 181 691 181ZM588 -79C643 -79 681 -58 681 16V380H602V33C602 11 594 -1 578 -1C545 -1 503 10 465 24V-62C501 -71 542 -79 588 -79ZM333 530 389 470C500 590 565 703 611 821L531 838C495 742 428 625 333 530ZM602 537 668 499C735 586 788 663 833 736L770 789L754 779H531V699H714C689 659 656 608 602 537Z" transform="translate(0, 880) scale(1,-1)" /></svg>