<svg xmlns="http://www.w3.org/2000/svg" width="1000" height="1000"><path d="M608 769H64V696H608ZM376 613V841H296V613ZM565 645H107V573H565ZM515 408 595 391C602 426 603 443 603 452C603 509 555 549 372 549C273 549 205 540 144 524V534H66V406H144V456C209 467 280 472 372 472C499 472 526 461 526 445C526 439 524 430 515 408ZM779 456 849 435C887 522 926 637 951 743L887 767L875 757H732V677H854C838 610 813 533 779 456ZM613 -12 663 -83C775 -2 955 178 955 335C955 431 920 478 819 478C744 478 687 461 631 440L650 360C704 386 753 397 819 397C859 397 873 374 873 335C873 208 728 61 613 -12ZM922 -86 983 -25C879 114 804 190 708 257L656 200C751 130 819 55 922 -86ZM616 536 686 502C724 590 761 698 791 808L720 829C691 718 655 617 616 536ZM84 27 597 104 582 177 71 105ZM299 -80C350 -80 388 -59 388 5V373H308V30C308 7 296 -6 269 -6C241 -6 210 0 171 14V-69C216 -76 256 -80 299 -80ZM77 193H589V271H77ZM111 401 119 320C271 326 448 344 570 363L551 440C437 420 263 403 111 401Z" transform="translate(0, 880) scale(1,-1)" /></svg>