<svg xmlns="http://www.w3.org/2000/svg" width="1000" height="1000"><path d="M38 59 97 12C191 97 260 250 260 375C260 461 211 497 150 497C89 497 40 455 40 375C40 295 98 252 162 255C146 199 107 118 38 59ZM151 326C125 326 107 342 107 375C107 407 126 426 151 426C173 426 194 407 194 375C194 342 173 326 151 326ZM236 401V713H158V466ZM39 738V660H270V738ZM15 63 40 -13 279 71 254 147ZM257 716V638H962V716ZM457 516 538 540C518 620 477 747 441 835L365 810C400 724 440 597 457 516ZM672 538 745 515C778 589 822 710 854 810L775 835C751 740 706 617 672 538ZM353 556V478H867V556ZM293 359 316 287C408 327 515 360 669 360C795 360 848 334 848 295C848 227 702 218 442 243V165C746 141 928 144 928 295C928 375 865 438 669 438C491 438 382 402 293 359ZM254 -9 295 -82C617 -4 656 126 656 295H576C576 137 554 64 254 -9ZM915 -87 967 -21C878 34 778 88 693 128L648 63C737 20 836 -35 915 -87Z" transform="translate(0, 880) scale(1,-1)" /></svg>