<svg xmlns="http://www.w3.org/2000/svg" width="1000" height="1000"><path d="M436 284C498 284 543 307 543 375V562C658 612 776 684 858 754L798 814L781 806H129V728H669C613 685 536 644 463 614V393C463 372 448 362 423 360C377 360 322 368 271 385V299C325 288 372 284 436 284ZM54 398 120 352C187 416 247 503 285 583L206 612C173 538 115 454 54 398ZM877 345 953 382C917 446 848 540 774 615L704 575C776 499 844 409 877 345ZM112 250V171H888V250ZM59 -40 124 -83C183 -33 235 34 260 99L188 132C166 70 111 4 59 -40ZM524 -75C566 -75 606 -62 662 -23L607 40C577 15 559 9 536 9C512 9 496 30 467 122L386 104C432 -42 476 -75 524 -75ZM878 -80 947 -36C912 13 846 86 788 138L728 88C790 34 846 -34 878 -80Z" transform="translate(0, 880) scale(1,-1)" /></svg>