<svg xmlns="http://www.w3.org/2000/svg" width="1000" height="1000"><path d="M215 598 284 634C263 683 222 755 182 808L115 774C152 723 193 649 215 598ZM478 626 555 652C540 708 507 779 471 840L398 815C432 755 464 681 478 626ZM696 625 763 594C805 652 851 728 884 795L805 826C780 763 736 684 696 625ZM210 -83C260 -83 290 -61 290 4V596H212V7C212 -7 207 -15 194 -15C168 -15 136 -7 101 7V-72C135 -79 172 -83 210 -83ZM65 390H400V467H65ZM413 259 382 327 43 184 77 113ZM627 79 671 7C838 55 915 151 915 250C915 355 858 429 668 429C530 429 436 364 436 279C436 219 476 161 567 161C678 161 748 236 748 365V491H943V566H402V491H674V376C674 301 633 229 567 229C528 229 511 255 511 279C511 316 566 359 668 359C800 358 841 305 841 254C841 193 766 117 627 79ZM936 -76 948 6C770 -10 635 -9 549 21C496 39 460 80 445 144L370 120C392 27 441 -29 510 -52C605 -83 745 -92 936 -76Z" transform="translate(0, 880) scale(1,-1)" /></svg>