<svg xmlns="http://www.w3.org/2000/svg" width="1000" height="1000"><path d="M138 340H400V420H138ZM45 155H491V235H45ZM44 393 105 340C289 449 309 616 310 840H231C231 629 221 495 44 393ZM424 336 495 381C446 456 400 533 364 595L297 551C338 489 383 410 424 336ZM62 701 67 619C211 625 369 640 484 659L471 738C362 716 207 702 62 701ZM240 -79C294 -79 322 -44 322 16V368H244V26C244 9 237 -3 218 -3C197 -3 169 2 128 16V-64C170 -75 205 -79 240 -79ZM728 -65C760 -65 787 -59 822 -42V45C795 27 772 16 755 16C741 16 737 26 737 48V592H659V33C659 -37 684 -65 728 -65ZM479 3 552 -27C584 139 610 349 622 522L546 533C534 370 509 162 479 3ZM881 -20 958 13C926 213 894 391 857 550L782 522C820 354 850 191 881 -20ZM523 760V680H908V760Z" transform="translate(0, 880) scale(1,-1)" /></svg>