<svg xmlns="http://www.w3.org/2000/svg" width="1000" height="1000"><path d="M172 -66C281 -66 335 98 335 248C335 364 284 483 175 537L144 464C227 417 258 331 258 248C258 139 226 14 172 14C149 14 134 34 134 88C134 186 200 281 341 408L294 470C148 350 56 220 56 88C56 -19 102 -66 172 -66ZM172 508 234 477C281 551 333 656 358 730L297 764L281 754H82V676H251C231 617 201 555 172 508ZM372 131 673 278 650 345 349 208ZM476 -73C523 -73 557 -52 557 16V747H484V36C484 12 475 -1 462 -1C440 -1 415 3 385 17V-61C417 -70 448 -73 476 -73ZM360 447H660V526H360ZM381 772 386 694C474 699 576 717 647 738L636 813C571 792 470 774 381 772ZM727 131 758 66C888 172 932 215 932 306C932 383 889 444 775 484C848 550 903 627 963 746L887 787L880 772H673V694H845C795 605 753 548 680 492L686 427C827 384 855 338 855 306C855 265 832 221 727 131ZM903 -96 955 -35C897 21 773 113 678 168L633 107C725 51 845 -38 903 -96Z" transform="translate(0, 880) scale(1,-1)" /></svg>