<svg xmlns="http://www.w3.org/2000/svg" width="1000" height="1000"><path d="M574 492 652 481C662 499 667 518 667 536C667 589 616 644 503 644C385 644 344 591 344 545C344 497 408 449 546 449C758 449 879 520 879 648C879 746 813 821 598 821C395 821 276 780 183 735L221 677C315 719 442 753 598 753C744 753 791 702 791 648C791 558 712 507 546 507C462 507 426 520 426 545C426 568 449 587 503 587C553 587 584 570 584 536C584 520 581 505 574 492ZM163 801V473H244V801ZM875 -84 910 -15C635 24 390 51 146 72L102 4C366 -20 622 -48 875 -84ZM83 217 155 187C218 232 259 307 284 369L211 391C189 331 146 261 83 217ZM698 215 761 189C809 234 869 305 913 364L833 391C802 336 744 261 698 215ZM559 416 479 421C457 324 414 261 326 187L373 137L402 144H526C479 107 413 67 339 31L407 5C497 50 617 114 685 159L627 217L605 209H449C510 269 538 320 559 416Z" transform="translate(0, 880) scale(1,-1)" /></svg>