<svg xmlns="http://www.w3.org/2000/svg" width="1000" height="1000"><path d="M95 51 157 3C258 87 334 247 334 363C334 452 290 499 228 499C161 499 104 455 104 373C104 289 162 244 230 254C215 196 171 113 95 51ZM222 321C194 321 173 339 173 374C173 407 195 427 222 427C246 427 268 406 268 376C268 339 246 321 222 321ZM309 400V735H230V467ZM66 760V682H373V760ZM44 42 68 -36 382 70 359 148ZM393 477H941V559H393ZM438 702H896V784H438ZM520 312 590 267 604 281H697C664 225 618 159 564 98L636 60C700 133 778 240 828 316L758 371L742 361H634C680 462 707 582 729 724L649 732C626 582 591 440 520 312ZM905 -73 940 7C769 71 601 119 439 154L398 78C571 39 740 -9 905 -73Z" transform="translate(0, 880) scale(1,-1)" /></svg>