<svg xmlns="http://www.w3.org/2000/svg" width="1000" height="1000"><path d="M171 -44C290 -44 347 109 347 250C347 361 294 473 175 523L145 450C237 405 270 328 270 250C270 148 234 35 171 35C145 35 128 51 128 95C128 186 201 280 354 397L308 461C152 349 50 221 50 95C50 -8 98 -44 171 -44ZM173 496 235 464C287 533 343 630 371 699L309 736L295 727H74V649H261C237 599 203 541 173 496ZM350 700 392 634C453 682 536 728 679 728C827 728 857 625 857 505C857 345 803 264 706 264C631 264 565 268 490 281L480 203C555 189 631 188 706 188C877 188 935 316 935 505C935 662 900 808 679 808C512 808 413 750 350 700ZM359 -49H933V27H359ZM589 -12H668V662H589ZM479 439H778V519H479Z" transform="translate(0, 880) scale(1,-1)" /></svg>