<svg xmlns="http://www.w3.org/2000/svg" width="1000" height="1000"><path d="M141 -34C246 -34 300 110 300 248C300 355 252 462 145 510L117 438C195 395 223 323 223 248C223 149 192 45 141 45C119 45 106 59 106 98C106 181 168 275 303 386L260 450C119 343 29 218 29 98C29 0 73 -34 141 -34ZM142 484 202 453C247 519 295 611 320 676L257 714L244 704H56V626H214C195 579 168 526 142 484ZM534 364 598 314C676 354 757 439 757 531C757 599 715 644 618 644C521 644 483 600 483 538C483 469 541 432 653 432C827 432 925 495 925 629C925 727 873 808 682 808C510 808 401 763 313 713L356 643C439 688 555 728 682 728C814 728 846 680 846 629C846 553 778 506 653 506C587 506 563 520 563 538C563 556 581 572 618 572C654 572 677 558 677 531C677 468 617 407 534 364ZM789 129 816 47C903 77 959 140 960 234C960 327 889 389 697 389C554 389 405 360 296 324L315 247C420 282 571 309 697 309C834 309 877 275 877 232C877 175 843 146 789 129ZM465 213V134H742V213ZM325 26V-54H902V26Z" transform="translate(0, 880) scale(1,-1)" /></svg>