<svg xmlns="http://www.w3.org/2000/svg" width="1000" height="1000"><path d="M226 672 251 607C382 671 530 710 643 710C740 710 774 689 774 657C774 600 627 565 360 540L370 461C723 493 856 557 856 657C856 749 785 789 643 789C484 789 346 741 226 672ZM452 60C514 60 558 92 558 159V524H478V172C478 153 463 137 439 137C387 136 333 145 280 163V77C336 64 382 60 452 60ZM930 285 950 367C734 394 445 395 64 366V290C441 316 729 310 930 285ZM86 523 150 474C256 574 335 698 378 823L298 843C257 721 177 601 86 523ZM100 28V-52H900V28Z" transform="translate(0, 880) scale(1,-1)" /></svg>