<svg xmlns="http://www.w3.org/2000/svg" width="1000" height="1000"><path d="M155 -5C270 -5 327 143 327 282C327 391 276 500 159 549L130 475C218 432 250 358 250 282C250 182 215 74 155 74C130 74 114 89 114 131C114 218 184 310 333 424L288 488C136 379 36 254 36 131C36 30 83 -5 155 -5ZM157 522 218 490C269 558 322 651 350 718L288 756L275 747H61V669H240C217 620 186 565 157 522ZM342 556 407 493C499 572 585 681 663 809L587 844C513 722 429 625 342 556ZM329 333 364 257C607 324 778 455 892 699L829 740L815 731H531V651H771C699 505 555 393 329 333ZM921 257 963 332C798 423 657 484 495 540L457 466C620 410 759 348 921 257ZM856 -89 896 -13C788 39 590 121 437 166L395 90C551 42 751 -33 856 -89ZM769 143 809 217C743 247 642 284 563 307L524 238C602 215 706 176 769 143Z" transform="translate(0, 880) scale(1,-1)" /></svg>