<svg xmlns="http://www.w3.org/2000/svg" width="1000" height="1000"><path d="M252 698 180 707C147 477 90 269 34 113L103 80C158 241 217 470 252 698ZM221 63C212 63 206 75 206 102C206 144 227 238 293 342L241 380C169 277 130 170 130 102C130 30 169 -13 221 -13C299 -13 329 60 329 220C329 380 289 445 226 445C189 445 162 427 142 391L155 320C177 351 202 368 225 368C243 368 253 315 253 220C253 96 237 63 221 63ZM62 674H340V751H62ZM453 325C566 325 605 412 605 508C605 613 548 693 473 761L415 720C488 658 530 584 530 508C530 446 504 397 453 397C431 397 419 410 419 433C419 474 470 521 620 604L574 662C424 583 343 513 343 433C343 362 389 325 453 325ZM329 729 368 663C460 694 547 728 616 764L578 831C508 792 422 758 329 729ZM640 726V650H922V726ZM628 566V488H935V566ZM741 836V321H821V836ZM594 -82C655 -82 684 -54 684 6V400H605V18C605 1 596 -12 581 -12C552 -12 515 -3 480 10V-69C515 -77 554 -82 594 -82ZM334 29 391 -25C446 16 507 79 545 144L477 176C445 119 388 63 334 29ZM346 208H929V287H346ZM880 -28 938 20C906 64 837 130 782 174L726 129C781 83 849 15 880 -28Z" transform="translate(0, 880) scale(1,-1)" /></svg>