<svg xmlns="http://www.w3.org/2000/svg" width="1000" height="1000"><path d="M808 531 882 503C910 556 920 589 920 617C920 711 818 735 587 735C394 735 220 702 104 659L128 584C250 629 420 655 587 655C782 655 839 638 839 611C839 592 832 571 808 531ZM523 123 577 71C685 133 808 215 913 303L837 349C742 266 620 181 523 123ZM517 306 573 259C659 312 747 373 840 450L761 496C680 423 594 356 517 306ZM319 -55H746C856 -55 892 -15 903 149L823 159C818 44 801 25 744 25H321C258 25 219 35 219 68C219 106 231 131 573 426L516 495L492 482H347C412 572 490 694 557 817L480 850C405 714 288 528 204 444L267 386L289 402H425C150 161 138 123 138 61C138 -12 193 -55 319 -55ZM172 730H92V522H172Z" transform="translate(0, 880) scale(1,-1)" /></svg>