<svg xmlns="http://www.w3.org/2000/svg" width="1000" height="1000"><path d="M265 654 191 667C154 460 89 272 25 131L94 96C157 242 225 448 265 654ZM233 87C219 87 210 98 210 123C210 160 237 241 313 333L260 372C177 279 134 187 134 122C134 54 176 14 233 14C317 14 353 80 353 226C353 374 308 434 239 434C197 434 165 417 143 384L157 316C182 344 212 359 238 359C264 359 277 311 277 226C277 118 255 87 233 87ZM51 629H370V706H51ZM514 617 590 642C577 689 552 766 526 818L450 793C476 741 500 674 514 617ZM365 534H956V614H365ZM728 617 798 597C830 663 856 735 876 802L793 823C779 758 755 681 728 617ZM386 -28 655 65 628 140 356 46ZM458 66 528 46C572 132 625 266 661 380L590 414L576 401H385V321H557C533 245 494 145 458 66ZM770 20H849V437H770ZM952 56H703V-24H952Z" transform="translate(0, 880) scale(1,-1)" /></svg>