<svg xmlns="http://www.w3.org/2000/svg" width="1000" height="1000"><path d="M532 760H186V470C186 325 177 122 89 -23L158 -60C251 92 264 317 264 470V682H943V760H621L575 855L496 837ZM205 291 127 261V592H49V274C49 240 31 221 19 213L47 141L232 219ZM307 533 348 467C400 501 506 546 652 546C813 546 839 502 839 440C839 353 782 322 680 322C601 322 527 327 447 338V255C527 246 601 244 680 244C850 244 918 317 918 440C918 548 873 625 652 625C474 625 362 570 307 533ZM440 400H754V478H440ZM409 -69C641 -69 660 280 663 721H584C584 319 563 10 409 10C366 10 343 27 343 62C343 101 375 122 437 122C576 122 701 -4 925 -69L958 8C717 75 620 200 437 200C342 200 263 156 263 62C263 -29 319 -69 409 -69Z" transform="translate(0, 880) scale(1,-1)" /></svg>