<svg xmlns="http://www.w3.org/2000/svg" width="1000" height="1000"><path d="M25 183 94 150 104 169 311 246 293 325 144 272 197 431 128 451ZM206 474V53C206 31 200 17 183 17C159 17 132 23 98 38V-47C136 -56 169 -59 202 -59C250 -59 286 -38 286 29V554H51V474ZM205 580 266 633C230 678 190 719 144 759L87 708C131 667 171 624 205 580ZM334 9 366 -71C631 7 763 301 849 699L771 716C687 332 561 63 334 9ZM278 154 356 127C395 219 423 355 437 469L361 480C348 370 318 240 278 154ZM872 -71 906 9C713 43 550 316 505 615L426 604C478 248 680 -31 872 -71ZM646 567 715 611C671 681 594 779 534 836L473 789C533 732 605 637 646 567ZM894 129 971 157C951 248 906 386 861 489L788 465C832 361 875 226 894 129Z" transform="translate(0, 880) scale(1,-1)" /></svg>