<svg xmlns="http://www.w3.org/2000/svg" width="1000" height="1000"><path d="M225 642 291 680C270 718 230 773 190 814L126 779C162 739 203 682 225 642ZM485 665 559 692C543 735 511 791 476 838L405 812C438 766 470 708 485 665ZM699 671 763 638C804 683 849 743 882 796L806 829C782 780 738 718 699 671ZM815 469 889 443C911 490 920 519 920 546C920 626 818 670 587 670C418 670 264 642 164 604V654H84V460H164V536C276 569 433 591 587 591C782 591 839 570 839 540C839 522 833 505 815 469ZM89 252 162 216C221 297 274 412 299 504L222 522C195 429 144 322 89 252ZM207 342H854V421H207ZM464 -81C524 -81 559 -44 559 16V538H479V30C479 10 467 -5 433 -5C385 -5 338 5 287 26V-61C344 -75 395 -81 464 -81ZM927 104 947 184C731 212 442 212 66 182V108C440 136 727 129 927 104Z" transform="translate(0, 880) scale(1,-1)" /></svg>