<svg xmlns="http://www.w3.org/2000/svg" width="1000" height="1000"><path d="M113 96 184 66C226 144 279 262 311 340L239 378L232 364H202C234 474 247 580 257 794L180 797C173 580 156 472 106 330L160 284L172 295H202C180 235 147 160 113 96ZM355 126 325 199 51 81 79 7ZM12 401 85 379C111 448 128 549 140 636L66 645C56 562 39 463 12 401ZM249 397 319 382C340 447 364 545 383 628L307 643C293 559 269 459 249 397ZM372 439 401 361 421 368H951V448H467C480 523 495 629 502 717H901V797H424C421 682 404 545 392 467C390 450 381 443 372 439ZM328 39 397 -10C444 58 503 163 540 258L464 283C430 195 376 101 328 39ZM631 -65C686 -65 710 -38 710 23V642H632V35C632 20 626 12 612 12C584 12 557 20 525 32V-54C559 -61 592 -65 631 -65ZM911 -7 985 31C956 101 895 211 844 284L773 251C825 176 883 63 911 -7Z" transform="translate(0, 880) scale(1,-1)" /></svg>