<svg xmlns="http://www.w3.org/2000/svg" width="1000" height="1000"><path d="M134 47 203 17C247 101 304 227 338 311L265 350L257 336H219C256 458 270 572 280 807L203 811C195 575 177 457 123 302L179 256L193 267H233C208 201 172 117 134 47ZM390 84 359 158 64 29 93 -46ZM21 379 95 355C123 428 141 540 154 635L78 646C68 555 50 447 21 379ZM282 375 352 358C375 428 401 536 421 626L344 645C329 556 303 444 282 375ZM541 17 650 -10C728 47 764 160 764 263C764 360 720 419 638 419C568 419 512 370 512 282C512 191 570 146 638 146C648 146 658 147 669 151C650 89 606 37 541 17ZM400 -51H930V29H400ZM638 219C609 219 586 245 586 282C586 321 609 343 638 343C667 343 690 321 690 282C690 245 667 219 638 219ZM414 422 485 390C529 467 557 553 577 638L497 655C483 578 457 496 414 422ZM722 323V755H643V388ZM418 715H911V795H418ZM846 390 921 424C902 502 872 578 826 662L758 632C803 545 828 469 846 390Z" transform="translate(0, 880) scale(1,-1)" /></svg>