<svg xmlns="http://www.w3.org/2000/svg" width="1000" height="1000"><path d="M89 43 152 -4C249 80 336 243 336 341C336 429 292 483 238 483C167 483 111 439 111 359C111 277 161 236 227 243C211 186 161 103 89 43ZM227 308C201 308 179 326 179 359C179 392 202 412 227 412C250 412 271 390 271 364C271 326 251 308 227 308ZM311 386V705H233V451ZM77 730V652H375V730ZM56 41 78 -36 384 65 361 142ZM585 388H667V835H585ZM369 608 412 539C502 599 615 640 722 640C810 640 843 610 843 585C843 556 835 533 817 508L895 477C915 510 926 541 926 586C926 672 847 720 722 720C589 720 466 669 369 608ZM368 -9 416 -82C606 -7 876 143 876 298C876 401 816 444 693 444C579 444 496 420 416 390L440 312C518 347 591 364 693 364C758 364 794 343 794 298C794 187 560 58 368 -9ZM872 -87 934 -20C763 106 633 180 476 242L429 179C584 113 704 42 872 -87Z" transform="translate(0, 880) scale(1,-1)" /></svg>