<svg xmlns="http://www.w3.org/2000/svg" width="1000" height="1000"><path d="M492 727 571 748C559 781 535 820 511 851L433 830C455 801 481 759 492 727ZM817 599 892 575C912 618 920 643 920 664C920 746 818 777 587 777C419 777 265 754 164 721V763H84V592H164V653C276 681 433 699 587 699C782 699 839 683 839 658C839 644 834 628 817 599ZM109 544 162 482C257 519 364 568 430 624L355 673C306 627 205 574 109 544ZM826 480 890 540C831 577 727 632 640 673L582 617C667 574 770 518 826 480ZM129 -64 211 -58C176 34 166 96 181 156C198 220 204 267 170 319L91 307C121 250 123 210 108 159C89 101 94 34 129 -64ZM229 362 266 432C228 452 157 483 103 503L69 437C123 416 194 382 229 362ZM292 393H915V471H292ZM352 243H856V321H352ZM643 -19V569H564V-19ZM352 91H856V169H352ZM945 13H262V-65H945Z" transform="translate(0, 880) scale(1,-1)" /></svg>