<svg xmlns="http://www.w3.org/2000/svg" width="1000" height="1000"><path d="M532 747H211V470C211 325 202 122 114 -23L184 -60C277 92 290 317 290 470V668H943V747H621L572 850L493 832ZM230 298 144 263V592H65V277C65 243 47 224 35 216L64 142L258 224ZM439 369 515 337C580 440 637 557 676 673L596 696C560 584 506 469 439 369ZM819 373 897 342C917 388 927 420 927 456C927 548 850 589 674 589C537 589 406 553 314 515L342 438C427 474 553 507 674 507C806 507 843 482 843 451C843 428 836 407 819 373ZM402 386V307H743V216H432V253H353V68C353 -40 393 -60 506 -60H788C896 -60 931 -12 948 147L869 160C858 33 841 19 775 19H510C446 19 432 29 432 68V137H822V386Z" transform="translate(0, 880) scale(1,-1)" /></svg>