<svg xmlns="http://www.w3.org/2000/svg" width="1000" height="1000"><path d="M152 5C270 5 328 149 328 285C328 392 276 498 156 546L128 472C218 430 251 359 251 285C251 187 215 84 152 84C127 84 110 99 110 140C110 224 182 312 333 422L289 486C134 380 32 260 32 140C32 41 80 5 152 5ZM154 520 216 487C268 553 322 643 351 709L290 748L276 738H57V660H238C216 614 184 561 154 520ZM522 -54H835C926 -54 954 -8 964 193L885 198C881 40 870 26 826 26H528C486 26 466 38 466 66C466 113 547 187 899 416L851 495L837 485H455V405H733C451 216 385 142 385 64C385 -11 419 -54 522 -54ZM316 481 388 442C452 543 503 684 532 823L453 837C424 698 374 565 316 481ZM440 620H946V700H440Z" transform="translate(0, 880) scale(1,-1)" /></svg>