<svg xmlns="http://www.w3.org/2000/svg" width="1000" height="1000"><path d="M67 540 135 507C192 596 244 721 269 821L196 834C169 732 120 616 67 540ZM179 649H926L925 722H179ZM642 -6 670 -76C845 -65 917 6 917 129C917 247 816 308 520 308C202 308 85 217 85 117C85 9 195 -58 353 -58C469 -58 574 5 574 135V527H497V144C497 53 432 17 353 17C244 17 163 57 163 117C163 162 259 236 520 236C745 236 837 199 837 129C837 59 799 3 642 -6ZM228 565V492H854V565ZM322 306 383 347C357 382 303 433 251 471L194 433C243 395 296 343 322 306ZM639 344 698 306C744 339 804 392 847 438L780 476C745 433 686 379 639 344Z" transform="translate(0, 880) scale(1,-1)" /></svg>