<svg xmlns="http://www.w3.org/2000/svg" width="1000" height="1000"><path d="M253 382 316 335C428 422 530 516 616 631L542 672C465 563 362 464 253 382ZM862 -101 906 -29C836 15 753 58 683 90L640 22C713 -8 794 -55 862 -101ZM71 553 140 512C222 615 270 713 309 826L231 848C195 738 147 649 71 553ZM220 524H881V604H220ZM221 686H896V766H222ZM857 441 783 478C754 418 728 371 694 312C687 300 672 299 658 296V217C773 234 841 232 841 183C841 133 805 88 735 50L777 -15C861 38 922 90 922 183C922 267 870 314 771 306C810 364 835 403 857 441ZM473 -59C537 -59 570 -34 570 41V341H492V44C492 22 479 17 469 17C455 17 430 25 410 36V-47C427 -53 451 -59 473 -59ZM394 39 659 67 647 144 381 116ZM422 186H619V265H422ZM438 369 514 386C505 409 489 443 474 467L400 452C414 428 431 392 438 369ZM406 306H639V384H406ZM551 373 625 362C639 388 657 428 668 456L587 468C580 441 565 402 551 373ZM336 249 306 318C170 243 74 147 74 50C74 -33 122 -81 199 -81C292 -81 375 29 375 188C375 409 302 459 139 420V340C253 373 295 340 295 188C295 85 252 5 199 5C169 5 154 20 154 50C154 117 229 188 336 249Z" transform="translate(0, 880) scale(1,-1)" /></svg>