<svg xmlns="http://www.w3.org/2000/svg" width="1000" height="1000"><path d="M120 -46 200 -37C148 101 138 200 168 283C202 377 205 451 154 529L77 511C124 425 126 361 96 289C61 210 67 101 120 -46ZM206 609 254 675C217 704 149 750 97 780L51 721C103 688 171 639 206 609ZM354 640 421 676C403 714 369 770 335 811L270 779C301 738 337 682 354 640ZM570 662 643 687C629 731 604 788 573 837L503 813C530 766 557 708 570 662ZM746 666 811 636C846 682 884 743 911 798L837 828C817 777 779 713 746 666ZM829 446 904 419C927 468 936 498 936 529C936 620 849 656 636 656C485 656 348 628 241 593L265 517C363 550 501 576 636 576C807 576 855 554 855 523C855 504 848 485 829 446ZM540 15 615 -29C729 40 790 102 790 194C790 296 721 333 574 333C428 333 342 292 342 210C342 140 395 106 491 106C570 106 619 142 619 190V437H540V218C540 198 522 187 490 187C453 187 423 194 423 210C423 232 460 253 574 253C678 253 710 236 710 194C710 139 658 89 540 15ZM250 -52H912V26H250ZM279 403H879V482H279ZM873 69 933 118C905 156 872 194 835 231L778 182C813 146 845 108 873 69Z" transform="translate(0, 880) scale(1,-1)" /></svg>