<svg xmlns="http://www.w3.org/2000/svg" width="1000" height="1000"><path d="M277 602 338 641C311 687 255 751 202 800L145 764C196 716 251 649 277 602ZM462 566H538V841H462ZM651 638 709 602C756 644 817 712 862 770L795 806C760 751 699 682 651 638ZM811 419 884 392C908 431 919 466 919 513C919 601 805 633 617 633C426 633 269 590 162 517V613H84V409H162V462C269 531 453 558 617 558C786 558 838 531 838 512C838 481 832 452 811 419ZM84 -21 139 -79C417 7 627 154 832 358L756 389C573 194 370 62 84 -21ZM649 -84C741 -84 861 -40 861 108C861 199 755 261 606 261C485 261 418 251 365 237C431 270 493 304 549 341L478 380L450 362H161V298H369C345 279 310 256 261 230C237 218 184 208 127 192L153 125C274 158 435 193 598 193C685 193 776 166 777 108C779 15 715 -19 641 -19C580 -19 530 -14 475 1V-72C535 -82 582 -84 649 -84ZM249 427H751V498H249Z" transform="translate(0, 880) scale(1,-1)" /></svg>