<svg xmlns="http://www.w3.org/2000/svg" width="1000" height="1000"><path d="M63 -13H140L141 763H63ZM192 482C261 482 276 537 276 626V787H198V644C198 582 189 561 171 561C141 561 116 570 94 589V502C121 489 158 482 192 482ZM188 352C152 352 120 335 96 315L109 244C133 256 163 271 182 271C211 271 211 238 211 191C211 89 192 8 171 -43L248 -81C272 -22 289 56 289 191C289 300 263 352 188 352ZM747 329 799 394C680 473 544 540 426 589L376 526C497 477 630 406 747 329ZM729 170C885 170 943 307 943 493C943 685 854 757 681 757C544 757 447 728 363 675L390 605C459 652 569 678 677 678C795 678 863 631 863 492C863 364 818 248 724 248C680 248 639 257 596 278V189C638 176 679 170 729 170ZM308 375 372 314C477 397 560 507 600 618L521 641C486 535 411 444 308 375ZM369 226 429 162C578 247 715 414 751 618L674 637C637 448 511 300 369 226ZM287 577 360 531C424 616 464 705 501 813L422 840C387 731 338 642 287 577ZM272 -40 341 -76C388 -26 427 42 445 109L372 138C356 73 314 3 272 -40ZM637 -71C678 -71 713 -53 755 -11L696 38C676 16 665 12 645 12C628 12 616 28 596 131L518 117C550 -39 585 -71 637 -71ZM897 -73 966 -37C940 14 889 90 845 145L782 104C829 47 872 -24 897 -73Z" transform="translate(0, 880) scale(1,-1)" /></svg>