<svg xmlns="http://www.w3.org/2000/svg" width="1000" height="1000"><path d="M181 -65C301 -65 359 100 359 248C359 364 305 482 184 536L153 463C246 415 281 331 281 248C281 140 245 15 181 15C154 15 135 32 135 80C135 180 211 281 367 408L319 471C160 351 56 213 56 80C56 -29 106 -65 181 -65ZM181 508 245 476C299 549 356 654 385 729L322 763L308 754H80V676H277C251 620 214 557 181 508ZM464 449H826V527H464ZM512 -79H824C886 -79 914 -32 929 100L851 109C844 23 831 -1 804 -1H540C515 -1 503 6 503 17C503 35 519 52 874 293L829 358L810 350H405V272L693 273C428 95 401 59 401 8C401 -43 430 -79 512 -79ZM636 701 711 721C696 765 669 815 641 854L568 834C595 794 623 742 636 701ZM816 538 894 510C917 559 927 590 927 621C927 709 849 749 702 749C588 749 466 728 376 701L396 623C482 648 604 667 702 667C811 667 840 645 840 614C840 595 835 575 816 538Z" transform="translate(0, 880) scale(1,-1)" /></svg>