<svg xmlns="http://www.w3.org/2000/svg" width="1000" height="1000"><path d="M84 48 145 0C244 84 330 255 330 355C330 444 286 499 231 499C160 499 104 455 104 373C104 289 156 246 223 254C208 196 158 110 84 48ZM221 321C194 321 172 339 172 373C172 407 195 427 221 427C244 427 265 405 265 378C265 339 244 321 221 321ZM305 400V735H227V467ZM64 760V682H373V760ZM43 41 65 -36 382 72 359 149ZM393 477H941V559H393ZM438 702H896V784H438ZM520 312 590 267 604 281H697C664 225 618 159 564 98L636 60C700 133 778 240 828 316L758 371L742 361H634C680 462 707 582 729 724L649 732C626 582 591 440 520 312ZM905 -73 940 7C769 71 601 119 439 154L398 78C571 39 740 -9 905 -73Z" transform="translate(0, 880) scale(1,-1)" /></svg>