<svg xmlns="http://www.w3.org/2000/svg" width="1000" height="1000"><path d="M171 -54C222 -54 249 -31 249 36V810H171V44C171 31 166 23 155 23C131 23 107 30 74 44V-43C107 -50 137 -54 171 -54ZM29 555 70 486C177 541 278 609 359 678L304 735C227 668 133 606 29 555ZM27 202 93 171 105 191 348 287 330 362 143 282 224 526 161 552ZM651 10 732 -28C781 15 833 87 833 146C833 231 776 269 657 269C527 269 466 235 466 160C466 96 511 48 603 48C666 48 697 90 697 129V346H618V164C618 138 608 126 587 126C563 126 545 140 545 160C545 180 569 191 657 191C729 191 754 173 754 146C754 111 723 61 651 10ZM307 -58H958V20H307ZM314 207 388 168C444 265 481 347 532 480L455 503C406 373 366 290 314 207ZM288 551 357 513C421 616 457 714 490 827L411 846C384 736 348 647 288 551ZM443 308H893V386H443ZM519 530 595 554C586 589 567 637 546 676L471 655C490 619 508 574 519 530ZM383 461H933V539H383ZM414 683H926V761H415ZM709 549 781 528C826 619 807 577 843 658L757 680C746 638 729 587 709 549Z" transform="translate(0, 880) scale(1,-1)" /></svg>