<svg xmlns="http://www.w3.org/2000/svg" width="1000" height="1000"><path d="M532 760H186V470C186 325 177 122 89 -23L158 -60C251 92 264 317 264 470V682H943V760H621L575 855L496 837ZM205 291 127 261V592H49V274C49 240 31 221 19 213L47 141L232 219ZM276 241 326 172C527 229 653 318 765 411L706 465L691 457H593C620 494 651 556 673 657L592 665C572 562 521 477 460 422L519 370L534 379H598C537 334 428 282 276 241ZM273 365 347 342C376 379 399 433 413 479L335 494C323 449 301 400 273 365ZM891 172 943 237C873 275 782 314 704 339L658 275C736 249 819 212 891 172ZM310 526H911V603H310ZM861 340 939 359C928 396 907 454 880 498L806 480C832 435 851 377 861 340ZM646 -16V249H567V-16ZM313 91H900V169H313ZM950 18H264V-60H950Z" transform="translate(0, 880) scale(1,-1)" /></svg>