<svg xmlns="http://www.w3.org/2000/svg" width="1000" height="1000"><path d="M375 565 449 534C473 589 484 623 484 659C484 759 422 798 333 798C256 798 187 764 141 719V781H64V553H141V648C193 689 263 716 333 716C387 716 401 690 401 654C401 631 394 608 375 565ZM113 486H432V566H113ZM107 286H438V366H107ZM312 -78V653H234V-78ZM54 86H491V166H54ZM627 388H708V835H627ZM445 606 489 539C568 600 664 640 750 640C820 640 850 610 850 585C850 556 841 533 824 508L901 477C920 509 932 541 932 586C932 672 860 720 750 720C639 720 531 668 445 606ZM439 -9 488 -81C656 -6 897 146 897 298C897 400 842 445 730 445C627 445 555 424 484 397L506 318C575 348 639 365 730 365C785 365 815 342 815 298C815 186 610 58 439 -9ZM883 -85 946 -20C794 106 680 180 541 242L492 181C630 115 734 44 883 -85Z" transform="translate(0, 880) scale(1,-1)" /></svg>