<svg xmlns="http://www.w3.org/2000/svg" width="1000" height="1000"><path d="M134 -20C239 -20 293 128 293 268C293 377 245 486 139 535L110 463C188 419 216 344 216 268C216 167 185 59 134 59C112 59 100 74 100 113C100 199 161 297 296 410L252 473C112 365 23 236 23 113C23 14 66 -20 134 -20ZM136 508 195 478C241 545 289 639 314 706L250 743L237 733H50V655H208C189 606 161 551 136 508ZM631 744H340V470C340 325 332 120 264 -25L337 -58C409 94 416 317 416 470V666H969V744H715L677 845L600 827ZM549 404V324C831 293 923 357 923 469C923 550 874 609 698 609C583 609 491 580 435 546L462 473C518 507 595 531 698 531C799 531 844 512 844 469C844 404 776 365 549 404ZM416 -57H950V21H416ZM689 16 763 -29C809 18 839 79 839 150C839 238 781 279 679 279C581 279 518 242 518 166C518 92 561 53 627 53C688 53 725 93 725 149V480H646V174C646 144 640 133 626 133C609 133 597 145 597 166C597 191 620 204 679 204C732 204 760 184 760 150C760 102 734 59 689 16Z" transform="translate(0, 880) scale(1,-1)" /></svg>