<svg xmlns="http://www.w3.org/2000/svg" width="1000" height="1000"><path d="M532 748H210V470C210 325 202 122 114 -23L182 -60C275 92 288 317 288 470V670H943V748H621L574 845L495 827ZM229 293 149 262V592H71V275C71 241 53 222 41 214L69 141L256 220ZM725 -63C869 -63 944 39 944 193C944 346 846 404 679 404C657 404 632 403 606 401C683 439 770 485 842 527L794 590L775 584H357V505H654C586 464 528 426 456 387C440 379 385 359 340 340L371 262C456 300 556 325 664 325C785 325 864 295 864 191C864 100 816 16 720 16C675 16 633 24 589 39V-48C631 -58 674 -63 725 -63ZM292 108 355 50C463 112 548 192 588 279L513 311C477 230 399 162 292 108ZM355 -6 416 -66C568 -2 703 129 744 278L670 308C627 162 505 53 355 -6Z" transform="translate(0, 880) scale(1,-1)" /></svg>