<svg xmlns="http://www.w3.org/2000/svg" width="1000" height="1000"><path d="M155 -34C266 -34 322 121 322 265C322 377 271 490 159 541L129 469C214 423 244 344 244 265C244 161 211 45 155 45C132 45 117 61 117 104C117 195 184 295 327 415L282 478C134 364 39 230 39 104C39 0 85 -34 155 -34ZM156 514 218 482C266 552 318 651 345 721L281 757L268 748H65V670H238C216 618 185 559 156 514ZM593 538 652 486C741 561 838 669 895 757L833 804L820 799H408V719H766C727 668 667 602 593 538ZM610 317 568 259C710 184 833 97 921 11L977 88C883 159 761 239 610 317ZM666 355 702 288C784 325 844 356 914 411L862 478C799 425 747 392 666 355ZM615 603 543 563C622 437 669 320 669 191C669 112 656 11 600 11C567 11 535 17 504 34V-52C534 -62 570 -67 610 -67C726 -67 748 65 748 191C748 325 695 471 615 603ZM400 455 360 387 542 295 582 363ZM307 90 351 26 603 180 558 244Z" transform="translate(0, 880) scale(1,-1)" /></svg>