<svg xmlns="http://www.w3.org/2000/svg" width="1000" height="1000"><path d="M152 40 232 12C301 107 367 213 436 361L368 398L356 386H243C283 487 320 639 344 802L265 810C239 635 198 461 132 330L196 292L213 310H317C286 232 224 128 152 40ZM53 526H501V605H53ZM71 14 104 -58 491 125 452 196ZM433 -44H931V36H433ZM451 713H912V793H451ZM656 249 690 162C815 218 885 314 885 446C885 548 835 610 710 610C612 610 535 584 470 547L498 468C559 502 626 527 710 527C773 527 803 495 803 446C803 361 754 286 656 249ZM665 76 748 103C730 183 698 273 669 341L589 316C619 256 649 157 665 76Z" transform="translate(0, 880) scale(1,-1)" /></svg>