<svg xmlns="http://www.w3.org/2000/svg" width="1000" height="1000"><path d="M166 -53C217 -53 244 -30 244 36V750H166V45C166 31 161 23 150 23C126 23 101 30 68 45V-42C101 -49 132 -53 166 -53ZM23 516 64 447C172 498 273 561 354 625L300 682C223 620 128 563 23 516ZM22 182 88 153 100 171 340 263 322 337 141 261 217 485 153 511ZM469 36V-51C514 -64 568 -70 624 -70C819 -70 953 -6 953 197C953 379 834 442 643 442C607 442 580 440 553 434C629 490 661 565 661 667H584C584 568 534 479 440 415C420 400 392 391 369 381L408 311C477 342 570 365 643 365C780 365 874 325 874 197C874 63 768 8 624 8C560 8 507 18 469 36ZM373 283V207H725V283ZM366 160V81H736V160ZM466 589V509C738 480 908 505 908 663C908 778 791 812 654 812C493 812 395 777 293 724L331 655C415 700 522 734 654 734C764 734 828 705 828 663C828 583 728 552 466 589Z" transform="translate(0, 880) scale(1,-1)" /></svg>