<svg xmlns="http://www.w3.org/2000/svg" width="1000" height="1000"><path d="M496 728 571 747C558 780 534 819 510 850L436 831C458 802 484 760 496 728ZM816 599 893 575C914 618 922 643 922 664C922 735 818 775 587 775C419 775 266 752 165 720V763H83V592H165V654C277 682 433 700 587 700C782 700 837 683 837 658C837 644 832 628 816 599ZM109 543 163 492C258 529 365 578 431 634L355 672C306 626 205 573 109 543ZM826 490 890 540C831 577 727 632 639 673L582 626C667 583 770 528 826 490ZM125 -64 208 -58C176 34 165 96 180 156C196 220 203 267 169 319L88 307C117 250 119 210 103 159C86 101 90 34 125 -64ZM240 365 273 429C233 448 156 479 99 499L68 439C126 418 202 385 240 365ZM295 393H918V471H295ZM355 243H859V321H355ZM646 -19V569H567V-19ZM355 91H859V169H355ZM948 13H265V-65H948Z" transform="translate(0, 880) scale(1,-1)" /></svg>