<svg xmlns="http://www.w3.org/2000/svg" width="1000" height="1000"><path d="M308 704 385 732C369 760 339 809 306 841L233 813C263 780 291 739 308 704ZM79 654H921V733H79ZM612 717 682 690C721 732 753 775 777 818L697 844C678 805 649 757 612 717ZM147 2 228 -28C291 42 352 120 417 225L351 263L339 253H249C281 324 310 420 331 535L252 546C228 425 189 297 128 203L192 163L208 176H284C256 125 209 62 147 2ZM61 335H474V414H61ZM71 -13 103 -84 462 52 426 122ZM89 501H442V580H89ZM634 295H715V648H634ZM467 464 508 398C582 452 672 487 751 487C814 487 843 462 843 438C843 414 833 391 817 365L893 336C913 368 924 401 924 439C924 521 855 565 751 565C650 565 549 520 467 464ZM457 -10 506 -81C670 -22 895 90 895 224C895 312 842 353 734 353C637 353 569 340 501 324L522 245C587 263 648 274 734 274C786 274 812 255 812 224C812 143 619 43 457 -10ZM878 -84 941 -19C797 82 689 139 557 188L507 126C638 74 736 19 878 -84Z" transform="translate(0, 880) scale(1,-1)" /></svg>