<svg xmlns="http://www.w3.org/2000/svg" width="1000" height="1000"><path d="M86 -38 166 -30C116 105 106 202 134 283C167 374 169 446 121 523L44 505C90 421 92 359 63 289C30 211 36 105 86 -38ZM164 600 211 665C176 694 113 738 64 768L19 710C67 678 131 630 164 600ZM543 411C599 412 628 438 628 503V797H548V522C548 498 539 487 514 487C483 487 433 499 379 517V432C432 418 483 410 543 411ZM227 519H926V597H227ZM247 628H906V706H247ZM248 803 264 727C448 723 703 733 880 765L837 838C692 813 442 801 248 803ZM920 359V438C724 405 489 398 362 416C286 427 260 444 255 496L176 488C178 406 231 354 335 339C465 319 719 326 920 359ZM880 487V334H960V487ZM214 -63H938V15H214ZM234 243H919V321H234ZM545 91 570 20C774 29 860 62 860 136C860 204 791 231 626 231C483 231 389 217 287 198L309 121C405 139 497 154 626 154C731 154 777 147 777 136C777 122 728 99 545 91ZM561 -13 636 18C620 51 592 87 565 114L493 84C520 60 546 19 561 -13Z" transform="translate(0, 880) scale(1,-1)" /></svg>