<svg xmlns="http://www.w3.org/2000/svg" width="1000" height="1000"><path d="M57 133 382 264 351 332 28 210ZM182 -29C232 -29 258 0 258 59V769H180V76C180 56 172 48 154 48C135 48 112 53 85 67V-17C119 -26 150 -29 182 -29ZM42 404H371V481H42ZM95 521 170 543C159 596 133 679 108 741L34 719C59 656 85 573 95 521ZM262 541 334 523C356 578 381 661 400 727L320 746C305 680 282 595 262 541ZM520 617 596 642C583 689 558 766 532 818L456 793C482 741 506 674 520 617ZM370 534H965V614H370ZM735 617 805 597C838 663 864 735 884 802L801 823C787 758 762 681 735 617ZM391 -28 661 65 635 140 361 46ZM464 66 534 45C578 131 631 265 667 379L596 414L582 401H390V321H563C539 245 500 145 464 66ZM778 20H857V437H778ZM961 56H710V-24H961Z" transform="translate(0, 880) scale(1,-1)" /></svg>