<svg xmlns="http://www.w3.org/2000/svg" width="1000" height="1000"><path d="M267 674 193 685C156 462 92 260 29 109L99 74C161 231 228 453 267 674ZM235 61C221 61 214 72 214 99C214 139 239 229 315 329L262 368C180 268 137 166 137 98C137 28 178 -15 235 -15C319 -15 354 56 354 212C354 368 310 431 242 431C199 431 168 414 146 379L160 308C185 339 214 355 241 355C265 355 277 304 277 212C277 93 257 61 235 61ZM56 650H370V727H56ZM552 112 622 74C687 171 769 302 817 390L750 440L737 431H616C653 531 683 668 711 817L633 829C599 642 560 489 511 379L580 340L593 352H701C665 280 611 193 552 112ZM901 -85 936 -11C766 65 598 123 436 166L396 97C568 48 735 -10 901 -85ZM401 621H924V701H401ZM372 273 447 247C471 321 491 427 502 518L425 527C415 440 396 341 372 273ZM868 238 947 255C937 329 921 443 898 529L823 515C845 427 861 311 868 238Z" transform="translate(0, 880) scale(1,-1)" /></svg>