<svg xmlns="http://www.w3.org/2000/svg" width="1000" height="1000"><path d="M167 -38C293 -38 354 118 354 258C354 370 298 482 170 533L140 459C239 414 275 337 275 258C275 156 238 42 167 42C138 42 118 59 118 104C118 198 197 288 361 407L315 471C150 358 39 232 39 104C39 -1 90 -38 167 -38ZM168 506 233 473C289 542 348 640 379 710L319 747L304 738H62V660H265C239 609 202 551 168 506ZM510 85V448H432V85C432 -32 471 -57 590 -57H816C912 -57 942 1 957 173L875 184C866 47 853 23 795 23H602C525 23 510 34 510 85ZM781 359C860 359 898 431 911 770L851 793L833 781H425V701H829C820 493 799 439 769 439C712 439 666 446 616 460V375C664 365 717 359 781 359Z" transform="translate(0, 880) scale(1,-1)" /></svg>