<svg xmlns="http://www.w3.org/2000/svg" width="1000" height="1000"><path d="M132 46 201 16C245 99 302 222 335 304L263 343L255 329H218C254 448 268 560 278 789L201 793C193 562 175 447 122 295L178 249L191 260H229C205 196 169 114 132 46ZM386 81 355 155 64 28 92 -46ZM21 371 95 347C123 419 141 528 153 621L78 632C68 543 50 437 21 371ZM278 367 349 350C371 419 396 524 417 612L339 630C325 543 299 434 278 367ZM742 -59C874 -59 936 72 936 274C936 475 851 548 703 548C679 548 657 547 638 543C709 604 790 677 857 743L798 800L781 792H426V712H710C653 648 587 587 501 518C488 507 438 481 399 456L445 386C517 438 597 468 690 468C793 468 857 427 857 272C857 147 819 21 738 21C699 21 663 31 625 52V-39C662 -53 699 -59 742 -59ZM364 154 432 98C525 183 597 291 632 410L554 429C523 319 456 227 364 154ZM418 -3 484 -59C614 28 731 205 766 408L688 423C652 225 547 77 418 -3Z" transform="translate(0, 880) scale(1,-1)" /></svg>