<svg xmlns="http://www.w3.org/2000/svg" width="1000" height="1000"><path d="M259 391 329 418C313 475 272 565 231 633L158 611C199 540 245 449 259 391ZM119 759 136 682C373 688 664 719 858 758L819 826C655 793 360 768 119 759ZM673 418 735 393C774 452 824 547 863 626L780 653C755 581 711 480 673 418ZM642 0 670 -76C845 -64 917 12 917 147C917 275 816 342 520 342C202 342 85 243 85 134C85 16 175 -56 323 -56C439 -56 544 12 544 153V734H467V163C467 64 402 25 323 25C224 25 163 69 163 134C163 183 259 263 520 263C745 263 837 223 837 147C837 70 799 10 642 0Z" transform="translate(0, 880) scale(1,-1)" /></svg>