<svg xmlns="http://www.w3.org/2000/svg" width="1000" height="1000"><path d="M28 496 103 468C127 559 148 687 160 789L83 798C72 693 51 575 28 496ZM100 607H302V686H100ZM61 402V322H310V402ZM149 649V76H227V649ZM51 54 82 -18 325 86 293 157ZM647 10 729 -28C777 15 828 87 828 146C828 231 771 269 654 269C525 269 464 235 464 160C464 96 509 48 600 48C663 48 694 90 694 129V346H615V164C615 138 605 126 584 126C560 126 544 140 544 160C544 180 567 191 654 191C725 191 749 173 749 146C749 111 718 61 647 10ZM308 -58H951V20H308ZM314 207 388 168C443 265 480 347 531 480L454 503C405 373 365 290 314 207ZM288 551 357 513C421 616 456 714 489 827L410 846C383 736 347 647 288 551ZM442 308H887V386H442ZM517 530 593 554C583 589 565 637 545 676L469 655C488 619 506 574 517 530ZM383 461H927V539H383ZM413 683H919V761H414ZM704 549 777 528C821 619 802 577 837 658L752 680C741 638 725 587 704 549Z" transform="translate(0, 880) scale(1,-1)" /></svg>