<svg xmlns="http://www.w3.org/2000/svg" width="1000" height="1000"><path d="M178 -64C298 -64 355 106 355 256C355 375 300 496 180 551L148 477C242 428 276 341 276 256C276 146 242 17 178 17C151 17 132 38 132 94C132 197 207 291 363 421L315 483C156 360 53 229 53 94C53 -17 103 -64 178 -64ZM178 522 242 490C295 565 352 673 381 749L320 783L304 773H77V695H270C247 634 211 570 178 522ZM529 17 638 -10C717 47 754 160 754 263C754 360 709 419 626 419C555 419 499 370 499 282C499 191 558 146 626 146C637 146 647 147 658 151C639 89 594 37 529 17ZM380 -51H929V29H380ZM626 219C597 219 573 245 573 282C573 321 597 343 626 343C656 343 680 321 680 282C680 245 656 219 626 219ZM396 422 466 390C513 467 542 553 563 638L482 655C467 578 441 497 396 422ZM712 323V755H633V388ZM399 715H909V795H399ZM843 390 918 424C898 502 867 578 820 662L752 632C798 545 824 469 843 390Z" transform="translate(0, 880) scale(1,-1)" /></svg>