<svg xmlns="http://www.w3.org/2000/svg" width="1000" height="1000"><path d="M246 649 174 662C137 456 74 270 12 131L81 96C142 241 208 445 246 649ZM215 88C202 88 194 99 194 124C194 161 219 240 293 331L240 369C160 277 118 187 118 123C118 55 159 15 215 15C297 15 332 81 332 226C332 372 288 431 221 431C179 431 149 415 127 382L141 314C166 342 194 357 220 357C244 357 256 310 256 226C256 119 235 88 215 88ZM39 624H337V701H39ZM701 42 784 16C832 143 878 289 917 438L838 456C801 311 753 165 701 42ZM480 122 557 152C540 227 499 347 462 440L387 416C424 323 464 200 480 122ZM642 152 721 177C710 251 681 376 653 470L578 446C606 351 632 229 642 152ZM514 618 588 653C570 700 534 769 503 822L432 791C463 739 497 665 514 618ZM709 601 779 575C814 643 855 728 886 802L804 827C783 761 744 672 709 601ZM956 612H358V532H956ZM970 50H344V-30H970Z" transform="translate(0, 880) scale(1,-1)" /></svg>