<svg xmlns="http://www.w3.org/2000/svg" width="1000" height="1000"><path d="M128 -22C221 -22 271 121 271 263C271 371 227 479 134 528L105 456C172 413 196 338 196 263C196 162 168 56 128 56C110 56 101 69 101 107C101 189 154 291 273 403L230 466C103 358 25 227 25 107C25 10 65 -22 128 -22ZM129 500 187 472C226 538 268 631 290 697L225 733L213 723H54V645H190C174 597 151 543 129 500ZM616 754H319V470C319 325 311 120 242 -25L316 -57C389 95 397 317 397 470V677H965V754H701L666 845L589 827ZM377 588V510H959V588ZM533 409 613 432C596 498 561 601 531 673L455 648C484 578 518 475 533 409ZM712 430 785 409C813 469 850 568 877 648L798 673C778 596 740 495 712 430ZM451 455V378H881V455ZM400 285 423 212C500 245 589 271 717 271C817 271 861 255 861 231C861 183 746 175 528 195V118C782 99 942 100 942 231C942 304 888 349 717 349C568 349 475 320 400 285ZM366 -10 403 -83C680 -20 714 93 713 231H635C635 110 619 50 366 -10ZM925 -87 973 -20C898 25 811 69 740 102L698 35C773 0 860 -45 925 -87Z" transform="translate(0, 880) scale(1,-1)" /></svg>