<svg xmlns="http://www.w3.org/2000/svg" width="1000" height="1000"><path d="M214 574 284 610C262 662 222 739 182 795L114 762C151 708 192 628 214 574ZM478 603 555 629C540 689 507 765 471 830L398 805C431 742 463 662 478 603ZM697 600 764 570C806 632 852 714 885 784L806 815C780 748 737 663 697 600ZM77 392 149 354C204 423 252 521 277 599L198 621C173 541 127 452 77 392ZM182 452H871V531H182ZM76 330V251H924V330ZM852 -17 916 33C866 100 809 167 743 233L683 185C748 118 804 50 852 -17ZM530 464 462 503C180 137 160 99 160 38C160 -21 196 -58 290 -58H561C636 -58 666 -5 685 138L605 146C596 46 579 21 544 21H308C263 21 246 29 246 47C246 81 260 106 530 464Z" transform="translate(0, 880) scale(1,-1)" /></svg>