<svg xmlns="http://www.w3.org/2000/svg" width="1000" height="1000"><path d="M71 42H150C141 169 138 351 153 473C162 540 195 609 227 609C263 609 275 515 275 394C275 245 268 144 247 144C237 144 236 157 236 177C236 246 275 378 353 472L294 527C208 431 158 294 158 176C158 99 191 59 246 59C348 59 355 194 355 394C355 566 327 691 234 691C196 691 165 659 147 598L162 706H81C64 407 64 233 71 42ZM370 600H919V678H370ZM422 391H867V469H422ZM685 -1V829H604V-1ZM422 177H867V255H422ZM946 31H343V-47H946Z" transform="translate(0, 880) scale(1,-1)" /></svg>