<svg xmlns="http://www.w3.org/2000/svg" width="1000" height="1000"><path d="M52 45 114 -3C205 83 292 254 292 352C292 439 251 492 198 492C132 492 79 449 79 369C79 287 123 252 186 255C170 197 120 106 52 45ZM189 319C164 319 144 336 144 369C144 402 165 422 189 422C210 422 229 400 229 374C229 336 210 319 189 319ZM270 396V713H192V461ZM71 738V660H313V738ZM48 51 72 -24 320 65 296 141ZM545 -60H807C887 -60 909 -18 923 132L844 139C838 40 828 20 792 20H566C542 20 534 26 534 37C534 57 548 71 815 241L763 317L738 303H685L839 483L779 536L760 524C467 501 298 406 298 295C298 235 341 194 401 194C500 194 558 277 795 724L731 762L714 752H501V672H682C497 325 450 274 401 274C385 274 377 282 377 295C377 341 491 418 700 435L567 282L605 223H642C462 117 435 85 435 29C435 -27 468 -60 545 -60ZM325 507 390 459C476 571 540 689 593 821L517 844C469 723 403 604 325 507ZM887 211 963 238C946 300 915 383 885 441L814 413C844 352 872 273 887 211Z" transform="translate(0, 880) scale(1,-1)" /></svg>