<svg xmlns="http://www.w3.org/2000/svg" width="1000" height="1000"><path d="M533 745H214V470C214 325 206 122 117 -23L187 -60C280 92 293 317 293 470V666H943V745H622L571 850L492 832ZM234 299 146 264V592H67V277C67 243 49 224 37 216L66 143L262 225ZM317 -66H931V13H317ZM340 494H908V573H340ZM596 166 627 86C786 126 863 196 863 300C863 382 806 434 661 434C543 434 456 414 375 387L404 309C480 335 559 354 661 354C743 354 780 333 780 300C780 244 729 194 596 166ZM608 24 687 51C670 110 640 177 612 227L535 201C563 157 592 83 608 24Z" transform="translate(0, 880) scale(1,-1)" /></svg>