<svg xmlns="http://www.w3.org/2000/svg" width="1000" height="1000"><path d="M69 70H149C139 190 136 356 153 472C163 543 204 604 243 604C291 604 313 518 313 404C313 277 299 171 269 171C256 171 252 185 253 210C253 278 291 389 375 477L322 531C226 441 175 321 175 208C175 130 209 86 266 86C375 86 393 224 393 404C393 566 356 686 251 686C205 686 170 656 146 593L162 700H80C61 416 61 251 69 70ZM368 665H964V745H368ZM756 43V704H677V47C677 25 669 17 653 17C616 17 578 26 536 39V-49C587 -58 635 -62 672 -61C727 -60 756 -38 756 43Z" transform="translate(0, 880) scale(1,-1)" /></svg>