<svg xmlns="http://www.w3.org/2000/svg" width="1000" height="1000"><path d="M117 49 186 18C226 101 277 224 307 306L236 344L229 330H203C234 447 246 559 255 786L179 789C173 560 157 447 109 296L161 250L173 261H203C182 197 150 116 117 49ZM347 83 315 155 55 30 85 -43ZM21 370 94 348C118 422 134 527 146 619L72 628C62 540 46 436 21 370ZM241 366 311 351C331 420 354 523 372 610L296 625C283 535 260 431 241 366ZM519 226H793V306H519ZM616 265H694V749H616ZM357 709H953V789H357ZM409 539 423 467C478 484 538 492 613 492H778C831 492 855 465 855 406V52C855 24 852 10 830 10C805 10 767 16 727 29V-57C765 -64 802 -69 833 -69C899 -69 934 -38 934 40V416C934 513 891 571 786 571H612C530 571 470 559 409 539ZM456 -72V571H377V-72Z" transform="translate(0, 880) scale(1,-1)" /></svg>