<svg xmlns="http://www.w3.org/2000/svg" width="1000" height="1000"><path d="M309 672 385 700C369 734 337 791 303 828L230 800C262 762 291 713 309 672ZM79 613H921V692H79ZM612 682 681 657C721 705 755 756 780 806L699 832C680 785 650 730 612 682ZM68 391V312H346V391ZM168 586V41H247V586ZM58 35 83 -39 362 44 337 118ZM714 -71C885 -71 924 75 924 273C924 470 843 544 693 544C577 544 468 520 401 486L420 411C490 445 594 465 693 465C797 465 844 395 844 273C844 116 811 6 708 6C634 6 578 17 531 35L512 -42C559 -57 615 -71 714 -71ZM268 311 337 261C430 362 490 489 530 616L452 637C413 508 350 391 268 311ZM462 361V282H734V361ZM462 216V137H734V216Z" transform="translate(0, 880) scale(1,-1)" /></svg>