<svg xmlns="http://www.w3.org/2000/svg" width="1000" height="1000"><path d="M263 655 189 669C150 462 83 275 16 135L86 99C151 245 222 450 263 655ZM231 92C215 92 206 103 206 127C206 164 234 244 313 336L260 375C174 282 130 191 130 127C130 59 172 18 231 18C317 18 354 84 354 230C354 377 307 436 237 436C193 436 161 420 137 387L152 319C178 347 209 362 237 362C264 362 277 314 277 230C277 122 254 92 231 92ZM43 630H362V707H43ZM672 -68C828 -68 924 30 924 175C924 307 835 372 703 372C656 372 612 365 574 351C625 454 651 605 681 824L601 832C574 615 548 461 478 318C470 302 436 279 407 254L470 195C533 255 603 293 703 293C785 293 844 257 844 175C844 77 784 10 666 10C616 10 593 27 593 67C593 94 610 112 637 112C676 112 708 83 722 -2L797 20C770 122 729 190 637 190C559 190 515 133 515 67C515 -17 569 -68 672 -68ZM356 457H976V537H356ZM397 635H939V713H397Z" transform="translate(0, 880) scale(1,-1)" /></svg>