<svg xmlns="http://www.w3.org/2000/svg" width="1000" height="1000"><path d="M350 440H430V764H350ZM97 732H903V811H97ZM570 440H650V764H570ZM77 472V394H923V472ZM224 499 296 535C276 580 239 645 204 692L134 659C167 612 205 543 224 499ZM697 523 765 495C803 547 842 615 870 674L793 708C771 652 732 578 697 523ZM102 7 131 -71C502 -33 679 129 800 324L722 350C605 162 428 33 102 7ZM33 70 109 35C166 79 206 149 226 205L149 229C130 176 90 112 33 70ZM856 -71 887 7C609 23 381 154 318 300L238 278C310 104 586 -52 856 -71ZM552 240 607 304C546 338 435 385 354 414L310 349C394 320 494 274 552 240ZM898 29 968 74C940 119 877 186 813 236L749 190C810 139 871 76 898 29Z" transform="translate(0, 880) scale(1,-1)" /></svg>