<svg xmlns="http://www.w3.org/2000/svg" width="1000" height="1000"><path d="M943 795H131V470C131 325 123 122 35 -23L100 -60C193 92 206 317 206 470V720H943ZM294 634V562H807V634ZM563 -64C776 -64 945 13 945 122C945 213 855 288 656 288C618 288 582 286 542 280C629 314 729 354 861 413L808 476L787 470H255V398H676C599 359 484 307 377 267C354 259 326 252 294 245L331 182C412 207 526 223 622 223C785 223 862 186 862 122C862 29 695 1 550 1C472 1 422 17 422 43C422 63 454 78 497 78C569 78 617 56 629 -17L702 -6C683 85 617 133 498 133C405 133 342 87 342 39C342 -20 426 -64 563 -64Z" transform="translate(0, 880) scale(1,-1)" /></svg>