<svg xmlns="http://www.w3.org/2000/svg" width="1000" height="1000"><path d="M46 122 311 261 276 327 13 198ZM143 -53C192 -53 215 -22 215 36V795H137V50C137 31 131 25 113 25C97 25 78 30 56 43V-41C86 -50 114 -53 143 -53ZM30 409H299V487H30ZM65 534 139 553C130 610 107 698 87 763L13 745C33 678 56 590 65 534ZM209 552 281 536C301 595 323 684 338 754L258 769C245 699 226 608 209 552ZM587 24 658 -13C729 53 812 146 812 275C812 354 767 404 700 404C636 404 595 361 595 290C595 220 640 173 713 173C835 173 935 249 935 403C935 522 879 595 750 595C737 595 728 594 717 592C760 630 800 665 845 714H923V794H541V714H743C699 660 656 609 610 564C589 544 566 530 515 488L561 414C617 476 679 516 748 516C828 516 857 460 857 403C857 284 771 250 713 250C688 250 673 266 673 290C673 312 682 328 700 328C724 328 732 304 732 275C732 174 651 74 587 24ZM505 -53 899 -7 885 68 498 28ZM902 -84 976 -49C960 11 920 102 881 170L808 138C846 73 887 -22 902 -84ZM347 490 416 466C455 536 501 650 523 737L457 768L442 760H306V684H419C402 623 380 555 347 490ZM498 331C498 463 437 495 346 510V433C390 420 420 383 420 331C420 212 376 91 294 -2L361 -56C448 56 498 195 498 331Z" transform="translate(0, 880) scale(1,-1)" /></svg>