<svg xmlns="http://www.w3.org/2000/svg" width="1000" height="1000"><path d="M142 19C251 19 306 164 306 303C306 410 256 518 146 566L118 494C200 451 229 378 229 303C229 203 196 98 142 98C119 98 105 113 105 152C105 237 170 330 310 442L266 506C121 399 27 274 27 152C27 54 72 19 142 19ZM143 540 204 509C251 575 301 667 327 733L265 771L251 761H54V684H219C199 636 170 582 143 540ZM347 44 383 -34 410 -18 854 44 841 121 481 73C545 165 609 269 678 394L594 424C530 294 461 176 401 86C383 59 366 51 347 44ZM860 -64 938 -37C904 64 855 184 795 296L723 269C782 155 826 33 860 -64ZM324 384H961V464H324ZM377 683H909V763H377Z" transform="translate(0, 880) scale(1,-1)" /></svg>