<svg xmlns="http://www.w3.org/2000/svg" width="1000" height="1000"><path d="M157 -61C258 -61 299 90 299 242C299 484 226 555 63 521V443C192 465 220 423 220 234C220 141 187 19 157 19C134 19 130 42 130 77C130 160 183 288 323 370L283 437C132 347 50 204 50 77C50 -16 95 -61 157 -61ZM246 591 294 656C228 701 174 734 113 760L77 695C137 668 188 636 246 591ZM334 9 366 -71C631 7 763 301 849 699L771 716C687 332 561 63 334 9ZM278 154 356 127C395 219 423 355 437 469L361 480C348 370 318 240 278 154ZM872 -71 906 9C713 43 550 316 505 615L426 604C478 248 680 -31 872 -71ZM646 567 715 611C671 681 594 779 534 836L473 789C533 732 605 637 646 567ZM894 129 971 157C951 248 906 386 861 489L788 465C832 361 875 226 894 129Z" transform="translate(0, 880) scale(1,-1)" /></svg>