<svg xmlns="http://www.w3.org/2000/svg" width="1000" height="1000"><path d="M144 -59C193 -59 220 -36 220 30V795H143V38C143 24 137 16 128 16C105 16 82 24 51 38V-49C82 -55 111 -59 144 -59ZM18 543 59 474C154 529 244 596 316 664L257 719C191 653 109 593 18 543ZM12 190 80 162 90 182 299 278 281 352 125 272 194 514 130 539ZM612 754H312V470C312 325 304 120 234 -25L308 -58C382 94 390 317 390 470V677H963V754H696L661 845L585 827ZM370 588V510H958V588ZM527 409 608 432C591 498 556 601 525 673L449 648C479 578 513 475 527 409ZM708 430 781 409C810 469 848 568 874 648L795 673C775 596 737 495 708 430ZM445 455V378H879V455ZM393 285 416 212C495 245 584 271 714 271C815 271 859 255 859 231C859 183 742 175 522 195V118C779 99 940 100 940 231C940 304 886 349 714 349C563 349 469 320 393 285ZM358 -10 396 -83C675 -20 710 93 709 231H631C631 110 614 50 358 -10ZM923 -87 971 -20C896 25 808 69 736 102L694 35C770 0 857 -45 923 -87Z" transform="translate(0, 880) scale(1,-1)" /></svg>