<svg xmlns="http://www.w3.org/2000/svg" width="1000" height="1000"><path d="M514 745H124V470C124 325 116 122 28 -23L99 -60C192 92 203 317 203 470V666H943V745H600L546 849L470 831ZM240 595V516H920V595ZM392 645V314H472V645ZM240 457V378H920V457ZM670 645V314H750V645ZM407 149 444 80C590 113 706 143 841 188L793 264L757 253L475 250C529 270 571 288 626 312L568 376C488 331 402 290 322 261C304 254 278 250 252 247L285 165L315 170L542 176C492 165 448 157 407 149ZM534 -89C625 -89 656 -57 656 23C656 79 625 122 569 160L501 123C550 88 574 58 574 23C574 -2 563 -12 523 -12C487 -12 445 -4 400 12V-71C444 -83 486 -89 534 -89ZM174 5 231 -45C287 -10 345 47 379 94L307 135C280 91 229 40 174 5ZM903 -48 972 -4C942 36 880 94 811 139L747 91C814 44 875 -10 903 -48Z" transform="translate(0, 880) scale(1,-1)" /></svg>