<svg xmlns="http://www.w3.org/2000/svg" width="1000" height="1000"><path d="M67 69 144 41C193 138 232 229 278 366L213 398L203 390H155C178 481 200 615 216 764L139 770C122 616 95 455 52 336L118 304L128 316H171C150 246 113 152 67 69ZM18 517H304V594H18ZM17 56 59 -10 303 128 258 193ZM955 673 882 710C827 620 767 541 701 465L748 396L767 403H827L622 282L694 228L988 414L934 490L915 481H812C857 532 908 601 955 673ZM641 -72C895 -72 973 19 973 124C973 236 896 294 726 294C617 294 536 282 451 266L467 188C550 202 628 214 726 214C844 214 893 184 893 124C893 59 836 6 641 6C489 6 431 31 431 51C431 66 454 81 538 81C609 81 624 72 624 59C624 41 590 18 509 -2L553 -61C640 -34 714 -1 714 59C714 119 659 155 538 155C414 155 352 108 352 51C352 -14 417 -72 641 -72ZM278 722 309 649C461 681 615 726 761 780L706 845C588 801 420 750 278 722ZM892 619 884 699C583 642 286 558 286 423C286 358 330 312 421 312C556 312 647 383 647 505C647 589 612 668 518 749L448 706C534 626 568 560 568 505C568 426 497 389 419 391C382 392 366 402 366 423C366 505 609 566 892 619Z" transform="translate(0, 880) scale(1,-1)" /></svg>