<svg xmlns="http://www.w3.org/2000/svg" width="1000" height="1000"><path d="M199 -82C250 -82 278 -59 278 9V834H199V12C199 -2 194 -10 183 -10C158 -10 130 -3 95 12V-70C130 -78 163 -82 199 -82ZM37 563 77 492C198 551 312 623 404 696L355 755C267 683 158 617 37 563ZM39 195 103 160 117 181 403 280 385 355 157 272 254 534 194 562ZM332 -56H921V24H332ZM516 20H651C704 64 725 151 725 228C725 320 682 363 609 363C551 363 495 320 495 245C495 166 545 125 609 125C625 125 639 128 651 136C630 80 586 38 516 20ZM335 708 374 637C441 681 546 732 684 732C808 732 847 689 847 624C847 515 696 504 468 538V452C723 427 927 439 927 624C927 730 869 812 684 812C512 812 402 753 335 708ZM692 292V630H615V322ZM609 195C584 195 564 217 564 245C564 273 584 295 609 295C636 295 655 273 655 245C655 217 636 195 609 195Z" transform="translate(0, 880) scale(1,-1)" /></svg>