<svg xmlns="http://www.w3.org/2000/svg" width="1000" height="1000"><path d="M52 432 84 356C379 440 659 528 917 627L877 694C626 600 340 510 52 432ZM113 402H193V772H113ZM921 360 951 435C672 490 529 546 511 838H429C438 541 601 415 921 360ZM294 664 339 592C499 635 665 688 803 740L753 807C624 758 471 707 294 664ZM633 -84C722 -84 766 -62 782 -26C818 54 827 168 824 259C821 364 760 394 590 394C491 394 388 387 275 372L277 299C404 317 503 322 591 322C686 322 739 318 742 256C745 184 735 92 707 25C699 4 677 -9 622 -9C571 -9 524 -4 469 11V-72C526 -80 581 -84 633 -84ZM94 -23 165 -75C289 70 311 204 319 390H235C227 211 214 107 94 -23ZM671 75 672 146 343 149 342 77ZM680 187 681 258 360 260 359 189Z" transform="translate(0, 880) scale(1,-1)" /></svg>