<svg xmlns="http://www.w3.org/2000/svg" width="1000" height="1000"><path d="M152 0C273 0 332 149 332 287C332 395 278 503 155 553L126 479C220 436 254 363 254 287C254 187 218 79 152 79C125 79 107 95 107 138C107 226 181 315 338 428L293 492C134 383 28 261 28 138C28 36 77 0 152 0ZM153 527 216 494C270 561 326 654 356 721L295 760L281 751H52V672H242C219 624 185 569 153 527ZM398 697H917V777H398ZM346 365H968V445H346ZM704 26V738H625V43C625 20 618 9 594 9C557 9 515 20 473 37V-48C514 -60 560 -69 612 -69C678 -69 704 -34 704 26Z" transform="translate(0, 880) scale(1,-1)" /></svg>