<svg xmlns="http://www.w3.org/2000/svg" width="1000" height="1000"><path d="M454 384 524 363C620 401 719 454 719 526C719 592 668 625 596 625C527 625 481 595 481 534C481 473 532 441 613 441C758 441 901 487 901 598C901 686 824 722 664 722C655 722 648 722 639 723C680 735 716 744 754 756H899V834H379V756H622C578 739 535 723 485 704C457 694 427 686 357 662L397 587C475 622 564 644 661 644C783 644 821 630 821 598C821 533 692 512 613 512C579 512 558 520 558 534C558 546 571 556 596 556C628 556 639 542 639 526C639 468 541 412 454 384ZM330 324 866 351 846 426 320 403ZM882 311 956 352C934 386 880 438 826 475L756 436C806 399 862 346 882 311ZM132 640 195 597C248 638 318 703 360 755L312 812L297 805H54V727H230C205 698 176 671 132 640ZM349 552C349 647 261 661 116 669V591C232 583 271 577 271 552C271 504 191 443 51 393L96 325C254 385 349 459 349 552ZM80 149 152 115C211 173 262 253 287 317L210 339C183 274 134 199 80 149ZM196 194H864V272H196ZM465 -93C525 -93 560 -58 560 3V347H480V18C480 -3 468 -18 434 -18C385 -18 337 -8 285 13V-73C343 -86 395 -93 465 -93ZM939 22 959 100C738 125 444 125 55 98V25C439 51 734 44 939 22Z" transform="translate(0, 880) scale(1,-1)" /></svg>