<svg xmlns="http://www.w3.org/2000/svg" width="1000" height="1000"><path d="M59 138 380 276 352 345 31 216ZM174 -54C221 -54 259 -33 259 34V719H179V60C179 36 172 23 150 23C130 23 106 27 79 41V-43C112 -51 144 -54 174 -54ZM47 434H368V514H47ZM57 746 61 664C161 669 288 687 369 708L353 787C278 766 156 748 57 746ZM623 70 640 -10C861 -8 942 72 942 215C942 320 888 402 712 402C567 402 455 356 350 265L407 203C487 274 587 322 712 322C823 322 863 269 863 215C863 129 809 64 623 70ZM628 -88 706 -56C686 16 650 98 619 158L546 127C578 74 610 -16 628 -88ZM640 557 699 507C770 565 860 657 931 756L869 805L856 796H395V716H797C757 667 695 603 640 557ZM740 418 796 477C720 551 653 595 559 640L511 578C608 533 669 488 740 418Z" transform="translate(0, 880) scale(1,-1)" /></svg>