<svg xmlns="http://www.w3.org/2000/svg" width="1000" height="1000"><path d="M180 -62C311 -62 374 109 374 256C374 375 316 495 183 550L153 485C258 436 294 341 294 256C294 148 255 16 180 16C151 16 128 38 128 96C128 202 209 296 380 426L336 485C164 362 49 232 49 96C49 -16 103 -62 180 -62ZM187 522 245 498C304 570 367 672 399 745L342 782L327 774H70V699H289C262 638 226 570 187 522ZM416 282H939V356H416ZM646 80C689 81 732 92 732 173V835H655V173C655 154 652 147 635 147C597 147 558 155 516 166V91C564 83 611 79 646 80ZM533 572 602 599C588 653 551 738 517 798L452 772C484 708 520 625 533 572ZM431 470H924V544H431ZM771 597 834 575C861 628 894 709 920 780L849 804C832 741 799 651 771 597ZM455 144 381 123C398 48 430 2 478 -21C572 -63 772 -81 922 -40L924 36C784 -4 604 11 521 49C488 64 467 91 455 144Z" transform="translate(0, 880) scale(1,-1)" /></svg>