<svg xmlns="http://www.w3.org/2000/svg" width="1000" height="1000"><path d="M69 730H930V801H69ZM812 493 883 469C907 503 918 535 918 576C918 665 805 693 597 693C426 693 268 655 161 591V664H85V484H161V531C268 592 453 617 597 617C787 617 839 596 839 575C839 548 833 522 812 493ZM333 506 412 527C398 592 369 686 344 759L268 742C293 673 320 573 333 506ZM553 523 628 503C655 569 690 665 714 749L632 767C613 683 580 588 553 523ZM435 -76C508 -76 549 -42 549 24V535H464V41C464 12 457 -6 422 -6C378 -6 340 1 295 19V-62C339 -72 389 -76 435 -76ZM50 9 116 -38C246 47 341 157 379 261L301 282C255 174 182 87 50 9ZM933 -21 963 54C732 111 504 155 271 187L253 117C485 86 717 36 933 -21ZM82 242H918V316H82ZM140 454V381H860V454Z" transform="translate(0, 880) scale(1,-1)" /></svg>