<svg xmlns="http://www.w3.org/2000/svg" width="1000" height="1000"><path d="M235 524H765V602H235ZM309 696 385 724C369 755 338 808 304 843L231 815C262 779 291 734 309 696ZM84 641H916V720H84ZM612 707 681 681C721 726 754 774 779 820L698 846C679 803 650 751 612 707ZM801 270 874 240C898 293 908 326 908 361C908 452 809 496 586 496C420 496 271 463 176 419V479H96V258H176V351C284 390 436 416 586 416C773 416 827 390 827 355C827 333 821 312 801 270ZM78 -20 136 -84C325 -11 346 93 346 182V276H641V48C641 -25 665 -64 734 -64H827C910 -64 927 -27 933 108L858 114C854 16 845 10 821 10H750C729 10 720 17 720 47V355H266V185C266 112 252 43 78 -20ZM594 227Q544 235 486.0 242.5Q428 250 351 260L328 187Q402 177 459.5 168.5Q517 160 568 152ZM594 131Q544 138 486.0 146.0Q428 154 351 162L328 89Q402 80 459.5 71.0Q517 62 568 55Z" transform="translate(0, 880) scale(1,-1)" /></svg>