<svg xmlns="http://www.w3.org/2000/svg" width="1000" height="1000"><path d="M169 -48C277 -48 332 108 332 253C332 366 282 480 173 532L143 459C225 414 255 333 255 253C255 148 223 32 169 32C146 32 132 47 132 90C132 182 197 284 337 405L292 468C146 353 54 217 54 90C54 -14 99 -48 169 -48ZM170 504 231 473C278 544 329 643 355 714L291 750L277 740H80V662H250C228 609 198 550 170 504ZM369 697 412 628C493 692 576 731 701 731C819 731 856 697 856 629C856 540 808 501 506 536V455C825 425 936 471 936 629C936 732 881 811 701 811C551 811 451 763 369 697ZM358 112H935V192H358ZM581 -72C655 -72 696 -35 696 48L697 633H618L617 65C617 25 606 6 573 6C542 6 507 13 471 27V-59C503 -68 538 -72 581 -72ZM382 266H912V346H382Z" transform="translate(0, 880) scale(1,-1)" /></svg>