<svg xmlns="http://www.w3.org/2000/svg" width="1000" height="1000"><path d="M51 59H131C122 184 118 362 134 483C143 550 176 617 208 617C246 617 259 524 259 406C259 262 251 161 230 161C219 161 218 174 218 194C218 262 256 389 334 483L276 537C189 443 140 309 140 193C140 116 173 76 229 76C330 76 339 210 339 406C339 575 310 698 216 698C177 698 146 667 128 606L142 714H62C44 418 44 247 51 59ZM481 150 546 107C694 260 815 420 907 577L833 626C752 472 628 297 481 150ZM952 -61 979 17C768 96 559 156 359 201L326 129C540 78 747 17 952 -61ZM553 340 618 387C579 444 512 519 449 585L388 528C455 464 512 400 553 340ZM361 727 377 649C559 663 776 697 927 747L892 824C762 776 546 743 361 727Z" transform="translate(0, 880) scale(1,-1)" /></svg>