<svg xmlns="http://www.w3.org/2000/svg" width="1000" height="1000"><path d="M127 749V672H873V749ZM460 835V570H540V835ZM810 391 885 361C909 404 920 440 920 491C920 584 805 618 607 618C426 618 270 571 163 493V598H83V381H163V437C270 510 453 540 607 540C785 540 837 510 837 490C837 457 831 427 810 391ZM314 253 349 191C511 244 631 298 781 371L725 433L661 397L401 395C471 439 533 487 606 543L537 589C451 517 370 459 284 410C264 399 235 392 207 388L215 316L269 327L519 330C456 304 385 278 314 253ZM467 -86C541 -86 594 -29 594 77C594 161 560 227 498 285L431 247C485 189 511 137 511 77C511 15 485 -16 456 -16C431 -16 379 -10 323 7V-68C371 -82 419 -86 467 -86ZM62 45 121 2C184 56 248 141 286 214L209 240C179 175 123 97 62 45ZM877 -2 952 31C918 89 849 178 773 245L704 210C778 139 846 56 877 -2Z" transform="translate(0, 880) scale(1,-1)" /></svg>