<svg xmlns="http://www.w3.org/2000/svg" width="1000" height="1000"><path d="M489 758 568 778C558 804 537 834 516 857L437 837C457 815 479 782 489 758ZM820 657 895 637C914 675 920 696 920 709C920 769 818 810 587 810C421 810 267 792 164 765V798H84V653H164V697C276 719 433 734 587 734C782 734 839 722 839 702C839 692 835 681 820 657ZM108 631 160 569C255 593 366 628 433 673L359 723C309 689 206 650 108 631ZM828 566 891 628C832 651 726 692 637 722L580 665C666 632 772 590 828 566ZM541 220H461C461 55 325 8 60 -21L108 -94C388 -60 541 25 541 220ZM97 69H903V147H97ZM883 -97 940 -30C859 8 716 59 587 94L533 35C660 -4 805 -59 883 -97ZM153 294 171 236C286 279 455 305 616 305C776 305 811 289 811 267C811 249 802 230 788 211L860 184C876 210 888 238 888 273C888 348 803 383 616 383C412 383 269 347 153 294ZM852 474H149V396H852ZM540 437V643H460V437ZM88 505H912V583H88ZM192 188V356H112V188ZM234 191H767V269H234Z" transform="translate(0, 880) scale(1,-1)" /></svg>