<svg xmlns="http://www.w3.org/2000/svg" width="1000" height="1000"><path d="M22 197 91 160 103 179 349 264 329 342 150 283 214 444 144 468ZM236 491V63C236 40 230 27 209 27C181 27 150 33 109 48V-37C152 -47 189 -49 226 -49C276 -49 316 -29 316 38V571H46V491ZM234 596 293 652C251 697 204 738 150 780L94 726C147 685 194 640 234 596ZM549 -59H840C937 -59 957 5 968 179L888 187C882 46 876 21 828 21H566C513 21 502 34 502 84V802H424V81C424 -30 447 -59 549 -59ZM555 182 615 138C707 237 814 367 905 506L826 543C743 410 639 274 555 182ZM541 476 603 436C676 520 752 618 832 740L751 777C682 661 607 556 541 476Z" transform="translate(0, 880) scale(1,-1)" /></svg>