<svg xmlns="http://www.w3.org/2000/svg" width="1000" height="1000"><path d="M127 62 197 32C239 112 294 233 327 312L255 351L247 337H214C248 451 262 560 272 781L195 784C187 561 169 450 118 303L173 257L186 268H219C197 206 162 128 127 62ZM375 94 344 168 61 46 90 -29ZM21 376 94 353C121 423 139 528 151 618L76 628C66 542 48 440 21 376ZM268 372 338 356C360 423 384 524 404 609L327 626C313 541 288 437 268 372ZM418 362 453 286 470 294H910V374H521C579 510 626 668 667 825L589 842C549 681 495 511 446 395C440 381 430 369 418 362ZM364 9 436 -40C484 22 534 118 566 216L487 239C461 152 414 66 364 9ZM646 -71C690 -71 731 -53 731 23V557H418V478H653V34C653 16 648 8 629 7C609 6 580 12 541 29V-58C573 -67 606 -71 646 -71ZM895 -33 966 14C937 77 878 174 826 244L758 202C810 131 868 29 895 -33ZM397 651H928V731H397Z" transform="translate(0, 880) scale(1,-1)" /></svg>