<svg xmlns="http://www.w3.org/2000/svg" width="1000" height="1000"><path d="M296 693 220 704C178 463 106 245 35 82L107 45C177 214 253 454 296 693ZM264 26C245 26 236 39 236 67C236 112 266 212 351 322L297 362C205 254 158 138 158 67C158 -6 201 -51 264 -51C353 -51 394 25 394 192C394 358 346 426 271 426C224 426 188 407 163 369L179 297C207 330 240 347 270 347C301 347 314 292 314 192C314 61 291 26 264 26ZM62 670H405V749H62ZM501 449H838V527H501ZM554 -79H828C888 -79 916 -31 931 102L853 111C845 24 833 -1 808 -1H581C554 -1 543 6 543 17C543 35 558 53 880 294L835 357L816 350H448V272L709 273C471 96 445 59 445 9C445 -43 474 -79 554 -79ZM659 703 735 722C720 766 692 816 665 855L592 834C619 795 647 743 659 703ZM819 541 897 513C919 562 929 593 929 623C929 711 855 750 722 750C617 750 507 730 420 706L440 627C522 651 633 669 722 669C817 669 843 647 843 616C843 597 837 577 819 541Z" transform="translate(0, 880) scale(1,-1)" /></svg>