<svg xmlns="http://www.w3.org/2000/svg" width="1000" height="1000"><path d="M648 296C741 296 750 263 750 168C750 38 734 4 702 3C664 2 632 9 595 27V-61C632 -71 667 -75 705 -74C793 -71 829 -6 829 168C829 338 769 378 648 378C496 378 343 213 343 94C343 17 381 -12 439 -12C518 -12 556 76 556 245C556 399 488 444 367 444C187 444 47 256 47 84C47 -3 89 -45 159 -45C333 -45 427 353 435 739H355C350 387 258 37 159 37C140 37 127 52 127 84C127 201 229 364 367 364C462 364 477 317 477 245C477 135 464 69 439 69C427 69 422 79 422 94C422 167 526 296 648 296ZM549 72 622 36C658 89 696 170 719 251L644 268C621 194 586 122 549 72ZM906 43 983 70C969 127 939 217 907 284L834 262C864 193 892 102 906 43ZM196 443 264 489C240 538 191 609 145 662L80 619C125 566 173 493 196 443ZM509 485 574 443C615 489 669 563 708 625L635 668C605 609 551 534 509 485ZM62 772 75 692C300 698 565 721 747 751L719 826C555 798 289 775 62 772Z" transform="translate(0, 880) scale(1,-1)" /></svg>