<svg xmlns="http://www.w3.org/2000/svg" width="1000" height="1000"><path d="M312 680 388 708C372 742 340 800 306 838L233 810C264 771 294 722 312 680ZM88 625H919V698H88ZM615 689 682 663C723 713 757 765 782 816L702 842C683 794 654 738 615 689ZM159 318 338 381 309 444 130 382ZM514 405V332C801 317 887 373 887 456C887 536 804 585 581 585C389 585 212 549 104 509L140 440C241 480 408 511 581 511C725 511 802 495 802 456C802 412 706 393 514 405ZM140 275V204H860V275ZM128 143V67H872V143ZM456 -80C515 -80 549 -47 549 13V655H470V27C470 9 459 -7 438 -7C387 -7 338 2 285 22V-62C340 -75 389 -80 456 -80Z" transform="translate(0, 880) scale(1,-1)" /></svg>