<svg xmlns="http://www.w3.org/2000/svg" width="1000" height="1000"><path d="M73 78 138 34C238 114 315 254 315 367C315 447 263 485 200 485C136 485 84 443 84 367C84 290 139 247 206 250C186 199 145 131 73 78ZM200 320C173 320 152 335 152 367C152 397 174 415 200 415C224 415 246 397 246 367C246 335 224 320 200 320ZM287 392V678H209V455ZM51 703V625H348V703ZM29 78 51 1 357 92 334 169ZM859 -80 934 -41C902 47 835 180 771 279L699 247C759 152 824 15 859 -80ZM685 373V831H606V373ZM345 581H951V661H345ZM919 412H374V331H919ZM647 346 566 377C518 254 462 142 410 56C400 40 390 28 374 23L403 -55L424 -46L845 6L829 83L488 43C542 129 598 233 647 346Z" transform="translate(0, 880) scale(1,-1)" /></svg>