<svg xmlns="http://www.w3.org/2000/svg" width="1000" height="1000"><path d="M801 592 865 554C907 578 932 608 932 654C932 721 843 770 583 770C406 770 263 747 153 705V744H77V569H153V650C267 681 418 698 582 698C798 698 850 672 850 654C850 630 835 610 801 592ZM258 550H743V624H540V837H461V624H258ZM215 365 281 398C264 435 219 486 179 523L115 494C152 457 193 402 215 365ZM477 384 549 408C536 450 501 502 465 546L397 522C430 479 463 425 477 384ZM691 389 755 371C797 412 841 462 874 508L800 537C775 492 731 434 691 389ZM31 -44 92 -77C208 -2 227 109 226 188L224 295H749C751 64 767 -74 884 -74C949 -74 966 -40 973 70L908 75C906 16 900 -10 884 -10C829 -10 822 149 825 367H150V188C150 114 140 27 31 -44ZM295 175H690V242H295ZM538 22V341H462L464 31C464 19 459 13 446 13C413 13 377 16 331 26V-46C376 -53 415 -56 452 -56C522 -56 538 -32 538 22ZM295 65H690V133H295Z" transform="translate(0, 880) scale(1,-1)" /></svg>