<svg xmlns="http://www.w3.org/2000/svg" width="1000" height="1000"><path d="M513 754H119V470C119 325 111 122 23 -23L94 -60C187 92 198 317 198 470V675H943V754H600L546 852L469 834ZM231 620V541H920V620ZM389 659V370H469V659ZM231 499V421H920V499ZM670 659V370H750V659ZM509 -82C578 -82 612 -52 612 7V404H533V32C533 6 525 -6 495 -6C457 -6 424 1 385 17V-70C424 -78 468 -82 509 -82ZM176 9 242 -48C354 15 435 96 468 172L392 208C352 129 289 66 176 9ZM940 -36 967 42C768 85 571 117 371 141L355 65C554 43 754 5 940 -36ZM207 161H927V240H207ZM257 353V275H877V353Z" transform="translate(0, 880) scale(1,-1)" /></svg>