<svg xmlns="http://www.w3.org/2000/svg" width="1000" height="1000"><path d="M53 97 118 52C215 133 288 274 288 390C288 472 237 508 175 508C112 508 62 467 62 390C62 314 117 271 183 274C163 222 123 151 53 97ZM175 343C149 343 129 358 129 390C129 420 150 439 175 439C198 439 220 420 220 390C220 358 198 343 175 343ZM261 415V702H183V478ZM43 727V649H310V727ZM21 100 44 24 319 109 295 185ZM416 522 490 551C473 618 441 713 409 784L338 757C367 688 400 590 416 522ZM621 555 700 576C687 651 663 747 634 829L557 809C584 729 610 631 621 555ZM790 539 861 516C894 593 931 698 956 785L877 809C856 724 821 616 790 539ZM798 -37 867 -78C910 0 951 91 951 206C951 318 893 367 806 367C745 367 708 358 675 341V498H597V301L580 287L619 221C678 263 738 288 795 288C845 288 872 253 872 198C872 119 842 37 798 -37ZM474 -42C571 -42 645 -25 724 0L698 73C628 51 554 38 472 38C443 38 428 51 428 93C428 153 446 246 467 338L395 357C368 258 348 170 348 81C348 -3 391 -42 474 -42Z" transform="translate(0, 880) scale(1,-1)" /></svg>