<svg xmlns="http://www.w3.org/2000/svg" width="1000" height="1000"><path d="M254 674 180 684C145 455 83 247 22 91L92 57C152 218 216 447 254 674ZM223 41C210 41 203 53 203 80C203 122 227 216 300 319L247 358C168 255 127 148 127 80C127 8 167 -35 223 -35C304 -35 338 38 338 197C338 357 295 422 228 422C188 422 158 404 137 368L150 297C174 329 202 345 227 345C250 345 261 292 261 197C261 74 242 41 223 41ZM50 650H352V728H50ZM362 701H755V781H362ZM605 -72C653 -72 694 -31 694 52V744H615V66C615 26 612 6 594 6C581 6 557 12 537 24V-58C556 -68 578 -72 605 -72ZM738 72 777 -3C898 48 952 121 952 267C952 405 880 479 736 479C584 479 445 435 338 377L357 300C456 357 613 398 736 398C830 398 872 346 872 267C872 165 827 102 738 72ZM908 457 977 508C935 578 877 651 816 718L754 675C819 602 866 532 908 457ZM494 744H415V-70H494Z" transform="translate(0, 880) scale(1,-1)" /></svg>