<svg xmlns="http://www.w3.org/2000/svg" width="1000" height="1000"><path d="M166 -63C282 -63 338 101 338 249C338 366 285 485 169 538L138 465C227 418 260 333 260 249C260 142 227 17 166 17C141 17 123 37 123 91C123 190 195 283 345 410L298 472C144 352 44 223 44 91C44 -17 93 -63 166 -63ZM166 510 229 478C280 552 335 656 363 731L302 765L286 756H69V677H252C231 619 198 557 166 510ZM480 340H830V420H480ZM357 155H951V235H357ZM356 398 412 339C667 448 698 629 698 840H618C618 642 601 500 356 398ZM888 334 954 386C883 461 805 538 738 600L679 548C748 486 825 407 888 334ZM369 697 377 614C572 620 791 640 947 666L926 744C781 717 567 699 369 697ZM621 -79C677 -79 707 -44 707 16V368H628V27C628 10 620 -3 600 -3C571 -3 536 3 490 19V-62C537 -74 577 -79 621 -79Z" transform="translate(0, 880) scale(1,-1)" /></svg>