<svg xmlns="http://www.w3.org/2000/svg" width="1000" height="1000"><path d="M96 64 162 20C261 101 334 239 334 353C334 438 290 480 229 480C164 480 107 438 107 360C107 280 160 242 227 247C208 194 167 119 96 64ZM223 311C196 311 175 328 175 361C175 392 197 411 223 411C246 411 269 392 269 363C269 328 247 311 223 311ZM309 386V681H231V450ZM81 706V628H364V706ZM59 64 82 -13 373 78 350 154ZM585 388H667V835H585ZM369 608 412 539C502 599 615 640 722 640C810 640 843 610 843 585C843 556 835 533 817 508L895 477C915 510 926 541 926 586C926 672 847 720 722 720C589 720 466 669 369 608ZM368 -9 416 -82C606 -7 876 143 876 298C876 401 816 444 693 444C579 444 496 420 416 390L440 312C518 347 591 364 693 364C758 364 794 343 794 298C794 187 560 58 368 -9ZM872 -87 934 -20C763 106 633 180 476 242L429 179C584 113 704 42 872 -87Z" transform="translate(0, 880) scale(1,-1)" /></svg>