<svg xmlns="http://www.w3.org/2000/svg" width="1000" height="1000"><path d="M657 52H759V132H669C635 132 616 156 616 212V801H538V207C538 106 586 52 657 52ZM795 -74C920 -74 944 68 944 374C944 628 880 718 740 718C635 718 536 690 474 653L503 580C562 616 655 638 740 638C834 638 866 532 866 374C866 147 855 5 793 5C750 5 716 17 689 30V-58C716 -68 751 -74 795 -74ZM760 246 832 287C796 363 755 438 708 511L640 473C685 398 726 322 760 246ZM68 757 76 677C211 682 364 697 472 715L457 793C353 775 203 759 68 757ZM53 528V448H478V528ZM230 723V302H310V723ZM386 244 334 303C196 235 86 165 86 67C86 -6 148 -61 235 -61C382 -61 480 30 480 167C480 270 436 344 272 344C194 344 117 322 68 299L96 225C139 247 209 264 272 264C367 264 400 230 400 167C400 77 324 19 235 19C193 19 166 40 166 67C166 111 259 181 386 244Z" transform="translate(0, 880) scale(1,-1)" /></svg>