<svg xmlns="http://www.w3.org/2000/svg" width="1000" height="1000"><path d="M77 132 454 279 432 347 56 210ZM219 -72C267 -72 303 -51 303 17V748H228V37C228 13 217 0 203 0C178 0 150 4 115 18V-60C152 -69 186 -72 219 -72ZM65 448H421V527H65ZM92 773 98 695C209 700 336 718 425 739L412 814C329 793 203 775 92 773ZM416 -25 479 -79C701 137 744 526 741 831H663C663 531 629 178 416 -25ZM897 -79 963 -26C891 118 792 275 692 413L636 357C726 228 827 67 897 -79ZM465 469H936V548H465Z" transform="translate(0, 880) scale(1,-1)" /></svg>