<svg xmlns="http://www.w3.org/2000/svg" width="1000" height="1000"><path d="M581 496V416C882 381 916 497 916 595C916 699 856 766 743 766C663 766 608 734 551 667C568 720 583 775 595 837L514 849C487 711 437 578 380 490L452 446C483 500 502 538 519 576C589 652 673 686 739 686C804 686 835 641 835 595C835 524 805 459 581 496ZM454 3 482 -79C711 -55 928 24 928 206C928 293 874 369 705 369C549 369 430 314 430 199C430 123 489 78 576 78C644 78 720 113 720 210V592H640V221C640 174 615 154 576 154C534 154 512 175 512 199C512 248 574 288 705 288C816 288 844 244 844 207C844 77 653 20 454 3ZM189 -62C321 -62 383 109 383 256C383 375 325 495 192 550L162 485C267 436 304 341 304 256C304 148 264 16 189 16C160 16 137 38 137 96C137 202 218 296 389 426L345 485C173 362 59 232 59 96C59 -16 112 -62 189 -62ZM197 522 257 492C315 566 377 670 409 745L351 782L337 774H79V699H302C275 638 235 570 197 522Z" transform="translate(0, 880) scale(1,-1)" /></svg>