<svg xmlns="http://www.w3.org/2000/svg" width="1000" height="1000"><path d="M265 647 192 659C154 443 90 247 26 100L96 65C158 217 226 432 265 647ZM234 54C219 54 211 65 211 91C211 130 237 216 313 313L260 351C178 254 135 156 135 90C135 21 176 -21 234 -21C317 -21 352 48 352 200C352 352 308 414 240 414C197 414 166 396 144 362L158 293C183 323 212 338 239 338C264 338 276 288 276 200C276 85 255 54 234 54ZM53 622H359V700H53ZM865 -80 940 -41C907 47 838 180 772 279L701 247C762 152 829 15 865 -80ZM684 373V831H606V373ZM337 581H958V661H337ZM925 412H367V331H925ZM646 346 564 377C515 254 458 142 405 56C395 40 384 28 368 23L397 -56L418 -46L849 6L833 83L483 43C539 129 596 233 646 346Z" transform="translate(0, 880) scale(1,-1)" /></svg>