<svg xmlns="http://www.w3.org/2000/svg" width="1000" height="1000"><path d="M73 50 135 4C230 88 299 240 299 365C299 452 256 492 193 492C134 492 79 449 79 369C79 287 133 249 198 254C182 197 143 111 73 50ZM190 319C165 319 145 336 145 370C145 402 166 422 190 422C213 422 234 402 234 371C234 336 213 319 190 319ZM275 396V713H197V461ZM74 738V660H312V738ZM51 52 76 -24 321 63 296 139ZM545 -60H807C887 -60 909 -18 923 132L844 139C838 40 828 20 792 20H566C542 20 534 26 534 37C534 57 548 71 815 241L763 317L738 303H685L839 483L779 536L760 524C467 501 298 406 298 295C298 235 341 194 401 194C500 194 558 277 795 724L731 762L714 752H501V672H682C497 325 450 274 401 274C385 274 377 282 377 295C377 341 491 418 700 435L567 282L605 223H642C462 117 435 85 435 29C435 -27 468 -60 545 -60ZM325 507 390 459C476 571 540 689 593 821L517 844C469 723 403 604 325 507ZM887 211 963 238C946 300 915 383 885 441L814 413C844 352 872 273 887 211Z" transform="translate(0, 880) scale(1,-1)" /></svg>