<svg xmlns="http://www.w3.org/2000/svg" width="1000" height="1000"><path d="M50 117 118 72C214 153 284 287 284 403C284 484 234 519 173 519C110 519 62 478 62 403C62 328 112 289 176 289C156 238 118 170 50 117ZM173 358C148 358 129 372 129 403C129 432 149 450 173 450C196 450 217 432 217 403C217 372 196 358 173 358ZM259 428V701H181V489ZM53 725V648H300V725ZM30 124 54 49 308 126 284 201ZM249 53 304 -11C519 132 724 336 830 473L756 523L739 503H555C675 589 778 675 879 777L810 828C714 722 586 612 425 499C414 492 399 483 382 479L427 405L461 423H681C617 346 442 175 249 53ZM621 -65C666 -65 706 -56 754 -24V60C706 29 671 13 638 13C620 13 612 17 612 48V259H533V31C533 -37 560 -65 621 -65ZM902 -5 963 54C886 127 807 201 720 271L664 222C748 149 827 73 902 -5ZM496 614 559 667C515 718 454 775 397 820L336 769C396 722 454 668 496 614Z" transform="translate(0, 880) scale(1,-1)" /></svg>