<svg xmlns="http://www.w3.org/2000/svg" width="1000" height="1000"><path d="M532 760H186V470C186 325 177 122 89 -23L158 -60C251 92 264 317 264 470V682H943V760H621L575 855L496 837ZM205 291 127 261V592H49V274C49 240 31 221 19 213L47 141L232 219ZM471 241 537 196C610 249 665 289 665 368C665 446 595 480 484 480C383 480 316 449 316 377C316 309 357 275 439 275C493 275 537 303 537 364V647H458V385C458 363 450 354 432 354C412 354 395 363 395 377C395 391 417 402 484 402C546 402 585 388 585 368C585 330 554 297 471 241ZM307 135 706 233 687 306 284 211ZM295 499H698V577H295ZM796 638V193H875V638ZM707 229V151H964V229ZM269 -39 338 -76C385 -28 424 37 442 100L370 130C354 69 311 2 269 -39ZM634 -71C675 -71 709 -54 752 -14L693 36C673 15 662 11 643 11C625 11 613 26 594 122L515 108C548 -41 583 -71 634 -71ZM894 -73 963 -37C937 12 886 84 842 137L780 96C827 41 870 -27 894 -73Z" transform="translate(0, 880) scale(1,-1)" /></svg>