<svg xmlns="http://www.w3.org/2000/svg" width="1000" height="1000"><path d="M831 680H256L295 792L218 804C203 751 176 682 151 634L207 594L226 604H831ZM541 501V836H459V501H91V428H912V501ZM349 386 322 319C433 303 549 285 644 264L678 336C580 354 464 372 349 386ZM467 -76C541 -76 594 -28 594 61C594 134 561 189 498 237L433 198C487 152 513 109 513 61C513 16 486 -9 458 -9C433 -9 379 -3 323 12V-62C371 -72 419 -76 467 -76ZM59 46 121 1C184 51 248 130 286 196L206 227C176 166 120 94 59 46ZM877 -4 955 33C921 87 852 168 776 232L704 192C778 127 846 50 877 -4Z" transform="translate(0, 880) scale(1,-1)" /></svg>