<svg xmlns="http://www.w3.org/2000/svg" width="1000" height="1000"><path d="M65 84 132 38C231 119 307 263 307 379C307 461 255 498 192 498C128 498 77 456 77 379C77 301 130 258 197 262C178 209 137 139 65 84ZM192 331C165 331 145 347 145 379C145 409 166 428 192 428C216 428 238 410 238 379C238 347 216 331 192 331ZM279 404V698H201V468ZM48 723V645H337V723ZM26 83 49 6 345 97 322 174ZM382 665H970V745H382ZM766 43V704H688V47C688 25 679 17 664 17C627 17 590 26 549 39V-49C599 -58 646 -62 683 -61C738 -60 766 -38 766 43Z" transform="translate(0, 880) scale(1,-1)" /></svg>