<svg xmlns="http://www.w3.org/2000/svg" width="1000" height="1000"><path d="M151 -15C260 -15 314 132 314 271C314 379 265 488 155 536L126 464C208 421 237 347 237 271C237 171 206 64 151 64C128 64 114 82 114 129C114 215 178 299 319 412L274 475C130 367 36 251 36 129C36 30 82 -15 151 -15ZM152 510 212 479C260 546 310 639 336 705L273 743L260 733H63V655H228C208 607 179 552 152 510ZM269 53 324 -11C535 132 735 337 839 474L765 523L748 503H570C687 589 788 675 887 777L818 828C723 722 599 612 441 499C430 492 416 483 399 479L445 405L478 423H692C629 346 458 175 269 53ZM634 -65C678 -65 717 -56 765 -24V60C717 29 683 13 651 13C634 13 626 17 626 48V259H547V31C547 -37 574 -65 634 -65ZM908 -5 969 54C894 127 816 201 732 271L675 222C757 149 834 73 908 -5ZM510 614 574 667C531 718 471 775 415 820L354 769C413 722 469 668 510 614Z" transform="translate(0, 880) scale(1,-1)" /></svg>