<svg xmlns="http://www.w3.org/2000/svg" width="1000" height="1000"><path d="M643 -83C818 -83 910 18 910 160C910 320 777 379 567 379C489 379 448 374 396 364C455 402 523 455 578 530L499 565C449 480 376 422 269 353C252 342 203 329 146 314L190 243C299 275 420 299 559 299C715 299 829 278 829 160C829 70 759 -7 635 -7C577 -7 519 -1 463 11V-71C517 -78 578 -83 643 -83ZM104 410H896V488H104ZM252 181H718V256H252ZM535 68V286H456L458 88C458 71 452 62 442 62C413 62 377 67 336 77V-2C371 -8 411 -11 453 -11C512 -11 535 14 535 68ZM235 87H735V159H235ZM565 569 644 547C656 565 664 586 664 607C664 655 616 694 503 694C387 694 347 657 347 614C347 561 398 526 546 526C763 526 877 569 877 672C877 753 810 814 586 814C387 814 271 783 180 744L217 673C310 710 433 736 586 736C741 736 791 699 791 672C791 623 712 593 546 593C458 593 426 600 426 612C426 623 452 633 503 633C553 633 584 624 584 607C584 594 577 581 565 569ZM165 789V551H243V789Z" transform="translate(0, 880) scale(1,-1)" /></svg>