<svg xmlns="http://www.w3.org/2000/svg" width="1000" height="1000"><path d="M533 745H214V470C214 325 206 122 117 -23L187 -60C280 92 293 317 293 470V666H943V745H622L571 850L492 832ZM234 299 146 264V592H67V277C67 243 49 224 37 216L66 143L262 225ZM327 377H924V456H327ZM293 -51H964V28H293ZM542 0 646 -26C708 14 760 98 760 204C760 279 701 320 605 320C510 320 451 279 451 204C451 129 510 88 605 88C629 88 647 92 663 97C644 54 592 14 542 0ZM605 160C557 160 531 179 531 204C531 229 557 247 605 247C654 247 680 229 680 204C680 179 654 160 605 160ZM727 482 763 554C710 575 597 612 518 631L484 563C558 546 674 504 727 482ZM724 416H645V285L724 228Z" transform="translate(0, 880) scale(1,-1)" /></svg>