<svg xmlns="http://www.w3.org/2000/svg" width="1000" height="1000"><path d="M309 681 385 709C369 742 338 798 303 835L230 807C262 769 291 721 309 681ZM79 623H921V703H79ZM612 692 681 666C721 713 754 763 780 812L698 838C679 792 650 738 612 692ZM105 440H896V518H105ZM626 -82C708 -82 745 -42 745 39L746 479H666L665 54C665 15 653 -6 614 -6C577 -6 536 0 495 11V-69C532 -78 574 -82 626 -82ZM930 187 949 267C733 285 436 285 65 266V191C431 208 729 203 930 187ZM342 479H262V-74H342Z" transform="translate(0, 880) scale(1,-1)" /></svg>