<svg xmlns="http://www.w3.org/2000/svg" width="1000" height="1000"><path d="M473 -68C740 -68 897 25 897 166C897 295 806 365 580 365C510 365 437 357 383 346C424 395 481 485 514 564L432 583C404 502 340 389 280 324L251 314L282 237C359 266 458 285 580 285C745 285 816 247 816 166C816 54 620 10 473 10C366 10 314 24 314 54C314 82 356 97 411 97C492 97 548 69 562 -18L645 -4C625 100 547 173 411 173C303 173 233 128 233 54C233 -29 305 -68 473 -68ZM81 474 146 424C251 539 336 679 377 826L298 842C256 700 174 564 81 474ZM210 633 244 559C351 624 491 676 616 676C725 676 781 642 781 589C781 513 722 465 407 498V418C788 380 862 473 862 589C862 702 775 756 616 756C450 756 309 689 210 633Z" transform="translate(0, 880) scale(1,-1)" /></svg>