<svg xmlns="http://www.w3.org/2000/svg" width="1000" height="1000"><path d="M157 -25C270 -25 325 133 325 278C325 391 274 506 161 558L131 485C217 439 248 358 248 278C248 173 215 55 157 55C133 55 117 71 117 115C117 208 186 309 332 431L285 494C136 378 39 243 39 115C39 10 86 -25 157 -25ZM158 530 220 499C270 570 322 670 349 741L286 777L272 767H65V689H243C220 636 188 576 158 530ZM520 17 632 -10C715 47 754 160 754 263C754 360 707 419 621 419C547 419 489 370 489 282C489 191 550 146 621 146C633 146 643 147 656 151C636 89 589 37 520 17ZM352 -51H951V29H352ZM621 219C590 219 564 245 564 282C564 321 590 343 621 343C652 343 678 321 678 282C678 245 652 219 621 219ZM373 422 443 390C494 467 525 553 548 638L466 655C450 578 422 497 373 422ZM710 323V755H631V388ZM373 715H930V795H373ZM860 390 936 424C914 503 881 578 829 662L761 632C812 545 840 469 860 390Z" transform="translate(0, 880) scale(1,-1)" /></svg>