<svg xmlns="http://www.w3.org/2000/svg" width="1000" height="1000"><path d="M514 745H124V470C124 325 116 122 28 -23L99 -60C192 92 203 317 203 470V666H943V745H600L546 849L470 831ZM240 595V516H920V595ZM392 645V314H472V645ZM240 458V378H920V458ZM670 645V314H750V645ZM652 236 574 279C486 195 333 117 184 59L240 1C393 62 557 148 652 236ZM615 1V-76C840 -98 909 -43 909 36C909 117 834 164 706 164C620 164 544 146 486 108V132H406V-63H486V55C567 74 633 86 704 86C785 86 825 66 825 36C825 -2 782 -19 615 1ZM223 226H920V303H223Z" transform="translate(0, 880) scale(1,-1)" /></svg>