<svg xmlns="http://www.w3.org/2000/svg" width="1000" height="1000"><path d="M62 50 125 4C219 88 306 251 306 348C306 434 264 487 211 487C142 487 88 444 88 365C88 284 133 248 198 251C181 195 131 109 62 50ZM200 315C175 315 154 332 154 365C154 398 176 417 200 417C223 417 242 396 242 370C242 332 223 315 200 315ZM282 391V701H205V456ZM71 725V648H333V725ZM48 55 72 -21 341 70 318 146ZM420 493H858V573H420ZM412 291H866V371H412ZM679 -78V661H600V-78ZM339 89H939V169H339ZM815 568 892 535C919 591 930 627 930 665C930 764 853 807 679 807C555 807 440 776 354 738L385 660C462 698 571 724 679 724C813 724 847 697 847 660C847 635 838 612 815 568Z" transform="translate(0, 880) scale(1,-1)" /></svg>