<svg xmlns="http://www.w3.org/2000/svg" width="1000" height="1000"><path d="M51 455 99 382C412 450 642 546 738 756L675 790L655 781H330V703H614C524 588 343 509 51 455ZM49 626 106 563C259 626 378 720 442 809L372 850C301 758 185 677 49 626ZM893 393 955 456C823 524 694 578 549 627L501 565C636 518 763 462 893 393ZM329 32 408 -2C495 43 611 114 677 168L619 232L597 225H458C513 291 542 360 562 462L482 471C464 366 423 282 318 195L367 138L390 146H508C459 107 401 70 329 32ZM867 -86 902 -11C627 28 382 55 138 75L94 1C358 -22 614 -50 867 -86ZM73 218 148 181C211 225 252 299 277 360L201 389C179 330 136 261 73 218ZM689 216 755 181C803 225 863 294 907 353L824 389C793 335 735 261 689 216Z" transform="translate(0, 880) scale(1,-1)" /></svg>