<svg xmlns="http://www.w3.org/2000/svg" width="1000" height="1000"><path d="M59 660V580H376V660ZM179 823V442H256V823ZM239 468C173 468 99 434 51 388L96 321C139 364 180 388 239 388C276 388 292 363 292 315C292 189 197 22 153 22C131 22 116 54 116 109C116 156 130 193 146 193C190 193 244 36 342 -77L409 -7C314 88 236 272 146 272C80 272 38 210 38 109C38 17 88 -56 153 -56C217 -56 369 144 369 315C369 409 331 468 239 468ZM479 -70C582 -70 643 76 643 394C643 631 634 783 512 783C479 783 440 773 409 759L424 685C452 698 487 707 513 707C551 707 566 564 566 394C566 199 528 10 480 10C462 10 457 41 457 85C457 304 633 718 773 718C841 718 863 577 863 404C863 202 841 10 794 10C771 10 730 19 687 39V-46C729 -60 767 -64 797 -64C915 -64 942 86 942 404C942 640 911 798 773 798C579 798 379 355 379 83C379 -18 415 -70 479 -70ZM812 174 843 247C787 282 732 315 676 334L647 263C705 240 758 213 812 174ZM818 390 848 465C796 497 741 521 686 540L658 469C711 450 764 423 818 390Z" transform="translate(0, 880) scale(1,-1)" /></svg>