<svg xmlns="http://www.w3.org/2000/svg" width="1000" height="1000"><path d="M139 44 208 14C253 98 312 224 346 308L273 347L265 333H225C263 455 277 569 288 804L210 808C201 572 183 454 129 299L185 253L199 264H241C216 198 178 114 139 44ZM400 81 370 155 69 26 97 -49ZM24 376 98 352C127 424 145 537 158 632L82 643C72 552 53 444 24 376ZM292 372 363 355C385 425 412 533 433 623L355 642C340 554 313 442 292 372ZM490 446 568 418C630 540 682 680 714 816L632 834C602 702 553 563 490 446ZM824 471 902 437C923 484 933 519 933 561C933 657 863 703 713 703C586 703 461 661 380 620L413 541C487 581 603 618 713 618C819 618 849 590 849 556C849 529 842 507 824 471ZM464 460V380H759V258H498V306H419V83C419 -35 455 -60 559 -60H806C906 -60 938 -2 954 171L875 185C865 35 847 20 788 20H565C510 20 498 33 498 83V178H838V460Z" transform="translate(0, 880) scale(1,-1)" /></svg>