<svg xmlns="http://www.w3.org/2000/svg" width="1000" height="1000"><path d="M25 369 104 348C130 459 153 615 165 739L85 746C73 618 51 470 25 369ZM86 522H358V602H86ZM196 -58C249 -58 274 -23 274 36V789H195V48C195 29 189 19 175 19C146 19 115 27 82 41V-42C115 -52 149 -58 196 -58ZM377 283 344 356 26 215 59 143ZM755 295 810 232C905 308 951 400 951 512C951 601 906 672 780 673C596 674 458 540 334 403L397 346C522 491 645 593 780 593C846 593 871 557 871 512C871 435 837 358 755 295ZM587 -60H814C910 -60 929 -6 940 163L863 168C856 38 849 16 802 16H603C553 16 542 29 542 79V816H464V80C464 -31 488 -60 587 -60Z" transform="translate(0, 880) scale(1,-1)" /></svg>