<svg xmlns="http://www.w3.org/2000/svg" width="1000" height="1000"><path d="M309 691 385 719C369 751 338 805 304 841L231 813C262 776 291 730 309 691ZM79 635H921V714H79ZM612 702 681 676C721 722 754 771 779 818L698 844C679 800 650 747 612 702ZM465 380 513 316C630 370 760 448 837 510L780 571L763 566H200V487H652C609 456 547 419 465 380ZM284 150C318 192 347 235 375 283L305 321C238 214 167 129 60 83L111 20C142 33 185 56 220 78C255 82 285 66 305 16L463 71L438 139L344 114C333 132 312 144 284 150ZM455 219 426 152C617 98 782 35 901 -28L950 53C825 104 659 162 455 219ZM555 245 581 175C691 201 773 221 867 264L819 334C735 296 664 272 555 245ZM460 423 401 368C503 281 562 200 562 115C562 61 545 0 471 0C432 0 395 4 357 22V-63C392 -72 431 -76 476 -76C612 -76 642 15 642 115C642 225 568 327 460 423Z" transform="translate(0, 880) scale(1,-1)" /></svg>