<svg xmlns="http://www.w3.org/2000/svg" width="1000" height="1000"><path d="M532 750H206V470C206 325 198 122 110 -23L178 -60C271 92 284 317 284 470V672H943V750H621L575 845L496 827ZM225 291 147 261V592H69V274C69 240 51 221 39 213L67 141L252 219ZM292 521H460V598H292ZM414 562H338V-58H414ZM610 -3 687 -40C748 14 772 95 772 138C772 193 739 239 656 239C589 239 546 203 546 141C546 72 601 45 674 45C815 45 929 81 929 212C929 313 864 363 742 363C727 363 714 362 701 361C777 396 853 430 921 469L872 532L849 522H469V443H731C670 406 612 372 543 336C525 328 502 320 441 293L484 217C572 259 630 283 740 283C808 283 850 266 850 212C850 145 774 120 674 120C643 120 625 130 625 141C625 155 637 164 656 164C678 164 693 155 693 138C693 97 668 41 610 -3ZM789 498 827 569C749 603 681 631 610 654L565 588C646 561 717 533 789 498ZM965 25H441V-53H965Z" transform="translate(0, 880) scale(1,-1)" /></svg>