<svg xmlns="http://www.w3.org/2000/svg" width="1000" height="1000"><path d="M186 -72C254 -72 287 -44 287 37V625H209V47C209 19 201 6 180 6C162 6 132 13 108 25V-60C129 -67 158 -72 186 -72ZM57 125 436 215 417 293 38 203ZM82 384H393V464H82ZM130 674 206 695C197 735 181 795 166 837L92 819C106 778 123 714 130 674ZM66 591H413V671H66ZM281 673 355 661C369 708 387 777 398 826L317 840C310 792 295 723 281 673ZM555 17 664 -10C739 47 774 160 774 263C774 360 730 419 650 419C581 419 527 370 527 282C527 191 584 146 650 146C660 146 669 147 679 150C661 88 618 37 555 17ZM424 -51H928V29H424ZM650 219C623 219 600 245 600 282C600 321 623 343 650 343C678 343 701 321 701 282C701 245 678 219 650 219ZM436 422 506 390C549 468 576 553 594 638L515 655C501 578 477 496 436 422ZM733 323V755H654V388ZM441 715H910V795H441ZM846 390 921 424C903 502 874 578 831 662L763 632C805 545 829 469 846 390Z" transform="translate(0, 880) scale(1,-1)" /></svg>