<svg xmlns="http://www.w3.org/2000/svg" width="1000" height="1000"><path d="M118 42 187 11C226 96 277 222 307 307L236 345L229 331H202C234 453 246 568 255 803L179 806C173 570 157 453 109 297L161 251L173 262H205C183 196 151 112 118 42ZM347 78 314 150 55 21 86 -52ZM21 373 94 351C118 427 135 536 146 631L72 640C62 549 46 441 21 373ZM241 369 311 354C331 425 354 532 372 622L296 637C283 545 260 436 241 369ZM519 226H793V306H519ZM616 265H694V749H616ZM357 709H953V789H357ZM409 539 423 467C478 484 538 492 613 492H778C831 492 855 465 855 406V52C855 24 852 10 830 10C805 10 767 16 727 29V-57C765 -64 802 -69 833 -69C899 -69 934 -38 934 40V416C934 513 891 571 786 571H612C530 571 470 559 409 539ZM456 -72V571H377V-72Z" transform="translate(0, 880) scale(1,-1)" /></svg>