<svg xmlns="http://www.w3.org/2000/svg" width="1000" height="1000"><path d="M268 648 196 660C160 450 99 260 38 118L107 84C166 231 231 440 268 648ZM237 74C225 74 217 85 217 110C217 148 242 230 313 323L261 361C182 267 142 175 142 110C142 41 182 0 237 0C318 0 351 67 351 215C351 364 308 424 243 424C202 424 173 407 152 374L165 305C189 334 217 349 242 349C264 349 276 301 276 215C276 105 256 74 237 74ZM65 622H355V699H65ZM376 600H920V678H376ZM428 391H868V469H428ZM688 -1V829H608V-1ZM428 177H868V255H428ZM946 31H350V-47H946Z" transform="translate(0, 880) scale(1,-1)" /></svg>