<svg xmlns="http://www.w3.org/2000/svg" width="1000" height="1000"><path d="M130 267 212 273C178 363 168 422 182 481C198 544 205 589 172 640L93 628C122 573 124 534 109 484C91 427 96 363 130 267ZM234 680 268 753C229 772 157 802 103 822L72 753C126 732 198 699 234 680ZM700 291C850 291 932 377 932 506C932 632 826 683 651 683C630 683 604 681 575 680C654 707 743 738 819 766L776 833L756 828H307V750H608C535 721 482 695 417 672C400 666 343 650 295 634L318 551C409 582 519 604 635 604C765 604 852 580 852 504C852 431 798 370 695 370C647 370 602 376 555 388V303C600 296 646 291 700 291ZM241 439 301 380C417 430 507 494 551 564L477 603C439 538 355 483 241 439ZM308 347 366 286C529 338 674 443 717 564L644 602C599 483 469 395 308 347ZM725 98 745 19C863 34 918 81 918 148C919 227 813 269 604 269C413 269 224 245 89 217L106 139C241 167 433 190 604 190C765 190 833 169 833 147C833 118 792 104 725 98ZM301 140V62H654V140ZM123 7V-72H857V7Z" transform="translate(0, 880) scale(1,-1)" /></svg>