<svg xmlns="http://www.w3.org/2000/svg" width="1000" height="1000"><path d="M286 685 211 697C171 471 102 265 33 112L104 75C171 235 244 460 286 685ZM254 61C237 61 228 73 228 100C228 141 257 233 338 336L285 375C196 274 151 168 151 100C151 29 193 -14 254 -14C341 -14 380 58 380 216C380 374 333 438 261 438C215 438 182 420 158 384L173 314C200 345 231 361 260 361C289 361 302 309 302 216C302 94 279 61 254 61ZM60 661H389V739H60ZM742 -59C875 -59 937 73 937 274C937 475 852 548 702 548C678 548 656 547 636 543C709 604 790 677 857 743L799 800L781 792H423V712H710C652 648 586 587 499 518C486 507 436 481 396 456L441 386C515 438 595 468 689 468C794 468 858 427 858 272C858 147 820 21 738 21C699 21 662 31 624 52V-39C661 -53 698 -59 742 -59ZM361 154 428 98C522 183 595 291 630 410L552 429C521 319 453 227 361 154ZM415 -3 481 -59C613 28 730 205 765 408L688 423C651 225 545 77 415 -3Z" transform="translate(0, 880) scale(1,-1)" /></svg>