<svg xmlns="http://www.w3.org/2000/svg" width="1000" height="1000"><path d="M183 790V-65H260V790ZM54 631V197H131V631ZM28 221 55 151 239 248 212 317ZM513 296 560 250 802 368 749 423ZM289 362H954V440H289ZM638 436 688 383C764 434 838 472 838 550C838 627 762 655 617 655C477 655 388 628 388 556C388 493 444 463 551 463C632 463 661 497 661 547V841H582V579C582 550 572 538 543 538C505 538 477 544 477 556C477 568 506 579 617 579C701 579 753 570 753 548C753 524 704 471 638 436ZM296 679H946V757H296ZM674 322C565 321 449 298 298 241L330 165C464 226 569 243 674 243C764 243 865 214 865 125C865 28 783 1 691 1C582 1 470 27 470 80C470 105 505 119 569 119C626 119 647 113 647 92C647 72 619 31 523 -4L560 -46C660 -14 727 34 727 92C727 161 656 197 569 197C489 197 391 156 391 80C391 -26 523 -78 691 -78C841 -78 943 2 943 125C943 272 814 323 674 322Z" transform="translate(0, 880) scale(1,-1)" /></svg>