<svg xmlns="http://www.w3.org/2000/svg" width="1000" height="1000"><path d="M46 122 311 261 276 327 13 198ZM143 -53C192 -53 215 -22 215 36V795H137V50C137 31 131 25 113 25C97 25 78 30 56 43V-41C86 -50 114 -53 143 -53ZM30 409H299V487H30ZM65 534 139 553C130 610 107 698 87 763L12 745C33 678 56 590 65 534ZM209 552 281 536C301 595 323 684 338 754L258 769C245 699 226 608 209 552ZM849 -71C915 -71 954 -39 954 38V637C954 736 907 795 825 795H573C458 795 395 763 359 723L378 647C416 692 486 718 584 718H804C851 718 877 687 877 631V51C877 21 864 4 844 4C808 4 777 15 736 35V-50C769 -63 807 -71 849 -71ZM426 -54H673V23H455C424 23 407 43 407 81V795H330V65C330 -23 365 -54 426 -54ZM647 34C771 34 843 104 843 221C843 326 772 374 669 374C638 374 611 371 588 365C622 435 643 538 664 694L585 700C566 544 545 442 496 342C491 333 464 318 442 303L490 237C539 273 592 296 669 296C724 296 765 273 765 221C765 151 722 109 643 109C607 109 590 119 590 141C590 156 602 166 620 166C646 166 668 143 679 90L751 113C731 185 701 241 620 241C549 241 516 199 516 141C516 72 562 34 647 34ZM415 415H870V494H415ZM441 545H847V622H441Z" transform="translate(0, 880) scale(1,-1)" /></svg>