<svg xmlns="http://www.w3.org/2000/svg" width="1000" height="1000"><path d="M162 -66C212 -66 240 -43 240 25V813H162V33C162 19 156 11 145 11C121 11 95 18 61 33V-54C95 -62 127 -66 162 -66ZM11 554 52 484C165 541 271 610 357 680L303 738C222 669 122 606 11 554ZM11 197 76 164 89 184 349 281 331 356 128 276 215 525 153 552ZM312 634H965V714H697L650 839L573 821L611 714H312ZM654 491C555 491 462 466 374 425L404 346C490 391 571 411 654 411C732 411 754 382 754 334C754 194 561 24 467 24C427 24 401 55 401 115C401 165 426 205 489 205C592 205 728 44 923 -77L977 -15C784 100 634 283 489 283C388 283 320 222 320 115C320 16 372 -56 467 -56C604 -56 834 149 834 334C834 443 785 491 654 491ZM332 386 401 332C489 427 570 545 637 665L562 697C499 577 418 471 332 386ZM919 374 985 422C936 495 881 558 824 613L759 570C818 513 871 448 919 374Z" transform="translate(0, 880) scale(1,-1)" /></svg>