<svg xmlns="http://www.w3.org/2000/svg" width="1000" height="1000"><path d="M533 740H224V470C224 325 216 122 128 -23L197 -60C290 92 303 317 303 470V661H943V740H622L571 845L492 827ZM243 299 156 264V592H77V277C77 243 59 224 47 216L76 143L271 225ZM317 -66H931V13H317ZM340 494H908V573H340ZM596 166 627 86C786 126 863 196 863 300C863 382 806 434 661 434C543 434 456 414 375 387L404 309C480 335 559 354 661 354C743 354 780 333 780 300C780 244 729 194 596 166ZM608 24 687 51C670 110 640 177 612 227L535 201C563 157 592 83 608 24Z" transform="translate(0, 880) scale(1,-1)" /></svg>