<svg xmlns="http://www.w3.org/2000/svg" width="1000" height="1000"><path d="M122 69 193 39C237 117 295 235 329 313L257 351L248 338H212C246 448 261 553 271 768L194 772C185 554 167 446 113 303L170 257L183 268H219C195 208 159 132 122 69ZM381 100 352 173 55 55 81 -20ZM10 375 84 352C112 419 131 522 143 610L68 621C58 537 39 438 10 375ZM274 371 344 355C367 419 393 519 414 601L336 619C322 537 295 435 274 371ZM416 523H937V603H416ZM386 -46H971V34H386ZM595 7 696 -16C753 35 803 144 803 280C803 369 747 420 655 420C565 420 508 369 508 280C508 191 565 140 655 140C677 140 693 143 707 150C690 87 642 26 595 7ZM655 216C611 216 586 241 586 280C586 319 611 344 655 344C701 344 725 319 725 280C725 241 701 216 655 216ZM760 662 800 737C754 764 655 812 587 838L548 771C612 748 713 692 760 662ZM769 562H691V387L769 312Z" transform="translate(0, 880) scale(1,-1)" /></svg>