<svg xmlns="http://www.w3.org/2000/svg" width="1000" height="1000"><path d="M85 780V700H455V780ZM215 216H360C417 216 459 247 459 327C459 392 430 457 388 505L325 459C362 415 380 364 380 329C380 306 365 294 338 294H219C188 294 172 313 172 344C172 420 211 548 301 709L225 746C134 576 90 436 90 327C90 245 138 216 215 216ZM487 504 455 577 268 501 297 429ZM590 348V551H512V342C512 238 548 216 654 216H822C899 216 921 266 934 418L854 427C846 317 837 295 791 295H670C602 295 590 305 590 348ZM788 479C858 479 893 535 904 775L844 793L827 783H508V704H823C814 577 801 558 778 558C737 558 699 562 660 571V489C697 482 740 479 788 479ZM58 -23 125 -66C183 -10 235 66 261 138L188 170C165 99 111 25 58 -23ZM524 -58C568 -58 608 -42 664 2L607 65C577 36 558 28 535 28C511 28 495 52 466 162L386 145C430 -20 473 -58 524 -58ZM877 -63 947 -20C912 35 846 117 788 176L727 127C789 66 845 -10 877 -63Z" transform="translate(0, 880) scale(1,-1)" /></svg>