<svg xmlns="http://www.w3.org/2000/svg" width="1000" height="1000"><path d="M89 41 150 -7C246 79 333 252 333 352C333 441 290 496 236 496C166 496 110 452 110 370C110 286 161 244 227 252C212 193 162 104 89 41ZM225 318C199 318 177 336 177 370C177 404 200 424 225 424C248 424 268 402 268 375C268 336 248 318 225 318ZM309 397V732H231V464ZM80 757V679H370V757ZM58 38 81 -39 378 65 355 142ZM330 -56H917V24H330ZM513 20H648C701 64 722 151 722 228C722 320 678 363 606 363C548 363 491 320 491 245C491 166 542 125 606 125C622 125 635 128 647 136C627 80 583 38 513 20ZM332 708 371 637C438 681 543 732 680 732C804 732 843 689 843 624C843 515 693 504 465 538V452C720 427 923 439 923 624C923 730 866 812 680 812C509 812 400 753 332 708ZM689 292V630H612V322ZM606 195C581 195 561 217 561 245C561 273 581 295 606 295C632 295 652 273 652 245C652 217 632 195 606 195Z" transform="translate(0, 880) scale(1,-1)" /></svg>