<svg xmlns="http://www.w3.org/2000/svg" width="1000" height="1000"><path d="M309 685 385 713C369 747 337 803 303 841L230 813C262 774 291 726 309 685ZM84 626H916V705H84ZM612 695 681 669C721 717 755 769 780 818L699 844C680 798 650 742 612 695ZM69 312H931V391H69ZM139 475H861V555H139ZM302 211 358 154 380 167H537C493 130 440 90 372 49L448 10C534 61 639 132 710 186L656 255L635 246H447C504 317 541 399 577 501L490 511C455 405 400 300 302 211ZM875 -83 905 -5C645 41 387 76 141 101L102 26C366 -3 622 -38 875 -83Z" transform="translate(0, 880) scale(1,-1)" /></svg>