<svg xmlns="http://www.w3.org/2000/svg" width="1000" height="1000"><path d="M113 49 174 1C274 86 361 255 361 355C361 444 316 499 261 499C189 499 132 455 132 373C132 289 185 245 253 254C238 196 187 112 113 49ZM250 321C223 321 200 339 200 373C200 407 224 427 250 427C274 427 295 405 295 378C295 339 274 321 250 321ZM335 400V735H256V467ZM88 760V682H406V760ZM67 42 89 -36 415 74 393 151ZM623 27 697 1C801 113 850 206 850 337C850 483 790 537 665 537C547 537 471 473 471 363C471 273 515 218 595 218C667 218 708 272 708 336V729H630V353C630 320 619 302 594 302C570 302 551 324 551 363C551 409 575 455 665 455C746 455 771 417 771 337C771 238 729 145 623 27ZM410 -36H943V44H410ZM434 697H916V777H434ZM895 158 967 192C944 254 918 314 888 373L819 341C848 282 873 220 895 158Z" transform="translate(0, 880) scale(1,-1)" /></svg>