<svg xmlns="http://www.w3.org/2000/svg" width="1000" height="1000"><path d="M94 98 165 67C203 143 250 260 279 337L209 373L202 360H183C210 466 222 571 230 778L155 780C150 570 134 465 89 325L139 280L150 290H171C152 233 123 160 94 98ZM313 126 281 197 38 82 68 10ZM8 394 80 375C103 444 118 540 129 625L55 632C47 551 32 454 8 394ZM209 390 278 377C297 441 318 536 335 617L260 629C248 543 227 449 209 390ZM364 -33 445 -62C513 73 527 187 533 362H453C447 183 436 98 364 -33ZM743 -68C877 -68 897 88 897 222C897 302 873 368 729 368C667 368 592 360 509 345L511 268C603 284 665 288 729 288C803 288 818 265 818 222C818 135 812 9 735 9C695 9 653 15 615 25V-57C653 -63 692 -68 743 -68ZM775 119 777 196 553 202 550 124ZM442 401C550 401 613 465 613 620C613 728 583 807 460 807C410 807 362 794 332 776L349 698C378 714 422 727 461 727C513 727 534 691 534 620C534 531 508 481 443 481C421 481 404 494 404 516C404 617 657 736 796 736C862 736 890 707 890 645C890 555 856 511 778 511C747 511 695 521 640 539V453C692 440 733 431 777 431C918 431 970 519 970 645C970 754 923 816 796 816C623 816 325 677 325 516C325 445 366 401 442 401ZM595 349 666 314C725 393 766 478 803 587L725 610C690 501 650 419 595 349Z" transform="translate(0, 880) scale(1,-1)" /></svg>