<svg xmlns="http://www.w3.org/2000/svg" width="1000" height="1000"><path d="M134 579 163 499 203 505 804 518 797 596 363 586C503 632 634 685 806 771L743 834C550 723 399 645 276 607C229 592 161 582 134 579ZM352 669 417 723C370 754 289 795 213 832L154 774C236 738 304 702 352 669ZM810 478 881 522C845 575 791 639 726 700L661 658C725 596 773 532 810 478ZM60 -35 118 -98C314 -2 336 132 336 249V380H645V39C645 -41 670 -78 740 -78H836C921 -78 939 -41 945 105L870 111C866 4 857 -4 832 -4H756C734 -4 725 5 725 38V459H256V252C256 153 241 52 60 -35ZM595 295Q543 304 483.0 314.0Q423 324 343 337L319 264Q396 251 456.0 240.0Q516 229 569 219ZM595 169Q543 179 483.0 189.0Q423 199 343 210L319 137Q396 125 456.0 114.0Q516 103 569 93Z" transform="translate(0, 880) scale(1,-1)" /></svg>