<svg xmlns="http://www.w3.org/2000/svg" width="1000" height="1000"><path d="M275 678 201 689C163 461 98 255 34 101L104 66C167 226 236 452 275 678ZM243 51C229 51 221 63 221 90C221 131 247 224 323 326L270 365C188 263 144 157 144 89C144 18 186 -25 243 -25C327 -25 363 47 363 206C363 365 319 429 249 429C207 429 175 411 153 375L167 304C192 336 222 352 249 352C274 352 286 300 286 206C286 84 265 51 243 51ZM61 654H370V731H61ZM396 698H923V778H396ZM731 -72C799 -72 834 -31 834 52L836 738H757L756 67C756 27 749 6 724 6C700 6 674 12 648 24V-58C671 -68 698 -72 731 -72ZM946 333 959 415C815 441 616 442 369 414V339C613 364 812 357 946 333ZM566 738H487V-65H566Z" transform="translate(0, 880) scale(1,-1)" /></svg>