<svg xmlns="http://www.w3.org/2000/svg" width="1000" height="1000"><path d="M139 -51C241 -51 293 104 293 252C293 365 246 480 144 532L114 460C190 414 217 332 217 252C217 145 187 28 139 28C118 28 106 43 106 84C106 176 166 283 298 404L252 467C115 351 29 212 29 84C29 -18 72 -51 139 -51ZM140 504 200 473C244 544 291 644 315 715L250 750L237 740H56V662H214C194 609 166 550 140 504ZM666 314H586C586 107 489 30 284 -6L321 -82C538 -39 666 69 666 314ZM313 135H937V213H313ZM921 -87 966 -17C903 32 792 96 693 140L651 78C749 30 862 -39 921 -87ZM303 443 327 365C428 408 572 437 715 437C830 437 856 420 856 396C856 378 850 358 839 337L913 306C925 334 934 363 934 400C934 480 869 516 715 516C535 516 405 490 303 443ZM897 622H353V544H897ZM665 586V843H585V586ZM305 680H944V758H305ZM418 287H832V365H418Z" transform="translate(0, 880) scale(1,-1)" /></svg>