<svg xmlns="http://www.w3.org/2000/svg" width="1000" height="1000"><path d="M153 22C272 22 331 160 331 292C331 395 278 497 157 543L129 469C220 429 253 363 253 292C253 197 217 101 153 101C126 101 110 115 110 154C110 234 182 316 335 421L292 486C136 384 31 271 31 154C31 58 80 22 153 22ZM155 518 216 485C269 548 323 634 353 697L292 737L279 728H56V650H237C215 607 184 557 155 518ZM435 689 473 624C543 680 611 708 698 708C771 708 792 671 792 619C792 561 772 501 728 438L791 400C842 475 871 541 871 619C871 739 812 789 698 789C595 789 515 750 435 689ZM312 -38H977V42H312ZM652 32 723 0C807 88 891 193 891 316C891 432 805 472 642 447V369C764 380 811 373 811 316C811 219 738 123 652 32ZM495 6V782H416V6Z" transform="translate(0, 880) scale(1,-1)" /></svg>