<svg xmlns="http://www.w3.org/2000/svg" width="1000" height="1000"><path d="M183 -46C233 -46 261 -23 261 44V787H183V53C183 39 178 31 167 31C142 31 116 38 82 53V-35C115 -42 147 -46 183 -46ZM29 544 71 474C186 527 294 593 380 659L328 717C245 653 142 593 29 544ZM30 201 96 170 108 189 370 283 353 357 151 279 235 513 172 540ZM455 690 493 624C559 680 623 708 705 708C773 708 793 672 793 620C793 561 773 501 732 438L797 400C844 475 872 542 872 620C872 740 815 789 705 789C607 789 531 751 455 690ZM343 -38H967V42H343ZM660 32 732 0C811 88 890 193 890 316C890 432 808 472 652 447V369C767 380 810 373 810 316C810 219 742 123 660 32ZM517 6V782H438V6Z" transform="translate(0, 880) scale(1,-1)" /></svg>