<svg xmlns="http://www.w3.org/2000/svg" width="1000" height="1000"><path d="M174 -68C225 -68 252 -45 252 22V785H174V30C174 16 169 8 158 8C134 8 110 15 76 30V-57C109 -64 140 -68 174 -68ZM32 534 73 465C180 520 281 587 362 654L307 711C230 645 136 585 32 534ZM30 184 96 154 108 173 350 268 332 343 147 264 226 505 163 531ZM614 684 690 705C674 751 645 805 616 848L544 827C571 785 601 728 614 684ZM847 511 925 482C948 533 959 566 959 599C959 689 870 731 689 731C549 731 390 704 293 674L315 597C408 626 565 649 689 649C833 649 872 625 872 592C872 571 866 550 847 511ZM401 476H711L611 363L674 317L842 503L787 563L771 556H401ZM444 -21 503 -92C740 -6 859 74 859 216C859 320 785 378 651 378C575 378 487 367 427 349L449 266C503 283 581 298 651 298C735 298 779 268 779 216C779 122 663 48 444 -21Z" transform="translate(0, 880) scale(1,-1)" /></svg>