<svg xmlns="http://www.w3.org/2000/svg" width="1000" height="1000"><path d="M121 68 193 38C234 113 287 229 318 305L247 342L239 329H211C241 433 255 536 265 742L188 745C181 536 164 431 115 294L168 248L181 259H208C186 202 154 129 121 68ZM362 96 332 169 60 54 87 -19ZM21 363 94 342C120 409 137 506 149 590L75 599C65 519 48 423 21 363ZM256 359 326 344C347 407 371 502 390 582L314 597C300 515 276 419 256 359ZM501 36V-51C543 -64 595 -70 649 -70C835 -70 963 -6 963 197C963 379 849 442 667 442C633 442 607 440 583 434C654 490 686 565 686 667H609C609 568 561 480 473 415C454 400 426 391 402 381L442 311C508 342 597 365 667 365C795 365 884 325 884 197C884 63 784 8 648 8C587 8 537 18 501 36ZM409 283V207H745V283ZM402 160V81H755V160ZM497 589V509C757 480 921 505 921 663C921 778 809 812 677 812C523 812 428 777 331 725L369 656C450 701 551 734 677 734C781 734 841 705 841 663C841 583 747 552 497 589Z" transform="translate(0, 880) scale(1,-1)" /></svg>