<svg xmlns="http://www.w3.org/2000/svg" width="1000" height="1000"><path d="M647 31H717C803 133 850 196 850 327C850 463 779 540 646 540C503 540 430 463 430 353C430 243 481 173 571 173C642 173 689 239 689 318V689H614V343C614 279 596 252 568 252C533 252 504 288 504 353C504 405 539 465 646 465C741 465 776 413 776 327C776 226 742 149 647 31ZM352 -44H950V31H352ZM395 689H903V765H395ZM187 -77C238 -77 261 -54 261 9V834H190V12C190 -2 185 -10 174 -10C149 -10 119 -3 84 12V-66C119 -73 151 -77 187 -77ZM30 560 69 494C188 553 300 625 390 698L341 752C255 681 148 615 30 560ZM35 197 90 160 103 181 387 280 374 355 142 272 237 534 187 564Z" transform="translate(0, 880) scale(1,-1)" /></svg>