<svg xmlns="http://www.w3.org/2000/svg" width="1000" height="1000"><path d="M149 635 169 566C210 595 244 609 293 609C348 609 365 549 365 479C365 398 334 347 264 335V254C393 267 443 356 443 479C443 610 400 688 295 688C231 688 186 666 149 635ZM224 75H302V473H224ZM69 33 102 -41 438 119 404 193ZM46 336 121 297C167 438 202 619 220 802L142 811C123 630 86 451 46 336ZM921 41 960 122C826 213 695 283 560 333L527 260C661 212 796 132 921 41ZM409 51 480 1C556 135 610 309 633 474L555 482C528 312 486 175 409 51ZM630 -57C691 -57 729 -21 729 52V750H651V67C651 34 644 16 621 16C592 16 566 23 533 42V-41C564 -52 599 -57 630 -57ZM440 460H924V539H440ZM471 779 487 701C619 704 775 723 883 755L856 829C747 797 607 780 471 779Z" transform="translate(0, 880) scale(1,-1)" /></svg>