<svg xmlns="http://www.w3.org/2000/svg" width="1000" height="1000"><path d="M493 728 572 749C559 783 535 823 511 854L432 833C455 803 481 760 493 728ZM817 597 891 574C912 617 920 643 920 664C920 746 818 777 587 777C419 777 265 754 164 721V764H84V591H164V653C276 681 433 700 587 700C782 700 839 683 839 658C839 643 834 628 817 597ZM109 541 162 479C257 516 364 567 429 623L355 672C305 626 205 572 109 541ZM826 477 890 536C831 574 727 631 640 672L582 616C667 572 770 516 826 477ZM295 79 360 28C553 126 710 228 830 328L753 383C648 284 487 173 295 79ZM902 -82 931 -4C657 46 384 85 124 114L85 40C364 7 634 -31 902 -82ZM388 177 453 230C402 267 316 314 234 357L173 297C261 256 335 215 388 177ZM130 449 147 371C384 381 667 402 864 435L824 510C654 480 371 460 130 449Z" transform="translate(0, 880) scale(1,-1)" /></svg>