<svg xmlns="http://www.w3.org/2000/svg" width="1000" height="1000"><path d="M180 -61C309 -61 369 108 369 255C369 373 312 491 182 546L151 472C253 423 290 339 290 255C290 147 252 20 180 20C150 20 128 39 128 89C128 193 211 289 378 417L330 480C161 359 48 223 48 89C48 -23 102 -61 180 -61ZM180 518 246 484C304 559 365 665 397 740L336 775L320 766H71V687H286C257 632 216 567 180 518ZM379 547 445 487C542 592 600 700 647 817L567 838C529 741 469 638 379 547ZM615 541 688 499C738 569 802 676 845 763L781 798L769 786H568V706H725C695 650 654 588 615 541ZM523 73V366H444V65C444 -41 483 -62 596 -62H826C919 -62 947 -11 962 145L880 155C871 40 859 17 804 17H607C536 17 523 28 523 73ZM773 231C853 231 892 286 903 541L843 559L828 549H537V470H820C811 330 792 311 762 311C705 311 659 315 609 326V242C657 235 709 231 773 231Z" transform="translate(0, 880) scale(1,-1)" /></svg>