<svg xmlns="http://www.w3.org/2000/svg" width="1000" height="1000"><path d="M254 699 181 713C143 506 77 319 12 179L81 143C145 289 214 494 254 699ZM223 136C208 136 199 147 199 171C199 208 226 288 303 380L250 419C166 326 123 235 123 171C123 103 164 62 223 62C307 62 343 128 343 274C343 421 298 480 229 480C186 480 154 464 131 431L145 363C171 391 201 406 228 406C254 406 267 358 267 274C267 166 245 136 223 136ZM38 674H351V751H38ZM356 439 385 361 405 368H948V448H451C464 523 480 629 486 717H897V797H409C406 682 388 545 376 467C374 450 365 443 356 439ZM310 39 379 -10C427 58 488 163 526 258L450 283C415 195 360 101 310 39ZM620 -65C676 -65 701 -38 701 23V642H622V35C622 20 616 12 602 12C573 12 545 20 512 32V-54C547 -61 580 -65 620 -65ZM908 -7 982 31C952 101 890 211 838 284L767 251C820 176 879 63 908 -7Z" transform="translate(0, 880) scale(1,-1)" /></svg>