<svg xmlns="http://www.w3.org/2000/svg" width="1000" height="1000"><path d="M105 68 176 37C214 114 263 232 292 310L222 346L215 333H194C221 441 234 546 243 757L167 759C161 546 145 439 100 298L150 253L161 263H185C165 205 135 130 105 68ZM328 97 297 168 47 52 77 -21ZM16 368 88 348C111 418 127 515 138 601L64 609C55 527 40 429 16 368ZM224 364 293 351C313 415 334 512 352 593L276 606C264 520 242 424 224 364ZM953 -56 969 29C750 6 584 7 479 49C414 75 369 139 350 232L274 214C301 86 360 8 442 -23C556 -66 724 -78 953 -56ZM497 687 573 711C562 743 540 798 516 834L442 810C463 773 484 726 497 687ZM363 627H937V707H363ZM723 694 795 673C824 719 847 769 864 816L784 837C771 793 750 739 723 694ZM323 205 380 141C405 158 425 175 454 202C465 212 479 214 489 211C501 208 513 195 525 156L632 223L602 276L549 251C544 266 534 274 518 279C543 319 566 362 587 410L518 439C463 331 394 248 323 205ZM637 53C736 53 768 144 767 255C767 357 714 488 633 589L574 538C637 470 689 345 689 255C688 190 676 128 634 128C602 128 571 134 537 148V64C566 56 599 53 637 53ZM919 121 975 185C890 248 774 311 634 377L599 310C731 248 839 188 919 121ZM681 402 718 339C794 369 850 393 915 439L863 502C804 459 757 433 681 402ZM695 662 616 686C579 563 491 514 355 454L399 385C546 457 652 519 695 662Z" transform="translate(0, 880) scale(1,-1)" /></svg>