<svg xmlns="http://www.w3.org/2000/svg" width="1000" height="1000"><path d="M44 79H123C114 203 111 382 127 501C135 566 166 633 197 633C232 633 243 541 243 424C243 280 236 181 217 181C208 181 206 193 206 211C206 279 243 407 320 500L261 553C176 460 129 326 129 211C129 134 161 96 216 96C314 96 323 226 323 424C323 592 295 714 204 714C167 714 137 683 120 624L135 730H55C37 436 37 266 44 79ZM332 14 382 -54C585 100 778 264 956 447L901 502C728 326 531 159 332 14ZM376 20H455V709H376ZM934 -51 973 19C781 120 686 289 674 831H594C599 277 713 51 934 -51ZM498 445 554 381C664 461 779 560 874 656L814 711C726 621 620 527 498 445Z" transform="translate(0, 880) scale(1,-1)" /></svg>