<svg xmlns="http://www.w3.org/2000/svg" width="1000" height="1000"><path d="M532 750H204V470C204 325 196 122 107 -23L177 -60C270 92 283 317 283 470V672H943V750H621L573 852L494 834ZM224 296 139 263V592H61V276C61 242 43 223 31 215L59 142L251 223ZM323 438 383 377C477 441 564 529 643 633L571 672C496 573 411 494 323 438ZM307 259 343 185C589 239 754 348 873 543L814 590L800 582H511V504H735C661 393 537 310 307 259ZM908 185 950 258C782 332 639 381 476 427L438 355C602 309 743 259 908 185ZM842 -96 882 -23C772 19 572 86 417 122L375 50C533 11 736 -50 842 -96ZM753 92 793 164C726 188 624 218 543 237L505 169C584 151 689 119 753 92Z" transform="translate(0, 880) scale(1,-1)" /></svg>