<svg xmlns="http://www.w3.org/2000/svg" width="1000" height="1000"><path d="M52 351 85 275C380 373 660 476 918 591L877 658C626 547 340 443 52 351ZM113 328H193V760H113ZM921 279 951 355C672 418 529 496 511 837H429C438 489 601 344 921 279ZM293 622 339 550C499 600 665 663 803 723L752 789C623 732 470 673 293 622ZM349 333 322 261C433 247 549 231 644 212L678 290C580 305 464 321 349 333ZM465 -76C545 -76 594 -49 594 46C594 108 561 155 498 197L433 158C487 119 514 86 514 46C514 15 497 -1 457 -1C414 -1 372 6 323 18V-62C367 -71 413 -76 465 -76ZM59 34 126 -12C187 32 249 101 286 159L207 193C177 140 120 76 59 34ZM877 -16 954 23C920 70 851 141 775 197L704 155C778 98 846 31 877 -16Z" transform="translate(0, 880) scale(1,-1)" /></svg>