<svg xmlns="http://www.w3.org/2000/svg" width="1000" height="1000"><path d="M196 -62C246 -62 274 -39 274 28V765H196V36C196 23 191 15 179 15C155 15 128 22 94 36V-51C128 -58 160 -62 196 -62ZM42 524 80 454C196 507 305 572 393 637L344 696C260 632 156 573 42 524ZM42 183 107 152 120 170 385 264 367 339 163 261 248 493 185 519ZM332 -56H921V24H332ZM516 20H651C704 64 725 151 725 228C725 320 682 363 609 363C551 363 495 320 495 245C495 166 545 125 609 125C625 125 639 128 651 136C630 80 586 38 516 20ZM335 708 374 637C441 681 546 732 684 732C808 732 847 689 847 624C847 515 696 504 468 538V452C723 427 927 439 927 624C927 730 869 812 684 812C512 812 402 753 335 708ZM692 292V630H615V322ZM609 195C584 195 564 217 564 245C564 273 584 295 609 295C636 295 655 273 655 245C655 217 636 195 609 195Z" transform="translate(0, 880) scale(1,-1)" /></svg>