<svg xmlns="http://www.w3.org/2000/svg" width="1000" height="1000"><path d="M136 801V726H864V801ZM276 489 338 530C311 579 255 651 202 705L144 668C195 614 250 540 276 489ZM462 467H538V750H462ZM651 526 710 489C757 535 818 610 863 674L795 711C760 651 699 575 651 526ZM811 309 884 282C908 320 919 354 919 400C919 487 805 518 617 518C426 518 269 476 162 405V497H84V299H162V350C269 417 453 444 617 444C786 444 838 417 838 399C838 369 832 341 811 309ZM98 54 148 -10C313 109 505 192 708 192H922V261H708C477 261 275 179 98 54ZM668 -74C747 -74 780 -28 780 47V391H704V55C704 18 701 -9 664 -9C634 -10 620 6 619 27C618 48 627 59 649 66C665 69 692 69 729 61L745 121C701 133 655 136 621 126C578 113 547 86 547 30C547 -39 597 -74 668 -74ZM194 346V273H472V346ZM278 302V119H354V302Z" transform="translate(0, 880) scale(1,-1)" /></svg>