<svg xmlns="http://www.w3.org/2000/svg" width="1000" height="1000"><path d="M176 -68C227 -68 255 -45 255 23V810H176V31C176 17 171 9 160 9C136 9 110 16 76 31V-56C110 -64 141 -68 176 -68ZM26 551 67 481C180 538 286 607 371 677L318 734C236 666 136 603 26 551ZM26 194 91 162 104 182 363 279 345 354 143 273 229 522 167 549ZM795 -61H878C946 -61 959 9 964 194L887 201C884 41 880 17 853 17H802C785 17 778 22 778 34C778 54 779 95 825 587L759 613L744 604H330V524H738C702 124 700 74 700 25C700 -46 720 -61 795 -61ZM296 -20 358 -73C570 104 599 350 616 830L537 832C519 352 495 142 296 -20Z" transform="translate(0, 880) scale(1,-1)" /></svg>