<svg xmlns="http://www.w3.org/2000/svg" width="1000" height="1000"><path d="M494 709 573 730C559 768 534 813 508 848L430 827C454 793 482 745 494 709ZM816 564 890 538C911 584 920 612 920 637C920 722 818 757 587 757C418 757 264 731 164 694V742H84V555H164V626C276 658 433 678 587 678C782 678 839 659 839 631C839 614 834 597 816 564ZM109 492 163 430C258 474 363 532 428 594L352 643C304 590 205 528 109 492ZM825 428 890 486C831 532 727 596 641 643L583 588C667 538 769 475 825 428ZM722 -72H832C915 -72 933 -8 939 131L859 136C855 29 850 7 815 7H734C712 7 702 11 702 24C702 41 704 68 765 390L701 414L682 403H116V324H668C626 83 622 48 622 10C622 -45 647 -72 722 -72ZM73 -17 131 -78C411 44 448 213 477 543L396 548C367 224 334 94 73 -17Z" transform="translate(0, 880) scale(1,-1)" /></svg>