<svg xmlns="http://www.w3.org/2000/svg" width="1000" height="1000"><path d="M333 692 253 707C203 466 118 248 34 85L108 45C191 214 282 453 333 692ZM299 28C272 28 259 41 259 69C259 113 298 214 398 323L343 366C235 258 180 139 180 69C180 -4 227 -49 299 -49C399 -49 448 27 448 193C448 360 392 427 308 427C252 427 210 408 180 371L199 298C232 332 271 348 308 348C349 348 365 293 365 193C365 62 335 28 299 28ZM60 670H478V750H60ZM598 137 646 72C845 178 911 221 911 312C911 389 839 450 653 489C775 555 866 629 952 751L887 794L874 779H514V701H813C733 612 649 549 526 498L534 433C768 390 829 344 829 312C829 271 777 227 598 137ZM895 -91 945 -29C855 31 665 127 521 186L489 117C627 60 809 -31 895 -91Z" transform="translate(0, 880) scale(1,-1)" /></svg>