<svg xmlns="http://www.w3.org/2000/svg" width="1000" height="1000"><path d="M241 636 170 648C137 451 80 273 23 139L90 106C146 244 206 440 241 636ZM211 100C201 100 194 111 194 134C194 169 216 244 284 330L231 367C158 279 119 196 119 133C119 67 158 27 211 27C289 27 320 91 320 231C320 372 279 430 216 430C178 430 150 413 131 382L143 315C166 342 192 356 215 356C234 356 246 311 246 231C246 130 227 100 211 100ZM50 610H331V686H50ZM607 -71C717 -71 762 9 762 168C762 294 689 434 598 511L539 458C625 379 682 267 682 168C682 60 659 7 598 7C559 7 526 14 490 27V-59C522 -67 554 -71 607 -71ZM328 98 387 50C451 114 509 197 550 283L477 319C442 241 387 161 328 98ZM444 417 508 368C637 498 687 628 733 820L654 838C615 647 562 533 444 417ZM892 52 967 84C943 183 903 289 861 370L790 342C831 259 869 150 892 52ZM359 588H938V668H359Z" transform="translate(0, 880) scale(1,-1)" /></svg>