<svg xmlns="http://www.w3.org/2000/svg" width="1000" height="1000"><path d="M492 727 571 748C559 781 535 820 511 851L433 830C455 801 481 759 492 727ZM817 599 892 575C912 618 920 643 920 664C920 746 818 777 587 777C419 777 265 754 164 721V763H84V592H164V653C276 681 433 699 587 699C782 699 839 683 839 658C839 644 834 628 817 599ZM109 544 162 482C257 519 364 568 430 624L355 673C306 627 205 574 109 544ZM826 480 890 540C831 577 727 632 640 673L582 617C667 574 770 518 826 480ZM126 -64 208 -58C174 34 163 96 179 156C197 220 203 267 168 319L88 307C119 250 121 210 105 159C86 101 90 34 126 -64ZM238 361 274 432C234 452 158 483 100 503L66 436C124 414 200 381 238 361ZM295 393H918V471H295ZM355 243H859V321H355ZM646 -19V569H567V-19ZM355 91H859V169H355ZM948 13H265V-65H948Z" transform="translate(0, 880) scale(1,-1)" /></svg>