<svg xmlns="http://www.w3.org/2000/svg" width="1000" height="1000"><path d="M142 -58C192 -58 218 -35 218 31V803H141V39C141 26 136 18 126 18C103 18 81 25 49 39V-47C81 -54 109 -58 142 -58ZM18 548 59 480C153 535 242 603 313 671L254 726C188 660 107 599 18 548ZM11 194 79 166 90 186 296 281 278 356 123 276 193 520 129 545ZM327 52H406V583H327ZM446 428C520 428 553 493 553 749H322V669H474C476 525 455 506 433 506C414 506 397 508 378 516V433C399 429 421 428 446 428ZM519 3 538 -85C730 -46 972 80 972 325C972 422 921 500 773 500C623 500 537 449 537 322C537 242 581 171 663 171C745 171 796 222 796 339V829H717V353C717 283 696 252 663 252C630 252 616 279 616 322C616 385 647 420 773 420C866 420 893 382 893 325C893 126 690 30 519 3ZM304 68 339 -6 541 94 506 168ZM569 594H970V674H569Z" transform="translate(0, 880) scale(1,-1)" /></svg>