<svg xmlns="http://www.w3.org/2000/svg" width="1000" height="1000"><path d="M155 -3C269 -3 326 141 326 277C326 384 275 490 159 538L131 464C218 422 249 351 249 277C249 179 214 76 155 76C130 76 114 91 114 131C114 215 183 304 331 414L287 478C136 372 36 251 36 131C36 33 83 -3 155 -3ZM157 512 218 480C268 545 320 636 348 701L287 740L273 730H62V652H237C215 606 185 553 157 512ZM781 108C903 108 944 198 944 491C944 710 888 809 709 809C584 809 470 782 375 748L391 668C486 702 592 729 709 729C836 729 865 639 865 491C865 286 845 186 781 186C736 186 681 199 639 215V127C683 115 738 108 781 108ZM374 -34H925V46H374ZM343 163 410 110C552 229 652 414 665 642L585 646C573 431 484 274 343 163ZM710 342 749 417C673 456 539 507 430 538L392 469C503 435 636 382 710 342Z" transform="translate(0, 880) scale(1,-1)" /></svg>