<svg xmlns="http://www.w3.org/2000/svg" width="1000" height="1000"><path d="M91 625 123 563C164 606 207 626 257 626C311 626 335 582 335 406C335 227 314 162 276 162C236 162 208 169 186 178V95C208 89 236 85 277 85C388 85 414 176 414 406C414 622 378 706 257 706C187 706 134 671 91 625ZM110 259 182 222C247 319 322 465 347 536L273 567C247 495 180 350 110 259ZM268 276 335 324C294 382 233 451 191 492L131 446C177 400 232 329 268 276ZM144 78V697H65V78ZM404 665H962V745H404ZM776 43V704H697V47C697 25 689 17 675 17C640 17 604 26 565 39V-49C613 -58 659 -62 694 -61C748 -60 776 -38 776 43Z" transform="translate(0, 880) scale(1,-1)" /></svg>