<svg xmlns="http://www.w3.org/2000/svg" width="1000" height="1000"><path d="M532 748H210V470C210 325 202 122 114 -23L182 -60C275 92 288 317 288 470V670H943V748H621L574 845L495 827ZM229 293 149 262V592H71V275C71 241 53 222 41 214L69 141L257 220ZM905 -89 944 -7C742 46 640 191 463 191C366 191 303 139 303 60C303 -18 360 -66 447 -66C634 -66 838 114 838 220C838 320 770 361 621 361C546 361 472 347 405 325L424 246C481 267 553 282 621 282C710 282 754 264 754 220C754 149 585 12 447 12C400 12 380 29 380 60C380 90 416 113 463 113C612 113 700 -33 905 -89ZM552 305H632V667H552ZM306 482 343 412C454 467 590 501 703 501C808 501 845 475 845 451C845 423 837 401 819 377L897 347C917 380 927 406 927 451C927 541 843 581 703 581C563 581 422 537 306 482Z" transform="translate(0, 880) scale(1,-1)" /></svg>