<svg xmlns="http://www.w3.org/2000/svg" width="1000" height="1000"><path d="M97 347 414 455 387 522 69 420ZM188 405V824H111V405ZM149 690V619H423V690ZM434 422 475 356C641 423 905 558 905 695C905 787 836 826 717 826C610 826 527 811 446 781L469 709C548 741 620 754 717 754C787 754 828 730 828 695C828 588 600 482 434 422ZM888 351 945 409C792 522 676 586 535 642L492 587C631 529 738 467 888 351ZM349 346 322 279C433 265 549 248 644 229L678 301C580 317 464 334 349 346ZM467 -80C541 -80 594 -36 594 45C594 113 561 163 498 208L433 168C487 127 513 89 513 45C513 7 486 -14 458 -14C433 -14 379 -8 323 6V-66C371 -77 419 -80 467 -80ZM59 34 121 -11C184 36 248 108 286 169L206 200C176 144 120 78 59 34ZM877 -15 955 22C921 71 852 146 776 204L704 165C778 105 846 34 877 -15Z" transform="translate(0, 880) scale(1,-1)" /></svg>