<svg xmlns="http://www.w3.org/2000/svg" width="1000" height="1000"><path d="M190 -62C240 -62 267 -39 267 28V799H189V36C189 23 184 15 173 15C150 15 125 22 92 36V-51C125 -58 155 -62 190 -62ZM49 545 87 476C194 531 295 599 376 667L324 724C247 657 153 596 49 545ZM45 193 111 162 123 182 366 278 348 352 161 273 242 516 179 542ZM510 483V399C551 392 597 388 655 388C816 388 907 467 907 611C907 727 833 805 673 805C544 805 424 766 355 724L387 652C451 689 566 725 673 725C771 725 824 681 824 611C824 517 770 467 655 467C603 467 555 472 510 483ZM639 -78C681 -78 719 -72 764 -52V40C717 16 682 5 650 5C631 5 621 13 621 40V336H543V19C543 -51 575 -78 639 -78ZM900 15 964 75C896 163 811 263 738 334L678 283C751 208 833 108 900 15ZM688 579 608 599C555 405 454 221 308 92L371 31C517 162 623 369 688 579Z" transform="translate(0, 880) scale(1,-1)" /></svg>