<svg xmlns="http://www.w3.org/2000/svg" width="1000" height="1000"><path d="M450 -70C526 -70 550 -35 550 27V254H470V35C470 15 459 6 439 5C410 5 349 14 281 31V-56C339 -65 391 -70 450 -70ZM48 64 103 11C190 68 254 147 289 212L213 249C183 188 129 117 48 64ZM892 8 967 50C933 103 855 189 768 253L699 211C784 146 861 61 892 8ZM670 266 718 339C631 369 459 414 350 432L313 359C427 342 581 299 670 266ZM813 591 887 562C910 613 920 645 920 678C920 767 818 811 587 811C416 811 263 779 164 737V795H84V579H164V669C276 706 433 731 587 731C782 731 839 706 839 673C839 652 833 631 813 591ZM328 530 403 556C389 589 363 645 333 682L261 656C287 618 313 571 328 530ZM140 471H860V550H140ZM594 539 663 515C698 563 726 614 748 662L668 686C651 640 627 585 594 539Z" transform="translate(0, 880) scale(1,-1)" /></svg>