<svg xmlns="http://www.w3.org/2000/svg" width="1000" height="1000"><path d="M532 744H218V470C218 325 210 122 122 -23L190 -60C283 92 296 317 296 470V665H943V744H621L573 845L494 827ZM237 296 153 263V592H74V276C74 242 56 223 44 215L73 142L265 223ZM323 438 383 377C477 441 564 529 643 633L571 672C496 573 411 494 323 438ZM307 259 343 185C589 239 754 348 873 543L814 590L800 582H511V504H735C661 393 537 310 307 259ZM908 185 950 258C782 332 639 381 476 427L438 355C602 309 743 259 908 185ZM842 -96 882 -23C772 19 572 86 417 122L375 50C533 11 736 -50 842 -96ZM753 92 793 164C726 188 624 218 543 237L505 169C584 151 689 119 753 92Z" transform="translate(0, 880) scale(1,-1)" /></svg>