<svg xmlns="http://www.w3.org/2000/svg" width="1000" height="1000"><path d="M501 775H71V698H501ZM329 625V849H249V625ZM474 660H94V583H474ZM480 551H93V475H480ZM329 380V525H249V380ZM504 456 60 376 75 297 519 382ZM497 356 545 288C749 347 854 467 902 610L841 644L823 637H550V560H787C761 497 699 413 497 356ZM878 286 940 348C864 407 731 484 606 542L557 485C679 424 806 343 878 286ZM680 852V612H760V852ZM541 775V698H909V775ZM633 -93C725 -93 766 -74 782 -43C818 26 827 121 824 200C821 298 763 325 590 325C491 325 388 319 275 306L277 234C404 250 503 254 591 254C688 254 739 256 742 197C745 135 735 68 707 11C699 -7 679 -19 622 -19C571 -19 524 -14 469 1V-82C526 -89 581 -93 633 -93ZM98 -31 167 -86C291 39 313 161 321 321H237C229 169 216 76 98 -31ZM671 41 672 112 343 114 342 43ZM680 137 681 208 360 210 359 139Z" transform="translate(0, 880) scale(1,-1)" /></svg>