<svg xmlns="http://www.w3.org/2000/svg" width="1000" height="1000"><path d="M190 -63C322 -63 382 108 382 256C382 375 324 495 192 550L160 476C264 427 303 341 303 256C303 148 265 18 190 18C161 18 137 39 137 96C137 202 222 291 392 421L343 484C172 361 57 232 57 96C57 -17 112 -63 190 -63ZM191 522 257 488C315 564 378 671 410 748L349 783L334 773H79V695H299C270 638 228 572 191 522ZM374 555 440 494C525 573 604 682 676 810L600 843C532 721 454 624 374 555ZM365 334 402 258C623 325 778 456 882 700L818 740L806 731H550V651H766C701 505 569 394 365 334ZM903 258 945 332C794 423 666 484 519 540L481 467C629 411 756 349 903 258ZM846 -88 886 -14C787 38 607 120 468 165L426 91C568 43 750 -32 846 -88ZM767 143 806 216C746 246 655 283 582 306L543 238C615 215 709 176 767 143Z" transform="translate(0, 880) scale(1,-1)" /></svg>