<svg xmlns="http://www.w3.org/2000/svg" width="1000" height="1000"><path d="M49 59H128C119 185 116 367 131 488C139 554 172 623 202 623C238 623 250 529 250 409C250 261 243 161 223 161C213 161 212 173 212 193C212 261 250 393 328 487L269 541C183 446 134 309 134 192C134 115 167 76 222 76C322 76 330 209 330 409C330 580 302 704 210 704C172 704 142 673 125 613L139 720H59C42 422 42 249 49 59ZM735 -65C879 -65 953 48 953 227C953 399 851 466 688 466C644 466 611 463 581 458C644 518 769 642 871 755L812 805L793 797H411V717H728C663 633 546 511 456 435C441 422 371 391 325 365L372 293C457 346 566 385 674 385C792 385 873 344 873 227C873 101 831 15 728 15C679 15 629 23 581 43V-46C627 -60 680 -65 735 -65ZM384 114 434 45C560 111 693 220 779 332L709 373C630 261 501 171 384 114ZM677 75 741 126C695 192 607 281 544 332L483 284C546 234 634 138 677 75ZM295 542H945V622H295Z" transform="translate(0, 880) scale(1,-1)" /></svg>