<svg xmlns="http://www.w3.org/2000/svg" width="1000" height="1000"><path d="M74 -21H146V616C189 645 229 655 259 655C304 655 344 616 344 376C344 151 301 74 284 74C260 74 237 77 209 85V9C237 7 260 4 287 4C367 4 418 77 418 376C418 662 371 727 259 727C223 727 184 712 146 683V724H74ZM117 195 181 155C250 273 330 449 357 534L289 567C261 480 196 306 117 195ZM274 241 328 294C285 356 224 423 181 465L134 420C183 370 235 296 274 241ZM649 16 659 -60C829 -51 953 4 953 140C953 222 907 280 815 276L905 447L861 509C626 511 426 364 426 212C426 137 461 93 523 93C581 93 625 140 662 220C711 325 800 551 858 713L806 748L789 742H587V669H765C731 567 642 343 596 245C581 213 552 167 527 167C508 167 495 180 495 212C495 300 655 436 822 436C794 379 762 322 719 255L764 198C833 211 875 184 875 140C875 66 781 16 649 16ZM430 501 492 449C571 561 622 665 680 815L608 838C559 697 502 592 430 501Z" transform="translate(0, 880) scale(1,-1)" /></svg>