<svg xmlns="http://www.w3.org/2000/svg" width="1000" height="1000"><path d="M803 561 865 511C907 538 934 572 934 623C934 697 845 754 585 754C408 754 267 728 157 680V726H77V527H157V619C271 655 421 675 585 675C801 675 853 647 853 623C853 600 837 579 803 561ZM260 483H745V562L542 561V837H462V561H260ZM248 -74H805C875 -74 903 -33 921 80L842 90C834 19 816 4 783 4H247C234 4 222 6 222 23C222 42 235 63 836 308L792 401L770 391H129V314L651 315C175 122 139 87 139 23C139 -31 169 -74 248 -74Z" transform="translate(0, 880) scale(1,-1)" /></svg>