<svg xmlns="http://www.w3.org/2000/svg" width="1000" height="1000"><path d="M179 -42C230 -42 257 -19 257 48V784H179V56C179 43 174 35 163 35C138 35 112 42 78 56V-31C112 -38 144 -42 179 -42ZM26 543 68 473C182 526 289 591 376 656L323 715C241 651 139 592 26 543ZM27 203 92 171 105 190 365 284 348 358 148 281 231 512 168 538ZM485 100V621H406V98C406 -18 450 -43 572 -43H804C916 -43 949 18 967 192L890 201C878 61 864 37 801 37H572C501 37 485 48 485 100ZM774 355C878 355 903 461 918 763L857 784L840 772H381V692H837C829 484 799 433 762 433C702 433 652 446 596 463V375C652 363 707 355 774 355Z" transform="translate(0, 880) scale(1,-1)" /></svg>