<svg xmlns="http://www.w3.org/2000/svg" width="1000" height="1000"><path d="M279 654 345 702C311 748 274 791 233 833L171 787C211 745 247 700 279 654ZM53 634V555H442V634ZM303 591V-56H381V591ZM107 438V164H185V438ZM66 177 89 100 359 174 335 250ZM439 -13 497 -76C670 68 832 332 880 666L813 691L799 680H611V600H788C739 335 595 113 439 -13ZM434 357 503 311C588 445 654 636 690 824L612 837C573 642 509 466 434 357ZM902 -68 973 -27C902 113 833 223 755 325L694 283C765 187 833 73 902 -68Z" transform="translate(0, 880) scale(1,-1)" /></svg>