<svg xmlns="http://www.w3.org/2000/svg" width="1000" height="1000"><path d="M84 66 151 22C250 102 324 237 324 349C324 433 280 476 218 476C153 476 96 434 96 357C96 278 148 240 216 244C196 192 155 120 84 66ZM213 308C186 308 165 325 165 358C165 389 187 408 213 408C236 408 258 388 258 359C258 325 236 308 213 308ZM299 382V671H220V446ZM68 697V618H355V697ZM46 66 69 -11 364 79 341 155ZM330 -56H917V24H330ZM513 20H648C701 64 722 151 722 228C722 320 678 363 606 363C548 363 491 320 491 245C491 166 542 125 606 125C622 125 635 128 647 136C627 80 583 38 513 20ZM332 708 371 637C438 681 543 732 680 732C804 732 843 689 843 624C843 515 693 504 465 538V452C720 427 923 439 923 624C923 730 866 812 680 812C509 812 400 753 332 708ZM689 292V630H612V322ZM606 195C581 195 561 217 561 245C561 273 581 295 606 295C632 295 652 273 652 245C652 217 632 195 606 195Z" transform="translate(0, 880) scale(1,-1)" /></svg>