<svg xmlns="http://www.w3.org/2000/svg" width="1000" height="1000"><path d="M921 711 922 640ZM722 409 778 471C714 522 641 570 556 618L507 559C589 511 661 460 722 409ZM142 788 84 735C136 690 195 634 224 594L284 652C253 690 195 745 142 788ZM122 31 193 20 295 489 237 518 218 508H42V428H202ZM298 149 58 20 97 -56 338 84ZM302 522 377 491C429 584 473 715 495 818L415 832C393 726 351 604 302 522ZM401 637H925V716H401ZM466 69V211H387V54C387 -43 427 -62 551 -62H810C908 -62 937 -16 953 128L870 139C861 39 849 17 792 17H561C480 17 466 29 466 69ZM764 140C847 140 887 196 900 391L838 407L822 397H379V319H815C805 231 786 219 753 219C689 219 639 223 585 231V149C638 143 694 140 764 140Z" transform="translate(0, 880) scale(1,-1)" /></svg>