<svg xmlns="http://www.w3.org/2000/svg" width="1000" height="1000"><path d="M84 628 114 565C152 609 193 629 240 629C290 629 312 584 312 406C312 226 294 160 258 160C220 160 194 166 173 175V93C194 86 220 82 260 82C367 82 391 174 391 406C391 625 357 709 240 709C174 709 124 674 84 628ZM99 257 171 221C233 320 304 467 328 539L254 568C229 495 166 349 99 257ZM248 276 316 323C278 382 220 451 180 492L119 448C163 401 215 330 248 276ZM136 75V700H57V75ZM636 -68C705 -68 723 -35 723 26V546H645V39C645 18 637 10 626 10C602 9 565 19 530 35V-55C567 -64 599 -68 636 -68ZM380 114 452 77C507 161 543 302 564 414L482 426C467 324 432 195 380 114ZM385 484 460 447C515 547 558 690 582 829L503 840C479 702 434 568 385 484ZM900 69 979 91C959 181 912 326 858 433L782 412C835 302 880 159 900 69ZM497 628H923V708H497Z" transform="translate(0, 880) scale(1,-1)" /></svg>