<svg xmlns="http://www.w3.org/2000/svg" width="1000" height="1000"><path d="M130 278 212 283C180 369 169 425 182 481C197 542 203 584 172 632L93 621C120 568 122 532 109 485C93 429 97 369 130 278ZM233 671 268 741C230 760 158 788 104 806L71 740C125 720 197 689 233 671ZM700 269C850 269 932 357 932 488C932 617 826 669 651 669C629 669 604 667 575 666C654 694 743 727 819 756L776 822L756 818H307V739H610C537 709 483 682 417 657C400 651 342 634 294 618L319 536C409 568 519 590 635 590C765 590 852 565 852 486C852 411 798 347 695 347C647 347 602 354 555 366V281C600 273 646 269 700 269ZM241 420 301 361C417 411 507 477 551 549L477 587C439 521 354 465 241 420ZM308 325 366 264C529 317 674 425 717 549L644 586C599 464 469 374 308 325ZM329 6 408 -30C493 4 604 60 667 106L608 165L587 158H465C512 204 537 250 554 301L475 313C457 257 417 191 314 131L365 73L384 81H484C440 53 393 31 329 6ZM851 -91 885 -16C617 12 378 30 140 45L97 -30C354 -46 604 -66 851 -91ZM75 139 150 103C212 133 252 185 276 228L200 258C179 217 137 169 75 139ZM677 137 743 101C790 132 848 180 891 221L808 258C778 221 721 169 677 137Z" transform="translate(0, 880) scale(1,-1)" /></svg>