<svg xmlns="http://www.w3.org/2000/svg" width="1000" height="1000"><path d="M533 740H225V470C225 325 217 122 129 -23L198 -60C291 92 304 317 304 470V661H943V740H622L571 845L492 827ZM244 299 156 264V592H77V277C77 243 59 224 47 216L76 143L272 225ZM470 10 552 -34C645 23 739 118 739 239C739 309 700 368 600 368C498 368 465 315 465 254C465 179 518 135 634 135C808 135 913 222 913 382C913 507 842 591 645 591C459 591 336 500 271 444L326 385C389 436 507 511 645 511C772 511 833 459 833 382C833 284 757 214 634 214C570 214 545 229 545 254C545 275 564 288 600 288C637 288 660 274 660 239C660 153 565 65 470 10ZM272 -53H952V26H272Z" transform="translate(0, 880) scale(1,-1)" /></svg>