<svg xmlns="http://www.w3.org/2000/svg" width="1000" height="1000"><path d="M921 711 922 640ZM722 409 778 471C714 522 641 570 556 618L507 559C589 511 661 460 722 409ZM142 788 84 735C136 690 195 634 224 594L284 652C253 690 195 745 142 788ZM120 31 194 19 296 488 236 518 217 508H42V428H200ZM298 149 58 20 97 -56 338 84ZM302 522 378 493C423 586 461 716 481 820L401 832C381 726 344 604 302 522ZM395 637H925V716H395ZM466 69V211H387V54C387 -43 427 -62 551 -62H810C908 -62 937 -16 953 128L870 139C861 39 849 16 792 16H561C480 16 466 29 466 69ZM764 140C847 140 887 196 900 391L838 407L822 397H379V319H815C805 231 786 219 753 219C689 219 639 223 585 231V149C638 143 694 140 764 140Z" transform="translate(0, 880) scale(1,-1)" /></svg>