<svg xmlns="http://www.w3.org/2000/svg" width="1000" height="1000"><path d="M70 142 374 281 344 350 42 221ZM177 -50C223 -50 261 -29 261 38V725H181V64C181 40 175 27 154 27C134 27 111 31 85 45V-38C117 -47 148 -50 177 -50ZM59 440H361V519H59ZM66 752 70 670C165 675 287 693 364 714L349 793C277 772 160 754 66 752ZM306 -7 364 -70C587 87 744 276 849 433L779 474L763 457H581C699 556 795 668 886 785L814 828C727 707 614 585 463 455C453 447 439 438 425 432L474 362L504 379H713C648 292 514 134 306 -7ZM742 -58H847C920 -58 944 4 949 147L871 154C870 51 859 22 835 22H740C717 22 713 28 713 56V279L635 251V55C635 -29 656 -58 742 -58ZM528 598 594 645C554 704 499 769 447 820L384 775C439 721 490 659 528 598Z" transform="translate(0, 880) scale(1,-1)" /></svg>