<svg xmlns="http://www.w3.org/2000/svg" width="1000" height="1000"><path d="M256 667 184 680C148 475 86 290 26 152L94 117C154 261 218 464 256 667ZM225 110C212 110 205 121 205 145C205 182 229 260 301 351L249 388C170 297 129 208 129 144C129 76 169 36 225 36C306 36 339 102 339 246C339 392 296 451 230 451C190 451 160 434 139 402L153 334C177 362 204 376 229 376C252 376 264 330 264 246C264 140 244 110 225 110ZM52 642H344V718H52ZM587 538 646 486C735 561 834 668 891 757L830 804L816 799H401V719H761C722 668 662 602 587 538ZM603 317 562 259C705 184 829 97 918 11L974 88C879 159 756 239 603 317ZM660 355 696 288C779 325 840 356 910 411L858 478C795 425 742 392 660 355ZM608 603 537 563C616 437 664 320 664 191C664 112 651 11 594 11C561 11 529 17 498 34V-52C528 -62 564 -67 604 -67C721 -67 743 65 743 191C743 325 689 471 608 603ZM391 455 351 387 535 295 575 363ZM298 90 342 26 596 180 551 244Z" transform="translate(0, 880) scale(1,-1)" /></svg>