<svg xmlns="http://www.w3.org/2000/svg" width="1000" height="1000"><path d="M308 705 385 733C370 759 340 804 308 833L234 805C264 774 291 737 308 705ZM79 660H921V738H79ZM612 719 683 693C721 731 752 770 776 809L696 835C677 800 649 756 612 719ZM176 -73C224 -73 255 -51 255 14V621H178V26C178 12 173 4 161 4C137 4 108 12 75 26V-62C107 -69 140 -73 176 -73ZM66 412H323V487H66ZM339 279 302 343 42 197 82 130ZM315 537 352 466C441 516 533 546 671 546C801 546 839 522 839 476C839 412 788 384 461 411V332C805 308 921 341 921 476C921 567 865 625 671 625C511 625 404 588 315 537ZM298 65H926V144H298ZM544 -76C619 -76 661 -39 661 40V479H582L581 56C581 18 569 -1 536 -1C505 -1 469 6 433 19V-64C465 -72 500 -76 544 -76ZM324 189H899V268H324Z" transform="translate(0, 880) scale(1,-1)" /></svg>