<svg xmlns="http://www.w3.org/2000/svg" width="1000" height="1000"><path d="M731 676V390H811V747L747 766L731 755C484 755 273 634 273 526C273 453 331 408 411 408C511 408 571 458 571 535C571 635 507 677 372 677C291 677 206 662 144 642L167 568C227 588 302 601 372 601C447 601 492 579 492 535C492 502 453 485 411 485C371 485 352 503 352 526C352 609 518 676 731 676ZM28 357 98 311C158 387 178 470 178 575V732H521V811H98V582C98 495 82 425 28 357ZM567 432V353H956V432ZM324 165 360 104C522 141 654 176 804 226L755 296L708 278L371 274C435 299 500 330 565 360L504 414C415 364 320 319 231 286C211 279 182 273 154 270L185 199L219 206L509 211C446 193 383 178 324 165ZM467 -86C541 -86 594 -44 594 37C594 99 560 146 498 188L431 151C485 112 511 77 511 37C511 0 485 -17 456 -17C431 -17 379 -9 323 7V-68C371 -82 419 -86 467 -86ZM66 14 121 -28C184 11 248 74 286 125L213 156C183 108 127 53 66 14ZM877 -32 948 3C914 46 845 110 769 160L704 122C778 70 846 11 877 -32Z" transform="translate(0, 880) scale(1,-1)" /></svg>