<svg xmlns="http://www.w3.org/2000/svg" width="1000" height="1000"><path d="M491 736 570 757C558 787 536 823 513 851L434 831C456 804 480 765 491 736ZM818 617 893 595C913 636 920 660 920 678C920 758 818 786 587 786C420 786 266 765 164 734V773H84V612H164V667C276 692 433 709 587 709C782 709 839 695 839 672C839 659 834 645 818 617ZM109 573 161 511C256 544 365 587 431 639L356 689C307 647 206 599 109 573ZM827 509 891 569C832 602 727 652 639 688L581 632C666 593 771 542 827 509ZM66 423H300V500H66ZM221 463H145V-60H221ZM288 319 336 245C565 293 781 386 870 486L808 550L789 542H445V463H725C649 403 494 351 288 319ZM305 -65H929V12H305ZM293 134 364 97C419 151 469 215 512 280L437 303C396 240 350 184 293 134ZM631 -5 714 -26C764 4 798 40 798 89C798 147 744 190 627 190C509 190 440 158 440 102C440 41 483 9 565 9C634 9 667 43 667 81V232H588V100C588 93 575 86 557 86C543 86 519 92 519 102C519 119 550 113 627 113C689 113 719 112 719 89C719 56 689 26 631 -5ZM428 193H846V272H428ZM273 388 347 344C415 390 496 477 534 556L455 573C417 499 335 422 273 388ZM886 251 935 321C826 359 649 409 484 439L441 369C607 339 780 291 886 251Z" transform="translate(0, 880) scale(1,-1)" /></svg>