<svg xmlns="http://www.w3.org/2000/svg" width="1000" height="1000"><path d="M250 681 177 693C140 482 75 291 11 148L81 112C143 261 211 471 250 681ZM219 103C205 103 196 114 196 139C196 177 223 260 299 354L245 393C163 298 120 204 120 139C120 70 161 29 219 29C302 29 338 96 338 245C338 394 293 455 225 455C183 455 151 438 129 404L143 336C168 365 198 380 224 380C249 380 262 331 262 245C262 134 240 103 219 103ZM38 656H344V733H38ZM496 150 560 107C704 260 821 420 911 577L837 626C759 472 639 297 496 150ZM953 -61 980 17C775 96 572 156 378 201L345 129C553 78 754 17 953 -61ZM565 340 630 387C592 444 527 519 467 585L405 528C470 464 526 400 565 340ZM379 727 395 649C572 663 783 697 930 747L895 824C769 776 559 743 379 727Z" transform="translate(0, 880) scale(1,-1)" /></svg>