<svg xmlns="http://www.w3.org/2000/svg" width="1000" height="1000"><path d="M130 451H210V777H130ZM138 698 176 625C283 696 394 736 574 736C746 736 799 697 799 631C799 520 590 515 310 548V468C625 442 879 453 879 631C879 733 814 816 574 816C359 816 225 766 138 698ZM455 -75C516 -75 550 -50 550 24V640H470V29C470 9 463 2 444 2C404 2 349 14 300 30V-62C344 -70 403 -75 455 -75ZM143 423 116 348 368 265 395 339ZM43 92 74 19 422 159 391 233ZM453 294 423 228C620 159 789 79 911 0L961 84C832 149 662 223 453 294ZM556 331 582 260C695 294 779 319 876 373L827 443C740 395 668 364 556 331Z" transform="translate(0, 880) scale(1,-1)" /></svg>