<svg xmlns="http://www.w3.org/2000/svg" width="1000" height="1000"><path d="M532 744H218V470C218 325 210 122 122 -23L191 -60C284 92 297 317 297 470V665H943V744H621L573 845L494 827ZM237 296 153 263V592H74V276C74 242 56 223 44 215L73 142L265 223ZM500 7 606 -20C686 24 723 113 723 199C723 282 676 331 589 331C516 331 457 289 457 215C457 137 519 99 589 99C600 99 609 100 620 102C603 61 561 22 500 7ZM318 -61H923V18H318ZM589 168C558 168 532 186 532 215C532 244 558 259 589 259C621 259 647 244 647 215C647 186 621 168 589 168ZM339 296 405 257C453 315 486 379 511 442L434 470C416 413 386 352 339 296ZM679 246V549H600V298ZM339 510H901V589H339ZM837 257 907 298C885 355 849 413 799 475L736 438C785 373 816 315 837 257Z" transform="translate(0, 880) scale(1,-1)" /></svg>