<svg xmlns="http://www.w3.org/2000/svg" width="1000" height="1000"><path d="M496 728 571 747C558 780 534 819 510 850L436 831C458 802 484 760 496 728ZM816 599 893 575C914 618 922 643 922 664C922 735 818 775 587 775C419 775 266 752 165 720V763H83V592H165V654C277 682 433 700 587 700C782 700 837 683 837 658C837 644 832 628 816 599ZM109 543 163 492C258 529 365 578 431 634L355 672C306 626 205 573 109 543ZM826 490 890 540C831 577 727 632 639 673L582 626C667 583 770 528 826 490ZM126 -64 208 -58C174 34 163 96 179 156C197 220 203 267 168 319L88 307C119 250 121 210 105 159C86 101 90 34 126 -64ZM239 360 274 433C233 453 157 483 100 503L67 435C124 413 200 380 239 360ZM295 393H918V471H295ZM355 243H859V321H355ZM646 -19V569H567V-19ZM355 91H859V169H355ZM948 13H265V-65H948Z" transform="translate(0, 880) scale(1,-1)" /></svg>