<svg xmlns="http://www.w3.org/2000/svg" width="1000" height="1000"><path d="M308 710 385 738C369 766 339 814 306 846L233 818C263 785 291 744 308 710ZM84 660H916V739H84ZM612 723 682 697C721 738 753 781 777 823L697 849C678 810 649 763 612 723ZM135 -49 216 -43C178 60 167 131 186 196C208 268 213 321 175 379L96 366C130 302 132 256 113 201C91 137 96 60 135 -49ZM237 430 273 502C235 524 163 558 109 581L74 514C129 489 201 452 237 430ZM704 -66C854 -66 936 41 936 194C936 348 830 407 655 407C630 407 603 406 574 403C657 443 750 490 828 532L780 596L760 590H311V511H635C562 468 498 430 417 389C400 381 342 361 294 342L326 264C417 303 523 328 639 328C769 328 856 297 856 192C856 99 802 13 699 13C651 13 606 21 559 36V-51C604 -61 650 -66 704 -66ZM244 107 306 48C422 111 513 192 556 281L480 313C442 231 357 162 244 107ZM311 -9 372 -70C534 -5 679 128 722 280L647 310C602 161 472 51 311 -9Z" transform="translate(0, 880) scale(1,-1)" /></svg>