<svg xmlns="http://www.w3.org/2000/svg" width="1000" height="1000"><path d="M619 402 661 325C826 354 901 381 901 484C901 583 761 625 550 625C260 625 77 559 77 450C77 378 143 328 258 328C479 328 530 439 530 526C530 615 466 669 301 700L273 625C408 599 450 566 450 526C450 466 390 406 258 406C190 406 158 424 158 450C158 494 295 547 550 547C712 547 820 517 820 484C820 447 754 413 619 402ZM314 675 370 615C452 658 543 714 600 757L540 825L525 819H103V741H426C396 718 355 693 314 675ZM881 612 939 672C890 714 821 756 749 795L698 738C776 696 831 656 881 612ZM45 51 97 -20C392 66 550 223 608 342L519 366C471 254 346 130 45 51ZM481 -89C536 -89 583 -81 644 -59V28C582 1 537 -12 495 -12C472 -12 461 -7 461 15V180H382V-2C382 -64 414 -89 481 -89ZM903 -32 956 38C857 88 734 146 627 186L580 122C686 79 806 21 903 -32ZM88 211H912V288H88Z" transform="translate(0, 880) scale(1,-1)" /></svg>