<svg xmlns="http://www.w3.org/2000/svg" width="1000" height="1000"><path d="M23 175 85 121C165 243 250 416 310 558L248 592L237 578H50V502H202C166 414 93 278 23 175ZM161 23H237V400H161ZM210 619 271 673C237 712 189 762 142 807L84 758C131 712 179 659 210 619ZM277 121 134 23 173 -45 315 55ZM301 593H672V671H301ZM337 406H637V484H337ZM526 42V822H447V42ZM337 214H637V292H337ZM677 128 278 26 299 -54 698 48ZM705 -62H783V806H705ZM932 310 975 378C921 423 844 475 769 512L729 446C803 406 881 351 932 310Z" transform="translate(0, 880) scale(1,-1)" /></svg>