<svg xmlns="http://www.w3.org/2000/svg" width="1000" height="1000"><path d="M218 646 285 684C263 723 223 781 183 823L118 788C155 747 196 687 218 646ZM480 670 555 697C539 742 507 800 471 849L400 822C433 774 465 715 480 670ZM696 675 761 642C803 689 848 751 881 806L805 839C780 788 736 723 696 675ZM98 662V584H902V662ZM50 436 105 373C214 430 336 505 411 584L331 629C275 561 161 483 50 436ZM879 372 945 429C877 489 756 570 657 631L598 577C696 514 814 434 879 372ZM427 -1V-82C700 -105 840 -70 840 30C840 110 753 146 550 146C403 146 250 110 135 50L192 -18C297 41 436 67 550 67C702 67 749 49 749 26C749 -5 670 -23 427 -1ZM64 171H936V249H64ZM191 291H809V369H191ZM191 408H809V486H191Z" transform="translate(0, 880) scale(1,-1)" /></svg>