<svg xmlns="http://www.w3.org/2000/svg" width="1000" height="1000"><path d="M54 245H131V437C170 507 214 532 258 532C291 532 307 498 307 435C307 324 278 313 226 340V259C316 232 384 260 384 435C384 558 339 612 258 612C211 612 171 588 131 513V607H54ZM178 69H255V750H178ZM55 60 79 -17 374 77 349 154ZM539 521 612 555C581 628 535 721 494 794L424 754C468 679 509 591 539 521ZM662 561 721 509C811 603 837 645 837 713C837 779 797 829 714 829C633 829 559 790 484 720L532 665C603 721 664 746 710 746C742 746 754 732 754 705C754 673 734 630 662 561ZM545 58 627 19C691 86 774 179 820 241L757 295L739 285H609C631 332 652 383 677 450L601 469C561 369 527 299 490 250L547 197L565 207H675C642 163 597 109 545 58ZM916 -89 944 -11C758 39 575 77 399 109L365 35C553 2 735 -38 916 -89ZM355 415H948V494H355Z" transform="translate(0, 880) scale(1,-1)" /></svg>