<svg xmlns="http://www.w3.org/2000/svg" width="1000" height="1000"><path d="M26 719V642H287V719ZM182 677V-24H259V677ZM51 511V215H127V511ZM28 223 58 151 238 231 208 303ZM749 329 801 394C683 473 549 540 433 589L383 527C502 477 633 406 749 329ZM731 170C886 170 943 307 943 493C943 685 855 757 684 757C549 757 453 728 370 675L397 605C465 652 573 678 680 678C797 678 863 631 863 492C863 364 819 248 726 248C683 248 642 257 600 278V189C641 176 682 170 731 170ZM315 375 378 314C483 397 565 507 604 618L525 641C491 535 417 444 315 375ZM375 226 436 162C583 247 718 414 754 618L677 637C640 448 516 300 375 226ZM293 577 366 531C431 616 470 705 507 813L428 840C393 731 344 642 293 577ZM278 -40 347 -76C393 -26 432 42 449 109L377 137C361 73 319 3 278 -40ZM639 -71C681 -71 715 -53 757 -11L698 38C678 16 667 11 648 11C630 11 618 28 599 130L521 117C553 -40 587 -71 639 -71ZM896 -73 966 -38C940 13 890 90 846 145L783 104C830 47 872 -24 896 -73Z" transform="translate(0, 880) scale(1,-1)" /></svg>