<svg xmlns="http://www.w3.org/2000/svg" width="1000" height="1000"><path d="M47 774V694H329V774ZM52 171 341 264 319 338 32 254ZM167 -57C210 -57 248 -36 248 31V657H170V57C170 34 165 21 151 21C123 21 95 28 65 39V-45C100 -53 132 -57 167 -57ZM11 428 74 370C173 448 267 545 342 644L280 691C205 593 113 503 11 428ZM354 439 383 361 402 368H950V448H449C462 523 478 629 485 717H899V797H407C404 682 386 545 374 467C372 450 363 443 354 439ZM307 39 376 -10C425 58 487 163 525 258L449 283C413 195 358 101 307 39ZM620 -65C676 -65 701 -38 701 23V642H622V36C622 20 616 12 602 12C573 12 544 20 511 33V-54C546 -61 580 -65 620 -65ZM910 -7 984 31C954 101 891 211 839 284L768 251C821 176 881 63 910 -7Z" transform="translate(0, 880) scale(1,-1)" /></svg>