<svg xmlns="http://www.w3.org/2000/svg" width="1000" height="1000"><path d="M307 733 385 761C370 785 341 826 309 853L236 825C264 796 290 762 307 733ZM79 692H921V771H79ZM611 749 683 722C720 757 751 793 774 828L695 854C676 822 648 782 611 749ZM878 550 809 597C745 523 675 458 599 395L638 316L661 322H719L513 226L591 174L914 334L863 409L841 400H716C766 441 825 491 878 550ZM514 -79C814 -79 903 0 903 94C903 189 817 242 615 242C487 242 390 232 290 219L307 141C405 152 498 163 615 163C761 163 822 136 822 94C822 44 751 -2 514 -2C333 -2 256 13 256 30C256 43 283 52 392 52C483 52 501 46 501 35C501 20 460 5 360 -13L401 -69C505 -47 593 -19 593 35C593 92 535 125 392 125C243 125 177 87 177 30C177 -35 246 -79 514 -79ZM86 605 116 532C298 559 480 597 656 643L597 710C455 672 255 628 86 605ZM819 507 809 587C406 531 98 471 98 348C98 287 143 245 247 245C402 245 514 303 514 415C514 492 473 558 361 627L291 580C393 512 433 462 433 415C433 352 341 322 245 323C198 324 179 331 179 348C179 404 485 462 819 507Z" transform="translate(0, 880) scale(1,-1)" /></svg>