<svg xmlns="http://www.w3.org/2000/svg" width="1000" height="1000"><path d="M368 407 400 329C656 369 781 535 863 749L785 772C706 572 593 435 368 407ZM322 473 397 443C436 490 462 565 476 624L400 643C388 585 361 518 322 473ZM887 329 921 407C728 425 581 563 539 719L460 700C508 508 700 350 887 329ZM674 662 730 722C689 758 615 808 560 838L511 778C568 748 635 699 674 662ZM904 437 974 477C955 525 913 596 870 650L804 610C845 555 886 488 904 437ZM805 108 831 28C915 49 966 103 966 182C966 270 893 318 728 318C592 318 455 292 357 260L376 183C472 214 609 238 728 238C841 238 883 214 883 181C883 139 856 119 805 108ZM512 168V90H765V168ZM385 12V-68H911V12ZM231 515 152 526C125 358 76 200 29 86L107 52C153 172 203 344 231 515ZM227 37C216 37 211 49 211 77C211 119 240 194 311 300L251 345C176 240 134 147 134 77C134 5 168 -40 227 -40C304 -40 340 30 340 186C340 348 314 404 233 404C194 404 164 386 144 359L157 286C184 309 213 325 233 325C260 325 261 281 261 186C261 71 242 37 227 37ZM60 476H350V555H60ZM254 591 309 650C262 696 208 738 148 780L97 722C157 680 208 635 254 591Z" transform="translate(0, 880) scale(1,-1)" /></svg>