<svg xmlns="http://www.w3.org/2000/svg" width="1000" height="1000"><path d="M673 -52H838C932 -52 950 5 961 181L883 188C878 53 871 28 826 28H696C649 28 639 41 639 91V726H560V88C560 -23 581 -52 673 -52ZM305 342 933 378 929 458 301 422ZM310 721 324 643C511 657 735 691 890 741L853 818C719 770 500 737 310 721ZM127 733 71 679C122 638 181 588 210 553L267 612C237 646 179 695 127 733ZM111 53 182 43 272 462 214 490 195 482H38V402H178ZM271 156 53 47 91 -27 310 92Z" transform="translate(0, 880) scale(1,-1)" /></svg>