<svg xmlns="http://www.w3.org/2000/svg" width="1000" height="1000"><path d="M433 340H815V420H433ZM299 155H949V235H299ZM298 399 352 339C633 448 668 634 668 840H587C587 647 568 501 298 399ZM887 333 951 387C871 462 781 539 702 601L647 547C727 485 816 406 887 333ZM308 695 318 613C531 619 774 640 945 669L922 747C763 717 527 697 308 695ZM589 -79C645 -79 676 -44 676 16V368H597V28C597 10 588 -3 568 -3C536 -3 498 4 450 20V-62C499 -74 541 -79 589 -79ZM138 778 81 725C132 681 191 626 220 588L279 646C248 683 191 737 138 778ZM117 43 191 31 289 486 228 516 209 506H42V426H192ZM289 155 58 32 97 -42 328 91Z" transform="translate(0, 880) scale(1,-1)" /></svg>