<svg xmlns="http://www.w3.org/2000/svg" width="1000" height="1000"><path d="M310 677 385 705C369 741 337 801 302 841L229 813C261 772 291 721 310 677ZM79 615H921V694H79ZM612 686 680 661C721 712 755 766 781 818L699 844C680 795 651 736 612 686ZM725 -71H834C918 -71 935 -5 942 147L862 153C858 31 853 8 817 8H735C713 8 703 13 703 26C703 44 705 75 766 444L702 468L684 458H113V379H671C627 94 624 54 624 13C624 -47 648 -71 725 -71ZM69 -19 128 -79C409 58 447 250 476 623L396 628C366 259 332 106 69 -19Z" transform="translate(0, 880) scale(1,-1)" /></svg>