<svg xmlns="http://www.w3.org/2000/svg" width="1000" height="1000"><path d="M308 711 385 739C370 766 340 812 307 842L234 814C263 782 291 744 308 711ZM79 664H921V743H79ZM612 725 682 699C721 738 752 778 776 818L696 844C677 808 649 763 612 725ZM78 318H657V398H78ZM119 -35 411 56 384 131 91 45ZM179 45H259V272H179ZM721 1H801V361H721ZM534 355H454V-88H534ZM919 41H614V-39H919ZM493 540 571 558C559 590 536 625 513 654L437 636C458 608 482 570 493 540ZM817 419 894 397C914 438 922 465 922 483C922 557 818 592 587 592C420 592 265 567 164 535V576H84V414H164V470C276 497 433 514 587 514C782 514 837 498 837 474C837 462 832 448 817 419Z" transform="translate(0, 880) scale(1,-1)" /></svg>