<svg xmlns="http://www.w3.org/2000/svg" width="1000" height="1000"><path d="M80 649 106 588C148 634 197 655 236 655C275 655 293 594 293 497C293 337 251 323 150 369V288C263 253 373 259 373 497C373 652 335 737 236 737C171 737 116 701 80 649ZM252 63V511H176V63ZM352 76 325 148 68 42 94 -32ZM135 257V700H62V257ZM776 501C759 456 739 414 711 369L756 302C832 323 865 297 865 245C865 170 752 108 618 80L654 7C814 54 945 107 945 245C945 358 880 395 805 386L887 561L816 599L801 587C418 533 319 393 319 309C319 249 357 199 426 199C563 199 692 473 809 779L741 813L722 799H386V719H700C620 499 498 279 428 279C408 279 398 290 398 307C398 345 460 454 776 501ZM642 -88 720 -58C700 11 662 106 627 179L553 150C588 81 622 -15 642 -88Z" transform="translate(0, 880) scale(1,-1)" /></svg>