<svg xmlns="http://www.w3.org/2000/svg" width="1000" height="1000"><path d="M87 669H913V748H561L507 845L429 828L473 748H87ZM113 352 495 402 482 480 100 430ZM234 425 306 388C370 438 433 505 484 569L419 622L397 611H116V533H346C316 495 281 462 234 425ZM674 418H754V628H674ZM894 451H534V372H894ZM148 83H226V173C341 207 496 222 624 222C739 222 809 211 809 186C809 142 697 138 521 153V74C747 62 889 79 889 186C889 272 780 301 624 301C486 301 342 279 226 233V279H148ZM467 -26H546V357H467ZM113 -4 117 -82 821 -51 817 27ZM835 -90 907 -64C880 -19 848 27 812 73L743 48C778 2 809 -45 835 -90Z" transform="translate(0, 880) scale(1,-1)" /></svg>