<svg xmlns="http://www.w3.org/2000/svg" width="1000" height="1000"><path d="M347 432 36 305 67 225 376 360ZM183 -72C233 -72 271 -48 271 28V688H192V43C192 19 184 6 164 6C140 6 117 10 85 24V-60C119 -69 150 -72 183 -72ZM66 695 79 614C164 623 287 650 370 689L345 766C270 729 154 705 66 695ZM488 561 558 596C538 650 498 729 461 787L394 756C431 698 470 617 488 561ZM617 509H695V841H617ZM746 592 814 561C846 612 890 694 922 763L848 794C824 729 780 645 746 592ZM654 -100C817 -100 929 -36 929 79C929 172 856 241 708 241C677 241 656 238 631 233C700 278 763 319 824 363L763 418L746 410H460V333H658C602 289 545 249 494 215C476 205 451 194 410 183L447 110C522 145 604 162 691 162C795 162 846 131 846 79C846 4 736 -26 645 -26C597 -26 570 -15 570 3C570 19 583 31 607 31C649 31 677 3 691 -54L760 -38C742 37 688 94 608 94C539 94 493 52 493 3C493 -59 543 -100 654 -100ZM374 473H911V550H374Z" transform="translate(0, 880) scale(1,-1)" /></svg>