<svg xmlns="http://www.w3.org/2000/svg" width="1000" height="1000"><path d="M244 522 165 535C133 372 77 220 23 110L100 73C153 190 211 357 244 522ZM246 61C229 61 222 73 222 100C222 140 252 217 334 319L275 365C189 264 144 169 144 100C144 29 182 -16 246 -16C329 -16 370 53 370 205C370 362 337 416 251 416C207 416 173 399 150 371L164 297C194 323 226 338 251 338C283 338 290 296 290 205C290 94 267 61 246 61ZM53 484H387V564H53ZM277 595 330 656C279 701 220 741 155 782L105 722C171 681 227 638 277 595ZM700 181C873 181 964 240 964 385C964 540 805 576 500 530L510 450C740 489 885 465 885 385C885 298 816 261 700 261C618 261 521 268 406 293V209C518 187 615 181 700 181ZM596 -79C652 -79 690 -58 690 16V380H611V33C611 11 603 -1 586 -1C553 -1 510 10 472 24V-62C508 -71 549 -79 596 -79ZM337 530 393 470C505 590 572 703 619 821L538 838C502 742 434 625 337 530ZM611 537 677 499C745 586 799 663 844 736L782 789L765 779H538V699H724C700 659 666 608 611 537Z" transform="translate(0, 880) scale(1,-1)" /></svg>