<svg xmlns="http://www.w3.org/2000/svg" width="1000" height="1000"><path d="M274 452 9 326 43 248 306 382ZM137 -47C184 -47 220 -23 220 54V707H142V68C142 44 135 31 116 31C96 31 77 35 50 49V-35C80 -44 108 -47 137 -47ZM39 714 50 633C123 643 228 669 298 708L271 783C208 747 113 724 39 714ZM386 450 457 415C537 511 612 628 698 803L618 832C541 665 461 540 386 450ZM281 592H964V672H281ZM806 317V-3H885V378L828 409L806 397C588 383 272 265 272 78C272 -12 330 -61 424 -61C582 -61 689 64 689 232C689 371 645 480 495 480C434 480 385 464 348 443L379 371C406 387 449 400 495 400C565 400 609 339 609 232C609 105 533 19 424 19C375 19 352 43 352 78C352 190 601 304 806 317ZM976 34H715V-46H976Z" transform="translate(0, 880) scale(1,-1)" /></svg>