<svg xmlns="http://www.w3.org/2000/svg" width="1000" height="1000"><path d="M308 716 385 744C370 770 340 815 307 845L234 817C264 786 291 748 308 716ZM79 669H921V748H79ZM612 730 683 703C721 742 752 782 776 822L696 848C677 811 649 767 612 730ZM153 -66C255 -66 307 59 307 186C307 283 262 378 158 421L133 348C206 311 231 252 231 186C231 96 202 12 153 12C133 12 122 25 122 57C122 127 180 207 307 301L268 367C134 273 46 166 46 57C46 -30 88 -66 153 -66ZM156 397 213 367C256 425 300 503 325 560L263 601L251 591H74V514H216C200 476 178 431 156 397ZM537 273 612 227C680 260 752 328 752 414C752 474 711 509 616 509C522 509 485 474 485 419C485 357 542 326 650 326C820 326 917 376 917 487C917 568 868 637 682 637C513 637 402 598 318 554L358 482C437 521 557 557 682 557C811 557 834 521 834 487C834 432 770 398 650 398C587 398 565 408 565 419C565 431 582 440 616 440C650 440 672 433 672 414C672 365 617 310 537 273ZM781 107 805 28C897 45 947 95 947 167C947 252 866 295 699 295C552 295 407 270 303 241L322 164C424 193 568 216 699 216C814 216 863 196 863 167C863 132 834 116 781 107ZM468 158V79H736V158ZM332 14V-65H892V14Z" transform="translate(0, 880) scale(1,-1)" /></svg>