<svg xmlns="http://www.w3.org/2000/svg" width="1000" height="1000"><path d="M87 683H913V761H561L513 842L429 825L467 761H87ZM526 288H648C720 314 755 354 755 392C755 461 681 500 514 500C359 500 264 472 264 403C264 346 333 316 434 316C512 316 550 345 550 391V654H472V410C472 390 445 381 415 381C387 381 349 390 349 403C349 420 391 431 514 431C618 431 670 416 670 392C670 365 648 332 526 288ZM78 212H930V289H78ZM154 529H856V606H246L327 699L256 732L153 607L137 600ZM481 -89C536 -89 583 -81 644 -58V28C582 2 537 -12 495 -12C472 -12 461 -6 461 16V186H382V-1C382 -64 414 -89 481 -89ZM903 -31 956 39C857 91 734 151 627 193L580 128C686 84 806 25 903 -31ZM528 236 458 279C386 194 262 111 45 53L97 -18C303 43 443 142 528 236Z" transform="translate(0, 880) scale(1,-1)" /></svg>