<svg xmlns="http://www.w3.org/2000/svg" width="1000" height="1000"><path d="M37 267H113V461C148 525 183 545 222 545C251 545 264 512 264 452C264 344 239 334 197 360V279C276 253 340 281 340 452C340 572 300 625 222 625C180 625 149 606 113 537V618H37ZM148 96H225V757H148ZM42 88 67 11 328 103 302 180ZM741 -65C884 -65 957 48 957 227C957 399 857 466 696 466C653 466 620 463 591 458C653 518 777 642 877 755L817 805L799 797H423V717H735C671 633 555 511 468 435C453 422 384 391 338 365L385 293C469 346 575 385 682 385C797 385 877 344 877 227C877 101 836 15 735 15C686 15 637 23 589 43V-46C635 -60 687 -65 741 -65ZM396 114 446 45C570 111 702 220 786 332L716 373C638 261 511 171 396 114ZM685 75 749 126C703 192 617 281 554 332L494 284C556 234 642 138 685 75ZM310 542H948V622H310Z" transform="translate(0, 880) scale(1,-1)" /></svg>