<svg xmlns="http://www.w3.org/2000/svg" width="1000" height="1000"><path d="M117 767 62 712C113 673 172 624 201 590L258 649C227 682 170 730 117 767ZM102 106 173 95 262 502 204 531 185 522H29V443H168ZM261 206 44 100 81 27 300 141ZM303 439 331 361 353 368H947V448H401C415 523 432 629 439 717H892V797H361C358 682 339 545 326 467C323 450 314 443 303 439ZM253 40 321 -10C375 58 441 163 482 258L406 284C368 196 308 102 253 40ZM591 -65C647 -65 673 -37 673 24V642H594V36C594 20 588 12 572 12C541 12 510 20 474 33V-53C511 -60 548 -65 591 -65ZM907 -7 981 31C948 101 880 211 823 284L753 251C810 176 875 63 907 -7Z" transform="translate(0, 880) scale(1,-1)" /></svg>