<svg xmlns="http://www.w3.org/2000/svg" width="1000" height="1000"><path d="M58 750V670H342V750ZM116 528 149 462C165 481 188 499 205 499C230 499 237 475 237 434V-80H316V443C316 528 282 579 228 579C188 579 150 559 116 528ZM74 220 151 218C165 406 188 548 238 705L163 736C112 569 85 420 74 220ZM342 633 383 567C485 613 623 698 717 781L656 835C576 762 443 676 342 633ZM759 475C839 475 870 439 870 389C870 317 828 253 704 199L735 121C878 186 949 249 949 389C949 497 887 555 759 555C526 555 350 396 350 232C350 137 400 89 473 89C556 89 636 161 636 315C636 462 597 579 507 676L453 618C539 514 558 410 558 315C558 222 516 169 473 169C442 169 428 193 428 232C428 353 562 475 759 475ZM684 -81H762V377H684Z" transform="translate(0, 880) scale(1,-1)" /></svg>