<svg xmlns="http://www.w3.org/2000/svg" width="1000" height="1000"><path d="M312 677 388 705C372 738 341 794 306 831L233 803C265 765 294 717 312 677ZM88 619H919V699H88ZM615 688 684 662C724 709 757 759 783 808L701 834C682 788 653 734 615 688ZM147 479 167 408C207 429 241 439 289 439C343 439 361 398 361 345C361 279 330 240 261 231V156C389 165 438 241 438 345C438 452 396 516 291 516C228 516 184 501 147 479ZM221 22H298V333H221ZM70 -1 99 -74 431 51 402 125ZM45 226 120 192C165 303 200 445 218 588L141 598C122 457 85 316 45 226ZM907 -20 945 59C814 126 684 178 551 215L520 143C652 107 785 48 907 -20ZM402 0 474 -49C548 51 602 179 624 302L545 319C519 193 477 92 402 0ZM620 -87C680 -87 718 -52 718 18V512H640V33C640 1 634 -14 611 -14C582 -14 556 -7 524 11V-71C554 -82 589 -87 620 -87ZM434 284H910V362H434ZM464 541 480 465C610 467 763 482 869 507L842 580C736 555 598 542 464 541Z" transform="translate(0, 880) scale(1,-1)" /></svg>