<svg xmlns="http://www.w3.org/2000/svg" width="1000" height="1000"><path d="M309 677 385 705C369 738 338 794 303 831L230 803C262 765 291 717 309 677ZM79 619H921V699H79ZM612 688 681 662C721 709 754 759 780 808L698 834C679 788 650 734 612 688ZM145 481 163 410C195 426 226 433 266 433C314 433 331 393 331 341C331 276 307 237 246 229V153C366 159 408 238 408 341C408 447 369 511 267 511C215 511 176 499 145 481ZM205 21H281V329H205ZM67 -1 96 -73 403 50 373 123ZM45 223 120 190C161 300 194 440 209 582L133 591C116 451 82 312 45 223ZM907 -21 946 58C809 126 674 178 536 215L504 142C641 107 779 47 907 -21ZM382 0 454 -49C532 51 588 179 610 302L530 319C503 193 460 92 382 0ZM609 -87C670 -87 708 -52 708 18V512H630V38C630 6 623 -9 600 -9C570 -9 544 -1 511 17V-71C542 -82 577 -87 609 -87ZM414 283H909V362H414ZM446 544 462 464C597 466 756 480 866 505L838 583C728 558 585 545 446 544Z" transform="translate(0, 880) scale(1,-1)" /></svg>