<svg xmlns="http://www.w3.org/2000/svg" width="1000" height="1000"><path d="M236 521 158 534C129 372 77 220 28 110L106 75C154 191 207 357 236 521ZM235 63C221 63 216 75 216 101C216 141 244 213 320 315L260 361C181 260 139 171 139 101C139 30 174 -14 235 -14C312 -14 351 54 351 205C351 362 322 416 240 416C199 416 168 399 147 373L160 299C188 323 218 338 240 338C268 338 271 296 271 205C271 96 251 63 235 63ZM59 483H363V563H59ZM263 594 317 655C268 699 213 739 151 779L101 720C163 680 216 637 263 594ZM396 362 431 286 448 294H905V374H500C560 510 608 668 651 825L574 842C532 681 476 511 425 395C419 381 409 369 396 362ZM340 9 411 -40C461 22 513 118 546 216L468 239C440 152 392 66 340 9ZM632 -71C678 -71 718 -53 718 23V557H395V478H640V34C640 16 635 8 616 7C595 6 565 12 526 29V-58C558 -67 592 -71 632 -71ZM892 -33 962 14C932 77 870 174 817 244L749 202C802 131 863 29 892 -33ZM372 651H924V731H372Z" transform="translate(0, 880) scale(1,-1)" /></svg>