<svg xmlns="http://www.w3.org/2000/svg" width="1000" height="1000"><path d="M310 655 385 683C368 720 336 783 301 826L228 798C260 755 291 701 310 655ZM84 589H916V668H84ZM612 663 679 637C721 691 756 749 782 803L700 829C681 777 651 715 612 663ZM79 494V415H921V494ZM460 593V314H540V593ZM556 349C381 349 245 323 116 289L145 210C274 250 399 270 556 270C687 270 756 250 756 219C756 134 385 9 264 9C211 9 170 27 170 61C170 91 218 112 298 112C459 112 632 -1 893 -86L947 -13C694 67 490 191 298 191C185 191 85 152 85 61C85 -18 152 -69 264 -69C437 -69 846 81 846 219C846 305 746 349 556 349Z" transform="translate(0, 880) scale(1,-1)" /></svg>