<svg xmlns="http://www.w3.org/2000/svg" width="1000" height="1000"><path d="M586 -68C657 -68 677 -35 677 26V546H598V39C598 18 589 10 576 10C547 9 503 19 462 35V-55C505 -64 542 -68 586 -68ZM284 115 355 77C421 161 463 302 487 414L406 427C388 325 347 196 284 115ZM291 484 365 446C431 546 481 689 510 828L431 840C402 702 350 568 291 484ZM900 68 979 91C955 181 900 326 836 433L760 411C823 301 877 158 900 68ZM416 628H920V708H416ZM115 760 60 705C111 665 170 616 198 581L255 640C225 674 168 722 115 760ZM102 93 173 83 253 493 197 521 178 513H37V433H162ZM247 189 50 87 89 15 287 126Z" transform="translate(0, 880) scale(1,-1)" /></svg>