<svg xmlns="http://www.w3.org/2000/svg" width="1000" height="1000"><path d="M108 758 53 703C104 664 162 615 191 581L248 640C218 674 161 721 108 758ZM95 97 166 87 247 493 190 521 171 513H29V434H155ZM241 193 42 91 80 19 281 130ZM678 42 761 15C815 142 867 288 911 437L832 456C790 311 736 165 678 42ZM429 121 506 152C487 227 441 347 399 440L325 415C366 322 411 199 429 121ZM611 151 690 177C678 251 646 376 614 470L539 445C571 350 599 228 611 151ZM467 617 541 654C521 701 481 770 445 823L375 790C410 738 448 664 467 617ZM686 602 755 574C795 642 841 727 875 801L794 828C769 762 726 673 686 602ZM959 612H287V532H959ZM975 50H271V-30H975Z" transform="translate(0, 880) scale(1,-1)" /></svg>