<svg xmlns="http://www.w3.org/2000/svg" width="1000" height="1000"><path d="M80 652 109 590C155 635 208 656 250 656C296 656 316 596 316 504C316 350 267 336 157 381V299C279 266 396 272 396 504C396 653 356 737 250 737C181 737 120 702 80 652ZM265 83V517H188V83ZM374 94 349 167 69 65 94 -11ZM136 270V701H62V270ZM559 409 634 381C674 506 698 677 706 834L626 836C619 682 597 524 559 409ZM340 606 377 531C466 577 615 627 743 627C834 627 874 604 874 568C874 532 863 501 845 474L923 441C942 477 955 512 955 568C955 674 865 708 743 708C583 708 436 657 340 606ZM502 -6 564 -80C769 19 873 123 873 270C873 388 806 439 682 439C613 439 540 426 487 407L512 326C558 343 625 359 682 359C757 359 793 326 793 270C793 148 692 75 502 -6Z" transform="translate(0, 880) scale(1,-1)" /></svg>