<svg xmlns="http://www.w3.org/2000/svg" width="1000" height="1000"><path d="M161 690V612H873V690ZM608 709 648 782C557 809 480 830 396 851L358 782C449 758 523 737 608 709ZM203 581V749H123V559C123 484 167 444 278 444H873V523H284C227 523 203 538 203 581ZM633 -85C722 -85 766 -64 782 -28C818 53 827 168 824 260C821 365 759 396 590 396C491 396 388 389 275 374L277 301C404 319 503 324 591 324C686 324 739 320 742 257C745 184 735 90 707 23C699 3 677 -11 622 -11C571 -11 524 -6 469 9V-74C526 -81 581 -85 633 -85ZM94 -25 165 -77C289 69 311 205 319 392H235C227 211 214 106 94 -25ZM671 75 672 146 343 148 342 77ZM680 187 681 259 360 261 359 190Z" transform="translate(0, 880) scale(1,-1)" /></svg>