<svg xmlns="http://www.w3.org/2000/svg" width="1000" height="1000"><path d="M87 671H913V749H561L507 845L429 827L473 749H87ZM113 369 495 416 482 494 100 447ZM236 440 307 403C371 450 433 512 484 572L419 627L397 616H116V538H345C315 504 280 473 236 440ZM674 433H754V632H674ZM894 467H534V388H894ZM449 85 524 49C589 87 668 138 714 174L650 239L632 234H432C478 279 526 344 560 406L479 427C436 347 380 270 311 219L365 150L386 155H558C531 134 493 109 449 85ZM750 3 767 79C601 105 436 124 278 139L256 64C425 47 588 28 750 3ZM150 298 168 226C242 248 321 258 420 258H730C795 258 825 231 825 172V35C825 7 820 -7 793 -7C763 -7 718 1 668 17V-68C716 -79 759 -85 797 -85C869 -85 905 -54 905 24V180C905 277 856 335 737 335H419C311 335 230 322 150 298ZM197 -88V335H117V-88Z" transform="translate(0, 880) scale(1,-1)" /></svg>