<svg xmlns="http://www.w3.org/2000/svg" width="1000" height="1000"><path d="M309 700 385 728C369 758 339 809 305 843L232 815C263 780 291 737 309 700ZM84 648H916V727H84ZM612 712 682 686C721 729 753 775 778 820L697 846C678 805 650 755 612 712ZM678 237 730 306C572 366 393 416 238 453L189 386C348 349 523 295 678 237ZM647 117C831 117 917 225 917 371C917 516 803 580 584 580C405 580 276 558 166 518L201 447C293 483 436 502 579 502C735 502 836 466 836 370C836 273 765 194 641 194C583 194 529 201 473 216V131C527 121 582 117 647 117ZM104 283 164 219C303 282 412 371 464 456L385 485C339 405 240 335 104 283ZM183 168 240 106C437 170 618 306 666 457L586 480C536 338 371 224 183 168ZM76 442 148 394C233 458 286 526 335 608L255 642C207 560 144 492 76 442ZM59 -41 124 -85C183 -46 235 5 260 54L189 91C168 45 112 -7 59 -41ZM524 -77C564 -77 601 -71 660 -40L607 24C577 6 561 2 536 2C512 2 496 17 467 76L388 58C436 -54 480 -77 524 -77ZM880 -84 945 -37C910 0 844 56 786 96L730 45C792 4 848 -49 880 -84Z" transform="translate(0, 880) scale(1,-1)" /></svg>