<svg xmlns="http://www.w3.org/2000/svg" width="1000" height="1000"><path d="M251 520 172 532C140 363 83 206 28 92L105 55C159 176 218 349 251 520ZM253 40C235 40 228 53 228 80C228 123 260 205 343 312L284 357C196 252 149 150 149 80C149 8 188 -37 253 -37C338 -37 379 34 379 190C379 352 346 408 259 408C214 408 179 390 156 360L170 287C200 314 233 329 259 329C292 329 299 286 299 190C299 74 275 40 253 40ZM58 481H397V561H58ZM285 596 339 657C287 703 227 745 161 787L111 727C178 685 235 640 285 596ZM550 276H799V356H550ZM635 317H713V840H635ZM455 631 468 558C520 574 576 582 646 582H773C823 582 847 555 847 496V44C847 16 843 2 822 2C799 2 765 8 726 20V-66C763 -73 796 -77 825 -77C891 -77 925 -46 925 32V506C925 603 884 661 781 661H645C568 661 512 650 455 631ZM502 -80V661H423V-80Z" transform="translate(0, 880) scale(1,-1)" /></svg>