<svg xmlns="http://www.w3.org/2000/svg" width="1000" height="1000"><path d="M225 643 291 681C270 719 230 774 190 814L126 779C162 740 203 683 225 643ZM485 666 559 693C543 736 511 792 476 838L405 812C438 766 470 709 485 666ZM699 672 763 640C804 684 849 743 882 797L806 829C782 781 738 719 699 672ZM815 472 889 446C911 493 920 521 920 548C920 628 818 672 587 672C418 672 264 644 164 606V655H84V463H164V538C276 571 433 592 587 592C782 592 839 572 839 542C839 525 833 507 815 472ZM154 174H233V465H154ZM359 261V181C703 158 850 212 850 338C850 445 750 492 546 492C366 492 232 444 175 406L215 335C277 374 396 412 546 412C704 412 768 383 768 338C768 261 631 236 359 261ZM67 7 93 -72C467 -33 529 71 529 215V351H449V224C449 127 437 45 67 7ZM675 -68H789C910 -68 924 -13 938 114L858 122C853 29 841 11 794 11H667C627 11 618 18 618 44V142H538V13C538 -44 577 -68 675 -68Z" transform="translate(0, 880) scale(1,-1)" /></svg>