<svg xmlns="http://www.w3.org/2000/svg" width="1000" height="1000"><path d="M152 779 94 727C146 682 205 626 234 587L293 645C262 683 205 737 152 779ZM132 30 203 19 304 484 245 512 226 502H53V422H211ZM306 146 70 19 108 -56 346 81ZM533 123H714C768 123 803 167 803 231C803 291 778 360 736 425L665 390C711 322 724 275 724 239C724 217 713 203 690 203H542C513 203 504 217 504 253C504 350 526 438 576 580L502 605C447 459 423 356 423 232C423 163 462 123 533 123ZM840 248 917 233C928 287 937 348 937 449C937 559 884 602 794 602C721 602 664 584 609 544L638 473C685 507 741 522 794 522C840 522 859 496 859 438C859 363 851 299 840 248ZM369 723 386 648C590 674 775 714 900 758L861 830C756 789 566 747 369 723ZM925 -54 942 26C737 4 582 8 484 50C424 76 384 142 366 234L286 216C312 88 372 6 448 -25C556 -68 710 -76 925 -54Z" transform="translate(0, 880) scale(1,-1)" /></svg>