<svg xmlns="http://www.w3.org/2000/svg" width="1000" height="1000"><path d="M225 643 291 682C270 720 230 777 190 818L126 784C162 743 203 684 225 643ZM485 666 559 694C543 738 511 795 476 843L405 817C438 770 470 711 485 666ZM699 672 763 640C805 686 849 747 882 801L806 834C782 784 738 720 699 672ZM815 466 889 439C910 487 920 516 920 545C920 626 818 670 587 670C418 670 263 641 164 603V654H84V456H164V535C276 568 433 591 587 591C782 591 839 569 839 539C839 520 833 502 815 466ZM146 149H224V280C337 335 489 361 616 361C729 361 798 338 798 295C798 218 688 211 515 232V152C738 133 877 154 877 295C877 400 770 440 616 440C480 440 338 412 224 346V426H146ZM460 -6H539V536H460ZM111 10 116 -68 807 -24 802 54ZM823 -87 895 -60C869 3 837 65 802 128L732 102C766 39 797 -25 823 -87Z" transform="translate(0, 880) scale(1,-1)" /></svg>