<svg xmlns="http://www.w3.org/2000/svg" width="1000" height="1000"><path d="M322 459 17 332 48 252 352 388ZM161 -48C211 -48 249 -24 249 53V718H170V67C170 43 162 30 142 30C119 30 96 34 65 48V-36C98 -45 129 -48 161 -48ZM47 725 60 644C143 654 264 681 346 719L320 796C246 759 133 736 47 725ZM545 -59H834C931 -59 950 5 961 179L881 187C876 46 869 21 822 21H562C509 21 498 34 498 84V802H420V81C420 -30 443 -59 545 -59ZM550 182 610 138C702 237 808 367 899 506L820 543C738 410 633 274 550 182ZM536 476 598 436C671 520 747 618 826 740L745 777C677 661 602 556 536 476Z" transform="translate(0, 880) scale(1,-1)" /></svg>