<svg xmlns="http://www.w3.org/2000/svg" width="1000" height="1000"><path d="M800 526 862 485C904 512 930 549 930 600C930 682 851 726 583 726C409 726 264 700 154 652V699H76V501H154V587C268 625 418 647 582 647C800 647 845 618 845 595C845 568 833 547 800 526ZM461 568H540V782H461ZM703 603 298 602V524H703ZM823 826 168 825V748H823ZM473 362 547 312C616 344 702 386 769 426L723 493L706 489H233V407H575C552 394 518 378 473 362ZM572 264 621 330C560 357 488 383 407 411L363 345C443 317 514 290 572 264ZM365 15 456 -24C539 20 654 87 713 129L657 191L635 183H429C459 208 485 237 519 277L442 302C385 226 338 181 296 162L343 97L364 105H537C492 78 436 50 365 15ZM877 -94 903 -15C643 21 385 46 139 67L104 -9C368 -32 624 -60 877 -94ZM82 245H914V323H82Z" transform="translate(0, 880) scale(1,-1)" /></svg>