<svg xmlns="http://www.w3.org/2000/svg" width="1000" height="1000"><path d="M122 -62C182 -62 198 -39 198 30V803H122V38C122 24 119 16 111 16C96 16 76 23 55 38V-49C77 -58 98 -62 122 -62ZM18 639 48 562C134 601 214 650 279 699L248 770C184 721 104 676 18 639ZM37 95 275 191 257 267 20 178ZM45 303H255V382H45ZM45 457H255V537H45ZM618 745H296V470C296 325 289 122 217 -23L288 -60C365 92 374 317 374 470V666H979V745H702L658 849L582 831ZM395 595V516H960V595ZM517 645V314H596V645ZM395 458V378H960V458ZM749 645V314H829V645ZM737 239 659 277C589 192 465 115 345 57L405 4C528 65 661 151 737 239ZM699 1V-76C888 -98 946 -43 946 36C946 117 879 164 771 164C702 164 645 152 603 126V132H524V-63H603V76C664 74 713 85 767 85C830 85 863 66 863 36C863 -2 830 -18 699 1ZM384 226H945V303H384Z" transform="translate(0, 880) scale(1,-1)" /></svg>