<svg xmlns="http://www.w3.org/2000/svg" width="1000" height="1000"><path d="M102 633 174 593C221 655 266 731 304 807L230 839C194 761 150 692 102 633ZM251 -65C390 -65 403 116 403 406C403 595 381 673 252 673C177 673 116 657 77 636L96 561C136 582 191 594 252 594C318 594 324 522 324 406C324 169 311 13 246 13C219 13 196 18 169 29V-56C195 -62 219 -65 251 -65ZM384 406 357 478C194 384 23 270 23 114C23 46 70 18 116 18C229 18 231 217 235 514L156 515C154 258 141 98 112 98C105 98 102 104 102 114C102 205 234 324 384 406ZM429 63 457 -20 483 -7 888 34 879 115 568 83C676 238 778 443 910 731L830 766C700 463 597 248 514 139C483 97 447 71 429 63ZM569 449 643 484C610 560 555 660 502 747L432 703C487 619 535 531 569 449ZM885 -63 960 -31C931 61 886 174 833 278L762 246C815 141 854 28 885 -63Z" transform="translate(0, 880) scale(1,-1)" /></svg>