<svg xmlns="http://www.w3.org/2000/svg" width="1000" height="1000"><path d="M312 696 388 724C372 754 342 804 308 838L235 810C266 775 294 732 312 696ZM88 643H919V722H88ZM615 708 685 682C724 725 756 771 781 815L700 841C681 800 653 750 615 708ZM312 359 34 242 67 165 343 288ZM168 -72C215 -72 252 -49 252 28V544H174V42C174 18 166 5 146 5C125 5 105 9 77 23V-60C108 -69 138 -72 168 -72ZM64 559 76 479C152 488 262 511 336 545L310 621C243 589 142 569 64 559ZM356 482V405H920V482ZM492 483 553 531C530 557 486 597 443 626L386 581C428 552 472 511 492 483ZM729 530 787 483C825 508 874 550 910 584L843 631C816 599 767 556 729 530ZM940 92 974 167C812 211 652 245 488 269L462 198C624 175 788 137 940 92ZM301 125 373 75C468 142 538 225 567 306L487 334C452 252 400 185 301 125ZM581 -86C645 -86 684 -51 684 15V627H605V29C605 -2 597 -14 571 -14C537 -14 507 -8 471 9V-70C506 -81 545 -86 581 -86ZM344 287H933V362H344ZM291 14 337 -48C414 -20 499 24 551 68L491 116C444 77 366 38 291 14ZM918 -50 967 8C924 37 833 79 761 107L714 50C788 21 877 -23 918 -50Z" transform="translate(0, 880) scale(1,-1)" /></svg>