<svg xmlns="http://www.w3.org/2000/svg" width="1000" height="1000"><path d="M57 233H129V444C172 528 227 562 277 562C313 562 333 522 333 448C333 319 300 307 238 337V254C338 224 409 253 409 448C409 584 359 643 277 643C224 643 173 610 129 521V642H57ZM193 34H266V804H193ZM54 18 76 -58 402 49 379 125ZM710 -61H821C914 -61 933 -17 943 137L873 159C868 42 861 20 811 20H728C680 20 671 33 671 83V732H599V79C599 -32 620 -61 710 -61ZM422 435 895 470 893 551 420 516ZM414 726 424 651C567 665 739 699 859 749L835 823C731 775 561 742 414 726ZM410 226 907 262 906 343 408 307Z" transform="translate(0, 880) scale(1,-1)" /></svg>