<svg xmlns="http://www.w3.org/2000/svg" width="1000" height="1000"><path d="M526 -60H802C882 -60 903 -18 918 132L839 139C832 40 822 20 787 20H549C525 20 517 26 517 38C517 58 531 72 805 241L753 317L728 303H672L829 482L769 536L749 524C447 501 272 408 272 296C272 235 316 193 377 193C480 193 539 275 785 722L721 763L704 752H481V672H670C478 325 429 273 377 273C360 273 351 282 351 296C351 342 471 419 688 435L551 282L589 223H628C442 116 416 84 416 28C416 -28 449 -60 526 -60ZM300 507 365 459C453 571 520 689 576 821L499 844C449 723 381 604 300 507ZM883 210 959 239C941 301 909 384 878 442L808 412C839 351 868 272 883 210ZM129 778 72 725C123 680 182 625 210 586L270 643C239 681 182 736 129 778ZM113 26 183 17 272 482 214 510 195 500H46V420H181ZM265 136 58 16 99 -58 307 73Z" transform="translate(0, 880) scale(1,-1)" /></svg>