<svg xmlns="http://www.w3.org/2000/svg" width="1000" height="1000"><path d="M29 244H106V458C139 529 172 551 211 551C238 551 250 514 250 446C250 326 227 315 186 343V261C263 233 326 261 326 446C326 575 287 632 211 632C169 632 140 610 106 535V629H29ZM138 56H214V781H138ZM35 44 61 -33 314 68 286 145ZM355 52H434V583H355ZM471 428C544 428 575 493 575 749H352V669H496C498 525 480 506 459 506C441 506 424 508 406 516V433C426 429 448 428 471 428ZM541 3 559 -85C744 -46 978 80 978 325C978 422 929 500 785 500C640 500 557 449 557 322C557 242 600 171 680 171C760 171 808 222 808 339V829H730V353C730 283 710 252 680 252C649 252 636 279 636 322C636 385 664 420 785 420C874 420 899 383 899 325C899 126 706 30 541 3ZM333 68 369 -6 563 94 527 168ZM589 594H974V674H589Z" transform="translate(0, 880) scale(1,-1)" /></svg>