<svg xmlns="http://www.w3.org/2000/svg" width="1000" height="1000"><path d="M38 719V642H341V719ZM224 677V-24H302V677ZM72 511V215H149V511ZM43 224 71 150 280 230 252 303ZM266 53 321 -11C534 132 737 336 842 474L768 523L751 503H570C688 589 791 675 891 777L821 828C726 722 600 612 440 499C429 492 414 483 398 479L443 405L477 423H694C630 346 457 175 266 53ZM634 -65C679 -65 719 -56 767 -24V60C719 29 684 13 652 13C634 13 626 17 626 48V259H547V31C547 -37 574 -65 634 -65ZM913 -5 973 54C897 127 819 201 733 271L677 222C760 149 838 73 913 -5ZM510 614 574 667C530 718 470 775 413 820L352 769C412 722 469 668 510 614Z" transform="translate(0, 880) scale(1,-1)" /></svg>