<svg xmlns="http://www.w3.org/2000/svg" width="1000" height="1000"><path d="M78 538H567V599H78ZM323 593H421C462 605 501 632 501 667C501 714 435 743 325 743C208 743 138 719 138 670C138 628 180 604 260 604C318 604 357 628 357 659V850H292V670C292 662 269 658 245 658C224 658 205 663 205 670C205 679 236 685 325 685C395 685 433 677 433 667C433 654 409 622 323 593ZM102 745H548V811H102ZM525 348 574 296C765 375 900 521 914 746L858 761L840 751H641V687H839C820 555 725 432 525 348ZM262 282C406 282 539 348 539 432C539 510 450 538 197 534V474C407 478 467 471 467 432C467 375 355 339 262 339C205 339 183 344 183 352C183 362 261 397 483 432L463 489C221 452 107 399 107 348C107 307 151 282 262 282ZM103 473 153 434C203 463 263 508 298 548L242 581C209 543 155 501 103 473ZM896 298 950 342C880 418 754 517 638 594L595 557C710 478 829 372 896 298ZM556 618 612 601C653 663 686 738 705 833L643 844C626 748 599 682 556 618ZM162 220 184 161C288 192 414 211 590 211C758 211 810 197 810 181C810 147 601 142 306 158V87C648 74 888 71 888 181C888 239 825 282 590 282C389 282 248 259 162 220ZM108 -30 151 -94C502 -41 546 28 546 176H466C467 42 446 20 108 -30ZM840 -101 892 -39C794 0 690 37 603 60L560 0C653 -28 756 -65 840 -101ZM202 82V264H125V82Z" transform="translate(0, 880) scale(1,-1)" /></svg>