<svg xmlns="http://www.w3.org/2000/svg" width="1000" height="1000"><path d="M39 174 101 117C197 234 299 401 370 537L311 576L297 562H71V485H252C209 402 122 272 39 174ZM207 26H284V389H207ZM263 598 320 656C282 694 226 742 171 785L117 732C172 687 228 636 263 598ZM341 130 175 27 213 -41 377 64ZM334 -56H914V24H334ZM514 20H649C702 64 722 151 722 228C722 320 679 363 607 363C548 363 492 320 492 245C492 166 542 125 607 125C622 125 636 128 648 136C627 80 584 38 514 20ZM337 708 375 638C442 682 544 732 680 732C802 732 840 689 840 624C840 515 692 504 467 538V452C719 427 920 439 920 624C920 730 863 812 680 812C511 812 403 753 337 708ZM689 292V630H612V322ZM607 195C581 195 562 217 562 245C562 273 581 295 607 295C633 295 652 273 652 245C652 217 633 195 607 195Z" transform="translate(0, 880) scale(1,-1)" /></svg>