<svg xmlns="http://www.w3.org/2000/svg" width="1000" height="1000"><path d="M309 677 385 705C369 738 338 794 303 831L230 803C262 765 291 717 309 677ZM84 619H916V699H84ZM612 688 681 662C721 709 754 759 780 808L698 834C679 788 650 734 612 688ZM147 479 167 408C207 429 241 439 289 439C343 439 361 398 361 345C361 279 330 240 261 231V156C389 165 438 241 438 345C438 452 396 516 291 516C228 516 184 501 147 479ZM221 22H298V333H221ZM70 -1 99 -74 431 51 402 125ZM45 226 120 192C165 303 200 445 218 588L141 598C122 457 85 316 45 226ZM907 -20 946 59C815 126 685 178 552 215L519 143C651 107 784 48 907 -20ZM401 0 474 -49C548 51 602 179 624 302L544 319C518 193 477 92 401 0ZM620 -87C680 -87 718 -52 718 18V512H640V39C640 6 634 -9 611 -9C582 -9 556 -1 524 17V-71C554 -82 589 -87 620 -87ZM434 283H910V362H434ZM464 544 480 464C610 466 763 480 869 505L842 583C736 558 598 545 464 544Z" transform="translate(0, 880) scale(1,-1)" /></svg>