<svg xmlns="http://www.w3.org/2000/svg" width="1000" height="1000"><path d="M571 769H49V696H571ZM350 613V841H270V613ZM530 645H90V573H530ZM479 408 558 391C564 426 566 443 566 452C566 509 522 549 342 549C248 549 187 541 129 525V534H51V406H129V457C191 468 255 472 342 472C464 472 489 461 489 445C489 439 487 430 479 408ZM755 456 826 434C867 521 911 635 938 741L875 766L863 757H698V677H839C821 610 793 533 755 456ZM569 -12 619 -83C743 -1 943 175 943 334C943 432 903 478 795 478C712 478 649 460 587 436L608 357C667 386 721 398 795 398C843 398 862 375 862 334C862 208 697 61 569 -12ZM913 -86 974 -24C858 114 774 191 667 258L615 200C721 130 799 55 913 -86ZM573 537 643 501C686 589 727 697 760 807L690 830C658 719 617 618 573 537ZM245 -79C435 -79 531 19 531 103C531 192 482 254 298 289L250 227C417 196 449 148 449 103C449 57 366 -4 245 -4C193 -4 160 9 160 30C160 69 229 103 481 143L448 211C160 170 71 98 71 30C71 -42 141 -79 245 -79ZM86 265 104 196C243 216 390 247 523 284L485 348C364 314 220 285 86 265ZM71 365 89 298C228 317 380 350 515 389L477 451C350 411 210 384 71 365Z" transform="translate(0, 880) scale(1,-1)" /></svg>