<svg xmlns="http://www.w3.org/2000/svg" width="1000" height="1000"><path d="M73 100 391 225 363 291 46 179ZM191 -63H269V816H191ZM85 392H357V470H85ZM66 604H377V682H66ZM524 17 634 -10C714 47 751 160 751 263C751 360 705 419 622 419C551 419 494 370 494 282C494 191 553 146 622 146C633 146 643 147 655 151C635 89 590 37 524 17ZM372 -51H929V29H372ZM622 219C592 219 568 245 568 282C568 321 592 343 622 343C652 343 676 321 676 282C676 245 652 219 622 219ZM389 422 459 390C506 467 536 553 557 638L476 655C461 578 434 497 389 422ZM708 323V755H629V388ZM391 715H909V795H391ZM842 390 918 424C897 502 866 578 818 662L750 632C797 545 824 469 842 390Z" transform="translate(0, 880) scale(1,-1)" /></svg>