<svg xmlns="http://www.w3.org/2000/svg" width="1000" height="1000"><path d="M383 450 454 415C535 511 611 628 697 803L617 832C540 665 459 540 383 450ZM278 592H964V672H278ZM805 317V-3H884V378L827 409L805 397C587 383 269 265 269 78C269 -12 327 -61 422 -61C580 -61 688 64 688 232C688 371 644 480 493 480C432 480 382 464 345 443L376 371C404 387 447 400 493 400C564 400 608 339 608 232C608 105 531 19 422 19C372 19 349 43 349 78C349 190 600 304 805 317ZM976 34H714V-46H976ZM100 758 45 703C96 664 155 615 183 581L240 640C210 673 153 721 100 758ZM88 95 158 86 238 493 181 521 162 513H23V434H146ZM231 191 35 90 74 18 271 128Z" transform="translate(0, 880) scale(1,-1)" /></svg>