<svg xmlns="http://www.w3.org/2000/svg" width="1000" height="1000"><path d="M233 -78C391 -78 470 -8 470 90C470 160 406 229 244 257L216 180C346 159 389 133 389 90C389 27 331 3 233 3C192 3 173 12 173 29C173 61 276 94 485 150L438 220C225 164 90 112 90 29C90 -38 144 -78 233 -78ZM243 233 303 188C376 227 446 269 489 305L434 367L417 358H201V279H317C298 263 274 248 243 233ZM586 60V182H505V48C505 -50 539 -70 646 -70H805C882 -70 904 -25 917 118L840 127C832 29 822 8 776 8H669C599 8 586 17 586 60ZM729 119C783 119 813 170 823 356L759 368L745 360H503V281H742C734 200 724 196 704 196C670 196 640 199 607 207V126C642 121 683 119 729 119ZM235 524H765V602H235ZM309 696 385 724C369 755 338 808 304 843L231 815C262 779 291 734 309 696ZM84 641H916V720H84ZM612 707 681 681C721 726 754 774 779 820L698 846C679 803 650 751 612 707ZM813 270 886 240C909 293 920 326 920 361C920 452 818 496 587 496C416 496 262 463 164 419V479H84V258H164V351C276 390 433 416 587 416C782 416 839 390 839 355C839 333 832 312 813 270Z" transform="translate(0, 880) scale(1,-1)" /></svg>