<svg xmlns="http://www.w3.org/2000/svg" width="1000" height="1000"><path d="M309 683 385 711C369 745 337 801 303 839L230 811C262 772 291 724 309 683ZM79 624H921V703H79ZM612 693 681 667C721 715 755 767 780 816L699 842C680 796 650 740 612 693ZM245 494 286 428C372 469 459 488 568 488C663 488 690 465 690 437C690 401 666 364 614 319L670 269C734 322 770 370 770 437C770 530 700 567 568 567C442 567 343 539 245 494ZM73 -43H927V36H73ZM515 30 584 -15C690 48 795 121 795 221C795 315 692 342 497 324V246C651 255 714 252 714 221C714 160 623 94 515 30ZM299 0V552H219V0Z" transform="translate(0, 880) scale(1,-1)" /></svg>