<svg xmlns="http://www.w3.org/2000/svg" width="1000" height="1000"><path d="M425 639 454 576C548 652 649 691 731 691C793 691 818 668 818 624C818 557 718 507 525 477L538 397C794 435 898 532 898 624C898 724 839 771 731 771C616 771 513 719 425 639ZM593 -78C648 -78 682 -45 682 23V464H603V37C603 17 592 1 575 1C537 0 498 9 460 27V-61C503 -74 539 -78 593 -78ZM939 189 957 272C800 304 590 305 313 271V195C586 226 794 219 939 189ZM319 462 386 418C463 537 520 680 551 828L472 841C442 696 385 554 319 462ZM137 779 80 726C132 681 190 627 219 588L278 646C247 684 190 737 137 779ZM117 39 192 28 283 486 223 515 204 505H50V425H188ZM278 149 64 29 104 -45 318 85Z" transform="translate(0, 880) scale(1,-1)" /></svg>