<svg xmlns="http://www.w3.org/2000/svg" width="1000" height="1000"><path d="M161 782 107 732C159 688 218 633 247 594L304 648C273 686 215 740 161 782ZM135 39 212 23 325 484 261 518 242 507H56V429H224ZM327 158 75 29 113 -47 366 93ZM716 700 633 720C562 517 438 332 317 193L382 139C506 285 639 493 716 700ZM678 47V-38C867 -93 926 35 926 206C926 357 859 425 750 425C681 425 624 389 580 319V435H502V-33H580V241C642 320 692 343 746 343C810 343 842 289 842 206C842 75 809 -4 678 47ZM361 679H925V759H361Z" transform="translate(0, 880) scale(1,-1)" /></svg>