<svg xmlns="http://www.w3.org/2000/svg" width="1000" height="1000"><path d="M100 762 45 707C96 667 154 616 182 581L240 640C210 674 153 724 100 762ZM87 77 158 68 236 490 180 517 161 509H26V429H146ZM227 174 37 70 76 -2 268 112ZM276 634H964V714H678L631 839L553 821L592 714H276ZM636 491C532 491 435 465 342 424L371 345C462 391 548 411 636 411C719 411 743 382 743 334C743 194 536 24 437 24C395 24 367 55 367 115C367 165 394 205 461 205C571 205 715 44 920 -77L974 -15C772 100 611 283 461 283C358 283 286 222 286 115C286 16 341 -56 437 -56C580 -56 823 149 823 334C823 443 772 491 636 491ZM300 387 368 331C461 426 545 544 616 664L541 698C475 578 391 472 300 387ZM917 372 982 422C931 495 873 558 813 613L749 568C811 511 867 446 917 372Z" transform="translate(0, 880) scale(1,-1)" /></svg>