<svg xmlns="http://www.w3.org/2000/svg" width="1000" height="1000"><path d="M110 672 164 604C283 654 394 724 495 807L428 857C332 779 223 716 110 672ZM81 527 113 452C433 495 645 584 801 734L748 790L730 783H342V707H631C533 628 387 570 81 527ZM867 452 909 527C691 585 505 625 292 661L255 586C469 550 653 510 867 452ZM775 234 814 306C672 339 411 392 210 420L167 348C373 318 636 269 775 234ZM659 382 699 453C612 473 479 496 374 511L336 443C439 428 576 403 659 382ZM55 43H132V108C182 145 248 161 304 161C350 161 374 151 374 132C374 93 331 89 257 101V28C373 16 451 39 451 132C451 203 392 235 304 235C244 235 183 221 132 182V212H55ZM211 -37H288V278H211ZM53 -22 65 -99 441 -56 429 21ZM459 176 484 103C551 131 642 151 748 151C809 151 843 144 843 128C843 99 791 96 699 110V31C829 21 924 43 924 128C924 199 859 230 748 230C633 230 528 204 459 176ZM644 -43H720V266H644ZM449 -20 458 -98 886 -69 877 9ZM865 -100 939 -73C922 -35 903 3 881 41L809 15C830 -24 849 -63 865 -100Z" transform="translate(0, 880) scale(1,-1)" /></svg>