<svg xmlns="http://www.w3.org/2000/svg" width="1000" height="1000"><path d="M309 680 385 708C369 742 337 798 303 836L230 808C262 769 291 721 309 680ZM79 622H921V701H79ZM612 690 681 664C721 713 755 764 780 813L699 839C680 793 650 737 612 690ZM358 12 471 -15C567 26 611 108 611 190C611 269 557 315 458 315C374 315 306 275 306 204C306 130 378 94 458 94C473 94 486 95 503 98C482 62 431 26 358 12ZM89 -55H911V23H89ZM458 162C419 162 385 178 385 204C385 231 419 244 458 244C497 244 531 231 531 204C531 178 497 162 458 162ZM131 272 196 228C261 280 306 337 340 395L260 429C236 377 195 323 131 272ZM563 234V501H483V281ZM118 462H882V541H118ZM805 228 877 273C847 325 799 377 730 434L669 391C736 332 778 279 805 228Z" transform="translate(0, 880) scale(1,-1)" /></svg>