<svg xmlns="http://www.w3.org/2000/svg" width="1000" height="1000"><path d="M69 720H930V797H69ZM608 3 642 -69C832 -50 950 9 950 137C950 268 786 322 500 322C228 322 54 245 54 114C54 0 148 -57 281 -57C489 -57 667 150 702 416L624 421C598 179 446 21 281 21C189 21 135 51 135 114C135 174 235 250 500 250C758 250 869 191 869 133C869 50 778 17 608 3ZM100 565 132 498C263 557 451 576 604 576C730 576 819 554 819 527C819 488 750 461 579 471V397C795 387 908 418 908 527C908 612 782 647 605 647C429 647 240 620 100 565ZM474 495 399 510C300 284 311 106 441 25L495 82C382 163 392 308 474 495ZM507 779 417 623 493 595 583 751ZM237 322 303 352C290 396 258 458 229 504L166 478C193 433 222 366 237 322Z" transform="translate(0, 880) scale(1,-1)" /></svg>