<svg xmlns="http://www.w3.org/2000/svg" width="1000" height="1000"><path d="M164 487 209 562 139 584 33 423 106 389 117 396 496 471 470 545ZM253 304C309 304 334 334 334 399V845H255V408C255 391 250 381 232 381C207 381 177 387 144 398V315C180 307 216 304 253 304ZM67 581H485V659H67ZM66 772 92 695C208 697 382 708 494 730L462 803C360 785 185 775 66 772ZM809 658C782 375 820 309 896 309C951 309 974 366 981 460L921 468C917 409 910 387 897 387C880 387 864 431 890 727L828 747L815 736H478V658ZM420 361 486 303C693 402 715 578 713 845H633C635 593 630 456 420 361ZM773 453 803 528C739 553 610 587 512 609L477 537C577 513 711 478 773 453ZM161 254 183 188C288 222 412 243 588 243C757 243 809 230 809 208C809 167 600 163 305 181V103C646 89 888 78 888 208C888 283 824 321 588 321C387 321 247 295 161 254ZM87 -21 131 -92C502 -34 546 51 547 204H467C467 64 445 34 87 -21ZM858 -97 913 -32C810 11 697 52 604 78L557 15C657 -16 768 -57 858 -97ZM203 99V298H123V99Z" transform="translate(0, 880) scale(1,-1)" /></svg>