<svg xmlns="http://www.w3.org/2000/svg" width="1000" height="1000"><path d="M186 -59C313 -59 363 69 363 230C363 351 336 455 207 523L163 460C263 406 282 327 282 230C282 113 244 22 186 22C156 22 138 50 138 89C138 174 183 262 327 341L291 409C122 328 56 215 56 89C56 -8 107 -59 186 -59ZM69 483 100 413C184 448 272 499 352 565L307 625C239 569 150 515 69 483ZM58 657 91 590C174 623 267 675 348 740L302 803C230 747 137 688 58 657ZM744 -65C871 -65 936 43 936 228C936 399 848 467 709 467C674 467 647 463 624 458C678 518 783 642 869 755L810 805L795 797H458V717H740C685 633 586 512 510 435C497 423 437 392 396 367L445 295C516 348 606 386 697 386C792 386 856 345 856 228C856 101 825 15 738 15C693 15 649 23 606 43V-46C647 -60 694 -65 744 -65ZM380 542H923V622H380ZM358 121 426 70C521 137 595 228 629 321L548 343C517 254 450 176 358 121ZM412 -5 478 -55C609 23 734 158 769 320L691 338C655 188 539 65 412 -5Z" transform="translate(0, 880) scale(1,-1)" /></svg>