<svg xmlns="http://www.w3.org/2000/svg" width="1000" height="1000"><path d="M311 694 387 722C371 753 341 806 308 841L235 813C265 777 293 732 311 694ZM86 639H914V718H86ZM610 705 679 680C718 725 751 772 775 818L694 844C676 801 647 749 610 705ZM136 491 174 417C257 460 374 499 568 499C776 499 823 437 823 351C823 237 737 189 605 189C503 189 412 192 310 201L300 123C402 114 503 113 605 113C809 113 903 204 903 351C903 474 847 577 568 577C341 577 222 533 136 491ZM114 -56H886V20H114ZM460 -18H540V462H460ZM297 292H703V371H297ZM196 148V553H116V148Z" transform="translate(0, 880) scale(1,-1)" /></svg>