<svg xmlns="http://www.w3.org/2000/svg" width="1000" height="1000"><path d="M308 710 385 738C370 765 340 810 307 840L234 812C263 781 291 743 308 710ZM79 664H921V743H79ZM612 724 682 698C721 737 752 777 776 816L696 842C677 806 649 762 612 724ZM439 210C500 210 544 233 544 299V401C654 438 768 490 847 542L786 606L770 600H143V522H634C587 499 525 476 464 458V317C464 296 449 286 425 284C381 284 328 292 279 309V225C331 214 377 210 439 210ZM70 295 136 250C201 297 258 361 295 420L216 452C184 398 129 336 70 295ZM862 245 938 283C904 329 837 399 766 455L696 414C765 358 831 291 862 245ZM127 190V112H874V190ZM59 -46 124 -91C183 -53 235 -3 260 43L190 81C168 37 113 -13 59 -46ZM524 -83C564 -83 600 -77 660 -47L607 17C577 -1 561 -4 536 -4C512 -4 496 11 467 66L388 47C436 -61 480 -83 524 -83ZM880 -89 945 -42C910 -6 844 47 786 86L730 35C792 -5 848 -56 880 -89Z" transform="translate(0, 880) scale(1,-1)" /></svg>