<svg xmlns="http://www.w3.org/2000/svg" width="1000" height="1000"><path d="M283 453 13 327 46 249 315 383ZM143 -43C190 -43 226 -19 226 58V704H148V72C148 48 141 35 122 35C102 35 82 39 54 53V-31C85 -40 113 -43 143 -43ZM42 711 54 630C128 640 235 666 307 705L281 780C215 744 118 722 42 711ZM317 634H968V714H701L655 839L577 821L616 714H317ZM658 491C560 491 467 466 379 425L409 346C495 391 576 411 658 411C736 411 758 382 758 334C758 194 565 24 472 24C432 24 406 55 406 115C406 165 431 205 494 205C596 205 732 44 926 -77L981 -15C788 100 638 283 494 283C393 283 325 222 325 115C325 16 378 -56 472 -56C609 -56 838 149 838 334C838 443 789 491 658 491ZM338 386 406 332C494 427 574 545 641 665L566 697C503 577 424 471 338 386ZM922 374 988 422C939 495 885 558 828 613L763 570C821 513 874 448 922 374Z" transform="translate(0, 880) scale(1,-1)" /></svg>