<svg xmlns="http://www.w3.org/2000/svg" width="1000" height="1000"><path d="M29 149 92 93C185 220 285 401 355 549L294 585L281 570H59V492H245C201 400 113 257 29 149ZM192 -8H269V386H192ZM247 612 306 669C268 710 213 762 159 808L103 756C157 708 212 653 247 612ZM323 98 160 -9 199 -77 360 32ZM474 446 552 418C617 540 670 680 703 816L621 834C590 702 540 563 474 446ZM822 470 900 436C920 483 930 519 930 561C930 657 858 703 703 703C573 703 444 661 360 619L392 541C470 581 590 618 703 618C814 618 847 590 847 556C847 529 839 506 822 470ZM446 460V380H754V258H479V306H400V83C400 -35 437 -60 543 -60H800C902 -60 935 -2 952 171L873 185C862 35 844 20 783 20H549C492 20 479 33 479 83V178H833V460Z" transform="translate(0, 880) scale(1,-1)" /></svg>