<svg xmlns="http://www.w3.org/2000/svg" width="1000" height="1000"><path d="M47 747V667H311V747ZM53 160 324 250 301 323 32 242ZM160 -61C202 -61 240 -40 240 27V632H163V53C163 30 158 17 145 17C118 17 91 24 62 35V-49C96 -57 127 -61 160 -61ZM10 411 73 353C167 430 255 524 326 620L263 666C193 570 106 483 10 411ZM948 673 874 709C822 619 764 539 701 462L750 396L768 403H823L628 282L699 228L981 415L926 490L908 481H812C854 532 903 601 948 673ZM647 -72C889 -72 965 19 965 124C965 237 890 294 728 294C624 294 547 282 466 266L482 188C560 202 635 214 728 214C839 214 886 184 886 124C886 59 832 6 647 6C503 6 450 31 450 51C450 66 471 81 550 81C615 81 629 72 629 59C629 41 597 18 520 -2L565 -61C648 -34 718 -1 718 59C718 119 664 155 550 155C432 155 370 108 370 51C370 -14 434 -72 647 -72ZM301 722 332 649C477 681 623 726 762 780L708 845C596 801 436 750 301 722ZM885 618 877 698C590 642 308 558 308 423C308 358 351 312 439 312C570 312 655 383 655 505C655 589 621 668 532 749L462 706C543 626 576 560 576 505C576 426 510 389 437 391C403 392 388 402 388 423C388 505 615 565 885 618Z" transform="translate(0, 880) scale(1,-1)" /></svg>