<svg xmlns="http://www.w3.org/2000/svg" width="1000" height="1000"><path d="M309 668 385 696C369 731 337 789 303 827L230 799C261 760 291 710 309 668ZM79 608H921V687H79ZM612 678 680 652C721 702 755 754 780 805L699 831C680 783 650 726 612 678ZM637 -67C833 -67 941 26 941 164C941 286 836 349 689 349C669 349 652 348 637 345C708 384 778 426 863 478L805 542L784 530H440V452H669C615 411 560 373 504 338C486 327 457 320 429 310L468 237C523 259 592 270 683 270C788 270 855 232 855 164C855 67 766 11 632 11C558 11 506 36 506 71C506 98 534 117 576 117C644 117 690 83 699 -12L773 0C758 128 689 190 577 190C490 190 427 138 427 68C427 -22 510 -67 637 -67ZM281 549V-62H360V549ZM319 121 299 197 170 163V443H91V176C91 153 75 140 61 134L88 60Z" transform="translate(0, 880) scale(1,-1)" /></svg>