<svg xmlns="http://www.w3.org/2000/svg" width="1000" height="1000"><path d="M308 724 385 752C370 777 341 819 308 848L235 820C264 790 291 754 308 724ZM84 681H916V759H84ZM612 739 683 712C721 749 752 786 775 824L695 850C677 816 649 774 612 739ZM361 231 422 197 731 293 663 333ZM76 282H924V359H76ZM522 350 585 299C681 342 766 373 766 445C766 516 679 537 495 537C317 537 213 517 213 450C213 391 274 370 411 370C513 370 540 401 540 443V688H460V470C460 445 438 439 400 439C352 439 305 440 305 450C305 460 353 465 495 465C601 465 678 459 678 443C678 423 606 380 522 350ZM86 547H914V624H86ZM567 261C428 260 281 241 89 193L128 117C299 168 433 183 567 183C682 183 820 158 820 90C820 13 706 -7 589 -7C449 -7 296 4 296 48C296 67 352 80 434 80C513 80 543 70 543 56C543 39 497 12 375 -18L422 -59C549 -32 624 -5 624 56C624 127 544 156 434 156C331 156 216 123 216 48C216 -45 375 -86 589 -86C776 -86 899 -25 899 90C899 223 745 262 567 261Z" transform="translate(0, 880) scale(1,-1)" /></svg>