<svg xmlns="http://www.w3.org/2000/svg" width="1000" height="1000"><path d="M429 340H821V420H429ZM290 155H958V235H290ZM289 400 343 338C633 447 669 636 669 840H588C588 649 568 502 289 400ZM898 332 960 388C878 463 784 540 702 602L647 547C731 485 823 406 898 332ZM299 695 309 612C529 618 779 641 956 670L931 748C767 718 525 697 299 695ZM589 -79C646 -79 676 -44 676 16V368H598V28C598 10 589 -3 568 -3C535 -3 497 4 448 21V-61C498 -74 540 -79 589 -79ZM129 757 73 702C124 661 183 610 211 575L269 633C238 668 181 718 129 757ZM113 67 184 57 272 482 215 510 196 501H42V422H179ZM269 170 56 60 95 -13 309 106Z" transform="translate(0, 880) scale(1,-1)" /></svg>