<svg xmlns="http://www.w3.org/2000/svg" width="1000" height="1000"><path d="M219 555 290 590C269 646 229 728 190 788L121 756C158 698 198 613 219 555ZM477 586 555 611C540 675 508 756 473 826L398 802C431 734 462 649 477 586ZM690 580 758 550C800 617 844 705 877 779L797 809C772 737 729 646 690 580ZM153 460 182 396C284 452 398 486 567 486C749 486 804 450 804 389C804 285 596 271 301 303V223C636 198 884 207 884 389C884 489 820 563 567 563C369 563 238 519 153 460ZM81 -13 127 -81C499 22 550 201 548 389H468C468 209 439 81 81 -13ZM862 -85 921 -24C816 45 693 116 583 171L534 111C644 54 767 -18 862 -85ZM198 206V533H119V206Z" transform="translate(0, 880) scale(1,-1)" /></svg>