<svg xmlns="http://www.w3.org/2000/svg" width="1000" height="1000"><path d="M52 460 84 384C379 463 659 547 917 640L877 708C626 619 340 534 52 460ZM113 428H193V779H113ZM921 388 951 463C672 515 529 564 511 841H429C438 559 601 441 921 388ZM294 680 339 608C499 649 665 699 803 748L753 815C624 769 471 721 294 680ZM171 336 196 270C297 312 413 337 580 337C745 337 797 316 797 280C797 215 598 208 313 231V152C640 134 876 129 876 280C876 366 813 415 580 415C386 415 255 383 171 336ZM101 -13 144 -84C504 -9 549 111 549 277H469C469 122 446 56 101 -13ZM849 -88 906 -24C805 28 693 80 597 117L549 55C649 14 761 -38 849 -88ZM216 144V390H136V144Z" transform="translate(0, 880) scale(1,-1)" /></svg>