<svg xmlns="http://www.w3.org/2000/svg" width="1000" height="1000"><path d="M71 445 94 375C217 408 404 433 568 433C738 433 832 364 832 253C832 101 787 -6 685 -6C613 -6 555 0 507 15V-63C552 -73 603 -77 689 -77C844 -77 915 69 915 253C915 437 781 506 568 506C537 506 513 505 479 502C582 541 689 585 790 634L728 695L672 665H341C409 703 479 749 549 801L474 845C387 776 295 720 206 673C190 664 167 657 146 652L178 585L215 600H538C462 568 358 530 257 496C234 488 177 473 71 445ZM149 321V247H699V321ZM132 186V112H714V186ZM385 -42C436 -42 467 -11 467 43V397H390V51C390 39 382 30 368 30C336 30 302 33 265 42V-33C304 -40 339 -42 385 -42Z" transform="translate(0, 880) scale(1,-1)" /></svg>