<svg xmlns="http://www.w3.org/2000/svg" width="1000" height="1000"><path d="M52 513 84 437C379 507 659 582 917 664L877 733C626 654 340 578 52 513ZM113 477H193V787H113ZM921 441 951 516C672 561 529 598 511 843H429C438 593 601 487 921 441ZM294 707 339 635C499 672 665 716 803 760L753 827C624 786 471 744 294 707ZM427 2V-79C702 -101 840 -70 840 28C840 105 753 138 550 138C403 138 250 104 135 49L191 -20C296 35 436 59 550 59C702 59 749 43 749 24C749 -3 672 -19 427 2ZM64 157H936V234H64ZM191 269H809V347H191ZM191 379H809V456H191Z" transform="translate(0, 880) scale(1,-1)" /></svg>