<svg xmlns="http://www.w3.org/2000/svg" width="1000" height="1000"><path d="M39 278H116V456C155 522 200 545 245 545C278 545 295 514 295 456C295 353 265 344 212 369V288C303 264 372 291 372 456C372 573 326 624 245 624C197 624 156 602 116 532V616H39ZM165 114H242V750H165ZM41 108 64 31 361 119 338 196ZM460 690 498 624C563 680 627 708 709 708C777 708 796 672 796 620C796 561 777 501 736 438L800 400C848 475 875 542 875 620C875 740 819 789 709 789C611 789 535 751 460 690ZM348 -38H970V42H348ZM664 32 735 0C815 88 894 193 894 316C894 432 811 472 656 447V369C771 380 814 373 814 316C814 219 746 123 664 32ZM522 6V782H443V6Z" transform="translate(0, 880) scale(1,-1)" /></svg>