<svg xmlns="http://www.w3.org/2000/svg" width="1000" height="1000"><path d="M693 406 735 337C879 400 938 460 938 562C938 641 882 707 716 708C472 709 285 605 106 495L155 429C332 544 517 629 716 629C822 629 857 603 857 562C857 500 816 459 693 406ZM399 117H779C881 117 902 171 913 318L836 323C829 215 822 196 769 196H416C362 196 351 209 351 259V817H271V257C271 146 296 117 399 117ZM928 -54 952 31C654 8 427 9 283 52C196 78 135 144 109 238L31 216C66 88 144 10 253 -21C403 -64 625 -76 928 -54Z" transform="translate(0, 880) scale(1,-1)" /></svg>