<svg xmlns="http://www.w3.org/2000/svg" width="1000" height="1000"><path d="M54 753V673H347V753ZM59 175 359 264 338 338 40 257ZM179 -41C223 -41 261 -20 261 47V639H183V73C183 50 177 37 162 37C133 37 105 44 74 55V-29C110 -37 143 -41 179 -41ZM20 424 81 364C184 439 281 530 359 625L298 673C221 580 125 495 20 424ZM746 -49C909 -49 963 89 963 251C963 433 865 509 692 509C636 509 595 503 558 493C611 555 672 665 723 806L641 831C597 692 540 581 454 471C441 455 402 437 357 414L402 345C486 392 579 429 686 429C806 429 883 381 883 251C883 137 846 28 740 28C696 28 651 38 608 53V-32C649 -43 697 -49 746 -49ZM328 605H938V685H328ZM397 133 447 62C571 129 704 237 788 349L720 392C641 280 513 190 397 133ZM688 93 752 144C706 210 619 299 556 350L496 302C558 252 645 156 688 93Z" transform="translate(0, 880) scale(1,-1)" /></svg>