<svg xmlns="http://www.w3.org/2000/svg" width="1000" height="1000"><path d="M276 598 338 644C311 690 255 755 202 804L144 761C195 712 250 644 276 598ZM461 565H539V841H461ZM651 641 710 598C757 640 818 709 863 767L795 810C760 755 699 685 651 641ZM815 431 893 407C913 451 922 477 922 500C922 574 818 616 587 616C418 616 265 591 165 557V602H83V424H165V490C277 519 433 540 587 540C782 540 837 520 837 494C837 479 831 463 815 431ZM242 450V373H758V450ZM54 -10 100 -78C495 27 554 216 552 398H469C469 228 433 88 54 -10ZM888 -87 943 -26C828 47 688 121 561 180L519 120C643 60 782 -16 888 -87ZM71 205H930V282H71Z" transform="translate(0, 880) scale(1,-1)" /></svg>