<svg xmlns="http://www.w3.org/2000/svg" width="1000" height="1000"><path d="M47 772V692H383V772ZM50 171 394 264 374 339 32 254ZM188 -56C235 -56 273 -35 273 32V655H194V58C194 35 186 22 170 22C138 22 107 29 73 40V-44C113 -52 149 -56 188 -56ZM16 429 75 367C192 445 301 540 389 638L330 689C243 592 135 503 16 429ZM809 -61H885C949 -61 961 9 966 194L889 201C887 41 884 17 859 17H816C800 17 794 22 794 34C794 54 794 95 837 587L770 613L756 604H381V524H750C717 124 716 74 716 25C716 -46 735 -61 809 -61ZM350 -21 412 -73C607 104 634 350 648 830L569 832C555 352 532 141 350 -21Z" transform="translate(0, 880) scale(1,-1)" /></svg>