<svg xmlns="http://www.w3.org/2000/svg" width="1000" height="1000"><path d="M923 797H131V470C131 325 123 122 35 -23L100 -60C193 92 207 317 206 470V718H923ZM596 458 659 418C736 461 823 529 878 588L821 637L803 631H175V559H736C698 522 659 493 596 458ZM698 -78C783 -78 829 -53 844 -11C880 83 891 236 885 343C880 433 809 475 656 475C560 475 459 466 349 449L351 375C475 396 571 401 657 401C748 401 802 376 803 332C806 247 796 115 769 36C761 12 739 -3 687 -3C637 -3 591 2 537 17V-67C593 -74 647 -78 698 -78ZM167 -20 241 -67C362 102 384 253 392 472H308C300 257 287 139 167 -20ZM735 112 736 184 415 187 414 115ZM744 243 745 315 432 318 431 245Z" transform="translate(0, 880) scale(1,-1)" /></svg>