<svg xmlns="http://www.w3.org/2000/svg" width="1000" height="1000"><path d="M313 655 388 683C371 720 339 783 304 826L231 798C263 755 294 701 313 655ZM88 589H919V668H88ZM615 663 682 637C724 691 759 749 785 803L703 829C684 777 654 715 615 663ZM79 494V415H921V494ZM460 593V314H540V593ZM556 349C381 349 245 323 116 289L145 210C274 250 399 270 556 270C687 270 756 250 756 219C756 134 385 9 264 9C211 9 170 27 170 61C170 91 218 112 298 112C459 112 632 -1 893 -86L947 -13C694 67 490 191 298 191C185 191 85 152 85 61C85 -18 152 -69 264 -69C437 -69 846 81 846 219C846 305 746 349 556 349Z" transform="translate(0, 880) scale(1,-1)" /></svg>