<svg xmlns="http://www.w3.org/2000/svg" width="1000" height="1000"><path d="M328 453 37 324 69 245 359 382ZM175 -63C225 -63 261 -39 261 38V722H183V52C183 28 176 15 156 15C134 15 112 19 82 33V-51C114 -60 144 -63 175 -63ZM67 727 79 646C159 656 274 684 352 723L326 799C256 762 149 738 67 727ZM523 17 633 -10C713 47 751 160 751 263C751 360 705 419 621 419C550 419 493 370 493 282C493 191 553 146 621 146C632 146 642 147 654 151C635 89 590 37 523 17ZM370 -51H930V29H370ZM621 219C592 219 567 245 567 282C567 321 592 343 621 343C651 343 676 321 676 282C676 245 651 219 621 219ZM387 422 458 390C505 467 535 553 556 638L475 655C460 578 433 497 387 422ZM708 323V755H629V388ZM389 715H910V795H389ZM843 390 918 424C898 502 866 578 818 662L750 632C797 545 824 469 843 390Z" transform="translate(0, 880) scale(1,-1)" /></svg>