<svg xmlns="http://www.w3.org/2000/svg" width="1000" height="1000"><path d="M41 111 324 234 294 299 13 189ZM143 -39H221V796H143ZM52 392H293V470H52ZM35 594H309V672H35ZM321 634H970V714H704L658 839L580 821L619 714H321ZM661 491C563 491 471 466 383 425L413 346C498 391 579 411 661 411C739 411 760 382 760 334C760 194 569 24 476 24C436 24 410 55 410 115C410 165 435 205 498 205C600 205 735 44 928 -77L983 -15C791 100 642 283 498 283C397 283 330 222 330 115C330 16 382 -56 476 -56C612 -56 840 149 840 334C840 443 792 491 661 491ZM342 386 410 332C498 427 578 545 644 665L570 697C507 577 427 471 342 386ZM924 374 990 422C941 495 887 558 831 613L766 570C824 513 877 448 924 374Z" transform="translate(0, 880) scale(1,-1)" /></svg>