<svg xmlns="http://www.w3.org/2000/svg" width="1000" height="1000"><path d="M51 62 88 -10C177 29 455 205 589 311L541 374C396 262 140 97 51 62ZM194 348 214 280 260 288H514V360H354L513 463V573C396 467 291 397 194 348ZM498 -75C558 -75 592 -58 592 11V827H513V11C513 -5 507 -10 490 -10C453 -10 409 2 359 18V-58C403 -69 451 -75 498 -75ZM906 -7 955 58C860 128 714 212 591 259V178C696 128 810 67 906 -7ZM149 526H926L925 601H149ZM889 259 937 322C898 354 819 401 756 431L710 373C774 342 851 293 889 259ZM194 570 267 547C329 602 402 686 440 753L389 794L372 787H87V709H319C292 666 249 618 194 570Z" transform="translate(0, 880) scale(1,-1)" /></svg>