<svg xmlns="http://www.w3.org/2000/svg" width="1000" height="1000"><path d="M22 175 84 119C174 237 270 405 337 543L276 580L264 566H52V490H221C182 405 100 274 22 175ZM179 26H255V392H179ZM232 604 291 660C254 698 201 747 150 790L94 738C146 694 199 642 232 604ZM306 128 149 27 187 -41 343 62ZM799 31V816H720V48C720 29 709 14 690 14C653 14 601 24 547 39V-51C604 -60 663 -66 713 -64C761 -62 799 -47 799 31ZM326 553H956V633H326ZM603 187 667 233C621 301 553 387 482 460L420 414C490 340 558 250 603 187Z" transform="translate(0, 880) scale(1,-1)" /></svg>