<svg xmlns="http://www.w3.org/2000/svg" width="1000" height="1000"><path d="M654 707 693 775C591 799 476 822 340 844L310 778C444 755 559 731 654 707ZM287 419H824C892 419 918 462 936 582L861 592C853 512 837 493 804 493H324C305 493 292 495 292 502C292 511 311 520 814 644L786 708L767 702H98V629L455 630C188 558 165 528 165 494C165 449 201 419 287 419ZM149 103H226V207C341 247 495 265 624 265C738 265 808 247 808 217C808 165 696 156 521 173V101C747 87 888 101 888 217C888 308 779 337 624 337C486 337 342 313 226 262V320H149ZM467 -18H546V396H467ZM113 0 117 -71 819 -37 815 34ZM834 -86 906 -60C879 -10 847 40 811 90L742 65C777 14 808 -37 834 -86Z" transform="translate(0, 880) scale(1,-1)" /></svg>