<svg xmlns="http://www.w3.org/2000/svg" width="1000" height="1000"><path d="M275 440 13 314 47 235 308 370ZM140 -62C186 -62 222 -38 222 38V698H144V53C144 29 137 16 119 16C99 16 80 20 53 34V-50C83 -59 111 -62 140 -62ZM43 705 54 624C126 634 230 660 300 699L273 775C209 738 116 715 43 705ZM349 407 390 327 413 337H910V417H459C523 532 583 664 634 817L554 839C511 690 427 520 391 449C380 427 367 414 349 407ZM292 8 362 -39C416 30 475 135 512 240L433 259C401 165 348 71 292 8ZM621 -75C669 -75 698 -51 698 17V560H619V29C619 11 615 3 600 3C568 2 535 9 499 23V-62C540 -70 584 -75 621 -75ZM902 -27 974 9C942 79 875 185 814 261L744 228C803 150 872 42 902 -27ZM307 629H942V709H307Z" transform="translate(0, 880) scale(1,-1)" /></svg>