<svg xmlns="http://www.w3.org/2000/svg" width="1000" height="1000"><path d="M97 336 414 445 387 512 69 409ZM188 395V818H111V395ZM149 682V611H423V682ZM434 411 475 345C641 413 905 549 905 688C905 781 837 821 717 821C610 821 527 805 446 775L469 703C548 735 620 748 717 748C787 748 829 723 829 688C829 579 600 472 434 411ZM889 340 946 399C792 513 676 578 535 634L492 579C631 521 738 457 889 340ZM574 -79C751 -79 816 35 816 183C816 270 758 327 606 327C508 327 410 319 308 305L313 235C415 245 519 251 606 251C686 251 734 232 734 183C734 68 678 -7 560 -7C488 -7 424 -2 364 12V-67C423 -75 484 -79 574 -79ZM660 87 662 159 359 163 356 91ZM387 341 303 348C271 189 213 79 134 -15L207 -55C288 47 352 172 387 341Z" transform="translate(0, 880) scale(1,-1)" /></svg>