<svg xmlns="http://www.w3.org/2000/svg" width="1000" height="1000"><path d="M309 685 385 713C369 746 337 802 303 840L230 812C262 773 291 725 309 685ZM79 626H921V705H79ZM612 695 681 669C721 717 754 768 780 817L699 843C679 797 650 742 612 695ZM479 99 530 38C758 120 895 208 893 348C891 527 725 553 455 494L479 415C710 478 810 434 813 348C815 252 703 181 479 99ZM564 -85 637 -38C579 46 501 128 419 200L357 154C435 82 511 -5 564 -85ZM205 272 278 308C253 357 204 431 161 486L91 449C131 397 179 321 205 272ZM479 293 557 322C529 411 492 506 435 610L358 581C414 477 452 382 479 293Z" transform="translate(0, 880) scale(1,-1)" /></svg>