<svg xmlns="http://www.w3.org/2000/svg" width="1000" height="1000"><path d="M46 768V688H345V768ZM51 171 357 263 336 337 31 254ZM173 -54C217 -54 255 -33 255 34V652H177V60C177 37 171 24 156 24C127 24 98 31 67 42V-42C103 -50 137 -54 173 -54ZM12 426 73 367C178 444 277 539 356 637L295 686C217 589 119 500 12 426ZM634 -75C688 -75 714 -51 714 18V734H635V30C635 8 630 1 606 1C579 1 548 9 510 22V-62C546 -69 586 -75 634 -75ZM492 407 567 431C557 488 529 578 501 646L424 627C452 556 482 465 492 407ZM965 264 979 347C829 376 631 377 368 346V270C628 298 826 291 965 264ZM412 761 423 680C583 686 779 717 910 756L884 829C773 796 574 770 412 761ZM771 429 841 409C867 468 901 563 927 642L843 664C826 592 796 491 771 429Z" transform="translate(0, 880) scale(1,-1)" /></svg>