<svg xmlns="http://www.w3.org/2000/svg" width="1000" height="1000"><path d="M636 195 680 264C586 304 479 344 353 384L318 316C441 276 547 235 636 195ZM287 -71H796C865 -71 892 -41 910 49L831 58C823 11 807 6 776 6H277C264 6 258 7 258 14C258 27 273 37 820 185L777 257L757 249H146V172L527 173C242 113 169 73 169 12C169 -39 200 -71 287 -71ZM498 702 573 721C559 763 532 811 505 849L432 829C456 792 485 741 498 702ZM813 545 891 518C913 566 923 597 923 625C923 710 818 750 587 750C417 750 265 720 166 681V733H82V536H166V613C278 647 433 669 587 669C782 669 836 648 836 618C836 600 831 581 813 545ZM161 561V482H839V561ZM341 386 417 407C402 474 372 574 344 646L270 626C297 556 326 453 341 386ZM576 403 648 384C674 447 706 546 730 626L654 646C634 567 602 468 576 403ZM243 420V341H757V420Z" transform="translate(0, 880) scale(1,-1)" /></svg>