<svg xmlns="http://www.w3.org/2000/svg" width="1000" height="1000"><path d="M329 444 32 317 64 237 360 373ZM173 -62C223 -62 260 -38 260 39V703H182V53C182 29 174 16 154 16C131 16 109 20 79 34V-50C111 -59 142 -62 173 -62ZM62 710 75 629C156 638 274 665 353 704L327 781C256 744 146 720 62 710ZM934 483V563H618V483ZM306 510 371 457C469 570 535 674 605 821L527 847C465 711 394 602 306 510ZM302 234 365 172C510 302 708 563 788 723L725 764L711 756H508V676H669C608 563 448 355 302 234ZM492 398V318H797C792 241 783 219 755 219C701 219 660 227 616 242V156C662 145 707 139 765 139C850 139 867 214 879 390L815 408L802 398ZM543 75V239H464V68C464 -39 505 -61 594 -61H812C907 -61 935 -10 951 146L871 161C862 35 848 19 797 19H602C553 19 543 31 543 75Z" transform="translate(0, 880) scale(1,-1)" /></svg>