<svg xmlns="http://www.w3.org/2000/svg" width="1000" height="1000"><path d="M308 710 385 738C369 766 339 814 306 846L233 818C263 785 291 744 308 710ZM79 660H921V739H79ZM612 723 682 697C721 738 753 781 777 823L697 849C678 810 649 763 612 723ZM395 434C418 472 440 517 459 563L390 596L380 588H93V509H351C340 482 325 457 308 427C337 394 349 369 349 349C349 331 341 323 325 323C301 323 278 330 254 345L238 266C272 251 305 244 344 244C398 244 429 294 429 345C429 387 418 408 395 434ZM203 -71C264 -71 289 -42 289 30V410H211V39C211 17 203 3 188 3C160 3 124 12 87 28V-54C120 -65 161 -71 203 -71ZM54 148 75 71 430 142 409 220ZM492 564V486H892V564ZM457 -26 516 -74C712 57 727 259 728 504H650C651 271 649 104 457 -26ZM858 -73 927 -36C873 53 813 147 763 224L700 187C752 111 810 16 858 -73ZM480 273H900V350H480Z" transform="translate(0, 880) scale(1,-1)" /></svg>