<svg xmlns="http://www.w3.org/2000/svg" width="1000" height="1000"><path d="M79 752V-11H157V752ZM616 314H536C536 107 424 29 198 -7L239 -81C479 -38 616 69 616 314ZM230 135H919V213H230ZM902 -86 951 -18C881 31 759 95 649 139L603 79C711 31 836 -38 902 -86ZM225 439 249 363C359 406 519 437 674 437C805 437 834 420 834 396C834 378 827 358 815 337L888 306C902 334 912 363 912 400C912 480 839 516 674 516C478 516 337 489 225 439ZM875 622H274V544H875ZM615 586V843H535V586ZM222 680H927V758H222ZM346 287H803V365H346Z" transform="translate(0, 880) scale(1,-1)" /></svg>