<svg xmlns="http://www.w3.org/2000/svg" width="1000" height="1000"><path d="M269 523H917V603H269ZM232 -46H960V34H232ZM508 9 613 -16C678 35 733 144 733 280C733 369 671 420 573 420C474 420 413 369 413 280C413 191 474 140 573 140C597 140 617 144 634 152C614 89 560 28 508 9ZM573 216C522 216 495 241 495 280C495 319 522 344 573 344C624 344 651 319 651 280C651 241 624 216 573 216ZM703 661 741 737C684 764 560 812 475 838L440 770C520 747 645 691 703 661ZM694 562H615V387L694 312ZM98 750V-22H178V750Z" transform="translate(0, 880) scale(1,-1)" /></svg>