<svg xmlns="http://www.w3.org/2000/svg" width="1000" height="1000"><path d="M300 454 19 330 52 251 332 384ZM154 -35C202 -35 238 -11 238 66V697H160V80C160 56 153 43 133 43C112 43 91 47 63 61V-23C94 -32 124 -35 154 -35ZM49 705 61 625C138 634 249 660 325 698L298 774C230 738 128 716 49 705ZM362 -43H928V37H362ZM603 99C672 99 691 135 691 198V583H612V206C612 185 604 177 590 176C571 175 528 185 481 202V113C523 104 561 99 603 99ZM318 268 383 224C444 300 487 421 510 519L433 540C413 447 375 340 318 268ZM902 218 980 247C957 327 903 453 844 546L770 517C828 421 881 297 902 218ZM749 620 806 683C747 727 628 792 552 820L504 756C582 728 688 667 749 620Z" transform="translate(0, 880) scale(1,-1)" /></svg>