<svg xmlns="http://www.w3.org/2000/svg" width="1000" height="1000"><path d="M55 242H133V445C172 520 216 547 260 547C293 547 309 510 309 443C309 324 280 313 228 341V259C318 231 386 259 386 443C386 571 341 627 260 627C213 627 173 601 133 522V624H55ZM180 56H258V775H180ZM57 45 81 -32 376 68 351 145ZM572 112 642 75C704 172 782 303 828 391L761 440L748 431H636C671 531 700 669 727 817L648 828C616 641 579 488 532 378L602 340L614 352H714C679 280 628 193 572 112ZM906 -85 942 -11C779 65 618 123 463 166L422 97C587 48 747 -10 906 -85ZM430 621H928V701H430ZM400 273 475 248C498 322 517 427 528 518L451 527C441 439 423 341 400 273ZM873 238 951 255C942 329 927 443 904 529L829 515C851 427 865 311 873 238Z" transform="translate(0, 880) scale(1,-1)" /></svg>