<svg xmlns="http://www.w3.org/2000/svg" width="1000" height="1000"><path d="M250 383 314 337C427 423 531 518 617 633L543 674C465 565 360 465 250 383ZM868 -102 912 -31C847 13 769 55 704 87L661 19C728 -10 804 -57 868 -102ZM71 553 140 512C222 615 270 713 309 826L231 848C195 738 147 649 71 553ZM222 531H881V611H222ZM221 688H896V768H222ZM867 448 793 484C769 430 747 383 712 316C706 304 692 303 678 300V221C786 238 847 235 847 186C847 134 815 89 750 51L790 -15C868 38 927 91 927 186C927 271 879 318 788 311C825 370 847 410 867 448ZM150 46C150 152 417 354 545 354C575 354 587 322 587 280C587 202 523 177 405 206V127C535 104 667 125 667 280C667 394 632 434 545 434C413 434 70 220 70 46C70 -37 117 -84 189 -84C280 -84 356 29 356 191C356 415 288 467 134 427V347C240 380 276 345 276 191C276 85 239 4 189 4C163 4 150 18 150 46ZM546 9V274H469V9ZM645 6 625 80 356 17 374 -57Z" transform="translate(0, 880) scale(1,-1)" /></svg>