<svg xmlns="http://www.w3.org/2000/svg" width="1000" height="1000"><path d="M352 314H272C272 107 197 31 26 -5L57 -83C238 -40 352 69 352 314ZM50 135H572V213H50ZM558 -88 596 -16C543 33 450 97 368 141L333 77C415 29 509 -40 558 -88ZM86 421 98 364C173 410 281 437 387 437C475 437 498 420 498 396C498 378 493 358 483 337L558 306C568 334 576 363 576 400C576 480 522 516 387 516C254 516 161 477 86 421ZM539 622H84V544H539ZM351 586V843H271V586ZM44 680H578V758H44ZM126 310V489H46V310ZM138 287H484V365H138ZM639 415V335C857 297 934 380 934 573C934 737 881 802 762 802C664 802 590 761 559 735L599 667C630 693 694 721 762 721C831 721 854 672 854 573C854 418 802 383 639 415ZM534 12 566 -67C723 -12 777 162 777 382V590H698V384C698 225 679 69 534 12ZM828 -67H883C962 -67 971 -7 979 158L901 165C897 36 890 13 860 13H848C825 13 817 20 817 49V251H739V24C739 -48 764 -67 828 -67Z" transform="translate(0, 880) scale(1,-1)" /></svg>