<svg xmlns="http://www.w3.org/2000/svg" width="1000" height="1000"><path d="M224 618 292 655C270 698 230 762 190 809L125 775C161 730 202 663 224 618ZM484 643 560 670C543 719 512 784 476 838L405 812C437 759 469 693 484 643ZM698 645 764 614C806 666 850 734 883 794L806 826C782 770 737 698 698 645ZM813 414 886 384C909 436 920 469 920 503C920 593 818 637 587 637C416 637 262 605 164 562V621H84V402H164V494C276 532 433 557 587 557C782 557 839 532 839 498C839 476 832 455 813 414ZM457 -79C523 -79 552 -48 552 20V473H473V33C473 14 461 0 439 0C401 0 351 10 304 25V-65C351 -74 404 -79 457 -79ZM66 50 126 -11C207 37 297 111 352 188L277 224C229 156 147 91 66 50ZM74 266H932V346H74ZM872 -15 934 40C887 92 785 170 704 222L646 170C728 116 827 36 872 -15Z" transform="translate(0, 880) scale(1,-1)" /></svg>