<svg xmlns="http://www.w3.org/2000/svg" width="1000" height="1000"><path d="M309 687 385 715C369 748 338 804 303 841L231 813C262 775 291 727 309 687ZM84 630H916V709H84ZM612 698 681 672C721 719 754 770 779 818L698 844C679 799 650 744 612 698ZM300 -58H747C872 -58 911 -28 924 146L844 156C834 43 825 21 753 21H307C231 21 188 32 188 64C188 101 222 137 785 466L740 532L723 527H108V448H585C146 184 104 132 104 61C104 -17 165 -58 300 -58ZM664 161 710 231C573 281 391 336 226 368L193 295C354 266 530 210 664 161Z" transform="translate(0, 880) scale(1,-1)" /></svg>