<svg xmlns="http://www.w3.org/2000/svg" width="1000" height="1000"><path d="M66 678 91 615C132 659 180 679 219 679C257 679 274 621 274 532C274 382 235 368 135 412V330C246 297 355 304 355 532C355 682 315 761 219 761C157 761 102 726 66 678ZM236 119V544H160V119ZM333 129 307 202 54 101 79 27ZM121 302V726H48V302ZM490 150 554 107C699 260 817 420 908 577L833 626C754 472 634 297 490 150ZM950 -61 977 17C771 96 567 156 371 201L338 129C548 78 750 17 950 -61ZM560 340 625 387C587 444 521 519 460 585L398 528C464 464 520 400 560 340ZM373 727 389 649C567 663 779 697 927 747L892 824C765 776 554 743 373 727Z" transform="translate(0, 880) scale(1,-1)" /></svg>