<svg xmlns="http://www.w3.org/2000/svg" width="1000" height="1000"><path d="M251 383 315 336C427 422 531 518 616 633L542 674C465 564 361 464 251 383ZM866 -102 910 -30C843 13 764 56 697 88L654 20C723 -9 801 -56 866 -102ZM71 553 140 512C222 615 270 713 309 826L231 848C195 738 147 649 71 553ZM221 529H881V609H221ZM221 687H896V767H222ZM864 446 790 482C769 435 742 379 706 315C699 303 685 301 671 298V219C782 237 845 234 845 185C845 134 812 89 745 51L785 -15C865 38 925 91 925 185C925 270 876 316 782 309C820 368 843 408 864 446ZM152 47C152 167 425 321 537 321C571 321 587 300 587 263C587 193 556 186 505 204V128C595 110 663 135 663 263C663 356 617 398 537 398C391 398 71 220 71 47C71 -36 119 -83 193 -83C284 -83 363 29 363 190C363 413 293 464 136 425V345C245 377 283 343 283 190C283 85 243 4 193 4C165 4 152 19 152 47ZM462 9H540V481H462ZM359 21 378 -56 650 2 630 79Z" transform="translate(0, 880) scale(1,-1)" /></svg>