<svg xmlns="http://www.w3.org/2000/svg" width="1000" height="1000"><path d="M105 87 185 59C244 152 297 249 355 387L290 423L278 412H197C228 505 258 643 278 794L200 802C178 642 144 479 89 358L153 323L167 338H241C214 266 165 171 105 87ZM31 541H402V619H31ZM40 69 76 0 396 156 355 224ZM482 690 520 624C583 680 645 708 724 708C789 708 808 672 808 620C808 562 789 501 749 437L814 400C860 475 887 542 887 620C887 740 832 789 724 789C629 789 556 751 482 690ZM376 -38H975V42H376ZM680 32 752 0C828 88 905 193 905 316C905 432 825 472 673 447V369C784 380 825 373 825 316C825 219 759 123 680 32ZM545 6V782H466V6Z" transform="translate(0, 880) scale(1,-1)" /></svg>