<svg xmlns="http://www.w3.org/2000/svg" width="1000" height="1000"><path d="M430 493H859V573H430ZM422 291H867V371H422ZM684 -78V661H606V-78ZM351 89H939V169H351ZM814 568 892 536C918 591 929 627 929 665C929 764 854 807 683 807C562 807 450 777 366 739L397 661C472 698 578 724 683 724C814 724 847 697 847 660C847 635 838 612 814 568ZM243 515 164 526C135 358 84 201 34 87L112 52C161 172 214 344 243 515ZM241 37C228 37 222 49 222 77C222 119 252 196 327 302L267 347C188 243 145 147 145 77C145 5 180 -40 241 -40C320 -40 358 30 358 186C358 348 330 404 247 404C206 404 174 386 154 358L167 285C195 309 225 325 247 325C275 325 279 281 279 186C279 71 258 37 241 37ZM65 476H371V555H65ZM269 590 324 651C275 696 220 738 158 780L107 721C170 680 222 635 269 590Z" transform="translate(0, 880) scale(1,-1)" /></svg>