<svg xmlns="http://www.w3.org/2000/svg" width="1000" height="1000"><path d="M48 233H125V453C163 533 204 562 247 562C278 562 294 522 294 448C294 319 267 307 217 337V254C304 224 371 253 371 448C371 584 327 643 247 643C201 643 164 615 125 530V642H48ZM169 34H246V804H169ZM49 19 75 -58 361 49 334 126ZM473 -78C520 -78 553 -55 553 9V834H475V13C475 -1 470 -9 458 -9C435 -9 405 -2 373 13V-67C404 -74 438 -78 473 -78ZM367 569H614V645H367ZM633 393 591 455 340 262 385 196ZM753 -78C797 -78 839 -44 839 16V486C885 557 926 649 964 751L902 790L890 779H663V702H866C842 634 805 565 762 513V29C762 10 757 -5 743 -5C713 -6 683 3 654 20V-62C686 -74 714 -78 753 -78ZM961 313 969 398C887 431 779 432 635 397V319C778 351 886 344 961 313Z" transform="translate(0, 880) scale(1,-1)" /></svg>