<svg xmlns="http://www.w3.org/2000/svg" width="1000" height="1000"><path d="M430 493H859V573H430ZM422 291H867V371H422ZM684 -78V661H606V-78ZM351 89H939V169H351ZM814 568 892 536C918 591 929 627 929 665C929 764 854 807 683 807C562 807 450 777 366 739L397 661C472 698 578 724 683 724C814 724 847 697 847 660C847 635 838 612 814 568ZM46 317H372V397H46ZM85 498H334V576H85ZM85 672H334V750H85ZM234 -66C314 -66 360 2 360 124C360 250 265 293 131 261V183C234 207 282 187 282 124C282 56 259 13 236 13C222 13 216 22 216 36C216 71 246 123 305 173L258 235C182 179 137 103 137 35C137 -27 173 -66 234 -66ZM36 82 113 58C138 121 173 234 199 339L118 357C99 253 62 144 36 82Z" transform="translate(0, 880) scale(1,-1)" /></svg>