<svg xmlns="http://www.w3.org/2000/svg" width="1000" height="1000"><path d="M237 294C408 294 492 382 492 482C492 575 450 636 282 674L236 609C382 577 410 534 410 482C410 425 339 369 237 369C193 369 167 383 167 405C167 443 223 484 443 526L409 594C155 551 79 478 79 405C79 332 141 294 237 294ZM93 648 115 580C237 601 367 632 483 671L443 734C338 700 211 668 93 648ZM79 753 101 687C224 707 358 740 476 780L436 841C326 803 200 772 79 753ZM546 479H936V556H546ZM706 298C758 298 795 313 795 384V827H718L720 396C720 378 717 372 699 372C661 372 620 378 568 392V313C619 304 663 298 706 298ZM556 637H917V713H556ZM123 73H202V157C325 187 491 201 629 201C752 201 829 191 829 169C829 130 707 127 519 142V63C759 52 909 68 909 169C909 252 793 280 629 280C480 280 326 259 202 216V256H123ZM463 -28H542V328H463ZM82 -6 86 -84 839 -53 835 25ZM857 -89 929 -63C900 -20 865 23 827 66L758 40C795 -4 829 -47 857 -89Z" transform="translate(0, 880) scale(1,-1)" /></svg>