<svg xmlns="http://www.w3.org/2000/svg" width="1000" height="1000"><path d="M42 270H119V463C159 534 204 561 249 561C283 561 299 526 299 462C299 350 270 339 216 366V285C308 258 377 286 377 462C377 586 330 640 249 640C201 640 160 615 119 539V635H42ZM168 93H246V780H168ZM43 83 66 6 367 102 342 179ZM559 -59H842C939 -59 958 5 969 179L889 187C884 46 877 21 830 21H575C523 21 512 34 512 84V802H433V81C433 -30 457 -59 559 -59ZM562 182 622 138C713 237 818 367 908 506L829 543C748 410 645 274 562 182ZM549 476 611 436C683 520 757 618 836 740L755 777C688 661 614 556 549 476Z" transform="translate(0, 880) scale(1,-1)" /></svg>