<svg xmlns="http://www.w3.org/2000/svg" width="1000" height="1000"><path d="M273 445 11 318 45 240 306 375ZM138 -60C184 -60 220 -36 220 41V706H143V55C143 31 135 18 117 18C98 18 78 22 51 36V-48C81 -57 109 -60 138 -60ZM41 712 52 631C124 641 228 668 298 707L271 782C208 746 114 723 41 712ZM521 9 578 -45C672 23 730 95 730 181C730 257 679 301 588 301C499 301 448 256 448 186C448 111 501 69 621 69C807 69 930 128 930 273C930 391 844 446 683 446C538 446 416 411 315 358L349 284C449 336 550 367 683 367C789 367 851 342 851 273C851 176 744 145 621 145C555 145 527 157 527 186C527 213 551 226 588 226C626 226 651 211 651 181C651 129 607 70 521 9ZM447 453 523 478C515 522 489 590 461 641L387 620C414 568 440 497 447 453ZM262 565 335 529C395 623 434 723 459 836L381 849C356 736 321 652 262 565ZM615 474 693 491C690 535 674 608 654 661L579 646C598 592 612 518 615 474ZM385 687H952V765H385ZM761 471 830 448C858 497 894 572 922 638L836 662C820 606 787 522 761 471ZM975 17H296V-61H975Z" transform="translate(0, 880) scale(1,-1)" /></svg>