<svg xmlns="http://www.w3.org/2000/svg" width="1000" height="1000"><path d="M39 179 100 121C196 233 298 392 370 521L311 562L297 549H71V472H247C205 393 120 271 39 179ZM207 36H284V381H207ZM263 581 320 639C281 675 225 722 171 762L117 709C172 666 228 617 263 581ZM342 139 176 38 213 -30 377 73ZM334 -56H914V24H334ZM514 20H649C702 64 722 151 722 228C722 320 679 363 607 363C548 363 492 320 492 245C492 166 542 125 607 125C622 125 636 128 648 136C627 80 584 38 514 20ZM337 708 375 638C442 682 544 732 680 732C802 732 840 689 840 624C840 515 692 504 467 538V452C719 427 920 439 920 624C920 730 863 812 680 812C511 812 403 753 337 708ZM689 292V630H612V322ZM607 195C581 195 562 217 562 245C562 273 581 295 607 295C633 295 652 273 652 245C652 217 633 195 607 195Z" transform="translate(0, 880) scale(1,-1)" /></svg>