<svg xmlns="http://www.w3.org/2000/svg" width="1000" height="1000"><path d="M369 446 38 318 64 243 395 381ZM201 -72C244 -72 278 -51 278 17V721H204V37C204 13 195 0 181 0C153 0 126 4 89 18V-60C127 -69 163 -72 201 -72ZM66 726 80 652C171 662 302 690 391 729L366 799C286 761 161 736 66 726ZM462 449H824V527H462ZM511 -79H822C884 -79 912 -32 927 100L849 110C842 23 829 -1 802 -1H539C514 -1 502 6 502 17C502 35 518 52 872 293L828 358L808 350H404V272L691 273C427 95 400 59 400 8C400 -43 428 -79 511 -79ZM634 701 710 721C695 765 667 815 640 854L567 834C593 794 622 742 634 701ZM814 538 893 510C915 559 925 590 925 621C925 709 847 749 700 749C586 749 464 728 375 702L395 623C480 648 602 668 700 668C809 668 839 645 839 614C839 595 833 575 814 538Z" transform="translate(0, 880) scale(1,-1)" /></svg>