<svg xmlns="http://www.w3.org/2000/svg" width="1000" height="1000"><path d="M155 375V658H75V375ZM795 413 852 351C894 389 932 438 932 511C932 609 842 680 582 680C376 680 205 637 76 567L110 496C238 562 399 601 582 601C798 601 851 550 851 511C851 475 833 443 795 413ZM460 469H540V776H460ZM593 496H298V418H511C393 323 223 225 52 145L110 75C320 188 520 315 684 453L620 508ZM823 816H168V737H823ZM147 35V-44H873V35ZM330 64 405 102C378 173 321 277 269 354L198 321C250 245 305 137 330 64ZM583 96 654 64C699 131 759 239 802 330L723 363C690 277 630 167 583 96Z" transform="translate(0, 880) scale(1,-1)" /></svg>