<svg xmlns="http://www.w3.org/2000/svg" width="1000" height="1000"><path d="M157 -38C281 -38 331 73 331 229C331 346 306 438 179 501L134 436C233 387 251 320 251 229C251 120 212 41 157 41C129 41 113 67 113 102C113 175 152 255 292 326L257 395C90 321 31 218 31 102C31 10 79 -38 157 -38ZM43 463 75 395C157 427 243 473 321 534L275 593C210 543 122 492 43 463ZM32 623 65 557C147 587 237 635 317 694L271 756C201 706 110 651 32 623ZM493 36V-51C536 -64 587 -70 641 -70C828 -70 956 -6 956 197C956 379 842 442 659 442C625 442 600 440 575 434C646 490 679 565 679 667H602C602 568 554 480 465 415C446 400 418 391 395 381L434 311C500 342 590 365 659 365C788 365 877 325 877 197C877 63 777 8 641 8C580 8 529 18 493 36ZM401 283V207H738V283ZM394 160V81H748V160ZM489 589V509C750 480 914 505 914 663C914 778 802 812 669 812C516 812 420 777 323 725L361 656C442 701 544 734 669 734C774 734 834 705 834 663C834 583 740 552 489 589Z" transform="translate(0, 880) scale(1,-1)" /></svg>