<svg xmlns="http://www.w3.org/2000/svg" width="1000" height="1000"><path d="M305 695 347 625C438 691 532 731 671 731C808 731 849 697 849 629C849 540 794 501 455 536V455C810 425 929 471 929 629C929 730 872 811 671 811C507 811 396 762 305 695ZM284 112H935V192H284ZM542 -72C617 -72 659 -34 659 49V633H580L579 67C579 27 567 6 533 6C502 6 466 13 429 27V-59C461 -68 497 -72 542 -72ZM312 266H907V346H312ZM132 760 79 711C130 668 188 615 217 578L272 632C241 668 184 720 132 760ZM111 46 186 30 279 472 219 505 200 496H50V420H182ZM269 151 63 38 104 -34 310 89Z" transform="translate(0, 880) scale(1,-1)" /></svg>