<svg xmlns="http://www.w3.org/2000/svg" width="1000" height="1000"><path d="M497 694 575 714C560 757 533 808 505 847L429 827C454 788 484 735 497 694ZM812 532 890 504C913 553 923 585 923 614C923 701 818 742 587 742C417 742 263 711 164 671V725H84V522H164V603C276 638 433 661 587 661C782 661 836 639 836 608C836 588 831 569 812 532ZM161 538V458H839V538ZM344 352 421 373C405 445 372 555 343 633L268 612C296 536 328 424 344 352ZM571 370 643 350C671 419 707 526 732 613L655 633C634 547 599 440 571 370ZM244 386V307H756V386ZM98 -11 143 -83C505 0 538 135 537 314H457C457 152 446 65 98 -11ZM850 -86 906 -22C803 36 685 94 582 137L537 74C642 28 758 -30 850 -86ZM110 155H892V233H110Z" transform="translate(0, 880) scale(1,-1)" /></svg>