<svg xmlns="http://www.w3.org/2000/svg" width="1000" height="1000"><path d="M66 671 92 610C133 657 180 678 217 678C253 678 270 615 270 516C270 353 232 339 134 386V304C242 269 350 275 350 516C350 674 313 760 217 760C154 760 101 723 66 671ZM233 75V531H158V75ZM329 88 302 160 54 52 80 -21ZM122 272V722H49V272ZM672 314H592C592 107 498 30 297 -6L333 -82C546 -39 672 69 672 314ZM325 135H938V213H325ZM922 -87 966 -17C904 32 795 96 698 140L657 78C753 30 864 -39 922 -87ZM314 444 338 366C438 408 579 437 720 437C832 437 858 420 858 396C858 378 852 358 841 337L915 306C927 334 936 363 936 400C936 480 871 516 720 516C543 516 415 490 314 444ZM899 622H364V544H899ZM671 586V843H591V586ZM318 680H945V758H318ZM429 287H834V365H429Z" transform="translate(0, 880) scale(1,-1)" /></svg>