<svg xmlns="http://www.w3.org/2000/svg" width="1000" height="1000"><path d="M37 738V661H329V738ZM215 697V-56H293V697ZM68 518V200H146V518ZM41 206 70 133 271 219 243 292ZM612 684 688 705C672 751 643 805 614 848L542 827C569 785 599 728 612 684ZM841 511 919 482C942 533 953 566 953 599C953 690 865 731 687 731C549 731 392 704 296 674L318 597C410 626 565 649 687 649C827 649 866 625 866 592C866 571 860 550 841 511ZM403 476H707L609 363L672 318L838 504L783 563L766 556H403ZM444 -21 503 -92C737 -6 855 75 855 217C855 321 781 378 649 378C574 378 487 367 428 349L449 266C503 283 580 298 649 298C732 298 775 268 775 217C775 122 660 48 444 -21Z" transform="translate(0, 880) scale(1,-1)" /></svg>