<svg xmlns="http://www.w3.org/2000/svg" width="1000" height="1000"><path d="M163 784 108 734C160 689 219 632 249 592L306 647C274 686 216 741 163 784ZM136 21 213 6 328 479 263 513 244 502H56V423H227ZM330 148 74 10 113 -67 369 82ZM464 446 542 418C608 540 662 680 696 816L613 834C582 702 531 563 464 446ZM817 470 895 436C916 483 926 519 926 561C926 657 852 703 696 703C564 703 433 661 348 619L380 540C459 581 582 618 696 618C809 618 842 590 842 556C842 529 835 506 817 470ZM435 460V380H748V258H467V306H389V83C389 -35 426 -60 534 -60H794C897 -60 931 -2 947 171L868 185C858 35 840 20 777 20H539C481 20 467 33 467 83V178H827V460Z" transform="translate(0, 880) scale(1,-1)" /></svg>