<svg xmlns="http://www.w3.org/2000/svg" width="1000" height="1000"><path d="M105 72 184 43C241 137 290 231 346 367L280 402L269 392H197C226 484 253 619 272 767L194 774C174 618 142 457 90 338L155 304L167 318H233C207 248 161 154 105 72ZM38 519H387V597H38ZM44 55 82 -13 382 137 340 204ZM734 15 765 -67C893 -11 944 45 944 200C944 346 835 427 686 427C488 427 341 291 341 120C341 14 392 -58 488 -58C644 -58 684 134 684 277C684 399 627 510 511 567L473 495C563 446 606 365 606 277C606 147 580 22 488 22C445 22 420 62 420 120C420 234 506 347 686 347C800 347 866 301 866 200C866 94 820 37 734 15ZM501 535 571 494C629 569 694 670 733 747L671 794L660 787H386V707H620C589 650 544 584 501 535ZM907 468 977 513C943 588 893 667 842 739L778 703C832 624 872 549 907 468Z" transform="translate(0, 880) scale(1,-1)" /></svg>