<svg xmlns="http://www.w3.org/2000/svg" width="1000" height="1000"><path d="M308 699 385 727C369 756 339 806 306 840L232 812C263 777 291 735 308 699ZM79 647H921V726H79ZM612 711 682 685C721 728 753 773 778 816L697 842C678 802 649 753 612 711ZM114 308 139 230 164 235H904V313H214C232 368 251 430 262 485H835V564H186C178 482 158 383 142 328C138 315 126 311 114 308ZM49 19 115 -34C182 15 265 91 316 159L240 194C192 131 117 64 49 19ZM466 -75C524 -75 554 -48 554 13V443H474V24C474 6 466 -1 447 -1C407 -1 369 6 325 22V-63C369 -70 414 -75 466 -75ZM863 -31 936 14C896 63 811 143 741 194L671 153C743 100 824 18 863 -31Z" transform="translate(0, 880) scale(1,-1)" /></svg>