<svg xmlns="http://www.w3.org/2000/svg" width="1000" height="1000"><path d="M262 433 18 308 53 230 296 364ZM137 -60C182 -60 218 -36 218 41V683H140V55C140 31 133 18 116 18C98 18 79 22 55 36V-48C83 -57 110 -60 137 -60ZM48 691 58 610C125 619 222 646 287 684L259 759C201 723 115 701 48 691ZM525 365 588 314C669 354 752 439 752 531C752 599 709 644 611 644C511 644 473 600 473 538C473 469 531 431 646 431C825 431 925 495 925 629C925 727 871 808 677 808C500 808 389 763 299 713L342 642C427 688 545 728 677 728C812 728 846 680 846 629C846 553 776 506 646 506C578 506 553 520 553 538C553 556 572 572 611 572C648 572 672 558 672 531C672 468 611 408 525 365ZM788 129 815 47C904 77 960 140 961 234C961 327 889 389 692 389C545 389 392 360 280 324L299 247C407 282 563 309 692 309C834 309 878 275 878 232C878 175 843 146 788 129ZM454 213V134H738V213ZM310 26V-54H902V26Z" transform="translate(0, 880) scale(1,-1)" /></svg>