<svg xmlns="http://www.w3.org/2000/svg" width="1000" height="1000"><path d="M310 672 385 700C369 735 337 795 302 835L229 807C261 766 291 715 310 672ZM79 610H921V689H79ZM612 681 680 655C721 706 755 760 781 812L699 838C680 789 651 731 612 681ZM320 97 387 48C557 140 729 255 866 393L802 449L785 441H145V362H714C617 278 470 176 320 97ZM911 -70 943 5C659 66 375 111 106 144L72 69C358 32 636 -13 911 -70ZM517 441 592 482C569 516 520 573 472 620L401 583C449 537 497 477 517 441Z" transform="translate(0, 880) scale(1,-1)" /></svg>