<svg xmlns="http://www.w3.org/2000/svg" width="1000" height="1000"><path d="M55 237H133V450C169 525 207 551 249 551C279 551 293 513 293 443C293 320 267 309 221 338V255C304 227 370 255 370 443C370 574 327 631 249 631C204 631 170 607 133 527V629H55ZM172 46H249V784H172ZM59 33 84 -44 359 59 332 136ZM366 517 419 458C664 537 686 658 687 847H607C608 674 601 592 366 517ZM871 451 935 503C870 559 806 615 757 656L697 606C753 562 816 505 871 451ZM377 748 384 666C571 671 788 691 938 716L920 794C781 767 568 750 377 748ZM385 356H929V433H385ZM437 221H877V298H437ZM696 -7V517H618V-7ZM437 85H877V162H437ZM955 24H359V-53H955Z" transform="translate(0, 880) scale(1,-1)" /></svg>