<svg xmlns="http://www.w3.org/2000/svg" width="1000" height="1000"><path d="M312 683 388 711C372 744 341 798 307 835L234 807C265 769 294 723 312 683ZM88 623H919V695H88ZM402 359 473 320C589 376 705 447 797 518L736 562L720 553H379L378 480H624C573 445 499 402 402 359ZM784 812 701 838C594 660 302 506 123 440L177 378C363 455 660 630 784 812ZM556 384C381 384 245 354 116 313L145 238C274 285 399 308 556 308C687 308 754 285 754 251C754 143 368 5 253 5C198 5 169 33 169 73C169 110 197 144 283 144C428 144 632 7 893 -93L947 -33C694 62 458 213 283 213C169 213 86 160 86 73C86 -4 146 -72 253 -72C426 -72 846 99 846 251C846 343 741 384 556 384Z" transform="translate(0, 880) scale(1,-1)" /></svg>