<svg xmlns="http://www.w3.org/2000/svg" width="1000" height="1000"><path d="M312 685 388 713C372 747 340 803 306 841L233 813C265 774 294 726 312 685ZM88 626H919V705H88ZM615 695 684 669C724 717 758 769 783 818L702 844C683 798 653 742 615 695ZM69 312H931V391H69ZM139 475H861V555H139ZM302 211 358 154 380 167H537C493 130 440 90 372 49L448 10C534 61 639 132 710 186L656 255L635 246H447C504 317 541 399 577 501L490 511C455 405 400 300 302 211ZM875 -83 905 -5C645 41 387 76 141 101L102 26C366 -3 622 -38 875 -83Z" transform="translate(0, 880) scale(1,-1)" /></svg>