<svg xmlns="http://www.w3.org/2000/svg" width="1000" height="1000"><path d="M308 704 385 732C370 760 340 808 306 840L233 812C263 779 291 738 308 704ZM79 655H921V734H79ZM612 717 682 691C721 732 753 774 777 816L696 842C678 804 649 757 612 717ZM141 585 88 528C139 494 197 452 226 423L281 484C250 513 193 554 141 585ZM130 17 201 6 280 352 223 381 204 374H60V295H184ZM278 101 74 17 111 -55 316 38ZM579 -85C691 -85 737 -12 737 110C737 214 662 321 569 382L509 329C598 269 657 185 657 110C657 34 633 -9 571 -9C531 -9 496 -3 460 10V-73C493 -81 526 -85 579 -85ZM289 61 347 15C414 64 474 129 517 196L444 234C408 173 350 111 289 61ZM411 306 474 257C609 360 659 463 708 615L628 635C588 486 533 396 411 306ZM875 18 951 46C926 123 884 206 840 269L769 244C812 179 852 94 875 18ZM320 428H922V508H320Z" transform="translate(0, 880) scale(1,-1)" /></svg>