<svg xmlns="http://www.w3.org/2000/svg" width="1000" height="1000"><path d="M57 232H135V444C174 523 219 552 264 552C297 552 313 513 313 442C313 317 284 305 231 334V252C322 222 391 251 391 442C391 575 345 633 264 633C216 633 175 604 135 521V631H57ZM183 38H261V789H183ZM58 24 83 -53 381 52 355 129ZM384 477H934V559H384ZM428 702H890V784H428ZM512 313 582 267 596 281H690C657 225 610 159 556 98L628 60C692 133 771 240 821 316L751 371L735 361H626C672 462 699 582 721 724L641 732C618 582 583 440 512 313ZM899 -73 934 7C762 71 593 119 430 154L388 78C563 39 732 -9 899 -73Z" transform="translate(0, 880) scale(1,-1)" /></svg>