<svg xmlns="http://www.w3.org/2000/svg" width="1000" height="1000"><path d="M650 -68C812 -68 912 30 912 175C912 307 820 372 683 372C633 372 587 364 546 350C599 453 627 604 658 824L578 832C550 615 523 459 449 316C441 301 406 277 376 250L439 193C505 254 579 293 683 293C769 293 832 257 832 175C832 77 769 10 644 10C592 10 568 27 568 67C568 94 585 112 614 112C655 112 689 83 703 -2L778 20C751 122 708 190 614 190C534 190 489 133 489 67C489 -17 545 -68 650 -68ZM321 457H968V537H321ZM364 635H928V713H364ZM148 0C261 0 317 143 317 279C317 385 267 491 153 538L124 465C209 423 240 353 240 279C240 181 206 79 148 79C124 79 109 93 109 133C109 215 177 305 321 415L278 479C129 373 32 252 32 133C32 35 78 0 148 0ZM150 512 211 481C260 546 311 636 339 701L277 739L263 730H58V652H228C207 606 178 553 150 512Z" transform="translate(0, 880) scale(1,-1)" /></svg>