<svg xmlns="http://www.w3.org/2000/svg" width="1000" height="1000"><path d="M51 268H128V442C167 506 212 528 257 528C291 528 307 498 307 442C307 342 277 333 224 357V277C315 253 384 280 384 442C384 557 338 607 257 607C209 607 168 586 128 518V599H51ZM177 107H254V730H177ZM53 102 76 25 373 111 350 188ZM365 60 394 -25 424 -10 882 34 874 114 514 81C638 245 755 459 907 766L825 803C678 482 556 254 462 140C427 96 386 67 365 60ZM529 468 603 504C565 584 503 690 443 781L372 736C436 646 490 553 529 468ZM887 -73 963 -40C929 59 878 180 816 292L745 261C806 148 852 25 887 -73Z" transform="translate(0, 880) scale(1,-1)" /></svg>