<svg xmlns="http://www.w3.org/2000/svg" width="1000" height="1000"><path d="M197 -67C253 -67 277 -44 277 25V805H198V33C198 19 194 11 183 11C161 11 132 18 101 33V-54C132 -63 164 -67 197 -67ZM35 639 68 562C193 602 311 651 406 700L372 771C279 722 162 677 35 639ZM56 92 404 189 386 265 39 174ZM70 301H376V381H70ZM70 457H376V536H70ZM750 -77C791 -77 820 -55 820 14L822 810H742L740 23C740 9 736 3 722 3C698 3 672 7 639 22V-65C675 -74 713 -77 750 -77ZM488 -82H568V810H488ZM364 224H946V304H364ZM380 534H930V614H380Z" transform="translate(0, 880) scale(1,-1)" /></svg>