<svg xmlns="http://www.w3.org/2000/svg" width="1000" height="1000"><path d="M197 -62C251 -62 277 -39 277 30V816H199V38C199 24 194 16 182 16C158 16 128 23 94 38V-49C127 -58 161 -62 197 -62ZM22 648 56 571C190 611 316 660 418 710L383 781C283 731 158 686 22 648ZM43 98 416 195 398 271 26 181ZM58 308H386V388H58ZM58 465H386V545H58ZM732 -17 783 -89C905 -44 947 22 947 112C947 202 897 257 777 257C694 257 605 226 557 196C598 274 633 371 657 520L577 529C557 372 516 256 462 150C450 127 417 104 388 74L445 16C564 123 681 176 777 176C839 176 868 152 868 112C868 48 811 6 732 -17ZM595 449V369C844 333 938 412 938 570C938 700 867 769 701 769C547 769 439 702 372 641L423 577C489 637 582 688 701 688C811 688 859 649 859 570C859 452 784 424 595 449Z" transform="translate(0, 880) scale(1,-1)" /></svg>