<svg xmlns="http://www.w3.org/2000/svg" width="1000" height="1000"><path d="M82 627 153 590C192 653 229 728 259 805L187 833C158 755 121 686 82 627ZM188 -74C318 -74 329 94 329 400C329 590 318 669 186 669C134 669 91 652 60 633L81 558C111 577 147 589 186 589C247 589 252 516 252 400C252 154 242 4 184 4C162 4 145 9 124 14V-67C142 -71 162 -74 188 -74ZM314 402 295 472C161 377 12 258 12 108C12 47 58 17 104 17C216 17 202 204 203 510L125 509C127 258 122 97 97 97C94 97 90 101 90 108C90 194 191 320 314 402ZM440 837 396 774C442 750 492 720 519 698L565 763C536 785 487 814 440 837ZM412 391 491 379 623 648 556 686 541 677H350V599H511ZM629 502 349 406 377 329 659 431ZM597 301 662 250C775 357 865 454 963 596L893 637L855 588H743C781 652 822 732 861 815L783 847C744 747 704 669 663 603C655 589 642 580 631 573L663 501L680 510H800C747 443 667 362 597 301ZM792 103 818 29C904 54 952 108 953 185C953 267 877 321 707 321C571 321 431 295 330 263L349 189C447 219 588 243 707 243C826 243 871 214 871 184C871 140 841 115 792 103ZM488 172V94H752V172ZM357 12V-68H901V12Z" transform="translate(0, 880) scale(1,-1)" /></svg>