<svg xmlns="http://www.w3.org/2000/svg" width="1000" height="1000"><path d="M614 285C729 285 798 357 798 474C798 578 728 649 571 643C462 639 371 584 313 517V645H233V307H313V425C369 521 467 560 571 562C668 564 715 523 715 474C715 398 672 365 601 365C542 365 506 372 450 389V299C506 289 549 285 614 285ZM358 -18 431 22C387 102 340 179 289 255L214 222C266 148 314 66 358 -18ZM69 -44H931V36H69ZM553 22 618 -18C688 61 745 145 786 217L711 255C673 182 614 94 553 22ZM101 713H899V793H101Z" transform="translate(0, 880) scale(1,-1)" /></svg>