<svg xmlns="http://www.w3.org/2000/svg" width="1000" height="1000"><path d="M48 268H126V457C166 528 212 554 258 554C291 554 308 520 308 458C308 347 278 337 224 363V282C317 256 386 283 386 458C386 580 339 634 258 634C209 634 167 609 126 534V628H48ZM176 93H253V771H176ZM49 85 72 8 376 102 352 179ZM383 749 396 669C547 676 767 705 909 759L871 835C754 789 539 758 383 749ZM349 402H964V482H349ZM617 193H696V745H617ZM746 246C625 246 500 199 376 109L426 43C533 119 647 165 746 165C804 165 836 142 836 104C836 54 791 11 716 -14L757 -85C846 -52 914 11 914 104C914 203 847 246 746 246Z" transform="translate(0, 880) scale(1,-1)" /></svg>