<svg xmlns="http://www.w3.org/2000/svg" width="1000" height="1000"><path d="M611 409V329C835 291 916 373 916 563C916 725 861 789 738 789C636 789 559 747 527 721L566 653C599 679 665 708 738 708C811 708 836 660 836 563C836 412 780 377 611 409ZM498 12 529 -67C696 -13 751 158 751 375V580H672V377C672 221 654 68 498 12ZM806 -68H865C945 -68 955 -8 963 156L885 163C881 36 873 12 843 12H826C801 12 793 19 793 49V246H715V23C715 -49 741 -68 806 -68ZM98 -61 554 84 529 158 67 16ZM202 -12 481 301 419 362 402 351H281C338 460 374 577 398 751L318 758C289 575 248 422 159 305L221 259L240 271H345L135 27ZM60 397H140V470C203 527 283 552 358 552C434 552 469 534 469 508C469 479 459 460 443 435L521 402C537 432 549 461 549 509C549 597 475 632 358 632C256 632 194 594 140 543V615H60ZM111 723H559V803H111Z" transform="translate(0, 880) scale(1,-1)" /></svg>