<svg xmlns="http://www.w3.org/2000/svg" width="1000" height="1000"><path d="M450 518 522 557C483 630 425 723 372 796L305 752C361 677 413 589 450 518ZM605 564 660 509C773 602 807 645 807 713C807 779 765 829 677 829C576 829 478 785 386 706L433 650C518 715 605 746 674 746C709 746 723 732 723 709C723 676 696 634 605 564ZM459 58 540 19C617 83 722 176 778 235L717 295L697 285H521C550 332 576 383 606 450L529 469C481 369 439 301 399 257L451 196L472 207H624C583 163 525 109 459 58ZM909 -88 936 -11C710 41 486 79 272 109L238 36C467 2 689 -38 909 -88ZM221 415H944V494H221ZM90 752V-1H170V752Z" transform="translate(0, 880) scale(1,-1)" /></svg>