<svg xmlns="http://www.w3.org/2000/svg" width="1000" height="1000"><path d="M164 -51C220 -51 243 -28 243 41V822H165V49C165 35 161 27 150 27C129 27 102 34 72 49V-38C102 -47 132 -51 164 -51ZM12 656 44 579C162 619 274 667 364 717L330 788C242 738 132 694 12 656ZM32 108 362 205 344 281 15 190ZM45 317H335V397H45ZM45 473H335V553H45ZM364 44 400 -34 426 -18 864 44 851 121 497 73C560 165 623 269 691 394L607 424C544 294 476 176 417 86C400 59 383 51 364 44ZM869 -64 947 -37C914 64 865 184 806 296L734 269C793 155 836 33 869 -64ZM342 384H969V464H342ZM394 683H918V763H394Z" transform="translate(0, 880) scale(1,-1)" /></svg>