<svg xmlns="http://www.w3.org/2000/svg" width="1000" height="1000"><path d="M107 753 52 698C103 660 162 612 190 578L247 638C216 671 159 717 107 753ZM94 106 165 96 247 494 190 522 171 514H26V434H154ZM242 201 39 102 77 29 282 138ZM274 638H949V718H668L624 830L547 812L583 718H274ZM312 447 364 384C446 456 539 501 679 501C804 501 835 469 835 424C835 337 691 332 471 359V279C716 258 915 262 915 424C915 512 858 581 679 581C513 581 400 528 312 447ZM578 -71C635 -71 666 -39 666 24V421H587V35C587 15 579 7 561 7C523 7 486 15 443 30V-55C487 -66 529 -71 578 -71ZM247 58 315 12C384 66 436 138 464 202L385 229C363 173 315 109 247 58ZM909 5 982 42C957 93 901 171 834 233L765 193C830 132 886 54 909 5Z" transform="translate(0, 880) scale(1,-1)" /></svg>