<svg xmlns="http://www.w3.org/2000/svg" width="1000" height="1000"><path d="M162 455 207 538 137 559 33 390 106 356 117 364 497 445 470 520ZM253 260C308 260 334 289 334 354V842H255V365C255 348 250 337 232 337C207 337 178 343 144 354V271C180 263 216 260 253 260ZM67 563H485V642H67ZM67 763 92 686C208 688 381 700 493 723L463 796C360 777 186 766 67 763ZM809 644C780 335 817 266 896 266C952 266 975 325 981 420L921 428C917 367 910 344 897 344C879 344 861 393 890 712L828 733L816 722H478V644ZM421 317 486 259C693 366 715 555 713 842H633C635 569 629 420 421 317ZM771 424 802 498C738 526 610 562 512 586L477 515C577 488 709 450 771 424ZM130 64H208V147C327 177 486 191 619 191C737 191 810 181 810 160C810 121 694 118 513 133V54C745 42 890 58 890 160C890 242 778 270 619 270C476 270 328 249 208 206V246H130ZM458 -36H537V317H458ZM92 -13 96 -91 822 -62 818 16ZM837 -97 909 -71C881 -29 848 14 811 57L742 32C778 -12 810 -55 837 -97Z" transform="translate(0, 880) scale(1,-1)" /></svg>