<svg xmlns="http://www.w3.org/2000/svg" width="1000" height="1000"><path d="M313 658 388 686C371 723 339 786 304 827L231 799C264 757 294 704 313 658ZM88 593H919V672H88ZM615 666 683 641C724 694 759 751 785 805L703 831C684 780 654 718 615 666ZM79 449 105 380C246 417 432 486 563 553L502 614C393 555 216 484 79 449ZM664 333C793 333 846 305 846 270C846 211 769 170 582 134L609 58C818 100 930 150 930 270C930 355 851 412 664 412C333 412 85 281 85 143C85 53 151 12 240 12C353 12 472 83 472 218C472 340 405 421 271 492L228 425C357 352 389 284 389 218C389 131 317 90 240 90C191 90 165 112 165 144C165 228 370 333 664 333ZM559 -81H639V264H559Z" transform="translate(0, 880) scale(1,-1)" /></svg>