<svg xmlns="http://www.w3.org/2000/svg" width="1000" height="1000"><path d="M624 103 675 30C806 62 883 133 883 234C883 322 827 393 607 393C370 393 195 289 195 193C195 130 245 86 347 86C495 86 614 182 614 331C614 433 562 486 484 524L434 463C494 436 534 399 534 331C534 214 449 164 347 164C296 164 275 172 275 193C275 243 423 314 607 314C778 314 802 273 802 234C802 179 736 124 624 103ZM926 -54 945 30C649 7 424 10 281 51C195 77 130 151 105 242L31 212C66 87 144 11 251 -20C400 -62 625 -76 926 -54ZM180 584 218 514C334 596 498 624 632 624C747 624 829 609 829 587C829 565 792 546 700 551V472C845 470 910 511 910 587C910 664 793 702 632 702C456 702 275 651 180 584ZM336 444 384 384C531 451 680 607 765 741L691 779C612 649 476 510 336 444ZM144 733H930V811H144ZM440 750H360C359 666 365 583 375 499L447 505C439 588 437 669 440 750ZM176 682V466H256V682Z" transform="translate(0, 880) scale(1,-1)" /></svg>