<svg xmlns="http://www.w3.org/2000/svg" width="1000" height="1000"><path d="M35 277H112V464C145 525 179 543 219 543C247 543 260 512 260 455C260 352 235 343 194 367V287C272 263 336 290 336 455C336 571 296 622 219 622C177 622 146 605 112 541V614H35ZM146 113H222V748H146ZM41 107 66 30 323 118 297 195ZM319 250H923V330H319ZM405 434H837V514H405ZM269 -10 328 -67C417 -6 509 77 567 165L489 202C442 125 352 43 269 -10ZM901 -64 970 -14C917 51 823 139 746 207L682 161C758 91 851 2 901 -64ZM621 676 696 697C679 747 649 807 618 853L546 831C575 786 607 723 621 676ZM836 487 915 457C939 510 950 545 950 582C950 677 863 721 691 721C559 721 403 693 311 659L335 582C423 614 575 638 691 638C826 638 863 612 863 576C863 553 857 530 836 487Z" transform="translate(0, 880) scale(1,-1)" /></svg>