<svg xmlns="http://www.w3.org/2000/svg" width="1000" height="1000"><path d="M309 693 385 721C369 753 338 809 303 846L231 818C262 780 291 733 309 693ZM79 635H921V714H79ZM612 703 681 677C721 724 754 775 779 823L698 849C679 804 650 749 612 703ZM237 470H843V550H237ZM520 362C396 362 280 342 169 308L197 229C308 266 413 282 520 282C624 282 656 270 656 233C656 128 394 9 275 9C223 9 187 23 187 68C187 106 222 126 304 126C444 126 619 4 865 -87L918 -20C679 67 476 205 304 205C192 205 105 149 105 68C105 -7 172 -71 275 -71C440 -71 737 94 737 233C737 316 675 362 520 362ZM125 286 190 220C304 293 407 386 494 478L421 526C340 433 236 351 125 286ZM868 249 926 308C864 363 795 411 723 452L666 397C740 354 807 305 868 249ZM105 466 170 410C282 481 383 571 468 661L395 701C315 610 214 530 105 466Z" transform="translate(0, 880) scale(1,-1)" /></svg>