<svg xmlns="http://www.w3.org/2000/svg" width="1000" height="1000"><path d="M115 771 58 718C109 674 167 619 195 581L254 639C224 676 167 730 115 771ZM97 30 173 20 248 478 190 506 171 497H46V418H156ZM233 132 56 19 97 -52 276 70ZM361 -71C476 -71 554 19 554 203C554 334 524 434 396 434C348 434 300 417 270 397L291 323C319 341 358 354 396 354C459 354 475 298 475 203C475 87 429 8 361 8C339 8 327 24 327 47C327 174 649 376 765 376C833 376 858 336 858 243C858 113 830 11 739 11C692 11 644 21 593 41V-44C643 -61 690 -68 744 -68C890 -68 938 72 938 243C938 370 893 456 770 456C621 456 248 233 248 47C248 -34 300 -71 361 -71ZM786 73 805 143C742 164 678 183 615 194L597 126C662 112 723 96 786 73ZM794 201 813 272C753 291 691 305 630 315L612 248C673 237 733 221 794 201ZM422 395 491 351C577 438 638 541 638 671H559C559 555 505 475 422 395ZM454 584V504C733 481 869 510 869 668C869 782 764 822 629 822C495 822 395 792 296 738L333 668C417 713 515 741 629 741C733 741 790 715 790 668C790 582 703 564 454 584Z" transform="translate(0, 880) scale(1,-1)" /></svg>