<svg xmlns="http://www.w3.org/2000/svg" width="1000" height="1000"><path d="M388 600H921V678H388ZM439 391H870V469H439ZM695 -1V829H615V-1ZM439 177H870V255H439ZM947 31H363V-47H947ZM51 317H373V397H51ZM89 498H335V575H89ZM89 672H335V750H89ZM237 -67C316 -67 362 1 362 124C362 249 268 293 135 261V182C237 207 283 186 283 124C283 55 261 12 239 12C225 12 219 21 219 34C219 70 249 122 307 172L259 234C185 178 140 102 140 34C140 -28 177 -67 237 -67ZM40 81 117 57C142 121 177 233 202 338L122 357C103 252 66 143 40 81Z" transform="translate(0, 880) scale(1,-1)" /></svg>