<svg xmlns="http://www.w3.org/2000/svg" width="1000" height="1000"><path d="M32 631V551H449V631ZM94 454 168 477C160 558 139 671 119 756L46 739C64 657 84 535 94 454ZM218 494 295 507C287 597 272 713 255 811L179 800C195 704 210 582 218 494ZM319 461 393 451C414 540 436 669 451 771L372 787C359 686 338 556 319 461ZM178 -19V227H101V-19ZM329 161C384 161 420 207 430 414L367 428L351 419H62V339H347C338 249 332 239 312 239C277 239 243 242 208 250V169C245 163 281 161 329 161ZM71 5 94 -72 440 28 418 105ZM857 291 921 330C895 381 841 458 790 515L730 480C777 425 829 346 857 291ZM740 569V833H662V569ZM467 676H940V748H467ZM914 604H491V533H914ZM720 545 650 571C609 502 568 444 525 397C517 388 507 381 495 378L508 308L524 316L860 346L849 412L602 389C644 435 682 484 720 545ZM821 95 847 32C915 49 949 108 949 163C949 238 889 288 764 288C656 288 547 264 469 234L487 161C562 190 670 213 764 213C838 213 868 191 868 163C868 135 849 107 821 95ZM596 153V80H793V153ZM496 13V-62H906V13Z" transform="translate(0, 880) scale(1,-1)" /></svg>