<svg xmlns="http://www.w3.org/2000/svg" width="1000" height="1000"><path d="M310 678 385 706C369 742 337 801 302 840L229 812C261 772 291 721 310 678ZM79 617H921V696H79ZM612 688 680 662C721 712 755 766 781 818L699 844C680 795 651 737 612 688ZM78 4 114 -71C395 43 662 165 908 300L864 365C625 235 352 111 78 4ZM137 -11H216V498H137ZM907 -67 938 8C672 83 537 187 519 588H438C446 179 602 9 907 -67ZM308 323 355 252C508 311 666 384 797 455L745 519C622 452 476 383 308 323Z" transform="translate(0, 880) scale(1,-1)" /></svg>