<svg xmlns="http://www.w3.org/2000/svg" width="1000" height="1000"><path d="M331 445 34 318 66 238 361 373ZM175 -57C225 -57 262 -34 262 43V699H183V57C183 33 176 20 156 20C133 20 111 24 81 38V-45C113 -54 144 -57 175 -57ZM64 706 77 625C158 635 275 662 355 700L329 777C257 740 148 717 64 706ZM310 698 351 630C416 681 505 728 658 728C817 728 850 625 850 505C850 345 790 264 686 264C606 264 536 268 456 281L446 203C526 189 606 188 686 188C864 188 929 316 929 505C929 662 889 808 658 808C479 808 377 749 310 698ZM317 -49H927V27H317ZM565 -12H644V662H565ZM445 439H763V519H445Z" transform="translate(0, 880) scale(1,-1)" /></svg>