<svg xmlns="http://www.w3.org/2000/svg" width="1000" height="1000"><path d="M277 433 20 308 54 231 310 363ZM145 -55C191 -55 227 -31 227 46V677H149V60C149 36 142 23 123 23C104 23 85 27 59 41V-43C89 -52 116 -55 145 -55ZM49 685 60 604C131 614 233 640 302 678L275 753C213 718 121 695 49 685ZM306 617 346 551C400 591 508 643 656 643C821 643 848 586 848 516C848 416 789 375 685 375C605 375 529 381 448 393V309C529 299 605 296 685 296C857 296 927 384 927 516C927 630 881 722 656 722C475 722 361 660 306 617ZM440 476H761V554H440ZM409 -60C645 -60 664 332 667 838H588C588 376 566 19 409 19C364 19 340 39 340 83C340 130 374 156 437 156C578 156 707 12 935 -63L968 14C722 91 624 235 437 235C340 235 261 185 261 83C261 -15 317 -60 409 -60Z" transform="translate(0, 880) scale(1,-1)" /></svg>