<svg xmlns="http://www.w3.org/2000/svg" width="1000" height="1000"><path d="M510 754H131V470C131 325 123 122 35 -23L103 -60C196 92 209 317 209 470V677H943V754H595L551 845L476 827ZM341 431 410 464C392 510 359 576 326 625L259 595C290 546 324 479 341 431ZM553 456 628 479C614 532 589 599 559 656L486 633C514 577 540 509 553 456ZM725 454 792 425C827 480 864 553 890 615L815 644C795 585 758 509 725 454ZM700 -78C787 -78 830 -56 846 -18C881 65 890 186 887 282C884 389 824 420 658 420C561 420 461 412 350 397L352 324C476 343 573 347 659 347C751 347 802 342 805 278C808 203 798 102 771 32C763 10 742 -4 689 -4C639 -4 593 1 539 16V-67C595 -74 649 -78 700 -78ZM172 -19 244 -69C365 83 386 222 394 416H311C303 227 290 119 172 -19ZM737 89 738 161 417 163 415 92ZM745 206 747 278 433 280 432 208Z" transform="translate(0, 880) scale(1,-1)" /></svg>