<svg xmlns="http://www.w3.org/2000/svg" width="1000" height="1000"><path d="M327 62 357 -24 389 -8 881 36 872 116 484 83C617 247 742 459 906 766L823 804C665 483 533 256 432 142C394 98 350 69 327 62ZM505 467 579 504C539 584 471 690 407 781L337 735C405 646 464 553 505 467ZM889 -73 966 -40C929 61 874 184 807 299L737 267C802 152 851 27 889 -73ZM148 756 93 701C145 661 204 612 233 577L290 637C259 670 201 718 148 756ZM131 93 202 81 302 489 243 519 224 510H46V430H205ZM310 199 64 87 101 12 347 133Z" transform="translate(0, 880) scale(1,-1)" /></svg>