<svg xmlns="http://www.w3.org/2000/svg" width="1000" height="1000"><path d="M309 687 385 715C369 747 338 802 304 838L231 810C262 773 291 726 309 687ZM79 630H921V709H79ZM612 698 681 672C721 718 754 768 779 815L698 841C679 797 650 743 612 698ZM389 312 464 280C520 379 553 519 565 643L483 646C473 524 442 403 389 312ZM121 479 144 401C263 435 461 471 630 471C758 471 829 457 829 427C829 401 817 379 798 358L876 327C897 355 911 383 911 427C911 527 793 551 630 551C429 551 242 515 121 479ZM310 -14 366 -88C653 -13 797 57 797 185C797 297 702 338 549 338C462 338 361 329 292 314L309 232C373 246 467 259 549 259C651 259 715 233 715 185C715 103 575 46 310 -14ZM106 522V338H186V522Z" transform="translate(0, 880) scale(1,-1)" /></svg>