<svg xmlns="http://www.w3.org/2000/svg" width="1000" height="1000"><path d="M292 448 25 323 59 245 324 378ZM154 -42C201 -42 237 -19 237 58V693H159V72C159 48 152 35 133 35C113 35 93 39 66 53V-30C96 -39 125 -42 154 -42ZM55 701 66 621C139 630 245 656 316 694L289 770C225 734 129 712 55 701ZM426 522 500 551C484 618 452 713 421 784L349 757C378 688 410 591 426 522ZM626 555 705 576C692 651 669 747 640 829L564 809C590 729 615 631 626 555ZM790 539 861 516C894 593 930 698 955 785L875 809C855 724 821 616 790 539ZM798 -37 867 -78C908 0 949 91 949 206C949 319 892 367 807 367C749 367 712 358 680 341V498H602V301L586 288L624 221C682 263 741 288 796 288C844 288 869 253 869 198C869 119 840 37 798 -37ZM483 -42C578 -42 650 -25 727 0L701 73C633 50 562 38 482 38C455 38 441 51 441 93C441 153 458 246 478 338L406 357C380 258 361 170 361 81C361 -3 402 -42 483 -42Z" transform="translate(0, 880) scale(1,-1)" /></svg>