<svg xmlns="http://www.w3.org/2000/svg" width="1000" height="1000"><path d="M225 648 291 686C270 724 230 780 190 821L126 786C162 746 203 688 225 648ZM485 671 559 698C543 741 511 798 476 845L405 819C438 773 470 715 485 671ZM699 677 763 644C805 690 849 750 882 803L806 836C782 787 738 724 699 677ZM815 474 889 447C910 495 920 523 920 551C920 632 818 676 587 676C418 676 263 647 164 609V659H84V464H164V541C276 574 433 596 587 596C782 596 839 575 839 545C839 527 833 510 815 474ZM320 266 363 200C524 253 663 306 813 379L759 447L699 418L359 413C431 454 500 499 575 552L504 608C415 536 320 475 231 428C211 417 182 410 154 405L188 320L222 332L514 338C455 314 388 290 320 266ZM467 -84C545 -84 594 -27 594 83C594 169 560 235 498 293L431 255C485 196 511 144 511 83C511 24 491 -6 456 -6C419 -6 372 1 323 18V-66C370 -79 417 -84 467 -84ZM61 54 122 6C185 60 249 147 287 219L208 250C178 185 122 107 61 54ZM877 1 951 40C917 99 848 188 772 257L704 214C778 143 846 60 877 1Z" transform="translate(0, 880) scale(1,-1)" /></svg>