<svg xmlns="http://www.w3.org/2000/svg" width="1000" height="1000"><path d="M31 149 94 95C179 222 271 403 334 551L273 584L261 569H59V493H228C188 401 108 257 31 149ZM179 -8H256V386H179ZM230 613 291 668C255 709 205 761 155 807L97 757C147 709 198 654 230 613ZM301 94 150 -9 189 -77 339 28ZM423 834 382 777C429 753 479 723 507 701L550 760C521 782 470 811 423 834ZM402 392 474 379 609 648 545 682 530 672H333V604H508ZM622 499 335 403 357 332 646 434ZM603 312 648 250C764 357 856 453 957 595L893 637L854 583H730C769 647 814 732 853 815L778 847C738 748 696 670 655 604C646 590 633 580 621 573L652 503L670 515H803C751 448 674 371 603 312ZM789 104 812 30C900 53 947 109 947 185C947 268 870 321 698 321C559 321 417 295 314 263L327 188C429 219 575 244 698 244C823 244 869 215 869 184C869 141 837 115 789 104ZM474 171V95H744V171ZM340 12V-66H897V12Z" transform="translate(0, 880) scale(1,-1)" /></svg>