<svg xmlns="http://www.w3.org/2000/svg" width="1000" height="1000"><path d="M290 452 6 326 39 247 321 381ZM142 -45C190 -45 227 -21 227 56V702H149V70C149 46 141 33 122 33C100 33 79 37 51 51V-33C82 -42 111 -45 142 -45ZM36 710 48 629C126 638 238 665 314 703L288 779C219 743 116 720 36 710ZM439 631H866V711H439ZM297 467 370 428C437 530 489 674 519 815L441 828C410 687 358 552 297 467ZM770 -53H862C939 -53 961 15 969 209L890 215C886 50 875 27 843 27H772C748 27 740 39 740 74V270C740 384 661 405 575 383V306C636 321 661 297 661 231V73C661 -21 682 -53 770 -53ZM753 640 675 660C605 457 502 230 291 -14L355 -62C568 187 680 435 753 640Z" transform="translate(0, 880) scale(1,-1)" /></svg>