<svg xmlns="http://www.w3.org/2000/svg" width="1000" height="1000"><path d="M69 717H930V797H69ZM507 779 427 633 503 605 583 751ZM563 395 643 367C657 387 667 408 667 430C667 490 619 534 508 534C398 534 355 491 355 437C355 375 411 336 541 336C747 336 873 393 873 504C873 602 777 660 559 660C382 660 209 621 119 580L158 510C249 547 409 582 559 582C709 582 787 554 787 504C787 438 701 414 541 414C470 414 438 424 438 437C438 450 462 461 508 461C554 461 580 450 580 430C580 418 574 406 563 395ZM60 -7 106 -79C501 19 542 194 541 379H458C458 210 439 85 60 -7ZM887 -83 942 -17C827 51 690 121 566 175L523 109C646 54 783 -17 887 -83ZM72 195H929V274H72Z" transform="translate(0, 880) scale(1,-1)" /></svg>