<svg xmlns="http://www.w3.org/2000/svg" width="1000" height="1000"><path d="M114 284H197V560C292 608 380 635 567 635C775 635 818 576 818 506C818 404 736 360 604 360C502 360 406 366 304 378V299C406 289 502 286 604 286C808 286 901 372 901 506C901 621 846 712 567 712C363 712 254 669 197 633V695H114ZM294 466H700V542H294ZM243 -82C537 -82 572 320 572 831H488C488 364 461 -2 243 -2C181 -2 146 20 146 65C146 112 193 144 279 144C458 144 634 -4 924 -80L958 -2C647 76 515 220 279 220C157 220 66 168 66 65C66 -34 128 -82 243 -82Z" transform="translate(0, 880) scale(1,-1)" /></svg>