<svg xmlns="http://www.w3.org/2000/svg" width="1000" height="1000"><path d="M309 52 389 16C425 57 463 126 463 181C463 263 414 301 322 301C221 301 169 268 169 195C169 131 203 88 275 88C332 88 361 129 361 166V372H283V199C283 174 279 165 266 165C252 165 247 176 247 195C247 212 264 223 322 223C372 223 385 207 385 181C385 148 362 101 309 52ZM92 -62 524 27 508 104 76 15ZM59 238 133 204C174 296 201 375 240 501L163 519C127 395 97 316 59 238ZM40 564 110 532C158 630 184 723 208 830L130 844C110 740 84 656 40 564ZM164 334H495V412H164ZM210 547 286 569C278 602 264 647 249 684L175 665C189 631 202 589 210 547ZM120 480H524V558H120ZM142 690H531V768H143ZM350 564 423 545C455 631 441 592 468 668L385 688C377 648 365 599 350 564ZM621 419V339C854 300 937 384 937 579C937 744 880 811 754 811C648 811 569 766 534 737L575 669C609 698 678 730 754 730C830 730 857 680 857 579C857 422 797 385 621 419ZM504 11 536 -68C711 -11 766 165 766 386V596H686V388C686 227 669 69 504 11ZM825 -69H885C967 -69 978 -8 986 158L908 165C903 35 895 11 864 11H843C818 11 810 18 810 48V253H732V23C732 -50 758 -69 825 -69Z" transform="translate(0, 880) scale(1,-1)" /></svg>