<svg xmlns="http://www.w3.org/2000/svg" width="1000" height="1000"><path d="M312 673 388 701C372 735 340 792 306 831L233 803C264 764 294 714 312 673ZM88 613H919V692H88ZM615 683 683 657C724 706 758 758 783 808L702 834C683 787 653 731 615 683ZM178 -85H257V411H178ZM34 269 93 222C204 315 303 449 361 573L283 604C226 477 133 350 34 269ZM334 -65H953V13H334ZM510 25 593 47C582 116 548 237 513 332L437 314C469 220 501 96 510 25ZM672 1 748 -16C786 78 831 214 857 321L769 337C750 235 710 92 672 1ZM327 324 398 281C467 359 511 466 532 557L455 576C434 485 387 386 327 324ZM458 396H921V474H458Z" transform="translate(0, 880) scale(1,-1)" /></svg>