<svg xmlns="http://www.w3.org/2000/svg" width="1000" height="1000"><path d="M925 562V642H75V562ZM119 769 136 689C373 695 663 725 858 765L819 839C646 804 360 774 119 769ZM92 445 114 367C245 407 413 435 560 435C730 435 817 413 817 386C817 333 675 328 376 347V269C728 250 898 232 898 386C898 483 773 513 560 513C394 513 226 488 92 445ZM460 171H540V747H460ZM481 -83C536 -83 583 -75 644 -53V33C582 7 537 -6 495 -6C472 -6 461 -1 461 21V185H382V4C382 -58 414 -83 481 -83ZM903 -26 956 44C857 94 734 151 627 192L580 127C686 84 806 27 903 -26ZM528 232 458 275C387 193 262 113 45 57L97 -14C303 45 443 141 528 232ZM123 301 155 227 337 296 305 370Z" transform="translate(0, 880) scale(1,-1)" /></svg>