<svg xmlns="http://www.w3.org/2000/svg" width="1000" height="1000"><path d="M19 186 81 133C154 244 232 404 286 534L226 570L216 556H45V481H175C143 402 80 279 19 186ZM145 43H221V390H145ZM192 592 253 645C222 682 177 728 133 769L75 720C119 677 164 628 192 592ZM256 137 123 45 160 -23 292 71ZM351 632 363 569C445 611 552 637 672 637C800 637 846 596 846 479C846 334 832 289 800 289C774 289 748 294 712 312V231C743 219 773 213 800 213C900 213 926 288 926 479C926 624 866 716 672 716C545 716 429 680 351 632ZM608 707 650 782C583 807 491 834 416 849L389 779C460 763 546 733 608 707ZM440 495H783V573H440ZM658 316V683H579L580 329C580 313 576 305 563 305C540 305 515 312 485 323V245C521 235 549 229 581 229C640 229 658 256 658 316ZM440 365H783V443H440ZM259 -26 305 -93C392 -49 491 10 551 73L485 126C439 73 347 11 259 -26ZM266 127H956V205H266ZM902 -93 959 -31C905 15 808 79 728 128L678 68C756 18 851 -45 902 -93ZM399 223V701H320V223Z" transform="translate(0, 880) scale(1,-1)" /></svg>