<svg xmlns="http://www.w3.org/2000/svg" width="1000" height="1000"><path d="M341 748V-15H420V674C592 685 778 709 905 753L856 829C740 786 525 759 341 748ZM694 -52 764 -96C844 40 876 189 876 327C876 464 812 528 665 528C534 528 443 476 365 399L405 326C494 411 581 447 665 447C734 447 796 424 796 327C796 197 768 72 694 -52ZM923 71 973 143C877 205 760 269 621 334L581 267C712 204 825 139 923 71ZM120 765 65 710C116 670 175 621 203 586L261 645C230 679 173 728 120 765ZM105 93 176 82 264 496 207 525 188 516H33V437H171ZM263 194 47 86 85 13 302 130Z" transform="translate(0, 880) scale(1,-1)" /></svg>