<svg xmlns="http://www.w3.org/2000/svg" width="1000" height="1000"><path d="M313 443 28 315 60 235 345 372ZM164 -72C213 -72 249 -48 249 29V711H171V43C171 19 164 6 144 6C123 6 101 10 72 24V-60C104 -69 133 -72 164 -72ZM57 717 69 636C148 645 261 673 338 712L311 788C242 751 138 727 57 717ZM442 340H820V420H442ZM308 155H953V235H308ZM307 399 361 339C640 448 675 634 674 840H594C594 647 574 501 307 399ZM891 333 955 387C876 462 787 539 709 601L654 547C733 485 820 406 891 333ZM318 696 327 613C539 619 779 640 949 669L926 747C768 717 534 698 318 696ZM596 -79C652 -79 682 -44 682 16V368H604V28C604 10 595 -3 575 -3C543 -3 505 4 457 20V-62C506 -74 548 -79 596 -79Z" transform="translate(0, 880) scale(1,-1)" /></svg>