<svg xmlns="http://www.w3.org/2000/svg" width="1000" height="1000"><path d="M47 252H124V437C161 502 203 525 246 525C278 525 293 493 293 434C293 328 265 319 216 344V263C303 238 370 266 370 434C370 552 326 604 246 604C200 604 162 583 124 513V597H47ZM168 84H245V734H168ZM50 77 73 0 359 90 335 167ZM374 523H933V603H374ZM342 -46H970V34H342ZM570 8 673 -16C733 35 784 144 784 280C784 369 726 420 632 420C540 420 481 369 481 280C481 191 540 140 632 140C655 140 672 143 687 151C669 88 619 27 570 8ZM632 216C586 216 560 241 560 280C560 319 586 344 632 344C680 344 704 319 704 280C704 241 680 216 632 216ZM745 662 784 737C735 764 628 812 555 838L517 771C586 748 695 692 745 662ZM749 562H670V387L749 312Z" transform="translate(0, 880) scale(1,-1)" /></svg>