<svg xmlns="http://www.w3.org/2000/svg" width="1000" height="1000"><path d="M240 544 162 558C128 402 70 258 13 153L89 115C145 227 206 386 240 544ZM246 107C227 107 218 118 218 144C218 182 248 254 335 352L277 399C186 303 140 212 140 144C140 74 180 30 246 30C330 30 374 95 374 242C374 393 338 446 251 446C204 446 168 430 144 401L159 328C189 353 223 368 251 368C284 368 293 328 293 242C293 139 269 107 246 107ZM42 507H394V587H42ZM279 613 330 676C277 718 216 756 149 795L101 734C169 696 227 654 279 613ZM540 -54H840C931 -54 958 -8 968 193L889 198C885 40 874 26 831 26H547C506 26 486 38 486 66C486 113 565 187 905 416L857 495L843 485H474V405H742C469 216 405 142 405 64C405 -11 439 -54 540 -54ZM338 481 411 442C472 543 522 684 550 823L471 837C443 698 394 565 338 481ZM459 620H949V700H459Z" transform="translate(0, 880) scale(1,-1)" /></svg>