<svg xmlns="http://www.w3.org/2000/svg" width="1000" height="1000"><path d="M94 83 172 54C227 151 272 246 324 385L259 419L248 409H183C211 503 237 642 255 794L177 801C158 641 128 477 78 355L144 322L156 335H215C191 264 147 167 94 83ZM33 540H360V617H33ZM37 66 76 -1 357 148 314 215ZM619 -68C689 -68 707 -35 707 26V546H628V39C628 18 621 10 609 10C583 9 543 19 506 35V-55C545 -64 579 -68 619 -68ZM347 114 418 77C477 161 515 302 537 414L455 426C439 324 403 195 347 114ZM352 484 427 447C486 547 531 690 557 829L478 840C452 702 405 568 352 484ZM900 68 979 91C958 181 908 326 850 433L774 411C831 301 879 158 900 68ZM469 628H922V708H469Z" transform="translate(0, 880) scale(1,-1)" /></svg>