<svg xmlns="http://www.w3.org/2000/svg" width="1000" height="1000"><path d="M114 640 131 570C160 588 188 597 225 597C270 597 286 544 286 481C286 406 266 359 208 348V269C325 276 362 365 362 481C362 603 325 675 225 675C179 675 143 662 114 640ZM166 108H243V473H166ZM34 73 67 0 360 146 326 220ZM16 347 91 311C130 440 161 606 176 774L100 783C84 617 51 452 16 347ZM789 108C912 108 953 198 953 491C953 710 897 809 717 809C591 809 476 782 381 748L397 668C492 702 599 729 717 729C844 729 874 639 874 491C874 286 854 186 789 186C744 186 689 199 646 215V127C690 115 746 108 789 108ZM380 -34H933V46H380ZM349 163 416 110C559 229 659 414 673 642L592 646C580 431 491 274 349 163ZM718 342 756 417C680 456 546 507 436 538L398 469C509 435 643 382 718 342Z" transform="translate(0, 880) scale(1,-1)" /></svg>