<svg xmlns="http://www.w3.org/2000/svg" width="1000" height="1000"><path d="M31 149 94 95C179 222 271 403 334 551L273 584L261 569H59V493H228C188 401 108 257 31 149ZM179 -8H256V386H179ZM230 613 291 668C255 709 205 761 155 807L97 757C147 709 198 654 230 613ZM301 94 150 -9 189 -77 339 28ZM425 837 381 774C428 750 479 720 506 698L552 764C523 785 472 815 425 837ZM396 392 476 379 612 648 545 686 529 677H333V599H498ZM619 502 332 406 359 329 648 432ZM586 302 651 250C767 357 859 453 960 595L890 637L851 588H734C773 652 815 732 855 815L777 847C736 748 695 670 654 604C645 590 632 580 620 573L653 500L670 510H794C740 443 658 362 586 302ZM786 104 812 30C900 53 949 109 949 185C949 268 872 321 698 321C559 321 415 296 312 263L331 188C431 219 577 243 698 243C821 243 867 215 867 184C867 141 837 115 786 104ZM474 172V94H744V172ZM340 12V-68H897V12Z" transform="translate(0, 880) scale(1,-1)" /></svg>