<svg xmlns="http://www.w3.org/2000/svg" width="1000" height="1000"><path d="M225 634 291 672C270 710 230 765 190 805L126 770C162 731 203 674 225 634ZM485 657 559 684C543 727 511 783 476 829L405 803C438 757 470 700 485 657ZM699 663 763 630C804 675 849 734 882 788L806 820C782 772 738 710 699 663ZM815 463 889 437C911 484 920 512 920 539C920 619 818 663 587 663C418 663 264 635 164 597V646H84V454H164V529C276 562 433 583 587 583C782 583 839 562 839 533C839 515 833 498 815 463ZM734 221H927V300H789L839 446L771 471L754 464H168V385H732L699 285ZM520 -81V355H441V-81ZM130 111H842V190H130Z" transform="translate(0, 880) scale(1,-1)" /></svg>