<svg xmlns="http://www.w3.org/2000/svg" width="1000" height="1000"><path d="M20 187 81 132C166 241 256 396 319 523L260 562L248 549H49V473H200C164 397 90 277 20 187ZM167 47H244V385H167ZM220 581 278 637C243 673 192 718 143 758L88 707C137 665 187 617 220 581ZM291 145 141 50 178 -18 326 79ZM503 29 572 -17C663 63 750 191 750 342C750 431 712 505 615 505C517 505 485 438 485 364C485 273 535 216 647 216C817 216 916 332 916 538C916 699 841 809 653 809C479 809 361 693 301 622L363 564C423 632 529 728 653 728C775 728 836 654 836 538C836 394 764 296 647 296C588 296 564 319 564 364C564 400 582 425 615 425C647 425 670 397 670 342C670 218 583 100 503 29ZM300 -41H954V39H300Z" transform="translate(0, 880) scale(1,-1)" /></svg>