<svg xmlns="http://www.w3.org/2000/svg" width="1000" height="1000"><path d="M210 -69C267 -69 303 -41 303 26V529H228V45C228 18 224 6 200 6C175 6 151 10 121 24V-58C152 -65 184 -69 210 -69ZM56 641H417V716H56ZM106 389V314H393V389ZM450 169 437 249 47 188 60 110ZM235 673 307 694C295 741 274 794 252 837L181 815C201 774 227 717 235 673ZM81 484H417V558H81ZM651 -79C711 -79 738 -52 738 8V839H662V20C662 3 654 -11 638 -11C611 -11 576 -2 543 12V-67C576 -74 613 -79 651 -79ZM417 54 479 0C528 65 581 167 614 274L544 293C514 198 465 111 417 54ZM459 648H943V728H459ZM830 253C889 253 931 298 931 410C931 511 887 571 752 571C651 571 557 545 464 506L491 428C578 470 668 489 752 489C850 489 858 455 858 410C858 361 847 328 825 328C810 328 796 330 778 338V258C795 254 813 253 830 253ZM850 224 790 183C830 123 871 52 892 3L954 46C933 97 890 166 850 224Z" transform="translate(0, 880) scale(1,-1)" /></svg>