<svg xmlns="http://www.w3.org/2000/svg" width="1000" height="1000"><path d="M247 -71C420 -71 497 98 497 228C497 345 454 466 285 532L238 477C387 421 415 316 415 228C415 129 351 11 247 11C195 11 161 40 161 81C161 181 241 264 464 346L430 415C181 329 79 205 79 81C79 -19 150 -71 247 -71ZM93 493 115 421C239 457 370 511 488 579L448 642C342 581 213 527 93 493ZM79 675 101 603C225 637 361 695 481 765L441 828C329 762 202 708 79 675ZM552 248H948V328H552ZM715 -68C767 -68 804 -52 804 21V811H727L729 33C729 15 726 8 708 8C670 8 628 13 575 28V-53C627 -63 672 -68 715 -68ZM562 522H928V600H562Z" transform="translate(0, 880) scale(1,-1)" /></svg>