<svg xmlns="http://www.w3.org/2000/svg" width="1000" height="1000"><path d="M908 800H112V580C112 504 107 416 27 346L99 300C178 379 189 492 189 580V722H908ZM472 636 521 572C627 595 729 622 814 655L759 714C683 685 584 656 472 636ZM373 400V706H294V400ZM226 494H905V570H226ZM687 476C552 476 406 451 267 399L320 329C436 374 571 398 685 398C745 398 771 389 771 371C771 351 741 340 659 331L691 257C800 272 861 304 861 378C861 440 815 476 687 476ZM162 89H239V174C351 205 501 220 626 220C737 220 805 210 805 187C805 146 696 143 526 158V79C746 67 884 84 884 187C884 271 778 299 626 299C492 299 352 278 239 234V276H162ZM472 -15H551V350H472ZM128 9 132 -69 818 -41 814 37ZM830 -76 902 -51C875 -8 844 36 809 80L740 56C774 11 805 -33 830 -76Z" transform="translate(0, 880) scale(1,-1)" /></svg>