<svg xmlns="http://www.w3.org/2000/svg" width="1000" height="1000"><path d="M433 22H580C641 65 667 146 667 221C667 310 603 357 536 357C454 357 398 310 398 237C398 160 457 117 535 117C559 117 580 127 594 138C571 83 514 40 433 22ZM175 311 251 341C235 417 193 538 152 629L81 604C120 511 161 388 175 311ZM377 362 449 391C437 458 414 538 383 613L312 591C344 514 365 429 377 362ZM721 336 787 305C826 383 875 509 914 613L830 646C805 551 759 417 721 336ZM108 -52H890V22H108ZM535 186C497 186 468 204 468 237C468 271 497 292 536 292C568 292 597 269 597 242C597 204 569 186 535 186ZM633 263V765H555V326ZM99 805V729H901V805Z" transform="translate(0, 880) scale(1,-1)" /></svg>