<svg xmlns="http://www.w3.org/2000/svg" width="1000" height="1000"><path d="M313 672 388 700C372 734 340 792 305 831L233 803C264 764 294 714 313 672ZM88 611H919V691H88ZM615 681 683 656C724 705 758 758 783 809L702 835C683 787 654 730 615 681ZM71 386 124 322C281 397 368 475 441 559L366 601C307 529 217 453 71 386ZM403 379 480 330C559 375 660 445 728 502L678 559L658 551H340V472H543C508 442 459 409 403 379ZM361 -63H735C880 -63 923 -27 947 128L866 139C851 28 825 16 736 16H361C260 16 241 25 241 59V145H802V393H300V314H722V223H241V252H161V55C161 -45 209 -63 361 -63Z" transform="translate(0, 880) scale(1,-1)" /></svg>