<svg xmlns="http://www.w3.org/2000/svg" width="1000" height="1000"><path d="M59 660 83 597C120 638 164 658 201 658C233 658 249 603 249 519C249 377 215 362 123 405V324C226 292 329 299 329 519C329 667 290 740 201 740C144 740 93 707 59 660ZM218 122V530H143V122ZM307 131 281 202 47 106 71 33ZM113 297V706H42V297ZM427 449 499 416C573 512 643 629 722 804L642 831C571 664 497 539 427 449ZM333 592H965V672H333ZM816 317V-3H895V378L838 409L816 397C614 383 321 263 321 76C321 -14 378 -61 466 -61C619 -61 714 64 714 232C714 371 675 480 532 480C473 480 426 464 390 442L423 372C449 388 488 400 532 400C596 400 634 339 634 232C634 105 565 19 466 19C422 19 401 42 401 76C401 188 627 304 816 317ZM978 34H734V-46H978Z" transform="translate(0, 880) scale(1,-1)" /></svg>