<svg xmlns="http://www.w3.org/2000/svg" width="1000" height="1000"><path d="M339 -61H806C929 -61 936 6 947 137L877 153C875 52 870 12 809 12H336C232 12 203 22 203 47C203 106 397 206 583 272C733 326 866 382 866 454C866 529 790 565 588 565C435 565 321 547 227 519L249 450C341 482 437 496 588 496C740 496 780 476 780 454C780 409 647 368 512 319C316 248 119 142 119 41C119 -41 174 -61 339 -61ZM729 159 776 216C635 275 467 334 297 372L263 311C429 275 591 215 729 159ZM39 541 81 471C212 549 336 673 422 818L354 843C274 708 162 607 39 541ZM484 553 546 524C603 577 670 654 712 722L663 757L648 752H319V685H598C569 643 521 587 484 553Z" transform="translate(0, 880) scale(1,-1)" /></svg>