<svg xmlns="http://www.w3.org/2000/svg" width="1000" height="1000"><path d="M304 455 34 328 68 249 336 385ZM164 -54C211 -54 248 -30 248 47V719H170V61C170 37 162 24 144 24C124 24 103 28 76 42V-42C106 -51 135 -54 164 -54ZM64 725 76 644C150 654 256 681 329 720L302 796C237 759 140 735 64 725ZM729 -65C864 -65 933 45 933 228C933 399 839 467 689 467C650 467 620 463 594 458C652 518 766 642 860 755L800 805L784 797H422V717H724C665 633 557 512 475 435C461 423 397 391 354 366L402 294C479 347 577 386 676 386C782 386 854 345 854 228C854 101 817 15 723 15C676 15 630 23 584 43V-46C628 -60 677 -65 729 -65ZM331 542H923V622H331ZM317 122 384 69C486 136 566 227 603 321L522 344C489 256 416 177 317 122ZM374 -4 439 -56C581 21 713 156 752 321L674 339C634 190 511 65 374 -4Z" transform="translate(0, 880) scale(1,-1)" /></svg>