<svg xmlns="http://www.w3.org/2000/svg" width="1000" height="1000"><path d="M70 -49 445 72 419 151 43 31ZM59 666H429V745H59ZM218 274 257 198C353 248 415 327 415 432C415 531 371 583 263 583C185 583 119 561 67 531L93 454C142 481 198 501 262 501C308 501 333 479 333 432C333 367 288 310 218 274ZM224 127 306 154C290 219 263 292 238 348L158 323C184 274 210 193 224 127ZM440 651V571H915V651ZM638 823V442H717V823ZM420 -5 470 -76C636 2 896 159 896 316C896 412 836 464 714 464C606 464 531 443 455 416L478 339C554 370 618 384 714 384C781 384 814 361 814 316C814 200 588 65 420 -5ZM881 -81 941 -15C788 116 673 192 532 255L485 195C624 127 731 54 881 -81Z" transform="translate(0, 880) scale(1,-1)" /></svg>