<svg xmlns="http://www.w3.org/2000/svg" width="1000" height="1000"><path d="M99 752 43 698C93 656 151 604 179 568L237 626C207 662 151 713 99 752ZM86 48 157 39 230 473 174 500 155 492H31V412H142ZM216 145 40 40 81 -31 258 83ZM572 146C656 146 707 207 707 448C707 653 627 771 497 771C407 771 348 738 316 699L339 636C371 664 425 691 497 691C560 691 627 614 627 448C627 271 602 226 572 226C550 226 538 276 538 338C538 553 612 709 738 709C817 709 840 611 840 449C840 156 812 22 751 22C705 22 658 31 612 51V-39C660 -52 704 -57 756 -57C875 -57 919 66 919 449C919 666 881 789 738 789C596 789 459 642 459 338C459 219 495 146 572 146ZM294 787V-39H373V787ZM235 439V359H960V439Z" transform="translate(0, 880) scale(1,-1)" /></svg>