<svg xmlns="http://www.w3.org/2000/svg" width="1000" height="1000"><path d="M309 679 385 707C369 741 337 798 303 836L230 808C261 769 291 720 309 679ZM84 619H916V698H84ZM612 689 680 663C721 711 755 764 780 813L699 839C680 792 650 736 612 689ZM280 -83C353 -83 388 -51 388 41C388 131 338 330 244 603L170 577C262 308 308 119 308 44C308 9 297 -5 265 -5C238 -5 210 4 184 17V-69C215 -80 243 -83 280 -83ZM38 -37 109 -73C192 53 234 167 270 294L194 305C159 184 118 79 38 -37ZM58 381H408V458H58ZM400 346 476 322C520 401 557 511 576 600L497 611C478 521 442 417 400 346ZM491 446H925V523H491ZM603 25 675 -4C731 44 804 117 848 164L788 215L772 207H649C681 259 708 322 735 412L656 424C629 331 587 238 526 159L590 118L606 130H708C679 93 644 60 603 25ZM941 -98 965 -23C788 19 613 52 445 76L415 2C596 -24 768 -58 941 -98ZM508 356V280H905V356Z" transform="translate(0, 880) scale(1,-1)" /></svg>