<svg xmlns="http://www.w3.org/2000/svg" width="1000" height="1000"><path d="M310 670 385 698C368 735 336 798 301 840L228 812C261 769 291 715 310 670ZM79 604H921V684H79ZM612 678 680 652C721 706 756 763 782 818L700 844C681 792 651 730 612 678ZM247 76V288H167V60C167 -41 214 -62 362 -62H738C868 -62 907 -11 929 141L843 155C830 42 813 18 736 18H363C265 18 247 33 247 76ZM682 205C784 205 829 274 845 508L781 526L765 515H155V436H755C745 318 716 285 669 285C574 285 508 292 433 303V219C507 210 582 205 682 205Z" transform="translate(0, 880) scale(1,-1)" /></svg>