<svg xmlns="http://www.w3.org/2000/svg" width="1000" height="1000"><path d="M949 483V563H608V483ZM273 511 337 456C443 569 515 673 591 820L513 848C446 713 368 603 273 511ZM270 235 331 171C487 301 701 561 787 720L725 763L710 755H488V675H665C597 561 427 357 270 235ZM471 398V318H804C797 242 788 219 758 219C698 219 653 227 605 242V156C656 146 704 139 768 139C853 139 874 215 886 391L823 407L809 398ZM523 75V239H444V68C444 -39 486 -61 581 -61H819C918 -61 949 -10 966 146L886 160C876 34 861 19 805 19H588C533 19 523 31 523 75ZM112 769 56 715C107 674 166 622 194 586L252 645C222 680 165 730 112 769ZM98 75 169 65 251 493 195 521 176 512H33V433H160ZM244 175 45 67 84 -5 285 112Z" transform="translate(0, 880) scale(1,-1)" /></svg>