<svg xmlns="http://www.w3.org/2000/svg" width="1000" height="1000"><path d="M308 708 385 736C369 766 339 815 306 848L233 820C263 786 291 744 308 708ZM79 657H921V736H79ZM612 721 682 695C721 737 753 782 777 825L697 851C678 811 649 762 612 721ZM91 -10 131 -85C574 -14 670 161 670 488H589C589 178 498 47 91 -10ZM79 164H923V243H79ZM222 284H493V356H222ZM865 -87 924 -21C862 28 757 85 656 126L605 63C705 22 806 -36 865 -87ZM222 381H493V452H222ZM801 425 879 401C901 442 911 468 911 493C911 572 810 606 583 606C416 606 267 582 171 548V585H91V415H171V476C280 507 433 527 583 527C774 527 826 511 826 489C826 473 820 456 801 425Z" transform="translate(0, 880) scale(1,-1)" /></svg>