<svg xmlns="http://www.w3.org/2000/svg" width="1000" height="1000"><path d="M557 -80C673 -80 711 10 711 121C711 239 640 368 552 474L487 423C551 354 632 216 632 121C632 57 615 -1 551 -1C521 -1 489 5 461 14V-71C491 -77 524 -80 557 -80ZM181 72 230 1C263 20 293 45 332 74C378 73 397 54 411 -1L551 80L524 141L439 98C434 118 417 133 395 142C437 191 479 245 513 301L448 338C372 220 277 112 181 72ZM210 328 245 254C391 312 570 407 641 506L568 545C516 469 345 378 210 328ZM929 -16 982 54C872 121 723 187 542 256L514 183C685 118 825 55 929 -16ZM626 273 651 200C750 233 822 257 906 307L861 378C785 332 724 305 626 273ZM349 476H809V556H349ZM414 687 493 713C478 751 454 800 427 840L351 817C376 778 401 725 414 687ZM223 619H936V699H223ZM659 683 732 664C757 709 788 776 808 823L723 844C710 798 683 731 659 683ZM76 752V-1H154V752Z" transform="translate(0, 880) scale(1,-1)" /></svg>