<svg xmlns="http://www.w3.org/2000/svg" width="1000" height="1000"><path d="M346 440 37 313 68 233 376 369ZM193 -69C237 -69 271 -48 271 20V701H193V40C193 16 185 3 172 3C146 3 121 7 86 21V-57C123 -66 157 -69 193 -69ZM67 707 80 627C165 636 287 663 370 702L344 779C270 742 155 718 67 707ZM901 94 975 125C956 197 917 303 882 382L810 356C846 278 884 168 901 94ZM818.5 692.5Q817 695 818.5 692.5Q820 690 818.5 692.5ZM383 526V446H921V526ZM685 -68C805 -68 817 37 817 185C817 295 774 352 662 352C564 352 472 345 379 328L399 253C492 270 571 275 660 275C717 275 741 236 741 179C741 71 725 5 673 5C643 5 612 7 577 18V-62C609 -67 643 -68 685 -68ZM334 -14 400 -76C553 28 610 177 643 460L563 466C539 201 477 81 334 -14ZM481 550 553 584C533 641 493 724 455 785L387 754C424 693 463 608 481 550ZM613 494H691V841H613ZM744 580 812 550C845 603 889 689 921 761L846 792C822 724 777 636 744 580Z" transform="translate(0, 880) scale(1,-1)" /></svg>