<svg xmlns="http://www.w3.org/2000/svg" width="1000" height="1000"><path d="M128 763 72 709C123 666 181 613 210 575L268 634C238 670 181 723 128 763ZM113 41 183 31 269 477 212 505 193 496H46V416H178ZM263 146 59 31 99 -42 304 83ZM316 698H918V778H316ZM704 -72C776 -72 812 -31 812 52L813 738H734L733 67C733 27 724 6 696 6C668 6 637 12 607 24V-58C635 -68 666 -72 704 -72ZM944 333 959 415C795 441 568 442 285 414V339C564 364 792 357 944 333ZM505 738H426V-65H505Z" transform="translate(0, 880) scale(1,-1)" /></svg>