<svg xmlns="http://www.w3.org/2000/svg" width="1000" height="1000"><path d="M77 54 130 -16C407 66 556 215 610 327L522 350C477 246 360 128 77 54ZM489 -82C542 -82 587 -74 646 -53V33C587 8 545 -5 505 -5C483 -5 472 -1 472 21V175H393V4C393 -57 424 -82 489 -82ZM884 -27 937 41C844 88 728 143 628 181L580 118C680 78 793 23 884 -27ZM119 203H894V279H119ZM496 702 575 721C560 763 533 811 506 849L430 829C455 792 484 741 496 702ZM813 545 891 518C913 566 923 597 923 625C923 710 818 750 587 750C417 750 263 720 164 681V733H84V536H164V613C276 647 433 669 587 669C782 669 836 648 836 618C836 600 831 581 813 545ZM161 561V482H839V561ZM341 386 417 407C403 474 372 574 345 646L270 626C297 556 326 453 341 386ZM575 403 648 384C674 447 706 546 730 626L653 646C634 567 602 468 575 403ZM244 420V341H756V420Z" transform="translate(0, 880) scale(1,-1)" /></svg>