<svg xmlns="http://www.w3.org/2000/svg" width="1000" height="1000"><path d="M308 716 385 744C370 770 341 814 308 843L234 815C264 785 291 748 308 716ZM79 671H921V750H79ZM612 731 683 704C721 742 752 781 776 819L695 845C677 810 649 767 612 731ZM243 -80C305 -80 333 -44 333 16V428H253V24C253 3 244 -4 229 -4C203 -4 170 2 135 16V-67C167 -75 199 -80 243 -80ZM57 52 513 128 497 204 41 132ZM289 372 308 295C417 310 505 359 505 445C505 530 438 565 348 565C302 565 264 556 236 545C270 574 296 593 339 621L256 667C163 585 111 525 89 474C69 430 66 373 95 317L177 328C155 371 156 410 169 438C192 461 263 486 320 486C388 486 423 473 423 445C423 405 375 384 289 372ZM59 212H485V291H59ZM801 280C885 280 909 326 910 574L850 592L834 580H541V501H828C828 379 821 359 781 359C752 359 719 362 682 368V285C721 281 757 280 801 280ZM526 -9 564 -83 759 -8 722 63 629 31V418H551V37C551 7 536 -4 526 -9ZM887 -73 959 -25C907 55 817 157 723 230L666 175C759 100 836 7 887 -73Z" transform="translate(0, 880) scale(1,-1)" /></svg>