<svg xmlns="http://www.w3.org/2000/svg" width="1000" height="1000"><path d="M806 442C886 442 925 468 938 581L859 587C852 532 841 521 806 521C585 521 419 656 396 837H315C339 599 547 442 806 442ZM126 338H874V417H126ZM102 531 145 454C364 480 673 528 846 644L779 704C616 596 307 550 102 531ZM92 657 902 711 891 789 81 737ZM81 -10 126 -82C506 -2 540 133 540 306H458C458 150 446 65 81 -10ZM872 -85 927 -21C818 35 693 91 584 133L540 70C651 26 774 -31 872 -85ZM92 150H914V229H92Z" transform="translate(0, 880) scale(1,-1)" /></svg>