<svg xmlns="http://www.w3.org/2000/svg" width="1000" height="1000"><path d="M450 391C498 391 552 420 552 473V608C667 647 786 702 868 757L808 812L791 807H129V739H691C631 706 558 675 473 649V485C473 468 460 454 439 454C395 454 348 461 303 477V405C351 394 391 391 450 391ZM91 454 160 428C205 492 237 564 257 628L184 646C167 586 131 511 91 454ZM832 426 908 448C879 518 839 595 805 652L734 626C768 573 804 498 832 426ZM55 99H133V199C182 250 248 272 304 272C349 272 373 254 373 221C373 158 332 152 257 169V93C373 76 451 101 451 221C451 309 392 349 304 349C244 349 183 328 133 274V331H55ZM210 -13H288V422H210ZM51 -6 66 -83 442 -23 427 54ZM458 300 484 227C549 258 640 283 742 283C815 283 848 266 848 233C848 173 794 168 699 186V107C833 91 928 114 928 233C928 323 862 363 742 363C629 363 524 332 458 300ZM644 -21H720V437H644ZM449 -1 457 -79 883 -44 875 34ZM868 -92 941 -67C925 -14 905 40 883 94L811 69C833 15 851 -40 868 -92Z" transform="translate(0, 880) scale(1,-1)" /></svg>