<svg xmlns="http://www.w3.org/2000/svg" width="1000" height="1000"><path d="M612 525 688 480C744 585 782 693 811 810L731 825C707 724 666 619 612 525ZM776 533 850 501C880 570 918 675 943 761L875 788L867 776H749V696H839C822 640 798 579 776 533ZM743 59V356H665V55C665 -52 698 -74 782 -74H895C961 -74 982 -23 993 134L914 142C908 28 901 5 866 5H796C752 5 743 15 743 59ZM866 222C939 222 964 268 972 531L909 549L898 539H731V460H892C885 316 876 301 857 301C827 301 798 304 768 314V231C796 225 829 222 866 222ZM307 425C362 426 388 452 388 517V797H310V536C310 512 302 501 282 501C259 501 222 508 182 521V436C221 427 262 424 307 425ZM61 525H618V603H61ZM77 631H602V709H77ZM78 803 89 727C237 723 440 733 581 765L547 838C432 813 232 801 78 803ZM595 369V448C440 415 270 408 168 426C112 436 95 454 91 506L13 498C14 416 64 364 147 349C250 329 436 336 595 369ZM557 497V344H635V497ZM60 -86 623 -36 616 43 52 -7ZM66 250H612V328H66ZM315 108 334 37C497 46 573 69 573 143C573 211 511 238 379 238C264 238 190 224 109 205L126 128C202 146 276 161 379 161C455 161 492 154 492 143C492 129 452 116 315 108ZM320 4 395 35C382 68 359 104 339 131L266 101C287 77 308 36 320 4Z" transform="translate(0, 880) scale(1,-1)" /></svg>