<svg xmlns="http://www.w3.org/2000/svg" width="1000" height="1000"><path d="M320 36V-51C373 -64 437 -70 504 -70C735 -70 893 -6 893 197C893 379 752 442 526 442C480 442 446 439 413 433C505 489 540 565 540 667H460C460 568 400 475 285 412C260 397 233 390 208 381L247 311C329 342 440 365 526 365C696 365 814 325 814 197C814 63 681 8 503 8C428 8 365 18 320 36ZM206 283V207H623V283ZM197 160V81H636V160ZM126 502H206V789H126ZM316 589V509C637 480 834 505 834 663C834 778 697 812 539 812C367 812 268 777 158 721L190 652C281 697 399 734 539 734C673 734 753 705 753 663C753 573 629 552 316 589Z" transform="translate(0, 880) scale(1,-1)" /></svg>