<svg xmlns="http://www.w3.org/2000/svg" width="1000" height="1000"><path d="M235 -72C298 -72 326 -35 326 28V558H245V36C245 15 237 6 221 6C194 6 161 13 125 28V-59C157 -67 191 -72 235 -72ZM44 95 512 191 496 267 27 176ZM283 479 301 401C413 421 503 488 503 585C503 682 430 722 338 722C282 722 238 705 207 684C246 730 285 768 337 810L249 851C153 746 100 670 77 606C57 551 54 489 83 419L166 433C139 489 142 540 157 582C181 611 251 642 310 642C380 642 420 627 420 585C420 530 371 495 283 479ZM46 297H483V377H46ZM812 380C897 380 921 444 922 726L862 744L846 733H542V653H841C841 495 833 459 792 459C760 459 726 465 687 474V389C728 382 765 380 812 380ZM527 3 565 -71 766 22 729 95 630 50V542H552V60C552 24 538 10 527 3ZM901 -58 973 -14C919 85 827 211 730 302L673 250C769 156 848 42 901 -58Z" transform="translate(0, 880) scale(1,-1)" /></svg>