<svg xmlns="http://www.w3.org/2000/svg" width="1000" height="1000"><path d="M467 411C519 412 553 438 553 503V797H473V522C473 498 462 487 434 487C399 487 342 499 281 517V432C341 418 399 410 467 411ZM103 519H897V597H103ZM126 628H874V706H126ZM127 803 145 727C354 723 644 733 844 765L796 838C631 813 347 801 127 803ZM890 359V438C667 405 400 398 256 416C170 427 135 444 130 496L50 488C53 406 107 354 226 339C374 319 662 326 890 359ZM850 487V334H930V487ZM89 -63H911V15H89ZM111 243H889V321H111ZM465 91 493 20C725 29 817 62 817 136C817 204 744 231 556 231C394 231 287 217 171 198L196 121C305 139 410 154 556 154C681 154 733 147 733 136C733 122 677 99 465 91ZM487 -13 562 18C544 51 512 87 482 114L410 84C440 60 470 19 487 -13Z" transform="translate(0, 880) scale(1,-1)" /></svg>