<svg xmlns="http://www.w3.org/2000/svg" width="1000" height="1000"><path d="M364 120H781C882 120 913 157 924 325L845 329C839 210 827 200 778 200H370C318 200 294 205 294 226C294 257 390 308 842 492L799 573L781 566H290V486H621C271 339 211 295 211 223C211 157 249 120 364 120ZM125 565 194 519C275 600 340 712 377 823L298 843C262 735 199 631 125 565ZM271 658H911V737H271ZM928 -57 952 27C654 6 427 7 283 47C196 72 135 133 109 221L31 197C66 76 144 3 253 -26C403 -67 625 -78 928 -57Z" transform="translate(0, 880) scale(1,-1)" /></svg>