<svg xmlns="http://www.w3.org/2000/svg" width="1000" height="1000"><path d="M329 447 39 319 71 240 361 376ZM188 -61C230 -61 263 -40 263 28V707H185V48C185 24 177 11 165 11C141 11 117 15 84 29V-49C120 -58 153 -61 188 -61ZM69 713 81 633C161 642 276 669 354 708L328 784C257 748 151 724 69 713ZM665 -65C707 -65 743 -57 788 -36V52C748 29 716 16 689 16C670 16 665 26 665 48V592H586V33C586 -37 614 -65 665 -65ZM348 3 421 -27C463 139 497 349 513 522L436 533C420 370 388 162 348 3ZM878 -20 956 13C914 213 871 391 823 550L748 522C798 354 837 191 878 -20ZM402 760V680H892V760Z" transform="translate(0, 880) scale(1,-1)" /></svg>