<svg xmlns="http://www.w3.org/2000/svg" width="1000" height="1000"><path d="M880 291 943 330C922 381 879 458 838 515L778 480C815 425 858 346 880 291ZM806 569V833H728V569ZM579 676H958V748H579ZM937 604H598V533H937ZM794 545 726 571C693 502 660 444 626 397C619 388 611 381 602 378L612 308L625 316L894 346L885 412L699 389C732 435 763 484 794 545ZM857 95 885 32C942 49 969 108 969 163C969 238 920 288 817 288C729 288 641 264 577 234L595 161C655 190 742 213 817 213C869 213 890 191 890 163C890 135 876 107 857 95ZM682 153V80H840V153ZM602 13V-62H931V13ZM284 425C337 426 363 452 363 517V797H285V536C285 512 278 501 260 501C240 501 208 508 172 521V436C207 427 244 424 284 425ZM60 525H571V603H60ZM75 631H556V709H75ZM76 803 86 727C221 723 408 733 537 765L506 838C400 813 217 801 76 803ZM550 369V448C407 415 252 408 158 426C109 435 95 454 92 506L13 498C15 416 63 364 139 349C234 329 404 336 550 369ZM512 497V344H590V497ZM60 -86 575 -36 569 43 53 -7ZM65 250H565V328H65ZM293 108 311 37C460 46 533 69 533 143C533 211 473 238 352 238C246 238 179 224 104 205L120 128C190 146 257 161 352 161C419 161 453 154 453 143C453 129 416 116 293 108ZM295 4 370 35C358 68 337 104 318 131L245 101C264 77 283 36 295 4Z" transform="translate(0, 880) scale(1,-1)" /></svg>