<svg xmlns="http://www.w3.org/2000/svg" width="1000" height="1000"><path d="M162 783 105 730C157 686 216 631 246 592L305 650C274 688 215 742 162 783ZM140 40 214 27 321 488 260 519 241 508H56V428H223ZM327 158 75 29 112 -47 365 93ZM716 700 633 720C562 517 438 332 317 193L382 139C506 285 639 493 716 700ZM678 47V-38C867 -93 926 35 926 206C926 357 859 425 750 425C681 425 624 389 580 319V435H502V-33H580V241C642 320 692 343 746 343C810 343 842 289 842 206C842 75 809 -4 678 47ZM361 679H925V759H361Z" transform="translate(0, 880) scale(1,-1)" /></svg>