<svg xmlns="http://www.w3.org/2000/svg" width="1000" height="1000"><path d="M310 672 385 700C369 734 337 792 302 831L230 803C261 764 291 714 310 672ZM84 611H916V691H84ZM612 681 680 656C721 705 755 758 780 809L699 835C680 787 651 730 612 681ZM71 386 124 322C281 397 368 475 441 559L366 601C307 529 217 453 71 386ZM403 379 480 330C559 375 660 445 728 502L678 559L658 551H340V472H543C508 442 459 409 403 379ZM361 -63H735C880 -63 923 -27 947 128L866 139C851 28 825 16 736 16H361C260 16 241 25 241 59V145H802V393H300V314H722V223H241V252H161V55C161 -45 209 -63 361 -63Z" transform="translate(0, 880) scale(1,-1)" /></svg>