<svg xmlns="http://www.w3.org/2000/svg" width="1000" height="1000"><path d="M22 175 84 119C174 234 269 399 336 534L276 572L264 559H52V482H219C180 400 99 271 22 175ZM179 28H255V387H179ZM232 594 291 651C254 689 201 736 150 779L94 727C146 683 199 632 232 594ZM306 129 149 29 187 -39 343 63ZM799 31V816H720V48C720 29 709 14 690 14C653 14 601 24 547 39V-51C604 -60 663 -66 713 -64C761 -62 799 -47 799 31ZM326 553H956V633H326ZM603 187 667 233C621 301 553 387 482 460L420 414C490 340 558 250 603 187Z" transform="translate(0, 880) scale(1,-1)" /></svg>