<svg xmlns="http://www.w3.org/2000/svg" width="1000" height="1000"><path d="M309 689 385 717C369 748 338 801 304 837L231 809C262 772 291 727 309 689ZM84 634H916V713H84ZM612 700 681 674C721 719 754 767 779 814L698 840C679 796 650 744 612 700ZM89 463H645V542H89ZM433 -74C500 -74 542 -36 542 44V505H462V58C462 20 452 0 423 0C403 0 367 6 337 18V-61C363 -70 395 -74 433 -74ZM622 38 663 -39C830 3 908 52 908 166C908 274 822 327 619 327C404 327 206 296 54 255L82 179C222 219 444 248 619 248C766 248 827 216 827 166C827 99 761 60 622 38ZM890 285 957 339C906 398 835 462 760 519L701 469C782 407 839 349 890 285ZM258 505H178V-73H258Z" transform="translate(0, 880) scale(1,-1)" /></svg>