<svg xmlns="http://www.w3.org/2000/svg" width="1000" height="1000"><path d="M226 679 291 719C269 748 229 793 189 825L127 789C163 757 204 711 226 679ZM486 698 559 726C542 761 511 806 475 844L406 817C439 780 471 734 486 698ZM699 710 762 676C803 712 848 760 881 804L807 838C783 799 738 748 699 710ZM818 548 893 526C912 566 920 589 920 608C920 674 818 718 587 718C420 718 265 695 164 665V702H84V542H164V597C276 622 433 640 587 640C782 640 839 624 839 601C839 589 833 576 818 548ZM466 -86C707 -86 897 -29 897 86C897 179 793 216 582 216C512 216 436 211 376 202C415 234 468 298 502 351L414 365C386 310 330 234 272 191L244 183L285 108C360 126 438 138 562 138C727 138 809 131 809 86C809 8 597 -11 466 -11C359 -11 309 -6 309 5C309 16 349 24 404 24C485 24 541 12 555 -36L638 -26C618 43 541 87 405 87C297 87 223 51 223 5C223 -54 298 -86 466 -86ZM280 440 301 367C379 384 486 401 596 401C725 401 771 393 771 365C771 314 705 291 390 313V238C771 212 858 270 858 365C858 446 766 479 596 479C472 479 358 459 280 440ZM463 454 536 418C626 464 701 510 743 543L689 597L666 586H319V507H559C535 490 501 472 463 454ZM102 431 162 375C258 427 375 524 429 614L348 641C294 551 190 471 102 431Z" transform="translate(0, 880) scale(1,-1)" /></svg>