<svg xmlns="http://www.w3.org/2000/svg" width="1000" height="1000"><path d="M310 658 385 686C368 725 335 790 300 834L227 806C260 762 291 706 310 658ZM84 589H916V669H84ZM612 665 679 639C721 695 756 755 783 812L701 838C681 784 651 720 612 665ZM303 178H705V257H303ZM463 219H543V613H463ZM131 440 150 367C226 389 306 399 407 399H731C797 399 828 372 828 313V43C828 15 823 1 795 1C765 1 718 9 668 25V-61C716 -72 761 -77 799 -77C872 -77 908 -46 908 32V322C908 419 858 477 738 477H406C295 477 214 464 131 440ZM178 -80V477H98V-80Z" transform="translate(0, 880) scale(1,-1)" /></svg>