<svg xmlns="http://www.w3.org/2000/svg" width="1000" height="1000"><path d="M58 82 111 12C398 118 551 314 607 461L518 483C472 341 350 183 58 82ZM483 -73C537 -73 583 -65 643 -40V48C582 20 538 6 497 6C475 6 464 12 464 36V251H385V17C385 -47 417 -73 483 -73ZM890 -2 946 66C850 130 731 201 627 252L576 190C679 137 796 65 890 -2ZM101 300H901V378H101ZM574 399 642 449C600 501 533 572 469 627L405 579C467 523 535 450 574 399ZM90 543 165 507C222 600 271 728 296 834L217 850C191 744 143 624 90 543ZM201 655H893V734H201Z" transform="translate(0, 880) scale(1,-1)" /></svg>