<svg xmlns="http://www.w3.org/2000/svg" width="1000" height="1000"><path d="M293 241 352 178C591 299 757 470 829 708L751 726C693 516 536 358 293 241ZM779 -91 814 -18C700 36 582 82 461 118L421 49C543 10 662 -36 779 -91ZM742 72 776 147C691 186 607 219 529 246L489 179C578 146 661 114 742 72ZM335 632 406 588C474 647 541 728 588 803L510 836C471 766 399 683 335 632ZM748 190H863C911 190 938 215 954 327L876 339C869 280 863 268 839 268H769C741 268 731 281 731 306V422H653V282C653 218 687 190 748 190ZM316 433 376 381C458 437 496 476 513 485C590 527 677 540 746 540C816 540 847 529 847 499C847 468 817 452 783 452C739 452 700 463 667 486L625 413C676 386 728 373 783 373C867 373 926 407 926 499C926 596 852 619 746 619C687 619 647 612 603 599C639 642 670 685 702 732L638 772L623 762H483V682H575C507 587 429 514 316 433ZM229 509 150 520C123 352 75 194 29 80L108 46C153 166 202 338 229 509ZM224 31C213 31 209 43 209 71C209 113 238 187 307 293L246 338C173 233 132 141 132 71C132 -1 165 -46 224 -46C299 -46 335 24 335 180C335 342 310 398 229 398C191 398 162 380 143 353L155 280C182 304 210 319 229 319C255 319 256 275 256 180C256 65 237 31 224 31ZM61 470H344V549H61ZM250 585 305 644C258 690 205 732 146 774L95 716C155 674 205 629 250 585Z" transform="translate(0, 880) scale(1,-1)" /></svg>