<svg xmlns="http://www.w3.org/2000/svg" width="1000" height="1000"><path d="M97 334 414 443 387 515 69 412ZM190 395V818H110V395ZM149 686V607H423V686ZM434 416 475 342C656 414 907 549 907 688C907 782 837 825 717 825C610 825 526 809 445 778L469 700C548 732 620 745 717 745C787 745 826 723 826 688C826 586 601 477 434 416ZM889 337 945 402C791 516 676 582 534 638L492 576C631 517 738 454 889 337ZM574 -79C751 -79 816 35 816 183C816 270 758 327 606 327C508 327 410 319 308 305L313 235C415 245 519 251 606 251C686 251 734 232 734 183C734 68 678 -7 560 -7C488 -7 424 -2 364 12V-67C423 -75 484 -79 574 -79ZM660 87 662 159 359 163 356 91ZM387 341 303 348C271 189 213 79 134 -15L207 -55C288 47 352 172 387 341Z" transform="translate(0, 880) scale(1,-1)" /></svg>