<svg xmlns="http://www.w3.org/2000/svg" width="1000" height="1000"><path d="M118 308H198V705H118ZM124 617 162 548C233 589 374 643 567 643C775 643 819 586 819 516C819 416 736 375 604 375C502 375 406 381 304 393V309C406 299 502 296 604 296C808 296 900 384 900 516C900 630 846 722 567 722C338 722 194 660 124 617ZM294 476H700V554H294ZM243 -59C537 -59 570 332 570 838H490C490 376 461 20 243 20C181 20 146 39 146 83C146 130 193 156 279 156C458 156 634 12 924 -63L958 14C647 91 515 235 279 235C157 235 66 185 66 83C66 -15 128 -59 243 -59Z" transform="translate(0, 880) scale(1,-1)" /></svg>