<svg xmlns="http://www.w3.org/2000/svg" width="1000" height="1000"><path d="M405 480 473 441C595 522 717 623 814 727L743 763L727 751H359L358 677H657C603 623 510 546 405 480ZM123 587 174 528C293 606 418 702 511 809L438 842C355 744 242 657 123 587ZM120 439V-63H201V439ZM672 -67C863 -67 904 43 904 217C904 387 864 463 696 463C595 463 507 440 446 400V447H369V-59H446V345C513 374 603 388 696 388C793 388 823 340 823 217C823 103 786 5 672 5C622 5 572 10 517 24V-56C566 -64 618 -67 672 -67ZM419 178H757V252H419Z" transform="translate(0, 880) scale(1,-1)" /></svg>