<svg xmlns="http://www.w3.org/2000/svg" width="1000" height="1000"><path d="M112 750 57 694C107 655 165 607 194 573L251 633C220 666 164 713 112 750ZM101 93 172 85 241 488 186 514 167 507H46V428H152ZM228 183 56 88 96 18 269 121ZM680 103 729 30C846 62 914 133 914 234C914 322 866 393 664 393C452 393 291 294 291 195C291 132 340 85 435 85C576 85 674 186 674 331C674 433 628 486 558 524L505 463C559 436 595 399 595 331C595 221 524 163 435 163C390 163 371 174 371 195C371 244 499 314 664 314C812 314 834 273 834 234C834 179 776 124 680 103ZM948 -54 965 30C701 7 501 12 374 52C302 75 248 139 227 219L152 192C183 78 250 8 344 -20C477 -60 680 -76 948 -54ZM273 584 316 514C420 596 566 624 686 624C789 624 858 609 858 587C858 565 825 546 746 551V472C880 470 938 511 938 587C938 664 834 702 686 702C525 702 360 651 273 584ZM418 443 468 386C600 453 732 609 808 743L735 778C664 648 543 509 418 443ZM250 733H952V811H250ZM518 750H439C438 666 443 583 453 499L525 505C518 588 516 669 518 750Z" transform="translate(0, 880) scale(1,-1)" /></svg>