<svg xmlns="http://www.w3.org/2000/svg" width="1000" height="1000"><path d="M13 173 76 120C149 238 226 406 280 544L219 577L209 563H39V488H173C141 404 76 272 13 173ZM138 24H214V390H138ZM185 603 247 656C215 694 171 743 127 786L69 738C112 693 156 641 185 603ZM248 119 115 25 154 -43 285 53ZM567 24 638 -13C713 53 799 146 799 275C799 354 753 404 686 404C620 404 579 361 579 290C579 220 624 173 699 173C825 173 933 249 933 403C933 522 873 595 739 595C724 595 714 594 703 592C747 630 790 665 838 714H922V794H516V714H733C686 660 640 609 591 564C569 544 546 530 491 488L538 414C597 476 663 516 737 516C824 516 854 460 854 403C854 284 761 250 699 250C672 250 656 266 656 290C656 312 666 328 686 328C711 328 719 304 719 275C719 174 635 74 567 24ZM478 -53 897 -7 881 68 470 28ZM902 -84 976 -49C959 11 916 102 875 170L803 138C842 73 886 -22 902 -84ZM312 490 382 466C424 536 473 649 497 736L431 768L416 760H265V684H391C373 623 348 555 312 490ZM472 331C472 462 406 495 308 510V433C361 420 394 383 394 331C394 212 344 92 255 -2L320 -56C416 56 472 195 472 331Z" transform="translate(0, 880) scale(1,-1)" /></svg>