<svg xmlns="http://www.w3.org/2000/svg" width="1000" height="1000"><path d="M289 445 14 320 47 241 321 375ZM146 -46C193 -46 230 -23 230 54V691H152V68C152 44 144 31 125 31C105 31 84 35 56 49V-34C87 -43 116 -46 146 -46ZM44 699 55 618C131 627 240 654 313 692L287 768C220 732 121 709 44 699ZM588 -68C658 -68 678 -35 678 26V546H599V39C599 18 591 10 577 10C549 9 506 19 466 35V-55C508 -64 545 -68 588 -68ZM291 115 362 77C427 161 468 302 492 414L410 427C393 325 353 196 291 115ZM298 484 372 446C436 546 485 689 514 828L435 840C406 702 355 568 298 484ZM895 68 975 91C951 181 897 326 834 433L758 411C820 301 873 158 895 68ZM421 628H916V708H421Z" transform="translate(0, 880) scale(1,-1)" /></svg>