<svg xmlns="http://www.w3.org/2000/svg" width="1000" height="1000"><path d="M457 123H798C900 123 926 175 939 309L864 317C858 223 845 202 792 202H459C408 202 394 214 394 264V624H314V263C314 150 349 123 457 123ZM596 337 637 266C766 323 820 376 820 463C820 539 768 592 620 593C434 593 260 501 119 395L171 329C307 440 474 514 620 514C715 514 742 491 742 463C742 420 701 379 596 337ZM89 561 161 515C248 598 315 715 354 830L276 847C237 735 169 629 89 561ZM246 667H915V747H246ZM928 -54 952 31C654 8 427 9 283 52C196 78 135 144 109 238L31 216C66 88 144 10 253 -21C403 -64 625 -76 928 -54Z" transform="translate(0, 880) scale(1,-1)" /></svg>