<svg xmlns="http://www.w3.org/2000/svg" width="1000" height="1000"><path d="M102 758 117 680C373 686 675 713 881 747L849 818C665 788 360 761 102 758ZM306 460 374 505C345 554 286 624 229 677L165 636C220 583 278 510 306 460ZM598 510 661 470C710 518 774 596 822 662L750 703C713 640 649 561 598 510ZM120 439V-63H201V439ZM672 -67C863 -67 904 43 904 217C904 387 864 463 696 463C595 463 507 440 446 400V447H369V-59H446V345C513 374 603 388 696 388C793 388 823 340 823 217C823 103 786 5 672 5C622 5 572 10 517 24V-56C566 -64 618 -67 672 -67ZM419 178H757V252H419Z" transform="translate(0, 880) scale(1,-1)" /></svg>