<svg xmlns="http://www.w3.org/2000/svg" width="1000" height="1000"><path d="M121 597 57 496C49 483 42 476 30 472L70 395L98 401H469V481H141L210 597H515V677H27V597ZM162 667 243 695C225 731 192 787 157 830L81 800C114 758 148 704 162 667ZM306 694 371 662C414 712 447 759 477 809L388 835C367 786 340 738 306 694ZM366 293V545H286V344ZM28 65 49 -14 528 94 507 172ZM130 65 194 26C301 89 382 166 382 264C382 329 335 365 262 365C189 365 141 329 141 264C141 198 194 157 273 165C246 131 203 101 130 65ZM262 228C236 228 216 242 216 264C216 286 237 300 262 300C286 300 307 286 307 264C307 242 287 228 262 228ZM591 419V339C840 300 931 384 931 579C931 743 869 811 734 811C619 811 534 763 495 730L538 662C575 695 650 730 734 730C820 730 851 680 851 579C851 422 783 385 591 419ZM460 11 490 -68C687 -10 743 166 743 386V596H664V388C664 227 647 70 460 11ZM812 -69H878C964 -69 975 -7 984 158L906 165C900 35 893 11 860 11H827C800 11 792 18 792 48V253H714V23C714 -49 742 -69 812 -69Z" transform="translate(0, 880) scale(1,-1)" /></svg>