<svg xmlns="http://www.w3.org/2000/svg" width="1000" height="1000"><path d="M128 50 206 21C269 119 327 224 389 373L322 408L310 397H216C251 498 284 651 306 815L228 823C204 648 168 473 109 342L173 305L188 321H276C247 244 192 139 128 50ZM43 538H442V617H43ZM56 25 92 -45 435 130 394 199ZM540 85V448H462V85C462 -32 500 -57 616 -57H827C918 -57 946 1 961 173L880 184C871 47 859 23 804 23H629C555 23 540 34 540 85ZM793 359C869 359 907 431 919 770L859 793L841 781H456V701H838C828 493 810 439 781 439C729 439 684 446 637 460V375C682 365 733 359 793 359Z" transform="translate(0, 880) scale(1,-1)" /></svg>