<svg xmlns="http://www.w3.org/2000/svg" width="1000" height="1000"><path d="M397 688 436 624C509 680 581 708 673 708C751 708 773 670 773 618C773 560 752 501 707 439L768 400C822 475 852 540 852 618C852 738 791 789 673 789C565 789 481 750 397 688ZM263 -38H970V42H263ZM625 32 696 0C785 88 873 193 873 316C873 432 783 472 614 447V369C743 380 793 373 793 316C793 219 717 123 625 32ZM456 6V782H377V6ZM128 752 73 697C125 658 183 610 212 576L269 635C238 669 181 716 128 752ZM114 98 185 87 273 489 216 518 197 510H40V431H179ZM273 197 55 93 92 20 312 133Z" transform="translate(0, 880) scale(1,-1)" /></svg>