<svg xmlns="http://www.w3.org/2000/svg" width="1000" height="1000"><path d="M802 481 857 430C899 462 931 504 931 565C931 653 843 710 583 710C406 710 262 680 152 621V688H78V450H152V565C266 611 418 638 582 638C799 638 851 598 851 565C851 534 836 506 802 481ZM461 530H540V789H461ZM703 557H298V484H703ZM823 827 168 826V754H823ZM458 -86C515 -86 549 -60 549 12V383H469V12C469 -9 461 -15 438 -15C395 -15 327 -7 263 11V-70C323 -82 391 -86 458 -86ZM241 189 310 210C298 243 270 295 241 334L170 316C199 275 231 223 241 189ZM939 98 959 172C738 188 444 189 55 171V101C439 117 734 113 939 98ZM139 413 154 341C376 344 647 362 828 385L792 452C638 433 363 418 139 413ZM688 215 751 195C779 229 815 283 843 329L765 350C747 308 715 250 688 215Z" transform="translate(0, 880) scale(1,-1)" /></svg>