<svg xmlns="http://www.w3.org/2000/svg" width="1000" height="1000"><path d="M162 515 238 488C293 529 348 575 407 638L351 686L340 680H261C287 717 310 768 329 828L254 845C229 776 189 688 138 634L201 607L216 615H286C261 585 220 550 162 515ZM65 729H478V801H65ZM71 504 94 438 459 530 431 595ZM639 545 714 523C759 561 825 621 856 656L806 706L792 702H707C726 739 741 780 756 825L681 843C664 776 640 717 600 659L667 631L678 638H740C715 609 680 578 639 545ZM914 447 934 519C804 553 675 576 553 596L530 526C662 505 788 479 914 447ZM521 729H933V801H521ZM140 243 175 166 206 173H855V249H265C342 322 405 394 457 474L377 501C331 422 247 321 190 263C179 252 162 247 140 243ZM943 33 956 112C736 130 443 130 55 111V37C440 54 737 50 943 33ZM577 9V309H497V15C497 -7 486 -16 466 -17C437 -17 376 -11 308 9V-76C366 -86 418 -90 477 -90C553 -90 577 -55 577 9ZM79 343H922V419H79Z" transform="translate(0, 880) scale(1,-1)" /></svg>