<svg xmlns="http://www.w3.org/2000/svg" width="1000" height="1000"><path d="M622 334 650 256C829 265 913 298 913 393C913 480 806 504 520 504C212 504 86 476 86 385C86 277 239 269 377 269C489 269 549 312 550 393L553 649H473L474 402C474 363 439 347 377 347C282 347 167 355 167 385C167 410 279 425 520 425C735 425 832 417 832 393C832 369 789 340 622 334ZM152 596 186 519 212 527H827V606H283C310 635 346 675 370 707L281 726C258 691 219 642 193 617C179 605 165 599 152 596ZM312 712 390 756C373 783 336 823 301 852L227 812C259 783 292 744 312 712ZM83 672H924V750H83ZM625 741 688 699C725 735 764 779 791 814L706 851C688 819 654 773 625 741ZM142 50H220V127C335 153 489 166 618 166C732 166 803 157 803 139C803 105 691 102 515 116V38C741 27 883 42 883 139C883 218 773 244 618 244C480 244 336 225 220 184V220H142ZM461 -45H540V287H461ZM106 -20 110 -98 816 -71 812 7ZM829 -102 901 -77C874 -37 842 3 806 43L737 19C772 -22 803 -63 829 -102Z" transform="translate(0, 880) scale(1,-1)" /></svg>