<svg xmlns="http://www.w3.org/2000/svg" width="1000" height="1000"><path d="M84 641 147 603C185 667 221 744 251 822L187 851C159 772 122 701 84 641ZM210 -74C314 -74 334 155 334 409C334 603 297 681 193 681C139 681 93 663 66 641L81 570C108 592 149 605 193 605C243 605 259 528 259 409C259 172 239 -3 205 -3C185 -3 165 -1 142 6V-68C165 -73 185 -74 210 -74ZM306 411 286 482C158 385 24 247 24 96C24 21 69 5 100 5C193 5 196 195 195 522L125 521C126 250 116 83 91 83C90 83 88 85 88 90C88 178 187 327 306 411ZM440 837 396 774C442 750 492 720 519 698L565 763C536 785 487 814 440 837ZM412 391 491 379 623 648 556 686 541 677H350V599H511ZM629 502 349 406 377 329 659 431ZM597 301 662 250C775 357 865 454 963 596L893 637L855 588H743C781 652 822 732 861 815L783 847C744 747 704 669 663 603C655 589 642 580 631 573L663 501L680 510H800C747 443 667 362 597 301ZM792 103 818 29C904 54 952 108 953 185C953 267 877 321 707 321C571 321 431 295 330 263L349 189C447 219 588 243 707 243C826 243 871 214 871 184C871 140 841 115 792 103ZM488 172V94H752V172ZM357 12V-68H901V12Z" transform="translate(0, 880) scale(1,-1)" /></svg>