<svg xmlns="http://www.w3.org/2000/svg" width="1000" height="1000"><path d="M310 666 385 694C368 731 336 792 301 833L228 805C261 763 291 711 310 666ZM79 602H921V681H79ZM612 675 680 649C721 701 756 757 782 811L700 837C681 786 651 726 612 675ZM111 422H659C648 373 627 307 609 263L630 212H825C815 52 781 -3 702 -3C640 -3 587 7 536 20V-65C579 -73 640 -80 712 -80C840 -80 890 -23 910 282L848 301L834 291H700C720 346 745 433 758 501H111ZM434 440 356 452C319 243 246 100 45 -33L111 -90C325 63 394 214 434 440Z" transform="translate(0, 880) scale(1,-1)" /></svg>