<svg xmlns="http://www.w3.org/2000/svg" width="1000" height="1000"><path d="M309 682 385 710C369 742 338 795 304 831L231 803C262 766 291 721 309 682ZM79 627H921V706H79ZM612 693 681 667C721 713 754 761 779 808L698 834C679 790 650 738 612 693ZM452 72C527 72 549 107 549 169V410H470V177C470 157 459 148 441 147C414 147 357 156 294 173V86C348 77 397 72 452 72ZM77 209 133 157C214 215 274 298 306 366L230 401C203 337 152 263 77 209ZM863 153 938 194C906 250 833 339 752 405L683 366C762 297 834 209 863 153ZM656 425 706 496C625 527 465 573 363 592L323 521C430 503 573 459 656 425ZM112 -50H888V30H112Z" transform="translate(0, 880) scale(1,-1)" /></svg>