<svg xmlns="http://www.w3.org/2000/svg" width="1000" height="1000"><path d="M312 682 388 710C372 743 341 797 307 834L234 806C265 769 294 722 312 682ZM88 625H919V704H88ZM615 693 684 667C724 713 757 763 782 811L701 837C682 792 653 738 615 693ZM173 -72C288 -72 346 45 346 165C346 257 296 347 177 387L153 313C239 279 269 227 269 165C269 80 234 6 173 6C148 6 133 20 133 54C133 118 201 182 348 270L308 336C158 249 56 160 56 54C56 -30 102 -72 173 -72ZM176 365 235 332C285 387 336 459 365 512L307 556L294 547H82V469H243C226 434 202 395 176 365ZM527 339V257C566 252 610 250 665 250C818 250 906 305 906 419C906 513 835 569 682 569C559 569 445 543 379 516L410 443C471 467 580 490 682 490C773 490 824 461 824 419C824 361 772 327 665 327C615 327 570 331 527 339ZM652 -78C693 -78 730 -72 773 -54V34C728 13 694 2 663 2C644 2 635 10 635 36V212H557V15C557 -52 589 -78 652 -78ZM899 -16 955 44C891 107 810 178 741 228L688 176C757 122 835 51 899 -16ZM696 389 620 419C570 281 473 149 335 57L395 -1C534 93 635 239 696 389Z" transform="translate(0, 880) scale(1,-1)" /></svg>