<svg xmlns="http://www.w3.org/2000/svg" width="1000" height="1000"><path d="M302 440 33 313 67 234 335 369ZM163 -65C210 -65 246 -41 246 36V699H168V50C168 26 161 13 143 13C122 13 102 17 75 31V-53C105 -62 134 -65 163 -65ZM63 706 74 625C149 635 255 661 327 700L300 776C235 739 139 716 63 706ZM503 276H783V356H503ZM603 317H682V840H603ZM392 629 406 557C463 574 524 582 600 582H768C821 582 846 555 846 496V44C846 16 843 2 820 2C795 2 759 8 718 21V-65C757 -72 793 -77 823 -77C890 -77 925 -46 925 32V506C925 603 882 661 776 661H599C515 661 454 649 392 629ZM439 -80V661H360V-80Z" transform="translate(0, 880) scale(1,-1)" /></svg>