<svg xmlns="http://www.w3.org/2000/svg" width="1000" height="1000"><path d="M193 -60C327 -60 382 74 382 230C382 350 353 458 217 525L172 464C281 409 301 326 301 230C301 116 258 20 193 20C159 20 139 49 139 88C139 176 189 263 346 342L311 411C129 328 57 214 57 88C57 -9 111 -60 193 -60ZM70 485 100 415C190 450 286 501 372 568L327 629C253 572 157 517 70 485ZM58 661 89 593C180 626 279 679 367 745L322 808C243 751 145 692 58 661ZM541 483V399C579 392 622 388 676 388C826 388 911 467 911 611C911 727 842 805 692 805C572 805 461 767 396 726L427 654C486 690 593 725 692 725C781 725 829 681 829 611C829 517 780 467 676 467C627 467 583 472 541 483ZM665 -78C705 -78 741 -72 783 -53V38C739 16 705 5 675 5C656 5 647 13 647 40V336H569V19C569 -51 601 -78 665 -78ZM900 15 964 74C901 162 822 262 755 333L694 283C761 208 838 108 900 15ZM708 579 629 598C580 404 486 220 351 91L416 32C551 163 649 369 708 579Z" transform="translate(0, 880) scale(1,-1)" /></svg>