<svg xmlns="http://www.w3.org/2000/svg" width="1000" height="1000"><path d="M219 512 141 528C113 382 64 246 16 147L94 112C141 216 191 365 219 512ZM220 108C208 108 203 119 203 143C203 177 226 231 301 322L241 372C165 282 126 210 126 143C126 75 160 32 220 32C292 32 331 93 331 232C331 374 303 425 222 425C183 425 153 409 133 388L146 314C173 333 202 347 222 347C248 347 251 309 251 232C251 139 233 108 220 108ZM49 477H341V556H49ZM246 576 297 638C249 678 195 714 135 750L87 690C149 653 200 615 246 576ZM365 617 406 552C454 591 552 643 687 643C838 643 860 586 860 516C860 416 809 375 713 375C640 375 570 381 495 393V309C570 299 640 296 713 296C876 296 939 384 939 516C939 630 895 722 687 722C521 722 416 660 365 617ZM489 476H783V554H489ZM463 -60C681 -60 697 332 700 838H621C621 376 602 19 463 19C424 19 403 39 403 83C403 130 432 156 489 156C619 156 732 12 942 -63L974 14C749 91 660 235 489 235C400 235 324 185 324 83C324 -15 378 -60 463 -60Z" transform="translate(0, 880) scale(1,-1)" /></svg>