<svg xmlns="http://www.w3.org/2000/svg" width="1000" height="1000"><path d="M224 618 292 655C270 699 230 763 190 809L125 775C161 730 202 664 224 618ZM484 643 560 670C543 719 512 784 476 838L405 812C437 759 469 693 484 643ZM698 646 764 614C806 666 850 734 883 794L806 826C782 770 737 699 698 646ZM813 415 886 385C909 437 920 470 920 504C920 594 818 638 587 638C416 638 262 606 164 562V621H84V403H164V494C276 533 433 558 587 558C782 558 839 533 839 498C839 476 832 456 813 415ZM253 -78C403 -78 523 5 523 131C523 218 490 300 325 392L264 342C419 251 441 183 441 131C441 58 354 1 253 2C184 3 149 25 149 58C149 161 549 209 724 207V19H592V-60H937V19H804V278L745 301L727 287C511 283 71 243 71 58C71 -26 135 -78 253 -78ZM154 374 186 303C363 336 537 383 707 443L642 508C507 460 315 405 154 374Z" transform="translate(0, 880) scale(1,-1)" /></svg>