<svg xmlns="http://www.w3.org/2000/svg" width="1000" height="1000"><path d="M309 683 385 711C369 745 337 801 303 839L230 811C262 772 291 724 309 683ZM79 625H921V704H79ZM612 694 681 668C721 716 754 767 780 816L699 842C679 796 650 741 612 694ZM136 -47 217 -41C181 55 171 120 187 181C204 248 210 297 176 351L98 338C129 279 131 237 115 185C96 125 100 55 136 -47ZM225 399 262 467C227 487 161 519 111 540L76 476C125 454 191 419 225 399ZM354 342V262H922V342ZM700 407 754 469C681 519 620 557 553 595L501 539C573 496 632 458 700 407ZM395 95V466H316V79C316 -7 356 -53 457 -53H922V27H469C417 27 395 44 395 95Z" transform="translate(0, 880) scale(1,-1)" /></svg>