<svg xmlns="http://www.w3.org/2000/svg" width="1000" height="1000"><path d="M929 483V563H604V483ZM283 510 348 456C449 569 517 673 589 821L511 847C448 712 374 602 283 510ZM280 235 342 171C491 302 695 562 777 722L714 763L700 755H490V675H657C593 562 430 356 280 235ZM474 398V318H789C783 241 774 219 746 219C690 219 647 227 602 242V156C649 146 695 139 755 139C840 139 859 215 871 391L807 407L794 398ZM526 75V239H446V68C446 -39 488 -61 579 -61H804C900 -61 929 -10 946 146L866 160C857 34 842 19 789 19H586C535 19 526 31 526 75ZM140 780 83 727C134 682 193 626 222 587L281 645C250 683 193 738 140 780ZM123 29 194 19 285 484 227 512 208 502H53V422H194ZM280 140 67 18 107 -56 321 77Z" transform="translate(0, 880) scale(1,-1)" /></svg>