<svg xmlns="http://www.w3.org/2000/svg" width="1000" height="1000"><path d="M325 440 33 312 65 233 356 369ZM182 -69C225 -69 258 -48 258 20V701H180V40C180 16 172 3 160 3C136 3 112 7 79 21V-57C115 -66 147 -69 182 -69ZM63 707 75 627C155 636 271 663 349 702L323 779C252 742 145 718 63 707ZM353 599V519H919V599ZM464 610 529 647C508 691 466 753 426 800L365 766C404 719 445 654 464 610ZM598 576H675V841H598ZM736 644 797 610C832 650 879 716 913 771L844 806C818 753 772 687 736 644ZM584 -4V-84C780 -107 894 -68 894 26C894 103 822 141 674 141C563 141 449 110 363 58L417 -8C492 41 592 63 674 63C771 63 807 47 807 24C807 -8 751 -26 584 -4ZM320 168H954V244H320ZM404 287H869V364H404ZM404 403H870V479H404Z" transform="translate(0, 880) scale(1,-1)" /></svg>