<svg xmlns="http://www.w3.org/2000/svg" width="1000" height="1000"><path d="M330 452 26 326 57 246 361 380ZM170 -49C220 -49 257 -25 257 52V704H179V66C179 42 171 29 151 29C128 29 105 33 74 47V-37C107 -46 138 -49 170 -49ZM56 711 69 631C152 640 273 667 354 705L329 782C255 745 142 722 56 711ZM809 31V816H730V48C730 29 719 14 700 14C664 14 613 24 560 39V-51C616 -60 675 -66 723 -64C771 -62 809 -47 809 31ZM356 553H957V633H356ZM619 188 683 233C639 301 573 387 505 460L442 415C510 341 576 251 619 188Z" transform="translate(0, 880) scale(1,-1)" /></svg>