<svg xmlns="http://www.w3.org/2000/svg" width="1000" height="1000"><path d="M644 -60C819 -60 928 66 928 241C928 407 794 473 582 473C550 473 525 471 494 467C609 513 755 576 843 622L800 682L773 674H126V600H628C550 553 413 492 297 443C275 434 168 397 108 370L154 306C268 360 416 404 562 404C726 404 843 358 843 239C843 109 766 12 636 12C575 12 520 20 462 41V-39C518 -53 576 -60 644 -60ZM238 31C346 31 587 226 690 336L621 382C528 273 330 108 258 108C237 108 217 140 210 182L132 166C153 79 178 31 238 31ZM571 75 631 130C571 198 458 289 374 341L319 289C401 238 515 139 571 75ZM332 669 408 693C390 734 356 791 315 841L241 817C281 767 315 710 332 669ZM556 661 627 645C678 698 729 770 764 820L679 843C652 791 600 710 556 661Z" transform="translate(0, 880) scale(1,-1)" /></svg>