<svg xmlns="http://www.w3.org/2000/svg" width="1000" height="1000"><path d="M821 629 899 606C919 649 928 674 928 696C928 768 824 809 593 809C425 809 271 785 171 752V796H89V622H171V690C283 718 439 737 593 737C788 737 843 715 843 689C843 676 837 660 821 629ZM327 554 404 582C389 608 359 654 326 684L253 656C282 625 310 586 327 554ZM84 517H915V585H84ZM590 568 660 541C699 580 730 621 754 660L674 686C656 650 628 605 590 568ZM427 0V-72C677 -94 840 -66 840 32C840 109 735 138 550 138C403 138 250 104 135 48L191 -12C296 45 436 69 550 69C684 69 749 51 749 28C749 -3 655 -22 427 0ZM64 170H936V239H64ZM201 287H799V356H201ZM201 401H802V469H201Z" transform="translate(0, 880) scale(1,-1)" /></svg>