<svg xmlns="http://www.w3.org/2000/svg" width="1000" height="1000"><path d="M309 694 385 722C369 752 339 804 305 838L232 810C262 775 291 731 309 694ZM79 641H921V720H79ZM612 706 681 680C721 724 753 770 778 815L697 841C678 799 650 749 612 706ZM178 -68C299 -68 359 52 359 173C359 267 306 358 182 399L157 325C249 290 281 236 281 173C281 87 244 11 178 11C151 11 135 24 135 56C135 122 207 191 361 281L321 347C165 259 57 163 57 56C57 -31 105 -68 178 -68ZM181 376 242 343C295 399 348 472 379 526L320 571L307 562H82V484H256C237 449 209 409 181 376ZM810 16V611H731V32C731 13 720 -1 701 -1C666 -1 617 9 565 24V-64C620 -73 678 -78 725 -77C772 -76 810 -60 810 16ZM378 401H948V479H378ZM630 123 687 172C644 223 581 288 515 343L460 294C525 238 589 170 630 123Z" transform="translate(0, 880) scale(1,-1)" /></svg>