<svg xmlns="http://www.w3.org/2000/svg" width="1000" height="1000"><path d="M309 681 385 709C369 740 338 794 304 830L231 802C262 765 291 719 309 681ZM84 625H916V704H84ZM612 692 681 666C721 711 754 760 779 807L698 833C679 789 650 736 612 692ZM71 -14 118 -83C381 -2 543 111 689 244L630 303L614 293H449C488 347 539 450 568 596L486 605C460 461 396 341 313 261L367 203L386 214H519C436 140 273 46 71 -14ZM69 179 143 149C180 203 211 279 229 345L151 362C135 299 105 228 69 179ZM874 -84 925 -16C833 37 714 93 613 129L569 64C671 26 780 -27 874 -84ZM106 430H891V508H106ZM837 146 916 170C901 224 874 306 839 368L766 346C799 282 824 199 837 146Z" transform="translate(0, 880) scale(1,-1)" /></svg>