<svg xmlns="http://www.w3.org/2000/svg" width="1000" height="1000"><path d="M225 647 291 686C270 722 230 776 190 816L126 781C162 742 203 686 225 647ZM485 670 559 697C543 739 511 794 476 839L405 813C438 768 470 712 485 670ZM699 676 763 644C804 688 849 745 882 798L806 831C782 783 738 722 699 676ZM815 480 890 454C911 501 920 528 920 555C920 633 818 677 587 677C418 677 264 649 164 612V660H84V471H164V544C276 576 433 598 587 598C782 598 839 577 839 548C839 532 833 515 815 480ZM461 15 535 -29C659 40 732 102 732 194C732 294 655 338 487 338C314 338 220 294 220 210C220 133 281 93 392 93C478 93 533 133 533 188V437H453V218C453 187 430 173 390 173C341 173 302 185 302 210C302 234 351 258 487 258C611 258 650 238 650 194C650 139 589 89 461 15ZM97 -52H880V26H97ZM132 403H841V482H132ZM845 68 903 121C870 160 831 197 787 234L732 182C775 146 812 107 845 68Z" transform="translate(0, 880) scale(1,-1)" /></svg>