<svg xmlns="http://www.w3.org/2000/svg" width="1000" height="1000"><path d="M50 754V674H370V754ZM54 162 381 253 361 328 36 245ZM185 -60C231 -60 269 -39 269 28V638H190V54C190 31 183 18 168 18C137 18 107 25 74 36V-48C112 -56 148 -60 185 -60ZM18 416 78 355C189 432 294 525 378 622L318 672C235 576 132 489 18 416ZM615 -68C685 -68 703 -35 703 26V546H625V39C625 18 617 10 605 10C579 9 539 19 502 35V-55C541 -64 575 -68 615 -68ZM341 114 412 77C472 161 510 302 532 414L451 426C434 324 397 195 341 114ZM347 484 421 447C481 547 526 690 552 829L473 840C447 702 400 568 347 484ZM898 68 977 91C955 181 905 326 847 433L771 411C828 301 877 158 898 68ZM464 628H920V708H464Z" transform="translate(0, 880) scale(1,-1)" /></svg>