<svg xmlns="http://www.w3.org/2000/svg" width="1000" height="1000"><path d="M50 272H127V454C167 521 213 546 259 546C293 546 309 514 309 454C309 349 279 339 225 364V284C318 259 387 286 387 454C387 573 340 625 259 625C210 625 168 602 127 530V618H50ZM177 105H255V755H177ZM51 97 74 20 376 111 353 188ZM426 751V167H505V671C643 681 804 703 917 743L875 821C776 785 594 761 426 751ZM385 -37H947V43H385ZM734 33 802 -10C885 106 923 202 923 329C923 458 876 530 725 530C591 530 504 472 436 405L488 339C558 406 632 450 725 450C799 450 843 416 843 329C843 214 814 145 734 33Z" transform="translate(0, 880) scale(1,-1)" /></svg>