<svg xmlns="http://www.w3.org/2000/svg" width="1000" height="1000"><path d="M23 157 85 99C192 222 307 396 387 539L327 579L312 564H57V486H267C218 398 118 261 23 157ZM211 4H289V385H211ZM273 602 328 662C286 702 224 752 164 797L111 742C172 695 233 642 273 602ZM358 114 175 4 213 -64 394 48ZM346 310 415 270C505 401 586 620 639 810L560 828C512 641 429 432 346 310ZM751 -44 828 -11C788 100 724 253 663 371L590 340C650 220 715 63 751 -44ZM504 488H967V568H504Z" transform="translate(0, 880) scale(1,-1)" /></svg>