<svg xmlns="http://www.w3.org/2000/svg" width="1000" height="1000"><path d="M309 687 385 715C369 747 338 801 304 838L231 810C262 772 291 726 309 687ZM84 630H916V709H84ZM612 698 681 672C721 718 754 767 779 815L698 841C679 796 650 743 612 698ZM53 37 102 -31C377 74 638 222 774 324L707 388L685 372H469C581 423 700 483 817 550L764 615C640 535 486 455 279 370C265 365 246 358 225 355L261 279L304 293H587C482 228 290 127 53 37ZM518 -72C573 -72 622 -64 681 -32V49C619 18 574 2 532 2C509 2 499 6 499 37V180H419V20C419 -45 451 -72 518 -72ZM892 -27 948 40C849 94 747 150 636 201L586 142C694 87 795 31 892 -27ZM379 434 432 498C375 536 297 578 223 612L173 549C251 514 325 473 379 434Z" transform="translate(0, 880) scale(1,-1)" /></svg>