<svg xmlns="http://www.w3.org/2000/svg" width="1000" height="1000"><path d="M309 686 385 714C369 747 337 803 303 841L230 813C262 774 291 727 309 686ZM79 627H921V706H79ZM612 696 681 670C721 718 754 769 780 818L699 844C679 798 650 743 612 696ZM117 28 150 -51 186 -39 788 2 774 78 298 47C376 104 454 166 538 242L449 282C362 194 266 117 184 56C160 39 143 33 117 28ZM814 -76 883 -33C838 37 771 119 689 196L628 153C709 75 768 -10 814 -76ZM66 230H934V309H66ZM138 431H863V510H138Z" transform="translate(0, 880) scale(1,-1)" /></svg>