<svg xmlns="http://www.w3.org/2000/svg" width="1000" height="1000"><path d="M115 769 59 715C110 674 169 623 198 587L255 646C225 681 167 731 115 769ZM99 77 170 67 259 494 201 522 182 513H28V434H166ZM256 181 43 70 81 -3 296 117ZM721 -65C873 -65 952 51 952 227C952 399 844 466 669 466C620 466 584 463 551 458C618 518 754 642 863 755L803 805L784 797H374V717H712C643 633 516 511 421 435C405 422 330 390 281 365L327 292C419 345 536 385 653 385C782 385 871 344 871 227C871 101 824 15 714 15C662 15 610 23 560 43V-46C608 -60 663 -65 721 -65ZM343 115 391 44C527 110 671 219 764 331L695 374C609 262 469 172 343 115ZM660 74 723 127C673 193 579 282 510 333L450 283C518 233 613 137 660 74ZM244 542H946V622H244Z" transform="translate(0, 880) scale(1,-1)" /></svg>