<svg xmlns="http://www.w3.org/2000/svg" width="1000" height="1000"><path d="M55 321H332V401H55ZM86 506H302V584H86ZM86 684H302V761H86ZM215 -70C296 -70 327 -1 327 124C327 251 241 296 128 264V185C211 210 249 189 249 124C249 54 234 9 219 9C209 9 205 18 205 29C205 65 231 122 278 173L225 233C164 177 127 97 127 29C127 -33 162 -70 215 -70ZM38 80 117 59C138 122 168 237 189 344L109 360C94 254 60 142 38 80ZM293 241 352 178C591 299 757 470 829 708L751 726C693 516 536 358 293 241ZM779 -91 814 -18C700 36 582 82 461 118L421 49C543 10 662 -36 779 -91ZM742 72 776 147C691 186 607 219 529 246L489 179C578 146 661 114 742 72ZM335 632 406 588C474 647 541 728 588 803L510 836C471 766 399 683 335 632ZM748 190H863C911 190 938 215 954 327L876 339C869 280 863 268 839 268H769C741 268 731 281 731 306V422H653V282C653 218 687 190 748 190ZM316 433 376 381C458 437 496 476 513 485C590 527 677 540 746 540C816 540 847 529 847 499C847 468 817 452 783 452C739 452 700 463 667 486L625 413C676 386 728 373 783 373C867 373 926 407 926 499C926 596 852 619 746 619C687 619 647 612 603 599C639 642 670 685 702 732L638 772L623 762H483V682H575C507 587 429 514 316 433Z" transform="translate(0, 880) scale(1,-1)" /></svg>