<svg xmlns="http://www.w3.org/2000/svg" width="1000" height="1000"><path d="M58 237H129V450C165 525 207 551 249 551C277 551 293 513 293 443C293 320 267 309 221 338V255C304 227 369 255 369 443C369 574 327 631 249 631C204 631 166 607 129 527V629H58ZM176 46H246V784H176ZM59 32 84 -43 359 59 332 135ZM366 517 418 458C663 537 689 658 691 847H612C613 674 601 592 366 517ZM871 451 935 503C870 560 806 616 756 657L698 606C754 562 816 505 871 451ZM377 745 384 668C571 673 788 693 938 718L920 791C781 764 568 747 377 745ZM385 356H929V433H385ZM437 221H877V298H437ZM696 -7V517H618V-7ZM437 85H877V162H437ZM955 24H359V-53H955Z" transform="translate(0, 880) scale(1,-1)" /></svg>