<svg xmlns="http://www.w3.org/2000/svg" width="1000" height="1000"><path d="M344 449 35 321 66 241 374 377ZM191 -61C235 -61 269 -40 269 28V710H191V48C191 24 183 11 170 11C144 11 119 15 84 29V-49C121 -58 155 -61 191 -61ZM65 716 78 635C163 645 285 672 368 711L342 788C268 751 153 727 65 716ZM457 446 535 417C602 539 657 679 691 815L609 834C577 702 525 563 457 446ZM816 470 894 436C915 483 925 518 925 560C925 657 850 703 692 703C559 703 426 661 339 619L371 540C451 580 576 618 692 618C807 618 841 590 841 555C841 528 834 506 816 470ZM427 460V380H747V258H459V306H380V83C380 -35 418 -60 527 -60H791C896 -60 930 -2 947 171L868 185C857 35 839 20 775 20H532C472 20 459 33 459 83V178H826V460Z" transform="translate(0, 880) scale(1,-1)" /></svg>