<svg xmlns="http://www.w3.org/2000/svg" width="1000" height="1000"><path d="M42 290H118V480C155 546 193 568 235 568C266 568 280 535 280 475C280 367 253 357 207 383V302C290 276 357 304 357 475C357 595 314 648 235 648C191 648 156 627 118 557V641H42ZM159 119H235V780H159ZM46 111 70 34 345 126 320 203ZM522 -54H838C930 -54 958 -8 968 193L889 198C884 40 874 26 830 26H528C485 26 465 38 465 66C465 113 547 186 902 415L855 495L840 485H455V405H735C450 216 384 142 384 64C384 -11 418 -54 522 -54ZM314 482 386 442C451 543 503 684 531 823L452 838C424 699 373 566 314 482ZM439 620H950V700H439Z" transform="translate(0, 880) scale(1,-1)" /></svg>