<svg xmlns="http://www.w3.org/2000/svg" width="1000" height="1000"><path d="M690 -74H768V475H690ZM453 560C268 560 61 366 61 137C61 47 111 -7 175 -7C293 -7 338 147 338 304C338 515 261 589 71 556V483C226 506 258 456 258 296C258 198 229 75 179 75C157 75 144 97 144 137C144 355 319 480 453 480C541 480 567 422 567 320C567 226 528 173 486 173C457 173 444 197 444 237C444 361 573 574 763 574C840 574 870 518 870 467C870 394 829 328 710 273L741 194C879 261 949 324 949 467C949 578 887 656 763 656C537 656 366 404 366 237C366 141 414 91 486 91C568 91 645 164 645 320C645 499 579 560 453 560ZM333 631 377 698C301 745 239 780 169 807L135 741C204 712 263 679 333 631Z" transform="translate(0, 880) scale(1,-1)" /></svg>