<svg xmlns="http://www.w3.org/2000/svg" width="1000" height="1000"><path d="M111 773 54 719C105 676 163 623 192 586L250 644C220 681 163 733 111 773ZM97 54 167 45 246 489 190 516 171 507H36V428H157ZM236 156 47 45 88 -27 278 93ZM257 -53 332 -95C405 29 418 196 418 325V522H949V600H338V327C338 207 319 53 257 -53ZM254 596 317 552C394 650 435 743 459 833L382 852C354 750 315 672 254 596ZM362 675H937V753H362ZM661 217 699 152C848 202 905 238 905 296C905 385 784 406 467 417L459 337C749 328 809 316 809 294C809 266 774 253 661 217ZM463 -14 504 -86C689 -24 869 74 940 129L892 207L877 197C751 219 616 235 454 243L442 164C600 155 705 146 792 130C729 92 607 30 463 -14ZM523 401 555 343C667 393 754 452 823 505L754 564C688 500 609 447 523 401Z" transform="translate(0, 880) scale(1,-1)" /></svg>