<svg xmlns="http://www.w3.org/2000/svg" width="1000" height="1000"><path d="M42 244H119V440C154 507 192 529 233 529C263 529 277 495 277 432C277 322 251 312 205 338V257C288 231 353 259 353 432C353 555 311 608 233 608C189 608 155 587 119 516V603H42ZM157 69H234V745H157ZM46 60 71 -17 342 77 316 154ZM304 716V638H966V716ZM489 516 570 540C551 620 513 747 479 835L403 810C436 724 473 597 489 516ZM691 538 764 516C795 590 837 711 867 811L788 835C765 740 723 617 691 538ZM394 556V478H876V556ZM337 359 359 287C445 327 546 360 690 360C807 360 856 334 856 295C856 227 721 218 477 243V165C762 141 936 144 936 295C936 375 876 438 690 438C523 438 421 402 337 359ZM300 -9 340 -82C645 -4 681 126 681 295H601C601 137 579 64 300 -9ZM921 -87 971 -21C887 34 794 88 714 128L670 63C754 20 847 -35 921 -87Z" transform="translate(0, 880) scale(1,-1)" /></svg>