<svg xmlns="http://www.w3.org/2000/svg" width="1000" height="1000"><path d="M45 269H122V453C161 520 204 543 248 543C281 543 297 511 297 452C297 346 268 336 217 361V281C306 255 374 283 374 452C374 571 328 623 248 623C201 623 162 600 122 530V616H45ZM169 101H246V753H169ZM47 94 71 17 363 107 339 184ZM445 486V406H950V486ZM745 584 808 641C743 707 689 757 629 809L568 759C632 702 685 651 745 584ZM485 136V659H407V126C407 31 445 -19 541 -19H950V61H555C506 61 485 80 485 136Z" transform="translate(0, 880) scale(1,-1)" /></svg>