<svg xmlns="http://www.w3.org/2000/svg" width="1000" height="1000"><path d="M348 142H784C888 142 908 206 920 352L840 359C834 241 826 222 771 222H365C310 222 298 235 298 285V819H218V282C218 171 243 142 348 142ZM395 353 450 302C570 378 706 478 823 584L744 628C638 527 503 424 395 353ZM377 577 435 531C529 595 627 669 730 763L649 808C559 719 463 639 377 577ZM928 -54 952 31C654 8 427 9 283 52C196 78 135 144 109 238L31 216C66 88 144 10 253 -21C403 -64 625 -76 928 -54Z" transform="translate(0, 880) scale(1,-1)" /></svg>