<svg xmlns="http://www.w3.org/2000/svg" width="1000" height="1000"><path d="M94 637 166 595C216 658 263 733 302 810L229 842C191 765 145 695 94 637ZM255 -61C396 -61 409 124 409 409C409 598 385 677 256 677C176 677 110 660 69 639L87 564C130 585 190 597 256 597C324 597 330 525 330 409C330 175 317 17 250 17C222 17 197 22 168 34V-51C196 -58 222 -61 255 -61ZM390 409 361 481C190 387 13 275 13 117C13 48 61 20 106 20C220 20 226 223 230 517L151 518C149 259 133 100 104 100C95 100 92 106 92 117C92 209 232 327 390 409ZM518 631H880V711H518ZM391 466 465 428C522 530 566 674 591 815L514 827C488 686 444 551 391 466ZM803 -53H873C946 -53 966 15 973 209L895 215C891 50 882 27 852 27H809C787 27 779 39 779 74V270C779 384 707 405 629 383V306C680 321 700 297 700 231V73C700 -21 720 -53 803 -53ZM789 641 712 659C652 456 564 226 385 -15L452 -61C633 189 728 436 789 641Z" transform="translate(0, 880) scale(1,-1)" /></svg>