<svg xmlns="http://www.w3.org/2000/svg" width="1000" height="1000"><path d="M274 446 12 321 46 243 307 376ZM139 -45C185 -45 221 -22 221 55V693H144V69C144 45 136 32 118 32C98 32 79 36 52 50V-33C82 -42 110 -45 139 -45ZM42 701 53 620C125 629 229 656 299 694L272 769C209 734 115 711 42 701ZM692 -54C814 -54 898 12 898 149C898 293 790 337 644 337C615 337 591 336 566 332C631 375 693 414 747 459H964V539H294V459H629C587 417 531 374 455 324C439 314 424 306 389 293L418 213C499 242 557 257 634 257C746 257 818 227 818 149C818 58 757 24 684 24C645 24 596 29 537 41V-41C587 -51 637 -54 692 -54ZM351 688H907V768H351Z" transform="translate(0, 880) scale(1,-1)" /></svg>