<svg xmlns="http://www.w3.org/2000/svg" width="1000" height="1000"><path d="M219 555 290 590C269 646 229 728 190 788L121 756C158 698 198 613 219 555ZM477 586 555 611C540 675 508 756 473 826L398 802C431 734 462 649 477 586ZM690 580 758 550C800 617 844 705 877 779L797 809C772 737 729 646 690 580ZM153 461 182 395C284 451 398 485 567 485C749 485 805 450 805 389C805 285 596 271 301 303V223C636 198 884 202 884 389C884 495 820 564 567 564C369 564 238 519 153 461ZM82 -12 127 -82C498 21 550 201 548 389H468C468 209 439 83 82 -12ZM862 -85 921 -23C816 45 692 116 583 171L535 110C645 54 768 -18 862 -85ZM199 206V533H119V206Z" transform="translate(0, 880) scale(1,-1)" /></svg>