<svg xmlns="http://www.w3.org/2000/svg" width="1000" height="1000"><path d="M82 618 153 580C192 641 229 715 260 789L189 818C159 743 122 675 82 618ZM191 -61C321 -61 332 102 332 397C332 582 320 658 189 658C135 658 91 643 60 624L81 549C111 568 148 579 189 579C250 579 255 510 255 397C255 160 245 17 186 17C164 17 147 21 126 27V-54C144 -59 164 -61 191 -61ZM317 398 297 468C159 377 11 263 11 117C11 57 56 27 103 27C215 27 203 208 203 504L126 503C127 260 122 107 96 107C93 107 89 110 89 117C89 199 192 319 317 398ZM630 -80C729 -80 761 10 761 121C761 239 702 368 627 474L561 423C616 354 684 216 684 121C684 57 674 -1 619 -1C594 -1 568 5 543 14V-71C571 -77 599 -80 630 -80ZM307 70 357 1C385 20 411 45 444 74C482 73 492 54 504 -1L621 80L598 141L532 98C528 118 515 133 496 142C531 191 566 245 595 301L528 338C465 220 388 110 307 70ZM331 327 368 255C491 313 642 408 701 507L631 544C588 468 445 377 331 327ZM931 -15 986 53C894 120 769 186 616 255L582 184C726 119 844 56 931 -15ZM681 273 706 200C790 233 850 257 921 307L879 378C815 332 764 305 681 273ZM451 476H838V556H451ZM501 687 578 713C565 751 545 800 522 840L449 817C469 778 490 725 501 687ZM346 619H945V699H346ZM707 683 779 664C799 709 825 776 843 823L760 844C750 798 727 731 707 683Z" transform="translate(0, 880) scale(1,-1)" /></svg>