<svg xmlns="http://www.w3.org/2000/svg" width="1000" height="1000"><path d="M48 233H125V453C163 533 204 562 247 562C278 562 294 522 294 448C294 319 267 307 217 337V254C304 224 371 253 371 448C371 584 327 643 247 643C201 643 164 615 125 530V642H48ZM169 34H246V804H169ZM49 19 75 -58 361 49 334 126ZM473 -78C520 -78 553 -55 553 9V834H475V22C475 8 470 0 458 0C435 0 405 7 373 22V-67C404 -74 438 -78 473 -78ZM367 569H614V645H367ZM633 393 591 455 340 262 385 196ZM753 -78C797 -78 839 -44 839 16V487C885 558 926 650 964 752L902 790L890 781H663V700H865C841 635 805 571 762 521V35C762 16 757 1 743 1C713 0 683 9 654 26V-62C686 -74 714 -78 753 -78ZM961 313 969 399C887 432 779 433 635 398V319C778 350 886 343 961 313Z" transform="translate(0, 880) scale(1,-1)" /></svg>