<svg xmlns="http://www.w3.org/2000/svg" width="1000" height="1000"><path d="M58 759V682H354V759ZM240 717V-56H317V717ZM91 534V207H168V534ZM63 213 91 140 296 227 268 301ZM342 633 383 567C484 613 623 698 717 781L656 835C576 762 443 676 342 633ZM759 475C839 475 870 439 870 389C870 317 828 253 704 199L735 121C878 186 949 249 949 389C949 497 887 555 759 555C526 555 350 396 350 232C350 137 400 89 472 89C556 89 636 161 636 315C636 462 597 579 507 676L452 618C539 514 558 410 558 315C558 222 516 169 472 169C442 169 428 193 428 232C428 353 562 475 759 475ZM684 -81H762V377H684Z" transform="translate(0, 880) scale(1,-1)" /></svg>