<svg xmlns="http://www.w3.org/2000/svg" width="1000" height="1000"><path d="M493 531 569 478C644 583 694 691 732 808L649 827C618 727 565 623 493 531ZM697 533 770 494C809 563 859 668 893 754L828 788L818 776H655V696H781C758 640 727 579 697 533ZM635 59V356H557V55C557 -52 594 -74 691 -74H863C938 -74 961 -23 973 134L892 142C885 28 875 5 828 5H710C648 5 635 15 635 59ZM824 222C887 222 929 268 939 531L881 549L867 539H631V460H858C849 316 835 301 813 301C772 301 734 304 694 314V231C731 225 774 222 824 222ZM37 631V551H493V631ZM107 454 183 477C174 558 152 671 129 756L54 739C75 657 95 535 107 454ZM242 494 322 507C313 597 298 713 278 811L200 800C217 704 235 582 242 494ZM354 461 430 451C452 540 476 669 493 771L411 787C397 686 374 556 354 461ZM194 -19V227H115V-19ZM359 161C420 161 460 207 470 414L407 428L390 419H70V339H385C374 249 368 239 346 239C308 239 268 242 230 250V169C271 163 308 161 359 161ZM79 5 105 -72 484 28 461 105Z" transform="translate(0, 880) scale(1,-1)" /></svg>