<svg xmlns="http://www.w3.org/2000/svg" width="1000" height="1000"><path d="M309 680 385 708C369 741 337 798 303 836L230 808C262 769 291 721 309 680ZM79 621H921V700H79ZM612 690 681 664C721 712 755 764 780 813L699 839C680 792 650 737 612 690ZM717 -62H834C918 -62 935 -12 942 141L861 145C857 35 852 17 816 17H729C703 17 693 23 693 38C693 57 700 88 788 474L720 498L699 488H105V409H691C620 111 614 66 614 28C614 -36 637 -62 717 -62ZM61 -12 119 -73C403 64 441 264 481 637L401 643C361 269 326 114 61 -12ZM547 145 584 222C483 255 304 298 159 327L122 257C270 224 452 180 547 145Z" transform="translate(0, 880) scale(1,-1)" /></svg>