<svg xmlns="http://www.w3.org/2000/svg" width="1000" height="1000"><path d="M30 101 84 44C101 67 118 98 140 136C147 150 160 150 167 147C175 143 180 134 189 99L262 156L249 202L210 184C207 200 198 213 176 220C199 280 220 344 238 415L176 428C135 278 82 162 30 101ZM262 -70C346 -70 377 40 377 183C377 322 335 491 270 617L209 567C266 474 300 304 300 182C299 102 289 0 258 0C235 0 209 7 175 21V-59C200 -67 228 -70 262 -70ZM443 124 486 191C426 227 345 263 246 300L218 232C311 197 387 163 443 124ZM307 406 335 343C384 370 419 390 460 429L417 488C382 452 353 431 307 406ZM94 776V697H466V776ZM319 740 246 752C219 589 158 522 62 442L113 377C216 470 289 552 319 740ZM448 102 501 44C520 67 538 98 561 137C570 151 584 151 591 148C599 144 605 133 614 95L694 157L680 202L636 181C633 199 623 213 600 220C626 280 648 344 668 415L606 429C561 279 504 163 448 102ZM696 -70C782 -70 816 42 816 183C816 322 771 492 702 619L642 568C701 474 738 304 738 182C737 102 726 0 693 0C668 0 641 8 607 22V-59C632 -67 661 -70 696 -70ZM909 22 967 74C902 159 814 243 707 332L665 276C766 193 849 113 909 22ZM726 359 768 310C826 351 869 383 919 445L865 493C820 435 784 399 726 359ZM511 776V697H916V776ZM754 740 680 752C652 587 585 521 481 440L530 375C642 469 722 550 754 740Z" transform="translate(0, 880) scale(1,-1)" /></svg>