<svg xmlns="http://www.w3.org/2000/svg" width="1000" height="1000"><path d="M99 -82H173V568C223 594 288 603 391 603H740C803 603 829 575 829 521V23C829 5 821 -5 801 -5C761 -5 713 0 652 17V-60C707 -70 759 -73 815 -73C871 -73 903 -43 903 29V517C903 634 849 677 740 677H398C284 677 220 659 173 629V669H99ZM385 260 448 225C534 295 647 390 709 454L649 509L629 499H407C458 585 510 710 547 832L473 847C434 718 369 563 299 468L349 412L375 424H568C524 374 458 316 385 260ZM746 134 766 206C595 253 426 287 264 313L238 244C412 214 580 179 746 134Z" transform="translate(0, 880) scale(1,-1)" /></svg>