<svg xmlns="http://www.w3.org/2000/svg" width="1000" height="1000"><path d="M151 775 95 722C146 678 205 624 234 586L293 644C262 682 204 734 151 775ZM133 46 204 35 302 486 244 515 225 505H56V426H208ZM303 158 72 36 110 -38 343 94ZM566 388H648V835H566ZM321 609 363 539C464 599 591 640 715 640C819 640 855 609 855 585C855 556 847 533 829 508L908 477C927 510 938 540 938 586C938 673 854 720 715 720C564 720 428 669 321 609ZM324 -9 371 -83C581 -8 876 141 876 298C876 402 811 444 678 444C554 444 463 418 375 384L400 307C487 345 568 364 678 364C753 364 793 343 793 298C793 189 535 58 324 -9ZM880 -89 941 -20C753 105 609 180 438 242L393 178C563 112 695 40 880 -89Z" transform="translate(0, 880) scale(1,-1)" /></svg>