<svg xmlns="http://www.w3.org/2000/svg" width="1000" height="1000"><path d="M58 759V681H374V759ZM254 717V-56H332V717ZM95 534V207H173V534ZM64 213 92 139 310 227 283 301ZM358 635 400 568C498 614 634 699 726 781L665 835C587 762 456 677 358 635ZM763 474C840 474 870 439 870 389C870 318 829 253 710 199L741 122C879 187 949 249 949 389C949 498 887 555 763 555C537 555 366 398 366 234C366 140 414 91 486 91C568 91 645 162 645 315C645 462 607 579 521 677L465 619C549 515 567 411 567 315C567 223 528 171 486 171C457 171 444 195 444 234C444 355 573 474 763 474ZM690 -81H768V377H690Z" transform="translate(0, 880) scale(1,-1)" /></svg>