<svg xmlns="http://www.w3.org/2000/svg" width="1000" height="1000"><path d="M309 695 385 723C369 754 338 807 305 842L232 814C262 778 291 733 309 695ZM79 641H921V720H79ZM612 707 681 681C721 725 754 773 778 818L698 844C679 802 650 750 612 707ZM811 382 890 353C912 404 923 436 923 468C923 555 818 600 587 600C416 600 264 569 166 527V583H82V371H166V457C278 494 433 519 587 519C782 519 836 495 836 462C836 442 830 421 811 382ZM181 336H819V416H181ZM169 178H831V258H169ZM540 -88V479H460V-88ZM63 21H937V101H63Z" transform="translate(0, 880) scale(1,-1)" /></svg>