<svg xmlns="http://www.w3.org/2000/svg" width="1000" height="1000"><path d="M7 205 68 151C143 259 223 414 279 540L220 578L209 565H33V490H164C133 414 68 294 7 205ZM137 65H212V401H137ZM185 598 245 652C213 687 167 732 123 772L65 723C110 681 156 633 185 598ZM250 159 114 68 151 0 285 92ZM332 -33 413 -62C486 73 502 187 507 362H428C421 183 409 98 332 -33ZM735 -68C879 -68 898 88 898 222C898 302 874 368 720 368C654 368 574 360 485 345L487 268C586 284 652 288 720 288C803 288 819 265 819 222C819 135 811 9 727 9C684 9 639 15 599 25V-57C639 -63 681 -68 735 -68ZM769 119 772 196 532 202 529 124ZM407 401C521 401 594 467 594 620C594 726 560 807 431 807C378 807 326 794 293 776L312 698C343 714 390 727 433 727C491 727 515 691 515 620C515 531 480 481 408 481C385 481 368 493 368 515C368 616 645 736 794 736C866 736 898 707 898 645C898 555 861 511 773 511C740 511 684 521 625 539V454C682 440 727 431 774 431C922 431 978 519 978 645C978 754 928 816 794 816C608 816 289 676 289 515C289 444 334 401 407 401ZM579 349 651 314C714 393 757 478 798 587L719 610C681 501 638 419 579 349Z" transform="translate(0, 880) scale(1,-1)" /></svg>