<svg xmlns="http://www.w3.org/2000/svg" width="1000" height="1000"><path d="M308 715 385 743C370 768 340 813 308 842L234 814C264 783 291 746 308 715ZM84 669H916V748H84ZM612 729 683 702C721 740 752 780 776 818L696 844C677 809 649 766 612 729ZM619 329C755 329 785 400 785 476C785 560 714 597 577 597C440 597 311 587 177 570L189 487C320 505 449 518 575 518C678 518 705 503 705 476C705 437 686 407 614 407C573 407 529 410 483 417V336C528 331 569 329 619 329ZM103 331 155 266C373 355 517 483 562 659L483 677C438 500 306 415 103 331ZM644 19V-67C683 -72 723 -75 771 -75C877 -75 922 3 922 105C922 217 817 268 624 268C258 268 55 171 55 51C55 -20 105 -69 196 -69C349 -69 439 42 439 172C439 273 383 346 245 384L212 311C327 280 359 233 359 172C359 72 296 11 196 11C155 11 135 25 135 51C135 111 287 189 624 189C756 189 842 167 842 105C842 58 820 3 767 3C722 3 684 9 644 19ZM433 -2 492 -64C630 28 758 148 803 324L725 345C680 178 565 79 433 -2Z" transform="translate(0, 880) scale(1,-1)" /></svg>