<svg xmlns="http://www.w3.org/2000/svg" width="1000" height="1000"><path d="M225 636 291 674C270 712 230 769 190 811L126 776C162 735 203 677 225 636ZM485 659 559 686C543 730 511 788 476 835L405 809C438 762 470 704 485 659ZM699 665 763 633C805 678 849 739 882 793L806 826C782 776 738 712 699 665ZM815 460 889 433C910 481 920 510 920 538C920 619 818 663 587 663C418 663 263 635 164 596V647H84V450H164V528C276 562 433 584 587 584C782 584 839 563 839 532C839 514 833 496 815 460ZM331 41 408 7C490 58 599 136 661 194L601 256L580 248H453C507 322 534 398 553 517L473 526C456 403 418 312 319 216L370 160L392 169H500C455 126 398 83 331 41ZM833 -84 867 -9C610 34 382 64 155 86L113 12C359 -14 597 -45 833 -84ZM92 245 167 209C226 258 264 340 287 407L211 433C191 368 151 292 92 245ZM665 242 732 210C777 258 833 335 874 399L791 433C762 374 708 292 665 242Z" transform="translate(0, 880) scale(1,-1)" /></svg>