<svg xmlns="http://www.w3.org/2000/svg" width="1000" height="1000"><path d="M79 579 151 548C204 628 251 740 274 830L199 844C174 752 129 648 79 579ZM187 673H887L886 747H187ZM578 319H654L656 700H580ZM344 319H420V700H344ZM120 279H881V354H120ZM151 468H851V542H151ZM43 69 88 0C359 108 497 201 579 294L514 342C442 267 311 170 43 69ZM506 -81C561 -81 608 -71 669 -46V37C607 5 562 -9 520 -9C497 -9 486 -2 486 25V236H407V5C407 -57 439 -81 506 -81ZM901 -8 946 59C847 107 724 161 617 200L578 138C684 97 804 43 901 -8Z" transform="translate(0, 880) scale(1,-1)" /></svg>