<svg xmlns="http://www.w3.org/2000/svg" width="1000" height="1000"><path d="M58 274H134V467C171 535 211 558 254 558C284 558 299 524 299 462C299 352 272 342 224 368V287C309 261 376 289 376 462C376 584 333 637 254 637C208 637 172 615 134 543V631H58ZM176 100H253V773H176ZM61 91 85 14 365 108 339 185ZM272 -7 328 -70C565 87 731 275 841 432L772 474L756 457H559C683 556 785 668 882 785L809 828C717 707 599 585 438 455C428 447 413 438 398 432L445 362L477 379H703C633 292 492 134 272 -7ZM729 -58H844C918 -58 943 4 949 147L870 154C869 51 857 22 832 22H727C702 22 699 28 699 56V279L620 251V55C620 -29 641 -58 729 -58ZM507 598 573 645C530 704 472 769 417 820L354 775C412 721 467 659 507 598Z" transform="translate(0, 880) scale(1,-1)" /></svg>