<svg xmlns="http://www.w3.org/2000/svg" width="1000" height="1000"><path d="M199 -6 254 -70C519 87 704 273 828 430L760 474L741 457H512C652 556 766 666 874 783L802 829C698 708 566 587 385 457C374 449 357 440 340 434L385 362L421 379H681C604 292 446 135 199 -6ZM704 -58H840C918 -58 944 4 949 147L870 154C869 51 856 22 828 22H701C673 22 669 28 669 56V279L590 251V55C590 -29 612 -58 704 -58ZM464 596 527 646C480 705 415 770 353 821L292 773C357 719 419 657 464 596ZM100 752V-11H180V752Z" transform="translate(0, 880) scale(1,-1)" /></svg>