<svg xmlns="http://www.w3.org/2000/svg" width="1000" height="1000"><path d="M33 275H110V468C148 538 191 562 234 562C266 562 282 528 282 465C282 354 254 343 203 370V289C291 262 359 290 359 465C359 588 314 642 234 642C188 642 149 619 110 545V637H33ZM155 99H233V780H155ZM36 90 60 13 348 107 323 184ZM350 634H964V714H715L670 839L593 821L630 714H350ZM672 491C579 491 491 466 408 426L438 347C518 392 595 411 672 411C744 411 763 382 763 334C763 194 586 24 498 24C461 24 437 55 437 115C437 165 460 205 519 205C613 205 741 44 923 -77L978 -15C795 99 657 283 519 283C420 283 357 222 357 115C357 16 406 -56 498 -56C629 -56 843 149 843 334C843 443 798 491 672 491ZM367 385 436 333C520 428 595 546 658 666L583 696C523 576 448 470 367 385ZM918 375 985 422C939 495 888 558 834 613L768 571C823 514 873 449 918 375Z" transform="translate(0, 880) scale(1,-1)" /></svg>