<svg xmlns="http://www.w3.org/2000/svg" width="1000" height="1000"><path d="M34 762V685H332V762ZM217 721V-32H294V721ZM67 542V224H145V542ZM39 230 67 157 273 243 245 316ZM369 749 382 669C535 676 759 705 903 759L865 835C746 789 527 758 369 749ZM334 402H959V482H334ZM607 193H686V745H607ZM738 246C615 246 488 199 362 109L411 42C521 120 636 165 738 165C797 165 830 143 830 104C830 54 785 11 708 -13L749 -85C840 -52 909 11 909 104C909 204 840 246 738 246Z" transform="translate(0, 880) scale(1,-1)" /></svg>