<svg xmlns="http://www.w3.org/2000/svg" width="1000" height="1000"><path d="M307 735 385 763C370 786 342 826 309 852L236 824C264 797 290 763 307 735ZM79 695H921V773H79ZM611 751 683 725C720 758 751 793 774 828L694 854C676 823 648 784 611 751ZM87 536H913V614H561L513 694L429 677L467 614H87ZM579 75C768 75 903 98 903 201C903 320 736 342 281 320L288 241C673 258 823 240 823 201C823 166 720 153 579 153C471 153 351 160 201 173V92C349 80 467 75 579 75ZM450 -81C518 -81 552 -62 552 6V210H472V23C472 4 461 -8 434 -8C393 -8 338 -2 282 14V-66C332 -73 389 -81 450 -81ZM469 299 538 254C650 298 757 345 854 394L793 472L773 467H143V388H676C619 359 549 332 469 299Z" transform="translate(0, 880) scale(1,-1)" /></svg>