<svg xmlns="http://www.w3.org/2000/svg" width="1000" height="1000"><path d="M36 116 94 47C200 141 315 276 396 386L335 435L320 424H68V344H254C211 283 122 188 36 116ZM216 -25H295V267H216ZM364 82 183 -8 221 -81 401 10ZM104 464 184 487C171 555 147 653 126 726L48 708C71 635 94 533 104 464ZM193 387H272V801H193ZM281 483 357 464C376 528 402 630 420 716L340 735C326 653 300 550 281 483ZM472 493H867V573H472ZM464 291H875V371H464ZM709 -78V661H631V-78ZM399 89H941V169H399ZM817 569 894 537C921 592 932 628 932 666C932 764 862 807 703 807C592 807 489 777 412 741L444 663C512 699 608 724 703 724C822 724 850 697 850 661C850 636 841 613 817 569Z" transform="translate(0, 880) scale(1,-1)" /></svg>