<svg xmlns="http://www.w3.org/2000/svg" width="1000" height="1000"><path d="M307 725 385 753C370 777 341 819 309 846L235 818C264 789 290 754 307 725ZM79 683H921V762H79ZM611 740 683 714C720 749 751 786 775 822L695 848C676 815 648 775 611 740ZM508 630H124V387C124 263 116 96 29 -28L100 -66C192 64 203 256 203 387V551H932V630H594L541 717L465 702ZM238 504V425H909V504ZM388 540V265H468V540ZM238 390V311H909V390ZM662 540V265H742V540ZM639 178 561 222C477 153 330 89 186 41L242 -16C389 34 547 105 639 178ZM602 -5V-81C819 -99 887 -54 887 14C887 86 813 131 689 131C606 131 534 116 479 87V94H399V-68H479V37C556 42 619 53 686 53C764 53 802 38 802 14C802 -12 761 -21 602 -5ZM225 168H895V245H225Z" transform="translate(0, 880) scale(1,-1)" /></svg>