<svg xmlns="http://www.w3.org/2000/svg" width="1000" height="1000"><path d="M272 447 29 321 64 243 307 378ZM148 -53C193 -53 228 -29 228 48V703H151V62C151 38 144 25 127 25C109 25 90 29 66 43V-41C94 -50 121 -53 148 -53ZM58 710 69 630C136 639 232 666 298 704L270 780C211 744 126 721 58 710ZM712 427C827 427 850 520 850 606C850 696 796 742 681 742C571 742 473 730 371 712L379 629C479 647 582 662 679 662C750 662 771 642 771 606C771 551 756 505 705 505C674 505 641 509 606 518V435C641 429 673 427 712 427ZM304 413 361 354C530 464 642 614 678 832L599 844C564 625 462 517 304 413ZM720 28V-59C752 -66 784 -69 823 -69C918 -69 952 20 952 143C952 271 872 337 713 337C435 337 262 203 262 64C262 -12 307 -63 386 -63C514 -63 577 58 577 214C577 328 530 425 434 479L386 419C465 374 498 297 498 214C498 94 455 17 386 17C356 17 341 35 341 64C341 148 460 257 713 257C811 257 873 227 873 143C873 85 856 9 815 9C780 9 751 16 720 28ZM556 0 619 -55C726 59 825 203 860 421L782 434C748 227 659 101 556 0Z" transform="translate(0, 880) scale(1,-1)" /></svg>