<svg xmlns="http://www.w3.org/2000/svg" width="1000" height="1000"><path d="M619 596C755 596 785 639 785 704C785 780 713 805 576 805C443 805 311 798 177 786L186 705C317 718 448 727 576 727C679 727 705 719 705 704C705 685 686 674 614 674C573 674 529 676 483 680V601C528 598 569 596 619 596ZM104 616 154 548C372 611 517 709 562 832L483 855C438 732 307 675 104 616ZM644 397V314C683 311 723 309 771 309C877 309 922 372 922 447C922 539 817 573 624 573C249 573 55 513 55 415C55 353 105 315 196 315C349 315 439 384 439 494C439 585 382 627 245 653L212 580C327 558 359 532 359 494C359 424 296 393 196 393C155 393 135 401 135 415C135 445 287 494 624 494C756 494 842 483 842 447C842 414 820 386 767 386C722 386 684 390 644 397ZM434 381 491 317C629 382 758 471 803 594L725 620C680 504 566 439 434 381ZM649 -91C743 -91 787 -74 804 -44C842 21 851 110 848 184C845 281 782 307 604 307C500 307 391 300 273 288L275 217C408 232 512 236 605 236C707 236 762 239 766 182C769 123 758 65 729 11C720 -6 698 -17 638 -17C585 -17 536 -12 479 2V-80C538 -87 595 -91 649 -91ZM88 -28 157 -85C287 33 311 151 319 302H234C226 159 212 71 88 -28ZM690 34V105L344 106V36ZM699 125 700 196 362 197 361 127Z" transform="translate(0, 880) scale(1,-1)" /></svg>