<svg xmlns="http://www.w3.org/2000/svg" width="1000" height="1000"><path d="M96 632 167 591C215 653 261 728 299 804L226 836C189 759 145 690 96 632ZM248 -62C387 -62 400 119 400 406C400 594 378 672 248 672C173 672 111 655 71 635L89 560C131 580 186 592 248 592C315 592 321 521 321 406C321 171 309 16 242 16C216 16 192 20 165 32V-53C191 -59 216 -62 248 -62ZM381 405 353 477C188 384 16 272 16 116C16 48 64 20 109 20C223 20 225 219 229 513L150 514C149 258 135 99 106 99C98 99 95 105 95 116C95 206 229 324 381 405ZM596 -59H842C937 -59 956 5 967 179L887 187C882 46 876 21 830 21H612C560 21 550 34 550 84V802H471V81C471 -30 495 -59 596 -59ZM589 182 649 138C733 237 830 367 914 506L836 543C761 410 665 274 589 182ZM576 476 638 436C705 520 774 618 847 740L768 777C705 661 636 556 576 476Z" transform="translate(0, 880) scale(1,-1)" /></svg>