<svg xmlns="http://www.w3.org/2000/svg" width="1000" height="1000"><path d="M225 644 291 682C270 720 230 775 190 816L126 781C162 741 203 684 225 644ZM485 667 559 694C543 737 511 793 476 840L405 814C438 768 470 710 485 667ZM699 673 763 640C804 685 849 745 882 798L806 831C782 782 738 720 699 673ZM815 471 889 445C911 492 920 521 920 548C920 628 818 672 587 672C418 672 264 644 164 606V656H84V462H164V538C276 571 433 593 587 593C782 593 839 572 839 542C839 524 833 507 815 471ZM328 -57H749C874 -57 912 -30 925 133L845 143C835 42 826 21 755 21H339C264 21 225 30 225 58C225 90 255 117 790 412L747 479L730 474H146V396H585C186 171 140 125 140 56C140 -19 198 -57 328 -57ZM675 142 720 211C590 256 416 303 259 333L226 261C379 234 547 185 675 142Z" transform="translate(0, 880) scale(1,-1)" /></svg>