<svg xmlns="http://www.w3.org/2000/svg" width="1000" height="1000"><path d="M131 728 75 673C127 634 186 585 215 551L272 611C241 644 183 691 131 728ZM115 72 186 61 278 464 220 493 201 485H38V405H183ZM280 173 54 66 91 -7 319 108ZM457 36V-51C503 -64 559 -70 617 -70C819 -70 957 -6 957 197C957 379 834 442 637 442C599 442 570 440 543 434C621 490 654 565 654 667H576C576 568 524 478 427 414C405 399 378 391 354 381L393 311C465 342 561 365 637 365C779 365 878 325 878 197C878 63 767 8 616 8C551 8 496 18 457 36ZM358 283V207H721V283ZM350 160V81H732V160ZM453 589V509C734 480 909 505 909 663C909 778 788 812 648 812C481 812 381 777 275 724L312 655C400 700 512 734 648 734C762 734 829 705 829 663C829 583 724 552 453 589Z" transform="translate(0, 880) scale(1,-1)" /></svg>