<svg xmlns="http://www.w3.org/2000/svg" width="1000" height="1000"><path d="M308 708 385 736C370 763 340 811 307 842L233 814C263 782 291 742 308 708ZM79 659H921V738H79ZM612 721 682 695C721 735 753 777 777 819L696 845C678 807 649 760 612 721ZM147 -45 228 -38C188 68 178 141 197 208C219 282 224 336 186 396L108 382C143 317 145 270 125 212C102 148 107 68 147 -45ZM235 452 275 520C239 542 173 577 123 600L85 538C135 513 201 475 235 452ZM405 518 444 449C513 490 581 512 668 512C740 512 761 491 761 459C761 420 741 376 698 328L761 282C811 338 840 391 840 459C840 556 782 591 668 591C565 591 485 563 405 518ZM282 -47H946V32H282ZM621 25 692 -18C776 48 860 126 860 229C860 326 774 355 611 336V258C733 267 780 263 780 229C780 163 708 93 621 25ZM465 -4V577H386V-4Z" transform="translate(0, 880) scale(1,-1)" /></svg>