<svg xmlns="http://www.w3.org/2000/svg" width="1000" height="1000"><path d="M79 678 107 618C153 666 205 688 246 688C290 688 310 623 310 520C310 351 262 337 154 385V303C274 267 390 273 390 520C390 678 352 770 246 770C176 770 117 732 79 678ZM261 66V535H184V66ZM369 81 342 154 67 43 93 -32ZM135 270V731H61V270ZM931 791H430V470C430 323 425 115 372 -22L450 -60C502 92 508 317 508 470V714H931ZM891 -51 955 -1C904 78 826 173 740 255L682 205C768 120 840 28 891 -51ZM672 469 732 418C794 475 852 541 903 623L838 663C794 590 737 520 672 469ZM657 28V680H580V39C580 9 569 -3 561 -9L579 -77L757 -13L741 57ZM530 306H930V381H530Z" transform="translate(0, 880) scale(1,-1)" /></svg>