<svg xmlns="http://www.w3.org/2000/svg" width="1000" height="1000"><path d="M51 720V640H343V720ZM110 510 144 444C160 463 184 481 203 481C228 481 236 457 236 416V-42H315V424C315 510 281 560 225 560C184 560 146 540 110 510ZM68 232 145 228C159 399 183 529 234 672L160 705C108 551 80 416 68 232ZM264 53 319 -11C529 132 729 337 834 474L759 523L742 503H565C682 589 783 675 881 777L812 828C718 722 593 612 435 499C425 492 410 483 394 479L440 405L472 423H686C623 346 452 175 264 53ZM628 -65C672 -65 712 -56 759 -24V60C712 29 678 13 646 13C628 13 620 17 620 48V259H541V31C541 -37 568 -65 628 -65ZM902 -5 963 54C888 127 810 201 726 271L670 222C752 149 828 73 902 -5ZM505 614 568 667C525 718 466 775 410 820L348 769C408 722 464 668 505 614Z" transform="translate(0, 880) scale(1,-1)" /></svg>