<svg xmlns="http://www.w3.org/2000/svg" width="1000" height="1000"><path d="M84 641 147 603C185 667 221 744 251 822L187 851C159 772 122 701 84 641ZM210 -74C314 -74 334 155 334 409C334 603 297 681 193 681C139 681 93 663 66 641L81 570C108 592 149 605 193 605C243 605 259 528 259 409C259 172 239 -3 205 -3C185 -3 165 -1 142 6V-68C165 -73 185 -74 210 -74ZM306 411 286 482C158 385 24 247 24 96C24 21 69 5 100 5C193 5 196 195 195 522L125 521C126 250 116 83 91 83C90 83 88 85 88 90C88 178 187 327 306 411ZM438 833 397 776C443 752 493 722 520 700L563 760C534 781 484 811 438 833ZM418 391 488 379 621 648 557 682 543 672H350V604H521ZM632 498 352 402 374 331 656 434ZM614 312 659 250C772 357 862 454 960 596L896 637L858 583H740C777 647 821 732 860 815L785 847C745 747 705 669 665 603C656 589 644 580 632 573L663 504L680 514H809C758 447 683 371 614 312ZM795 103 818 29C904 54 950 108 950 185C950 267 875 320 707 320C571 320 433 295 332 262L345 187C445 219 586 243 707 243C828 243 872 214 872 184C872 140 841 115 795 103ZM488 170V94H752V170ZM357 12V-66H901V12Z" transform="translate(0, 880) scale(1,-1)" /></svg>