<svg xmlns="http://www.w3.org/2000/svg" width="1000" height="1000"><path d="M309 683 385 711C369 745 337 801 303 839L230 811C262 772 291 724 309 683ZM79 625H921V704H79ZM612 694 681 668C721 716 754 767 780 816L699 842C679 796 650 741 612 694ZM136 -50 217 -44C181 52 171 117 187 178C204 245 210 294 176 348L98 335C129 276 131 234 115 182C96 122 100 52 136 -50ZM225 396 262 464C227 484 161 516 111 537L76 473C125 451 191 416 225 396ZM419 78V409H340V74C340 -34 385 -59 511 -59H770C886 -59 920 -2 939 150L862 159C849 41 834 20 767 20H511C436 20 419 30 419 78ZM736 219C841 219 867 300 883 527L822 543L805 533H314V454H799C791 323 762 296 723 296C656 296 603 306 544 317V233C603 225 663 219 736 219Z" transform="translate(0, 880) scale(1,-1)" /></svg>