<svg xmlns="http://www.w3.org/2000/svg" width="1000" height="1000"><path d="M106 758 51 703C102 663 160 614 188 579L246 638C215 672 159 721 106 758ZM92 83 163 73 245 489 188 517 169 508H27V429H153ZM239 181 39 76 78 4 279 118ZM605 744H285V470C285 325 277 121 203 -24L274 -59C353 93 361 317 361 470V666H972V744H690L648 845L571 827ZM514 404V324C818 293 918 357 918 469C918 550 865 609 676 609C551 609 451 580 390 546L419 473C480 507 565 531 676 531C787 531 839 512 839 469C839 404 762 365 514 404ZM369 -57H952V21H369ZM670 16 743 -29C794 18 827 79 827 150C827 238 764 279 656 279C553 279 483 242 483 166C483 92 531 53 603 53C667 53 703 95 703 149V480H623V174C623 144 617 133 600 133C579 133 563 145 563 166C563 191 591 204 656 204C714 204 747 184 747 150C747 102 719 59 670 16Z" transform="translate(0, 880) scale(1,-1)" /></svg>