<svg xmlns="http://www.w3.org/2000/svg" width="1000" height="1000"><path d="M474 85V448H395V85C395 -32 435 -57 559 -57H807C909 -57 940 1 957 173L874 184C865 47 851 23 788 23H569C489 23 474 34 474 85ZM770 357C852 357 892 432 905 770L845 793L826 781H387V701H822C813 493 790 437 758 437C695 437 646 446 592 460V375C644 364 700 357 770 357ZM148 766 92 712C145 671 204 619 233 583L290 642C259 677 201 728 148 766ZM130 74 202 63 303 490 244 519 225 510H46V430H207ZM309 184 64 67 101 -8 347 119Z" transform="translate(0, 880) scale(1,-1)" /></svg>