<svg xmlns="http://www.w3.org/2000/svg" width="1000" height="1000"><path d="M321 453 37 326 70 247 353 383ZM184 -52C226 -52 258 -31 258 37V712H180V57C180 33 173 20 161 20C137 20 114 24 82 38V-40C117 -49 149 -52 184 -52ZM67 719 79 638C157 648 270 675 346 713L319 789C251 753 147 729 67 719ZM352 660V580H920V660ZM597 823V442H676V823ZM674 468C556 468 452 434 365 388L403 315C487 363 568 388 674 388C756 388 798 363 798 315C798 189 571 22 489 22C452 22 424 54 424 109C424 156 455 193 513 193C607 193 713 36 889 -77L950 -7C780 94 646 272 513 272C416 272 344 210 344 109C344 17 405 -56 489 -56C606 -56 882 144 882 315C882 409 811 468 674 468Z" transform="translate(0, 880) scale(1,-1)" /></svg>