<svg xmlns="http://www.w3.org/2000/svg" width="1000" height="1000"><path d="M307 737 385 765C370 787 342 825 310 850L236 822C265 795 290 764 307 737ZM79 699H921V777H79ZM611 754 684 727C720 759 751 792 774 826L694 852C676 822 648 785 611 754ZM701 667V372H781V667ZM606 409V329H913V409ZM184 348 272 314C381 376 469 414 469 489C469 549 412 583 347 583C279 583 222 550 222 489C222 431 259 401 312 394C275 376 240 367 184 348ZM347 458C319 458 293 467 293 489C293 509 319 521 347 521C375 521 397 509 397 489C397 467 375 458 347 458ZM436 509V704H359V559ZM93 652V574H584V652ZM75 358 92 282 592 353 575 429ZM108 1 141 -78 178 -71 794 -46 780 30 308 12C380 41 454 70 532 109L441 153C353 99 256 54 172 18C147 7 135 4 108 1ZM825 -100 887 -46C841 -1 772 52 688 103L634 49C717 -2 778 -57 825 -100ZM55 96H944V174H55ZM129 221H871V299H129Z" transform="translate(0, 880) scale(1,-1)" /></svg>