<svg xmlns="http://www.w3.org/2000/svg" width="1000" height="1000"><path d="M58 236H136V449C173 526 215 554 259 554C290 554 306 516 306 445C306 320 279 309 228 338V255C316 226 383 255 383 445C383 577 339 635 259 635C213 635 174 608 136 526V633H58ZM180 44H258V790H180ZM60 30 85 -47 373 57 347 134ZM739 -69C872 -69 939 63 939 253C939 473 833 538 685 538C633 538 593 530 562 520C612 581 669 679 715 805L636 829C598 703 543 602 463 500C451 485 421 471 381 450L418 379C495 423 580 457 679 457C790 457 860 413 860 253C860 119 816 12 733 12C692 12 651 20 611 37V-53C649 -63 693 -69 739 -69ZM359 620H916V698H359ZM462 288H792V363H462ZM672 127V429H597L598 147C598 130 593 120 583 120C561 120 533 126 499 142V61C528 53 559 48 594 48C647 48 672 75 672 127ZM450 165H804V240H450Z" transform="translate(0, 880) scale(1,-1)" /></svg>