<svg xmlns="http://www.w3.org/2000/svg" width="1000" height="1000"><path d="M319 458 34 329 67 250 350 387ZM181 -58C223 -58 255 -37 255 31V727H177V51C177 27 170 14 158 14C134 14 111 18 79 32V-46C114 -55 147 -58 181 -58ZM64 732 76 651C154 661 267 688 343 728L317 804C248 767 144 743 64 732ZM635 692H334V613H635ZM525 463V842H447V463ZM616 497H350V419H616ZM620 338H349V259H620ZM525 59V306H447V59ZM632 160 322 40 351 -40 662 90ZM607 -6 661 -78C803 14 904 213 916 452L862 475L847 463H669V384H832C813 234 761 89 607 -6ZM885 -76 950 -18C897 80 804 207 717 305L660 255C746 154 834 19 885 -76ZM749 847V445H827V847ZM663 692V613H920V692Z" transform="translate(0, 880) scale(1,-1)" /></svg>