<svg xmlns="http://www.w3.org/2000/svg" width="1000" height="1000"><path d="M310 446 33 318 66 238 342 376ZM166 -70C214 -70 250 -46 250 31V716H172V45C172 21 165 8 146 8C125 8 104 12 76 26V-58C107 -67 136 -70 166 -70ZM63 722 74 641C150 651 260 678 334 717L308 794C241 756 140 733 63 722ZM738 -77C780 -77 810 -55 810 14L811 810H732L730 24C730 8 725 2 710 2C684 2 655 8 619 23V-65C658 -73 698 -77 738 -77ZM455 -82H534V810H455ZM317 224H950V304H317ZM334 535H933V615H334Z" transform="translate(0, 880) scale(1,-1)" /></svg>