<svg xmlns="http://www.w3.org/2000/svg" width="1000" height="1000"><path d="M319 457 33 329 65 250 351 386ZM169 -55C218 -55 255 -31 255 46V722H177V60C177 36 169 23 150 23C128 23 107 27 77 41V-43C109 -52 139 -55 169 -55ZM63 728 75 647C153 657 267 684 344 723L318 799C248 762 143 738 63 728ZM295 -7 352 -70C579 87 740 276 846 433L777 474L760 457H574C694 556 792 668 885 785L812 828C724 707 609 585 455 455C445 447 431 438 416 432L465 362L495 379H710C643 292 507 134 295 -7ZM738 -58H846C919 -58 943 4 949 147L870 154C870 51 858 22 834 22H736C712 22 709 28 709 56V279L630 251V55C630 -29 651 -58 738 -58ZM522 598 587 645C546 704 490 769 438 820L374 775C430 721 483 659 522 598Z" transform="translate(0, 880) scale(1,-1)" /></svg>