<svg xmlns="http://www.w3.org/2000/svg" width="1000" height="1000"><path d="M429 -9V-90C695 -111 828 -81 828 15C828 90 744 122 547 122C406 122 258 91 147 38L202 -31C303 21 438 44 547 44C693 44 737 29 737 11C737 -15 664 -29 429 -9ZM80 138H919V216H80ZM201 247H798V324H201ZM201 352H798V429H201ZM494 740 570 758C558 789 535 824 512 852L438 834C459 807 483 769 494 740ZM817 621 894 599C914 640 922 666 922 684C922 757 818 792 587 792C420 792 266 767 165 736V776H83V616H165V671C277 697 433 714 587 714C782 714 837 698 837 675C837 663 832 649 817 621ZM161 647V568H839V647ZM330 509 404 530C394 577 372 644 352 697L279 677C298 628 319 556 330 509ZM591 524 662 505C682 551 705 621 722 678L648 697C633 640 611 570 591 524ZM244 542V463H756V542Z" transform="translate(0, 880) scale(1,-1)" /></svg>