<svg xmlns="http://www.w3.org/2000/svg" width="1000" height="1000"><path d="M68 233H146V442C190 528 244 562 294 562C331 562 350 522 350 448C350 319 318 307 254 337V254C357 224 429 253 429 448C429 584 377 643 294 643C240 643 191 610 146 519V642H68ZM207 34H285V804H207ZM65 19 88 -58 422 49 397 126ZM579 123H734C785 123 817 167 817 231C817 291 793 359 754 424L683 390C727 322 738 275 738 239C738 217 729 203 706 203H591C565 203 557 217 557 253C557 350 576 438 620 580L546 603C499 458 478 355 478 232C478 163 513 123 579 123ZM842 251 918 236C927 291 935 355 935 450C935 561 888 602 805 602C741 602 691 584 643 544L675 475C714 508 761 522 805 522C845 522 858 496 858 439C858 368 851 302 842 251ZM432 723 450 648C628 674 789 714 898 758L862 830C770 789 604 747 432 723ZM919 -54 934 26C756 4 623 8 539 50C487 76 452 141 437 233L357 216C379 88 432 6 500 -25C594 -68 730 -76 919 -54Z" transform="translate(0, 880) scale(1,-1)" /></svg>