<svg xmlns="http://www.w3.org/2000/svg" width="1000" height="1000"><path d="M53 96 333 223 303 288 24 174ZM153 -63H231V808H153ZM63 388H302V466H63ZM47 599H318V677H47ZM631 -22 688 -80C833 48 930 287 941 656L875 676L861 663H720V583H858C844 298 783 116 631 -22ZM488 -70C568 -70 657 33 657 192C657 343 567 397 411 366L417 287C556 314 579 271 579 192C579 92 529 9 488 9C468 9 456 24 456 52C456 93 498 170 595 268L537 325C430 218 376 126 376 52C376 -23 415 -70 488 -70ZM313 217 385 176C424 243 473 350 510 450L436 478C403 380 352 279 313 217ZM896 -74 964 -25C910 97 816 262 728 388L669 350C755 220 845 47 896 -74ZM456 481H534V830H456ZM340 615H649V693H340ZM636 456 711 432C741 533 767 655 781 812L702 819C689 664 668 555 636 456ZM625 518H364V440H625Z" transform="translate(0, 880) scale(1,-1)" /></svg>