<svg xmlns="http://www.w3.org/2000/svg" width="1000" height="1000"><path d="M334 463 37 336 69 256 364 392ZM189 -44C232 -44 265 -23 265 45V723H186V65C186 41 179 28 167 28C142 28 117 32 84 46V-32C120 -41 153 -44 189 -44ZM67 730 80 649C161 658 279 685 358 724L332 801C260 764 151 740 67 730ZM726 -70C862 -70 930 64 930 252C930 471 823 537 671 537C617 537 576 529 543 519C594 580 653 678 700 804L621 828C583 702 526 601 444 499C431 484 400 470 359 449L396 378C475 422 563 456 665 456C778 456 852 413 852 252C852 118 805 11 720 11C678 11 635 19 595 36V-54C634 -64 678 -70 726 -70ZM336 619H908V697H336ZM441 287H780V362H441ZM657 126V428H581L582 146C582 129 577 119 567 119C544 119 516 125 482 141V60C511 52 543 47 578 47C632 47 657 74 657 126ZM429 164H793V239H429Z" transform="translate(0, 880) scale(1,-1)" /></svg>