<svg xmlns="http://www.w3.org/2000/svg" width="1000" height="1000"><path d="M929 483V563H604V483ZM283 510 348 456C449 569 517 673 589 821L511 847C448 712 374 602 283 510ZM280 235 342 171C491 302 695 562 777 722L714 763L700 755H490V675H657C593 562 430 356 280 235ZM474 398V318H789C783 241 774 219 746 219C690 219 647 227 602 242V156C649 146 695 139 755 139C840 139 859 215 871 391L807 407L794 398ZM526 75V239H446V68C446 -39 488 -61 579 -61H804C900 -61 929 -10 946 146L866 160C857 34 842 19 789 19H586C535 19 526 31 526 75ZM140 779 83 727C134 681 193 625 222 586L281 643C250 682 193 737 140 779ZM120 21 194 9 286 480 226 509 207 499H53V419H191ZM280 133 67 9 107 -65 321 69Z" transform="translate(0, 880) scale(1,-1)" /></svg>