<svg xmlns="http://www.w3.org/2000/svg" width="1000" height="1000"><path d="M97 621 169 579C218 639 265 712 304 785L232 819C194 744 148 678 97 621ZM257 -48C398 -48 411 129 411 403C411 584 380 660 258 660C179 660 113 643 72 624L89 549C133 568 192 580 258 580C321 580 332 513 332 403C332 179 319 30 252 30C224 30 199 35 171 47V-38C199 -44 224 -48 257 -48ZM392 401 363 473C189 383 16 278 16 126C16 58 63 30 109 30C223 30 228 223 233 506L154 507C152 260 136 109 106 109C98 109 95 115 95 126C95 213 234 323 392 401ZM363 446 425 399C516 525 633 577 735 577C825 577 876 530 876 436C876 275 734 277 518 316V236C777 193 955 202 955 436C955 595 870 657 735 657C608 657 467 602 363 446ZM626 -69H705V830H626Z" transform="translate(0, 880) scale(1,-1)" /></svg>