<svg xmlns="http://www.w3.org/2000/svg" width="1000" height="1000"><path d="M29 268H106V465C141 532 177 553 217 553C247 553 260 519 260 457C260 347 234 336 191 363V282C271 255 337 283 337 457C337 579 295 633 217 633C174 633 142 612 106 542V627H29ZM142 94H219V769H142ZM34 85 58 8 324 102 298 179ZM618 -80C722 -80 755 10 755 121C755 239 693 368 615 474L549 423C606 354 677 216 677 121C677 57 666 -1 609 -1C582 -1 555 5 529 14V-71C557 -77 587 -80 618 -80ZM282 70 332 1C361 20 388 45 422 74C462 73 475 54 487 -1L610 80L586 141L515 98C511 118 497 133 477 142C514 191 551 245 581 301L514 338C448 220 366 110 282 70ZM307 327 343 255C473 313 630 408 693 507L622 544C576 468 427 377 307 327ZM937 -15 992 53C895 120 764 186 604 255L572 184C722 119 846 56 937 -15ZM674 273 699 200C787 233 850 257 924 307L882 378C815 332 761 305 674 273ZM432 476H838V556H432ZM486 687 563 713C550 751 528 800 505 840L431 817C452 778 475 725 486 687ZM321 619H950V699H321ZM702 683 774 664C795 709 823 776 841 823L758 844C747 798 723 731 702 683Z" transform="translate(0, 880) scale(1,-1)" /></svg>