<svg xmlns="http://www.w3.org/2000/svg" width="1000" height="1000"><path d="M308 695 385 723C370 752 340 800 306 832L233 804C263 770 291 730 308 695ZM79 646H921V725H79ZM612 709 682 682C721 723 753 766 777 808L696 834C678 796 649 748 612 709ZM140 500 179 430C247 464 382 508 567 508C768 508 809 468 809 411C809 329 730 302 603 302C505 302 412 307 314 316V234C412 226 505 224 603 224C801 224 889 291 889 411C889 515 837 586 567 586C347 586 208 535 140 500ZM304 371H695V449H304ZM257 -71C540 -71 571 261 572 675H492C492 297 464 8 257 8C198 8 165 22 165 55C165 90 209 109 291 109C464 109 631 -9 911 -71L944 6C645 69 519 187 291 187C174 187 85 145 85 55C85 -35 146 -71 257 -71ZM137 237H217V582H137Z" transform="translate(0, 880) scale(1,-1)" /></svg>