<svg xmlns="http://www.w3.org/2000/svg" width="1000" height="1000"><path d="M813 580 890 550C913 603 924 636 924 670C924 762 828 806 627 806C475 806 340 773 253 730V788H171V568H253V660C353 698 490 724 627 724C793 724 839 699 839 665C839 643 832 621 813 580ZM259 523H831V603H259ZM249 349H842V429H249ZM585 43V675H506V43ZM154 174H937V254H154ZM928 -55 952 29C654 8 427 9 283 49C196 72 135 130 109 215L31 190C66 74 144 3 253 -25C403 -64 625 -75 928 -55Z" transform="translate(0, 880) scale(1,-1)" /></svg>