<svg xmlns="http://www.w3.org/2000/svg" width="1000" height="1000"><path d="M125 622 142 552C172 572 201 581 239 581C285 581 300 527 300 464C300 388 280 341 221 330V251C338 259 377 347 377 464C377 586 339 659 239 659C191 659 154 645 125 622ZM179 89H256V456H179ZM44 53 78 -20 375 127 340 201ZM26 329 101 293C141 423 172 590 188 759L111 767C95 601 62 435 26 329ZM332 699 374 632C437 682 522 728 669 728C822 728 853 625 853 505C853 345 797 264 697 264C620 264 552 268 475 281L465 203C542 189 620 188 697 188C871 188 932 316 932 505C932 662 895 808 669 808C497 808 397 749 332 699ZM340 -49H930V27H340ZM578 -12H657V662H578ZM464 439H771V519H464Z" transform="translate(0, 880) scale(1,-1)" /></svg>