<svg xmlns="http://www.w3.org/2000/svg" width="1000" height="1000"><path d="M802 467 859 419C901 449 931 487 931 545C931 629 843 683 583 683C406 683 262 654 152 599V660H78V437H152V543C266 586 418 611 582 611C799 611 851 576 851 545C851 516 836 490 802 467ZM461 512H540V755H461ZM703 539H298V468H703ZM823 793 168 792V721H823ZM278 -66C362 -66 426 -30 427 49L430 436H350L351 64C351 31 329 9 278 9C210 9 173 41 173 71C173 134 352 165 570 165C759 165 828 138 828 109C828 71 759 49 627 26L660 -33C798 -17 910 27 910 109C910 193 820 240 571 240C297 240 96 202 96 69C96 -8 169 -66 278 -66ZM647 -96 717 -62C693 -17 652 42 611 88L546 57C588 7 625 -52 647 -96ZM103 293H819V370H103Z" transform="translate(0, 880) scale(1,-1)" /></svg>