<svg xmlns="http://www.w3.org/2000/svg" width="1000" height="1000"><path d="M38 476 115 453C151 551 180 689 195 799L118 806C105 695 75 565 38 476ZM112 602H397V681H112ZM104 26 162 -12C262 55 346 150 346 234C346 311 303 358 249 358C180 358 124 320 124 250C124 178 183 137 242 151C217 112 171 65 104 26ZM235 209C211 209 191 225 191 250C191 276 212 291 235 291C256 291 276 274 276 251C276 225 257 209 235 209ZM324 273V491H245V330ZM141 517V439H393V517ZM55 21 80 -54 402 53 378 127ZM588 388H670V835H588ZM376 608 420 539C509 599 620 640 724 640C809 640 843 610 843 585C843 556 834 533 817 508L894 477C914 510 925 541 925 586C925 672 848 720 724 720C594 720 473 669 376 608ZM375 -9 423 -82C611 -7 877 143 877 298C877 401 817 444 696 444C583 444 502 421 422 391L446 313C524 347 596 364 696 364C760 364 795 343 795 298C795 187 565 58 375 -9ZM872 -87 934 -20C765 106 637 180 482 242L435 179C588 113 706 42 872 -87Z" transform="translate(0, 880) scale(1,-1)" /></svg>