<svg xmlns="http://www.w3.org/2000/svg" width="1000" height="1000"><path d="M138 629 158 560C198 588 232 602 280 602C333 602 350 542 350 472C350 391 321 340 252 328V247C379 259 429 349 429 472C429 603 386 681 282 681C219 681 175 660 138 629ZM211 68H289V466H211ZM58 26 92 -48 424 112 390 186ZM36 329 111 290C156 431 191 612 209 795L131 804C113 623 76 444 36 329ZM433 600H922V678H433ZM480 391H876V469H480ZM718 -1V829H638V-1ZM480 177H876V255H480ZM946 31H410V-47H946Z" transform="translate(0, 880) scale(1,-1)" /></svg>