<svg xmlns="http://www.w3.org/2000/svg" width="1000" height="1000"><path d="M302 646 225 664C178 460 97 276 17 138L88 98C167 241 253 444 302 646ZM269 94C245 94 232 104 232 128C232 165 269 243 364 333L310 374C206 283 154 192 154 128C154 60 200 20 269 20C365 20 411 85 411 229C411 374 357 433 277 433C224 433 184 417 156 384L174 316C206 345 243 359 277 359C316 359 332 312 332 229C332 124 302 94 269 94ZM42 622H429V700H42ZM375 665H967V745H375ZM761 43V704H683V47C683 25 674 17 659 17C622 17 584 26 543 39V-49C593 -58 641 -62 678 -61C733 -60 761 -38 761 43Z" transform="translate(0, 880) scale(1,-1)" /></svg>