<svg xmlns="http://www.w3.org/2000/svg" width="1000" height="1000"><path d="M28 471 105 451C140 540 169 664 184 763L107 769C94 670 65 551 28 471ZM101 582H377V659H101ZM89 64 155 29C253 90 329 161 329 267C329 333 279 371 219 371C159 371 109 333 109 267C109 202 156 157 223 168C198 136 153 99 89 64ZM219 229C197 229 177 244 177 267C177 290 196 306 219 306C242 306 261 290 261 267C261 244 242 229 219 229ZM307 289V485H229V344ZM131 512V435H373V512ZM43 66 71 -11 382 85 356 161ZM380 665H964V745H380ZM763 43V704H684V47C684 25 676 17 660 17C624 17 587 26 546 39V-49C596 -58 643 -62 680 -61C735 -60 763 -38 763 43Z" transform="translate(0, 880) scale(1,-1)" /></svg>