<svg xmlns="http://www.w3.org/2000/svg" width="1000" height="1000"><path d="M244 843 199 788C253 768 313 743 344 726L391 782C359 799 298 823 244 843ZM224 535 293 511 463 689 404 729 385 723H83V657H332ZM506 607 124 538 140 473 524 546ZM484 476 528 413C674 483 791 546 919 640L861 697L823 667H640C684 707 730 754 776 806L708 847C654 777 597 721 542 674C530 664 517 657 501 652L532 593L555 603H733C664 559 578 515 484 476ZM69 281 133 239C218 303 271 370 320 451L248 479C200 398 137 331 69 281ZM65 78 131 49C170 89 201 147 220 198L149 218C133 170 104 114 65 78ZM78 -54H930V17H78ZM278 84H730V153H278ZM458 -15H537V255H458ZM243 223H797V292H243ZM869 44 943 72C930 115 900 174 864 223L796 197C832 148 856 84 869 44ZM219 335H879V407H219Z" transform="translate(0, 880) scale(1,-1)" /></svg>