<svg xmlns="http://www.w3.org/2000/svg" width="1000" height="1000"><path d="M274 603 334 661C286 705 233 748 173 790L118 734C178 693 228 648 274 603ZM180 -66C304 -66 366 63 366 183C366 281 311 378 184 420L157 345C253 309 285 247 285 183C285 97 247 16 180 16C153 16 136 30 136 69C136 141 210 200 372 295L333 364C171 272 55 179 55 69C55 -24 108 -66 180 -66ZM178 391 243 357C301 416 359 492 391 550L325 595L312 587H78V508H264C242 467 212 426 178 391ZM381 697 425 628C503 692 585 731 706 731C820 731 857 697 857 629C857 540 810 501 516 536V455C828 425 937 471 937 629C937 732 881 811 706 811C560 811 462 763 381 697ZM373 112H934V192H373ZM589 -72C663 -72 703 -36 703 47L704 633H625V65C625 25 613 6 581 6C550 6 515 13 479 27V-59C511 -68 546 -72 589 -72ZM395 266H912V346H395Z" transform="translate(0, 880) scale(1,-1)" /></svg>