<svg xmlns="http://www.w3.org/2000/svg" width="1000" height="1000"><path d="M810 584 874 542C912 580 923 611 923 655C923 756 859 820 633 820C413 820 210 759 70 698L110 628C237 682 440 739 633 739C778 739 844 712 844 655C844 629 835 608 810 584ZM64 -7 102 -81C429 -14 546 120 555 327H474C464 137 358 45 64 -7ZM106 305 488 362 472 439 90 383ZM68 172H932V251H68ZM876 -82 927 -16C842 33 718 89 602 129L559 65C674 24 793 -33 876 -82ZM226 382 298 346C362 403 434 488 485 561L419 610L397 598H116V519H349C319 474 275 427 226 382ZM674 374H754V613H674ZM894 407H564V328H894Z" transform="translate(0, 880) scale(1,-1)" /></svg>