<svg xmlns="http://www.w3.org/2000/svg" width="1000" height="1000"><path d="M11 507 85 488C116 579 142 706 156 808L80 813C70 711 44 589 11 507ZM77 622H304V699H77ZM41 87 96 52C188 114 270 201 270 283C270 358 230 403 180 403C117 403 65 367 65 299C65 229 119 193 171 202C147 169 101 123 41 87ZM167 258C146 258 127 275 127 299C127 326 147 338 167 338C186 338 205 322 205 297C205 275 186 258 167 258ZM253 321V522H176V376ZM108 548V472H299V548ZM21 90 50 17 306 115 280 188ZM327 439 356 361 377 368H949V448H424C438 523 454 629 461 717H895V797H384C381 682 362 545 349 467C346 450 337 443 327 439ZM279 39 348 -10C399 58 463 163 503 258L427 283C390 195 332 101 279 39ZM605 -65C661 -65 687 -38 687 24V642H608V36C608 20 602 12 587 12C556 12 527 20 492 33V-54C528 -61 563 -65 605 -65ZM909 -7 983 31C951 101 886 211 831 284L761 251C816 176 878 63 909 -7Z" transform="translate(0, 880) scale(1,-1)" /></svg>