<svg xmlns="http://www.w3.org/2000/svg" width="1000" height="1000"><path d="M732 -59C869 -59 937 75 937 274C937 475 846 548 690 548C663 548 639 547 617 543C694 604 781 676 852 742L794 800L776 792H393V712H700C638 648 567 587 475 518C461 507 409 481 367 456L412 385C490 437 576 468 676 468C787 468 858 427 858 272C858 147 815 21 727 21C686 21 647 31 606 52V-39C645 -53 685 -59 732 -59ZM329 155 396 98C496 183 573 291 611 410L532 430C499 320 427 228 329 155ZM386 -2 452 -60C592 27 717 204 754 407L676 424C637 226 525 78 386 -2ZM14 502 90 471C124 551 153 663 168 751L88 764C73 674 46 570 14 502ZM94 591H339V670H94ZM335 391C335 472 283 513 159 538L136 461C220 445 256 421 256 391C256 356 229 327 190 299L244 238C297 278 335 315 335 391ZM101 19H180V353H101ZM317 134 77 46 106 -28 343 59Z" transform="translate(0, 880) scale(1,-1)" /></svg>