<svg xmlns="http://www.w3.org/2000/svg" width="1000" height="1000"><path d="M38 470 114 449C147 546 175 682 189 791L113 797C101 688 74 558 38 470ZM108 596H362V673H108ZM85 24 145 -14C241 52 321 134 321 248C321 315 273 355 214 355C155 355 107 315 107 248C107 181 152 132 220 144C195 107 149 62 85 24ZM214 207C192 207 173 223 173 248C173 272 192 288 214 288C236 288 255 272 255 248C255 223 236 207 214 207ZM301 270V486H223V327ZM139 511V435H358V511ZM50 22 80 -54 367 52 339 127ZM782 500C767 456 747 414 720 369L765 302C836 322 868 298 868 246C868 171 762 109 633 80L667 7C822 54 949 109 949 246C949 359 886 395 813 386L893 562L821 599L807 586C441 530 344 393 344 309C344 250 381 200 449 200C584 200 705 473 818 780L749 813L732 799H409V719H710C633 498 519 280 452 280C433 280 423 290 423 307C423 345 481 452 782 500ZM655 -88 732 -59C714 10 677 105 643 178L569 150C603 81 635 -15 655 -88Z" transform="translate(0, 880) scale(1,-1)" /></svg>