<svg xmlns="http://www.w3.org/2000/svg" width="1000" height="1000"><path d="M32 664H254V742H32ZM182 705H104V-45H182ZM779 58 840 -3C917 58 958 128 958 203C958 297 910 366 777 366C629 366 534 275 534 177C534 105 578 59 647 59C735 59 791 124 791 247C791 367 697 443 560 443C367 443 239 326 239 200C239 128 282 73 355 73C517 73 597 413 603 683L523 685C517 428 454 152 351 152C330 152 317 167 317 200C317 258 391 364 560 364C671 364 713 307 713 247C713 178 688 137 647 137C625 137 612 153 612 177C612 227 665 288 777 288C860 288 880 242 880 203C880 146 846 95 779 58ZM260 -46H937V32H260ZM425 585V505C787 484 901 521 901 667C901 779 803 820 639 820C484 820 379 786 275 727L317 655C404 707 514 742 639 742C768 742 821 709 821 667C821 602 764 552 425 585Z" transform="translate(0, 880) scale(1,-1)" /></svg>