<svg xmlns="http://www.w3.org/2000/svg" width="1000" height="1000"><path d="M52 56 77 -19 433 94 408 169ZM32 564 101 512C170 606 219 705 260 817L182 847C144 745 94 646 32 564ZM157 71 219 37 415 261 351 315 335 306H294L434 521L375 573L358 565C124 533 34 446 34 371C34 324 63 289 119 289C181 289 230 315 417 731L350 771L337 761H176V681H304C155 383 135 368 124 368C119 368 116 372 116 378C116 396 151 450 314 477L191 293L231 226H286ZM400 -47 476 -80C540 82 548 328 548 498V723H802V477C802 39 820 -73 904 -73C951 -73 972 -21 983 109L923 118C920 41 913 7 904 7C891 7 880 71 880 464V803H470V498C470 335 464 109 400 -47ZM645 89H725C777 89 797 136 809 239L735 251C730 189 723 165 697 165H652C633 165 628 173 628 186C628 202 636 217 793 405L749 474L738 465H571V387H677C565 264 549 232 549 185C549 130 579 89 645 89ZM573 560H774V638H573Z" transform="translate(0, 880) scale(1,-1)" /></svg>