<svg xmlns="http://www.w3.org/2000/svg" width="1000" height="1000"><path d="M192 491C313 491 382 533 382 617C382 683 331 718 192 737L171 676C276 661 305 643 305 617C305 579 258 568 192 568C160 568 145 574 145 585C145 601 207 622 383 652L348 723C151 683 65 651 65 585C65 521 114 491 192 491ZM194 721 250 687C311 714 370 746 406 771L353 833L339 827H84V749H245C232 741 215 730 194 721ZM627 473C696 473 713 504 713 564V717H635V576C635 555 628 547 617 547C594 547 558 557 525 571V485C560 478 591 473 627 473ZM380 566 452 536C505 570 540 628 560 674L478 690C464 649 431 599 380 566ZM385 715 456 682C511 725 553 787 578 845L499 857C475 802 432 749 385 715ZM881 538 959 557C940 593 895 650 843 692L767 674C818 630 862 574 881 538ZM494 746H905V824H494ZM649 105C762 105 790 167 796 318L728 331L714 322H260V243H711C711 198 691 182 641 182C561 182 482 189 414 198V117C482 110 565 105 649 105ZM200 -18 226 -95 569 -29 545 48 320 4V196H240V20C240 -3 218 -13 200 -18ZM851 -94 912 -28C840 14 743 66 639 107L583 45C682 5 780 -50 851 -94ZM62 297 129 254C202 324 261 404 299 478L221 503C185 429 129 358 62 297ZM215 363H861V442H215Z" transform="translate(0, 880) scale(1,-1)" /></svg>