<svg xmlns="http://www.w3.org/2000/svg" width="1000" height="1000"><path d="M31 463 106 442C139 537 166 669 181 774L104 780C93 674 66 548 31 463ZM100 583H350V660H100ZM75 29 131 -8C226 57 309 147 309 231C309 307 268 352 217 352C151 352 97 315 97 247C97 176 153 137 208 149C184 113 138 66 75 29ZM203 205C181 205 162 222 162 247C162 273 182 287 203 287C223 287 242 270 242 246C242 222 223 205 203 205ZM290 269V478H213V325ZM130 503V427H346V503ZM44 28 71 -46 354 57 328 130ZM520 276H791V356H520ZM616 317H694V840H616ZM415 630 429 557C484 574 543 582 617 582H773C825 582 849 555 849 496V44C849 16 846 2 824 2C799 2 764 8 723 21V-65C762 -72 797 -77 827 -77C893 -77 928 -46 928 32V506C928 603 885 661 780 661H616C535 661 475 650 415 630ZM461 -80V661H383V-80Z" transform="translate(0, 880) scale(1,-1)" /></svg>