<svg xmlns="http://www.w3.org/2000/svg" width="1000" height="1000"><path d="M207 618 263 676C223 716 178 755 127 793L75 736C126 699 168 658 207 618ZM130 7C238 7 292 123 292 238C292 332 244 418 134 456L111 381C190 348 213 294 213 238C213 160 184 88 130 88C111 88 100 99 100 121C100 184 156 251 294 337L260 408C115 313 21 227 21 121C21 40 66 7 130 7ZM132 428 188 393C237 447 286 517 314 571L250 615L239 607H44V529H199C181 494 158 459 132 428ZM410 449 481 416C557 512 628 629 710 804L630 831C557 664 482 539 410 449ZM313 592H958V672H313ZM807 317V-3H886V378L829 409L807 397C601 383 302 264 302 77C302 -14 359 -61 449 -61C603 -61 701 64 701 232C701 371 661 480 516 480C457 480 409 464 373 442L405 372C432 388 472 400 516 400C582 400 621 339 621 232C621 105 551 19 449 19C404 19 382 42 382 77C382 188 614 304 807 317ZM971 34H722V-46H971Z" transform="translate(0, 880) scale(1,-1)" /></svg>