<svg xmlns="http://www.w3.org/2000/svg" width="1000" height="1000"><path d="M52 664H306V743H52ZM218 706H140V-62H218ZM509 112 578 71C650 169 743 300 797 388L731 441L717 431H572C613 532 647 668 679 817L600 830C562 644 519 492 464 383L532 340L546 352H676C635 280 575 193 509 112ZM897 -85 931 -10C742 66 554 124 375 166L335 96C526 48 712 -10 897 -85ZM335 622H923V702H335ZM307 274 382 247C409 321 431 427 444 518L366 527C355 440 333 342 307 274ZM865 238 944 255C932 329 915 443 888 529L814 515C839 426 856 311 865 238Z" transform="translate(0, 880) scale(1,-1)" /></svg>