<svg xmlns="http://www.w3.org/2000/svg" width="1000" height="1000"><path d="M90 709 123 645C165 685 210 703 262 703C318 703 344 666 344 507C344 345 322 290 282 290C240 290 212 296 188 304V222C212 216 240 212 283 212C396 212 423 299 423 507C423 703 386 782 262 782C189 782 134 751 90 709ZM111 377 182 337C251 425 328 558 354 622L280 656C253 591 184 460 111 377ZM274 386 341 436C299 489 235 551 192 588L133 541C180 499 237 434 274 386ZM143 210V772H64V210ZM735 326C870 326 956 379 956 480C956 608 829 645 545 615L552 535C806 558 876 543 876 480C876 427 825 406 735 406C667 406 590 415 495 433V349C590 333 664 326 735 326ZM603 222 670 172C711 219 733 276 733 363V475H653V366C653 300 630 255 603 222ZM675 603 740 565C812 626 880 692 941 760L884 819L871 811H438V731H805C769 690 725 648 675 603ZM68 -51H940V29H68ZM504 2 594 -27C644 7 676 82 676 176C676 243 622 281 534 281C446 281 393 243 393 176C393 108 446 70 534 70C554 70 572 72 589 76C575 36 538 14 504 2ZM534 137C495 137 469 151 469 176C469 200 495 214 534 214C573 214 600 200 600 176C600 151 573 137 534 137Z" transform="translate(0, 880) scale(1,-1)" /></svg>