<svg xmlns="http://www.w3.org/2000/svg" width="1000" height="1000"><path d="M753 247C838 247 867 352 874 532L815 551L796 540H438V468H791C791 371 771 316 733 316C673 316 614 327 564 342V268C618 255 686 247 753 247ZM57 30 122 -15C197 85 264 194 329 313L274 352C204 226 127 113 57 30ZM372 -17 402 -84 668 -9 655 63 485 15V355H411V42C411 2 389 -10 372 -17ZM895 -78 952 -21C884 46 793 130 695 196L642 144C735 80 828 -9 895 -78ZM267 556 316 618C262 669 201 715 132 755L90 695C158 653 216 607 267 556ZM272 492 335 453C418 572 467 683 506 798L431 822C398 701 351 599 272 492ZM416 644H927V717H416Z" transform="translate(0, 880) scale(1,-1)" /></svg>