<svg xmlns="http://www.w3.org/2000/svg" width="1000" height="1000"><path d="M12 500 86 482C118 570 144 694 158 793L81 798C71 699 45 580 12 500ZM78 611H311V688H78ZM45 92 109 58C202 118 277 188 277 298C277 363 227 401 173 401C118 401 69 363 69 298C69 234 112 188 175 199C151 168 106 127 45 92ZM173 259C152 259 133 275 133 298C133 321 151 336 173 336C194 336 212 321 212 298C212 275 194 259 173 259ZM259 320V515H181V375ZM109 541V466H307V541ZM21 97 52 22 315 118 286 192ZM331 634H963V714H705L660 839L582 821L620 714H331ZM662 491C566 491 477 466 391 425L421 346C504 391 582 411 662 411C737 411 757 382 757 334C757 194 573 24 482 24C444 24 419 55 419 115C419 165 443 205 504 205C602 205 733 44 921 -77L976 -15C789 100 645 283 504 283C404 283 339 222 339 115C339 16 389 -56 482 -56C616 -56 837 149 837 334C837 443 790 491 662 491ZM350 385 419 332C504 427 582 545 647 665L572 696C511 576 433 470 350 385ZM917 374 983 422C936 495 883 558 828 613L762 570C819 513 870 448 917 374Z" transform="translate(0, 880) scale(1,-1)" /></svg>