<svg xmlns="http://www.w3.org/2000/svg" width="1000" height="1000"><path d="M36 480 109 458C139 560 164 703 178 817L102 824C93 709 69 573 36 480ZM101 618H316V689H101ZM69 9 113 -31C204 39 285 145 285 231C285 309 246 356 197 356C135 356 84 318 84 247C84 174 138 134 201 146C177 105 130 49 69 9ZM188 199C162 199 140 216 140 247C140 278 163 297 189 297C212 297 232 276 232 252C232 216 212 199 188 199ZM265 270V497H197V328ZM133 520V452H311V520ZM46 2 75 -59 318 52 291 112ZM424 834 383 777C430 753 480 723 508 701L551 760C522 782 471 811 424 834ZM403 392 475 379 611 648 547 682 532 672H333V604H510ZM624 499 335 403 357 332 647 434ZM605 312 649 250C766 357 858 453 960 595L896 637L857 583H732C771 647 816 732 856 815L781 847C740 748 698 670 657 604C648 590 635 580 623 573L654 503L672 515H806C754 448 676 371 605 312ZM791 104 814 30C903 53 950 109 950 185C950 268 873 321 700 321C560 321 418 295 315 263L328 188C430 219 576 244 700 244C826 244 871 215 871 184C871 141 839 115 791 104ZM475 171V95H746V171ZM340 12V-66H900V12Z" transform="translate(0, 880) scale(1,-1)" /></svg>