<svg xmlns="http://www.w3.org/2000/svg" width="1000" height="1000"><path d="M29 662H285V740H29ZM196 703H118V-37H196ZM939 -56 957 29C721 6 541 7 427 49C358 75 310 140 289 233L213 214C241 86 304 8 392 -23C514 -66 694 -78 939 -56ZM481 686 557 711C545 743 523 798 498 834L424 810C446 772 468 726 481 686ZM340 627H933V707H340ZM712 694 784 673C814 719 837 769 856 816L775 837C761 793 740 739 712 694ZM300 205 356 141C382 158 402 175 432 203C444 213 459 214 470 211C481 208 494 194 507 155L617 222L587 276L531 250C526 265 516 274 499 279C525 319 548 362 570 410L502 440C445 332 373 248 300 205ZM623 53C723 53 757 144 756 255C756 357 701 488 618 590L558 538C623 470 677 345 677 255C676 190 664 128 620 128C587 128 556 134 521 148V64C551 56 585 53 623 53ZM915 120 971 185C883 248 763 311 618 377L584 309C721 248 833 188 915 120ZM669 403 705 338C784 369 842 392 909 438L857 503C797 460 748 433 669 403ZM682 662 603 686C564 563 473 514 332 455L375 385C528 456 638 518 682 662Z" transform="translate(0, 880) scale(1,-1)" /></svg>