<svg xmlns="http://www.w3.org/2000/svg" width="1000" height="1000"><path d="M334 -62H781C891 -62 927 -22 938 142L858 149C853 34 836 19 779 19H336C277 19 238 32 238 61C238 99 272 147 738 446L700 514L674 501H424C475 562 539 644 586 715L510 750C452 646 353 531 284 467L333 410L358 429H555C167 173 149 111 149 54C149 -19 208 -62 334 -62ZM62 278 133 249C174 328 203 456 226 560L142 571C127 476 101 353 62 278ZM100 698H900V781H100ZM865 247 946 271C930 356 905 476 867 576L792 557C828 455 852 331 865 247Z" transform="translate(0, 880) scale(1,-1)" /></svg>