<svg xmlns="http://www.w3.org/2000/svg" width="1000" height="1000"><path d="M13 184 31 105 353 190 335 268ZM176 -59C222 -59 249 -35 249 25V514H171V35C171 21 166 17 154 17C136 17 112 21 79 35L80 -48C113 -56 144 -59 176 -59ZM75 569 35 433C32 421 27 413 18 408L57 335L76 342H313V422H113L158 569H343V649H24V569ZM95 643 171 669C160 706 138 763 115 807L42 781C64 737 86 682 95 643ZM201 667 268 638C296 690 317 738 337 789L254 812C240 761 223 712 201 667ZM952 673 878 708C827 618 771 538 710 460L760 396L778 403H829L641 282L710 228L985 416L929 490L912 481H820C861 532 909 601 952 673ZM660 -72C895 -72 968 19 968 124C968 237 894 294 738 294C638 294 563 281 485 266L501 188C576 202 648 214 738 214C844 214 889 184 889 124C889 59 838 6 660 6C521 6 471 31 471 51C471 66 491 81 566 81C628 81 642 72 642 59C642 41 610 18 537 -2L582 -62C662 -35 730 -1 730 59C730 119 677 155 566 155C452 155 392 108 392 51C392 -14 454 -72 660 -72ZM325 723 356 649C496 681 637 726 772 780L718 846C610 802 455 751 325 723ZM889 618 881 698C603 641 331 557 331 422C331 357 374 312 459 312C587 312 669 383 669 505C669 589 636 668 550 749L480 706C559 626 590 560 590 505C590 426 528 388 458 391C426 392 411 403 411 422C411 504 627 565 889 618Z" transform="translate(0, 880) scale(1,-1)" /></svg>