<svg xmlns="http://www.w3.org/2000/svg" width="1000" height="1000"><path d="M54 181 71 107 437 195 421 269ZM245 -66C293 -66 318 -41 318 18V530H243V20C243 6 238 2 224 2C201 2 174 6 137 19L138 -55C175 -63 210 -66 245 -66ZM135 590 88 444C83 430 78 423 68 418L101 347L123 354H393V428H157L208 590H428V663H65V590ZM159 661 227 688C214 726 189 785 163 830L98 803C123 758 148 702 159 661ZM273 688 327 655C359 708 383 758 405 811L334 837C319 785 299 734 273 688ZM440 594H930V672H440ZM487 385H883V463H487ZM725 -7V823H645V-7ZM487 171H883V249H487ZM954 25H417V-53H954Z" transform="translate(0, 880) scale(1,-1)" /></svg>