<svg xmlns="http://www.w3.org/2000/svg" width="1000" height="1000"><path d="M11 507 85 488C116 579 142 706 156 808L80 813C70 711 44 589 11 507ZM77 622H304V699H77ZM41 87 102 52C195 114 271 186 271 299C271 364 222 403 168 403C114 403 65 364 65 299C65 235 107 187 171 199C147 166 101 123 41 87ZM168 260C147 260 129 276 129 299C129 322 147 338 168 338C189 338 207 322 207 299C207 276 188 260 168 260ZM253 321V522H176V376ZM108 548V472H299V548ZM19 91 51 16 307 114 277 189ZM327 439 356 361 377 368H949V448H424C438 523 454 629 461 717H895V797H384C381 682 362 545 349 467C346 450 337 443 327 439ZM279 39 348 -10C399 58 463 163 503 258L427 283C390 195 332 101 279 39ZM605 -65C661 -65 687 -38 687 24V642H608V36C608 20 602 12 587 12C556 12 527 20 492 33V-54C528 -61 563 -65 605 -65ZM909 -7 983 31C951 101 886 211 831 284L761 251C816 176 878 63 909 -7Z" transform="translate(0, 880) scale(1,-1)" /></svg>