<svg xmlns="http://www.w3.org/2000/svg" width="1000" height="1000"><path d="M468 499C453 455 434 413 408 369L452 302C520 322 551 299 551 246C551 171 449 109 325 80L358 7C508 54 632 110 632 246C632 359 571 394 500 386L577 562L506 599L492 586C139 527 43 393 43 309C43 250 80 200 147 200C281 200 396 473 505 781L436 813L419 799H107V719H398C323 498 214 280 150 280C132 280 122 290 122 307C122 345 178 450 468 499ZM344 -87 422 -59C404 10 369 105 336 178L261 151C294 82 325 -14 344 -87ZM697 150 733 85C880 188 929 231 929 321C929 398 880 457 748 496C832 560 896 634 963 750L889 793L881 778H635V700H836C779 614 729 558 644 505L650 438C815 397 850 352 850 321C850 281 820 238 697 150ZM903 -74 956 -12C889 44 748 135 642 190L599 126C702 71 838 -17 903 -74Z" transform="translate(0, 880) scale(1,-1)" /></svg>