<svg xmlns="http://www.w3.org/2000/svg" width="1000" height="1000"><path d="M354 704 286 724C230 479 135 257 40 91L103 45C196 217 297 461 354 704ZM325 28C292 28 269 41 269 70C269 115 322 218 434 330L378 374C256 264 195 141 195 70C195 -4 246 -49 325 -49C434 -49 489 28 489 197C489 366 424 434 335 434C272 434 225 415 192 377L213 304C250 338 294 355 335 355C387 355 411 299 411 197C411 63 367 28 325 28ZM57 689H496V764H57ZM636 83V446H563V83C563 -33 595 -58 698 -58H844C915 -58 935 0 947 171L871 180C864 45 854 20 811 20H715C649 20 636 31 636 83ZM822 360C880 360 914 445 924 768L865 789L848 777H557V700H845C836 492 824 440 803 440C768 440 733 445 697 457V373C733 365 775 360 822 360Z" transform="translate(0, 880) scale(1,-1)" /></svg>