<svg xmlns="http://www.w3.org/2000/svg" width="1000" height="1000"><path d="M130 494 204 456C244 534 284 623 316 734L241 757C211 658 174 563 130 494ZM156 92V783H77V92C77 63 72 51 65 45L97 -26L304 75L275 148ZM38 345H319V425H38ZM503 593 577 535C678 594 778 670 859 747L792 797L778 788H474V710H693C653 678 582 632 503 593ZM264 665 318 602C421 660 531 733 612 814L539 857C466 783 368 717 264 665ZM233 9 284 -54C462 32 673 152 774 218L717 273L699 267H370V188H565C483 138 372 73 233 9ZM611 -85C658 -85 699 -75 751 -49V32C699 3 662 -11 627 -11C608 -11 599 -8 599 21V119H520V4C520 -59 550 -85 611 -85ZM931 -57 985 6C902 51 800 103 710 139L661 81C750 42 850 -9 931 -57ZM264 302H935V381H264ZM718 356 758 425C661 460 578 480 472 498L445 426C553 408 632 387 718 356ZM587 457 671 412C742 449 840 507 893 547L843 603L827 598H324V519H698C660 495 626 476 587 457Z" transform="translate(0, 880) scale(1,-1)" /></svg>