<svg xmlns="http://www.w3.org/2000/svg" width="1000" height="1000"><path d="M235 23 295 -24C375 46 425 122 425 211C425 283 382 326 297 326C217 326 173 282 173 215C173 142 219 102 326 102C488 102 597 160 597 298C597 409 520 464 380 464C253 464 146 431 59 378L93 306C178 356 265 385 380 385C470 385 518 363 518 298C518 206 431 179 326 179C273 179 252 190 252 215C252 238 269 251 297 251C327 251 346 237 346 211C346 154 308 89 235 23ZM172 469 248 492C241 535 218 598 195 648L120 628C143 578 166 510 172 469ZM13 575 87 541C138 630 171 725 193 833L115 845C93 738 64 658 13 575ZM316 489 394 504C391 547 377 616 360 666L285 653C301 601 313 531 316 489ZM124 689H610V767H124ZM441 486 511 464C535 510 565 582 589 644L505 667C491 614 463 535 441 486ZM611 90 47 4 59 -75 623 11ZM713 134 750 69C899 172 948 214 948 305C948 381 898 440 764 479C850 543 915 616 982 732L908 776L899 761H651V683H854C797 597 745 541 660 488L666 421C833 380 869 336 869 305C869 264 838 222 713 134ZM922 -90 974 -28C907 28 765 119 657 174L615 110C719 55 857 -33 922 -90Z" transform="translate(0, 880) scale(1,-1)" /></svg>