<svg xmlns="http://www.w3.org/2000/svg" width="1000" height="1000"><path d="M50 658H340V737H50ZM235 700H155V-62H235ZM901 -89 940 -6C748 60 650 240 480 240C390 240 326 179 326 86C326 -6 385 -61 464 -61C643 -61 839 160 839 282C839 393 773 444 631 444C558 444 484 427 420 400L444 319C493 346 565 364 631 364C715 364 757 340 757 282C757 189 597 19 464 19C420 19 399 44 399 86C399 127 436 160 480 160C621 160 705 -20 901 -89ZM562 388H643V835H562ZM323 604 367 536C472 600 601 640 708 640C806 640 841 611 841 585C841 556 834 533 816 508L894 477C913 511 924 538 924 586C924 679 842 720 708 720C574 720 434 667 323 604Z" transform="translate(0, 880) scale(1,-1)" /></svg>