<svg xmlns="http://www.w3.org/2000/svg" width="1000" height="1000"><path d="M663 131 705 66C878 172 936 215 936 306C936 383 874 444 716 484C819 550 899 622 975 743L903 787L893 772H590V694H841C772 605 705 545 600 492L608 427C807 384 855 338 855 306C855 265 814 221 663 131ZM913 -97 967 -34C888 24 723 119 598 177L558 108C679 52 838 -38 913 -97ZM278 127C345 127 362 163 362 226V580H284V234C284 213 277 205 265 204C248 203 212 213 172 230V141C208 132 241 127 278 127ZM36 287 100 245C151 317 189 430 209 521L132 543C115 456 83 356 36 287ZM531 239 606 269C586 343 540 461 490 549L417 520C467 430 512 313 531 239ZM402 615 459 675C408 716 307 777 243 803L193 742C260 716 350 659 402 615ZM99 -53 534 67 514 145 79 25Z" transform="translate(0, 880) scale(1,-1)" /></svg>