<svg xmlns="http://www.w3.org/2000/svg" width="1000" height="1000"><path d="M808 583 871 532C911 570 923 611 923 655C923 758 860 823 633 823C414 823 210 759 70 694L112 625C239 681 440 742 633 742C779 742 844 714 844 655C844 629 833 607 808 583ZM141 -46 222 -40C183 66 172 138 192 205C214 278 219 332 180 392L102 378C137 313 139 266 119 209C96 145 101 66 141 -46ZM239 446 279 515C241 537 170 572 116 595L78 531C132 506 203 469 239 446ZM308 577 322 497C484 504 721 526 874 569L834 645C708 608 476 584 308 577ZM271 287H933V367H271ZM563 130H642V566H563ZM703 171C571 171 437 141 303 71L353 -2C464 62 595 95 703 95C764 95 801 77 801 57C801 22 751 -7 672 -18L713 -91C807 -71 880 -20 880 57C880 141 810 171 703 171Z" transform="translate(0, 880) scale(1,-1)" /></svg>