<svg xmlns="http://www.w3.org/2000/svg" width="1000" height="1000"><path d="M801 557 860 506C904 545 923 582 923 633C923 730 861 807 619 807C398 807 210 749 70 654L115 587C242 671 426 731 619 731C780 731 843 699 843 633C843 603 829 580 801 557ZM100 338 176 292C268 380 351 489 421 600L352 635C282 521 195 419 100 338ZM846 422V502H271V422ZM768 446 688 477C599 245 427 12 281 12C223 12 180 47 180 111C180 164 221 208 315 208C475 208 602 38 863 -89L911 -21C658 100 507 284 315 284C191 284 93 222 93 111C93 7 167 -68 281 -68C468 -68 654 161 768 446Z" transform="translate(0, 880) scale(1,-1)" /></svg>