<svg xmlns="http://www.w3.org/2000/svg" width="1000" height="1000"><path d="M29 474 104 454C137 549 164 683 178 789L101 795C90 688 64 560 29 474ZM97 597H343V674H97ZM71 37 126 -1C221 64 304 157 304 241C304 317 263 362 212 362C147 362 93 326 93 256C93 185 149 147 204 158C179 122 133 74 71 37ZM198 215C176 215 157 231 157 256C157 283 177 297 198 297C218 297 237 280 237 256C237 232 218 215 198 215ZM285 279V490H208V335ZM128 515V439H339V515ZM42 35 69 -38 347 65 321 138ZM582 538 641 486C731 561 830 668 888 756L826 804L812 799H395V719H757C718 668 657 602 582 538ZM598 317 557 259C701 184 825 97 915 11L971 88C876 159 751 239 598 317ZM656 355 692 288C775 325 836 356 907 411L855 478C791 425 738 392 656 355ZM603 603 532 563C612 437 660 320 660 191C660 112 646 11 590 11C557 11 524 17 493 34V-52C523 -62 559 -67 599 -67C716 -67 739 65 739 191C739 325 684 471 603 603ZM384 455 345 387 530 295 569 363ZM291 91 335 26 590 180 546 245Z" transform="translate(0, 880) scale(1,-1)" /></svg>