<svg xmlns="http://www.w3.org/2000/svg" width="1000" height="1000"><path d="M29 491 106 471C141 561 170 686 185 786L108 792C95 692 66 572 29 491ZM102 604H378V681H102ZM90 81 148 46C246 107 330 188 330 270C330 345 287 389 234 389C166 389 110 353 110 286C110 216 167 179 224 190C199 158 154 116 90 81ZM220 246C197 246 177 262 177 286C177 311 198 324 220 324C241 324 261 308 261 286C261 262 241 246 220 246ZM308 308V506H230V363ZM132 532V455H374V532ZM46 80 71 6 383 103 358 177ZM619 -61C817 -61 948 55 948 232C948 381 887 494 698 494C659 494 631 490 598 483C696 566 779 644 881 752L821 811L803 800H375V720H738C674 646 556 531 468 460C450 445 427 435 401 424L443 344C512 389 617 414 698 414C812 414 868 340 868 232C868 80 744 19 619 19C557 19 518 44 518 96C518 136 541 163 579 163C635 163 665 111 675 5L752 22C737 155 683 243 579 243C496 243 439 184 439 96C439 5 507 -61 619 -61Z" transform="translate(0, 880) scale(1,-1)" /></svg>