<svg xmlns="http://www.w3.org/2000/svg" width="1000" height="1000"><path d="M56 708H324V784H56ZM228 748H152V398H228ZM730 620C721 607 710 593 698 579L732 514C822 529 856 518 856 495C856 459 744 428 614 416L638 344C796 363 937 407 937 497C937 569 882 599 799 593L859 669L791 710L780 701C392 680 288 618 288 536C288 484 327 442 389 442C521 442 646 595 784 786L718 831L700 822H356V743H647C560 618 461 521 390 521C374 521 367 527 367 536C367 558 416 594 730 620ZM621 295 697 325C680 375 647 443 616 495L543 465C574 417 604 347 621 295ZM61 127 136 92C190 182 237 306 261 408L182 423C157 321 112 205 61 127ZM170 234H855V313H170ZM140 17 213 -27C262 25 303 99 321 174L242 191C227 126 185 58 140 17ZM608 -31C642 -31 674 -23 716 -7L684 66C657 54 637 49 622 49C601 49 591 60 565 182L487 171C515 1 545 -31 608 -31ZM865 -30 934 12C906 63 854 134 808 191L744 149C789 91 840 20 865 -30ZM356 -89C414 -89 446 -60 446 -9V252H367V6C367 -9 361 -17 342 -17C314 -17 286 -12 255 -2V-81C287 -87 317 -89 356 -89Z" transform="translate(0, 880) scale(1,-1)" /></svg>