<svg xmlns="http://www.w3.org/2000/svg" width="1000" height="1000"><path d="M248 586 305 646C258 688 206 727 146 766L93 708C153 669 203 628 248 586ZM154 -36C280 -36 341 83 341 199C341 294 286 383 158 421L132 346C230 313 260 257 260 199C260 120 223 46 154 46C127 46 109 59 109 94C109 159 183 214 345 302L307 371C145 286 29 201 29 94C29 4 82 -36 154 -36ZM156 393 216 356C273 411 331 482 363 536L299 584L286 576H52V498H239C217 461 189 424 156 393ZM838 -75 878 0C669 59 507 249 483 655L404 648C431 218 617 -12 838 -75ZM768 265 823 201C926 284 966 356 966 481C966 566 927 642 796 643C609 644 459 510 333 373L394 315C522 460 658 563 796 563C867 563 886 524 886 481C886 397 858 335 768 265ZM654 354H733V826H654Z" transform="translate(0, 880) scale(1,-1)" /></svg>