<svg xmlns="http://www.w3.org/2000/svg" width="1000" height="1000"><path d="M10 509 86 489C120 579 148 704 163 804L86 810C74 710 46 590 10 509ZM81 621H345V699H81ZM63 97 128 62C225 123 301 195 301 303C301 369 251 407 193 407C134 407 84 369 84 303C84 238 130 192 196 203C171 171 127 132 63 97ZM193 264C171 264 151 280 151 303C151 326 170 342 193 342C215 342 234 326 234 303C234 280 215 264 193 264ZM280 325V523H202V380ZM111 549V473H341V549ZM23 99 52 22 350 120 323 195ZM482 631H881V711H482ZM346 467 419 428C482 530 531 674 559 815L481 828C452 687 403 552 346 467ZM793 -53H877C952 -53 973 15 981 209L902 215C898 50 888 27 857 27H797C774 27 766 39 766 74V270C766 384 690 405 608 383V306C664 321 687 297 687 231V73C687 -21 708 -53 793 -53ZM778 640 700 660C634 457 538 228 340 -14L404 -62C605 188 710 435 778 640Z" transform="translate(0, 880) scale(1,-1)" /></svg>