<svg xmlns="http://www.w3.org/2000/svg" width="1000" height="1000"><path d="M30 465 106 445C141 536 169 664 185 766L107 772C95 670 66 548 30 465ZM102 581H376V658H102ZM89 46 153 11C251 73 328 147 328 256C328 322 279 360 219 360C158 360 109 322 109 256C109 189 156 144 223 155C198 121 153 82 89 46ZM219 217C196 217 177 232 177 256C177 279 196 295 219 295C241 295 260 279 260 256C260 232 241 217 219 217ZM307 278V480H229V333ZM131 506V429H372V506ZM44 46 72 -30 381 69 354 145ZM732 -66C897 -66 930 121 930 363C930 605 858 701 712 701C604 701 501 670 439 626L458 552C523 596 620 621 712 621C809 621 850 520 850 363C850 162 822 12 726 12C659 12 607 25 565 49L544 -28C587 -48 640 -66 732 -66ZM314 409 384 363C470 492 527 655 564 817L486 833C449 667 390 512 314 409ZM494 464V384H751V464ZM494 283V203H751V283Z" transform="translate(0, 880) scale(1,-1)" /></svg>