<svg xmlns="http://www.w3.org/2000/svg" width="1000" height="1000"><path d="M14 511 90 482C116 559 139 667 151 752L72 763C60 676 38 577 14 511ZM85 595H277V675H85ZM282 404C282 484 231 525 137 547L112 470C178 455 204 433 204 404C204 371 186 342 154 316L213 260C255 299 282 334 282 404ZM82 47H160V367H82ZM256 157 65 73 96 1 284 84ZM260 364H969V443H260ZM436 725 515 746C504 774 483 814 463 842L387 822C405 795 427 752 436 725ZM290 669H946V748H290ZM729 732 803 716C821 747 843 793 858 826L775 845C766 812 747 766 729 732ZM487 392 410 410C368 242 302 95 226 -15L297 -58C372 52 445 225 487 392ZM679 73V302H599V73ZM485 149H792V226H485ZM403 16V-62H961V16ZM409 301 425 224C485 244 570 261 688 261C830 261 860 226 860 188C860 126 806 117 737 117C640 117 564 119 500 125V44C564 40 640 38 737 38C869 38 940 75 940 188C940 283 896 339 688 339C554 339 467 322 409 301ZM633 433 700 375C771 423 840 476 840 548C840 629 784 654 611 654C444 654 372 622 372 554C372 484 424 459 534 459C628 459 654 510 654 558V704H575V574C575 551 559 536 530 536C484 536 455 542 455 554C455 569 494 577 611 577C699 577 758 566 758 548C758 521 702 472 633 433Z" transform="translate(0, 880) scale(1,-1)" /></svg>