<svg xmlns="http://www.w3.org/2000/svg" width="1000" height="1000"><path d="M225 640 291 678C270 716 230 772 190 813L126 778C162 738 203 680 225 640ZM485 663 559 690C543 733 511 790 476 837L405 811C438 765 470 707 485 663ZM699 669 763 636C805 682 849 742 882 795L806 828C782 779 738 716 699 669ZM815 466 889 439C910 486 920 515 920 543C920 623 818 667 587 667C418 667 263 639 164 601V651H84V456H164V533C276 566 433 588 587 588C782 588 839 567 839 537C839 519 833 501 815 466ZM172 77H252C216 292 260 409 424 553L353 599C188 453 127 294 172 77ZM549 118V445H469V118ZM326 243H692V321H326ZM87 26V-53H913V26ZM235 428 254 351C326 379 427 403 568 403C755 403 790 345 790 282C790 186 722 156 627 156C510 156 419 159 343 167V84C419 79 510 76 627 76C794 76 870 152 870 282C870 387 826 482 568 482C407 482 304 458 235 428Z" transform="translate(0, 880) scale(1,-1)" /></svg>