<svg xmlns="http://www.w3.org/2000/svg" width="1000" height="1000"><path d="M37 485 113 462C148 561 176 700 191 811L114 818C102 706 73 574 37 485ZM109 613H380V691H109ZM94 30 152 -9C250 59 333 156 333 241C333 318 290 365 238 365C170 365 115 327 115 257C115 185 173 144 231 157C206 118 160 69 94 30ZM224 215C201 215 181 231 181 257C181 283 202 298 224 298C245 298 264 281 264 257C264 231 245 215 224 215ZM312 280V500H234V337ZM138 525V448H376V525ZM53 25 78 -49 384 59 360 132ZM385 795V717H888V795ZM351 647V569H922V647ZM368 458 395 381C473 415 568 441 682 441C808 441 839 386 839 319C839 219 778 179 703 179C631 179 563 185 495 199V114C563 102 631 99 703 99C840 99 921 188 921 319C921 426 869 521 682 521C553 521 448 494 368 458ZM676 -81V757H597V-81ZM488 277H771V355H488Z" transform="translate(0, 880) scale(1,-1)" /></svg>