<svg xmlns="http://www.w3.org/2000/svg" width="1000" height="1000"><path d="M56 683H324V761H56ZM229 724H151V-62H229ZM767 502C749 458 727 414 698 369L743 302C826 324 861 295 861 244C861 169 739 107 596 80L634 7C804 54 942 104 942 244C942 357 872 395 793 385L880 560L809 600L794 587C383 538 280 393 280 309C280 247 319 198 390 198C529 198 672 472 797 777L729 813L709 799H351V719H686C600 500 467 278 392 278C370 278 359 289 359 307C359 346 426 459 767 502ZM624 -88 701 -58C681 11 640 106 602 179L529 150C567 81 602 -15 624 -88Z" transform="translate(0, 880) scale(1,-1)" /></svg>