<svg xmlns="http://www.w3.org/2000/svg" width="1000" height="1000"><path d="M163 136H940V212H163ZM600 199 680 189C743 221 798 276 798 322C798 385 736 440 556 440C393 440 291 403 291 342C291 281 359 253 457 253C578 253 632 297 632 398V678H553V408C553 335 519 320 457 320C396 320 371 329 371 341C371 357 430 373 556 373C679 373 713 340 713 319C713 294 677 241 600 199ZM193 479H918V555H193ZM115 614 168 553C289 620 405 700 498 800L422 843C344 756 233 674 115 614ZM528 707C480 667 418 627 354 596L409 536C513 591 639 674 711 730L658 789L641 783H374V707ZM928 -56 952 27C654 9 427 10 283 43C196 63 135 108 109 177L31 147C66 51 144 -8 253 -32C403 -64 625 -73 928 -56Z" transform="translate(0, 880) scale(1,-1)" /></svg>