<svg xmlns="http://www.w3.org/2000/svg" width="1000" height="1000"><path d="M42 685H314V759H42ZM225 724H149V-62H225ZM577 -57C644 -57 680 -24 680 42V697H607V57C607 29 595 15 567 15C532 15 502 20 466 37V-45C501 -54 541 -57 577 -57ZM300 41 366 -6C459 114 526 271 553 420L479 428C447 275 393 152 300 41ZM938 25 974 98C806 177 640 237 471 282L446 215C614 172 782 104 938 25ZM309 554 379 524C435 605 471 712 497 832L421 843C399 726 359 622 309 554ZM316 408H933V480H316ZM420 659H900V730H420Z" transform="translate(0, 880) scale(1,-1)" /></svg>