<svg xmlns="http://www.w3.org/2000/svg" width="1000" height="1000"><path d="M151 640H533V720H151ZM17 485 90 446C152 546 200 686 227 824L150 837C121 699 74 568 17 485ZM342 249V35H421V289C421 401 345 421 264 400V323C319 337 342 314 342 249ZM432 654 355 674C290 476 185 248 11 22L76 -26C253 208 366 454 432 654ZM651 137 695 72C881 178 943 221 943 312C943 389 877 450 705 489C817 555 904 626 985 748L914 794L902 779H573V699H846C772 610 697 550 583 498L591 433C808 390 862 344 862 312C862 271 815 227 651 137ZM922 -92 976 -28C892 31 715 127 581 185L543 115C672 58 842 -33 922 -92ZM297 67 326 -8 553 82 534 157Z" transform="translate(0, 880) scale(1,-1)" /></svg>