<svg xmlns="http://www.w3.org/2000/svg" width="1000" height="1000"><path d="M307 705 230 718C185 476 109 256 34 92L107 54C181 224 261 465 307 705ZM274 36C253 36 242 48 242 77C242 122 276 223 365 333L311 374C214 266 164 148 164 77C164 4 209 -41 274 -41C367 -41 410 35 410 202C410 370 360 437 282 437C232 437 194 418 168 381L185 308C215 342 249 358 281 358C315 358 329 303 329 202C329 70 304 36 274 36ZM61 683H434V762H61ZM933 33 972 114C835 205 700 275 562 325L530 252C667 204 805 124 933 33ZM410 43 480 -8C557 126 614 300 636 465L559 474C531 304 488 167 410 43ZM636 -65C697 -65 735 -29 735 44V742H657V59C657 26 650 8 626 8C597 8 570 15 537 34V-49C568 -60 604 -65 636 -65ZM440 452H936V531H440ZM472 771 488 693C623 696 783 715 893 747L865 821C754 789 611 772 472 771Z" transform="translate(0, 880) scale(1,-1)" /></svg>