<svg xmlns="http://www.w3.org/2000/svg" width="1000" height="1000"><path d="M290 241 348 178C596 299 768 470 842 708L763 726C703 516 541 358 290 241ZM792 -91 827 -18C709 36 587 82 462 118L422 49C548 10 671 -36 792 -91ZM753 72 787 147C699 186 612 219 532 246L492 179C584 146 670 114 753 72ZM335 633 406 587C475 646 544 727 592 802L515 837C475 767 401 684 335 633ZM761 190H878C927 190 955 215 972 327L893 339C886 280 880 268 855 268H779C751 268 741 281 741 306V422H662V282C662 218 698 190 761 190ZM313 433 373 380C458 436 497 475 515 484C594 527 686 540 757 540C831 540 863 529 863 499C863 468 832 452 796 452C750 452 709 463 675 486L633 413C685 386 739 373 796 373C881 373 942 407 942 499C942 596 866 619 757 619C696 619 654 612 608 598C645 641 678 684 710 731L647 772L631 762H486V682H581C510 587 431 514 313 433ZM14 509 91 479C119 556 144 666 156 751L77 763C65 675 41 575 14 509ZM88 594H294V673H88ZM297 400C297 481 246 522 143 545L119 467C190 452 219 430 219 400C219 367 198 338 164 311L222 254C267 293 297 328 297 400ZM88 39H166V363H88ZM273 150 69 65 99 -7 301 77Z" transform="translate(0, 880) scale(1,-1)" /></svg>