<svg xmlns="http://www.w3.org/2000/svg" width="1000" height="1000"><path d="M237 498 284 558C245 586 201 614 150 640L107 583C157 553 201 527 237 498ZM160 -53C300 -53 358 58 358 167C358 251 302 335 157 372L127 299C240 267 277 224 277 167C277 92 236 26 160 26C129 26 110 42 110 69C110 128 189 180 363 262L323 327C148 246 27 165 27 69C27 -14 83 -53 160 -53ZM160 349 215 306C278 355 343 418 378 468L323 511L309 503H47V424H239C217 396 194 374 160 349ZM161 586 224 543C278 590 340 653 380 703L317 748L302 740H55V662H238C217 635 192 611 161 586ZM511 36V-51C553 -64 604 -70 656 -70C838 -70 963 -6 963 197C963 379 852 442 674 442C641 442 616 440 592 434C661 490 693 565 693 667H617C617 568 570 480 484 416C466 401 438 391 415 381L454 311C519 342 606 365 674 365C798 365 884 325 884 197C884 63 787 8 656 8C596 8 547 18 511 36ZM422 283V207H750V283ZM415 160V81H760V160ZM508 589V509C762 480 923 505 923 663C923 778 813 812 684 812C533 812 439 777 345 725L383 656C462 701 561 734 684 734C785 734 843 705 843 663C843 583 752 552 508 589Z" transform="translate(0, 880) scale(1,-1)" /></svg>