<svg xmlns="http://www.w3.org/2000/svg" width="1000" height="1000"><path d="M64 131 525 278 504 348 44 211ZM248 -72C298 -72 334 -51 334 17V748H258V37C258 13 246 0 230 0C201 0 170 4 130 18V-60C171 -69 209 -72 248 -72ZM52 448H512V527H52ZM85 773 92 695C228 700 384 718 493 739L477 814C375 793 221 775 85 773ZM625 131 671 66C858 172 921 215 921 306C921 383 853 444 680 483C793 549 881 620 963 742L892 788L880 773H547V693H823C748 604 672 544 557 492L565 427C784 384 839 338 839 306C839 265 792 221 625 131ZM900 -98 954 -34C869 25 690 121 555 180L517 109C648 52 819 -39 900 -98Z" transform="translate(0, 880) scale(1,-1)" /></svg>