<svg xmlns="http://www.w3.org/2000/svg" width="1000" height="1000"><path d="M31 481 106 458C139 560 166 703 180 817L104 824C93 709 66 573 31 481ZM100 614H348V692H100ZM74 12 130 -28C225 42 307 145 307 231C307 309 266 356 215 356C150 356 96 318 96 247C96 174 153 133 209 146C185 105 138 52 74 12ZM202 204C179 204 161 221 161 247C161 274 180 289 202 289C222 289 241 272 241 247C241 221 222 204 202 204ZM289 270V497H211V328ZM130 522V445H343V522ZM44 7 71 -67 351 44 325 117ZM504 -65C561 -65 593 -29 593 92C593 209 560 463 496 817L421 800C484 451 514 193 514 92C514 31 509 13 486 13C470 13 449 22 428 34V-53C453 -62 476 -65 504 -65ZM315 -20 390 -51C445 112 473 252 498 417L422 427C398 267 370 132 315 -20ZM355 542H590V619H355ZM588 512 666 489C693 586 716 716 727 823L648 829C636 720 614 597 588 512ZM650 630H940V708H650ZM690 46 765 19C812 88 875 192 912 258L840 304L828 293H763C790 367 808 454 826 571L749 582C732 460 704 350 662 247L729 204L740 214H791C766 161 731 105 690 46ZM941 -88 965 -12C852 30 740 62 631 85L603 11C719 -15 830 -49 941 -88ZM641 492V415H926V492Z" transform="translate(0, 880) scale(1,-1)" /></svg>