<svg xmlns="http://www.w3.org/2000/svg" width="1000" height="1000"><path d="M129 461 201 427C239 475 276 535 317 624L241 652C205 568 166 506 129 461ZM46 607H582V687H46ZM450 329V46H529V390L472 421L450 409C265 395 39 269 39 84C39 -6 89 -53 172 -53C305 -53 384 74 384 243C384 383 365 493 228 493C173 493 131 477 98 458L130 386C153 400 189 413 228 413C284 413 304 351 304 243C304 114 254 27 172 27C134 27 119 46 119 84C119 201 277 316 450 329ZM608 155 408 42 448 -27 649 86ZM307 643 386 664C371 716 347 776 322 824L245 802C268 755 295 692 307 643ZM694 133 733 68C891 170 944 212 944 302C944 378 890 438 746 475C838 539 909 611 979 726L907 771L897 756H628V678H847C786 593 729 537 637 485L643 418C823 377 864 333 864 302C864 262 829 220 694 133ZM919 -91 972 -28C900 28 749 119 634 175L593 109C704 54 850 -34 919 -91Z" transform="translate(0, 880) scale(1,-1)" /></svg>