<svg xmlns="http://www.w3.org/2000/svg" width="1000" height="1000"><path d="M426 100H788C868 100 889 140 904 268L824 275C817 194 807 178 772 178H460C431 178 422 182 422 190C422 203 438 213 760 341L713 417L682 405H612L786 529L726 590L702 580C339 563 127 506 127 397C127 335 171 302 232 302C331 302 413 360 749 728L691 775L670 765H375V687H609C357 417 277 381 232 381C215 381 207 386 207 397C207 433 350 488 611 500L454 396L484 327H521C339 259 312 227 312 180C312 130 347 100 426 100ZM162 569 220 515C329 605 411 700 480 805L407 840C346 742 262 647 162 569ZM883 319 955 356C934 406 894 472 856 518L790 482C829 433 865 369 883 319ZM928 -55 952 29C654 8 427 9 283 50C196 74 135 136 109 225L31 201C66 80 144 6 253 -24C403 -65 625 -76 928 -55Z" transform="translate(0, 880) scale(1,-1)" /></svg>