<svg xmlns="http://www.w3.org/2000/svg" width="1000" height="1000"><path d="M33 475 109 454C144 545 172 673 187 775L110 781C98 679 69 557 33 475ZM105 590H376V667H105ZM90 56 155 20C253 83 330 157 330 265C330 332 280 369 220 369C160 369 111 332 111 265C111 199 158 153 225 164C200 131 155 92 90 56ZM220 226C198 226 178 242 178 265C178 288 198 304 220 304C243 304 262 288 262 265C262 242 243 226 220 226ZM308 287V489H230V343ZM134 515V439H373V515ZM47 56 75 -20 381 79 355 155ZM338 700 380 633C442 682 525 728 670 728C820 728 850 625 850 505C850 345 795 264 697 264C621 264 555 268 479 281L469 203C545 189 621 188 697 188C870 188 929 316 929 505C929 662 893 808 670 808C501 808 402 750 338 700ZM346 -49H927V27H346ZM580 -12H659V662H580ZM468 439H770V519H468Z" transform="translate(0, 880) scale(1,-1)" /></svg>