<svg xmlns="http://www.w3.org/2000/svg" width="1000" height="1000"><path d="M41 488 119 464C156 563 186 702 202 813L124 821C110 709 80 577 41 488ZM117 615H419V694H117ZM117 34 177 -5C279 63 363 158 363 243C363 320 318 367 264 367C193 367 136 329 136 259C136 187 196 144 257 159C231 120 186 73 117 34ZM250 217C225 217 205 233 205 259C205 284 226 300 250 300C272 300 292 283 292 260C292 233 272 217 250 217ZM339 282V503H260V339ZM146 528V450H415V528ZM61 26 84 -49 424 59 401 133ZM623 27 697 1C801 113 850 206 850 337C850 483 790 537 665 537C547 537 471 473 471 363C471 273 515 218 595 218C667 218 708 272 708 336V729H630V353C630 320 619 302 594 302C570 302 551 324 551 363C551 409 575 455 665 455C746 455 771 417 771 337C771 238 729 145 623 27ZM410 -36H943V44H410ZM434 697H916V777H434ZM895 158 967 192C944 254 918 314 888 373L819 341C848 282 873 220 895 158Z" transform="translate(0, 880) scale(1,-1)" /></svg>