<svg xmlns="http://www.w3.org/2000/svg" width="1000" height="1000"><path d="M52 185 70 106 416 192 398 270ZM230 -60C278 -60 305 -34 305 27V521H226V35C226 22 220 17 206 17C187 17 162 21 127 34L128 -49C164 -57 197 -60 230 -60ZM122 577 79 439C75 426 69 419 60 414L98 339L118 346H373V426H157L205 577H406V656H64V577ZM145 651 221 677C208 714 185 772 160 817L87 790C111 745 134 690 145 651ZM254 676 320 646C350 698 373 746 394 798L311 821C297 770 278 721 254 676ZM744 -65C876 -65 943 44 943 228C943 399 852 467 706 467C669 467 640 463 616 458C672 518 782 642 873 755L813 805L797 797H456V717H740C682 633 578 512 499 435C486 423 422 392 381 366L429 294C504 347 598 386 694 386C795 386 864 345 864 228C864 101 829 15 738 15C692 15 647 23 602 43V-46C645 -60 693 -65 744 -65ZM434 113 487 46C598 112 715 221 790 333L720 371C650 259 537 169 434 113ZM692 76 757 125C716 191 640 280 584 331L522 285C577 235 654 139 692 76ZM361 542H932V622H361Z" transform="translate(0, 880) scale(1,-1)" /></svg>