<svg xmlns="http://www.w3.org/2000/svg" width="1000" height="1000"><path d="M296 -68C489 -68 594 25 594 166C594 295 531 365 368 365C325 365 280 359 248 350C275 399 314 489 336 568L256 583C237 502 194 389 153 324L134 314L171 241C222 267 288 285 368 285C473 285 515 247 515 166C515 54 395 10 296 10C230 10 200 26 200 54C200 81 223 97 257 97C302 97 331 69 343 -18L424 -4C407 100 360 173 257 173C175 173 122 128 122 54C122 -29 183 -68 296 -68ZM19 472 91 434C161 547 216 684 244 829L165 840C137 698 82 562 19 472ZM109 640 154 569C223 629 313 676 392 676C459 676 491 642 491 589C491 513 457 465 251 498V418C519 380 570 473 570 589C570 702 513 756 392 756C276 756 178 693 109 640ZM691 127 729 62C885 168 937 211 937 301C937 378 883 439 742 479C833 545 903 619 973 739L900 782L891 767H625V689H845C784 600 726 541 634 487L641 422C818 379 858 333 858 301C858 261 824 217 691 127ZM912 -101 965 -39C895 19 745 112 632 169L590 103C700 47 844 -42 912 -101Z" transform="translate(0, 880) scale(1,-1)" /></svg>