<svg xmlns="http://www.w3.org/2000/svg" width="1000" height="1000"><path d="M45 479 120 457C153 555 180 693 195 802L118 809C107 698 80 567 45 479ZM114 605H366V683H114ZM90 28 149 -11C244 56 325 139 325 254C325 322 277 361 218 361C160 361 112 322 112 254C112 186 156 138 225 150C200 112 154 66 90 28ZM218 213C197 213 178 229 178 254C178 278 197 295 218 295C240 295 259 278 259 254C259 229 240 213 218 213ZM306 276V494H228V334ZM144 520V443H362V520ZM56 26 86 -50 370 57 342 131ZM539 -64H809C929 -64 944 6 954 137L877 147C870 50 865 16 811 16H548C488 16 478 36 478 61C478 119 578 189 701 255C800 309 899 362 899 454C899 529 846 571 710 571C608 571 535 551 471 525L495 449C555 476 614 490 710 490C792 490 817 476 817 454C817 415 752 372 663 325C504 243 396 163 396 61C396 -18 437 -64 539 -64ZM794 157 844 219C751 278 640 337 527 375L486 309C596 273 703 213 794 157ZM341 548 401 489C487 565 561 678 617 820L543 840C490 705 422 614 341 548ZM622 553 698 523C738 579 783 663 813 734L746 767L735 758H532V678H698C678 636 647 587 622 553Z" transform="translate(0, 880) scale(1,-1)" /></svg>