<svg xmlns="http://www.w3.org/2000/svg" width="1000" height="1000"><path d="M67 6 91 -69 493 51 468 126ZM47 544 113 492C190 592 246 697 293 815L216 844C173 736 116 630 47 544ZM181 28 244 -14 466 220 403 279 385 269H329L490 502L432 554L414 544C150 510 49 428 49 347C49 294 83 255 141 255C210 255 252 293 471 723L405 763L390 752H203V672H355C181 351 159 335 144 335C134 335 129 341 129 352C129 371 178 427 362 455L224 258L265 189H328ZM668 -84C826 -84 944 -5 944 122C944 229 875 291 736 291C693 291 658 286 623 276C651 318 688 400 710 469L629 486C611 415 573 316 533 259L514 249L547 176C595 198 652 213 723 213C813 213 860 202 860 122C860 21 754 -5 668 -5C608 -5 581 5 581 23C581 41 601 57 627 57C673 57 704 35 712 -37L781 -24C768 66 717 124 628 124C557 124 508 73 508 23C508 -40 557 -84 668 -84ZM537 580 565 506C613 526 678 546 746 546C816 546 842 531 842 486C842 420 803 380 610 409V335C868 301 924 389 924 486C924 579 859 625 746 625C664 625 588 602 537 580ZM644 606 707 566C770 629 822 691 852 738L798 780L775 766H563V687H718C700 661 674 633 644 606ZM404 573 470 517C533 585 610 712 645 829L565 847C530 730 461 626 404 573Z" transform="translate(0, 880) scale(1,-1)" /></svg>