<svg xmlns="http://www.w3.org/2000/svg" width="1000" height="1000"><path d="M20 486 97 464C132 558 161 689 177 794L99 801C86 695 57 570 20 486ZM93 605H373V682H93ZM83 57 146 20C245 84 324 162 324 271C324 338 275 376 213 376C152 376 103 338 103 271C103 204 150 158 219 169C194 134 149 94 83 57ZM213 231C191 231 171 247 171 271C171 294 191 310 213 310C236 310 256 294 256 271C256 247 236 231 213 231ZM302 293V501H224V349ZM123 526V450H370V526ZM36 55 63 -21 379 80 352 156ZM352 310 421 270C510 401 590 620 642 810L564 828C516 641 434 432 352 310ZM753 -44 829 -11C790 100 726 253 666 371L594 340C652 220 717 63 753 -44ZM508 488H966V568H508Z" transform="translate(0, 880) scale(1,-1)" /></svg>