<svg xmlns="http://www.w3.org/2000/svg" width="1000" height="1000"><path d="M276 644 202 658C160 447 89 255 18 112L89 75C158 224 233 434 276 644ZM244 67C226 67 216 78 216 103C216 141 247 224 330 318L277 358C185 263 139 168 139 103C139 34 182 -7 244 -7C333 -7 373 60 373 209C373 358 324 419 251 419C204 419 170 402 145 368L161 300C189 329 221 344 251 344C281 344 295 295 295 209C295 98 270 67 244 67ZM45 619H384V697H45ZM763 295 819 232C910 309 954 402 954 513C954 602 911 672 788 673C609 674 477 539 358 403L422 346C542 491 659 593 788 593C851 593 875 558 875 513C875 436 841 358 763 295ZM607 -60H819C915 -60 934 -6 944 163L867 168C861 38 854 16 807 16H623C573 16 563 29 563 79V816H484V80C484 -31 508 -60 607 -60Z" transform="translate(0, 880) scale(1,-1)" /></svg>