<svg xmlns="http://www.w3.org/2000/svg" width="1000" height="1000"><path d="M53 183 72 105 438 193 420 271ZM245 -66C293 -66 320 -40 320 23V530H241V29C241 16 235 11 219 11C198 11 172 15 137 28L138 -55C175 -63 210 -66 245 -66ZM131 587 83 445C79 432 73 424 63 419L100 344L121 351H393V431H161L213 587H428V667H65V587ZM155 662 231 689C218 726 193 785 167 831L94 803C119 758 144 702 155 662ZM267 687 332 656C364 709 389 759 411 812L328 836C313 784 293 733 267 687ZM440 594H930V672H440ZM487 385H883V463H487ZM725 -7V823H645V-7ZM487 171H883V249H487ZM954 25H417V-53H954Z" transform="translate(0, 880) scale(1,-1)" /></svg>