<svg xmlns="http://www.w3.org/2000/svg" width="1000" height="1000"><path d="M809 577 873 526C911 564 923 604 923 648C923 750 860 815 633 815C413 815 210 752 70 689L111 619C238 675 440 734 633 734C779 734 844 706 844 648C844 622 834 601 809 577ZM235 370 303 329C394 410 480 507 577 654L498 689C411 550 321 445 235 370ZM110 477H884V556H110ZM710 247V-15H790V310L733 337L710 326C463 314 105 233 105 58C105 -25 162 -69 271 -69C440 -69 568 29 568 182C568 307 515 395 353 395C286 395 234 382 194 365L222 291C253 305 300 316 353 316C433 316 487 271 487 182C487 79 398 10 271 10C212 10 185 29 185 58C185 150 479 236 710 247ZM895 22H605V-57H895Z" transform="translate(0, 880) scale(1,-1)" /></svg>