<svg xmlns="http://www.w3.org/2000/svg" width="1000" height="1000"><path d="M511 750 590 770C578 799 557 832 534 858L455 838C476 813 499 777 511 750ZM839 638 913 617C933 657 940 679 940 695C940 773 838 801 607 801C441 801 286 781 184 752V788H104V634H184V684C296 708 453 724 607 724C802 724 859 711 859 689C859 678 854 664 839 638ZM129 602 180 540C276 569 385 609 452 658L378 708C328 669 226 625 129 602ZM847 538 911 599C852 627 747 673 658 707L600 650C686 614 791 567 847 538ZM919 -67 942 15C650 0 427 1 286 29C200 45 141 79 115 135L37 101C72 22 148 -27 255 -47C403 -73 621 -81 919 -67ZM333 487 412 514C398 538 371 579 340 605L265 578C292 550 317 515 333 487ZM131 446H909V526H131ZM621 502 695 477C731 511 759 547 781 582L699 607C682 575 657 536 621 502ZM90 173 130 105C165 117 194 129 235 149C251 156 270 158 284 153C300 147 321 133 338 103L466 165L440 222L364 191C356 198 344 206 332 209C356 230 381 255 406 285L342 327C269 256 184 201 90 173ZM503 39C616 39 657 109 657 197C657 268 587 364 483 439L423 389C501 343 577 258 576 197C575 146 559 116 499 116C460 116 424 120 387 132V50C420 42 459 39 503 39ZM898 86 950 157C832 202 671 245 477 292L453 219C636 175 786 134 898 86ZM569 315 594 245C700 267 777 283 868 315L821 385C740 355 674 337 569 315ZM570 466 485 510C433 424 310 389 121 347L156 275C362 324 511 367 570 466Z" transform="translate(0, 880) scale(1,-1)" /></svg>