<svg xmlns="http://www.w3.org/2000/svg" width="1000" height="1000"><path d="M513 755H119V470C119 325 111 122 23 -23L93 -60C186 92 197 317 197 470V676H943V755H600L546 852L469 834ZM230 624V546H920V624ZM389 661V379H469V661ZM230 506V428H920V506ZM670 661V379H750V661ZM624 136C806 136 889 158 889 258C889 344 803 374 633 374C534 374 474 363 405 340C419 355 430 369 442 388L362 416C327 360 278 304 217 255L287 210C306 225 325 244 342 260C415 282 532 296 633 296C746 296 810 280 810 258C810 235 768 213 624 213C547 213 458 218 396 224V144C458 140 525 136 624 136ZM163 -25 208 -91C548 -12 591 97 609 266L529 268C512 119 488 50 163 -25ZM678 -91H826C907 -91 924 -45 930 33L853 41C850 -2 846 -13 813 -13H689C662 -13 657 -3 657 33V120H577V28C577 -65 599 -91 678 -91ZM933 35 970 109C907 128 821 148 758 159L732 88C796 77 873 56 933 35Z" transform="translate(0, 880) scale(1,-1)" /></svg>