<svg xmlns="http://www.w3.org/2000/svg" width="1000" height="1000"><path d="M31 471 105 451C135 548 161 684 175 792L98 797C89 689 64 559 31 471ZM96 597H315V673H96ZM56 23 113 -15C204 51 284 132 284 249C284 316 237 356 182 356C128 356 80 316 80 249C80 183 122 134 187 146C163 109 117 61 56 23ZM182 208C162 208 144 225 144 249C144 273 161 290 182 290C203 290 221 273 221 249C221 225 203 208 182 208ZM267 272V487H190V329ZM128 512V437H310V512ZM38 24 71 -51 318 54 287 129ZM371 -23 450 -15C400 119 390 215 418 296C450 387 453 458 405 535L329 517C374 434 376 372 348 302C315 224 321 119 371 -23ZM445 612 492 677C458 705 396 750 349 779L304 721C351 689 413 641 445 612ZM765 -59C888 -59 939 67 939 274C939 475 866 548 732 548C712 548 695 547 679 544C741 605 812 679 870 745L811 800L795 792H492V712H734C684 648 627 587 554 519C542 508 497 481 462 456L508 386C571 438 639 468 720 468C809 468 860 427 860 272C860 147 832 21 762 21C728 21 697 31 664 52V-39C696 -53 728 -59 765 -59ZM433 154 501 99C581 184 644 292 674 411L597 429C571 319 512 227 433 154ZM480 -3 546 -59C659 28 761 205 791 408L714 423C683 225 592 77 480 -3Z" transform="translate(0, 880) scale(1,-1)" /></svg>