<svg xmlns="http://www.w3.org/2000/svg" width="1000" height="1000"><path d="M56 682H336V762H56ZM236 724H156V-62H236ZM937 -54 952 31C735 8 570 9 465 51C401 77 357 141 338 234L262 216C288 88 347 10 429 -21C542 -64 709 -76 937 -54ZM770 521C756 481 738 443 715 403L758 337C826 356 857 335 857 286C857 217 703 164 554 141L586 59C754 98 937 157 937 287C937 394 878 428 808 420L881 582L810 620L796 607C448 553 353 429 353 346C353 289 389 240 456 240C588 240 700 495 810 787L741 821L724 807H408V728H700C625 519 522 319 458 319C441 319 432 328 432 344C432 380 485 474 770 521Z" transform="translate(0, 880) scale(1,-1)" /></svg>