<svg xmlns="http://www.w3.org/2000/svg" width="1000" height="1000"><path d="M157 608 233 631C223 678 202 755 181 807L105 784C126 732 145 665 157 608ZM43 524H522V604H43ZM330 606 401 588C427 654 448 726 464 793L382 812C371 747 351 670 330 606ZM65 -22 282 71 252 144 32 50ZM112 71 183 54C219 140 261 274 290 388L218 419L207 406H60V326H191C172 250 141 150 112 71ZM364 55H442V442H364ZM503 136 294 55 324 -20 533 61ZM707 -84C852 -84 959 -5 959 122C959 229 896 291 768 291C729 291 700 286 669 277C695 319 729 400 750 469L670 486C653 415 618 316 581 259L564 249L594 176C638 198 692 213 755 213C834 213 876 202 876 122C876 21 786 -5 707 -5C654 -5 631 5 631 23C631 41 648 57 670 57C710 57 737 35 744 -37L811 -24C799 66 752 124 670 124C605 124 560 73 560 23C560 -39 605 -84 707 -84ZM585 580 614 507C657 527 716 546 777 546C838 546 861 531 861 486C861 420 826 380 652 409V335C891 301 942 389 942 486C942 579 881 625 777 625C702 625 632 602 585 580ZM679 606 741 566C800 630 849 692 877 739L823 780L800 766H609V687H748C731 661 707 633 679 606ZM458 573 525 518C583 586 654 713 686 830L607 847C574 730 511 626 458 573Z" transform="translate(0, 880) scale(1,-1)" /></svg>