<svg xmlns="http://www.w3.org/2000/svg" width="1000" height="1000"><path d="M63 508 560 545 544 618 49 588ZM278 428C329 428 361 450 361 503V845H286V517C286 507 276 501 262 501C239 501 214 505 181 513V437C215 431 246 428 278 428ZM72 629H547V704H72ZM98 719H521V795H98ZM525 504 571 432C716 488 940 605 940 714C940 794 885 831 774 831C678 831 609 814 538 795L558 715C627 740 689 751 774 751C828 751 858 742 858 714C858 644 673 553 525 504ZM918 429 975 495C842 588 743 640 620 686L574 623C696 575 787 524 918 429ZM36 -14 106 -65C199 22 212 156 212 244V344H944V422H132V244C132 161 124 68 36 -14ZM402 230V152C755 135 878 152 878 240C878 309 810 336 619 336C451 336 328 318 251 299L287 226C364 245 468 261 619 261C725 261 796 251 796 240C796 232 696 207 402 230ZM241 -76H910V2H241ZM587 -12H683C728 4 761 28 761 63C761 121 685 142 567 142C454 142 374 126 374 71C374 27 429 7 520 7C577 7 615 28 615 57V249H535V82C535 69 526 63 505 63C475 63 454 65 454 71C454 77 487 79 567 79C636 79 679 74 679 61C679 37 658 16 587 -12Z" transform="translate(0, 880) scale(1,-1)" /></svg>