<svg xmlns="http://www.w3.org/2000/svg" width="1000" height="1000"><path d="M37 485 113 462C148 561 176 700 191 811L114 818C102 706 73 574 37 485ZM109 613H380V691H109ZM94 30 153 -9C251 59 333 144 333 257C333 325 285 365 224 365C162 365 115 325 115 257C115 189 161 141 231 152C206 113 160 69 94 30ZM224 216C201 216 182 232 182 257C182 282 201 298 224 298C246 298 265 282 265 257C265 232 246 216 224 216ZM312 280V500H234V337ZM138 525V448H376V525ZM51 26 79 -50 385 58 358 133ZM385 795V717H888V795ZM351 647V569H922V647ZM368 458 395 381C473 415 568 441 682 441C808 441 839 386 839 319C839 219 778 179 703 179C631 179 563 185 495 199V114C563 102 631 99 703 99C840 99 921 188 921 319C921 426 869 521 682 521C553 521 448 494 368 458ZM676 -81V757H597V-81ZM488 277H771V355H488Z" transform="translate(0, 880) scale(1,-1)" /></svg>