<svg xmlns="http://www.w3.org/2000/svg" width="1000" height="1000"><path d="M235 595 291 654C247 695 198 735 143 773L90 716C145 678 192 637 235 595ZM148 -25C265 -25 323 93 323 209C323 304 272 392 152 431L127 355C216 322 243 267 243 209C243 130 210 56 148 56C125 56 110 68 110 92C110 157 176 223 327 311L291 381C133 286 31 199 31 92C31 9 78 -25 148 -25ZM150 402 208 366C262 421 315 493 346 546L282 592L270 584H54V506H226C206 470 180 434 150 402ZM367 523H929V603H367ZM335 -46H966V34H335ZM565 8 667 -16C728 35 779 144 779 280C779 369 721 420 627 420C534 420 476 369 476 280C476 191 534 140 627 140C650 140 667 143 682 151C664 88 614 27 565 8ZM627 216C580 216 555 241 555 280C555 319 580 344 627 344C675 344 699 319 699 280C699 241 675 216 627 216ZM740 662 779 737C730 764 623 812 549 838L511 771C580 748 689 692 740 662ZM744 562H665V387L744 312Z" transform="translate(0, 880) scale(1,-1)" /></svg>