<svg xmlns="http://www.w3.org/2000/svg" width="1000" height="1000"><path d="M142 600 161 530C195 551 225 561 267 561C317 561 333 510 333 448C333 373 308 328 245 317V239C367 247 410 333 410 448C410 568 371 640 268 640C215 640 174 624 142 600ZM204 80H281V439H204ZM63 46 95 -27 406 117 373 191ZM42 315 117 279C159 407 192 570 208 735L131 744C114 581 80 419 42 315ZM633 93 655 15C839 47 944 125 944 290C944 412 888 507 738 507C675 507 628 497 580 473L821 738L756 795L740 787H418V707H686C636 639 518 491 455 421C438 402 416 384 366 331L423 278C501 370 608 427 738 427C828 427 865 358 865 290C865 196 789 115 633 93ZM635 -77 714 -53C695 40 663 147 631 217L557 193C588 127 618 15 635 -77Z" transform="translate(0, 880) scale(1,-1)" /></svg>