<svg xmlns="http://www.w3.org/2000/svg" width="1000" height="1000"><path d="M244 846 199 779C253 758 313 733 344 716L391 785C359 802 298 826 244 846ZM211 538 293 511 463 684 404 733 385 727H83V647H313ZM505 614 123 545 139 466 523 539ZM472 481 528 413C674 483 791 546 919 640L861 697L823 675H655C694 712 735 753 778 801L703 849C649 778 598 728 543 680C531 670 518 664 502 659L534 587L557 596H702C635 556 553 516 472 481ZM69 281 133 239C218 303 271 370 320 451L248 479C200 398 137 331 69 281ZM65 78 134 47C173 87 204 145 223 196L149 218C133 170 104 114 65 78ZM78 -57H930V21H78ZM278 80H730V158H278ZM458 -15H538V255H458ZM243 219H797V298H243ZM866 42 943 72C930 115 900 174 864 223L793 195C829 146 854 82 866 42ZM219 332H879V410H219Z" transform="translate(0, 880) scale(1,-1)" /></svg>