<svg xmlns="http://www.w3.org/2000/svg" width="1000" height="1000"><path d="M23 468 97 451C128 538 154 660 168 757L92 762C82 664 56 547 23 468ZM89 577H316V654H89ZM53 65 108 31C200 90 282 172 282 253C282 327 242 371 193 371C129 371 77 335 77 268C77 199 130 165 182 173C158 143 112 99 53 65ZM179 229C158 229 140 245 140 268C140 295 159 307 179 307C198 307 217 291 217 267C217 245 198 229 179 229ZM266 290V483H188V345ZM120 509V434H312V509ZM33 70 62 -4 319 91 292 163ZM604 -71C715 -71 761 9 761 168C761 294 687 434 594 511L535 458C622 379 681 267 681 168C681 60 657 7 595 7C556 7 522 14 486 27V-59C518 -67 551 -71 604 -71ZM318 98 377 50C442 114 501 197 544 283L471 319C435 241 378 161 318 98ZM438 417 501 368C634 498 684 628 732 820L652 839C612 648 558 533 438 417ZM896 52 971 84C947 183 906 289 862 370L791 342C834 259 873 150 896 52ZM349 588H942V668H349Z" transform="translate(0, 880) scale(1,-1)" /></svg>