<svg xmlns="http://www.w3.org/2000/svg" width="1000" height="1000"><path d="M36 485 112 465C147 553 175 677 190 776L113 782C101 683 72 565 36 485ZM108 595H381V672H108ZM94 80 160 45C258 105 334 176 334 282C334 348 284 385 224 385C164 385 114 348 114 282C114 217 161 172 228 183C202 152 158 114 94 80ZM224 244C202 244 182 259 182 282C182 305 201 320 224 320C247 320 266 305 266 282C266 259 246 244 224 244ZM312 304V499H234V359ZM137 525V449H377V525ZM50 81 78 5 385 101 359 176ZM637 -65C705 -65 734 -24 734 36V452C818 525 905 624 970 723L904 773L891 762H407V682H842C791 613 718 540 655 487V49C655 22 645 11 628 11C599 10 545 21 498 40V-45C542 -57 595 -65 637 -65Z" transform="translate(0, 880) scale(1,-1)" /></svg>