<svg xmlns="http://www.w3.org/2000/svg" width="1000" height="1000"><path d="M331 55 412 19C451 60 492 128 492 183C492 264 443 302 343 302C234 302 182 268 182 197C182 134 219 90 297 90C355 90 383 131 383 168V373H304V201C304 176 300 167 285 167C268 167 261 178 261 197C261 215 277 224 343 224C400 224 413 209 413 183C413 150 389 103 331 55ZM93 -59 562 29 547 106 78 18ZM61 240 135 205C180 297 210 375 251 500L174 520C135 396 103 318 61 240ZM40 565 110 531C162 629 191 722 218 828L139 844C117 740 88 656 40 565ZM172 335H532V413H172ZM225 547 301 569C293 602 278 647 262 684L187 664C202 631 216 588 225 547ZM124 480H563V558H124ZM148 689H571V767H149ZM377 564 450 545C485 631 470 591 499 667L415 687C407 648 393 600 377 564ZM724 -84C860 -84 959 -5 959 122C959 229 900 291 780 291C745 291 720 287 692 278C717 320 748 400 767 469L688 486C673 415 640 316 605 259L589 249L617 176C659 198 709 213 768 213C839 213 877 202 877 122C877 21 798 -5 724 -5C677 -5 657 5 657 23C657 41 671 57 690 57C726 57 750 35 756 -37L822 -24C811 66 767 124 690 124C629 124 587 73 587 23C587 -38 629 -84 724 -84ZM609 580 639 508C679 527 733 546 789 546C843 546 864 531 864 486C864 420 832 380 672 409V336C897 302 944 390 944 486C944 579 887 625 789 625C719 625 653 602 609 580ZM694 606 755 566C811 630 857 693 884 740L831 780L808 766H631V687H759C744 661 720 633 694 606ZM487 573 554 518C609 586 675 713 705 830L626 847C596 730 537 626 487 573Z" transform="translate(0, 880) scale(1,-1)" /></svg>