<svg xmlns="http://www.w3.org/2000/svg" width="1000" height="1000"><path d="M117 460V380H430V460ZM79 47H159V664H79ZM58 69 80 -8 448 91 426 168ZM370 589 430 648C355 714 291 764 221 816L162 764C236 707 298 656 370 589ZM605 137 653 72C853 178 920 221 920 312C920 389 847 450 661 489C783 555 878 624 964 747L895 794L882 779H520V699H820C740 610 656 549 532 498L541 433C776 390 837 344 837 312C837 271 785 227 605 137ZM901 -93 955 -27C865 32 674 129 529 188L493 116C632 59 815 -33 901 -93Z" transform="translate(0, 880) scale(1,-1)" /></svg>