<svg xmlns="http://www.w3.org/2000/svg" width="1000" height="1000"><path d="M54 68 82 -15 108 -2 500 41 491 121 189 89C294 247 394 458 523 754L443 788C316 478 216 258 136 146C106 103 72 76 54 68ZM189 466 264 500C232 577 178 680 127 768L56 725C110 639 156 549 189 466ZM496 -58 571 -26C542 67 499 181 447 286L376 255C428 148 466 33 496 -58ZM674 130 713 65C874 169 927 211 927 301C927 378 872 438 726 476C820 540 892 612 963 730L891 774L881 759H606V681H831C769 595 710 538 615 485L622 419C805 377 847 333 847 301C847 261 812 218 674 130ZM903 -94 956 -32C883 25 730 117 613 173L572 107C685 51 833 -37 903 -94Z" transform="translate(0, 880) scale(1,-1)" /></svg>