<svg xmlns="http://www.w3.org/2000/svg" width="1000" height="1000"><path d="M29 491 106 471C141 561 170 686 185 786L108 792C95 692 66 572 29 491ZM102 604H378V681H102ZM90 81 155 46C254 107 330 179 330 286C330 352 280 389 220 389C160 389 110 352 110 286C110 220 157 175 224 186C199 154 154 116 90 81ZM220 247C198 247 178 263 178 286C178 309 197 324 220 324C243 324 262 309 262 286C262 263 243 247 220 247ZM308 308V506H230V363ZM132 532V455H374V532ZM44 82 72 5 383 102 357 178ZM619 -61C817 -61 948 55 948 232C948 381 887 494 698 494C659 494 631 490 598 483C696 566 779 644 881 752L821 811L803 800H375V720H738C674 646 556 531 468 460C450 445 427 435 401 424L443 344C512 389 617 414 698 414C812 414 868 340 868 232C868 80 744 19 619 19C557 19 518 44 518 96C518 136 541 163 579 163C635 163 665 111 675 5L752 22C737 155 683 243 579 243C496 243 439 184 439 96C439 5 507 -61 619 -61Z" transform="translate(0, 880) scale(1,-1)" /></svg>