<svg xmlns="http://www.w3.org/2000/svg" width="1000" height="1000"><path d="M42 685H294V759H42ZM215 724H139V-62H215ZM288 1 314 -79C572 -46 921 56 921 286C921 374 861 475 671 475C478 475 376 401 376 287C376 209 437 139 517 139C628 139 703 235 703 369V839H625V369C625 277 585 210 517 210C481 210 453 242 453 287C453 343 498 404 671 404C810 404 839 338 839 287C839 98 497 24 288 1ZM285 457 356 419C419 525 464 663 494 799L418 812C391 676 343 542 285 457ZM406 584H924V657H406Z" transform="translate(0, 880) scale(1,-1)" /></svg>