<svg xmlns="http://www.w3.org/2000/svg" width="1000" height="1000"><path d="M31 475 105 455C136 552 162 689 176 798L100 804C90 694 64 563 31 475ZM97 602H325V679H97ZM62 25 119 -13C211 54 292 135 292 252C292 319 244 359 188 359C133 359 85 319 85 252C85 186 127 136 193 148C169 111 123 63 62 25ZM188 211C168 211 149 228 149 252C149 276 167 293 188 293C209 293 227 276 227 252C227 228 209 211 188 211ZM274 275V491H197V332ZM128 516V441H320V516ZM39 25 71 -50 329 56 298 131ZM733 -64C877 -64 951 64 951 257C951 421 875 512 769 512C753 512 741 510 727 507C782 569 852 651 916 736L844 793L829 777H598V698H785C738 629 691 557 644 497C631 482 613 473 590 462L617 391C658 414 706 431 765 431C828 431 871 367 871 257C871 106 813 15 730 15C680 15 652 61 652 121C652 167 673 193 697 193C735 193 761 157 767 -1L836 16C825 195 780 271 697 271C630 271 580 204 580 116C580 6 637 -64 733 -64ZM482 823V-75H560V823ZM519 211 493 284 425 246V668H346V258C346 223 336 204 326 195L360 122Z" transform="translate(0, 880) scale(1,-1)" /></svg>