<svg xmlns="http://www.w3.org/2000/svg" width="1000" height="1000"><path d="M128 631 145 562C170 582 197 591 230 591C273 591 288 531 288 461C288 380 271 329 217 317V236C330 243 365 338 365 461C365 592 329 670 230 670C189 670 154 655 128 631ZM174 57H251V455H174ZM46 15 82 -59 365 101 327 175ZM31 318 106 280C144 421 174 602 188 785L111 793C96 612 65 433 31 318ZM611 -60H923V21H595C523 21 506 35 506 95V236H423V101C423 -34 467 -60 611 -60ZM794 123C895 123 921 224 921 397H424V319H836C838 261 825 198 781 198C738 198 692 204 652 222V137C700 126 751 123 794 123ZM458 548 532 577C520 641 498 704 466 770L395 747C424 682 445 614 458 548ZM389 521H938V599H389ZM642 562 719 587C707 677 688 747 654 839L580 817C613 726 629 653 642 562ZM658 371 739 350C828 513 885 660 930 791L851 814C813 681 747 526 658 371Z" transform="translate(0, 880) scale(1,-1)" /></svg>