<svg xmlns="http://www.w3.org/2000/svg" width="1000" height="1000"><path d="M45 474 121 452C155 549 184 686 199 794L122 801C110 691 81 562 45 474ZM117 599H387V677H117ZM102 28 159 -10C257 57 340 151 340 235C340 312 298 358 245 358C178 358 122 321 122 251C122 179 180 139 238 152C213 114 167 66 102 28ZM231 209C208 209 189 226 189 251C189 277 209 292 231 292C252 292 271 275 271 251C271 226 252 209 231 209ZM319 274V489H241V330ZM146 515V438H383V515ZM60 24 86 -50 391 56 366 129ZM355 -56H924V24H355ZM530 20H664C717 64 737 151 737 228C737 320 694 363 622 363C564 363 508 320 508 245C508 166 558 125 622 125C637 125 651 128 663 136C642 80 600 38 530 20ZM357 709 396 639C461 683 561 732 694 732C813 732 850 689 850 624C850 516 706 504 486 538V452C732 427 930 440 930 624C930 730 873 812 694 812C528 812 422 753 357 709ZM704 292V630H627V322ZM622 195C597 195 578 217 578 245C578 273 597 295 622 295C648 295 667 273 667 245C667 217 648 195 622 195Z" transform="translate(0, 880) scale(1,-1)" /></svg>