<svg xmlns="http://www.w3.org/2000/svg" width="1000" height="1000"><path d="M18 471 93 451C126 545 153 677 167 782L90 788C79 682 53 556 18 471ZM86 591H332V669H86ZM60 38 115 1C210 65 292 156 292 239C292 315 252 361 201 361C136 361 82 324 82 255C82 184 138 146 192 157C168 122 122 74 60 38ZM187 214C165 214 146 230 146 255C146 282 166 295 187 295C207 295 226 279 226 254C226 231 207 214 187 214ZM274 278V486H197V334ZM117 512V436H328V512ZM31 37 58 -37 335 66 309 138ZM381 362 416 286 434 294H908V374H486C548 510 599 667 643 824L566 843C522 682 464 511 411 395C405 381 394 369 381 362ZM323 9 394 -40C446 22 500 118 535 216L456 239C427 152 377 66 323 9ZM626 -71C673 -71 712 -53 712 23V557H379V478H635V34C635 16 629 8 610 7C588 6 558 12 518 29V-58C551 -67 585 -71 626 -71ZM896 -33 966 14C935 77 871 174 815 244L748 202C803 131 866 29 896 -33ZM355 651H928V731H355Z" transform="translate(0, 880) scale(1,-1)" /></svg>