<svg xmlns="http://www.w3.org/2000/svg" width="1000" height="1000"><path d="M515 737H128V470C128 325 120 122 32 -23L104 -60C197 92 208 317 208 470V657H943V737H600L546 846L471 828ZM248 571V491H920V571ZM395 631V260H475V631ZM248 417V337H920V417ZM670 631V260H750V631ZM299 13 359 -40C524 30 709 135 825 221L754 273C647 190 463 81 299 13ZM271 -55 844 -30 834 46 262 25ZM852 -72 926 -30C891 18 816 80 747 126L679 86C738 45 818 -24 852 -72ZM462 189C502 215 548 247 596 285L517 326C450 270 370 209 279 161L344 102L359 111L658 120V198Z" transform="translate(0, 880) scale(1,-1)" /></svg>