<svg xmlns="http://www.w3.org/2000/svg" width="1000" height="1000"><path d="M225 -61C392 -61 441 107 441 250C441 485 351 558 80 537V459C315 482 360 439 360 242C360 146 331 19 225 19C189 19 150 41 150 86C150 190 278 309 498 392L473 465C231 375 68 215 68 86C68 -8 142 -61 225 -61ZM382 606 416 676C309 722 220 754 119 783L100 714C198 686 279 653 382 606ZM595 156 643 94C846 195 913 236 913 323C913 397 839 455 650 493C774 556 869 625 955 743L892 784L879 770H509V695H815C734 610 648 550 521 501L530 439C770 398 833 354 833 323C833 284 779 242 595 156ZM899 -101 947 -39C855 27 663 133 516 198L487 134C628 70 812 -34 899 -101Z" transform="translate(0, 880) scale(1,-1)" /></svg>