<svg xmlns="http://www.w3.org/2000/svg" width="1000" height="1000"><path d="M799 508 862 466C904 494 931 532 931 584C931 668 850 714 583 714C409 714 264 688 154 638V687H76V482H154V573C268 613 418 636 582 636C799 636 845 604 845 580C845 552 832 530 799 508ZM461 552H540V774H461ZM703 586 298 585V507H703ZM823 818 168 817V739H823ZM907 459H119V248C119 168 108 63 31 -19L100 -61C184 31 197 151 197 248V381H907ZM858 -69 915 -10C828 34 697 86 555 132L511 72C654 24 774 -26 858 -69ZM475 279 525 218C629 244 730 274 815 315L758 371C683 336 585 304 475 279ZM418 25V364H337V32C337 16 320 9 306 5L331 -65L547 -19L529 48ZM234 140H904V216H234Z" transform="translate(0, 880) scale(1,-1)" /></svg>