<svg xmlns="http://www.w3.org/2000/svg" width="1000" height="1000"><path d="M62 8 87 -67 462 53 437 128ZM42 547 110 495C182 595 234 700 278 818L200 847C160 739 107 633 42 547ZM170 28 232 -11 440 225 377 282 360 272H311L462 505L403 556L386 547C139 513 44 425 44 347C44 296 75 259 132 259C197 259 243 291 444 727L377 766L363 755H191V675H331C169 354 149 339 136 339C129 339 125 344 125 353C125 372 167 430 339 458L209 261L249 192H309ZM428 -38 500 -80C561 82 568 328 568 498V723H804V477C804 35 822 -73 904 -73C950 -73 971 -21 983 109L923 118C920 41 914 7 904 7C892 7 883 66 883 464V803H490V498C490 338 485 115 428 -38ZM661 89H731C782 89 802 136 814 239L740 251C735 189 728 165 703 165H668C650 165 645 173 645 186C645 202 653 218 800 406L755 474L744 465H588V387H686C582 264 567 232 567 186C567 131 596 89 661 89ZM590 560H780V638H590Z" transform="translate(0, 880) scale(1,-1)" /></svg>