<svg xmlns="http://www.w3.org/2000/svg" width="1000" height="1000"><path d="M213 226H466V306H213ZM299 265H378V749H299ZM65 709H613V789H65ZM116 540 129 468C181 484 237 492 307 492H443C493 492 516 465 516 406V52C516 24 513 10 492 10C468 10 433 16 394 29V-58C431 -64 466 -69 495 -69C560 -69 595 -38 595 40V416C595 513 553 571 450 571H306C230 571 173 559 116 540ZM162 -72V571H84V-72ZM709 137 743 72C883 178 931 221 931 312C931 389 883 450 758 490C839 556 900 632 964 751L889 793L881 778H651V700H842C787 611 739 553 659 498L665 433C820 390 853 344 853 312C853 271 825 227 709 137ZM903 -90 956 -29C892 28 758 120 657 176L613 113C712 57 841 -32 903 -90Z" transform="translate(0, 880) scale(1,-1)" /></svg>