<svg xmlns="http://www.w3.org/2000/svg" width="1000" height="1000"><path d="M31 471 105 451C135 548 161 684 175 792L98 797C89 689 64 559 31 471ZM96 597H315V673H96ZM56 23 110 -15C201 51 283 149 283 233C283 310 244 356 195 356C132 356 80 319 80 249C80 177 135 139 187 150C163 113 117 61 56 23ZM181 207C161 207 142 224 142 249C142 277 162 290 181 290C201 290 219 274 219 248C219 224 200 207 181 207ZM267 272V487H190V329ZM128 512V437H310V512ZM41 23 70 -50 317 55 290 128ZM371 -23 450 -15C400 119 390 215 418 296C450 387 453 458 405 535L329 517C374 434 376 372 348 302C315 224 321 119 371 -23ZM449 609 489 680C455 708 393 753 346 782L307 718C354 686 416 638 449 609ZM765 -59C888 -59 939 67 939 274C939 475 866 548 732 548C712 548 695 547 679 544C741 605 812 679 870 745L811 800L795 792H492V712H734C684 648 627 587 554 519C542 508 497 481 462 456L508 386C571 438 639 468 720 468C809 468 860 427 860 272C860 147 832 21 762 21C728 21 697 31 664 52V-39C696 -53 728 -59 765 -59ZM433 154 501 99C581 184 644 292 674 411L597 429C571 319 512 227 433 154ZM480 -3 546 -59C659 28 761 205 791 408L714 423C683 225 592 77 480 -3Z" transform="translate(0, 880) scale(1,-1)" /></svg>