<svg xmlns="http://www.w3.org/2000/svg" width="1000" height="1000"><path d="M510 754H131V470C131 325 123 122 35 -23L103 -60C196 92 209 317 209 470V677H943V754H595L551 845L476 827ZM340 509 404 546C386 577 353 621 319 654L255 621C287 587 322 543 340 509ZM555 529 627 554C613 590 587 636 557 675L487 650C515 612 542 566 555 529ZM730 536 793 505C829 542 866 592 894 637L822 669C801 628 764 575 730 536ZM530 -93C760 -93 940 -43 940 67C940 154 841 182 640 182C573 182 504 178 447 171C483 200 532 254 564 301L476 313C450 265 398 198 344 159L317 152L353 77C425 93 498 104 621 104C776 104 853 98 853 67C853 -2 655 -19 530 -19C429 -19 383 -15 383 -8C383 1 420 8 471 8C547 8 600 -2 613 -41L694 -33C675 29 602 68 472 68C369 68 298 38 298 -8C298 -63 370 -93 530 -93ZM352 382 374 312C447 326 549 340 653 340C774 340 818 335 818 313C818 268 755 251 457 271V198C821 175 904 221 904 313C904 390 816 418 653 418C535 418 426 400 352 382ZM523 390 595 356C681 397 753 437 794 468L741 522L718 511H389V433H608C587 420 557 405 523 390ZM180 371 239 316C330 362 442 448 493 528L414 556C363 477 263 407 180 371Z" transform="translate(0, 880) scale(1,-1)" /></svg>