<svg xmlns="http://www.w3.org/2000/svg" width="1000" height="1000"><path d="M12 477 86 458C117 553 143 685 157 790L80 795C70 690 45 563 12 477ZM77 599H300V676H77ZM40 42 99 5C190 70 269 147 269 262C269 328 221 368 166 368C112 368 64 328 64 262C64 197 106 148 170 160C146 125 100 79 40 42ZM166 222C146 222 127 238 127 262C127 286 145 302 166 302C187 302 205 286 205 262C205 238 187 222 166 222ZM252 284V493H174V340ZM109 519V443H296V519ZM20 44 52 -31 304 72 273 146ZM580 24 651 -13C722 53 805 146 805 275C805 354 760 404 694 404C629 404 588 361 588 290C588 220 633 173 706 173C828 173 928 249 928 403C928 522 872 595 743 595C730 595 721 594 711 592C753 630 793 665 838 714H916V794H534V714H736C692 660 649 609 603 564C582 544 560 530 509 488L554 414C610 476 672 516 742 516C821 516 850 460 850 403C850 284 764 250 706 250C681 250 666 266 666 290C666 312 675 328 694 328C717 328 725 304 725 275C725 174 644 74 580 24ZM499 -53 892 -7 878 68 491 28ZM895 -84 969 -49C953 11 913 102 874 170L802 138C839 73 880 -22 895 -84ZM340 490 409 466C448 536 494 650 516 737L450 768L435 760H299V684H412C395 623 373 555 340 490ZM491 331C491 463 430 495 339 510V433C383 420 414 383 414 331C414 212 369 91 287 -2L354 -56C441 56 491 195 491 331Z" transform="translate(0, 880) scale(1,-1)" /></svg>