<svg xmlns="http://www.w3.org/2000/svg" width="1000" height="1000"><path d="M52 30 124 -17C199 83 266 192 331 311L269 352C199 226 122 113 52 30ZM265 557 317 620C263 671 202 717 133 757L88 696C156 654 214 608 265 557ZM745 242C849 242 870 338 875 536L809 556L796 544H444V464H793C793 367 777 320 740 320C679 320 618 331 567 346V261C618 250 681 242 745 242ZM391 -11 419 -86 693 7 667 83 504 27V355H424V49C424 11 406 -4 391 -11ZM898 -81 959 -24C899 43 819 127 731 193L674 141C757 77 839 -12 898 -81ZM277 506 349 467C417 580 466 698 500 813L419 834C388 714 340 607 277 506ZM413 647H923V727H413Z" transform="translate(0, 880) scale(1,-1)" /></svg>