<svg xmlns="http://www.w3.org/2000/svg" width="1000" height="1000"><path d="M38 482 115 457C151 559 181 702 197 816L119 824C106 709 76 573 38 482ZM113 614H406V692H113ZM109 15 168 -25C268 45 352 145 352 231C352 309 308 356 254 356C185 356 128 318 128 247C128 174 188 131 249 146C223 105 177 55 109 15ZM240 205C216 205 196 221 196 247C196 273 217 289 240 289C262 289 282 272 282 248C282 221 262 205 240 205ZM329 270V497H251V328ZM141 522V444H402V522ZM56 7 80 -68 411 43 387 117ZM502 449H844V527H502ZM554 -79H835C896 -79 924 -32 939 102L860 111C853 24 841 -1 815 -1H581C555 -1 544 6 544 17C544 35 559 53 887 294L842 358L823 350H448V272L715 273C471 96 445 59 445 9C445 -43 473 -79 554 -79ZM663 702 738 722C723 765 696 815 669 854L596 834C622 795 650 742 663 702ZM827 540 905 512C927 561 937 592 937 623C937 711 862 750 726 750C620 750 507 730 420 705L440 626C523 650 635 669 726 669C824 669 851 647 851 616C851 596 845 577 827 540Z" transform="translate(0, 880) scale(1,-1)" /></svg>