<svg xmlns="http://www.w3.org/2000/svg" width="1000" height="1000"><path d="M804 563 865 526C907 549 930 578 930 622C930 693 843 730 583 730C406 730 261 708 151 667V710H79V539H151V613C265 646 418 665 582 665C800 665 852 646 852 622C852 600 837 580 804 563ZM461 597H540V782H461ZM703 623H298V557H703ZM823 817 168 816V750H823ZM95 357 165 333C219 400 266 495 290 571L215 581C190 503 144 416 95 357ZM203 449H872V516H203ZM462 298 519 267C630 300 729 337 797 368L750 419L735 412H263V342H590C555 327 518 313 462 298ZM715 -101C846 -101 903 -16 903 130C903 267 787 316 596 316C421 316 235 279 128 243L157 175C271 209 445 240 596 240C752 240 822 200 822 130C822 18 785 -29 712 -29C656 -29 611 -23 573 -9V-90C609 -97 649 -101 715 -101ZM243 189V118H711V189ZM229 90V20H724V90ZM442 -79C498 -79 528 -51 528 0V225H448V5C448 -4 440 -12 425 -12C392 -12 356 -9 316 1V-71C357 -78 394 -79 442 -79Z" transform="translate(0, 880) scale(1,-1)" /></svg>