<svg xmlns="http://www.w3.org/2000/svg" width="1000" height="1000"><path d="M323 87C480 87 551 210 551 338C551 447 514 539 359 594L313 533C445 487 470 415 470 338C470 250 411 166 323 166C282 166 256 189 256 221C256 292 315 360 511 424L476 493C251 425 172 326 172 221C172 133 233 87 323 87ZM185 560 210 490C321 520 437 564 542 620L500 682C407 633 292 588 185 560ZM172 709 198 641C308 669 429 715 536 771L494 833C396 782 280 735 172 709ZM596 348H948V427H596ZM737 91C787 91 823 106 823 178V819H748L750 190C750 172 747 166 730 166C696 166 658 171 609 186V106C656 96 698 91 737 91ZM605 572H930V649H605ZM928 -54 952 27C654 4 427 5 283 48C196 74 135 144 109 238L31 216C66 88 144 10 253 -21C403 -64 625 -76 928 -54Z" transform="translate(0, 880) scale(1,-1)" /></svg>