<svg xmlns="http://www.w3.org/2000/svg" width="1000" height="1000"><path d="M121 633 136 563C154 576 178 582 204 582C243 582 257 527 257 463C257 386 245 339 198 328V248C305 252 332 345 332 463C332 586 299 660 203 660C172 660 142 650 121 633ZM155 83H231V455H155ZM38 47 74 -26 334 123 296 196ZM26 327 101 291C135 423 163 592 176 763L100 771C86 602 57 434 26 327ZM536 -60H808C888 -60 910 -18 924 132L845 139C839 40 829 20 793 20H559C534 20 526 26 526 37C526 57 540 71 813 241L761 317L736 303H680L837 482L776 536L757 524C457 501 284 407 284 296C284 235 328 194 388 194C490 194 549 276 793 723L729 762L711 752H491V672H678C488 325 440 274 388 274C372 274 363 282 363 296C363 342 481 418 697 435L560 282L598 223H637C452 117 426 85 426 29C426 -27 459 -60 536 -60ZM312 507 376 459C464 571 530 689 585 821L509 844C459 723 392 604 312 507ZM890 211 965 239C948 301 916 384 885 442L815 413C846 352 875 273 890 211Z" transform="translate(0, 880) scale(1,-1)" /></svg>