<svg xmlns="http://www.w3.org/2000/svg" width="1000" height="1000"><path d="M28 475 105 453C140 548 169 682 184 788L107 795C94 688 65 561 28 475ZM101 597H379V674H101ZM90 38 152 1C251 66 330 146 330 256C330 324 282 362 220 362C159 362 110 324 110 256C110 188 157 142 227 153C201 117 156 76 90 38ZM220 216C198 216 178 232 178 256C178 280 198 296 220 296C243 296 262 280 262 256C262 232 243 216 220 216ZM309 279V490H231V335ZM131 516V439H376V516ZM43 36 71 -41 385 63 358 138ZM622 70 639 -10C860 -8 940 72 940 215C940 320 886 402 711 402C566 402 454 356 350 265L407 203C486 274 586 322 711 322C821 322 861 269 861 215C861 129 807 64 622 70ZM627 -88 704 -56C685 16 649 98 618 158L545 127C577 74 609 -16 627 -88ZM638 557 698 507C769 565 859 657 929 756L867 805L855 796H395V716H795C756 667 694 603 638 557ZM738 418 794 477C718 551 652 595 558 640L510 578C607 533 668 488 738 418Z" transform="translate(0, 880) scale(1,-1)" /></svg>