<svg xmlns="http://www.w3.org/2000/svg" width="1000" height="1000"><path d="M810 579 874 529C912 567 923 607 923 650C923 751 859 815 633 815C413 815 210 755 70 694L110 624C237 677 440 734 633 734C778 734 844 707 844 650C844 624 835 603 810 579ZM315 -48H754C879 -48 918 -16 931 163L850 172C840 54 831 31 760 31H320C244 31 202 42 202 77C202 115 236 155 794 503L748 567L730 562H122V483H599C158 199 118 144 118 73C118 -6 179 -48 315 -48ZM672 180 718 250C583 303 403 360 239 394L206 322C365 291 540 232 672 180Z" transform="translate(0, 880) scale(1,-1)" /></svg>