<svg xmlns="http://www.w3.org/2000/svg" width="1000" height="1000"><path d="M31 463 106 442C139 537 166 669 181 774L104 780C93 674 66 548 31 463ZM100 583H350V660H100ZM75 29 136 -8C231 57 310 134 310 247C310 313 261 352 203 352C146 352 97 313 97 247C97 180 142 133 208 145C184 109 138 66 75 29ZM203 207C182 207 163 223 163 247C163 270 182 287 203 287C225 287 244 270 244 247C244 223 225 207 203 207ZM290 269V478H213V325ZM130 503V427H346V503ZM42 29 72 -47 354 56 326 131ZM520 276H791V356H520ZM616 317H694V840H616ZM415 630 429 557C484 574 543 582 617 582H773C825 582 849 555 849 496V44C849 16 846 2 824 2C799 2 764 8 723 21V-65C762 -72 797 -77 827 -77C893 -77 928 -46 928 32V506C928 603 885 661 780 661H616C535 661 475 650 415 630ZM461 -80V661H383V-80Z" transform="translate(0, 880) scale(1,-1)" /></svg>