<svg xmlns="http://www.w3.org/2000/svg" width="1000" height="1000"><path d="M331 84C380 84 411 107 411 171V823H333V175C333 160 328 153 315 153C289 153 257 160 222 175V95C256 88 292 84 331 84ZM187 602H520V679H187ZM534 459 500 526 164 370 200 300ZM695 78C741 78 784 111 784 169V536C835 596 884 674 926 758L865 801L852 791H574V713H812C785 659 748 605 706 562V183C706 164 700 150 685 150C653 149 619 157 586 174V93C622 82 651 78 695 78ZM942 390 951 474C850 501 717 502 540 473V395C715 421 849 415 942 390ZM928 -56 952 29C654 6 427 7 283 50C196 76 135 142 109 236L31 214C66 86 144 8 253 -23C403 -66 625 -78 928 -56Z" transform="translate(0, 880) scale(1,-1)" /></svg>