<svg xmlns="http://www.w3.org/2000/svg" width="1000" height="1000"><path d="M34 478 110 456C144 555 172 694 187 805L110 811C98 699 70 567 34 478ZM105 606H366V684H105ZM85 22 142 -17C239 51 322 149 322 234C322 311 280 358 228 358C161 358 107 320 107 250C107 178 164 137 221 150C196 111 151 61 85 22ZM214 208C191 208 172 225 172 250C172 277 192 291 214 291C235 291 254 275 254 250C254 225 235 208 214 208ZM302 273V493H224V330ZM135 519V442H362V519ZM49 18 75 -56 370 52 345 125ZM342 635 383 569C483 615 620 701 713 784L652 839C573 765 441 678 342 635ZM753 475C832 475 862 439 862 388C862 316 820 250 699 196L730 118C871 184 941 247 941 388C941 497 879 555 753 555C523 555 350 395 350 230C350 135 399 86 471 86C553 86 632 158 632 313C632 461 594 580 506 678L451 620C536 515 554 410 554 313C554 219 513 166 471 166C441 166 427 190 427 230C427 353 559 475 753 475ZM679 -87H757V376H679Z" transform="translate(0, 880) scale(1,-1)" /></svg>