<svg xmlns="http://www.w3.org/2000/svg" width="1000" height="1000"><path d="M106 649 121 579C141 592 165 598 193 598C233 598 247 546 247 484C247 410 234 364 185 353V275C294 279 322 369 322 484C322 604 289 676 192 676C159 676 128 667 106 649ZM143 116H219V475H143ZM24 83 59 10 323 154 286 227ZM11 352 86 317C121 444 149 608 162 773L86 781C72 617 43 455 11 352ZM522 456H600V763H522ZM341 722H939V802H341ZM682 456H761V763H682ZM274 -47 344 -86C406 13 424 160 424 261V410H952V490H346V261C346 165 332 48 274 -47ZM677 -65C718 -65 754 -57 799 -34V52C757 27 726 15 697 15C682 15 675 28 675 59V363H597V21C597 -45 627 -65 677 -65ZM925 12 989 74C921 152 839 242 766 305L706 254C777 186 859 96 925 12ZM463 296V-26H541V296ZM426 514 499 545C484 586 456 644 430 686L359 658C383 616 412 554 426 514ZM778 535 849 511C876 557 906 619 927 672L850 701C834 650 805 584 778 535Z" transform="translate(0, 880) scale(1,-1)" /></svg>