<svg xmlns="http://www.w3.org/2000/svg" width="1000" height="1000"><path d="M38 481 115 457C151 559 180 702 196 816L119 824C105 709 75 573 38 481ZM112 614H400V692H112ZM106 15 164 -25C264 45 348 145 348 231C348 309 305 356 251 356C182 356 125 318 125 247C125 174 185 131 245 146C220 105 174 55 106 15ZM237 204C213 204 193 221 193 247C193 273 214 289 237 289C259 289 278 272 278 248C278 221 259 204 237 204ZM326 270V497H247V328ZM141 522V445H397V522ZM56 7 80 -67 405 44 381 117ZM496 445 574 418C635 540 686 680 717 816L635 833C606 701 558 562 496 445ZM822 472 900 438C921 484 931 520 931 562C931 657 863 703 715 703C591 703 468 661 389 621L422 542C494 581 608 618 715 618C818 618 847 590 847 557C847 530 840 507 822 472ZM471 460V380H758V258H506V306H427V83C427 -35 463 -60 565 -60H807C904 -60 936 -2 951 171L872 185C862 35 846 20 788 20H571C518 20 506 33 506 83V178H837V460Z" transform="translate(0, 880) scale(1,-1)" /></svg>