<svg xmlns="http://www.w3.org/2000/svg" width="1000" height="1000"><path d="M129 625 149 556C186 582 219 594 264 594C316 594 332 536 332 468C332 389 305 339 239 327V247C363 258 410 347 410 468C410 596 369 673 265 673C207 673 164 653 129 625ZM198 73H275V461H198ZM49 33 83 -41 406 115 372 189ZM28 328 103 289C147 427 181 604 198 783L121 791C103 615 67 440 28 328ZM518 445 596 419C654 541 703 681 733 817L651 833C623 701 577 562 518 445ZM828 472 906 438C927 484 937 520 937 562C937 657 872 703 729 703C609 703 492 662 415 621L449 543C518 582 626 618 729 618C826 618 854 590 854 557C854 530 846 507 828 472ZM495 460V380H767V258H531V306H453V83C453 -35 488 -60 586 -60H817C911 -60 942 -2 956 171L877 185C868 35 852 20 797 20H593C543 20 531 33 531 83V178H845V460Z" transform="translate(0, 880) scale(1,-1)" /></svg>