<svg xmlns="http://www.w3.org/2000/svg" width="1000" height="1000"><path d="M514 739H129V470C129 325 121 122 33 -23L107 -60C198 92 208 317 208 470V660H943V739H599L547 847L472 829ZM188 124 234 50C399 129 606 235 746 320L705 384C565 301 361 196 188 124ZM398 -71H477V638H398ZM905 39 952 113C860 160 760 201 651 233L619 170C722 134 818 90 905 39ZM226 407H928V486H226ZM664 -78C726 -78 754 -57 754 1L756 638H677L675 23C675 6 670 0 655 0C628 0 590 6 555 17V-66C585 -73 623 -78 664 -78Z" transform="translate(0, 880) scale(1,-1)" /></svg>