<svg xmlns="http://www.w3.org/2000/svg" width="1000" height="1000"><path d="M81 111 379 250 345 317 49 188ZM193 -62C242 -62 267 -32 267 26V781H189V42C189 22 182 16 164 16C146 16 125 21 100 34V-50C132 -59 162 -62 193 -62ZM65 397H367V475H65ZM109 522 184 542C174 598 149 686 127 751L53 731C75 665 100 577 109 522ZM267 540 339 523C360 582 383 669 400 740L320 756C306 687 286 597 267 540ZM380 697 423 628C502 692 583 731 704 731C818 731 855 697 855 629C855 540 808 501 514 536V455C826 425 935 471 935 629C935 732 879 811 704 811C558 811 460 763 380 697ZM372 112H932V192H372ZM587 -72C661 -72 701 -36 701 47L702 633H623V65C623 25 611 6 579 6C548 6 513 13 478 27V-59C509 -68 544 -72 587 -72ZM394 266H910V346H394Z" transform="translate(0, 880) scale(1,-1)" /></svg>