<svg xmlns="http://www.w3.org/2000/svg" width="1000" height="1000"><path d="M28 480 103 461C135 553 162 681 176 784L99 789C89 686 62 563 28 480ZM96 597H333V674H96ZM65 58 126 22C220 85 297 158 297 270C297 336 248 375 192 375C137 375 88 336 88 270C88 206 131 158 196 170C172 136 126 94 65 58ZM192 231C172 231 153 247 153 270C153 294 171 310 192 310C214 310 232 294 232 270C232 247 213 231 192 231ZM279 293V495H201V348ZM127 521V446H329V521ZM38 61 69 -15 337 84 308 159ZM855 291C923 291 956 323 966 462L897 476C893 385 884 372 855 371C713 367 597 593 583 827H502C519 538 671 291 855 291ZM328 -46H961V34H328ZM409 129H889V209H409ZM360 379 395 301C550 339 778 407 900 572L833 618C717 466 506 406 360 379ZM354 586 931 663 922 742 345 668Z" transform="translate(0, 880) scale(1,-1)" /></svg>