<svg xmlns="http://www.w3.org/2000/svg" width="1000" height="1000"><path d="M279 697 203 711C161 487 88 285 16 134L87 96C158 253 235 475 279 697ZM247 84C227 84 217 96 217 122C217 163 249 253 334 353L280 393C187 293 140 189 140 122C140 51 183 9 247 9C337 9 378 80 378 235C378 392 329 455 254 455C206 455 170 437 145 402L161 332C189 363 223 379 253 379C285 379 299 327 299 235C299 116 274 84 247 84ZM42 673H390V752H42ZM562 -59H844C941 -59 960 5 971 179L891 187C886 46 880 21 832 21H578C525 21 515 34 515 84V802H436V81C436 -30 460 -59 562 -59ZM564 182 625 138C716 237 820 367 910 506L832 543C750 410 647 274 564 182ZM551 476 613 436C685 520 760 618 839 740L758 777C690 661 616 556 551 476Z" transform="translate(0, 880) scale(1,-1)" /></svg>