<svg xmlns="http://www.w3.org/2000/svg" width="1000" height="1000"><path d="M637 361C833 361 941 433 941 539C941 637 840 684 689 684C676 684 664 683 652 682C720 707 773 725 855 759L804 824L784 815H440V737H639C593 714 550 695 500 675C482 667 457 663 429 655L468 581C523 598 592 606 683 606C788 606 855 583 855 539C855 474 766 439 632 439C558 439 506 450 506 472C506 486 534 496 576 496C644 496 690 469 699 412L773 419C758 518 689 566 577 566C490 566 427 528 427 469C427 391 510 361 637 361ZM281 818V375H360V818ZM316 497 299 573 170 548V741H91V558C91 541 75 531 61 528L85 453ZM339 -73H766C876 -73 912 -55 923 54L843 68C838 18 821 5 764 5H341C282 5 255 8 255 14C255 21 279 30 730 145L685 226L661 217H496C526 233 555 252 594 280L520 330C462 285 363 229 294 202L343 130L368 139H441C188 80 154 49 154 4C154 -46 213 -73 339 -73ZM59 109 133 76C171 113 207 166 226 212L142 234C127 191 94 140 59 109ZM100 266H900V344H100ZM863 82 944 105C929 142 903 193 865 236L790 214C826 170 850 117 863 82Z" transform="translate(0, 880) scale(1,-1)" /></svg>