<svg xmlns="http://www.w3.org/2000/svg" width="1000" height="1000"><path d="M30 677H290V755H30ZM199 718H121V-48H199ZM723 -59C872 -59 955 82 955 274C955 475 849 548 674 548C641 548 612 546 585 542C674 603 774 675 856 740L798 800L779 792H329V712H690C619 647 536 588 428 518C411 507 354 481 305 455L350 384C441 436 541 468 657 468C787 468 875 427 875 272C875 147 820 21 718 21C669 21 624 31 577 52V-39C622 -53 669 -59 723 -59ZM260 156 326 97C443 182 533 290 576 409L496 431C458 321 374 229 260 156ZM327 -1 392 -61C555 26 700 203 743 406L664 425C618 227 488 79 327 -1Z" transform="translate(0, 880) scale(1,-1)" /></svg>