<svg xmlns="http://www.w3.org/2000/svg" width="1000" height="1000"><path d="M27 668H277V747H27ZM191 710H113V-48H191ZM266 466 315 394C562 464 794 600 889 745L828 802L808 790H434V711H752C670 624 488 515 266 466ZM284 -56H957V23H284ZM273 212 344 165C403 244 457 336 504 430L429 458C385 367 335 285 273 212ZM637 13 720 -18C774 26 810 78 810 151C810 235 756 280 631 280C505 280 433 241 433 159C433 95 479 52 567 52C636 52 670 92 670 139V357H591V165C591 140 577 129 557 129C539 129 512 139 512 159C512 184 544 202 631 202C699 202 731 184 731 149C731 103 699 59 637 13ZM416 319H867V398H416ZM252 583 326 539C398 602 486 720 527 829L448 853C407 744 319 633 252 583ZM911 402 960 471C843 528 652 600 473 644L431 575C610 530 797 461 911 402Z" transform="translate(0, 880) scale(1,-1)" /></svg>