<svg xmlns="http://www.w3.org/2000/svg" width="1000" height="1000"><path d="M64 131 525 278 501 349 41 212ZM248 -72C298 -72 336 -51 336 17V748H256V43C256 19 246 6 220 6C194 6 166 12 130 26V-60C171 -69 209 -72 248 -72ZM52 448H512V528H52ZM80 775 87 694C225 699 388 717 499 738L481 816C378 795 217 777 80 775ZM625 131 671 66C858 172 921 215 921 306C921 383 853 444 680 483C793 549 881 620 963 742L892 788L880 773H547V693H823C748 604 672 544 557 492L565 427C784 384 839 338 839 306C839 265 792 221 625 131ZM900 -98 954 -34C869 25 690 121 555 180L517 109C648 52 819 -39 900 -98Z" transform="translate(0, 880) scale(1,-1)" /></svg>