<svg xmlns="http://www.w3.org/2000/svg" width="1000" height="1000"><path d="M348 55 429 19C471 60 514 128 514 183C514 265 464 302 360 302C244 302 192 268 192 197C192 136 231 90 314 90C373 90 400 131 400 168V373H321V201C321 177 316 167 299 167C280 167 271 179 271 197C271 216 287 225 360 225C421 225 435 209 435 183C435 151 409 103 348 55ZM93 -59 592 30 577 107 78 18ZM62 241 136 205C184 297 216 375 259 501L182 521C140 397 106 319 62 241ZM40 566 110 531C165 629 195 722 224 829L145 845C121 741 91 657 40 566ZM177 335H560V413H177ZM236 547 312 570C304 603 288 648 270 685L195 665C212 631 227 589 236 547ZM127 481H594V559H127ZM152 690H602V768H153ZM398 565 471 545C509 631 492 592 523 668L439 689C430 649 415 601 398 565ZM698 137 734 72C883 178 933 221 933 312C933 389 882 450 748 490C835 556 900 631 968 750L894 793L885 778H636V700H842C784 611 731 552 644 498L651 433C818 390 854 344 854 312C854 271 823 227 698 137ZM906 -90 960 -29C892 29 750 121 642 178L600 113C704 57 841 -32 906 -90Z" transform="translate(0, 880) scale(1,-1)" /></svg>