<svg xmlns="http://www.w3.org/2000/svg" width="1000" height="1000"><path d="M72 698H584V778H72ZM396 -72C463 -72 498 -31 498 52L500 738H422L420 67C420 27 413 6 389 6C366 6 341 12 315 24V-58C338 -68 364 -72 396 -72ZM606 333 618 415C479 441 286 442 45 414V339C282 364 476 357 606 333ZM238 738H159V-65H238ZM679 133 718 68C876 170 928 213 928 303C928 379 875 438 731 476C823 540 893 612 963 728L891 772L881 758H613V679H831C771 594 714 538 622 486L629 419C808 378 848 334 848 303C848 263 814 220 679 133ZM903 -90 956 -28C885 28 734 119 619 175L578 109C689 54 834 -33 903 -90Z" transform="translate(0, 880) scale(1,-1)" /></svg>