<svg xmlns="http://www.w3.org/2000/svg" width="1000" height="1000"><path d="M197 527 245 583C212 611 175 638 132 664L87 610C129 581 166 555 197 527ZM138 -14C261 -14 304 91 304 202C304 284 258 366 130 404L101 330C196 299 224 258 224 202C224 129 195 64 138 64C115 64 103 81 103 106C103 163 166 214 313 295L273 360C126 280 23 200 23 106C23 25 73 -14 138 -14ZM132 381 182 338C238 388 295 452 325 502L271 540L259 532H41V454H196C177 426 159 405 132 381ZM130 614 190 571C238 617 291 680 325 730L261 772L246 764H48V688H193C175 661 155 638 130 614ZM422 449 493 416C567 512 637 629 716 804L636 831C566 664 492 539 422 449ZM328 592H958V672H328ZM809 317V-3H888V378L831 409L809 397C609 383 317 263 317 76C317 -14 373 -61 461 -61C614 -61 708 64 708 232C708 371 669 480 526 480C468 480 421 464 385 442L418 372C444 388 483 400 526 400C591 400 628 339 628 232C628 105 560 19 461 19C417 19 397 42 397 76C397 188 621 304 809 317ZM971 34H727V-46H971Z" transform="translate(0, 880) scale(1,-1)" /></svg>