<svg xmlns="http://www.w3.org/2000/svg" width="1000" height="1000"><path d="M288 76C412 76 501 156 501 309C501 417 469 506 330 506C276 506 222 492 189 475L209 400C241 416 286 427 330 427C403 427 421 387 421 309C421 213 366 154 288 154C262 154 248 165 248 183C248 281 611 445 740 445C819 445 848 412 848 342C848 237 816 156 712 156C659 156 606 165 548 181V98C605 84 657 78 717 78C876 78 928 195 928 342C928 450 880 524 746 524C575 524 169 341 169 183C169 114 221 76 288 76ZM765 191 783 259C714 276 643 292 572 301L554 234C627 223 695 210 765 191ZM228 562H307V802H228ZM774 300 793 370C725 386 657 397 589 405L571 339C639 330 705 317 774 300ZM368 472 431 426C527 498 595 583 595 695H515C515 599 460 538 368 472ZM394 630V551C702 532 852 555 852 693C852 795 736 827 589 827C446 827 350 802 253 756L284 684C364 721 467 747 589 747C705 747 772 729 772 693C772 629 672 613 394 630ZM928 -60 952 24C654 6 427 7 283 40C196 59 135 104 109 173L31 142C66 47 144 -11 253 -35C403 -67 625 -76 928 -60Z" transform="translate(0, 880) scale(1,-1)" /></svg>