<svg xmlns="http://www.w3.org/2000/svg" width="1000" height="1000"><path d="M12 471 87 454C119 540 146 661 160 758L83 762C73 666 46 549 12 471ZM80 579H317V656H80ZM49 72 104 38C198 97 280 177 280 258C280 331 239 375 189 375C125 375 72 340 72 273C72 204 126 170 178 178C154 149 109 106 49 72ZM175 234C154 234 135 249 135 273C135 299 155 311 175 311C195 311 214 296 214 272C214 250 195 234 175 234ZM262 295V486H185V349ZM111 512V437H312V512ZM24 76 52 3 320 97 294 169ZM464 36V-51C510 -64 565 -70 622 -70C822 -70 958 -6 958 197C958 379 836 442 642 442C604 442 576 440 549 434C626 490 659 565 659 667H581C581 568 530 478 434 414C413 399 386 391 362 381L401 311C472 342 567 365 642 365C782 365 879 325 879 197C879 63 769 8 622 8C557 8 503 18 464 36ZM366 283V207H725V283ZM358 160V81H736V160ZM460 589V509C738 480 911 505 911 663C911 778 792 812 652 812C488 812 388 777 284 724L322 655C408 700 518 734 652 734C765 734 831 705 831 663C831 583 728 552 460 589Z" transform="translate(0, 880) scale(1,-1)" /></svg>