<svg xmlns="http://www.w3.org/2000/svg" width="1000" height="1000"><path d="M276 632 202 647C160 442 89 256 19 117L89 81C158 225 233 429 276 632ZM244 74C226 74 216 85 216 109C216 146 247 225 330 316L277 355C185 263 139 173 139 109C139 41 182 0 244 0C333 0 373 66 373 211C373 357 324 416 251 416C204 416 170 399 145 367L161 299C189 327 221 342 251 342C281 342 296 295 296 211C296 104 270 74 244 74ZM45 607H394V685H45ZM839 -75 879 0C679 60 528 249 505 655L427 648C452 218 627 -11 839 -75ZM769 265 826 202C923 286 961 358 961 483C961 567 924 642 798 643C619 644 477 509 358 373L422 316C542 461 669 563 798 563C864 563 881 525 881 483C881 399 854 336 769 265ZM663 354H741V826H663Z" transform="translate(0, 880) scale(1,-1)" /></svg>