<svg xmlns="http://www.w3.org/2000/svg" width="1000" height="1000"><path d="M400 508H479V771H400ZM165 730H911V809H165ZM599 508H679V771H599ZM90 83 160 44C238 129 259 255 259 341V463H926V542H180V343C180 263 163 165 90 83ZM585 56C633 56 674 64 726 87V172C674 147 636 135 600 135C581 135 573 148 573 178V428H493V141C493 76 527 56 585 56ZM904 121 962 188C878 254 774 331 684 385L631 328C720 270 822 193 904 121ZM326 371V95H406V371ZM279 553 353 587C335 622 300 672 267 708L195 676C226 640 261 587 279 553ZM720 580 791 551C825 590 861 643 888 689L809 721C789 678 752 621 720 580ZM928 -60 952 24C654 5 427 6 283 42C196 63 135 114 109 191L31 163C66 58 144 -7 253 -33C403 -68 625 -78 928 -60Z" transform="translate(0, 880) scale(1,-1)" /></svg>