<svg xmlns="http://www.w3.org/2000/svg" width="1000" height="1000"><path d="M132 57 195 10C300 92 381 251 381 359C381 448 334 499 274 499C203 499 143 455 143 373C143 289 202 242 273 252C257 195 211 118 132 57ZM265 321C237 321 213 339 213 373C213 407 238 427 265 427C290 427 313 406 313 377C313 339 291 321 265 321ZM353 400V735H274V467ZM85 761V681H434V761ZM65 43 86 -35 444 79 422 158ZM580 137 630 72C841 178 911 221 911 312C911 389 834 450 637 489C766 555 867 623 957 746L888 794L875 779H491V699H809C724 610 634 549 503 498L512 433C762 390 827 344 827 312C827 271 771 227 580 137ZM894 -93 948 -27C853 33 652 130 500 190L465 116C611 59 803 -33 894 -93Z" transform="translate(0, 880) scale(1,-1)" /></svg>