<svg xmlns="http://www.w3.org/2000/svg" width="1000" height="1000"><path d="M206 603 262 661C221 702 176 741 124 779L72 722C123 685 167 644 206 603ZM127 -9C237 -9 291 107 291 222C291 317 243 403 132 441L108 366C189 333 212 279 212 222C212 145 182 72 127 72C108 72 96 84 96 106C96 169 154 236 293 322L260 393C113 298 17 211 17 106C17 24 63 -9 127 -9ZM129 413 186 378C235 432 285 503 314 556L249 601L238 593H40V515H198C179 479 156 444 129 413ZM951 673 878 709C824 620 764 541 700 464L747 396L766 403H824L622 282L694 228L984 415L930 490L911 481H810C854 532 905 601 951 673ZM642 -72C891 -72 969 19 969 124C969 236 892 294 725 294C618 294 538 282 455 266L471 188C552 202 629 214 725 214C840 214 889 184 889 124C889 59 833 6 642 6C492 6 436 31 436 51C436 66 458 81 541 81C610 81 624 72 624 59C624 41 591 18 511 -2L555 -61C641 -34 713 -1 713 59C713 119 659 155 541 155C418 155 357 108 357 51C357 -14 421 -72 642 -72ZM284 722 315 649C465 681 616 726 760 780L705 845C589 801 424 750 284 722ZM888 619 880 699C584 642 292 558 292 423C292 358 335 312 425 312C559 312 648 383 648 505C648 589 613 668 521 749L451 706C535 626 569 560 569 505C569 426 500 389 424 391C388 392 372 402 372 423C372 505 609 566 888 619Z" transform="translate(0, 880) scale(1,-1)" /></svg>