<svg xmlns="http://www.w3.org/2000/svg" width="1000" height="1000"><path d="M124 625 140 556C167 574 194 583 229 583C273 583 288 527 288 462C288 385 270 336 214 325V246C329 252 365 343 365 462C365 587 329 661 229 661C186 661 151 647 124 625ZM172 78H249V454H172ZM42 41 77 -33 364 118 328 192ZM26 325 101 288C139 422 170 593 185 766L108 774C92 603 61 433 26 325ZM732 -59C869 -59 937 75 937 274C937 475 846 548 690 548C663 548 639 547 617 543C694 604 781 676 852 742L794 800L776 792H393V712H700C638 648 567 587 475 518C461 507 409 481 367 456L412 385C490 437 576 468 676 468C787 468 858 427 858 272C858 147 815 21 727 21C686 21 647 31 606 52V-39C645 -53 685 -59 732 -59ZM329 155 396 98C496 183 573 291 611 410L532 430C499 320 427 228 329 155ZM386 -2 452 -60C592 27 717 204 754 407L676 424C637 226 525 78 386 -2Z" transform="translate(0, 880) scale(1,-1)" /></svg>