<svg xmlns="http://www.w3.org/2000/svg" width="1000" height="1000"><path d="M16 509 91 491C123 580 150 706 164 806L87 811C77 711 50 590 16 509ZM84 622H322V699H84ZM53 96 116 61C210 122 286 193 286 304C286 369 236 408 181 408C125 408 76 369 76 304C76 240 120 193 184 204C159 172 114 131 53 96ZM181 265C160 265 141 281 141 304C141 327 159 343 181 343C202 343 221 327 221 304C221 281 202 265 181 265ZM267 326V524H189V381ZM115 550V474H317V550ZM26 100 57 24 325 121 296 196ZM279 -36 353 -71C416 46 435 211 435 328V489H973V567H358V330C358 221 342 74 279 -36ZM442 -55H960V23H442ZM688 11 765 -25C829 25 864 83 864 151C864 226 809 273 695 273C581 273 515 235 515 168C515 113 558 70 654 70C706 70 744 101 744 143V453H665V177C665 150 662 139 639 139C620 139 600 148 600 168C600 189 626 199 695 199C751 199 782 183 782 149C782 108 765 69 688 11ZM272 566 344 525C412 621 455 720 482 833L405 851C377 738 338 653 272 566ZM475 316H934V394H474ZM401 676H960V754H401Z" transform="translate(0, 880) scale(1,-1)" /></svg>