<svg xmlns="http://www.w3.org/2000/svg" width="1000" height="1000"><path d="M491 750 570 770C558 799 537 832 514 858L435 838C456 813 479 777 491 750ZM819 638 893 617C913 657 920 679 920 695C920 773 818 801 587 801C421 801 266 781 164 752V788H84V634H164V684C276 708 433 724 587 724C782 724 839 711 839 689C839 678 834 664 819 638ZM109 602 160 540C256 569 365 609 432 658L358 708C308 669 206 625 109 602ZM827 538 891 599C832 627 727 673 638 707L580 650C666 614 771 567 827 538ZM919 -67 942 15C650 0 427 1 286 29C200 45 141 79 115 135L37 101C72 22 148 -27 255 -47C403 -73 621 -81 919 -67ZM313 487 392 514C378 538 351 579 320 605L245 578C272 550 297 515 313 487ZM111 446H889V526H111ZM601 502 675 477C711 511 739 547 761 582L679 607C662 575 637 536 601 502ZM70 173 110 105C145 117 174 129 215 149C231 156 250 158 264 153C280 147 301 133 318 103L446 165L420 222L344 191C336 198 324 206 312 209C336 230 361 255 386 285L322 327C249 256 164 201 70 173ZM483 39C596 39 637 109 637 197C637 268 567 364 463 439L403 389C481 343 557 258 556 197C555 146 539 116 479 116C440 116 404 120 367 132V50C400 42 439 39 483 39ZM878 86 930 157C812 202 651 245 457 292L433 219C616 175 766 134 878 86ZM549 315 574 245C680 267 757 283 848 315L801 385C720 355 654 337 549 315ZM550 466 465 510C413 424 290 389 101 347L136 275C342 324 491 367 550 466Z" transform="translate(0, 880) scale(1,-1)" /></svg>