<svg xmlns="http://www.w3.org/2000/svg" width="1000" height="1000"><path d="M67 536 141 500C198 592 249 720 274 824L196 839C169 733 120 614 67 536ZM179 647H905V725H179ZM463 -19H541V621H463ZM180 77H820V155H180ZM180 221H820V299H180ZM197 543 215 468C399 474 659 501 828 535L788 609C644 580 391 552 197 543ZM915 16H85V-62H915ZM283 304 346 355C316 391 254 442 195 480L136 431C192 393 254 340 283 304ZM638 356 697 307C750 339 817 392 868 438L799 488C759 446 692 391 638 356Z" transform="translate(0, 880) scale(1,-1)" /></svg>