<svg xmlns="http://www.w3.org/2000/svg" width="1000" height="1000"><path d="M278 668 203 680C163 453 95 248 28 95L99 59C165 218 236 443 278 668ZM246 45C229 45 221 57 221 84C221 125 249 217 329 319L275 358C188 257 143 151 143 84C143 12 186 -30 246 -30C332 -30 370 41 370 199C370 357 324 421 252 421C207 421 174 403 151 368L166 297C192 328 223 344 251 344C279 344 292 292 292 199C292 78 270 45 246 45ZM55 644H388V722H55ZM813 31V816H734V48C734 29 723 14 703 14C667 14 615 24 562 39V-51C619 -60 678 -66 726 -64C774 -62 813 -47 813 31ZM351 553H964V633H351ZM620 188 684 233C639 301 572 387 503 460L441 415C509 341 576 251 620 188Z" transform="translate(0, 880) scale(1,-1)" /></svg>