<svg xmlns="http://www.w3.org/2000/svg" width="1000" height="1000"><path d="M649 142C762 142 790 215 796 379L728 394L714 383H260V304H711C711 245 691 220 641 220C561 220 482 228 414 239V157C482 148 565 142 649 142ZM200 -16 226 -94 569 -17 545 60 320 8V240H240V27C240 1 218 -11 200 -16ZM851 -92 912 -29C840 20 743 81 639 129L583 69C682 23 780 -42 851 -92ZM62 358 130 315C203 396 262 488 301 574L221 599C185 512 129 429 62 358ZM215 442H861V521H215ZM671 637 710 569C823 610 907 646 907 722C907 787 853 830 741 829C634 827 524 801 449 773L486 699C559 729 654 749 741 749C807 749 826 740 826 722C826 699 781 675 671 637ZM683 532 758 565C736 612 707 655 676 694L604 662C634 622 662 575 683 532ZM203 564 276 598C250 650 201 728 157 785L87 750C129 696 175 617 203 564ZM463 588 538 614C515 682 485 752 437 830L365 800C410 722 440 655 463 588Z" transform="translate(0, 880) scale(1,-1)" /></svg>