<svg xmlns="http://www.w3.org/2000/svg" width="1000" height="1000"><path d="M780 517 834 450C888 489 922 539 922 602C922 712 864 797 641 797C416 797 208 688 69 584L127 523C256 615 448 715 641 715C783 715 840 677 840 602C840 565 815 540 780 517ZM817 -56 896 -12C832 74 742 168 664 239L597 190C675 121 757 31 817 -56ZM101 7 163 -49C260 26 337 115 385 193L309 234C268 159 189 73 101 7ZM657 314 709 385C622 431 463 487 344 524L303 451C428 416 568 361 657 314Z" transform="translate(0, 880) scale(1,-1)" /></svg>