<svg xmlns="http://www.w3.org/2000/svg" width="1000" height="1000"><path d="M248 601 308 555C381 607 475 691 520 752L454 800L436 793H86V716H378C349 681 304 641 248 601ZM309 498 361 551C320 591 275 628 224 664L177 613C227 577 271 538 309 498ZM221 -62C398 -62 484 44 484 151C484 237 411 319 229 355L198 291C349 261 402 208 402 151C402 75 338 12 221 12C174 12 147 26 147 58C147 117 268 174 507 254L451 309C222 232 59 156 59 58C59 -23 123 -62 221 -62ZM233 337 300 301C384 351 467 414 515 462L462 509L442 500H73V429H359C327 397 285 365 233 337ZM627 137 672 72C860 178 922 221 922 312C922 389 854 450 680 489C794 555 879 629 961 751L896 794L885 779H547V701H828C753 612 673 549 558 498L566 433C786 390 842 344 842 312C842 271 794 227 627 137ZM904 -91 954 -29C870 30 690 126 554 184L520 116C651 60 823 -32 904 -91Z" transform="translate(0, 880) scale(1,-1)" /></svg>