<svg xmlns="http://www.w3.org/2000/svg" width="1000" height="1000"><path d="M337 348 401 385C383 416 349 461 314 495L251 461C283 427 318 382 337 348ZM557 367 629 392C614 429 588 476 557 516L488 491C516 452 543 405 557 367ZM736 375 799 343C835 381 874 432 901 477L829 509C808 468 770 414 736 375ZM582 20H695C762 46 796 84 796 121C796 189 716 226 580 226C423 226 335 198 335 132C335 76 399 47 506 47C578 47 616 74 616 119V394H538V137C538 118 516 111 488 111C459 111 418 119 418 132C418 149 457 159 580 159C666 159 712 144 712 121C712 95 692 63 582 20ZM199 -56H948V22H199ZM216 251H932V330H216ZM80 752V673H930V752ZM336 556 414 581C393 654 348 768 308 847L234 820C274 744 316 630 336 556ZM598 582 671 555C706 623 752 730 787 820L707 848C680 763 633 653 598 582ZM920 601H127V322C127 216 119 76 30 -28L101 -75C194 39 206 208 206 322V522H920Z" transform="translate(0, 880) scale(1,-1)" /></svg>