<svg xmlns="http://www.w3.org/2000/svg" width="1000" height="1000"><path d="M122 638 137 568C159 582 184 588 214 588C255 588 270 537 270 477C270 404 255 359 204 348V270C315 275 345 364 345 477C345 595 311 666 213 666C177 666 145 656 122 638ZM162 115H238V468H162ZM41 83 75 10 345 152 310 225ZM26 346 101 311C137 437 166 597 179 759L103 767C88 607 59 448 26 346ZM342 698 393 634C468 696 553 736 679 736C794 736 833 697 833 631C833 520 691 515 486 548V468C716 442 913 453 913 631C913 733 865 816 679 816C517 816 408 763 342 698ZM582 -75C637 -75 671 -50 671 24V640H592V29C592 9 587 2 571 2C538 2 495 14 454 30V-62C491 -70 539 -75 582 -75ZM388 415 349 348 531 264 571 331ZM298 77 342 13 594 154 551 218ZM603 283 560 227C702 158 825 78 913 -2L971 72C877 137 753 211 603 283ZM658 321 697 257C780 290 841 321 910 370L855 434C792 385 740 355 658 321Z" transform="translate(0, 880) scale(1,-1)" /></svg>