<svg xmlns="http://www.w3.org/2000/svg" width="1000" height="1000"><path d="M336 579 404 619C380 667 330 738 282 789L218 752C264 701 313 628 336 579ZM507 536H587V831H507ZM678 616 744 579C786 623 841 697 881 758L808 796C776 738 722 663 678 616ZM188 575V498H905V575ZM212 141 262 72C553 174 589 340 587 464H505C505 355 486 233 212 141ZM889 44 945 108C840 176 713 247 596 302L552 240C666 183 793 111 889 44ZM161 317H933V392H161ZM928 -54 952 27C654 4 427 5 283 48C196 74 135 144 109 238L31 216C66 88 144 10 253 -21C403 -64 625 -76 928 -54Z" transform="translate(0, 880) scale(1,-1)" /></svg>