<svg xmlns="http://www.w3.org/2000/svg" width="1000" height="1000"><path d="M36 480 110 459C140 561 166 704 179 818L103 824C94 709 69 573 36 480ZM101 614H316V692H101ZM59 9 113 -31C204 39 285 145 285 231C285 309 246 356 197 356C135 356 84 318 84 247C84 174 138 134 191 146C167 105 120 49 59 9ZM184 203C163 203 145 221 145 247C145 275 164 289 184 289C204 289 221 272 221 246C221 221 203 203 184 203ZM270 270V497H193V328ZM133 522V446H311V522ZM46 7 75 -66 318 45 291 117ZM426 837 382 774C429 750 480 720 508 698L553 764C524 785 473 815 426 837ZM397 392 477 379 613 648 546 686 530 677H333V599H500ZM621 502 332 406 360 329 650 432ZM588 302 652 250C769 357 861 453 963 595L893 637L853 588H736C775 652 817 732 857 815L779 847C738 748 697 670 656 604C647 590 634 580 622 573L655 500L672 510H796C743 443 660 362 588 302ZM789 104 814 30C903 53 952 109 952 185C952 268 875 321 700 321C560 321 416 296 313 263L331 188C432 219 578 243 700 243C824 243 870 215 870 184C870 141 839 115 789 104ZM475 172V94H746V172ZM340 12V-68H900V12Z" transform="translate(0, 880) scale(1,-1)" /></svg>