<svg xmlns="http://www.w3.org/2000/svg" width="1000" height="1000"><path d="M36 480 110 459C140 561 166 704 179 818L103 824C94 709 69 573 36 480ZM101 614H316V692H101ZM59 9 113 -31C204 39 286 126 286 247C286 315 240 356 185 356C130 356 84 315 84 247C84 180 124 129 191 141C167 100 120 49 59 9ZM185 205C165 205 147 222 147 247C147 272 164 289 185 289C205 289 223 272 223 247C223 222 205 205 185 205ZM270 270V497H193V328ZM133 522V446H311V522ZM43 8 76 -67 319 44 288 118ZM426 837 382 774C429 750 480 720 508 698L553 764C524 785 473 815 426 837ZM397 392 477 379 613 648 546 686 530 677H333V599H500ZM621 502 332 406 360 329 650 432ZM588 302 652 250C769 357 861 453 963 595L893 637L853 588H736C775 652 817 732 857 815L779 847C738 748 697 670 656 604C647 590 634 580 622 573L655 500L672 510H796C743 443 660 362 588 302ZM789 104 814 30C903 53 952 109 952 185C952 268 875 321 700 321C560 321 416 296 313 263L331 188C432 219 578 243 700 243C824 243 870 215 870 184C870 141 839 115 789 104ZM475 172V94H746V172ZM340 12V-68H900V12Z" transform="translate(0, 880) scale(1,-1)" /></svg>