<svg xmlns="http://www.w3.org/2000/svg" width="1000" height="1000"><path d="M506 -86C729 -86 870 -38 870 58C870 138 782 190 580 190C551 190 526 189 500 186C576 211 643 231 717 260L648 319L625 312H243V235H482C415 209 352 188 296 170C271 162 238 154 174 142L223 69C325 99 438 113 557 113C713 113 783 91 783 58C783 5 621 -13 492 -13C427 -13 392 -8 392 2C392 12 404 17 428 17C477 17 523 -5 547 -44L625 -27C597 28 524 77 429 77C356 77 304 42 304 0C304 -55 360 -86 506 -86ZM126 341H857V419H126ZM494 736 570 754C558 787 535 823 511 852L437 834C459 806 483 766 494 736ZM817 613 894 591C914 632 922 659 922 678C922 752 818 788 587 788C420 788 266 762 165 730V772H83V608H165V665C277 692 433 710 587 710C782 710 837 693 837 669C837 657 832 642 817 613ZM161 637V558H839V637ZM331 495 406 516C395 565 372 636 351 690L277 671C297 619 320 544 331 495ZM589 510 661 491C681 539 706 612 724 671L648 690C633 631 610 558 589 510ZM243 528V449H757V528Z" transform="translate(0, 880) scale(1,-1)" /></svg>