<svg xmlns="http://www.w3.org/2000/svg" width="1000" height="1000"><path d="M28 471 105 451C140 540 169 664 184 763L107 769C94 670 65 551 28 471ZM101 582H377V659H101ZM89 64 147 29C245 90 329 170 329 252C329 326 286 371 233 371C165 371 109 335 109 267C109 198 166 161 223 172C198 140 153 99 89 64ZM219 228C196 228 176 243 176 267C176 292 197 306 219 306C240 306 260 290 260 267C260 244 240 228 219 228ZM307 289V485H229V344ZM131 512V435H373V512ZM45 64 70 -10 382 86 357 160ZM380 665H964V745H380ZM763 43V704H684V47C684 25 676 17 660 17C624 17 587 26 546 39V-49C596 -58 643 -62 680 -61C735 -60 763 -38 763 43Z" transform="translate(0, 880) scale(1,-1)" /></svg>