<svg xmlns="http://www.w3.org/2000/svg" width="1000" height="1000"><path d="M120 636 134 566C149 577 171 582 194 582C230 582 243 528 243 463C243 387 235 339 191 328V249C295 251 319 346 319 463C319 587 287 661 192 661C166 661 138 652 120 636ZM147 83H223V455H147ZM36 47 73 -26 321 123 282 197ZM26 327 100 292C133 424 160 593 172 764L96 772C83 602 56 435 26 327ZM403 -71C512 -71 582 19 582 203C582 334 553 434 433 434C388 434 343 417 316 397L338 324C362 341 398 354 433 354C489 354 503 298 503 203C503 87 463 8 403 8C382 8 371 24 371 47C371 174 667 376 775 376C836 376 858 337 858 243C858 113 834 11 751 11C708 11 663 21 615 41V-44C662 -61 705 -68 756 -68C893 -68 938 72 938 243C938 372 896 456 780 456C642 456 293 233 293 47C293 -34 345 -71 403 -71ZM794 73 812 143C754 164 695 183 636 194L618 126C679 112 736 96 794 73ZM801 201 821 272C764 291 707 305 650 315L633 248C689 237 744 221 801 201ZM454 395 524 351C603 438 660 541 660 671H581C581 555 531 475 454 395ZM487 584V504C748 481 874 510 874 668C874 782 776 822 649 822C522 822 428 792 333 738L372 668C452 713 542 741 649 741C744 741 795 715 795 668C795 582 716 564 487 584Z" transform="translate(0, 880) scale(1,-1)" /></svg>