<svg xmlns="http://www.w3.org/2000/svg" width="1000" height="1000"><path d="M41 488 119 464C156 563 186 702 202 813L124 821C110 709 80 577 41 488ZM117 615H419V694H117ZM117 34 177 -5C279 63 363 158 363 243C363 320 318 367 264 367C193 367 136 329 136 259C136 187 196 144 257 159C231 120 186 73 117 34ZM250 214C223 214 201 231 201 259C201 287 224 303 251 303C273 303 296 285 296 260C296 231 274 214 250 214ZM339 282V503H260V339ZM146 528V450H415V528ZM61 26 84 -49 424 59 401 133ZM623 27 697 1C801 113 850 206 850 337C850 483 790 537 665 537C547 537 471 473 471 363C471 273 515 218 595 218C667 218 708 272 708 336V729H630V353C630 320 619 302 594 302C570 302 551 324 551 363C551 409 575 455 665 455C746 455 771 417 771 337C771 238 729 145 623 27ZM410 -35H943V43H410ZM434 698H916V776H434ZM901 158 967 191C943 253 918 313 887 372L824 341C853 282 878 220 901 158Z" transform="translate(0, 880) scale(1,-1)" /></svg>