<svg xmlns="http://www.w3.org/2000/svg" width="1000" height="1000"><path d="M501 785H71V709H501ZM329 646V850H249V646ZM474 681H94V604H474ZM480 579H93V503H480ZM329 422V554H249V422ZM504 495 60 420 74 342 518 421ZM498 404 546 337C750 391 849 500 902 630L841 666L823 659H550V583H784C758 531 699 456 498 404ZM879 334 940 397C864 451 731 520 606 573L558 515C680 460 807 386 879 334ZM680 852V633H760V852ZM541 785V709H909V785ZM116 276 168 208C287 251 398 311 499 382L434 434C338 367 229 314 116 276ZM86 152 118 78C438 115 646 193 805 319L753 378L735 371H347V296H625C527 234 392 190 86 152ZM872 78 914 152C696 202 510 236 297 266L260 192C474 162 658 128 872 78ZM781 -108 820 -37C678 -9 417 36 216 61L173 -10C379 -36 642 -78 781 -108ZM664 19 704 89C617 105 484 125 379 138L341 71C444 58 581 37 664 19Z" transform="translate(0, 880) scale(1,-1)" /></svg>