<svg xmlns="http://www.w3.org/2000/svg" width="1000" height="1000"><path d="M231 683 159 694C125 486 66 296 8 155L76 121C133 268 195 476 231 683ZM200 112C189 112 183 123 183 148C183 185 205 267 275 359L222 397C147 303 107 212 107 147C107 79 147 38 200 38C280 38 311 105 311 252C311 400 270 460 206 460C167 460 138 443 118 410L131 342C154 370 181 385 205 385C225 385 237 337 237 252C237 143 218 112 200 112ZM35 657H314V734H35ZM525 456H602V763H525ZM345 722H938V802H345ZM683 456H762V763H683ZM278 -47 348 -86C410 13 427 160 427 261V410H951V490H349V261C349 165 336 48 278 -47ZM678 -65C719 -65 755 -57 799 -34V52C758 27 727 15 698 15C684 15 677 28 677 59V363H599V21C599 -45 629 -65 678 -65ZM924 12 988 74C921 152 839 242 767 305L706 254C778 186 859 96 924 12ZM466 296V-26H544V296ZM429 514 502 545C487 586 459 644 433 686L362 658C386 616 415 554 429 514ZM779 535 850 511C876 557 906 619 927 672L850 701C834 650 805 584 779 535Z" transform="translate(0, 880) scale(1,-1)" /></svg>