<svg xmlns="http://www.w3.org/2000/svg" width="1000" height="1000"><path d="M253 594 308 654C260 695 207 733 145 771L93 712C154 674 206 634 253 594ZM154 -14C284 -14 348 101 348 216C348 310 291 396 159 434L132 359C234 326 266 273 266 216C266 139 227 67 154 67C125 67 107 79 107 105C107 168 185 231 352 316L312 386C141 296 27 211 27 105C27 21 78 -14 154 -14ZM157 406 217 368C276 422 335 491 368 544L305 593L292 585H50V507H242C219 471 191 436 157 406ZM449 690 487 624C554 680 620 708 704 708C774 708 794 671 794 619C794 561 774 501 732 438L796 400C845 475 873 541 873 619C873 739 815 789 704 789C604 789 526 751 449 690ZM333 -38H972V42H333ZM659 32 730 0C811 88 892 193 892 316C892 432 808 472 650 447V369C768 380 812 373 812 316C812 219 742 123 659 32ZM511 6V782H432V6Z" transform="translate(0, 880) scale(1,-1)" /></svg>