<svg xmlns="http://www.w3.org/2000/svg" width="1000" height="1000"><path d="M72 677 106 605C150 654 191 682 232 682C261 682 272 656 272 611C272 558 257 496 228 437L301 399C332 468 349 536 349 611C349 723 313 763 232 763C172 763 123 729 72 677ZM47 -43 401 67 378 146 24 36ZM186 67 260 32C311 113 361 209 361 325C361 435 302 472 188 449V371C262 381 283 375 283 325C283 239 239 151 186 67ZM142 40V753H64V40ZM363 374 437 325C533 418 660 590 723 713L643 740C587 623 459 456 363 374ZM404 -51H970V29H404ZM603 7 685 -29C758 34 808 140 808 250C808 339 756 391 670 391C595 391 530 336 530 255C530 166 596 121 668 121C685 121 698 123 710 127C690 79 654 44 603 7ZM670 191C634 191 608 218 608 255C608 291 634 318 670 318C706 318 729 291 729 255C729 218 706 191 670 191ZM793 282V609H713V342ZM523 448H947V528H523ZM424 699H943V779H424Z" transform="translate(0, 880) scale(1,-1)" /></svg>