<svg xmlns="http://www.w3.org/2000/svg" width="1000" height="1000"><path d="M38 485 114 463C149 558 177 690 193 795L115 802C103 696 74 570 38 485ZM110 605H384V683H110ZM97 52 154 15C253 80 336 169 336 252C336 328 293 374 241 374C173 374 117 337 117 268C117 197 175 158 232 170C207 135 162 89 97 52ZM227 227C203 227 184 243 184 268C184 294 204 308 227 308C248 308 267 292 267 268C267 243 248 227 227 227ZM315 291V500H237V347ZM139 525V449H380V525ZM54 49 79 -25 388 78 364 151ZM522 301V214C579 205 635 202 692 202C797 202 912 254 912 396C912 513 821 570 684 570C550 570 461 534 391 489L429 416C495 458 569 490 684 490C794 490 832 446 832 396C832 308 763 283 687 283C633 283 578 288 522 301ZM348 -3 397 -69C584 3 694 96 694 426H615C615 129 509 51 348 -3ZM904 -75 954 -8C886 45 813 97 739 149L687 90C760 39 833 -16 904 -75ZM488 595 555 639C536 683 494 750 451 798L387 758C428 710 470 642 488 595ZM615 532H694V826H615ZM745 635 810 595C847 638 894 707 929 765L857 803C830 749 783 680 745 635Z" transform="translate(0, 880) scale(1,-1)" /></svg>