<svg xmlns="http://www.w3.org/2000/svg" width="1000" height="1000"><path d="M170 -36 258 -27C201 113 190 213 224 297C262 391 267 466 209 545L122 526C175 440 178 376 143 303C104 223 110 113 170 -36ZM287 626 333 690C289 719 205 766 142 796L99 740C163 706 246 656 287 626ZM516 137 573 72C813 178 892 221 892 312C892 389 805 450 579 489C727 555 841 626 941 751L873 794L858 779H415V701H781C684 612 581 549 429 498L439 433C727 390 805 344 805 312C805 271 738 227 516 137ZM881 -91 931 -29C823 32 595 131 423 193L396 121C562 63 778 -30 881 -91Z" transform="translate(0, 880) scale(1,-1)" /></svg>