<svg xmlns="http://www.w3.org/2000/svg" width="1000" height="1000"><path d="M611 455 661 512C582 570 493 627 389 683L346 627C449 571 537 513 611 455ZM39 103 74 28C255 100 526 199 696 276L667 343C496 268 229 170 39 103ZM225 -71H301V802H225ZM908 18 950 91C838 136 717 173 585 202L560 140C686 106 802 65 908 18ZM73 357H927V435H73ZM696 618V13C696 -4 689 -10 670 -10C637 -10 591 -5 547 7V-66C586 -73 634 -78 686 -78C743 -78 772 -59 772 -5V622C772 757 728 801 603 801H451C356 801 301 790 253 771V703C308 723 359 733 446 733H597C672 733 696 701 696 618Z" transform="translate(0, 880) scale(1,-1)" /></svg>