<svg xmlns="http://www.w3.org/2000/svg" width="1000" height="1000"><path d="M440 97V806H97V341C97 181 86 79 31 -48L108 -77C166 58 177 171 177 341V726H360V92C360 -14 393 -54 490 -54H843C929 -54 947 4 954 101L877 104C873 35 868 26 831 26H509C455 26 440 42 440 97ZM341 359V434H196V358ZM196 544H341V620H196ZM196 249V173H341V249ZM451 587 512 524C594 605 646 689 687 779L614 817C581 739 528 658 451 587ZM630 583 702 539C742 588 794 663 829 725L775 776L765 767H605V688H694C680 654 659 616 630 583ZM620 107H810C893 107 923 136 936 295L858 305C851 197 838 186 801 186H635C583 186 574 196 574 234V333H862V595H586V516H784V412H574V444H496V230C496 127 527 107 620 107Z" transform="translate(0, 880) scale(1,-1)" /></svg>