<svg xmlns="http://www.w3.org/2000/svg" width="1000" height="1000"><path d="M105 649 121 579C143 592 169 598 199 598C240 598 255 549 255 489C255 417 240 372 189 362V284C299 289 331 377 331 489C331 606 296 676 198 676C161 676 129 667 105 649ZM146 131H222V480H146ZM24 100 58 27 330 167 295 240ZM9 360 84 325C120 449 149 607 163 768L87 776C72 617 42 460 9 360ZM334 634H968V714H709L663 839L586 821L624 714H334ZM666 491C570 491 480 466 394 425L424 346C507 391 586 411 666 411C741 411 761 382 761 334C761 194 576 24 485 24C447 24 422 55 422 115C422 165 446 205 507 205C605 205 737 44 926 -77L981 -15C793 100 648 283 507 283C407 283 341 222 341 115C341 16 392 -56 485 -56C619 -56 841 149 841 334C841 443 794 491 666 491ZM353 385 421 332C507 427 585 545 650 665L575 696C514 576 436 470 353 385ZM922 374 988 422C940 495 888 558 832 613L767 570C823 513 875 448 922 374Z" transform="translate(0, 880) scale(1,-1)" /></svg>