<svg xmlns="http://www.w3.org/2000/svg" width="1000" height="1000"><path d="M43 481 118 458C151 560 178 703 193 817L116 824C105 709 78 573 43 481ZM112 614H364V692H112ZM88 12 144 -28C240 42 323 130 323 247C323 316 276 356 216 356C157 356 110 316 110 247C110 178 154 129 224 141C199 100 153 52 88 12ZM216 205C195 205 176 222 176 247C176 272 195 289 216 289C238 289 257 272 257 247C257 222 238 205 216 205ZM304 270V497H226V328ZM142 522V445H360V522ZM54 8 84 -68 369 43 340 118ZM425 305 624 421 583 486 383 376ZM488 366V817H409V366ZM447 672V592H611V672ZM612 380 669 319C781 399 927 538 927 686C927 782 883 822 794 822C722 822 664 803 609 766L639 695C689 729 734 741 794 741C832 741 847 721 847 686C847 568 716 445 612 380ZM887 314 949 369C853 492 780 562 691 622L638 571C726 508 793 440 887 314ZM698 -1V363H619V-1ZM428 160H888V240H428ZM928 31H389V-49H928Z" transform="translate(0, 880) scale(1,-1)" /></svg>