<svg xmlns="http://www.w3.org/2000/svg" width="1000" height="1000"><path d="M380 103V806H90V334C90 174 79 74 29 -50L109 -77C159 56 170 164 170 334V726H300V97C300 -12 335 -54 434 -54H843C929 -54 947 4 954 101L877 104C873 35 868 26 831 26H455C397 26 380 44 380 103ZM286 359V434H183V358ZM183 544H286V620H183ZM183 249V173H286V249ZM753 75C881 75 938 183 938 363C938 535 858 599 716 599C698 599 679 598 661 596C725 644 797 702 857 753L804 812L787 806H454V726H698C643 676 592 628 528 577C516 568 468 546 431 524L468 450C537 494 615 520 703 520C801 520 859 485 859 361C859 256 825 155 749 155C712 155 678 163 642 181V92C677 81 712 75 753 75ZM395 263 460 207C548 279 616 370 649 470L574 495C545 402 481 325 395 263ZM446 131 510 74C633 147 743 297 776 468L701 491C667 323 568 198 446 131Z" transform="translate(0, 880) scale(1,-1)" /></svg>