<svg xmlns="http://www.w3.org/2000/svg" width="1000" height="1000"><path d="M148 -61H226V772H148ZM36 583H339V663H36ZM59 433H316V513H59ZM277 56C339 56 369 104 369 210C369 312 336 367 224 367C152 367 82 345 19 301L56 227C112 267 167 287 224 287C280 287 291 247 291 210C291 166 282 136 262 136C249 136 237 139 221 147V65C239 59 258 56 277 56ZM557 363 621 314C694 354 771 439 771 531C771 599 730 643 638 643C545 643 508 600 508 538C508 469 565 432 670 432C835 432 929 495 929 630C929 728 879 808 696 808C535 808 430 764 345 714L388 644C467 689 579 728 696 728C823 728 850 681 850 630C850 554 786 506 670 506C609 506 588 520 588 538C588 556 605 571 638 571C670 571 691 558 691 531C691 469 634 405 557 363ZM796 129 824 47C906 77 961 140 962 234C962 328 895 389 711 389C576 389 434 360 331 324L351 247C450 282 592 309 711 309C840 309 880 276 880 232C880 175 848 146 796 129ZM492 213V134H754V213ZM360 26V-54H905V26Z" transform="translate(0, 880) scale(1,-1)" /></svg>