<svg xmlns="http://www.w3.org/2000/svg" width="1000" height="1000"><path d="M221 653 150 663C118 454 62 264 8 123L75 90C129 237 187 445 221 653ZM190 80C182 80 176 91 176 116C176 154 196 235 261 328L209 365C138 271 101 180 101 115C101 47 139 6 190 6C267 6 296 73 296 220C296 369 257 429 195 429C159 429 132 412 113 379L125 310C147 339 172 354 194 354C212 354 222 306 222 220C222 111 206 80 190 80ZM35 627H297V703H35ZM432 -73C496 -73 522 -46 522 12V390C571 429 622 482 667 535L602 589L591 581H290V503H533C504 474 475 448 443 421V34C443 15 436 3 423 3C396 3 371 9 341 20V-62C372 -69 402 -73 432 -73ZM277 93 677 195 664 266 266 176ZM293 310H636V388H293ZM932 -88 982 -21C902 34 782 96 679 139L641 72C741 28 851 -31 932 -88ZM422 610 492 650C471 696 426 763 383 813L316 776C357 727 401 657 422 610ZM728 81 790 26C924 126 963 174 963 253C963 331 905 361 772 380C836 430 892 482 959 575L884 617C823 524 764 463 664 393L674 312C830 290 883 276 883 253C883 222 853 168 728 81ZM576 609H655V841H576ZM731 638 799 600C836 646 885 721 922 783L847 822C819 763 770 687 731 638Z" transform="translate(0, 880) scale(1,-1)" /></svg>