<svg xmlns="http://www.w3.org/2000/svg" width="1000" height="1000"><path d="M84 60V-31C118 -44 159 -52 208 -52C328 -52 449 24 449 224C449 432 358 495 120 450V372C326 414 369 360 369 224C369 106 307 27 208 27C159 27 116 41 84 60ZM57 525H454V603H128C149 665 168 733 187 806L110 822C95 744 75 670 53 602L41 591ZM184 446 254 422C309 496 377 609 425 720L368 761L350 754H205V676H315C283 601 237 522 184 446ZM152 351V148H231V351ZM55 153 77 78 352 156 331 231ZM550 444 628 420C681 542 725 682 753 818L671 832C646 700 604 561 550 444ZM831 474 908 440C929 485 939 521 939 563C939 657 880 703 747 703C635 703 527 662 456 623L490 545C553 583 652 618 747 618C833 618 857 590 857 558C857 531 849 508 831 474ZM532 460V380H774V258H570V306H491V83C491 -35 525 -60 617 -60H828C915 -60 944 -2 957 171L879 185C870 35 856 20 805 20H624C581 20 570 33 570 83V178H853V460Z" transform="translate(0, 880) scale(1,-1)" /></svg>