<svg xmlns="http://www.w3.org/2000/svg" width="1000" height="1000"><path d="M338 621 393 680C335 726 270 770 196 813L146 756C220 713 283 667 338 621ZM211 -64C369 -64 445 66 445 188C445 287 377 383 217 426L186 361C316 324 361 255 361 188C361 100 308 12 211 12C171 12 145 28 145 70C145 146 249 216 453 314L405 373C201 278 59 182 59 70C59 -22 121 -64 211 -64ZM220 403 288 371C359 430 431 507 471 565L407 609L391 600H83V528H342C312 485 268 439 220 403ZM753 670C663 670 583 646 516 606L538 540C601 577 672 594 753 594C821 594 837 552 837 474C837 276 684 26 618 26C589 26 565 57 565 150C565 214 589 275 626 275C693 275 759 78 901 -73L950 -8C801 132 738 354 626 354C559 354 491 288 491 150C491 8 551 -51 618 -51C714 -51 912 233 912 474C912 614 857 670 753 670Z" transform="translate(0, 880) scale(1,-1)" /></svg>