<svg xmlns="http://www.w3.org/2000/svg" width="1000" height="1000"><path d="M200 606 256 664C215 705 171 744 120 782L67 726C118 688 161 647 200 606ZM123 -9C230 -9 284 108 284 223C284 318 236 405 127 443L104 368C182 335 205 281 205 223C205 145 176 73 123 73C104 73 93 84 93 106C93 169 149 237 286 323L253 394C108 299 14 212 14 106C14 25 59 -9 123 -9ZM125 415 181 380C230 434 279 505 307 559L243 603L232 595H37V517H192C174 481 151 446 125 415ZM511 456H589V763H511ZM323 722H940V802H323ZM676 456H755V763H676ZM255 -47 325 -86C389 13 407 160 407 261V410H953V490H329V261C329 165 315 48 255 -47ZM670 -65C711 -65 748 -57 794 -34V52C751 27 719 15 689 15C674 15 666 28 666 59V363H588V21C588 -45 619 -65 670 -65ZM927 12 990 74C920 152 835 242 760 305L701 254C775 186 859 96 927 12ZM450 296V-26H529V296ZM411 514 484 545C469 586 440 644 413 686L342 658C367 616 397 554 411 514ZM775 535 846 511C874 557 905 619 927 672L849 701C833 650 803 584 775 535Z" transform="translate(0, 880) scale(1,-1)" /></svg>