<svg xmlns="http://www.w3.org/2000/svg" width="1000" height="1000"><path d="M109 51V-37C149 -50 200 -59 259 -59C396 -59 552 25 552 221C552 433 441 495 151 449V376C402 419 470 360 470 220C470 98 378 16 259 16C197 16 147 31 109 51ZM72 531H557V607H151C176 669 198 736 221 808L142 833C123 753 99 677 71 607L57 596ZM244 448 315 424C381 498 462 611 520 723L452 770L430 761H252V688H404C365 611 309 526 244 448ZM199 358V143H284V358ZM81 147 100 72 447 152 427 227ZM619 417 668 357C764 412 857 477 933 545L880 597C806 530 715 469 619 417ZM730 -65H812C902 -65 920 -11 930 163L861 169C855 31 848 14 817 14H728C697 14 689 27 689 77V816H610V75C610 -36 638 -65 730 -65Z" transform="translate(0, 880) scale(1,-1)" /></svg>