<svg xmlns="http://www.w3.org/2000/svg" width="1000" height="1000"><path d="M64 739 71 659C174 664 292 679 375 696L359 774C280 756 168 741 64 739ZM53 517V437H379V517ZM180 705V296H259V705ZM315 240 260 299C155 234 70 162 70 65C70 -8 117 -57 198 -57C313 -57 389 31 389 166C389 266 350 338 221 338C161 338 102 317 64 295L86 221C119 242 172 258 221 258C289 258 310 226 310 166C310 79 262 23 198 23C166 23 148 39 148 65C148 107 215 177 315 240ZM631 -83C816 -83 958 -5 958 122C958 229 878 291 715 291C663 291 614 285 571 275C604 317 647 400 673 469L590 486C569 415 524 316 476 259L454 249L493 176C549 198 615 213 699 213C815 213 873 202 873 122C873 21 732 -5 631 -5C555 -5 521 5 521 23C521 41 547 56 583 56C640 56 680 35 690 -37L763 -24C748 66 689 124 584 124C501 124 443 73 443 23C443 -41 501 -83 631 -83ZM482 579 508 504C566 525 645 546 726 546C816 546 849 531 849 486C849 420 800 380 567 409V334C866 300 932 387 932 486C932 579 858 624 726 624C631 624 542 601 482 579ZM615 606 681 566C753 628 813 690 847 735L792 780L769 766H512V687H701C680 661 649 633 615 606ZM334 573 399 516C473 584 563 711 605 828L523 847C482 730 401 626 334 573Z" transform="translate(0, 880) scale(1,-1)" /></svg>