<svg xmlns="http://www.w3.org/2000/svg" width="1000" height="1000"><path d="M420 45 475 -10C741 -15 870 26 870 144C870 223 766 279 517 262C607 294 683 322 771 361L693 405C579 347 444 285 340 246C308 234 188 206 108 173L139 102C286 162 443 190 580 190C714 190 784 172 784 137C784 89 658 48 420 45ZM470 -96 545 -59C507 8 446 76 393 125L326 88C373 45 437 -33 470 -96ZM76 342H924V421H76ZM501 411H634C720 433 769 490 769 542C769 605 679 643 495 643C317 643 209 611 209 547C209 492 278 452 426 452C513 452 541 483 541 542V841H459V552C459 527 438 520 400 520C369 520 309 531 309 545C309 561 357 573 495 573C597 573 674 557 674 540C674 511 645 461 501 411ZM87 678H914V755H86Z" transform="translate(0, 880) scale(1,-1)" /></svg>