<svg xmlns="http://www.w3.org/2000/svg" width="1000" height="1000"><path d="M169 554 213 613 143 635 32 493 106 459 115 464 496 526 469 600ZM253 397C311 397 334 430 334 494V851H255V499C255 484 251 474 232 474C207 474 177 481 144 491V408C180 401 216 397 253 397ZM67 618H485V696H67ZM64 792 92 715C209 717 384 726 496 745L462 816C359 802 183 793 64 792ZM809 688C785 459 827 402 896 402C951 402 974 455 981 546L921 552C917 498 910 480 897 480C882 480 869 513 890 759L827 777L815 766H478V688ZM418 455 486 397C693 478 715 629 713 851H633C635 646 632 535 418 455ZM777 516 805 590C742 611 610 640 510 658L475 586C577 566 714 536 777 516ZM473 -92C714 -92 904 -51 904 52C904 133 800 151 589 151C519 151 444 147 384 141C420 166 471 210 505 250L415 260C387 219 334 163 279 130L251 124L284 49C361 62 436 73 569 73C734 73 816 67 816 52C816 -5 604 -20 473 -20C366 -20 316 -18 316 -14C316 -9 356 -4 411 -4C492 -4 548 -10 562 -39L645 -32C625 21 548 53 412 53C304 53 230 30 230 -14C230 -66 305 -92 473 -92ZM287 321 308 253C386 265 493 277 603 277C732 277 778 274 778 260C778 222 712 213 397 230V158C778 138 865 171 865 260C865 332 773 355 603 355C479 355 365 337 287 321ZM468 324 541 291C631 325 706 359 748 384L696 441L673 432H326V354H551C530 345 501 334 468 324ZM109 309 166 255C262 294 379 365 433 433L355 465C301 398 197 339 109 309Z" transform="translate(0, 880) scale(1,-1)" /></svg>