<svg xmlns="http://www.w3.org/2000/svg" width="1000" height="1000"><path d="M119 693 149 625C219 662 309 699 398 699C500 699 565 642 565 567C565 501 527 464 477 464C440 464 418 494 418 530C418 651 581 709 694 709C785 709 825 665 825 544V23C825 4 813 -4 799 -4C766 -4 717 4 663 20V-62C712 -73 757 -79 796 -79C872 -79 905 -59 905 17V551C905 723 846 788 701 788C539 788 330 702 330 530C330 450 382 383 477 383C580 383 653 438 653 567C653 687 557 778 396 778C286 778 193 741 119 693ZM178 -66V788H98V-66Z" transform="translate(0, 880) scale(1,-1)" /></svg>