<svg xmlns="http://www.w3.org/2000/svg" width="1000" height="1000"><path d="M180 44 259 18C310 112 362 224 421 377L351 413L341 400H272C306 505 333 664 354 832L274 840C251 657 225 479 171 343L236 305L250 321H310C283 241 235 134 180 44ZM55 624H539V704H55ZM68 12 99 -62 527 124 491 196ZM54 284 129 261C146 337 163 442 171 537L94 542C87 452 72 354 54 284ZM445 270 523 283C515 354 501 462 486 544L411 534C425 450 440 340 445 270ZM654 137 696 72C868 178 925 221 925 312C925 389 864 450 707 490C810 556 888 628 964 749L892 793L882 778H582V700H830C762 611 696 551 592 498L600 433C797 390 845 344 845 312C845 271 804 227 654 137ZM902 -91 956 -28C878 30 714 125 590 183L550 114C670 58 828 -32 902 -91Z" transform="translate(0, 880) scale(1,-1)" /></svg>