<svg xmlns="http://www.w3.org/2000/svg" width="1000" height="1000"><path d="M553 359 579 434C446 485 317 524 184 552L165 482C298 455 430 410 553 359ZM44 391 107 346C184 421 240 517 262 610L193 632C165 536 123 460 44 391ZM269 322C326 322 364 354 364 414V774H287V427C287 403 282 390 260 390C235 390 214 396 187 408V332C213 324 241 322 269 322ZM67 593H559V665H67ZM98 801 115 731C248 733 408 744 517 763L489 831C378 812 236 802 98 801ZM474 102C470 34 451 2 422 2C385 2 354 8 323 20V-59C349 -64 378 -69 427 -69C508 -69 545 -37 555 165L492 181L484 171H453C461 209 468 245 475 289H84V218H214C194 137 161 59 49 -18L103 -74C238 26 268 115 293 218H384C380 191 374 162 365 134L394 102ZM651 137 692 72C865 178 921 221 921 312C921 389 859 450 702 490C804 556 881 630 957 751L894 794L883 779H579V701H832C764 612 692 549 589 498L596 433C794 390 843 344 843 312C843 271 801 227 651 137ZM904 -91 952 -29C877 29 720 124 600 182L566 115C681 58 832 -32 904 -91Z" transform="translate(0, 880) scale(1,-1)" /></svg>