<svg xmlns="http://www.w3.org/2000/svg" width="1000" height="1000"><path d="M273 603 332 661C285 706 233 748 173 790L118 734C177 692 228 648 273 603ZM179 -66C304 -66 365 63 365 183C365 281 310 378 184 420L157 345C253 309 284 247 284 183C284 97 247 16 179 16C153 16 135 30 135 69C135 141 209 200 371 295L332 364C171 272 55 179 55 69C55 -24 107 -66 179 -66ZM181 392 243 356C300 415 358 492 390 550L324 595L311 587H78V508H269C246 467 216 426 181 392ZM381 697 425 628C503 692 585 731 706 731C820 731 857 697 857 629C857 540 810 501 516 536V455C828 425 937 471 937 629C937 732 881 811 706 811C560 811 462 763 381 697ZM373 112H934V192H373ZM589 -72C663 -72 703 -36 703 47L704 633H625V65C625 25 613 6 581 6C550 6 515 13 479 27V-59C511 -68 546 -72 589 -72ZM395 266H912V346H395Z" transform="translate(0, 880) scale(1,-1)" /></svg>