<svg xmlns="http://www.w3.org/2000/svg" width="1000" height="1000"><path d="M307 705 230 718C185 476 109 256 34 92L107 54C181 224 261 465 307 705ZM274 36C253 36 242 48 242 77C242 122 276 223 365 333L311 374C214 266 164 148 164 77C164 4 209 -41 274 -41C367 -41 410 35 410 202C410 370 360 437 282 437C232 437 194 418 168 381L185 308C215 342 249 358 281 358C315 358 329 303 329 202C329 70 304 36 274 36ZM61 683H434V762H61ZM932 33 973 114C836 205 701 275 563 325L529 252C667 204 805 124 932 33ZM409 43 480 -8C557 126 614 300 636 465L558 474C530 304 487 167 409 43ZM636 -65C697 -65 735 -29 735 44V742H657V65C657 32 650 14 626 14C597 14 570 21 537 40V-49C568 -60 604 -65 636 -65ZM440 451H936V531H440ZM472 773 488 691C623 694 783 713 893 745L865 823C754 791 611 774 472 773Z" transform="translate(0, 880) scale(1,-1)" /></svg>