<svg xmlns="http://www.w3.org/2000/svg" width="1000" height="1000"><path d="M19 496 95 477C128 566 156 691 170 790L94 795C82 696 55 577 19 496ZM89 608H343V685H89ZM67 88 123 53C219 114 301 195 301 277C301 351 260 396 209 396C143 396 88 360 88 293C88 223 144 187 198 197C174 165 129 122 67 88ZM195 253C173 253 153 269 153 293C153 318 174 331 195 331C215 331 234 315 234 292C234 269 215 253 195 253ZM282 315V511H204V370ZM120 537V461H339V537ZM33 89 60 15 347 112 322 185ZM785 108C909 108 951 198 951 491C951 710 893 809 712 809C584 809 467 782 370 748L386 668C483 702 592 729 712 729C841 729 872 639 872 491C872 286 851 186 785 186C739 186 683 199 640 215V127C685 115 741 108 785 108ZM370 -34H932V46H370ZM338 163 406 110C551 229 652 414 666 642L586 646C573 431 483 274 338 163ZM713 342 751 417C674 456 538 507 426 538L388 469C501 435 637 382 713 342Z" transform="translate(0, 880) scale(1,-1)" /></svg>