<svg xmlns="http://www.w3.org/2000/svg" width="1000" height="1000"><path d="M24 220 41 141 335 223 317 301ZM168 -16C214 -16 241 7 241 64V536H162V77C162 63 159 59 150 59C132 59 110 64 78 77L79 -5C110 -13 139 -16 168 -16ZM76 588 42 458C38 446 34 439 26 434L67 362L83 369H297V449H119L159 588H325V667H35V588ZM94 661 170 687C159 722 140 778 118 820L45 795C66 752 85 699 94 661ZM195 684 263 656C289 706 308 753 326 803L243 824C231 775 215 728 195 684ZM719 103 766 30C870 62 931 133 931 234C931 322 890 393 704 393C516 393 369 298 369 196C369 133 415 84 505 84C638 84 717 190 717 331C717 433 676 486 614 524L559 463C606 436 638 399 638 331C638 228 581 162 505 162C465 162 448 175 448 196C448 245 558 314 704 314C831 314 851 273 851 234C851 179 801 124 719 103ZM956 -54 971 30C737 7 560 13 447 53C389 73 346 129 328 198L252 174C279 70 337 6 417 -20C536 -59 718 -76 956 -54ZM348 584 395 514C487 596 617 624 723 624C815 624 872 609 872 587C872 565 842 546 777 551V472C900 470 952 511 952 587C952 664 859 702 723 702C577 702 427 651 348 584ZM482 442 534 387C651 454 768 610 836 744L764 777C700 647 593 508 482 442ZM337 733H960V811H337ZM579 750H500C500 666 504 583 512 499L585 505C579 588 577 669 579 750Z" transform="translate(0, 880) scale(1,-1)" /></svg>