<svg xmlns="http://www.w3.org/2000/svg" width="1000" height="1000"><path d="M79 740V660H465V740ZM214 -21H371C423 -21 468 20 468 101C468 175 435 269 394 346L323 312C363 233 388 153 388 108C388 77 372 58 345 58H215C183 58 164 83 164 119C164 267 205 475 300 680L224 710C127 500 84 277 84 95C84 11 134 -21 214 -21ZM504 370 473 443 276 355 304 282ZM615 150 662 85C853 185 915 227 915 317C915 393 849 451 672 488C786 550 874 618 956 734L886 781L875 766H535V687H811C737 604 661 548 546 499L554 431C777 390 833 347 833 317C833 277 785 236 615 150ZM896 -73 949 -8C863 49 681 141 543 197L507 127C639 72 813 -16 896 -73Z" transform="translate(0, 880) scale(1,-1)" /></svg>