<svg xmlns="http://www.w3.org/2000/svg" width="1000" height="1000"><path d="M510 761H121V470C121 325 113 121 25 -24L106 -60C189 92 199 317 199 470V683H943V761H595L551 852L476 834ZM350 522 414 559C396 586 365 625 331 654L269 621C299 591 333 552 350 522ZM559 539 630 564C616 596 591 638 562 673L493 648C519 613 546 573 559 539ZM727 549 790 517C824 550 861 595 887 636L817 668C797 632 760 584 727 549ZM530 -93C760 -93 940 -41 940 69C940 158 841 189 640 189C573 189 504 184 447 177C483 206 532 263 565 311L477 324C450 274 398 205 344 165L317 157L354 83C426 99 499 111 621 111C776 111 853 104 853 69C853 -1 655 -19 530 -19C429 -19 383 -15 383 -7C383 2 420 10 471 10C547 10 600 -1 613 -42L694 -33C675 30 602 70 472 70C369 70 298 39 298 -7C298 -63 370 -93 530 -93ZM352 394 374 324C447 339 549 353 653 353C774 353 818 347 818 324C818 277 755 259 457 279V206C821 182 904 231 904 324C904 402 816 431 653 431C535 431 426 412 352 394ZM524 404 595 369C682 411 754 453 794 485L741 538L718 528H389V450H610C588 435 557 419 524 404ZM180 384 239 329C330 376 442 465 494 547L414 575C363 493 263 421 180 384Z" transform="translate(0, 880) scale(1,-1)" /></svg>