<svg xmlns="http://www.w3.org/2000/svg" width="1000" height="1000"><path d="M737 137 770 72C906 178 952 221 952 312C952 389 906 450 785 490C863 556 921 632 984 751L909 793L901 778H680V700H863C811 611 766 553 688 498L694 433C843 390 874 344 874 312C874 271 848 227 737 137ZM923 -90 976 -29C915 28 785 120 686 175L641 113C737 57 864 -32 923 -90ZM238 436H315V763H238ZM70 722H637V802H70ZM394 436H472V763H394ZM16 -47 86 -86C142 13 159 160 159 261V390H639V470H81V261C81 165 68 48 16 -47ZM144 504 217 535C203 576 178 634 154 676L83 648C105 606 132 544 144 504ZM487 525 558 501C583 547 610 609 629 662L553 691C538 640 512 574 487 525ZM454 4H534V343H454ZM259 343V-26H339V343ZM421 14 442 -64 657 -4 636 74Z" transform="translate(0, 880) scale(1,-1)" /></svg>