<svg xmlns="http://www.w3.org/2000/svg" width="1000" height="1000"><path d="M248 586 305 646C258 688 206 727 146 766L93 708C153 669 203 628 248 586ZM153 -36C279 -36 341 83 341 199C341 294 286 383 158 421L132 346C230 313 260 257 260 199C260 120 223 46 153 46C126 46 109 58 109 84C109 149 183 214 345 302L307 371C139 278 29 190 29 84C29 -1 79 -36 153 -36ZM156 393 216 356C273 411 331 482 363 536L299 584L286 576H52V498H239C217 461 189 424 156 393ZM762 295 817 232C913 308 959 399 959 511C959 601 914 672 787 673C602 674 465 540 340 403L402 346C528 491 652 593 787 593C854 593 879 557 879 511C879 434 845 358 762 295ZM593 -60H822C918 -60 937 -6 947 163L870 168C864 38 857 16 809 16H609C559 16 548 29 548 79V816H470V80C470 -31 494 -60 593 -60Z" transform="translate(0, 880) scale(1,-1)" /></svg>