<svg xmlns="http://www.w3.org/2000/svg" width="1000" height="1000"><path d="M254 637 182 650C145 444 81 258 18 118L87 83C149 228 216 433 254 637ZM223 76C209 76 201 87 201 111C201 148 227 228 302 319L249 357C168 265 125 175 125 110C125 42 166 2 223 2C306 2 341 68 341 213C341 360 297 419 229 419C187 419 156 402 135 370L149 301C173 330 202 344 228 344C253 344 265 297 265 213C265 106 244 76 223 76ZM45 612H357V689H45ZM546 363 610 314C685 354 764 439 764 531C764 599 723 643 628 643C534 643 497 600 497 538C497 469 554 432 662 432C830 432 926 495 926 630C926 727 875 808 689 808C524 808 417 764 331 714L374 644C455 688 568 728 689 728C818 728 847 681 847 630C847 554 781 506 662 506C599 506 577 520 577 538C577 556 594 571 628 571C662 571 684 558 684 531C684 468 626 406 546 363ZM792 129 820 47C904 77 959 140 960 234C960 327 892 389 704 389C566 389 421 360 315 324L335 247C437 282 582 309 704 309C836 309 878 275 878 232C878 175 845 146 792 129ZM480 213V134H748V213ZM345 26V-54H903V26Z" transform="translate(0, 880) scale(1,-1)" /></svg>