<svg xmlns="http://www.w3.org/2000/svg" width="1000" height="1000"><path d="M89 751V167H167V671C283 681 408 703 507 743L470 821C384 785 241 761 89 751ZM63 -52 573 80 553 157 43 25ZM372 84 443 55C498 153 523 232 523 339C523 468 489 550 349 550C228 550 155 492 93 425L148 359C209 426 268 470 349 470C414 470 443 426 443 339C443 239 424 181 372 84ZM661 137 704 72C882 178 941 221 941 312C941 389 878 450 714 489C821 555 903 627 981 748L909 794L898 779H586V699H845C774 610 704 551 596 498L604 433C810 390 860 344 860 312C860 271 817 227 661 137ZM919 -92 972 -28C892 31 723 126 594 184L555 115C679 58 842 -33 919 -92Z" transform="translate(0, 880) scale(1,-1)" /></svg>