<svg xmlns="http://www.w3.org/2000/svg" width="1000" height="1000"><path d="M57 671H319V750H57ZM227 713H149V-53H227ZM719 -59C862 -59 937 79 937 274C937 475 839 548 673 548C643 548 617 546 592 542C675 603 769 676 845 741L788 800L769 792H352V712H687C620 647 543 588 443 518C427 507 372 481 327 455L372 385C457 437 550 468 658 468C779 468 858 427 858 272C858 147 809 21 714 21C669 21 627 31 583 52V-39C625 -53 668 -59 719 -59ZM286 155 352 97C460 182 544 290 585 409L506 430C470 320 391 228 286 155ZM348 -2 413 -60C565 27 700 204 740 407L661 424C619 226 498 78 348 -2Z" transform="translate(0, 880) scale(1,-1)" /></svg>