<svg xmlns="http://www.w3.org/2000/svg" width="1000" height="1000"><path d="M36 677H284V755H36ZM199 718H121V-62H199ZM491 336H778V415H491ZM594 375H673V749H594ZM322 709H945V788H322ZM375 579 389 507C447 525 509 533 586 533H767C822 533 846 506 846 447V238C846 210 843 196 820 196C794 196 756 203 714 216V130C754 123 792 118 824 118C890 118 925 149 925 227V456C925 553 881 611 775 611H585C500 611 438 599 375 579ZM421 115V611H343V115ZM934 -54 952 31C716 8 537 9 423 51C354 77 306 142 285 235L209 216C237 88 300 10 388 -21C510 -64 689 -76 934 -54Z" transform="translate(0, 880) scale(1,-1)" /></svg>