<svg xmlns="http://www.w3.org/2000/svg" width="1000" height="1000"><path d="M36 476 111 455C144 552 172 687 186 795L109 801C98 692 71 563 36 476ZM105 600H359V678H105ZM82 32 138 -5C234 61 317 155 317 239C317 315 275 361 224 361C158 361 104 324 104 255C104 183 160 144 216 156C192 119 146 70 82 32ZM210 213C188 213 169 230 169 255C169 281 189 295 210 295C231 295 250 279 250 254C250 230 231 213 210 213ZM298 277V492H220V334ZM135 517V441H354V517ZM49 30 76 -44 362 61 337 134ZM561 112 631 74C695 171 776 302 823 390L756 440L744 431H625C661 531 691 669 719 817L640 829C607 641 569 488 521 379L590 340L603 352H708C672 280 619 193 561 112ZM905 -85 941 -11C773 65 607 123 448 166L407 97C577 48 741 -10 905 -85ZM413 621H928V701H413ZM384 273 459 247C483 321 502 427 513 518L436 527C426 439 407 341 384 273ZM872 238 951 255C941 329 926 443 902 529L827 515C850 427 865 311 872 238Z" transform="translate(0, 880) scale(1,-1)" /></svg>