<svg xmlns="http://www.w3.org/2000/svg" width="1000" height="1000"><path d="M26 481 101 462C134 553 161 682 175 784L98 789C87 687 61 564 26 481ZM94 597H340V674H94ZM67 60 130 24C224 87 301 161 301 272C301 338 252 376 196 376C139 376 90 338 90 272C90 207 134 160 199 171C175 138 129 96 67 60ZM196 233C174 233 155 248 155 272C155 295 174 311 196 311C217 311 236 295 236 272C236 248 217 233 196 233ZM282 294V496H204V350ZM125 522V446H336V522ZM37 62 67 -14 344 86 315 161ZM686 181C862 181 958 240 958 385C958 540 792 576 478 530L488 450C727 489 879 465 879 385C879 298 806 261 686 261C601 261 500 268 381 293V209C497 187 598 181 686 181ZM579 -79C636 -79 673 -58 673 16V380H594V33C594 11 586 -1 569 -1C534 -1 490 10 450 24V-62C488 -71 530 -79 579 -79ZM310 530 366 470C483 590 552 703 600 821L519 838C481 742 410 625 310 530ZM594 537 660 499C731 586 787 663 834 736L772 789L755 779H518V699H712C687 659 651 608 594 537Z" transform="translate(0, 880) scale(1,-1)" /></svg>