<svg xmlns="http://www.w3.org/2000/svg" width="1000" height="1000"><path d="M36 476 111 455C144 552 172 687 186 795L109 801C98 692 71 563 36 476ZM105 600H359V678H105ZM82 32 142 -5C237 61 317 141 317 255C317 322 269 361 211 361C152 361 104 322 104 255C104 188 148 140 216 152C192 115 146 70 82 32ZM211 214C189 214 170 231 170 255C170 279 189 295 211 295C232 295 251 279 251 255C251 231 232 214 211 214ZM298 277V492H220V334ZM135 517V441H354V517ZM47 31 77 -45 363 60 335 135ZM561 112 631 74C695 171 776 302 823 390L756 440L744 431H625C661 531 691 669 719 817L640 829C607 641 569 488 521 379L590 340L603 352H708C672 280 619 193 561 112ZM905 -85 941 -11C773 65 607 123 448 166L407 97C577 48 741 -10 905 -85ZM413 621H928V701H413ZM384 273 459 247C483 321 502 427 513 518L436 527C426 439 407 341 384 273ZM872 238 951 255C941 329 926 443 902 529L827 515C850 427 865 311 872 238Z" transform="translate(0, 880) scale(1,-1)" /></svg>