<svg xmlns="http://www.w3.org/2000/svg" width="1000" height="1000"><path d="M67 536 138 501C195 593 246 721 271 825L196 839C169 733 120 614 67 536ZM179 647H905V724H179ZM463 -19H541V621H463ZM180 76H820V155H180ZM180 221H820V300H180ZM197 542 215 469C399 475 659 502 828 536L788 608C644 579 391 551 197 542ZM915 17H85V-62H915ZM285 307 346 352C316 388 254 439 195 477L138 434C194 396 256 343 285 307ZM638 349 697 307C750 339 817 392 868 438L799 481C759 439 692 384 638 349Z" transform="translate(0, 880) scale(1,-1)" /></svg>