<svg xmlns="http://www.w3.org/2000/svg" width="1000" height="1000"><path d="M202 127H923V207H202ZM229 723H896V802H229ZM532 371 562 289C752 320 836 392 836 507C836 596 772 657 608 657C471 657 375 634 279 601L310 523C399 553 488 576 608 576C709 576 752 545 752 507C752 446 699 391 532 371ZM550 222 630 253C610 316 575 386 543 440L466 410C500 363 532 285 550 222ZM928 -54 952 31C654 8 427 9 283 52C196 78 135 144 109 238L31 216C66 88 144 10 253 -21C403 -64 625 -76 928 -54Z" transform="translate(0, 880) scale(1,-1)" /></svg>