<svg xmlns="http://www.w3.org/2000/svg" width="1000" height="1000"><path d="M383 -71C508 -71 571 26 571 191C571 341 485 406 350 406C332 406 340 406 324 406C378 433 430 461 491 496L449 563L433 556H116V478H327C269 441 208 406 156 379C142 372 85 342 46 320L95 249C164 295 250 327 338 327C430 327 491 289 491 191C491 85 461 8 377 8C333 8 290 15 247 32V-55C288 -67 334 -71 383 -71ZM97 95 151 31C252 88 360 181 429 278L360 317C296 220 191 143 97 95ZM335 56 398 106C361 163 290 239 238 282L178 235C229 192 300 110 335 56ZM689 136 727 71C885 176 938 219 938 310C938 387 883 447 740 486C833 552 904 625 974 745L901 788L892 773H623V695H845C783 607 725 549 632 495L639 430C818 387 859 341 859 310C859 269 824 225 689 136ZM913 -91 966 -29C895 29 744 122 630 178L588 112C699 57 844 -33 913 -91ZM162 682 236 705C226 738 206 793 185 830L113 807C132 769 150 722 162 682ZM44 620H559V699H44ZM364 688 434 669C460 716 480 766 495 814L418 833C406 788 388 734 364 688Z" transform="translate(0, 880) scale(1,-1)" /></svg>