<svg xmlns="http://www.w3.org/2000/svg" width="1000" height="1000"><path d="M32 632H290V711H32ZM200 674H122V-51H200ZM403 450 474 416C550 512 622 629 704 804L624 832C551 665 475 540 403 450ZM304 592H955V672H304ZM802 317V-3H882V378L825 409L802 397C595 383 294 264 294 77C294 -14 351 -61 441 -61C596 -61 695 64 695 232C695 371 654 480 509 480C449 480 401 464 365 442L397 372C424 388 464 400 509 400C575 400 615 339 615 232C615 105 544 19 441 19C395 19 374 43 374 77C374 189 608 304 802 317ZM967 34H717V-46H967Z" transform="translate(0, 880) scale(1,-1)" /></svg>