<svg xmlns="http://www.w3.org/2000/svg" width="1000" height="1000"><path d="M268 535 316 596C276 626 231 657 179 685L134 627C185 595 230 566 268 535ZM189 -60C332 -60 391 58 391 174C391 264 334 352 187 393L157 319C272 285 310 235 310 174C310 94 268 19 189 19C157 19 137 37 137 67C137 135 218 190 396 280L356 344C177 257 54 170 54 67C54 -19 110 -60 189 -60ZM190 367 245 324C310 376 375 445 411 497L356 542L342 534H75V454H278C254 422 228 396 190 367ZM193 624 254 579C310 631 373 699 414 754L351 798L335 789H83V711H278C255 679 227 652 193 624ZM943 -54 955 31C761 8 614 9 520 51C462 77 423 140 406 233L331 216C354 88 408 10 482 -21C584 -64 736 -76 943 -54ZM783 519C771 479 755 442 734 403L777 337C833 355 862 338 862 287C862 218 724 163 589 138L619 56C775 97 941 161 941 288C941 395 888 427 825 421L891 583L820 619L806 606C502 546 413 429 413 346C413 292 447 242 511 242C639 242 730 495 828 790L758 821L743 807H467V728H721C655 518 570 320 514 320C500 320 491 329 491 344C491 380 537 468 783 519Z" transform="translate(0, 880) scale(1,-1)" /></svg>