<svg xmlns="http://www.w3.org/2000/svg" width="1000" height="1000"><path d="M244 486H900V562H250C214 562 203 572 203 594C203 629 239 673 331 772L263 817C156 703 114 637 114 575C114 515 154 486 244 486ZM455 25V-64C507 -76 563 -80 638 -80C818 -80 913 18 913 192C913 354 832 430 619 430C514 430 436 424 354 411L356 334C439 347 519 356 619 356C771 356 823 293 823 192C823 66 756 1 638 1C566 1 505 10 455 25ZM267 275V198H684V275ZM267 143V67H684V143ZM472 576 540 613C514 668 473 736 433 787L367 750C405 700 445 634 472 576ZM151 355 194 275C556 364 718 539 839 772L759 794C668 586 510 444 151 355Z" transform="translate(0, 880) scale(1,-1)" /></svg>