<svg xmlns="http://www.w3.org/2000/svg" width="1000" height="1000"><path d="M514 -89 554 -6C408 60 324 240 191 240C108 240 57 179 57 86C57 -6 103 -61 179 -61C320 -61 477 160 477 282C477 393 422 444 305 444C249 444 191 427 140 400L159 319C197 346 254 364 305 364C367 364 398 340 398 282C398 189 283 19 179 19C148 19 134 44 134 86C134 127 157 160 191 160C289 160 360 -20 514 -89ZM260 388H341V835H260ZM435 501 510 472C533 524 543 555 543 588C543 680 475 720 366 720C277 720 196 689 142 647V704H64V490H142V578C202 615 284 639 366 639C440 639 460 616 460 582C460 562 453 541 435 501ZM631 124 675 59C861 165 922 208 922 299C922 376 856 437 685 476C797 542 883 613 964 735L893 781L881 766H553V686H825C751 597 677 537 564 485L572 420C787 377 841 331 841 299C841 258 795 214 631 124ZM901 -105 955 -41C872 18 695 114 561 172L523 102C652 45 821 -46 901 -105Z" transform="translate(0, 880) scale(1,-1)" /></svg>