<svg xmlns="http://www.w3.org/2000/svg" width="1000" height="1000"><path d="M30 465 106 445C141 536 169 664 185 766L107 772C95 670 66 548 30 465ZM102 581H376V658H102ZM89 46 146 11C244 73 328 157 328 240C328 315 285 360 233 360C165 360 109 324 109 256C109 185 166 147 223 159C198 126 153 82 89 46ZM218 216C195 216 176 231 176 256C176 281 196 295 218 295C239 295 259 278 259 256C259 231 239 216 218 216ZM307 278V480H229V333ZM131 506V429H372V506ZM46 45 71 -29 380 70 355 143ZM732 -66C897 -66 930 121 930 363C930 605 858 701 712 701C604 701 501 670 439 626L458 552C523 596 620 621 712 621C809 621 850 520 850 363C850 162 822 12 726 12C659 12 607 25 565 49L544 -28C587 -48 640 -66 732 -66ZM314 409 384 363C470 492 527 655 564 817L486 833C449 667 390 512 314 409ZM494 464V384H751V464ZM494 283V203H751V283Z" transform="translate(0, 880) scale(1,-1)" /></svg>