<svg xmlns="http://www.w3.org/2000/svg" width="1000" height="1000"><path d="M12 33 71 -30C210 111 343 260 465 427L403 478C285 318 149 166 12 33ZM43 36H121V664H43ZM427 -27 474 38C342 130 280 281 271 775H193C196 270 275 66 427 -27ZM128 426 189 367C265 440 344 530 409 618L345 669C284 587 211 501 128 426ZM411 426 472 364C554 448 666 602 721 713L641 740C595 640 490 497 411 426ZM402 -51H967V29H402ZM600 6 683 -29C756 34 807 139 807 249C807 340 755 392 667 392C592 392 526 337 526 255C526 165 593 120 665 120C683 120 696 122 709 127C688 78 652 43 600 6ZM667 190C632 190 605 217 605 255C605 292 632 319 667 319C704 319 727 292 727 255C727 217 704 190 667 190ZM791 282V609H711V343ZM518 448H948V528H518ZM417 699H944V779H417Z" transform="translate(0, 880) scale(1,-1)" /></svg>