<svg xmlns="http://www.w3.org/2000/svg" width="1000" height="1000"><path d="M523 791H111V470C111 325 92 121 31 -24L108 -60C168 92 189 317 189 470V714H523ZM318 42V348H247V42ZM418 279C497 279 519 331 517 605L455 622L438 611H244V537H440C441 380 431 351 406 351C392 351 369 354 349 363V287C368 282 393 279 418 279ZM653 137 695 72C868 178 925 221 925 312C925 389 863 450 704 490C808 556 885 630 961 751L898 794L887 779H581V701H836C767 612 695 549 591 498L598 433C797 390 846 344 846 312C846 271 804 227 653 137ZM906 -91 956 -29C878 29 713 124 587 182L551 115C672 58 831 -32 906 -91ZM228 62 248 -9 523 71 503 142Z" transform="translate(0, 880) scale(1,-1)" /></svg>