<svg xmlns="http://www.w3.org/2000/svg" width="1000" height="1000"><path d="M211 29 310 2C380 56 420 164 420 263C420 360 374 419 291 419C220 419 163 370 163 282C163 191 223 146 291 146C302 146 312 147 324 151C308 95 266 47 211 29ZM80 -71 587 64 564 141 58 6ZM291 219C263 219 240 245 240 282C240 321 263 343 291 343C319 343 341 321 341 282C341 245 319 219 291 219ZM72 423 143 389C186 467 214 552 233 637L154 656C140 579 115 498 72 423ZM380 323V755H301V388ZM75 715H569V795H75ZM502 389 579 423C559 502 531 577 486 662L417 631C461 544 486 468 502 389ZM702 137 737 72C880 178 929 221 929 312C929 389 880 450 751 490C834 556 897 631 963 751L888 793L880 778H641V700H839C783 611 733 553 650 498L656 433C816 390 851 344 851 312C851 271 822 227 702 137ZM902 -90 955 -29C890 28 752 121 648 177L604 113C706 57 839 -32 902 -90Z" transform="translate(0, 880) scale(1,-1)" /></svg>