<svg xmlns="http://www.w3.org/2000/svg" width="1000" height="1000"><path d="M800 506 862 465C904 492 931 529 931 581C931 663 850 708 583 708C409 708 264 682 154 633V680H76V481H154V568C268 607 418 629 582 629C799 629 845 599 845 576C845 549 833 527 800 506ZM461 549H540V765H461ZM703 583H298V505H703ZM823 809 168 808V730H823ZM208 -78C258 -78 286 -57 286 7V504H209V17C209 4 203 -4 192 -4C167 -4 141 4 107 17V-69C141 -75 173 -78 208 -78ZM57 347 96 277C210 314 317 360 403 405L352 465C270 421 169 380 57 347ZM58 82 125 57 138 70 379 149 360 221 193 158 256 309 186 332ZM341 -63H914V16H341ZM519 -3H653C706 23 726 73 726 118C726 172 699 205 611 205C537 205 497 172 497 128C497 82 531 50 611 50C622 50 632 51 640 54C622 30 587 12 519 -3ZM344 417 372 348C444 375 544 396 683 396C803 396 841 375 841 349C841 312 695 295 473 315V233C809 219 921 227 921 349C921 426 864 474 683 474C516 474 417 445 344 417ZM693 155V352H616V173ZM611 103C586 103 566 115 566 128C566 142 586 154 611 154C637 154 656 142 656 128C656 115 637 103 611 103Z" transform="translate(0, 880) scale(1,-1)" /></svg>