<svg xmlns="http://www.w3.org/2000/svg" width="1000" height="1000"><path d="M18 473 93 455C126 543 153 667 168 766L91 772C80 672 53 554 18 473ZM87 585H337V662H87ZM62 65 118 30C213 91 296 173 296 254C296 329 255 373 204 373C138 373 84 337 84 270C84 201 139 165 194 174C169 143 124 100 62 65ZM190 230C168 230 149 246 149 270C149 296 169 309 190 309C210 309 229 293 229 269C229 247 210 230 190 230ZM277 292V488H200V347ZM117 514V438H333V514ZM31 67 58 -7 340 90 315 162ZM503 29 571 -18C664 62 751 191 751 342C751 431 713 505 616 505C517 505 484 438 484 364C484 273 535 216 648 216C819 216 919 332 919 538C919 699 843 809 654 809C478 809 360 693 299 622L360 564C421 632 528 728 654 728C777 728 839 654 839 538C839 394 766 296 648 296C587 296 563 319 563 364C563 400 581 425 616 425C648 425 672 397 672 342C672 218 584 100 503 29ZM297 -41H957V39H297Z" transform="translate(0, 880) scale(1,-1)" /></svg>