<svg xmlns="http://www.w3.org/2000/svg" width="1000" height="1000"><path d="M51 50 377 137 357 214 31 127ZM144 138 236 118C267 155 294 232 294 318C294 402 253 440 187 440C134 440 83 402 83 333C83 260 128 224 187 224C199 224 210 225 219 230C203 183 182 157 144 138ZM27 733 65 667C105 699 158 729 230 729C288 729 311 698 311 645C311 560 238 543 104 572V488C254 466 389 487 389 645C389 740 339 809 230 809C130 809 67 763 27 733ZM259 373V655H182V399ZM187 292C166 292 150 310 150 333C150 356 166 373 187 373C211 373 227 356 227 333C227 310 211 292 187 292ZM79 19V-59H921V19ZM401 663H950V743H729L692 841L617 825L646 743H401ZM418 504 474 444C541 505 616 543 730 543C832 543 851 514 851 480C851 408 741 403 561 427V347C761 329 929 337 929 480C929 562 876 622 730 622C589 622 493 575 418 504ZM648 39C694 39 727 70 727 132V477H649V144C649 124 642 116 627 116C599 116 572 124 538 139V55C573 44 608 39 648 39ZM373 160 439 115C495 162 538 226 561 282L486 310C468 261 429 205 373 160ZM912 108 982 146C962 191 917 260 862 314L795 274C848 220 893 152 912 108Z" transform="translate(0, 880) scale(1,-1)" /></svg>