<svg xmlns="http://www.w3.org/2000/svg" width="1000" height="1000"><path d="M65 73 485 157 468 235 48 151ZM205 169 278 139C350 179 373 263 373 327C373 410 327 447 245 447C180 447 117 410 117 342C117 270 174 234 245 234C263 234 275 236 290 241C285 223 253 192 205 169ZM41 743 80 669C127 696 213 734 316 734C397 734 428 704 428 653C428 557 325 554 155 583V499C345 477 509 483 509 653C509 746 480 813 316 813C181 813 94 774 41 743ZM342 381V663H265V406ZM245 303C215 303 191 319 191 342C191 364 215 380 245 380C275 380 299 364 299 342C299 319 275 303 245 303ZM89 29V-49H911V29ZM482 375 555 338C623 453 684 646 724 813L645 827C608 664 546 481 482 375ZM800 68 876 99C846 195 798 329 751 432L678 403C723 298 772 161 800 68ZM612 527H963V607H612Z" transform="translate(0, 880) scale(1,-1)" /></svg>