<svg xmlns="http://www.w3.org/2000/svg" width="1000" height="1000"><path d="M282 776 240 712C415 653 637 558 769 467L832 527C694 621 463 718 282 776ZM890 372V448C684 425 410 430 277 453C198 467 168 500 163 582L87 574C90 467 140 404 250 381C387 352 680 344 890 372ZM261 550 307 480C514 540 686 623 826 793L753 836C624 680 452 599 261 550ZM237 83V336H158V83C158 -33 206 -58 348 -58H515C617 -58 648 0 665 123L582 134C574 36 558 18 510 18H348C257 18 237 31 237 83ZM875 39 931 101C825 176 704 250 562 324L515 265C654 191 774 114 875 39Z" transform="translate(0, 880) scale(1,-1)" /></svg>