<svg xmlns="http://www.w3.org/2000/svg" width="1000" height="1000"><path d="M51 43 368 130 348 207 30 120ZM139 130 233 111C261 148 287 225 287 314C287 398 247 437 183 437C130 437 81 398 81 329C81 255 124 219 183 219C194 219 205 221 213 225C196 175 176 149 139 130ZM27 732 64 667C103 700 153 730 223 730C279 730 301 698 301 644C301 559 231 540 100 570V485C246 463 379 485 379 644C379 739 327 809 223 809C126 809 65 763 27 732ZM253 369V654H176V396ZM183 288C162 288 147 305 147 329C147 352 162 370 183 370C206 370 221 352 221 329C221 305 206 288 183 288ZM693 378H613C613 193 527 133 338 101L372 24C572 62 693 160 693 378ZM364 214H940V292H364ZM924 19 966 92C907 135 806 192 714 232L676 167C766 124 870 62 924 19ZM346 497 371 417C466 456 601 481 735 481C837 481 862 464 862 441C862 423 856 404 846 384L920 355C931 382 940 410 940 446C940 524 880 559 735 559C566 559 443 535 346 497ZM903 657H401V579H903ZM692 621V850H612V621ZM358 700H946V778H358ZM461 350H843V428H461ZM79 13V-65H921V13Z" transform="translate(0, 880) scale(1,-1)" /></svg>