<svg xmlns="http://www.w3.org/2000/svg" width="1000" height="1000"><path d="M432 587 497 634C473 679 422 744 374 793L312 749C359 701 409 633 432 587ZM588 553H668V829H588ZM745 630 807 587C850 629 905 697 946 755L875 799C844 744 788 675 745 630ZM325 474 365 412C441 481 533 520 653 520C773 520 813 479 813 417C813 308 666 301 443 333V253C692 228 892 233 892 417C892 520 838 600 653 600C517 600 401 546 325 474ZM573 -77C629 -75 668 -46 668 15V424H588V27C588 12 578 2 561 1C520 0 481 4 433 20V-65C479 -74 522 -77 573 -77ZM278 52 351 17C409 70 452 142 477 206L396 231C377 173 336 103 278 52ZM894 10 972 40C953 93 902 171 832 235L759 204C823 141 877 61 894 10ZM41 683H303V761H41ZM211 724H133V-62H211Z" transform="translate(0, 880) scale(1,-1)" /></svg>