<svg xmlns="http://www.w3.org/2000/svg" width="1000" height="1000"><path d="M286 618 345 677C295 722 239 765 175 807L120 749C183 708 238 663 286 618ZM183 -51C317 -51 382 78 382 198C382 296 324 393 188 435L160 360C265 324 300 263 300 198C300 113 258 31 183 31C152 31 133 46 133 84C133 157 215 216 389 311L348 380C174 287 51 194 51 84C51 -9 106 -51 183 -51ZM182 407 249 371C310 430 372 506 407 564L341 611L327 603H74V524H276C252 483 219 442 182 407ZM399 477H935V559H399ZM443 702H892V784H443ZM523 312 593 267 607 281H697C664 225 619 159 566 98L638 60C701 134 778 241 827 316L756 371L741 361H636C681 462 707 582 729 724L649 732C626 581 592 440 523 312ZM900 -73 936 7C768 71 603 119 444 154L403 78C573 39 738 -9 900 -73Z" transform="translate(0, 880) scale(1,-1)" /></svg>