<svg xmlns="http://www.w3.org/2000/svg" width="1000" height="1000"><path d="M325 527 327 448C509 450 574 504 574 643C574 767 471 813 344 813C216 813 140 782 54 730L91 656C157 698 242 733 344 733C444 733 495 687 495 640C495 581 473 526 325 527ZM668 137 708 72C875 178 930 221 930 312C930 389 872 450 720 490C819 556 895 629 968 749L896 793L886 778H599V700H837C771 611 708 551 608 498L615 433C805 390 850 344 850 312C850 271 812 227 668 137ZM906 -91 960 -28C885 30 726 124 606 181L565 114C681 58 834 -32 906 -91ZM514 197 487 277C383 245 320 163 320 66C320 -17 366 -59 428 -59C505 -59 564 9 564 139C564 302 484 373 344 373C171 373 40 231 40 82C40 11 74 -50 145 -50C290 -50 358 266 365 660L286 662C282 331 226 30 145 30C129 30 119 53 119 82C119 159 183 293 344 293C459 293 485 218 485 139C485 59 459 21 428 21C409 21 399 39 399 66C399 114 438 169 514 197ZM56 504 98 435 241 541 198 603Z" transform="translate(0, 880) scale(1,-1)" /></svg>