<svg xmlns="http://www.w3.org/2000/svg" width="1000" height="1000"><path d="M32 463 107 443C139 539 166 672 180 779L103 785C93 678 67 550 32 463ZM100 586H340V663H100ZM70 23 126 -14C220 51 302 145 302 229C302 305 261 351 211 351C146 351 93 314 93 245C93 173 148 135 203 146C178 110 133 61 70 23ZM197 203C176 203 157 220 157 245C157 271 177 285 197 285C217 285 236 269 236 244C236 220 217 203 197 203ZM284 267V479H207V324ZM131 504V428H335V504ZM44 23 72 -51 343 53 317 125ZM378 9 410 -71C656 7 778 301 858 699L780 716C703 332 586 63 378 9ZM325 153 402 127C438 220 464 356 477 470L401 479C389 369 361 239 325 153ZM876 -71 909 9C733 43 582 316 540 615L462 604C509 248 697 -31 876 -71ZM665 567 734 611C694 681 622 779 567 836L505 789C560 732 626 637 665 567ZM894 130 971 156C952 247 911 385 869 488L797 465C837 361 877 227 894 130Z" transform="translate(0, 880) scale(1,-1)" /></svg>