<svg xmlns="http://www.w3.org/2000/svg" width="1000" height="1000"><path d="M28 480 104 460C139 550 167 677 182 778L105 784C93 682 64 562 28 480ZM100 594H372V671H100ZM86 66 150 31C249 93 325 165 325 273C325 339 276 377 216 377C156 377 106 339 106 273C106 207 153 162 220 173C195 140 150 102 86 66ZM216 234C193 234 174 250 174 273C174 296 193 312 216 312C238 312 258 296 258 273C258 250 238 234 216 234ZM304 295V495H226V350ZM129 521V444H368V521ZM42 67 70 -9 377 89 350 164ZM404 58 432 -26 460 -12 894 32 885 113 546 79C663 244 774 460 918 767L836 802C697 481 583 253 495 138C461 94 423 66 404 58ZM556 468 631 503C595 583 536 689 479 780L408 736C468 647 520 554 556 468ZM895 -73 971 -41C939 57 890 177 832 288L761 256C819 145 862 23 895 -73Z" transform="translate(0, 880) scale(1,-1)" /></svg>