<svg xmlns="http://www.w3.org/2000/svg" width="1000" height="1000"><path d="M217 -62C278 -62 303 -25 303 36V510H224V46C224 25 216 16 200 16C177 16 147 23 116 37V-50C144 -57 175 -62 217 -62ZM57 123 459 218 441 293 37 203ZM257 416 281 339C378 366 454 435 454 541C454 649 390 691 314 691C264 691 222 671 195 648C228 701 264 749 311 796L230 835C147 716 98 638 78 565C61 502 58 433 84 353L165 369C141 435 143 493 158 546C182 582 236 612 285 612C341 612 373 588 373 541C373 480 331 436 257 416ZM650 -83C817 -83 944 -5 944 122C944 229 871 291 724 291C678 291 637 285 600 276C629 318 668 400 692 469L610 486C591 415 550 316 507 259L488 249L523 176C574 198 634 213 709 213C809 213 860 202 860 122C860 21 741 -5 650 -5C584 -5 555 5 555 23C555 41 577 56 607 56C656 56 690 35 699 -37L770 -24C756 66 702 124 607 124C532 124 480 73 480 23C480 -40 532 -83 650 -83ZM513 579 540 505C591 526 661 546 734 546C811 546 840 531 840 486C840 420 797 380 590 409V334C862 300 922 388 922 486C922 579 854 624 734 624C647 624 567 601 513 579ZM628 606 693 566C759 629 814 691 845 737L791 780L768 766H540V687H707C688 661 660 633 628 606ZM374 573 439 517C507 585 588 712 626 829L545 847C508 730 435 626 374 573Z" transform="translate(0, 880) scale(1,-1)" /></svg>