<svg xmlns="http://www.w3.org/2000/svg" width="1000" height="1000"><path d="M55 667H313V746H55ZM223 708H145V-43H223ZM515 271 589 241C671 304 732 394 732 490C732 560 702 623 609 623C524 623 487 565 487 503C487 427 534 377 636 377C802 377 908 463 908 612C908 735 842 823 659 823C506 823 405 772 329 717L377 650C447 698 542 742 659 742C778 742 828 693 828 612C828 510 756 456 636 456C586 456 565 475 565 503C565 528 580 543 609 543C637 543 654 525 654 490C654 408 598 332 515 271ZM339 209H890V289H339ZM308 43V-37H922V43ZM575 244V19H654V244Z" transform="translate(0, 880) scale(1,-1)" /></svg>