<svg xmlns="http://www.w3.org/2000/svg" width="1000" height="1000"><path d="M87 708V627H923V708ZM341 494 422 520C398 608 346 746 300 841L223 813C269 721 318 583 341 494ZM584 520 656 493C698 574 754 704 795 813L715 841C683 738 627 605 584 520ZM913 526H131V322C131 216 123 76 34 -28L104 -75C197 39 209 208 209 322V450H913ZM337 244 402 274C388 315 351 373 318 415L255 388C285 346 319 284 337 244ZM548 265 618 287C608 333 579 391 549 441L482 419C510 371 537 309 548 265ZM720 265 783 249C818 293 855 352 881 403L810 431C789 380 753 314 720 265ZM272 118 314 52C513 89 702 134 854 180L811 242C661 197 475 155 272 118ZM377 -76H774C875 -76 895 -33 907 77L835 86C828 7 820 -4 768 -4H396C345 -4 331 7 331 47V243H253V48C253 -53 278 -76 377 -76Z" transform="translate(0, 880) scale(1,-1)" /></svg>