<svg xmlns="http://www.w3.org/2000/svg" width="1000" height="1000"><path d="M125 645 142 576C173 598 202 609 240 609C287 609 302 549 302 479C302 398 281 347 222 335V254C340 263 379 356 379 479C379 610 341 688 240 688C192 688 154 671 125 645ZM180 75H257V473H180ZM43 33 79 -41 377 119 341 193ZM26 336 101 298C141 439 173 620 188 803L111 811C95 630 62 451 26 336ZM430 308 627 424 585 489 387 379ZM492 369V820H413V369ZM451 675V595H613V675ZM614 383 671 322C782 402 927 541 927 689C927 785 883 825 795 825C723 825 666 806 611 769L641 698C690 732 735 744 795 744C831 744 847 724 847 689C847 571 717 448 614 383ZM886 317 948 372C853 495 781 565 693 625L640 574C726 511 793 443 886 317ZM699 2V366H621V2ZM432 163H888V243H432ZM927 34H393V-46H927Z" transform="translate(0, 880) scale(1,-1)" /></svg>