<svg xmlns="http://www.w3.org/2000/svg" width="1000" height="1000"><path d="M43 481 118 458C151 560 178 703 193 817L116 824C105 709 78 573 43 481ZM112 614H364V692H112ZM88 12 144 -28C240 42 322 145 322 231C322 309 281 356 230 356C164 356 110 318 110 247C110 174 167 132 224 146C199 105 153 52 88 12ZM216 200C192 200 171 219 171 247C171 276 193 293 217 293C239 293 259 274 259 247C259 219 239 200 216 200ZM304 270V497H226V328ZM142 522V445H360V522ZM56 7 83 -67 367 44 342 117ZM423 306 622 422 588 480 388 370ZM486 366V817H411V366ZM447 668V596H611V668ZM617 380 668 319C779 400 925 531 925 679C925 777 880 820 794 820C722 820 664 801 609 765L639 698C689 732 734 744 794 744C832 744 850 721 850 679C850 561 721 445 617 380ZM888 314 947 368C851 491 778 561 690 621L639 571C727 508 793 440 888 314ZM697 -1V363H620V-1ZM428 162H888V237H428ZM928 27H389V-46H928Z" transform="translate(0, 880) scale(1,-1)" /></svg>