<svg xmlns="http://www.w3.org/2000/svg" width="1000" height="1000"><path d="M23 468 97 451C128 538 154 660 168 757L92 762C82 664 56 547 23 468ZM89 577H316V654H89ZM53 65 117 31C209 90 284 158 284 268C284 333 234 371 180 371C127 371 77 333 77 268C77 205 120 159 182 170C158 140 112 99 53 65ZM180 230C160 230 141 246 141 268C141 291 159 307 180 307C202 307 219 291 219 268C219 246 201 230 180 230ZM266 290V483H188V345ZM120 509V434H312V509ZM31 71 63 -5 320 90 290 165ZM604 -71C715 -71 761 9 761 168C761 294 687 434 594 511L535 458C622 379 681 267 681 168C681 60 657 7 595 7C556 7 522 14 486 27V-59C518 -67 551 -71 604 -71ZM318 98 377 50C442 114 501 197 544 283L471 319C435 241 378 161 318 98ZM438 417 501 368C634 498 684 628 732 820L652 839C612 648 558 533 438 417ZM896 52 971 84C947 183 906 289 862 370L791 342C834 259 873 150 896 52ZM349 588H942V668H349Z" transform="translate(0, 880) scale(1,-1)" /></svg>