<svg xmlns="http://www.w3.org/2000/svg" width="1000" height="1000"><path d="M250 692 311 633C391 677 470 727 535 789L470 840C411 784 335 731 250 692ZM220 462V835H140V469C140 452 129 445 115 442L134 365L517 446L500 521ZM24 573H583V651H24ZM99 -5 133 -80C411 5 675 95 917 195L875 261C639 165 370 74 99 -5ZM156 -34H236V343H156ZM917 -76 949 -2C686 53 552 113 535 410H453C462 107 615 -20 917 -76ZM326 230 373 160C524 204 680 258 810 311L758 376C637 326 493 275 326 230ZM719 828V473H799V828ZM592 500V420H953V500Z" transform="translate(0, 880) scale(1,-1)" /></svg>