<svg xmlns="http://www.w3.org/2000/svg" width="1000" height="1000"><path d="M45 469 120 448C153 546 180 683 194 792L118 799C107 688 80 557 45 469ZM114 596H361V673H114ZM88 18 146 -20C241 47 322 129 322 244C322 312 274 352 216 352C158 352 110 312 110 244C110 177 154 129 222 140C197 102 151 57 88 18ZM216 203C194 203 176 220 176 244C176 269 194 285 216 285C237 285 256 269 256 244C256 220 237 203 216 203ZM303 267V485H225V324ZM144 510V434H357V510ZM56 17 86 -59 366 47 337 122ZM372 697 415 628C496 692 579 731 703 731C820 731 858 697 858 629C858 540 810 501 509 536V455C827 425 938 471 938 629C938 732 882 811 703 811C554 811 455 763 372 697ZM362 112H936V192H362ZM584 -72C658 -72 699 -35 699 48V633H620V65C620 25 608 6 576 6C545 6 510 13 474 27V-59C506 -68 541 -72 584 -72ZM385 266H913V346H385Z" transform="translate(0, 880) scale(1,-1)" /></svg>