<svg xmlns="http://www.w3.org/2000/svg" width="1000" height="1000"><path d="M87 683H913V760H561L507 847L429 831L473 760H87ZM112 458 494 493 482 571 100 536ZM240 521 311 482C375 516 432 552 483 596L419 658L397 650H116V573H338C311 553 278 538 240 521ZM674 517H754V658H674ZM894 552H534V473H894ZM473 -92C714 -92 904 -50 904 55C904 138 800 158 589 158C519 158 444 154 384 148C421 173 471 220 505 262L416 272C388 230 334 171 279 137L251 130L285 55C362 69 437 80 569 80C734 80 816 74 816 55C816 -5 604 -20 473 -20C366 -20 316 -17 316 -13C316 -7 356 -2 411 -2C492 -2 548 -9 562 -40L645 -32C625 22 548 56 412 56C304 56 230 32 230 -13C230 -65 305 -92 473 -92ZM287 335 308 266C386 279 493 291 603 291C732 291 778 288 778 272C778 233 712 221 397 239V167C778 146 865 182 865 272C865 345 773 369 603 369C479 369 365 352 287 335ZM469 339 542 306C632 341 707 377 749 403L696 460L673 450H326V373H553C532 362 502 351 469 339ZM109 324 166 269C262 310 379 385 433 455L355 486C301 417 197 355 109 324Z" transform="translate(0, 880) scale(1,-1)" /></svg>