<svg xmlns="http://www.w3.org/2000/svg" width="1000" height="1000"><path d="M125 623 143 553C173 574 203 583 241 583C288 583 304 529 304 464C304 387 282 340 223 329V249C341 257 381 346 381 464C381 588 343 662 242 662C193 662 155 647 125 623ZM181 83H258V456H181ZM44 47 78 -27 379 123 344 197ZM26 328 101 291C141 423 173 593 189 764L112 773C95 603 62 435 26 328ZM780 501C763 456 743 414 715 369L760 302C835 323 868 297 868 245C868 170 757 108 624 80L659 7C818 54 949 107 949 245C949 358 884 395 809 386L891 561L819 599L805 587C425 533 326 393 326 309C326 249 364 199 433 199C569 199 697 473 813 779L745 813L727 799H393V719H704C625 499 504 279 435 279C415 279 405 290 405 307C405 345 466 454 780 501ZM647 -88 725 -58C706 11 668 106 632 179L559 150C594 81 627 -15 647 -88Z" transform="translate(0, 880) scale(1,-1)" /></svg>