<svg xmlns="http://www.w3.org/2000/svg" width="1000" height="1000"><path d="M126 55 188 8C292 91 378 255 378 355C378 444 333 499 276 499C202 499 143 455 143 373C143 289 199 242 269 253C253 195 203 116 126 55ZM264 321C236 321 213 339 213 373C213 407 237 427 264 427C289 427 311 405 311 378C311 339 290 321 264 321ZM352 400V735H272V467ZM84 761V681H434V761ZM64 43 85 -35 444 80 422 158ZM580 137 630 72C841 178 911 221 911 312C911 389 834 450 637 489C766 555 867 623 957 746L888 794L875 779H491V699H809C724 610 634 549 503 498L512 433C762 390 827 344 827 312C827 271 771 227 580 137ZM894 -93 948 -27C853 33 652 130 500 190L465 116C611 59 803 -33 894 -93Z" transform="translate(0, 880) scale(1,-1)" /></svg>