<svg xmlns="http://www.w3.org/2000/svg" width="1000" height="1000"><path d="M45 471 121 450C155 543 184 673 199 777L122 783C110 679 81 555 45 471ZM117 589H387V666H117ZM102 44 159 8C257 72 340 159 340 242C340 317 298 363 245 363C178 363 122 326 122 257C122 187 179 148 236 160C211 126 166 81 102 44ZM231 217C208 217 189 233 189 257C189 283 209 297 231 297C252 297 271 281 271 257C271 233 252 217 231 217ZM319 280V485H241V336ZM146 511V435H383V511ZM60 43 86 -31 391 70 366 143ZM355 -56H924V24H355ZM530 20H664C717 64 737 151 737 228C737 320 694 363 622 363C564 363 508 320 508 245C508 166 558 125 622 125C637 125 651 128 663 136C642 80 600 38 530 20ZM357 709 396 639C461 683 561 732 694 732C813 732 850 689 850 624C850 516 706 504 486 538V452C732 427 930 440 930 624C930 730 873 812 694 812C528 812 422 753 357 709ZM704 292V630H627V322ZM622 195C597 195 578 217 578 245C578 273 597 295 622 295C648 295 667 273 667 245C667 217 648 195 622 195Z" transform="translate(0, 880) scale(1,-1)" /></svg>