<svg xmlns="http://www.w3.org/2000/svg" width="1000" height="1000"><path d="M235 598 294 654C249 696 200 736 144 776L89 721C145 682 192 640 235 598ZM150 -33C265 -33 323 87 323 204C323 300 271 389 153 429L127 353C214 320 242 263 242 204C242 124 208 49 150 49C126 49 112 62 112 98C112 164 178 218 329 307L292 378C141 291 31 205 31 98C31 7 82 -33 150 -33ZM147 400 210 366C264 422 318 495 348 550L283 593L271 585H54V507H221C201 469 176 432 147 400ZM255 53 310 -11C524 132 728 336 834 473L760 523L743 503H560C680 589 782 675 883 777L814 828C718 722 591 612 430 499C419 492 404 483 388 479L433 405L466 423H686C621 346 447 175 255 53ZM625 -65C670 -65 710 -56 758 -24V60C710 29 676 13 643 13C625 13 617 17 617 48V259H538V31C538 -37 565 -65 625 -65ZM905 -5 966 54C890 127 811 201 725 271L669 222C752 149 830 73 905 -5ZM501 614 564 667C520 718 460 775 403 820L341 769C402 722 459 668 501 614Z" transform="translate(0, 880) scale(1,-1)" /></svg>