<svg xmlns="http://www.w3.org/2000/svg" width="1000" height="1000"><path d="M28 480 104 460C139 550 167 677 182 778L105 784C93 682 64 562 28 480ZM100 594H372V671H100ZM86 66 143 31C241 93 325 175 325 257C325 332 282 377 230 377C162 377 106 341 106 273C106 203 163 166 220 177C195 144 150 102 86 66ZM215 233C192 233 173 249 173 273C173 298 193 312 215 312C236 312 256 296 256 273C256 249 236 233 215 233ZM304 295V495H226V350ZM129 521V444H368V521ZM44 66 69 -8 376 90 352 163ZM404 58 432 -26 460 -12 894 32 885 113 546 79C663 244 774 460 918 767L836 802C697 481 583 253 495 138C461 94 423 66 404 58ZM556 468 631 503C595 583 536 689 479 780L408 736C468 647 520 554 556 468ZM895 -73 971 -41C939 57 890 177 832 288L761 256C819 145 862 23 895 -73Z" transform="translate(0, 880) scale(1,-1)" /></svg>