<svg xmlns="http://www.w3.org/2000/svg" width="1000" height="1000"><path d="M327 622 381 679C325 725 262 769 191 812L142 757C212 714 273 668 327 622ZM205 -64C357 -64 430 66 430 188C430 287 365 383 210 426L180 361C304 324 347 255 347 188C347 100 297 12 205 12C167 12 142 28 142 70C142 146 241 215 439 313L392 373C195 278 57 182 57 70C57 -22 117 -64 205 -64ZM214 403 280 371C347 430 417 507 455 565L392 609L377 600H81V528H330C301 485 259 439 214 403ZM595 -82C731 -82 816 118 868 411L790 428C750 175 666 -3 595 -3C564 -3 539 57 539 141C539 242 564 299 615 299C684 299 782 56 895 -80L952 -16C841 111 741 378 615 378C524 378 465 310 465 141C465 3 510 -82 595 -82ZM467 495 514 423C656 485 792 584 905 785L840 831C731 630 605 554 467 495ZM869 422 925 492C814 619 647 740 533 797L481 733C597 672 761 552 869 422Z" transform="translate(0, 880) scale(1,-1)" /></svg>