<svg xmlns="http://www.w3.org/2000/svg" width="1000" height="1000"><path d="M400 192 512 165C603 211 645 304 645 392C645 477 594 527 500 527C420 527 355 484 355 408C355 328 423 290 500 290C513 290 525 291 540 294C520 249 471 208 400 192ZM168 125H906V204H168ZM500 359C464 359 433 378 433 408C433 439 464 455 500 455C536 455 567 439 567 408C567 378 536 359 500 359ZM202 499 269 459C328 519 368 586 398 652L318 680C297 620 261 558 202 499ZM599 441V762H519V494ZM194 722H880V801H194ZM807 459 879 500C852 561 810 620 747 686L685 647C745 579 782 519 807 459ZM928 -56 952 27C654 9 427 10 283 45C196 66 135 115 109 190L31 161C66 58 144 -5 253 -30C403 -64 625 -74 928 -56Z" transform="translate(0, 880) scale(1,-1)" /></svg>