<svg xmlns="http://www.w3.org/2000/svg" width="1000" height="1000"><path d="M476 500C460 456 440 414 413 369L458 302C531 322 563 297 563 246C563 171 455 109 324 80L359 7C516 54 644 108 644 246C644 359 580 395 507 386L587 561L516 599L501 586C129 531 31 393 31 309C31 249 69 200 138 200C273 200 397 473 511 780L443 813L425 799H97V719H403C325 498 208 280 140 280C120 280 111 290 111 307C111 345 170 453 476 500ZM347 -88 424 -59C405 10 368 105 334 178L260 150C294 81 327 -15 347 -88ZM718 150 752 85C889 188 934 231 934 321C934 398 889 457 767 496C845 560 903 635 966 751L891 793L884 778H661V700H842C790 615 746 559 668 505L674 438C826 397 856 352 856 321C856 281 830 238 718 150ZM906 -73 959 -12C897 43 766 133 666 188L622 125C719 71 846 -17 906 -73Z" transform="translate(0, 880) scale(1,-1)" /></svg>