<svg xmlns="http://www.w3.org/2000/svg" width="1000" height="1000"><path d="M37 637H295V715H37ZM205 678H127V-62H205ZM504 8 575 -37C660 35 693 134 693 185C693 260 641 306 550 306C471 306 416 263 416 190C416 116 468 76 575 76C758 76 904 123 904 283C904 406 822 467 666 467C642 467 622 466 600 464C710 521 813 573 896 619L848 687L819 675H312V595H703C615 542 526 490 428 440C387 419 336 402 294 382L336 309C440 357 520 387 663 387C761 387 825 361 825 283C825 184 712 151 575 151C522 151 495 165 495 190C495 215 517 231 550 231C587 231 614 215 614 185C614 136 575 58 504 8ZM723 671 761 742C668 782 583 816 501 842L457 775C545 746 631 712 723 671ZM953 28H274V-51H953Z" transform="translate(0, 880) scale(1,-1)" /></svg>