<svg xmlns="http://www.w3.org/2000/svg" width="1000" height="1000"><path d="M137 60 188 14C292 95 376 255 376 355C376 444 331 499 276 499C203 499 145 455 145 373C145 289 206 237 280 256C264 200 215 120 137 60ZM264 317C234 317 209 337 209 373C209 409 235 431 265 431C291 431 315 407 315 378C315 337 292 317 264 317ZM350 400V735H274V467ZM84 761V680H434V761ZM63 42 85 -33 444 95 421 170ZM580 137 630 72C841 178 911 221 911 312C911 389 834 450 637 489C766 555 864 628 954 751L888 794L875 779H491V701H809C724 612 634 549 503 498L512 433C762 390 827 344 827 312C827 271 771 227 580 137ZM896 -91 946 -29C851 31 650 128 498 188L467 118C613 61 805 -31 896 -91Z" transform="translate(0, 880) scale(1,-1)" /></svg>