<svg xmlns="http://www.w3.org/2000/svg" width="1000" height="1000"><path d="M239 523 287 584C246 613 199 643 146 670L102 611C155 580 201 553 239 523ZM157 -57C302 -57 364 59 364 172C364 260 306 347 156 386L126 313C244 279 283 232 283 172C283 94 239 22 157 22C124 22 103 39 103 68C103 133 186 187 369 274L328 339C146 254 19 169 19 68C19 -17 76 -57 157 -57ZM159 361 215 318C281 369 347 435 384 486L329 532L315 523H40V444H247C223 414 197 389 159 361ZM162 611 224 567C281 617 345 683 387 736L324 781L308 772H49V694H247C224 664 196 638 162 611ZM505 631H882V711H505ZM375 466 448 428C508 530 554 674 580 815L503 827C476 686 430 551 375 466ZM801 -53H876C951 -53 971 15 978 209L900 215C896 50 887 27 856 27H806C784 27 776 39 776 74V270C776 384 702 405 623 383V306C675 321 697 297 697 231V73C697 -21 717 -53 801 -53ZM787 641 709 659C647 456 556 226 369 -15L435 -61C624 189 723 436 787 641Z" transform="translate(0, 880) scale(1,-1)" /></svg>