<svg xmlns="http://www.w3.org/2000/svg" width="1000" height="1000"><path d="M39 665H476V745H39ZM330 63V704H252V67C252 45 245 37 234 37C207 37 179 46 149 59V-29C188 -38 226 -42 255 -41C306 -40 330 -18 330 63ZM612 128 660 63C858 165 922 208 922 298C922 374 853 434 669 471C788 535 881 603 965 722L896 769L884 755H529V675H820C742 590 661 531 541 481L549 415C781 373 840 329 840 298C840 258 789 215 612 128ZM904 -98 957 -33C868 25 680 119 538 177L502 105C639 50 819 -40 904 -98Z" transform="translate(0, 880) scale(1,-1)" /></svg>