<svg xmlns="http://www.w3.org/2000/svg" width="1000" height="1000"><path d="M801 579 862 523C905 562 923 605 923 655C923 759 861 829 636 829C415 829 210 753 70 678L116 611C244 677 443 748 636 748C780 748 843 717 843 655C843 625 829 602 801 579ZM268 468H807V547H268ZM98 354 170 311C255 390 321 504 359 614L280 634C242 524 176 420 98 354ZM679 -62H810C893 -62 919 -9 929 151L849 156C843 35 830 17 794 17H676C648 17 638 26 638 53V206C638 296 546 311 448 295V218C526 229 559 210 559 159V36C559 -37 583 -62 679 -62ZM654 481 580 511C490 352 359 180 92 -13L152 -70C423 124 563 321 654 481Z" transform="translate(0, 880) scale(1,-1)" /></svg>