<svg xmlns="http://www.w3.org/2000/svg" width="1000" height="1000"><path d="M31 478 106 457C138 557 165 697 179 809L102 815C92 702 65 569 31 478ZM99 609H336V686H99ZM68 19 123 -20C216 48 299 149 299 234C299 311 258 358 208 358C144 358 90 320 90 250C90 178 146 138 201 150C177 111 130 58 68 19ZM194 207C173 207 154 224 154 250C154 278 174 292 194 292C214 292 233 275 233 249C233 225 214 207 194 207ZM281 273V495H204V330ZM130 520V444H331V520ZM43 16 71 -57 338 51 312 124ZM737 -64C879 -64 951 64 951 257C951 421 877 512 772 512C756 512 745 510 731 508C786 570 854 651 917 737L845 793L831 777H604V698H787C741 629 695 557 649 497C636 482 619 473 596 462L622 391C663 414 710 431 768 431C830 431 872 367 872 257C872 106 814 15 733 15C684 15 658 61 658 121C658 167 678 193 702 193C738 193 763 157 770 -1L838 16C828 195 784 271 702 271C635 271 586 204 586 116C586 6 642 -64 737 -64ZM489 823V-75H567V823ZM526 211 500 284 434 246V668H356V258C356 223 346 204 336 195L370 122Z" transform="translate(0, 880) scale(1,-1)" /></svg>