<svg xmlns="http://www.w3.org/2000/svg" width="1000" height="1000"><path d="M186 610 211 542C274 584 319 605 390 605C458 605 505 564 505 492C505 410 431 358 339 346V264C487 284 580 368 580 492C580 625 508 684 394 684C299 684 239 652 186 610ZM302 141H378V467H302ZM80 327 148 286C204 430 247 614 269 800L198 811C175 626 129 444 80 327ZM845 415 906 469C855 544 782 623 706 695L653 641C735 565 793 493 845 415ZM712 307C510 307 238 154 81 16L134 -46C288 89 564 226 712 226C808 226 835 200 835 144C835 73 756 19 612 -1L657 -78C828 -26 912 36 912 144C912 245 857 307 712 307Z" transform="translate(0, 880) scale(1,-1)" /></svg>