<svg xmlns="http://www.w3.org/2000/svg" width="1000" height="1000"><path d="M297 648 221 663C179 444 105 245 32 97L103 60C175 213 253 431 297 648ZM265 49C245 49 235 60 235 86C235 126 267 213 353 311L299 352C205 253 157 152 157 86C157 16 201 -26 265 -26C355 -26 397 44 397 197C397 351 347 413 272 413C224 413 188 395 162 361L178 291C207 321 241 337 271 337C304 337 318 287 318 197C318 81 293 49 265 49ZM58 625H420V703H58ZM485 640 516 577C598 653 684 691 757 691C808 691 831 667 831 625C831 558 746 507 575 477L589 397C815 435 911 533 911 625C911 723 855 771 757 771C655 771 564 720 485 640ZM636 -78C689 -78 719 -45 719 23V464H641V37C641 17 631 1 616 1C582 0 548 9 514 27V-61C554 -74 587 -78 636 -78ZM941 189 958 272C820 304 634 305 389 271V195C630 226 813 219 941 189ZM390 462 458 419C526 538 576 681 604 829L525 841C499 696 448 554 390 462Z" transform="translate(0, 880) scale(1,-1)" /></svg>