<svg xmlns="http://www.w3.org/2000/svg" width="1000" height="1000"><path d="M807 571 869 526C909 564 923 598 923 644C923 746 860 813 634 813C414 813 210 746 70 679L113 610C240 669 441 731 634 731C779 731 843 703 843 644C843 616 833 594 807 571ZM124 464H877V543H124ZM618 -78C698 -78 735 -37 735 43L736 504H657L655 58C655 19 644 -2 607 -2C572 -2 533 4 494 16V-64C529 -74 569 -78 618 -78ZM910 202 928 283C722 301 439 301 86 282V207C434 224 719 219 910 202ZM351 504H272V-70H351Z" transform="translate(0, 880) scale(1,-1)" /></svg>