<svg xmlns="http://www.w3.org/2000/svg" width="1000" height="1000"><path d="M12 525 88 497C116 578 139 693 151 784L72 794C60 701 38 595 12 525ZM85 619H282V698H85ZM286 413C286 495 236 537 138 562L113 485C181 469 208 444 208 413C208 377 189 346 156 318L215 262C258 303 286 340 286 413ZM83 31H161V373H83ZM261 146 65 56 97 -17 291 73ZM305 -56H958V23H305ZM515 9H655C711 40 733 101 733 155C733 220 700 256 615 256C544 256 497 220 497 167C497 111 538 77 615 77C628 77 640 78 650 84C631 50 589 24 515 9ZM311 499 341 429C421 464 538 498 697 498C839 498 882 471 882 433C882 374 711 360 458 384V301C803 284 963 292 963 433C963 519 903 577 697 577C507 577 391 535 311 499ZM700 200V438H623V221ZM615 135C589 135 568 149 568 167C568 185 589 199 615 199C642 199 662 185 662 167C662 149 642 135 615 135ZM285 743V664H980V743ZM472 563 553 585C536 654 503 760 472 836L392 815C422 741 455 632 472 563ZM703 582 780 561C809 627 846 730 872 815L790 836C769 753 733 649 703 582Z" transform="translate(0, 880) scale(1,-1)" /></svg>