<svg xmlns="http://www.w3.org/2000/svg" width="1000" height="1000"><path d="M385 685 461 711C446 744 419 798 389 834L316 808C344 771 369 724 385 685ZM198 630H923V705H198ZM657 694 725 670C761 717 790 766 812 813L733 837C716 793 691 740 657 694ZM159 212 200 143C233 160 263 183 302 212C316 222 340 223 353 221C367 216 378 198 393 146L520 232L495 275L418 236C414 257 402 273 379 280C410 320 439 364 466 412L412 446C340 339 250 255 159 212ZM541 55C649 55 694 147 692 256C692 358 627 489 528 593L470 541C544 472 614 346 613 255C612 191 596 128 538 128C501 128 466 134 430 148V66C462 58 499 55 541 55ZM912 122 962 186C852 249 704 312 523 378L499 311C670 249 809 189 912 122ZM605 402 632 340C730 371 802 394 886 440L839 501C764 459 703 432 605 402ZM603 658 527 687C479 564 365 515 190 455L225 387C414 456 549 517 603 658ZM928 -54 952 27C654 4 427 5 283 48C196 74 135 144 109 238L31 216C66 88 144 10 253 -21C403 -64 625 -76 928 -54Z" transform="translate(0, 880) scale(1,-1)" /></svg>