<svg xmlns="http://www.w3.org/2000/svg" width="1000" height="1000"><path d="M780 517 834 450C888 489 922 539 922 602C922 712 864 797 641 797C416 797 208 688 69 584L127 523C256 615 448 715 641 715C783 715 840 677 840 602C840 565 815 540 780 517ZM816 -56 896 -11C832 75 742 169 664 240L596 190C674 121 756 31 816 -56ZM101 8 164 -49C261 26 338 115 386 193L309 235C268 160 189 74 101 8ZM657 314 709 386C622 431 463 488 344 524L303 451C428 416 568 361 657 314Z" transform="translate(0, 880) scale(1,-1)" /></svg>