<svg xmlns="http://www.w3.org/2000/svg" width="1000" height="1000"><path d="M160 492H903V571H160ZM664 552 705 622C599 661 506 684 389 703L361 631C481 611 569 587 664 552ZM523 658 609 613C686 654 794 717 852 760L806 818L789 813H226V734H661C616 706 573 683 523 658ZM928 -56 952 28C654 7 427 8 283 47C196 70 135 126 109 209L31 183C66 70 144 0 253 -27C403 -65 625 -76 928 -56ZM568 192 569 270C653 308 731 347 793 396L738 454L721 447H267V369H606C572 346 538 327 494 310V196C494 154 452 143 409 143C355 143 317 155 317 181C317 208 390 230 564 230C700 230 744 211 744 188C744 159 703 135 620 125L654 51C768 71 827 116 827 189C827 267 762 308 564 308C343 308 232 273 232 181C232 102 296 65 407 65C495 65 568 102 568 192Z" transform="translate(0, 880) scale(1,-1)" /></svg>