<svg xmlns="http://www.w3.org/2000/svg" width="1000" height="1000"><path d="M13 461 89 443C123 529 151 650 165 747L88 753C77 655 49 540 13 461ZM84 569H344V646H84ZM64 63 130 29C227 88 301 156 301 263C301 328 251 365 193 365C135 365 85 328 85 263C85 198 131 153 196 164C171 134 126 97 64 63ZM193 225C171 225 152 240 152 263C152 285 171 300 193 300C215 300 234 285 234 263C234 240 215 225 193 225ZM280 285V475H203V339ZM114 502V426H340V502ZM26 67 55 -10 348 84 321 160ZM593 -63C662 -63 681 -27 681 38V530H602V46C602 24 594 16 580 15C561 14 518 25 471 42V-49C512 -58 550 -63 593 -63ZM305 131 371 91C435 181 477 330 500 450L418 463C400 348 360 216 305 131ZM894 83 975 106C951 203 896 356 837 470L760 448C818 331 872 179 894 83ZM739 582 798 642C738 696 619 776 543 809L493 747C570 713 678 639 739 582Z" transform="translate(0, 880) scale(1,-1)" /></svg>