<svg xmlns="http://www.w3.org/2000/svg" width="1000" height="1000"><path d="M728 124 762 59C899 165 945 208 945 299C945 376 899 437 777 477C856 543 915 619 978 738L903 780L895 765H671V687H857C803 598 757 540 679 485L684 420C836 377 867 331 867 299C867 258 841 214 728 124ZM917 -103 970 -42C908 15 776 107 677 163L632 100C729 44 857 -45 917 -103ZM303 -82C366 -82 388 -58 388 2V598H309V14C309 2 305 -5 293 -5C266 -5 238 3 207 16V-70C233 -77 264 -82 303 -82ZM71 244H613V322H71ZM71 396H613V474H71ZM141 651 212 685C198 726 166 785 137 829L68 799C95 756 125 693 141 651ZM27 554H658V632H27ZM333 657 407 686C397 731 370 798 344 849L272 823C297 773 322 704 333 657ZM472 665 542 639C576 692 607 752 630 806L552 833C533 782 501 714 472 665ZM44 28 657 144 640 222 27 106Z" transform="translate(0, 880) scale(1,-1)" /></svg>