<svg xmlns="http://www.w3.org/2000/svg" width="1000" height="1000"><path d="M84 52V-40C118 -53 159 -61 208 -61C328 -61 449 17 449 221C449 433 358 498 120 452V373C326 416 369 361 369 221C369 99 307 18 208 18C159 18 116 32 84 52ZM57 530H454V608H127C149 672 168 741 187 816L110 833C95 753 75 677 53 607L41 596ZM184 448 254 424C309 500 377 615 425 730L368 770L350 763H205V684H316C283 607 237 526 184 448ZM152 350V143H231V350ZM55 147 77 72 352 152 331 227ZM550 444 628 420C681 542 725 682 753 818L671 832C646 700 604 561 550 444ZM831 474 908 440C929 485 939 521 939 563C939 657 880 703 747 703C635 703 527 662 456 623L490 545C553 583 652 618 747 618C833 618 857 590 857 558C857 531 849 508 831 474ZM532 460V380H774V258H570V306H491V83C491 -35 525 -60 617 -60H828C915 -60 944 -2 957 171L879 185C870 35 856 20 805 20H624C581 20 570 33 570 83V178H853V460Z" transform="translate(0, 880) scale(1,-1)" /></svg>