<svg xmlns="http://www.w3.org/2000/svg" width="1000" height="1000"><path d="M24 491 101 470C136 562 165 691 181 793L104 800C91 696 61 574 24 491ZM98 607H380V685H98ZM88 70 146 34C246 97 329 182 329 264C329 340 286 385 233 385C164 385 108 348 108 280C108 210 166 171 224 183C199 150 154 106 88 70ZM219 240C195 240 176 256 176 280C176 305 196 319 219 319C240 319 260 303 260 280C260 256 240 240 219 240ZM308 302V506H229V358ZM127 532V455H376V532ZM41 68 66 -6 384 94 360 167ZM757 -64C906 -64 947 -11 947 311C947 490 914 575 799 575C729 575 676 556 618 518L634 442C688 479 745 495 799 495C860 495 868 440 868 311C868 61 844 14 751 14C720 14 682 21 637 38V-46C675 -59 714 -64 757 -64ZM494 174H701C742 174 774 206 774 265C774 319 752 380 732 419L660 389C681 353 694 312 694 286C694 262 681 254 668 254H524C504 254 496 266 496 285C496 329 520 428 599 627L524 653C441 450 415 347 415 267C415 214 438 174 494 174ZM418 710H941V790H418Z" transform="translate(0, 880) scale(1,-1)" /></svg>