<svg xmlns="http://www.w3.org/2000/svg" width="1000" height="1000"><path d="M928 -56 952 29C654 6 427 7 283 50C196 76 135 142 109 236L31 214C66 86 144 8 253 -23C403 -66 625 -78 928 -56ZM385 684 462 711C448 743 421 798 390 834L316 808C343 770 369 724 385 684ZM197 627H926V707H197ZM657 694 728 670C763 716 793 766 815 813L732 837C716 793 690 739 657 694ZM154 211 203 141C236 158 263 176 301 205C316 215 335 216 348 213C363 208 378 193 393 145L527 221L496 278L422 244C417 262 405 272 383 279C415 318 445 362 472 410L406 445C335 337 246 254 154 211ZM542 53C653 53 695 145 694 255C694 356 628 488 529 592L470 540C545 471 615 345 614 255C613 190 598 130 539 130C502 130 467 136 430 150V65C463 56 500 53 542 53ZM913 118 967 187C857 251 707 313 526 379L499 307C670 245 809 185 913 118ZM605 404 635 336C734 367 806 390 890 436L841 504C765 462 704 435 605 404ZM608 658 527 688C479 565 364 516 188 456L226 383C416 454 553 516 608 658Z" transform="translate(0, 880) scale(1,-1)" /></svg>