<svg xmlns="http://www.w3.org/2000/svg" width="1000" height="1000"><path d="M45 471 121 450C155 543 184 673 199 777L122 783C110 679 81 555 45 471ZM117 589H387V666H117ZM102 44 165 8C262 72 340 148 340 257C340 324 291 363 231 363C171 363 122 324 122 257C122 191 169 145 236 156C211 121 166 81 102 44ZM231 218C209 218 190 234 190 257C190 281 209 297 231 297C254 297 273 281 273 257C273 234 254 218 231 218ZM319 280V485H241V336ZM146 511V435H383V511ZM59 44 87 -32 392 69 365 144ZM355 -56H924V24H355ZM530 20H664C717 64 737 151 737 228C737 320 694 363 622 363C564 363 508 320 508 245C508 166 558 125 622 125C637 125 651 128 663 136C642 80 600 38 530 20ZM357 709 396 639C461 683 561 732 694 732C813 732 850 689 850 624C850 516 706 504 486 538V452C732 427 930 440 930 624C930 730 873 812 694 812C528 812 422 753 357 709ZM704 292V630H627V322ZM622 195C597 195 578 217 578 245C578 273 597 295 622 295C648 295 667 273 667 245C667 217 648 195 622 195Z" transform="translate(0, 880) scale(1,-1)" /></svg>