<svg xmlns="http://www.w3.org/2000/svg" width="1000" height="1000"><path d="M60 747V681H388V747ZM43 516 101 494 113 505 392 555 379 622 171 579 249 691 189 706ZM209 382C256 382 291 400 291 462V834H216V480C216 459 206 446 193 446C166 446 137 451 102 466V393C138 383 172 382 209 382ZM847 381C917 381 936 409 940 527L868 538C866 456 862 442 848 442C794 442 730 630 721 837H644C652 589 727 381 847 381ZM595 463 619 392C697 422 854 491 916 631L850 664C792 544 669 483 595 463ZM607 637 905 704 884 771 587 707ZM818 223 895 203C914 243 921 264 921 281C921 355 818 385 587 385C420 385 266 365 164 336V374H84V219H164V271C276 295 433 312 587 312C782 312 838 296 838 274C838 264 832 251 818 223ZM98 20 148 -46C313 58 505 132 858 132V206C477 206 275 129 98 20ZM648 -84C727 -84 760 -43 760 22V281H684V25C684 1 681 -16 644 -16C614 -17 600 -7 599 7C598 20 607 27 629 32C645 34 672 34 709 29L725 86C681 97 635 99 601 90C558 79 527 56 527 7C527 -53 577 -84 648 -84ZM194 263V189H462V263ZM278 224V84H354V224ZM401 771V699H571V771ZM451 724V470H520V724ZM379 485 399 413 595 473 575 545Z" transform="translate(0, 880) scale(1,-1)" /></svg>