<svg xmlns="http://www.w3.org/2000/svg" width="1000" height="1000"><path d="M257 505 325 455C398 540 470 637 530 758L458 792C404 684 335 580 257 505ZM239 56V815H159V66C159 34 149 21 136 15L166 -62L519 83L491 157ZM56 342H568V422H56ZM632 253 679 203C872 303 928 353 928 430C928 520 815 566 557 582L548 502C779 487 844 452 844 426C844 390 814 342 632 253ZM567 -31 633 -93C776 -11 900 91 957 160L897 228L874 223C785 247 683 268 551 277L542 197C670 189 759 177 829 160C787 108 696 35 567 -31ZM579 560 648 514C739 588 817 684 884 794L803 828C741 724 665 630 579 560Z" transform="translate(0, 880) scale(1,-1)" /></svg>