<svg xmlns="http://www.w3.org/2000/svg" width="1000" height="1000"><path d="M503 585 556 526C665 590 785 681 856 755L797 811L781 806H264V726H693C650 686 586 635 503 585ZM503 397 470 333C646 269 798 195 908 121L959 201C843 262 691 330 503 397ZM590 428 619 358C720 390 796 415 883 463L833 533C755 488 690 460 590 428ZM508 638 444 590C540 484 596 387 596 282C596 216 580 137 512 137C474 137 438 142 403 159V74C436 64 474 60 518 60C648 60 675 170 675 282C675 403 608 525 508 638ZM230 514 199 441 425 364 456 437ZM134 208 168 137 481 268 446 338ZM928 -55 952 30C654 8 427 9 283 50C196 75 135 137 109 226L31 203C66 81 144 6 253 -23C403 -64 625 -76 928 -55Z" transform="translate(0, 880) scale(1,-1)" /></svg>