<svg xmlns="http://www.w3.org/2000/svg" width="1000" height="1000"><path d="M103 438 185 442C163 501 152 536 156 578C159 623 166 650 148 683L70 675C86 639 88 616 84 581C79 538 83 501 103 438ZM189 704 217 774C183 787 123 806 76 819L50 751C96 738 157 717 189 704ZM549 421C667 421 716 483 716 548C716 620 635 676 531 713L471 660C569 630 636 587 636 548C636 521 609 494 539 494C496 494 460 499 420 512V432C456 425 491 421 549 421ZM217 534 274 487C349 515 417 552 466 590L393 632C352 598 286 562 217 534ZM361 663 422 615C574 677 629 738 684 830L604 856C559 770 497 717 361 663ZM885 493 961 516C933 559 885 606 835 643L765 622C814 585 859 536 885 493ZM249 713H932V791H249ZM69 272 133 229C218 292 271 359 320 439L248 467C200 387 137 321 69 272ZM65 70 134 38C173 79 204 136 223 187L149 209C133 161 104 106 65 70ZM78 -64H930V14H78ZM278 71H730V150H278ZM458 -22H538V245H458ZM243 210H797V288H243ZM866 34 943 64C930 106 900 165 864 214L793 186C829 137 854 74 866 34ZM219 321H879V400H219Z" transform="translate(0, 880) scale(1,-1)" /></svg>