<svg xmlns="http://www.w3.org/2000/svg" width="1000" height="1000"><path d="M125 645 142 576C173 598 202 609 240 609C287 609 302 549 302 479C302 398 281 347 222 335V254C340 263 379 356 379 479C379 610 341 688 240 688C192 688 154 671 125 645ZM180 75H257V473H180ZM43 33 79 -41 377 119 341 193ZM26 336 101 298C141 439 173 620 188 803L111 811C95 630 62 451 26 336ZM427 309 624 425 590 483 392 373ZM490 369V820H415V369ZM451 671V599H613V671ZM619 383 670 322C780 403 924 534 924 682C924 780 880 823 795 823C723 823 666 804 611 767L641 701C690 735 735 747 795 747C832 747 850 725 850 682C850 564 722 448 619 383ZM887 318 947 371C851 494 779 564 691 624L641 574C727 512 793 443 887 318ZM698 2V366H622V2ZM432 165H888V240H432ZM927 30H393V-43H927Z" transform="translate(0, 880) scale(1,-1)" /></svg>