<svg xmlns="http://www.w3.org/2000/svg" width="1000" height="1000"><path d="M225 660 291 699C269 733 229 785 189 822L126 787C162 750 203 697 225 660ZM485 682 559 709C542 749 511 801 475 845L406 818C438 776 470 722 485 682ZM699 690 763 657C804 699 849 753 882 803L807 837C783 791 738 733 699 690ZM816 503 891 479C911 523 920 550 920 574C920 649 818 693 587 693C419 693 264 666 164 631V676H84V495H164V563C276 593 433 614 587 614C782 614 839 595 839 567C839 552 833 536 816 503ZM96 340 162 298C241 376 289 457 334 556L261 579C217 481 159 400 96 340ZM94 99 164 70C200 119 229 189 246 251L171 269C157 211 130 143 94 99ZM109 -56H893V23H109ZM293 110H709V189H293ZM456 -13H536V314H456ZM261 280H771V358H261ZM831 64 908 91C896 142 869 215 836 275L763 250C796 191 819 113 831 64ZM238 415H848V494H238Z" transform="translate(0, 880) scale(1,-1)" /></svg>