<svg xmlns="http://www.w3.org/2000/svg" width="1000" height="1000"><path d="M42 685H298V759H42ZM218 724H141V-62H218ZM357 401 401 329 421 341H893V414H464C525 529 582 664 631 817L553 838C511 689 432 516 397 445C386 423 375 408 357 401ZM305 7 373 -38C423 31 479 136 514 241L440 258C409 164 359 70 305 7ZM616 -75C665 -75 691 -51 691 17V560H616V25C616 11 609 -1 594 -1C563 -2 530 5 495 19V-62C535 -72 578 -75 616 -75ZM886 -26 955 8C925 78 861 184 803 260L737 229C793 151 858 43 886 -26ZM329 633H915V705H329Z" transform="translate(0, 880) scale(1,-1)" /></svg>