<svg xmlns="http://www.w3.org/2000/svg" width="1000" height="1000"><path d="M651 140 678 62C839 72 919 129 919 236C919 332 819 374 561 374C283 374 166 327 166 224C166 101 303 78 430 78C535 78 590 127 591 221L594 582H515V233C515 180 484 158 430 158C345 158 246 170 246 224C246 265 343 295 561 295C755 295 838 274 838 236C838 188 801 148 651 140ZM225 495 258 419 282 427H838V506H341C368 547 404 605 429 651L344 670C323 623 287 555 262 521C249 505 237 498 225 495ZM369 680 447 714C432 749 399 802 367 840L293 811C322 773 351 722 369 680ZM167 627H925V706H167ZM652 692 716 660C749 708 784 768 809 816L725 842C708 799 678 736 652 692ZM928 -62 952 22C654 3 427 4 283 40C196 62 135 114 109 192L31 165C66 58 144 -8 253 -34C403 -70 625 -80 928 -62Z" transform="translate(0, 880) scale(1,-1)" /></svg>