<svg xmlns="http://www.w3.org/2000/svg" width="1000" height="1000"><path d="M33 492 109 473C143 562 171 687 186 786L109 792C97 692 69 573 33 492ZM104 604H368V681H104ZM86 83 143 48C240 109 323 190 323 272C323 346 281 391 229 391C162 391 107 355 107 288C107 218 163 181 219 192C194 160 149 118 86 83ZM215 248C192 248 173 264 173 288C173 313 193 326 215 326C236 326 255 310 255 287C255 264 236 248 215 248ZM303 310V507H225V365ZM134 533V456H364V533ZM48 83 74 9 372 106 347 179ZM269 -7 326 -70C563 87 730 275 841 432L772 474L755 457H557C682 556 785 668 882 785L809 828C717 707 597 585 436 455C426 447 411 438 395 432L443 362L475 379H702C632 292 490 134 269 -7ZM728 -58H844C918 -58 943 4 949 147L870 154C869 51 857 22 832 22H726C701 22 698 28 698 56V279L619 251V55C619 -29 640 -58 728 -58ZM506 598 571 645C528 704 470 769 415 820L352 775C410 721 465 659 506 598Z" transform="translate(0, 880) scale(1,-1)" /></svg>