<svg xmlns="http://www.w3.org/2000/svg" width="1000" height="1000"><path d="M386 605C409 657 431 718 450 780L381 811L371 800H65V720H346C333 681 316 635 299 595C328 550 340 516 340 488C342 457 334 440 316 440C292 440 269 450 245 470L229 390C263 370 296 360 335 360C389 360 420 414 420 483C420 540 409 568 386 605ZM187 -68C248 -68 273 -37 273 37V573H195V47C195 24 187 10 171 10C141 10 103 19 63 35V-51C98 -61 142 -68 187 -68ZM23 202 44 124 421 226 400 304ZM493 783V703H913V783ZM447 -23 512 -70C720 113 749 426 747 708H667C667 434 650 156 447 -23ZM887 -70 958 -31C895 92 813 224 735 338L672 297C745 189 827 54 887 -70ZM473 397H929V475H473Z" transform="translate(0, 880) scale(1,-1)" /></svg>