<svg xmlns="http://www.w3.org/2000/svg" width="1000" height="1000"><path d="M103 657 118 587C138 599 163 604 191 604C230 604 244 555 244 494C244 421 232 377 183 367V289C291 292 320 381 320 494C320 612 287 683 190 683C156 683 126 674 103 657ZM140 134H216V485H140ZM22 102 56 30 320 171 284 244ZM8 364 82 330C118 454 146 614 159 775L83 783C69 624 40 465 8 364ZM304 638H949V718H683L640 830L564 812L598 718H304ZM338 447 391 385C469 457 557 501 691 501C810 501 839 469 839 424C839 337 703 332 493 359V279C727 258 918 262 918 424C918 512 863 581 691 581C532 581 422 528 338 447ZM595 -71C649 -71 681 -39 681 24V421H601V35C601 15 594 7 577 7C542 7 507 15 466 30V-55C507 -66 548 -71 595 -71ZM277 58 345 12C410 66 460 138 487 202L410 229C388 173 342 109 277 58ZM909 5 982 42C958 93 905 171 840 233L772 193C835 132 888 54 909 5Z" transform="translate(0, 880) scale(1,-1)" /></svg>