<svg xmlns="http://www.w3.org/2000/svg" width="1000" height="1000"><path d="M380 552 452 506C567 569 682 648 773 729L710 777L694 767H340L339 691H604C556 653 474 598 380 552ZM108 633 159 571C276 635 398 714 490 802L417 842C335 762 225 690 108 633ZM865 -1 925 48C875 112 818 177 752 240L696 194C761 130 817 64 865 -1ZM131 485 161 414C280 461 419 497 543 497C649 497 721 474 721 416C721 347 638 300 439 300C368 300 337 312 337 325C337 339 356 354 402 354C445 354 471 340 471 319C471 275 456 258 412 234C186 111 160 74 160 20C160 -31 193 -65 279 -65H585C658 -65 687 1 706 113L631 119C622 46 605 7 569 7H313C265 7 246 13 246 30C246 50 265 69 457 179C530 221 551 245 551 314C551 381 510 421 402 421C302 421 262 372 262 325C262 263 322 224 439 227C683 234 807 299 807 416C807 518 726 573 543 573C403 573 252 533 131 485Z" transform="translate(0, 880) scale(1,-1)" /></svg>