<svg xmlns="http://www.w3.org/2000/svg" width="1000" height="1000"><path d="M233 597 290 655C246 697 198 737 143 776L90 720C144 681 191 639 233 597ZM148 -33C264 -33 321 87 321 204C321 300 270 389 152 429L127 353C214 320 241 263 241 204C241 124 208 49 148 49C126 49 111 62 111 98C111 164 176 219 324 307L288 378C140 291 31 205 31 98C31 7 82 -33 148 -33ZM149 401 208 365C261 421 314 493 344 548L279 593L267 585H54V507H226C205 469 179 432 149 401ZM255 53 310 -11C524 132 728 336 834 473L760 523L743 503H560C680 589 782 675 883 777L814 828C718 722 591 612 430 499C419 492 404 483 388 479L433 405L466 423H686C621 346 447 175 255 53ZM625 -65C670 -65 710 -56 758 -24V60C710 29 676 13 643 13C625 13 617 17 617 48V259H538V31C538 -37 565 -65 625 -65ZM905 -5 966 54C890 127 811 201 725 271L669 222C752 149 830 73 905 -5ZM501 614 564 667C520 718 460 775 403 820L341 769C402 722 459 668 501 614Z" transform="translate(0, 880) scale(1,-1)" /></svg>