<svg xmlns="http://www.w3.org/2000/svg" width="1000" height="1000"><path d="M45 469 120 448C153 546 180 683 194 792L118 799C107 688 80 557 45 469ZM114 596H361V673H114ZM88 18 144 -20C239 47 321 144 321 228C321 305 280 352 229 352C164 352 110 314 110 244C110 172 166 133 222 145C197 107 151 57 88 18ZM215 202C193 202 174 219 174 244C174 271 194 285 215 285C236 285 254 269 254 244C254 219 236 202 215 202ZM303 267V485H225V324ZM144 510V434H357V510ZM58 16 85 -58 365 48 339 121ZM372 697 415 628C496 692 579 731 703 731C820 731 858 697 858 629C858 540 810 501 509 536V455C827 425 938 471 938 629C938 732 882 811 703 811C554 811 455 763 372 697ZM362 112H936V192H362ZM584 -72C658 -72 699 -35 699 48V633H620V65C620 25 608 6 576 6C545 6 510 13 474 27V-59C506 -68 541 -72 584 -72ZM385 266H913V346H385Z" transform="translate(0, 880) scale(1,-1)" /></svg>