<svg xmlns="http://www.w3.org/2000/svg" width="1000" height="1000"><path d="M44 349H518V428H44ZM290 420 359 380C411 417 462 468 462 538C462 616 390 652 283 652C170 652 93 619 93 545C93 480 134 448 211 448C275 448 323 475 323 554V842H243V561C243 533 227 523 205 523C186 523 173 530 173 545C173 562 201 576 283 576C349 576 382 562 382 538C382 506 356 465 290 420ZM60 679H507V758H60ZM225 -66C367 -66 493 11 493 156C493 276 403 321 161 314V235C362 241 414 220 414 156C414 63 315 13 225 13C174 13 153 27 153 45C153 85 235 130 445 175L413 251C180 200 69 125 69 45C69 -22 116 -66 225 -66ZM59 214 130 174C178 220 235 296 269 363L192 392C161 330 109 261 59 214ZM803 -72C928 -72 959 -22 959 303C959 485 934 567 836 567C781 567 740 548 695 510L707 434C749 471 794 487 836 487C879 487 881 432 881 303C881 53 870 6 798 6C775 6 745 13 710 30V-54C739 -67 770 -72 803 -72ZM590 166H768C799 166 825 198 825 257C825 310 808 370 792 409L719 381C736 345 746 304 746 278C746 254 736 246 725 246H630C615 246 609 258 609 277C609 321 627 420 688 619L613 643C549 441 529 338 529 259C529 206 546 166 590 166ZM540 702H946V782H540Z" transform="translate(0, 880) scale(1,-1)" /></svg>