<svg xmlns="http://www.w3.org/2000/svg" width="1000" height="1000"><path d="M63 715V644H417V715ZM203 826V538H282V826ZM190 -72C335 -72 405 50 405 168C405 262 344 354 196 394L169 330C285 295 326 232 326 168C326 83 278 4 190 4C155 4 133 19 133 57C133 127 226 194 415 286L370 344C183 255 52 165 52 57C52 -31 107 -72 190 -72ZM199 373 260 340C325 396 391 468 429 523L374 567L359 559H72V487H300C274 448 239 406 199 373ZM397 369 469 329C556 422 678 608 730 717L652 735C601 611 480 446 397 369ZM435 -66H960V4H435ZM569 4H695C770 54 810 146 810 233C810 319 762 387 681 387C612 387 551 334 551 255C551 169 613 126 679 126C696 126 710 129 724 136C694 71 656 42 569 4ZM681 189C646 189 621 216 621 255C621 293 646 321 681 321C717 321 739 293 739 255C739 216 717 189 681 189ZM793 282V609H722V340ZM545 453H938V522H545ZM454 703H935V775H454Z" transform="translate(0, 880) scale(1,-1)" /></svg>