<svg xmlns="http://www.w3.org/2000/svg" width="1000" height="1000"><path d="M354 754H96V470C96 325 88 119 28 -26L105 -56C169 96 174 317 174 470V677H662V754H438L408 845L331 827ZM151 588V510H657V588ZM282 409 361 432C347 498 317 601 290 673L214 648C240 578 269 475 282 409ZM437 430 511 409C535 469 568 568 591 648L512 673C495 596 462 495 437 430ZM216 455V378H589V455ZM169 285 191 212C259 245 336 271 447 271C529 271 568 257 568 233C568 189 472 179 282 199V122C504 103 647 106 647 233C647 306 601 349 447 349C316 349 234 320 169 285ZM449 22V231H371V22ZM640 13 625 90 186 20 201 -57ZM747 124 778 59C904 165 948 208 948 299C948 376 906 437 794 477C866 543 919 621 978 739L902 780L895 765H694V687H861C812 598 772 541 701 485L707 420C844 377 870 331 870 299C870 258 849 214 747 124ZM918 -102 971 -42C913 14 791 105 699 161L654 99C743 44 862 -45 918 -102Z" transform="translate(0, 880) scale(1,-1)" /></svg>