<svg xmlns="http://www.w3.org/2000/svg" width="1000" height="1000"><path d="M797 481 861 437C903 467 931 506 931 563C931 648 848 700 583 700C408 700 264 672 154 618V673H76V455H154V554C268 596 418 621 582 621C799 621 845 587 845 559C845 529 832 504 797 481ZM461 528H540V766H461ZM703 562 298 561V483H703ZM823 809 168 808V730H823ZM71 306 120 241C280 302 368 366 442 434L372 486C311 425 220 362 71 306ZM397 292 474 242C553 278 654 334 722 379L678 444L658 437H338V359H525C495 339 453 316 397 292ZM361 -70H735C880 -70 923 -39 947 107L866 118C851 20 825 9 736 9H361C260 9 241 16 241 44V97H802V311H300V232H722V175H241V194H161V37C161 -54 209 -70 361 -70Z" transform="translate(0, 880) scale(1,-1)" /></svg>