<svg xmlns="http://www.w3.org/2000/svg" width="1000" height="1000"><path d="M10 542 86 513C114 591 138 701 150 787L71 799C59 710 36 609 10 542ZM83 629H285V708H83ZM288 433C288 513 237 555 137 578L113 501C182 486 210 462 210 433C210 399 190 369 157 343L215 286C259 325 288 361 288 433ZM82 68H160V395H82ZM263 179 63 94 94 21 292 107ZM313 634H961V714H695L649 839L572 821L610 714H313ZM653 491C554 491 463 466 375 425L404 346C490 391 571 411 653 411C730 411 751 382 751 334C751 194 560 24 467 24C427 24 402 55 402 115C402 165 426 205 490 205C591 205 726 44 919 -77L974 -15C782 100 633 283 490 283C389 283 321 222 321 115C321 16 373 -56 467 -56C604 -56 831 149 831 334C831 443 783 491 653 491ZM333 386 402 332C490 427 569 545 636 665L561 697C498 577 419 471 333 386ZM915 374 981 422C932 495 879 558 822 613L757 570C815 513 868 448 915 374Z" transform="translate(0, 880) scale(1,-1)" /></svg>