<svg xmlns="http://www.w3.org/2000/svg" width="1000" height="1000"><path d="M20 495 96 475C131 562 159 685 174 782L97 788C85 690 56 573 20 495ZM92 603H362V680H92ZM77 94 143 60C241 120 316 189 316 294C316 360 266 397 207 397C147 397 97 360 97 294C97 230 144 185 210 196C185 165 140 128 77 94ZM207 257C184 257 165 272 165 294C165 317 184 332 207 332C229 332 248 317 248 294C248 272 229 257 207 257ZM295 316V509H216V371ZM121 535V459H358V535ZM34 97 62 20 367 115 340 191ZM486 -40H856C917 -40 942 27 956 194L875 203C869 78 854 38 822 38H517C480 38 463 53 463 74C463 110 478 174 918 731L862 785L845 776H399V697L794 698C400 210 381 132 381 67C381 2 412 -40 486 -40Z" transform="translate(0, 880) scale(1,-1)" /></svg>