<svg xmlns="http://www.w3.org/2000/svg" width="1000" height="1000"><path d="M272 389H356C405 421 437 469 437 513C437 591 372 630 270 630C154 630 87 596 87 526C87 465 136 427 215 427C272 427 307 457 307 504V833H229V525C229 504 221 496 202 496C182 496 164 508 164 526C164 548 191 561 270 561C333 561 358 542 358 512C358 481 344 440 272 389ZM50 313H471V391H50ZM65 673H462V751H65ZM311 -18C281 -18 265 -9 265 10C265 38 309 93 414 162L360 204C244 130 187 66 187 9C187 -53 236 -88 311 -88C414 -88 466 -34 466 86C466 208 405 258 320 258C261 258 217 244 186 217L205 154C240 176 282 188 320 188C367 188 387 150 387 86C387 7 350 -18 311 -18ZM312 324 238 349C185 220 110 105 36 13L107 -28C180 66 257 192 312 324ZM545 449H856V527H545ZM602 -79H837C896 -79 924 -31 938 104L860 113C853 24 842 -1 818 -1H628C600 -1 590 6 590 18C590 36 604 54 891 295L847 357L827 350H498V272L732 273C521 97 495 59 495 10C495 -43 525 -79 602 -79ZM689 704 764 723C749 767 722 816 695 855L622 835C649 795 676 744 689 704ZM828 543 906 515C928 565 938 595 938 625C938 713 868 752 748 752C653 752 554 733 471 710L491 631C570 654 668 671 748 671C830 671 852 649 852 618C852 599 846 580 828 543Z" transform="translate(0, 880) scale(1,-1)" /></svg>