<svg xmlns="http://www.w3.org/2000/svg" width="1000" height="1000"><path d="M732 -59C869 -59 937 75 937 274C937 475 846 548 690 548C663 548 639 547 617 543C694 604 781 676 852 742L794 800L776 792H393V712H700C638 648 567 587 475 518C461 507 409 481 367 456L412 385C490 437 576 468 676 468C787 468 858 427 858 272C858 147 815 21 727 21C686 21 647 31 606 52V-39C645 -53 685 -59 732 -59ZM329 155 396 98C496 183 573 291 611 410L532 430C499 320 427 228 329 155ZM386 -2 452 -60C592 27 717 204 754 407L676 424C637 226 525 78 386 -2ZM14 518 90 487C122 565 150 676 164 763L85 776C71 687 44 585 14 518ZM92 605H328V684H92ZM325 408C325 489 273 529 155 554L132 476C212 461 247 438 247 408C247 373 221 344 183 317L238 257C289 297 325 333 325 408ZM98 41H176V370H98ZM306 154 75 67 104 -7 333 80Z" transform="translate(0, 880) scale(1,-1)" /></svg>