<svg xmlns="http://www.w3.org/2000/svg" width="1000" height="1000"><path d="M666 -83C841 -83 974 -5 974 122C974 229 898 291 744 291C696 291 651 285 611 275C642 317 683 400 708 469L626 486C606 415 563 316 518 259L498 249L534 176C587 198 650 213 729 213C835 213 889 202 889 122C889 21 761 -5 666 -5C596 -5 564 5 564 23C564 41 588 56 621 56C673 56 710 35 719 -37L791 -24C776 66 720 124 621 124C543 124 488 73 488 23C488 -41 543 -83 666 -83ZM524 579 550 505C604 525 678 546 754 546C837 546 867 531 867 486C867 420 822 380 604 409V334C888 300 950 388 950 486C950 579 880 624 754 624C664 624 580 601 524 579ZM647 606 712 566C780 628 837 690 870 736L816 780L793 766H552V687H728C708 661 679 633 647 606ZM381 573 446 516C516 584 601 711 641 828L560 847C521 730 445 626 381 573ZM48 109 478 202 460 274 32 190ZM43 408 85 339 100 347H427V425H143C187 549 224 675 253 814L167 829C143 699 99 534 68 440C63 422 55 413 43 408ZM315 43V555H238V37C238 22 232 16 221 15C205 15 173 20 134 34V-52C166 -59 193 -62 225 -62C294 -62 315 -25 315 43ZM36 620H450V699H36Z" transform="translate(0, 880) scale(1,-1)" /></svg>