<svg xmlns="http://www.w3.org/2000/svg" width="1000" height="1000"><path d="M38 476 115 453C151 551 180 689 195 799L118 806C105 695 75 565 38 476ZM112 602H397V681H112ZM104 26 165 -12C264 55 346 139 346 250C346 319 298 358 235 358C172 358 124 319 124 250C124 182 171 135 242 146C217 108 171 65 104 26ZM235 210C212 210 192 226 192 250C192 275 212 291 235 291C257 291 277 275 277 250C277 226 257 210 235 210ZM324 273V491H245V330ZM141 517V439H393V517ZM54 22 81 -55 403 52 376 128ZM588 388H670V835H588ZM376 608 420 539C509 599 620 640 724 640C809 640 843 610 843 585C843 556 834 533 817 508L894 477C914 510 925 541 925 586C925 672 848 720 724 720C594 720 473 669 376 608ZM375 -9 423 -82C611 -7 877 143 877 298C877 401 817 444 696 444C583 444 502 421 422 391L446 313C524 347 596 364 696 364C760 364 795 343 795 298C795 187 565 58 375 -9ZM872 -87 934 -20C765 106 637 180 482 242L435 179C588 113 706 42 872 -87Z" transform="translate(0, 880) scale(1,-1)" /></svg>