<svg xmlns="http://www.w3.org/2000/svg" width="1000" height="1000"><path d="M87 680H913V758H561L507 848L429 831L473 758H87ZM112 429 494 468 482 546 100 507ZM239 494 309 457C373 495 432 540 483 589L419 648L397 640H116V563H340C313 538 279 517 239 494ZM674 490H754V651H674ZM894 524H534V446H894ZM69 273 133 230C218 294 271 361 320 442L248 470C200 389 137 323 69 273ZM65 71 134 39C173 80 204 137 223 188L149 210C133 162 104 106 65 71ZM78 -64H930V14H78ZM278 72H730V150H278ZM458 -22H538V247H458ZM243 211H797V289H243ZM866 35 943 65C930 107 900 166 864 215L793 187C829 138 854 75 866 35ZM219 323H879V402H219Z" transform="translate(0, 880) scale(1,-1)" /></svg>