<svg xmlns="http://www.w3.org/2000/svg" width="1000" height="1000"><path d="M15 487 90 468C122 558 149 683 163 783L86 788C76 688 49 568 15 487ZM83 600H320V677H83ZM52 74 107 39C201 100 283 184 283 266C283 341 243 385 192 385C128 385 75 349 75 282C75 212 129 176 182 186C158 154 113 109 52 74ZM179 242C157 242 138 258 138 282C138 308 158 321 179 321C198 321 217 305 217 281C217 258 198 242 179 242ZM266 304V502H188V359ZM114 528V452H316V528ZM27 76 55 3 323 100 297 173ZM612 -68C841 -68 972 25 972 166C972 295 895 365 701 365C645 365 586 358 543 348C577 397 625 487 652 566L571 583C548 502 495 389 444 324L420 314L455 239C518 267 600 285 701 285C836 285 892 247 892 166C892 54 734 10 612 10C526 10 485 25 485 54C485 81 517 97 562 97C624 97 667 69 680 -18L762 -4C743 100 681 173 562 173C467 173 405 128 405 54C405 -29 472 -68 612 -68ZM279 473 347 429C434 543 504 682 538 827L459 841C424 699 356 563 279 473ZM388 636 427 564C515 626 629 676 731 676C819 676 863 642 863 589C863 513 816 465 557 498V418C880 380 943 473 943 589C943 702 870 756 731 756C591 756 471 691 388 636Z" transform="translate(0, 880) scale(1,-1)" /></svg>