<svg xmlns="http://www.w3.org/2000/svg" width="1000" height="1000"><path d="M30 -53 105 -95C178 29 189 196 189 325V492H494V570H109V327C109 207 90 52 30 -53ZM29 596 91 552C167 650 206 743 230 833L153 852C125 750 88 671 29 596ZM133 675H494V753H133ZM627 131 672 66C860 171 922 214 922 305C922 382 855 442 682 481C795 547 882 617 963 738L893 784L881 769H549V690H823C749 602 673 542 559 490L567 425C785 382 840 337 840 305C840 264 793 220 627 131ZM901 -97 955 -33C871 26 692 121 557 179L519 109C649 52 820 -38 901 -97ZM294 409V12H374V409ZM207 35 227 -42 505 28 485 105Z" transform="translate(0, 880) scale(1,-1)" /></svg>