<svg xmlns="http://www.w3.org/2000/svg" width="1000" height="1000"><path d="M259 388C383 388 424 469 424 593C424 723 375 785 276 785C217 785 177 762 146 728C157 757 165 788 176 826L95 844C76 744 50 660 16 577L91 548C103 581 115 617 125 636C159 681 210 705 265 705C319 705 344 670 344 593C344 522 322 466 259 466C216 466 167 475 132 487V404C167 395 205 388 259 388ZM27 -20 90 -70C225 80 261 274 270 607L191 609C181 286 150 121 27 -20ZM357 -61H853C939 -61 957 0 964 100L887 106C883 39 878 17 841 17H369C338 17 332 26 332 63V320H252V58C252 -36 275 -61 357 -61ZM762 60C912 60 961 178 961 326C961 489 874 555 717 555C669 555 634 551 602 542C650 596 703 690 749 811L667 831C628 712 578 618 502 522C490 508 455 492 414 473L460 403C534 443 617 476 711 476C818 476 882 439 882 326C882 227 847 137 757 137C717 137 678 145 640 158V75C676 65 718 60 762 60ZM395 629H935V708H395ZM451 225 503 159C614 218 731 312 806 409L737 450C667 353 553 275 451 225ZM709 187 773 235C733 293 656 370 600 414L539 368C594 325 671 241 709 187Z" transform="translate(0, 880) scale(1,-1)" /></svg>