<svg xmlns="http://www.w3.org/2000/svg" width="1000" height="1000"><path d="M37 464 114 442C150 538 180 672 195 780L118 787C104 679 75 551 37 464ZM111 587H403V665H111ZM107 25 166 -13C266 53 350 144 350 228C350 304 306 350 252 350C183 350 126 313 126 243C126 172 185 131 245 145C219 108 174 63 107 25ZM238 203C214 203 194 218 194 243C194 269 215 283 238 283C260 283 280 267 280 244C280 218 260 203 238 203ZM327 266V479H249V323ZM140 505V427H399V505ZM55 20 79 -55 408 50 384 123ZM518 526 583 480C688 561 782 661 854 758L795 800L779 793H392V713H715C661 646 600 587 518 526ZM741 -70C884 -70 934 60 934 283C934 486 855 560 695 560C568 560 431 519 353 482L384 414C466 448 585 479 695 479C810 479 853 404 853 283C853 109 819 8 738 8C684 8 641 16 606 31V-55C641 -66 678 -70 741 -70ZM432 133 496 86C606 180 727 321 768 390L698 431C657 360 541 221 432 133ZM686 111 749 167C686 236 592 327 526 376L465 328C534 274 628 183 686 111Z" transform="translate(0, 880) scale(1,-1)" /></svg>