<svg xmlns="http://www.w3.org/2000/svg" width="1000" height="1000"><path d="M75 84V-7C110 -19 152 -27 202 -27C323 -27 449 47 449 240C449 441 356 502 112 459V380C322 421 369 370 369 240C369 127 303 52 202 52C151 52 108 66 75 84ZM47 527H454V605H119C140 665 160 727 179 797L102 814C87 739 67 670 44 604L31 594ZM178 453 249 428C305 499 374 607 424 714L366 757L348 750H199V672H312C279 601 233 526 178 453ZM146 362V167H225V362ZM46 173 67 98 351 173 330 248ZM533 692 570 624C628 679 683 708 755 708C813 708 829 673 829 621C829 563 812 500 775 437L842 400C884 475 908 543 908 621C908 741 857 789 755 789C668 789 600 751 533 692ZM444 -38H980V42H444ZM714 32 786 0C855 88 924 193 924 316C924 432 850 472 709 447V369C810 380 845 373 845 316C845 219 785 123 714 32ZM598 6V782H519V6Z" transform="translate(0, 880) scale(1,-1)" /></svg>