<svg xmlns="http://www.w3.org/2000/svg" width="1000" height="1000"><path d="M12 471 87 454C119 540 146 661 160 758L83 762C73 666 46 549 12 471ZM80 579H317V656H80ZM49 72 114 38C207 97 281 164 281 273C281 338 231 375 176 375C122 375 72 338 72 273C72 210 116 164 178 175C154 145 109 106 49 72ZM176 235C156 235 137 250 137 273C137 296 155 311 176 311C198 311 216 296 216 273C216 250 197 235 176 235ZM262 295V486H185V349ZM111 512V437H312V512ZM22 78 53 2 321 96 292 171ZM464 36V-51C510 -64 565 -70 622 -70C822 -70 958 -6 958 197C958 379 836 442 642 442C604 442 576 440 549 434C626 490 659 565 659 667H581C581 568 530 478 434 414C413 399 386 391 362 381L401 311C472 342 567 365 642 365C782 365 879 325 879 197C879 63 769 8 622 8C557 8 503 18 464 36ZM366 283V207H725V283ZM358 160V81H736V160ZM460 589V509C738 480 911 505 911 663C911 778 792 812 652 812C488 812 388 777 284 724L322 655C408 700 518 734 652 734C765 734 831 705 831 663C831 583 728 552 460 589Z" transform="translate(0, 880) scale(1,-1)" /></svg>