<svg xmlns="http://www.w3.org/2000/svg" width="1000" height="1000"><path d="M13 461 89 443C123 529 151 650 165 747L88 753C77 655 49 540 13 461ZM84 569H344V646H84ZM64 63 121 29C217 88 300 166 300 247C300 321 258 365 207 365C140 365 85 329 85 263C85 194 141 158 196 168C171 138 126 97 64 63ZM193 224C170 224 151 239 151 263C151 288 171 300 193 300C213 300 232 285 232 262C232 239 213 224 193 224ZM280 285V475H203V339ZM114 502V426H340V502ZM28 65 54 -9 348 85 323 158ZM593 -63C662 -63 681 -27 681 38V530H602V46C602 24 594 16 580 15C561 14 518 25 471 42V-49C512 -58 550 -63 593 -63ZM305 131 371 91C435 181 477 330 500 450L418 463C400 348 360 216 305 131ZM894 83 975 106C951 203 896 356 837 470L760 448C818 331 872 179 894 83ZM739 582 798 642C738 696 619 776 543 809L493 747C570 713 678 639 739 582Z" transform="translate(0, 880) scale(1,-1)" /></svg>