<svg xmlns="http://www.w3.org/2000/svg" width="1000" height="1000"><path d="M323 527 370 593C323 624 268 655 206 684L163 621C225 588 279 559 323 527ZM221 -85C386 -85 465 41 465 155C465 248 395 339 227 379L195 306C333 271 383 218 383 155C383 72 325 -5 221 -5C178 -5 149 11 149 44C149 116 251 173 465 265L424 329C210 239 62 150 62 44C62 -45 126 -85 221 -85ZM231 353 292 309C365 361 441 429 483 481L428 533L411 524H86V444H339C310 412 277 384 231 353ZM237 617 302 572C366 625 440 694 489 750L428 797L411 788H96V708H341C314 676 280 646 237 617ZM713 457 785 433C833 520 883 634 913 739L851 767L839 758H640V678H811C791 610 757 534 713 457ZM496 -11 546 -81C691 0 921 173 921 334C921 434 873 480 754 480C658 480 586 460 515 433L538 354C606 386 669 400 754 400C813 400 840 376 840 334C840 210 644 62 496 -11ZM895 -86 955 -22C821 116 722 194 599 260L549 201C671 131 763 55 895 -86ZM504 539 573 501C623 589 670 697 708 807L639 832C602 721 555 620 504 539Z" transform="translate(0, 880) scale(1,-1)" /></svg>