<svg xmlns="http://www.w3.org/2000/svg" width="1000" height="1000"><path d="M800 572 859 520C903 559 923 597 923 648C923 753 862 825 636 825C415 825 210 746 70 667L117 601C245 669 443 744 636 744C781 744 843 712 843 648C843 618 828 595 800 572ZM631 -60H790C872 -60 899 3 905 148L825 155C824 50 809 21 777 21H627C595 21 591 27 591 55V216L511 194V54C511 -31 534 -60 631 -60ZM259 647 202 592C265 552 325 507 370 463L431 520C384 562 321 607 259 647ZM785 596 719 652C608 559 468 466 281 368C269 361 251 354 232 349L274 275L312 288H584C492 221 334 111 74 -2L127 -70C407 57 629 209 767 336L701 380L679 367H441C563 437 683 517 785 596Z" transform="translate(0, 880) scale(1,-1)" /></svg>