<svg xmlns="http://www.w3.org/2000/svg" width="1000" height="1000"><path d="M41 644H297V723H41ZM208 686H130V-43H208ZM457 656 533 681C520 718 495 780 468 821L394 796C419 754 443 701 457 656ZM299 589H936V669H299ZM698 662 768 640C801 692 827 749 848 802L766 824C751 774 728 713 698 662ZM256 96 312 29C340 49 362 68 396 101C409 113 426 114 437 112C449 109 461 95 474 45L597 119L566 175L502 146C497 167 486 177 464 184C496 233 524 286 550 344L481 372C418 245 337 147 256 96ZM600 -70C705 -70 743 32 741 154C741 272 682 422 594 538L535 485C604 405 663 259 663 154C662 83 648 5 596 5C563 5 531 12 495 27V-59C526 -67 560 -70 600 -70ZM919 5 976 70C881 143 751 215 594 292L560 223C708 152 829 83 919 5ZM651 318 688 254C774 289 836 316 909 369L855 433C790 384 737 353 651 318ZM662 627 584 648C542 506 444 450 291 381L334 310C497 391 615 463 662 627Z" transform="translate(0, 880) scale(1,-1)" /></svg>