<svg xmlns="http://www.w3.org/2000/svg" width="1000" height="1000"><path d="M652 494 690 558C576 608 486 640 351 661L326 595C461 570 550 540 652 494ZM519 611 602 581C691 627 810 703 871 755L823 807L807 802H153V726H706C651 683 592 648 519 611ZM811 328 890 299C912 350 922 381 922 413C922 499 818 543 587 543C416 543 264 512 165 471V527H83V317H165V402C277 438 433 463 587 463C782 463 837 439 837 407C837 387 830 367 811 328ZM579 -87C751 -87 814 38 814 202C814 297 757 356 610 356C513 356 415 347 314 332L319 262C421 274 523 282 610 282C685 282 732 259 732 202C732 71 680 -16 565 -16C495 -16 433 -11 374 5V-75C432 -83 491 -87 579 -87ZM659 99 663 170 367 175 364 103ZM399 394 317 400C286 216 224 89 133 -18L207 -57C299 57 365 199 399 394Z" transform="translate(0, 880) scale(1,-1)" /></svg>