<svg xmlns="http://www.w3.org/2000/svg" width="1000" height="1000"><path d="M132 639 151 570C188 596 220 609 264 609C315 609 332 549 332 479C332 398 305 347 240 335V254C364 265 410 356 410 479C410 610 369 688 265 688C208 688 166 668 132 639ZM199 75H276V473H199ZM51 33 86 -41 406 119 371 193ZM31 336 106 297C149 438 183 619 200 802L123 811C105 630 70 451 31 336ZM354 -56H927V24H354ZM531 20H665C718 64 738 151 738 228C738 320 695 363 623 363C565 363 509 320 509 245C509 166 559 125 623 125C638 125 652 128 664 136C643 80 600 38 531 20ZM356 709 395 639C460 682 562 732 695 732C815 732 853 689 853 624C853 516 707 504 485 538V452C734 427 933 440 933 624C933 730 876 812 695 812C528 812 422 753 356 709ZM705 292V630H628V322ZM623 195C598 195 578 217 578 245C578 273 598 295 623 295C649 295 668 273 668 245C668 217 649 195 623 195Z" transform="translate(0, 880) scale(1,-1)" /></svg>