<svg xmlns="http://www.w3.org/2000/svg" width="1000" height="1000"><path d="M510 754H131V470C131 325 123 122 35 -23L103 -60C196 92 209 317 209 470V677H943V754H595L551 845L476 827ZM340 509 404 546C386 577 353 621 319 654L255 621C287 587 322 543 340 509ZM555 529 627 554C613 590 587 636 557 675L487 650C515 612 542 566 555 529ZM730 536 793 505C829 542 866 592 894 637L822 669C801 628 764 575 730 536ZM530 -92C760 -92 940 -43 940 67C940 154 841 181 640 181C573 181 497 175 441 168C477 196 526 254 558 301L476 313C450 265 398 198 344 159L317 152L353 77C425 93 498 106 621 106C776 106 853 98 853 67C853 -2 655 -20 530 -20C429 -20 383 -16 383 -8C383 1 420 8 471 8C547 8 600 -2 613 -41L694 -33C675 29 602 68 472 68C369 68 298 38 298 -8C298 -63 370 -92 530 -92ZM352 380 374 313C447 328 549 342 653 342C774 342 818 335 818 313C818 268 755 249 457 269V200C821 177 904 221 904 313C904 390 816 416 653 416C535 416 426 398 352 380ZM523 390 595 356C681 397 753 437 794 468L741 520L718 509H389V435H611C590 422 557 405 523 390ZM180 371 239 316C330 362 442 448 493 528L414 556C363 477 263 407 180 371Z" transform="translate(0, 880) scale(1,-1)" /></svg>