<svg xmlns="http://www.w3.org/2000/svg" width="1000" height="1000"><path d="M33 492 109 473C143 562 171 687 186 786L109 792C97 692 69 573 33 492ZM104 604H368V681H104ZM86 83 151 48C248 109 324 180 324 288C324 353 274 391 215 391C157 391 107 353 107 288C107 222 153 177 219 188C194 156 149 118 86 83ZM215 249C193 249 174 265 174 288C174 311 193 326 215 326C238 326 257 311 257 288C257 265 237 249 215 249ZM303 310V507H225V365ZM134 533V456H364V533ZM46 85 75 8 373 105 346 181ZM269 -7 326 -70C563 87 730 275 841 432L772 474L755 457H557C682 556 785 668 882 785L809 828C717 707 597 585 436 455C426 447 411 438 395 432L443 362L475 379H702C632 292 490 134 269 -7ZM728 -58H844C918 -58 943 4 949 147L870 154C869 51 857 22 832 22H726C701 22 698 28 698 56V279L619 251V55C619 -29 640 -58 728 -58ZM506 598 571 645C528 704 470 769 415 820L352 775C410 721 465 659 506 598Z" transform="translate(0, 880) scale(1,-1)" /></svg>