<svg xmlns="http://www.w3.org/2000/svg" width="1000" height="1000"><path d="M302 241 360 178C597 299 760 470 831 708L753 726C696 516 541 358 302 241ZM781 -91 816 -18C704 36 587 82 468 118L428 49C548 10 666 -36 781 -91ZM744 72 779 147C695 186 612 219 535 246L495 179C583 146 665 114 744 72ZM342 632 413 588C481 647 547 728 593 803L516 836C477 766 406 683 342 632ZM751 190H864C912 190 939 215 955 327L876 339C870 280 864 268 841 268H772C745 268 735 281 735 306V422H657V282C657 218 690 190 751 190ZM324 433 384 381C465 437 502 476 520 485C595 527 681 540 748 540C818 540 848 529 848 499C848 468 819 452 786 452C742 452 704 463 671 486L629 413C680 386 732 373 786 373C869 373 927 407 927 499C927 596 854 619 748 619C690 619 651 612 609 599C643 642 675 685 706 732L642 772L628 762H490V682H579C512 587 436 514 324 433ZM14 501 90 471C122 550 149 663 163 751L84 763C70 673 44 569 14 501ZM92 590H322V670H92ZM320 391C320 472 269 512 153 538L130 460C208 445 242 421 242 391C242 356 217 326 180 299L236 239C286 279 320 316 320 391ZM96 19H175V352H96ZM300 132 74 45 103 -29 328 59Z" transform="translate(0, 880) scale(1,-1)" /></svg>