<svg xmlns="http://www.w3.org/2000/svg" width="1000" height="1000"><path d="M33 475 109 454C144 545 172 673 187 775L110 781C98 679 69 557 33 475ZM105 590H376V667H105ZM90 56 148 20C246 83 329 167 329 249C329 324 287 369 234 369C166 369 111 333 111 265C111 195 168 157 225 168C200 135 155 92 90 56ZM220 225C197 225 178 241 178 265C178 291 198 304 220 304C241 304 261 288 261 265C261 241 241 225 220 225ZM308 287V489H230V343ZM134 515V439H373V515ZM49 55 74 -19 381 80 356 153ZM338 700 380 633C442 682 525 728 670 728C820 728 850 625 850 505C850 345 795 264 697 264C621 264 555 268 479 281L469 203C545 189 621 188 697 188C870 188 929 316 929 505C929 662 893 808 670 808C501 808 402 750 338 700ZM346 -49H927V27H346ZM580 -12H659V662H580ZM468 439H770V519H468Z" transform="translate(0, 880) scale(1,-1)" /></svg>