<svg xmlns="http://www.w3.org/2000/svg" width="1000" height="1000"><path d="M38 470 114 449C147 546 175 682 189 791L113 797C101 688 74 558 38 470ZM108 596H362V673H108ZM85 24 142 -14C238 52 320 147 320 232C320 308 279 355 228 355C161 355 107 317 107 248C107 176 164 136 220 149C195 111 149 62 85 24ZM214 206C191 206 172 222 172 248C172 274 192 288 214 288C234 288 253 272 253 247C253 223 234 206 214 206ZM301 270V486H223V327ZM139 511V435H358V511ZM52 21 79 -53 366 53 341 126ZM782 500C767 456 747 414 720 369L765 302C836 322 868 298 868 246C868 171 762 109 633 80L667 7C822 54 949 109 949 246C949 359 886 395 813 386L893 562L821 599L807 586C441 530 344 393 344 309C344 250 381 200 449 200C584 200 705 473 818 780L749 813L732 799H409V719H710C633 498 519 280 452 280C433 280 423 290 423 307C423 345 481 452 782 500ZM655 -88 732 -59C714 10 677 105 643 178L569 150C603 81 635 -15 655 -88Z" transform="translate(0, 880) scale(1,-1)" /></svg>