<svg xmlns="http://www.w3.org/2000/svg" width="1000" height="1000"><path d="M285 618 344 678C294 722 239 765 175 807L120 749C183 707 237 663 285 618ZM183 -51C316 -51 382 78 382 198C382 296 324 393 188 435L160 360C265 324 300 263 300 198C300 113 258 31 183 31C152 31 133 44 133 74C133 147 215 216 388 311L347 380C168 280 51 184 51 74C51 -14 104 -51 183 -51ZM185 407 249 371C309 430 371 506 406 563L340 611L326 603H74V524H281C256 483 223 442 185 407ZM399 477H935V559H399ZM443 702H892V784H443ZM523 312 593 267 607 281H697C664 225 619 159 566 98L638 60C701 134 778 241 827 316L756 371L741 361H636C681 462 707 582 729 724L649 732C626 581 592 440 523 312ZM900 -73 936 7C768 71 603 119 444 154L403 78C573 39 738 -9 900 -73Z" transform="translate(0, 880) scale(1,-1)" /></svg>