<svg xmlns="http://www.w3.org/2000/svg" width="1000" height="1000"><path d="M31 475 105 455C136 552 162 689 176 798L100 804C90 694 64 563 31 475ZM97 602H325V679H97ZM62 25 116 -13C209 54 291 152 291 236C291 313 251 359 201 359C138 359 85 322 85 252C85 180 140 141 193 153C169 115 123 63 62 25ZM187 209C166 209 148 227 148 252C148 279 167 293 187 293C207 293 225 276 225 251C225 227 207 209 187 209ZM274 275V491H197V332ZM128 516V441H320V516ZM42 24 70 -49 328 57 301 129ZM733 -64C877 -64 951 64 951 257C951 421 875 512 769 512C753 512 741 510 727 507C782 569 852 651 916 736L844 793L829 777H598V698H785C738 629 691 557 644 497C631 482 613 473 590 462L617 391C658 414 706 431 765 431C828 431 871 367 871 257C871 106 813 15 730 15C680 15 652 61 652 121C652 167 673 193 697 193C735 193 761 157 767 -1L836 16C825 195 780 271 697 271C630 271 580 204 580 116C580 6 637 -64 733 -64ZM482 823V-75H560V823ZM519 211 493 284 425 246V668H346V258C346 223 336 204 326 195L360 122Z" transform="translate(0, 880) scale(1,-1)" /></svg>