<svg xmlns="http://www.w3.org/2000/svg" width="1000" height="1000"><path d="M200 434H277V761H200ZM70 720H550V800H70ZM329 434H407V761H329ZM16 -49 86 -88C142 11 159 158 159 259V388H552V468H81V259C81 163 68 46 16 -49ZM123 502 196 533C182 574 157 632 133 674L62 646C84 604 111 542 123 502ZM411 523 482 499C507 545 534 607 553 660L477 689C462 638 436 572 411 523ZM378 2H458V341H378ZM221 341V-28H301V341ZM345 12 366 -66 581 -6 560 72ZM751 -81C875 -81 964 -2 964 125C964 232 910 294 800 294C768 294 749 290 725 282C747 324 776 403 794 472L716 489C702 418 671 319 639 262L624 252L650 179C689 201 736 216 789 216C850 216 883 205 883 125C883 24 819 -2 751 -2C710 -2 693 8 693 26C693 44 704 60 719 60C750 60 771 38 777 -34L840 -21C830 69 790 127 719 127C663 127 624 76 624 26C624 -34 663 -81 751 -81ZM643 583 674 512C709 530 758 549 808 549C854 549 873 534 873 489C873 423 844 383 701 412V339C909 305 952 394 952 489C952 582 898 628 808 628C744 628 683 605 643 583ZM717 609 777 569C829 633 872 697 897 744L844 783L821 769H663V690H777C763 664 741 636 717 609ZM527 576 594 521C645 589 705 716 733 833L654 850C627 733 573 629 527 576Z" transform="translate(0, 880) scale(1,-1)" /></svg>