<svg xmlns="http://www.w3.org/2000/svg" width="1000" height="1000"><path d="M129 583 59 470C51 456 44 448 31 443L74 366L104 373H501V453H144L218 583H551V663H28V583ZM175 658 256 686C238 724 202 784 165 830L88 801C123 755 160 698 175 658ZM329 685 393 652C439 706 475 756 507 810L417 836C395 783 365 732 329 685ZM386 254V525H306V309ZM30 7 51 -72 564 45 543 123ZM140 9 204 -29C315 38 400 121 400 223C400 291 352 328 278 328C203 328 155 291 155 223C155 153 210 111 290 120C262 81 217 48 140 9ZM278 184C252 184 230 199 230 223C230 247 253 262 278 262C303 262 325 247 325 223C325 199 304 184 278 184ZM666 134 708 69C883 173 941 216 941 307C941 383 880 443 719 482C823 547 904 617 980 736L909 782L898 767H592V688H844C775 601 707 543 602 491L610 425C812 383 860 338 860 307C860 266 819 223 666 134ZM919 -92 972 -28C893 29 726 123 599 180L560 111C683 56 843 -34 919 -92Z" transform="translate(0, 880) scale(1,-1)" /></svg>