<svg xmlns="http://www.w3.org/2000/svg" width="1000" height="1000"><path d="M618 -74C793 -74 808 32 808 136C808 204 787 262 599 262C519 262 421 255 312 244L315 166C427 178 517 183 599 183C709 183 728 167 728 136C728 70 715 4 608 4C556 4 501 7 452 15V-66C508 -73 548 -74 618 -74ZM135 -35 218 -68C307 36 326 116 332 252H252C244 119 226 60 135 -35ZM660 58 664 136 372 140 367 62ZM55 282H945V362H55ZM262 391H738V470H262ZM112 498H888V577H112ZM460 433H540V653H460ZM672 675 711 607C822 642 908 670 908 742C908 802 854 844 742 843C635 842 525 819 450 794L487 720C560 746 655 765 742 765C808 765 827 755 827 742C827 727 782 709 672 675ZM684 575 759 608C737 650 708 689 676 723L605 690C635 655 663 613 684 575ZM204 602 277 636C251 683 202 752 158 803L88 767C130 719 177 649 204 602ZM464 624 538 651C516 711 485 774 438 843L367 812C412 743 442 683 464 624Z" transform="translate(0, 880) scale(1,-1)" /></svg>