<svg xmlns="http://www.w3.org/2000/svg" width="1000" height="1000"><path d="M32 463 107 443C139 539 166 672 180 779L103 785C93 678 67 550 32 463ZM100 586H340V663H100ZM70 23 130 -14C224 51 303 130 303 245C303 311 255 351 198 351C141 351 93 311 93 245C93 178 136 130 203 142C178 106 133 61 70 23ZM198 204C177 204 158 221 158 245C158 269 176 285 198 285C219 285 238 269 238 245C238 221 219 204 198 204ZM284 267V479H207V324ZM131 504V428H335V504ZM42 24 73 -52 344 52 314 127ZM378 9 410 -71C656 7 778 301 858 699L780 716C703 332 586 63 378 9ZM325 153 402 127C438 220 464 356 477 470L401 479C389 369 361 239 325 153ZM876 -71 909 9C733 43 582 316 540 615L462 604C509 248 697 -31 876 -71ZM665 567 734 611C694 681 622 779 567 836L505 789C560 732 626 637 665 567ZM894 130 971 156C952 247 911 385 869 488L797 465C837 361 877 227 894 130Z" transform="translate(0, 880) scale(1,-1)" /></svg>