<svg xmlns="http://www.w3.org/2000/svg" width="1000" height="1000"><path d="M61 72V-19C95 -32 135 -40 183 -40C301 -40 419 36 419 236C419 444 330 507 96 462V384C298 426 340 372 340 236C340 118 280 39 183 39C135 39 93 53 61 72ZM35 537H424V614H105C126 677 145 744 164 817L87 833C72 755 53 682 31 613L19 603ZM159 457 228 433C282 507 349 620 396 732L340 772L322 765H181V687H288C256 612 211 533 159 457ZM127 361V160H206V361ZM32 165 54 90 323 168 302 243ZM440 13 495 -53C663 101 823 265 970 448L911 501C768 325 605 158 440 13ZM476 20H555V709H476ZM939 -50 982 18C823 119 746 289 736 831H657C661 277 756 52 939 -50ZM578 444 637 382C728 462 823 561 902 657L840 710C766 620 679 526 578 444Z" transform="translate(0, 880) scale(1,-1)" /></svg>