<svg xmlns="http://www.w3.org/2000/svg" width="1000" height="1000"><path d="M462 446 540 417C607 539 662 679 697 815L615 834C582 702 530 563 462 446ZM825 470 903 436C923 483 934 518 934 560C934 657 858 703 698 703C564 703 430 661 342 619L374 540C455 580 581 618 698 618C815 618 849 590 849 555C849 528 842 506 825 470ZM431 460V380H754V258H462V306H383V83C383 -35 422 -60 531 -60H798C905 -60 939 -2 956 171L876 185C866 35 847 20 783 20H536C476 20 462 33 462 83V178H833V460ZM14 502 90 471C124 550 153 662 168 749L88 762C73 672 46 570 14 502ZM94 590H339V669H94ZM335 391C335 472 283 513 159 538L136 460C220 445 256 421 256 391C256 356 229 327 190 300L244 239C297 279 335 315 335 391ZM101 21H180V353H101ZM317 135 77 48 106 -27 343 61Z" transform="translate(0, 880) scale(1,-1)" /></svg>