<svg xmlns="http://www.w3.org/2000/svg" width="1000" height="1000"><path d="M794 545 851 489C898 528 923 570 923 625C923 726 863 807 620 807C394 807 212 741 70 631L120 567C248 663 423 729 620 729C782 729 842 695 842 625C842 592 825 568 794 545ZM526 -80C759 -80 910 -13 910 104C910 202 814 274 603 274C552 274 511 270 470 262C573 311 676 361 765 408L695 468L671 459H253V387H565C481 338 376 282 298 244C273 233 238 221 181 210L232 142C338 179 456 199 579 199C744 199 822 163 822 104C822 22 646 -11 517 -11C433 -11 391 1 391 23C391 41 414 54 453 54C520 54 569 25 589 -38L668 -22C644 59 569 119 454 119C364 119 302 77 302 23C302 -40 373 -80 526 -80ZM241 536H762V610H241Z" transform="translate(0, 880) scale(1,-1)" /></svg>