<svg xmlns="http://www.w3.org/2000/svg" width="1000" height="1000"><path d="M190 623 266 643C257 690 238 767 219 819L144 799C162 747 180 680 190 623ZM343 618 413 604C438 670 457 742 471 809L392 824C382 759 365 683 343 618ZM72 551H556V626H72ZM279 20 312 -49 559 67 519 135ZM645 166 688 104C866 205 924 246 924 333C924 407 860 465 696 503C803 566 884 636 961 753L900 794L889 780H571V705H835C764 620 690 560 581 511L588 449C796 408 848 364 848 333C848 294 803 252 645 166ZM908 -91 955 -29C875 37 705 143 577 208L545 146C669 81 831 -23 908 -91ZM315 592 235 602C212 504 179 419 135 361L196 320L217 346H347C292 251 178 106 64 5L126 -61C238 50 352 197 470 393L411 428L396 415H252C274 462 295 524 315 592ZM297 259V16H375V259Z" transform="translate(0, 880) scale(1,-1)" /></svg>