<svg xmlns="http://www.w3.org/2000/svg" width="1000" height="1000"><path d="M427 98V806H96V340C96 180 85 78 30 -48L108 -77C165 58 176 170 176 340V726H347V93C347 -14 381 -54 478 -54H843C929 -54 947 4 954 101L877 104C873 35 868 26 831 26H497C442 26 427 42 427 98ZM329 359V434H194V358ZM194 544H329V620H194ZM194 249V173H329V249ZM486 759 496 680C613 686 780 710 887 755L856 831C767 793 604 767 486 759ZM462 458H928V537H462ZM656 290H734V750H656ZM762 329C668 329 568 293 472 226L530 156C604 217 695 252 762 252C798 252 815 235 815 216C815 183 778 147 725 127L766 58C837 85 892 140 892 216C892 297 845 329 762 329Z" transform="translate(0, 880) scale(1,-1)" /></svg>