<svg xmlns="http://www.w3.org/2000/svg" width="1000" height="1000"><path d="M276 594 338 641C311 687 255 753 202 803L144 760C195 711 250 642 276 594ZM461 560H539V841H461ZM651 637 710 594C757 637 818 707 863 766L795 809C760 753 699 683 651 637ZM812 395 890 367C912 417 922 448 922 479C922 564 818 608 587 608C417 608 264 578 165 537V592H83V385H165V469C277 504 433 528 587 528C782 528 837 505 837 473C837 454 830 434 812 395ZM189 374V294H811V374ZM189 199V119H811V199ZM99 24V-56H901V24ZM461 481V-14H539V481Z" transform="translate(0, 880) scale(1,-1)" /></svg>