<svg xmlns="http://www.w3.org/2000/svg" width="1000" height="1000"><path d="M275 24H354V580L292 603L276 591H46V511H275ZM23 -16 87 -65C219 112 229 327 233 797L155 798C150 328 145 146 23 -16ZM649 -83C831 -83 969 -5 969 122C969 229 891 291 731 291C681 291 633 285 591 275C623 317 666 400 691 469L609 486C588 415 544 316 497 259L476 249L514 176C569 198 633 213 716 213C828 213 885 202 885 122C885 21 748 -5 649 -5C576 -5 543 5 543 23C543 41 568 56 603 56C658 56 696 35 706 -37L779 -24C764 66 706 124 603 124C522 124 465 73 465 23C465 -41 522 -83 649 -83ZM503 579 529 504C585 525 663 546 742 546C829 546 861 531 861 486C861 420 814 380 586 409V334C879 300 944 387 944 486C944 579 872 624 742 624C649 624 562 601 503 579ZM632 606 698 566C768 628 827 690 861 736L806 780L783 766H533V687H716C696 661 666 633 632 606ZM357 573 422 516C495 584 583 711 623 828L542 847C502 730 423 626 357 573ZM214 28 247 -44 464 56 431 128Z" transform="translate(0, 880) scale(1,-1)" /></svg>