<svg xmlns="http://www.w3.org/2000/svg" width="1000" height="1000"><path d="M22 193 40 115 429 200 411 278ZM228 -52C277 -52 304 -24 304 40V530H224V45C224 32 218 26 200 26C178 26 151 30 114 44L115 -41C155 -49 191 -52 228 -52ZM103 584 55 449C50 436 44 428 34 423L69 347L91 354H382V434H134L187 584H418V664H34V584ZM132 658 208 686C195 722 169 780 140 825L68 796C95 752 121 697 132 658ZM249 684 313 652C347 704 373 753 397 805L314 830C298 779 276 730 249 684ZM554 28 627 -14C705 66 780 192 780 342C780 430 748 505 657 505C566 505 537 437 537 364C537 273 581 216 685 216C839 216 926 333 926 538C926 698 858 809 688 809C528 809 421 689 368 618L432 564C485 633 579 728 688 728C793 728 846 655 846 538C846 393 783 296 685 296C635 296 616 318 616 364C616 400 630 425 657 425C682 425 700 397 700 342C700 217 623 98 554 28ZM374 -41H959V39H374Z" transform="translate(0, 880) scale(1,-1)" /></svg>