<svg xmlns="http://www.w3.org/2000/svg" width="1000" height="1000"><path d="M44 481 117 458C150 560 177 703 192 817L118 824C106 709 79 573 44 481ZM112 618H364V689H112ZM98 12 144 -28C240 42 322 145 322 231C322 309 281 356 230 356C164 356 110 318 110 247C110 174 167 132 234 146C209 105 163 52 98 12ZM220 199C193 199 169 216 169 247C169 278 194 297 221 297C245 297 266 276 266 252C266 216 245 199 220 199ZM299 270V497H230V328ZM142 520V450H360V520ZM56 2 83 -61 367 50 342 112ZM423 306 622 422 588 480 388 370ZM486 366V817H411V366ZM447 668V596H611V668ZM617 380 668 319C779 400 925 531 925 679C925 777 880 820 794 820C722 820 664 801 609 765L639 698C689 732 734 744 794 744C832 744 850 721 850 679C850 561 721 445 617 380ZM888 314 947 368C851 491 778 561 690 621L639 571C727 508 793 440 888 314ZM697 -1V363H620V-1ZM428 162H888V237H428ZM928 27H389V-46H928Z" transform="translate(0, 880) scale(1,-1)" /></svg>