<svg xmlns="http://www.w3.org/2000/svg" width="1000" height="1000"><path d="M598 137 647 72C851 178 919 221 919 312C919 389 845 450 654 489C779 555 877 624 964 746L895 794L882 779H512V699H819C737 610 650 549 523 498L532 433C773 390 836 344 836 312C836 271 782 227 598 137ZM901 -93 955 -27C863 33 668 129 520 189L485 116C627 59 813 -33 901 -93ZM331 643 390 708C329 754 260 799 182 843L128 779C205 736 273 689 331 643ZM197 -50C364 -50 444 85 444 207C444 307 373 409 203 453L171 378C311 340 359 275 359 207C359 118 303 32 197 32C152 32 122 48 122 88C122 165 235 229 451 328L402 394C186 298 39 201 39 88C39 -8 101 -50 197 -50ZM201 425 271 385C346 445 422 522 464 581L399 637L382 628H61V548H328C295 504 253 462 201 425Z" transform="translate(0, 880) scale(1,-1)" /></svg>