<svg xmlns="http://www.w3.org/2000/svg" width="1000" height="1000"><path d="M299 664 224 679C181 470 108 281 35 140L106 102C177 249 255 457 299 664ZM267 95C247 95 237 106 237 131C237 168 269 249 355 342L301 382C207 289 159 195 159 130C159 62 203 21 267 21C357 21 398 88 398 235C398 383 349 443 274 443C226 443 190 426 165 393L181 324C209 353 243 368 273 368C306 368 320 320 320 235C320 126 294 95 267 95ZM61 639H411V717H61ZM933 32 973 114C830 205 690 275 546 325L514 251C656 203 800 123 933 32ZM388 43 460 -8C540 126 598 300 622 465L543 474C515 304 470 167 388 43ZM625 -65C686 -65 724 -29 724 44V742H646V65C646 32 639 14 615 14C584 14 557 21 524 40V-49C555 -60 592 -65 625 -65ZM419 451H934V531H419ZM452 773 469 691C609 694 776 713 890 745L861 823C746 791 597 774 452 773Z" transform="translate(0, 880) scale(1,-1)" /></svg>