<svg xmlns="http://www.w3.org/2000/svg" width="1000" height="1000"><path d="M45 481 121 458C155 560 184 703 199 817L122 824C110 709 81 573 45 481ZM117 614H387V692H117ZM102 13 159 -27C257 43 340 145 340 231C340 309 298 356 245 356C178 356 122 318 122 247C122 174 181 132 239 146C214 105 168 53 102 13ZM231 200C206 200 185 219 185 247C185 276 207 293 232 293C254 293 275 274 275 247C275 219 254 200 231 200ZM319 270V497H241V328ZM146 522V445H383V522ZM60 7 86 -67 391 44 366 117ZM355 -56H924V24H355ZM530 20H664C717 64 737 151 737 228C737 320 694 363 622 363C564 363 508 320 508 245C508 166 558 125 622 125C637 125 651 128 663 136C642 80 600 38 530 20ZM357 709 396 639C461 683 561 732 694 732C813 732 850 689 850 624C850 516 706 504 486 538V452C732 427 930 440 930 624C930 730 873 812 694 812C528 812 422 753 357 709ZM704 292V630H627V322ZM622 195C597 195 578 217 578 245C578 273 597 295 622 295C648 295 667 273 667 245C667 217 648 195 622 195Z" transform="translate(0, 880) scale(1,-1)" /></svg>