<svg xmlns="http://www.w3.org/2000/svg" width="1000" height="1000"><path d="M226 694 291 734C269 761 229 802 189 832L127 795C163 765 204 724 226 694ZM486 713 559 741C542 772 511 814 475 848L406 821C439 788 471 745 486 713ZM699 726 762 691C802 725 848 768 881 809L807 844C783 807 738 761 699 726ZM819 578 895 558C913 596 920 617 920 632C920 693 818 737 587 737C421 737 266 717 164 689V722H84V573H164V621C276 644 433 660 587 660C782 660 839 646 839 625C839 615 833 604 819 578ZM139 571V491H861V571ZM331 409 407 432C392 490 362 578 335 642L261 621C287 558 317 468 331 409ZM586 427 658 406C683 462 716 549 739 621L663 642C644 572 612 484 586 427ZM226 443V364H774V443ZM173 261 197 195C296 230 414 252 581 252C741 252 791 238 791 215C791 171 595 167 313 185V107C639 93 870 84 870 215C870 289 808 329 581 329C389 329 256 303 173 261ZM103 -21 145 -92C502 -33 545 56 545 211H465C465 69 444 35 103 -21ZM841 -97 897 -32C797 12 689 54 599 81L552 18C648 -14 755 -56 841 -97ZM217 103V307H137V103Z" transform="translate(0, 880) scale(1,-1)" /></svg>