<svg xmlns="http://www.w3.org/2000/svg" width="1000" height="1000"><path d="M281 611 340 672C289 715 232 757 168 799L114 740C178 699 233 655 281 611ZM176 -46C312 -46 379 80 379 199C379 297 320 392 182 433L154 358C261 323 297 262 297 199C297 115 254 35 176 35C145 35 125 49 125 78C125 149 209 217 384 310L343 379C163 281 44 188 44 78C44 -9 97 -46 176 -46ZM179 405 243 368C304 426 367 501 402 557L337 606L323 597H66V519H275C250 478 218 439 179 405ZM550 -60C715 -60 794 150 861 426L783 443C730 200 653 20 550 20C510 20 488 75 488 156C488 254 516 306 572 306C667 306 753 57 928 -58L968 17C787 131 730 386 572 386C472 386 410 312 410 156C410 32 450 -60 550 -60ZM418 506 458 430C617 492 776 591 905 789L831 827C709 636 571 563 418 506ZM879 428 927 498C803 621 615 738 488 793L444 730C575 671 758 554 879 428Z" transform="translate(0, 880) scale(1,-1)" /></svg>