<svg xmlns="http://www.w3.org/2000/svg" width="1000" height="1000"><path d="M38 482 115 457C151 559 181 702 197 816L119 824C106 709 76 573 38 482ZM113 614H406V692H113ZM109 15 168 -25C268 45 352 134 352 247C352 317 304 356 240 356C175 356 128 317 128 247C128 177 175 129 249 141C223 100 177 55 109 15ZM240 205C216 205 197 222 197 247C197 272 217 289 240 289C262 289 282 272 282 247C282 222 263 205 240 205ZM329 270V497H251V328ZM141 522V444H402V522ZM55 8 81 -69 412 42 386 118ZM502 449H844V527H502ZM554 -79H835C896 -79 924 -32 939 102L860 111C853 24 841 -1 815 -1H581C555 -1 544 6 544 17C544 35 559 53 887 294L842 358L823 350H448V272L715 273C471 96 445 59 445 9C445 -43 473 -79 554 -79ZM663 702 738 722C723 765 696 815 669 854L596 834C622 795 650 742 663 702ZM827 540 905 512C927 561 937 592 937 623C937 711 862 750 726 750C620 750 507 730 420 705L440 626C523 650 635 669 726 669C824 669 851 647 851 616C851 596 845 577 827 540Z" transform="translate(0, 880) scale(1,-1)" /></svg>