<svg xmlns="http://www.w3.org/2000/svg" width="1000" height="1000"><path d="M443 571 518 540C542 595 553 630 553 667C553 767 484 807 372 807C280 807 197 773 143 727V790H65V559H143V656C205 697 288 725 372 725C449 725 470 698 470 662C470 638 463 615 443 571ZM122 493H493V573H122ZM115 291H500V371H115ZM347 -78V661H269V-78ZM53 89H561V169H53ZM650 134 693 69C867 173 925 216 925 307C925 383 864 444 704 482C808 547 888 619 964 738L893 783L882 768H577V689H828C760 602 692 544 587 491L595 426C796 383 845 338 845 307C845 266 803 223 650 134ZM903 -93 956 -29C878 29 711 122 585 180L545 111C667 55 827 -34 903 -93Z" transform="translate(0, 880) scale(1,-1)" /></svg>