<svg xmlns="http://www.w3.org/2000/svg" width="1000" height="1000"><path d="M181 490 265 503C253 600 232 720 209 816L129 802C152 707 173 586 181 490ZM55 613H540V693H55ZM325 468 400 451C437 565 463 698 482 822L399 830C383 711 360 582 325 468ZM25 -47 100 -80C152 17 166 162 166 262V408H535V488H87V262C87 167 75 45 25 -47ZM372 9H451V361H372ZM226 361V-21H306V361ZM341 19 363 -59 537 -9 515 68ZM547 475H945V557H547ZM580 700H912V782H580ZM624 303 701 265 711 279H761C737 223 703 157 664 96L734 58C783 133 843 244 882 322L805 369L793 359H732C765 460 785 580 801 722L722 727C704 575 677 433 624 303ZM919 -75 956 5C828 69 703 117 581 152L538 76C669 37 795 -11 919 -75Z" transform="translate(0, 880) scale(1,-1)" /></svg>