<svg xmlns="http://www.w3.org/2000/svg" width="1000" height="1000"><path d="M52 664H320V743H52ZM225 706H147V-62H225ZM499 17 610 -10C694 47 733 160 733 263C733 360 686 419 599 419C526 419 467 370 467 282C467 191 529 146 599 146C612 146 622 147 635 151C615 89 568 37 499 17ZM330 -51H931V29H330ZM599 219C568 219 543 245 543 282C543 321 568 343 599 343C631 343 657 321 657 282C657 245 631 219 599 219ZM351 422 421 390C472 467 504 553 527 638L445 655C429 578 400 497 351 422ZM689 323V755H610V388ZM351 715H910V795H351ZM840 390 916 424C894 503 860 578 808 662L741 632C791 545 820 469 840 390Z" transform="translate(0, 880) scale(1,-1)" /></svg>