<svg xmlns="http://www.w3.org/2000/svg" width="1000" height="1000"><path d="M131 625 149 556C183 578 214 589 256 589C305 589 322 534 322 469C322 392 297 344 234 333V254C356 263 399 351 399 469C399 593 359 668 257 668C203 668 163 651 131 625ZM193 87H270V461H193ZM51 50 84 -23 396 127 362 201ZM31 332 106 295C148 428 181 598 197 771L120 779C103 609 69 441 31 332ZM348 -56H927V24H348ZM528 20H662C715 64 736 151 736 228C736 320 692 363 620 363C562 363 506 320 506 245C506 166 556 125 620 125C636 125 649 128 661 136C641 80 597 38 528 20ZM351 708 389 638C456 682 558 732 693 732C815 732 853 689 853 624C853 515 706 504 481 538V452C732 427 933 439 933 624C933 730 876 812 693 812C524 812 417 753 351 708ZM703 292V630H626V322ZM620 195C595 195 576 217 576 245C576 273 595 295 620 295C646 295 666 273 666 245C666 217 646 195 620 195Z" transform="translate(0, 880) scale(1,-1)" /></svg>