<svg xmlns="http://www.w3.org/2000/svg" width="1000" height="1000"><path d="M341 75C403 75 431 111 431 172V600H351V180C351 159 342 151 327 151C300 151 267 158 233 172V88C264 80 297 75 341 75ZM153 212 613 291 597 367 137 292ZM388 541 406 464C516 480 604 531 604 619C604 706 537 741 446 741C398 741 359 731 331 718C365 750 393 772 438 802L354 847C260 762 208 699 185 647C166 601 163 543 191 485L274 497C251 542 252 582 265 613C289 636 360 662 418 662C486 662 522 649 522 619C522 577 474 554 388 541ZM156 378H585V458H156ZM780 90 836 25C917 60 944 114 944 182C944 256 900 301 819 301C775 301 729 287 698 269C725 326 745 385 760 491L682 496C668 384 643 303 609 223C602 206 581 188 562 166L618 107C690 185 757 221 819 221C852 221 866 206 866 182C866 141 829 109 780 90ZM707 446V366C874 340 939 399 939 527C939 629 893 686 774 686C667 686 596 640 550 596L600 531C643 574 700 607 774 607C834 607 860 580 860 527C860 448 820 427 707 446ZM928 -58 952 26C654 7 427 8 283 43C196 65 135 116 109 192L31 164C66 59 144 -5 253 -31C403 -66 625 -76 928 -58Z" transform="translate(0, 880) scale(1,-1)" /></svg>