<svg xmlns="http://www.w3.org/2000/svg" width="1000" height="1000"><path d="M334 492 415 505C395 604 356 729 316 823L240 809C281 713 318 590 334 492ZM67 623H933V694H67ZM573 470 643 453C709 568 756 703 789 829L704 837C677 717 635 586 573 470ZM35 -51 103 -86C186 13 209 160 209 261V414H923V486H131V261C131 165 113 44 35 -51ZM562 -65C612 -65 655 -58 710 -37V42C654 19 613 8 575 8C554 8 544 20 544 48V363H467V14C467 -46 501 -65 562 -65ZM902 10 958 76C868 154 757 244 660 307L609 252C705 184 814 94 902 10ZM290 296V-26H366V296Z" transform="translate(0, 880) scale(1,-1)" /></svg>