<svg xmlns="http://www.w3.org/2000/svg" width="1000" height="1000"><path d="M360 456H436V763H360ZM117 722H903V801H117ZM580 456H656V763H580ZM0.0 0.0Q0 0 0.0 0.0Q0 0 0.0 0.0ZM35 -51 103 -86C186 13 209 160 209 261V412H923V487H131V261C131 165 113 44 35 -51ZM562 -65C612 -65 655 -58 710 -37V42C654 19 613 8 575 8C554 8 544 20 544 48V363H467V14C467 -46 501 -65 562 -65ZM902 10 958 76C868 154 757 244 660 307L609 252C705 184 814 94 902 10ZM290 296V-26H366V296ZM232 514 304 544C284 585 247 643 212 685L142 658C175 616 213 554 232 514ZM706 535 773 512C811 558 850 620 878 673L802 701C780 650 741 584 706 535Z" transform="translate(0, 880) scale(1,-1)" /></svg>