<svg xmlns="http://www.w3.org/2000/svg" width="1000" height="1000"><path d="M87 533 550 619 532 697 69 611ZM275 618H355V785H275ZM84 740H544V818H84ZM718 610H798V827H718ZM924 648H612V570H924ZM466 -88C707 -88 897 -34 897 78C897 169 793 203 582 203C512 203 436 197 376 189C415 220 467 280 501 331L413 343C385 292 330 219 272 178L244 170L284 96C359 113 436 125 562 125C727 125 809 117 809 78C809 5 597 -14 466 -14C359 -14 309 -9 309 0C309 10 349 18 404 18C485 18 541 7 555 -38L638 -29C618 38 541 79 405 79C297 79 223 46 223 0C223 -58 298 -88 466 -88ZM280 416 301 344C379 360 486 376 596 376C725 376 771 369 771 343C771 295 705 274 390 296V222C771 197 858 250 858 343C858 423 766 454 596 454C472 454 358 434 280 416ZM463 428 536 392C626 436 701 480 743 512L689 566L666 555H319V477H556C532 461 500 444 463 428ZM102 407 161 351C257 400 374 492 428 578L348 606C294 521 190 445 102 407Z" transform="translate(0, 880) scale(1,-1)" /></svg>