<svg xmlns="http://www.w3.org/2000/svg" width="1000" height="1000"><path d="M24 491 101 470C136 562 165 691 181 793L104 800C91 696 61 574 24 491ZM98 607H380V685H98ZM88 70 153 34C252 97 330 172 330 280C330 347 280 385 219 385C157 385 108 347 108 280C108 213 156 168 224 179C199 145 154 106 88 70ZM219 241C196 241 176 257 176 280C176 304 196 319 219 319C242 319 261 304 261 280C261 257 241 241 219 241ZM308 302V506H229V358ZM127 532V455H376V532ZM40 70 67 -7 385 93 359 168ZM757 -64C906 -64 947 -11 947 311C947 490 914 575 799 575C729 575 676 556 618 518L634 442C688 479 745 495 799 495C860 495 868 440 868 311C868 61 844 14 751 14C720 14 682 21 637 38V-46C675 -59 714 -64 757 -64ZM494 174H701C742 174 774 206 774 265C774 319 752 380 732 419L660 389C681 353 694 312 694 286C694 262 681 254 668 254H524C504 254 496 266 496 285C496 329 520 428 599 627L524 653C441 450 415 347 415 267C415 214 438 174 494 174ZM418 710H941V790H418Z" transform="translate(0, 880) scale(1,-1)" /></svg>