<svg xmlns="http://www.w3.org/2000/svg" width="6000" height="1000"><path d="M670 126 718 73C856 168 947 269 945 430C944 542 818 617 658 572C718 648 770 728 820 816L738 854C689 749 629 643 555 542C549 534 529 523 505 513L544 445C708 531 858 525 859 415C860 307 809 220 670 126ZM92 58H163C153 179 148 304 168 400C182 465 231 613 314 613C386 613 430 469 416 323C407 237 377 172 337 172C291 172 311 288 348 372C367 416 401 452 448 478L428 555C358 518 304 455 268 363C221 247 236 90 324 90C442 90 470 187 484 320C503 492 462 689 316 689C246 689 194 634 158 528L184 714H108C83 404 83 239 92 58ZM836 -93 907 -36C817 60 696 155 568 239L516 183C643 102 755 -1 836 -93Z" transform="translate(0, 880) scale(1,-1)" /><path d="M244 843 199 788C253 768 313 743 344 726L391 782C359 799 298 823 244 843ZM224 535 293 511 463 689 404 729 385 723H83V657H332ZM506 607 124 538 140 473 524 546ZM484 476 528 413C674 483 791 546 919 640L861 697L823 667H640C684 707 730 754 776 806L708 847C654 777 597 721 542 674C530 664 517 657 501 652L532 593L555 603H733C664 559 578 515 484 476ZM69 281 133 239C218 303 271 370 320 451L248 479C200 398 137 331 69 281ZM65 78 131 49C170 89 201 147 220 198L149 218C133 170 104 114 65 78ZM78 -54H930V17H78ZM278 84H730V153H278ZM458 -15H537V255H458ZM243 223H797V292H243ZM869 44 943 72C930 115 900 174 864 223L796 197C832 148 856 84 869 44ZM219 335H879V407H219Z" transform="translate(1000, 880) scale(1,-1)" /><path d="M324 637 392 671C373 715 330 780 287 828L224 798C265 748 307 682 324 637ZM600 637 666 609C711 671 759 751 792 808L711 833C686 775 640 693 600 637ZM119 569H881V643H119ZM939 242 959 320C738 348 444 349 55 319V247C439 274 734 268 939 242ZM741 499 686 551C622 497 539 445 468 408V23C468 5 453 -9 428 -9C375 -9 320 -2 266 16V-65C323 -78 370 -81 441 -81C493 -81 547 -48 547 11V371C612 407 680 451 741 499Z" transform="translate(2000, 880) scale(1,-1)" /><path d="M768 215 842 194C889 303 929 422 959 549L891 566L877 553L55 463L65 382L855 472C831 385 804 306 768 215ZM156 -22H886V58H156ZM478 28 563 35 483 837 398 830Z" transform="translate(3000, 880) scale(1,-1)" /><path d="M302 588V520C728 487 900 539 900 667C900 745 834 810 598 810C398 810 262 756 193 706V778H118V526H193V640C285 697 425 739 598 739C763 739 822 707 822 667C822 601 713 551 302 588ZM57 -52 126 -86C188 -40 240 26 262 91L187 116C168 53 113 -13 57 -52ZM524 -82C565 -82 603 -69 661 -32L607 29C577 3 558 -5 534 -5C510 -5 497 17 464 111L389 94C436 -50 478 -82 524 -82ZM68 160H935V231H68ZM368 231H522C585 263 607 314 607 372C607 433 556 472 497 472C423 472 355 441 355 385C355 326 416 295 487 295C505 295 522 300 536 308C511 266 452 244 368 231ZM873 -83 951 -53C916 -6 850 65 792 116L723 82C785 29 841 -37 873 -83ZM485 349C451 349 424 363 424 385C424 407 452 421 486 421C514 421 541 405 541 388C541 363 515 349 485 349ZM574 404V673H499V453Z" transform="translate(4000, 880) scale(1,-1)" /><path d="M173 -63C286 -63 324 94 324 248C324 494 248 567 65 535V464C213 487 245 437 245 240C245 144 218 17 173 17C151 17 136 39 136 84C136 188 202 307 359 390L320 452C157 362 58 213 58 84C58 -10 110 -63 173 -63ZM270 608 315 674C241 720 181 754 113 781L78 716C146 688 203 655 270 608ZM578 -66H913V15H562C489 15 472 29 472 89V230H389V95C389 -40 433 -66 578 -66ZM778 117C881 117 908 218 908 391H390V313H823C825 255 811 192 764 192C719 192 671 198 629 216V131C679 120 733 117 778 117ZM428 541 502 571C489 635 466 698 432 764L362 740C392 675 414 607 428 541ZM354 515H929V593H354ZM619 556 697 582C685 672 665 742 629 834L555 811C590 720 606 647 619 556ZM636 365 717 343C810 506 870 653 917 784L838 808C798 675 729 520 636 365Z" transform="translate(5000, 880) scale(1,-1)" /></svg>