<svg xmlns="http://www.w3.org/2000/svg" width="6000" height="1000"><path d="M59 90H124V745H59ZM187 186H251V745H187ZM283 344H667V408H283ZM472 408H536C575 436 614 474 614 526C614 584 560 627 473 627C383 627 323 596 323 535C323 484 360 444 422 444C468 444 504 484 504 517V830H444V535C444 510 430 500 410 500C395 500 382 513 382 535C382 557 404 574 473 574C528 574 555 551 555 526C555 494 540 455 472 408ZM299 675H649V738H299ZM669 -78C817 50 925 281 936 650L891 674L877 658H721V588H869C855 303 780 114 623 -24ZM426 -70C540 -70 649 6 649 145C649 255 575 300 377 293V232C541 238 584 208 584 144C584 51 501 -7 426 -7C383 -7 369 7 369 26C369 66 436 124 609 163L585 219C395 178 302 96 302 26C302 -23 340 -70 426 -70ZM350 168C389 213 436 287 464 353L404 371C379 309 336 240 296 193ZM917 -75 970 -23C916 102 816 264 726 390L680 349C772 219 864 46 917 -75ZM706 431C738 532 763 654 779 811L715 818C701 663 680 554 646 449Z" transform="translate(0, 880) scale(1,-1)" /><path d="M84 90H154V745H84ZM240 186H308V745H240ZM599 -80C793 -80 931 19 931 155C931 273 855 352 691 352C637 352 567 343 521 329C557 379 604 480 630 560L560 580C538 498 495 385 446 319L424 307L464 243C519 269 597 283 691 283C810 283 857 227 857 155C857 38 706 -13 599 -13C517 -13 478 0 478 40C478 69 505 94 547 94C609 94 651 59 661 -29L730 -15C715 90 653 158 547 158C466 158 405 98 405 40C405 -30 470 -80 599 -80ZM330 525 388 487C449 590 498 707 524 829L457 846C431 728 384 613 330 525ZM404 602 412 544C495 618 607 677 704 677C787 677 825 639 825 586C825 509 778 457 537 491V416C829 377 901 475 901 586C901 695 825 751 704 751C581 751 476 670 404 602Z" transform="translate(1000, 880) scale(1,-1)" /><path d="M324 637 392 671C373 715 330 780 287 828L224 798C265 748 307 682 324 637ZM600 637 666 609C711 671 759 751 792 808L711 833C686 775 640 693 600 637ZM119 569H881V643H119ZM939 242 959 320C738 348 444 349 55 319V247C439 274 734 268 939 242ZM741 499 686 551C622 497 539 445 468 408V23C468 5 453 -9 428 -9C375 -9 320 -2 266 16V-65C323 -78 370 -81 441 -81C493 -81 547 -48 547 11V371C612 407 680 451 741 499Z" transform="translate(2000, 880) scale(1,-1)" /><path d="M842 194C889 303 929 422 959 549L891 566L877 553L55 463L65 382L855 472C831 385 804 306 768 215ZM156 -22H886V58H156ZM478 28 563 35 483 837 398 830Z" transform="translate(3000, 880) scale(1,-1)" /><path d="M74 499H153V548C260 627 458 664 617 664C789 664 844 628 844 607C844 578 837 559 819 534L897 502C918 537 927 558 927 608C927 702 815 737 617 737C426 737 260 688 153 602V723H74ZM485 696 566 718C552 761 534 807 508 852L430 832C456 789 474 744 485 696ZM446 -75C514 -74 549 -59 549 23V337C636 380 722 440 785 499L736 543L720 537H236V462H626C577 426 528 395 473 370V35C473 16 462 1 441 0C401 -2 346 4 290 27V-57C341 -69 396 -76 446 -75ZM939 206 959 284C738 317 444 318 55 283V213C439 244 734 237 939 206Z" transform="translate(4000, 880) scale(1,-1)" /><path d="M100 -74C219 77 259 210 259 475V710H595V779H73V710H185V475C185 217 153 120 41 -16ZM389 -72C459 -72 497 -31 497 52V629H422V66C422 26 412 5 378 5C356 5 314 11 279 23V-58C309 -68 345 -72 389 -72ZM45 359H613V431H45ZM899 -79 950 -21C864 62 744 141 633 206L595 148C704 82 812 7 899 -79ZM722 105C877 206 927 255 927 342C927 416 863 466 713 504C787 567 855 646 925 764L844 798C778 672 728 600 613 512L622 450C799 409 850 371 850 342C850 303 816 248 671 157Z" transform="translate(5000, 880) scale(1,-1)" /></svg>